<svg xmlns="http://www.w3.org/2000/svg" viewBox="0 0 60 60" width="60" height="60"><path d="M0 0L60 0L60 60L0 60L0 0Z" fill="rgb(255,255,255)" fill-opacity="1.000" fill-rule="nonzero" transform="matrix(1 0 0 1 0 0)"/><path d="M13.753 17.526C13.679 17.526 13.605 17.6 13.605 17.6C12.638 18.121 11.672 18.418 10.557 18.567C10.111 18.641 9.59 18.641 9.144 18.641C6.319 18.567 4.014 17.452 2.156 15.296C1.115 14.032 0.446 12.545 0.149 10.984C0 10.389 0 9.72 0 9.125C0.149 4.962 2.899 1.617 6.616 0.427C7.211 0.279 7.806 0.13 8.475 0.056C8.995 -0.019 9.59 -0.019 10.111 0.056C11.597 0.204 13.01 0.65 14.274 1.394C16.43 2.806 17.842 4.739 18.437 7.267C18.585 7.787 18.585 8.308 18.66 8.828C18.734 9.274 18.66 9.72 18.66 10.241C18.66 14.478 18.66 18.79 18.66 23.027C18.66 23.25 18.585 23.399 18.437 23.473C18.362 23.548 18.288 23.548 18.214 23.548C16.876 23.548 15.612 23.548 14.274 23.548C13.976 23.548 13.828 23.399 13.828 23.102C13.828 21.318 13.828 19.533 13.828 17.749L13.828 17.526L13.753 17.526ZM4.832 9.274C4.832 11.727 6.765 13.735 9.293 13.735C11.746 13.735 13.753 11.727 13.753 9.274C13.753 6.821 11.746 4.814 9.293 4.814C6.839 4.814 4.907 6.821 4.832 9.274Z" fill="rgb(4,168,168)" fill-opacity="1.000" fill-rule="nonzero" transform="matrix(1 0 0 1 31.0488 15)"/><path d="M13.802 17.488C13.579 17.637 13.356 17.711 13.133 17.785C12.315 18.157 11.423 18.454 10.457 18.529C7.186 18.9 4.435 17.785 2.279 15.406C1.09 14.143 0.421 12.581 0.123 10.872C-0.026 10.128 -0.026 9.385 0.049 8.716C0.346 5.296 2.056 2.694 5.03 1.058C5.996 0.538 7.037 0.241 8.078 0.092C12.836 -0.577 17.296 2.471 18.411 7.08C18.56 7.824 18.709 8.493 18.709 9.236C18.709 12.21 18.709 15.109 18.709 18.083C18.709 18.454 18.56 18.603 18.188 18.603C16.924 18.603 15.661 18.603 14.397 18.603C14.025 18.603 13.876 18.454 13.876 18.083C13.802 17.86 13.802 17.711 13.802 17.488ZM4.955 9.236C4.881 11.541 6.74 13.697 9.416 13.697C11.944 13.697 13.876 11.615 13.876 9.31C13.876 6.931 11.944 4.85 9.416 4.85C6.814 4.85 4.881 7.006 4.955 9.236Z" fill="rgb(4,168,168)" fill-opacity="1.000" fill-rule="nonzero" transform="matrix(1 0 0 1 10 15.0381)"/><path d="M0 4.312L0 0.52C0 0.223 0.223 0 0.52 0L4.312 0C4.535 0 4.684 0.149 4.758 0.297C4.832 0.52 4.758 0.743 4.609 0.892L0.818 4.684C0.669 4.832 0.446 4.907 0.223 4.832C0.074 4.684 0 4.535 0 4.312Z" fill="rgb(255,206,67)" fill-opacity="1.000" fill-rule="nonzero" transform="matrix(1 0 0 1 44.877 41.0011)"/></svg>