<svg xmlns="http://www.w3.org/2000/svg" viewBox="0 0 60 60" width="60" height="60"><path d="M0 0L60 0L60 60L0 60L0 0Z" fill="rgb(255,255,255)" fill-opacity="1.000" fill-rule="nonzero" transform="matrix(1 0 0 1 0 0)"/><path d="M23.983 0L0.43 0L0.43 7.489L15.774 7.489C16.719 7.489 17.493 8.264 17.493 9.211L17.493 22.511L14.226 22.511C13.281 22.511 12.507 21.736 12.507 20.789L12.507 11.234L6.017 11.234C2.708 11.234 0 13.945 0 17.26L0 23.974C0 27.288 2.708 30 6.017 30L30 30L30 5.983C30 2.712 27.292 0 23.983 0Z" fill="rgb(10,191,83)" fill-opacity="1.000" fill-rule="nonzero" transform="matrix(1 0 0 1 15 15)"/></svg>