<svg xmlns="http://www.w3.org/2000/svg" viewBox="0 0 130 60" width="130" height="60"><path d="M0 0L130 0L130 60L0 60L0 0Z" fill="rgb(255,255,255)" fill-opacity="1.000" fill-rule="nonzero" transform="matrix(1 0 0 1 0 0)"/><path d="M29.39 19.758L27.561 19.758C27.032 19.758 26.598 19.321 26.598 18.787L26.598 7.063L22.964 7.063C21.11 7.063 19.594 8.593 19.594 10.462L19.594 20.608C19.594 22.477 21.11 24.006 22.964 24.006L36.395 24.006L36.395 0L29.39 0L29.39 19.758ZM13.431 7.064L0.241 7.064L0.241 11.287L8.834 11.287C9.364 11.287 9.797 11.724 9.797 12.258L9.797 19.758L7.967 19.758C7.438 19.758 7.005 19.321 7.005 18.787L7.005 13.399L3.37 13.399C1.516 13.399 0 14.928 0 16.797L0 20.584C0 22.453 1.516 23.982 3.37 23.982L16.801 23.982L16.801 10.438C16.801 8.593 15.285 7.064 13.431 7.064ZM47.179 19.758L49.008 19.758L49.008 7.064L56.013 7.064L56.013 27.671C56.013 29.54 54.496 31.07 52.643 31.07L39.452 31.07L39.452 26.118L49.008 26.118L49.008 24.006L42.581 24.006C40.728 24.006 39.211 22.477 39.211 20.608L39.211 7.064L46.216 7.064L46.216 18.787C46.216 19.321 46.649 19.758 47.179 19.758ZM72.236 7.064L58.805 7.064L58.805 20.608C58.805 22.477 60.321 24.006 62.175 24.006L75.366 24.006L75.366 19.783L66.772 19.783C66.243 19.783 65.81 19.346 65.81 18.812L65.81 11.287L67.639 11.287C68.169 11.287 68.602 11.724 68.602 12.258L68.602 17.647L72.236 17.647C74.09 17.647 75.606 16.117 75.606 14.248L75.606 10.462C75.606 8.593 74.09 7.064 72.236 7.064ZM78.399 7.064L91.83 7.064C93.708 7.064 95.2 8.593 95.2 10.438L95.2 23.982L88.195 23.982L88.195 12.258C88.195 11.724 87.762 11.287 87.232 11.287L85.403 11.287L85.403 24.006L78.399 24.006L78.399 7.064Z" fill="rgb(10,191,83)" fill-opacity="1.000" fill-rule="nonzero" transform="matrix(1 0 0 1 17 14)"/></svg>