<svg xmlns="http://www.w3.org/2000/svg" viewBox="0 0 60 60" width="60" height="60"><path d="M0 0L60 0L60 60L0 60L0 0Z" fill="rgb(255,255,255)" fill-opacity="1.000" fill-rule="nonzero" transform="matrix(1 0 0 1 0 0)"/><path d="M4.568 2.326C4.579 3.668 3.444 4.64 2.268 4.631C1.2 4.623 0.002 3.775 0 2.318C-0.001 0.973 1.036 -0.002 2.29 0C3.63 0.002 4.595 1.114 4.568 2.326Z" fill="rgb(47,199,80)" fill-opacity="1.000" fill-rule="nonzero" transform="matrix(1 0 0 1 46.2887 15)"/><path d="M7.785 0.008C7.093 0.017 6.401 0.124 5.711 0.334C3.275 1.077 1.615 2.728 0.637 5.073C-0.059 6.744 -0.156 8.501 0.206 10.263C0.747 12.896 2.246 14.826 4.602 16.051C5.982 16.769 7.473 16.918 8.994 16.706C10.636 16.478 12.137 15.918 13.31 14.626C13.353 14.7 13.348 14.763 13.344 14.82C13.343 14.835 13.341 14.85 13.341 14.864C13.343 15.12 13.343 15.376 13.343 15.632C13.343 15.803 13.342 15.973 13.343 16.144C13.343 16.306 13.336 16.379 13.369 16.411C13.403 16.444 13.478 16.435 13.644 16.436C14.606 16.437 15.568 16.438 16.531 16.435C16.723 16.435 16.809 16.45 16.846 16.415C16.882 16.38 16.872 16.297 16.872 16.103C16.873 12.255 16.873 8.406 16.873 4.558C16.873 3.275 16.873 1.994 16.873 0.712C16.873 0.697 16.872 0.682 16.872 0.667C16.871 0.635 16.87 0.604 16.873 0.572C16.887 0.447 16.851 0.391 16.71 0.392C15.647 0.398 14.584 0.398 13.521 0.392C13.37 0.391 13.339 0.449 13.341 0.587C13.346 1.199 13.344 1.811 13.341 2.423C13.341 2.436 13.343 2.449 13.346 2.464C13.353 2.51 13.361 2.562 13.292 2.59C13.254 2.544 13.216 2.497 13.177 2.45C13.104 2.361 13.032 2.272 12.956 2.185C12.265 1.39 11.433 0.796 10.44 0.453C9.562 0.148 8.674 -0.003 7.785 0.008ZM8.274 3.259C8.424 3.257 8.576 3.26 8.729 3.269C9.782 3.327 10.737 3.661 11.56 4.344C12.717 5.304 13.318 6.549 13.397 8.055C13.451 9.082 13.307 10.077 12.793 10.98C11.86 12.62 10.451 13.482 8.577 13.551C8.015 13.571 7.454 13.535 6.918 13.362C4.969 12.734 3.809 11.393 3.435 9.355C3.39 9.111 3.381 8.865 3.373 8.638C3.371 8.574 3.368 8.512 3.365 8.452C3.363 6.69 3.997 5.273 5.365 4.224C6.234 3.555 7.219 3.273 8.273 3.259L8.274 3.259ZM35.343 0.88C35.343 0.769 35.344 0.658 35.342 0.546C35.339 0.347 35.338 0.342 35.148 0.342C34.103 0.34 33.058 0.34 32.013 0.342C31.809 0.342 31.808 0.346 31.805 0.559C31.8 1.134 31.797 1.71 31.791 2.285C31.791 2.353 31.806 2.427 31.771 2.49C31.745 2.485 31.733 2.486 31.729 2.481C31.659 2.396 31.589 2.309 31.519 2.224C30.808 1.364 29.927 0.755 28.876 0.396C27.926 0.071 26.946 -0.02 25.95 0.004C25.155 0.023 24.38 0.149 23.64 0.443C21.729 1.202 20.331 2.556 19.392 4.373C18.36 6.368 18.239 8.493 18.776 10.651C19.275 12.659 20.467 14.206 22.084 15.431C22.842 16.006 23.694 16.382 24.625 16.572C25.635 16.778 26.647 16.782 27.659 16.608C29.217 16.341 30.646 15.795 31.792 14.547C31.798 14.652 31.806 14.705 31.804 14.758C31.788 15.12 31.777 15.481 31.721 15.839C31.451 17.559 30.567 18.798 28.95 19.458C27.719 19.962 26.455 20.014 25.174 19.698C23.979 19.404 22.934 18.842 22.14 17.861C22.042 17.74 22.035 17.742 21.891 17.887C21.151 18.634 20.413 19.382 19.674 20.13C19.648 20.157 19.623 20.184 19.596 20.21C19.549 20.257 19.546 20.304 19.59 20.355C19.645 20.418 19.699 20.481 19.755 20.542C20.493 21.347 21.357 21.982 22.333 22.458C24.624 23.575 27.012 23.732 29.462 23.146C30.799 22.826 31.978 22.194 32.951 21.195C33.846 20.275 34.423 19.17 34.795 17.947C35.205 16.605 35.338 15.223 35.34 13.827C35.346 9.511 35.343 5.196 35.343 0.88ZM31.87 8.433C31.849 10.137 31.189 11.559 29.785 12.599C29.095 13.11 28.314 13.387 27.468 13.469C26.428 13.569 25.413 13.46 24.48 12.946C22.947 12.101 22.073 10.794 21.869 9.035C21.756 8.068 21.836 7.117 22.232 6.227C23.019 4.462 24.365 3.441 26.284 3.237C27.389 3.119 28.45 3.284 29.409 3.866C30.866 4.75 31.68 6.062 31.839 7.781C31.851 7.911 31.862 8.04 31.869 8.17C31.873 8.245 31.87 8.319 31.87 8.433ZM37.869 8.397L37.869 0.659C37.869 0.317 37.848 0.359 38.16 0.358C39.141 0.357 40.122 0.357 41.103 0.358C41.425 0.359 41.398 0.323 41.398 0.656C41.399 4.543 41.398 8.431 41.398 12.318L41.398 16.075C41.398 16.149 41.397 16.224 41.397 16.298C41.397 16.366 41.363 16.399 41.298 16.401C41.242 16.402 41.188 16.402 41.133 16.402C40.133 16.402 39.134 16.403 38.135 16.402C37.842 16.402 37.869 16.428 37.869 16.134C37.869 13.555 37.869 10.976 37.869 8.397L37.869 8.397Z" fill="rgb(38,107,255)" fill-opacity="1.000" fill-rule="nonzero" transform="matrix(1 0 0 1 9 20.9297)"/></svg>