<svg xmlns="http://www.w3.org/2000/svg" viewBox="0 0 60 60" width="60" height="60"><path d="M0 0L60 0L60 60L0 60L0 0Z" fill="rgb(255,255,255)" fill-opacity="1.000" fill-rule="nonzero" transform="matrix(1 0 0 1 0 0)"/><path d="M15.291 9.835L8.803 0.631C8.681 0.438 8.511 0.279 8.31 0.168C8.108 0.058 7.883 0 7.653 0C7.423 0 7.197 0.058 6.996 0.168C6.795 0.278 6.625 0.437 6.502 0.63L0 9.835L1.634 9.835L6.835 2.464L12.028 9.835L15.291 9.835ZM26.728 8.486L18.569 8.486L20.855 0.016L18.093 0.016L16.095 7.421C16.018 7.708 16.008 8.008 16.067 8.298C16.126 8.588 16.251 8.862 16.432 9.096C16.614 9.331 16.848 9.521 17.115 9.651C17.382 9.782 17.676 9.849 17.974 9.848L26.357 9.848L26.728 8.486ZM31.481 2.788L31.937 1.157L39.561 1.157L39.871 0.017L29.99 0.017L28.852 4.148C28.852 4.148 39.166 3.165 39.166 6.4C39.166 9.443 31.267 8.76 28.578 8.481L28.222 9.937C31.39 10.262 42.001 11.009 42.001 6.421C42.001 2.663 34.679 2.625 31.481 2.787L31.481 2.788ZM28.072 13.661C28.111 13.739 28.134 13.824 28.139 13.911C28.145 13.998 28.132 14.085 28.103 14.168C28.07 14.295 28.013 14.415 27.933 14.52C27.854 14.625 27.754 14.714 27.64 14.781C27.354 14.936 27.031 15.01 26.705 14.995L25.267 14.995L26.105 11.898L27.453 11.898C27.722 11.874 27.99 11.948 28.207 12.105C28.285 12.18 28.338 12.276 28.361 12.38C28.384 12.485 28.376 12.594 28.336 12.694C28.294 12.858 28.21 13.008 28.091 13.13C27.973 13.25 27.828 13.342 27.668 13.398C27.751 13.411 27.829 13.441 27.899 13.486C27.968 13.531 28.027 13.59 28.072 13.66L28.072 13.661ZM27.446 14.584C27.529 14.537 27.602 14.473 27.66 14.396C27.717 14.32 27.758 14.232 27.78 14.139C27.884 13.753 27.654 13.559 27.088 13.559L25.985 13.559L25.671 14.723L26.773 14.723C27.006 14.734 27.237 14.686 27.446 14.583L27.446 14.584ZM26.362 12.168L26.058 13.293L27.054 13.293C27.271 13.301 27.486 13.252 27.677 13.149C27.756 13.104 27.825 13.044 27.879 12.972C27.934 12.9 27.974 12.818 27.996 12.731C28.024 12.66 28.031 12.582 28.015 12.507C27.998 12.433 27.959 12.365 27.904 12.312C27.744 12.202 27.551 12.151 27.357 12.168L26.362 12.168ZM31.264 14.169L29.522 14.169L28.923 14.996L28.58 14.996L30.846 11.899L31.172 11.899L31.763 14.996L31.415 14.996L31.264 14.169ZM31.215 13.903L30.915 12.238L29.715 13.903L31.215 13.903ZM36.177 11.896L35.34 14.994L35.068 14.994L33.738 12.481L33.058 14.994L32.728 14.994L33.566 11.896L33.838 11.896L35.173 14.41L35.852 11.896L36.177 11.896ZM38.167 13.538L37.356 14.18L37.136 14.994L36.806 14.994L37.643 11.896L37.973 11.896L37.467 13.768L39.808 11.896L40.188 11.896L38.456 13.299L39.444 14.994L39.051 14.994L38.167 13.538Z" fill="rgb(14,80,116)" fill-opacity="1.000" fill-rule="evenodd" transform="matrix(1 0 0 1 8.9972 22.0034)"/></svg>