<svg xmlns="http://www.w3.org/2000/svg" viewBox="0 0 60 60" width="60" height="60"><path d="M0 0L60 0L60 60L0 60L0 0Z" fill="rgb(255,255,255)" fill-opacity="1.000" fill-rule="nonzero" transform="matrix(1 0 0 1 0 0)"/><path d="M31.197 0C28.175 -0.001 25.222 0.898 22.715 2.583C22.542 2.701 21.349 3.552 21.297 3.594C19.315 5.083 17.985 5.341 16.162 4.884C16.051 4.856 15.529 4.677 15.365 4.614C13.663 3.973 11.832 3.751 10.026 3.964C8.22 4.178 6.492 4.821 4.987 5.841C3.481 6.861 2.243 8.227 1.376 9.824C0.508 11.421 0.037 13.203 0.002 15.02C-0.033 16.838 0.369 18.636 1.174 20.266C1.979 21.896 3.164 23.308 4.629 24.385C6.094 25.462 7.796 26.172 9.592 26.455C11.389 26.738 13.227 26.586 14.952 26.012C17.67 25.199 19.145 25.422 20.851 26.625C21.192 26.865 22.014 27.391 22.184 27.516C24.126 28.94 26.379 29.884 28.756 30.271C31.134 30.657 33.57 30.475 35.863 29.739C38.157 29.003 40.243 27.734 41.952 26.036C43.66 24.339 44.941 22.261 45.691 19.973C46.44 17.685 46.636 15.252 46.263 12.874C45.89 10.496 44.958 8.24 43.544 6.291C42.129 4.342 40.273 2.756 38.127 1.662C35.981 0.569 33.606 -0.001 31.197 0Z" fill="rgb(0,120,88)" fill-opacity="1.000" fill-rule="nonzero" transform="matrix(1 0 0 1 6.2875 14)"/><path d="M9.979 8.609C9.545 9.036 8.979 9.304 8.374 9.368C7.768 9.432 7.159 9.289 6.645 8.963L5.633 10.568C6.51 11.121 7.548 11.363 8.579 11.254C9.61 11.144 10.574 10.69 11.314 9.965L9.979 8.609ZM8.157 2.072C7.321 2.059 6.498 2.273 5.775 2.692C5.052 3.11 4.456 3.717 4.052 4.448C3.648 5.179 3.451 6.006 3.481 6.841C3.511 7.675 3.768 8.486 4.224 9.186L12.566 5.622C12.331 4.625 11.77 3.734 10.972 3.091C10.173 2.448 9.182 2.089 8.157 2.072ZM5.393 6.959C5.33 6.382 5.454 5.8 5.747 5.3C6.04 4.799 6.486 4.405 7.02 4.177C7.554 3.949 8.147 3.899 8.711 4.033C9.276 4.167 9.783 4.48 10.156 4.924L5.393 6.959ZM15.186 0L15.186 8.884L16.728 9.524L16.001 11.271L14.471 10.638C14.163 10.506 13.902 10.286 13.72 10.005C13.517 9.677 13.414 9.298 13.425 8.913L13.425 0L15.186 0ZM1.753 0L1.753 8.884L3.282 9.524L2.555 11.271L1.025 10.638C0.728 10.505 0.475 10.289 0.298 10.016C0.094 9.689 -0.01 9.309 0.001 8.924L0.001 0L1.753 0Z" fill="rgb(255,255,255)" fill-opacity="1.000" fill-rule="nonzero" transform="matrix(1 0 0 1 22.0058 22.9806)"/><path d="M4.282 2.158C4.603 2.313 4.89 2.529 5.127 2.794C5.364 3.059 5.546 3.369 5.663 3.705C5.781 4.04 5.831 4.396 5.81 4.751C5.79 5.106 5.7 5.454 5.545 5.774L7.252 6.593C7.714 5.63 7.826 4.537 7.57 3.5C7.315 2.464 6.706 1.548 5.849 0.911C4.992 0.273 3.94 -0.047 2.873 0.006C1.806 0.058 0.79 0.479 0 1.197L1.276 2.597C1.676 2.232 2.176 1.995 2.712 1.916C3.248 1.838 3.795 1.922 4.282 2.158Z" fill="rgb(199,213,64)" fill-opacity="1.000" fill-rule="nonzero" transform="matrix(1 0 0 1 40.4996 25.054)"/><path d="M31.347 7.029C30.699 6.717 30.202 6.161 29.964 5.483C29.726 4.805 29.767 4.061 30.078 3.413L28.371 2.592C27.914 3.553 27.804 4.643 28.061 5.676C28.317 6.71 28.924 7.622 29.778 8.258C30.632 8.894 31.681 9.215 32.745 9.166C33.809 9.116 34.823 8.7 35.614 7.987L34.338 6.59C33.94 6.951 33.442 7.186 32.909 7.264C32.377 7.343 31.833 7.26 31.347 7.029ZM9.177 7.157L9.177 4.585C9.177 3.678 8.908 2.792 8.403 2.038C7.899 1.284 7.183 0.696 6.344 0.349C5.506 0.002 4.583 -0.089 3.693 0.088C2.803 0.265 1.986 0.702 1.344 1.343C0.702 1.984 0.265 2.801 0.088 3.691C-0.089 4.58 0.002 5.502 0.349 6.34C0.697 7.178 1.285 7.894 2.039 8.398C2.794 8.902 3.681 9.171 4.588 9.171C5.3 9.171 6.001 9.005 6.638 8.688L5.899 6.963C5.486 7.192 5.02 7.308 4.547 7.301C4.075 7.295 3.612 7.165 3.206 6.925C2.799 6.684 2.462 6.342 2.228 5.932C1.994 5.522 1.872 5.057 1.872 4.585C1.87 4.142 1.977 3.704 2.185 3.312C2.368 2.97 2.621 2.671 2.929 2.435C3.237 2.199 3.592 2.031 3.97 1.943C4.17 1.896 4.376 1.872 4.582 1.871C5.303 1.871 5.995 2.156 6.505 2.665C7.016 3.174 7.303 3.865 7.304 4.585L7.304 7.136C7.293 7.52 7.396 7.9 7.599 8.227C7.782 8.507 8.044 8.727 8.351 8.86L9.212 9.201L9.941 7.454L9.177 7.157Z" fill="rgb(255,255,255)" fill-opacity="1.000" fill-rule="nonzero" transform="matrix(1 0 0 1 11.0862 25.068)"/></svg>