<svg xmlns="http://www.w3.org/2000/svg" viewBox="0 0 130 60" width="130" height="60"><path d="M0 0L130 0L130 60L0 60L0 0Z" fill="rgb(255,255,255)" fill-opacity="1.000" fill-rule="nonzero" transform="matrix(1 0 0 1 0 0)"/><path d="M101.485 0L0 0L0 19.469L101.485 19.469L101.485 0Z" fill="rgb(0,0,0)" fill-opacity="1.000" fill-rule="nonzero" transform="matrix(1 0 0 1 13.9999 19.9999)"/><path d="M30.964 2.801C27.214 5.569 21.777 7.041 17.094 7.041C10.533 7.041 4.623 4.615 0.151 0.577C-0.199 0.26 0.114 -0.173 0.536 0.072C5.36 2.88 11.327 4.571 17.488 4.571C21.645 4.571 26.215 3.708 30.419 1.924C31.053 1.656 31.585 2.342 30.964 2.801Z" fill="rgb(247,156,52)" fill-opacity="1.000" fill-rule="evenodd" transform="matrix(1 0 0 1 23.0813 32.4285)"/><path d="M4.691 1.693C4.21 1.079 1.52 1.402 0.311 1.547C-0.056 1.592 -0.112 1.271 0.218 1.04C2.364 -0.468 5.882 -0.033 6.291 0.472C6.703 0.981 6.183 4.508 4.171 6.191C3.861 6.45 3.567 6.312 3.705 5.97C4.158 4.839 5.171 2.308 4.691 1.693Z" fill="rgb(247,156,52)" fill-opacity="1.000" fill-rule="evenodd" transform="matrix(1 0 0 1 50.9158 31.7538)"/><path d="M0.374 1.836L0.374 0.371C0.375 0.148 0.543 0 0.746 0.001L7.313 0C7.522 0 7.692 0.152 7.692 0.37L7.692 1.626C7.689 1.837 7.512 2.112 7.197 2.548L3.795 7.405C5.058 7.376 6.393 7.565 7.541 8.21C7.8 8.355 7.869 8.571 7.889 8.782L7.889 10.345C7.889 10.56 7.654 10.809 7.405 10.68C5.384 9.621 2.702 9.505 0.467 10.693C0.239 10.815 0 10.568 0 10.353L0 8.867C0 8.629 0.005 8.222 0.244 7.86L4.185 2.206L0.754 2.205C0.544 2.205 0.375 2.056 0.374 1.836Z" fill="rgb(51,62,71)" fill-opacity="1.000" fill-rule="evenodd" transform="matrix(1 0 0 1 50.9373 20.3046)"/><path d="M2.356 11.177L0.358 11.177C0.167 11.165 0.016 11.022 0 10.839L0.002 0.585C0.002 0.381 0.174 0.217 0.388 0.217L2.248 0.216C2.442 0.226 2.599 0.373 2.611 0.561L2.611 1.899L2.649 1.899C3.133 0.604 4.047 0 5.278 0C6.527 0 7.311 0.604 7.87 1.899C8.355 0.604 9.455 0 10.63 0C11.469 0 12.383 0.346 12.942 1.122C13.577 1.986 13.447 3.237 13.447 4.337L13.444 10.808C13.444 11.012 13.272 11.177 13.059 11.177L11.064 11.177C10.863 11.164 10.705 11.005 10.705 10.809L10.705 5.373C10.705 4.942 10.742 3.863 10.648 3.453C10.5 2.762 10.052 2.568 9.474 2.568C8.989 2.568 8.485 2.891 8.28 3.409C8.075 3.927 8.094 4.79 8.094 5.373L8.094 10.808C8.094 11.012 7.921 11.177 7.709 11.177L5.713 11.177C5.512 11.164 5.354 11.005 5.354 10.809L5.352 5.373C5.352 4.229 5.539 2.547 4.122 2.547C2.686 2.547 2.742 4.186 2.742 5.373L2.741 10.808C2.741 11.012 2.568 11.177 2.356 11.177Z" fill="rgb(51,62,71)" fill-opacity="1.000" fill-rule="evenodd" transform="matrix(1 0 0 1 25.0019 20.1155)"/><path d="M4.513 2.093C3.04 2.093 2.947 4.099 2.947 5.351C2.947 6.603 2.928 9.278 4.495 9.278C6.043 9.278 6.117 7.121 6.117 5.805C6.117 4.942 6.079 3.906 5.818 3.086C5.595 2.373 5.147 2.093 4.513 2.093ZM4.495 0C7.46 0 9.063 2.547 9.063 5.783C9.063 8.911 7.292 11.393 4.495 11.393C1.585 11.393 0 8.847 0 5.675C0 2.481 1.603 0 4.495 0Z" fill="rgb(51,62,71)" fill-opacity="1.000" fill-rule="evenodd" transform="matrix(1 0 0 1 59.7873 20.1155)"/><path d="M2.353 11.177L0.362 11.177C0.162 11.164 0.003 11.005 0.003 10.809L0 0.551C0.017 0.363 0.183 0.217 0.384 0.217L2.237 0.216C2.412 0.225 2.556 0.344 2.592 0.503L2.592 2.071L2.63 2.071C3.19 0.669 3.972 0 5.352 0C6.247 0 7.124 0.324 7.683 1.209C8.205 2.028 8.206 3.409 8.206 4.402L8.206 10.854C8.184 11.036 8.02 11.177 7.823 11.177L5.82 11.177C5.635 11.165 5.486 11.029 5.464 10.854L5.464 5.287C5.464 4.165 5.595 2.525 4.215 2.525C3.73 2.525 3.282 2.848 3.059 3.344C2.779 3.971 2.741 4.596 2.741 5.287L2.741 10.808C2.738 11.012 2.565 11.177 2.353 11.177Z" fill="rgb(51,62,71)" fill-opacity="1.000" fill-rule="evenodd" transform="matrix(1 0 0 1 70.3437 20.1155)"/><path d="M7.901 11.25C7.769 11.368 7.579 11.376 7.429 11.296C6.766 10.745 6.647 10.49 6.284 9.965C5.188 11.082 4.411 11.417 2.99 11.417C1.309 11.417 0 10.379 0 8.303C0 6.681 0.879 5.579 2.131 5.038C3.214 4.562 4.728 4.476 5.887 4.346L5.887 4.087C5.887 3.61 5.925 3.049 5.644 2.638C5.401 2.27 4.934 2.119 4.523 2.119C3.761 2.119 3.084 2.509 2.917 3.318C2.882 3.498 2.751 3.677 2.571 3.686L0.634 3.476C0.47 3.439 0.289 3.308 0.335 3.058C0.775 0.742 2.844 0.02 4.724 0L4.872 0C5.834 0.012 7.064 0.276 7.812 0.994C8.784 1.902 8.69 3.113 8.69 4.433L8.69 7.545C8.69 8.481 9.079 8.892 9.444 9.396C9.573 9.578 9.601 9.794 9.438 9.927C9.03 10.27 8.305 10.899 7.907 11.254L7.901 11.25ZM5.887 6.379C5.887 7.157 5.906 7.806 5.514 8.498C5.196 9.06 4.691 9.406 4.13 9.406C3.365 9.406 2.916 8.822 2.916 7.957C2.916 6.255 4.442 5.946 5.887 5.946L5.887 6.379Z" fill="rgb(51,62,71)" fill-opacity="1.000" fill-rule="evenodd" transform="matrix(1 0 0 1 40.1894 20.0172)"/><path d="M7.901 11.25C7.769 11.368 7.578 11.376 7.429 11.296C6.765 10.745 6.646 10.49 6.284 9.965C5.187 11.082 4.411 11.417 2.99 11.417C1.309 11.417 0 10.379 0 8.303C0 6.681 0.878 5.579 2.131 5.038C3.214 4.562 4.728 4.476 5.887 4.346L5.887 4.087C5.887 3.61 5.925 3.049 5.644 2.638C5.401 2.27 4.934 2.119 4.523 2.119C3.761 2.119 3.083 2.509 2.917 3.318C2.883 3.498 2.751 3.677 2.57 3.686L0.634 3.476C0.47 3.439 0.288 3.308 0.335 3.058C0.774 0.742 2.843 0.02 4.724 0L4.872 0C5.834 0.012 7.064 0.276 7.812 0.994C8.784 1.902 8.69 3.113 8.69 4.433L8.69 7.545C8.69 8.481 9.079 8.892 9.444 9.396C9.572 9.578 9.601 9.794 9.438 9.927C9.03 10.27 8.304 10.899 7.906 11.254L7.901 11.25ZM5.887 6.379C5.887 7.157 5.906 7.806 5.513 8.498C5.196 9.06 4.691 9.406 4.13 9.406C3.364 9.406 2.916 8.822 2.916 7.957C2.916 6.255 4.442 5.946 5.887 5.946L5.887 6.379Z" fill="rgb(51,62,71)" fill-opacity="1.000" fill-rule="evenodd" transform="matrix(1 0 0 1 13.9999 20.0172)"/><path d="M0.589 14.647C0.589 14.387 0.589 14.154 0.589 13.894C0.589 13.679 0.694 13.532 0.918 13.545C1.335 13.604 1.926 13.663 2.345 13.577C2.892 13.463 3.285 13.075 3.517 12.543C3.844 11.795 4.061 11.191 4.198 10.795L0.042 0.499C-0.028 0.324 -0.049 0 0.3 0L1.753 0C2.03 0 2.143 0.176 2.205 0.348L5.218 8.711L8.094 0.348C8.153 0.177 8.271 0 8.546 0L9.916 0C10.262 0 10.243 0.324 10.174 0.499L6.051 11.116C5.518 12.53 4.807 14.78 3.206 15.171C2.404 15.381 1.391 15.305 0.797 15.056C0.647 14.981 0.589 14.78 0.589 14.647Z" fill="rgb(51,62,71)" fill-opacity="1.000" fill-rule="evenodd" transform="matrix(1 0 0 1 105.2701 20.3236)"/><path d="M8.628 10.665C8.628 10.857 8.471 11.013 8.279 11.013L7.254 11.013C7.033 11.013 6.881 10.854 6.853 10.665L6.75 9.968C6.279 10.366 5.702 10.716 5.075 10.96C3.87 11.428 2.481 11.506 1.303 10.782C0.452 10.26 0 9.238 0 8.184C0 7.369 0.251 6.561 0.808 5.974C1.552 5.172 2.629 4.778 3.93 4.778C4.716 4.778 5.841 4.87 6.659 5.138L6.659 3.734C6.659 2.307 6.058 1.69 4.474 1.69C3.263 1.69 2.337 1.873 1.048 2.273C0.842 2.28 0.721 2.123 0.721 1.932L0.721 1.131C0.721 0.939 0.885 0.754 1.062 0.697C1.983 0.296 3.287 0.046 4.673 0C6.48 0 8.628 0.408 8.628 3.187L8.628 10.665ZM6.659 8.616L6.659 6.499C5.971 6.311 4.833 6.232 4.393 6.232C3.697 6.232 2.936 6.397 2.538 6.825C2.241 7.139 2.106 7.59 2.106 8.026C2.106 8.589 2.301 9.154 2.756 9.434C3.285 9.793 4.106 9.749 4.877 9.53C5.618 9.32 6.313 8.948 6.659 8.616Z" fill="rgb(51,62,71)" fill-opacity="1.000" fill-rule="evenodd" transform="matrix(1 0 0 1 95.2931 19.9999)"/><path d="M4.804 1.715C7.077 1.715 7.696 3.503 7.696 5.549C7.709 6.929 7.455 8.16 6.741 8.864C6.206 9.391 5.609 9.535 4.709 9.535C3.909 9.535 2.856 9.117 2.07 8.536L2.07 2.684C2.888 2.055 3.933 1.715 4.804 1.715ZM1.721 15.332L0.349 15.332C0.157 15.332 0 15.175 0 14.983C0 10.217 0 5.45 0 0.684C0 0.493 0.157 0.336 0.349 0.336L1.399 0.336C1.62 0.336 1.771 0.496 1.8 0.684L1.91 1.433C2.894 0.56 4.16 0 5.367 0C8.747 0 9.858 2.785 9.858 5.681C9.858 8.779 8.158 11.269 5.283 11.269C4.072 11.269 2.94 10.822 2.07 10.046L2.07 14.983C2.07 15.175 1.913 15.332 1.721 15.332Z" fill="rgb(51,62,71)" fill-opacity="1.000" fill-rule="evenodd" transform="matrix(1 0 0 1 84.0111 20.0063)"/></svg>