<svg xmlns="http://www.w3.org/2000/svg" viewBox="0 0 60 60" width="60" height="60"><path d="M0 0L60 0L60 60L0 60L0 0Z" fill="rgb(255,255,255)" fill-opacity="1.000" fill-rule="nonzero" transform="matrix(1 0 0 1 0 0)"/><path d="M5.4 0C4.185 0 2.911 0.563 1.921 1.442L1.81 0.688C1.782 0.498 1.63 0.338 1.408 0.338L0.351 0.338C0.158 0.338 0 0.496 0 0.688C0 5.484 0 10.28 0 15.076C0 15.269 0.158 15.426 0.351 15.426L1.732 15.426C1.925 15.426 2.082 15.268 2.082 15.076L2.082 10.108C2.958 10.889 4.097 11.338 5.315 11.338C8.209 11.338 9.919 8.833 9.919 5.716C9.919 2.802 8.801 0 5.4 0ZM6.782 8.919C6.243 9.45 5.643 9.594 4.738 9.594C3.932 9.594 2.873 9.174 2.082 8.589L2.082 2.7C2.906 2.068 3.957 1.725 4.833 1.725C7.12 1.725 7.743 3.524 7.743 5.583C7.756 6.972 7.501 8.21 6.782 8.919Z" fill="rgb(51,62,71)" fill-opacity="1.000" fill-rule="nonzero" transform="matrix(1 0 0 1 13.8877 17.0066)"/><path d="M8.682 10.732C8.682 10.924 8.524 11.082 8.33 11.082L7.299 11.082C7.076 11.082 6.924 10.921 6.896 10.732L6.792 10.03C6.319 10.431 5.737 10.783 5.106 11.029C3.894 11.5 2.496 11.577 1.311 10.85C0.454 10.324 0 9.296 0 8.235C0 7.415 0.253 6.601 0.813 6.011C1.561 5.204 2.646 4.808 3.955 4.808C4.745 4.808 5.877 4.901 6.7 5.17L6.7 3.758C6.7 2.322 6.096 1.701 4.502 1.701C3.284 1.701 2.351 1.884 1.055 2.288C0.847 2.295 0.726 2.137 0.726 1.944L0.726 1.139C0.726 0.945 0.891 0.758 1.069 0.702C1.995 0.298 3.308 0.046 4.702 0C6.521 0 8.682 0.41 8.682 3.207L8.682 10.732L8.682 10.732ZM6.701 8.67L6.701 6.539C6.009 6.349 4.864 6.271 4.421 6.271C3.721 6.271 2.955 6.437 2.554 6.867C2.255 7.184 2.12 7.637 2.12 8.075C2.12 8.642 2.316 9.211 2.775 9.492C3.307 9.854 4.132 9.81 4.908 9.589C5.653 9.378 6.353 9.003 6.701 8.67Z" fill="rgb(51,62,71)" fill-opacity="1.000" fill-rule="nonzero" transform="matrix(1 0 0 1 25.2384 17)"/><path d="M0.592 14.738C0.592 14.476 0.592 14.241 0.592 13.98C0.592 13.764 0.699 13.615 0.923 13.629C1.343 13.688 1.937 13.748 2.359 13.661C2.91 13.547 3.305 13.156 3.539 12.621C3.868 11.868 4.086 11.26 4.224 10.862L0.042 0.502C-0.029 0.326 -0.049 0 0.302 0L1.763 0C2.042 0 2.156 0.177 2.218 0.35L5.25 8.765L8.145 0.35C8.204 0.178 8.322 0 8.599 0L9.977 0C10.326 0 10.306 0.326 10.236 0.502L6.088 11.185C5.551 12.607 4.836 14.872 3.226 15.265C2.418 15.476 1.399 15.4 0.801 15.15C0.65 15.074 0.592 14.871 0.592 14.738Z" fill="rgb(51,62,71)" fill-opacity="1.000" fill-rule="nonzero" transform="matrix(1 0 0 1 35.2785 17.3262)"/><path d="M4.606 0.001C3.193 0.021 1.523 0.337 0.257 1.226C-0.134 1.497 -0.065 1.874 0.37 1.824C1.793 1.653 4.963 1.268 5.529 1.992C6.097 2.716 4.901 5.704 4.373 7.04C4.209 7.438 4.555 7.603 4.92 7.3C7.289 5.316 7.905 1.156 7.42 0.557C7.177 0.258 6.02 -0.019 4.606 0.001Z" fill="rgb(247,156,52)" fill-opacity="1.000" fill-rule="nonzero" transform="matrix(1 0 0 1 44.8692 31.6311)"/><path d="M0.327 0.004C-0.003 0.049 -0.146 0.468 0.2 0.8C6.133 6.365 13.974 9.09 22.679 9.09C28.888 9.09 36.097 7.064 41.073 3.247C41.895 2.612 41.195 1.661 40.351 2.036C34.772 4.498 28.712 5.684 23.197 5.684C15.023 5.684 7.11 3.978 0.708 0.101C0.569 0.017 0.437 -0.011 0.327 0.004Z" fill="rgb(247,156,52)" fill-opacity="1.000" fill-rule="nonzero" transform="matrix(1 0 0 1 7 33.143)"/></svg>