<svg xmlns="http://www.w3.org/2000/svg" viewBox="0 0 60 60" width="60" height="60"><path d="M0 0L60 0L60 60L0 60L0 0Z" fill="rgb(255,255,255)" fill-opacity="1.000" fill-rule="nonzero" transform="matrix(1 0 0 1 0 0)"/><path d="M42.858 7.119L42.858 7.125L36.806 1.122C36.075 0.403 35.09 0 34.065 0C33.04 0 32.055 0.403 31.324 1.122L24.828 7.565C24.098 8.286 23.114 8.691 22.088 8.691C21.062 8.691 20.078 8.286 19.348 7.565L12.852 1.122C12.121 0.403 11.136 0 10.111 0C9.086 0 8.102 0.403 7.37 1.122L1.318 7.125L1.318 7.119C0.511 7.922 0.04 9.002 0.002 10.14C-0.035 11.278 0.362 12.387 1.114 13.242C1.122 13.251 19.348 31.328 19.348 31.328C20.077 32.049 21.062 32.454 22.088 32.454C23.113 32.454 24.098 32.049 24.827 31.328C24.827 31.328 43.053 13.251 43.061 13.242C43.813 12.387 44.211 11.278 44.173 10.14C44.135 9.002 43.664 7.922 42.857 7.119L42.858 7.119Z" fill="rgb(238,46,96)" fill-opacity="1.000" fill-rule="nonzero" transform="matrix(1 0 0 1 7.9314 13.5461)"/><path d="M9.09 7.57C9.82 8.291 10.805 8.696 11.831 8.696C12.857 8.696 13.842 8.291 14.572 7.57L21.067 1.125C21.76 0.439 22.686 0.039 23.661 0.006L23.661 0L0 0L0 0.006C0.976 0.039 1.903 0.439 2.597 1.126L9.09 7.57Z" fill="rgb(44,42,122)" fill-opacity="1.000" fill-rule="nonzero" transform="matrix(1 0 0 1 18.1884 13.5409)"/></svg>