<svg xmlns="http://www.w3.org/2000/svg" viewBox="0 0 130 60" width="130" height="60"><path d="M0 0L130 0L130 60L0 60L0 0Z" fill="rgb(255,255,255)" fill-opacity="1.000" fill-rule="nonzero" transform="matrix(1 0 0 1 0 0)"/><path d="M16.305 0L15.931 0L15.858 0.005C15.29 0.074 14.742 0.255 14.245 0.537C13.747 0.819 13.311 1.198 12.961 1.649L10.045 5.397C9.999 5.486 9.928 5.561 9.842 5.613C9.756 5.665 9.657 5.692 9.556 5.692C9.455 5.692 9.356 5.665 9.27 5.613C9.184 5.561 9.114 5.486 9.067 5.397L6.155 1.649C5.805 1.198 5.368 0.819 4.871 0.537C4.374 0.255 3.826 0.074 3.258 0.005L3.017 0.005C2.621 0.004 2.229 0.081 1.863 0.232C1.498 0.382 1.165 0.604 0.885 0.883C0.605 1.162 0.382 1.494 0.231 1.86C0.079 2.225 0 2.617 0 3.013L0 15.984C0 16.035 0.01 16.086 0.03 16.133C0.049 16.18 0.078 16.223 0.114 16.259C0.151 16.296 0.194 16.324 0.241 16.344C0.288 16.363 0.339 16.373 0.39 16.373L3.38 16.373C3.432 16.373 3.482 16.363 3.53 16.344C3.577 16.324 3.62 16.296 3.656 16.259C3.692 16.223 3.721 16.18 3.741 16.133C3.76 16.086 3.77 16.035 3.77 15.984L3.77 5.158C3.77 5.097 3.789 5.036 3.825 4.986C3.861 4.936 3.911 4.899 3.97 4.879C4.028 4.859 4.091 4.858 4.15 4.875C4.209 4.893 4.26 4.929 4.298 4.978L6.295 7.547C6.675 8.055 7.166 8.469 7.732 8.757C8.297 9.045 8.921 9.199 9.555 9.208C10.19 9.199 10.814 9.045 11.38 8.757C11.946 8.469 12.438 8.055 12.818 7.547L14.818 4.977C14.855 4.928 14.907 4.892 14.966 4.874C15.025 4.856 15.088 4.857 15.146 4.877C15.204 4.897 15.255 4.935 15.29 4.985C15.326 5.035 15.345 5.095 15.345 5.157L15.345 15.984C15.345 16.035 15.355 16.086 15.375 16.133C15.394 16.181 15.423 16.224 15.459 16.26C15.496 16.296 15.538 16.325 15.586 16.344C15.633 16.364 15.684 16.374 15.735 16.374L18.725 16.374C18.777 16.374 18.827 16.364 18.875 16.344C18.922 16.325 18.965 16.296 19.001 16.26C19.037 16.224 19.066 16.181 19.086 16.133C19.105 16.086 19.115 16.035 19.115 15.984L19.115 2.808C19.115 2.439 19.042 2.074 18.901 1.733C18.76 1.392 18.553 1.082 18.292 0.822C18.031 0.561 17.721 0.354 17.38 0.213C17.039 0.072 16.674 0 16.305 0Z" fill="rgb(44,42,122)" fill-opacity="1.000" fill-rule="nonzero" transform="matrix(1 0 0 1 73.6125 20.7741)"/><path d="M11.108 0.656C9.911 0.2 8.637 -0.022 7.356 0.002L6.401 0.002C5.124 -0.021 3.854 0.201 2.66 0.655C0.934 1.443 0.042 2.88 0.004 4.923L0 4.923L0 11.706L0.008 11.706C0.088 13.668 0.978 15.051 2.66 15.818C4.591 16.701 8.674 16.701 10.604 15.818C11.235 15.555 11.792 15.144 12.229 14.619C12.667 14.094 12.971 13.472 13.116 12.804L13.158 12.623C13.18 12.526 13.164 12.423 13.113 12.337C13.062 12.251 12.98 12.188 12.883 12.161L10.099 11.385C10.048 11.37 9.995 11.367 9.942 11.374C9.889 11.381 9.838 11.398 9.793 11.426C9.747 11.453 9.708 11.49 9.677 11.533C9.646 11.576 9.624 11.625 9.613 11.677C9.613 11.677 9.406 12.476 8.907 12.683C8.015 13.051 5.103 13.062 4.225 12.662C4.089 12.6 3.773 12.456 3.773 11.673L3.773 10.19L7.367 10.19C8.645 10.213 9.916 9.991 11.111 9.536C12.788 8.77 13.678 7.392 13.763 5.443L13.771 5.443L13.771 4.924L13.767 4.924C13.726 2.881 12.835 1.444 11.108 0.656ZM9.703 5.391C9.703 6.175 9.386 6.32 9.251 6.381C8.542 6.599 7.802 6.7 7.061 6.68L3.475 6.68L3.475 4.8C3.475 4.018 3.792 3.873 3.927 3.812C4.636 3.594 5.376 3.493 6.117 3.512L7.052 3.512C7.796 3.493 8.539 3.593 9.251 3.811C9.386 3.873 9.703 4.018 9.703 4.8L9.703 5.391Z" fill="rgb(44,42,122)" fill-opacity="1.000" fill-rule="nonzero" transform="matrix(1 0 0 1 95.3347 20.7948)"/><path d="M11.108 0.662C9.177 -0.221 5.094 -0.221 3.164 0.662C2.534 0.925 1.976 1.336 1.539 1.861C1.102 2.386 0.798 3.008 0.653 3.676L0.611 3.857C0.588 3.955 0.604 4.057 0.655 4.143C0.706 4.229 0.789 4.292 0.885 4.32L3.669 5.095C3.72 5.109 3.774 5.113 3.827 5.106C3.879 5.099 3.93 5.081 3.976 5.054C4.021 5.027 4.061 4.99 4.092 4.947C4.123 4.904 4.145 4.855 4.156 4.803C4.156 4.803 4.363 4.004 4.861 3.797C5.753 3.429 8.666 3.418 9.544 3.818C9.679 3.879 9.996 4.024 9.996 4.807L9.996 6.29L6.404 6.29C5.126 6.267 3.855 6.489 2.66 6.944C0.983 7.71 0.093 9.088 0.008 11.037L0 11.037L0 11.556L0.004 11.556C0.042 13.599 0.933 15.035 2.66 15.824C3.858 16.28 5.132 16.502 6.413 16.478L7.368 16.478C8.885 16.456 10.249 16.365 11.108 15.971C12.835 15.183 13.726 13.747 13.765 11.703L13.769 11.703L13.769 4.774L13.759 4.774C13.68 2.813 12.79 1.429 11.108 0.662ZM9.997 11.828C9.997 12.61 9.68 12.755 9.545 12.816C9.18 12.985 8.317 12.953 7.355 12.969L6.42 12.969C5.676 12.988 4.934 12.887 4.222 12.669C4.087 12.608 3.769 12.463 3.769 11.68L3.769 11.092C3.769 10.308 4.086 10.163 4.221 10.102C4.93 9.884 5.67 9.783 6.411 9.803L9.997 9.803L9.997 11.828Z" fill="rgb(44,42,122)" fill-opacity="1.000" fill-rule="nonzero" transform="matrix(1 0 0 1 57.2387 20.825)"/><path d="M31.083 5.163L31.083 5.167L26.693 0.813C26.163 0.292 25.449 0 24.706 0C23.962 0 23.248 0.292 22.718 0.813L18.006 5.486C17.477 6.009 16.763 6.303 16.019 6.303C15.275 6.303 14.562 6.009 14.032 5.486L9.321 0.813C8.791 0.292 8.077 0 7.333 0C6.59 0 5.876 0.292 5.345 0.813L0.956 5.167L0.956 5.163C0.37 5.745 0.029 6.529 0.002 7.354C-0.026 8.179 0.263 8.984 0.808 9.604C0.814 9.611 14.032 22.721 14.032 22.721C14.561 23.244 15.275 23.537 16.019 23.537C16.763 23.537 17.477 23.244 18.006 22.721C18.006 22.721 31.224 9.611 31.23 9.604C31.775 8.984 32.064 8.179 32.036 7.354C32.009 6.529 31.667 5.745 31.082 5.163L31.083 5.163Z" fill="rgb(238,46,96)" fill-opacity="1.000" fill-rule="nonzero" transform="matrix(1 0 0 1 20 18.0038)"/><path d="M6.593 5.49C7.122 6.013 7.836 6.307 8.581 6.307C9.325 6.307 10.039 6.013 10.568 5.49L15.279 0.816C15.781 0.318 16.453 0.028 17.16 0.005L17.16 0L0 0L0 0.005C0.708 0.028 1.38 0.318 1.883 0.816L6.593 5.49Z" fill="rgb(44,42,122)" fill-opacity="1.000" fill-rule="nonzero" transform="matrix(1 0 0 1 27.4389 18)"/></svg>