<svg xmlns="http://www.w3.org/2000/svg" viewBox="0 0 60 60" width="60" height="60"><path d="M0 0L60 0L60 60L0 60L0 0Z" fill="rgb(31,114,205)" fill-opacity="1.000" fill-rule="nonzero" transform="matrix(1 0 0 1 0 0)"/><path d="M0 6C0 2.686 2.686 0 6 0L44 0C47.314 0 50 2.686 50 6L50 28C50 31.314 47.314 34 44 34L6 34C2.686 34 0 31.314 0 28L0 6Z" fill="rgb(31,114,205)" fill-opacity="1.000" fill-rule="nonzero" transform="matrix(1 0 0 1 5 13)"/><path d="M4.639 0L0 10.266L5.554 10.266L6.242 8.629L7.816 8.629L8.504 10.266L14.617 10.266L14.617 9.017L15.162 10.266L18.324 10.266L18.869 8.991L18.869 10.266L31.582 10.266L33.128 8.672L34.576 10.266L41.106 10.279L36.452 5.162L41.106 0L34.677 0L33.172 1.565L31.77 0L17.94 0L16.752 2.65L15.537 0L9.995 0L9.995 1.207L9.378 0L4.639 0ZM23.624 1.458L30.925 1.458L33.158 3.87L35.463 1.458L37.695 1.458L34.303 5.16L37.695 8.82L35.361 8.82L33.128 6.38L30.812 8.82L23.624 8.82L23.624 1.458ZM25.427 4.328L25.427 2.983L25.427 2.982L29.982 2.982L31.97 5.132L29.894 7.295L25.427 7.295L25.427 5.827L29.41 5.827L29.41 4.328L25.427 4.328ZM5.714 1.458L8.421 1.458L11.498 8.419L11.498 1.458L14.464 1.458L16.84 6.449L19.031 1.458L21.981 1.458L21.981 8.825L20.186 8.825L20.171 3.052L17.554 8.825L15.948 8.825L13.315 3.052L13.315 8.825L9.622 8.825L8.921 7.173L5.138 7.173L4.44 8.823L2.46 8.823L5.714 1.458ZM5.784 5.646L7.031 2.704L8.276 5.646L5.784 5.646Z" fill="rgb(255,255,255)" fill-opacity="1.000" fill-rule="evenodd" transform="matrix(1 0 0 1 9.4585 25.0416)"/></svg>