<svg xmlns="http://www.w3.org/2000/svg" viewBox="0 0 130 60" width="130" height="60"><path d="M0 0L130 0L130 60L0 60L0 0Z" fill="rgb(255,255,255)" fill-opacity="1.000" fill-rule="nonzero" transform="matrix(1 0 0 1 0 0)"/><path d="M0 17.313L0 0L18.083 0L20.023 2.565L22.029 0L87.625 0L87.625 16.119C87.625 16.119 85.914 17.291 83.93 17.313L47.6 17.313L45.409 14.583L45.409 17.313L38.248 17.313L38.248 12.648C38.248 12.648 37.267 13.3 35.152 13.3L32.711 13.3L32.711 17.313L21.865 17.313L19.925 14.693L17.963 17.313L0 17.313Z" fill="rgb(255,255,255)" fill-opacity="1.000" fill-rule="nonzero" transform="matrix(1 0 0 1 31.1024 32.6926)"/><path d="M0 9.641L4.077 0L11.129 0L13.44 5.395L13.44 0L22.203 0L23.577 3.903L24.906 0L64.245 0L64.245 1.957C64.245 1.957 66.316 0 69.705 0L82.469 0.044L84.747 5.373L84.747 0L92.083 0L94.1 3.062L94.1 0L101.501 0L101.501 17.324L94.1 17.324L92.17 14.251L92.17 17.324L81.401 17.324L80.322 14.594L77.423 14.594L76.354 17.324L69.051 17.324C66.13 17.324 64.256 15.401 64.256 15.401L64.256 17.324L53.225 17.324L51.034 14.594L51.034 17.324L10.082 17.324L9.003 14.594L6.115 14.594L5.036 17.324L0 17.324L0 9.641Z" fill="rgb(255,255,255)" fill-opacity="1.000" fill-rule="nonzero" transform="matrix(1 0 0 1 10 9.995)"/><path d="M5.494 0L0 12.968L3.575 12.968L4.589 10.37L10.486 10.37L11.5 12.968L15.162 12.968L9.668 0L5.494 0ZM7.532 3.007L9.33 7.54L5.733 7.54L7.532 3.007Z" fill="rgb(1,111,208)" fill-opacity="1.000" fill-rule="nonzero" transform="matrix(1 0 0 1 10.0218 12.1398)"/><path d="M0 12.968L0 0L5.09 0.022L8.044 8.38L10.933 0L15.979 0L15.979 12.968L12.786 12.968L12.786 3.416L9.396 12.968L6.595 12.968L3.194 3.416L3.194 12.968L0 12.968Z" fill="rgb(1,111,208)" fill-opacity="1.000" fill-rule="nonzero" transform="matrix(1 0 0 1 25.5543 12.1288)"/><path d="M0 12.968L0 0L10.431 0L10.431 2.897L3.237 2.897L3.237 5.119L10.257 5.119L10.257 7.85L3.226 7.85L3.226 10.149L10.42 10.149L10.42 12.968L0 12.968Z" fill="rgb(1,111,208)" fill-opacity="1.000" fill-rule="nonzero" transform="matrix(1 0 0 1 43.7246 12.1288)"/><path d="M0 0L0 12.968L3.194 12.968L3.194 8.358L4.534 8.358L8.371 12.968L12.273 12.968L8.066 8.192C9.788 8.049 11.576 6.545 11.576 4.212C11.576 1.481 9.461 0.011 7.107 0.011L0 0ZM3.194 2.897L6.845 2.897C7.717 2.897 8.36 3.593 8.36 4.256C8.36 5.119 7.532 5.616 6.889 5.616L3.194 5.616L3.194 2.897Z" fill="rgb(1,111,208)" fill-opacity="1.000" fill-rule="nonzero" transform="matrix(1 0 0 1 55.998 12.1398)"/><path d="M3.259 12.968L0 12.968L0 0L3.259 0L3.259 12.968Z" fill="rgb(1,111,208)" fill-opacity="1.000" fill-rule="nonzero" transform="matrix(1 0 0 1 68.8818 12.1288)"/><path d="M6.18 12.957L5.472 12.957C2.06 12.957 0 10.238 0 6.534C0 2.742 2.049 0 6.344 0L9.875 0L9.875 3.074L6.224 3.074C4.48 3.074 3.237 4.455 3.237 6.567C3.237 9.077 4.654 10.127 6.682 10.127L7.521 10.127L6.18 12.957Z" fill="rgb(1,111,208)" fill-opacity="1.000" fill-rule="nonzero" transform="matrix(1 0 0 1 73.6996 12.1398)"/><path d="M5.494 0.011L0 12.968L3.575 12.968L4.589 10.37L10.486 10.37L11.499 12.968L15.151 12.968L9.657 0L5.494 0.011ZM7.521 3.018L9.319 7.551L5.722 7.551L7.521 3.018Z" fill="rgb(1,111,208)" fill-opacity="1.000" fill-rule="nonzero" transform="matrix(1 0 0 1 81.3405 12.1288)"/><path d="M0 12.968L0 0L4.066 0L9.254 8.148L9.254 0L12.448 0L12.448 12.968L8.513 12.968L3.194 4.61L3.194 12.968L0 12.968Z" fill="rgb(1,111,208)" fill-opacity="1.000" fill-rule="nonzero" transform="matrix(1 0 0 1 96.8621 12.1288)"/><path d="M0 12.968L0 0L10.431 0L10.431 2.897L3.237 2.897L3.237 5.119L10.268 5.119L10.268 7.85L3.237 7.85L3.237 10.149L10.431 10.149L10.431 12.968L0 12.968Z" fill="rgb(1,111,208)" fill-opacity="1.000" fill-rule="nonzero" transform="matrix(1 0 0 1 33.2933 34.8153)"/><path d="M0 12.968L0 0L10.431 0L10.431 2.897L3.237 2.897L3.237 5.119L10.235 5.119L10.235 7.85L3.237 7.85L3.237 10.149L10.431 10.149L10.431 12.968L0 12.968Z" fill="rgb(1,111,208)" fill-opacity="1.000" fill-rule="nonzero" transform="matrix(1 0 0 1 84.3816 34.8153)"/><path d="M0.12 12.968L5.199 6.567L0 0L4.022 0L7.118 4.057L10.224 0L14.094 0L8.96 6.479L14.05 12.957L10.028 12.957L7.02 8.966L4.088 12.957L0.12 12.968Z" fill="rgb(1,111,208)" fill-opacity="1.000" fill-rule="nonzero" transform="matrix(1 0 0 1 44.008 34.8153)"/><path d="M0 0L0 12.968L3.281 12.968L3.281 8.878L6.649 8.878C9.494 8.878 11.652 7.341 11.652 4.367C11.652 1.902 9.963 0.011 7.063 0.011L0 0.011L0 0ZM3.281 2.93L6.823 2.93C7.739 2.93 8.404 3.505 8.404 4.422C8.404 5.285 7.75 5.915 6.813 5.915L3.281 5.915L3.281 2.93Z" fill="rgb(1,111,208)" fill-opacity="1.000" fill-rule="nonzero" transform="matrix(1 0 0 1 58.4396 34.8264)"/><path d="M0 0L0 12.968L3.194 12.968L3.194 8.358L4.534 8.358L8.371 12.968L12.273 12.968L8.066 8.192C9.788 8.049 11.576 6.545 11.576 4.212C11.576 1.481 9.461 0.011 7.107 0.011L0 0ZM3.205 2.908L6.856 2.908C7.728 2.908 8.371 3.604 8.371 4.268C8.371 5.13 7.543 5.627 6.9 5.627L3.205 5.627L3.205 2.908Z" fill="rgb(1,111,208)" fill-opacity="1.000" fill-rule="nonzero" transform="matrix(1 0 0 1 71.4651 34.8153)"/><path d="M0.403 12.957L0.403 10.138L6.802 10.138C7.75 10.138 8.153 9.619 8.153 9.055C8.153 8.513 7.75 7.96 6.802 7.96L3.913 7.96C1.406 7.96 0 6.412 0 4.08C0 2.001 1.286 0 5.014 0L11.238 0L9.897 2.919L4.513 2.919C3.488 2.919 3.172 3.472 3.172 3.991C3.172 4.533 3.564 5.119 4.349 5.119L7.379 5.119C10.181 5.119 11.391 6.733 11.391 8.845C11.391 11.111 10.039 12.968 7.227 12.968L0.403 12.968L0.403 12.957Z" fill="rgb(1,111,208)" fill-opacity="1.000" fill-rule="nonzero" transform="matrix(1 0 0 1 95.892 34.8264)"/><path d="M0.403 12.957L0.403 10.138L6.802 10.138C7.75 10.138 8.153 9.619 8.153 9.055C8.153 8.513 7.75 7.96 6.802 7.96L3.913 7.96C1.406 7.96 0 6.412 0 4.08C0 2.001 1.286 0 5.014 0L11.238 0L9.897 2.919L4.513 2.919C3.488 2.919 3.172 3.472 3.172 3.991C3.172 4.533 3.564 5.119 4.349 5.119L7.379 5.119C10.181 5.119 11.391 6.733 11.391 8.845C11.391 11.111 10.039 12.968 7.227 12.968L0.403 12.968L0.403 12.957Z" fill="rgb(1,111,208)" fill-opacity="1.000" fill-rule="nonzero" transform="matrix(1 0 0 1 107.6204 34.8264)"/></svg>