<svg xmlns="http://www.w3.org/2000/svg" viewBox="0 0 60 60" width="60" height="60"><path d="M0 0L60 0L60 60L0 60L0 0Z" fill="rgb(0,0,0)" fill-opacity="1.000" fill-rule="nonzero" transform="matrix(1 0 0 1 0 0)"/><path d="M6.39 3.691C7.288 3.767 8.185 3.237 8.746 2.565C9.298 1.874 9.663 0.946 9.569 0C8.774 0.038 7.793 0.53 7.232 1.221C6.717 1.817 6.278 2.783 6.39 3.691ZM17.068 15.882L17.068 1.126L22.538 1.126C25.362 1.126 27.335 3.095 27.335 5.972C27.335 8.85 25.324 10.837 22.463 10.837L19.331 10.837L19.331 15.882L17.068 15.882ZM9.56 3.871C8.769 3.825 8.047 4.112 7.465 4.344C7.09 4.493 6.772 4.619 6.53 4.619C6.259 4.619 5.928 4.486 5.557 4.337L5.557 4.337C5.071 4.141 4.514 3.917 3.931 3.928C2.594 3.947 1.35 4.714 0.668 5.934C-0.735 8.376 0.303 11.992 1.659 13.98C2.323 14.964 3.118 16.043 4.165 16.005C4.625 15.988 4.957 15.845 5.3 15.698C5.695 15.528 6.105 15.352 6.745 15.352C7.364 15.352 7.756 15.524 8.132 15.688C8.491 15.845 8.834 15.995 9.345 15.986C10.429 15.967 11.112 15.002 11.776 14.018C12.492 12.961 12.807 11.93 12.855 11.773L12.86 11.755C12.859 11.754 12.85 11.75 12.835 11.743C12.595 11.632 10.765 10.784 10.747 8.509C10.73 6.6 12.199 5.632 12.431 5.48C12.445 5.471 12.454 5.464 12.458 5.461C11.523 4.06 10.065 3.909 9.56 3.871ZM31.468 15.996C32.889 15.996 34.207 15.267 34.806 14.112L34.852 14.112L34.852 15.882L36.947 15.882L36.947 8.537C36.947 6.408 35.264 5.035 32.674 5.035C30.271 5.035 28.494 6.427 28.429 8.339L30.467 8.339C30.636 7.43 31.468 6.834 32.608 6.834C33.992 6.834 34.768 7.487 34.768 8.689L34.768 9.503L31.945 9.673C29.317 9.834 27.896 10.922 27.896 12.815C27.896 14.727 29.364 15.996 31.468 15.996ZM32.075 14.245C30.869 14.245 30.103 13.658 30.103 12.759C30.103 11.831 30.841 11.292 32.253 11.207L34.768 11.046L34.768 11.879C34.768 13.26 33.609 14.245 32.075 14.245ZM43.894 16.459C42.987 19.043 41.949 19.895 39.742 19.895C39.574 19.895 39.013 19.876 38.882 19.838L38.882 18.068C39.022 18.087 39.368 18.106 39.546 18.106C40.547 18.106 41.108 17.68 41.454 16.573L41.659 15.92L37.826 5.177L40.191 5.177L42.856 13.894L42.903 13.894L45.568 5.177L47.868 5.177L43.894 16.459ZM19.331 3.057L21.94 3.057C23.903 3.057 25.025 4.117 25.025 5.982C25.025 7.846 23.903 8.916 21.93 8.916L19.331 8.916L19.331 3.057Z" fill="rgb(255,255,255)" fill-opacity="1.000" fill-rule="evenodd" transform="matrix(1 0 0 1 6.1318 20.4705)"/></svg>