<svg xmlns="http://www.w3.org/2000/svg" viewBox="0 0 130 60" width="130" height="60"><path d="M0 0L130 0L130 60L0 60L0 0Z" fill="rgb(255,255,255)" fill-opacity="1.000" fill-rule="nonzero" transform="matrix(1 0 0 1 0 0)"/><path d="M12.394 0L3.753 0C1.679 0 0 1.675 0 3.745L0 4.706L7.678 4.706C9.752 4.706 11.431 6.382 11.431 8.451L11.431 16.139L12.394 16.139C14.467 16.139 16.146 14.463 16.146 12.393L16.146 3.745C16.146 1.675 14.467 0 12.394 0Z" fill="rgb(156,108,250)" fill-opacity="1.000" fill-rule="nonzero" transform="matrix(1 0 0 1 17.4068 22)"/><path d="M9.159 8.057C8.518 8.057 7.9 7.884 7.357 7.589C7.061 7.416 6.789 7.219 6.542 6.998L6.444 6.899C6.222 6.653 5.999 6.382 5.851 6.086C5.555 5.544 5.382 4.928 5.382 4.287L5.382 0L3.753 0C1.679 0 0 1.675 0 3.745L0 9.683C0 11.753 1.679 13.428 3.753 13.428L9.703 13.428C11.776 13.428 13.455 11.753 13.455 9.683L13.455 8.057L9.159 8.057Z" fill="rgb(43,217,236)" fill-opacity="1.000" fill-rule="nonzero" transform="matrix(1 0 0 1 12 30.0816)"/><path d="M5.481 0L0 0L0 4.312C0 4.952 0.173 5.568 0.469 6.111C0.222 5.667 0.321 5.125 0.667 4.78L5.481 0Z" fill="rgb(63,108,255)" fill-opacity="1.000" fill-rule="nonzero" transform="matrix(1 0 0 1 17.3821 30.0816)"/><path d="M1.333 4.78C0.988 5.125 0.444 5.223 0 4.977C0.543 5.273 1.16 5.445 1.802 5.445L6.123 5.445L6.123 0L1.333 4.78Z" fill="rgb(63,108,255)" fill-opacity="1.000" fill-rule="nonzero" transform="matrix(1 0 0 1 19.3325 32.6933)"/><path d="M0 13.453L5.629 0L7.678 0L13.307 13.453L10.764 13.453L9.653 10.767L3.654 10.767L2.543 13.453L0 13.453ZM4.395 8.796L8.888 8.796L6.641 3.326L4.395 8.796Z" fill="rgb(35,45,70)" fill-opacity="1.000" fill-rule="nonzero" transform="matrix(1 0 0 1 38.9598 24.6857)"/><path d="M2.321 13.65L0 13.65L0 0.197L2.321 0.197L2.321 1.602C2.494 1.133 2.839 0.739 3.407 0.444C3.95 0.148 4.641 0 5.432 0C6.814 0 7.974 0.493 8.913 1.454C9.851 2.415 10.32 3.622 10.32 5.076C10.32 6.529 9.851 7.712 8.913 8.698C7.974 9.658 6.814 10.151 5.432 10.151C4.641 10.151 3.95 10.003 3.407 9.708C2.864 9.412 2.494 9.018 2.321 8.55L2.321 13.65ZM5.135 2.094C4.296 2.094 3.58 2.39 3.012 2.932C2.444 3.499 2.148 4.213 2.148 5.051C2.148 5.889 2.444 6.603 3.012 7.17C3.58 7.737 4.296 8.008 5.135 8.008C5.95 8.008 6.641 7.712 7.184 7.17C7.728 6.603 7.999 5.889 7.999 5.051C7.999 4.213 7.728 3.499 7.184 2.932C6.641 2.39 5.95 2.094 5.135 2.094Z" fill="rgb(35,45,70)" fill-opacity="1.000" fill-rule="nonzero" transform="matrix(1 0 0 1 54.1185 28.209)"/><path d="M2.321 13.65L0 13.65L0 0.197L2.321 0.197L2.321 1.602C2.494 1.133 2.839 0.739 3.407 0.444C3.95 0.148 4.642 0 5.432 0C6.814 0 7.974 0.493 8.912 1.454C9.851 2.415 10.32 3.622 10.32 5.076C10.32 6.529 9.851 7.712 8.912 8.698C7.974 9.658 6.814 10.151 5.432 10.151C4.642 10.151 3.95 10.003 3.407 9.708C2.864 9.412 2.494 9.018 2.321 8.55L2.321 13.65ZM5.135 2.094C4.296 2.094 3.58 2.39 3.012 2.932C2.444 3.499 2.148 4.213 2.148 5.051C2.148 5.889 2.444 6.603 3.012 7.17C3.58 7.737 4.296 8.008 5.135 8.008C5.95 8.008 6.641 7.712 7.184 7.17C7.728 6.603 7.999 5.889 7.999 5.051C7.999 4.213 7.728 3.499 7.184 2.932C6.641 2.39 5.95 2.094 5.135 2.094Z" fill="rgb(35,45,70)" fill-opacity="1.000" fill-rule="nonzero" transform="matrix(1 0 0 1 66.2652 28.209)"/><path d="M0 9.954L0 0.222L2.295 0.222L2.295 1.602C2.493 1.133 2.839 0.739 3.283 0.444C3.752 0.148 4.271 0 4.888 0C6.221 0 7.135 0.567 7.628 1.7C8.171 0.567 9.233 0 10.764 0C11.826 0 12.64 0.345 13.208 1.035C13.776 1.725 14.072 2.686 14.072 3.893L14.072 6.973C14.072 7.342 14.122 7.613 14.196 7.761C14.295 7.909 14.467 7.983 14.714 7.983C14.837 7.983 14.936 7.958 15.035 7.934L15.035 9.88C14.813 9.954 14.467 10.003 14.023 10.003C12.492 10.003 11.751 9.166 11.751 7.466L11.751 4.263C11.751 3.597 11.603 3.055 11.307 2.686C11.011 2.291 10.591 2.119 10.048 2.119C9.505 2.119 9.06 2.341 8.715 2.76C8.369 3.178 8.171 3.72 8.171 4.386L8.171 9.979L5.925 9.979L5.925 4.263C5.925 3.597 5.777 3.055 5.48 2.686C5.184 2.291 4.74 2.119 4.197 2.119C3.654 2.119 3.209 2.341 2.839 2.76C2.468 3.178 2.295 3.72 2.295 4.386L2.295 9.979L0 9.979L0 9.954Z" fill="rgb(35,45,70)" fill-opacity="1.000" fill-rule="nonzero" transform="matrix(1 0 0 1 78.4122 28.1844)"/><path d="M1.407 8.698C0.469 7.712 0 6.505 0 5.076C0 3.647 0.469 2.439 1.407 1.454C2.345 0.493 3.506 0 4.889 0C5.679 0 6.345 0.148 6.888 0.468C7.431 0.788 7.802 1.158 7.999 1.626L7.999 0.197L10.32 0.197L10.32 6.997C10.32 7.416 10.369 7.712 10.492 7.884C10.592 8.057 10.789 8.156 11.036 8.156C11.184 8.156 11.332 8.131 11.53 8.106L11.53 9.979C11.283 10.077 10.888 10.127 10.394 10.127C9.851 10.127 9.382 10.028 9.036 9.806C8.616 9.511 8.345 9.141 8.246 8.624C7.555 9.634 6.444 10.151 4.889 10.151C3.481 10.176 2.321 9.683 1.407 8.698ZM3.111 2.957C2.568 3.523 2.296 4.238 2.296 5.076C2.296 5.913 2.568 6.628 3.111 7.195C3.654 7.761 4.346 8.032 5.16 8.032C6 8.032 6.715 7.737 7.283 7.195C7.851 6.628 8.147 5.913 8.147 5.076C8.147 4.238 7.851 3.523 7.283 2.957C6.715 2.39 6 2.119 5.16 2.119C4.346 2.094 3.678 2.39 3.111 2.957Z" fill="rgb(35,45,70)" fill-opacity="1.000" fill-rule="nonzero" transform="matrix(1 0 0 1 94.6321 28.209)"/><path d="M0 9.732L3.703 4.607L0.345 0L2.863 0L4.987 2.907L7.085 0L9.628 0L6.27 4.583L9.974 9.732L7.481 9.732L5.012 6.308L2.543 9.732L0 9.732Z" fill="rgb(35,45,70)" fill-opacity="1.000" fill-rule="nonzero" transform="matrix(1 0 0 1 107.0262 28.4062)"/></svg>