<svg xmlns="http://www.w3.org/2000/svg" viewBox="0 0 60 60" width="60" height="60"><path d="M0 0L60 0L60 60L0 60L0 0Z" fill="rgb(255,255,255)" fill-opacity="1.000" fill-rule="nonzero" transform="matrix(1 0 0 1 0 0)"/><path d="M18.658 0L5.649 0C2.527 0 0 2.522 0 5.638L0 7.085L11.559 7.085C14.681 7.085 17.208 9.607 17.208 12.723L17.208 24.296L18.658 24.296C21.78 24.296 24.307 21.773 24.307 18.658L24.307 5.638C24.307 2.522 21.78 0 18.658 0Z" fill="rgb(156,108,250)" fill-opacity="1.000" fill-rule="nonzero" transform="matrix(1 0 0 1 21.6919 13.5639)"/><path d="M13.789 12.129C12.823 12.129 11.893 11.87 11.076 11.425C10.63 11.165 10.221 10.868 9.849 10.534L9.701 10.386C9.366 10.015 9.032 9.607 8.809 9.162C8.363 8.346 8.102 7.419 8.102 6.454L8.102 0L5.649 0C2.527 0 0 2.522 0 5.638L0 14.577C0 17.693 2.527 20.216 5.649 20.216L14.607 20.216C17.729 20.216 20.256 17.693 20.256 14.577L20.256 12.129L13.789 12.129Z" fill="rgb(43,217,236)" fill-opacity="1.000" fill-rule="nonzero" transform="matrix(1 0 0 1 13.553 25.7305)"/><path d="M8.251 0L0 0L0 6.491C0 7.456 0.26 8.383 0.706 9.199C0.335 8.531 0.483 7.715 1.004 7.196L8.251 0Z" fill="rgb(63,108,255)" fill-opacity="1.000" fill-rule="nonzero" transform="matrix(1 0 0 1 21.6566 25.7305)"/><path d="M2.007 7.196C1.487 7.715 0.669 7.864 0 7.493C0.818 7.938 1.747 8.198 2.713 8.198L9.217 8.198L9.217 0L2.007 7.196Z" fill="rgb(63,108,255)" fill-opacity="1.000" fill-rule="nonzero" transform="matrix(1 0 0 1 24.591 29.6621)"/></svg>