<svg xmlns="http://www.w3.org/2000/svg" viewBox="0 0 60 60" width="60" height="60"><path d="M0 0L60 0L60 60L0 60L0 0Z" fill="rgb(255,255,255)" fill-opacity="1.000" fill-rule="nonzero" transform="matrix(1 0 0 1 0 0)"/><path d="M0.002 5.92C1.887 4.907 3.129 3.758 5.818 3.353C8.263 2.875 10.79 3.053 13.144 3.868C16.718 5.098 20.424 8.583 21.537 12.254C22.774 16.334 22.314 16.155 22.31 19.643C22.31 20.91 22.027 27.122 22.572 27.778C23.087 28.4 30.979 35.816 31.281 35.964C31.281 29.893 31.281 23.822 31.281 17.751C31.262 4.835 17.305 -4.05 5.167 1.875C3.922 2.483 0.516 4.698 0 5.923L0.002 5.92Z" fill="rgb(239,124,53)" fill-opacity="1.000" fill-rule="evenodd" transform="matrix(1 0 0 1 16.7188 12)"/><path d="M21.129 23.971C20.538 23.47 18.082 23.971 15.313 23.413C13.89 23.128 12.324 21.946 11.302 20.927C10.085 19.626 9.251 18.012 8.893 16.264C8.535 14.517 8.667 12.704 9.275 11.027C9.697 9.819 10.366 8.713 11.239 7.779C12.112 6.845 13.171 6.104 14.347 5.604C15.522 5.104 16.79 4.855 18.067 4.874C19.344 4.893 20.603 5.18 21.763 5.715C23.484 6.548 24.042 7.423 25.381 8.598C24.853 5.524 20.829 1.855 17.429 0.717C15.967 0.251 14.444 0.009 12.91 0C9.653 0.311 7.798 0.774 5.16 2.768C-1.649 7.912 -1.845 19.057 5.322 24.084C9.039 26.691 13.448 27.468 17.722 25.88C18.517 25.585 20.725 24.585 21.131 23.974L21.129 23.971Z" fill="rgb(211,213,214)" fill-opacity="1.000" fill-rule="evenodd" transform="matrix(1 0 0 1 12 15.712)"/><path d="M34.586 12.773C34.203 12.194 31.97 10.217 31.192 9.432L27.693 6.078C25.175 3.744 26.537 4.276 22.777 4.253C21.198 4.242 20.961 5.514 18.297 6.624C16.528 7.426 14.611 7.845 12.669 7.854C10.728 7.863 8.806 7.461 7.03 6.675C4.794 5.625 2.846 4.047 1.351 2.077C0.944 1.357 0.493 0.664 0 0C0.12 2.226 2.828 5.849 4.397 7.422C10.252 13.288 15.369 12.892 22.782 12.892C25.161 12.892 32.822 13.027 34.586 12.772L34.586 12.773Z" fill="rgb(52,108,143)" fill-opacity="1.000" fill-rule="evenodd" transform="matrix(1 0 0 1 12.591 35.188)"/></svg>