<svg xmlns="http://www.w3.org/2000/svg" viewBox="0 0 130 60" width="130" height="60"><path d="M0 0L130 0L130 60L0 60L0 0Z" fill="rgb(255,255,255)" fill-opacity="1.000" fill-rule="nonzero" transform="matrix(1 0 0 1 0 0)"/><path d="M0.253 18.389C4.452 17.409 4.418 15.639 4.377 10.66C4.299 1.125 11.588 3.366 13.372 5.235C16.81 8.834 10.892 16.59 18.594 18.389C18.594 14.502 19.364 9.148 18.215 5.719C17.072 2.305 14.015 0.399 10.734 0L8.112 0C4.832 0.399 1.775 2.304 0.631 5.719C-0.517 9.148 0.253 14.502 0.253 18.389Z" fill="rgb(169,170,174)" fill-opacity="1.000" fill-rule="evenodd" transform="matrix(1 0 0 1 53.8234 27.276)"/><path d="M0.003 8.898C-0.034 10.433 0.317 11.952 1.025 13.316C1.733 14.68 2.774 15.845 4.052 16.702C6.785 18.46 10.347 18.389 14.794 18.389C14.137 10.464 4.144 17.806 4.144 8.898C4.132 7.668 4.554 6.474 5.337 5.524C6.12 4.573 7.213 3.928 8.426 3.7C12.693 2.879 13.782 4.356 14.792 0L7.857 0C6.538 0.092 5.26 0.492 4.125 1.168C1.775 2.637 0.003 5.092 0.003 8.898Z" fill="rgb(169,170,174)" fill-opacity="1.000" fill-rule="evenodd" transform="matrix(1 0 0 1 74.1904 27.2752)"/><path d="M4.738 4.153L7.104 4.153L7.104 14.238C7.104 17.744 11.245 19.686 11.245 16.609L11.245 4.152C14.855 4.152 17.299 4.501 18.344 0L0.003 0C0.026 1.06 -0.448 4.152 4.736 4.152L4.738 4.153Z" fill="rgb(169,170,174)" fill-opacity="1.000" fill-rule="evenodd" transform="matrix(1 0 0 1 90.1634 27.2742)"/><path d="M0 1.935C0 5.122 7.537 5.912 8.875 0.156C4.037 0.156 0 -0.78 0 1.935Z" fill="rgb(169,170,174)" fill-opacity="1.000" fill-rule="evenodd" transform="matrix(1 0 0 1 80.11 34.2378)"/><path d="M0.002 5.081C1.629 4.212 2.7 3.225 5.022 2.878C7.132 2.467 9.313 2.62 11.345 3.32C14.43 4.376 17.629 7.367 18.59 10.517C19.658 14.019 19.261 13.866 19.258 16.859C19.258 17.947 19.013 23.278 19.483 23.842C19.928 24.376 26.74 30.741 27.001 30.868C27.001 25.657 27.001 20.446 27.001 15.235C26.985 4.15 14.937 -3.476 4.46 1.609C3.386 2.131 0.445 4.033 0 5.084L0.002 5.081Z" fill="rgb(239,124,53)" fill-opacity="1.000" fill-rule="evenodd" transform="matrix(1 0 0 1 24.0749 15.002)"/><path d="M18.238 20.574C17.728 20.144 15.608 20.574 13.218 20.095C11.989 19.851 10.638 18.836 9.756 17.962C8.705 16.845 7.985 15.459 7.676 13.959C7.367 12.46 7.481 10.904 8.006 9.465C8.37 8.428 8.947 7.478 9.701 6.676C10.455 5.875 11.369 5.239 12.384 4.81C13.398 4.38 14.492 4.167 15.595 4.184C16.697 4.2 17.784 4.446 18.785 4.905C20.271 5.62 20.752 6.371 21.908 7.38C21.452 4.741 17.979 1.592 15.044 0.615C13.783 0.215 12.467 0.008 11.143 0C8.332 0.267 6.731 0.665 4.454 2.375C-1.423 6.791 -1.593 16.356 4.593 20.671C7.802 22.909 11.608 23.576 15.297 22.213C15.983 21.96 17.889 21.101 18.239 20.576L18.238 20.574Z" fill="rgb(211,213,214)" fill-opacity="1.000" fill-rule="evenodd" transform="matrix(1 0 0 1 20.0016 18.188)"/><path d="M29.853 10.963C29.523 10.466 27.595 8.769 26.924 8.096L23.904 5.217C21.73 3.214 22.906 3.67 19.66 3.65C18.297 3.641 18.093 4.733 15.793 5.685C14.267 6.373 12.611 6.733 10.936 6.741C9.26 6.748 7.601 6.404 6.068 5.729C4.138 4.828 2.456 3.473 1.166 1.782C0.815 1.165 0.425 0.569 0 0C0.104 1.911 2.441 5.02 3.796 6.37C8.849 11.405 13.266 11.065 19.665 11.065C21.718 11.065 28.331 11.181 29.854 10.962L29.853 10.963Z" fill="rgb(52,108,143)" fill-opacity="1.000" fill-rule="evenodd" transform="matrix(1 0 0 1 20.5113 34.9041)"/><path d="M0.048 8.023C0.391 8.045 0.732 7.946 1.009 7.743C1.399 7.456 1.66 7.028 1.737 6.552C1.777 5.798 1.622 3.964 1.834 3.34C1.837 3.332 1.841 3.323 1.844 3.315L1.864 3.264C2.008 2.794 2.302 2.384 2.702 2.097C3.101 1.809 3.584 1.66 4.077 1.672C4.445 1.658 4.81 1.738 5.138 1.904C5.5 2.102 5.806 2.39 6.024 2.739C6.243 3.089 6.367 3.489 6.385 3.9C6.378 4.772 6.27 6.449 6.54 7.019C6.666 7.303 6.868 7.547 7.124 7.726C7.184 7.767 7.251 7.816 7.312 7.852L7.557 7.955C7.729 8.033 7.921 8.056 8.106 8.02C8.241 7.675 8.003 4.101 8.225 3.367C8.343 2.919 8.592 2.517 8.942 2.214C9.292 1.91 9.726 1.718 10.187 1.664C10.648 1.609 11.114 1.694 11.526 1.908C11.938 2.122 12.275 2.454 12.494 2.862C12.78 3.517 12.891 4.235 12.815 4.945L12.825 6.712C12.918 7.072 13.119 7.394 13.402 7.635L13.516 7.73L13.537 7.744C13.745 7.888 13.982 7.986 14.231 8.03C14.32 8.058 14.417 8.055 14.504 8.02C14.59 7.8 14.527 4.411 14.53 3.865C14.508 3.421 14.416 2.983 14.26 2.566L14.093 2.211C14.038 2.096 13.973 1.985 13.9 1.88C13.693 1.561 13.44 1.273 13.15 1.025C12.729 0.638 12.227 0.348 11.68 0.177C11.133 0.006 10.555 -0.042 9.988 0.037C8.933 0.196 7.969 0.723 7.267 1.523C7.081 1.36 6.906 1.186 6.742 1.001C6.302 0.622 5.785 0.34 5.226 0.176C4.668 0.011 4.081 -0.033 3.504 0.047C2.927 0.127 2.374 0.329 1.882 0.639C1.39 0.949 0.97 1.36 0.65 1.845C0.43 2.174 0.262 2.535 0.15 2.914C0.057 3.211 0.014 3.52 0.02 3.831C0.02 4.373 -0.039 7.801 0.046 8.02L0.048 8.023Z" fill="rgb(242,129,52)" fill-opacity="1.000" fill-rule="evenodd" transform="matrix(1 0 0 1 86.4368 16.7116)"/><path d="M1.797 6.402C1.797 5.624 1.797 4.846 1.797 4.068C1.768 3.722 1.828 3.374 1.973 3.058C2.911 0.981 6.147 1.133 6.439 3.974C6.444 4.601 6.206 5.205 5.775 5.662C5.587 5.863 5.367 6.033 5.124 6.163L4.176 6.403C3.385 6.409 2.59 6.403 1.796 6.403L1.797 6.402ZM0.014 9.989C0.386 10.03 0.758 9.928 1.056 9.704C1.315 9.516 1.517 9.262 1.642 8.969C1.766 8.675 1.808 8.354 1.762 8.039L4.28 8.039C4.789 8.015 5.288 7.899 5.755 7.696C6.303 7.465 6.793 7.114 7.188 6.669C7.583 6.225 7.873 5.698 8.036 5.128C8.296 4.219 8.227 3.248 7.839 2.386C7.452 1.524 6.771 0.826 5.918 0.414C5.408 0.167 4.852 0.027 4.285 0.004C3.718 -0.02 3.152 0.074 2.623 0.278C2.094 0.483 1.613 0.794 1.211 1.193C0.808 1.591 0.493 2.068 0.284 2.594C0.145 3.003 0.054 3.427 0.014 3.858C-0.018 4.509 0.014 5.25 0.014 5.913L0.014 9.986L0.014 9.989Z" fill="rgb(56,123,156)" fill-opacity="1.000" fill-rule="evenodd" transform="matrix(1 0 0 1 63.2661 16.7208)"/><path d="M6.428 6.411C5.647 6.411 4.865 6.407 4.085 6.411C3.597 6.401 3.124 6.242 2.729 5.957C2.335 5.671 2.038 5.271 1.878 4.812C1.752 4.373 1.736 3.911 1.83 3.464L1.977 3.019C2.097 2.76 2.263 2.524 2.469 2.324C2.683 2.109 2.938 1.938 3.22 1.823C3.501 1.708 3.804 1.65 4.108 1.654C4.418 1.651 4.726 1.714 5.01 1.839C5.294 1.963 5.548 2.146 5.756 2.376C5.975 2.591 6.143 2.851 6.249 3.139C6.362 3.426 6.423 3.73 6.429 4.039C6.423 4.828 6.429 5.619 6.429 6.411L6.428 6.411ZM8.155 8.026C8.245 7.723 8.178 4.589 8.177 4.004C8.173 3.433 8.048 2.87 7.81 2.35C7.698 2.131 7.571 1.921 7.429 1.72L6.963 1.175C6.377 0.597 5.629 0.21 4.818 0.064C4.007 -0.081 3.171 0.022 2.42 0.359C2.308 0.407 2.2 0.462 2.096 0.524C1.35 0.965 0.749 1.612 0.365 2.387C0.353 2.417 0.349 2.43 0.336 2.463L0.118 3.151L0 4.04L0.165 5.126C0.185 5.188 0.207 5.252 0.224 5.311C0.26 5.441 0.311 5.566 0.375 5.684L0.541 6.006C0.608 6.112 0.685 6.216 0.752 6.319C0.887 6.516 1.044 6.699 1.22 6.862C1.755 7.399 2.43 7.776 3.168 7.951C3.813 8.129 7.96 8.082 8.156 8.024L8.155 8.026Z" fill="rgb(56,123,156)" fill-opacity="1.000" fill-rule="evenodd" transform="matrix(1 0 0 1 54.4054 16.7118)"/><path d="M6.37 4.262C6.379 4.499 6.331 4.735 6.23 4.95C6.035 5.417 5.698 5.812 5.265 6.079L4.864 6.27C4.706 6.32 4.545 6.357 4.382 6.382C4.2 6.427 4.011 6.434 3.827 6.404L3.169 6.224C3.092 6.204 3.02 6.169 2.957 6.121C2.714 5.976 2.496 5.794 2.308 5.583C2.05 5.272 1.874 4.902 1.795 4.505C1.717 4.109 1.739 3.7 1.86 3.314C1.986 2.885 2.236 2.501 2.578 2.211C2.921 1.92 3.341 1.736 3.787 1.68C4.132 1.634 4.483 1.667 4.813 1.779C5.143 1.89 5.443 2.076 5.689 2.322C5.844 2.473 5.977 2.645 6.086 2.832C6.347 3.261 6.448 3.768 6.371 4.264L6.37 4.262ZM3.747 0.042C3.189 0.046 2.643 0.197 2.162 0.479C1.461 0.852 0.885 1.42 0.503 2.114C0.121 2.808 -0.049 3.598 0.012 4.387C0.061 4.93 0.223 5.457 0.486 5.934C0.971 6.791 1.742 7.453 2.664 7.805L3.23 7.972C3.695 8.073 4.175 8.082 4.644 8.001C4.987 7.962 5.323 7.874 5.641 7.74C5.829 7.672 6.007 7.581 6.173 7.469L6.307 7.393C6.914 6.99 7.408 6.438 7.739 5.79C7.935 5.423 8.054 5.019 8.089 4.604C8.103 4.458 8.15 4.347 8.154 4.183C8.163 3.727 8.098 3.274 7.962 2.839L7.662 2.128C7.445 1.735 7.161 1.381 6.824 1.083C6.121 0.422 5.202 0.038 4.236 0L3.853 0C3.737 0.024 3.746 0.042 3.744 0.042L3.747 0.042Z" fill="rgb(56,123,156)" fill-opacity="1.000" fill-rule="evenodd" transform="matrix(1 0 0 1 77.7134 16.7093)"/><path d="M0.003 8.048L2.686 8.04C3.158 7.976 3.611 7.811 4.013 7.556C4.415 7.302 4.756 6.963 5.015 6.565C5.09 6.461 5.155 6.35 5.207 6.234C5.417 5.814 5.515 5.348 5.491 4.879C5.426 4.199 5.467 3.512 5.616 2.845C5.71 2.599 5.856 2.376 6.043 2.19C6.229 2.004 6.454 1.859 6.7 1.765C7.312 1.554 7.942 1.791 8.531 1.43C8.778 1.284 8.98 1.075 9.116 0.823C9.251 0.572 9.315 0.288 9.301 0.003C8.578 0.003 7.856 0.003 7.134 0.003C6.57 -0.022 6.009 0.101 5.508 0.359C5.006 0.616 4.58 1 4.273 1.472C3.365 2.859 4.057 4.156 3.673 5.193C3.539 5.559 3.292 5.874 2.968 6.092C2.075 6.687 1.577 6.154 0.774 6.623C0.525 6.766 0.321 6.975 0.185 7.226C0.049 7.478 -0.014 7.763 0.003 8.048Z" fill="rgb(242,129,52)" fill-opacity="1.000" fill-rule="evenodd" transform="matrix(1 0 0 1 101.6981 16.7113)"/><path d="M0.045 8.04C0.259 8.068 0.477 8.034 0.673 7.943C0.909 7.848 1.119 7.701 1.29 7.513C1.458 7.336 1.587 7.126 1.67 6.897C1.753 6.668 1.787 6.424 1.772 6.181C1.768 5.578 1.772 4.973 1.772 4.369C1.712 3.845 1.814 3.316 2.065 2.851C2.644 1.901 3.393 1.651 4.497 1.653C5.153 1.653 5.439 1.691 5.925 1.264C6.353 0.888 6.582 0.19 6.45 0.058C5.859 -0.001 5.264 -0.015 4.672 0.016C2.888 0.016 2.097 0.23 0.835 1.626C0.557 1.981 0.344 2.381 0.204 2.809C0.055 3.339 -0.006 3.889 0.022 4.439C0.023 4.977 -0.041 7.751 0.045 8.04Z" fill="rgb(56,123,156)" fill-opacity="1.000" fill-rule="evenodd" transform="matrix(1 0 0 1 72.4521 16.6978)"/></svg>