<svg xmlns="http://www.w3.org/2000/svg" viewBox="0 0 60 60" width="60" height="60"><path d="M0 0L60 0L60 60L0 60L0 0Z" fill="rgb(0,43,188)" fill-opacity="1.000" fill-rule="nonzero" transform="matrix(1 0 0 1 0 0)"/><path d="M36.116 1.835C36.365 4.297 35.556 6.837 33.896 8.806C33.869 8.839 33.86 8.881 33.872 8.921C34.745 11.737 33.633 15.041 31.168 16.955L30.245 17.855C30.22 17.88 30.207 17.914 30.209 17.949C30.35 20.386 29.044 22.788 26.881 24.066L25.53 24.864C25.502 24.881 25.481 24.908 25.474 24.94C25.466 24.971 25.471 25.005 25.488 25.032L25.491 25.037L25.546 25.126L25.544 25.126L29.856 32.413C29.897 32.483 29.919 32.564 29.919 32.647C29.919 32.889 29.731 33.089 29.5 33.093L27.352 33.096C27.124 33.096 26.915 32.975 26.793 32.772L26.055 31.524C26.053 31.521 26.051 31.517 26.05 31.513L24.209 28.408C24.184 28.364 24.135 28.344 24.085 28.354C22.132 28.816 20.139 29.05 18.163 29.05C16.14 29.05 14.104 28.806 12.111 28.324C12.065 28.314 12.011 28.337 11.986 28.379L9.436 32.771C9.314 32.974 9.105 33.095 8.877 33.095L8.852 33.095L6.687 33.092C6.454 33.089 6.266 32.889 6.266 32.646C6.266 32.564 6.288 32.483 6.329 32.413L7.46 30.507C7.462 30.503 7.464 30.499 7.467 30.496L10.622 25.125L10.613 25.125L10.671 25.032C10.688 25.005 10.693 24.97 10.686 24.939C10.678 24.907 10.657 24.879 10.629 24.863L9.278 24.065C7.116 22.786 5.809 20.386 5.951 17.949C5.953 17.913 5.94 17.879 5.914 17.855L4.991 16.955C2.527 15.041 1.415 11.737 2.287 8.92C2.299 8.881 2.291 8.838 2.264 8.806C0.604 6.836 -0.205 4.296 0.044 1.834C0.112 1.377 0.306 0.557 0.844 0.199C0.916 0.156 0.982 0.121 1.047 0.092C1.193 0.026 1.347 -0.006 1.505 0.001C1.527 0.002 1.548 0.013 1.56 0.031C2.512 1.4 4.348 3.521 7.692 5.859C9.387 7.045 10.701 7.844 11.799 8.5C11.805 8.503 12.095 8.677 12.095 8.677C12.412 8.866 12.699 9.037 12.969 9.203C13.453 9.521 13.881 9.847 14.263 10.169C15.163 10.955 17.06 12.917 17.343 15.688C17.343 15.688 17.666 17.891 16.234 20.804L13.653 25.528C13.633 25.563 13.63 25.605 13.645 25.642C13.661 25.678 13.693 25.705 13.731 25.712C15.203 25.992 16.695 26.133 18.163 26.133C19.581 26.133 21.023 26.001 22.448 25.739C22.486 25.732 22.518 25.706 22.534 25.669C22.55 25.633 22.547 25.59 22.527 25.556L22.387 25.3L22.385 25.297L21.58 23.829L21.582 23.829L19.895 20.748C18.495 17.864 18.814 15.689 18.814 15.689C19.089 12.99 20.896 11.06 21.821 10.234C22.221 9.891 22.676 9.543 23.191 9.203C23.44 9.051 23.702 8.894 23.989 8.723L24.362 8.501C25.46 7.845 26.774 7.045 28.469 5.86C31.812 3.522 33.648 1.4 34.6 0.032C34.613 0.013 34.633 0.002 34.655 0.001C34.814 -0.005 34.968 0.027 35.114 0.093C35.178 0.121 35.244 0.157 35.316 0.2C35.855 0.558 36.048 1.378 36.116 1.835Z" fill="rgb(255,255,255)" fill-opacity="1.000" fill-rule="nonzero" transform="matrix(1 0 0 1 11.5254 13.9041)"/></svg>