<svg xmlns="http://www.w3.org/2000/svg" viewBox="0 0 130 60" width="130" height="60"><path d="M0 0L130 0L130 60L0 60L0 0Z" fill="rgb(255,255,255)" fill-opacity="1.000" fill-rule="nonzero" transform="matrix(1 0 0 1 0 0)"/><path d="M27.177 1.381C27.364 3.233 26.755 5.145 25.506 6.627C25.486 6.651 25.479 6.683 25.488 6.713C26.145 8.832 25.308 11.318 23.454 12.759L22.759 13.436C22.74 13.454 22.73 13.48 22.732 13.507C22.838 15.34 21.855 17.147 20.227 18.109L19.211 18.71C19.19 18.722 19.174 18.743 19.168 18.767C19.163 18.79 19.167 18.815 19.179 18.836L19.181 18.84L19.223 18.907L19.221 18.907L22.466 24.39C22.497 24.443 22.514 24.504 22.514 24.566C22.514 24.749 22.372 24.899 22.198 24.902L20.582 24.904C20.41 24.904 20.253 24.813 20.162 24.661L19.606 23.721C19.605 23.719 19.603 23.716 19.602 23.713L18.217 21.377C18.198 21.344 18.161 21.328 18.124 21.336C16.654 21.683 15.154 21.86 13.667 21.86C12.145 21.86 10.613 21.676 9.113 21.314C9.079 21.305 9.038 21.323 9.019 21.355L7.1 24.66C7.008 24.813 6.851 24.904 6.68 24.904L6.661 24.904L5.032 24.901C4.857 24.899 4.715 24.748 4.715 24.565C4.715 24.504 4.732 24.443 4.763 24.39L5.613 22.956C5.615 22.953 5.617 22.95 5.619 22.948L7.992 18.906L7.986 18.906L8.029 18.836C8.043 18.815 8.047 18.79 8.041 18.766C8.035 18.742 8.02 18.721 7.998 18.709L6.982 18.109C5.354 17.146 4.372 15.34 4.478 13.506C4.479 13.48 4.469 13.454 4.45 13.435L3.756 12.758C1.902 11.318 1.065 8.832 1.721 6.712C1.73 6.683 1.724 6.65 1.704 6.626C0.455 5.144 -0.154 3.233 0.033 1.38C0.084 1.036 0.23 0.419 0.635 0.15C0.689 0.117 0.739 0.091 0.788 0.069C0.898 0.02 1.014 -0.004 1.133 0.001C1.149 0.002 1.165 0.01 1.174 0.024C1.89 1.054 3.272 2.65 5.788 4.409C7.063 5.301 8.052 5.903 8.878 6.396C8.883 6.399 9.102 6.529 9.102 6.529C9.34 6.671 9.556 6.8 9.759 6.925C10.123 7.165 10.445 7.41 10.733 7.652C11.41 8.244 12.838 9.72 13.05 11.805C13.05 11.805 13.294 13.463 12.216 15.655L10.273 19.21C10.259 19.235 10.256 19.267 10.268 19.295C10.28 19.322 10.304 19.342 10.332 19.348C11.44 19.558 12.562 19.665 13.667 19.665C14.734 19.665 15.819 19.565 16.892 19.368C16.92 19.363 16.945 19.344 16.956 19.316C16.968 19.288 16.966 19.256 16.951 19.23L16.846 19.038L16.844 19.036L16.239 17.931L16.24 17.931L14.971 15.612C13.917 13.442 14.157 11.806 14.157 11.806C14.364 9.775 15.724 8.322 16.42 7.701C16.721 7.443 17.063 7.181 17.451 6.925C17.638 6.81 17.836 6.692 18.051 6.564L18.332 6.397C19.158 5.903 20.147 5.301 21.422 4.41C23.938 2.65 25.32 1.054 26.036 0.024C26.045 0.01 26.061 0.002 26.077 0.001C26.197 -0.003 26.312 0.02 26.422 0.07C26.471 0.091 26.521 0.118 26.575 0.15C26.98 0.42 27.126 1.037 27.177 1.381Z" fill="rgb(0,43,188)" fill-opacity="1.000" fill-rule="nonzero" transform="matrix(1 0 0 1 50.8904 18)"/><path d="M5.861 5.584C7.258 5.661 8.992 5.758 10.445 6.258C12.914 7.109 13.46 8.755 13.483 9.986C13.505 11.141 13.087 12.153 12.276 12.914C10.688 14.403 8.141 14.49 7.646 14.492C7.554 14.497 7.352 14.506 7.062 14.506C5.949 14.506 3.102 14.365 0.697 13.062L0.237 12.791C0.091 12.707 0 12.551 0 12.383C0 12.308 0.019 12.234 0.057 12.163L0.638 11.071C0.72 10.917 0.88 10.821 1.055 10.821C1.135 10.821 1.216 10.843 1.287 10.882L1.878 11.207C4.323 12.528 7.466 12.345 7.529 12.341L7.53 12.341C7.559 12.339 7.592 12.337 7.628 12.338C8.183 12.338 9.808 12.169 10.627 11.396C11.001 11.043 11.17 10.607 11.159 10.023C11.127 8.34 9.304 7.932 5.724 7.733L5.707 7.732L5.68 7.73C5.321 7.71 4.988 7.692 4.679 7.667C0.785 7.357 0.214 5.205 0.221 3.951C0.226 2.91 0.743 0.445 5.414 0.039C6.386 -0.046 7.389 0.008 8.396 0.199C8.505 0.22 8.591 0.237 8.651 0.25L9.151 0.37C9.363 0.422 9.511 0.611 9.511 0.829C9.511 0.868 9.506 0.906 9.496 0.946L9.208 2.136C9.151 2.342 8.964 2.485 8.751 2.485C8.717 2.485 8.683 2.481 8.647 2.473L8.088 2.346C8.031 2.333 7.961 2.318 7.906 2.307L7.905 2.307L7.864 2.298C7.107 2.159 6.356 2.121 5.632 2.183C4.227 2.306 2.552 2.713 2.545 3.962C2.543 4.442 2.538 5.336 4.878 5.522C5.168 5.545 5.505 5.564 5.861 5.584Z" fill="rgb(0,43,188)" fill-opacity="1.000" fill-rule="nonzero" transform="matrix(1 0 0 1 41.0864 28.4195)"/><path d="M17.751 13.833L9.868 0.512C9.691 0.201 9.301 0 8.874 0C8.463 0 8.081 0.197 7.877 0.515L0.903 12.391C0.901 12.393 0.899 12.396 0.898 12.399L0.047 13.833C0.016 13.886 0 13.947 0 14.009C0 14.191 0.142 14.342 0.317 14.345L1.946 14.347L1.964 14.347C2.136 14.347 2.293 14.256 2.385 14.103L4.304 10.799C4.323 10.767 4.363 10.749 4.398 10.757C5.897 11.12 7.43 11.303 8.952 11.303C10.439 11.303 11.939 11.127 13.408 10.78C13.446 10.772 13.483 10.787 13.502 10.82L14.887 13.157C14.888 13.16 14.89 13.162 14.891 13.165L15.446 14.104C15.538 14.257 15.695 14.348 15.867 14.348L17.483 14.345C17.657 14.343 17.799 14.192 17.799 14.009C17.799 13.947 17.782 13.886 17.751 13.833ZM12.176 8.811C11.104 9.007 10.019 9.107 8.951 9.107C7.847 9.107 6.725 9 5.616 8.79C5.588 8.784 5.564 8.765 5.552 8.737C5.541 8.71 5.542 8.678 5.558 8.652L8.8 3.118C8.816 3.092 8.844 3.075 8.874 3.075C8.905 3.075 8.932 3.091 8.949 3.118L12.235 8.672C12.251 8.698 12.253 8.73 12.241 8.757C12.229 8.786 12.205 8.806 12.176 8.811Z" fill="rgb(0,43,188)" fill-opacity="1.000" fill-rule="evenodd" transform="matrix(1 0 0 1 75.0415 28.5707)"/><path d="M17.752 13.832L9.869 0.512C9.692 0.201 9.301 0 8.874 0C8.463 0 8.082 0.197 7.878 0.515L0.904 12.391C0.902 12.393 0.9 12.396 0.898 12.399L0.047 13.833C0.017 13.886 0 13.946 0 14.008C0 14.191 0.142 14.342 0.317 14.345L1.946 14.347L1.964 14.347C2.136 14.347 2.293 14.256 2.385 14.103L4.304 10.798C4.323 10.766 4.363 10.749 4.398 10.757C5.897 11.119 7.43 11.303 8.952 11.303C10.439 11.303 11.939 11.127 13.409 10.779C13.446 10.771 13.482 10.787 13.502 10.82L14.887 13.156C14.887 13.156 14.888 13.159 14.889 13.16C14.889 13.162 14.891 13.164 14.891 13.164L15.446 14.104C15.537 14.256 15.695 14.347 15.867 14.347L17.483 14.345C17.657 14.342 17.799 14.192 17.799 14.009C17.799 13.946 17.783 13.886 17.752 13.832ZM12.176 8.81C11.104 9.007 10.019 9.106 8.951 9.106C7.847 9.106 6.725 9 5.616 8.789C5.588 8.784 5.564 8.764 5.552 8.737C5.541 8.709 5.542 8.677 5.558 8.652L8.8 3.118C8.816 3.091 8.844 3.075 8.874 3.074C8.905 3.074 8.932 3.091 8.949 3.118L12.235 8.672C12.251 8.698 12.253 8.73 12.241 8.757C12.229 8.785 12.205 8.805 12.176 8.81Z" fill="rgb(0,43,188)" fill-opacity="1.000" fill-rule="evenodd" transform="matrix(1 0 0 1 22 28.5712)"/><path d="M10.446 6.258C8.993 5.758 7.258 5.661 5.861 5.584C5.505 5.564 5.169 5.545 4.878 5.522C2.539 5.336 2.543 4.442 2.546 3.962C2.552 2.713 4.228 2.306 5.632 2.183C6.356 2.121 7.107 2.159 7.864 2.298C7.919 2.31 8.014 2.33 8.088 2.346L8.647 2.473C8.683 2.481 8.717 2.485 8.751 2.485C8.964 2.485 9.151 2.342 9.208 2.136L9.496 0.946C9.506 0.906 9.511 0.868 9.511 0.829C9.511 0.611 9.363 0.422 9.151 0.37L8.651 0.25C8.591 0.237 8.505 0.22 8.396 0.199C7.39 0.008 6.386 -0.046 5.415 0.039C0.743 0.445 0.226 2.91 0.221 3.951C0.214 5.205 0.785 7.357 4.679 7.667C4.99 7.692 5.322 7.71 5.684 7.731L5.707 7.732L5.724 7.733C9.304 7.932 11.127 8.34 11.159 10.023C11.17 10.607 11.001 11.043 10.628 11.396C9.808 12.169 8.183 12.338 7.627 12.338C7.593 12.337 7.56 12.339 7.53 12.341L7.529 12.341C7.465 12.345 4.323 12.528 1.878 11.207L1.287 10.882C1.216 10.843 1.135 10.821 1.055 10.821C0.88 10.821 0.72 10.917 0.638 11.071L0.057 12.163C0.019 12.234 0 12.308 0 12.383C0 12.551 0.091 12.707 0.237 12.791L0.697 13.062C3.102 14.365 5.949 14.506 7.062 14.506C7.352 14.506 7.554 14.497 7.646 14.492C8.141 14.49 10.688 14.403 12.276 12.914C13.087 12.153 13.505 11.141 13.483 9.986C13.46 8.755 12.915 7.109 10.446 6.258Z" fill="rgb(0,43,188)" fill-opacity="1.000" fill-rule="nonzero" transform="matrix(1 0 0 1 93.9212 28.4195)"/></svg>