<svg xmlns="http://www.w3.org/2000/svg" viewBox="0 0 60 60" width="60" height="60"><path d="M0 0L60 0L60 60L0 60L0 0Z" fill="rgb(0,22,137)" fill-opacity="1.000" fill-rule="nonzero" transform="matrix(1 0 0 1 0 0)"/><path d="M24.471 4.493C24.816 4.493 25.102 4.493 25.327 4.512L24.969 6.244L23.201 6.244C22.831 6.231 22.462 6.274 22.106 6.371C21.873 6.436 21.665 6.571 21.512 6.758C21.373 6.944 21.287 7.163 21.261 7.394C21.226 7.678 21.21 7.964 21.212 8.25L21.212 14.81L19.127 14.81L19.127 7.785C19.112 7.264 19.207 6.746 19.405 6.264C19.576 5.866 19.845 5.518 20.188 5.253C20.553 4.984 20.969 4.795 21.411 4.695C21.932 4.57 22.465 4.51 23.001 4.515L24.471 4.493ZM15.211 13.108C14.778 13.113 14.346 13.083 13.919 13.019C13.606 12.977 13.314 12.838 13.085 12.621C12.859 12.374 12.71 12.067 12.657 11.737C12.568 11.225 12.528 10.706 12.538 10.187L12.538 9.145C12.529 8.626 12.566 8.107 12.649 7.595C12.698 7.266 12.842 6.959 13.063 6.711C13.285 6.494 13.572 6.354 13.88 6.313C14.321 6.246 14.766 6.216 15.211 6.224L16.265 6.224C16.634 6.224 17.099 6.247 17.635 6.274L17.993 4.547C17.515 4.519 17.029 4.502 16.531 4.497C16.033 4.492 15.594 4.497 15.211 4.497C14.455 4.482 13.701 4.562 12.965 4.735C12.41 4.864 11.899 5.138 11.484 5.53C11.09 5.93 10.809 6.428 10.67 6.972C10.488 7.683 10.404 8.415 10.42 9.148L10.42 10.201C10.404 10.935 10.488 11.667 10.67 12.378C10.808 12.922 11.089 13.419 11.484 13.817C11.898 14.21 12.41 14.484 12.965 14.612C13.701 14.786 14.455 14.866 15.211 14.85L16.442 14.85C16.92 14.85 17.332 14.833 17.676 14.82L18.033 13.092C17.716 13.092 17.349 13.114 16.921 13.121C16.493 13.129 15.932 13.121 15.203 13.121M42.212 14.811L44.299 14.811L44.299 4.529L42.212 4.529L42.212 14.811ZM34.37 6.572C34.49 7.035 34.55 7.513 34.549 7.992L34.549 8.289C34.554 8.669 34.525 9.048 34.462 9.423C34.429 9.655 34.34 9.876 34.204 10.068C34.094 10.215 33.937 10.321 33.758 10.368C33.546 10.417 33.329 10.44 33.111 10.437L27.631 10.437C27.624 10.889 27.654 11.341 27.72 11.788C27.759 12.087 27.88 12.369 28.07 12.602C28.27 12.813 28.53 12.956 28.815 13.011C29.234 13.093 29.661 13.129 30.088 13.12L31.55 13.12C32.139 13.12 32.904 13.107 33.846 13.081L33.487 14.81L32.434 14.839L30.087 14.839C29.309 14.867 28.532 14.759 27.791 14.52C27.254 14.337 26.774 14.014 26.402 13.586C26.055 13.16 25.82 12.655 25.718 12.115C25.593 11.484 25.532 10.842 25.538 10.198L25.538 9.087C25.531 8.403 25.595 7.721 25.727 7.05C25.833 6.491 26.072 5.967 26.424 5.521C26.797 5.077 27.285 4.743 27.835 4.557C28.595 4.307 29.392 4.193 30.192 4.218C30.929 4.196 31.666 4.3 32.368 4.526C32.872 4.694 33.328 4.98 33.699 5.36C34.019 5.703 34.249 6.121 34.366 6.575M32.576 8.153C32.584 7.78 32.547 7.407 32.468 7.042C32.41 6.772 32.271 6.526 32.07 6.336C31.85 6.15 31.586 6.024 31.303 5.969C30.905 5.889 30.498 5.853 30.092 5.86C29.664 5.849 29.237 5.889 28.819 5.979C28.526 6.043 28.263 6.202 28.071 6.432C27.874 6.697 27.75 7.008 27.712 7.336C27.647 7.829 27.617 8.327 27.623 8.825L32.573 8.825L32.576 8.153ZM38.523 0.26C37.97 0.401 37.462 0.678 37.044 1.066C36.647 1.462 36.364 1.959 36.227 2.503C36.049 3.2 35.966 3.918 35.979 4.637L35.979 14.81L38.075 14.81L38.075 6.263L40.854 6.263L41.215 4.535L38.076 4.535C38.066 4.051 38.103 3.569 38.184 3.092C38.235 2.78 38.377 2.491 38.592 2.259C38.824 2.044 39.114 1.902 39.426 1.852C39.874 1.769 40.33 1.732 40.785 1.741L41.232 1.741L41.577 0.002L40.769 0.002C40.012 -0.014 39.256 0.073 38.523 0.26ZM8.938 13.133C8.938 13.77 8.794 14.217 8.499 14.47C8.204 14.723 7.665 14.848 6.904 14.848L3.91 14.848C2.521 14.848 1.512 14.592 0.91 14.081C0.308 13.57 0 12.8 0 11.777L0 11.338C0 10.226 0.329 9.428 0.987 8.943C1.644 8.459 2.673 8.22 4.072 8.226C4.702 8.207 5.331 8.27 5.945 8.415C6.298 8.499 6.636 8.637 6.948 8.824L6.948 8.225C6.952 7.934 6.929 7.643 6.879 7.356C6.835 7.119 6.716 6.902 6.54 6.739C6.315 6.55 6.048 6.419 5.761 6.358C5.305 6.26 4.838 6.217 4.372 6.23L2.587 6.23C1.954 6.23 1.412 6.247 0.962 6.26L1.337 4.532C1.709 4.532 2.171 4.509 2.726 4.504C3.282 4.498 3.838 4.504 4.394 4.504C6.004 4.504 7.168 4.786 7.887 5.351C8.606 5.916 8.965 6.75 8.963 7.853L8.938 13.133ZM2.012 11.713C1.998 11.904 2.028 12.095 2.098 12.273C2.169 12.451 2.279 12.61 2.421 12.739C2.693 12.967 3.193 13.081 3.922 13.081L6.887 13.081L6.887 11.285C6.891 11.068 6.865 10.851 6.809 10.641C6.76 10.462 6.65 10.307 6.498 10.201C6.29 10.072 6.057 9.99 5.815 9.96C5.422 9.901 5.024 9.875 4.626 9.882L4.169 9.882C3.813 9.877 3.457 9.899 3.105 9.949C2.869 9.98 2.643 10.059 2.44 10.182C2.283 10.288 2.164 10.442 2.101 10.621C2.03 10.842 1.997 11.073 2.004 11.304L2.012 11.713Z" fill="rgb(255,255,255)" fill-opacity="1.000" fill-rule="nonzero" transform="matrix(1 0 0 1 7.6934 22.5733)"/><path d="M0.364 0L0 1.732L2.087 1.757L2.087 0L0.364 0Z" fill="rgb(4,212,92)" fill-opacity="1.000" fill-rule="nonzero" transform="matrix(1 0 0 1 49.9128 22.5891)"/></svg>