<svg xmlns="http://www.w3.org/2000/svg" viewBox="0 0 130 60" width="130" height="60"><path d="M0 0L130 0L130 60L0 60L0 0Z" fill="rgb(255,255,255)" fill-opacity="1.000" fill-rule="nonzero" transform="matrix(1 0 0 1 0 0)"/><path d="M1.404 2.031L0.532 2.031L0.313 2.637L0 2.637L0.808 0.522L1.145 0.522L1.953 2.637L1.616 2.637L1.404 2.031ZM0.63 1.765L1.303 1.765L0.966 0.835L0.63 1.765ZM3.277 1.458C3.357 1.47 3.435 1.493 3.51 1.526C3.57 1.549 3.623 1.587 3.664 1.637C3.704 1.684 3.732 1.739 3.749 1.799C3.766 1.872 3.774 1.948 3.772 2.024L3.772 2.075C3.773 2.159 3.761 2.243 3.736 2.324C3.71 2.395 3.664 2.457 3.605 2.504C3.531 2.557 3.447 2.594 3.359 2.612C3.235 2.637 3.108 2.649 2.982 2.646L2.262 2.646L2.316 2.366L2.982 2.366C3.062 2.372 3.142 2.372 3.221 2.366C3.274 2.362 3.325 2.346 3.37 2.319C3.404 2.298 3.43 2.266 3.444 2.228C3.457 2.179 3.463 2.129 3.461 2.079C3.465 2.036 3.465 1.992 3.461 1.948C3.454 1.915 3.441 1.884 3.42 1.857C3.395 1.83 3.364 1.809 3.329 1.796C3.278 1.777 3.225 1.763 3.171 1.756L2.77 1.689C2.685 1.679 2.602 1.656 2.524 1.621C2.467 1.593 2.415 1.554 2.373 1.507C2.336 1.461 2.31 1.407 2.299 1.349C2.283 1.281 2.275 1.212 2.275 1.143L2.275 1.086C2.274 1.008 2.287 0.93 2.315 0.857C2.342 0.787 2.387 0.727 2.447 0.682C2.517 0.627 2.599 0.588 2.686 0.567C2.805 0.541 2.927 0.529 3.049 0.531L3.706 0.531L3.652 0.811L3.009 0.811C2.937 0.805 2.864 0.805 2.793 0.811C2.745 0.817 2.699 0.833 2.658 0.858C2.627 0.882 2.604 0.913 2.591 0.949C2.578 0.994 2.573 1.041 2.574 1.088C2.57 1.128 2.57 1.169 2.574 1.209C2.579 1.24 2.593 1.269 2.614 1.293C2.638 1.319 2.668 1.34 2.701 1.354C2.749 1.373 2.799 1.387 2.85 1.394L3.277 1.458ZM5.14 1.458C5.22 1.47 5.298 1.493 5.372 1.526C5.432 1.55 5.485 1.588 5.527 1.637C5.566 1.684 5.595 1.739 5.611 1.799C5.629 1.872 5.637 1.948 5.635 2.024L5.635 2.075C5.636 2.159 5.624 2.243 5.599 2.324C5.572 2.395 5.527 2.457 5.467 2.504C5.393 2.556 5.31 2.593 5.221 2.612C5.097 2.637 4.971 2.649 4.844 2.646L4.124 2.646L4.175 2.366L4.841 2.366C4.921 2.372 5.001 2.372 5.08 2.366C5.133 2.362 5.184 2.346 5.229 2.319C5.263 2.298 5.289 2.266 5.303 2.228C5.315 2.179 5.32 2.129 5.32 2.079C5.324 2.036 5.324 1.992 5.32 1.948C5.313 1.915 5.3 1.884 5.279 1.857C5.254 1.83 5.223 1.809 5.188 1.796C5.137 1.777 5.084 1.763 5.03 1.756L4.629 1.689C4.544 1.679 4.461 1.656 4.383 1.621C4.326 1.593 4.275 1.554 4.232 1.507C4.195 1.46 4.168 1.406 4.154 1.349C4.14 1.281 4.133 1.212 4.134 1.143L4.134 1.086C4.133 1.008 4.147 0.93 4.175 0.857C4.201 0.787 4.247 0.727 4.306 0.682C4.377 0.627 4.458 0.588 4.545 0.567C4.664 0.541 4.786 0.529 4.909 0.531L5.579 0.531L5.515 0.819L4.872 0.819C4.8 0.813 4.727 0.813 4.656 0.819C4.608 0.825 4.562 0.841 4.521 0.867C4.49 0.89 4.467 0.921 4.454 0.958C4.441 1.003 4.436 1.049 4.437 1.096C4.433 1.136 4.433 1.177 4.437 1.217C4.442 1.248 4.456 1.277 4.477 1.301C4.501 1.328 4.531 1.348 4.564 1.362C4.612 1.381 4.662 1.395 4.713 1.402L5.14 1.458ZM6.935 2.691C6.78 2.696 6.625 2.675 6.477 2.631C6.369 2.594 6.273 2.53 6.198 2.445C6.13 2.355 6.084 2.25 6.063 2.139C6.039 1.999 6.027 1.857 6.029 1.714L6.029 1.441C6.027 1.305 6.039 1.168 6.063 1.034C6.082 0.922 6.127 0.816 6.195 0.724C6.267 0.636 6.363 0.569 6.471 0.532C6.62 0.481 6.778 0.458 6.935 0.465C7.091 0.46 7.247 0.481 7.397 0.525C7.505 0.561 7.6 0.627 7.673 0.714C7.742 0.803 7.788 0.909 7.808 1.02C7.832 1.159 7.843 1.3 7.842 1.441L7.842 1.714C7.843 1.852 7.832 1.989 7.808 2.125C7.788 2.236 7.743 2.341 7.676 2.431C7.604 2.52 7.509 2.587 7.4 2.623C7.251 2.674 7.093 2.697 6.935 2.69M6.935 2.421C7.032 2.423 7.128 2.416 7.223 2.398C7.293 2.383 7.356 2.346 7.403 2.293C7.451 2.229 7.482 2.154 7.491 2.074C7.509 1.95 7.516 1.825 7.513 1.699L7.513 1.453C7.516 1.329 7.508 1.205 7.49 1.083C7.481 1.003 7.45 0.928 7.402 0.864C7.355 0.811 7.292 0.775 7.222 0.76C7.031 0.724 6.834 0.724 6.643 0.76C6.574 0.774 6.511 0.809 6.463 0.861C6.416 0.925 6.386 1 6.376 1.08C6.357 1.203 6.35 1.328 6.352 1.453L6.352 1.699C6.35 1.823 6.358 1.947 6.376 2.07C6.385 2.149 6.415 2.225 6.463 2.289C6.511 2.341 6.574 2.378 6.643 2.393C6.738 2.412 6.835 2.421 6.931 2.42M8.616 1.686C8.613 1.798 8.621 1.911 8.639 2.022C8.649 2.098 8.679 2.169 8.727 2.228C8.771 2.281 8.831 2.316 8.898 2.329C8.989 2.35 9.082 2.359 9.175 2.356L9.73 2.356L9.673 2.636L9.175 2.636C9.03 2.639 8.886 2.622 8.747 2.586C8.643 2.556 8.549 2.499 8.474 2.421C8.402 2.335 8.353 2.234 8.33 2.124C8.301 1.978 8.287 1.829 8.29 1.68L8.29 1.462C8.285 1.309 8.301 1.156 8.337 1.007C8.361 0.897 8.412 0.796 8.485 0.711C8.56 0.635 8.655 0.581 8.758 0.556C8.893 0.52 9.033 0.505 9.172 0.509L9.715 0.509L9.657 0.788L9.169 0.788C9.072 0.787 8.976 0.796 8.881 0.815C8.816 0.829 8.757 0.863 8.713 0.913C8.667 0.972 8.639 1.044 8.632 1.119C8.617 1.23 8.61 1.343 8.612 1.455L8.616 1.686ZM10.495 2.635L10.182 2.635L10.182 0.522L10.495 0.522L10.495 2.635ZM12.31 2.029L11.438 2.029L11.219 2.635L10.899 2.635L11.707 0.52L12.044 0.52L12.852 2.635L12.515 2.635L12.31 2.029ZM11.532 1.763L12.206 1.763L11.869 0.833L11.532 1.763ZM13.476 1.686C13.476 1.798 13.484 1.911 13.5 2.022C13.509 2.098 13.54 2.169 13.587 2.228C13.631 2.281 13.692 2.316 13.759 2.329C13.849 2.35 13.942 2.359 14.035 2.356L14.581 2.356L14.527 2.636L14.029 2.636C13.885 2.639 13.741 2.622 13.602 2.586C13.498 2.555 13.404 2.498 13.329 2.421C13.258 2.335 13.208 2.233 13.185 2.124C13.155 1.978 13.142 1.829 13.144 1.68L13.144 1.462C13.142 1.309 13.158 1.156 13.191 1.007C13.215 0.897 13.266 0.796 13.34 0.711C13.415 0.635 13.509 0.581 13.613 0.556C13.748 0.52 13.887 0.505 14.027 0.509L14.569 0.509L14.512 0.788L14.023 0.788C13.93 0.786 13.836 0.794 13.744 0.812C13.678 0.823 13.618 0.858 13.575 0.909C13.528 0.969 13.499 1.04 13.491 1.115C13.476 1.227 13.469 1.339 13.471 1.452L13.476 1.686ZM13.872 2.918L13.711 2.918L13.761 2.736L13.956 2.736C14.035 2.728 14.113 2.747 14.179 2.79C14.201 2.812 14.219 2.839 14.23 2.869C14.241 2.899 14.246 2.93 14.243 2.962L14.243 2.995C14.247 3.031 14.242 3.067 14.229 3.1C14.215 3.133 14.193 3.162 14.165 3.184C14.084 3.228 13.991 3.247 13.899 3.238L13.62 3.238L13.677 3.052L13.872 3.052C13.896 3.06 13.921 3.06 13.944 3.052C13.951 3.045 13.956 3.037 13.959 3.027C13.962 3.018 13.962 3.008 13.961 2.998C13.961 2.971 13.961 2.955 13.944 2.948C13.921 2.943 13.896 2.943 13.872 2.948M16.341 2.059L15.473 2.059L15.251 2.665L14.944 2.665L15.753 0.55L16.089 0.55L16.898 2.665L16.561 2.665L16.341 2.059ZM15.87 0.311L15.772 0.275C15.745 0.271 15.718 0.271 15.691 0.275C15.675 0.269 15.657 0.269 15.641 0.275C15.632 0.285 15.626 0.297 15.623 0.31C15.619 0.322 15.619 0.336 15.62 0.349L15.62 0.399L15.402 0.399L15.402 0.349C15.391 0.257 15.415 0.165 15.469 0.09C15.491 0.066 15.519 0.048 15.549 0.035C15.579 0.023 15.611 0.017 15.644 0.018C15.682 0.013 15.72 0.013 15.758 0.018C15.811 0.026 15.862 0.042 15.91 0.065L15.96 0.082L16.071 0.122C16.094 0.126 16.116 0.126 16.139 0.122C16.155 0.127 16.173 0.127 16.189 0.122C16.202 0.099 16.209 0.074 16.209 0.048L16.209 0L16.428 0L16.428 0.05C16.438 0.143 16.412 0.235 16.356 0.31C16.334 0.333 16.308 0.351 16.278 0.364C16.248 0.376 16.217 0.382 16.185 0.382C16.146 0.38 16.107 0.375 16.07 0.365C16.018 0.353 15.968 0.337 15.918 0.318L15.87 0.311ZM15.563 1.792L16.237 1.792L15.9 0.863L15.563 1.792ZM18.086 2.719C17.931 2.723 17.776 2.703 17.628 2.658C17.52 2.622 17.424 2.558 17.348 2.473C17.28 2.383 17.234 2.278 17.214 2.166C17.189 2.026 17.178 1.884 17.18 1.742L17.18 1.469C17.178 1.333 17.189 1.196 17.214 1.062C17.233 0.95 17.278 0.843 17.345 0.752C17.418 0.664 17.513 0.597 17.621 0.56C17.771 0.509 17.928 0.486 18.086 0.492C18.242 0.488 18.398 0.508 18.548 0.553C18.655 0.589 18.751 0.654 18.824 0.742C18.893 0.831 18.939 0.936 18.958 1.048C18.983 1.187 18.994 1.328 18.992 1.469L18.992 1.742C18.994 1.879 18.983 2.017 18.958 2.152C18.941 2.264 18.896 2.369 18.827 2.459C18.755 2.548 18.659 2.614 18.551 2.651C18.401 2.702 18.244 2.724 18.086 2.718M18.086 2.449C18.183 2.451 18.279 2.443 18.374 2.425C18.444 2.41 18.507 2.374 18.554 2.321C18.602 2.257 18.632 2.181 18.642 2.102C18.66 1.978 18.668 1.853 18.665 1.728L18.665 1.455C18.668 1.332 18.66 1.208 18.642 1.085C18.633 1.006 18.602 0.93 18.554 0.866C18.507 0.813 18.444 0.777 18.374 0.762C18.183 0.726 17.987 0.726 17.795 0.762C17.726 0.776 17.663 0.811 17.615 0.863C17.568 0.927 17.538 1.003 17.528 1.082C17.509 1.205 17.501 1.33 17.504 1.455L17.504 1.699C17.501 1.823 17.509 1.947 17.528 2.07C17.537 2.149 17.567 2.225 17.615 2.289C17.663 2.341 17.726 2.378 17.795 2.393C17.89 2.412 17.986 2.421 18.083 2.42M20.663 0.52L21.758 2.117L21.758 0.522L22.068 0.522L22.068 2.637L21.785 2.637L20.707 1.051L20.707 2.638L20.394 2.638L20.394 0.522L20.663 0.52ZM23.883 2.029L23.019 2.029L22.8 2.635L22.483 2.635L23.295 0.52L23.632 0.52L24.44 2.635L24.103 2.635L23.883 2.029ZM23.108 1.763L23.782 1.763L23.445 0.833L23.108 1.763ZM25.048 1.686C25.048 1.798 25.056 1.911 25.072 2.022C25.083 2.097 25.113 2.168 25.159 2.228C25.203 2.281 25.264 2.316 25.331 2.329C25.421 2.35 25.514 2.359 25.607 2.356L26.163 2.356L26.109 2.636L25.614 2.636C25.471 2.639 25.328 2.622 25.19 2.586C25.085 2.555 24.99 2.498 24.913 2.421C24.843 2.335 24.794 2.233 24.772 2.124C24.74 1.978 24.725 1.829 24.728 1.68L24.728 1.462C24.725 1.309 24.741 1.156 24.775 1.007C24.799 0.897 24.85 0.796 24.924 0.711C24.998 0.635 25.093 0.581 25.196 0.556C25.332 0.521 25.471 0.505 25.611 0.509L26.153 0.509L26.096 0.788L25.607 0.788C25.513 0.786 25.42 0.794 25.327 0.812C25.262 0.823 25.202 0.858 25.159 0.909C25.113 0.969 25.084 1.04 25.075 1.115C25.06 1.227 25.053 1.339 25.055 1.452L25.048 1.686ZM26.927 2.635L26.617 2.635L26.617 0.522L26.927 0.522L26.927 2.635ZM28.349 2.689C28.192 2.694 28.037 2.673 27.887 2.629C27.78 2.592 27.685 2.528 27.611 2.443C27.541 2.354 27.495 2.249 27.476 2.137C27.451 1.997 27.439 1.855 27.44 1.713L27.44 1.44C27.44 1.303 27.451 1.167 27.474 1.032C27.493 0.919 27.539 0.813 27.609 0.722C27.679 0.633 27.774 0.567 27.882 0.53C28.032 0.48 28.191 0.457 28.35 0.463C28.505 0.458 28.659 0.479 28.808 0.523C28.916 0.559 29.012 0.624 29.084 0.712C29.154 0.801 29.2 0.907 29.218 1.018C29.245 1.157 29.257 1.298 29.254 1.439L29.254 1.712C29.256 1.85 29.245 1.987 29.22 2.123C29.201 2.234 29.156 2.339 29.089 2.429C29.016 2.517 28.921 2.584 28.813 2.621C28.664 2.672 28.506 2.695 28.348 2.688M28.348 2.419C28.445 2.422 28.541 2.414 28.636 2.396C28.704 2.38 28.765 2.343 28.812 2.291C28.861 2.228 28.892 2.152 28.903 2.073C28.923 1.949 28.933 1.824 28.933 1.699L28.933 1.453C28.936 1.329 28.928 1.205 28.91 1.083C28.899 1.003 28.868 0.928 28.819 0.864C28.773 0.812 28.711 0.775 28.644 0.76C28.549 0.74 28.452 0.731 28.356 0.733C28.259 0.731 28.162 0.74 28.068 0.76C27.999 0.774 27.936 0.809 27.888 0.861C27.839 0.924 27.809 1 27.8 1.08C27.781 1.203 27.772 1.328 27.773 1.453L27.773 1.699C27.772 1.823 27.781 1.947 27.8 2.07C27.808 2.149 27.838 2.225 27.888 2.289C27.935 2.341 27.998 2.378 28.068 2.393C28.162 2.412 28.259 2.421 28.356 2.42M30.04 0.52L31.131 2.117L31.131 0.522L31.447 0.522L31.447 2.637L31.165 2.637L30.1 1.051L30.1 2.638L29.763 2.638L29.763 0.522L30.04 0.52ZM33.26 2.029L32.387 2.029L32.169 2.635L31.852 2.635L32.66 0.52L32.997 0.52L33.805 2.635L33.469 2.635L33.26 2.029ZM32.482 1.763L33.155 1.763L32.818 0.833L32.482 1.763ZM34.536 0.52L34.536 2.356L35.607 2.356L35.553 2.636L34.206 2.636L34.206 0.522L34.536 0.52ZM0 4.345L0.765 4.345C0.914 4.341 1.063 4.361 1.206 4.405C1.314 4.437 1.412 4.498 1.489 4.58C1.561 4.665 1.612 4.765 1.637 4.873C1.666 5.007 1.679 5.144 1.678 5.281L1.678 5.53C1.679 5.668 1.666 5.806 1.637 5.941C1.61 6.048 1.559 6.148 1.489 6.234C1.411 6.315 1.313 6.375 1.206 6.409C1.063 6.453 0.914 6.473 0.765 6.469L0 6.469L0 4.345ZM0.31 6.184L0.765 6.184C0.857 6.185 0.95 6.176 1.041 6.157C1.11 6.143 1.173 6.107 1.221 6.056C1.272 5.996 1.307 5.924 1.322 5.847C1.344 5.736 1.354 5.623 1.352 5.51L1.352 5.311C1.354 5.198 1.344 5.085 1.322 4.974C1.307 4.898 1.272 4.827 1.221 4.769C1.172 4.718 1.109 4.684 1.041 4.671C0.95 4.652 0.857 4.643 0.765 4.644L0.31 4.644L0.31 6.184ZM3.341 5.847L2.482 5.847L2.26 6.453L1.947 6.453L2.755 4.334L3.092 4.334L3.9 6.453L3.563 6.453L3.341 5.847ZM2.566 5.577L3.24 5.577L2.903 4.651L2.566 5.577ZM5.214 5.271C5.295 5.283 5.374 5.306 5.45 5.338C5.507 5.365 5.559 5.403 5.601 5.45C5.642 5.497 5.671 5.554 5.685 5.615C5.703 5.687 5.711 5.762 5.709 5.837L5.709 5.887C5.71 5.972 5.698 6.056 5.673 6.136C5.647 6.207 5.601 6.27 5.541 6.316C5.469 6.369 5.387 6.406 5.299 6.424C5.174 6.45 5.046 6.462 4.918 6.46L4.198 6.46L4.252 6.18L4.926 6.18C5.006 6.185 5.085 6.185 5.165 6.18C5.217 6.175 5.268 6.158 5.313 6.13C5.349 6.111 5.376 6.078 5.387 6.039C5.402 5.991 5.409 5.941 5.408 5.891C5.413 5.847 5.413 5.803 5.408 5.759C5.402 5.727 5.388 5.697 5.367 5.672C5.343 5.643 5.312 5.62 5.276 5.608C5.224 5.591 5.171 5.578 5.118 5.567L4.717 5.503C4.632 5.49 4.55 5.466 4.471 5.431C4.412 5.406 4.361 5.366 4.32 5.317C4.282 5.271 4.257 5.216 4.245 5.158C4.231 5.091 4.224 5.022 4.225 4.953L4.225 4.896C4.224 4.818 4.237 4.74 4.261 4.667C4.289 4.598 4.334 4.537 4.393 4.492C4.463 4.437 4.545 4.399 4.632 4.38C4.751 4.351 4.873 4.338 4.995 4.34L5.669 4.34L5.615 4.62L4.972 4.62C4.9 4.616 4.828 4.616 4.756 4.62C4.708 4.627 4.663 4.643 4.621 4.667C4.59 4.69 4.568 4.722 4.557 4.758C4.542 4.803 4.535 4.849 4.537 4.896C4.533 4.937 4.533 4.977 4.537 5.018C4.542 5.05 4.556 5.08 4.577 5.105C4.601 5.131 4.631 5.151 4.665 5.162C4.712 5.182 4.762 5.196 4.813 5.203L5.214 5.271ZM7.374 6.453L7.061 6.453L7.061 4.345L7.374 4.345L7.374 6.453ZM8.229 4.335L9.32 5.931L9.32 4.345L9.63 4.345L9.63 6.463L9.347 6.463L8.263 4.874L8.263 6.463L7.95 6.463L7.95 4.345L8.229 4.335ZM11.116 5.271C11.197 5.283 11.276 5.305 11.352 5.338C11.409 5.364 11.461 5.402 11.503 5.449C11.544 5.497 11.572 5.553 11.587 5.614C11.606 5.687 11.615 5.761 11.614 5.836L11.614 5.887C11.616 5.972 11.602 6.056 11.574 6.136C11.549 6.208 11.503 6.27 11.443 6.316C11.37 6.369 11.288 6.406 11.2 6.424C11.076 6.45 10.949 6.462 10.823 6.46L10.112 6.46L10.166 6.18L10.84 6.18C10.919 6.184 10.999 6.184 11.079 6.18C11.13 6.174 11.179 6.157 11.223 6.13C11.258 6.11 11.285 6.078 11.297 6.039C11.312 5.991 11.319 5.941 11.317 5.89C11.321 5.847 11.321 5.803 11.317 5.759C11.311 5.726 11.296 5.696 11.273 5.671C11.249 5.642 11.218 5.62 11.182 5.607C11.131 5.591 11.08 5.577 11.027 5.567L10.623 5.503C10.539 5.49 10.458 5.466 10.38 5.431C10.32 5.406 10.267 5.367 10.225 5.316C10.189 5.27 10.164 5.216 10.151 5.158C10.137 5.091 10.13 5.022 10.131 4.953L10.131 4.895C10.13 4.817 10.144 4.739 10.171 4.666C10.199 4.597 10.244 4.537 10.303 4.491C10.372 4.437 10.452 4.398 10.539 4.38C10.658 4.351 10.78 4.337 10.902 4.34L11.576 4.34L11.522 4.62L10.878 4.62C10.807 4.615 10.734 4.615 10.662 4.62C10.616 4.627 10.571 4.643 10.531 4.667C10.498 4.688 10.474 4.72 10.464 4.758C10.456 4.804 10.456 4.85 10.464 4.896C10.46 4.936 10.46 4.977 10.464 5.017C10.47 5.049 10.483 5.08 10.504 5.105C10.526 5.132 10.555 5.151 10.588 5.162C10.636 5.182 10.686 5.195 10.737 5.202L11.116 5.271ZM13.733 4.335L13.675 4.614L12.972 4.614L12.972 6.453L12.658 6.453L12.658 4.625L11.914 4.625L11.968 4.345L13.733 4.335ZM14.467 6.453L14.157 6.453L14.157 4.345L14.467 4.345L14.467 6.453ZM16.707 4.335L16.653 4.614L15.956 4.614L15.956 6.453L15.619 6.453L15.619 4.625L14.874 4.625L14.931 4.345L16.707 4.335ZM17.931 6.507C17.789 6.512 17.648 6.491 17.513 6.447C17.416 6.413 17.331 6.352 17.267 6.272C17.204 6.187 17.161 6.088 17.143 5.984C17.121 5.856 17.111 5.726 17.113 5.596L17.113 4.343L17.423 4.343L17.423 5.613C17.42 5.717 17.428 5.821 17.446 5.923C17.454 5.993 17.481 6.059 17.524 6.115C17.563 6.163 17.616 6.199 17.675 6.216C17.759 6.237 17.845 6.246 17.931 6.243C18.016 6.246 18.101 6.237 18.183 6.216C18.243 6.198 18.297 6.162 18.338 6.115C18.378 6.058 18.404 5.992 18.412 5.923C18.43 5.821 18.438 5.717 18.436 5.613L18.436 4.345L18.746 4.345L18.746 5.608C18.747 5.737 18.737 5.867 18.716 5.995C18.697 6.099 18.656 6.197 18.594 6.283C18.528 6.364 18.441 6.424 18.342 6.458C18.21 6.503 18.071 6.523 17.932 6.519M19.616 6.465L19.306 6.465L19.306 4.345L19.616 4.345L19.616 6.465ZM20.454 5.511C20.454 5.624 20.462 5.737 20.478 5.848C20.49 5.924 20.52 5.995 20.566 6.057C20.611 6.107 20.671 6.143 20.737 6.158C20.826 6.184 20.918 6.2 21.01 6.205L21.569 6.205L21.512 6.485L21.01 6.485C20.867 6.487 20.724 6.469 20.586 6.431C20.481 6.402 20.385 6.345 20.31 6.266C20.238 6.181 20.189 6.079 20.168 5.97C20.136 5.824 20.121 5.675 20.124 5.525L20.124 5.296C20.122 5.142 20.137 4.989 20.172 4.838C20.196 4.73 20.247 4.629 20.32 4.545C20.394 4.468 20.489 4.413 20.593 4.387C20.728 4.354 20.868 4.338 21.007 4.34L21.549 4.34L21.492 4.62L21.01 4.62C20.917 4.619 20.823 4.626 20.731 4.643C20.665 4.657 20.606 4.691 20.562 4.74C20.517 4.801 20.488 4.871 20.478 4.946C20.463 5.058 20.457 5.17 20.458 5.283L20.454 5.511ZM20.855 6.747L20.673 6.747L20.724 6.566L20.919 6.566C20.998 6.556 21.078 6.576 21.145 6.62C21.167 6.643 21.184 6.671 21.194 6.701C21.204 6.731 21.208 6.763 21.205 6.795L21.205 6.825C21.21 6.86 21.205 6.895 21.192 6.927C21.179 6.96 21.158 6.988 21.131 7.011C21.049 7.054 20.955 7.073 20.862 7.065L20.582 7.065L20.64 6.879L20.838 6.879C20.86 6.885 20.883 6.885 20.906 6.879C20.915 6.862 20.921 6.842 20.922 6.822C20.924 6.813 20.923 6.803 20.92 6.795C20.917 6.786 20.912 6.778 20.906 6.772C20.883 6.767 20.86 6.767 20.838 6.772M22.802 6.543C22.646 6.548 22.492 6.526 22.344 6.479C22.236 6.444 22.141 6.379 22.068 6.293C21.998 6.204 21.951 6.099 21.933 5.987C21.908 5.847 21.895 5.705 21.897 5.562L21.897 5.293C21.895 5.155 21.906 5.018 21.931 4.882C21.95 4.77 21.996 4.663 22.065 4.572C22.136 4.483 22.231 4.417 22.338 4.38C22.641 4.293 22.962 4.293 23.265 4.38C23.372 4.415 23.468 4.48 23.541 4.566C23.611 4.655 23.657 4.76 23.675 4.872C23.701 5.012 23.713 5.154 23.711 5.297L23.711 5.532C23.711 5.67 23.7 5.807 23.678 5.943C23.659 6.055 23.613 6.16 23.543 6.25C23.473 6.34 23.378 6.407 23.27 6.445C23.119 6.495 22.961 6.517 22.802 6.512M22.802 6.24C22.9 6.242 22.999 6.234 23.095 6.216C23.164 6.203 23.226 6.166 23.27 6.112C23.319 6.048 23.351 5.973 23.361 5.893C23.378 5.77 23.386 5.646 23.385 5.522L23.385 5.273C23.386 5.149 23.378 5.026 23.361 4.903C23.35 4.823 23.319 4.748 23.27 4.684C23.224 4.632 23.163 4.595 23.095 4.58C22.902 4.548 22.706 4.548 22.513 4.58C22.444 4.593 22.382 4.63 22.337 4.684C22.288 4.746 22.257 4.821 22.246 4.9C22.23 5.024 22.222 5.149 22.223 5.274L22.223 5.533C22.222 5.657 22.23 5.78 22.246 5.903C22.257 5.982 22.288 6.057 22.337 6.119C22.382 6.173 22.444 6.21 22.512 6.224C22.607 6.245 22.703 6.254 22.8 6.251M22.756 4.112L22.659 4.078C22.633 4.069 22.605 4.063 22.578 4.061C22.56 4.061 22.542 4.067 22.527 4.078C22.515 4.101 22.508 4.126 22.507 4.152L22.507 4.183L22.288 4.183L22.288 4.133C22.279 4.041 22.303 3.949 22.356 3.874C22.378 3.85 22.406 3.832 22.436 3.82C22.466 3.807 22.498 3.801 22.531 3.802C22.569 3.797 22.607 3.797 22.645 3.802C22.696 3.815 22.747 3.83 22.797 3.849L22.847 3.869L22.958 3.905C22.98 3.91 23.003 3.91 23.026 3.905C23.042 3.91 23.06 3.91 23.076 3.905C23.089 3.882 23.096 3.857 23.096 3.831L23.096 3.787L23.315 3.787L23.315 3.848C23.324 3.939 23.3 4.031 23.248 4.107C23.225 4.13 23.198 4.148 23.167 4.161C23.137 4.173 23.105 4.179 23.072 4.179C23.034 4.183 22.996 4.183 22.958 4.179C22.907 4.166 22.856 4.15 22.806 4.132L22.756 4.112ZM25.672 4.351L25.615 4.631L24.535 4.631L24.535 5.24L25.599 5.24L25.542 5.52L24.531 5.52L24.531 6.193L25.67 6.193L25.613 6.473L24.217 6.473L24.217 4.349L25.672 4.351ZM27.07 5.284C27.151 5.296 27.231 5.319 27.306 5.351C27.363 5.378 27.415 5.416 27.458 5.463C27.498 5.51 27.527 5.567 27.542 5.628C27.559 5.7 27.567 5.775 27.565 5.85L27.565 5.9C27.567 5.984 27.554 6.069 27.529 6.149C27.503 6.22 27.457 6.283 27.398 6.329C27.326 6.382 27.243 6.419 27.155 6.437C27.03 6.463 26.902 6.475 26.775 6.473L26.055 6.473L26.109 6.193L26.782 6.193C26.863 6.198 26.944 6.198 27.025 6.193C27.076 6.187 27.125 6.17 27.169 6.143C27.205 6.124 27.231 6.091 27.243 6.052C27.258 6.004 27.265 5.954 27.263 5.904C27.269 5.86 27.269 5.816 27.263 5.772C27.257 5.74 27.243 5.71 27.223 5.685C27.199 5.656 27.167 5.633 27.132 5.621C27.08 5.604 27.027 5.591 26.973 5.58L26.573 5.516C26.488 5.503 26.405 5.479 26.327 5.444C26.268 5.418 26.216 5.379 26.175 5.33C26.138 5.284 26.113 5.229 26.101 5.171C26.087 5.104 26.08 5.035 26.081 4.966L26.081 4.909C26.08 4.831 26.092 4.753 26.117 4.68C26.144 4.611 26.19 4.55 26.248 4.505C26.318 4.45 26.4 4.412 26.487 4.393C26.606 4.364 26.729 4.35 26.851 4.353L27.525 4.353L27.471 4.633L26.827 4.633C26.755 4.628 26.683 4.628 26.611 4.633C26.564 4.64 26.518 4.656 26.477 4.68C26.446 4.703 26.423 4.735 26.412 4.771C26.398 4.816 26.391 4.862 26.392 4.909C26.388 4.95 26.388 4.99 26.392 5.031C26.398 5.063 26.412 5.093 26.433 5.118C26.456 5.144 26.487 5.164 26.52 5.175C26.568 5.195 26.618 5.208 26.668 5.216L27.07 5.284ZM28.916 4.348L29.684 4.348C29.833 4.344 29.982 4.364 30.125 4.409C30.232 4.441 30.329 4.501 30.405 4.584C30.479 4.667 30.53 4.768 30.553 4.877C30.584 5.01 30.599 5.147 30.597 5.284L30.597 5.534C30.599 5.672 30.584 5.81 30.553 5.944C30.528 6.053 30.477 6.153 30.405 6.237C30.328 6.319 30.232 6.379 30.125 6.412C29.982 6.456 29.833 6.477 29.684 6.473L28.916 6.473L28.916 4.348ZM29.229 6.187L29.684 6.187C29.775 6.188 29.867 6.179 29.957 6.16C30.026 6.146 30.09 6.111 30.138 6.059C30.19 5.999 30.225 5.927 30.24 5.85C30.261 5.739 30.271 5.626 30.27 5.513L30.27 5.314C30.271 5.201 30.261 5.088 30.24 4.977C30.225 4.901 30.19 4.83 30.138 4.772C30.09 4.721 30.026 4.687 29.957 4.674C29.867 4.655 29.775 4.646 29.684 4.647L29.229 4.647L29.229 6.187ZM32.56 4.348L32.503 4.628L31.449 4.628L31.449 5.237L32.513 5.237L32.459 5.534L31.449 5.534L31.449 6.207L32.587 6.207L32.53 6.487L31.112 6.487L31.112 4.345L32.56 4.348ZM34.207 5.513C34.205 5.626 34.213 5.739 34.231 5.85C34.241 5.926 34.27 5.998 34.315 6.059C34.362 6.108 34.421 6.143 34.487 6.16C34.579 6.178 34.673 6.186 34.766 6.184L35.322 6.184L35.265 6.463L34.765 6.463C34.621 6.466 34.477 6.448 34.338 6.409C34.233 6.381 34.139 6.324 34.065 6.245C33.99 6.161 33.941 6.058 33.921 5.948C33.89 5.802 33.875 5.653 33.877 5.504L33.877 5.298C33.874 5.144 33.89 4.99 33.924 4.84C33.948 4.731 34 4.63 34.075 4.547C34.149 4.469 34.244 4.414 34.348 4.389C34.484 4.355 34.623 4.339 34.763 4.342L35.303 4.342L35.249 4.621L34.757 4.621C34.663 4.62 34.57 4.628 34.477 4.645C34.412 4.659 34.353 4.693 34.309 4.742C34.263 4.802 34.235 4.873 34.228 4.948C34.213 5.06 34.206 5.172 34.208 5.285L34.207 5.513ZM36.086 6.467L35.773 6.467L35.773 4.345L36.571 4.345C36.764 4.331 36.957 4.379 37.12 4.483C37.184 4.54 37.233 4.611 37.264 4.691C37.295 4.77 37.308 4.856 37.3 4.941L37.3 5.039C37.308 5.172 37.272 5.304 37.199 5.416C37.12 5.515 37.007 5.582 36.883 5.604L37.398 6.463L37.038 6.463L36.559 5.635L36.088 5.635L36.086 6.467ZM36.986 4.985C36.988 4.923 36.981 4.862 36.966 4.803C36.955 4.76 36.932 4.721 36.899 4.692C36.86 4.666 36.817 4.649 36.771 4.641C36.705 4.635 36.639 4.635 36.572 4.641L36.087 4.641L36.087 5.372L36.572 5.372C36.639 5.378 36.705 5.378 36.771 5.372C36.818 5.367 36.863 5.348 36.899 5.318C36.932 5.289 36.955 5.252 36.967 5.21C36.982 5.149 36.989 5.087 36.987 5.025L36.986 4.985ZM39.273 4.348L39.216 4.628L38.132 4.628L38.132 5.237L39.199 5.237L39.142 5.517L38.132 5.517L38.132 6.191L39.273 6.191L39.216 6.47L37.848 6.47L37.848 4.345L39.273 4.348ZM39.018 3.812L38.61 4.149L38.273 4.149L38.61 3.812L39.018 3.812ZM39.762 4.348L40.544 4.348C40.693 4.344 40.842 4.364 40.985 4.409C41.092 4.44 41.189 4.5 41.264 4.584C41.338 4.667 41.39 4.768 41.416 4.877C41.444 5.01 41.458 5.147 41.456 5.284L41.456 5.533C41.458 5.671 41.444 5.809 41.416 5.944C41.389 6.052 41.337 6.152 41.264 6.237C41.188 6.319 41.092 6.38 40.985 6.412C40.842 6.456 40.693 6.477 40.543 6.473L39.775 6.473L39.762 4.348ZM40.075 6.187L40.543 6.187C40.636 6.188 40.729 6.179 40.819 6.16C40.888 6.146 40.951 6.111 40.999 6.059C41.051 5.999 41.086 5.927 41.1 5.85C41.122 5.739 41.132 5.626 41.131 5.513L41.131 5.314C41.132 5.201 41.122 5.088 41.1 4.977C41.086 4.901 41.051 4.83 40.999 4.772C40.951 4.721 40.888 4.687 40.819 4.674C40.729 4.655 40.636 4.646 40.543 4.647L40.089 4.647L40.075 6.187ZM42.268 6.467L41.955 6.467L41.955 4.345L42.268 4.345L42.268 6.467ZM44.508 4.348L44.451 4.628L43.747 4.628L43.747 6.467L43.434 6.467L43.434 4.624L42.685 4.624L42.742 4.344L44.508 4.348ZM45.683 6.52C45.527 6.526 45.371 6.504 45.222 6.456C45.114 6.421 45.019 6.357 44.946 6.271C44.877 6.181 44.831 6.076 44.811 5.964C44.785 5.824 44.772 5.68 44.773 5.537L44.773 5.268C44.771 5.13 44.783 4.993 44.807 4.857C44.825 4.745 44.87 4.638 44.938 4.547C45.01 4.458 45.106 4.392 45.215 4.355C45.516 4.267 45.836 4.266 46.137 4.352C46.245 4.386 46.341 4.45 46.413 4.537C46.485 4.626 46.532 4.732 46.552 4.844C46.576 4.984 46.588 5.126 46.585 5.268L46.585 5.531C46.587 5.669 46.576 5.806 46.552 5.942C46.532 6.053 46.487 6.158 46.42 6.248C46.348 6.338 46.252 6.405 46.144 6.444C45.994 6.493 45.837 6.516 45.679 6.511M45.679 6.238C45.776 6.24 45.872 6.233 45.967 6.215C46.038 6.202 46.101 6.165 46.147 6.11C46.194 6.046 46.224 5.97 46.235 5.891C46.255 5.772 46.265 5.652 46.265 5.531L46.265 5.281C46.268 5.157 46.26 5.033 46.242 4.911C46.23 4.832 46.2 4.757 46.154 4.692C46.107 4.639 46.044 4.602 45.974 4.587C45.782 4.556 45.587 4.556 45.395 4.587C45.325 4.6 45.261 4.637 45.215 4.692C45.166 4.754 45.135 4.829 45.127 4.908C45.109 5.032 45.101 5.157 45.104 5.282L45.104 5.531C45.103 5.655 45.113 5.778 45.133 5.901C45.141 5.98 45.171 6.055 45.221 6.117C45.267 6.171 45.33 6.208 45.401 6.221C45.495 6.242 45.592 6.251 45.689 6.248M47.036 6.956L46.834 6.956L47.014 6.454C46.981 6.44 46.952 6.417 46.933 6.386C46.914 6.351 46.905 6.312 46.906 6.272C46.91 6.232 46.925 6.194 46.949 6.162C46.973 6.131 47.005 6.106 47.042 6.091C47.079 6.076 47.12 6.072 47.159 6.078C47.199 6.085 47.235 6.102 47.266 6.128C47.285 6.148 47.299 6.171 47.308 6.196C47.318 6.222 47.322 6.249 47.32 6.276C47.32 6.325 47.312 6.374 47.296 6.42C47.274 6.483 47.247 6.544 47.215 6.602L47.036 6.956ZM1.404 8.168L1.347 8.447L0.31 8.447L0.31 9.077L1.303 9.077L1.246 9.357L0.31 9.357L0.31 10.287L0 10.287L0 8.168L1.404 8.168ZM2.145 10.286L1.832 10.286L1.832 8.168L2.145 8.168L2.145 10.286ZM2.997 8.168L4.089 9.768L4.089 8.168L4.402 8.168L4.402 10.286L4.119 10.286L3.034 8.697L3.034 10.286L2.721 10.286L2.721 8.168L2.997 8.168ZM6.217 9.68L5.345 9.68L5.126 10.286L4.81 10.286L5.618 8.167L5.955 8.167L6.763 10.286L6.426 10.286L6.217 9.68ZM5.439 9.41L6.113 9.41L5.776 8.484L5.439 9.41ZM7.46 8.168L8.545 9.768L8.545 8.168L8.882 8.168L8.882 10.286L8.599 10.286L7.513 8.696L7.513 10.286L7.197 10.286L7.197 8.168L7.46 8.168ZM9.703 9.333C9.701 9.446 9.709 9.559 9.727 9.67C9.737 9.746 9.767 9.818 9.814 9.879C9.858 9.931 9.919 9.967 9.986 9.98C10.077 9.999 10.169 10.008 10.262 10.007L10.818 10.007L10.764 10.287L10.262 10.287C10.118 10.291 9.973 10.272 9.834 10.233C9.73 10.205 9.635 10.147 9.562 10.068C9.49 9.982 9.44 9.881 9.418 9.771C9.388 9.625 9.375 9.476 9.377 9.327L9.377 9.111C9.375 8.957 9.391 8.803 9.424 8.653C9.449 8.545 9.5 8.444 9.573 8.36C9.647 8.283 9.742 8.228 9.846 8.202C9.981 8.168 10.12 8.152 10.26 8.154L10.802 8.154L10.745 8.434L10.253 8.434C10.159 8.433 10.066 8.442 9.974 8.461C9.91 8.472 9.851 8.506 9.809 8.555C9.762 8.614 9.733 8.686 9.725 8.761C9.71 8.873 9.703 8.985 9.705 9.098L9.703 9.333ZM11.575 10.286L11.265 10.286L11.265 8.168L11.575 8.168L11.575 10.286ZM13.391 9.68L12.518 9.68L12.299 10.286L11.983 10.286L12.791 8.168L13.128 8.168L13.936 10.286L13.599 10.286L13.391 9.68ZM12.616 9.411L13.289 9.411L12.952 8.484L12.616 9.411ZM15.229 9.684L14.667 8.673L14.667 10.29L14.354 10.29L14.354 8.168L14.691 8.168L15.364 9.383L16.005 8.168L16.341 8.168L16.341 10.286L16.028 10.286L16.028 8.647L15.472 9.685L15.229 9.684ZM18.402 8.168L18.345 8.448L17.265 8.448L17.265 9.057L18.329 9.057L18.272 9.337L17.261 9.337L17.261 10.011L18.4 10.011L18.342 10.29L16.965 10.29L16.965 8.168L18.402 8.168ZM19.17 8.168L20.261 9.768L20.261 8.168L20.574 8.168L20.574 10.286L20.293 10.286L19.222 8.697L19.222 10.286L18.909 10.286L18.909 8.168L19.17 8.168ZM22.814 8.168L22.757 8.448L22.053 8.448L22.053 10.287L21.74 10.287L21.74 8.447L21.006 8.447L21.063 8.167L22.814 8.168ZM23.99 10.34C23.833 10.346 23.677 10.324 23.528 10.276C23.42 10.243 23.324 10.178 23.252 10.091C23.182 10.002 23.136 9.896 23.117 9.784C23.092 9.644 23.08 9.502 23.081 9.36L23.081 9.091C23.08 8.953 23.092 8.815 23.117 8.68C23.134 8.568 23.179 8.463 23.249 8.374C23.321 8.285 23.417 8.217 23.525 8.178C23.675 8.129 23.832 8.106 23.99 8.111C24.145 8.107 24.299 8.129 24.448 8.175C24.556 8.209 24.651 8.273 24.724 8.36C24.793 8.45 24.84 8.555 24.862 8.667C24.887 8.807 24.898 8.949 24.896 9.091L24.896 9.36C24.898 9.498 24.886 9.636 24.862 9.771C24.843 9.883 24.798 9.989 24.731 10.081C24.658 10.169 24.562 10.236 24.454 10.273C24.305 10.322 24.147 10.345 23.99 10.34ZM23.99 10.071C24.086 10.072 24.183 10.063 24.278 10.044C24.346 10.03 24.407 9.995 24.453 9.943C24.502 9.879 24.533 9.804 24.544 9.724C24.562 9.6 24.57 9.475 24.567 9.35L24.567 9.104C24.57 8.98 24.562 8.857 24.544 8.734C24.534 8.654 24.502 8.579 24.453 8.515C24.409 8.461 24.347 8.424 24.278 8.411C24.183 8.39 24.086 8.381 23.99 8.384C23.893 8.381 23.797 8.389 23.702 8.407C23.631 8.42 23.568 8.457 23.522 8.511C23.472 8.575 23.442 8.651 23.434 8.73C23.416 8.854 23.408 8.979 23.411 9.104L23.411 9.35C23.408 9.474 23.416 9.598 23.434 9.72C23.443 9.8 23.473 9.876 23.522 9.939C23.569 9.992 23.632 10.029 23.702 10.044C23.796 10.063 23.893 10.073 23.99 10.071ZM27.752 8.168L27.694 8.447L26.614 8.447L26.614 9.057L27.679 9.057L27.621 9.337L26.611 9.337L26.611 10.01L27.749 10.01L27.692 10.29L26.298 10.29L26.298 8.168L27.752 8.168ZM29.436 10.286L29.126 10.286L29.126 8.168L29.436 8.168L29.436 10.286ZM30.291 8.168L31.382 9.768L31.382 8.168L31.695 8.168L31.695 10.286L31.446 10.286L30.358 8.697L30.358 10.286L30.049 10.286L30.049 8.168L30.291 8.168ZM32.451 8.168L33.04 9.889L33.63 8.168L33.967 8.168L33.217 10.286L32.88 10.286L32.124 8.167L32.451 8.168ZM35.819 8.168L35.762 8.447L34.682 8.447L34.682 9.057L35.746 9.057L35.689 9.337L34.678 9.337L34.678 10.01L35.827 10.01L35.77 10.29L34.375 10.29L34.375 8.168L35.819 8.168ZM37.217 9.104C37.298 9.117 37.377 9.14 37.453 9.171C37.511 9.197 37.563 9.235 37.605 9.282C37.645 9.33 37.674 9.386 37.689 9.447C37.707 9.52 37.716 9.594 37.716 9.669L37.716 9.72C37.718 9.804 37.704 9.889 37.675 9.969C37.65 10.04 37.605 10.103 37.544 10.149C37.473 10.203 37.39 10.24 37.301 10.257C37.177 10.283 37.051 10.295 36.924 10.293L36.2 10.293L36.254 10.013L36.928 10.013C37.007 10.017 37.087 10.017 37.167 10.013C37.217 10.006 37.266 9.99 37.311 9.966C37.346 9.944 37.372 9.911 37.385 9.872C37.4 9.825 37.406 9.776 37.405 9.728C37.409 9.684 37.409 9.64 37.405 9.596C37.4 9.562 37.385 9.53 37.361 9.505C37.338 9.476 37.306 9.455 37.27 9.445C37.22 9.425 37.168 9.41 37.115 9.401L36.711 9.337C36.626 9.323 36.544 9.299 36.465 9.265C36.407 9.239 36.356 9.201 36.314 9.153C36.278 9.106 36.253 9.052 36.239 8.995C36.225 8.926 36.218 8.856 36.219 8.786L36.219 8.732C36.218 8.653 36.231 8.574 36.26 8.5C36.287 8.431 36.332 8.37 36.391 8.324C36.462 8.272 36.542 8.234 36.627 8.213C36.746 8.184 36.868 8.17 36.99 8.173L37.664 8.173L37.61 8.452L36.967 8.452C36.895 8.448 36.823 8.448 36.751 8.452C36.704 8.459 36.659 8.476 36.619 8.503C36.603 8.512 36.588 8.525 36.577 8.54C36.565 8.555 36.557 8.572 36.552 8.59C36.539 8.635 36.533 8.682 36.535 8.729C36.531 8.769 36.531 8.81 36.535 8.85C36.541 8.882 36.555 8.912 36.575 8.937C36.598 8.964 36.627 8.985 36.66 8.998C36.708 9.014 36.757 9.026 36.808 9.034L37.217 9.104ZM39.868 8.168L39.814 8.447L39.106 8.447L39.106 10.286L38.793 10.286L38.793 8.447L38.052 8.447L38.106 8.167L39.868 8.168ZM40.602 10.286L40.292 10.286L40.292 8.168L40.602 8.168L40.602 10.286ZM42.054 9.683L41.491 8.673L41.491 10.29L41.181 10.29L41.181 8.168L41.518 8.168L42.192 9.383L42.832 8.168L43.186 8.168L43.186 10.286L42.876 10.286L42.876 8.647L42.32 9.685L42.054 9.683ZM45.23 8.168L45.172 8.447L44.078 8.447L44.078 9.057L45.142 9.057L45.085 9.337L44.074 9.337L44.074 10.01L45.212 10.01L45.155 10.29L43.761 10.29L43.761 8.168L45.23 8.168ZM45.998 8.168L47.089 9.768L47.089 8.168L47.399 8.168L47.399 10.286L47.119 10.286L46.031 8.697L46.031 10.286L45.718 10.286L45.718 8.168L45.998 8.168ZM49.642 8.168L49.585 8.447L48.877 8.447L48.877 10.286L48.567 10.286L48.567 8.447L47.823 8.447L47.88 8.167L49.642 8.168ZM50.814 10.34C50.659 10.345 50.504 10.323 50.356 10.276C50.248 10.243 50.151 10.179 50.08 10.09C50.01 10.001 49.964 9.896 49.945 9.784C49.92 9.644 49.908 9.502 49.909 9.36L49.909 9.09C49.908 8.953 49.919 8.815 49.943 8.68C49.963 8.569 50.008 8.464 50.075 8.373C50.148 8.285 50.243 8.218 50.351 8.178C50.5 8.128 50.658 8.105 50.815 8.11C50.972 8.107 51.128 8.128 51.277 8.175C51.384 8.209 51.48 8.274 51.553 8.36C51.623 8.449 51.669 8.554 51.688 8.666C51.713 8.806 51.725 8.948 51.724 9.091L51.724 9.36C51.724 9.498 51.713 9.635 51.69 9.771C51.671 9.884 51.625 9.99 51.555 10.081C51.485 10.17 51.39 10.236 51.282 10.273C51.131 10.322 50.973 10.345 50.814 10.34M50.814 10.071C50.911 10.072 51.008 10.063 51.102 10.044C51.172 10.031 51.236 9.996 51.282 9.942C51.331 9.879 51.361 9.803 51.37 9.724C51.39 9.6 51.399 9.475 51.397 9.35L51.397 9.104C51.399 8.98 51.39 8.856 51.37 8.734C51.362 8.654 51.332 8.578 51.282 8.515C51.237 8.46 51.173 8.423 51.102 8.41C51.008 8.389 50.911 8.38 50.814 8.383C50.718 8.381 50.621 8.389 50.526 8.407C50.458 8.42 50.395 8.457 50.351 8.511C50.302 8.575 50.27 8.65 50.26 8.73C50.242 8.854 50.234 8.979 50.236 9.104L50.236 9.35C50.234 9.473 50.242 9.597 50.26 9.72C50.271 9.8 50.302 9.875 50.351 9.939C50.397 9.991 50.458 10.027 50.526 10.043C50.621 10.063 50.717 10.072 50.814 10.07" fill="rgb(0,22,137)" fill-opacity="1.000" fill-rule="nonzero" transform="matrix(1 0 0 1 70.4922 28.6072)"/><path d="M29.656 5.445C30.073 5.445 30.42 5.445 30.693 5.468L30.259 7.566L28.116 7.566C27.668 7.551 27.221 7.604 26.789 7.721C26.507 7.8 26.255 7.963 26.069 8.189C25.901 8.415 25.797 8.681 25.766 8.96C25.723 9.305 25.703 9.651 25.705 9.998L25.705 17.947L23.179 17.947L23.179 9.434C23.161 8.803 23.276 8.176 23.516 7.592C23.723 7.109 24.05 6.687 24.466 6.366C24.907 6.04 25.412 5.81 25.947 5.69C26.578 5.539 27.225 5.465 27.874 5.471L29.656 5.445ZM18.433 15.885C17.909 15.891 17.386 15.855 16.867 15.777C16.488 15.726 16.135 15.558 15.857 15.295C15.583 14.996 15.403 14.624 15.338 14.224C15.23 13.604 15.182 12.974 15.194 12.345L15.194 11.083C15.183 10.454 15.228 9.825 15.329 9.204C15.388 8.805 15.562 8.433 15.831 8.133C16.1 7.869 16.448 7.7 16.821 7.651C17.355 7.57 17.894 7.533 18.434 7.543L19.711 7.543C20.159 7.543 20.721 7.57 21.371 7.604L21.805 5.51C21.226 5.476 20.636 5.456 20.033 5.45C19.43 5.443 18.898 5.45 18.433 5.45C17.518 5.432 16.604 5.528 15.712 5.738C15.039 5.895 14.42 6.227 13.917 6.701C13.439 7.186 13.098 7.789 12.93 8.449C12.71 9.31 12.608 10.198 12.627 11.086L12.627 12.363C12.608 13.252 12.71 14.139 12.93 15C13.098 15.659 13.438 16.261 13.917 16.745C14.419 17.22 15.039 17.553 15.712 17.708C16.603 17.919 17.518 18.016 18.433 17.996L19.926 17.996C20.505 17.996 21.003 17.976 21.421 17.96L21.853 15.865C21.469 15.865 21.025 15.892 20.506 15.901C19.987 15.91 19.307 15.901 18.424 15.901M51.155 17.949L53.685 17.949L53.685 5.489L51.155 5.489L51.155 17.949ZM41.652 7.964C41.798 8.526 41.87 9.104 41.868 9.685L41.868 10.045C41.874 10.505 41.839 10.965 41.764 11.419C41.723 11.701 41.616 11.969 41.45 12.201C41.317 12.38 41.126 12.508 40.91 12.564C40.653 12.624 40.39 12.652 40.126 12.649L33.485 12.649C33.477 13.196 33.513 13.744 33.593 14.286C33.64 14.648 33.787 14.989 34.017 15.272C34.259 15.528 34.575 15.701 34.92 15.768C35.428 15.867 35.945 15.911 36.463 15.899L38.234 15.899C38.948 15.899 39.876 15.884 41.016 15.852L40.582 17.947L39.305 17.983L36.461 17.983C35.518 18.017 34.577 17.886 33.679 17.596C33.028 17.374 32.446 16.983 31.995 16.464C31.575 15.948 31.291 15.336 31.167 14.682C31.015 13.917 30.942 13.138 30.948 12.358L30.948 11.012C30.941 10.183 31.017 9.356 31.177 8.543C31.306 7.867 31.596 7.231 32.022 6.691C32.475 6.152 33.066 5.748 33.732 5.522C34.653 5.22 35.619 5.081 36.588 5.112C37.482 5.084 38.374 5.211 39.226 5.485C39.836 5.689 40.389 6.035 40.839 6.496C41.227 6.911 41.504 7.417 41.647 7.968M39.478 9.881C39.487 9.428 39.443 8.976 39.347 8.533C39.276 8.206 39.108 7.908 38.865 7.678C38.598 7.453 38.278 7.3 37.935 7.233C37.452 7.137 36.96 7.093 36.467 7.102C35.949 7.089 35.431 7.137 34.924 7.246C34.57 7.323 34.251 7.517 34.018 7.795C33.779 8.115 33.63 8.493 33.584 8.89C33.504 9.488 33.468 10.092 33.476 10.695L39.474 10.695L39.478 9.881ZM46.684 0.315C46.015 0.486 45.399 0.822 44.892 1.292C44.411 1.772 44.068 2.374 43.902 3.033C43.686 3.878 43.586 4.748 43.602 5.62L43.602 17.947L46.141 17.947L46.141 7.59L49.509 7.59L49.947 5.495L46.142 5.495C46.131 4.91 46.175 4.325 46.274 3.747C46.335 3.369 46.508 3.018 46.769 2.738C47.049 2.477 47.401 2.305 47.779 2.245C48.322 2.144 48.874 2.099 49.426 2.11L49.968 2.11L50.386 0.002L49.406 0.002C48.489 -0.017 47.573 0.089 46.684 0.315ZM10.832 15.916C10.832 16.687 10.657 17.23 10.3 17.536C9.942 17.842 9.289 17.994 8.366 17.994L4.739 17.994C3.055 17.994 1.832 17.684 1.103 17.064C0.373 16.445 0 15.512 0 14.273L0 13.74C0 12.393 0.399 11.426 1.196 10.838C1.993 10.251 3.239 9.961 4.934 9.969C5.698 9.946 6.461 10.023 7.204 10.198C7.632 10.3 8.042 10.467 8.42 10.693L8.42 9.968C8.425 9.615 8.397 9.262 8.336 8.914C8.284 8.627 8.139 8.364 7.925 8.166C7.653 7.937 7.329 7.779 6.982 7.705C6.429 7.586 5.863 7.535 5.298 7.55L3.136 7.55C2.368 7.55 1.711 7.57 1.165 7.586L1.62 5.492C2.071 5.492 2.631 5.465 3.304 5.458C3.978 5.451 4.651 5.458 5.325 5.458C7.276 5.458 8.687 5.8 9.558 6.485C10.43 7.17 10.864 8.18 10.862 9.516L10.832 15.916ZM2.439 14.195C2.422 14.426 2.457 14.658 2.543 14.873C2.629 15.088 2.762 15.281 2.934 15.438C3.264 15.714 3.87 15.852 4.752 15.852L8.346 15.852L8.346 13.676C8.351 13.413 8.32 13.15 8.252 12.895C8.192 12.679 8.059 12.49 7.875 12.363C7.623 12.206 7.341 12.106 7.047 12.07C6.57 11.998 6.088 11.967 5.607 11.975L5.052 11.975C4.621 11.969 4.19 11.997 3.762 12.056C3.477 12.094 3.203 12.19 2.957 12.339C2.767 12.468 2.623 12.654 2.547 12.871C2.46 13.139 2.42 13.419 2.429 13.699L2.439 14.195Z" fill="rgb(0,22,137)" fill-opacity="1.000" fill-rule="nonzero" transform="matrix(1 0 0 1 7.6344 21)"/><path d="M0.249 0L0 0L0 12.452L0.249 12.452L0.249 0Z" fill="rgb(4,212,92)" fill-opacity="1.000" fill-rule="nonzero" transform="matrix(1 0 0 1 68.0132 26.4954)"/><path d="M0.441 0L0 2.098L2.529 2.129L2.529 0L0.441 0Z" fill="rgb(4,212,92)" fill-opacity="1.000" fill-rule="nonzero" transform="matrix(1 0 0 1 58.7983 21.0191)"/></svg>