<svg xmlns="http://www.w3.org/2000/svg" viewBox="0 0 130 60" width="130" height="60"><path d="M0 0L130 0L130 60L0 60L0 0Z" fill="rgb(255,255,255)" fill-opacity="1.000" fill-rule="nonzero" transform="matrix(1 0 0 1 0 0)"/><path d="M65.394 11.304C65.343 16.41 63.077 18.964 58.591 18.964C54.105 18.964 51.787 16.353 51.787 11.132C51.787 5.91 54.055 3.299 58.591 3.299C63.127 3.299 65.395 5.91 65.395 11.132L65.395 11.304L65.394 11.304ZM58.59 6.596C56.722 6.596 55.788 8.107 55.788 11.13L55.788 11.288C55.821 14.205 56.754 15.665 58.59 15.665C60.425 15.665 61.392 14.154 61.392 11.13C61.392 8.107 60.457 6.596 58.59 6.596ZM70.997 9.481L73.799 9.481C75.666 9.481 76.601 8.451 76.601 6.389C76.601 4.327 75.666 3.297 73.799 3.297L70.997 3.297L70.997 9.48L70.997 9.481ZM73.799 0C78.335 0 80.603 2.13 80.603 6.39C80.603 10.65 78.335 12.781 73.799 12.781L70.997 12.781L70.997 18.552L66.995 18.552L66.995 0L73.799 0ZM50.986 3.71L50.986 7.42C48.318 7.008 46.984 7.97 46.984 10.306L46.984 18.551L42.982 18.551L42.982 3.71L46.984 3.71L46.984 5.63C48.35 3.159 50.986 3.71 50.986 3.71ZM38.579 0.824L38.579 3.71L41.38 3.71L41.38 7.008L38.579 7.008L38.579 13.192C38.579 15.078 39.477 15.84 41.274 15.475L41.38 15.452L41.38 18.551L41.257 18.585C40.335 18.82 34.577 20.018 34.577 13.192L34.577 7.008L32.576 7.008L32.576 3.71L34.577 3.71L35.777 0.824L38.579 0.824ZM89.807 8.15C89.764 6.973 88.928 6.712 87.815 6.678C86.476 6.719 85.674 7.104 85.407 7.833L81.804 7.833C81.804 5.359 83.805 3.298 87.807 3.298C91.067 3.298 93.826 4.856 93.811 7.833L93.809 8.634L93.811 18.551L89.81 18.551L89.81 16.727C88.942 18.486 86.849 18.963 85.407 18.963C83.459 18.963 81.005 17.726 81.005 14.428C81.005 8.405 89.81 10.358 89.81 8.245L89.807 8.15ZM89.808 11.955C89.455 12.859 85.006 12.324 85.006 14.428C85.006 16.643 89.808 16.077 89.808 13.604L89.808 11.955ZM18.967 8.245C18.955 5.997 20.605 3.298 25.171 3.298C29.173 3.298 31.034 5.359 31.374 7.833L27.662 7.833C27.274 7.063 26.443 6.678 25.171 6.678C22.71 6.678 22.693 8.857 25.071 9.259L25.171 9.275C29.062 9.687 31.36 11.31 31.374 14.016C31.386 16.264 29.736 18.963 25.171 18.963C21.169 18.963 19.307 16.902 18.967 14.428L22.68 14.428C23.067 15.198 23.898 15.583 25.171 15.583C27.665 15.583 27.648 13.343 25.171 12.985C21.28 12.573 18.981 10.95 18.967 8.244L18.967 8.245ZM95.792 23.498C99.258 24.1 101.825 22.186 103.491 17.757L109 3.71L104.746 3.71L101.56 11.834L98.374 3.71L94.057 3.71L99.408 17.355C98.524 19.45 97.35 20.403 95.886 20.214L95.792 20.201L95.792 23.499L95.792 23.498ZM9.441 5.489L6.5 12.986C8.029 12.322 9.709 11.955 11.473 11.955C11.643 11.955 11.813 11.958 11.981 11.965L9.441 5.489ZM0.001 18.551L7.277 0L11.605 0L18.881 18.551L14.564 18.551L13.345 15.441C12.74 15.318 12.114 15.253 11.473 15.253C8.632 15.253 6.079 16.524 4.32 18.543L4.317 18.551L0 18.551L0.001 18.551Z" fill="rgb(0,0,0)" fill-opacity="1.000" fill-rule="evenodd" transform="matrix(1 0 0 1 10 18)"/></svg>