<svg xmlns="http://www.w3.org/2000/svg" viewBox="0 0 60 60" width="60" height="60"><path d="M0 0L60 0L60 60L0 60L0 0Z" fill="rgb(5,54,52)" fill-opacity="1.000" fill-rule="nonzero" transform="matrix(1 0 0 1 0 0)"/><path d="M25.483 0C27.016 0 28.519 0.12 29.986 0.353L33.671 9.474C31.158 8.396 28.391 7.799 25.483 7.799C18.914 7.799 13.056 10.844 9.244 15.6L0 15.6C4.733 6.339 14.368 0 25.483 0Z" fill="rgb(0,219,191)" fill-opacity="1.000" fill-rule="nonzero" transform="matrix(1 0 0 1 13 31.851)"/><path d="M18.595 0.001L25.245 16.433C24.13 16.313 22.999 16.251 21.853 16.251C20.178 16.251 18.536 16.383 16.933 16.636L14.399 10.367L11.278 18.088C7.01 19.625 3.174 22.067 0 25.18L10.174 0L18.593 0L18.595 0.001Z" fill="rgb(255,255,255)" fill-opacity="1.000" fill-rule="nonzero" transform="matrix(1 0 0 1 16.627 13)"/></svg>