<svg xmlns="http://www.w3.org/2000/svg" viewBox="0 0 60 60" width="60" height="60"><path d="M0 0L60 0L60 60L0 60L0 0Z" fill="rgb(51,49,50)" fill-opacity="1.000" fill-rule="nonzero" transform="matrix(1 0 0 1 0 0)"/><path d="M23.284 0.37C22.994 -0.123 22.282 -0.123 21.992 0.37L0 38.389C3.745 32.418 9.508 27.813 16.273 25.445C16.737 25.256 17.216 25.111 17.695 24.98C17.724 24.966 17.753 24.966 17.782 24.951L17.797 24.951L22.79 16.307L27.131 23.832C31.05 23.905 34.795 24.719 38.236 26.128L23.284 0.37Z" fill="rgb(250,140,30)" fill-opacity="1.000" fill-rule="nonzero" transform="matrix(1 0 0 1 8.2075 10.5907)"/><path d="M22.642 0.371C22.496 0.109 22.206 -0.036 21.916 0.008C20.551 0.167 19.216 0.429 17.909 0.763L17.895 0.763C17.866 0.778 17.837 0.778 17.808 0.792C17.329 0.923 16.85 1.083 16.385 1.257C9.621 3.625 3.858 8.23 0.113 14.201C-0.192 14.695 0.156 15.349 0.751 15.349L9.432 15.349L9.475 15.291L9.519 15.349C13.569 11.049 19.317 8.346 25.69 8.346C25.777 8.346 25.864 8.346 25.951 8.346C26.532 8.361 26.895 7.722 26.605 7.228L22.642 0.371Z" fill="rgb(230,90,35)" fill-opacity="1.000" fill-rule="nonzero" transform="matrix(1 0 0 1 8.0948 34.7788)"/><path d="M8.84 15.327C8.971 15.559 9.218 15.704 9.494 15.704L17.608 15.704C18.189 15.704 18.537 15.08 18.247 14.586L11.105 2.295C7.665 0.886 3.919 0.087 0 0L8.84 15.327Z" fill="rgb(252,185,4)" fill-opacity="1.000" fill-rule="nonzero" transform="matrix(1 0 0 1 35.336 34.4233)"/></svg>