<svg xmlns="http://www.w3.org/2000/svg" viewBox="0 0 130 60" width="130" height="60"><path d="M0 0L130 0L130 60L0 60L0 0Z" fill="rgb(255,255,255)" fill-opacity="1.000" fill-rule="nonzero" transform="matrix(1 0 0 1 0 0)"/><path d="M0.875 5.104C0.875 5.231 0.787 5.319 0.609 5.319C0.444 5.319 0 5.294 0 5.154L0 0.178C0 0.063 0.089 0 0.241 0L3.057 0C3.159 0 3.235 0.102 3.235 0.216C3.235 0.381 3.209 0.787 3.095 0.787L0.863 0.787L0.863 2.285L2.689 2.285C2.791 2.285 2.867 2.374 2.867 2.488C2.867 2.653 2.842 3.06 2.727 3.06L0.863 3.06L0.863 5.104L0.875 5.104Z" fill="rgb(128,130,133)" fill-opacity="1.000" fill-rule="nonzero" transform="matrix(1 0 0 1 58.5939 37.7979)"/><path d="M0.647 5.408C0.469 5.408 0 5.383 0 5.256L0 0.152C0 0.025 0.469 0 0.647 0C0.774 0 0.875 0.089 0.875 0.19L0.875 5.205C0.875 5.332 0.774 5.408 0.647 5.408Z" fill="rgb(128,130,133)" fill-opacity="1.000" fill-rule="nonzero" transform="matrix(1 0 0 1 62.3875 37.7089)"/><path d="M3.209 0.14C3.209 0.025 3.692 0 3.882 0C4.009 0 4.072 0.076 4.072 0.216L4.072 5.218C4.072 5.332 3.958 5.408 3.856 5.408C3.692 5.408 3.298 5.383 3.222 5.269L0.863 1.638L0.863 5.218C0.863 5.332 0.761 5.408 0.647 5.408C0.469 5.408 0 5.383 0 5.256L0 0.152C0 0.025 0.469 0 0.634 0C0.736 0 0.812 0.076 0.863 0.152L3.222 3.783L3.222 0.14L3.209 0.14Z" fill="rgb(128,130,133)" fill-opacity="1.000" fill-rule="nonzero" transform="matrix(1 0 0 1 64.237 37.7089)"/><path d="M3.171 4.164L1.243 4.164L0.888 5.243C0.837 5.383 0.558 5.396 0.279 5.396C0.152 5.396 0 5.358 0 5.243C0 5.218 0.013 5.205 0.013 5.18L1.789 0.152C1.827 0.025 2.22 0 2.423 0C2.512 0 2.588 0.063 2.626 0.165L4.389 5.193C4.402 5.218 4.402 5.231 4.402 5.256C4.402 5.37 4.25 5.408 4.123 5.408C3.806 5.408 3.552 5.396 3.501 5.231L3.171 4.164ZM1.459 3.466L2.943 3.466L2.258 1.358C2.233 1.282 2.22 1.181 2.207 1.105C2.195 1.181 2.182 1.282 2.144 1.358L1.459 3.466Z" fill="rgb(128,130,133)" fill-opacity="1.000" fill-rule="nonzero" transform="matrix(1 0 0 1 68.8824 37.7215)"/><path d="M3.209 0.14C3.209 0.025 3.692 0 3.882 0C4.009 0 4.072 0.076 4.072 0.216L4.072 5.218C4.072 5.332 3.958 5.408 3.856 5.408C3.692 5.408 3.298 5.383 3.222 5.269L0.863 1.638L0.863 5.218C0.863 5.332 0.761 5.408 0.647 5.408C0.469 5.408 0 5.383 0 5.256L0 0.152C0 0.025 0.469 0 0.634 0C0.736 0 0.812 0.076 0.863 0.152L3.222 3.783L3.222 0.14L3.209 0.14Z" fill="rgb(128,130,133)" fill-opacity="1.000" fill-rule="nonzero" transform="matrix(1 0 0 1 73.8945 37.7089)"/><path d="M0.888 3.288C0.888 4.278 1.078 4.672 2.08 4.672L2.144 4.672C2.613 4.672 3.006 4.596 3.209 4.558C3.362 4.532 3.412 4.913 3.412 5.129C3.412 5.332 2.524 5.396 2.055 5.396L1.992 5.396C0.647 5.396 0 4.901 0 3.415L0 1.981C0 0.495 0.66 0 2.03 0L2.093 0C2.512 0 3.412 0.076 3.412 0.267C3.412 0.571 3.374 0.851 3.248 0.838C3.083 0.813 2.626 0.736 2.182 0.736L2.119 0.736C1.091 0.736 0.888 1.117 0.888 2.12L0.888 3.288Z" fill="rgb(128,130,133)" fill-opacity="1.000" fill-rule="nonzero" transform="matrix(1 0 0 1 78.8159 37.7089)"/><path d="M0 0.19C0 0.063 0.101 0 0.228 0L3.146 0C3.26 0 3.336 0.089 3.336 0.216C3.336 0.381 3.311 0.787 3.197 0.787L0.888 0.787L0.888 2.196L2.867 2.196C2.956 2.196 3.045 2.285 3.045 2.399C3.045 2.565 3.019 2.971 2.905 2.971L0.875 2.971L0.875 4.456L3.146 4.456C3.26 4.456 3.336 4.545 3.336 4.672C3.336 4.824 3.311 5.243 3.197 5.243L0.33 5.243C0.14 5.243 0 5.205 0 5.104L0 0.19Z" fill="rgb(128,130,133)" fill-opacity="1.000" fill-rule="nonzero" transform="matrix(1 0 0 1 82.9644 37.7851)"/><path d="M0.647 5.408C0.469 5.408 0 5.383 0 5.256L0 0.152C0 0.025 0.469 0 0.647 0C0.774 0 0.875 0.089 0.875 0.19L0.875 5.205C0.875 5.332 0.774 5.408 0.647 5.408Z" fill="rgb(128,130,133)" fill-opacity="1.000" fill-rule="nonzero" transform="matrix(1 0 0 1 87.0853 37.7089)"/><path d="M0 0.279C0 0.102 0.076 0 0.228 0L1.827 0C3.286 0 3.692 0.457 3.692 1.574L3.692 1.739C3.692 2.653 3.425 3.072 2.702 3.225L3.717 4.977C3.768 5.066 3.793 5.129 3.793 5.193C3.793 5.319 3.666 5.332 3.514 5.332C3.336 5.332 2.981 5.319 2.88 5.142L1.814 3.314L0.875 3.314L0.875 5.142C0.875 5.256 0.774 5.332 0.66 5.332C0.482 5.332 0.013 5.307 0.013 5.18L0.013 0.279L0 0.279ZM0.863 0.787L0.863 2.539L1.877 2.539C2.563 2.539 2.791 2.399 2.791 1.752L2.791 1.587C2.791 0.927 2.55 0.787 1.877 0.787L0.863 0.787Z" fill="rgb(128,130,133)" fill-opacity="1.000" fill-rule="nonzero" transform="matrix(1 0 0 1 88.9111 37.7851)"/><path d="M3.171 4.164L1.243 4.164L0.888 5.243C0.837 5.383 0.558 5.396 0.279 5.396C0.152 5.396 0 5.358 0 5.243C0 5.218 0.013 5.205 0.013 5.18L1.789 0.152C1.827 0.025 2.22 0 2.423 0C2.512 0 2.588 0.063 2.626 0.165L4.389 5.193C4.402 5.218 4.402 5.231 4.402 5.256C4.402 5.37 4.25 5.408 4.123 5.408C3.806 5.408 3.552 5.396 3.501 5.231L3.171 4.164ZM1.459 3.466L2.943 3.466L2.258 1.358C2.233 1.282 2.22 1.181 2.207 1.105C2.195 1.181 2.182 1.282 2.144 1.358L1.459 3.466Z" fill="rgb(128,130,133)" fill-opacity="1.000" fill-rule="nonzero" transform="matrix(1 0 0 1 93.0321 37.7215)"/><path d="M9.908 13.127L4.313 13.127L3.4 15.946C3.222 16.479 2.157 16.504 1.066 16.504C0.558 16.504 0 16.352 0 15.92C0 15.831 0.025 15.793 0.038 15.692L5.544 0.533C5.696 0.025 7.294 0 8.005 0C8.271 0 8.588 0.178 8.715 0.533L14.17 15.704C14.195 15.793 14.208 15.844 14.208 15.933C14.208 16.352 13.612 16.517 13.142 16.517C11.988 16.517 10.986 16.466 10.808 15.92L9.908 13.127ZM5.176 10.461L9.045 10.461L7.269 4.989C7.18 4.761 7.129 4.482 7.117 4.24C7.066 4.482 7.053 4.774 6.977 4.989L5.176 10.461Z" fill="rgb(51,49,50)" fill-opacity="1.000" fill-rule="nonzero" transform="matrix(1 0 0 1 58.5421 18.0051)"/><path d="M7.802 15.641C7.802 16.022 7.383 16.263 6.952 16.263C6.368 16.263 4.465 16.212 4.465 15.73L4.465 2.971L0.596 2.971C0.266 2.971 0 2.577 0 2.196C0 1.663 0.051 0 0.533 0L11.658 0C11.988 0 12.254 0.394 12.254 0.774C12.254 1.308 12.191 2.971 11.722 2.971L7.789 2.971L7.789 15.641L7.802 15.641Z" fill="rgb(51,49,50)" fill-opacity="1.000" fill-rule="nonzero" transform="matrix(1 0 0 1 70.7313 18.2464)"/><path d="M0 0.939C0 0.343 0.33 0 0.85 0L5.912 0C10.529 0 11.886 1.447 11.886 4.939L11.886 5.586C11.886 8.366 11.024 9.674 9.02 10.182L11.925 15.044C12.102 15.349 12.191 15.578 12.191 15.755C12.191 16.225 11.683 16.263 11.151 16.263C10.504 16.263 9.108 16.238 8.791 15.679L5.645 10.499L3.311 10.499L3.311 15.679C3.311 16.035 2.918 16.263 2.486 16.263C1.928 16.263 0 16.2 0 15.704L0 0.939ZM3.298 2.983L3.298 7.541L6.076 7.541C7.789 7.541 8.423 7.211 8.423 5.586L8.423 4.939C8.423 3.339 7.738 2.983 6.076 2.983L3.298 2.983Z" fill="rgb(51,49,50)" fill-opacity="1.000" fill-rule="nonzero" transform="matrix(1 0 0 1 84.5728 18.2339)"/><path d="M2.512 16.492C1.916 16.492 0 16.441 0 15.958L0 0.533C0 0.038 1.916 0 2.512 0C2.918 0 3.336 0.241 3.336 0.597L3.336 15.857C3.336 16.238 2.918 16.492 2.512 16.492Z" fill="rgb(51,49,50)" fill-opacity="1.000" fill-rule="nonzero" transform="matrix(1 0 0 1 98.856 18.0177)"/><path d="M9.908 13.127L4.313 13.127L3.4 15.946C3.222 16.479 2.157 16.504 1.066 16.504C0.558 16.504 0 16.352 0 15.92C0 15.831 0.025 15.793 0.038 15.692L5.544 0.533C5.696 0.025 7.294 0 8.005 0C8.271 0 8.588 0.178 8.715 0.533L14.17 15.704C14.195 15.793 14.208 15.844 14.208 15.933C14.208 16.352 13.612 16.517 13.142 16.517C11.988 16.517 10.986 16.466 10.808 15.92L9.908 13.127ZM5.176 10.461L9.045 10.461L7.269 4.989C7.18 4.761 7.129 4.482 7.117 4.24C7.066 4.482 7.053 4.774 6.99 4.989L5.176 10.461Z" fill="rgb(51,49,50)" fill-opacity="1.000" fill-rule="nonzero" transform="matrix(1 0 0 1 103.7932 18.0051)"/><path d="M20.348 0.324C20.094 -0.108 19.472 -0.108 19.219 0.324L0 33.548C3.273 28.33 8.309 24.306 14.221 22.236C14.627 22.071 15.045 21.944 15.464 21.83C15.489 21.817 15.515 21.817 15.54 21.805L15.553 21.805L19.916 14.251L23.709 20.827C27.135 20.891 30.408 21.602 33.414 22.833L20.348 0.324Z" fill="rgb(250,140,30)" fill-opacity="1.000" fill-rule="nonzero" transform="matrix(1 0 0 1 13.9283 13.3901)"/><path d="M19.786 0.324C19.66 0.096 19.406 -0.031 19.152 0.007C17.96 0.146 16.793 0.375 15.651 0.667L15.638 0.667C15.613 0.68 15.588 0.68 15.562 0.692C15.144 0.807 14.725 0.946 14.319 1.099C8.407 3.168 3.371 7.192 0.098 12.41C-0.168 12.842 0.136 13.413 0.656 13.413L8.243 13.413L8.281 13.362L8.319 13.413C11.858 9.655 16.881 7.294 22.45 7.294C22.527 7.294 22.603 7.294 22.679 7.294C23.186 7.307 23.503 6.748 23.25 6.316L19.786 0.324Z" fill="rgb(230,90,35)" fill-opacity="1.000" fill-rule="nonzero" transform="matrix(1 0 0 1 13.8298 34.5279)"/><path d="M7.726 13.394C7.84 13.597 8.055 13.724 8.296 13.724L15.388 13.724C15.895 13.724 16.2 13.178 15.946 12.746L9.705 2.006C6.698 0.774 3.425 0.076 0 0L7.726 13.394Z" fill="rgb(252,185,4)" fill-opacity="1.000" fill-rule="nonzero" transform="matrix(1 0 0 1 37.6364 34.2174)"/></svg>