<svg xmlns="http://www.w3.org/2000/svg" viewBox="0 0 130 60" width="130" height="60"><path d="M0 0L130 0L130 60L0 60L0 0Z" fill="rgb(255,255,255)" fill-opacity="1.000" fill-rule="nonzero" transform="matrix(1 0 0 1 0 0)"/><path d="M95.411 7.741C95.577 4.147 96.849 1.935 99.641 1.935C102.212 1.935 102.875 3.926 102.875 6.497C102.875 7.519 102.654 7.74 101.658 7.74L95.411 7.741ZM40.365 7.741C40.531 4.147 41.803 1.935 44.595 1.935C47.166 1.935 47.829 3.926 47.829 6.497C47.829 7.519 47.608 7.74 46.613 7.74L40.365 7.741ZM7.797 9.787L11.253 3.179C11.474 2.765 11.667 2.461 12.165 2.461C12.663 2.461 12.883 2.765 12.883 3.318L12.883 9.787L7.797 9.787ZM99.751 19.906C104.258 19.906 107.05 17.501 107.797 13.519L106.193 13.519C105.447 15.897 103.566 17.141 100.746 17.141C97.152 17.141 95.548 14.542 95.383 9.538L107.548 9.538C107.658 9.041 107.658 8.57 107.658 8.073C107.658 3.539 105.004 0.166 99.585 0.166C94.167 0.166 90.545 3.815 90.545 10.063C90.545 16.726 94.582 19.906 99.751 19.906ZM80.924 19.906C86.315 19.906 88.748 17.362 88.748 12.828L88.748 0.277L84.13 0.277L84.13 14.571C84.13 17.031 82.831 18.109 80.924 18.109C79.016 18.109 77.689 17.031 77.689 14.571L77.689 0.277L73.072 0.277L73.072 12.828C73.072 17.362 75.532 19.906 80.924 19.906ZM54.437 19.63L59.055 19.63L59.055 7.769C59.055 4.838 60.298 3.263 62.649 3.263C65 3.263 66.243 4.838 66.243 7.769L66.243 19.602L70.861 19.602L70.861 7.216C70.861 2.073 68.345 0 64.916 0C61.212 0 59.719 2.378 59.221 3.179C59.028 3.484 58.973 3.484 58.834 3.484C58.696 3.484 58.641 3.401 58.641 3.235L58.641 0.277L54.438 0.277L54.438 19.63L54.437 19.63ZM44.706 19.906C49.212 19.906 52.005 17.501 52.751 13.519L51.147 13.519C50.401 15.897 48.52 17.141 45.7 17.141C42.106 17.141 40.503 14.542 40.337 9.538L52.502 9.538C52.613 9.041 52.613 8.57 52.613 8.073C52.613 3.539 49.958 0.166 44.54 0.166C39.121 0.166 35.499 3.815 35.499 10.063C35.499 16.726 39.536 19.906 44.706 19.906ZM8.57 3.318L0 19.63L2.654 19.63L5.64 13.962C6.58 12.192 7.548 11.557 9.76 11.557L12.884 11.557L12.884 19.63L17.501 19.63L17.501 4.727C17.501 1.521 16.008 0 13.271 0C10.893 0 9.704 1.161 8.57 3.318ZM24.219 19.906C26.596 19.906 27.785 18.745 28.919 16.588L37.49 0.277L34.836 0.277L26.237 16.727C26.016 17.141 25.823 17.446 25.325 17.446C24.827 17.446 24.606 17.141 24.606 16.589L24.606 0.277L19.989 0.277L19.989 15.178C19.989 18.385 21.482 19.906 24.219 19.906Z" fill="rgb(0,40,32)" fill-opacity="1.000" fill-rule="nonzero" transform="matrix(1 0 0 1 12 19.1933)"/></svg>