<svg xmlns="http://www.w3.org/2000/svg" viewBox="0 0 60 60" width="60" height="60"><path d="M0 0L60 0L60 60L0 60L0 0Z" fill="rgb(0,40,32)" fill-opacity="1.000" fill-rule="nonzero" transform="matrix(1 0 0 1 0 0)"/><path d="M9.359 11.8L13.507 3.833C13.772 3.334 14.004 2.967 14.602 2.967C15.199 2.967 15.464 3.334 15.464 4L15.464 11.8L9.359 11.8ZM10.287 4L0 23.667L3.186 23.667L6.77 16.834C7.899 14.7 9.06 13.934 11.715 13.934L15.465 13.934L15.465 23.667L21.007 23.667L21.007 5.7C21.007 1.833 19.215 0 15.929 0C13.076 0 11.648 1.4 10.287 4ZM29.071 24C31.924 24 33.351 22.6 34.712 20L45 0.334L41.814 0.334L31.493 20.167C31.228 20.667 30.996 21.034 30.398 21.034C29.801 21.034 29.536 20.667 29.536 20.001L29.536 0.334L23.993 0.334L23.993 18.3C23.993 22.167 25.785 24 29.071 24Z" fill="rgb(255,255,255)" fill-opacity="1.000" fill-rule="nonzero" transform="matrix(1 0 0 1 7 18)"/></svg>