<svg xmlns="http://www.w3.org/2000/svg" viewBox="0 0 60 60" width="60" height="60"><path d="M0 0L60 0L60 60L0 60L0 0Z" fill="rgb(255,255,255)" fill-opacity="1.000" fill-rule="nonzero" transform="matrix(1 0 0 1 0 0)"/><path d="M10.464 9.472C10.464 10.009 10.522 10.444 10.624 10.763C10.739 11.082 10.884 11.43 11.087 11.807C11.159 11.924 11.188 12.04 11.188 12.141C11.188 12.286 11.101 12.431 10.913 12.576L10.001 13.185C9.871 13.273 9.741 13.316 9.625 13.316C9.48 13.316 9.336 13.244 9.191 13.113C8.988 12.895 8.814 12.663 8.67 12.431C8.525 12.185 8.38 11.909 8.221 11.575C7.092 12.91 5.674 13.577 3.966 13.577C2.75 13.577 1.78 13.229 1.071 12.533C0.362 11.836 0 10.908 0 9.748C0 8.515 0.434 7.514 1.317 6.76C2.2 6.005 3.372 5.628 4.863 5.628C5.355 5.628 5.862 5.672 6.397 5.744C6.933 5.817 7.483 5.933 8.062 6.063L8.062 5.004C8.062 3.902 7.83 3.133 7.382 2.684C6.918 2.234 6.137 2.016 5.022 2.016C4.516 2.016 3.995 2.074 3.459 2.205C2.924 2.335 2.403 2.495 1.896 2.698C1.664 2.8 1.491 2.858 1.389 2.887C1.288 2.916 1.216 2.93 1.158 2.93C0.955 2.93 0.854 2.785 0.854 2.48L0.854 1.77C0.854 1.538 0.883 1.364 0.955 1.262C1.028 1.16 1.158 1.059 1.361 0.957C1.867 0.696 2.475 0.479 3.184 0.305C3.893 0.116 4.646 0.029 5.442 0.029C7.164 0.029 8.424 0.421 9.234 1.204C10.03 1.987 10.436 3.177 10.436 4.772L10.436 9.472L10.464 9.472ZM4.588 11.677C5.066 11.677 5.558 11.59 6.079 11.416C6.6 11.242 7.063 10.923 7.454 10.487C7.686 10.212 7.859 9.907 7.946 9.559C8.033 9.211 8.091 8.79 8.091 8.297L8.091 7.688C7.671 7.586 7.222 7.499 6.759 7.441C6.296 7.383 5.847 7.354 5.399 7.354C4.429 7.354 3.72 7.543 3.242 7.935C2.764 8.326 2.533 8.877 2.533 9.603C2.533 10.284 2.707 10.792 3.068 11.14C3.416 11.503 3.922 11.677 4.588 11.677ZM16.211 13.244C15.95 13.244 15.776 13.2 15.661 13.098C15.545 13.011 15.443 12.808 15.357 12.533L11.955 1.32C11.868 1.03 11.825 0.841 11.825 0.74C11.825 0.508 11.941 0.377 12.172 0.377L13.591 0.377C13.866 0.377 14.054 0.421 14.155 0.522C14.271 0.609 14.358 0.812 14.445 1.088L16.876 10.691L19.134 1.088C19.207 0.798 19.293 0.609 19.409 0.522C19.525 0.435 19.728 0.377 19.988 0.377L21.146 0.377C21.421 0.377 21.609 0.421 21.725 0.522C21.841 0.609 21.942 0.812 22 1.088L24.287 10.807L26.791 1.088C26.878 0.798 26.979 0.609 27.08 0.522C27.196 0.435 27.384 0.377 27.645 0.377L28.991 0.377C29.222 0.377 29.353 0.493 29.353 0.74C29.353 0.812 29.338 0.885 29.324 0.972C29.309 1.059 29.28 1.175 29.222 1.335L25.734 12.547C25.647 12.837 25.546 13.026 25.43 13.113C25.314 13.2 25.126 13.258 24.88 13.258L23.636 13.258C23.361 13.258 23.172 13.215 23.057 13.113C22.941 13.011 22.839 12.823 22.782 12.533L20.538 3.177L18.309 12.518C18.237 12.808 18.15 12.997 18.034 13.098C17.918 13.2 17.716 13.244 17.455 13.244L16.211 13.244ZM34.809 13.635C34.057 13.635 33.304 13.548 32.58 13.374C31.857 13.2 31.292 13.011 30.916 12.794C30.684 12.663 30.525 12.518 30.467 12.388C30.409 12.257 30.38 12.112 30.38 11.982L30.38 11.242C30.38 10.937 30.496 10.792 30.713 10.792C30.8 10.792 30.887 10.807 30.974 10.836C31.061 10.865 31.191 10.923 31.336 10.981C31.828 11.198 32.363 11.372 32.928 11.488C33.507 11.604 34.071 11.662 34.65 11.662C35.562 11.662 36.271 11.503 36.763 11.184C37.255 10.865 37.516 10.4 37.516 9.806C37.516 9.4 37.386 9.066 37.125 8.79C36.864 8.515 36.372 8.268 35.663 8.036L33.564 7.383C32.508 7.05 31.726 6.556 31.249 5.904C30.771 5.265 30.525 4.555 30.525 3.8C30.525 3.191 30.655 2.655 30.916 2.19C31.176 1.726 31.524 1.32 31.958 1.001C32.392 0.667 32.884 0.421 33.463 0.247C34.042 0.073 34.65 0 35.287 0C35.605 0 35.938 0.015 36.257 0.058C36.589 0.102 36.893 0.16 37.197 0.218C37.487 0.29 37.762 0.363 38.022 0.45C38.283 0.537 38.486 0.624 38.63 0.711C38.833 0.827 38.978 0.943 39.064 1.073C39.151 1.189 39.195 1.349 39.195 1.552L39.195 2.234C39.195 2.538 39.079 2.698 38.862 2.698C38.746 2.698 38.558 2.64 38.312 2.524C37.487 2.147 36.561 1.958 35.533 1.958C34.708 1.958 34.057 2.089 33.608 2.364C33.159 2.64 32.928 3.061 32.928 3.655C32.928 4.062 33.072 4.41 33.362 4.685C33.651 4.961 34.187 5.236 34.954 5.483L37.009 6.136C38.051 6.469 38.804 6.934 39.253 7.528C39.701 8.123 39.918 8.805 39.918 9.559C39.918 10.183 39.788 10.749 39.542 11.242C39.282 11.735 38.934 12.17 38.486 12.518C38.037 12.881 37.501 13.142 36.879 13.331C36.228 13.534 35.547 13.635 34.809 13.635Z" fill="rgb(37,47,62)" fill-opacity="1.000" fill-rule="nonzero" transform="matrix(1 0 0 1 10.0408 17.1596)"/><path d="M39.344 3.562C34.582 7.087 27.664 8.958 21.715 8.958C13.378 8.958 5.866 5.868 0.193 0.734C-0.256 0.327 0.149 -0.224 0.685 0.095C6.822 3.664 14.391 5.825 22.222 5.825C27.505 5.825 33.309 4.723 38.649 2.46C39.445 2.097 40.126 2.982 39.344 3.562Z" fill="rgb(255,153,0)" fill-opacity="1.000" fill-rule="evenodd" transform="matrix(1 0 0 1 8.2414 34.2823)"/><path d="M5.965 2.162C5.357 1.379 1.941 1.785 0.393 1.974C-0.07 2.032 -0.143 1.626 0.277 1.321C2.998 -0.594 7.47 -0.042 7.991 0.596C8.512 1.249 7.847 5.731 5.299 7.878C4.909 8.211 4.532 8.037 4.706 7.602C5.285 6.166 6.573 2.931 5.965 2.162Z" fill="rgb(255,153,0)" fill-opacity="1.000" fill-rule="evenodd" transform="matrix(1 0 0 1 43.6033 33.4191)"/></svg>