<svg xmlns="http://www.w3.org/2000/svg" viewBox="0 0 130 60" width="130" height="60"><path d="M0 0L130 0L130 60L0 60L0 0Z" fill="rgb(255,255,255)" fill-opacity="1.000" fill-rule="nonzero" transform="matrix(1 0 0 1 0 0)"/><path d="M0.012 5.331L0.012 6.217C0.027 7.381 0.497 8.492 1.321 9.314C2.145 10.136 3.257 10.602 4.421 10.614L6.709 10.614C6.887 10.623 7.064 10.594 7.229 10.53C7.395 10.467 7.545 10.37 7.672 10.245C7.798 10.12 7.897 9.971 7.963 9.806C8.028 9.642 8.059 9.465 8.054 9.288L8.054 0.661C8.049 0.534 8.01 0.411 7.94 0.305C7.869 0.199 7.771 0.115 7.655 0.062C7.54 0.009 7.412 -0.01 7.285 0.005C7.159 0.021 7.04 0.072 6.941 0.151L0.481 4.311C0.312 4.416 0.176 4.569 0.093 4.75C0.009 4.932 -0.019 5.134 0.012 5.331Z" fill="rgb(37,180,189)" fill-opacity="1.000" fill-rule="nonzero" transform="matrix(1 0 0 1 99.3564 29.8132)"/><path d="M0.898 12.305L7.085 8.314C8.366 7.497 9.675 8.279 9.675 9.577L9.675 14.379C9.67 14.493 9.687 14.607 9.727 14.714C9.767 14.821 9.828 14.919 9.906 15.002C9.985 15.085 10.079 15.151 10.184 15.196C10.288 15.241 10.401 15.265 10.515 15.266L11.622 15.266C15.393 15.266 18.62 12.543 18.62 7.908C18.626 3.001 14.86 0 10.451 0L1.246 0C0.915 0.008 0.6 0.144 0.367 0.379C0.135 0.615 0.003 0.932 0 1.263L0 11.859C0.005 11.962 0.038 12.062 0.095 12.149C0.152 12.235 0.231 12.304 0.323 12.35C0.416 12.396 0.52 12.415 0.623 12.408C0.726 12.4 0.825 12.364 0.91 12.305" fill="rgb(39,157,46)" fill-opacity="1.000" fill-rule="nonzero" transform="matrix(1 0 0 1 99.3802 19.5711)"/><path d="M5.793 5.313C5.793 6.796 4.971 7.445 3.082 7.445L0 7.445L0 0L2.897 0C4.78 0 5.602 0.66 5.602 1.993C5.621 2.373 5.498 2.746 5.257 3.04C5.016 3.335 4.675 3.529 4.299 3.586C4.513 3.599 4.722 3.655 4.915 3.75C5.108 3.845 5.279 3.977 5.421 4.138C5.562 4.3 5.67 4.488 5.738 4.692C5.805 4.895 5.832 5.11 5.817 5.324M1.182 1.153L1.182 3.082L2.897 3.082C3.789 3.082 4.368 2.879 4.368 2.103C4.368 1.327 3.789 1.153 2.897 1.153L1.182 1.153ZM4.583 5.208C4.583 4.351 4.003 4.148 3.105 4.148L1.159 4.148L1.159 6.326L3.105 6.326C3.98 6.326 4.583 6.112 4.583 5.208Z" fill="rgb(60,60,59)" fill-opacity="1.000" fill-rule="nonzero" transform="matrix(1 0 0 1 11.9854 25.6947)"/><path d="M4.884 2.306L4.884 6.222L4.061 6.222L3.841 5.145C3.661 5.511 3.377 5.816 3.025 6.022C2.672 6.228 2.267 6.326 1.86 6.303C0.585 6.303 0 5.568 0 4.594C0 2.856 1.871 2.688 3.766 2.497L3.766 2.312C3.766 1.408 3.25 1.002 2.294 1.002C1.649 1.018 1.035 1.287 0.585 1.75L0.006 0.852C0.667 0.302 1.499 0.001 2.358 0C4.096 0 4.861 0.823 4.884 2.317M3.795 3.951L3.795 3.343C2.416 3.482 1.188 3.621 1.188 4.548C1.188 5.029 1.448 5.347 2.155 5.347C2.556 5.37 2.95 5.238 3.255 4.978C3.56 4.718 3.754 4.35 3.795 3.951Z" fill="rgb(60,60,59)" fill-opacity="1.000" fill-rule="nonzero" transform="matrix(1 0 0 1 18.6189 26.9173)"/><path d="M5.139 2.184L5.139 6.24L3.98 6.24L3.98 2.457C3.98 1.512 3.58 1.072 2.74 1.072C1.761 1.072 1.205 1.651 1.118 2.81L1.118 6.223L0 6.223L0 0.093L0.817 0.093L1.043 1.136C1.233 0.769 1.526 0.467 1.887 0.266C2.247 0.065 2.659 -0.025 3.071 0.006C4.334 0.006 5.139 0.719 5.139 2.184Z" fill="rgb(60,60,59)" fill-opacity="1.000" fill-rule="nonzero" transform="matrix(1 0 0 1 24.8586 26.9053)"/><path d="M0 3.147C0 1.27 0.973 0.001 2.862 0.001C3.258 -0.008 3.652 0.062 4.021 0.206C4.39 0.35 4.726 0.566 5.011 0.841L4.432 1.779C4.251 1.534 4.015 1.335 3.741 1.2C3.468 1.065 3.167 0.997 2.862 1.003C1.865 1.003 1.124 1.75 1.124 3.135C1.124 4.52 1.947 5.313 2.862 5.313C3.167 5.316 3.468 5.247 3.741 5.111C4.014 4.975 4.251 4.776 4.432 4.531L5.011 5.47C4.435 6.024 3.662 6.329 2.862 6.316C1.06 6.316 0 5.047 0 3.147Z" fill="rgb(60,60,59)" fill-opacity="1.000" fill-rule="nonzero" transform="matrix(1 0 0 1 31.1034 26.9107)"/><path d="M0 3.134C0 1.217 0.846 0 2.804 0C4.762 0 5.591 1.228 5.591 3.134C5.591 5.04 4.762 6.303 2.804 6.303C0.846 6.303 0 5.075 0 3.134ZM4.438 3.134C4.438 1.715 3.94 1.014 2.804 1.014C1.669 1.014 1.159 1.715 1.159 3.134C1.159 4.554 1.669 5.313 2.804 5.313C3.94 5.313 4.438 4.588 4.438 3.134Z" fill="rgb(60,60,59)" fill-opacity="1.000" fill-rule="nonzero" transform="matrix(1 0 0 1 36.5843 26.9114)"/><path d="M5.938 2.578C5.938 4.102 5.092 5.104 3.128 5.104L1.819 5.104L1.819 7.474L0 7.474L0 0L3.128 0C5.075 0 5.938 0.991 5.938 2.561M4.096 2.561C4.096 1.848 3.777 1.518 3.013 1.518L1.819 1.518L1.819 3.604L3.013 3.604C3.155 3.627 3.301 3.617 3.439 3.574C3.577 3.532 3.703 3.458 3.808 3.359C3.913 3.259 3.993 3.137 4.043 3.002C4.093 2.867 4.111 2.722 4.096 2.578" fill="rgb(60,60,59)" fill-opacity="1.000" fill-rule="nonzero" transform="matrix(1 0 0 1 45.6231 25.6833)"/><path d="M3.696 0.048L3.696 1.868C3.481 1.825 3.261 1.807 3.042 1.815C2.167 1.815 1.79 2.337 1.738 3.333L1.738 6.276L0 6.276L0 0.089L1.304 0.089L1.663 1.317C1.766 0.949 1.984 0.622 2.285 0.386C2.586 0.149 2.954 0.015 3.337 0.002C3.466 -0.006 3.596 0.01 3.719 0.048" fill="rgb(60,60,59)" fill-opacity="1.000" fill-rule="nonzero" transform="matrix(1 0 0 1 52.4704 26.8862)"/><path d="M0 3.157C0 1.188 0.979 0 3.013 0C5.046 0 6.014 1.188 6.014 3.157C6.014 5.127 5.023 6.361 3.013 6.361C1.002 6.361 0 5.162 0 3.157ZM4.189 3.157C4.189 1.999 3.835 1.419 3.03 1.419C2.225 1.419 1.831 1.999 1.831 3.157C1.831 4.316 2.196 4.948 3.03 4.948C3.864 4.948 4.189 4.368 4.189 3.157Z" fill="rgb(60,60,59)" fill-opacity="1.000" fill-rule="nonzero" transform="matrix(1 0 0 1 56.5951 26.8766)"/><path d="M5.979 0L3.98 6.164L1.999 6.164L0 0L1.738 0L2.804 3.725C2.862 3.997 2.92 4.305 2.96 4.554C3.001 4.287 3.042 3.974 3.105 3.725L4.183 0L5.979 0Z" fill="rgb(60,60,59)" fill-opacity="1.000" fill-rule="nonzero" transform="matrix(1 0 0 1 62.8586 26.9752)"/><path d="M0 0L1.738 0L1.738 1.159L0 1.159L0 0ZM0 1.663L1.738 1.663L1.738 7.827L0 7.827L0 1.663Z" fill="rgb(60,60,59)" fill-opacity="1.000" fill-rule="nonzero" transform="matrix(1 0 0 1 69.5617 25.3125)"/><path d="M5.556 2.157L5.556 6.241L3.818 6.241L3.818 2.615C3.818 1.838 3.534 1.485 2.897 1.485C2.259 1.485 1.79 1.902 1.738 2.829L1.738 6.241L0 6.241L0 0.077L1.292 0.077L1.611 1.166C1.765 0.794 2.035 0.481 2.38 0.273C2.725 0.065 3.127 -0.028 3.528 0.008C4.855 0.008 5.591 0.726 5.591 2.174" fill="rgb(60,60,59)" fill-opacity="1.000" fill-rule="nonzero" transform="matrix(1 0 0 1 72.6832 26.8981)"/><path d="M0 3.181C0 1.217 1.066 0.001 3.1 0.001C3.87 -0.015 4.624 0.225 5.243 0.684L4.664 2.144C4.482 1.939 4.258 1.774 4.007 1.662C3.756 1.55 3.484 1.494 3.21 1.495C2.422 1.495 1.79 2.017 1.79 3.17C1.79 4.323 2.497 4.861 3.233 4.861C3.507 4.86 3.778 4.802 4.028 4.691C4.279 4.579 4.503 4.416 4.687 4.213L5.266 5.673C4.644 6.126 3.892 6.366 3.123 6.356C1.141 6.356 0.023 5.14 0.023 3.176" fill="rgb(60,60,59)" fill-opacity="1.000" fill-rule="nonzero" transform="matrix(1 0 0 1 79.2421 26.8759)"/><path d="M0 0L1.738 0L1.738 1.159L0 1.159L0 0ZM0 1.663L1.738 1.663L1.738 7.827L0 7.827L0 1.663Z" fill="rgb(60,60,59)" fill-opacity="1.000" fill-rule="nonzero" transform="matrix(1 0 0 1 85.3884 25.3125)"/><path d="M5.428 2.405L5.428 6.246L4.137 6.246L3.818 5.087C3.671 5.475 3.401 5.805 3.05 6.027C2.699 6.248 2.285 6.35 1.871 6.315C0.556 6.315 0.041 5.556 0.041 4.577C0.041 2.839 1.744 2.665 3.702 2.474C3.702 1.709 3.186 1.408 2.387 1.408C1.748 1.421 1.14 1.686 0.695 2.144L0 0.835C0.746 0.283 1.651 -0.01 2.578 0C4.559 0 5.423 0.852 5.428 2.399M3.69 3.905L3.69 3.465C2.567 3.598 1.784 3.714 1.784 4.403C1.784 4.791 1.976 5.035 2.48 5.035C2.634 5.042 2.788 5.018 2.932 4.965C3.077 4.911 3.21 4.83 3.323 4.724C3.435 4.619 3.526 4.493 3.589 4.352C3.652 4.211 3.687 4.059 3.69 3.905Z" fill="rgb(60,60,59)" fill-opacity="1.000" fill-rule="nonzero" transform="matrix(1 0 0 1 88.1518 26.8937)"/></svg>