<svg xmlns="http://www.w3.org/2000/svg" viewBox="0 0 60 60" width="60" height="60"><path d="M0 60L60 60L60 0L0 0L0 60Z" fill="rgb(0,135,82)" fill-opacity="1.000" fill-rule="nonzero" transform="matrix(1 0 0 1 0 0)"/><path d="M14.052 17.158C11.263 17.157 8.519 17.85 6.065 19.175C3.612 20.501 1.527 22.416 0 24.749L0 48L23.278 48C26.291 46.01 28.584 43.102 29.816 39.708C31.049 36.314 31.155 32.613 30.12 29.153C29.085 25.693 26.964 22.658 24.07 20.498C21.176 18.338 17.663 17.167 14.052 17.158ZM0 0L0 19.409L19.208 0.205L47.813 28.809L28.602 48L48 48L48 0L0 0Z" fill="rgb(255,255,255)" fill-opacity="1.000" fill-rule="nonzero" transform="matrix(1 0 0 1 6 6)"/></svg>