<svg xmlns="http://www.w3.org/2000/svg" viewBox="0 0 60 60" width="60" height="60"><defs><linearGradient id="g9" gradientUnits="userSpaceOnUse" x1="21.48" y1="56.36" x2="51.26" y2="3.64"><stop offset="0.0%" stop-color="rgb(0,255,95)" stop-opacity="1.000"/><stop offset="30.4%" stop-color="rgb(0,255,95)" stop-opacity="1.000"/><stop offset="81.9%" stop-color="rgb(30,60,60)" stop-opacity="1.000"/><stop offset="100.0%" stop-color="rgb(30,60,60)" stop-opacity="1.000"/></linearGradient><linearGradient id="g10" gradientUnits="userSpaceOnUse" x1="-29.31" y1="2.54" x2="52.51" y2="57.46"><stop offset="0.0%" stop-color="rgb(0,255,95)" stop-opacity="1.000"/><stop offset="30.4%" stop-color="rgb(0,255,95)" stop-opacity="1.000"/><stop offset="81.9%" stop-color="rgb(30,60,60)" stop-opacity="1.000"/><stop offset="100.0%" stop-color="rgb(30,60,60)" stop-opacity="1.000"/></linearGradient></defs><path d="M0 0L60 0L60 60L0 60L0 0Z" fill="rgb(255,255,255)" fill-opacity="1.000" fill-rule="nonzero" transform="matrix(1 0 0 1 0 0)"/><path d="M16.063 5.511C16.071 5.546 16.049 5.582 16.014 5.589C15.605 5.695 15.28 5.751 14.963 5.751C13.912 5.751 13.425 5.179 13.425 4.063L13.425 0.255C13.425 0.22 13.446 0.192 13.481 0.185L14.469 0.001C14.511 -0.006 14.547 0.022 14.547 0.072L14.547 1.061C14.547 1.096 14.575 1.131 14.617 1.131L15.866 1.131C15.901 1.131 15.936 1.16 15.936 1.202L15.936 1.944C15.936 1.979 15.908 2.014 15.866 2.014L14.617 2.014C14.582 2.014 14.547 2.043 14.547 2.085L14.547 4.148C14.547 4.557 14.695 4.847 15.16 4.847C15.358 4.847 15.598 4.798 15.859 4.734C15.901 4.727 15.936 4.748 15.944 4.791L16.063 5.511ZM11.732 5.666L10.871 4.275C10.843 4.232 10.78 4.232 10.758 4.275L9.891 5.666C9.877 5.688 9.855 5.702 9.834 5.702L8.677 5.702C8.621 5.702 8.593 5.638 8.621 5.596L10.053 3.448C10.067 3.427 10.067 3.399 10.053 3.371L8.649 1.237C8.621 1.195 8.649 1.131 8.705 1.131L9.869 1.131C9.891 1.131 9.912 1.145 9.926 1.167L10.758 2.495C10.787 2.537 10.85 2.537 10.878 2.495L11.668 1.167C11.683 1.145 11.704 1.131 11.725 1.131L12.882 1.131C12.938 1.131 12.966 1.195 12.938 1.237L11.584 3.328C11.57 3.349 11.57 3.378 11.584 3.406L13.016 5.603C13.044 5.645 13.016 5.709 12.959 5.709L11.781 5.709C11.767 5.702 11.739 5.688 11.732 5.666ZM6.617 1.901C6.039 1.901 5.679 2.297 5.616 2.933C5.608 2.975 5.644 3.01 5.686 3.01L7.556 3.01C7.598 3.01 7.626 2.975 7.626 2.94C7.598 2.36 7.295 1.901 6.617 1.901ZM7.746 5.674C7.732 5.695 7.711 5.702 7.69 5.702L6.78 5.702C5.418 5.702 4.494 4.974 4.494 3.427C4.494 1.795 5.489 1.068 6.645 1.068C7.908 1.068 8.734 1.781 8.734 3.307C8.734 3.632 8.586 3.787 8.254 3.787L5.693 3.787C5.651 3.787 5.623 3.823 5.623 3.865C5.707 4.515 6.201 4.769 6.864 4.769L8.219 4.769C8.275 4.769 8.303 4.833 8.275 4.875L7.746 5.674ZM1.086 5.702L0.071 5.702C0.035 5.702 0 5.674 0 5.631L0 2.021C0 1.619 0.198 1.414 0.586 1.308C1.22 1.131 1.665 1.089 2.067 1.089C3.4 1.089 3.922 1.774 3.922 2.728L3.922 5.631C3.922 5.666 3.894 5.702 3.852 5.702L2.85 5.702C2.815 5.702 2.78 5.674 2.78 5.631L2.78 2.827C2.78 2.403 2.596 2.071 2.004 2.071C1.813 2.071 1.616 2.085 1.206 2.191C1.178 2.198 1.157 2.226 1.157 2.255L1.157 5.631C1.157 5.674 1.129 5.702 1.086 5.702Z" fill="rgb(0,0,0)" fill-opacity="1.000" fill-rule="nonzero" transform="matrix(1 0 0 1 34.9143 38.2488)"/><path d="M1.5 16.097C1.282 16.097 1.056 16.047 0.851 15.948C0.103 15.588 -0.214 14.684 0.153 13.935L6.453 0.852C6.812 0.104 7.715 -0.214 8.463 0.153C9.211 0.513 9.528 1.417 9.162 2.166L2.862 15.249C2.594 15.786 2.058 16.097 1.5 16.097Z" fill="rgb(30,60,60)" fill-opacity="1.000" fill-rule="nonzero" transform="matrix(1 0 0 1 41.2871 20.7616)"/><path d="M22.529 20.857C22.183 20.857 21.838 20.736 21.555 20.496L0.532 2.652C-0.102 2.116 -0.18 1.162 0.356 0.533C0.892 -0.103 1.845 -0.18 2.473 0.357L23.495 18.2C24.13 18.737 24.208 19.691 23.672 20.32C23.376 20.68 22.952 20.857 22.529 20.857Z" fill="url(#g9)" fill-rule="nonzero" transform="matrix(1 0 0 1 20.2584 16.0017)"/><path d="M1.505 20.708C0.934 20.708 0.391 20.383 0.137 19.832C-0.209 19.076 0.123 18.179 0.878 17.833L39.438 0.137C40.193 -0.209 41.089 0.123 41.435 0.879C41.781 1.635 41.449 2.532 40.694 2.878L2.133 20.566C1.929 20.665 1.717 20.708 1.505 20.708Z" fill="url(#g10)" fill-rule="nonzero" transform="matrix(1 0 0 1 9.0208 20.7634)"/><path d="M1.501 25.471C1.275 25.471 1.042 25.422 0.83 25.309C0.09 24.934 -0.214 24.03 0.16 23.288L11.398 0.832C11.772 0.09 12.675 -0.214 13.416 0.16C14.157 0.535 14.46 1.439 14.086 2.181L2.848 24.637C2.58 25.167 2.051 25.471 1.501 25.471Z" fill="rgb(0,255,95)" fill-opacity="1.000" fill-rule="nonzero" transform="matrix(1 0 0 1 9.0257 16)"/></svg>