<svg xmlns="http://www.w3.org/2000/svg" viewBox="0 0 60 60" width="60" height="60"><path d="M0 0L60 0L60 60L0 60L0 0Z" fill="rgb(24,59,104)" fill-opacity="1.000" fill-rule="nonzero" transform="matrix(1 0 0 1 0 0)"/><path d="M4.269 37.207L21.028 37.207L21.028 0C16.099 2.154 12.813 3.943 9.709 6.645C2.991 12.816 -0.551 18.183 0.07 29.064C0.325 33.117 1.384 36.951 4.269 37.207Z" fill="rgb(255,255,255)" fill-opacity="1.000" fill-rule="nonzero" transform="matrix(1 0 0 1 29.9718 13.7375)"/><path d="M18.731 21.141C18.987 7.741 9.858 2.264 0 0L0 29.283L14.532 29.283C16.905 28.772 18.476 25.815 18.731 21.141Z" fill="rgb(255,255,255)" fill-opacity="1.000" fill-rule="nonzero" transform="matrix(1 0 0 1 9.4487 21.5878)"/><path d="M0.037 8.8C0.037 8.8 6.098 10.516 11.794 15.08C17.526 19.644 18.841 22.748 19.279 25.194C19.279 25.194 20.082 18.074 25.34 12.232C31.766 4.893 37.681 1.899 41.479 0.073L41.515 0L0 0L0.037 8.8Z" fill="rgb(255,255,255)" fill-opacity="1.000" fill-rule="nonzero" transform="matrix(1 0 0 1 9.4487 9.4653)"/></svg>