<svg xmlns="http://www.w3.org/2000/svg" viewBox="0 0 130 60" width="130" height="60"><path d="M0 0L130 0L130 60L0 60L0 0Z" fill="rgb(255,255,255)" fill-opacity="1.000" fill-rule="nonzero" transform="matrix(1 0 0 1 0 0)"/><path d="M12.844 10.989C12.844 11.678 12.711 12.289 12.445 12.805C12.179 13.322 11.796 13.752 11.302 14.105C10.802 14.449 10.207 14.707 9.51 14.88C8.813 15.052 8.039 15.138 7.185 15.138L0 15.138L0 0L7.013 0C8.571 0 9.784 0.352 10.668 1.057C11.553 1.761 11.991 2.716 11.991 3.914L11.991 3.953C11.991 4.806 11.803 5.487 11.412 5.996C11.029 6.504 10.559 6.919 10.019 7.217C10.449 7.389 10.841 7.585 11.193 7.804C11.545 8.023 11.843 8.273 12.085 8.571C12.328 8.868 12.516 9.205 12.641 9.596C12.774 9.988 12.837 10.434 12.837 10.935L12.837 10.989L12.844 10.989ZM8.712 4.477C8.712 3.976 8.524 3.585 8.148 3.319C7.772 3.053 7.232 2.92 6.528 2.92L3.24 2.92L3.24 6.121L6.309 6.121C7.044 6.121 7.632 5.996 8.062 5.745C8.493 5.495 8.712 5.088 8.712 4.524L8.712 4.477ZM9.557 10.535C9.557 10.034 9.361 9.627 8.97 9.338C8.579 9.04 7.952 8.892 7.091 8.892L3.24 8.892L3.24 12.218L7.193 12.218C7.929 12.218 8.508 12.085 8.923 11.819C9.338 11.553 9.549 11.138 9.549 10.575L9.549 10.535L9.557 10.535Z" fill="rgb(85,88,96)" fill-opacity="1.000" fill-rule="nonzero" transform="matrix(1 0 0 1 41.6469 24.8599)"/><path d="M13.948 7.569C13.948 8.633 13.752 9.627 13.361 10.551C12.97 11.475 12.422 12.273 11.709 12.954C10.997 13.635 10.152 14.167 9.166 14.551C8.187 14.942 7.099 15.138 5.902 15.138L0 15.138L0 0L5.902 0C7.099 0 8.187 0.196 9.166 0.571C10.144 0.955 10.989 1.487 11.709 2.16C12.422 2.841 12.977 3.632 13.361 4.548C13.752 5.463 13.948 6.457 13.948 7.522L13.948 7.569ZM10.465 7.569C10.465 6.888 10.355 6.277 10.144 5.722C9.925 5.166 9.62 4.688 9.213 4.281C8.813 3.882 8.328 3.569 7.765 3.342C7.201 3.115 6.583 3.006 5.902 3.006L3.327 3.006L3.327 12.132L5.902 12.132C6.575 12.132 7.201 12.023 7.765 11.811C8.328 11.592 8.813 11.287 9.213 10.88C9.62 10.473 9.925 9.995 10.144 9.44C10.363 8.884 10.465 8.273 10.465 7.616L10.465 7.569Z" fill="rgb(85,88,96)" fill-opacity="1.000" fill-rule="nonzero" transform="matrix(1 0 0 1 58.225 24.8599)"/><path d="M11.85 15.138L11.85 5.252L7.569 11.717L7.483 11.717L3.287 5.315L3.287 15.13L0 15.13L0 0L3.593 0L7.569 6.403L11.545 0L15.13 0L15.13 15.138L11.85 15.138Z" fill="rgb(85,88,96)" fill-opacity="1.000" fill-rule="nonzero" transform="matrix(1 0 0 1 75.8284 24.8599)"/><path d="M14.426 13.251C13.651 13.917 12.719 14.48 11.647 14.95C10.575 15.42 9.346 15.654 7.96 15.654C6.778 15.654 5.698 15.459 4.728 15.067C3.757 14.676 2.92 14.136 2.215 13.447C1.518 12.758 0.971 11.936 0.579 10.982C0.188 10.027 0 8.993 0 7.866L0 7.827C0 6.747 0.196 5.73 0.595 4.79C0.994 3.843 1.542 3.013 2.246 2.301C2.951 1.589 3.796 1.025 4.767 0.618C5.737 0.204 6.794 0 7.937 0C8.618 0 9.228 0.047 9.784 0.141C10.34 0.235 10.856 0.368 11.334 0.54C11.811 0.712 12.257 0.931 12.672 1.19C13.095 1.448 13.494 1.745 13.885 2.074L11.788 4.602C11.498 4.36 11.209 4.141 10.927 3.953C10.637 3.765 10.34 3.608 10.027 3.475C9.714 3.35 9.377 3.248 9.025 3.17C8.665 3.1 8.266 3.06 7.835 3.06C7.225 3.06 6.661 3.186 6.137 3.444C5.612 3.694 5.15 4.039 4.751 4.462C4.352 4.892 4.047 5.385 3.82 5.956C3.593 6.528 3.483 7.138 3.483 7.788L3.483 7.835C3.483 8.532 3.601 9.166 3.82 9.753C4.047 10.34 4.36 10.848 4.775 11.279C5.182 11.709 5.667 12.046 6.23 12.289C6.794 12.524 7.405 12.649 8.07 12.649C8.68 12.649 9.244 12.57 9.776 12.422C10.308 12.273 10.786 12.038 11.201 11.741L11.201 9.565L7.851 9.565L7.851 6.684L14.426 6.684L14.426 13.251Z" fill="rgb(85,88,96)" fill-opacity="1.000" fill-rule="nonzero" transform="matrix(1 0 0 1 94.5745 24.6017)"/><path d="M9.698 4.563L9.776 4.516L13.291 2.497C13.322 2.473 13.345 2.458 13.377 2.442C13.666 2.286 13.901 2.051 14.058 1.761C14.073 1.73 14.089 1.706 14.097 1.675C14.112 1.636 14.128 1.605 14.144 1.565C14.206 1.393 14.238 1.205 14.238 1.002C14.238 0.611 14.112 0.29 13.893 0.016C13.893 0.008 13.885 0 13.885 0C13.925 0.039 14.543 0.65 14.543 1.628C14.543 2.325 14.543 7.162 14.543 7.162L14.543 7.256C14.543 7.765 14.457 8.821 13.22 9.526L6.794 13.259C6.027 13.698 5.283 13.228 5.283 13.228L0 10.199L9.698 4.563Z" fill="rgb(85,88,96)" fill-opacity="1.000" fill-rule="nonzero" transform="matrix(1 0 0 1 22.1415 24.6956)"/><path d="M15.13 11.749C15.161 11.725 15.185 11.709 15.216 11.694C15.506 11.537 15.74 11.302 15.897 11.013C15.913 10.982 15.928 10.958 15.936 10.927C15.952 10.888 15.967 10.856 15.983 10.817C16.046 10.645 16.077 10.457 16.077 10.254C16.077 9.862 15.952 9.541 15.733 9.267C15.592 9.095 15.412 8.939 15.193 8.798C15.106 8.743 15.067 8.727 14.973 8.665L0 0L0 7.138L11.514 13.807L11.529 13.815L15.13 11.749Z" fill="rgb(210,40,40)" fill-opacity="1.000" fill-rule="nonzero" transform="matrix(1 0 0 1 20.31 15.4439)"/></svg>