<svg xmlns="http://www.w3.org/2000/svg" viewBox="0 0 60 60" width="60" height="60"><path d="M0 60L60 60L60 0L0 0L0 60Z" fill="rgb(253,225,0)" fill-opacity="1.000" fill-rule="nonzero" transform="matrix(1 0 0 1 0 0)"/><path d="M0 16L9.991 22.667L21.991 14.667L16.995 11.324L23.493 7.005L37.484 16.338L14.498 31.662L19.493 35.005L48 16L24 0L0 16ZM48 32L37.991 25.333L25.991 33.333L30.986 36.657L24.488 40.995L10.498 31.662L33.484 16.338L28.488 12.995L0 32L24 48L48 32ZM48 6.667L42.986 10.009L37.991 6.667L48 0L48 6.667ZM0 41.333L4.995 37.991L9.991 41.333L0 48L0 41.333Z" fill="rgb(0,56,130)" fill-opacity="1.000" fill-rule="evenodd" transform="matrix(1 0 0 1 6 6)"/></svg>