<svg xmlns="http://www.w3.org/2000/svg" viewBox="0 0 60 60" width="60" height="60"><path d="M0 0L60 0L60 60L0 60L0 0Z" fill="rgb(255,255,255)" fill-opacity="1.000" fill-rule="nonzero" transform="matrix(1 0 0 1 0 0)"/><path d="M27.872 1.776C25.381 0.639 22.616 0 19.7 0C8.819 0 0 8.829 0 19.719C0 25.939 2.879 31.483 7.373 35.098C9.498 31.3 20.938 10.848 22.959 7.129C24.444 4.4 26.152 2.756 27.869 1.779L27.872 1.776Z" fill="rgb(20,98,93)" fill-opacity="1.000" fill-rule="nonzero" transform="matrix(1 0 0 1 9.8794 9.9324)"/><path d="M21.612 0.054C22.221 -1.034 13.39 14.778 12.009 17.321C8.29 24.166 3.151 24.175 0 24.026C3.229 26.34 7.181 27.707 11.456 27.707C17.002 27.707 22.008 25.411 25.589 21.718C25.422 20.81 23.302 9.199 21.614 0.054L21.612 0.054Z" fill="rgb(20,98,93)" fill-opacity="1.000" fill-rule="nonzero" transform="matrix(1 0 0 1 18.1261 21.6636)"/><path d="M9.932 19.47C9.798 18.781 9.569 17.574 9.278 16.02C9.226 15.741 9.171 15.45 9.116 15.15C8.368 11.135 7.293 5.297 6.321 0C6.317 0.007 4.338 3.544 1.766 8.15C1.201 9.161 0.608 10.221 0 11.309C1.688 20.454 3.81 32.065 3.975 32.974C3.982 33.01 3.986 33.033 3.986 33.033C6.246 31.25 11.641 28.203 9.932 19.472L9.932 19.47Z" fill="rgb(187,189,191)" fill-opacity="1.000" fill-rule="nonzero" transform="matrix(1 0 0 1 39.7387 10.4106)"/><path d="M20.835 1.39C19.117 2.37 17.406 4.011 15.924 6.74C13.903 10.46 2.463 30.914 0.338 34.71C0.119 35.101 0 35.316 0 35.316C0.357 35.325 0.764 35.348 1.212 35.371C4.364 35.52 9.502 35.511 13.221 28.666C14.808 25.747 22.195 12.523 26.328 5.131C28.004 2.13 29.148 0.09 29.148 0.09C27.275 0.044 24.041 -0.434 20.837 1.39L20.835 1.39Z" fill="rgb(255,255,255)" fill-opacity="1.000" fill-rule="nonzero" transform="matrix(1 0 0 1 16.9165 10.3181)"/></svg>