<svg xmlns="http://www.w3.org/2000/svg" viewBox="0 0 60 60" width="60" height="60"><path d="M0 0L60 0L60 60L0 60L0 0Z" fill="rgb(85,88,96)" fill-opacity="1.000" fill-rule="nonzero" transform="matrix(1 0 0 1 0 0)"/><path d="M15.177 7.141L15.299 7.068L20.799 3.908C20.848 3.871 20.885 3.846 20.934 3.822C21.387 3.577 21.755 3.209 22 2.756C22.024 2.707 22.049 2.67 22.061 2.621C22.085 2.56 22.11 2.511 22.134 2.45C22.232 2.18 22.281 1.886 22.281 1.568C22.281 0.955 22.085 0.453 21.742 0.024C21.742 0.012 21.73 0 21.73 0C21.791 0.061 22.759 1.017 22.759 2.548C22.759 3.638 22.759 11.208 22.759 11.208L22.759 11.355C22.759 12.151 22.624 13.805 20.689 14.907L10.632 20.75C9.432 21.436 8.268 20.701 8.268 20.701L0 15.961L15.177 7.141Z" fill="rgb(255,255,255)" fill-opacity="1.000" fill-rule="nonzero" transform="matrix(1 0 0 1 20.2408 27.0668)"/><path d="M23.678 18.386C23.727 18.349 23.764 18.325 23.813 18.3C24.266 18.055 24.633 17.688 24.878 17.235C24.903 17.186 24.927 17.149 24.94 17.1C24.964 17.039 24.989 16.99 25.013 16.929C25.111 16.659 25.16 16.365 25.16 16.047C25.16 15.434 24.964 14.932 24.621 14.503C24.401 14.234 24.119 13.989 23.776 13.768C23.641 13.682 23.58 13.658 23.433 13.56L0 0L0 11.171L18.019 21.608L18.043 21.62L23.678 18.386Z" fill="rgb(210,40,40)" fill-opacity="1.000" fill-rule="nonzero" transform="matrix(1 0 0 1 17.3745 12.5883)"/></svg>