<svg xmlns="http://www.w3.org/2000/svg" viewBox="0 0 60 60" width="60" height="60"><path d="M0 0L60 0L60 60L0 60L0 0Z" fill="rgb(39,157,46)" fill-opacity="1.000" fill-rule="nonzero" transform="matrix(1 0 0 1 0 0)"/><path d="M0.021 9.201L0.021 10.731C0.047 12.74 0.858 14.658 2.28 16.077C3.702 17.495 5.623 18.301 7.631 18.321L11.581 18.321C11.887 18.335 12.192 18.286 12.478 18.176C12.764 18.066 13.024 17.899 13.242 17.684C13.46 17.469 13.631 17.211 13.744 16.926C13.858 16.642 13.911 16.337 13.901 16.031L13.901 1.141C13.894 0.922 13.826 0.709 13.704 0.527C13.583 0.344 13.413 0.199 13.213 0.107C13.014 0.016 12.793 -0.018 12.575 0.009C12.358 0.036 12.152 0.124 11.981 0.261L0.831 7.441C0.538 7.622 0.304 7.886 0.16 8.199C0.016 8.512 -0.032 8.861 0.021 9.201Z" fill="rgb(255,255,255)" fill-opacity="1.000" fill-rule="nonzero" transform="matrix(1 0 0 1 14 29.6786)"/><path d="M1.55 21.24L12.23 14.35C14.44 12.94 16.7 14.29 16.7 16.53L16.7 24.82C16.691 25.017 16.721 25.213 16.789 25.398C16.858 25.583 16.963 25.751 17.099 25.894C17.234 26.037 17.397 26.151 17.578 26.23C17.758 26.308 17.953 26.349 18.15 26.35L20.06 26.35C26.57 26.35 32.14 21.65 32.14 13.65C32.15 5.18 25.65 0 18.04 0L2.15 0C1.579 0.013 1.035 0.248 0.634 0.655C0.232 1.061 0.005 1.609 0 2.18L0 20.47C0.009 20.648 0.066 20.821 0.164 20.97C0.262 21.119 0.398 21.239 0.558 21.317C0.719 21.396 0.897 21.43 1.075 21.416C1.253 21.403 1.424 21.342 1.57 21.24" fill="rgb(255,255,255)" fill-opacity="1.000" fill-rule="nonzero" transform="matrix(1 0 0 1 14.041 12)"/></svg>