<svg xmlns="http://www.w3.org/2000/svg" viewBox="0 0 60 60" width="60" height="60"><path d="M0 0L60 0L60 60L0 60L0 0Z" fill="rgb(0,108,79)" fill-opacity="1.000" fill-rule="nonzero" transform="matrix(1 0 0 1 0 0)"/><path d="M4.115 16.434L0 12.319L12.321 0L22.937 10.616L28.597 10.614L28.597 16.276L24.64 12.319L20.527 16.434L4.115 16.434Z" fill="rgb(255,255,255)" fill-opacity="1.000" fill-rule="nonzero" transform="matrix(1 0 0 1 20.2039 8.0001)"/><path d="M8.204 28.398L8.204 20.525L0 12.321L12.319 0L24.64 12.321L8.561 28.4L8.204 28.398Z" fill="rgb(255,255,255)" fill-opacity="1.000" fill-rule="nonzero" transform="matrix(1 0 0 1 12 24.4338)"/><path d="M12.321 16.436L0 4.115L16.412 4.115L20.525 0L24.482 3.957L24.482 4.275L12.321 16.436Z" fill="rgb(255,255,255)" fill-opacity="1.000" fill-rule="nonzero" transform="matrix(1 0 0 1 24.3188 20.3189)"/></svg>