<svg xmlns="http://www.w3.org/2000/svg" viewBox="0 0 60 60" width="60" height="60"><defs><linearGradient id="g24" gradientUnits="userSpaceOnUse" x1="-14.52" y1="-24.25" x2="73.18" y2="127.43"><stop offset="0.0%" stop-color="rgb(255,255,255)" stop-opacity="1.000"/><stop offset="100.0%" stop-color="rgb(215,215,215)" stop-opacity="1.000"/></linearGradient></defs><path d="M0 0L60 0L60 60L0 60L0 0Z" fill="rgb(34,58,210)" fill-opacity="1.000" fill-rule="nonzero" transform="matrix(1 0 0 1 0 0)"/><path d="M15.28 0.004C15.28 0.004 12.743 -0.005 10.063 0.004C7.382 0.013 6.703 2.072 6.703 2.072L0 19.467L2.61 26.235C5.287 26.225 5.966 24.168 5.966 24.168L15.28 0.004Z" fill="rgb(49,199,237)" fill-opacity="1.000" fill-rule="evenodd" transform="matrix(1 0 0 1 39.3729 20.7348)"/><path d="M28.889 15.569L28.883 15.553C28.882 15.551 28.882 15.549 28.883 15.547L28.878 15.536C28.292 14.056 27.074 12.836 25.672 11.89C27.078 10.653 27.953 8.809 27.953 6.751C27.953 3.781 25.409 0 18.105 0L5.29 0L5.29 9.919L0 9.919L0 15.623L5.289 15.623L5.289 25.872L18.758 25.872C19.918 25.88 21.076 25.747 22.205 25.477L22.22 25.473C23.041 25.275 23.834 24.976 24.583 24.583L27.405 31.905C27.405 31.905 28.085 33.963 30.764 33.972C33.444 33.982 35.981 33.972 35.981 33.972L28.889 15.569ZM12.892 5.704L17.627 5.704C19.713 5.704 20.365 6.795 20.365 7.812C20.365 8.829 19.716 9.913 17.644 9.919L12.892 9.919L12.892 5.704ZM12.892 15.622L17.913 15.622C20.123 15.622 20.814 16.778 20.814 17.856C20.814 18.935 20.127 20.083 17.931 20.09L12.892 20.09L12.892 15.622Z" fill="rgb(255,255,255)" fill-opacity="1.000" fill-rule="evenodd" transform="matrix(1 0 0 1 6 13)"/><path d="M16.557 1.867C16.557 1.867 15.992 0 12.923 0L12.705 0L12.705 0.009C14.85 0.038 15.524 1.178 15.524 2.243C15.524 3.319 14.836 4.47 12.64 4.476L7.602 4.476L7.602 0.003L0 0.009L0 10.259L13.467 10.259C14.628 10.266 15.786 10.134 16.915 9.863L16.929 9.86C17.75 9.661 18.544 9.362 19.293 8.969L16.557 1.867Z" fill="url(#g24)" fill-rule="nonzero" transform="matrix(1 0 0 1 11.2901 28.6136)" opacity="0.800000011920929"/><path d="M5.289 0L0 0L5.289 2.447L5.289 0Z" fill="rgb(49,199,237)" fill-opacity="1.000" fill-rule="nonzero" transform="matrix(1 0 0 1 6 28.6228)"/></svg>