<svg xmlns="http://www.w3.org/2000/svg" viewBox="0 0 130 60" width="130" height="60"><path d="M0 0L130 0L130 60L0 60L0 0Z" fill="rgb(255,255,255)" fill-opacity="1.000" fill-rule="nonzero" transform="matrix(1 0 0 1 0 0)"/><path d="M0 0L1.594 0L1.539 4.447L1.558 4.447L3.831 0L5.986 0L5.986 6.507L4.4 6.507L4.428 2.088L4.409 2.088L2.209 6.507L0 6.507L0 0Z" fill="rgb(19,122,151)" fill-opacity="1.000" fill-rule="evenodd" transform="matrix(1 0 0 -1 73.7674 42.4821)"/><path d="M1.605 0L3.337 0L3.337 5.22L4.942 5.22L4.942 6.507L0 6.507L0 5.22L1.605 5.22L1.605 0Z" fill="rgb(19,122,151)" fill-opacity="1.000" fill-rule="evenodd" transform="matrix(1 0 0 -1 80.5276 42.4821)"/><path d="M0 0L1.734 0L1.734 2.573L2.097 2.573C2.74 2.573 2.965 2.293 3.318 1.175L3.691 0L5.5 0L4.866 1.772C4.54 2.564 4.502 3.058 3.943 3.206L3.943 3.225C4.782 3.422 5.192 4 5.192 4.866C5.192 5.985 4.252 6.507 3.094 6.507L0 6.507L0 0ZM1.734 5.277L2.19 5.277C2.852 5.277 3.458 5.165 3.458 4.559C3.458 3.822 2.751 3.803 2.19 3.803L1.734 3.803L1.734 5.277Z" fill="rgb(19,122,151)" fill-opacity="1.000" fill-rule="evenodd" transform="matrix(1 0 0 -1 86.2403 42.4821)"/><path d="M0 0L1.76 0L2.274 1.389L4.718 1.389L5.201 0L7.103 0L4.595 6.507L2.47 6.507L0 0ZM4.307 2.62L2.675 2.62L3.514 5.165L3.532 5.165L4.307 2.62Z" fill="rgb(19,122,151)" fill-opacity="1.000" fill-rule="evenodd" transform="matrix(1 0 0 -1 32.3776 42.4821)"/><path d="M0 0L2.74 0C3.905 0 5.277 0.326 5.277 1.883C5.277 2.675 4.828 3.142 3.962 3.318L3.962 3.337C4.689 3.581 5.108 4.036 5.108 4.858C5.108 5.976 4.205 6.507 2.994 6.507L0 6.507L0 0ZM1.734 2.759L2.266 2.759C2.863 2.759 3.543 2.694 3.543 1.986C3.543 1.324 2.88 1.23 2.247 1.23L1.734 1.23L1.734 2.759ZM1.734 5.277L2.238 5.277C2.816 5.277 3.375 5.22 3.375 4.625C3.375 4.074 2.787 3.934 2.219 3.934L1.734 3.934L1.734 5.277Z" fill="rgb(19,122,151)" fill-opacity="1.000" fill-rule="evenodd" transform="matrix(1 0 0 -1 26.9151 42.4821)"/><path d="M0 0L1.594 0L1.538 4.447L1.557 4.447L3.831 0L5.985 0L5.985 6.507L4.4 6.507L4.428 2.088L4.409 2.088L2.209 6.507L0 6.507L0 0Z" fill="rgb(19,122,151)" fill-opacity="1.000" fill-rule="evenodd" transform="matrix(1 0 0 -1 39.8757 42.4821)"/><path d="M5.586 1.622C5.109 1.436 4.531 1.287 3.963 1.287C2.695 1.287 1.791 2.06 1.791 3.337C1.791 4.55 2.592 5.444 3.824 5.444C4.419 5.444 4.961 5.296 5.52 4.989L5.66 6.395C5.035 6.582 4.392 6.732 3.73 6.732C1.584 6.732 0 5.603 0 3.337C0 0.877 2.005 0 3.739 0C4.625 0 5.175 0.14 5.669 0.262L5.586 1.622Z" fill="rgb(19,122,151)" fill-opacity="1.000" fill-rule="evenodd" transform="matrix(1 0 0 -1 46.6465 42.5942)"/><path d="M0 3.365C0 1.296 1.137 0 3.263 0C5.389 0 6.526 1.296 6.526 3.365C6.526 5.455 5.408 6.732 3.263 6.732C1.12 6.732 0 5.455 0 3.365ZM1.791 3.365C1.791 4.493 2.21 5.444 3.263 5.444C4.317 5.444 4.737 4.493 4.737 3.365C4.737 2.293 4.317 1.287 3.263 1.287C2.21 1.287 1.791 2.293 1.791 3.365Z" fill="rgb(19,122,151)" fill-opacity="1.000" fill-rule="evenodd" transform="matrix(1 0 0 -1 52.4862 42.5942)"/><path d="M5.584 1.622C5.109 1.436 4.531 1.287 3.962 1.287C2.695 1.287 1.79 2.06 1.79 3.337C1.79 4.55 2.592 5.444 3.822 5.444C4.419 5.444 4.961 5.296 5.519 4.989L5.66 6.395C5.035 6.582 4.392 6.732 3.729 6.732C1.586 6.732 0 5.603 0 3.337C0 0.877 2.004 0 3.739 0C4.625 0 5.173 0.14 5.669 0.262L5.584 1.622Z" fill="rgb(19,122,151)" fill-opacity="1.000" fill-rule="evenodd" transform="matrix(1 0 0 -1 61.7167 42.5942)"/><path d="M0 0L4.689 0L4.689 1.23L1.734 1.23L1.734 2.704L4.428 2.704L4.428 3.934L1.734 3.934L1.734 5.277L4.587 5.277L4.587 6.507L0 6.507L0 0Z" fill="rgb(19,122,151)" fill-opacity="1.000" fill-rule="evenodd" transform="matrix(1 0 0 -1 68.1712 42.4821)"/><path d="M0 0L1.76 0L2.274 1.389L4.718 1.389L5.201 0L7.103 0L4.595 6.507L2.47 6.507L0 0ZM4.307 2.62L2.675 2.62L3.514 5.165L3.534 5.165L4.307 2.62Z" fill="rgb(19,122,151)" fill-opacity="1.000" fill-rule="evenodd" transform="matrix(1 0 0 -1 91.9279 42.4821)"/><path d="M0 0L4.419 0L4.419 1.287L1.734 1.287L1.734 6.507L0 6.507L0 0Z" fill="rgb(19,122,151)" fill-opacity="1.000" fill-rule="evenodd" transform="matrix(1 0 0 -1 99.4471 42.4821)"/><path d="M0 0L2.368 0C4.587 0 6.219 0.849 6.219 3.282C6.219 5.798 4.633 6.507 2.368 6.507L0 6.507L0 0ZM1.734 5.22L2.405 5.22C3.674 5.22 4.428 4.549 4.428 3.253C4.428 1.957 3.701 1.287 2.405 1.287L1.734 1.287L1.734 5.22Z" fill="rgb(19,122,151)" fill-opacity="1.000" fill-rule="evenodd" transform="matrix(1 0 0 -1 40.8597 52.8879)"/><path d="M0 3.365C0 1.296 1.139 0 3.263 0C5.389 0 6.526 1.296 6.526 3.365C6.526 5.455 5.408 6.732 3.263 6.732C1.12 6.732 0 5.455 0 3.365ZM1.791 3.365C1.791 4.493 2.209 5.444 3.263 5.444C4.316 5.444 4.737 4.493 4.737 3.365C4.737 2.293 4.316 1.287 3.263 1.287C2.209 1.287 1.791 2.293 1.791 3.365Z" fill="rgb(19,122,151)" fill-opacity="1.000" fill-rule="evenodd" transform="matrix(1 0 0 -1 47.4544 53)"/><path d="M0 0L2.74 0C3.905 0 5.275 0.326 5.275 1.883C5.275 2.675 4.828 3.142 3.962 3.318L3.962 3.337C4.689 3.581 5.107 4.036 5.107 4.858C5.107 5.976 4.204 6.507 2.992 6.507L0 6.507L0 0ZM1.733 2.759L2.264 2.759C2.861 2.759 3.541 2.694 3.541 1.986C3.541 1.324 2.879 1.23 2.245 1.23L1.733 1.23L1.733 2.759ZM1.733 5.277L2.237 5.277C2.815 5.277 3.374 5.22 3.374 4.625C3.374 4.074 2.787 3.934 2.218 3.934L1.733 3.934L1.733 5.277Z" fill="rgb(19,122,151)" fill-opacity="1.000" fill-rule="evenodd" transform="matrix(1 0 0 -1 56.98 52.8879)"/><path d="M0 0L1.734 0L1.734 2.573L2.097 2.573C2.74 2.573 2.963 2.293 3.318 1.175L3.691 0L5.5 0L4.866 1.772C4.54 2.564 4.502 3.058 3.943 3.206L3.943 3.225C4.782 3.422 5.192 4 5.192 4.866C5.192 5.985 4.25 6.507 3.094 6.507L0 6.507L0 0ZM1.734 5.277L2.19 5.277C2.852 5.277 3.458 5.165 3.458 4.559C3.458 3.822 2.751 3.803 2.19 3.803L1.734 3.803L1.734 5.277Z" fill="rgb(19,122,151)" fill-opacity="1.000" fill-rule="evenodd" transform="matrix(1 0 0 -1 63.0507 52.8879)"/><path d="M0 0L1.762 0L2.274 1.389L4.718 1.389L5.203 0L7.104 0L4.597 6.507L2.471 6.507L0 0ZM4.309 2.62L2.676 2.62L3.515 5.165L3.534 5.165L4.309 2.62Z" fill="rgb(19,122,151)" fill-opacity="1.000" fill-rule="evenodd" transform="matrix(1 0 0 -1 68.7323 52.8879)"/><path d="M0 6.507L1.734 6.507L1.734 0L0 0L0 6.507Z" fill="rgb(19,122,151)" fill-opacity="1.000" fill-rule="nonzero" transform="matrix(1 0 0 -1 81.6552 52.8879)"/><path d="M0 0L4.419 0L4.419 1.287L1.734 1.287L1.734 6.507L0 6.507L0 0Z" fill="rgb(19,122,151)" fill-opacity="1.000" fill-rule="evenodd" transform="matrix(1 0 0 -1 84.5675 52.8879)"/><path d="M0.064 0.28C0.642 0.093 1.398 0 2.004 0C3.448 0 4.866 0.457 4.866 2.145C4.866 4.493 1.79 3.786 1.79 4.839C1.79 5.408 2.516 5.444 2.954 5.444C3.448 5.444 3.952 5.351 4.399 5.146L4.512 6.488C4.074 6.638 3.458 6.732 2.834 6.732C1.529 6.732 0 6.302 0 4.737C0 2.368 3.077 3.132 3.077 1.921C3.077 1.399 2.554 1.287 2.004 1.287C1.286 1.287 0.661 1.474 0.214 1.715L0.064 0.28Z" fill="rgb(19,122,151)" fill-opacity="1.000" fill-rule="evenodd" transform="matrix(1 0 0 -1 76.014 53)"/><path d="M7.323 0L13.831 0L15.866 2.034L9.358 2.034L9.357 5.696L10.577 5.696L12.611 7.729L7.729 7.729L7.729 12.611L5.696 10.577L5.696 9.357L2.034 9.357L2.034 15.866L0 13.831L0 7.323L3.662 7.323L3.662 3.662L7.323 3.662L7.323 0Z" fill="rgb(19,122,151)" fill-opacity="1.000" fill-rule="nonzero" transform="matrix(1 0 0 -1 53.0566 30.1553)"/><path d="M0 0L0 4.881L2.034 6.915L2.034 2.034L6.916 2.034L4.881 0L0 0Z" fill="rgb(19,122,151)" fill-opacity="1.000" fill-rule="nonzero" transform="matrix(1 0 0 -1 67.702 15.5099)"/><path d="M5.698 6.915L4.068 6.915L4.068 2.034L8.951 2.033L6.916 0L2.036 0L2.034 1.219L0 1.22L0 2.848L5.696 8.543L5.698 6.915Z" fill="rgb(19,122,151)" fill-opacity="1.000" fill-rule="nonzero" transform="matrix(1 0 0 -1 56.7173 15.5099)"/><path d="M6.916 4.067L6.916 5.695L8.543 5.695L2.848 0L1.22 0L1.22 2.034L0 2.034L0 6.915L2.034 8.949L2.034 4.067L6.916 4.067Z" fill="rgb(19,122,151)" fill-opacity="1.000" fill-rule="nonzero" transform="matrix(1 0 0 -1 67.702 26.4932)"/></svg>