<svg xmlns="http://www.w3.org/2000/svg" viewBox="0 0 130 60" width="130" height="60"><path d="M0 0L130 0L130 60L0 60L0 0Z" fill="rgb(255,255,255)" fill-opacity="1.000" fill-rule="nonzero" transform="matrix(1 0 0 1 0 0)"/><path d="M14.981 9.418L14.981 7.035L7.221 7.035L7.221 14.185L11.976 14.185L11.976 16.569L7.221 16.569L7.221 23.72L14.981 23.72L14.981 21.33L9.608 21.33L9.608 18.946L14.383 18.946L14.383 11.795L9.608 11.795L9.608 9.412M0 15.387C0.012 12.334 0.934 9.354 2.65 6.821C4.367 4.289 6.8 2.318 9.644 1.158C12.487 -0.001 15.613 -0.299 18.627 0.304C21.64 0.907 24.406 2.384 26.575 4.547C28.744 6.71 30.219 9.462 30.814 12.457C31.409 15.452 31.096 18.555 29.916 21.374C28.736 24.192 26.742 26.601 24.184 28.294C21.627 29.988 18.622 30.891 15.547 30.89C13.501 30.887 11.476 30.483 9.587 29.702C7.698 28.921 5.982 27.778 4.538 26.338C3.095 24.898 1.951 23.19 1.172 21.311C0.393 19.432 -0.005 17.419 0 15.387ZM2.407 15.387C2.417 12.808 3.197 10.291 4.647 8.152C6.097 6.013 8.153 4.348 10.555 3.369C12.957 2.389 15.597 2.138 18.143 2.647C20.688 3.156 23.025 4.403 24.857 6.23C26.69 8.057 27.936 10.382 28.439 12.912C28.942 15.442 28.679 18.063 27.683 20.444C26.687 22.825 25.002 24.86 22.842 26.292C20.683 27.723 18.144 28.487 15.547 28.487C12.056 28.479 8.711 27.094 6.247 24.638C3.783 22.181 2.402 18.854 2.407 15.387ZM16.185 21.336L16.185 23.72L23.933 23.72L23.933 16.576L19.164 16.576L19.164 14.192L23.933 14.192L23.933 7.041L16.185 7.041L16.185 9.425L21.545 9.425L21.545 11.815L16.77 11.815L16.77 18.959L21.545 18.959L21.545 21.343L16.185 21.336Z" fill="rgb(203,2,2)" fill-opacity="1.000" fill-rule="evenodd" transform="matrix(1 0 0 1 80.8986 14.1163)"/><path d="M9.172 16.725C11.176 16.725 12.685 16.241 13.661 15.278C14.063 14.86 14.376 14.366 14.584 13.826C14.792 13.286 14.889 12.71 14.871 12.132C14.871 10.195 14.058 8.825 12.444 8.102L12.373 8.102L12.438 8.063C13.167 7.682 14.123 6.907 14.123 4.594C14.135 3.992 14.021 3.394 13.788 2.838C13.555 2.282 13.209 1.78 12.77 1.364C11.646 0.417 10.201 -0.068 8.73 0.008L0 0.008L0 16.725M3.168 6.558L3.168 3.063L8.457 3.063C9.387 3.063 10.942 3.063 10.942 4.904C10.962 5.2 10.89 5.496 10.735 5.75C10.58 6.004 10.35 6.205 10.077 6.325C9.566 6.527 9.019 6.619 8.47 6.597L3.175 6.597L3.175 6.558L3.168 6.558ZM3.168 9.671L3.168 9.62L8.938 9.62C9.603 9.6 10.259 9.768 10.831 10.104C11.106 10.279 11.33 10.523 11.481 10.811C11.632 11.099 11.704 11.421 11.69 11.745C11.712 12.219 11.546 12.683 11.228 13.037C10.662 13.605 9.686 13.605 8.971 13.605L3.149 13.605L3.149 13.573L3.149 9.639L3.168 9.671Z" fill="rgb(32,30,29)" fill-opacity="1.000" fill-rule="evenodd" transform="matrix(1 0 0 1 40.9308 21.1755)"/><path d="M0 16.75L3.324 16.75L3.324 0L0 0L0 16.75Z" fill="rgb(32,30,29)" fill-opacity="1.000" fill-rule="evenodd" transform="matrix(1 0 0 1 18 21.1379)"/><path d="M0.009 8.083C-0.036 9.49 0.249 10.887 0.841 12.166C1.338 13.143 2.049 13.998 2.923 14.666C4.406 15.854 6.494 16.455 9.135 16.455L13.689 16.455L13.689 13.296L9.396 13.296C7.008 13.296 5.278 12.702 4.25 11.526C3.488 10.594 3.09 9.419 3.131 8.219C3.089 7.583 3.176 6.946 3.387 6.344C3.598 5.743 3.929 5.189 4.361 4.718C5.401 3.665 7.093 3.135 9.389 3.135L13.669 3.135L13.669 0.002L9.285 0.002C8.008 -0.021 6.734 0.131 5.499 0.454C4.513 0.715 3.596 1.187 2.812 1.837C1.906 2.614 1.185 3.581 0.699 4.667C0.213 5.754 -0.025 6.934 0.002 8.122" fill="rgb(32,30,29)" fill-opacity="1.000" fill-rule="evenodd" transform="matrix(1 0 0 1 24.0087 21.2843)"/><path d="M0.003 8.238C-0.032 9.694 0.252 11.14 0.835 12.476C1.313 13.505 2.026 14.41 2.917 15.118C4.309 16.235 6.287 16.752 9.13 16.752L13.924 16.752L13.924 13.593L9.37 13.593C6.989 13.593 5.252 12.947 4.225 11.752C3.456 10.784 3.061 9.574 3.112 8.342C3.073 7.684 3.168 7.025 3.391 6.404C3.615 5.784 3.963 5.215 4.413 4.731C5.454 3.671 7.132 3.135 9.396 3.135L13.95 3.135L13.95 0.002L9.318 0.002C8.041 -0.021 6.767 0.131 5.532 0.454C4.546 0.712 3.629 1.182 2.846 1.83C1.936 2.63 1.214 3.617 0.728 4.723C0.243 5.829 0.006 7.026 0.035 8.232" fill="rgb(32,30,29)" fill-opacity="1.000" fill-rule="evenodd" transform="matrix(1 0 0 1 57.809 21.1292)"/></svg>