<svg xmlns="http://www.w3.org/2000/svg" viewBox="0 0 60 60" width="60" height="60"><path d="M0 0L60 0L60 60L0 60L0 0Z" fill="rgb(0,62,126)" fill-opacity="1.000" fill-rule="nonzero" transform="matrix(1 0 0 1 0 0)"/><path d="M10.221 18.25C9.985 17.81 6.437 11.848 6.437 11.848C5.918 10.928 5.88 10.222 6.437 9.273C6.68 8.797 8.046 6.492 8.046 6.492C8.529 5.639 9.084 5.046 10.436 5.046L13.387 5.04C14.521 5.04 14.95 5.31 15.467 6.275C15.569 6.452 16.191 7.594 16.548 8.204C17.101 9.17 17.637 9.456 18.791 9.456L23.75 9.456L19.647 2.338C18.729 0.756 17.75 0 15.6 0L8.806 0C6.118 0 4.916 0.853 3.67 2.948L0.653 8.171C-0.143 9.55 -0.289 11.365 0.653 13.12L7.66 24.944L10.238 20.668C10.725 19.798 10.695 19.132 10.221 18.25Z" fill="rgb(255,255,255)" fill-opacity="1.000" fill-rule="nonzero" transform="matrix(1 0 0 1 18.4155 14)"/><path d="M19.463 7.184C19.202 7.604 15.607 13.659 15.607 13.659C15.065 14.565 14.474 14.955 13.375 14.945C12.84 14.971 10.146 14.942 10.146 14.942C9.168 14.945 8.372 14.788 7.694 13.616L6.219 11.062C5.649 10.079 5.666 9.576 6.245 8.647C6.35 8.471 7 7.448 7.353 6.832C7.911 5.872 7.889 5.267 7.313 4.264L4.81 0L0.743 6.998C-0.166 8.58 -0.328 9.802 0.748 11.668L4.145 17.553C5.489 19.881 6.823 20.494 9.263 20.52L15.117 20.527C16.709 20.527 18.354 19.741 19.405 18.046C19.895 17.18 26.651 5.958 26.651 5.958L21.547 5.958C20.551 5.972 19.993 6.328 19.463 7.184Z" fill="rgb(255,255,255)" fill-opacity="1.000" fill-rule="nonzero" transform="matrix(1 0 0 1 12 25.9804)"/><path d="M4.73 5.579C5.226 5.596 12.274 5.576 12.274 5.576C13.33 5.589 13.966 5.906 14.507 6.865C14.795 7.315 16.038 9.443 16.038 9.443C16.532 10.289 16.774 11.066 16.096 12.237L14.621 14.795C14.054 15.775 13.609 16.011 12.516 15.974C12.31 15.974 11.239 15.951 10.53 15.954C9.417 15.951 8.9 16.277 8.327 17.273C8.129 17.613 5.716 21.563 5.716 21.563L13.838 21.563C15.666 21.56 16.805 21.087 17.883 19.228L21.28 13.343C22.622 11.015 22.489 9.549 21.29 7.424C20.932 6.791 19.57 4.473 18.414 2.471C17.62 1.093 16.119 0.06 14.126 0C13.127 0.007 0 0.026 0 0.026L2.592 4.373C3.103 5.232 3.727 5.549 4.73 5.579Z" fill="rgb(255,255,255)" fill-opacity="1.000" fill-rule="nonzero" transform="matrix(1 0 0 1 26.0358 24.9152)"/></svg>