<svg xmlns="http://www.w3.org/2000/svg" viewBox="0 0 130 60" width="130" height="60"><path d="M0 0L130 0L130 60L0 60L0 0Z" fill="rgb(255,255,255)" fill-opacity="1.000" fill-rule="nonzero" transform="matrix(1 0 0 1 0 0)"/><path d="M21.123 8.662C21.123 8.662 21.973 4.342 26.475 5.172C27.251 5.314 27.998 5.488 28.727 5.657C32.228 6.471 35.306 7.185 39.082 3.927C39.082 3.927 38.117 7.76 33.163 8.498C31.052 8.813 29.428 8.501 27.886 8.205C25.81 7.806 23.884 7.435 21.123 8.662ZM15.447 0L39.792 0L39.792 24.739L15.447 24.739L15.447 19.451C15.823 19.52 16.2 19.592 16.58 19.665C19.317 20.192 22.196 20.747 25.948 20.185C34.745 18.889 36.459 12.063 36.459 12.063C29.775 17.833 24.33 16.575 18.134 15.143C17.255 14.94 16.361 14.733 15.447 14.543L15.447 12.966C17.938 12.477 19.993 12.873 22.16 13.29C24.379 13.718 26.716 14.168 29.758 13.713C36.897 12.646 38.287 7.12 38.287 7.12C32.866 11.801 28.447 10.78 23.42 9.619C22.351 9.372 21.254 9.119 20.115 8.913C18.087 8.546 16.569 8.913 15.438 9.561L15.447 0ZM2.747 38.573L3.686 38.573C4.012 38.57 4.337 38.602 4.656 38.668C4.934 38.726 5.201 38.83 5.446 38.975C5.675 39.108 5.863 39.303 5.99 39.538C6.118 39.772 6.18 40.038 6.169 40.305C6.178 40.595 6.112 40.883 5.978 41.139C5.854 41.367 5.676 41.561 5.459 41.701C5.229 41.847 4.976 41.952 4.711 42.012C4.417 42.081 4.116 42.114 3.814 42.111L3.206 42.111C3.052 42.109 2.899 42.099 2.747 42.081L2.747 38.573ZM2.747 33.673C2.803 33.673 2.873 33.663 2.955 33.65C3.02 33.64 3.092 33.629 3.172 33.622C3.286 33.611 3.428 33.614 3.597 33.617C3.693 33.619 3.798 33.622 3.912 33.622C4.419 33.591 4.924 33.719 5.357 33.989C5.524 34.109 5.658 34.271 5.748 34.458C5.837 34.645 5.878 34.852 5.867 35.06C5.872 35.349 5.784 35.631 5.617 35.864C5.422 36.111 5.163 36.297 4.868 36.4C4.472 36.534 4.057 36.598 3.639 36.59L2.734 36.59L2.747 33.673ZM0.153 44.042C0.451 44.086 0.761 44.112 1.225 44.146C1.688 44.181 2.317 44.202 2.997 44.207C3.708 44.212 4.419 44.167 5.123 44.073C5.661 44.003 6.19 43.876 6.701 43.693C7.097 43.549 7.469 43.344 7.802 43.083C8.055 42.877 8.28 42.638 8.469 42.37C8.655 42.099 8.798 41.8 8.895 41.485C9.003 41.144 9.056 40.788 9.052 40.431C9.059 39.942 8.95 39.459 8.733 39.022C8.533 38.615 8.241 38.262 7.883 37.99C7.508 37.709 7.084 37.505 6.633 37.389L6.633 37.354C7.048 37.198 7.432 36.969 7.768 36.676C8.05 36.424 8.276 36.113 8.431 35.765C8.572 35.435 8.644 35.079 8.644 34.719C8.65 34.363 8.586 34.009 8.457 33.678C8.342 33.373 8.17 33.095 7.951 32.857C7.734 32.618 7.478 32.419 7.194 32.269C6.891 32.086 6.567 31.941 6.229 31.837C5.847 31.727 5.455 31.653 5.06 31.617C4.634 31.574 4.128 31.556 3.571 31.556C3.1 31.556 2.64 31.556 2.185 31.591C2.03 31.603 1.882 31.614 1.738 31.624C1.46 31.644 1.199 31.663 0.935 31.686C0.626 31.713 0.457 31.74 0.287 31.766C0.238 31.774 0.189 31.782 0.136 31.79C0.098 31.796 0.063 31.816 0.038 31.846C0.013 31.876 0 31.915 0 31.954L0 43.87C0.002 43.909 0.017 43.946 0.044 43.975C0.07 44.003 0.106 44.021 0.145 44.025L0.153 44.042ZM15.081 41.031C15.085 40.949 15.085 40.867 15.081 40.785L15.094 39.821C14.654 39.812 14.214 39.856 13.784 39.951C13.446 40.011 13.13 40.16 12.866 40.383C12.752 40.49 12.663 40.621 12.603 40.766C12.544 40.912 12.516 41.068 12.521 41.226C12.514 41.434 12.564 41.64 12.666 41.822C12.758 41.977 12.892 42.102 13.053 42.18C13.228 42.259 13.418 42.299 13.61 42.297C13.826 42.295 14.039 42.246 14.235 42.154C14.425 42.068 14.595 41.943 14.737 41.787C14.871 41.636 14.974 41.458 15.038 41.264C15.06 41.188 15.074 41.11 15.081 41.031ZM17.555 37.229C17.69 37.721 17.755 38.231 17.747 38.741L17.789 41.865C17.789 41.961 17.788 42.055 17.786 42.148C17.784 42.331 17.781 42.51 17.789 42.69C17.802 42.962 17.815 43.213 17.836 43.442C17.854 43.642 17.882 43.841 17.921 44.038L15.438 44.038C15.394 44.037 15.353 44.019 15.322 43.988C15.291 43.956 15.273 43.914 15.272 43.87L15.272 43.135L15.221 43.135C14.928 43.495 14.553 43.776 14.129 43.956C13.671 44.151 13.179 44.248 12.683 44.241C12.269 44.244 11.859 44.165 11.475 44.008C11.137 43.871 10.831 43.662 10.578 43.394C10.335 43.147 10.143 42.854 10.013 42.53C9.884 42.2 9.817 41.848 9.817 41.493C9.804 40.971 9.929 40.454 10.181 39.998C10.432 39.541 10.8 39.162 11.246 38.901C11.754 38.6 12.307 38.386 12.883 38.266C13.582 38.122 14.295 38.053 15.009 38.059L15.009 37.946C15.011 37.813 14.991 37.68 14.949 37.553C14.901 37.409 14.82 37.278 14.711 37.173C14.572 37.037 14.403 36.938 14.218 36.884C13.952 36.802 13.675 36.762 13.397 36.767C13.091 36.768 12.786 36.801 12.487 36.866C12.198 36.923 11.913 37.004 11.637 37.108C11.459 37.175 11.285 37.254 11.118 37.346C11.097 37.357 11.073 37.363 11.048 37.364C11.024 37.364 11 37.36 10.977 37.35C10.955 37.34 10.935 37.325 10.919 37.306C10.903 37.288 10.891 37.266 10.884 37.242L10.459 35.773C10.449 35.737 10.451 35.698 10.465 35.663C10.479 35.628 10.504 35.598 10.536 35.579C10.762 35.464 10.994 35.364 11.233 35.281C11.611 35.143 11.999 35.038 12.394 34.965C12.881 34.877 13.375 34.834 13.869 34.836C14.499 34.821 15.127 34.927 15.719 35.147C16.18 35.321 16.592 35.609 16.918 35.985C17.215 36.349 17.432 36.773 17.555 37.229ZM19.375 44.064L21.79 44.064C21.833 44.064 21.875 44.047 21.906 44.016C21.937 43.986 21.955 43.944 21.956 43.9L21.956 38.871C21.949 38.744 21.949 38.617 21.956 38.491C21.965 38.381 21.989 38.273 22.028 38.171C22.097 37.99 22.193 37.821 22.313 37.67C22.441 37.507 22.6 37.373 22.781 37.277C22.986 37.169 23.213 37.114 23.444 37.117C23.732 37.106 24.015 37.194 24.248 37.367C24.461 37.545 24.618 37.782 24.698 38.05C24.798 38.38 24.845 38.724 24.839 39.07L24.839 43.9C24.84 43.943 24.857 43.984 24.887 44.015C24.917 44.045 24.958 44.063 25 44.064L27.428 44.064C27.471 44.064 27.513 44.047 27.544 44.016C27.575 43.986 27.593 43.944 27.594 43.9L27.594 38.741C27.603 38.156 27.521 37.573 27.351 37.013C27.217 36.567 26.991 36.155 26.688 35.803C26.412 35.488 26.067 35.243 25.68 35.086C25.274 34.925 24.841 34.846 24.405 34.853C24.066 34.852 23.728 34.9 23.402 34.995C23.124 35.08 22.86 35.202 22.615 35.358C22.404 35.493 22.21 35.652 22.037 35.834C21.896 35.977 21.772 36.137 21.667 36.309L21.612 36.309L21.612 35.229C21.612 35.206 21.608 35.184 21.6 35.163C21.592 35.142 21.58 35.123 21.564 35.107C21.549 35.091 21.531 35.078 21.51 35.069C21.49 35.06 21.468 35.056 21.446 35.056L19.095 35.056L19.146 35.851C19.17 36.235 19.169 36.523 19.167 36.913C19.167 37.006 19.167 37.105 19.167 37.212L19.167 43.896C19.166 43.918 19.17 43.94 19.178 43.961C19.186 43.981 19.199 44 19.214 44.016C19.23 44.032 19.248 44.044 19.268 44.052C19.289 44.061 19.311 44.065 19.333 44.064L19.375 44.064ZM31.331 37.942C31.265 38.135 31.221 38.335 31.199 38.538L34.46 38.556C34.462 38.362 34.442 38.17 34.401 37.981C34.353 37.772 34.273 37.572 34.163 37.389C34.045 37.187 33.88 37.018 33.682 36.896C33.445 36.776 33.184 36.713 32.919 36.713C32.654 36.713 32.393 36.776 32.156 36.896C31.955 37.008 31.781 37.163 31.646 37.35C31.511 37.53 31.405 37.729 31.331 37.942ZM36.97 40.143C36.961 40.206 36.952 40.261 36.952 40.31L36.931 40.305C36.925 40.345 36.905 40.38 36.875 40.407C36.846 40.433 36.808 40.447 36.769 40.448L31.199 40.448C31.211 40.718 31.293 40.981 31.437 41.208C31.579 41.426 31.768 41.608 31.99 41.74C32.233 41.886 32.497 41.994 32.772 42.059C33.076 42.13 33.387 42.164 33.699 42.163C34.133 42.166 34.567 42.135 34.996 42.068C35.326 42.014 35.651 41.936 35.97 41.835C35.992 41.827 36.016 41.824 36.039 41.827C36.063 41.829 36.085 41.837 36.106 41.849C36.126 41.861 36.143 41.878 36.157 41.898C36.17 41.918 36.179 41.941 36.182 41.964C36.28 42.487 36.382 43.014 36.484 43.537C36.49 43.576 36.482 43.616 36.463 43.651C36.444 43.685 36.414 43.712 36.378 43.727C35.937 43.9 35.479 44.026 35.013 44.103C34.451 44.197 33.882 44.245 33.312 44.245C32.43 44.264 31.556 44.07 30.761 43.68C30.078 43.333 29.517 42.781 29.154 42.098C28.768 41.345 28.575 40.506 28.593 39.657C28.595 39.193 28.652 38.73 28.763 38.279C28.878 37.825 29.052 37.389 29.282 36.983C29.516 36.571 29.814 36.2 30.166 35.885C30.535 35.559 30.96 35.304 31.42 35.134C31.95 34.944 32.508 34.849 33.07 34.853C33.585 34.846 34.098 34.932 34.584 35.108C34.996 35.259 35.375 35.493 35.698 35.795C36.008 36.082 36.266 36.423 36.459 36.801C36.651 37.189 36.794 37.6 36.884 38.024C36.974 38.459 37.019 38.902 37.02 39.346C37.02 39.463 37.012 39.582 37.004 39.698C36.997 39.805 36.99 39.909 36.99 40.003C36.985 40.053 36.977 40.1 36.97 40.143ZM38.083 43.68C38.446 43.855 38.826 43.99 39.218 44.081C39.749 44.206 40.293 44.268 40.838 44.267C41.564 44.282 42.287 44.152 42.964 43.883C43.48 43.673 43.923 43.314 44.239 42.85C44.487 42.453 44.632 41.998 44.663 41.529C44.693 41.06 44.608 40.59 44.414 40.163C44.231 39.8 43.968 39.486 43.644 39.247C43.224 38.949 42.762 38.716 42.275 38.556C41.985 38.456 41.702 38.341 41.425 38.21C41.264 38.132 41.119 38.024 40.999 37.89C40.911 37.783 40.866 37.645 40.872 37.506C40.869 37.402 40.893 37.299 40.94 37.208C40.988 37.116 41.058 37.039 41.144 36.983C41.379 36.841 41.649 36.773 41.922 36.788C42.171 36.792 42.418 36.819 42.662 36.871C42.89 36.922 43.114 36.988 43.334 37.069L43.661 37.208C43.683 37.219 43.708 37.226 43.733 37.227C43.758 37.227 43.783 37.222 43.806 37.211C43.828 37.2 43.848 37.184 43.864 37.164C43.879 37.144 43.89 37.12 43.895 37.095L44.299 35.432C44.303 35.413 44.3 35.393 44.291 35.376C44.283 35.359 44.269 35.345 44.252 35.337C43.933 35.189 43.599 35.075 43.257 34.995C42.79 34.888 42.312 34.834 41.833 34.836C41.327 34.832 40.824 34.908 40.34 35.06C39.927 35.193 39.541 35.404 39.205 35.682C38.898 35.936 38.651 36.256 38.482 36.62C38.312 36.989 38.223 37.392 38.223 37.799C38.216 38.16 38.298 38.516 38.461 38.836C38.66 39.205 38.939 39.523 39.277 39.765C39.731 40.09 40.232 40.34 40.761 40.508C41.032 40.593 41.295 40.702 41.548 40.832C41.703 40.903 41.838 41.013 41.939 41.152C42.016 41.273 42.054 41.415 42.05 41.558C42.054 41.665 42.031 41.771 41.983 41.866C41.934 41.961 41.862 42.041 41.773 42.098C41.497 42.249 41.185 42.318 40.872 42.297C40.586 42.29 40.301 42.255 40.022 42.193C39.733 42.128 39.449 42.045 39.171 41.943C39.005 41.886 38.845 41.816 38.691 41.731C38.669 41.721 38.645 41.715 38.621 41.715C38.597 41.715 38.573 41.721 38.551 41.731C38.529 41.741 38.51 41.756 38.495 41.775C38.479 41.794 38.468 41.815 38.461 41.839L38.036 43.489C38.029 43.526 38.033 43.563 38.047 43.597C38.061 43.631 38.086 43.66 38.117 43.68L38.083 43.68ZM48.423 37.942C48.351 38.134 48.306 38.334 48.287 38.538L51.552 38.534C51.55 38.341 51.529 38.148 51.488 37.959C51.441 37.75 51.36 37.551 51.25 37.367C51.13 37.173 50.965 37.012 50.77 36.896C50.533 36.776 50.272 36.713 50.007 36.713C49.742 36.713 49.48 36.776 49.244 36.896C49.042 37.007 48.868 37.162 48.733 37.35C48.599 37.529 48.494 37.729 48.423 37.942ZM54.058 40.143C54.048 40.206 54.039 40.261 54.039 40.31L54.001 40.305C53.995 40.345 53.976 40.38 53.946 40.407C53.917 40.433 53.879 40.447 53.84 40.448L48.266 40.448C48.281 40.718 48.364 40.98 48.508 41.208C48.65 41.426 48.839 41.608 49.061 41.74C49.304 41.886 49.568 41.994 49.843 42.059C50.147 42.13 50.458 42.164 50.77 42.163C51.204 42.166 51.638 42.135 52.067 42.068C52.396 42.013 52.721 41.935 53.04 41.835C53.063 41.827 53.086 41.824 53.11 41.827C53.133 41.829 53.156 41.837 53.176 41.849C53.197 41.861 53.214 41.878 53.227 41.898C53.24 41.918 53.249 41.941 53.253 41.964C53.304 42.226 53.354 42.488 53.404 42.751C53.454 43.013 53.504 43.276 53.555 43.537C53.561 43.576 53.554 43.617 53.535 43.651C53.516 43.686 53.485 43.713 53.448 43.727C53.007 43.9 52.55 44.026 52.084 44.103C51.522 44.197 50.953 44.245 50.383 44.245C49.501 44.264 48.627 44.07 47.832 43.68C47.149 43.333 46.588 42.781 46.225 42.098C45.839 41.345 45.646 40.506 45.664 39.657C45.665 39.193 45.722 38.73 45.834 38.279C45.947 37.825 46.121 37.389 46.352 36.983C46.586 36.571 46.885 36.2 47.237 35.885C47.612 35.556 48.045 35.301 48.512 35.134C49.04 34.943 49.597 34.848 50.158 34.853C50.673 34.846 51.186 34.932 51.671 35.108C52.084 35.259 52.462 35.493 52.785 35.795C53.096 36.082 53.354 36.423 53.546 36.801C53.739 37.189 53.882 37.6 53.971 38.024C54.062 38.459 54.107 38.902 54.107 39.346C54.107 39.463 54.099 39.582 54.092 39.698C54.085 39.805 54.078 39.909 54.078 40.003C54.073 40.053 54.065 40.1 54.058 40.143Z" fill="rgb(0,103,56)" fill-opacity="1.000" fill-rule="evenodd" transform="matrix(1 0 0 1 38.5336 8)"/></svg>