<svg xmlns="http://www.w3.org/2000/svg" viewBox="0 0 60 60" width="60" height="60"><path d="M0 0L60 0L60 60L0 60L0 0Z" fill="rgb(0,0,81)" fill-opacity="1.000" fill-rule="nonzero" transform="matrix(1 0 0 1 0 0)"/><path d="M25.869 10.438L20.727 1.44C20.225 0.552 19.268 0 18.264 0L7.981 0C6.953 0 6.02 0.552 5.518 1.44L0.377 10.438C-0.126 11.325 -0.126 12.429 0.377 13.317L5.518 22.315C6.02 23.202 6.977 23.754 7.981 23.754L11.712 23.754L13.123 21.283L7.981 21.283C7.838 21.283 7.694 21.211 7.622 21.067L2.481 12.069C2.409 11.949 2.409 11.781 2.481 11.661L7.622 2.663C7.694 2.543 7.838 2.447 7.981 2.447L18.264 2.447C18.408 2.447 18.551 2.519 18.623 2.663L23.764 11.661C23.836 11.781 23.836 11.949 23.764 12.069L20.775 17.3L23.597 17.3L25.893 13.317C26.395 12.429 26.395 11.325 25.869 10.438Z" fill="rgb(7,136,254)" fill-opacity="1.000" fill-rule="nonzero" transform="matrix(1 0 0 1 17.0879 9)"/><path d="M25.893 10.438L23.597 6.454L20.775 6.454L23.764 11.685C23.836 11.805 23.836 11.973 23.764 12.093L18.623 21.091C18.551 21.211 18.408 21.307 18.264 21.307L7.981 21.307C7.838 21.307 7.694 21.235 7.622 21.091L2.481 12.093C2.409 11.973 2.409 11.805 2.481 11.685L7.622 2.687C7.694 2.567 7.838 2.471 7.981 2.471L13.123 2.471L11.712 0L8.005 0C6.977 0 6.044 0.552 5.542 1.44L0.377 10.438C-0.126 11.325 -0.126 12.429 0.377 13.317L5.518 22.315C6.02 23.202 6.977 23.754 7.981 23.754L18.264 23.754C19.292 23.754 20.225 23.202 20.727 22.315L25.869 13.317C26.419 12.429 26.419 11.325 25.893 10.438Z" fill="rgb(160,111,254)" fill-opacity="1.000" fill-rule="nonzero" transform="matrix(1 0 0 1 8 26.2998)"/><path d="M23.22 10.414L18.079 1.44C17.577 0.552 16.62 0 15.616 0L5.333 0C4.304 0 3.372 0.552 2.87 1.44L0 6.43L2.822 6.43L4.974 2.663C5.046 2.543 5.189 2.447 5.333 2.447L15.616 2.447C15.759 2.447 15.903 2.519 15.974 2.663L21.116 11.661C21.188 11.781 21.188 11.949 21.116 12.069L15.974 21.067C15.903 21.187 15.759 21.283 15.616 21.283L5.333 21.283C5.189 21.283 5.046 21.211 4.974 21.067L2.822 17.324L1.411 19.795L2.87 22.315C3.372 23.202 4.328 23.754 5.333 23.754L15.616 23.754C16.644 23.754 17.577 23.202 18.079 22.315L23.22 13.317C23.746 12.405 23.746 11.301 23.22 10.414Z" fill="rgb(0,217,203)" fill-opacity="1.000" fill-rule="nonzero" transform="matrix(1 0 0 1 28.7988 26.3239)"/></svg>