<svg xmlns="http://www.w3.org/2000/svg" viewBox="0 0 60 60" width="60" height="60"><path d="M0 0L60 0L60 60L0 60L0 0Z" fill="rgb(255,255,255)" fill-opacity="1.000" fill-rule="nonzero" transform="matrix(1 0 0 1 0 0)"/><path d="M20 25.338C18.015 25.338 16.154 24.757 14.615 23.788L9.305 20.445L9.305 32L0 24.345L0 9.811C0 5.499 2.878 1.841 6.873 0.557L8.635 0C4.988 1.793 2.506 5.378 2.506 9.52C2.506 15.431 7.543 20.227 13.797 20.227C19.628 20.227 24.417 16.036 25.012 10.683L18.586 10.683C18.015 12.79 16.055 14.341 13.747 14.341C10.968 14.341 8.735 12.161 8.735 9.448C8.735 6.758 10.968 4.578 13.747 4.578C16.303 4.578 18.412 6.444 18.71 8.842L25.062 8.842C24.913 6.686 24.094 4.699 22.804 3.076C22.804 3.076 26.749 7.582 28.114 9.641C29.33 11.482 30 13.396 30 15.552C30 20.954 25.509 25.338 20 25.338Z" fill="rgb(0,57,116)" fill-opacity="1.000" fill-rule="nonzero" transform="matrix(1 0 0 -1 15 46)"/></svg>