<svg xmlns="http://www.w3.org/2000/svg" viewBox="0 0 60 60" width="60" height="60"><path d="M0 0L60 0L60 60L0 60L0 0Z" fill="rgb(255,255,255)" fill-opacity="1.000" fill-rule="nonzero" transform="matrix(1 0 0 1 0 0)"/><path d="M0.066 2.261C0.066 0.879 1.317 -0.174 2.635 0.024C9.814 1.143 15.346 7.329 15.346 14.831C15.346 26.545 5.928 29.112 1.844 29.638C0.856 29.77 0 28.98 0 27.993C0.066 28.059 0.066 9.04 0.066 2.261Z" fill="rgb(70,42,113)" fill-opacity="1.000" fill-rule="nonzero" transform="matrix(1 0 0 1 28.6541 22.2506)"/><path d="M1.712 29.943L8.43 29.943C11.263 29.943 13.568 27.64 13.568 24.81L13.568 1.645C13.568 0.724 12.843 0 11.921 0L8.76 0C3.952 0 0 3.883 0 8.753L0 28.232C0 29.154 0.724 29.943 1.712 29.943Z" fill="rgb(250,99,0)" fill-opacity="1.000" fill-rule="nonzero" transform="matrix(1 0 0 1 15.1519 8.1253)"/></svg>