<svg xmlns="http://www.w3.org/2000/svg" viewBox="0 0 60 60" width="60" height="60"><path d="M0 0L60 0L60 60L0 60L0 0Z" fill="rgb(255,255,255)" fill-opacity="1.000" fill-rule="nonzero" transform="matrix(1 0 0 1 0 0)"/><path d="M9.208 0C4.132 0 0 4.13 0 9.208C0 14.286 4.132 18.414 9.208 18.414C14.284 18.414 18.414 14.283 18.414 9.208C18.414 4.132 14.284 0 9.208 0ZM14.395 14.555C14.395 14.571 14.383 14.582 14.368 14.582L4.049 14.582C4.033 14.582 4.022 14.571 4.022 14.555L4.022 13.519C4.022 13.503 4.033 13.492 4.049 13.492L14.368 13.492C14.384 13.492 14.395 13.503 14.395 13.519L14.395 14.555ZM7.445 11.84L7.445 6.61L8.631 6.61L8.631 11.84L9.787 11.84L9.787 6.61L10.971 6.61L10.971 11.84L12.154 11.84L12.154 6.61L13.336 6.61L13.336 11.84L13.861 11.84L13.861 12.903C13.861 12.919 13.85 12.93 13.834 12.93L4.587 12.93C4.571 12.93 4.56 12.919 4.56 12.903L4.56 11.84L5.083 11.84L5.083 6.61L6.264 6.61L6.264 11.837L7.448 11.837L7.445 11.84ZM14.741 5.508L14.413 6.083C14.402 6.101 14.377 6.117 14.356 6.117L4.064 6.117C4.044 6.117 4.019 6.101 4.008 6.083L3.68 5.508C3.669 5.49 3.675 5.467 3.693 5.456L9.177 2.541C9.195 2.532 9.226 2.532 9.242 2.541L14.723 5.456C14.741 5.465 14.748 5.49 14.739 5.508L14.741 5.508Z" fill="rgb(14,115,145)" fill-opacity="1.000" fill-rule="nonzero" transform="matrix(1 0 0 1 5 21)"/><path d="M5.317 1.285L2.735 0.027C2.716 0.018 2.691 0.006 2.682 0.002C2.674 -0.003 2.651 0.002 2.63 0.009L0.012 1.285C-0.006 1.294 -0.004 1.301 0.017 1.301L5.312 1.301C5.333 1.301 5.335 1.294 5.317 1.285Z" fill="rgb(14,115,145)" fill-opacity="1.000" fill-rule="nonzero" transform="matrix(1 0 0 1 11.5452 24.8291)"/><path d="M0 8.477C0.104 8.448 0.267 8.42 0.491 8.391C0.713 8.361 0.923 8.348 1.122 8.348L1.122 1.109C0.923 1.109 0.713 1.095 0.491 1.066C0.269 1.037 0.104 1.01 0 0.98L0 0L4.046 0C4.481 0 4.893 0.041 5.282 0.12C5.671 0.199 6.01 0.333 6.305 0.516C6.597 0.699 6.827 0.941 6.993 1.238C7.158 1.537 7.242 1.901 7.242 2.335C7.242 2.93 7.083 3.404 6.769 3.752C6.452 4.1 6.038 4.343 5.519 4.474L5.519 4.503C5.805 4.551 6.076 4.634 6.336 4.752C6.599 4.87 6.825 5.026 7.02 5.214C7.215 5.404 7.368 5.628 7.482 5.889C7.595 6.149 7.651 6.45 7.651 6.791C7.651 7.266 7.561 7.671 7.382 8.006C7.201 8.344 6.952 8.617 6.635 8.83C6.318 9.043 5.936 9.199 5.49 9.298C5.044 9.398 4.551 9.448 4.01 9.448L0 9.448L0 8.468L0 8.477L0 8.477ZM2.697 4.006L3.847 4.006C4.472 4.006 4.926 3.883 5.209 3.639C5.495 3.395 5.635 3.033 5.635 2.55C5.635 1.627 5.053 1.166 3.888 1.166L2.695 1.166L2.695 4.006L2.697 4.006ZM2.697 8.278L3.951 8.278C4.655 8.278 5.173 8.155 5.506 7.909C5.839 7.662 6.006 7.271 6.006 6.73C6.006 6.219 5.852 5.822 5.542 5.537C5.234 5.255 4.727 5.112 4.023 5.112L2.697 5.112L2.697 8.278L2.697 8.278Z" fill="rgb(14,115,145)" fill-opacity="1.000" fill-rule="nonzero" transform="matrix(1 0 0 1 28.1706 26.1255)"/><path d="M0.005 8.475C0.109 8.446 0.272 8.419 0.493 8.39C0.715 8.36 0.925 8.346 1.125 8.346L1.125 1.107C0.925 1.107 0.715 1.094 0.493 1.064C0.272 1.037 0.109 1.008 0.005 0.981L0.005 0L2.63 0L6.646 5.635C6.873 5.947 7.081 6.246 7.271 6.529C7.461 6.812 7.579 7.007 7.626 7.111L7.653 7.111C7.644 7.015 7.635 6.848 7.626 6.606C7.617 6.364 7.613 6.065 7.613 5.705L7.613 1.107C7.414 1.107 7.206 1.094 6.988 1.064C6.771 1.037 6.61 1.007 6.506 0.98L6.506 0L10.082 0L10.082 0.98C9.978 1.007 9.817 1.037 9.6 1.064C9.383 1.094 9.179 1.107 8.989 1.107L8.989 9.453L7.597 9.453L3.352 3.506C3.247 3.363 3.146 3.22 3.046 3.074C2.946 2.927 2.858 2.791 2.783 2.662C2.707 2.535 2.641 2.422 2.584 2.329C2.528 2.234 2.489 2.168 2.471 2.13L2.442 2.13C2.462 2.216 2.476 2.379 2.485 2.619C2.494 2.861 2.498 3.094 2.498 3.322L2.498 8.348C2.688 8.357 2.892 8.373 3.116 8.398C3.338 8.421 3.501 8.448 3.605 8.475L3.605 9.455L0 9.455L0 8.475L0.005 8.475L0.005 8.475Z" fill="rgb(14,115,145)" fill-opacity="1.000" fill-rule="nonzero" transform="matrix(1 0 0 1 36.4413 26.1202)"/><path d="M0.002 8.461C0.077 8.44 0.199 8.42 0.364 8.396C0.529 8.37 0.692 8.354 0.853 8.346L4.146 0L5.607 0L8.816 8.346C8.986 8.354 9.158 8.373 9.328 8.396C9.497 8.42 9.621 8.44 9.696 8.461L9.696 9.452L6.248 9.452L6.248 8.461C6.334 8.44 6.456 8.42 6.617 8.396C6.778 8.37 6.942 8.354 7.112 8.346L6.574 6.811L2.896 6.811L2.328 8.346C2.498 8.354 2.663 8.373 2.824 8.396C2.985 8.42 3.109 8.44 3.193 8.461L3.193 9.452L0 9.452L0 8.461L0.002 8.461ZM6.148 5.705L5.324 3.376C5.182 2.978 5.066 2.645 4.976 2.376C4.888 2.107 4.813 1.876 4.756 1.688L4.727 1.688C4.661 1.887 4.58 2.127 4.485 2.406C4.39 2.684 4.277 3.01 4.143 3.379L3.277 5.707L6.144 5.707L6.148 5.705Z" fill="rgb(14,115,145)" fill-opacity="1.000" fill-rule="nonzero" transform="matrix(1 0 0 1 46.3037 26.1301)"/></svg>