<svg xmlns="http://www.w3.org/2000/svg" viewBox="0 0 130 60" width="130" height="60"><path d="M0 0L130 0L130 60L0 60L0 0Z" fill="rgb(255,255,255)" fill-opacity="1.000" fill-rule="nonzero" transform="matrix(1 0 0 1 0 0)"/><path d="M0 8.512L0 0.012L2.687 0.012C3.5 -0.051 4.25 0.137 4.938 0.574C5.188 0.762 5.375 1.012 5.5 1.324C5.625 1.637 5.688 1.949 5.688 2.262C5.688 2.699 5.563 3.074 5.313 3.387C5.063 3.699 4.688 3.949 4.25 4.074C4.75 4.199 5.187 4.449 5.563 4.824C5.875 5.199 6.063 5.637 6.063 6.137C6.063 6.449 6 6.824 5.875 7.137C5.75 7.449 5.5 7.699 5.25 7.949C4.625 8.387 3.875 8.637 3.062 8.574L0 8.512ZM0.75 3.824L2.875 3.824C3.437 3.824 3.938 3.699 4.375 3.387C4.562 3.262 4.687 3.074 4.812 2.824C4.875 2.637 4.938 2.387 4.938 2.137C4.938 1.887 4.938 1.699 4.812 1.449C4.687 1.324 4.562 1.137 4.375 1.012C3.875 0.699 3.313 0.574 2.75 0.637L0.812 0.637L0.75 3.824ZM0.75 4.449L0.75 7.949L3.062 7.949C3.625 7.949 4.188 7.824 4.625 7.449C4.813 7.262 4.938 7.074 5.062 6.887C5.187 6.637 5.187 6.387 5.187 6.137C5.187 5.887 5.125 5.637 5.062 5.449C4.938 5.262 4.813 5.012 4.625 4.887C4.188 4.574 3.625 4.387 3.062 4.449L0.75 4.449Z" fill="rgb(86,88,89)" fill-opacity="1.000" fill-rule="nonzero" transform="matrix(1 0 0 1 60.5571 16.0507)"/><path d="M5.937 6.125L1.812 6.125L0.812 8.562L0 8.562L3.5 0L4.25 0L7.687 8.562L6.875 8.562L5.937 6.125ZM2 5.5L5.687 5.5L3.875 0.812L2 5.5Z" fill="rgb(86,88,89)" fill-opacity="1.000" fill-rule="nonzero" transform="matrix(1 0 0 1 66.8072 16.0624)"/><path d="M6.813 8.5L6.063 8.5L0.812 1.188L0.812 8.5L0 8.5L0 0L0.812 0L6.063 7.312L6.063 0L6.813 0L6.813 8.5Z" fill="rgb(86,88,89)" fill-opacity="1.000" fill-rule="nonzero" transform="matrix(1 0 0 1 75.1821 16.0624)"/><path d="M6.813 6.072C6.813 6.447 6.688 6.884 6.5 7.197C6.313 7.572 6.063 7.884 5.75 8.134C5.063 8.634 4.25 8.884 3.438 8.822C2.813 8.822 2.188 8.697 1.625 8.322C1.125 8.009 0.688 7.572 0.438 7.009C0.125 6.384 0 5.697 0 5.009L0 3.884C0 3.197 0.125 2.509 0.438 1.884C0.688 1.322 1.125 0.822 1.688 0.509C2.25 0.197 2.875 0.009 3.563 0.009C4.375 -0.053 5.25 0.197 5.875 0.759C6.438 1.259 6.813 2.009 6.875 2.822L6.063 2.822C6.063 2.197 5.75 1.634 5.313 1.259C4.875 0.822 4.313 0.634 3.688 0.634C3.625 0.634 3.563 0.634 3.5 0.634C3.125 0.634 2.75 0.697 2.438 0.822C2.125 0.947 1.813 1.197 1.563 1.447C1.063 2.134 0.75 3.009 0.813 3.822L0.813 4.884C0.75 5.759 1 6.572 1.5 7.259C1.75 7.572 2.063 7.759 2.375 7.947C2.688 8.072 3.063 8.197 3.438 8.134C4.063 8.197 4.75 8.009 5.25 7.572C5.688 7.134 6 6.572 6 5.947L6.813 6.072Z" fill="rgb(86,88,89)" fill-opacity="1.000" fill-rule="nonzero" transform="matrix(1 0 0 1 83.3695 15.8655)"/><path d="M7.194 4.813C7.194 5.563 7.069 6.25 6.757 6.937C6.507 7.5 6.069 8 5.507 8.313C4.944 8.625 4.257 8.813 3.632 8.813C3.132 8.813 2.694 8.75 2.194 8.562C1.757 8.375 1.319 8.125 1.007 7.75C0.319 6.937 -0.056 5.937 0.007 4.875L0.007 3.937C0.007 3.25 0.132 2.5 0.444 1.875C0.694 1.313 1.132 0.813 1.694 0.5C2.257 0.188 2.882 0 3.569 0C4.194 0 4.882 0.125 5.444 0.5C6.007 0.813 6.444 1.313 6.694 1.875C7.007 2.5 7.132 3.188 7.132 3.875L7.194 4.813ZM6.382 3.937C6.444 3.062 6.194 2.188 5.632 1.5C5.132 0.938 4.382 0.625 3.694 0.625C2.944 0.625 2.194 0.875 1.694 1.375C1.632 1.438 1.632 1.438 1.569 1.5C1.007 2.188 0.757 3.062 0.819 4L0.819 4.875C0.757 5.75 1.069 6.625 1.569 7.25C1.819 7.5 2.132 7.75 2.444 7.875C2.757 8 3.132 8.125 3.507 8.125C3.882 8.125 4.257 8.062 4.569 7.938C4.882 7.813 5.257 7.625 5.507 7.375C5.569 7.312 5.569 7.312 5.632 7.25C6.132 6.563 6.444 5.688 6.382 4.75L6.382 3.937Z" fill="rgb(86,88,89)" fill-opacity="1.000" fill-rule="nonzero" transform="matrix(1 0 0 1 90.988 15.9375)"/><path d="M3.313 11.33L3.313 17.955L0 17.955L0 0.017L7.375 0.017C9.188 -0.108 11 0.455 12.438 1.58C13.063 2.08 13.563 2.705 13.875 3.392C14.188 4.08 14.375 4.892 14.312 5.705C14.375 6.517 14.188 7.267 13.875 8.017C13.563 8.705 13.063 9.392 12.438 9.83C10.937 10.892 9.063 11.392 7.25 11.267L3.313 11.33ZM3.313 8.83L7.313 8.83C8.313 8.892 9.25 8.58 10 8.017C10.313 7.767 10.563 7.392 10.75 7.017C10.937 6.642 11 6.205 10.937 5.767C10.937 5.33 10.875 4.892 10.688 4.517C10.5 4.142 10.25 3.767 9.938 3.455C9.188 2.83 8.25 2.517 7.313 2.58L3.188 2.58L3.188 8.83L3.313 8.83Z" fill="rgb(86,88,89)" fill-opacity="1.000" fill-rule="nonzero" transform="matrix(1 0 0 1 60.5571 27.1078)"/><path d="M3.313 17.938L0 17.938L0 0L3.313 0L3.313 17.938Z" fill="rgb(86,88,89)" fill-opacity="1.000" fill-rule="nonzero" transform="matrix(1 0 0 1 76.6821 27.1249)"/><path d="M15.187 17.938L11.875 17.938L3.25 5.187L3.25 17.938L0 17.938L0 0L3.312 0L11.875 12.75L11.875 0L15.188 0L15.187 17.938Z" fill="rgb(86,88,89)" fill-opacity="1.000" fill-rule="nonzero" transform="matrix(1 0 0 1 82.7448 27.1249)"/><path d="M11.25 9.938L3.375 9.938L3.375 15.438L12.562 15.438L12.562 17.938L0 17.938L0 0L12.437 0L12.437 2.5L3.313 2.5L3.313 7.438L11.187 7.438L11.187 9.938L11.25 9.938Z" fill="rgb(86,88,89)" fill-opacity="1.000" fill-rule="nonzero" transform="matrix(1 0 0 1 100.4947 27.1249)"/><path d="M0 2.125L3.438 4.813L6.875 2.125L6.875 0L3.438 2.875L0 0L0 2.125Z" fill="rgb(102,23,57)" fill-opacity="1.000" fill-rule="nonzero" transform="matrix(1 0 0 1 37.7447 42.1875)"/><path d="M0 0L0 2.125L3.438 4.813L6.875 2.125L6.875 0L3.438 2.875L0 0Z" fill="rgb(102,23,57)" fill-opacity="1.000" fill-rule="nonzero" transform="matrix(1 0 0 1 37.7447 34.8125)"/><path d="M0 0L0 2.125L3.438 4.813L6.875 2.125L6.875 0L3.438 2.875L0 0Z" fill="rgb(102,23,57)" fill-opacity="1.000" fill-rule="nonzero" transform="matrix(1 0 0 1 26.6198 42.1875)"/><path d="M32.375 0L3.875 0C2.875 0 1.875 0.437 1.125 1.125C0.375 1.875 0 2.875 0 3.875L0 31.938C0 32.563 0.125 33.125 0.375 33.625C0.625 34.188 1 34.625 1.5 35L1.5 34L4.937 31.313L4.937 29.188L1.5 32.063L1.5 26.625L7.062 22.25L12.625 26.625L16.063 23.938L16.063 21.875L12.625 24.75L12.625 19.312L18.188 14.938L23.75 19.312L27.188 16.625L27.188 14.5L23.75 17.375L23.75 11.875L29.312 7.5L34.875 11.875L34.875 17.313L31.437 14.437L31.437 16.563L34.875 19.312L34.875 24.75L31.437 21.875L31.437 23.938L34.875 26.625L34.875 32.063L31.437 29.188L31.437 31.313L34.875 34L34.875 35C35.312 34.625 35.688 34.188 36 33.625C36.313 33.063 36.375 32.5 36.375 31.938L36.375 3.937C36.375 2.875 35.937 1.937 35.25 1.187C34.437 0.437 33.438 0 32.375 0Z" fill="rgb(102,23,57)" fill-opacity="1.000" fill-rule="nonzero" transform="matrix(1 0 0 1 17.4946 13)"/></svg>