<svg xmlns="http://www.w3.org/2000/svg" viewBox="0 0 60 60" width="60" height="60"><path d="M0 0L60 0L60 60L0 60L0 0Z" fill="rgb(255,255,255)" fill-opacity="1.000" fill-rule="nonzero" transform="matrix(1 0 0 1 0 0)"/><path d="M0.521 0.002L0 3.326C7.398 4.824 13.997 8.541 19.058 13.757L26.669 8.775C26.669 8.775 27.547 8.185 27.955 8.678C27.955 8.678 28.353 9.062 27.588 9.883L21.338 16.346C25.74 21.823 28.595 28.582 29.246 35.965L32.806 35.965L38.45 0L0.521 0.002Z" fill="rgb(0,173,239)" fill-opacity="1.000" fill-rule="evenodd" transform="matrix(1 0 0 1 13.0521 12.0354)"/><path d="M11.919 18.252L11.57 17.832L19.708 8.716C15.326 4.396 9.729 1.304 3.476 0L0.16 21.137C-0.42 25.1 0.304 28.597 6.93 28.597L29.24 28.597C28.621 22.359 26.231 16.633 22.574 11.931L11.919 18.252Z" fill="rgb(23,62,125)" fill-opacity="1.000" fill-rule="evenodd" transform="matrix(1 0 0 1 8.9416 19.4026)"/></svg>