<svg xmlns="http://www.w3.org/2000/svg" viewBox="0 0 130 60" width="130" height="60"><defs><linearGradient id="g74" gradientUnits="userSpaceOnUse" x1="-3.52" y1="29.31" x2="126.48" y2="29.31"><stop offset="0.0%" stop-color="rgb(0,20,55)" stop-opacity="1.000"/><stop offset="21.0%" stop-color="rgb(0,33,78)" stop-opacity="1.000"/><stop offset="54.0%" stop-color="rgb(0,51,110)" stop-opacity="1.000"/><stop offset="81.0%" stop-color="rgb(0,63,129)" stop-opacity="1.000"/><stop offset="100.0%" stop-color="rgb(0,67,136)" stop-opacity="1.000"/></linearGradient></defs><path d="M0 0L130 0L130 60L0 60L0 0Z" fill="rgb(255,255,255)" fill-opacity="1.000" fill-rule="nonzero" transform="matrix(1 0 0 1 0 0)"/><path d="M1.784 0L20.482 0C21.467 0 22.266 0.799 22.266 1.784L22.266 19.384C22.266 20.368 21.467 21.167 20.482 21.167L1.784 21.167C0.799 21.167 0 20.368 0 19.384L0 1.784C0 0.799 0.799 0 1.784 0Z" fill="rgb(255,255,255)" fill-opacity="1.000" fill-rule="nonzero" transform="matrix(1 0 0 1 19.0753 19.3929)"/><path d="M22.266 0L0 0L0 21.167L22.266 21.167L22.266 0Z" fill="url(#g74)" fill-rule="nonzero" transform="matrix(1 0 0 1 19.0753 19.3929)"/><path d="M2.173 0.786C1.409 0.786 0.786 1.409 0.786 2.18L0.786 19.82C0.786 20.591 1.409 21.214 2.173 21.214L20.837 21.214C21.602 21.214 22.224 20.591 22.224 19.82L22.224 2.18C22.224 1.409 21.602 0.786 20.837 0.786L2.173 0.786ZM0 2.18C0 0.978 0.972 0 2.173 0L20.837 0C22.038 0 23.01 0.978 23.01 2.18L23.01 19.82C23.01 21.022 22.038 22 20.837 22L2.173 22C0.972 22 0 21.022 0 19.82L0 2.18Z" fill="rgb(198,198,198)" fill-opacity="1.000" fill-rule="evenodd" transform="matrix(1 0 0 1 18.6997 19)"/><path d="M0.958 0L0.669 0L0 1.212L1.616 1.212L0.958 0Z" fill="rgb(198,198,198)" fill-opacity="1.000" fill-rule="nonzero" transform="matrix(1 0 0 1 34.2453 23.6357)"/><path d="M16.021 0L14.274 0L10.238 9.288L5.62 0.753L5.346 0.753L0 10.506L1.262 10.506L2.901 7.552L5.478 3.171L6.663 5.098L7.08 5.827L7.499 6.536L8.202 7.818L9.677 10.506L9.712 10.506L10.897 10.506L10.971 10.506L12.735 6.762L13.251 5.664L15.147 0.842L17.118 5.664L17.203 5.854L17.353 6.203L17.607 6.762L19.388 10.506L20.608 10.506L16.021 0Z" fill="rgb(198,198,198)" fill-opacity="1.000" fill-rule="nonzero" transform="matrix(1 0 0 1 19.9007 25.858)"/><path d="M2.054 1.906C2.284 1.958 2.47 2.083 2.614 2.275C2.758 2.469 2.829 2.694 2.829 2.953C2.829 3.265 2.726 3.524 2.521 3.731C2.316 3.939 2.059 4.041 1.751 4.041L0 4.041L0 0L1.612 0C1.893 0 2.13 0.095 2.318 0.287C2.509 0.476 2.601 0.716 2.601 1.003C2.601 1.205 2.55 1.389 2.445 1.554C2.34 1.719 2.208 1.836 2.049 1.903M1.534 0.332L0.342 0.332L0.342 1.791L1.534 1.791C1.727 1.791 1.891 1.721 2.03 1.579C2.169 1.437 2.237 1.265 2.237 1.06C2.237 0.856 2.169 0.678 2.035 0.541C1.9 0.402 1.732 0.334 1.531 0.334M1.668 3.717C1.893 3.717 2.079 3.639 2.23 3.485C2.382 3.33 2.455 3.135 2.455 2.906C2.455 2.676 2.379 2.487 2.23 2.332C2.081 2.178 1.893 2.103 1.668 2.103L0.337 2.103L0.337 3.719L1.668 3.719L1.668 3.717Z" fill="rgb(198,198,198)" fill-opacity="1.000" fill-rule="nonzero" transform="matrix(1 0 0 1 47.5801 23.6357)"/><path d="M3.438 4.041L2.976 2.933L0.855 2.933L0.394 4.041L0 4.041L1.703 0L2.136 0L3.839 4.041L3.432 4.041L3.438 4.041ZM0.997 2.599L2.844 2.599L1.919 0.387L0.999 2.599L0.997 2.599Z" fill="rgb(198,198,198)" fill-opacity="1.000" fill-rule="nonzero" transform="matrix(1 0 0 1 51.8229 23.6357)"/><path d="M3.057 0L3.435 0L3.435 4.041L3.029 4.041L0.37 0.576L0.37 4.041L0 4.041L0 0L0.401 0L3.057 3.465L3.057 0Z" fill="rgb(198,198,198)" fill-opacity="1.000" fill-rule="nonzero" transform="matrix(1 0 0 1 57.4802 23.6357)"/><path d="M2.095 4.243C1.801 4.243 1.526 4.187 1.266 4.079C1.006 3.97 0.783 3.821 0.599 3.634C0.414 3.447 0.268 3.222 0.161 2.959C0.055 2.696 0 2.418 0 2.12C0 1.723 0.092 1.365 0.275 1.041C0.458 0.718 0.708 0.462 1.028 0.278C1.347 0.094 1.704 0 2.095 0C2.459 0 2.794 0.083 3.098 0.248C3.403 0.412 3.65 0.637 3.839 0.92L3.524 1.114C3.371 0.879 3.17 0.692 2.92 0.558C2.67 0.422 2.397 0.356 2.095 0.356C1.773 0.356 1.481 0.432 1.219 0.586C0.956 0.738 0.748 0.95 0.597 1.218C0.446 1.488 0.372 1.787 0.372 2.118C0.372 2.365 0.416 2.598 0.505 2.818C0.594 3.037 0.716 3.225 0.867 3.379C1.018 3.533 1.201 3.657 1.414 3.748C1.627 3.839 1.855 3.881 2.095 3.881C2.395 3.881 2.67 3.813 2.92 3.679C3.17 3.545 3.371 3.358 3.524 3.123L3.839 3.318C3.65 3.601 3.403 3.826 3.098 3.993C2.794 4.157 2.459 4.24 2.095 4.24" fill="rgb(198,198,198)" fill-opacity="1.000" fill-rule="nonzero" transform="matrix(1 0 0 1 62.7334 23.4337)"/><path d="M2.022 4.243C1.74 4.243 1.472 4.187 1.221 4.078C0.97 3.97 0.755 3.82 0.578 3.633C0.399 3.446 0.258 3.221 0.155 2.96C0.053 2.697 0 2.419 0 2.12C0 1.723 0.088 1.364 0.265 1.04C0.442 0.716 0.683 0.463 0.992 0.276C1.3 0.091 1.644 0 2.022 0C2.399 0 2.741 0.091 3.049 0.276C3.357 0.46 3.601 0.716 3.776 1.04C3.952 1.364 4.041 1.723 4.041 2.12C4.041 2.419 3.988 2.697 3.885 2.96C3.78 3.223 3.639 3.446 3.463 3.633C3.283 3.82 3.071 3.97 2.82 4.078C2.569 4.187 2.304 4.243 2.022 4.243ZM2.022 3.886C2.332 3.886 2.614 3.81 2.868 3.656C3.121 3.504 3.319 3.292 3.465 3.021C3.611 2.75 3.682 2.449 3.682 2.118C3.682 1.786 3.611 1.488 3.465 1.217C3.319 0.946 3.121 0.736 2.868 0.582C2.614 0.43 2.332 0.352 2.022 0.352C1.711 0.352 1.429 0.428 1.176 0.582C0.922 0.734 0.722 0.946 0.576 1.217C0.43 1.488 0.358 1.786 0.358 2.118C0.358 2.365 0.401 2.598 0.488 2.818C0.574 3.038 0.691 3.226 0.836 3.38C0.982 3.534 1.159 3.658 1.364 3.749C1.57 3.841 1.79 3.884 2.022 3.884" fill="rgb(198,198,198)" fill-opacity="1.000" fill-rule="nonzero" transform="matrix(1 0 0 1 68.3901 23.4337)"/><path d="M3.595 4.691C2.865 4.143 2.434 3.803 2.302 3.674C2.06 3.428 1.896 3.202 1.806 2.993C1.716 2.785 1.669 2.572 1.669 2.348C1.669 1.983 1.799 1.676 2.053 1.427C2.309 1.176 2.638 1.052 3.042 1.052C3.355 1.052 3.645 1.134 3.909 1.296C4.175 1.457 4.494 1.792 4.87 2.301L5.687 1.67C5.229 1.033 4.795 0.596 4.384 0.357C3.973 0.119 3.532 0 3.062 0C2.618 0 2.205 0.104 1.826 0.315C1.447 0.526 1.153 0.814 0.944 1.179C0.735 1.544 0.63 1.948 0.63 2.393C0.63 2.951 0.807 3.473 1.161 3.952C1.365 4.237 1.883 4.704 2.72 5.344C3.55 5.982 4.123 6.528 4.434 6.98C4.661 7.308 4.776 7.643 4.776 7.985C4.776 8.285 4.698 8.569 4.544 8.837C4.389 9.105 4.165 9.318 3.871 9.477C3.577 9.636 3.261 9.715 2.925 9.715C2.14 9.715 1.447 9.154 0.85 8.032L0 8.551C0.418 9.328 0.874 9.882 1.368 10.212C1.861 10.542 2.414 10.708 3.022 10.708C3.811 10.708 4.482 10.435 5.032 9.891C5.583 9.345 5.859 8.705 5.859 7.965C5.859 7.451 5.697 6.943 5.376 6.434C5.054 5.925 4.459 5.347 3.592 4.694" fill="rgb(198,198,198)" fill-opacity="1.000" fill-rule="nonzero" transform="matrix(1 0 0 1 78.8965 29.8988)"/><path d="M4.856 0L0 10.506L1.148 10.506L2.748 7.05L3.218 6.035L4.979 2.231L6.729 6.035L6.807 6.211L6.944 6.533L7.174 7.05L8.79 10.506L9.9 10.506L5.109 0L4.856 0Z" fill="rgb(198,198,198)" fill-opacity="1.000" fill-rule="nonzero" transform="matrix(1 0 0 1 67.582 30.101)"/><path d="M13.58 0L9.296 9.333L5.07 0L4.819 0L0 10.506L1.137 10.506L2.726 7.05L3.193 6.036L4.941 2.233L6.682 6.036L6.756 6.212L6.893 6.532L7.124 7.05L8.728 10.506L8.757 10.506L9.828 10.506L9.897 10.506L11.486 7.05L11.953 6.036L13.701 2.233L15.442 6.036L15.516 6.212L15.653 6.532L15.881 7.05L17.485 10.506L18.588 10.506L13.83 0L13.58 0Z" fill="rgb(198,198,198)" fill-opacity="1.000" fill-rule="nonzero" transform="matrix(1 0 0 1 47.3783 30.101)"/><path d="M0 1.03L2.219 1.03L2.219 10.506L3.234 10.506L3.234 1.03L5.455 1.03L5.455 0L0 0L0 1.03Z" fill="rgb(198,198,198)" fill-opacity="1.000" fill-rule="nonzero" transform="matrix(1 0 0 1 87.5839 30.101)"/><path d="M0 10.506L5.817 10.506L5.817 9.479L1.023 9.479L1.023 5.351L5.817 5.351L5.817 4.321L1.023 4.321L1.023 1.03L5.859 1.03L5.859 0L0 0L0 10.506Z" fill="rgb(198,198,198)" fill-opacity="1.000" fill-rule="nonzero" transform="matrix(1 0 0 1 96.0701 30.101)"/><path d="M2.831 5.626C3.677 5.621 4.343 5.507 4.822 5.287C5.305 5.066 5.673 4.738 5.932 4.304C6.19 3.87 6.32 3.366 6.32 2.796C6.32 2.109 6.133 1.531 5.757 1.062C5.381 0.593 4.894 0.285 4.294 0.144C3.895 0.05 3.135 0 2.012 0L0 0L0 10.506L1.011 10.506L1.011 5.629L1.581 5.629L5.216 10.506L6.465 10.506L2.831 5.629L2.831 5.626ZM1.011 4.597L1.011 1.027L2.794 1.027C3.487 1.027 3.981 1.089 4.279 1.213C4.577 1.337 4.818 1.543 5.002 1.831C5.187 2.119 5.277 2.439 5.277 2.791C5.277 3.143 5.187 3.481 5.005 3.773C4.822 4.066 4.572 4.279 4.247 4.413C3.922 4.547 3.426 4.614 2.749 4.614L1.008 4.599L1.011 4.597Z" fill="rgb(198,198,198)" fill-opacity="1.000" fill-rule="nonzero" transform="matrix(1 0 0 1 105.3633 30.101)"/></svg>