<svg xmlns="http://www.w3.org/2000/svg" viewBox="0 0 130 60" width="130" height="60"><path d="M0 0L130 0L130 60L0 60L0 0Z" fill="rgb(255,255,255)" fill-opacity="1.000" fill-rule="nonzero" transform="matrix(1 0 0 1 0 0)"/><path d="M90.629 23.397L90.629 20.492L94.087 20.492L94.087 18.544L90.629 18.544L90.629 15.844L95.113 15.844L95.113 13.862L88.471 13.862L88.471 25.073C90.731 25.721 92.854 26.063 95.456 26.13L95.456 24.115C93.812 24.047 92.202 23.807 90.629 23.397ZM98.092 24.047C99.256 23.945 100.215 23.706 100.899 23.363C101.345 23.123 101.721 22.714 101.653 22.098C101.551 21.244 100.591 20.868 99.907 20.56C99.051 20.185 98.161 19.775 97.51 19.16C96.791 18.442 96.551 17.588 96.586 16.698C96.724 14.751 98.434 13.657 100.249 13.657C101.516 13.657 102.612 14.067 103.467 14.922L102.064 16.357C102.064 16.357 101.243 15.605 100.249 15.605C99.394 15.605 98.811 16.05 98.777 16.733C98.708 17.69 99.975 18.203 100.66 18.51C101.686 18.989 102.44 19.399 103.023 19.911C103.605 20.492 104.083 21.313 104.015 22.339C103.845 24.491 101.858 25.481 100.044 25.858C99.119 26.028 98.058 26.13 96.654 26.13L96.654 24.081C97.27 24.081 97.989 24.047 98.092 24.047ZM63.476 25.379L63.476 13.862L70.119 13.862L70.119 15.844L65.667 15.844L65.667 18.544L69.126 18.544L69.126 20.492L65.667 20.492L65.667 23.397L70.119 23.397L70.119 25.378L63.476 25.379ZM74.879 25.586C73.645 25.551 72.447 25.208 71.522 24.423L71.284 24.183L72.687 22.714L72.927 22.953C73.475 23.431 74.263 23.568 74.912 23.568C75.906 23.568 76.522 23.123 76.59 22.339C76.659 21.381 75.459 20.868 74.775 20.56C73.851 20.15 72.995 19.74 72.378 19.126C71.66 18.476 71.419 17.588 71.454 16.698C71.626 14.717 73.371 13.657 75.118 13.657C75.871 13.657 76.556 13.76 77.206 14.067L77.206 16.186C76.281 15.742 75.7 15.605 75.152 15.605L75.118 15.605C74.262 15.605 73.714 16.05 73.645 16.733C73.576 17.69 74.844 18.203 75.528 18.51C76.556 18.988 77.309 19.399 77.857 19.946C78.575 20.628 78.815 21.517 78.746 22.372C78.575 24.491 76.83 25.586 74.879 25.586ZM59.677 25.448L54.267 18.066L54.267 25.379L52.144 25.379L52.144 13.862L53.923 13.862L59.06 20.868L59.06 13.862L61.183 13.862L61.183 25.448L59.677 25.448ZM44.613 20.116L45.878 16.186L47.145 20.116L44.613 20.116ZM47.145 13.862L44.645 13.862L40.675 25.379L42.9 25.379L44.03 21.962L47.761 21.962L48.858 25.379L51.22 25.379L47.145 13.862ZM36.154 23.499L34.716 23.499L34.716 20.39L35.949 20.39C36.942 20.39 38.175 20.662 38.175 21.962C38.175 23.09 37.182 23.466 36.154 23.499ZM34.716 15.742L35.881 15.742C36.771 15.742 37.867 16.015 37.867 17.142C37.867 18.27 36.875 18.647 35.848 18.681L34.716 18.681L34.716 15.742ZM38.654 19.433C39.51 19.022 40.058 17.963 40.058 16.972C40.058 16.527 39.989 16.117 39.819 15.742C39.167 14.306 37.457 13.896 35.916 13.862L32.56 13.862L32.56 25.378L36.121 25.378C37.387 25.378 38.483 25.072 39.237 24.457C39.956 23.875 40.366 23.021 40.366 22.03C40.366 21.38 40.195 20.697 39.681 20.15C39.408 19.877 39.065 19.603 38.654 19.433ZM81.794 25.447L81.794 15.844L78.918 15.844L78.918 13.862L86.861 13.862L86.861 15.844L83.985 15.844L83.985 25.447L81.794 25.447ZM23.483 26.489C22.796 27.124 21.968 27.593 20.803 28.011L6.868 32.852L6.868 20.868L17.131 14.962L17.14 14.957C17.352 14.829 17.532 14.705 17.706 14.584C17.739 14.562 17.772 14.538 17.805 14.516C20.239 14.625 22.098 15.284 23.484 16.529C24.942 17.904 25.651 19.533 25.651 21.508C25.651 23.485 24.94 25.114 23.483 26.489ZM15.639 14.509L6.868 19.558L6.868 14.509L15.639 14.509ZM5.73 31.552L1.348 24.06L5.73 21.526L5.73 31.552ZM11.353 1.135C14.189 1.135 16.284 1.796 17.754 3.155C19.192 4.483 19.922 6.158 19.922 8.135C19.922 10.256 19.044 12.109 17.447 13.374L5.73 13.374L5.73 20.214L1.138 22.869L1.138 1.136L11.353 1.135ZM24.26 15.698L24.25 15.69C22.913 14.487 21.152 13.745 19.003 13.478C20.323 12.057 21.06 10.172 21.06 8.135C21.06 5.829 20.207 3.873 18.526 2.321C16.836 0.759 14.49 0 11.353 0L0 0L0 24.008L6.044 34.341L21.182 29.083C22.485 28.615 23.462 28.057 24.26 27.318C25.938 25.738 26.789 23.784 26.789 21.509C26.789 19.235 25.938 17.279 24.26 15.698Z" fill="rgb(0,75,141)" fill-opacity="1.000" fill-rule="nonzero" transform="matrix(1 0 0 1 13 13)"/></svg>