<svg xmlns="http://www.w3.org/2000/svg" viewBox="0 0 60 60" width="60" height="60"><defs><linearGradient id="g73" gradientUnits="userSpaceOnUse" x1="-1.62" y1="29.31" x2="58.38" y2="29.31"><stop offset="0.0%" stop-color="rgb(0,20,55)" stop-opacity="1.000"/><stop offset="21.0%" stop-color="rgb(0,33,78)" stop-opacity="1.000"/><stop offset="54.0%" stop-color="rgb(0,51,110)" stop-opacity="1.000"/><stop offset="81.0%" stop-color="rgb(0,63,129)" stop-opacity="1.000"/><stop offset="100.0%" stop-color="rgb(0,67,136)" stop-opacity="1.000"/></linearGradient></defs><path d="M0 0L60 0L60 60L0 60L0 0Z" fill="rgb(43,86,192)" fill-opacity="1.000" fill-rule="nonzero" transform="matrix(1 0 0 1 0 0)"/><path d="M5.127 0L58.874 0C61.705 0 64 2.415 64 5.393L64 58.608C64 61.585 61.705 64 58.874 64L5.127 64C2.296 64 0 61.585 0 58.608L0 5.393C0 2.415 2.296 0 5.127 0Z" fill="rgb(255,255,255)" fill-opacity="1.000" fill-rule="nonzero" transform="matrix(1 0 0 1 -2.0001 -1.9999)"/><path d="M64 0L0 0L0 64L64 64L64 0Z" fill="url(#g73)" fill-rule="nonzero" transform="matrix(1 0 0 1 -2.0001 -1.9999)"/><path d="M3.556 1.286C2.305 1.286 1.286 2.305 1.286 3.568L1.286 32.432C1.286 33.695 2.305 34.714 3.556 34.714L34.097 34.714C35.348 34.714 36.367 33.695 36.367 32.432L36.367 3.568C36.367 2.305 35.348 1.286 34.097 1.286L3.556 1.286ZM0 3.568C0 1.6 1.59 0 3.556 0L34.097 0C36.063 0 37.653 1.6 37.653 3.568L37.653 32.432C37.653 34.4 36.063 36 34.097 36L3.556 36C1.59 36 0 34.4 0 32.432L0 3.568Z" fill="rgb(198,198,198)" fill-opacity="1.000" fill-rule="evenodd" transform="matrix(1 0 0 1 10.6787 12)"/><path d="M1.568 0L1.094 0L0 1.984L2.645 1.984L1.568 0Z" fill="rgb(198,198,198)" fill-opacity="1.000" fill-rule="nonzero" transform="matrix(1 0 0 1 36.1168 19.5858)"/><path d="M26.216 0L23.358 0L16.753 15.198L9.197 1.233L8.748 1.233L0 17.192L2.066 17.192L4.748 12.358L8.964 5.188L10.903 8.342L11.585 9.535L12.271 10.695L13.422 12.793L15.835 17.192L15.892 17.192L17.831 17.192L17.953 17.192L20.839 11.065L21.684 9.269L24.787 1.378L28.012 9.269L28.15 9.579L28.395 10.151L28.812 11.065L31.726 17.192L33.723 17.192L26.216 0Z" fill="rgb(198,198,198)" fill-opacity="1.000" fill-rule="nonzero" transform="matrix(1 0 0 1 12.6443 23.2221)"/></svg>