<svg xmlns="http://www.w3.org/2000/svg" viewBox="0 0 60 60" width="60" height="60"><path d="M0 0L60 0L60 60L0 60L0 0Z" fill="rgb(252,121,0)" fill-opacity="1.000" fill-rule="nonzero" transform="matrix(1 0 0 1 0 0)"/><path d="M2.135 0C3.112 0 3.831 0.575 3.831 1.366C3.831 1.84 3.55 2.235 3.141 2.393C3.665 2.516 4.032 2.947 4.032 3.529C4.032 4.356 3.234 4.959 2.149 4.959L0 4.959L0 0L2.135 0ZM1.222 1.006L1.222 1.948L2.063 1.948C2.393 1.948 2.595 1.775 2.595 1.481C2.595 1.186 2.394 1.006 2.063 1.006L1.222 1.006ZM2.142 3.953C2.53 3.953 2.76 3.759 2.76 3.436C2.76 3.113 2.53 2.919 2.142 2.919L1.222 2.919L1.222 3.954L2.142 3.954L2.142 3.953Z" fill="rgb(35,35,47)" fill-opacity="1.000" fill-rule="nonzero" transform="matrix(1 0 0 1 18.5012 26.3654)"/><path d="M3.557 4.06L1.574 4.06L1.258 4.959L0 4.959L1.869 0L3.335 0L5.203 4.959L3.874 4.959L3.557 4.06ZM1.926 3.054L3.205 3.054L2.566 1.243L1.926 3.054Z" fill="rgb(35,35,47)" fill-opacity="1.000" fill-rule="nonzero" transform="matrix(1 0 0 1 22.6126 26.3659)"/><path d="M1.222 2.034L1.222 4.959L0 4.959L0 0L1.15 0L3.184 2.997L3.184 0L4.406 0L4.406 4.959L3.256 4.959L1.222 2.034Z" fill="rgb(35,35,47)" fill-opacity="1.000" fill-rule="nonzero" transform="matrix(1 0 0 1 28.1471 26.3654)"/><path d="M4.147 4.787C3.731 5.031 3.292 5.103 2.681 5.103C1.128 5.103 0 4.032 0 2.566C0 1.085 1.143 0 2.71 0C3.299 0 3.752 0.108 4.075 0.331L4.075 1.473C3.637 1.186 3.17 1.114 2.731 1.114C1.819 1.114 1.272 1.653 1.272 2.552C1.272 3.45 1.819 3.989 2.746 3.989C3.27 3.989 3.731 3.881 4.147 3.644L4.147 4.787Z" fill="rgb(35,35,47)" fill-opacity="1.000" fill-rule="nonzero" transform="matrix(1 0 0 1 33.0842 26.294)"/><path d="M2.616 0C4.126 0 5.232 1.078 5.232 2.552C5.232 4.025 4.126 5.103 2.609 5.103C1.107 5.103 0 4.025 0 2.559C0 1.085 1.107 0 2.616 0ZM2.623 1.114C1.775 1.114 1.272 1.653 1.272 2.552C1.272 3.45 1.775 3.989 2.623 3.989C3.464 3.989 3.96 3.45 3.96 2.552C3.961 1.653 3.464 1.114 2.623 1.114Z" fill="rgb(35,35,47)" fill-opacity="1.000" fill-rule="nonzero" transform="matrix(1 0 0 1 37.5622 26.2937)"/><path d="M1.818 3.184L1.222 3.184L1.222 4.959L0 4.959L0 0L2.027 0C3.141 0 3.96 0.661 3.96 1.567C3.96 2.192 3.586 2.709 3.011 2.975L4.183 4.959L2.767 4.959L1.818 3.184ZM1.221 1.078L1.221 2.142L2.026 2.142C2.443 2.142 2.687 1.941 2.687 1.61C2.687 1.279 2.443 1.078 2.026 1.078L1.221 1.078Z" fill="rgb(35,35,47)" fill-opacity="1.000" fill-rule="nonzero" transform="matrix(1 0 0 1 44.7508 26.3654)"/><path d="M4.147 4.787C3.731 5.031 3.292 5.103 2.681 5.103C1.128 5.103 0 4.032 0 2.566C0 1.085 1.143 0 2.71 0C3.299 0 3.752 0.108 4.075 0.331L4.075 1.473C3.637 1.186 3.17 1.114 2.731 1.114C1.819 1.114 1.272 1.653 1.272 2.552C1.272 3.45 1.819 3.989 2.746 3.989C3.27 3.989 3.731 3.881 4.147 3.644L4.147 4.787Z" fill="rgb(35,35,47)" fill-opacity="1.000" fill-rule="nonzero" transform="matrix(1 0 0 1 49.0843 26.294)"/><path d="M1.222 4.959L0 4.959L0 0L1.222 0L1.222 4.959Z" fill="rgb(35,35,47)" fill-opacity="1.000" fill-rule="nonzero" transform="matrix(1 0 0 1 53.7779 26.3654)"/><path d="M10.878 5.429C10.878 8.427 8.444 10.857 5.44 10.857C2.435 10.857 0 8.426 0 5.429C0 2.43 2.435 0 5.44 0C8.444 0 10.878 2.43 10.878 5.429Z" fill="rgb(255,255,255)" fill-opacity="1.000" fill-rule="nonzero" transform="matrix(1 0 0 1 5.6797 23.3945)"/><path d="M1.148 0C1.727 0 2.114 0.306 2.114 0.762C2.114 1.068 1.944 1.302 1.663 1.4C2.016 1.476 2.238 1.744 2.238 2.11C2.238 2.608 1.821 2.935 1.182 2.935L0 2.935L0 0L1.148 0ZM0.438 0.37L0.438 1.242L1.178 1.242C1.459 1.242 1.667 1.076 1.667 0.799C1.667 0.531 1.459 0.37 1.127 0.37L0.438 0.37L0.438 0.37ZM1.17 2.569C1.561 2.569 1.778 2.391 1.778 2.08C1.778 1.782 1.561 1.595 1.225 1.595L0.438 1.595L0.438 2.569L1.17 2.569Z" fill="rgb(35,35,47)" fill-opacity="1.000" fill-rule="nonzero" transform="matrix(1 0 0 1 18.4987 33.2847)"/><path d="M1.076 1.727L0.438 1.727L0.438 2.935L0 2.935L0 0L1.14 0C1.736 0 2.174 0.357 2.174 0.851C2.174 1.246 1.91 1.553 1.519 1.672L2.306 2.935L1.791 2.935L1.076 1.727ZM0.438 0.391L0.438 1.348L1.14 1.348C1.489 1.348 1.715 1.153 1.715 0.863C1.715 0.583 1.493 0.391 1.14 0.391L0.438 0.391Z" fill="rgb(35,35,47)" fill-opacity="1.000" fill-rule="nonzero" transform="matrix(1 0 0 1 21.226 33.2847)"/><path d="M2.178 2.28L0.714 2.28L0.455 2.935L0 2.935L1.2 0L1.719 0L2.918 2.935L2.442 2.935L2.178 2.28ZM0.863 1.915L2.033 1.915L1.446 0.451L0.863 1.915Z" fill="rgb(35,35,47)" fill-opacity="1.000" fill-rule="nonzero" transform="matrix(1 0 0 1 23.6138 33.2845)"/><path d="M0 2.34C0.306 2.523 0.647 2.633 1.03 2.633C1.442 2.633 1.693 2.484 1.693 2.204C1.693 1.944 1.472 1.821 0.97 1.659C0.328 1.451 0.008 1.213 0.008 0.8C0.008 0.332 0.434 0 1.106 0C1.442 0 1.719 0.064 1.952 0.183L1.952 0.591C1.676 0.459 1.37 0.392 1.085 0.392C0.711 0.392 0.464 0.532 0.464 0.775C0.464 1.008 0.681 1.111 1.225 1.294C1.889 1.515 2.153 1.745 2.153 2.174C2.153 2.714 1.651 3.021 0.996 3.021C0.596 3.021 0.243 2.927 0 2.774L0 2.34L0 2.34Z" fill="rgb(35,35,47)" fill-opacity="1.000" fill-rule="nonzero" transform="matrix(1 0 0 1 26.6942 33.2424)"/><path d="M0.438 2.935L0 2.935L0 0L0.438 0L0.438 2.935Z" fill="rgb(35,35,47)" fill-opacity="1.000" fill-rule="nonzero" transform="matrix(1 0 0 1 29.277 33.2847)"/><path d="M0.438 2.549L1.97 2.549L1.97 2.935L0 2.935L0 0L0.438 0L0.438 2.549Z" fill="rgb(35,35,47)" fill-opacity="1.000" fill-rule="nonzero" transform="matrix(1 0 0 1 30.3367 33.2845)"/></svg>