<svg xmlns="http://www.w3.org/2000/svg" viewBox="0 0 130 60" width="130" height="60"><path d="M0 0L130 0L130 60L0 60L0 0Z" fill="rgb(255,255,255)" fill-opacity="1.000" fill-rule="nonzero" transform="matrix(1 0 0 1 0 0)"/><path d="M2.57 12.706C1.404 12.706 0.51 12.434 0 12.099L0 0L1.389 0L1.389 4.22C1.819 3.996 2.298 3.82 3.146 3.82C5.125 3.82 6.483 5.482 6.483 8.088C6.483 10.854 5.125 12.708 2.57 12.708L2.57 12.706ZM2.795 4.651C2.155 4.651 1.788 4.763 1.389 4.987L1.389 11.589C1.707 11.749 2.155 11.798 2.601 11.798C4.374 11.798 5.077 10.311 5.077 8.136C5.077 6.25 4.422 4.651 2.795 4.651Z" fill="rgb(20,98,93)" fill-opacity="1.000" fill-rule="nonzero" transform="matrix(1 0 0 1 50.5533 22.2804)"/><path d="M3.273 8.937C1.037 8.937 0 7.962 0 6.395C0 4.11 2.14 3.437 4.807 3.166L4.807 2.639C4.807 1.313 4.009 0.928 2.906 0.928C2.076 0.928 1.309 1.231 0.831 1.471L0.494 0.64C0.989 0.367 1.947 0 3.129 0C4.726 0 6.13 0.688 6.13 2.797L6.13 8.328C5.475 8.695 4.469 8.935 3.271 8.935L3.273 8.937ZM4.807 3.886C2.634 4.158 1.342 4.62 1.342 6.364C1.342 7.611 2.109 8.123 3.385 8.123C3.928 8.123 4.455 8.026 4.807 7.835L4.807 3.887L4.807 3.886Z" fill="rgb(20,98,93)" fill-opacity="1.000" fill-rule="nonzero" transform="matrix(1 0 0 1 58.5369 26.0502)"/><path d="M4.838 8.774L4.838 2.588C4.838 1.79 4.502 0.91 3.034 0.91C2.236 0.91 1.852 1.023 1.406 1.214L1.406 8.774L0 8.774L0 0.607C0.767 0.24 1.773 0 3.146 0C5.541 0 6.244 1.326 6.244 2.558L6.244 8.776L4.838 8.776L4.838 8.774Z" fill="rgb(20,98,93)" fill-opacity="1.000" fill-rule="nonzero" transform="matrix(1 0 0 1 66.9375 26.0517)"/><path d="M3.273 8.935C1.388 8.935 0 7.241 0 4.46C0 1.678 1.388 0 3.306 0C4.361 0 4.934 0.336 5.207 0.576L4.87 1.392C4.616 1.2 4.231 0.976 3.592 0.976C2.028 0.976 1.419 2.399 1.419 4.413C1.419 6.427 2.153 7.899 3.544 7.899C4.135 7.899 4.535 7.707 4.853 7.483L5.205 8.363C4.868 8.666 4.231 8.939 3.271 8.939L3.273 8.935Z" fill="rgb(20,98,93)" fill-opacity="1.000" fill-rule="nonzero" transform="matrix(1 0 0 1 75.1146 26.0517)"/><path d="M3.37 8.935C1.023 8.935 0 7.002 0 4.475C0 1.949 1.037 0 3.353 0C5.668 0 6.723 1.902 6.723 4.475C6.723 7.048 5.701 8.935 3.37 8.935ZM3.37 0.895C1.725 0.895 1.406 2.733 1.406 4.475C1.406 6.217 1.757 7.96 3.37 7.96C4.982 7.96 5.318 6.203 5.318 4.475C5.318 2.747 5.015 0.895 3.37 0.895Z" fill="rgb(20,98,93)" fill-opacity="1.000" fill-rule="nonzero" transform="matrix(1 0 0 1 81.6772 26.0517)"/><path d="M3.273 8.937C1.037 8.937 0 7.962 0 6.395C0 4.11 2.14 3.437 4.807 3.166L4.807 2.639C4.807 1.313 4.009 0.928 2.907 0.928C2.076 0.928 1.31 1.231 0.831 1.471L0.494 0.64C0.989 0.367 1.949 0 3.129 0C4.726 0 6.132 0.688 6.132 2.797L6.132 8.328C5.477 8.695 4.471 8.935 3.273 8.935L3.273 8.937ZM4.807 3.886C2.634 4.158 1.342 4.62 1.342 6.364C1.342 7.611 2.109 8.123 3.385 8.123C3.928 8.123 4.455 8.026 4.807 7.835L4.807 3.887L4.807 3.886Z" fill="rgb(20,98,93)" fill-opacity="1.000" fill-rule="nonzero" transform="matrix(1 0 0 1 94.3109 26.0502)"/><path d="M3.37 1.075C2.667 0.867 1.869 0.932 1.406 1.236L1.406 8.765L0 8.765L0 0.613C0.846 0.182 1.661 -0.042 3.704 0.006L3.368 1.077L3.37 1.075Z" fill="rgb(20,98,93)" fill-opacity="1.000" fill-rule="nonzero" transform="matrix(1 0 0 1 102.7102 26.0623)"/><path d="M2.571 12.706C1.404 12.706 0.51 12.434 0 12.099L0 0L1.389 0L1.389 4.22C1.819 3.996 2.298 3.82 3.146 3.82C5.126 3.82 6.483 5.482 6.483 8.088C6.483 10.854 5.126 12.708 2.571 12.708L2.571 12.706ZM2.794 4.651C2.155 4.651 1.788 4.763 1.389 4.987L1.389 11.589C1.707 11.749 2.155 11.798 2.602 11.798C4.374 11.798 5.077 10.311 5.077 8.136C5.077 6.25 4.422 4.651 2.794 4.651Z" fill="rgb(20,98,93)" fill-opacity="1.000" fill-rule="nonzero" transform="matrix(1 0 0 1 107.8526 22.2804)"/><path d="M0.83 1.55C0.367 1.55 0 1.198 0 0.783C0 0.367 0.367 0 0.83 0C1.294 0 1.645 0.352 1.645 0.783C1.645 1.214 1.278 1.55 0.83 1.55ZM0.127 11.829L0.127 3.213L1.533 3.213L1.533 11.829L0.127 11.829Z" fill="rgb(20,98,93)" fill-opacity="1.000" fill-rule="nonzero" transform="matrix(1 0 0 1 116.2365 22.9973)"/><path d="M23.536 1.5C21.433 0.539 19.098 0 16.636 0C7.447 0 0 7.456 0 16.652C0 21.904 2.431 26.586 6.226 29.638C8.02 26.431 17.68 9.161 19.388 6.02C20.641 3.715 22.084 2.327 23.534 1.502L23.536 1.5Z" fill="rgb(20,98,93)" fill-opacity="1.000" fill-rule="nonzero" transform="matrix(1 0 0 1 12 13.2432)"/><path d="M18.25 0.045C18.764 -0.873 11.307 12.479 10.141 14.626C7.001 20.406 2.661 20.414 0 20.288C2.727 22.243 6.064 23.397 9.674 23.397C14.357 23.397 18.584 21.458 21.609 18.34C21.468 17.572 19.677 7.768 18.252 0.045L18.25 0.045Z" fill="rgb(20,98,93)" fill-opacity="1.000" fill-rule="nonzero" transform="matrix(1 0 0 1 18.9639 23.1494)"/><path d="M8.387 16.441C8.273 15.859 8.08 14.84 7.835 13.528C7.791 13.292 7.744 13.046 7.698 12.793C7.066 9.403 6.159 4.473 5.338 0C5.334 0.006 3.664 2.992 1.491 6.882C1.014 7.736 0.514 8.631 0 9.549C1.425 17.272 3.217 27.077 3.356 27.844C3.362 27.875 3.366 27.894 3.366 27.894C5.274 26.389 9.83 23.816 8.387 16.443L8.387 16.441Z" fill="rgb(187,189,191)" fill-opacity="1.000" fill-rule="nonzero" transform="matrix(1 0 0 1 37.2144 13.647)"/><path d="M17.594 1.174C16.143 2.001 14.699 3.387 13.447 5.692C11.74 8.833 2.08 26.105 0.286 29.31C0.1 29.641 0 29.822 0 29.822C0.301 29.83 0.645 29.849 1.024 29.869C3.685 29.994 8.024 29.987 11.164 24.207C12.505 21.742 18.743 10.575 22.232 4.333C23.648 1.798 24.614 0.076 24.614 0.076C23.032 0.037 20.301 -0.367 17.595 1.174L17.594 1.174Z" fill="rgb(255,255,255)" fill-opacity="1.000" fill-rule="nonzero" transform="matrix(1 0 0 1 17.9424 13.5688)"/></svg>