<svg xmlns="http://www.w3.org/2000/svg" viewBox="0 0 60 60" width="60" height="60"><path d="M0 0L60 0L60 60L0 60L0 0Z" fill="rgb(0,31,95)" fill-opacity="1.000" fill-rule="nonzero" transform="matrix(1 0 0 1 0 0)"/><path d="M2.948 18.035C2.812 18.013 2.646 17.876 2.581 17.732C2.388 17.309 2.752 16.911 3.446 16.786C3.75 16.731 3.999 16.645 3.999 16.595C3.999 16.428 3.649 16.367 3.347 16.481C3.102 16.573 3.036 16.562 2.982 16.421C2.885 16.169 3.217 15.974 3.744 15.974C4.498 15.974 4.637 16.273 4.466 17.524L4.396 18.031L4.01 17.983C3.798 17.957 3.527 17.967 3.409 18.005C3.291 18.044 3.084 18.057 2.948 18.035ZM3.873 17.329C3.896 17.214 3.834 17.154 3.694 17.154C3.373 17.154 3.141 17.267 3.141 17.424C3.141 17.741 3.809 17.655 3.873 17.329ZM9.82 17.992C9.2 17.827 8.983 17.242 9.308 16.614C9.643 15.965 10.653 15.757 11.133 16.237C11.885 16.989 10.916 18.283 9.82 17.992ZM10.641 17.321C10.856 17.061 10.738 16.569 10.45 16.528C10.013 16.467 9.574 17.118 9.86 17.404C9.989 17.533 10.51 17.478 10.641 17.321ZM19.427 17.973C19.132 17.827 19.053 17.326 19.196 16.51C19.271 16.086 19.318 16.024 19.581 15.993L19.881 15.959L19.806 16.717L19.731 17.475L20.009 17.475C20.24 17.475 20.304 17.407 20.391 17.073C20.449 16.852 20.511 16.526 20.53 16.349C20.557 16.088 20.618 16.021 20.858 15.994C21.205 15.954 21.211 15.999 21.031 17.213L20.909 18.031L20.522 17.983C20.308 17.957 20.033 17.973 19.909 18.018C19.779 18.066 19.576 18.047 19.427 17.973ZM21.608 17.99C21.214 17.886 21.192 17.835 21.427 17.576C21.565 17.422 21.647 17.411 21.908 17.51C22.142 17.598 22.254 17.596 22.348 17.502C22.446 17.404 22.427 17.36 22.269 17.312C21.455 17.062 21.24 16.602 21.751 16.201C22.053 15.963 22.689 15.898 22.971 16.077C23.105 16.161 23.099 16.207 22.928 16.396C22.776 16.564 22.694 16.588 22.585 16.498C22.429 16.369 22.117 16.441 22.117 16.606C22.117 16.662 22.257 16.738 22.428 16.776C22.89 16.877 23.112 17.168 22.985 17.503C22.928 17.653 22.824 17.811 22.755 17.854C22.497 18.013 21.946 18.078 21.608 17.99ZM23.994 18.034C23.561 17.942 23.49 17.794 23.567 17.134C23.629 16.604 23.614 16.51 23.468 16.51C23.357 16.51 23.297 16.416 23.297 16.242C23.297 16.051 23.355 15.974 23.5 15.974C23.626 15.974 23.728 15.874 23.77 15.706C23.822 15.499 23.906 15.438 24.142 15.438C24.409 15.438 24.44 15.471 24.395 15.706C24.351 15.937 24.383 15.974 24.624 15.974C24.779 15.974 24.905 16.019 24.905 16.073C24.905 16.331 24.752 16.51 24.532 16.51C24.33 16.51 24.277 16.585 24.218 16.957C24.143 17.421 24.273 17.635 24.564 17.528C24.659 17.493 24.694 17.552 24.671 17.705C24.634 17.957 24.328 18.105 23.994 18.034ZM28.035 18.035C27.899 18.013 27.734 17.876 27.668 17.732C27.475 17.309 27.839 16.911 28.533 16.786C28.837 16.731 29.086 16.645 29.086 16.595C29.086 16.428 28.736 16.367 28.434 16.481C28.189 16.573 28.123 16.562 28.069 16.421C27.972 16.169 28.304 15.974 28.831 15.974C29.585 15.974 29.724 16.273 29.553 17.524L29.483 18.031L29.097 17.983C28.885 17.957 28.614 17.967 28.496 18.005C28.378 18.044 28.171 18.057 28.035 18.035ZM28.96 17.329C28.983 17.214 28.921 17.154 28.781 17.154C28.46 17.154 28.228 17.267 28.228 17.424C28.228 17.741 28.896 17.655 28.96 17.329ZM32.437 18.034C31.912 17.952 31.686 17.045 32.056 16.507C32.371 16.05 32.543 15.966 33.069 16.008L33.568 16.048L33.64 15.475C33.708 14.929 33.726 14.902 34.025 14.902C34.198 14.902 34.338 14.938 34.337 14.983C34.336 15.027 34.24 15.69 34.125 16.457C34.01 17.223 33.914 17.887 33.913 17.931C33.909 18.062 33.374 18.022 33.374 17.891C33.374 17.81 33.33 17.805 33.24 17.875C33.062 18.015 32.732 18.08 32.437 18.034ZM33.398 17.199C33.551 16.862 33.41 16.58 33.063 16.529C32.741 16.481 32.517 16.692 32.517 17.042C32.517 17.409 32.586 17.475 32.966 17.475C33.191 17.475 33.305 17.402 33.398 17.199ZM42.041 17.97C41.872 17.886 41.78 17.735 41.757 17.506C41.717 17.096 42.034 16.844 42.702 16.754C42.954 16.72 43.122 16.645 43.099 16.576C43.045 16.41 42.612 16.362 42.442 16.503C42.338 16.59 42.265 16.577 42.163 16.453C41.96 16.209 42.164 16.06 42.776 16.004C43.507 15.938 43.726 16.124 43.701 16.795C43.664 17.76 43.578 18.011 43.286 18.011C43.142 18.011 43.023 17.957 43.023 17.891C43.023 17.81 42.979 17.805 42.889 17.875C42.656 18.058 42.299 18.098 42.041 17.97ZM42.997 17.445C43.219 17.273 43.148 17.154 42.822 17.154C42.455 17.154 42.217 17.377 42.396 17.555C42.516 17.675 42.756 17.631 42.997 17.445ZM44.229 17.99C43.828 17.884 43.8 17.796 44.085 17.538C44.218 17.418 44.313 17.393 44.359 17.468C44.457 17.627 44.982 17.615 44.929 17.456C44.906 17.386 44.721 17.274 44.518 17.206C44.217 17.105 44.143 17.021 44.116 16.749C44.068 16.265 44.397 15.974 44.994 15.974C45.555 15.974 45.844 16.213 45.503 16.396C45.385 16.459 45.182 16.498 45.052 16.483C44.702 16.444 44.681 16.687 45.028 16.774C45.434 16.876 45.596 17.028 45.596 17.307C45.596 17.846 44.936 18.175 44.229 17.99ZM0.071 17.406C0.11 17.061 0.195 16.404 0.26 15.947L0.379 15.117L1.162 15.117C2.048 15.117 2.247 15.169 2.392 15.44C2.521 15.682 2.336 16.253 2.098 16.344C1.952 16.4 1.96 16.439 2.16 16.625C2.463 16.907 2.453 17.284 2.132 17.657C1.892 17.936 1.808 17.96 0.937 17.996L0 18.035L0.071 17.406ZM1.639 17.316C1.869 17.039 1.687 16.832 1.215 16.832C0.913 16.832 0.783 16.878 0.783 16.984C0.783 17.068 0.753 17.212 0.718 17.306C0.665 17.443 0.734 17.475 1.08 17.475C1.327 17.475 1.563 17.408 1.639 17.316ZM1.584 16.151C1.896 15.922 1.72 15.631 1.293 15.673C1.002 15.701 0.938 15.755 0.91 16.001C0.881 16.249 0.916 16.296 1.13 16.296C1.27 16.296 1.474 16.23 1.584 16.151ZM4.789 17.824C4.819 17.72 4.875 17.347 4.913 16.993C5.012 16.066 5.051 15.974 5.346 15.974C5.49 15.974 5.607 16.024 5.607 16.085C5.607 16.162 5.672 16.162 5.815 16.085C6.123 15.92 6.533 15.951 6.736 16.153C6.884 16.301 6.902 16.453 6.84 17.03C6.743 17.934 6.708 18.011 6.39 18.011C6.13 18.011 6.125 17.996 6.16 17.288C6.195 16.606 6.183 16.562 5.956 16.53C5.68 16.49 5.572 16.699 5.454 17.502C5.384 17.98 5.36 18.011 5.057 18.011C4.801 18.011 4.746 17.973 4.789 17.824ZM7.448 17.763C7.078 17.369 7.131 16.787 7.58 16.339C7.884 16.035 8.023 15.974 8.416 15.974C8.998 15.974 9.216 16.147 8.974 16.415C8.854 16.547 8.705 16.585 8.461 16.545C8.042 16.477 7.828 16.688 7.878 17.12C7.907 17.378 7.961 17.423 8.252 17.428C8.439 17.432 8.669 17.498 8.763 17.576C9.039 17.806 8.767 18.011 8.186 18.011C7.797 18.011 7.628 17.954 7.448 17.763ZM12.897 17.961C12.897 17.851 13.229 15.583 13.278 15.358C13.318 15.173 13.405 15.117 13.652 15.117C13.93 15.117 13.966 15.149 13.92 15.358C13.891 15.49 13.816 16.009 13.754 16.51C13.57 18.002 13.567 18.011 13.211 18.011C13.038 18.011 12.897 17.989 12.897 17.961ZM14.077 17.877C14.077 17.804 14.132 17.345 14.2 16.859C14.322 15.987 14.328 15.974 14.629 15.974C14.797 15.974 14.934 16.032 14.934 16.103C14.934 16.203 14.963 16.203 15.063 16.103C15.134 16.032 15.341 15.974 15.524 15.974C16.105 15.974 16.213 16.292 16.046 17.514C15.983 17.971 15.953 18.011 15.677 18.011L15.376 18.011L15.439 17.261C15.498 16.558 15.488 16.51 15.285 16.51C14.966 16.51 14.842 16.721 14.762 17.402C14.694 17.984 14.677 18.011 14.384 18.011C14.21 18.011 14.077 17.953 14.077 17.877ZM16.711 17.843C16.309 17.441 16.374 16.77 16.861 16.282C17.188 15.955 17.779 15.86 18.015 16.096C18.106 16.187 18.156 16.051 18.211 15.56C18.283 14.924 18.296 14.902 18.593 14.902C18.959 14.902 18.956 14.858 18.705 16.671C18.528 17.945 18.523 17.958 18.231 17.992C18.047 18.013 17.936 17.975 17.936 17.89C17.936 17.784 17.908 17.783 17.808 17.883C17.623 18.067 16.91 18.041 16.711 17.843ZM17.931 17.321C18.147 17.061 18.028 16.569 17.74 16.528C17.303 16.467 16.864 17.118 17.15 17.404C17.28 17.533 17.8 17.478 17.931 17.321ZM24.946 17.716C24.978 17.554 25.034 17.18 25.071 16.886C25.107 16.591 25.161 16.265 25.189 16.162C25.249 15.945 25.719 15.903 25.794 16.108C25.833 16.215 25.871 16.215 25.985 16.108C26.149 15.953 26.62 15.927 26.62 16.073C26.62 16.335 26.466 16.51 26.236 16.51C25.913 16.51 25.699 16.847 25.607 17.502C25.539 17.981 25.516 18.011 25.211 18.011C24.916 18.011 24.893 17.986 24.946 17.716ZM26.659 17.556C26.694 17.305 26.754 16.847 26.793 16.537C26.859 15.999 26.876 15.974 27.184 15.974C27.495 15.974 27.503 15.987 27.442 16.376C27.407 16.597 27.345 17.056 27.306 17.395C27.236 17.991 27.224 18.011 26.915 18.011C26.601 18.011 26.597 18.004 26.659 17.556ZM29.875 17.824C29.904 17.72 30.011 17.021 30.113 16.269L30.298 14.902L30.603 14.902C30.771 14.902 30.909 14.925 30.909 14.952C30.909 15.07 30.576 17.449 30.522 17.716C30.473 17.959 30.406 18.011 30.142 18.011C29.889 18.011 29.833 17.972 29.875 17.824ZM34.572 17.763C34.202 17.369 34.255 16.787 34.704 16.339C35.013 16.03 35.144 15.974 35.562 15.974C36.612 15.974 36.938 17.125 36.079 17.8C35.686 18.11 34.88 18.09 34.572 17.763ZM35.864 17.199C36.017 16.862 35.876 16.58 35.529 16.529C35.207 16.481 34.983 16.692 34.983 17.042C34.983 17.409 35.052 17.475 35.432 17.475C35.656 17.475 35.771 17.402 35.864 17.199ZM37.671 17.824C37.675 17.72 37.76 17.081 37.86 16.403L38.041 15.17L38.883 15.139C39.557 15.113 39.766 15.144 39.927 15.289C40.201 15.537 40.181 15.932 39.88 16.233C39.643 16.47 39.64 16.488 39.826 16.604C40.041 16.739 40.089 17.255 39.917 17.578C39.765 17.861 39.238 18.011 38.397 18.011C37.766 18.011 37.664 17.985 37.671 17.824ZM39.255 17.38C39.334 17.33 39.382 17.198 39.361 17.087C39.332 16.934 39.213 16.878 38.868 16.853C38.425 16.82 38.413 16.828 38.413 17.147C38.413 17.446 38.444 17.475 38.762 17.474C38.953 17.473 39.175 17.431 39.255 17.38ZM39.398 16.053C39.542 15.826 39.429 15.707 39.035 15.674C38.702 15.645 38.648 15.675 38.603 15.912C38.575 16.062 38.58 16.213 38.616 16.248C38.715 16.348 39.304 16.201 39.398 16.053ZM40.236 17.877C40.236 17.804 40.291 17.345 40.359 16.859C40.481 15.987 40.487 15.974 40.788 15.974C40.956 15.974 41.094 16.024 41.094 16.085C41.094 16.162 41.158 16.162 41.301 16.085C41.654 15.896 41.844 15.951 41.844 16.242C41.844 16.468 41.794 16.51 41.526 16.51C41.142 16.51 41.001 16.734 40.912 17.478C40.853 17.978 40.83 18.011 40.543 18.011C40.369 18.011 40.236 17.953 40.236 17.877ZM45.852 17.716C45.884 17.554 45.94 17.18 45.977 16.886C46.08 16.055 46.119 15.974 46.422 15.974C46.698 15.974 46.698 15.975 46.626 16.674C46.498 17.93 46.466 18.011 46.11 18.011C45.822 18.011 45.799 17.985 45.852 17.716ZM46.887 17.831C46.89 17.724 46.976 17.033 47.079 16.296C47.265 14.972 47.271 14.955 47.557 14.922C47.91 14.881 47.913 14.938 47.651 16.725C47.473 17.938 47.466 17.958 47.177 17.992C46.951 18.018 46.884 17.981 46.887 17.831ZM27.076 15.689C26.892 15.615 26.907 15.279 27.101 15.118C27.444 14.834 27.775 15.313 27.456 15.631C27.319 15.768 27.286 15.773 27.076 15.689ZM46.232 15.59C46.042 15.361 46.233 15.063 46.571 15.063C46.882 15.063 46.962 15.344 46.72 15.586C46.502 15.803 46.41 15.804 46.232 15.59ZM26.865 12.394C30.313 10.23 33.278 6.787 35.502 2.367C35.964 1.448 36.395 0.54 36.461 0.348L36.58 0L43.018 0C46.559 0 49.456 0.02 49.456 0.044C49.456 0.165 48.27 12.025 48.214 12.463L48.149 12.972L37.047 12.972L25.944 12.972L26.865 12.394ZM4.103 11.508C4.102 11.458 4.596 9.114 5.202 6.299L6.303 1.179L9.202 1.179C11.465 1.179 12.241 1.215 12.735 1.344C13.977 1.668 14.504 2.212 14.505 3.172C14.506 4.236 13.561 5.589 12.595 5.908L12.216 6.033L12.583 6.223C13.438 6.663 13.82 7.524 13.628 8.579C13.389 9.896 12.537 10.799 11.084 11.277C10.44 11.489 10.101 11.514 7.242 11.554C5.517 11.578 4.105 11.557 4.103 11.508ZM9.827 9.501C10.546 9.201 10.946 8.297 10.596 7.763C10.318 7.339 9.788 7.17 8.851 7.205L8.035 7.237L7.79 8.362C7.656 8.981 7.544 9.524 7.541 9.568C7.534 9.713 9.455 9.657 9.827 9.501ZM10.684 5.157C11.409 4.679 11.627 3.759 11.133 3.265C10.893 3.025 10.786 3.002 9.918 3.002L8.966 3.002L8.733 4.047C8.605 4.622 8.501 5.153 8.501 5.226C8.502 5.323 8.761 5.36 9.44 5.36C10.178 5.359 10.443 5.316 10.684 5.157ZM13.654 11.445C13.657 11.371 14.154 9.043 14.758 6.272L15.856 1.233L17.328 1.203L18.8 1.173L18.743 1.417C18.67 1.735 16.694 10.774 16.598 11.23L16.526 11.579L15.087 11.579C14.004 11.579 13.649 11.545 13.654 11.445ZM17.615 11.534C17.615 11.45 19.764 1.556 19.824 1.361C19.881 1.179 20.071 1.17 23.011 1.206C26.267 1.247 26.598 1.289 27.266 1.743C27.857 2.145 28.062 2.509 28.052 3.14C28.037 4.236 27.1 5.579 26.128 5.9L25.761 6.021L26.216 6.261C26.551 6.439 26.749 6.651 26.967 7.069C27.317 7.739 27.335 8.114 27.059 8.999C26.783 9.888 26.24 10.524 25.411 10.931C24.29 11.481 23.569 11.575 20.429 11.577C18.881 11.578 17.615 11.558 17.615 11.534ZM23.402 9.461C24.204 9.058 24.517 8.053 23.992 7.566C23.67 7.268 23.301 7.183 22.327 7.183L21.599 7.183L21.368 8.228C21.24 8.803 21.112 9.358 21.083 9.461C21.036 9.63 21.13 9.649 22.03 9.649C22.767 9.649 23.127 9.599 23.402 9.461ZM24.151 5.201C24.916 4.806 25.187 3.669 24.622 3.224C24.386 3.038 24.188 3.002 23.412 3.002L22.485 3.002L22.286 3.987C22.176 4.529 22.064 5.06 22.036 5.167C21.99 5.343 22.071 5.36 22.914 5.36C23.526 5.36 23.949 5.306 24.151 5.201Z" fill="rgb(255,255,255)" fill-opacity="1.000" fill-rule="nonzero" transform="matrix(1 0 0 1 5 21)"/></svg>