<svg xmlns="http://www.w3.org/2000/svg" viewBox="0 0 60 60" width="60" height="60"><defs><linearGradient id="g33" gradientUnits="userSpaceOnUse" x1="41.25" y1="45.59" x2="1.34" y2="20.21"><stop offset="0.0%" stop-color="rgb(0,151,95)" stop-opacity="1.000"/><stop offset="100.0%" stop-color="rgb(0,65,35)" stop-opacity="1.000"/></linearGradient><linearGradient id="g34" gradientUnits="userSpaceOnUse" x1="-1.18" y1="0.82" x2="47.45" y2="66.60"><stop offset="0.0%" stop-color="rgb(0,151,95)" stop-opacity="1.000"/><stop offset="100.0%" stop-color="rgb(0,65,35)" stop-opacity="1.000"/></linearGradient><linearGradient id="g35" gradientUnits="userSpaceOnUse" x1="7.44" y1="38.05" x2="52.22" y2="26.05"><stop offset="0.0%" stop-color="rgb(0,151,95)" stop-opacity="1.000"/><stop offset="36.0%" stop-color="rgb(0,151,95)" stop-opacity="1.000"/><stop offset="91.0%" stop-color="rgb(0,65,35)" stop-opacity="1.000"/><stop offset="100.0%" stop-color="rgb(0,65,35)" stop-opacity="1.000"/></linearGradient></defs><path d="M0 0L60 0L60 60L0 60L0 0Z" fill="rgb(255,255,255)" fill-opacity="1.000" fill-rule="nonzero" transform="matrix(1 0 0 1 0 0)"/><path d="M4.115 16.434L0 12.319L12.321 0L22.937 10.616L28.597 10.614L28.597 16.276L24.64 12.319L20.527 16.434L4.115 16.434Z" fill="url(#g33)" fill-rule="nonzero" transform="matrix(1 0 0 1 20.2039 8.0001)"/><path d="M8.204 28.398L8.204 20.525L0 12.321L12.319 0L24.64 12.321L8.561 28.4L8.204 28.398Z" fill="url(#g34)" fill-rule="nonzero" transform="matrix(1 0 0 1 12 24.4338)"/><path d="M12.321 16.436L0 4.115L16.412 4.115L20.525 0L24.482 3.957L24.482 4.275L12.321 16.436Z" fill="url(#g35)" fill-rule="nonzero" transform="matrix(1 0 0 1 24.3188 20.3189)"/></svg>