<svg xmlns="http://www.w3.org/2000/svg" viewBox="0 0 130 60" width="130" height="60"><path d="M0 0L130 0L130 60L0 60L0 0Z" fill="rgb(255,255,255)" fill-opacity="1.000" fill-rule="nonzero" transform="matrix(1 0 0 1 0 0)"/><path d="M1.902 13.204L2.46 13.204C3.098 13.204 3.71 13.149 3.71 12.509C3.71 11.923 3.071 11.773 2.446 11.773L1.902 11.773L1.902 13.204ZM1.902 10.519L2.487 10.519C3.152 10.519 3.9 10.451 3.9 9.702C3.9 8.993 3.167 8.898 2.473 8.898L1.902 8.898L1.902 10.519ZM0 7.59L3.016 7.59C4.293 7.59 5.802 7.93 5.802 9.593C5.802 10.438 5.313 10.928 4.362 11.119C5.15 11.405 5.612 11.882 5.612 12.754C5.612 13.953 4.619 14.512 3.288 14.512L0 14.512L0 7.59ZM1.902 5.628L2.46 5.628C3.098 5.628 3.71 5.559 3.71 4.933C3.71 4.347 3.071 4.197 2.446 4.197L1.902 4.197L1.902 5.628ZM1.902 2.943L2.487 2.943C3.152 2.943 3.9 2.875 3.9 2.112C3.9 1.417 3.167 1.308 2.473 1.308L1.902 1.308L1.902 2.943ZM0 0L3.016 0C4.293 0 5.802 0.354 5.802 2.003C5.802 2.848 5.313 3.352 4.362 3.543C5.15 3.815 5.612 4.306 5.612 5.178C5.612 6.363 4.619 6.936 3.288 6.936L0 6.936L0 0ZM6.44 0L8.152 0L8.112 5.328L9.742 0L11.345 0L13.03 5.328L13.018 0L14.729 0L14.729 6.936L12.079 6.936L10.612 2.33L9.199 6.936L6.44 6.936L6.44 0Z" fill="rgb(174,14,22)" fill-opacity="1.000" fill-rule="nonzero" transform="matrix(1 0 0 -1 108.6674 38.6866)"/><path d="M10.952 14.253C9.865 14.253 8.846 13.926 8.003 13.381L5.096 11.5L5.096 18L0 13.694L0 5.519C0 3.093 1.576 1.036 3.764 0.313L4.729 0C2.731 1.008 1.372 3.025 1.372 5.355C1.372 8.68 4.131 11.378 7.555 11.378C10.748 11.378 13.371 9.021 13.697 6.009L10.178 6.009C9.865 7.195 8.792 8.067 7.528 8.067C6.006 8.067 4.783 6.84 4.783 5.314C4.783 3.802 6.006 2.575 7.528 2.575C8.927 2.575 10.082 3.624 10.246 4.973L13.724 4.973C13.643 3.761 13.194 2.643 12.488 1.731C12.488 1.731 14.648 4.265 15.395 5.423C16.061 6.459 16.428 7.535 16.428 8.748C16.428 11.787 13.969 14.253 10.952 14.253Z" fill="rgb(0,57,116)" fill-opacity="1.000" fill-rule="nonzero" transform="matrix(1 0 0 -1 7 39)"/><path d="M12.271 0.999C9.077 1.613 6.686 3.316 6.672 3.343C6.659 3.37 6.387 3.493 6.427 3.67C6.55 4.188 7.299 5.264 7.38 5.401C7.462 5.55 7.393 5.823 7.23 5.85C6.061 6.082 6.02 6.123 6.02 6.123C5.694 6.15 5.681 5.987 5.681 5.987L5.694 5.155C5.491 4.433 5.355 4.488 5.355 4.488C5.355 4.488 4.404 5.183 4.349 5.237C4.281 5.305 3.547 5.36 3.547 5.36C3.547 5.36 3.628 5.496 3.697 5.55C4.77 6.477 5.056 7.308 5.069 7.336C5.069 7.363 5.056 7.84 5.056 7.84L4.676 8.317L5.639 8.576C5.639 8.576 6.197 8.739 6.306 8.616C6.482 8.412 6.55 7.458 6.55 7.458C6.876 6.75 7.924 6.463 7.991 6.45C8.059 6.436 9.838 5.918 9.838 5.918C10.288 6.259 10.219 6.736 10.219 6.736C10.327 6.995 9.349 7.404 8.983 7.499C7.637 7.812 7.407 8.044 7.054 8.317C6.672 8.589 6.958 8.862 6.958 8.862C6.958 8.862 7.664 9.066 7.869 9.107C8.154 9.161 9.784 9.243 9.784 9.243C10.233 9.202 10.233 9.379 10.233 9.379L10.097 10.469C10.152 10.606 10.029 10.878 9.92 10.851C7.924 10.265 6.672 10.156 6.672 10.156C6.496 10.129 6.482 11.015 6.55 11.41C6.617 11.873 6.183 12.159 5.898 12.173C5.612 12.186 5.165 12.473 5.165 12.473C4.051 10.946 5.531 10.592 5.627 10.551C6.02 10.401 5.953 10.347 6.074 10.197C6.224 10.006 5.775 9.856 5.491 9.775C2.855 9.066 1.917 9.039 1.632 9.052C1.034 9.08 1.237 8.507 1.237 8.507C1.237 8.507 1.442 8.262 1.551 7.99C1.754 7.526 2.746 7.867 2.949 7.921C4.051 8.221 4.036 8.126 4.036 8.126C4.226 7.921 3.9 7.349 3.9 7.349C3.181 6.395 2.176 5.85 1.971 5.768C1.768 5.687 1.687 5.755 1.687 5.755C1.578 5.482 1.889 5.074 2.013 5.06C2.094 5.046 3.018 5.087 3.018 5.087L3.139 5.128C3.248 5.128 3.221 4.978 3.221 4.978C3.275 4.297 3.683 4.12 3.915 4.065C4.703 3.875 4.906 3.479 4.906 3.479C3.181 1.122 0 1.354 0 1.354C0.096 1.258 0.368 1.095 0.899 0.999C2.65 0.645 4.268 1.585 4.389 1.694C4.525 1.803 5.476 2.526 5.612 2.675C5.844 2.921 5.98 2.784 5.98 2.784C5.98 2.784 7.529 1.476 7.991 1.081C10.708 -1.208 12.365 0.849 12.365 0.849L12.271 0.999Z" fill="rgb(0,57,116)" fill-opacity="1.000" fill-rule="nonzero" transform="matrix(1 0 0 -1 32.314 33.8133)"/><path d="M2.002 0.098C2.301 0.616 1.851 1.216 1.58 1.379C0.616 1.992 0.493 2.306 0.493 2.306C-0.065 2.033 -0.065 1.406 0.085 1.052C0.589 -0.174 1.906 -0.065 2.002 0.098Z" fill="rgb(0,57,116)" fill-opacity="1.000" fill-rule="nonzero" transform="matrix(1 0 0 -1 51.8783 25.0907)"/><path d="M8.83 6.727C8.817 6.645 8.803 2.721 8.803 2.721C8.763 2.612 7.973 2.571 7.973 2.571C7.906 2.244 8.775 1.222 8.775 1.222C8.775 1.222 8.775 1.154 8.477 1.14C7.158 1.113 6.886 1.318 6.886 1.318C6.982 1.318 7.402 1.822 7.402 1.822L7.402 3.034C8.109 3.293 8.341 3.648 8.341 3.648C8.464 4.315 8.232 4.356 8.232 4.356L7.647 4.247C7.375 4.233 7.417 4.383 7.417 4.383L7.402 4.888C7.402 4.942 8.395 5.378 8.395 5.378C8.395 5.378 8.491 5.637 8.435 6.032C8.368 6.414 7.417 6.073 7.417 6.073L7.363 6.741C7.363 6.741 7.837 6.809 7.973 6.891C8.123 6.972 8.708 7.054 8.708 7.054C8.844 7.041 8.844 6.809 8.83 6.727ZM6.439 1.386C5.542 1.454 5.31 1.617 5.31 1.617C5.325 1.672 5.392 3.007 5.392 3.007C6.466 3.048 6.466 2.953 6.466 2.953C6.547 2.149 6.439 1.386 6.439 1.386ZM5.201 5.46C5.201 5.46 4.957 6.141 5.147 6.237C5.147 6.237 5.446 6.168 6.276 6.468C6.276 6.468 6.397 6.196 6.37 5.882C6.357 5.746 6.248 5.773 6.248 5.773C6.248 5.773 5.636 5.555 5.46 5.392C5.364 5.31 5.27 5.174 5.201 5.46ZM6.221 4.002C6.221 4.002 5.419 3.879 5.364 3.906C5.364 3.906 5.352 4.697 5.352 4.779C5.352 4.779 5.609 4.656 5.759 4.642C5.935 4.629 6.071 4.588 6.315 4.656C6.315 4.656 6.411 4.656 6.411 4.397C6.411 4.043 6.451 4.029 6.221 4.002ZM9.578 1.318C9.578 1.318 9.455 1.399 9.536 1.576C9.618 1.754 9.699 2.176 9.672 2.258C9.672 2.258 9.442 4.956 9.632 6.237C9.727 6.768 9.808 7.654 9.89 7.722C9.89 7.722 9.741 8.199 8.573 8.131C8.163 8.117 7.689 7.776 7.402 7.981C7.212 8.117 7.254 8.24 7.39 8.403C7.538 8.553 9.156 10.283 9.496 10.352C9.496 10.352 9.89 10.856 9.047 11.333C8.558 11.605 8.435 11.782 7.81 11.374C7.444 11.142 6.397 10.215 5.732 10.093C5.379 10.038 5.325 10.338 5.297 10.365L5.162 10.461C5.162 10.461 4.564 9.916 4.631 9.152C4.658 8.757 5.69 9.098 5.989 9.343C6.194 9.52 7.538 10.324 7.266 9.602L6.439 8.676L5.772 8.485C5.772 8.485 5.419 8.349 5.718 8.035C5.718 8.035 6.234 7.695 6.18 7.558C6.18 7.558 6.113 7.354 5.419 7.013C5.256 6.945 5.08 6.795 5.053 6.741C5.053 6.727 5.038 6.727 5.038 6.727L4.522 7.027L4.129 7.041C4.129 7.041 4.265 6.1 4.25 5.978C4.25 5.869 4.223 2.258 4.482 1.713L3.163 1.822C3.163 1.822 1.207 3.879 2.674 6.727C2.852 7.081 3.109 7.517 2.43 7.831C2.131 7.953 1.464 8.035 1.343 8.172C1.343 8.172 0.894 8.321 0.948 7.735L1.261 7.041C1.261 7.041 1.207 6.632 1.029 5.664C0.99 5.46 0.772 4.22 1.832 2.489C1.832 2.489 2.037 2.162 1.968 2.053C1.913 1.931 1.859 1.999 1.859 1.999L0.486 2.135C0.486 2.135 0.174 2.231 0.12 1.903C0.066 1.672 -0.179 0.882 0.241 0.8C0.241 0.8 2.837 1.358 6.71 0.323C7.402 0.146 8.422 -0.045 10.393 0.009C10.393 0.009 12.906 0.364 12.906 1.863C12.906 1.863 12.377 2.285 9.578 1.318Z" fill="rgb(0,57,116)" fill-opacity="1.000" fill-rule="nonzero" transform="matrix(1 0 0 -1 50.2946 33.4909)"/><path d="M0.435 0.001C1.48 0.028 1.984 0.546 1.984 0.546C1.984 0.546 2.283 0.818 2.609 1.145C2.989 1.54 3.411 2.017 3.411 2.017L3.695 2.181L3.695 2.317C3.234 2.821 2.404 3.039 2.404 3.039C2.391 3.08 2.255 3.012 2.255 3.012C1.996 2.481 1.223 1.731 1.018 1.554C0.23 0.859 0 0.219 0 0.219C0 0.219 0.163 -0.013 0.435 0.001Z" fill="rgb(0,57,116)" fill-opacity="1.000" fill-rule="nonzero" transform="matrix(1 0 0 -1 88.4889 25.0748)"/><path d="M6.543 7.958C6.639 8.148 6.543 8.271 6.543 8.271C5.673 8.639 4.979 8.625 4.979 8.625L4.681 8.53C2.467 5.232 0.021 4.156 0.021 4.156C-0.075 4.047 0.184 3.42 0.184 3.42C0.184 3.42 0.333 3.352 0.55 3.338C1.353 3.298 3.119 4.715 3.119 4.715C3.376 4.728 3.485 4.333 3.485 4.333C3.431 4.21 3.376 1.308 3.376 1.104C3.349 0.436 3.635 0 3.893 0C4.137 0 4.599 0.422 4.599 0.422L4.559 2.766C4.532 2.889 4.26 5.464 4.26 5.464C5.972 6.949 6.434 7.753 6.543 7.958Z" fill="rgb(0,57,116)" fill-opacity="1.000" fill-rule="nonzero" transform="matrix(1 0 0 -1 85.7503 33.318)"/><path d="M0.082 1.272C0.326 0.55 0.667 0.182 0.667 0.182C2.174 -0.485 4.103 0.891 4.212 0.959C4.308 1.041 4.362 1.49 4.362 1.49C4.308 1.586 3.859 1.94 3.859 1.94L3.628 2.008C1.971 1.736 0.069 1.777 0.069 1.777L0 1.477C0 1.477 0.014 1.49 0.082 1.272Z" fill="rgb(0,57,116)" fill-opacity="1.000" fill-rule="nonzero" transform="matrix(1 0 0 -1 92.7279 25.1748)"/><path d="M6.815 8.425C6.815 8.425 4.259 7.839 3.567 7.798C3.187 7.784 1.013 7.539 1.013 7.539C1.013 7.539 0.075 7.43 0.008 6.544C-0.007 6.313 -0.007 5.768 0.062 5.686C0.062 5.686 0.904 5.931 1.964 6.163C2.33 6.245 2.846 6.272 2.942 6.258C2.942 6.258 3.105 2.17 3.024 2.02C3.024 2.02 3.078 1.407 2.384 1.639C2.384 1.639 1.678 2.089 1.013 2.061C1.013 2.061 0.986 1.966 1.134 1.816C1.285 1.666 2.29 0.849 2.738 0.276C2.901 0.072 4.546 -0.568 4.64 1.258C4.654 1.557 4.301 4.719 4.274 4.909C4.247 5.1 4.178 6.34 4.274 6.395C4.274 6.395 6.964 6.762 7.48 7.362C7.658 7.553 7.467 8.111 6.815 8.425Z" fill="rgb(0,57,116)" fill-opacity="1.000" fill-rule="nonzero" transform="matrix(1 0 0 -1 91.4848 33.6625)"/><path d="M7.42 2.533C7.42 2.533 6.156 2.329 6.156 2.37C6.143 2.411 6.306 2.588 6.496 2.738C7.04 3.16 7.27 3.487 7.27 3.487C7.637 4.237 7.203 4.209 7.203 4.209C6.849 4.332 6.605 4.005 6.536 3.909C5.938 3.037 5.898 3.119 5.898 3.119C5.802 3.61 5.871 4.659 5.871 4.659L6.795 5.177C7.067 5.258 7.121 5.817 6.931 5.94C6.795 6.035 5.911 5.912 5.911 5.912C5.911 5.912 5.79 5.858 5.748 5.912C5.694 5.953 5.762 6.335 5.762 6.335L6.536 6.689C6.741 6.853 6.672 7.316 6.672 7.316C6.523 7.52 6.088 7.588 6.088 7.588L4.987 7.575C4.987 7.575 4.688 7.493 4.715 7.657C4.782 8.025 5.585 8.747 5.585 8.747C5.992 8.733 6.55 8.311 6.659 8.215C7.094 7.834 7.541 7.52 7.541 7.52C7.61 9.469 6.713 9.823 6.55 9.905C6.387 10 6.387 10.164 6.387 10.164C6.876 10.491 6.835 10.6 6.835 10.6C6.333 11.908 5.436 11.595 5.436 11.595C5.422 11.554 4.891 10.491 4.715 10.164C3.315 7.616 0.966 5.79 0.897 5.694C0.815 5.613 0 5.204 0 5.204C0.408 4.195 1.386 4.359 1.576 4.4C2.188 4.536 3.723 6.526 3.723 6.526C3.764 6.403 4.022 6.403 4.145 6.376C4.579 6.28 4.92 6.253 4.92 6.253L4.96 5.694L4.049 5.436C4.049 5.436 3.641 5.326 3.628 4.863C3.587 3.923 4.281 4.195 4.281 4.195L5.041 4.427C5.096 4.386 5.165 3.215 5.165 3.215L4.32 3.719C3.846 3.46 3.831 2.996 3.831 2.996C4.049 2.37 4.444 2.342 4.634 2.261C4.782 2.193 4.755 2.029 4.647 1.961C2.663 0.925 2.527 0.98 2.527 0.98L2.391 0.639C2.391 -0.26 3.614 0.04 3.683 0.08C5.681 1.143 7.067 1.498 7.067 1.498C7.324 1.498 7.529 1.988 7.529 1.988L7.719 2.288C7.867 2.574 7.42 2.533 7.42 2.533Z" fill="rgb(0,57,116)" fill-opacity="1.000" fill-rule="nonzero" transform="matrix(1 0 0 -1 66.8559 33.303)"/><path d="M1.678 2.739C1.285 2.562 1.067 2.698 1.067 2.698C1.067 2.698 0.687 3.393 0.823 4.551C0.823 4.551 0.904 4.592 0.971 4.578C0.971 4.578 1.747 4.442 2.737 3.883C2.737 3.883 2.833 3.257 1.678 2.739ZM0.904 7.917L0.998 8.053L2.453 8.121C2.453 8.121 2.562 8.053 2.493 7.862C2.426 7.671 2.236 6.963 1.638 6.976C1.638 6.976 0.85 6.827 0.835 7.085L0.904 7.917ZM1.161 9.865C1.189 10.056 2.439 10.07 2.574 10.029C2.725 10.001 2.752 9.579 2.752 9.579C2.629 8.966 2.52 9.034 2.52 9.034C1.774 8.857 1.107 8.993 1.107 8.993C1.04 9.17 1.161 9.865 1.161 9.865ZM4.926 3.979C4.261 4.197 3.513 4.701 3.513 4.701C3.54 4.728 5.918 6.132 5.918 6.132C5.333 6.84 4.587 7.235 4.587 7.235C3.31 5.151 1.475 5.014 1.176 5.001C0.877 4.987 0.823 5.001 0.823 5.26C0.781 6.159 0.944 6.173 0.944 6.173C0.944 6.173 1.161 6.186 1.324 6.023C1.638 5.736 2.33 5.955 2.33 5.955L2.792 6.363C3.283 6.922 3.35 7.113 3.377 7.603C3.473 8.762 3.676 9.197 3.812 9.552C4.152 10.478 4.111 10.683 4.111 10.683C4.056 11.691 3.064 11.378 2.942 11.323C2.167 11.037 1.216 10.914 0.917 10.833C0.116 10.587 0.225 10.437 0.225 10.437L0.183 9.647C0.183 9.647 0.047 5.505 0.035 5.205C-0.089 2.003 0.156 0.422 0.156 0.422C0.143 0.15 0.509 0 0.509 0C1.665 0.068 2.602 2.194 2.67 2.439C3.051 3.706 3.132 3.57 3.132 3.57C4.044 3.202 5.13 1.908 5.197 1.853C5.266 1.799 5.361 1.826 5.457 2.003C5.538 2.166 6.136 2.916 6.136 2.916C6.109 3.161 5.306 3.843 4.926 3.979Z" fill="rgb(0,57,116)" fill-opacity="1.000" fill-rule="nonzero" transform="matrix(1 0 0 -1 75.0835 33.7811)"/><path d="M0.774 2.657L1.697 2.657C2.065 2.657 2.295 2.575 2.295 2.316C2.295 2.057 2.038 1.949 1.725 1.949L0.774 1.949L0.774 2.657ZM0 0L1.63 0C2.418 0 2.636 0.109 2.853 0.286C3.056 0.45 3.179 0.695 3.179 0.954C3.179 1.267 3.056 1.581 2.581 1.731C2.744 1.799 3.071 1.921 3.071 2.385C3.071 2.725 2.826 3.216 1.875 3.216L0 3.216L0 0ZM0.774 1.417L1.806 1.417C2.092 1.417 2.377 1.308 2.377 1.022C2.377 0.695 2.147 0.559 1.766 0.559L0.774 0.559L0.774 1.417Z" fill="rgb(0,57,116)" fill-opacity="1.000" fill-rule="nonzero" transform="matrix(1 0 0 -1 26.9755 38.6049)"/><path d="M1.114 0.654L2.542 0.654L2.786 0L3.656 0L2.297 3.216L1.373 3.216L0 0L0.842 0L1.114 0.654ZM1.821 2.48L1.835 2.48L2.31 1.213L1.331 1.213L1.821 2.48Z" fill="rgb(0,57,116)" fill-opacity="1.000" fill-rule="nonzero" transform="matrix(1 0 0 -1 30.3848 38.6049)"/><path d="M2.391 3.216L3.138 3.216L3.138 0L2.322 0L0.761 2.289L0.761 0L0 0L0 3.216L0.855 3.216L2.377 0.981L2.391 0.981L2.391 3.216Z" fill="rgb(0,57,116)" fill-opacity="1.000" fill-rule="nonzero" transform="matrix(1 0 0 -1 34.5169 38.6049)"/><path d="M0.801 0L0 0L0 3.216L0.801 3.216L0.801 1.908L2.27 3.216L3.302 3.216L1.739 1.894L3.397 0L2.364 0L1.183 1.403L0.801 1.09L0.801 0Z" fill="rgb(0,57,116)" fill-opacity="1.000" fill-rule="nonzero" transform="matrix(1 0 0 -1 38.4841 38.6049)"/><path d="M0 1.69C0 0.177 1.331 0 1.848 0C2.351 0 3.695 0.177 3.695 1.69C3.695 3.188 2.351 3.379 1.848 3.379C1.331 3.379 0 3.188 0 1.69ZM0.802 1.69C0.802 2.589 1.413 2.807 1.848 2.807C2.283 2.807 2.88 2.589 2.88 1.69C2.88 0.79 2.283 0.572 1.848 0.572C1.413 0.572 0.802 0.79 0.802 1.69Z" fill="rgb(0,57,116)" fill-opacity="1.000" fill-rule="nonzero" transform="matrix(1 0 0 -1 45.1015 38.6866)"/><path d="M0.801 0L0 0L0 3.216L2.73 3.216L2.73 2.644L0.801 2.644L0.801 1.921L2.5 1.921L2.5 1.349L0.801 1.349L0.801 0Z" fill="rgb(0,57,116)" fill-opacity="1.000" fill-rule="nonzero" transform="matrix(1 0 0 -1 49.4364 38.6049)"/><path d="M2.623 2.235C2.554 2.439 2.433 2.793 1.766 2.793C1.386 2.793 0.815 2.575 0.815 1.676C0.815 1.104 1.087 0.572 1.766 0.572C2.215 0.572 2.527 0.79 2.623 1.185L3.424 1.185C3.261 0.491 2.717 0 1.754 0C0.734 0 0 0.572 0 1.69C0 2.807 0.775 3.379 1.766 3.379C2.922 3.379 3.384 2.712 3.424 2.235L2.623 2.235Z" fill="rgb(0,57,116)" fill-opacity="1.000" fill-rule="nonzero" transform="matrix(1 0 0 -1 55.2786 38.6866)"/><path d="M0 1.69C0 0.177 1.344 0 1.86 0C2.364 0 3.708 0.177 3.708 1.69C3.708 3.188 2.364 3.379 1.86 3.379C1.344 3.379 0 3.188 0 1.69ZM0.815 1.69C0.815 2.589 1.426 2.807 1.86 2.807C2.295 2.807 2.893 2.589 2.893 1.69C2.893 0.79 2.295 0.572 1.86 0.572C1.426 0.572 0.815 0.79 0.815 1.69Z" fill="rgb(0,57,116)" fill-opacity="1.000" fill-rule="nonzero" transform="matrix(1 0 0 -1 59.1389 38.6866)"/><path d="M3.724 0L2.976 0L2.976 2.684L2.964 2.684L2.257 0L1.467 0L0.761 2.684L0.748 2.684L0.748 0L0 0L0 3.216L1.168 3.216L1.877 0.681L2.569 3.216L3.724 3.216L3.724 0Z" fill="rgb(0,57,116)" fill-opacity="1.000" fill-rule="nonzero" transform="matrix(1 0 0 -1 63.4448 38.6049)"/><path d="M3.735 0L2.989 0L2.989 2.684L2.974 2.684L2.255 0L1.467 0L0.774 2.684L0.761 2.684L0.761 0L0 0L0 3.216L1.181 3.216L1.875 0.681L1.888 0.681L2.567 3.216L3.735 3.216L3.735 0Z" fill="rgb(0,57,116)" fill-opacity="1.000" fill-rule="nonzero" transform="matrix(1 0 0 -1 67.903 38.6049)"/><path d="M3.098 1.199C3.098 0.354 2.487 0 1.522 0C1.168 0 0.639 0.068 0.299 0.395C0.082 0.586 0 0.845 0 1.158L0 3.297L0.815 3.297L0.815 1.213C0.815 0.763 1.129 0.572 1.509 0.572C2.052 0.572 2.282 0.79 2.282 1.172L2.282 3.297L3.098 3.297L3.098 1.199Z" fill="rgb(0,57,116)" fill-opacity="1.000" fill-rule="nonzero" transform="matrix(1 0 0 -1 72.3865 38.6866)"/><path d="M2.379 3.216L3.125 3.216L3.125 0L2.324 0L0.761 2.289L0.746 2.289L0.746 0L0 0L0 3.216L0.855 3.216L2.379 0.981L2.379 3.216Z" fill="rgb(0,57,116)" fill-opacity="1.000" fill-rule="nonzero" transform="matrix(1 0 0 -1 76.2323 38.6049)"/><path d="M0.801 0L0 0L0 3.216L0.801 3.216L0.801 0Z" fill="rgb(0,57,116)" fill-opacity="1.000" fill-rule="nonzero" transform="matrix(1 0 0 -1 80.0781 38.6049)"/><path d="M2.621 2.235C2.554 2.439 2.431 2.793 1.766 2.793C1.386 2.793 0.815 2.575 0.815 1.676C0.815 1.104 1.087 0.572 1.766 0.572C2.214 0.572 2.513 0.79 2.621 1.185L3.424 1.185C3.261 0.491 2.717 0 1.752 0C0.734 0 0 0.572 0 1.69C0 2.807 0.761 3.379 1.766 3.379C2.907 3.379 3.384 2.712 3.424 2.235L2.621 2.235Z" fill="rgb(0,57,116)" fill-opacity="1.000" fill-rule="nonzero" transform="matrix(1 0 0 -1 81.464 38.6866)"/><path d="M1.1 0.654L2.527 0.654L2.772 0L3.641 0L2.295 3.216L1.371 3.216L0 0L0.842 0L1.1 0.654ZM1.821 2.48L2.31 1.213L1.317 1.213L1.821 2.48Z" fill="rgb(0,57,116)" fill-opacity="1.000" fill-rule="nonzero" transform="matrix(1 0 0 -1 85.2011 38.6049)"/><path d="M1.969 0L1.168 0L1.168 2.644L0 2.644L0 3.216L3.139 3.216L3.139 2.644L1.969 2.644L1.969 0Z" fill="rgb(0,57,116)" fill-opacity="1.000" fill-rule="nonzero" transform="matrix(1 0 0 -1 88.5433 38.6049)"/><path d="M0.801 0L0 0L0 3.216L0.801 3.216L0.801 0Z" fill="rgb(0,57,116)" fill-opacity="1.000" fill-rule="nonzero" transform="matrix(1 0 0 -1 92.0902 38.6049)"/><path d="M0 1.69C0 0.177 1.346 0 1.862 0C2.364 0 3.695 0.177 3.695 1.69C3.695 3.188 2.364 3.379 1.862 3.379C1.346 3.379 0 3.188 0 1.69ZM0.815 1.69C0.815 2.589 1.427 2.807 1.862 2.807C2.297 2.807 2.895 2.589 2.895 1.69C2.895 0.79 2.297 0.572 1.862 0.572C1.427 0.572 0.815 0.79 0.815 1.69Z" fill="rgb(0,57,116)" fill-opacity="1.000" fill-rule="nonzero" transform="matrix(1 0 0 -1 93.4615 38.6866)"/><path d="M2.379 3.216L3.139 3.216L3.139 0L2.324 0L0.761 2.289L0.761 0L0 0L0 3.216L0.842 3.216L2.364 0.981L2.379 0.981L2.379 3.216Z" fill="rgb(0,57,116)" fill-opacity="1.000" fill-rule="nonzero" transform="matrix(1 0 0 -1 97.7693 38.6049)"/><path d="M0.774 1.076C0.774 0.886 0.882 0.545 1.589 0.545C1.969 0.545 2.391 0.627 2.391 0.967C2.391 1.226 2.092 1.281 1.685 1.363L1.277 1.444C0.652 1.567 0.054 1.69 0.054 2.398C0.054 2.753 0.284 3.379 1.534 3.379C2.705 3.379 3.031 2.739 3.031 2.344L2.268 2.344C2.241 2.48 2.174 2.821 1.48 2.821C1.168 2.821 0.815 2.725 0.815 2.439C0.815 2.194 1.06 2.139 1.208 2.098L2.147 1.908C2.677 1.799 3.152 1.622 3.152 1.049C3.152 0.082 1.984 0 1.643 0C0.23 0 0 0.668 0 1.076L0.774 1.076Z" fill="rgb(0,57,116)" fill-opacity="1.000" fill-rule="nonzero" transform="matrix(1 0 0 -1 101.4793 38.6866)"/></svg>