<svg xmlns="http://www.w3.org/2000/svg" viewBox="0 0 130 60" width="130" height="60"><path d="M0 0L130 0L130 60L0 60L0 0Z" fill="rgb(255,255,255)" fill-opacity="1.000" fill-rule="nonzero" transform="matrix(1 0 0 1 0 0)"/><path d="M87.403 0L0 0L0 36.193L87.403 36.193L87.403 0Z" fill="rgb(0,0,0)" fill-opacity="1.000" fill-rule="nonzero" transform="matrix(1 0 0 1 21.5966 11.9034)"/><path d="M18.092 0C15.781 0 14.332 0.861 12.923 3.052C11.904 0.704 10.103 0.039 8.38 0.039C7.049 0.039 5.287 0.47 4.308 2.23L4.073 0.939C4.033 0.626 3.72 0.391 3.407 0.391L0.666 0.391C0.313 0.391 0 0.704 0 1.056L0 15.886C0 16.238 0.313 16.551 0.666 16.551L3.838 16.551C4.19 16.551 4.503 16.238 4.503 15.886L4.503 7.904C4.503 6.065 5.443 4.343 7.244 4.343C9.085 4.343 9.986 5.752 9.986 7.865L9.986 15.886C9.986 16.238 10.299 16.551 10.651 16.551L13.784 16.551C14.137 16.551 14.45 16.238 14.45 15.886L14.45 7.904C14.45 6.065 15.272 4.461 17.074 4.461C18.914 4.461 19.697 5.791 19.697 7.826L19.697 15.886C19.697 16.238 20.01 16.551 20.363 16.551L23.574 16.551C23.926 16.551 24.24 16.238 24.24 15.886L24.24 7.708C24.279 1.682 21.342 0 18.092 0Z" fill="rgb(250,99,0)" fill-opacity="1.000" fill-rule="nonzero" transform="matrix(1 0 0 1 63.8495 20.9027)"/><path d="M9.907 7.278C7.988 7.278 6.148 7.865 4.777 9.586L4.777 0.665C4.777 0.274 4.464 0 4.112 0L0.666 0C0.274 0 0 0.313 0 0.665L0 23.281C0 23.672 0.313 23.946 0.666 23.946L3.681 23.946C4.033 23.946 4.308 23.711 4.347 23.359L4.582 21.872C6.109 23.829 7.949 24.298 10.025 24.298C14.841 24.298 18.092 20.894 18.092 15.808C18.052 10.486 14.724 7.278 9.907 7.278ZM9.398 19.994C7.088 19.994 5.208 18.116 5.208 15.808C5.208 13.499 7.088 11.621 9.398 11.621C11.709 11.621 13.588 13.499 13.588 15.808C13.627 18.116 11.748 19.994 9.398 19.994Z" fill="rgb(250,99,0)" fill-opacity="1.000" fill-rule="nonzero" transform="matrix(1 0 0 1 43.2518 13.5076)"/><path d="M2.428 1.33C1.723 1.33 1.253 1.643 1.018 1.996L1.018 0.704L1.018 0.47L1.018 0.117C1.018 0.039 0.979 0 0.901 0L0.548 0L0.47 0L0.117 0C0.039 0 0 0.039 0 0.117L0 0.704L0 4.93L0 5.439L0 5.791C0 5.869 0.039 5.908 0.117 5.908L0.822 5.908C0.901 5.908 0.94 5.869 0.94 5.791L0.94 5.439L0.94 5.165C1.214 5.634 1.762 5.908 2.428 5.908C3.759 5.908 4.503 4.852 4.503 3.6C4.503 2.348 3.759 1.33 2.428 1.33ZM2.232 5.008C1.449 5.008 0.979 4.382 0.979 3.6C0.979 2.778 1.449 2.191 2.232 2.191C3.015 2.191 3.485 2.817 3.485 3.6C3.485 4.421 3.015 5.008 2.232 5.008Z" fill="rgb(250,99,0)" fill-opacity="1.000" fill-rule="nonzero" transform="matrix(1 0 0 1 76.4195 11.9034)"/><path d="M2.31 0C1.566 0 1.136 0.352 0.94 0.665L0.94 0.235C0.94 0.157 0.901 0.117 0.822 0.117L0.509 0.117L0.47 0.117L0.431 0.117L0.117 0.117C0.039 0.117 0 0.157 0 0.235L0 0.587L0 0.783L0 3.913L0 4.148L0 4.5C0 4.578 0.039 4.617 0.117 4.617L0.47 4.617L0.548 4.617L0.901 4.617C0.979 4.617 1.018 4.578 1.018 4.5L1.018 4.148L1.018 1.956C1.018 1.252 1.41 0.861 2.075 0.861C2.545 0.861 2.937 1.252 2.937 1.761L2.937 4.148L2.937 4.461C2.937 4.539 2.976 4.578 3.054 4.578L3.407 4.578L3.485 4.578L3.838 4.578C3.916 4.578 3.955 4.539 3.955 4.461L3.955 4.108L3.955 3.874L3.955 1.722C3.955 0.704 3.368 0 2.31 0Z" fill="rgb(250,99,0)" fill-opacity="1.000" fill-rule="nonzero" transform="matrix(1 0 0 1 87.4237 13.2338)"/><path d="M2.232 0.861C2.741 0.861 3.133 1.135 3.289 1.565C3.289 1.565 3.289 1.565 3.289 1.604C3.289 1.643 3.368 1.682 3.407 1.682L3.446 1.682L3.642 1.682L4.151 1.682C4.229 1.682 4.268 1.643 4.268 1.565C4.268 1.565 4.268 1.33 4.073 0.978C4.073 0.978 4.073 0.978 4.073 0.939C4.073 0.939 4.073 0.9 4.033 0.9C3.798 0.509 3.446 0.313 3.446 0.313C3.133 0.117 2.741 0 2.232 0C0.901 0 0 1.017 0 2.309C0 3.561 0.901 4.617 2.232 4.617C2.702 4.617 3.093 4.5 3.446 4.304C3.446 4.304 3.798 4.108 4.033 3.717C4.033 3.717 4.033 3.678 4.073 3.678C4.073 3.678 4.073 3.639 4.112 3.639C4.112 3.639 4.112 3.639 4.112 3.6C4.308 3.287 4.308 3.013 4.308 3.013C4.308 2.935 4.268 2.895 4.19 2.895L3.407 2.895C3.328 2.895 3.289 2.935 3.289 2.974C3.289 2.974 3.289 2.974 3.289 3.013C3.133 3.404 2.741 3.717 2.232 3.717C1.488 3.717 1.018 3.13 1.018 2.309C1.018 1.409 1.488 0.861 2.232 0.861Z" fill="rgb(250,99,0)" fill-opacity="1.000" fill-rule="nonzero" transform="matrix(1 0 0 1 92.2792 13.2729)"/><path d="M2.31 0C0.901 0 0 1.056 0 2.309C0 3.561 0.901 4.617 2.31 4.617C3.72 4.617 4.621 3.561 4.621 2.309C4.621 1.056 3.72 0 2.31 0ZM2.31 3.678C1.566 3.678 1.018 3.13 1.018 2.269C1.018 1.409 1.566 0.861 2.31 0.861C3.054 0.861 3.603 1.409 3.603 2.269C3.603 3.13 3.054 3.678 2.31 3.678Z" fill="rgb(250,99,0)" fill-opacity="1.000" fill-rule="nonzero" transform="matrix(1 0 0 1 97.2915 13.2338)"/><path d="M4.386 0.117L3.681 0.117C3.603 0.117 3.563 0.157 3.563 0.235L3.563 0.743C3.289 0.274 2.741 0 2.075 0C0.744 0 0 1.056 0 2.309C0 3.561 0.744 4.617 2.075 4.617C2.78 4.617 3.289 4.343 3.563 3.874L3.563 3.952L3.563 4.5C3.563 4.578 3.603 4.617 3.681 4.617L4.386 4.617C4.464 4.617 4.503 4.578 4.503 4.5L4.503 4.148L4.503 3.952L4.503 0.743L4.503 0.587L4.503 0.235C4.503 0.157 4.425 0.117 4.386 0.117ZM2.232 3.678C1.449 3.678 0.979 3.052 0.979 2.269C0.979 1.487 1.449 0.861 2.232 0.861C3.015 0.861 3.485 1.487 3.485 2.269C3.524 3.091 3.015 3.678 2.232 3.678Z" fill="rgb(250,99,0)" fill-opacity="1.000" fill-rule="nonzero" transform="matrix(1 0 0 1 81.6673 13.2338)"/><path d="M0.039 1.345C0.039 0.523 0.783 -0.103 1.566 0.014C5.835 0.679 9.124 4.357 9.124 8.818C9.124 15.783 3.524 17.309 1.096 17.622C0.509 17.7 0 17.23 0 16.643C0.039 16.683 0.039 5.375 0.039 1.345Z" fill="rgb(70,42,113)" fill-opacity="1.000" fill-rule="nonzero" transform="matrix(1 0 0 1 29.6241 21.0842)"/><path d="M1.018 17.803L5.012 17.803C6.696 17.803 8.067 16.434 8.067 14.751L8.067 0.978C8.067 0.43 7.636 0 7.088 0L5.208 0C2.35 0 0 2.309 0 5.204L0 16.786C0 17.334 0.431 17.803 1.018 17.803Z" fill="rgb(250,99,0)" fill-opacity="1.000" fill-rule="nonzero" transform="matrix(1 0 0 1 21.5964 12.6859)"/><path d="M14.372 15.592C16.799 14.34 17.896 12.11 17.974 9.723C17.974 7.727 17.465 6.084 16.564 4.754L18.092 2.993C18.327 2.68 18.287 2.249 17.974 2.015L15.507 0.137C15.194 -0.098 14.763 -0.02 14.528 0.293L13.236 2.015C11.944 1.428 10.534 1.115 9.046 1.115C4.347 1.115 0 3.971 0 9.684C0 14.888 3.563 18.135 9.085 18.135C12.1 18.135 13.158 19.387 13.158 21.031C13.158 23.104 11.2 24.122 9.007 24.122C6.931 24.122 5.247 23.418 4.856 21.305C4.817 20.992 4.503 20.757 4.19 20.757L0.94 20.757C0.548 20.757 0.235 21.109 0.235 21.5C0.47 25.883 3.485 28.465 8.968 28.465C13.588 28.465 18.052 26.039 18.052 21.07C18.092 20.013 18.092 17.274 14.372 15.592ZM9.007 13.753C6.696 13.753 4.817 11.875 4.817 9.566C4.817 7.258 6.696 5.38 9.007 5.38C11.317 5.38 13.197 7.258 13.197 9.566C13.197 11.875 11.317 13.753 9.007 13.753Z" fill="rgb(250,99,0)" fill-opacity="1.000" fill-rule="nonzero" transform="matrix(1 0 0 1 90.7519 19.7098)"/></svg>