<svg xmlns="http://www.w3.org/2000/svg" viewBox="0 0 130 60" width="130" height="60"><path d="M0 0L130 0L130 60L0 60L0 0Z" fill="rgb(255,255,255)" fill-opacity="1.000" fill-rule="nonzero" transform="matrix(1 0 0 1 0 0)"/><path d="M1.206 10.013L1.206 1.917C1.206 0.893 1.173 0.422 0.373 0.422L0 0.422L0 0L3.971 0C5.858 0 6.926 0.507 6.901 2.07C6.888 2.883 5.994 4.025 4.712 4.484C5.922 4.715 7.183 5.992 7.183 7.27C7.183 9.642 5.148 10.013 3.598 10.013L1.206 10.013L1.206 10.013ZM2.511 4.392L3.466 4.391C4.907 4.39 5.647 3.03 5.647 2.322C5.647 0.448 4.121 0.302 2.511 0.423L2.511 4.392ZM2.511 8.528C2.511 9.114 3.296 9.54 3.847 9.614C5.23 9.8 6.032 8.638 6.036 7.72C6.043 5.969 4.487 4.79 3.206 4.849C2.99 4.859 2.644 4.841 2.511 4.864L2.511 8.528ZM18.34 4.076C19.176 3.078 20.435 2.639 21.191 2.639C21.579 2.639 21.915 2.738 22.195 2.932C22.476 3.126 22.7 3.448 22.866 3.895C22.981 4.209 23.052 4.628 23.052 5.272L23.052 8.328C23.052 8.777 23.09 9.081 23.162 9.244C23.217 9.371 23.311 9.473 23.436 9.544C23.563 9.616 23.838 9.653 24.179 9.653L24.179 9.941L20.649 9.941L20.649 9.653L20.798 9.653C21.128 9.653 21.423 9.603 21.555 9.502C21.686 9.402 21.779 9.251 21.83 9.057C21.85 8.98 21.862 8.735 21.862 8.328L21.862 5.386C21.862 4.734 21.776 4.257 21.609 3.962C21.441 3.667 21.096 3.52 20.696 3.52C20.081 3.52 18.95 3.858 18.34 4.537L18.34 8.328C18.34 8.809 18.369 9.105 18.426 9.219C18.5 9.369 18.601 9.479 18.729 9.549C18.856 9.62 19.202 9.653 19.593 9.653L19.593 9.941L16.047 9.941L16.047 9.653L16.204 9.653C16.568 9.653 16.813 9.563 16.941 9.379C17.069 9.195 17.133 8.844 17.133 8.328L17.133 4.852C17.133 4.144 16.654 3.759 15.889 3.536L18.34 2.577L18.34 4.076ZM30.418 4.386C30.085 3.863 29.446 3.107 28.53 3.065C27 2.996 26.42 4.648 26.414 5.843C26.402 8.103 27.224 9.499 29.19 9.556C29.751 9.572 30.507 9.405 31.06 9.055L31.079 9.688C30.288 10.175 29.572 10.245 28.555 10.245C26.437 10.245 25.061 8.597 25.061 6.628C25.061 4.508 26.491 2.593 28.876 2.593C29.602 2.593 30.832 2.852 31.309 3.433L30.418 4.386ZM35.637 2.551C37.622 2.551 39.231 4.272 39.231 6.395C39.231 8.518 37.622 10.238 35.637 10.238C33.651 10.238 32.042 8.518 32.042 6.395C32.042 4.272 33.651 2.551 35.637 2.551ZM35.637 3.004C36.876 3.004 37.88 4.522 37.88 6.395C37.88 8.268 36.876 9.786 35.637 9.786C34.397 9.786 33.393 8.268 33.393 6.395C33.393 4.522 34.397 3.004 35.637 3.004ZM8.742 5.011C8.735 3.367 10.489 2.577 11.56 2.577C12.196 2.577 12.715 2.684 13.122 2.896C13.428 3.056 13.52 3.296 13.666 3.64C13.759 3.86 13.799 4.319 13.807 5.008L13.847 8.679C13.857 9.582 14.935 9.6 15.215 9.499L15.229 9.843C14.769 10.156 14.297 10.298 13.938 10.247C13.192 10.142 12.785 9.461 12.713 8.842C12.205 9.468 11.316 10.242 10.279 10.242C9.369 10.242 8.578 9.623 8.618 8.369C8.671 6.658 11.545 6.157 12.648 5.755L12.648 4.917C12.648 3.84 12.52 3.142 11.325 3.142C10.455 3.142 10.048 3.511 10.118 4.518L8.742 5.011ZM12.648 7.814L12.648 6.234C11.933 6.516 10.547 6.873 10.081 7.527C9.902 7.777 9.688 8.451 10.065 9.003C10.81 10.093 12.648 9.059 12.648 7.814Z" fill="rgb(177,177,177)" fill-opacity="1.000" fill-rule="evenodd" transform="matrix(1 0 0 1 15 22.0195)"/><path d="M10.882 5.03C10.875 3.387 12.629 2.597 13.699 2.597C14.335 2.597 14.854 2.703 15.262 2.916C15.568 3.076 15.659 3.315 15.805 3.659C15.899 3.88 15.939 4.338 15.946 5.028L15.986 8.699C15.996 9.602 17.075 9.619 17.355 9.519L17.369 9.863C16.908 10.176 16.436 10.317 16.078 10.267C15.332 10.162 14.924 9.481 14.852 8.861C14.344 9.487 13.456 10.261 12.419 10.261C11.509 10.261 10.718 9.642 10.757 8.389C10.811 6.677 13.685 6.176 14.788 5.774L14.788 4.937C14.788 3.86 14.66 3.162 13.465 3.162C12.594 3.162 12.188 3.531 12.258 4.538L10.882 5.03ZM14.788 7.834L14.788 6.253C14.073 6.535 12.687 6.892 12.221 7.547C12.042 7.797 11.828 8.47 12.205 9.022C12.95 10.112 14.788 9.079 14.788 7.834ZM1.179 10.033L1.179 1.787C1.179 0.392 1.013 0.456 0 0.456L0 0.02L3.741 0.02C7.183 0.02 9.43 0.995 9.43 4.973C9.43 7.403 7.89 10.033 4.139 10.033L1.179 10.033L1.179 10.033ZM2.479 8.568C2.674 9.451 3.871 9.59 4.294 9.59C6.514 9.59 8.053 8.065 8.053 5.041C8.053 3.66 7.585 2.555 6.835 1.76C6.031 0.907 5.308 0.37 2.479 0.428L2.479 8.568ZM18.346 11.779C18.742 11.964 19.374 11.965 19.644 11.878C20.828 11.499 21.209 10.85 21.675 9.844L19.035 4.316C18.728 3.673 18.534 3.249 17.899 3.218L17.899 2.804L20.868 2.804L20.868 3.218L20.703 3.218C20.053 3.218 20.041 3.536 20.447 4.417L22.308 8.452L24.238 4.228C24.476 3.706 24.566 3.206 23.703 3.206L23.703 2.804L25.922 2.804L25.922 3.206C25.567 3.206 25.308 3.189 24.816 4.228L21.5 11.221C20.934 12.413 19.728 13.497 17.706 12.867L18.346 11.779ZM41.127 2.804L44.113 2.804L44.113 3.213L43.895 3.213C43.185 3.213 43.323 3.695 43.577 4.242L45.597 8.59L47.409 4.092C47.626 3.553 47.629 3.221 46.685 3.221L46.685 2.804L49.142 2.804L49.142 3.221C48.822 3.221 48.524 3.195 48.159 4.055L45.529 10.254L45.07 10.254L42.236 4.21C41.915 3.526 41.807 3.271 41.126 3.213L41.126 2.804L41.127 2.804ZM59.519 0L59.519 8.347C59.519 8.791 59.55 9.088 59.614 9.231C59.68 9.375 59.78 9.487 59.915 9.561C60.048 9.636 60.301 9.673 60.669 9.673L60.669 9.96L57.17 9.96L57.17 9.673C57.498 9.673 57.811 9.638 57.931 9.572C58.051 9.505 58.145 9.394 58.213 9.239C58.281 9.085 58.314 8.786 58.314 8.347L58.314 2.164C58.314 1.502 57.481 1.079 57.043 0.878L59.519 0ZM37.013 2.571C38.998 2.571 40.607 4.292 40.607 6.414C40.607 8.537 38.998 10.258 37.013 10.258C35.028 10.258 33.419 8.537 33.419 6.414C33.419 4.292 35.028 2.571 37.013 2.571ZM37.013 3.024C38.252 3.024 39.256 4.542 39.256 6.415C39.256 8.287 38.252 9.806 37.013 9.806C35.774 9.806 34.769 8.287 34.769 6.415C34.769 4.542 35.774 3.024 37.013 3.024ZM50.03 5.03C50.023 3.387 51.778 2.597 52.848 2.597C53.484 2.597 54.003 2.703 54.41 2.916C54.717 3.076 54.808 3.315 54.954 3.659C55.047 3.88 55.087 4.338 55.095 5.028L55.135 8.699C55.145 9.602 56.224 9.619 56.503 9.519L56.518 9.863C56.057 10.176 55.585 10.317 55.227 10.267C54.48 10.162 54.073 9.481 54.001 8.861C53.493 9.487 52.604 10.261 51.568 10.261C50.658 10.261 49.867 9.642 49.906 8.389C49.959 6.677 52.833 6.176 53.937 5.774L53.937 4.937C53.937 3.86 53.808 3.162 52.614 3.162C51.743 3.162 51.336 3.531 51.407 4.538L50.03 5.03ZM53.936 7.834L53.936 6.253C53.221 6.535 51.835 6.892 51.369 7.547C51.191 7.797 50.976 8.47 51.353 9.022C52.098 10.112 53.936 9.079 53.936 7.834ZM31.774 4.406C31.441 3.883 30.802 3.126 29.886 3.085C28.356 3.015 27.776 4.667 27.77 5.863C27.758 8.123 28.58 9.518 30.546 9.575C31.107 9.592 31.863 9.424 32.416 9.075L32.435 9.707C31.644 10.194 30.928 10.264 29.911 10.264C27.793 10.264 26.417 8.616 26.417 6.648C26.417 4.527 27.847 2.613 30.232 2.613C30.958 2.613 32.188 2.872 32.665 3.453L31.774 4.406Z" fill="rgb(26,30,81)" fill-opacity="1.000" fill-rule="evenodd" transform="matrix(1 0 0 1 55.3313 22)"/><path d="M0 0L3.212 0L3.212 3.212L0 3.212L0 0Z" fill="rgb(177,177,177)" fill-opacity="1.000" fill-rule="evenodd" transform="matrix(1 0 0 1 56.5103 34.2753)"/><path d="M0 0L3.212 0L3.212 3.212L0 3.212L0 0Z" fill="rgb(26,30,81)" fill-opacity="1.000" fill-rule="evenodd" transform="matrix(1 0 0 1 59.7225 34.2753)"/></svg>