<svg xmlns="http://www.w3.org/2000/svg" viewBox="0 0 130 60" width="130" height="60"><path d="M0 0L130 0L130 60L0 60L0 0Z" fill="rgb(255,255,255)" fill-opacity="1.000" fill-rule="nonzero" transform="matrix(1 0 0 1 0 0)"/><path d="M13.771 7.461C13.833 5.576 12.287 3.857 9.03 3.794C6.727 3.761 5.017 4.561 4.864 6.473C4.738 8.068 5.275 8.385 6.313 8.797C6.854 9.375 11.215 10.076 12.093 10.232C13.359 10.458 16.081 11.03 17.53 12.527C20.185 15.333 18.955 20.85 16.081 22.731C14.116 24.005 11.435 24.325 8.875 24.356C7.706 24.39 4.924 23.973 3.218 22.731C1.166 21.23 0.153 18.935 0 16.738L4.607 16.738C4.607 17.342 4.799 18.299 5.586 19.13C6.627 20.216 8.34 20.564 9.918 20.499C11.498 20.468 12.98 19.992 13.581 19.412C14.592 18.46 14.814 16.639 13.676 15.495C12.157 13.9 7.611 13.9 4.642 12.88C2.142 12.017 0.093 10.197 0.471 6.442C0.85 2.741 3.501 0 9.129 0C10.357 0 14.655 0.096 16.9 2.967C18.101 4.527 18.416 6.695 18.228 7.461L13.771 7.461Z" fill="rgb(30,32,68)" fill-opacity="1.000" fill-rule="evenodd" transform="matrix(1 0 0 1 47.789 17.9882)"/><path d="M10.528 9.438C9.263 10.202 7.562 10.141 6.421 10.36C5.065 10.618 4.111 11.764 4.495 13.169C4.748 14.186 5.533 14.92 7.431 14.602C10.052 14.186 10.528 12.338 10.528 10.423L10.528 9.438ZM11.034 17.568C10.718 17.154 10.528 16.452 10.56 15.846C9.012 17.311 7.653 18.299 5.065 18.299C1.586 18.299 -0.12 16.325 0.007 12.976C0.102 10.552 1.049 8.193 4.968 7.522C6.608 7.456 8.376 7.078 9.423 6.727C10.21 6.438 10.592 5.611 10.528 4.78C10.528 3.698 9.64 3.218 7.619 3.218C5.091 3.218 4.774 4.78 4.715 6.026L0.543 6.026C0.61 0.511 5.283 0 7.619 0C9.327 0 10.811 0.284 11.667 0.638C13.373 1.338 14.729 2.74 14.729 5.485L14.729 14.92C14.699 15.685 15.143 16.452 15.707 16.958L15.707 17.568L11.034 17.568Z" fill="rgb(30,32,68)" fill-opacity="1.000" fill-rule="evenodd" transform="matrix(1 0 0 1 68.0031 24.0453)"/><path d="M0 6.312L2.406 6.312L2.406 4.303C2.406 1.724 3.702 0 6.574 0L9.326 0L9.326 3.315L7.779 3.315C7.178 3.315 6.828 3.701 6.828 4.493L6.828 6.312L9.454 6.312L9.454 9.276L6.828 9.276L6.828 23.242L2.406 23.242L2.406 9.276L0 9.276L0 6.312Z" fill="rgb(30,32,68)" fill-opacity="1.000" fill-rule="evenodd" transform="matrix(1 0 0 1 84.4657 18.3705)"/><path d="M0 0.334L4.426 0.334L4.426 3.686L4.487 3.686C4.771 2.665 4.993 2.061 6.54 0.973C7.3 0.398 8.311 -0.175 9.701 0.05L9.701 4.609C7.808 4.388 4.961 4.133 4.426 7.893L4.426 17.618L0 17.618L0 0.334Z" fill="rgb(30,32,68)" fill-opacity="1.000" fill-rule="evenodd" transform="matrix(1 0 0 1 95.8375 23.9949)"/><path d="M10.524 9.438C9.26 10.202 7.554 10.141 6.422 10.36C5.063 10.618 4.118 11.764 4.492 13.169C4.746 14.186 5.539 14.92 7.429 14.602C10.052 14.186 10.524 12.338 10.524 10.423L10.524 9.438ZM11.035 17.568C10.717 17.154 10.524 16.452 10.557 15.846C9.008 17.311 7.653 18.299 5.063 18.299C1.585 18.299 -0.125 16.325 0.007 12.976C0.101 10.552 1.045 8.193 4.968 7.522C6.61 7.456 8.38 7.078 9.42 6.727C10.216 6.438 10.593 5.611 10.524 4.78C10.524 3.698 9.642 3.218 7.621 3.218C5.091 3.218 4.778 4.78 4.712 6.026L0.545 6.026C0.605 0.511 5.279 0 7.621 0C9.327 0 10.811 0.284 11.666 0.638C13.367 1.338 14.728 2.74 14.728 5.485L14.728 14.92C14.697 15.685 15.139 16.452 15.709 16.958L15.709 17.568L11.035 17.568Z" fill="rgb(30,32,68)" fill-opacity="1.000" fill-rule="evenodd" transform="matrix(1 0 0 1 106.2906 24.0453)"/><path d="M16.435 18.725C16.363 17.139 15.77 16.179 15.183 15.6L15.19 15.6C15.968 15.6 17.051 16.283 17.051 17.375C17.051 17.978 16.847 18.417 16.435 18.725ZM13.803 21.761L13.803 20.239C14.365 20.227 14.874 20.175 15.33 20.085C15.11 21.121 14.537 21.612 13.803 21.761ZM11.679 19.988C11.966 20.088 12.323 20.169 12.788 20.211L12.788 21.73C12.228 21.531 11.744 20.964 11.679 19.988ZM11.672 15.6L12.788 15.6L12.788 19.273C12.372 19.217 12.001 19.116 11.672 18.982L11.672 15.6ZM9.913 13.142C9.913 12.592 10.164 12.115 10.657 11.771L10.657 14.463C10.184 14.19 9.913 13.689 9.913 13.142ZM12.788 8.898L12.788 10.278C12.414 10.288 12.053 10.328 11.713 10.396C11.835 9.71 12.23 9.14 12.788 8.898ZM14.963 10.613C14.652 10.503 14.273 10.392 13.803 10.328L13.803 8.837C14.347 9.016 14.807 9.577 14.963 10.613ZM13.803 14.633L13.803 11.253C14.227 11.312 14.635 11.416 15.019 11.557C14.98 13.018 14.24 14.373 13.803 14.633ZM11.672 11.338C11.999 11.259 12.372 11.211 12.788 11.199L12.788 14.678L11.672 14.678L11.672 11.338ZM15.426 19.151C14.979 19.254 14.439 19.307 13.803 19.318L13.803 15.609C14.267 15.716 15.427 16.842 15.427 19.047C15.427 19.082 15.427 19.117 15.426 19.151ZM15.021 14.678L14.97 14.678C15.478 14.046 15.883 13.045 16.001 12.027C16.358 12.243 16.678 12.492 16.95 12.767C17.085 12.903 17.152 12.971 17.254 12.971C17.457 12.971 17.558 12.801 17.457 12.63C17.186 12.186 17.085 11.811 17.085 11.333C17.085 11.026 17.186 10.753 17.254 10.582C17.322 10.411 17.254 10.241 17.051 10.241C16.882 10.241 16.848 10.377 16.78 10.48C16.65 10.709 16.395 10.906 16.016 10.922C15.87 9.077 14.935 8.174 13.971 7.925C14.317 7.093 15.175 6.583 16.307 6.349C16.476 6.315 16.611 6.247 16.611 6.11C16.611 5.94 16.476 5.871 16.307 5.871C15.935 5.871 15.393 6.076 14.953 6.213C14.277 6.417 13.702 6.554 13.194 6.554C12.112 6.554 11.164 6.076 10.86 6.076C10.725 6.076 10.623 6.178 10.623 6.315C10.623 6.417 10.691 6.52 10.894 6.588C11.793 6.882 12.378 7.353 12.636 7.987C12.102 8.185 11.659 8.588 11.356 9.114C10.996 8.381 10.54 8.056 9.879 8.056C9.236 8.056 8.728 8.534 8.728 9.114C8.728 9.524 8.999 9.831 9.304 9.831C9.439 9.831 9.507 9.763 9.507 9.66C9.507 9.524 9.439 9.49 9.439 9.285C9.439 9.08 9.608 8.909 9.879 8.909C10.285 8.909 10.657 9.319 10.657 10.445L10.657 10.726C9.593 11.201 8.898 12.039 8.898 13.176C8.898 14.344 9.661 15.217 10.657 15.501L10.657 18.381C9.898 17.764 9.473 16.968 9.202 16.385C9.135 16.248 9.067 16.078 8.898 16.078C8.695 16.078 8.627 16.283 8.728 16.522C8.83 16.76 8.898 17.136 8.898 17.477C8.898 17.887 8.762 18.262 8.492 18.535C8.356 18.672 8.255 18.774 8.255 18.877C8.255 19.013 8.356 19.082 8.458 19.082C8.661 19.082 8.898 18.843 9.337 18.843C9.608 18.843 9.946 18.979 10.488 19.321C10.545 19.354 10.6 19.39 10.657 19.428L10.657 19.833L10.657 20.31C10.657 20.788 10.454 21.096 10.048 21.096C9.777 21.096 9.608 20.891 9.608 20.618C9.608 20.413 9.743 20.345 9.743 20.242C9.743 20.14 9.676 20.072 9.54 20.072C9.337 20.072 8.999 20.379 8.999 20.891C8.999 21.369 9.337 21.949 10.048 21.949C10.45 21.949 10.828 21.826 11.182 21.475C11.51 22.009 12.085 22.486 12.735 22.662C12.557 23.563 11.94 24.304 11.063 24.304C10.623 24.304 10.386 24.065 10.386 23.758C10.386 23.519 10.555 23.383 10.691 23.314C10.86 23.246 10.995 23.212 10.995 23.007C10.995 22.905 10.927 22.768 10.589 22.768C9.98 22.768 9.473 23.314 9.473 23.963C9.473 24.68 9.98 25.362 11.029 25.362C11.923 25.362 12.701 24.92 13.193 24.363C13.772 24.834 14.653 25.226 15.089 25.226C15.224 25.226 15.359 25.158 15.359 25.021C15.359 24.885 15.224 24.782 15.089 24.714C14.311 24.304 13.803 23.724 13.803 22.7L13.803 22.683C15.011 22.456 16.141 21.468 16.391 19.767C17.49 19.296 18.066 18.484 18.066 17.375C18.066 15.77 16.577 14.678 15.021 14.678ZM20.772 24.304C19.588 24.304 18.81 23.622 18.81 22.598C18.81 21.744 19.385 21.061 20.062 21.061C20.333 21.061 20.569 21.164 20.569 21.437C20.569 21.608 20.502 21.744 20.671 21.744C20.772 21.744 20.874 21.642 20.874 21.369C20.874 21.027 20.569 20.754 20.13 20.754L20.028 20.754C20.096 20.618 20.096 20.481 20.096 20.447C20.096 20.14 19.859 19.969 19.622 19.969C19.385 19.969 19.149 20.106 19.149 20.276C19.149 20.345 19.182 20.379 19.25 20.379C19.351 20.379 19.385 20.276 19.555 20.276C19.69 20.276 19.791 20.345 19.791 20.515C19.791 20.754 19.588 20.857 19.419 20.959C18.878 21.266 18.506 21.881 18.506 22.598C18.506 23.553 19.047 24.168 19.825 24.441L19.318 25.226C18.641 25.226 18.303 25.738 17.694 26.83C17.626 26.557 17.423 26.352 17.085 26.352C16.713 26.352 16.476 26.626 16.476 27.001C16.476 27.103 16.543 27.172 16.611 27.172C16.713 27.172 16.78 27.103 16.78 27.001C16.78 26.83 16.882 26.66 17.085 26.66C17.322 26.66 17.423 26.83 17.423 27.035C17.423 27.274 17.389 27.411 17.22 27.684C16.51 28.844 15.529 29.425 14.683 29.425C13.939 29.425 13.499 28.981 13.499 28.537C13.499 28.127 13.736 27.786 14.142 27.786C14.412 27.786 14.581 27.957 14.581 28.196C14.581 28.401 14.412 28.401 14.412 28.503C14.412 28.571 14.48 28.605 14.547 28.605C14.751 28.605 14.886 28.366 14.886 28.127C14.886 27.752 14.581 27.479 14.142 27.479C13.736 27.479 13.397 27.752 13.296 28.025C13.194 27.752 12.856 27.479 12.45 27.479C12.01 27.479 11.706 27.752 11.706 28.127C11.706 28.366 11.841 28.605 12.044 28.605C12.112 28.605 12.179 28.571 12.179 28.503C12.179 28.401 12.01 28.401 12.01 28.196C12.01 27.957 12.179 27.786 12.45 27.786C12.856 27.786 13.093 28.127 13.093 28.537C13.093 28.981 12.653 29.425 11.909 29.425C11.063 29.425 10.082 28.844 9.371 27.684C9.202 27.411 9.168 27.274 9.168 27.035C9.168 26.83 9.27 26.66 9.507 26.66C9.71 26.66 9.811 26.83 9.811 27.001C9.811 27.103 9.879 27.172 9.98 27.172C10.048 27.172 10.116 27.103 10.116 27.001C10.116 26.626 9.879 26.352 9.507 26.352C9.168 26.352 8.965 26.557 8.898 26.83C8.289 25.738 7.95 25.226 7.274 25.226L6.766 24.441C7.544 24.168 8.086 23.553 8.086 22.598C8.086 21.881 7.714 21.266 7.172 20.959C7.003 20.857 6.8 20.754 6.8 20.515C6.8 20.345 6.902 20.276 7.037 20.276C7.206 20.276 7.24 20.379 7.341 20.379C7.409 20.379 7.443 20.345 7.443 20.276C7.443 20.106 7.206 19.969 6.969 19.969C6.732 19.969 6.496 20.14 6.496 20.447C6.496 20.481 6.496 20.618 6.563 20.754L6.462 20.754C6.022 20.754 5.717 21.027 5.717 21.369C5.717 21.642 5.819 21.744 5.92 21.744C6.09 21.744 6.022 21.608 6.022 21.437C6.022 21.164 6.259 21.061 6.529 21.061C7.206 21.061 7.781 21.744 7.781 22.598C7.781 23.622 7.003 24.304 5.819 24.304C4.432 24.304 3.383 23.28 3.383 21.847C3.383 20.447 4.195 19.491 5.109 18.638L5.887 17.887C6.868 16.965 7.274 16.009 7.274 14.815C7.274 13.518 6.496 12.084 4.872 11.367C5.21 11.265 5.413 10.923 5.413 10.514C5.413 10.241 5.312 10.07 5.312 9.865C5.312 9.455 5.548 9.216 5.887 9.216C6.191 9.216 6.394 9.455 6.394 9.694C6.394 9.899 6.259 10.07 6.022 10.07C5.92 10.07 5.853 10.07 5.853 10.172C5.853 10.275 5.954 10.309 6.09 10.309C6.496 10.309 6.699 9.968 6.699 9.797C6.766 9.831 6.834 9.865 6.935 9.865C7.172 9.865 7.341 9.694 7.341 9.455C7.341 9.387 7.308 9.285 7.206 9.285C7.138 9.285 7.105 9.353 7.105 9.421C7.105 9.524 7.037 9.592 6.935 9.592C6.8 9.592 6.699 9.49 6.631 9.353C6.496 9.114 6.225 8.909 5.887 8.909C5.447 8.909 5.109 9.216 5.041 9.626C4.838 9.421 4.601 9.216 4.263 9.012C4.533 8.841 4.77 8.705 5.041 8.5C5.447 8.192 5.819 7.851 6.225 7.407L8.086 5.359C9.71 3.55 10.758 3.106 11.773 3.106C12.653 3.106 13.093 3.55 13.093 4.062C13.093 4.437 12.933 4.716 12.679 4.854C12.535 4.706 12.43 4.505 12.382 4.267C12.348 4.096 12.315 4.096 12.281 4.096C12.213 4.096 12.213 4.164 12.213 4.233C12.213 4.525 12.282 4.76 12.395 4.943C12.358 4.947 12.32 4.95 12.281 4.95C11.942 4.95 11.739 4.779 11.739 4.574C11.739 4.54 11.739 4.472 11.807 4.403C11.875 4.335 11.841 4.301 11.807 4.301C11.672 4.301 11.536 4.472 11.536 4.677C11.536 4.916 11.739 5.257 12.315 5.257C12.4 5.257 12.513 5.246 12.634 5.209C12.825 5.356 13.06 5.428 13.296 5.428C13.531 5.428 13.766 5.356 13.957 5.209C14.078 5.246 14.192 5.257 14.277 5.257C14.852 5.257 15.055 4.916 15.055 4.677C15.055 4.472 14.92 4.301 14.784 4.301C14.751 4.301 14.717 4.335 14.784 4.403C14.852 4.472 14.852 4.54 14.852 4.574C14.852 4.779 14.649 4.95 14.311 4.95C14.271 4.95 14.233 4.947 14.196 4.943C14.309 4.76 14.378 4.525 14.378 4.233C14.378 4.164 14.378 4.096 14.311 4.096C14.277 4.096 14.243 4.096 14.209 4.267C14.162 4.505 14.056 4.706 13.912 4.854C13.658 4.716 13.499 4.437 13.499 4.062C13.499 3.55 13.939 3.106 14.818 3.106C15.833 3.106 16.882 3.55 18.506 5.359L20.366 7.407C20.739 7.851 21.145 8.192 21.551 8.5C21.821 8.705 22.058 8.841 22.329 9.012C21.99 9.216 21.754 9.421 21.551 9.626C21.483 9.216 21.145 8.909 20.705 8.909C20.366 8.909 20.096 9.114 19.96 9.353C19.893 9.49 19.791 9.592 19.656 9.592C19.555 9.592 19.487 9.524 19.487 9.421C19.487 9.353 19.453 9.285 19.385 9.285C19.284 9.285 19.25 9.387 19.25 9.455C19.25 9.694 19.419 9.865 19.656 9.865C19.757 9.865 19.825 9.831 19.893 9.797C19.893 9.968 20.096 10.309 20.502 10.309C20.637 10.309 20.739 10.275 20.739 10.172C20.739 10.07 20.671 10.07 20.569 10.07C20.333 10.07 20.197 9.933 20.197 9.694C20.197 9.455 20.4 9.216 20.705 9.216C21.043 9.216 21.28 9.455 21.28 9.865C21.28 10.07 21.178 10.241 21.178 10.514C21.178 10.923 21.381 11.265 21.72 11.367C20.096 12.084 19.318 13.518 19.318 14.815C19.318 16.009 19.724 16.965 20.705 17.887L21.483 18.638C22.396 19.491 23.208 20.447 23.208 21.847C23.208 23.28 22.16 24.304 20.772 24.304ZM13.296 30.653C13.025 30.107 12.721 29.766 12.585 29.595C12.924 29.459 13.16 29.22 13.296 28.947C13.431 29.22 13.668 29.459 14.006 29.595C13.871 29.766 13.566 30.107 13.296 30.653ZM13.638 5.047C13.532 5.094 13.416 5.12 13.296 5.12C13.175 5.12 13.06 5.094 12.954 5.047C13.086 4.946 13.208 4.798 13.296 4.585C13.383 4.798 13.506 4.946 13.638 5.047ZM23.75 20.379C23.547 20.379 23.377 20.481 23.31 20.618C23.039 20.003 22.768 19.423 21.584 18.331C21.652 18.365 21.889 18.399 22.058 18.399C22.43 18.399 22.836 18.297 23.073 18.058C23.141 18.297 23.344 18.433 23.58 18.433C23.953 18.433 24.088 18.194 24.088 17.921C24.088 17.819 24.054 17.716 23.953 17.716C23.75 17.716 23.919 18.126 23.58 18.126C23.445 18.126 23.344 18.023 23.344 17.853C23.344 17.682 23.445 17.477 23.445 17.238C23.445 16.692 23.107 16.317 22.701 16.214C22.464 16.146 22.329 15.975 22.329 15.77C22.329 15.497 22.532 15.463 22.667 15.463C22.802 15.463 22.904 15.497 22.904 15.395C22.904 15.293 22.802 15.224 22.599 15.224C22.362 15.224 22.024 15.395 22.024 15.77C22.024 15.907 22.058 16.044 22.193 16.18C21.889 16.248 21.618 16.487 21.618 16.863C21.618 17.102 21.686 17.341 21.855 17.341C22.058 17.341 21.889 17.17 21.889 16.897C21.889 16.59 22.16 16.453 22.43 16.453C22.802 16.453 23.141 16.795 23.141 17.238C23.141 17.75 22.735 18.092 22.092 18.092C21.72 18.092 21.178 18.023 20.739 17.511C20.028 16.726 19.622 16.044 19.622 14.815C19.622 13.245 20.739 11.879 22.362 11.435C22.701 11.333 22.971 11.026 22.971 10.616C22.971 10.275 22.768 10.002 22.43 10.002C22.295 10.002 22.193 10.036 22.193 10.138C22.193 10.241 22.295 10.241 22.362 10.241C22.498 10.241 22.667 10.377 22.667 10.616C22.667 10.957 22.396 11.162 22.092 11.162C21.72 11.162 21.483 10.889 21.483 10.514C21.483 9.797 22.329 9.319 22.971 9.012C22.396 8.739 22.193 8.636 21.754 8.295C21.652 8.192 21.618 8.09 21.618 7.954C21.618 7.783 21.72 7.646 21.855 7.646C21.957 7.646 22.024 7.715 22.024 7.817C22.024 7.919 21.957 7.919 21.957 7.988C21.957 8.056 21.99 8.09 22.058 8.09C22.126 8.09 22.295 8.022 22.295 7.749C22.295 7.544 22.16 7.339 21.855 7.339C21.551 7.339 21.314 7.578 21.314 7.919C21.077 7.715 20.806 7.476 20.569 7.203L19.487 6.008C19.182 5.666 19.351 5.018 19.791 5.018C20.028 5.018 20.13 5.189 20.13 5.325C20.13 5.632 19.825 5.496 19.825 5.666C19.825 5.735 19.859 5.803 19.96 5.803C20.197 5.803 20.434 5.632 20.434 5.291C20.434 4.984 20.163 4.711 19.791 4.711C19.351 4.711 19.047 5.052 19.047 5.53L18.709 5.154C17.22 3.516 16.002 2.799 14.818 2.799C14.378 2.799 13.972 2.936 13.736 3.106C13.533 2.867 13.431 2.697 13.296 2.492C13.16 2.697 13.059 2.867 12.856 3.106C12.619 2.936 12.213 2.799 11.773 2.799C10.589 2.799 9.371 3.516 7.883 5.154L7.544 5.53C7.544 5.052 7.24 4.711 6.8 4.711C6.428 4.711 6.157 4.984 6.157 5.291C6.157 5.632 6.394 5.803 6.631 5.803C6.732 5.803 6.766 5.735 6.766 5.666C6.766 5.496 6.462 5.632 6.462 5.325C6.462 5.189 6.563 5.018 6.8 5.018C7.24 5.018 7.409 5.666 7.105 6.008L6.022 7.203C5.785 7.476 5.515 7.715 5.278 7.919C5.278 7.578 5.041 7.339 4.736 7.339C4.432 7.339 4.297 7.544 4.297 7.749C4.297 8.022 4.466 8.09 4.533 8.09C4.601 8.09 4.635 8.056 4.635 7.988C4.635 7.919 4.567 7.919 4.567 7.817C4.567 7.715 4.635 7.646 4.736 7.646C4.872 7.646 4.973 7.783 4.973 7.954C4.973 8.09 4.939 8.192 4.838 8.295C4.432 8.705 4.195 8.739 3.62 9.012C4.263 9.319 5.109 9.797 5.109 10.514C5.109 10.889 4.872 11.162 4.5 11.162C4.195 11.162 3.924 10.957 3.924 10.616C3.924 10.377 4.094 10.241 4.229 10.241C4.297 10.241 4.398 10.241 4.398 10.138C4.398 10.036 4.297 10.002 4.161 10.002C3.823 10.002 3.62 10.275 3.62 10.616C3.62 11.026 3.891 11.333 4.229 11.435C5.853 11.913 6.969 13.245 6.969 14.815C6.969 16.044 6.529 16.692 5.853 17.511C5.413 18.023 4.872 18.092 4.5 18.092C3.857 18.092 3.451 17.75 3.451 17.238C3.451 16.795 3.789 16.453 4.161 16.453C4.432 16.453 4.703 16.59 4.703 16.897C4.703 17.17 4.533 17.341 4.736 17.341C4.906 17.341 4.973 17.102 4.973 16.863C4.973 16.487 4.703 16.248 4.398 16.18C4.533 16.044 4.567 15.907 4.567 15.77C4.567 15.395 4.229 15.224 3.992 15.224C3.789 15.224 3.688 15.293 3.688 15.395C3.688 15.497 3.789 15.463 3.924 15.463C4.06 15.463 4.263 15.497 4.263 15.77C4.263 15.975 4.127 16.146 3.891 16.214C3.485 16.317 3.146 16.692 3.146 17.238C3.146 17.477 3.248 17.682 3.248 17.853C3.248 18.023 3.146 18.126 3.011 18.126C2.673 18.126 2.842 17.716 2.639 17.716C2.537 17.716 2.504 17.819 2.504 17.921C2.504 18.194 2.639 18.433 3.011 18.433C3.248 18.433 3.451 18.297 3.518 18.058C3.755 18.297 4.161 18.399 4.533 18.399C4.703 18.399 4.939 18.365 5.007 18.331C3.823 19.423 3.552 20.003 3.282 20.618C3.214 20.481 3.045 20.379 2.842 20.379C2.504 20.379 2.334 20.584 2.334 20.891C2.334 20.959 2.334 21.164 2.504 21.164C2.639 21.164 2.571 21.027 2.571 20.925C2.571 20.788 2.673 20.686 2.842 20.686C3.112 20.686 3.18 20.925 3.112 21.3C3.079 21.471 3.079 21.676 3.079 21.847C3.079 23.451 4.263 24.612 5.819 24.612C6.056 24.612 6.259 24.577 6.496 24.543L6.969 25.26C6.631 25.362 6.394 25.67 6.394 26.011C6.394 26.455 6.732 26.796 7.172 26.796C7.443 26.796 7.646 26.66 7.646 26.523C7.646 26.421 7.578 26.387 7.511 26.387C7.409 26.387 7.409 26.489 7.172 26.489C6.902 26.489 6.699 26.284 6.699 26.011C6.699 25.738 6.935 25.533 7.274 25.533C7.917 25.533 8.221 26.284 8.661 27.035L9.101 27.786C9.811 29.015 10.961 29.732 11.909 29.732C12.044 29.732 12.179 29.732 12.315 29.698C12.721 30.107 13.127 30.858 13.296 31.2C13.465 30.858 13.871 30.107 14.277 29.698C14.412 29.732 14.547 29.732 14.683 29.732C15.63 29.732 16.78 29.015 17.491 27.786L17.931 27.035C18.37 26.284 18.675 25.533 19.318 25.533C19.656 25.533 19.893 25.738 19.893 26.011C19.893 26.284 19.69 26.489 19.419 26.489C19.182 26.489 19.182 26.387 19.081 26.387C19.013 26.387 18.946 26.421 18.946 26.523C18.946 26.66 19.149 26.796 19.419 26.796C19.859 26.796 20.197 26.455 20.197 26.011C20.197 25.67 19.96 25.362 19.622 25.26L20.096 24.543C20.333 24.577 20.536 24.612 20.772 24.612C22.329 24.612 23.513 23.451 23.513 21.847C23.513 21.676 23.513 21.471 23.479 21.3C23.411 20.925 23.479 20.686 23.75 20.686C23.919 20.686 24.02 20.788 24.02 20.925C24.02 21.027 23.953 21.164 24.088 21.164C24.257 21.164 24.257 20.959 24.257 20.891C24.257 20.584 24.088 20.379 23.75 20.379ZM22.87 26.25C21.381 27.786 19.182 28.878 17.085 29.903C15.698 30.585 14.344 31.268 13.296 32.087C12.247 31.268 10.894 30.585 9.507 29.903C7.409 28.878 5.21 27.786 3.721 26.25C1.827 24.304 0.913 22.324 0.913 20.072C0.913 18.16 1.658 16.556 3.349 14.405C3.485 14.234 3.62 14.064 3.62 13.927C3.62 13.791 3.485 13.518 3.417 13.381L2.233 10.787C1.962 10.206 1.692 9.66 1.692 9.08C1.692 8.602 1.996 8.261 2.402 7.919L4.094 6.383C4.161 6.315 4.161 6.213 4.127 6.144L3.586 5.018C3.518 4.881 3.518 4.779 3.62 4.711C5.278 3.584 6.665 3.243 8.661 2.697C10.555 2.185 12.247 1.741 13.296 1.058C14.344 1.741 16.036 2.185 17.931 2.697C19.927 3.243 21.28 3.653 22.971 4.711C23.073 4.779 23.073 4.881 23.005 5.018L22.464 6.144C22.43 6.213 22.43 6.315 22.498 6.383L24.189 7.919C24.595 8.261 24.9 8.602 24.9 9.08C24.9 9.66 24.629 10.206 24.359 10.787L23.174 13.381C23.107 13.518 22.971 13.791 22.971 13.927C22.971 14.064 23.107 14.234 23.242 14.405C25.069 16.453 25.678 18.16 25.678 20.072C25.678 22.324 24.765 24.304 22.87 26.25ZM24.46 14.507C24.156 14.132 23.986 13.961 23.986 13.825C23.986 13.688 24.088 13.483 24.189 13.245L25.204 10.992C25.509 10.309 25.779 9.729 25.779 9.012C25.779 8.5 25.577 7.988 25.069 7.544L23.614 6.281C23.479 6.178 23.479 6.008 23.547 5.871L24.088 4.642C24.122 4.574 24.122 4.472 24.02 4.403C22.362 3.277 20.468 2.594 18.675 2.082C16.882 1.604 14.48 0.922 13.296 0C12.112 0.922 9.71 1.57 7.917 2.082C6.124 2.594 4.229 3.277 2.571 4.403C2.47 4.472 2.47 4.574 2.504 4.642L3.045 5.871C3.112 6.008 3.112 6.178 2.977 6.281L1.522 7.544C1.015 7.988 0.812 8.5 0.812 9.012C0.812 9.729 1.083 10.309 1.387 10.992L2.402 13.245C2.504 13.483 2.605 13.688 2.605 13.825C2.605 13.961 2.436 14.132 2.131 14.507C0.609 16.419 0 17.989 0 20.072C0 22.973 1.421 25.192 3.045 26.864C4.703 28.571 7.003 29.698 9.101 30.722C10.488 31.404 11.942 32.087 13.296 33.179C14.649 32.087 16.104 31.404 17.491 30.722C19.588 29.698 21.923 28.571 23.547 26.864C25.17 25.192 26.591 22.973 26.591 20.072C26.591 17.989 25.982 16.419 24.46 14.507Z" fill="rgb(30,32,68)" fill-opacity="1.000" fill-rule="evenodd" transform="matrix(1 0 0 1 8.2806 13.3313)"/></svg>