<svg xmlns="http://www.w3.org/2000/svg" viewBox="0 0 60 60" width="60" height="60"><path d="M0 0L60 0L60 60L0 60L0 0Z" fill="rgb(255,255,255)" fill-opacity="1.000" fill-rule="nonzero" transform="matrix(1 0 0 1 0 0)"/><path d="M0 2.125L3.438 4.813L6.875 2.125L6.875 0L3.438 2.875L0 0L0 2.125Z" fill="rgb(102,23,57)" fill-opacity="1.000" fill-rule="nonzero" transform="matrix(1 0 0 1 32.25 41.1875)"/><path d="M0 0L0 2.125L3.438 4.813L6.875 2.125L6.875 0L3.438 2.875L0 0Z" fill="rgb(102,23,57)" fill-opacity="1.000" fill-rule="nonzero" transform="matrix(1 0 0 1 32.25 33.8125)"/><path d="M0 0L0 2.125L3.438 4.813L6.875 2.125L6.875 0L3.438 2.875L0 0Z" fill="rgb(102,23,57)" fill-opacity="1.000" fill-rule="nonzero" transform="matrix(1 0 0 1 21.125 41.1875)"/><path d="M32.375 0L3.875 0C2.875 0 1.875 0.437 1.125 1.125C0.375 1.875 0 2.875 0 3.875L0 31.938C0 32.563 0.125 33.125 0.375 33.625C0.625 34.188 1 34.625 1.5 35L1.5 34L4.937 31.313L4.937 29.188L1.5 32.063L1.5 26.625L7.062 22.25L12.625 26.625L16.063 23.938L16.063 21.875L12.625 24.75L12.625 19.312L18.188 14.938L23.75 19.312L27.188 16.625L27.188 14.5L23.75 17.375L23.75 11.875L29.312 7.5L34.875 11.875L34.875 17.313L31.437 14.437L31.437 16.563L34.875 19.312L34.875 24.75L31.437 21.875L31.437 23.938L34.875 26.625L34.875 32.063L31.437 29.188L31.437 31.313L34.875 34L34.875 35C35.312 34.625 35.688 34.188 36 33.625C36.313 33.063 36.375 32.5 36.375 31.938L36.375 3.937C36.375 2.875 35.937 1.937 35.25 1.187C34.437 0.437 33.438 0 32.375 0Z" fill="rgb(102,23,57)" fill-opacity="1.000" fill-rule="nonzero" transform="matrix(1 0 0 1 12 12)"/></svg>