<svg xmlns="http://www.w3.org/2000/svg" viewBox="0 0 130 60" width="130" height="60"><path d="M0 0L130 0L130 60L0 60L0 0Z" fill="rgb(255,255,255)" fill-opacity="1.000" fill-rule="nonzero" transform="matrix(1 0 0 1 0 0)"/><path d="M8.664 8.516C8.7 8.62 8.7 8.701 8.664 8.754C8.652 8.772 8.619 8.823 8.497 8.823L4.618 8.823C4.55 8.823 4.499 8.802 4.469 8.763C4.445 8.73 4.415 8.668 4.442 8.516L6.391 3.193C6.426 3.094 6.483 3.034 6.546 3.034C6.594 3.034 6.653 3.07 6.683 3.193L8.667 8.519L8.664 8.516ZM12.764 11.908L8.426 0.618C8.282 0.242 7.939 0 7.554 0L5.513 0C5.129 0 4.785 0.245 4.642 0.624L0.089 12.603L0.029 12.77C-0.084 13.081 0.146 13.409 0.477 13.409L2.324 13.409L3.1 11.12L3.565 11.12L9.586 11.12L10.004 11.12L10.774 13.328L10.795 13.409L12.633 13.409C12.967 13.409 13.197 13.078 13.08 12.764L12.761 11.911L12.764 11.908Z" fill="rgb(21,38,255)" fill-opacity="1.000" fill-rule="nonzero" transform="matrix(1 0 0 1 68.6093 26.5523)"/><path d="M12.788 9.623L11.765 8.778C11.637 8.677 11.511 8.635 11.392 8.65C11.231 8.671 11.103 8.793 11.025 8.895L11.013 8.915C10.551 9.649 9.969 10.195 9.282 10.536C8.59 10.876 7.704 11.049 6.645 11.049C5.299 11.049 4.228 10.727 3.461 10.091C2.697 9.455 2.324 8.477 2.324 7.095L2.324 6.343C2.33 3.733 3.783 2.408 6.645 2.408C8.587 2.408 10.007 3.07 10.87 4.386L10.888 4.407C11.132 4.67 11.389 4.69 11.654 4.467L12.663 3.524C12.782 3.425 12.845 3.324 12.863 3.202C12.881 3.073 12.842 2.936 12.75 2.799C11.592 0.94 9.539 0 6.645 0C2.172 0 0 2.08 0 6.358L0 7.074C0 11.365 2.175 13.454 6.645 13.454C9.518 13.454 11.619 12.424 12.878 10.401L12.899 10.374C12.985 10.273 13.021 10.139 13 9.987C12.979 9.837 12.911 9.712 12.791 9.623" fill="rgb(21,38,255)" fill-opacity="1.000" fill-rule="nonzero" transform="matrix(1 0 0 1 55.4893 26.5463)"/><path d="M11.831 0.003L10.419 0.003C10.288 0.003 10.172 0.057 10.082 0.161C9.987 0.272 9.939 0.403 9.939 0.558L9.939 8.023C9.939 8.295 9.76 8.456 9.59 8.513C9.42 8.572 9.181 8.557 9.011 8.346L2.503 0.152C2.444 0.051 2.342 0.003 2.199 0.003L0.465 0.003C0.337 0.003 0.227 0.057 0.14 0.161C0.051 0.269 0 0.406 0 0.558L0 12.869C0 13.021 0.048 13.155 0.14 13.263C0.23 13.367 0.34 13.421 0.465 13.421L1.895 13.421C2.029 13.421 2.142 13.367 2.232 13.263C2.327 13.152 2.375 13.021 2.375 12.866L2.375 3.882L9.808 13.269C9.867 13.37 9.969 13.421 10.112 13.421L11.828 13.421C11.956 13.421 12.066 13.367 12.162 13.263C12.26 13.152 12.311 13.018 12.311 12.866L12.311 0.555C12.311 0.394 12.26 0.26 12.162 0.152C12.069 0.054 11.953 0 11.831 0" fill="rgb(21,38,255)" fill-opacity="1.000" fill-rule="nonzero" transform="matrix(1 0 0 1 82.8501 26.5434)"/><path d="M1.945 0.003L0.465 0.003C0.337 0.003 0.227 0.057 0.14 0.161C0.048 0.269 0 0.406 0 0.558L0 12.869C0 13.021 0.048 13.155 0.14 13.263C0.23 13.367 0.34 13.421 0.465 13.421L1.945 13.421C2.08 13.421 2.19 13.367 2.277 13.26C2.363 13.152 2.411 13.015 2.411 12.866L2.411 0.555C2.411 0.397 2.363 0.26 2.271 0.152C2.181 0.051 2.074 0 1.945 0" fill="rgb(21,38,255)" fill-opacity="1.000" fill-rule="nonzero" transform="matrix(1 0 0 1 109.2772 26.5434)"/><path d="M8.892 11.061C8.796 10.959 8.68 10.906 8.554 10.906L3.157 10.906C2.745 10.906 2.411 10.571 2.411 10.157L2.411 0.555C2.411 0.394 2.363 0.26 2.271 0.152C2.181 0.051 2.074 0 1.945 0L0.465 0C0.337 0 0.227 0.054 0.14 0.158C0.048 0.269 0 0.4 0 0.555L0 12.866C0 13.018 0.048 13.152 0.14 13.263C0.23 13.367 0.34 13.421 0.465 13.421L8.554 13.421C8.686 13.421 8.802 13.367 8.895 13.266C8.993 13.155 9.044 13.021 9.044 12.869L9.044 11.464C9.044 11.308 8.993 11.174 8.889 11.064" fill="rgb(21,38,255)" fill-opacity="1.000" fill-rule="nonzero" transform="matrix(1 0 0 1 113.3708 26.5463)"/><path d="M9.646 4.353C9.646 5.105 9.45 5.654 9.044 6.03C8.635 6.409 8.053 6.6 7.316 6.6L2.357 6.6L2.357 3.172C2.369 3.049 2.462 2.447 3.112 2.447L7.316 2.447C8.089 2.447 8.68 2.59 9.074 2.87C9.458 3.145 9.646 3.631 9.646 4.353ZM12.075 4.353C12.075 2.79 11.687 1.659 10.923 0.994C10.169 0.334 9.014 0 7.492 0L0.465 0C0.337 0 0.227 0.054 0.14 0.158C0.051 0.266 0 0.403 0 0.552L0 12.863C0 13.015 0.048 13.149 0.14 13.257C0.23 13.361 0.337 13.415 0.465 13.415L1.877 13.415C2.002 13.415 2.115 13.361 2.211 13.26C2.309 13.149 2.36 13.018 2.36 12.863L2.36 8.984L6.698 8.984L9.42 13.045C9.596 13.293 9.84 13.418 10.151 13.418L11.326 13.418C11.583 13.418 11.765 13.299 11.866 13.066C11.971 12.824 11.935 12.573 11.765 12.347L9.279 8.683L9.524 8.596C11.219 7.996 12.081 6.567 12.081 4.35" fill="rgb(21,38,255)" fill-opacity="1.000" fill-rule="nonzero" transform="matrix(1 0 0 1 42.4711 26.5463)"/><path d="M11.514 0.224L11.595 0.149C11.502 0.051 11.389 0 11.264 0L0.483 0C0.358 0 0.245 0.054 0.149 0.158C0.051 0.269 0 0.4 0 0.555L0 1.913C0 2.074 0.051 2.208 0.152 2.306C0.245 2.399 0.358 2.447 0.483 2.447L4.67 2.447L4.67 12.866C4.67 13.021 4.72 13.152 4.819 13.263C4.911 13.367 5.025 13.418 5.15 13.418L6.612 13.418C6.746 13.418 6.86 13.364 6.949 13.26C7.045 13.149 7.092 13.018 7.092 12.863L7.092 3.124L7.095 3.097C7.173 2.682 7.444 2.444 7.838 2.444L11.261 2.444C11.386 2.444 11.499 2.393 11.592 2.297C11.693 2.193 11.744 2.062 11.744 1.907L11.744 0.549C11.744 0.388 11.693 0.254 11.595 0.146L11.514 0.221L11.514 0.224Z" fill="rgb(21,38,255)" fill-opacity="1.000" fill-rule="nonzero" transform="matrix(1 0 0 1 96.2412 26.5463)"/><path d="M11.144 10.903L4.711 10.903L4.711 8.005L6.71 8.005C6.925 8.005 7.098 7.802 7.098 7.555L7.098 5.756C7.098 5.508 6.925 5.305 6.71 5.305L4.711 5.305L4.711 3.112C4.786 2.688 5.057 2.447 5.46 2.447L11.073 2.447C11.201 2.447 11.308 2.396 11.398 2.3C11.49 2.196 11.538 2.068 11.538 1.913L11.538 0.555C11.538 0.394 11.49 0.26 11.398 0.152C11.308 0.051 11.201 0 11.073 0L2.79 0C2.65 0 2.521 0.06 2.435 0.164C2.345 0.272 2.3 0.406 2.3 0.555L2.3 5.308L0.388 5.308C0.173 5.308 0 5.511 0 5.759L0 7.558C0 7.805 0.173 8.008 0.388 8.008L2.292 8.008L2.303 8.208L2.303 12.591C2.303 12.899 2.36 13.108 2.479 13.239C2.521 13.284 2.647 13.424 3.04 13.424L11.147 13.424C11.276 13.424 11.386 13.376 11.475 13.278C11.574 13.173 11.631 13.009 11.631 12.83L11.631 11.47C11.631 11.308 11.58 11.171 11.478 11.061C11.38 10.956 11.27 10.906 11.147 10.906" fill="rgb(21,38,255)" fill-opacity="1.000" fill-rule="nonzero" transform="matrix(1 0 0 1 29.7665 26.5463)"/><path d="M19.708 0L17.992 0C17.849 0 17.747 0.051 17.691 0.143L11.019 8.572C10.906 8.713 10.727 8.769 10.562 8.71C10.389 8.65 10.27 8.477 10.27 8.286L10.27 0.555C10.27 0.4 10.219 0.266 10.121 0.158C10.025 0.054 9.915 0.003 9.787 0.003L8.071 0.003C7.928 0.003 7.826 0.054 7.77 0.146L0.233 9.47C0.11 9.623 0.042 9.819 0.039 10.022L0 12.955C0 13.134 0.075 13.272 0.194 13.316C0.292 13.355 0.4 13.322 0.486 13.227L7.128 4.869C7.242 4.729 7.421 4.676 7.585 4.732C7.758 4.792 7.877 4.965 7.877 5.156L7.877 12.842C7.877 12.988 7.916 13.122 7.987 13.221C8.08 13.352 8.199 13.418 8.343 13.418L10.064 13.418C10.243 13.418 10.309 13.352 10.398 13.239L17.064 4.852C17.174 4.711 17.356 4.658 17.521 4.714C17.694 4.774 17.813 4.947 17.813 5.138L17.813 12.827C17.813 13.003 17.87 13.164 17.968 13.272C18.058 13.367 18.168 13.418 18.296 13.418L19.684 13.418C19.806 13.418 19.919 13.376 20.003 13.302C20.128 13.191 20.191 13.045 20.191 12.863L20.191 0.555C20.191 0.4 20.14 0.266 20.042 0.158C19.946 0.054 19.836 0.003 19.708 0.003" fill="rgb(21,38,255)" fill-opacity="1.000" fill-rule="nonzero" transform="matrix(1 0 0 1 8 26.5463)"/><path d="M2.841 3.058C3.166 3.058 3.33 2.927 3.33 2.661C3.33 2.426 3.184 2.306 2.885 2.306L1.059 2.306C1.017 2.306 0.994 2.33 0.997 2.372L0.997 2.993C0.994 3.037 1.017 3.055 1.059 3.055L2.841 3.055L2.841 3.058ZM2.611 1.602C2.873 1.602 3.043 1.462 3.043 1.241C3.043 1.02 2.912 0.922 2.647 0.922L1.062 0.922C1.02 0.922 0.997 0.946 1 0.988L1 1.537C0.997 1.581 1.02 1.602 1.062 1.602L2.611 1.602ZM0.176 3.989C0.072 3.989 0 3.915 0 3.813L0 0.176C0 0.072 0.075 0 0.176 0L2.826 0C3.622 0 4.067 0.349 4.067 0.988C4.067 1.367 3.921 1.647 3.628 1.829C3.589 1.862 3.589 1.883 3.634 1.901C4.085 2.029 4.356 2.369 4.356 2.817C4.356 3.598 3.858 3.989 3.014 3.989L0.176 3.989Z" fill="rgb(21,38,255)" fill-opacity="1.000" fill-rule="nonzero" transform="matrix(1 0 0 1 15.8204 20.1074)"/><path d="M2.953 2.584C3.007 2.584 3.025 2.557 3.004 2.507L2.353 1.024C2.338 0.97 2.288 0.97 2.264 1.024L1.625 2.507C1.613 2.557 1.631 2.584 1.679 2.584L2.95 2.584L2.953 2.584ZM0.205 3.995C0.127 3.995 0.071 3.966 0.032 3.906C-0.007 3.849 -0.01 3.784 0.02 3.712L1.634 0.093C1.667 0.03 1.715 -0.003 1.78 0L2.846 0C2.917 0 2.965 0.033 2.986 0.093L4.618 3.712C4.678 3.852 4.594 3.995 4.436 3.995L3.714 3.995C3.642 3.995 3.592 3.96 3.568 3.888L3.377 3.452C3.365 3.42 3.338 3.408 3.302 3.405L1.339 3.405C1.3 3.405 1.276 3.423 1.261 3.452L1.073 3.888C1.046 3.96 0.996 3.995 0.924 3.995L0.205 3.995Z" fill="rgb(21,38,255)" fill-opacity="1.000" fill-rule="nonzero" transform="matrix(1 0 0 1 20.7086 20.1013)"/><path d="M4.04 0C4.144 0 4.216 0.072 4.216 0.176L4.216 3.813C4.216 3.918 4.141 3.989 4.04 3.989L3.258 3.989C3.208 3.989 3.169 3.971 3.145 3.939L1.083 1.549C1.05 1.504 1 1.516 1 1.578L1 3.816C1 3.921 0.925 3.992 0.824 3.992L0.176 3.992C0.072 3.992 0 3.918 0 3.816L0 0.176C0 0.072 0.075 0 0.176 0L0.958 0C1.006 0 1.044 0.015 1.071 0.045L3.127 2.432C3.169 2.474 3.211 2.459 3.211 2.396L3.211 0.176C3.211 0.072 3.285 0 3.387 0L4.04 0Z" fill="rgb(21,38,255)" fill-opacity="1.000" fill-rule="nonzero" transform="matrix(1 0 0 1 26.1829 20.1074)"/><path d="M4.499 3.026C4.589 3.085 4.598 3.196 4.538 3.273C4.064 3.894 3.336 4.201 2.345 4.201C0.782 4.201 0 3.536 0 2.199L0 1.996C-0.003 0.665 0.779 0 2.345 0C3.339 0 4.049 0.275 4.473 0.826C4.532 0.904 4.52 1.014 4.443 1.068L3.953 1.489C3.852 1.572 3.748 1.56 3.646 1.459C3.342 1.116 2.909 0.946 2.348 0.943C1.468 0.943 1.029 1.292 1.029 1.99L1.029 2.211C1.029 2.906 1.468 3.255 2.348 3.255C2.969 3.255 3.422 3.07 3.709 2.7C3.804 2.593 3.906 2.578 4.016 2.659L4.505 3.026L4.499 3.026Z" fill="rgb(21,38,255)" fill-opacity="1.000" fill-rule="nonzero" transform="matrix(1 0 0 1 31.3387 20)"/><path d="M3.452 3.011C3.709 2.846 3.84 2.581 3.84 2.211L3.84 1.99C3.84 1.295 3.369 0.946 2.429 0.943C2.029 0.943 1.713 1.011 1.447 1.164C1.179 1.316 1.026 1.605 1.026 1.99L1.026 2.211C1.026 2.584 1.158 2.849 1.417 3.011C1.674 3.175 2.011 3.255 2.432 3.255C2.852 3.255 3.199 3.175 3.455 3.011M0 2.199L0 1.996C0 0.689 0.815 0 2.429 0C4.043 0 4.866 0.689 4.866 1.996L4.866 2.199C4.866 3.515 4.052 4.201 2.429 4.201C0.806 4.201 0 3.536 0 2.199Z" fill="rgb(21,38,255)" fill-opacity="1.000" fill-rule="nonzero" transform="matrix(1 0 0 1 36.435 20)"/></svg>