<svg xmlns="http://www.w3.org/2000/svg" viewBox="0 0 60 60" width="60" height="60"><path d="M0 0L60 0L60 60L0 60L0 0Z" fill="rgb(94,1,13)" fill-opacity="1.000" fill-rule="nonzero" transform="matrix(1 0 0 1 0 0)"/><path d="M18.1 23.305L18.1 31.324C16.624 31.888 15.021 32.196 13.345 32.196C13.207 32.196 13.071 32.194 12.934 32.189C11.408 32.144 9.945 31.842 8.591 31.324C7.998 31.099 7.426 30.832 6.878 30.527C2.776 28.251 0 23.876 0 18.852L0 6.879C0 3.08 3.08 0 6.878 0L6.878 18.067C6.878 18.542 6.664 21.25 8.591 23.305C9.732 24.523 11.117 24.981 11.372 25.061C11.994 25.259 12.658 25.365 13.345 25.365C15.221 25.365 16.912 24.573 18.1 23.305Z" fill="rgb(255,255,255)" fill-opacity="1.000" fill-rule="nonzero" transform="matrix(1 0 0 1 17 11)"/><path d="M0 8.891L0 0.872C1.476 0.308 3.079 0 4.755 0C4.893 0 5.029 0.002 5.166 0.007C6.692 0.052 8.155 0.354 9.509 0.872C10.102 1.097 10.674 1.365 11.222 1.669C15.324 3.945 18.1 8.32 18.1 13.344L18.1 25.317C18.1 29.116 15.02 32.196 11.222 32.196L11.222 14.129C11.222 13.654 11.437 10.946 9.509 8.891C8.368 7.673 6.983 7.215 6.728 7.135C6.106 6.937 5.442 6.831 4.755 6.831C2.879 6.831 1.188 7.623 0 8.891Z" fill="rgb(13,13,13)" fill-opacity="1.000" fill-rule="nonzero" transform="matrix(1 0 0 1 25.5908 16.5078)"/></svg>