<svg xmlns="http://www.w3.org/2000/svg" viewBox="0 0 60 60" width="60" height="60"><path d="M0 0L60 0L60 60L0 60L0 0Z" fill="rgb(0,75,141)" fill-opacity="1.000" fill-rule="nonzero" transform="matrix(1 0 0 1 0 0)"/><path d="M28.927 32.396C28.081 33.173 27.061 33.747 25.626 34.258L8.46 40.178L8.46 25.522L21.103 18.298L21.113 18.293C21.375 18.137 21.597 17.984 21.811 17.837C21.852 17.81 21.893 17.781 21.934 17.754C24.932 17.886 27.221 18.693 28.928 20.215C30.725 21.897 31.599 23.89 31.599 26.305C31.599 28.723 30.723 30.715 28.927 32.396ZM19.264 17.745L8.46 23.919L8.46 17.745L19.264 17.745ZM7.059 38.589L1.661 29.426L7.059 26.327L7.059 38.589ZM13.985 1.389C17.479 1.389 20.059 2.197 21.87 3.858C23.642 5.483 24.541 7.532 24.541 9.95C24.541 12.543 23.46 14.81 21.492 16.357L7.059 16.357L7.059 24.722L1.402 27.969L1.402 1.389L13.985 1.389ZM29.885 19.199L29.873 19.189C28.225 17.718 26.057 16.811 23.409 16.484C25.036 14.746 25.942 12.44 25.942 9.95C25.942 7.129 24.892 4.737 22.822 2.839C20.74 0.929 17.849 0 13.985 0L0 0L0 29.363L7.445 42L26.094 35.569C27.699 34.997 28.902 34.314 29.885 33.411C31.952 31.478 33 29.088 33 26.306C33 23.524 31.952 21.133 29.885 19.199Z" fill="rgb(255,255,255)" fill-opacity="1.000" fill-rule="nonzero" transform="matrix(1 0 0 1 15 9)"/></svg>