<svg xmlns="http://www.w3.org/2000/svg" viewBox="0 0 130 60" width="130" height="60"><path d="M0 0L130 0L130 60L0 60L0 0Z" fill="rgb(255,255,255)" fill-opacity="1.000" fill-rule="nonzero" transform="matrix(1 0 0 1 0 0)"/><path d="M0 0L0 6.398C7.433 6.073 9.784 9.749 9.784 9.749C9.021 0.63 0 0 0 0Z" fill="rgb(168,10,53)" fill-opacity="1.000" fill-rule="nonzero" transform="matrix(1 0 0 1 26.3486 18.0952)"/><path d="M0 9.749C0 9.749 2.35 6.073 9.784 6.398L9.784 0C9.784 0 0.762 0.63 0 9.749Z" fill="rgb(168,10,53)" fill-opacity="1.000" fill-rule="nonzero" transform="matrix(1 0 0 1 36.1322 18.0952)"/><path d="M0 0C0 0 3.684 2.345 3.358 9.763L9.77 9.763C9.77 9.763 9.139 0.761 0 0Z" fill="rgb(168,10,53)" fill-opacity="1.000" fill-rule="nonzero" transform="matrix(1 0 0 1 36.1393 27.8369)"/><path d="M0.023 18.974L6.674 18.974C5.327 2.821 16.125 0 16.125 0C-1.31 0.735 0.023 18.974 0.023 18.974Z" fill="rgb(168,10,53)" fill-opacity="1.000" fill-rule="nonzero" transform="matrix(1 0 0 1 20 27.837)"/><path d="M23.155 0L4.592 0C2.056 0 0 2.051 0 4.582L0 17.908C0.698 17.029 1.484 16.189 2.369 15.406L2.369 4.823C2.369 3.465 3.472 2.364 4.833 2.364L22.914 2.364C24.275 2.364 25.378 3.465 25.378 4.823L25.378 22.865C25.378 24.223 24.275 25.324 22.914 25.324L6.738 25.324L6.738 27.688L23.155 27.688C25.691 27.688 27.747 25.636 27.747 23.106L27.747 4.582C27.747 2.051 25.691 0 23.155 0Z" fill="rgb(246,140,31)" fill-opacity="1.000" fill-rule="nonzero" transform="matrix(1 0 0 1 22.2588 14)"/><path d="M5.984 9.309C6.55 8.816 6.937 8.115 6.937 7.22C6.937 5.848 5.969 5.012 4.913 4.744L4.913 4.699C5.999 4.296 6.58 3.461 6.58 2.536C6.58 1.671 6.163 1.014 5.538 0.641C4.868 0.179 4.019 0 2.68 0C1.638 0 0.581 0.104 0 0.224L0 10.099C0.476 10.159 1.236 10.234 2.248 10.234C4.094 10.234 5.27 9.92 5.984 9.309ZM1.816 1.432C2.01 1.387 2.322 1.357 2.858 1.357C4.019 1.357 4.734 1.79 4.734 2.745C4.734 3.595 4.034 4.192 2.754 4.192L1.816 4.192L1.816 1.432ZM1.816 5.52L2.724 5.52C3.989 5.52 5.017 5.997 5.017 7.176C5.017 8.414 3.96 8.846 2.784 8.846C2.367 8.846 2.054 8.846 1.816 8.802L1.816 5.52Z" fill="rgb(168,10,53)" fill-opacity="1.000" fill-rule="nonzero" transform="matrix(1 0 0 1 54.1896 16.4805)"/><path d="M4.421 6.623L4.466 6.623L4.6 7.429L6.252 7.429C6.163 6.982 6.133 6.34 6.133 5.684L6.133 3.073C6.133 1.477 5.463 0 3.141 0C1.995 0 1.057 0.313 0.521 0.641L0.878 1.835C1.37 1.522 2.114 1.298 2.828 1.298C4.109 1.298 4.302 2.089 4.302 2.566L4.302 2.685C1.623 2.67 0 3.61 0 5.43C0 6.534 0.819 7.593 2.278 7.593C3.231 7.593 3.99 7.19 4.421 6.623ZM1.816 5.236C1.816 4.132 3.052 3.864 4.347 3.879L4.347 4.878C4.347 5.012 4.347 5.147 4.302 5.281C4.124 5.803 3.603 6.28 2.858 6.28C2.278 6.28 1.816 5.952 1.816 5.236Z" fill="rgb(168,10,53)" fill-opacity="1.000" fill-rule="nonzero" transform="matrix(1 0 0 1 61.8556 19.1807)"/><path d="M3.409 1.492C4.406 1.492 4.794 2.282 4.794 3.327L4.794 7.429L6.625 7.429L6.625 3.118C6.625 0.82 5.315 0 4.049 0C2.843 0 2.054 0.686 1.727 1.253L1.682 1.253L1.593 0.164L0 0.164C0.03 0.791 0.06 1.492 0.06 2.327L0.06 7.429L1.891 7.429L1.891 3.148C1.891 2.939 1.92 2.715 1.98 2.566C2.174 2.014 2.68 1.492 3.409 1.492Z" fill="rgb(168,10,53)" fill-opacity="1.000" fill-rule="nonzero" transform="matrix(1 0 0 1 69.4925 19.1806)"/><path d="M3.737 7.578C4.645 7.578 5.404 7.384 5.791 7.205L5.538 5.848C5.181 5.997 4.719 6.131 4.094 6.131C2.843 6.131 1.876 5.281 1.876 3.789C1.861 2.461 2.694 1.432 4.094 1.432C4.749 1.432 5.181 1.566 5.478 1.716L5.806 0.328C5.389 0.149 4.704 0 4.034 0C1.489 0 0 1.686 0 3.864C0 6.116 1.474 7.578 3.737 7.578Z" fill="rgb(168,10,53)" fill-opacity="1.000" fill-rule="nonzero" transform="matrix(1 0 0 1 77.2331 19.1805)"/><path d="M7.354 3.729C7.354 1.522 5.91 0 3.751 0C1.563 0 0 1.462 0 3.849C0 6.191 1.593 7.593 3.632 7.593C5.478 7.593 7.354 6.4 7.354 3.729ZM1.891 3.804C1.891 2.596 2.412 1.328 3.707 1.328C4.957 1.328 5.463 2.64 5.463 3.774C5.463 5.251 4.734 6.265 3.692 6.265C2.59 6.265 1.891 5.206 1.891 3.804Z" fill="rgb(168,10,53)" fill-opacity="1.000" fill-rule="nonzero" transform="matrix(1 0 0 1 83.4113 19.1806)"/><path d="M3.111 10.756C4.154 10.756 5.032 10.249 5.464 9.443L5.493 9.443L5.583 10.592L7.205 10.592C7.175 10.099 7.146 9.294 7.146 8.548L7.146 0L5.315 0L5.315 4.102L5.285 4.102C4.957 3.565 4.243 3.163 3.245 3.163C1.504 3.163 -0.015 4.61 0 7.041C0 9.279 1.37 10.756 3.111 10.756ZM3.692 4.58C4.526 4.58 5.106 5.162 5.27 5.863C5.3 6.012 5.315 6.206 5.315 6.355L5.315 7.444C5.315 7.638 5.3 7.817 5.255 7.981C5.076 8.772 4.421 9.279 3.677 9.279C2.516 9.279 1.861 8.309 1.861 6.967C1.861 5.624 2.516 4.58 3.692 4.58Z" fill="rgb(168,10,53)" fill-opacity="1.000" fill-rule="nonzero" transform="matrix(1 0 0 1 94.1438 16.018)"/><path d="M3.632 7.593C5.478 7.593 7.354 6.4 7.354 3.729C7.354 1.522 5.91 0 3.751 0C1.563 0 0 1.462 0 3.849C0 6.191 1.593 7.593 3.632 7.593ZM3.707 1.328C4.957 1.328 5.463 2.64 5.463 3.774C5.463 5.251 4.734 6.265 3.692 6.265C2.59 6.265 1.891 5.206 1.891 3.804C1.891 2.596 2.412 1.328 3.707 1.328Z" fill="rgb(168,10,53)" fill-opacity="1.000" fill-rule="nonzero" transform="matrix(1 0 0 1 102.4207 19.1807)"/><path d="M6.223 2.924C6.223 4.446 6.267 5.803 6.401 7.131L6.371 7.131C5.91 5.997 5.329 4.744 4.734 3.685L2.65 0L0 0L0 10.055L2.084 10.055L2.084 7.026C2.084 5.385 2.054 3.968 1.98 2.626L2.04 2.626C2.516 3.804 3.186 5.102 3.781 6.176L5.925 10.055L8.307 10.055L8.307 0L6.223 0L6.223 2.924L6.223 2.924Z" fill="rgb(168,10,53)" fill-opacity="1.000" fill-rule="nonzero" transform="matrix(1 0 0 1 54.115 28.9086)"/><path d="M3.9 0C1.548 0 0 1.507 0 3.879C0 6.236 1.638 7.638 3.766 7.638C5.716 7.638 7.607 6.415 7.607 3.744C7.607 1.536 6.118 0 3.9 0ZM3.826 6.012C2.858 6.012 2.337 5.072 2.337 3.819C2.337 2.745 2.754 1.626 3.826 1.626C4.853 1.626 5.27 2.73 5.27 3.804C5.27 5.132 4.719 6.012 3.826 6.012Z" fill="rgb(168,10,53)" fill-opacity="1.000" fill-rule="nonzero" transform="matrix(1 0 0 1 63.2849 31.4895)"/><path d="M2.084 1.522L2.025 1.522L1.935 0.179L0 0.179C0.045 0.806 0.06 1.507 0.06 2.581L0.06 7.474L2.322 7.474L2.322 3.774C2.322 3.595 2.337 3.416 2.367 3.267C2.516 2.566 3.081 2.118 3.915 2.118C4.168 2.118 4.347 2.148 4.526 2.178L4.526 0.045C4.362 0.015 4.258 0 4.049 0C3.335 0 2.456 0.448 2.084 1.522Z" fill="rgb(168,10,53)" fill-opacity="1.000" fill-rule="nonzero" transform="matrix(1 0 0 1 71.6663 31.4895)"/><path d="M7.473 0L5.21 0L5.21 3.938L5.181 3.938C4.853 3.446 4.168 3.118 3.26 3.118C1.519 3.118 -0.015 4.55 0 7.011C0 9.279 1.385 10.756 3.111 10.756C4.049 10.756 4.942 10.338 5.389 9.532L5.434 9.532L5.523 10.592L7.533 10.592C7.503 10.099 7.473 9.234 7.473 8.414L7.473 0L7.473 0ZM5.21 7.34C5.21 7.519 5.195 7.698 5.166 7.862C5.032 8.503 4.496 8.951 3.841 8.951C2.903 8.951 2.293 8.175 2.293 6.937C2.293 5.788 2.814 4.863 3.856 4.863C4.555 4.863 5.047 5.37 5.181 5.967C5.21 6.101 5.21 6.265 5.21 6.385L5.21 7.34Z" fill="rgb(168,10,53)" fill-opacity="1.000" fill-rule="nonzero" transform="matrix(1 0 0 1 76.2806 28.3716)"/><path d="M3.677 0C1.146 0 0 2.044 0 3.894C0 6.176 1.414 7.608 3.885 7.608C4.868 7.608 5.776 7.459 6.52 7.146L6.223 5.609C5.612 5.818 4.987 5.922 4.213 5.922C3.156 5.922 2.218 5.475 2.159 4.535L6.848 4.535C6.878 4.371 6.922 4.028 6.922 3.64C6.922 1.835 6.029 0 3.677 0ZM2.144 2.983C2.203 2.387 2.59 1.507 3.543 1.507C4.585 1.507 4.823 2.432 4.823 2.983L2.144 2.983Z" fill="rgb(168,10,53)" fill-opacity="1.000" fill-rule="nonzero" transform="matrix(1 0 0 1 84.5874 31.5044)"/><path d="M3.528 3.013C2.635 2.7 2.352 2.521 2.352 2.163C2.352 1.805 2.665 1.581 3.216 1.581C3.826 1.581 4.466 1.82 4.794 1.999L5.181 0.433C4.734 0.209 3.99 0 3.141 0C1.34 0 0.179 1.029 0.179 2.402C0.164 3.267 0.744 4.087 2.263 4.595C3.096 4.878 3.32 5.057 3.32 5.445C3.32 5.818 3.037 6.042 2.352 6.042C1.682 6.042 0.819 5.758 0.402 5.505L0 7.116C0.551 7.414 1.399 7.638 2.352 7.638C4.436 7.638 5.493 6.638 5.493 5.266C5.478 4.207 4.913 3.491 3.528 3.013Z" fill="rgb(168,10,53)" fill-opacity="1.000" fill-rule="nonzero" transform="matrix(1 0 0 1 91.8817 31.4894)"/><path d="M3.186 0L0.968 0.612L0.968 1.969L0 1.969L0 3.64L0.968 3.64L0.968 6.623C0.968 7.653 1.176 8.354 1.593 8.787C1.965 9.159 2.575 9.413 3.305 9.413C3.93 9.413 4.481 9.324 4.764 9.219L4.749 7.504C4.54 7.548 4.392 7.563 4.079 7.563C3.409 7.563 3.186 7.16 3.186 6.28L3.186 3.64L4.808 3.64L4.808 1.969L3.186 1.969L3.186 0Z" fill="rgb(168,10,53)" fill-opacity="1.000" fill-rule="nonzero" transform="matrix(1 0 0 1 97.5383 29.6993)"/><path d="M3.677 0C1.146 0 0 2.044 0 3.894C0 6.176 1.414 7.608 3.885 7.608C4.868 7.608 5.776 7.459 6.52 7.146L6.223 5.609C5.612 5.818 4.987 5.922 4.213 5.922C3.156 5.922 2.218 5.475 2.159 4.535L6.848 4.535C6.878 4.371 6.922 4.028 6.922 3.64C6.922 1.835 6.029 0 3.677 0ZM2.144 2.983C2.203 2.387 2.59 1.507 3.543 1.507C4.585 1.507 4.823 2.432 4.823 2.983L2.144 2.983Z" fill="rgb(168,10,53)" fill-opacity="1.000" fill-rule="nonzero" transform="matrix(1 0 0 1 102.5998 31.5044)"/></svg>