<svg xmlns="http://www.w3.org/2000/svg" viewBox="0 0 130 60" width="130" height="60"><path d="M0 0L130 0L130 60L0 60L0 0Z" fill="rgb(255,255,255)" fill-opacity="1.000" fill-rule="nonzero" transform="matrix(1 0 0 1 0 0)"/><path d="M0 21L123.55 21L123.55 0L0 0L0 21Z" fill="rgb(253,225,0)" fill-opacity="1.000" fill-rule="nonzero" transform="matrix(1 0 0 1 3 19)"/><path d="M0 5.248L3.267 7.435L7.192 4.811L5.558 3.715L7.683 2.298L12.259 5.359L4.741 10.386L6.375 11.483L15.698 5.248L7.849 0L0 5.248ZM15.698 10.497L12.424 8.31L8.5 10.934L10.134 12.025L8.009 13.448L3.433 10.386L10.95 5.359L9.317 4.263L0 10.497L7.849 15.745L15.698 10.497ZM15.698 2.187L14.058 3.283L12.424 2.187L15.698 0L15.698 2.187ZM0 13.559L1.634 12.462L3.267 13.559L0 15.745L0 13.559Z" fill="rgb(0,56,130)" fill-opacity="1.000" fill-rule="evenodd" transform="matrix(1 0 0 1 8.7608 21.6242)"/><path d="M4.281 10.491C5.306 10.491 7.855 10.374 7.855 7.719C7.855 6.277 7.407 5.273 5.687 5.057C7.001 4.799 7.659 3.924 7.659 2.717C7.659 0.48 6.142 0 4.293 0L0 0L0 10.491L4.281 10.491ZM81.327 10.491C82.764 10.491 84.213 10.3 84.213 8.076C84.213 5.507 80.504 5.766 80.504 4.133C80.504 3.542 80.866 3.222 81.474 3.222L83.464 3.222L83.464 1.897L80.67 1.897C78.379 1.897 77.814 2.938 77.814 4.281C77.814 6.838 81.922 6.776 81.922 8.218C81.922 8.797 81.609 9.191 80.977 9.191L78.035 9.191L75.855 1.903L73.244 1.903L70.831 9.721L69.314 6.357C70.425 6.154 70.868 5.446 70.874 4.152C70.874 2.686 70.002 1.903 68.657 1.903L64.572 1.903L64.572 10.491L66.802 10.491L66.802 3.222L67.545 3.222C68.171 3.222 68.718 3.684 68.718 4.528C68.718 5.242 68.362 5.834 67.791 5.797L67.164 5.803L69.197 10.491L72.771 10.491L73.306 8.587L75.615 8.587L76.143 10.491L81.327 10.491ZM75.277 7.275L73.625 7.275L74.411 3.758L75.277 7.275ZM50.41 10.743C53.745 10.743 53.745 8.52 53.745 6.24C53.745 3.93 53.745 1.731 50.41 1.731C47.075 1.731 47.075 3.93 47.075 6.24C47.075 8.52 47.075 10.743 50.41 10.743ZM50.41 9.437C49.434 9.437 49.305 8.476 49.305 6.24C49.305 4.004 49.433 3.037 50.41 3.037C51.387 3.037 51.509 4.004 51.509 6.24C51.509 8.476 51.387 9.437 50.41 9.437ZM39.822 10.491L43.077 10.491C46.492 10.491 46.264 7.46 46.264 6.136C46.264 3.456 45.773 1.879 43.157 1.879L39.822 1.879L39.822 10.491ZM41.996 3.216L42.874 3.216C44.072 3.216 44.072 4.614 44.072 6.197C44.072 8.359 43.863 9.185 42.819 9.185L41.996 9.185L41.996 3.216ZM59.297 5.914L59.837 5.914C60.881 5.914 61.213 6.487 61.213 7.411C61.213 8.883 60.224 8.895 59.782 8.895L58.634 8.895L58.634 5.932L59.297 5.914ZM58.634 4.312L58.634 1.632L59.911 1.632C60.611 1.632 61.103 2.193 61.103 2.969C61.103 3.986 60.47 4.3 60.022 4.3L59.297 4.3L58.634 4.312ZM60.273 10.497C61.299 10.497 63.848 10.38 63.848 7.719C63.848 6.277 63.399 5.279 61.686 5.057C63 4.799 63.657 3.924 63.657 2.717C63.657 0.48 62.134 0 60.292 0L55.993 0L55.993 10.497L60.273 10.497ZM93.198 10.491L93.198 9.191L90.656 9.191L90.656 1.903L88.482 1.903L88.482 10.491L93.198 10.491ZM87.204 1.903L85.024 1.903L85.024 10.491L87.204 10.491L87.204 1.903ZM34.123 10.743C37.457 10.743 37.457 8.513 37.457 6.222C37.457 3.899 37.457 1.694 34.123 1.694C30.794 1.694 30.794 3.899 30.794 6.222C30.794 8.513 30.794 10.743 34.123 10.743ZM34.123 9.437C33.146 9.437 33.023 8.464 33.023 6.222C33.023 3.973 33.146 3.006 34.123 3.006C35.099 3.006 35.228 3.973 35.228 6.222C35.228 8.464 35.099 9.437 34.123 9.437ZM12.572 7.269L10.914 7.269L11.7 3.758L12.572 7.269ZM10.06 10.491L10.6 8.587L12.91 8.587L13.438 10.491L15.716 10.491L13.143 1.903L10.539 1.903L7.91 10.491L10.06 10.491ZM27.158 10.743C29.05 10.743 30.155 9.992 30.155 7.651L27.999 7.651C27.975 8.341 27.963 9.437 27.158 9.437C26.243 9.437 26.108 8.877 26.108 6.222C26.108 3.468 26.317 3.006 27.115 3.006C27.686 3.006 27.944 3.437 27.944 4.608L30.088 4.608C30.167 2.723 29.123 1.694 27.06 1.694C23.989 1.694 23.903 3.653 23.903 6.222C23.903 8.803 23.823 10.743 27.158 10.743ZM18.075 10.491L18.075 4.768L20.451 10.491L23.025 10.491L23.025 1.903L21.17 1.903L21.17 7.454L18.855 1.903L16.22 1.903L16.22 10.491L18.075 10.491ZM3.157 5.901L3.495 5.901C4.772 5.901 5.177 6.468 5.177 7.398C5.177 8.864 3.967 8.877 3.427 8.877L2.635 8.877L2.635 5.914L3.157 5.901ZM2.635 4.293L2.635 1.614L3.581 1.614C4.44 1.614 5.042 2.181 5.042 2.951C5.042 3.967 4.268 4.287 3.716 4.287L2.825 4.287L2.635 4.293Z" fill="rgb(0,56,130)" fill-opacity="1.000" fill-rule="evenodd" transform="matrix(1 0 0 1 24 24)"/></svg>