<svg xmlns="http://www.w3.org/2000/svg" viewBox="0 0 60 60" width="60" height="60"><defs><linearGradient id="g71" gradientUnits="userSpaceOnUse" x1="15.00" y1="45.00" x2="45.00" y2="15.00"><stop offset="0.0%" stop-color="rgb(26,52,112)" stop-opacity="1.000"/><stop offset="60.0%" stop-color="rgb(14,100,160)" stop-opacity="1.000"/><stop offset="100.0%" stop-color="rgb(2,147,208)" stop-opacity="1.000"/></linearGradient></defs><path d="M0 0L60 0L60 60L0 60L0 0Z" fill="url(#g71)" fill-rule="nonzero" transform="matrix(1 0 0 1 0 0)"/><path d="M3.179 27.003L3.179 4.766C3.179 1.005 2.731 1.177 0 1.177L0 0L10.089 0C19.371 0 25.43 2.629 25.43 13.359C25.43 19.91 21.276 27.003 11.162 27.003L3.179 27.003ZM6.685 23.053C7.211 25.433 10.438 25.81 11.579 25.81C17.568 25.81 21.717 21.695 21.717 13.543C21.717 9.816 20.455 6.838 18.432 4.693C16.264 2.394 14.315 0.946 6.685 1.1L6.685 23.053Z" fill="rgb(255,255,255)" fill-opacity="1.000" fill-rule="evenodd" transform="matrix(1 0 0 1 17.5703 9.0145)"/><path d="M0 0L8.663 0L8.663 8.663L0 8.663L0 0Z" fill="rgb(177,177,177)" fill-opacity="1.000" fill-rule="evenodd" transform="matrix(1 0 0 1 20.7496 42.065)"/><path d="M0 0L8.662 0L8.662 8.663L0 8.663L0 0Z" fill="rgb(255,255,255)" fill-opacity="1.000" fill-rule="evenodd" transform="matrix(1 0 0 1 29.4121 42.065)"/></svg>