<svg xmlns="http://www.w3.org/2000/svg" viewBox="0 0 130 60" width="130" height="60"><path d="M0 0L130 0L130 60L0 60L0 0Z" fill="rgb(255,255,255)" fill-opacity="1.000" fill-rule="nonzero" transform="matrix(1 0 0 1 0 0)"/><path d="M3.266 1.525C3.243 1.536 3.216 1.55 3.205 1.556C3.195 1.561 3.166 1.557 3.142 1.546L0.016 0.022C-0.006 0.011 -0.006 0.002 0.019 0.002L6.344 0C6.369 0 6.373 0.009 6.351 0.019L3.266 1.525Z" fill="rgb(14,115,145)" fill-opacity="1.000" fill-rule="nonzero" transform="matrix(1 0 0 -1 15.1642 25.1301)"/><path d="M11.003 22C4.941 22.002 0.002 17.069 0 11.004C-0.001 4.94 4.933 0.002 10.996 0C17.061 -0.002 21.998 4.933 22 10.996C22.001 17.062 17.07 21.998 11.003 22ZM17.196 4.609C17.197 4.591 17.182 4.576 17.164 4.576L4.835 4.58C4.816 4.58 4.802 4.595 4.803 4.614L4.802 5.854C4.802 5.872 4.816 5.886 4.834 5.886L17.166 5.882C17.181 5.882 17.197 5.867 17.197 5.85L17.196 4.609ZM8.893 7.856L8.896 14.104L10.312 14.104L10.311 7.854L11.692 7.854L11.695 14.103L13.11 14.102L13.108 7.852L14.519 7.852L14.522 14.102L15.935 14.101L15.93 7.851L16.556 7.851L16.557 6.579C16.556 6.561 16.543 6.547 16.524 6.547L5.477 6.551C5.461 6.551 5.444 6.565 5.443 6.584L5.444 7.855L6.07 7.855L6.073 14.105L7.482 14.104L7.482 7.857L8.893 7.856ZM17.615 15.419L17.222 14.733C17.213 14.712 17.18 14.694 17.156 14.694L4.859 14.698C4.834 14.698 4.803 14.715 4.791 14.737L4.399 15.423C4.389 15.445 4.396 15.472 4.419 15.483L10.968 18.965C10.99 18.977 11.025 18.977 11.049 18.965L17.597 15.48C17.62 15.468 17.627 15.44 17.615 15.419Z" fill="rgb(14,115,145)" fill-opacity="1.000" fill-rule="nonzero" transform="matrix(1 0 0 -1 7.3435 41)"/><path d="M0 1.037C0.11 1.067 0.282 1.097 0.518 1.128C0.751 1.157 0.977 1.173 1.186 1.172L1.19 8.828C0.978 8.828 0.755 8.843 0.522 8.874C0.284 8.903 0.113 8.933 0.003 8.965L0.002 9.999L4.281 9.997C4.741 9.996 5.178 9.954 5.588 9.869C5.997 9.785 6.356 9.645 6.667 9.449C6.98 9.254 7.218 9.001 7.396 8.685C7.57 8.371 7.658 7.982 7.657 7.524C7.657 6.894 7.49 6.395 7.155 6.026C6.825 5.656 6.383 5.401 5.836 5.263L5.836 5.232C6.135 5.182 6.425 5.093 6.701 4.969C6.977 4.843 7.217 4.68 7.423 4.482C7.629 4.279 7.791 4.042 7.912 3.764C8.033 3.49 8.091 3.172 8.091 2.81C8.091 2.308 7.995 1.881 7.805 1.526C7.615 1.17 7.352 0.878 7.015 0.653C6.678 0.428 6.273 0.262 5.804 0.158C5.33 0.052 4.812 0 4.24 0L0 0.001L0 1.037ZM2.853 5.764L4.07 5.763C4.731 5.764 5.21 5.892 5.51 6.153C5.81 6.411 5.962 6.793 5.962 7.303C5.963 8.277 5.347 8.766 4.116 8.766L2.856 8.768L2.853 5.764ZM2.852 1.246L4.179 1.246C4.924 1.246 5.471 1.376 5.823 1.637C6.174 1.895 6.351 2.312 6.351 2.881C6.352 3.422 6.187 3.843 5.86 4.143C5.533 4.442 4.998 4.593 4.256 4.593L2.853 4.593L2.852 1.246Z" fill="rgb(14,115,145)" fill-opacity="1.000" fill-rule="nonzero" transform="matrix(1 0 0 -1 34.8724 35.1048)"/><path d="M2.143 0C1.833 0 1.548 0.045 1.289 0.135C1.027 0.225 0.803 0.358 0.612 0.534C0.421 0.708 0.273 0.919 0.162 1.164C0.052 1.41 -0.002 1.692 0 2.012C-0.001 2.483 0.11 2.878 0.336 3.198C0.561 3.518 0.858 3.777 1.222 3.97C1.589 4.165 2.002 4.305 2.469 4.389C2.934 4.475 3.406 4.518 3.887 4.518L4.156 4.518L4.157 5.127C4.159 5.564 4.056 5.88 3.858 6.072C3.657 6.268 3.323 6.364 2.851 6.364C2.48 6.364 2.137 6.294 1.823 6.155C1.507 6.015 1.216 5.829 0.944 5.598L0.241 6.594C0.559 6.886 0.949 7.131 1.412 7.329C1.87 7.528 2.407 7.626 3.018 7.625C3.926 7.624 4.61 7.423 5.066 7.023C5.522 6.623 5.75 5.968 5.748 5.058L5.747 2.01C5.747 1.871 5.75 1.743 5.755 1.627C5.757 1.512 5.767 1.4 5.778 1.289C5.986 1.27 6.182 1.254 6.362 1.244C6.542 1.234 6.698 1.23 6.827 1.229L6.827 0.179C6.607 0.159 6.276 0.14 5.829 0.119C5.385 0.098 4.895 0.089 4.366 0.09C4.337 0.189 4.309 0.321 4.291 0.487C4.27 0.651 4.261 0.835 4.261 1.035L4.231 1.035C4.031 0.765 3.754 0.525 3.396 0.314C3.043 0.103 2.624 0 2.143 0ZM2.549 1.202C2.918 1.201 3.237 1.276 3.503 1.425C3.769 1.576 3.986 1.766 4.156 1.996L4.156 3.512L3.887 3.512C3.207 3.512 2.653 3.41 2.228 3.206C1.803 3 1.589 2.637 1.588 2.116C1.589 1.787 1.692 1.55 1.904 1.411C2.114 1.271 2.329 1.202 2.549 1.202Z" fill="rgb(14,115,145)" fill-opacity="1.000" fill-rule="nonzero" transform="matrix(1 0 0 -1 43.6786 35.2872)"/><path d="M0 1.04C0.111 1.069 0.276 1.1 0.495 1.129C0.715 1.159 0.927 1.174 1.129 1.175L1.129 6.142C0.897 6.162 0.683 6.178 0.481 6.188C0.284 6.199 0.124 6.204 0.002 6.204L0.002 7.238C0.233 7.269 0.599 7.297 1.099 7.321C1.6 7.345 2.149 7.359 2.75 7.359L2.692 6.217L2.721 6.218C2.991 6.577 3.311 6.872 3.682 7.102C4.051 7.332 4.501 7.448 5.031 7.447C5.421 7.448 5.756 7.388 6.029 7.267C6.305 7.147 6.528 6.982 6.699 6.771C6.868 6.561 6.993 6.316 7.072 6.036C7.151 5.755 7.191 5.456 7.191 5.135L7.191 1.172C7.392 1.172 7.598 1.154 7.814 1.119C8.027 1.083 8.187 1.056 8.285 1.037L8.285 0L4.534 0.002L4.534 1.038C4.632 1.059 4.784 1.082 4.985 1.113C5.185 1.143 5.39 1.162 5.599 1.172L5.601 4.864C5.601 5.274 5.517 5.591 5.348 5.81C5.175 6.032 4.884 6.141 4.475 6.142C4.098 6.141 3.761 6.027 3.47 5.797C3.178 5.566 2.934 5.317 2.734 5.047L2.733 1.173C2.933 1.163 3.137 1.144 3.34 1.113C3.546 1.083 3.699 1.059 3.798 1.038L3.798 0.002L0.001 0.003L0 1.04Z" fill="rgb(14,115,145)" fill-opacity="1.000" fill-rule="nonzero" transform="matrix(1 0 0 -1 51.2314 35.1127)"/><path d="M4.625 5.493C4.614 5.617 4.603 5.756 4.597 5.892C4.585 6.026 4.579 6.154 4.58 6.274C4.338 6.373 4.044 6.422 3.693 6.423C3.363 6.423 3.072 6.357 2.824 6.222C2.574 6.087 2.366 5.903 2.2 5.668C2.037 5.432 1.909 5.157 1.825 4.842C1.738 4.526 1.695 4.183 1.694 3.814C1.695 3.453 1.74 3.115 1.83 2.799C1.92 2.485 2.053 2.211 2.228 1.982C2.403 1.751 2.618 1.569 2.873 1.434C3.13 1.299 3.427 1.231 3.768 1.23C3.987 1.231 4.191 1.251 4.378 1.29C4.562 1.33 4.725 1.381 4.871 1.44C5.015 1.499 5.138 1.561 5.246 1.621C5.353 1.681 5.433 1.73 5.495 1.771L6.017 0.689C5.936 0.63 5.828 0.562 5.69 0.487C5.547 0.412 5.373 0.337 5.17 0.262C4.964 0.187 4.73 0.125 4.465 0.073C4.199 0.025 3.901 0 3.57 0C3.002 0 2.494 0.092 2.053 0.278C1.613 0.463 1.242 0.721 0.938 1.051C0.633 1.382 0.402 1.772 0.241 2.223C0.077 2.672 -0.001 3.164 0 3.694C0 4.314 0.093 4.87 0.28 5.36C0.468 5.851 0.726 6.263 1.061 6.598C1.395 6.934 1.784 7.189 2.231 7.363C2.676 7.537 3.165 7.625 3.693 7.625C4.214 7.624 4.66 7.566 5.03 7.445C5.4 7.325 5.672 7.199 5.84 7.068L5.84 5.492L4.625 5.493Z" fill="rgb(14,115,145)" fill-opacity="1.000" fill-rule="nonzero" transform="matrix(1 0 0 -1 59.7919 35.2935)"/><path d="M3.491 0C2.869 0.002 2.337 0.109 1.894 0.324C1.45 0.539 1.087 0.824 0.808 1.174C0.529 1.524 0.325 1.922 0.193 2.373C0.065 2.824 0 3.285 0 3.755C0.001 4.204 0.068 4.66 0.202 5.121C0.336 5.58 0.544 5.997 0.827 6.366C1.107 6.737 1.463 7.039 1.904 7.274C2.343 7.509 2.871 7.626 3.492 7.626C4.112 7.627 4.646 7.52 5.095 7.304C5.544 7.088 5.912 6.804 6.202 6.453C6.492 6.104 6.707 5.704 6.847 5.251C6.987 4.803 7.056 4.342 7.055 3.872C7.055 3.433 6.986 2.982 6.846 2.522C6.707 2.061 6.49 1.643 6.198 1.268C5.91 0.893 5.542 0.589 5.092 0.353C4.643 0.119 4.106 0 3.491 0ZM3.518 1.203C3.848 1.203 4.126 1.268 4.355 1.405C4.585 1.538 4.776 1.722 4.925 1.952C5.075 2.182 5.185 2.456 5.255 2.777C5.325 3.098 5.361 3.438 5.361 3.798C5.361 4.158 5.323 4.498 5.248 4.82C5.173 5.138 5.061 5.416 4.911 5.654C4.763 5.888 4.568 6.074 4.336 6.215C4.101 6.356 3.82 6.425 3.491 6.425C3.173 6.425 2.899 6.358 2.667 6.222C2.44 6.088 2.25 5.905 2.107 5.675C1.964 5.446 1.858 5.172 1.794 4.857C1.729 4.542 1.694 4.204 1.697 3.845C1.696 3.484 1.732 3.143 1.801 2.823C1.872 2.503 1.977 2.224 2.121 1.983C2.266 1.742 2.455 1.552 2.681 1.412C2.91 1.273 3.19 1.204 3.518 1.203Z" fill="rgb(14,115,145)" fill-opacity="1.000" fill-rule="nonzero" transform="matrix(1 0 0 -1 66.3158 35.2968)"/><path d="M0.001 1.04C0.11 1.07 0.284 1.1 0.519 1.13C0.752 1.16 0.978 1.175 1.186 1.175L1.19 8.83C0.982 8.83 0.755 8.847 0.521 8.877C0.287 8.906 0.114 8.936 0.003 8.966L0.002 10.003L2.781 10.001L7.028 4.041C7.268 3.71 7.486 3.395 7.688 3.094C7.886 2.794 8.012 2.589 8.061 2.478L8.092 2.478C8.083 2.578 8.073 2.757 8.061 3.012C8.052 3.266 8.048 3.584 8.05 3.965L8.05 8.827C7.84 8.828 7.618 8.844 7.389 8.874C7.158 8.903 6.988 8.934 6.879 8.963L6.879 9.999L10.661 9.998L10.665 8.963C10.552 8.933 10.382 8.901 10.151 8.874C9.918 8.843 9.704 8.827 9.507 8.827L9.503 0L8.033 0L3.545 6.293C3.433 6.443 3.328 6.595 3.222 6.75C3.116 6.905 3.025 7.051 2.948 7.186C2.865 7.32 2.796 7.439 2.735 7.54C2.676 7.639 2.637 7.709 2.615 7.748L2.584 7.748C2.606 7.66 2.619 7.486 2.63 7.232C2.641 6.975 2.646 6.728 2.644 6.488L2.643 1.175C2.843 1.166 3.059 1.146 3.294 1.122C3.53 1.096 3.702 1.068 3.814 1.039L3.813 0.003L0 0.004L0.001 1.04Z" fill="rgb(14,115,145)" fill-opacity="1.000" fill-rule="nonzero" transform="matrix(1 0 0 -1 77.1681 35.123)"/><path d="M2.146 0C1.835 0 1.549 0.044 1.29 0.135C1.028 0.225 0.803 0.357 0.614 0.533C0.425 0.708 0.274 0.918 0.165 1.164C0.053 1.408 -0.001 1.691 0 2.011C0 2.482 0.114 2.877 0.337 3.198C0.565 3.518 0.859 3.776 1.224 3.97C1.589 4.165 2.004 4.305 2.469 4.391C2.935 4.475 3.407 4.518 3.888 4.518L4.159 4.517L4.158 5.127C4.158 5.564 4.059 5.88 3.859 6.074C3.657 6.267 3.325 6.364 2.852 6.364C2.482 6.364 2.143 6.295 1.824 6.154C1.507 6.015 1.216 5.83 0.947 5.599L0.244 6.594C0.561 6.887 0.952 7.132 1.414 7.328C1.873 7.526 2.407 7.624 3.02 7.625C3.928 7.624 4.611 7.425 5.07 7.024C5.523 6.623 5.749 5.967 5.748 5.057L5.747 2.008C5.748 1.87 5.751 1.742 5.756 1.627C5.76 1.51 5.768 1.4 5.78 1.289C5.991 1.269 6.184 1.254 6.365 1.243C6.545 1.233 6.699 1.23 6.829 1.23L6.829 0.178C6.608 0.158 6.277 0.138 5.832 0.118C5.387 0.098 4.897 0.088 4.367 0.089C4.338 0.189 4.313 0.321 4.293 0.487C4.275 0.652 4.262 0.834 4.262 1.034L4.233 1.035C4.031 0.765 3.753 0.525 3.398 0.314C3.044 0.104 2.627 0 2.146 0ZM2.551 1.202C2.921 1.201 3.239 1.274 3.504 1.425C3.769 1.575 3.987 1.765 4.158 1.995L4.157 3.512L3.887 3.512C3.207 3.512 2.655 3.41 2.23 3.206C1.802 2.999 1.592 2.637 1.591 2.118C1.591 1.786 1.695 1.55 1.906 1.411C2.12 1.271 2.33 1.201 2.551 1.202Z" fill="rgb(14,115,145)" fill-opacity="1.000" fill-rule="nonzero" transform="matrix(1 0 0 -1 88.0415 35.3029)"/><path d="M4.623 5.5C4.614 5.626 4.603 5.756 4.595 5.891C4.584 6.026 4.58 6.154 4.58 6.275C4.338 6.372 4.042 6.425 3.693 6.425C3.362 6.425 3.072 6.357 2.821 6.221C2.571 6.087 2.365 5.903 2.199 5.668C2.036 5.433 1.909 5.157 1.823 4.841C1.74 4.525 1.694 4.185 1.693 3.814C1.694 3.453 1.742 3.115 1.829 2.8C1.923 2.485 2.051 2.212 2.23 1.982C2.404 1.752 2.619 1.57 2.874 1.433C3.128 1.299 3.426 1.231 3.767 1.231C3.987 1.231 4.191 1.25 4.374 1.291C4.56 1.33 4.725 1.381 4.871 1.44C5.014 1.501 5.14 1.561 5.245 1.62C5.349 1.68 5.433 1.732 5.494 1.77L6.018 0.689C5.939 0.63 5.828 0.562 5.689 0.487C5.547 0.412 5.374 0.337 5.168 0.262C4.965 0.188 4.729 0.125 4.465 0.076C4.197 0.025 3.9 0 3.569 0C3.001 0 2.494 0.094 2.052 0.279C1.612 0.463 1.241 0.722 0.937 1.051C0.635 1.382 0.402 1.773 0.243 2.222C0.08 2.673 -0.001 3.163 0 3.694C0.001 4.314 0.094 4.87 0.281 5.36C0.466 5.851 0.726 6.263 1.061 6.597C1.393 6.933 1.784 7.188 2.229 7.363C2.677 7.538 3.164 7.627 3.694 7.626C4.213 7.626 4.66 7.565 5.029 7.446C5.398 7.324 5.668 7.199 5.838 7.07L5.841 5.499L4.623 5.5Z" fill="rgb(14,115,145)" fill-opacity="1.000" fill-rule="nonzero" transform="matrix(1 0 0 -1 95.1622 35.3064)"/><path d="M0 1.037C0.105 1.068 0.27 1.096 0.486 1.127C0.704 1.157 0.91 1.172 1.11 1.173L1.112 6.14C0.885 6.161 0.67 6.175 0.474 6.186C0.279 6.194 0.119 6.201 0.001 6.201L0 7.237C0.23 7.268 0.601 7.295 1.104 7.318C1.612 7.344 2.177 7.357 2.792 7.356L2.734 6.169L2.732 1.171C2.93 1.171 3.135 1.154 3.346 1.12C3.554 1.084 3.716 1.056 3.826 1.036L3.825 0L0 0.001L0 1.037ZM1.916 8.25C1.654 8.25 1.432 8.341 1.253 8.522C1.075 8.701 0.983 8.917 0.983 9.171C0.984 9.423 1.075 9.639 1.254 9.818C1.433 9.998 1.654 10.088 1.915 10.087C2.185 10.088 2.411 9.998 2.584 9.817C2.76 9.637 2.847 9.422 2.847 9.169C2.847 8.917 2.759 8.701 2.584 8.522C2.41 8.341 2.185 8.25 1.916 8.25Z" fill="rgb(14,115,145)" fill-opacity="1.000" fill-rule="nonzero" transform="matrix(1 0 0 -1 102.0064 35.129)"/><path d="M3.489 0C2.871 0 2.34 0.108 1.893 0.324C1.452 0.539 1.087 0.822 0.809 1.173C0.532 1.522 0.325 1.923 0.196 2.373C0.066 2.823 0 3.284 0 3.754C0 4.204 0.07 4.661 0.203 5.12C0.34 5.579 0.546 5.996 0.828 6.366C1.105 6.737 1.466 7.038 1.905 7.274C2.343 7.509 2.872 7.626 3.492 7.626C4.113 7.625 4.645 7.517 5.096 7.304C5.546 7.087 5.912 6.806 6.204 6.453C6.491 6.104 6.71 5.703 6.849 5.253C6.987 4.801 7.058 4.342 7.058 3.871C7.057 3.432 6.987 2.982 6.848 2.521C6.709 2.061 6.49 1.643 6.203 1.267C5.912 0.893 5.542 0.587 5.092 0.351C4.644 0.118 4.11 0 3.489 0ZM3.519 1.202C3.849 1.202 4.129 1.267 4.358 1.404C4.587 1.539 4.778 1.722 4.927 1.953C5.075 2.181 5.184 2.456 5.257 2.776C5.325 3.097 5.361 3.438 5.362 3.797C5.361 4.158 5.323 4.498 5.248 4.818C5.173 5.138 5.061 5.418 4.912 5.653C4.764 5.887 4.571 6.075 4.339 6.215C4.102 6.355 3.821 6.425 3.49 6.426C3.174 6.425 2.899 6.358 2.67 6.222C2.441 6.087 2.253 5.904 2.111 5.674C1.963 5.445 1.861 5.172 1.796 4.858C1.731 4.542 1.698 4.204 1.698 3.845C1.698 3.483 1.731 3.143 1.803 2.823C1.871 2.502 1.978 2.222 2.124 1.982C2.266 1.741 2.454 1.551 2.684 1.411C2.911 1.271 3.191 1.202 3.519 1.202ZM4.026 10.213L6.188 10.213L4.278 8.516L2.884 8.517L4.026 10.213Z" fill="rgb(14,115,145)" fill-opacity="1.000" fill-rule="nonzero" transform="matrix(1 0 0 -1 106.3555 35.3109)"/><path d="M0 1.04C0.108 1.069 0.275 1.099 0.493 1.13C0.714 1.161 0.924 1.175 1.124 1.175L1.125 6.142C0.894 6.163 0.683 6.177 0.48 6.188C0.28 6.197 0.12 6.204 0.001 6.204L0.002 7.241C0.229 7.27 0.594 7.298 1.097 7.32C1.597 7.347 2.145 7.358 2.749 7.358L2.687 6.217L2.717 6.217C2.988 6.577 3.308 6.873 3.677 7.104C4.048 7.335 4.499 7.448 5.029 7.448C5.418 7.448 5.752 7.387 6.027 7.268C6.304 7.148 6.523 6.981 6.695 6.771C6.864 6.562 6.99 6.316 7.069 6.036C7.15 5.754 7.188 5.455 7.191 5.136L7.187 1.173C7.387 1.172 7.598 1.155 7.812 1.121C8.027 1.085 8.183 1.056 8.284 1.037L8.282 0L4.533 0.001L4.533 1.038C4.632 1.058 4.781 1.084 4.983 1.113C5.185 1.143 5.387 1.164 5.597 1.174L5.599 4.866C5.598 5.277 5.513 5.59 5.345 5.811C5.172 6.031 4.882 6.141 4.475 6.142C4.094 6.142 3.758 6.027 3.465 5.797C3.177 5.567 2.93 5.316 2.733 5.045L2.729 1.174C2.93 1.164 3.134 1.143 3.337 1.113C3.544 1.083 3.697 1.058 3.795 1.038L3.796 0.002L0 0.003L0 1.04Z" fill="rgb(14,115,145)" fill-opacity="1.000" fill-rule="nonzero" transform="matrix(1 0 0 -1 113.9374 35.1358)"/></svg>