<svg xmlns="http://www.w3.org/2000/svg" viewBox="0 0 130 60" width="130" height="60"><path d="M0 0L130 0L130 60L0 60L0 0Z" fill="rgb(255,255,255)" fill-opacity="1.000" fill-rule="nonzero" transform="matrix(1 0 0 1 0 0)"/><path d="M6.869 7.58L3.72 7.58L3.72 3.22L6.869 3.22C8.357 3.243 9.371 4.082 9.371 5.395C9.371 6.709 8.357 7.58 6.869 7.58ZM7.297 0L0 0L0 15.417L3.72 15.417L3.72 11.004L7.274 11.004C11.198 11.004 13.113 8.218 13.113 5.395C13.113 2.573 11.22 0 7.297 0Z" fill="rgb(65,65,65)" fill-opacity="1.000" fill-rule="nonzero" transform="matrix(1 0 0 1 57.0064 32.5833)"/><path d="M10.864 9.409L3.793 0L0 0L0 15.417L3.793 15.417L3.793 5.985L10.864 15.417L14.656 15.417L14.656 0L10.864 0L10.864 9.409Z" fill="rgb(65,65,65)" fill-opacity="1.000" fill-rule="nonzero" transform="matrix(1 0 0 1 88.6327 32.5833)"/><path d="M1.739 6.11L1.739 4.614L3.245 4.614C3.934 4.614 4.294 4.795 4.294 5.362C4.294 5.861 3.944 6.11 3.245 6.11L1.739 6.11ZM1.739 1.587L3.128 1.587C3.796 1.587 4.114 1.836 4.114 2.358C4.114 2.959 3.881 3.197 3.128 3.197L1.739 3.197L1.739 1.587ZM6.171 5.464C6.171 4.636 5.789 3.967 5.09 3.593C5.249 3.469 5.768 2.913 5.768 2.12C5.768 0.884 5.111 0 3.022 0L0 0L0 7.708L3.446 7.708C5.418 7.708 6.171 6.722 6.171 5.464Z" fill="rgb(65,65,65)" fill-opacity="1.000" fill-rule="nonzero" transform="matrix(1 0 0 1 57.0064 21.7917)"/><path d="M1.888 2.993L5.826 7.708L7.714 7.708L7.714 0L5.826 0L5.826 4.704L1.888 0L0 0L0 7.708L1.888 7.708L1.888 2.993Z" fill="rgb(65,65,65)" fill-opacity="1.000" fill-rule="nonzero" transform="matrix(1 0 0 1 76.2908 21.7917)"/><path d="M6.942 6.18L5.409 5.128C5.042 5.573 4.485 5.856 3.863 5.856C2.755 5.856 1.857 4.96 1.857 3.854C1.857 2.749 2.755 1.852 3.863 1.852C4.483 1.852 5.039 2.134 5.405 2.577L6.939 1.523C6.234 0.597 5.118 0 3.863 0C1.729 0 0 1.726 0 3.854C0 5.983 1.729 7.708 3.863 7.708C5.12 7.708 6.237 7.109 6.942 6.18Z" fill="rgb(65,65,65)" fill-opacity="1.000" fill-rule="nonzero" transform="matrix(1 0 0 1 87.0899 21.7917)"/><path d="M3.857 1.852C4.963 1.852 5.86 2.749 5.86 3.854C5.86 4.959 4.963 5.855 3.857 5.855C2.751 5.855 1.854 4.959 1.854 3.854C1.854 2.749 2.751 1.852 3.857 1.852ZM3.857 7.708C5.987 7.708 7.714 5.983 7.714 3.854C7.714 1.725 5.987 0 3.857 0C1.727 0 0 1.725 0 3.854C0 5.983 1.727 7.708 3.857 7.708Z" fill="rgb(65,65,65)" fill-opacity="1.000" fill-rule="nonzero" transform="matrix(1 0 0 1 96.3466 21.7917)"/><path d="M4.272 2.108L5.315 4.667C4.968 4.72 4.614 4.749 4.261 4.749C3.908 4.749 3.558 4.721 3.214 4.668L4.272 2.108ZM2.55 6.272C3.111 6.388 3.683 6.447 4.261 6.447C4.776 6.447 5.292 6.4 5.795 6.308C5.853 6.297 5.911 6.283 5.969 6.271L6.555 7.708L8.485 7.708L5.265 0L3.246 0L0 7.708L1.956 7.708L2.55 6.272Z" fill="rgb(65,65,65)" fill-opacity="1.000" fill-rule="nonzero" transform="matrix(1 0 0 1 65.4913 21.7917)"/><path d="M8.485 9.562C7.768 9.562 7.057 9.506 6.355 9.4L8.508 4.217L10.629 9.397C9.922 9.504 9.204 9.562 8.485 9.562ZM6.447 0L0 15.417L3.855 15.417L5.048 12.545C6.174 12.776 7.324 12.894 8.485 12.894C9.519 12.894 10.556 12.8 11.566 12.615C11.683 12.594 11.8 12.566 11.916 12.543L13.093 15.417L16.97 15.417L10.501 0L6.447 0Z" fill="rgb(65,65,65)" fill-opacity="1.000" fill-rule="nonzero" transform="matrix(1 0 0 1 69.3482 32.5833)"/><path d="M11.185 15.452C8.655 15.452 6.598 13.437 6.598 10.958C6.598 8.479 8.655 6.464 11.185 6.464C13.715 6.464 15.772 8.479 15.772 10.958C15.772 13.437 13.715 15.452 11.185 15.452ZM11.185 0C5.017 0 0 4.916 0 10.958L0 27.75L6.598 27.75L6.598 20.969L7.117 21.169C8.415 21.665 9.783 21.917 11.185 21.917C17.353 21.917 22.37 17.001 22.37 10.958C22.37 4.916 17.353 0 11.185 0Z" fill="rgb(65,65,65)" fill-opacity="1.000" fill-rule="nonzero" transform="matrix(1 0 0 1 25.3796 20.25)"/><path d="M0 6.167L6.171 6.167L6.171 0L0 0L0 6.167Z" fill="rgb(0,197,255)" fill-opacity="1.000" fill-rule="nonzero" transform="matrix(1 0 0 1 25.3795 11)"/></svg>