<svg xmlns="http://www.w3.org/2000/svg" viewBox="0 0 60 60" width="60" height="60"><path d="M0 0L60 0L60 60L0 60L0 0Z" fill="rgb(255,255,255)" fill-opacity="1.000" fill-rule="nonzero" transform="matrix(1 0 0 1 0 0)"/><path d="M0 0L0 7.248C8.421 6.88 11.084 11.045 11.084 11.045C10.22 0.713 0 0 0 0Z" fill="rgb(168,10,53)" fill-opacity="1.000" fill-rule="nonzero" transform="matrix(1 0 0 1 20.1982 16.4588)"/><path d="M0 11.045C0 11.045 2.663 6.88 11.084 7.248L11.084 0C11.084 0 0.864 0.713 0 11.045Z" fill="rgb(168,10,53)" fill-opacity="1.000" fill-rule="nonzero" transform="matrix(1 0 0 1 31.2823 16.4588)"/><path d="M0 0C0 0 4.173 2.657 3.805 11.06L11.068 11.06C11.068 11.06 10.353 0.862 0 0Z" fill="rgb(168,10,53)" fill-opacity="1.000" fill-rule="nonzero" transform="matrix(1 0 0 1 31.2901 27.4955)"/><path d="M0.027 21.496L7.561 21.496C6.035 3.196 18.269 0 18.269 0C-1.484 0.833 0.027 21.496 0.027 21.496Z" fill="rgb(168,10,53)" fill-opacity="1.000" fill-rule="nonzero" transform="matrix(1 0 0 1 13.0056 27.4956)"/><path d="M26.233 0L5.202 0C2.329 0 0 2.324 0 5.191L0 20.288C0.791 19.293 1.681 18.341 2.684 17.454L2.684 5.464C2.684 3.926 3.934 2.679 5.476 2.679L25.96 2.679C27.501 2.679 28.751 3.926 28.751 5.464L28.751 25.905C28.751 27.443 27.501 28.69 25.96 28.69L7.634 28.69L7.634 31.368L26.233 31.368C29.106 31.368 31.435 29.044 31.435 26.177L31.435 5.191C31.435 2.324 29.106 0 26.233 0Z" fill="rgb(246,140,31)" fill-opacity="1.000" fill-rule="nonzero" transform="matrix(1 0 0 1 15.5648 11.8193)"/></svg>