<svg xmlns="http://www.w3.org/2000/svg" viewBox="0 0 60 60" width="60" height="60"><path d="M0 0L60 0L60 60L0 60L0 0Z" fill="rgb(80,195,199)" fill-opacity="1.000" fill-rule="nonzero" transform="matrix(1 0 0 1 0 0)"/><path d="M0 0.386L0.002 2.61C-0.001 2.687 0.016 2.764 0.051 2.834C0.085 2.903 0.137 2.962 0.201 3.006C0.265 3.049 0.339 3.075 0.416 3.082C0.493 3.088 0.571 3.075 0.641 3.043C1.187 2.89 3.137 2.006 3.301 1.926C3.562 1.791 3.668 1.339 3.183 1.122C2.158 0.648 0.587 0.028 0.587 0.028C0.587 0.028 0.033 -0.149 0 0.386Z" fill="rgb(255,255,255)" fill-opacity="1.000" fill-rule="nonzero" transform="matrix(1 0 0 1 31.8562 22.0199)"/><path d="M0 0.386L0.002 2.61C-0.001 2.687 0.016 2.764 0.051 2.834C0.086 2.903 0.138 2.962 0.202 3.006C0.266 3.049 0.34 3.075 0.416 3.082C0.493 3.088 0.571 3.075 0.641 3.043C1.187 2.891 3.137 2.006 3.301 1.926C3.562 1.791 3.668 1.339 3.183 1.122C2.158 0.647 0.587 0.028 0.587 0.028C0.587 0.028 0.033 -0.149 0 0.386Z" fill="rgb(255,255,255)" fill-opacity="1.000" fill-rule="nonzero" transform="matrix(1 0 0 1 35.7284 22.0061)"/><path d="M0 3.385C0.011 3.088 0.169 3.102 0.364 3.099C0.374 3.099 0.761 3.104 0.805 3.099C1.201 3.054 1.215 2.703 1.217 2.35C1.221 1.726 1.217 1.102 1.218 0.478C1.218 0.09 1.306 0.002 1.684 0.001C1.804 0.001 1.924 -0.001 2.044 0.001C2.273 0.008 2.376 0.174 2.381 0.407C2.39 0.997 2.39 2.064 2.39 2.654C2.39 2.951 2.605 3.103 2.921 3.096C3.301 3.087 3.856 3.096 4.236 3.099C4.511 3.101 4.61 3.2 4.615 3.473C4.618 3.613 4.618 3.755 4.615 3.895C4.609 4.151 4.497 4.257 4.245 4.26L2.836 4.26C2.62 4.26 2.418 4.299 2.393 4.744C2.375 5.085 2.393 7.874 2.393 8.732C2.392 8.87 2.418 9.007 2.472 9.135C2.525 9.263 2.604 9.378 2.703 9.473C2.803 9.569 2.921 9.643 3.05 9.691C3.179 9.738 3.316 9.759 3.454 9.751C3.846 9.732 4.162 9.686 4.39 9.221C4.418 9.156 4.464 9.101 4.524 9.063C4.583 9.025 4.653 9.007 4.723 9.01C4.876 9.01 5.27 9.018 5.27 9.012C5.535 9.027 5.591 9.226 5.52 9.483C5.433 9.802 5.259 10.09 5.019 10.315C4.779 10.541 4.482 10.695 4.16 10.761C3.516 10.916 2.688 10.841 2.301 10.581C1.675 10.233 1.238 9.734 1.22 8.965C1.22 8.965 1.23 6.159 1.22 4.878C1.217 4.428 1.138 4.29 0.844 4.261C0.836 4.261 0.31 4.235 0.298 4.248C0.109 4.246 0.003 4.187 0 3.954L0 3.385Z" fill="rgb(66,70,74)" fill-opacity="1.000" fill-rule="nonzero" transform="matrix(1 0 0 1 7 22.8843)"/><path d="M0.004 6.732C0.004 5.317 -0.007 3.901 0.008 2.485C0 1.971 0.16 1.469 0.463 1.054C0.766 0.64 1.195 0.337 1.685 0.192C2.746 -0.149 3.762 -0.058 4.669 0.645C4.927 0.838 5.138 1.088 5.285 1.376C5.432 1.664 5.512 1.982 5.518 2.306C5.55 3.425 5.546 4.546 5.52 5.666C5.512 6.178 5.324 6.67 4.988 7.055C4.653 7.44 4.192 7.692 3.688 7.767C3.13 7.836 2.568 7.875 2.005 7.885C1.439 7.931 1.174 8.197 1.168 8.769C1.161 9.5 1.167 10.281 1.166 11.012C1.166 11.398 1.08 11.481 0.693 11.481C0.587 11.481 0.48 11.483 0.373 11.481C0.108 11.476 0.008 11.383 0.004 11.119C-0.002 10.757 0.001 10.395 0.001 10.033C0.001 8.933 0.001 7.833 0.001 6.732L0.004 6.732ZM4.369 3.982L4.367 3.982C4.367 3.499 4.376 3.016 4.364 2.534C4.368 2.308 4.31 2.085 4.195 1.891C4.081 1.696 3.915 1.538 3.716 1.433C3.461 1.287 3.176 1.202 2.883 1.185C2.59 1.168 2.297 1.219 2.027 1.335C1.769 1.422 1.546 1.59 1.391 1.816C1.236 2.041 1.158 2.311 1.169 2.585C1.158 3.516 1.158 4.448 1.169 5.38C1.17 5.642 1.249 5.898 1.395 6.115C1.541 6.331 1.748 6.5 1.99 6.598C2.334 6.771 3.341 6.746 3.685 6.499C3.784 6.473 4.403 6.121 4.372 5.208C4.358 4.8 4.369 4.391 4.369 3.982L4.369 3.982Z" fill="rgb(66,70,74)" fill-opacity="1.000" fill-rule="nonzero" transform="matrix(1 0 0 1 21.645 25.8552)"/><path d="M5.549 4.018C5.549 4.481 5.549 4.944 5.549 5.407C5.579 5.966 5.404 6.516 5.059 6.953C4.713 7.391 4.22 7.687 3.673 7.784C2.789 8.019 1.849 7.91 1.041 7.48C0.232 7.042 -0.061 6.242 0.01 5.402C0.025 4.894 0.23 4.411 0.583 4.049C0.92 3.719 1.366 3.526 1.836 3.506C2.46 3.476 3.088 3.48 3.713 3.472C3.826 3.489 3.941 3.472 4.044 3.424C4.147 3.375 4.233 3.298 4.293 3.2C4.33 3.123 4.354 3.039 4.362 2.954C4.48 2.015 4.052 1.359 3.097 1.207C2.852 1.154 2.598 1.156 2.354 1.212C2.109 1.268 1.88 1.377 1.682 1.532C1.449 1.765 1.269 2.045 1.154 2.355C1.134 2.427 1.088 2.489 1.024 2.529C0.961 2.568 0.885 2.582 0.812 2.568C0.808 2.568 0.477 2.571 0.37 2.568C0.071 2.559 0.007 2.347 0.059 2.052C0.275 0.838 1.278 0.15 2.38 0.029C3.016 -0.058 3.664 0.052 4.237 0.345C4.628 0.538 4.957 0.837 5.188 1.209C5.419 1.581 5.541 2.01 5.542 2.448C5.565 2.971 5.546 3.495 5.546 4.018L5.549 4.018ZM2.936 4.669L2.936 4.67C2.65 4.67 2.363 4.663 2.077 4.672C1.947 4.663 1.817 4.683 1.696 4.73C1.574 4.778 1.465 4.851 1.375 4.946C1.212 5.175 1.144 5.459 1.184 5.737C1.224 6.016 1.37 6.268 1.591 6.441C2.039 6.7 2.564 6.794 3.073 6.705C3.835 6.618 4.312 6.249 4.379 5.5C4.424 4.987 4.18 4.669 3.675 4.669L2.936 4.669Z" fill="rgb(66,70,74)" fill-opacity="1.000" fill-rule="nonzero" transform="matrix(1 0 0 1 29.0592 25.8659)"/><path d="M5.534 5.577C5.513 6.101 5.319 6.602 4.983 7.002C4.647 7.403 4.189 7.68 3.68 7.789C3.258 7.917 2.815 7.954 2.378 7.898C1.941 7.843 1.52 7.696 1.143 7.467C0.801 7.266 0.518 6.979 0.321 6.634C0.124 6.289 0.02 5.898 0.021 5.5C-0.011 4.481 -0.001 3.46 0.016 2.441C0.027 1.897 0.22 1.372 0.565 0.952C0.91 0.533 1.386 0.243 1.915 0.131C2.369 -0.006 2.849 -0.036 3.316 0.044C3.783 0.123 4.226 0.311 4.61 0.591C5.287 1.089 5.547 1.8 5.562 2.619C5.571 3.063 5.557 5.181 5.534 5.577ZM4.387 2.693C4.404 2.485 4.372 2.277 4.294 2.084C4.216 1.891 4.094 1.719 3.938 1.582C3.739 1.426 3.51 1.312 3.265 1.249C3.02 1.186 2.765 1.173 2.516 1.213C2.149 1.227 1.802 1.386 1.551 1.656C1.301 1.926 1.166 2.285 1.177 2.654C1.166 3.532 1.169 4.41 1.177 5.288C1.167 5.476 1.198 5.663 1.267 5.838C1.337 6.013 1.443 6.17 1.579 6.299C1.811 6.501 2.09 6.641 2.39 6.707C2.691 6.772 3.002 6.76 3.297 6.672C3.6 6.616 3.875 6.455 4.072 6.216C4.27 5.978 4.379 5.678 4.381 5.367C4.381 4.911 4.388 3.129 4.389 2.693L4.387 2.693Z" fill="rgb(66,70,74)" fill-opacity="1.000" fill-rule="nonzero" transform="matrix(1 0 0 1 13.803 25.8505)"/><path d="M0.006 3.957C0.006 3.488 0.003 3.018 0.006 2.549C0.019 1.113 1.018 0.218 2.284 0.043C2.992 -0.075 3.718 0.053 4.344 0.406C4.705 0.601 5.007 0.89 5.217 1.243C5.428 1.597 5.54 2.001 5.541 2.413C5.572 3.458 5.562 4.505 5.531 5.551C5.511 6.082 5.316 6.59 4.975 6.996C4.635 7.402 4.169 7.681 3.653 7.789C3.236 7.91 2.799 7.943 2.369 7.888C1.939 7.832 1.524 7.689 1.151 7.466C0.805 7.261 0.518 6.969 0.318 6.618C0.118 6.267 0.013 5.87 0.012 5.466C-0.012 4.964 0.007 4.46 0.007 3.957L0.006 3.957ZM4.376 3.99L4.384 3.99C4.384 3.554 4.384 3.119 4.384 2.683C4.401 2.475 4.369 2.267 4.291 2.074C4.213 1.881 4.091 1.709 3.935 1.572C3.735 1.416 3.506 1.302 3.261 1.239C3.016 1.175 2.761 1.163 2.511 1.203C2.144 1.217 1.798 1.376 1.547 1.646C1.296 1.916 1.162 2.275 1.173 2.644C1.161 3.522 1.164 4.4 1.173 5.278C1.162 5.466 1.193 5.653 1.262 5.828C1.332 6.002 1.438 6.16 1.574 6.289C1.806 6.491 2.085 6.631 2.385 6.696C2.686 6.762 2.997 6.75 3.292 6.662C3.595 6.606 3.87 6.445 4.068 6.206C4.266 5.968 4.375 5.668 4.376 5.357C4.375 4.901 4.375 4.446 4.375 3.99L4.376 3.99Z" fill="rgb(66,70,74)" fill-opacity="1.000" fill-rule="nonzero" transform="matrix(1 0 0 1 47.4398 25.8606)"/><path d="M2.436 0.001C3.116 0.001 3.796 -0.001 4.475 0.001C4.934 0.002 5.097 0.207 5.144 0.66C5.213 1.318 4.933 1.62 4.64 1.995C4.121 2.625 1.764 5.439 1.641 5.659C1.383 6.119 1.537 6.541 2.149 6.514C2.969 6.523 4.747 6.506 4.813 6.514C5.043 6.541 5.128 6.668 5.134 6.898C5.139 7.052 5.141 7.207 5.133 7.361C5.137 7.405 5.131 7.449 5.115 7.491C5.1 7.532 5.076 7.57 5.045 7.601C5.014 7.632 4.976 7.655 4.935 7.67C4.893 7.685 4.849 7.691 4.806 7.687C4.593 7.695 4.379 7.69 4.167 7.69C3.021 7.69 1.875 7.69 0.729 7.69C0.193 7.69 0.039 7.505 0.004 6.967C-0.031 6.311 0.182 5.667 0.6 5.163C1.151 4.463 2.938 2.314 3.086 2.125C3.235 1.936 3.438 1.682 3.329 1.441C3.221 1.2 3.051 1.164 2.805 1.163C2.106 1.16 0.44 1.165 0.44 1.165C0.193 1.159 0.022 1.099 0.004 0.856C-0.001 0.695 0 0.5 0.004 0.34C0.01 0.103 0.116 0.003 0.378 0.002C1.065 -0.001 1.75 0.001 2.436 0.001Z" fill="rgb(66,70,74)" fill-opacity="1.000" fill-rule="nonzero" transform="matrix(1 0 0 1 36.5505 25.9827)"/><path d="M1.165 3.847C1.165 4.966 1.165 6.16 1.165 7.28C1.154 7.572 1.068 7.683 0.777 7.689C0.684 7.689 0.505 7.689 0.412 7.689C0.108 7.684 0.003 7.583 0.001 7.277C-0.002 6.647 0.001 6.017 0.001 5.387C0.001 3.751 0.001 1.963 0.001 0.327C0.001 0.066 0.129 0.001 0.408 0.001C0.528 0.001 0.722 -0.002 0.842 0.003C0.886 -0.002 0.93 0.003 0.971 0.017C1.013 0.032 1.05 0.056 1.081 0.087C1.112 0.118 1.135 0.156 1.149 0.198C1.163 0.24 1.167 0.284 1.162 0.328C1.168 0.797 1.166 1.267 1.166 1.736C1.166 2.439 1.166 3.143 1.165 3.847Z" fill="rgb(66,70,74)" fill-opacity="1.000" fill-rule="nonzero" transform="matrix(1 0 0 1 43.9272 25.9845)"/><path d="M0.001 0.002L1.017 0.002C1.25 -0.012 1.48 0.066 1.656 0.221C1.707 0.271 1.748 0.332 1.775 0.399C1.802 0.466 1.815 0.538 1.814 0.61L1.814 0.617C1.815 0.747 1.776 0.874 1.7 0.979C1.625 1.085 1.519 1.164 1.396 1.204C1.691 1.282 1.951 1.452 1.951 1.796L1.951 1.803C1.951 2.217 1.6 2.479 1.069 2.479L0 2.479L0.001 0.002ZM0.996 1.144C1.365 1.144 1.629 0.964 1.629 0.635L1.629 0.628C1.629 0.355 1.407 0.171 1.014 0.171L0.184 0.171L0.184 1.144L0.996 1.144ZM1.077 2.309C1.499 2.309 1.767 2.114 1.767 1.803L1.767 1.796C1.767 1.491 1.503 1.314 1.018 1.314L0.185 1.314L0.185 2.309L1.077 2.309Z" fill="rgb(66,70,74)" fill-opacity="1.000" fill-rule="nonzero" transform="matrix(1 0 0 1 11.1252 22.0449)"/><path d="M1.146 0L1.322 0L2.468 2.495L2.268 2.495L1.955 1.801L0.503 1.801L0.19 2.495L0 2.495L1.146 0ZM1.877 1.635L1.231 0.202L0.58 1.635L1.877 1.635Z" fill="rgb(66,70,74)" fill-opacity="1.000" fill-rule="nonzero" transform="matrix(1 0 0 1 13.9459 22.0288)"/><path d="M0 0L0.172 0L1.87 2.155L1.87 0L2.046 0L2.046 2.477L1.909 2.477L0.176 0.276L0.176 2.477L0 2.477L0 0Z" fill="rgb(66,70,74)" fill-opacity="1.000" fill-rule="nonzero" transform="matrix(1 0 0 1 17.4266 22.0465)"/><path d="M0.001 1.288L0.001 1.281C-0.004 1.115 0.024 0.95 0.084 0.795C0.143 0.64 0.233 0.499 0.348 0.38C0.463 0.26 0.6 0.165 0.751 0.1C0.903 0.035 1.066 0.001 1.231 0C1.409 -0.003 1.586 0.03 1.75 0.098C1.915 0.167 2.064 0.268 2.188 0.397L2.057 0.531C1.952 0.416 1.823 0.324 1.681 0.262C1.538 0.199 1.384 0.167 1.228 0.167C1.087 0.169 0.948 0.199 0.819 0.256C0.689 0.313 0.573 0.396 0.476 0.499C0.38 0.603 0.304 0.724 0.255 0.857C0.206 0.991 0.184 1.132 0.191 1.274L0.191 1.281C0.185 1.424 0.207 1.566 0.256 1.7C0.305 1.833 0.381 1.956 0.478 2.059C0.575 2.163 0.691 2.247 0.821 2.304C0.95 2.362 1.09 2.393 1.232 2.396C1.392 2.396 1.55 2.362 1.696 2.295C1.843 2.229 1.973 2.131 2.079 2.01L2.202 2.13C2.078 2.268 1.928 2.378 1.759 2.452C1.591 2.527 1.408 2.564 1.224 2.562C1.06 2.562 0.897 2.529 0.746 2.465C0.595 2.4 0.458 2.306 0.344 2.187C0.23 2.068 0.14 1.927 0.081 1.773C0.022 1.618 -0.005 1.454 0.001 1.288Z" fill="rgb(66,70,74)" fill-opacity="1.000" fill-rule="nonzero" transform="matrix(1 0 0 1 20.5865 22.0039)"/><path d="M0.001 1.292L0.001 1.285C-0.005 1.119 0.023 0.953 0.083 0.797C0.143 0.642 0.233 0.5 0.348 0.38C0.463 0.26 0.6 0.165 0.753 0.1C0.905 0.034 1.069 0 1.234 0C1.4 0 1.564 0.032 1.717 0.097C1.869 0.161 2.007 0.256 2.123 0.375C2.239 0.494 2.33 0.636 2.39 0.791C2.451 0.946 2.48 1.112 2.475 1.278C2.479 1.282 2.479 1.282 2.475 1.285C2.481 1.452 2.453 1.618 2.393 1.773C2.333 1.929 2.243 2.071 2.128 2.19C2.013 2.31 1.876 2.406 1.723 2.471C1.571 2.536 1.407 2.57 1.242 2.57C1.076 2.571 0.912 2.538 0.759 2.474C0.607 2.409 0.468 2.314 0.353 2.195C0.237 2.076 0.146 1.935 0.086 1.78C0.025 1.625 -0.004 1.459 0.001 1.292ZM2.286 1.292L2.286 1.285C2.291 1.142 2.268 0.999 2.218 0.865C2.168 0.731 2.092 0.608 1.994 0.505C1.896 0.401 1.778 0.318 1.648 0.26C1.517 0.203 1.377 0.172 1.234 0.171C1.093 0.172 0.953 0.202 0.823 0.258C0.693 0.315 0.576 0.398 0.478 0.501C0.381 0.604 0.305 0.726 0.256 0.86C0.206 0.993 0.184 1.136 0.19 1.278L0.19 1.285C0.185 1.428 0.207 1.571 0.258 1.705C0.308 1.84 0.384 1.962 0.482 2.066C0.58 2.17 0.698 2.253 0.828 2.31C0.958 2.368 1.099 2.398 1.241 2.4C1.383 2.399 1.523 2.369 1.653 2.312C1.783 2.256 1.9 2.173 1.997 2.07C2.095 1.966 2.171 1.844 2.22 1.71C2.27 1.577 2.292 1.435 2.286 1.292Z" fill="rgb(66,70,74)" fill-opacity="1.000" fill-rule="nonzero" transform="matrix(1 0 0 1 23.6034 22)"/><path d="M1.163 0.585C1.163 0.262 0.903 0 0.582 0C0.26 0 0 0.262 0 0.585L0 0.676C0 0.999 0.26 1.261 0.582 1.261C0.903 1.261 1.163 0.999 1.163 0.676L1.163 0.585Z" fill="rgb(66,70,74)" fill-opacity="1.000" fill-rule="nonzero" transform="matrix(1 0 0 1 43.9028 23.8783)"/></svg>