<svg xmlns="http://www.w3.org/2000/svg" viewBox="0 0 130 60" width="130" height="60"><path d="M0 0L130 0L130 60L0 60L0 0Z" fill="rgb(255,255,255)" fill-opacity="1.000" fill-rule="nonzero" transform="matrix(1 0 0 1 0 0)"/><path d="M18.1 23.305L18.1 31.324C16.624 31.888 15.021 32.196 13.345 32.196C13.207 32.196 13.071 32.194 12.934 32.189C11.408 32.144 9.945 31.842 8.591 31.324C7.998 31.099 7.426 30.832 6.878 30.527C2.776 28.251 0 23.876 0 18.852L0 6.879C0 3.08 3.08 0 6.878 0L6.878 18.067C6.878 18.542 6.664 21.25 8.591 23.305C9.732 24.523 11.117 24.981 11.372 25.061C11.994 25.259 12.658 25.365 13.345 25.365C15.221 25.365 16.912 24.573 18.1 23.305Z" fill="rgb(94,1,13)" fill-opacity="1.000" fill-rule="nonzero" transform="matrix(1 0 0 1 13 11)"/><path d="M0 8.891L0 0.872C1.476 0.308 3.079 0 4.755 0C4.893 0 5.029 0.002 5.166 0.007C6.692 0.052 8.155 0.354 9.509 0.872C10.102 1.097 10.674 1.365 11.222 1.669C15.324 3.945 18.1 8.32 18.1 13.344L18.1 25.317C18.1 29.116 15.02 32.196 11.222 32.196L11.222 14.129C11.222 13.654 11.437 10.946 9.509 8.891C8.368 7.673 6.983 7.215 6.728 7.135C6.106 6.937 5.442 6.831 4.755 6.831C2.879 6.831 1.188 7.623 0 8.891Z" fill="rgb(13,13,13)" fill-opacity="1.000" fill-rule="nonzero" transform="matrix(1 0 0 1 21.5908 16.5078)"/><path d="M5.379 5.907C5.259 6.144 5.088 6.345 4.868 6.508C4.648 6.671 4.384 6.799 4.077 6.889C3.769 6.979 3.427 7.024 3.046 7.024L0 7.024L0 0L2.894 0C3.235 0 3.545 0.04 3.826 0.121C4.107 0.203 4.345 0.318 4.542 0.468C4.738 0.619 4.893 0.8 5.003 1.015C5.113 1.23 5.167 1.468 5.167 1.729L5.167 1.749C5.167 1.99 5.132 2.202 5.063 2.383C4.993 2.564 4.901 2.721 4.788 2.856C4.675 2.99 4.547 3.102 4.402 3.192C4.259 3.282 4.117 3.358 3.976 3.418C4.182 3.471 4.384 3.543 4.577 3.633C4.77 3.722 4.939 3.836 5.083 3.974C5.226 4.11 5.341 4.272 5.429 4.455C5.515 4.638 5.558 4.851 5.558 5.09L5.558 5.11C5.558 5.405 5.499 5.669 5.379 5.907ZM4.647 1.776C4.647 1.384 4.497 1.07 4.196 0.83C3.894 0.591 3.46 0.471 2.891 0.471L0.523 0.471L0.523 3.25L2.841 3.25C3.102 3.25 3.343 3.218 3.563 3.153C3.784 3.09 3.974 2.997 4.136 2.875C4.295 2.754 4.422 2.603 4.512 2.421C4.602 2.24 4.647 2.03 4.647 1.794L4.647 1.774L4.647 1.776ZM5.038 5.092C5.038 4.656 4.855 4.318 4.49 4.08C4.126 3.842 3.595 3.722 2.899 3.722L0.521 3.722L0.521 6.551L3.071 6.551C3.673 6.551 4.151 6.422 4.505 6.164C4.86 5.906 5.038 5.555 5.038 5.112L5.038 5.092Z" fill="rgb(13,13,13)" fill-opacity="1.000" fill-rule="nonzero" transform="matrix(1 0 0 1 44.6819 22.1124)"/><path d="M6.474 7.074L5.58 5.107L1.436 5.107L0.543 7.074L0 7.074L3.272 0L3.773 0L7.045 7.074L6.472 7.074L6.474 7.074ZM3.513 0.572L1.656 4.636L5.359 4.636L3.513 0.572Z" fill="rgb(13,13,13)" fill-opacity="1.000" fill-rule="nonzero" transform="matrix(1 0 0 1 51.3236 22.0626)"/><path d="M5.449 7.024L0.501 0.782L0.501 7.024L0 7.024L0 0L0.491 0L5.339 6.11L5.339 0L5.84 0L5.84 7.024L5.449 7.024Z" fill="rgb(13,13,13)" fill-opacity="1.000" fill-rule="nonzero" transform="matrix(1 0 0 1 59.8542 22.1124)"/><path d="M5.703 6.535C5.505 6.685 5.296 6.814 5.071 6.921C4.846 7.027 4.605 7.112 4.344 7.172C4.082 7.232 3.798 7.262 3.492 7.262C2.989 7.262 2.525 7.169 2.097 6.981C1.669 6.794 1.3 6.538 0.988 6.214C0.677 5.889 0.434 5.506 0.261 5.065C0.086 4.624 0 4.152 0 3.651L0 3.631C0 3.137 0.088 2.667 0.266 2.226C0.443 1.786 0.687 1.399 0.999 1.068C1.31 0.737 1.679 0.476 2.107 0.286C2.535 0.095 3.004 0 3.511 0C3.826 0 4.111 0.027 4.365 0.08C4.62 0.133 4.855 0.21 5.072 0.311C5.291 0.411 5.494 0.531 5.685 0.667C5.876 0.804 6.061 0.957 6.242 1.123L5.871 1.504C5.718 1.358 5.557 1.22 5.39 1.093C5.224 0.967 5.044 0.857 4.853 0.767C4.661 0.677 4.455 0.606 4.23 0.551C4.006 0.498 3.764 0.471 3.503 0.471C3.082 0.471 2.691 0.551 2.328 0.712C1.967 0.872 1.654 1.095 1.39 1.379C1.125 1.664 0.919 1.997 0.767 2.378C0.616 2.759 0.541 3.17 0.541 3.613L0.541 3.633C0.541 4.074 0.617 4.488 0.772 4.872C0.925 5.257 1.135 5.591 1.4 5.876C1.664 6.16 1.977 6.385 2.338 6.548C2.699 6.713 3.09 6.794 3.511 6.794C4.019 6.794 4.462 6.701 4.836 6.513C5.211 6.327 5.575 6.055 5.93 5.701L6.281 6.042C6.093 6.222 5.901 6.388 5.703 6.538L5.703 6.535Z" fill="rgb(13,13,13)" fill-opacity="1.000" fill-rule="nonzero" transform="matrix(1 0 0 1 67.473 21.9961)"/><path d="M6.807 5.01C6.637 5.448 6.398 5.836 6.09 6.169C5.781 6.503 5.409 6.769 4.971 6.966C4.533 7.164 4.049 7.262 3.521 7.262C2.994 7.262 2.503 7.164 2.072 6.966C1.641 6.768 1.272 6.505 0.964 6.174C0.656 5.842 0.418 5.46 0.251 5.025C0.085 4.591 0 4.132 0 3.651L0 3.631C0 3.15 0.085 2.689 0.257 2.251C0.428 1.814 0.666 1.428 0.974 1.093C1.281 0.759 1.652 0.493 2.087 0.296C2.522 0.098 3.008 0 3.541 0C4.076 0 4.552 0.098 4.986 0.296C5.421 0.494 5.792 0.757 6.1 1.088C6.407 1.419 6.645 1.802 6.812 2.236C6.978 2.671 7.063 3.13 7.063 3.611C7.07 3.618 7.07 3.624 7.063 3.631C7.063 4.112 6.978 4.573 6.807 5.01ZM6.52 3.631C6.52 3.197 6.446 2.787 6.294 2.401C6.145 2.017 5.937 1.682 5.672 1.398C5.407 1.113 5.091 0.889 4.723 0.721C4.355 0.554 3.954 0.469 3.518 0.469C3.082 0.469 2.683 0.551 2.318 0.716C1.954 0.88 1.64 1.103 1.375 1.388C1.11 1.672 0.904 2.005 0.757 2.386C0.611 2.767 0.536 3.175 0.536 3.611L0.536 3.631C0.536 4.065 0.611 4.476 0.762 4.861C0.912 5.245 1.12 5.58 1.385 5.864C1.649 6.149 1.966 6.375 2.334 6.541C2.701 6.709 3.102 6.793 3.538 6.793C3.975 6.793 4.372 6.711 4.738 6.546C5.103 6.383 5.417 6.159 5.682 5.874C5.946 5.59 6.151 5.257 6.299 4.876C6.446 4.495 6.52 4.087 6.52 3.651L6.52 3.631Z" fill="rgb(13,13,13)" fill-opacity="1.000" fill-rule="nonzero" transform="matrix(1 0 0 1 74.6791 21.9944)"/><path d="M5.404 6.936C4.904 7.154 4.335 7.262 3.693 7.262C3.144 7.262 2.644 7.172 2.192 6.991C1.741 6.809 1.353 6.56 1.028 6.239C0.704 5.917 0.451 5.536 0.271 5.095C0.09 4.654 0 4.172 0 3.651L0 3.631C0 3.128 0.092 2.659 0.276 2.221C0.459 1.784 0.716 1.399 1.043 1.068C1.371 0.737 1.759 0.476 2.208 0.286C2.658 0.097 3.149 0 3.683 0C3.997 0 4.284 0.022 4.542 0.065C4.8 0.108 5.039 0.17 5.259 0.251C5.48 0.331 5.687 0.433 5.881 0.552C6.076 0.672 6.262 0.81 6.444 0.964L5.47 2.138C5.337 2.025 5.202 1.924 5.069 1.837C4.936 1.751 4.796 1.677 4.653 1.616C4.508 1.556 4.354 1.509 4.187 1.476C4.021 1.443 3.836 1.426 3.635 1.426C3.353 1.426 3.09 1.484 2.847 1.602C2.603 1.719 2.39 1.877 2.205 2.075C2.02 2.273 1.877 2.504 1.774 2.769C1.671 3.034 1.619 3.316 1.619 3.619L1.619 3.639C1.619 3.96 1.671 4.258 1.774 4.53C1.877 4.801 2.025 5.037 2.215 5.238C2.406 5.44 2.629 5.596 2.887 5.706C3.145 5.818 3.432 5.872 3.746 5.872C4.322 5.872 4.806 5.731 5.201 5.448L5.201 4.438L3.645 4.438L3.645 3.103L6.695 3.103L6.695 6.154C6.334 6.462 5.905 6.724 5.405 6.941L5.404 6.936Z" fill="rgb(13,13,13)" fill-opacity="1.000" fill-rule="nonzero" transform="matrix(1 0 0 1 47.1797 34.0371)"/><path d="M5.906 5.357C5.762 5.751 5.557 6.08 5.289 6.345C5.021 6.61 4.696 6.806 4.315 6.937C3.934 7.067 3.51 7.134 3.041 7.134C2.097 7.134 1.355 6.873 0.812 6.352C0.27 5.829 0 5.05 0 4.014L0 0L1.546 0L1.546 3.974C1.546 4.55 1.679 4.982 1.947 5.273C2.215 5.565 2.586 5.709 3.06 5.709C3.535 5.709 3.906 5.57 4.174 5.288C4.442 5.007 4.575 4.586 4.575 4.024L4.575 0L6.121 0L6.121 3.964C6.121 4.5 6.049 4.964 5.905 5.358L5.906 5.357Z" fill="rgb(13,13,13)" fill-opacity="1.000" fill-rule="nonzero" transform="matrix(1 0 0 1 55.2478 34.1552)"/><path d="M5.831 7.074L5.189 5.498L2.218 5.498L1.576 7.074L0 7.074L3.011 0L4.435 0L7.446 7.074L5.83 7.074L5.831 7.074ZM3.705 1.855L2.771 4.134L4.638 4.134L3.705 1.855Z" fill="rgb(13,13,13)" fill-opacity="1.000" fill-rule="nonzero" transform="matrix(1 0 0 1 62.3425 34.1037)"/><path d="M4.928 7.024L1.526 2.559L1.526 7.024L0 7.024L0 0L1.425 0L4.716 4.325L4.716 0L6.242 0L6.242 7.024L4.928 7.024Z" fill="rgb(13,13,13)" fill-opacity="1.000" fill-rule="nonzero" transform="matrix(1 0 0 1 70.8731 34.1535)"/><path d="M5.831 7.074L5.189 5.498L2.218 5.498L1.576 7.074L0 7.074L3.011 0L4.435 0L7.445 7.074L5.83 7.074L5.831 7.074ZM3.704 1.855L2.771 4.134L4.638 4.134L3.704 1.855Z" fill="rgb(13,13,13)" fill-opacity="1.000" fill-rule="nonzero" transform="matrix(1 0 0 1 78.1976 34.1037)"/><path d="M5.777 5.941C5.654 6.182 5.476 6.382 5.246 6.543C5.015 6.703 4.738 6.824 4.414 6.904C4.089 6.984 3.731 7.024 3.337 7.024L0 7.024L0 0L3.256 0C3.976 0 4.542 0.165 4.953 0.493C5.364 0.82 5.569 1.261 5.569 1.817L5.569 1.837C5.569 2.038 5.544 2.215 5.494 2.37C5.444 2.524 5.377 2.662 5.294 2.786C5.211 2.909 5.114 3.019 5.005 3.112C4.895 3.205 4.777 3.286 4.65 3.353C5.056 3.508 5.376 3.716 5.609 3.98C5.842 4.245 5.958 4.611 5.958 5.079L5.958 5.099C5.958 5.42 5.896 5.701 5.774 5.942L5.777 5.941ZM4.046 2.077C4.046 1.842 3.959 1.664 3.785 1.539C3.61 1.416 3.36 1.353 3.032 1.353L1.506 1.353L1.506 2.837L2.931 2.837C3.272 2.837 3.543 2.779 3.743 2.661C3.944 2.544 4.044 2.355 4.044 2.093L4.044 2.073L4.046 2.077ZM4.437 4.886C4.437 4.651 4.347 4.466 4.166 4.328C3.986 4.192 3.695 4.122 3.292 4.122L1.506 4.122L1.506 5.668L3.344 5.668C3.685 5.668 3.953 5.606 4.146 5.481C4.341 5.358 4.437 5.165 4.437 4.904L4.437 4.884L4.437 4.886Z" fill="rgb(13,13,13)" fill-opacity="1.000" fill-rule="nonzero" transform="matrix(1 0 0 1 86.7278 34.1535)"/><path d="M5.831 7.074L5.189 5.498L2.218 5.498L1.576 7.074L0 7.074L3.011 0L4.435 0L7.445 7.074L5.83 7.074L5.831 7.074ZM3.704 1.855L2.771 4.134L4.638 4.134L3.704 1.855Z" fill="rgb(13,13,13)" fill-opacity="1.000" fill-rule="nonzero" transform="matrix(1 0 0 1 93.3719 34.1037)"/><path d="M4.267 7.024L2.761 4.776L1.546 4.776L1.546 7.024L0 7.024L0 0L3.212 0C4.047 0 4.698 0.205 5.164 0.612C5.628 1.02 5.861 1.589 5.861 2.318L5.861 2.338C5.861 2.907 5.723 3.37 5.445 3.727C5.167 4.085 4.804 4.348 4.356 4.515L6.072 7.024L4.267 7.024ZM4.297 2.398C4.297 2.063 4.19 1.812 3.976 1.646C3.761 1.479 3.463 1.394 3.082 1.394L1.546 1.394L1.546 3.411L3.112 3.411C3.493 3.411 3.786 3.321 3.99 3.14C4.195 2.959 4.297 2.719 4.297 2.418L4.297 2.398Z" fill="rgb(13,13,13)" fill-opacity="1.000" fill-rule="nonzero" transform="matrix(1 0 0 1 101.9011 34.1535)"/><path d="M5.832 7.074L5.189 5.498L2.219 5.498L1.576 7.074L0 7.074L3.011 0L4.436 0L7.446 7.074L5.83 7.074L5.832 7.074ZM3.705 1.855L2.772 4.134L4.639 4.134L3.705 1.855Z" fill="rgb(13,13,13)" fill-opacity="1.000" fill-rule="nonzero" transform="matrix(1 0 0 1 108.554 34.1037)"/></svg>