<svg xmlns="http://www.w3.org/2000/svg" viewBox="0 0 130 60" width="130" height="60"><path d="M0 0L130 0L130 60L0 60L0 0Z" fill="rgb(255,255,255)" fill-opacity="1.000" fill-rule="nonzero" transform="matrix(1 0 0 1 0 0)"/><path d="M13.641 11.376C15.937 10.156 17.388 7.864 17.388 5.26C17.388 3.742 16.897 2.45 15.966 1.522C14.894 0.414 13.594 0.001 11.174 0.001L3.239 0L3.162 0.493L0.068 20.066C-0.16 21.497 0.03 24.015 3.187 24.029L3.186 24.031L8.638 24.031C13.279 24.031 16.52 20.813 16.52 16.207C16.52 13.97 15.431 12.216 13.641 11.376ZM10.809 19.71C9.948 20.302 9.382 20.474 7.284 20.474L4.039 20.474L5.11 13.569L8.534 13.569C11.845 13.569 12.291 15.025 12.291 16.449C12.291 17.876 11.751 19.064 10.809 19.71ZM8.742 9.804L5.71 9.804L6.705 3.557L10.133 3.557C12.108 3.557 12.449 3.738 12.753 4.151C13.017 4.518 13.126 4.922 13.126 5.537C13.126 8.09 11.364 9.804 8.742 9.804ZM29.089 13.701C32.533 13.042 35.21 9.731 35.21 5.919C35.21 2.102 32.818 0 28.475 0L20.955 0L20.877 0.492L17.702 20.827C17.56 21.867 16.771 24.031 20.56 24.029L20.928 24.031L21.192 24.031L21.27 23.537L22.722 14.226L24.912 14.226L29.547 23.702L29.708 24.031L34.287 24.031L33.862 23.186L29.089 13.701ZM23.287 10.67L24.422 3.557L27.64 3.557C30.612 3.557 31.157 4.353 31.157 5.919C31.157 8.761 29.213 10.67 26.32 10.67L23.287 10.67ZM48.793 11.376C51.089 10.156 52.541 7.864 52.541 5.26C52.541 3.742 52.05 2.451 51.119 1.522C50.047 0.414 48.746 0.001 46.327 0.001L38.391 0L38.314 0.493L35.227 20.024C35.023 21.442 35.154 24.015 38.341 24.029L38.341 24.031L43.791 24.031C48.432 24.031 51.673 20.813 51.673 16.207C51.673 13.97 50.584 12.216 48.793 11.376ZM45.961 19.711C45.102 20.302 44.534 20.474 42.436 20.474L39.192 20.474L40.262 13.569L43.687 13.569C46.999 13.569 47.445 15.025 47.445 16.449C47.445 17.876 46.903 19.064 45.961 19.711ZM43.895 9.804L40.863 9.804L41.858 3.557L45.285 3.557C47.261 3.557 47.601 3.738 47.907 4.151C48.17 4.518 48.279 4.922 48.279 5.537C48.279 8.09 46.517 9.804 43.895 9.804Z" fill="rgb(23,62,125)" fill-opacity="1.000" fill-rule="evenodd" transform="matrix(1 0 0 1 53.4589 23.6729)"/><path d="M0.348 0.001L0 2.223C4.944 3.224 9.354 5.708 12.736 9.194L17.823 5.865C17.823 5.865 18.41 5.47 18.682 5.799C18.682 5.799 18.949 6.056 18.437 6.605L14.261 10.924C17.202 14.584 19.11 19.102 19.546 24.035L21.925 24.035L25.696 0L0.348 0.001Z" fill="rgb(0,173,239)" fill-opacity="1.000" fill-rule="evenodd" transform="matrix(1 0 0 1 27.0277 23.6676)"/><path d="M7.966 12.198L7.733 11.917L13.171 5.825C10.243 2.938 6.502 0.871 2.323 0L0.107 14.126C-0.28 16.775 0.203 19.111 4.631 19.111L19.541 19.112C19.128 14.943 17.53 11.116 15.086 7.974L7.966 12.198Z" fill="rgb(23,62,125)" fill-opacity="1.000" fill-rule="evenodd" transform="matrix(1 0 0 1 24.2804 28.5911)"/><path d="M0 7.525L1.505 0L2.777 0L2.106 3.367L1.709 4.776L1.505 6.054L1.211 7.525L0 7.525ZM3.285 7.596C2.838 7.596 2.451 7.518 2.126 7.362C1.8 7.2 1.549 6.963 1.373 6.652C1.197 6.341 1.109 5.956 1.109 5.496C1.109 4.989 1.17 4.526 1.292 4.107C1.421 3.681 1.607 3.316 1.851 3.012C2.102 2.701 2.4 2.464 2.746 2.302C3.099 2.133 3.499 2.048 3.947 2.048C4.394 2.048 4.798 2.143 5.157 2.332C5.516 2.515 5.801 2.785 6.011 3.144C6.229 3.495 6.337 3.921 6.337 4.421C6.337 4.881 6.259 5.304 6.103 5.689C5.954 6.074 5.74 6.409 5.462 6.693C5.184 6.977 4.852 7.205 4.486 7.362C4.12 7.518 3.72 7.596 3.285 7.596ZM3.184 6.51C3.55 6.51 3.872 6.426 4.15 6.257C4.428 6.081 4.649 5.841 4.811 5.537C4.974 5.233 5.055 4.881 5.055 4.482C5.055 4.063 4.93 3.732 4.679 3.488C4.428 3.245 4.076 3.123 3.621 3.123C3.262 3.123 2.94 3.211 2.655 3.387C2.377 3.556 2.156 3.793 1.994 4.097C1.831 4.401 1.75 4.753 1.75 5.152C1.75 5.571 1.875 5.902 2.126 6.146C2.377 6.389 2.729 6.51 3.184 6.51ZM9.414 7.596C8.974 7.596 8.57 7.501 8.204 7.312C7.845 7.122 7.556 6.852 7.339 6.5C7.129 6.142 7.024 5.713 7.024 5.212C7.024 4.753 7.099 4.33 7.248 3.945C7.404 3.559 7.621 3.225 7.899 2.941C8.174 2.659 8.502 2.435 8.865 2.282C9.238 2.126 9.645 2.048 10.086 2.048C10.54 2.048 10.93 2.13 11.255 2.292C11.588 2.454 11.839 2.701 12.008 3.032C12.178 3.357 12.256 3.762 12.242 4.249C12.228 4.918 12.106 5.507 11.876 6.014C11.645 6.514 11.323 6.903 10.91 7.18C10.496 7.457 9.997 7.596 9.414 7.596ZM9.74 6.51C10.106 6.51 10.428 6.426 10.706 6.257C10.984 6.081 11.205 5.841 11.367 5.537C11.53 5.233 11.611 4.881 11.611 4.482C11.611 4.063 11.486 3.732 11.235 3.488C10.984 3.245 10.632 3.123 10.177 3.123C9.818 3.123 9.496 3.211 9.211 3.387C8.933 3.556 8.712 3.793 8.55 4.097C8.387 4.401 8.306 4.753 8.306 5.152C8.306 5.571 8.431 5.902 8.682 6.146C8.933 6.389 9.286 6.51 9.74 6.51ZM11.072 7.525L11.317 6.287L11.662 4.847L11.835 3.397L12.089 2.109L13.361 2.109L12.283 7.525L11.072 7.525ZM17.984 2.048C18.452 2.048 18.849 2.143 19.174 2.332C19.5 2.522 19.727 2.802 19.856 3.174C19.992 3.539 20.005 3.989 19.897 4.523L19.296 7.525L18.025 7.525L18.615 4.553C18.703 4.114 18.662 3.772 18.493 3.529C18.323 3.279 18.015 3.154 17.567 3.154C17.1 3.154 16.713 3.282 16.408 3.539C16.103 3.796 15.896 4.188 15.787 4.715L15.218 7.525L13.946 7.525L15.024 2.109L16.235 2.109L15.93 3.651L15.726 3.164C15.984 2.779 16.306 2.498 16.693 2.322C17.086 2.14 17.516 2.048 17.984 2.048ZM23.635 7.596C23.099 7.596 22.628 7.497 22.221 7.301C21.821 7.099 21.513 6.821 21.296 6.47C21.079 6.112 20.97 5.693 20.97 5.212C20.97 4.604 21.109 4.063 21.387 3.59C21.665 3.11 22.048 2.735 22.537 2.464C23.025 2.187 23.588 2.048 24.225 2.048C24.774 2.048 25.246 2.157 25.639 2.373C26.039 2.583 26.348 2.897 26.565 3.316L25.476 3.874C25.354 3.617 25.178 3.428 24.947 3.306C24.724 3.184 24.449 3.123 24.123 3.123C23.771 3.123 23.452 3.211 23.167 3.387C22.883 3.556 22.659 3.793 22.496 4.097C22.333 4.401 22.252 4.753 22.252 5.152C22.252 5.571 22.377 5.902 22.628 6.146C22.879 6.389 23.235 6.511 23.696 6.511C23.995 6.511 24.273 6.45 24.53 6.328C24.788 6.206 25.005 6.017 25.181 5.76L26.117 6.389C25.866 6.767 25.52 7.065 25.079 7.281C24.639 7.491 24.157 7.596 23.635 7.596ZM29.435 7.596C28.907 7.596 28.442 7.497 28.042 7.301C27.649 7.099 27.343 6.821 27.127 6.47C26.91 6.112 26.801 5.693 26.801 5.212C26.801 4.604 26.94 4.063 27.218 3.59C27.496 3.11 27.876 2.735 28.357 2.464C28.845 2.187 29.401 2.048 30.025 2.048C30.561 2.048 31.026 2.146 31.419 2.343C31.819 2.532 32.128 2.806 32.344 3.164C32.561 3.515 32.67 3.935 32.67 4.421C32.67 5.023 32.531 5.564 32.253 6.044C31.975 6.524 31.592 6.903 31.104 7.18C30.622 7.457 30.066 7.596 29.435 7.596ZM29.517 6.51C29.883 6.51 30.205 6.426 30.483 6.257C30.761 6.081 30.981 5.841 31.144 5.537C31.307 5.233 31.388 4.881 31.388 4.482C31.388 4.063 31.263 3.732 31.012 3.488C30.761 3.245 30.408 3.123 29.954 3.123C29.595 3.123 29.273 3.211 28.988 3.387C28.71 3.556 28.49 3.793 28.327 4.097C28.164 4.401 28.083 4.753 28.083 5.152C28.083 5.577 28.208 5.912 28.459 6.155C28.71 6.392 29.063 6.51 29.517 6.51Z" fill="rgb(23,62,125)" fill-opacity="1.000" fill-rule="nonzero" transform="matrix(1 0 0 1 27.3086 12.2959)"/></svg>