<svg xmlns="http://www.w3.org/2000/svg" viewBox="0 0 60 60" width="60" height="60"><path d="M0 0L60 0L60 60L0 60L0 0Z" fill="rgb(255,255,255)" fill-opacity="1.000" fill-rule="nonzero" transform="matrix(1 0 0 1 0 0)"/><path d="M30.9 0L28.224 0C28.005 0 27.84 0.073 27.748 0.22L17.283 13.434C17.1 13.654 16.825 13.746 16.568 13.654C16.293 13.562 16.11 13.287 16.11 12.994L16.11 0.861C16.11 0.623 16.037 0.403 15.872 0.238C15.725 0.073 15.542 0 15.358 0L12.664 0C12.444 0 12.279 0.073 12.188 0.22L0.367 14.845C0.183 15.084 0.073 15.395 0.055 15.707L0 20.325C0 20.6 0.11 20.82 0.312 20.893C0.477 20.948 0.641 20.912 0.77 20.747L11.18 7.643C11.363 7.423 11.638 7.331 11.895 7.423C12.17 7.514 12.353 7.789 12.353 8.082L12.353 20.142C12.353 20.362 12.408 20.582 12.518 20.728C12.664 20.93 12.848 21.04 13.068 21.04L15.762 21.04C16.037 21.04 16.147 20.93 16.293 20.765L26.74 7.606C26.905 7.386 27.198 7.294 27.455 7.386C27.73 7.478 27.913 7.753 27.913 8.046L27.913 20.105C27.913 20.38 28.005 20.637 28.151 20.802C28.298 20.948 28.463 21.022 28.664 21.022L30.845 21.022C31.029 21.022 31.212 20.948 31.34 20.838C31.542 20.673 31.633 20.435 31.633 20.142L31.633 0.861C31.633 0.623 31.56 0.403 31.395 0.238C31.285 0.073 31.102 0 30.9 0Z" fill="rgb(21,38,255)" fill-opacity="1.000" fill-rule="nonzero" transform="matrix(1 0 0 1 7.0738 19.96)"/><path d="M11.216 3.959C11.546 3.959 11.785 4.252 11.785 4.637L11.785 5.975C11.785 6.323 11.546 6.635 11.216 6.635L7.386 6.635C7.239 6.635 7.166 6.708 7.184 6.873L7.184 9.952C7.184 10.337 6.946 10.63 6.616 10.63L5.168 10.63C4.838 10.63 4.6 10.337 4.6 9.952L4.6 6.873C4.6 6.708 4.527 6.635 4.399 6.635L0.568 6.635C0.238 6.635 0 6.323 0 5.975L0 4.637C0 4.252 0.238 3.959 0.568 3.959L4.399 3.959C4.545 3.959 4.619 3.867 4.6 3.72L4.6 0.66C4.6 0.275 4.838 0 5.168 0L6.616 0C6.946 0 7.184 0.275 7.184 0.66L7.184 3.72C7.184 3.885 7.258 3.959 7.386 3.959L11.216 3.959Z" fill="rgb(21,38,255)" fill-opacity="1.000" fill-rule="nonzero" transform="matrix(1 0 0 1 40.7418 25.165)"/></svg>