<svg xmlns="http://www.w3.org/2000/svg" viewBox="0 0 130 60" width="130" height="60"><path d="M0 0L130 0L130 60L0 60L0 0Z" fill="rgb(255,255,255)" fill-opacity="1.000" fill-rule="nonzero" transform="matrix(1 0 0 1 0 0)"/><path d="M27.275 12.033C27.821 12.033 28.263 12.471 28.263 13.011L28.263 23.518C28.263 23.867 28.075 24.189 27.769 24.364L14.624 31.869C14.471 31.957 14.3 32 14.13 32C13.959 32 13.789 31.957 13.636 31.87L0.495 24.381C0.189 24.207 0 23.884 0 23.535L0 13.033C0 12.493 0.443 12.055 0.989 12.055C1.534 12.055 1.977 12.493 1.977 13.033L1.977 22.97L14.129 29.894L26.286 22.953L26.286 13.011C26.286 12.471 26.729 12.033 27.275 12.033ZM50.377 8.988C52.254 8.988 53.781 10.498 53.781 12.355L53.781 14.486C53.781 16.064 52.676 17.803 51.191 18.166L53.639 22.809C53.947 23.366 53.738 24.065 53.176 24.372C52.504 24.738 51.829 24.37 51.596 23.914L48.593 18.267L46.22 18.267L46.22 23.304C46.22 23.939 45.698 24.455 45.056 24.455C44.414 24.455 43.892 23.939 43.892 23.304L43.892 12.355C43.892 10.498 45.419 8.988 47.296 8.988L50.377 8.988ZM73.022 8.999C73.663 8.999 74.186 9.516 74.186 10.151L74.186 23.315C74.186 23.95 73.663 24.466 73.022 24.466C72.38 24.466 71.857 23.95 71.857 23.315L71.857 10.151C71.857 9.516 72.38 8.999 73.022 8.999ZM77.305 8.999C77.72 8.999 78.107 9.221 78.315 9.577L83.702 19.672L83.702 10.151C83.702 9.516 84.225 8.999 84.867 8.999C85.508 8.999 86.031 9.516 86.031 10.151L86.031 23.315C86.031 23.836 85.677 24.298 85.167 24.427C84.887 24.498 84.226 24.525 83.857 23.889L78.47 14.256L78.47 23.315C78.47 23.95 77.947 24.466 77.305 24.466C76.663 24.466 76.141 23.95 76.141 23.315L76.141 10.151C76.141 9.003 77.204 8.999 77.305 8.999ZM100.923 8.999C101.564 8.999 102.087 9.516 102.087 10.151L102.087 22.163L106.836 22.163C107.478 22.163 108 22.68 108 23.315C108 23.95 107.478 24.466 106.836 24.466L100.923 24.466C100.281 24.466 99.758 23.95 99.758 23.315L99.758 10.151C99.758 9.516 100.281 8.999 100.923 8.999ZM38.534 8.988C40.411 8.988 41.939 10.498 41.939 12.355L41.939 21.088C41.939 22.944 40.411 24.455 38.534 24.455L35.454 24.455C33.576 24.455 32.049 22.944 32.049 21.088L32.049 12.355C32.049 10.498 33.576 8.988 35.454 8.988L38.534 8.988ZM56.898 8.988C57.54 8.988 58.063 9.504 58.063 10.139L58.063 23.304C58.063 23.938 57.54 24.455 56.898 24.455C56.257 24.455 55.734 23.938 55.734 23.304L55.734 10.139C55.734 9.504 56.257 8.988 56.898 8.988ZM66.5 8.988C68.378 8.988 69.905 10.498 69.905 12.355C69.905 12.99 69.383 13.506 68.741 13.506C68.099 13.506 67.577 12.99 67.577 12.355C67.577 11.768 67.094 11.291 66.5 11.291L63.42 11.291C62.827 11.291 62.344 11.768 62.344 12.355L62.344 21.088C62.344 21.675 62.827 22.152 63.42 22.152L66.5 22.152C67.094 22.152 67.577 21.675 67.577 21.088L67.577 18.253L64.96 18.253C64.318 18.253 63.796 17.737 63.796 17.102C63.796 16.467 64.318 15.951 64.96 15.951L68.741 15.951C69.052 15.951 69.344 16.07 69.564 16.288C69.784 16.505 69.905 16.794 69.905 17.102L69.905 21.088C69.905 22.944 68.378 24.455 66.5 24.455L63.42 24.455C61.543 24.455 60.015 22.944 60.015 21.088L60.015 12.355C60.015 10.498 61.543 8.988 63.42 8.988L66.5 8.988ZM94.435 8.999C96.306 8.998 97.827 10.451 97.828 12.642L97.828 23.27C97.828 23.952 97.306 24.447 96.664 24.447C96.022 24.447 95.5 23.93 95.5 23.295L95.5 18.264L90.307 18.264L90.307 23.295C90.307 23.93 89.785 24.447 89.143 24.447C88.501 24.447 87.979 23.93 87.979 23.295L87.979 12.355C87.979 10.504 89.501 8.999 91.372 8.999L94.435 8.999ZM38.534 11.29L35.454 11.29C34.86 11.29 34.377 11.768 34.377 12.355L34.377 21.088C34.377 21.675 34.86 22.152 35.454 22.152L38.534 22.152C39.127 22.152 39.61 21.675 39.61 21.088L39.61 12.355C39.61 11.768 39.127 11.29 38.534 11.29ZM13.638 0.131C13.944 -0.044 14.322 -0.044 14.628 0.131L27.769 7.634C28.075 7.808 28.263 8.131 28.263 8.48C28.263 8.829 28.075 9.152 27.769 9.327L14.624 16.832C14.471 16.919 14.3 16.963 14.13 16.963C13.959 16.963 13.789 16.919 13.636 16.832L0.495 9.344C0.189 9.17 0.001 8.847 0 8.498C0 8.149 0.188 7.826 0.494 7.651L13.638 0.131ZM50.377 11.291L47.296 11.291C46.703 11.291 46.22 11.768 46.22 12.355L46.22 15.964L50.377 15.964C50.97 15.964 51.453 15.073 51.453 14.486L51.453 12.355C51.453 11.768 50.97 11.291 50.377 11.291ZM94.435 11.302L91.372 11.302C90.785 11.302 90.307 11.774 90.307 12.355L90.307 15.962L95.5 15.962L95.5 12.355C95.5 11.774 95.022 11.302 94.435 11.302ZM14.134 2.106L2.965 8.496L14.129 14.857L25.298 8.48L14.134 2.106ZM45.724 2.337C46.612 2.337 47.333 3.026 47.334 4.066L47.334 6.401C47.334 6.725 47.086 6.96 46.782 6.96C46.477 6.96 46.229 6.715 46.229 6.414L46.229 3.93C46.229 3.654 46.002 3.43 45.724 3.43L44.27 3.43C43.991 3.43 43.765 3.654 43.765 3.93L43.765 6.414C43.765 6.715 43.517 6.96 43.212 6.96C42.908 6.96 42.66 6.715 42.66 6.414L42.66 3.93C42.66 3.052 43.382 2.337 44.27 2.337L45.724 2.337ZM40.394 2.337C41.282 2.337 42.004 3.051 42.004 3.929L42.004 5.367C42.005 6.245 41.308 6.959 40.256 6.96L38.89 6.96C38.828 6.96 38.77 6.948 38.716 6.932C37.98 6.798 37.418 6.167 37.4 5.405C37.42 4.545 38.111 3.853 39.146 3.852L40.891 3.852C40.854 3.614 40.646 3.43 40.394 3.43L38.117 3.43C37.812 3.43 37.564 3.185 37.564 2.883C37.564 2.582 37.812 2.337 38.117 2.337L40.394 2.337ZM51.869 2.337C52.197 2.337 52.434 2.582 52.434 2.884C52.434 3.185 52.186 3.43 51.882 3.43L49.604 3.43C49.326 3.43 49.099 3.654 49.099 3.93L49.099 5.368C49.099 5.643 49.326 5.867 49.604 5.867L51.882 5.867C52.186 5.867 52.434 6.112 52.434 6.414C52.434 6.715 52.186 6.96 51.882 6.96L49.604 6.96C48.716 6.96 47.994 6.246 47.994 5.368L47.994 3.93C47.993 3.052 48.691 2.338 49.742 2.337L51.869 2.337ZM56.182 2.337C57.07 2.337 57.792 3.051 57.792 3.93L57.792 5.367C57.793 6.246 57.095 6.959 56.044 6.96L54.724 6.96C53.836 6.96 53.114 6.246 53.114 5.368L53.114 3.93C53.113 3.052 53.811 2.338 54.862 2.337L56.182 2.337ZM34.602 0.04C35.441 0.04 36.123 0.715 36.123 1.544L36.123 2.157C36.123 3.071 35.565 3.128 35.565 3.128C35.565 3.128 36.89 3.266 36.89 4.499L36.89 5.452C36.89 6.281 36.207 6.956 35.368 6.956L33.57 6.956C32.324 6.956 32.049 6.614 32.049 5.452L32.049 1.412C32.059 0.342 32.202 0.04 33.336 0.04L34.602 0.04ZM35.368 3.813L34.672 3.813L34.531 3.821L33.089 3.821L33.089 5.452C33.089 5.828 33.178 5.928 33.57 5.928L35.368 5.928C35.634 5.928 35.85 5.714 35.85 5.452L35.85 4.474C35.85 4.212 35.634 3.813 35.368 3.813L35.368 3.813ZM56.182 3.43L54.724 3.43C54.446 3.43 54.219 3.654 54.219 3.93L54.219 5.368C54.219 5.643 54.446 5.867 54.724 5.867L54.936 5.867L54.937 5.867L56.182 5.867C56.461 5.867 56.687 5.643 56.687 5.367L56.687 3.93C56.687 3.654 56.461 3.43 56.182 3.43L56.182 3.43ZM40.899 4.945L39.008 4.945C38.743 4.945 38.527 5.149 38.507 5.406C38.527 5.663 38.743 5.867 39.008 5.867L40.394 5.867C40.673 5.867 40.899 5.643 40.899 5.367L40.899 4.945ZM34.602 1.069L33.336 1.069C32.952 1.069 33.089 1.162 33.089 1.544L33.089 2.81L34.076 2.81L34.282 2.818L34.602 2.818C34.867 2.818 35.083 2.419 35.083 2.157L35.083 1.545C35.083 1.282 34.867 1.069 34.602 1.069L34.602 1.069Z" fill="rgb(0,168,87)" fill-opacity="1.000" fill-rule="evenodd" transform="matrix(1 0 0 1 11 14)"/></svg>