<svg xmlns="http://www.w3.org/2000/svg" viewBox="0 0 60 60" width="60" height="60"><path d="M0 0L60 0L60 60L0 60L0 0Z" fill="rgb(8,42,77)" fill-opacity="1.000" fill-rule="nonzero" transform="matrix(1 0 0 1 0 0)"/><path d="M1.745 0L0.162 0C0.072 0 0 0.072 0 0.162L0 9.057C0 9.147 0.072 9.218 0.162 9.218L1.745 9.218C1.835 9.218 1.907 9.147 1.907 9.057L1.907 0.162C1.907 0.072 1.835 0 1.745 0Z" fill="rgb(255,255,255)" fill-opacity="1.000" fill-rule="nonzero" transform="matrix(1 0 0 1 16.9372 27.5009)"/><path d="M3.358 6.146L5.337 1.959L7.369 6.146L3.358 6.146ZM10.769 9.057L6.398 0.144C6.362 0.054 6.272 0 6.182 0L4.473 0C4.383 0 4.293 0.054 4.257 0.144L0.011 9.057C-0.025 9.129 0.029 9.236 0.119 9.236L1.774 9.236C1.864 9.236 1.954 9.183 1.99 9.093L2.656 7.673L8.125 7.673L8.809 9.093C8.845 9.183 8.935 9.236 9.024 9.236L10.662 9.236C10.752 9.236 10.806 9.147 10.769 9.057Z" fill="rgb(255,255,255)" fill-opacity="1.000" fill-rule="nonzero" transform="matrix(1 0 0 1 43.0481 27.4829)"/><path d="M6.836 3.953C6.746 4.169 6.603 4.349 6.423 4.492C6.243 4.636 6.009 4.762 5.739 4.834C5.469 4.924 5.163 4.96 4.803 4.96L1.889 4.96L1.889 1.617L4.803 1.617C5.523 1.617 6.063 1.761 6.423 2.031C6.782 2.318 6.962 2.713 6.962 3.217C6.98 3.504 6.926 3.738 6.836 3.953ZM7.952 0.863C7.61 0.575 7.16 0.377 6.638 0.216C6.117 0.072 5.487 0 4.767 0L0.162 0C0.072 0 0 0.072 0 0.162L0 9.057C0 9.147 0.072 9.218 0.162 9.218L1.727 9.218C1.817 9.218 1.889 9.147 1.889 9.057L1.889 6.595L4.767 6.595L4.821 6.595L6.513 9.111C6.567 9.183 6.638 9.218 6.71 9.218L8.671 9.218C8.761 9.218 8.833 9.111 8.78 9.021L6.872 6.253C7.232 6.128 7.538 5.948 7.808 5.75C8.078 5.553 8.294 5.319 8.455 5.049C8.636 4.798 8.761 4.51 8.833 4.205C8.923 3.899 8.959 3.576 8.959 3.235C8.959 2.731 8.869 2.264 8.708 1.869C8.564 1.474 8.294 1.132 7.952 0.863Z" fill="rgb(255,255,255)" fill-opacity="1.000" fill-rule="nonzero" transform="matrix(1 0 0 1 32.823 27.5009)"/><path d="M6.944 7.278C6.674 7.493 6.297 7.601 5.775 7.601L1.907 7.601L1.907 5.121L5.775 5.121C6.279 5.121 6.674 5.229 6.944 5.445C7.214 5.66 7.34 5.966 7.34 6.361C7.34 6.757 7.214 7.062 6.944 7.278ZM1.907 1.653L5.055 1.653C5.559 1.653 5.955 1.743 6.225 1.923C6.495 2.102 6.621 2.372 6.621 2.695C6.621 2.695 6.621 2.695 6.621 2.713C6.621 3.181 6.207 3.558 5.739 3.558L1.907 3.558L1.907 1.653ZM8.06 4.079C8.438 3.63 8.617 3.127 8.617 2.534C8.617 2.174 8.545 1.851 8.402 1.527C8.258 1.222 8.042 0.952 7.736 0.719C7.43 0.503 7.052 0.323 6.603 0.198C6.153 0.072 5.613 0 5.001 0L0.162 0C0.072 0 0 0.072 0 0.162L0 9.057C0 9.147 0.072 9.219 0.162 9.219L5.721 9.219C6.333 9.219 6.872 9.147 7.322 9.021C7.772 8.895 8.15 8.697 8.456 8.446C8.761 8.194 8.977 7.907 9.121 7.565C9.265 7.224 9.337 6.829 9.337 6.397C9.337 5.894 9.229 5.427 9.013 5.032C8.815 4.654 8.492 4.331 8.06 4.079Z" fill="rgb(255,255,255)" fill-opacity="1.000" fill-rule="nonzero" transform="matrix(1 0 0 1 21.3628 27.4829)"/><path d="M1.601 1.617C1.601 1.42 1.457 1.33 1.169 1.33L0.54 1.33L0.54 1.905L1.169 1.905C1.439 1.887 1.601 1.815 1.601 1.617ZM0.54 0.395L0.54 0.934L1.079 0.934C1.349 0.934 1.493 0.845 1.493 0.665C1.493 0.485 1.349 0.395 1.079 0.395L0.54 0.395ZM2.141 1.671C2.141 2.067 1.817 2.3 1.205 2.3L0 2.3L0 0L1.133 0C1.709 0 2.015 0.234 2.015 0.593C2.015 0.827 1.889 1.006 1.709 1.096C1.961 1.186 2.141 1.384 2.141 1.671Z" fill="rgb(255,255,255)" fill-opacity="1.000" fill-rule="nonzero" transform="matrix(1 0 0 1 6.8086 22.9725)"/><path d="M1.673 1.402L1.295 0.521L0.936 1.402L1.673 1.402ZM1.835 1.797L0.756 1.797L0.558 2.3L0 2.3L1.043 0L1.583 0L2.609 2.3L2.051 2.3L1.835 1.797Z" fill="rgb(255,255,255)" fill-opacity="1.000" fill-rule="nonzero" transform="matrix(1 0 0 1 9.579 22.9725)"/><path d="M2.141 0L2.141 2.3L1.691 2.3L0.522 0.898L0.522 2.3L0 2.3L0 0L0.45 0L1.601 1.402L1.601 0L2.141 0Z" fill="rgb(255,255,255)" fill-opacity="1.000" fill-rule="nonzero" transform="matrix(1 0 0 1 12.9973 22.9725)"/><path d="M0 1.186C0 0.503 0.54 0 1.259 0C1.655 0 1.997 0.144 2.213 0.413L1.871 0.719C1.709 0.539 1.511 0.449 1.277 0.449C0.846 0.449 0.54 0.755 0.54 1.186C0.54 1.617 0.846 1.923 1.277 1.923C1.511 1.923 1.709 1.833 1.871 1.653L2.213 1.959C1.997 2.228 1.655 2.372 1.259 2.372C0.54 2.372 0 1.869 0 1.186Z" fill="rgb(255,255,255)" fill-opacity="1.000" fill-rule="nonzero" transform="matrix(1 0 0 1 16.0918 22.9365)"/><path d="M1.997 1.186C1.997 0.755 1.691 0.449 1.277 0.449C0.864 0.449 0.558 0.755 0.558 1.186C0.558 1.617 0.864 1.923 1.277 1.923C1.691 1.923 1.997 1.617 1.997 1.186ZM0 1.186C0 0.503 0.54 0 1.277 0C2.015 0 2.555 0.503 2.555 1.186C2.555 1.869 2.015 2.372 1.277 2.372C0.54 2.372 0 1.869 0 1.186Z" fill="rgb(255,255,255)" fill-opacity="1.000" fill-rule="nonzero" transform="matrix(1 0 0 1 19.024 22.9365)"/><path d="M8.15 0L0.162 0C0.072 0 0 0.072 0 0.162L0 1.779C0 1.869 0.072 1.941 0.162 1.941L7.268 1.941C7.358 1.941 7.448 1.887 7.484 1.797L8.258 0.18C8.294 0.09 8.24 0 8.15 0Z" fill="rgb(255,255,255)" fill-opacity="1.000" fill-rule="nonzero" transform="matrix(1 0 0 1 6.8086 27.5009)"/><path d="M4.588 0.144C4.552 0.054 4.462 0 4.372 0L1.907 0L0 0L0 0.162L0 1.779L0 3.594L0 4.295L0 5.211C0 5.301 0.072 5.373 0.162 5.373L1.745 5.373C1.835 5.373 1.907 5.301 1.907 5.211L1.907 4.295L1.907 3.594L1.907 1.941L5.253 1.941C5.343 1.941 5.397 1.851 5.361 1.761L4.588 0.144Z" fill="rgb(255,255,255)" fill-opacity="1.000" fill-rule="nonzero" transform="matrix(1 0 0 1 6.8086 31.3644)"/></svg>