<svg xmlns="http://www.w3.org/2000/svg" viewBox="0 0 130 60" width="130" height="60"><path d="M0 0L130 0L130 60L0 60L0 0Z" fill="rgb(255,255,255)" fill-opacity="1.000" fill-rule="nonzero" transform="matrix(1 0 0 1 0 0)"/><path d="M0 0L0 11.313L6.655 18.071L10.031 11.313L13.358 11.313L13.358 0L0 0Z" fill="rgb(0,146,134)" fill-opacity="1.000" fill-rule="nonzero" transform="matrix(1 0 0 1 10 24)"/><path d="M0 13.566L6.703 6.807L0 0L0 13.566Z" fill="rgb(243,192,0)" fill-opacity="1.000" fill-rule="nonzero" transform="matrix(1 0 0 1 16.655 28.5056)"/><path d="M1.543 7.836L1.977 6.122L4.196 6.122L4.63 7.836L6.317 7.836L4.244 0L2.122 0L0 7.836L1.543 7.836ZM3.81 4.897L2.267 4.897L2.99 1.518L3.81 4.897Z" fill="rgb(147,147,147)" fill-opacity="1.000" fill-rule="nonzero" transform="matrix(1 0 0 1 28.0359 25.0774)"/><path d="M1.64 4.359L2.604 4.359C3.424 4.359 3.665 4.799 3.665 5.485C3.665 6.563 2.893 6.611 2.556 6.611L1.64 6.611L1.64 4.359ZM1.64 1.175L2.652 1.175C3.183 1.175 3.569 1.616 3.569 2.155C3.569 2.938 3.086 3.134 2.701 3.134L1.64 3.134L1.64 1.175ZM2.893 7.787C3.569 7.787 5.256 7.689 5.256 5.73C5.256 4.653 4.967 3.918 3.81 3.722C4.678 3.526 5.112 2.889 5.112 2.008C5.112 0.343 4.099 0 2.845 0L0 0L0 7.836L2.893 7.836L2.893 7.787Z" fill="rgb(147,147,147)" fill-opacity="1.000" fill-rule="nonzero" transform="matrix(1 0 0 1 35.7036 25.1264)"/><path d="M1.495 7.836L1.495 2.106L1.543 2.106L3.617 7.836L5.787 7.836L5.787 0L4.244 0L4.244 5.436L2.17 0L0 0L0 7.836L1.495 7.836Z" fill="rgb(147,147,147)" fill-opacity="1.000" fill-rule="nonzero" transform="matrix(1 0 0 1 42.8409 25.0774)"/><path d="M1.013 2.106L2.074 1.028L1.013 0L0 1.028L1.013 2.106Z" fill="rgb(147,147,147)" fill-opacity="1.000" fill-rule="nonzero" transform="matrix(1 0 0 1 50.1228 27.3792)"/><path d="M1.543 7.836L1.977 6.122L4.196 6.122L4.63 7.836L6.317 7.836L4.244 0L2.122 0L0 7.836L1.543 7.836ZM3.858 4.897L2.315 4.897L3.038 1.518L3.858 4.897Z" fill="rgb(147,147,147)" fill-opacity="1.000" fill-rule="nonzero" transform="matrix(1 0 0 1 52.7269 25.0774)"/><path d="M1.543 7.836L1.543 1.812L1.591 1.812L2.99 7.836L4.533 7.836L6.028 1.812L6.028 7.836L7.619 7.836L7.619 0L5.112 0L3.81 5.338L2.604 0L0 0L0 7.836L1.543 7.836Z" fill="rgb(147,147,147)" fill-opacity="1.000" fill-rule="nonzero" transform="matrix(1 0 0 1 60.3946 25.0774)"/><path d="M1.543 1.175L2.267 1.175C2.797 1.175 3.086 1.469 3.086 2.204C3.086 2.694 2.893 3.379 2.267 3.379L1.543 3.379L1.543 1.175ZM1.543 4.555L1.977 4.555C3.231 4.555 3.135 5.338 3.135 6.269C3.135 6.758 3.086 7.297 3.327 7.787L4.919 7.787C4.774 7.444 4.726 5.975 4.726 5.485C4.726 4.065 3.665 3.967 3.327 3.967C4.388 3.771 4.774 3.036 4.774 2.057C4.774 0.735 4.051 0 2.99 0L0 0L0 7.836L1.591 7.836L1.543 4.555Z" fill="rgb(147,147,147)" fill-opacity="1.000" fill-rule="nonzero" transform="matrix(1 0 0 1 70.1841 25.1264)"/><path d="M2.652 6.954C1.736 6.954 1.64 6.073 1.64 4.065C1.64 2.057 1.736 1.175 2.652 1.175C3.569 1.175 3.665 2.057 3.665 4.065C3.665 6.073 3.569 6.954 2.652 6.954ZM2.652 8.13C5.305 8.13 5.305 6.122 5.305 4.065C5.305 2.008 5.305 0 2.652 0C0 0 0 1.959 0 4.065C0 6.122 0 8.13 2.652 8.13Z" fill="rgb(147,147,147)" fill-opacity="1.000" fill-rule="nonzero" transform="matrix(1 0 0 1 76.6462 24.9305)"/><path d="M3.52 2.302C3.52 1.861 3.52 1.42 3.279 1.175C3.086 0.931 2.604 0.833 2.411 0.833C1.591 0.833 1.302 1.322 1.254 1.42C1.206 1.518 1.013 1.714 1.013 3.036L1.013 5.093C1.013 7.003 1.64 7.248 2.363 7.248C2.652 7.248 3.569 7.15 3.569 5.632L4.581 5.632C4.63 8.081 2.893 8.081 2.411 8.081C1.447 8.081 0 8.032 0 4.995L0 2.84C0 0.637 0.964 0 2.459 0C3.954 0 4.581 0.784 4.485 2.302L3.52 2.302Z" fill="rgb(147,147,147)" fill-opacity="1.000" fill-rule="nonzero" transform="matrix(1 0 0 1 86.1947 24.9795)"/><path d="M0.868 7.738L0 7.738L0 0L0.868 0L0.868 7.738Z" fill="rgb(147,147,147)" fill-opacity="1.000" fill-rule="nonzero" transform="matrix(1 0 0 1 92.1263 25.1754)"/><path d="M0.964 3.085C0.964 4.604 1.35 4.897 2.025 4.897C2.604 4.897 2.942 4.408 2.942 3.869L3.906 3.869C3.906 5.093 3.183 5.632 2.025 5.632C0.868 5.632 0 5.289 0 2.889C0 1.273 0.193 0 2.025 0C3.569 0 3.954 0.833 3.954 2.645L3.954 3.085C4.003 3.085 0.964 3.085 0.964 3.085ZM3.086 2.4C3.086 0.833 2.652 0.637 2.025 0.637C1.495 0.637 1.013 0.931 1.013 2.4L3.086 2.4Z" fill="rgb(147,147,147)" fill-opacity="1.000" fill-rule="nonzero" transform="matrix(1 0 0 1 94.5857 27.4282)"/><path d="M2.797 4.702C2.508 5.338 2.122 5.583 1.447 5.583C0.289 5.583 0 4.848 0 3.82C0 2.155 1.591 2.106 2.797 2.155C2.797 1.42 2.845 0.637 1.881 0.637C1.302 0.637 1.013 1.028 1.061 1.616L0.096 1.616C0.145 0.392 0.772 0 1.929 0C3.327 0 3.665 0.735 3.665 1.616L3.665 4.212C3.665 4.653 3.713 5.093 3.762 5.485L2.797 5.485L2.797 4.702ZM0.868 3.869C0.868 4.408 1.109 4.848 1.688 4.848C2.218 4.848 2.893 4.506 2.797 2.743C1.977 2.792 0.868 2.743 0.868 3.869Z" fill="rgb(147,147,147)" fill-opacity="1.000" fill-rule="nonzero" transform="matrix(1 0 0 1 99.7457 27.4282)"/><path d="M0.868 0.931C1.254 0.098 1.688 0 2.556 0L2.556 0.931C2.459 0.931 2.411 0.931 2.315 0.882C2.218 0.882 2.17 0.882 2.074 0.882C1.109 0.882 0.868 1.616 0.868 2.351L0.868 5.534L0 5.534L0 0.098L0.868 0.098L0.868 0.931Z" fill="rgb(147,147,147)" fill-opacity="1.000" fill-rule="nonzero" transform="matrix(1 0 0 1 105.1469 27.3792)"/><path d="M0 0L0.964 0L0.964 0.931L0 0.931L0 0ZM0.916 7.738L0.048 7.738L0.048 2.302L0.916 2.302L0.916 7.738Z" fill="rgb(147,147,147)" fill-opacity="1.000" fill-rule="nonzero" transform="matrix(1 0 0 1 108.5708 25.1754)"/><path d="M2.99 5.534L2.99 1.763C2.99 1.175 2.797 0.686 2.025 0.686C1.061 0.686 0.916 1.567 0.916 2.302L0.916 5.534L0.048 5.534L0.048 1.224C0.048 0.833 0.048 0.49 0 0.098L0.916 0.098L0.916 0.784L0.964 0.784C1.302 0.147 1.688 0 2.411 0C3.569 0 3.858 0.686 3.858 1.763L3.858 5.534L2.99 5.534Z" fill="rgb(147,147,147)" fill-opacity="1.000" fill-rule="nonzero" transform="matrix(1 0 0 1 110.8856 27.3792)"/><path d="M2.99 0.098L3.858 0.098L3.858 6.073C3.858 7.297 3.086 7.591 1.881 7.591C1.013 7.591 0.193 7.15 0.241 6.122L1.206 6.122C1.206 6.611 1.543 6.905 2.025 6.905C2.652 6.905 2.942 6.514 2.942 5.975L2.942 4.848L2.893 4.848C2.652 5.289 2.17 5.534 1.736 5.534C0.289 5.534 0 4.261 0 2.645C0 0.147 1.254 0 1.688 0C2.267 0 2.701 0.245 2.942 0.784L2.99 0.098ZM1.929 0.735C0.964 0.735 0.916 1.959 0.916 2.645C0.916 4.408 1.302 4.799 1.977 4.799C3.038 4.799 2.99 3.526 2.99 2.792C2.99 2.008 3.038 0.735 1.929 0.735Z" fill="rgb(147,147,147)" fill-opacity="1.000" fill-rule="nonzero" transform="matrix(1 0 0 1 116.142 27.3792)"/></svg>