<svg xmlns="http://www.w3.org/2000/svg" viewBox="0 0 130 60" width="130" height="60"><path d="M0 0L130 0L130 60L0 60L0 0Z" fill="rgb(255,255,255)" fill-opacity="1.000" fill-rule="nonzero" transform="matrix(1 0 0 1 0 0)"/><path d="M0 11.007L1.341 9.41C2.545 10.455 3.768 11.047 5.326 11.047C6.707 11.047 7.575 10.416 7.575 9.449L7.575 9.41C7.575 8.502 7.062 8.009 4.715 7.476C2.032 6.825 0.493 6.036 0.493 3.709L0.493 3.669C0.493 1.499 2.308 0 4.813 0C6.668 0 8.127 0.552 9.41 1.598L8.206 3.275C7.062 2.426 5.938 1.973 4.774 1.973C3.472 1.973 2.722 2.643 2.722 3.472L2.722 3.511C2.722 4.478 3.294 4.912 5.721 5.504C8.404 6.155 9.784 7.121 9.784 9.212L9.784 9.252C9.784 11.619 7.93 13.02 5.267 13.02C3.334 13.02 1.519 12.369 0 11.007Z" fill="rgb(24,59,104)" fill-opacity="1.000" fill-rule="nonzero" transform="matrix(1 0 0 1 42.6629 27.5436)"/><path d="M0 0L9.39 0L9.39 1.992L2.229 1.992L2.229 5.287L8.581 5.287L8.581 7.259L2.229 7.259L2.229 10.672L9.469 10.672L9.469 12.645L0 12.645L0 0Z" fill="rgb(24,59,104)" fill-opacity="1.000" fill-rule="nonzero" transform="matrix(1 0 0 1 54.3408 27.7409)"/><path d="M0 0L2.367 0L6.234 5.977L10.08 0L12.447 0L12.447 12.645L10.218 12.645L10.218 3.571L6.234 9.548L6.155 9.548L2.19 3.61L2.19 12.645L0 12.645L0 0Z" fill="rgb(24,59,104)" fill-opacity="1.000" fill-rule="nonzero" transform="matrix(1 0 0 1 65.3087 27.7409)"/><path d="M0 0L9.39 0L9.39 1.992L2.229 1.992L2.229 5.287L8.561 5.287L8.561 7.259L2.229 7.259L2.229 10.672L9.469 10.672L9.469 12.645L0 12.645L0 0Z" fill="rgb(24,59,104)" fill-opacity="1.000" fill-rule="nonzero" transform="matrix(1 0 0 1 80.2813 27.7409)"/><path d="M8.739 7.733L6.549 2.663L4.379 7.713L8.739 7.733ZM5.563 0L7.614 0L13.177 12.743L10.83 12.743L9.548 9.686L3.571 9.686L2.269 12.743L0 12.743L5.563 0Z" fill="rgb(24,59,104)" fill-opacity="1.000" fill-rule="nonzero" transform="matrix(1 0 0 1 90.3222 27.6422)"/><path d="M5.464 6.273C7.062 6.273 8.068 5.445 8.068 4.162L8.068 4.123C8.068 2.762 7.082 2.032 5.445 2.032L2.209 2.032L2.209 6.273L5.464 6.273ZM0 0L5.642 0C7.24 0 8.482 0.473 9.291 1.263C9.962 1.953 10.337 2.88 10.337 3.985L10.337 4.024C10.337 6.096 9.094 7.358 7.319 7.851L10.731 12.645L8.108 12.645L5.011 8.246L2.229 8.246L2.229 12.664L0 12.664L0 0Z" fill="rgb(24,59,104)" fill-opacity="1.000" fill-rule="nonzero" transform="matrix(1 0 0 1 104.2687 27.7409)"/><path d="M2.821 5.168C3.551 5.168 4.004 4.872 4.004 4.34L4.004 4.32C4.004 3.807 3.59 3.492 2.742 3.492L1.046 3.492L1.046 5.168L2.821 5.168ZM2.505 2.584C3.196 2.584 3.649 2.308 3.649 1.756L3.649 1.736C3.649 1.263 3.275 0.967 2.584 0.967L1.046 0.967L1.046 2.584L2.505 2.584ZM0 0L2.742 0C3.432 0 3.985 0.197 4.34 0.533C4.616 0.809 4.754 1.144 4.754 1.539L4.754 1.558C4.754 2.288 4.34 2.683 3.886 2.92C4.596 3.156 5.089 3.571 5.089 4.399L5.089 4.419C5.089 5.504 4.182 6.096 2.821 6.096L0 6.096L0 0Z" fill="rgb(24,59,104)" fill-opacity="1.000" fill-rule="nonzero" transform="matrix(1 0 0 1 43.6688 18.8048)"/><path d="M4.241 3.728L3.176 1.282L2.13 3.728L4.241 3.728ZM2.703 0L3.689 0L6.372 6.155L5.228 6.155L4.616 4.675L1.736 4.675L1.105 6.155L0 6.155L2.703 0Z" fill="rgb(24,59,104)" fill-opacity="1.000" fill-rule="nonzero" transform="matrix(1 0 0 1 52.0129 18.7653)"/><path d="M0 0L0.986 0L4.261 4.221L4.261 0L5.326 0L5.326 6.115L4.419 6.115L1.065 1.775L1.065 6.115L0 6.115L0 0Z" fill="rgb(24,59,104)" fill-opacity="1.000" fill-rule="nonzero" transform="matrix(1 0 0 1 62.0342 18.8048)"/><path d="M0 3.176C0 1.42 1.302 0 3.156 0C4.281 0 4.971 0.395 5.543 0.947L4.853 1.736C4.36 1.282 3.847 0.967 3.137 0.967C1.973 0.967 1.124 1.933 1.124 3.117L1.124 3.137C1.124 4.34 1.973 5.306 3.137 5.306C3.886 5.306 4.36 5.011 4.892 4.517L5.583 5.208C4.951 5.879 4.241 6.293 3.097 6.293C1.322 6.313 0 4.932 0 3.176Z" fill="rgb(24,59,104)" fill-opacity="1.000" fill-rule="nonzero" transform="matrix(1 0 0 1 71.2463 18.7061)"/><path d="M5.267 3.176C5.267 1.973 4.399 0.986 3.196 0.986C1.992 0.986 1.144 1.953 1.144 3.137L1.144 3.156C1.144 4.34 2.012 5.326 3.215 5.326C4.419 5.326 5.267 4.36 5.267 3.176ZM0 3.176C0 1.44 1.322 0 3.196 0C5.07 0 6.372 1.42 6.372 3.137L6.372 3.156C6.372 4.872 5.05 6.313 3.176 6.313C1.302 6.313 0 4.892 0 3.176Z" fill="rgb(24,59,104)" fill-opacity="1.000" fill-rule="nonzero" transform="matrix(1 0 0 1 80.2813 18.7061)"/><path d="M2.306 20.101L11.361 20.101L11.361 0C8.698 1.164 6.922 2.13 5.246 3.59C1.616 6.924 -0.298 9.824 0.038 15.702C0.176 17.892 0.748 19.963 2.306 20.101Z" fill="rgb(25,58,103)" fill-opacity="1.000" fill-rule="nonzero" transform="matrix(1 0 0 1 25.0879 20.6393)"/><path d="M10.12 11.422C10.258 4.182 5.326 1.223 0 0L0 15.821L7.851 15.821C9.133 15.545 9.982 13.947 10.12 11.422Z" fill="rgb(9,118,165)" fill-opacity="1.000" fill-rule="nonzero" transform="matrix(1 0 0 1 14 24.8805)"/><path d="M0.02 4.754C0.02 4.754 3.294 5.681 6.372 8.147C9.469 10.613 10.179 12.29 10.416 13.611C10.416 13.611 10.85 9.765 13.69 6.608C17.162 2.643 20.358 1.026 22.409 0.039L22.429 0L0 0L0.02 4.754Z" fill="rgb(46,186,219)" fill-opacity="1.000" fill-rule="nonzero" transform="matrix(1 0 0 1 14 18.3312)"/></svg>