<svg xmlns="http://www.w3.org/2000/svg" viewBox="0 0 60 60" width="60" height="60"><path d="M0 0L60 0L60 60L0 60L0 0Z" fill="rgb(255,255,255)" fill-opacity="1.000" fill-rule="nonzero" transform="matrix(1 0 0 1 0 0)"/><path d="M44.7 0L0 0L0 6.709L44.7 6.709L44.7 0Z" fill="rgb(0,0,0)" fill-opacity="1.000" fill-rule="nonzero" transform="matrix(1 0 0 1 7.3 26.6454)"/><path d="M5.222 6.65L2.585 6.65C2.107 6.65 1.83 6.444 1.655 5.998L0 1.717L1.771 1.717C2.249 1.717 2.542 1.928 2.693 2.382L3.427 4.559L3.717 4.559L5.367 0L8.549 0C10.119 0 10.989 0.746 10.989 2.082C10.989 2.807 10.635 3.405 9.979 3.77C10.073 3.959 10.189 4.238 10.363 4.705C10.836 5.963 11.119 6.35 11.417 6.65L9.74 6.65C8.985 6.65 8.528 6.314 8.251 5.59L7.227 2.877C7.351 2.907 7.504 2.912 7.649 2.912C8.28 2.912 8.63 2.693 8.63 2.29C8.63 1.888 8.348 1.714 7.764 1.714L7.098 1.714L5.225 6.647L5.222 6.65Z" fill="rgb(3,77,46)" fill-opacity="1.000" fill-rule="nonzero" transform="matrix(1 0 0 1 40.5808 26.6805)"/><path d="M6.044 4.822C6.044 5.968 5.141 6.631 3.408 6.631L0 6.631L0 0L3.22 0C4.867 0 5.716 0.692 5.716 1.725C5.716 2.388 5.378 2.899 4.84 3.186C5.574 3.424 6.044 3.991 6.044 4.824L6.044 4.822ZM1.516 1.155L1.516 2.718L3.032 2.718C3.776 2.718 4.179 2.453 4.179 1.931C4.179 1.409 3.773 1.155 3.032 1.155L1.516 1.155ZM4.51 4.659C4.51 4.1 4.085 3.835 3.295 3.835L1.516 3.835L1.516 5.473L3.295 5.473C4.085 5.473 4.51 5.227 4.51 4.659Z" fill="rgb(3,77,46)" fill-opacity="1.000" fill-rule="nonzero" transform="matrix(1 0 0 1 7.3 26.6454)"/><path d="M4.811 2.263L4.811 5.173L3.437 5.173L3.437 4.538C3.163 5.003 2.636 5.249 1.892 5.249C0.707 5.249 0 4.586 0 3.705C0 2.823 0.632 2.18 2.174 2.18L3.343 2.18C3.343 1.544 2.967 1.176 2.174 1.176C1.637 1.176 1.083 1.358 0.715 1.65L0.188 0.617C0.744 0.219 1.564 0 2.373 0C3.918 0 4.811 0.719 4.811 2.263ZM3.341 3.561L3.341 3.04L2.333 3.04C1.645 3.04 1.43 3.296 1.43 3.637C1.43 4.008 1.742 4.254 2.258 4.254C2.747 4.254 3.171 4.027 3.341 3.561Z" fill="rgb(3,77,46)" fill-opacity="1.000" fill-rule="nonzero" transform="matrix(1 0 0 1 14.0728 28.1056)"/><path d="M5.182 2.253L5.182 5.17L3.712 5.17L3.712 2.48C3.712 1.655 3.335 1.276 2.685 1.276C1.978 1.276 1.47 1.712 1.47 2.65L1.47 5.17L0 5.17L0 0.076L1.403 0.076L1.403 0.673C1.798 0.238 2.392 0 3.08 0C4.276 0 5.179 0.7 5.179 2.255L5.182 2.253Z" fill="rgb(3,77,46)" fill-opacity="1.000" fill-rule="nonzero" transform="matrix(1 0 0 1 20.2087 28.1056)"/><path d="M0 2.626C0 1.09 1.177 0 2.825 0C3.889 0 4.727 0.465 5.093 1.298L3.953 1.915C3.679 1.431 3.276 1.214 2.814 1.214C2.069 1.214 1.486 1.736 1.486 2.626C1.486 3.515 2.069 4.037 2.814 4.037C3.276 4.037 3.679 3.829 3.953 3.337L5.093 3.962C4.725 4.776 3.889 5.252 2.825 5.252C1.177 5.252 0 4.162 0 2.626Z" fill="rgb(3,77,46)" fill-opacity="1.000" fill-rule="nonzero" transform="matrix(1 0 0 1 26.3417 28.1031)"/><path d="M0 2.626C0 1.09 1.177 0 2.787 0C4.397 0 5.566 1.09 5.566 2.626C5.566 4.162 4.4 5.252 2.787 5.252C1.175 5.252 0 4.162 0 2.626ZM4.077 2.626C4.077 1.744 3.521 1.214 2.787 1.214C2.053 1.214 1.486 1.744 1.486 2.626C1.486 3.507 2.051 4.037 2.787 4.037C3.524 4.037 4.077 3.507 4.077 2.626Z" fill="rgb(3,77,46)" fill-opacity="1.000" fill-rule="nonzero" transform="matrix(1 0 0 1 31.9076 28.1031)"/></svg>