<svg xmlns="http://www.w3.org/2000/svg" viewBox="0 0 60 60" width="60" height="60"><path d="M0 0L60 0L60 60L0 60L0 0Z" fill="rgb(0,168,87)" fill-opacity="1.000" fill-rule="nonzero" transform="matrix(1 0 0 1 0 0)"/><path d="M41.496 18.05C42.327 18.05 43 18.707 43 19.516L43 35.277C43 35.8 42.713 36.284 42.248 36.546L22.249 47.804C22.017 47.935 21.757 48 21.497 48C21.238 48 20.979 47.935 20.747 47.804L0.753 36.572C0.287 36.31 0 35.826 0 35.302L0 19.549C0 18.74 0.674 18.083 1.504 18.083C2.334 18.083 3.007 18.74 3.007 19.549L3.007 34.455L21.496 44.841L39.993 34.43L39.993 19.516C39.993 18.707 40.666 18.05 41.496 18.05ZM20.75 0.197C21.215 -0.066 21.789 -0.066 22.255 0.196L42.248 11.451C42.713 11.713 43 12.197 43 12.72C43 13.244 42.713 13.728 42.248 13.99L22.249 25.248C22.017 25.378 21.757 25.444 21.497 25.444C21.238 25.444 20.979 25.378 20.747 25.248L0.753 14.017C0.287 13.755 0.001 13.271 0 12.747C0 12.224 0.286 11.739 0.751 11.477L20.75 0.197ZM21.504 3.159L4.511 12.744L21.496 22.285L38.489 12.72L21.504 3.159Z" fill="rgb(255,255,255)" fill-opacity="1.000" fill-rule="evenodd" transform="matrix(1 0 0 1 8 6)"/></svg>