<svg xmlns="http://www.w3.org/2000/svg" viewBox="0 0 60 60" width="60" height="60"><path d="M0 0L60 0L60 60L0 60L0 0Z" fill="rgb(0,0,0)" fill-opacity="1.000" fill-rule="nonzero" transform="matrix(1 0 0 1 0 0)"/><path d="M0 0L47.744 0L47.744 18L0 18L0 0Z" fill="rgb(0,0,0)" fill-opacity="1.000" fill-rule="nonzero" transform="matrix(1 0 0 1 6 21)"/><path d="M23.626 1.014C23.801 1.014 23.969 1.085 24.093 1.211C24.217 1.337 24.287 1.509 24.287 1.687L24.287 3.592C24.287 3.771 24.217 3.943 24.093 4.069C23.968 4.196 23.799 4.267 23.623 4.267L21.049 4.267L21.049 0L21.506 0L21.506 1.014L23.626 1.014ZM23.83 3.585L23.83 1.697C23.83 1.668 23.825 1.64 23.814 1.614C23.804 1.587 23.788 1.563 23.768 1.543C23.749 1.522 23.725 1.506 23.699 1.495C23.674 1.484 23.646 1.479 23.618 1.479L21.723 1.479C21.695 1.479 21.667 1.484 21.641 1.495C21.614 1.506 21.591 1.523 21.571 1.543C21.55 1.563 21.533 1.587 21.522 1.613C21.511 1.64 21.505 1.668 21.506 1.697L21.506 3.585C21.505 3.614 21.511 3.642 21.522 3.669C21.533 3.695 21.549 3.719 21.57 3.739C21.59 3.759 21.614 3.775 21.64 3.786C21.667 3.797 21.695 3.803 21.723 3.803L23.618 3.803C23.646 3.803 23.674 3.798 23.7 3.787C23.725 3.775 23.748 3.759 23.767 3.739C23.788 3.719 23.804 3.695 23.815 3.668C23.825 3.642 23.83 3.614 23.83 3.585ZM28.185 1.014C28.273 1.013 28.36 1.031 28.442 1.064C28.523 1.098 28.597 1.148 28.659 1.212C28.721 1.275 28.77 1.35 28.804 1.432C28.837 1.515 28.854 1.603 28.854 1.692L28.854 4.267L26.28 4.267C26.192 4.269 26.105 4.252 26.025 4.218C25.944 4.183 25.871 4.133 25.811 4.069C25.748 4.006 25.698 3.931 25.665 3.849C25.632 3.766 25.615 3.678 25.617 3.589L25.617 2.408L28.398 2.408L28.398 1.696C28.398 1.639 28.375 1.584 28.335 1.543C28.296 1.503 28.242 1.48 28.185 1.479L25.615 1.479L25.615 1.014L28.185 1.014ZM28.397 3.803L28.397 2.873L26.072 2.873L26.072 3.586C26.072 3.643 26.095 3.698 26.135 3.739C26.174 3.779 26.229 3.803 26.285 3.803L28.397 3.803ZM32.839 1.014C32.927 1.013 33.014 1.03 33.094 1.064C33.175 1.098 33.248 1.149 33.308 1.213C33.371 1.276 33.421 1.35 33.454 1.433C33.487 1.516 33.504 1.604 33.502 1.693L33.502 4.267L33.046 4.267L33.046 1.697C33.046 1.669 33.041 1.64 33.03 1.614C33.019 1.587 33.003 1.563 32.983 1.543C32.964 1.523 32.94 1.506 32.915 1.495C32.889 1.484 32.861 1.479 32.833 1.479L30.938 1.479C30.91 1.479 30.882 1.485 30.856 1.495C30.83 1.506 30.806 1.523 30.786 1.543C30.765 1.563 30.748 1.587 30.737 1.613C30.726 1.64 30.72 1.668 30.721 1.697L30.721 4.267L30.264 4.267L30.264 1.014L32.839 1.014ZM35.548 3.803L38.154 3.803L38.154 4.268L35.579 4.268C35.491 4.268 35.405 4.25 35.324 4.215C35.243 4.181 35.17 4.131 35.109 4.068C34.984 3.94 34.915 3.768 34.915 3.589L34.915 1.692C34.915 1.513 34.985 1.341 35.109 1.214C35.233 1.087 35.402 1.015 35.579 1.014L38.153 1.014L38.153 1.479L35.547 1.479C35.518 1.479 35.49 1.484 35.464 1.495C35.437 1.506 35.414 1.522 35.394 1.543C35.373 1.563 35.357 1.587 35.346 1.613C35.335 1.64 35.329 1.668 35.33 1.697L35.33 3.585C35.329 3.613 35.335 3.642 35.346 3.668C35.357 3.695 35.373 3.719 35.394 3.739C35.414 3.759 35.438 3.775 35.464 3.787C35.49 3.798 35.519 3.803 35.548 3.803ZM40.312 1.014L42.219 1.014C42.307 1.013 42.394 1.031 42.476 1.065C42.557 1.098 42.631 1.148 42.692 1.212C42.755 1.275 42.804 1.35 42.838 1.432C42.871 1.515 42.888 1.603 42.888 1.692L42.888 3.589C42.888 3.769 42.818 3.942 42.692 4.07C42.63 4.133 42.556 4.183 42.474 4.217C42.393 4.251 42.306 4.268 42.218 4.267L40.312 4.267C40.224 4.269 40.138 4.252 40.057 4.218C39.976 4.183 39.904 4.133 39.844 4.069C39.781 4.006 39.731 3.931 39.698 3.849C39.664 3.766 39.648 3.678 39.65 3.589L39.65 1.693C39.648 1.604 39.665 1.516 39.698 1.433C39.732 1.351 39.781 1.276 39.844 1.214C39.904 1.15 39.977 1.099 40.057 1.065C40.138 1.031 40.225 1.013 40.312 1.014ZM42.218 1.479L40.319 1.479C40.291 1.479 40.263 1.484 40.237 1.495C40.211 1.506 40.188 1.522 40.169 1.543C40.148 1.563 40.132 1.587 40.121 1.613C40.111 1.64 40.105 1.668 40.106 1.697L40.106 3.585C40.106 3.642 40.128 3.697 40.168 3.739C40.208 3.779 40.262 3.802 40.319 3.803L42.218 3.803C42.246 3.803 42.274 3.797 42.299 3.786C42.325 3.775 42.349 3.759 42.368 3.739C42.388 3.718 42.404 3.694 42.415 3.668C42.426 3.641 42.431 3.613 42.431 3.585L42.431 1.697C42.431 1.668 42.426 1.64 42.415 1.614C42.404 1.587 42.388 1.563 42.368 1.543C42.348 1.523 42.325 1.506 42.299 1.495C42.273 1.484 42.245 1.479 42.217 1.479L42.218 1.479ZM9.507 6C9.829 5.995 10.149 6.057 10.446 6.182C10.743 6.307 11.013 6.494 11.237 6.729C11.717 7.215 11.957 7.8 11.957 8.484L11.957 15.502C11.962 15.831 11.9 16.157 11.777 16.461C11.654 16.763 11.471 17.038 11.239 17.267C10.759 17.756 10.182 18 9.507 18L0 18L0 0L1.661 0L1.661 6L9.507 6ZM10.296 15.51L10.296 8.575C10.295 8.363 10.211 8.161 10.063 8.01C9.99 7.936 9.904 7.877 9.808 7.837C9.713 7.797 9.61 7.776 9.507 7.775L2.47 7.775C2.364 7.774 2.26 7.794 2.163 7.835C2.065 7.875 1.977 7.935 1.903 8.01C1.825 8.082 1.764 8.169 1.722 8.267C1.68 8.364 1.659 8.469 1.661 8.575L1.661 15.51C1.66 15.616 1.681 15.721 1.723 15.818C1.765 15.915 1.826 16.002 1.903 16.074C1.977 16.149 2.066 16.208 2.163 16.249C2.26 16.29 2.364 16.31 2.469 16.31L9.507 16.31C9.716 16.309 9.915 16.224 10.063 16.074C10.211 15.924 10.294 15.721 10.296 15.509L10.296 15.51ZM23.936 6C24.624 6 25.208 6.245 25.686 6.734C25.918 6.964 26.101 7.24 26.224 7.543C26.348 7.847 26.409 8.174 26.404 8.503L26.404 18L16.897 18C16.223 18 15.646 17.755 15.168 17.265C14.935 17.036 14.751 16.761 14.628 16.457C14.504 16.152 14.443 15.826 14.447 15.497L14.447 11.155L24.744 11.155L24.744 8.5C24.743 8.287 24.66 8.082 24.512 7.93C24.44 7.855 24.353 7.795 24.257 7.754C24.162 7.713 24.059 7.691 23.955 7.69L14.447 7.69L14.447 6L23.936 6ZM24.744 16.31L24.744 12.845L16.108 12.845L16.108 15.5C16.107 15.606 16.127 15.712 16.167 15.81C16.207 15.908 16.267 15.997 16.342 16.071C16.413 16.147 16.499 16.208 16.595 16.249C16.69 16.29 16.793 16.311 16.897 16.31L24.744 16.31ZM31.345 6L37.946 6L37.946 7.69L31.345 7.69C31.135 7.692 30.935 7.777 30.789 7.927C30.641 8.078 30.557 8.281 30.556 8.493L30.556 18L28.895 18L28.895 8.503C28.89 8.175 28.951 7.848 29.075 7.543C29.199 7.24 29.382 6.965 29.614 6.734C30.093 6.245 30.67 6 31.345 6ZM42.097 6L40.436 6L40.436 18L42.097 18L42.097 6Z" fill="rgb(255,255,255)" fill-opacity="1.000" fill-rule="nonzero" transform="matrix(1 0 0 1 6 21)"/><path d="M2.657 0L0.498 0C0.223 0 0 0.227 0 0.507L0 2.704C0 2.984 0.223 3.211 0.498 3.211L2.657 3.211C2.932 3.211 3.155 2.984 3.155 2.704L3.155 0.507C3.155 0.227 2.932 0 2.657 0Z" fill="rgb(0,144,255)" fill-opacity="1.000" fill-rule="nonzero" transform="matrix(1 0 0 1 50.5886 35.7886)"/></svg>