<svg xmlns="http://www.w3.org/2000/svg" viewBox="0 0 130 60" width="130" height="60"><path d="M0 0L130 0L130 60L0 60L0 0Z" fill="rgb(255,255,255)" fill-opacity="1.000" fill-rule="nonzero" transform="matrix(1 0 0 1 0 0)"/><path d="M0 0L22.554 0L22.554 26.022L0 26.022L0 0Z" fill="rgb(234,28,36)" fill-opacity="1.000" fill-rule="nonzero" transform="matrix(1 0 0 1 53.8622 8)"/><path d="M14.594 9.07C14.598 9.052 15.325 4.316 7.08 0C10.289 0.06 12.073 -0.164 13.506 0.65C13.506 0.65 14.401 0.991 15.233 2.18C16.67 4.559 16.256 7.813 14.594 9.07ZM14.617 18.153C14.221 18.501 13.441 19.21 11.808 19.423C10.174 19.636 6.178 19.46 6.178 19.46C6.244 19.445 12.257 18.321 10.695 13.134C12.019 12.675 13.159 11.976 13.893 10.731C15.585 11.849 16.841 15.58 14.617 18.153ZM9.646 10.863C7.627 8.131 3.9 5.771 0 4.481L0 0.494C4.758 1.145 11.441 4.4 11.918 8.209C12.139 9.925 10.09 10.814 9.646 10.863ZM0.006 9.707L0.006 7.323C0.477 7.481 4.493 8.83 6.76 11.212C3.474 11.212 0.406 9.869 0.006 9.707ZM7.99 15.778C5.974 18.249 0.15 16.868 0.006 16.831L0.006 12.698C4.723 14.216 8.34 13.715 8.34 13.715C8.34 13.715 8.44 13.843 8.486 14.292C8.527 15.101 8.196 15.542 7.99 15.778Z" fill="rgb(255,255,255)" fill-opacity="1.000" fill-rule="nonzero" transform="matrix(1 0 0 -1 57.0764 30.774)"/><path d="M61.177 13.585L61.866 14.332C62.052 14.541 62.705 15.198 62.705 15.198L60.196 15.198C60.196 15.198 60.026 14.859 59.935 14.673C59.846 14.483 59.772 14.325 59.709 14.193L59.485 13.709C60.015 13.711 60.579 13.673 61.177 13.585ZM50.326 7.109C50.359 8.656 50.37 9.617 50.351 9.997C50.32 10.695 50.121 11.227 49.761 11.599C49.396 11.971 48.904 12.238 48.286 12.408C47.666 12.579 46.993 12.663 46.26 12.663C45.619 12.663 44.949 12.618 44.264 12.533C43.575 12.444 42.786 12.299 41.892 12.087C41.848 11.695 41.82 11.404 41.806 11.21C41.791 11.017 41.751 10.684 41.68 10.205C43.117 10.782 44.436 11.07 45.648 11.07C45.975 11.07 46.272 11.035 46.543 10.965C46.817 10.897 47.042 10.771 47.222 10.593C47.395 10.415 47.491 10.195 47.504 9.937C47.51 9.805 47.488 9.675 47.436 9.55C47.388 9.424 47.305 9.302 47.192 9.188C47.077 9.07 46.939 8.976 46.78 8.901C46.619 8.831 46.407 8.756 46.137 8.677C45.868 8.603 45.608 8.54 45.36 8.484C44.416 8.28 43.663 8.076 43.094 7.872C42.527 7.673 42.094 7.461 41.796 7.249C41.617 7.116 41.458 6.982 41.32 6.845C41.323 6.986 41.32 7.125 41.313 7.268C41.281 7.964 41.144 8.63 40.907 9.266C40.665 9.902 40.32 10.463 39.861 10.948C39.401 11.43 38.804 11.775 38.068 11.98C37.453 12.154 36.788 12.253 36.076 12.282C35.938 12.287 35.799 12.289 35.659 12.289C34.995 12.289 34.327 12.253 33.66 12.185C32.991 12.112 32.049 11.967 30.833 11.75C30.916 9.964 30.96 7.646 30.965 4.785C30.969 2.846 30.952 1.153 30.916 0L33.605 0L33.557 3.099C34.679 2.339 35.607 2.255 35.982 2.166C36.013 2.159 36.044 2.151 36.076 2.146C36.421 2.07 36.766 2.032 37.118 2.032C37.763 2.032 38.352 2.149 38.886 2.384C39.42 2.618 39.881 2.967 40.27 3.487C40.437 3.708 40.582 3.942 40.707 4.187L40.707 4.19C40.782 3.954 40.886 3.718 41.019 3.483C41.297 2.992 41.712 2.635 42.26 2.412C42.809 2.183 43.499 2.126 44.338 2.126C44.58 2.126 44.838 2.137 45.115 2.156C45.394 2.177 45.754 2.165 46.223 2.248C46.375 2.998 46.524 3.674 46.646 4.052C46.253 3.92 45.938 3.835 45.705 3.804C45.472 3.771 45.248 3.753 45.034 3.753C44.699 3.753 44.409 3.738 44.161 3.817C43.912 3.898 43.701 4.039 43.528 4.242C43.356 4.443 43.263 4.628 43.249 4.907C43.243 5.079 43.264 5.238 43.324 5.388C43.376 5.538 43.471 5.68 43.607 5.816C43.739 5.952 43.906 6.073 44.102 6.183C44.3 6.294 44.525 6.388 44.773 6.476C45.019 6.562 45.352 6.664 45.766 6.779C46.179 6.896 46.466 6.983 46.631 7.037C46.794 7.096 46.942 7.157 47.071 7.221C47.201 7.289 47.389 7.403 47.634 7.572L47.62 5.093C47.614 4.04 47.578 2.995 47.527 2.192C48.071 2.207 49.868 2.207 50.374 2.193C50.318 3.844 50.29 5.561 50.326 7.109ZM38.372 5.578C38.179 5.038 37.889 4.653 37.493 4.372C37.104 4.092 36.666 3.953 36.173 3.953C36.14 3.953 36.108 3.953 36.076 3.955C35.755 3.969 35.441 4.048 35.13 4.191C34.793 4.35 34.494 4.55 34.236 4.852C33.98 5.155 33.803 5.488 33.708 5.848C33.608 6.207 33.552 6.586 33.533 6.978C33.522 7.196 33.519 7.54 33.525 8.001L33.535 9.075C33.539 9.325 33.558 9.627 33.589 9.973C34.363 10.228 35.087 10.359 35.758 10.359C35.867 10.359 35.972 10.354 36.076 10.344C36.467 10.31 36.828 10.208 37.16 10.038C37.577 9.826 37.917 9.487 38.179 9.019C38.442 8.555 38.592 7.981 38.622 7.305C38.651 6.695 38.569 6.118 38.372 5.578ZM19.637 7.11C19.67 8.656 19.679 9.62 19.661 9.999C19.629 10.695 19.432 11.226 19.07 11.601C18.706 11.97 18.214 12.24 17.597 12.408C16.976 12.578 16.301 12.663 15.571 12.663C14.927 12.663 14.258 12.619 13.572 12.533C12.887 12.447 12.099 12.3 11.201 12.087C11.16 11.696 11.13 11.404 11.118 11.209C11.102 11.017 11.06 10.685 10.991 10.207C12.426 10.782 13.745 11.071 14.958 11.071C15.285 11.071 15.581 11.037 15.853 10.965C16.126 10.897 16.352 10.772 16.532 10.591C16.705 10.415 16.803 10.194 16.814 9.937C16.818 9.805 16.798 9.675 16.746 9.55C16.697 9.424 16.615 9.302 16.502 9.187C16.387 9.072 16.249 8.977 16.089 8.901C15.929 8.831 15.714 8.756 15.446 8.678C15.177 8.603 14.919 8.538 14.669 8.485C13.726 8.281 12.974 8.076 12.406 7.872C11.836 7.673 11.367 7.461 11.073 7.245C10.775 7.03 10.571 6.835 10.389 6.605C10.37 6.58 10.352 6.555 10.333 6.53C10.328 6.546 10.324 6.565 10.32 6.582C10.249 6.842 10.156 7.079 10.039 7.292C9.919 7.508 9.77 7.708 9.579 7.898C9.393 8.09 9.197 8.247 8.99 8.368C8.784 8.491 8.59 8.58 8.411 8.642C8.232 8.701 7.992 8.762 7.698 8.824C8.016 8.937 8.273 9.043 8.464 9.143C8.653 9.246 8.85 9.383 9.055 9.562C9.259 9.739 9.435 9.958 9.585 10.21C9.734 10.464 9.844 10.749 9.912 11.065C9.984 11.382 10.01 11.77 9.993 12.12C9.98 12.403 9.936 12.682 9.854 12.956C9.779 13.224 9.668 13.48 9.52 13.716C9.373 13.949 9.202 14.154 9.007 14.324C8.809 14.498 8.572 14.724 8.289 14.843C8.005 14.966 7.687 15.052 7.33 15.112C6.97 15.169 6.441 15.203 5.739 15.203C5.576 15.203 5.398 15.201 5.207 15.2C4.809 15.196 0 15.201 0 15.201C0 15.201 0.049 14.441 0.049 8.688C0.049 2.936 0 2.197 0 2.197L1.703 2.206L3.984 2.197C4.429 2.197 4.837 2.199 5.207 2.204C6.372 2.222 7.168 2.267 7.597 2.341C8.163 2.44 8.666 2.634 9.111 2.925C9.513 3.188 9.827 3.534 10.056 3.967L10.056 3.969L10.086 4.022C10.152 3.852 10.233 3.681 10.331 3.511C10.608 3.02 11.023 2.689 11.571 2.467C12.119 2.238 12.811 2.126 13.648 2.126C13.892 2.126 14.148 2.137 14.426 2.157C14.704 2.178 15.063 2.166 15.533 2.248C15.685 2.997 15.833 3.675 15.955 4.052C15.565 3.92 15.248 3.835 15.014 3.804C14.781 3.771 14.558 3.753 14.343 3.753C14.011 3.753 13.72 3.738 13.471 3.817C13.221 3.898 13.01 4.039 12.839 4.243C12.665 4.44 12.573 4.628 12.559 4.907C12.551 5.079 12.574 5.238 12.632 5.389C12.688 5.538 12.782 5.68 12.916 5.816C13.049 5.952 13.217 6.073 13.412 6.184C13.612 6.294 13.834 6.39 14.083 6.478C14.33 6.564 14.663 6.664 15.075 6.779C15.489 6.895 15.776 6.982 15.942 7.037C16.106 7.096 16.253 7.156 16.38 7.222C16.511 7.289 16.698 7.405 16.945 7.57L16.93 5.093C16.923 4.04 16.891 2.985 16.838 2.185C17.383 2.198 19.164 2.206 19.673 2.193C19.615 3.841 19.599 5.561 19.637 7.11ZM4.955 13.295C5.043 13.295 5.127 13.295 5.207 13.292C5.564 13.283 5.842 13.254 6.046 13.204C6.301 13.146 6.514 13.047 6.698 12.914C6.88 12.777 7.015 12.609 7.11 12.403C7.206 12.195 7.258 11.976 7.268 11.745C7.28 11.508 7.253 11.218 7.183 10.99C7.116 10.759 7.003 10.551 6.842 10.362C6.68 10.169 6.481 10.029 6.24 9.937C6.001 9.845 5.77 9.785 5.548 9.755C5.465 9.743 5.352 9.733 5.207 9.726C4.969 9.714 4.65 9.708 4.249 9.708L2.734 9.708L2.698 13.295L4.955 13.295ZM7.628 5.471C7.58 5.275 7.511 5.096 7.422 4.939C7.333 4.786 7.228 4.654 7.105 4.555C6.983 4.454 6.816 4.362 6.6 4.272C6.383 4.186 6.157 4.125 5.915 4.09C5.734 4.063 5.498 4.048 5.207 4.041C5.113 4.039 5.013 4.039 4.905 4.039L2.766 4.039L2.728 7.877L5.102 7.877C5.138 7.877 5.172 7.876 5.207 7.876C5.694 7.87 6.062 7.835 6.316 7.766C6.583 7.695 6.817 7.58 7.025 7.419C7.228 7.259 7.386 7.071 7.498 6.848C7.607 6.631 7.67 6.377 7.684 6.088C7.694 5.876 7.674 5.671 7.628 5.471ZM30.227 10.344C30.108 10.716 29.877 11.062 29.539 11.381C29.203 11.692 28.767 11.923 28.234 12.069C27.703 12.213 27.147 12.287 26.572 12.287C26.212 12.287 25.866 12.257 25.535 12.202C25.204 12.142 23.728 11.839 22.854 10.746L22.886 12.055C22.413 12.045 21.969 12.035 21.55 12.035C21.196 12.035 20.72 12.045 20.124 12.055C20.176 10.611 20.046 2.194 20.046 2.194C20.628 2.207 22.375 2.207 22.87 2.194C22.839 3.74 22.83 5.01 22.85 5.93C22.875 6.969 22.95 7.711 23.078 8.16C23.199 8.587 23.381 8.943 23.627 9.232C23.86 9.517 24.141 9.735 24.467 9.882C24.799 10.031 25.155 10.103 25.54 10.103C25.936 10.103 26.305 10.023 26.653 9.863C27 9.702 27.259 9.467 27.435 9.157C27.612 8.849 27.711 8.439 27.732 7.932C27.755 7.48 27.762 6.557 27.747 5.162C27.736 3.767 27.718 2.752 27.69 2.19C28.185 2.203 29.974 2.203 30.484 2.19C30.459 2.852 30.446 8.982 30.439 9.157C30.419 9.576 30.347 9.972 30.227 10.344ZM64.279 2.193C64.25 2.629 64.185 4.87 64.156 6.69C64.141 7.519 64.153 8.344 64.137 9.168C64.127 9.785 64.144 10.373 63.921 10.956C63.921 10.956 63.545 12.161 61.652 12.527C56.431 13.538 53.636 10.67 53.6 10.642L53.596 12.103L52.919 12.075L51.631 12.08L50.82 12.109C50.874 11.28 50.923 10.357 50.915 9.573C50.908 8.786 50.956 2.681 50.922 2.194C50.922 2.194 51.034 2.217 52.334 2.217C53.635 2.217 53.766 2.194 53.766 2.194C53.727 2.807 53.698 3.418 53.682 4.023C53.665 4.638 53.501 6.898 54.34 8.308C56.198 11.432 61.401 11.431 61.401 9.972C61.401 9.719 61.401 9.249 60.682 8.951C60.402 8.835 57.93 8.218 57.193 7.965C55.828 7.496 54.278 6.748 54.396 4.925C54.451 4.076 54.841 3.297 55.481 2.761C56.065 2.27 56.754 2.123 57.9 2.103L58.524 2.103C58.877 2.103 59.157 2.143 59.465 2.171C59.623 2.186 60.005 2.225 60.138 2.248C60.147 2.309 60.13 2.213 60.169 2.439C60.242 2.84 60.373 3.571 60.496 3.944C60.503 3.966 60.482 3.986 60.46 3.976C60.251 3.875 59.56 3.723 58.951 3.723L58.862 3.723C57.988 3.723 57.154 3.993 57.099 4.832L57.095 4.902C57.031 5.881 58.135 6.336 58.914 6.566C60.275 6.97 60.988 7.193 61.441 7.44C61.479 6.832 61.517 2.407 61.437 2.212L64.279 2.193Z" fill="rgb(47,54,142)" fill-opacity="1.000" fill-rule="nonzero" transform="matrix(1 0 0 -1 33.0001 52.4804)"/></svg>