<svg xmlns="http://www.w3.org/2000/svg" viewBox="0 0 60 60" width="60" height="60"><path d="M0 0L60 0L60 60L0 60L0 0Z" fill="rgb(255,255,255)" fill-opacity="1.000" fill-rule="nonzero" transform="matrix(1 0 0 1 0 0)"/><path d="M21.901 24.952C21.805 22.84 21.015 21.559 20.233 20.788L20.242 20.788C21.279 20.788 22.722 21.698 22.722 23.153C22.722 23.957 22.45 24.543 21.901 24.952ZM18.394 28.999L18.394 26.971C19.143 26.954 19.822 26.885 20.428 26.765C20.135 28.145 19.372 28.8 18.394 28.999ZM15.564 26.635C15.946 26.769 16.421 26.877 17.041 26.933L17.041 28.957C16.294 28.691 15.649 27.936 15.564 26.635ZM15.554 20.788L17.041 20.788L17.041 25.683C16.486 25.609 15.993 25.474 15.554 25.295L15.554 20.788ZM13.209 17.513C13.209 16.779 13.544 16.144 14.201 15.686L14.201 19.273C13.572 18.91 13.209 18.242 13.209 17.513ZM17.041 11.857L17.041 13.696C16.543 13.71 16.062 13.763 15.608 13.854C15.772 12.939 16.298 12.18 17.041 11.857ZM19.94 14.143C19.525 13.997 19.02 13.848 18.394 13.763L18.394 11.777C19.119 12.015 19.731 12.762 19.94 14.143ZM18.394 19.5L18.394 14.996C18.959 15.075 19.503 15.213 20.015 15.4C19.962 17.347 18.976 19.153 18.394 19.5ZM15.554 15.109C15.99 15.003 16.486 14.94 17.041 14.924L17.041 19.56L15.554 19.56L15.554 15.109ZM20.557 25.521C19.961 25.658 19.241 25.728 18.394 25.743L18.394 20.8C19.012 20.943 20.558 22.444 20.558 25.382C20.558 25.429 20.558 25.475 20.557 25.521ZM20.017 19.56L19.949 19.56C20.626 18.717 21.165 17.383 21.323 16.027C21.798 16.314 22.225 16.647 22.587 17.013C22.767 17.195 22.857 17.286 22.992 17.286C23.263 17.286 23.398 17.058 23.263 16.831C22.902 16.239 22.767 15.739 22.767 15.102C22.767 14.693 22.902 14.329 22.992 14.101C23.083 13.874 22.992 13.646 22.722 13.646C22.496 13.646 22.451 13.828 22.361 13.965C22.188 14.271 21.848 14.534 21.343 14.554C21.148 12.096 19.902 10.892 18.618 10.56C19.079 9.452 20.222 8.772 21.73 8.461C21.956 8.415 22.136 8.324 22.136 8.142C22.136 7.915 21.956 7.824 21.73 7.824C21.234 7.824 20.513 8.097 19.927 8.279C19.025 8.552 18.259 8.734 17.582 8.734C16.14 8.734 14.877 8.097 14.472 8.097C14.291 8.097 14.156 8.233 14.156 8.415C14.156 8.552 14.246 8.688 14.517 8.779C15.715 9.171 16.495 9.798 16.839 10.643C16.127 10.907 15.536 11.444 15.132 12.145C14.653 11.169 14.045 10.735 13.164 10.735C12.308 10.735 11.631 11.372 11.631 12.145C11.631 12.691 11.992 13.101 12.398 13.101C12.578 13.101 12.668 13.01 12.668 12.873C12.668 12.691 12.578 12.646 12.578 12.373C12.578 12.1 12.804 11.872 13.164 11.872C13.705 11.872 14.201 12.418 14.201 13.919L14.201 14.293C12.783 14.927 11.857 16.044 11.857 17.558C11.857 19.115 12.874 20.278 14.201 20.656L14.201 24.494C13.19 23.673 12.623 22.611 12.263 21.834C12.173 21.652 12.082 21.425 11.857 21.425C11.586 21.425 11.496 21.698 11.631 22.016C11.767 22.335 11.857 22.835 11.857 23.29C11.857 23.836 11.677 24.336 11.316 24.7C11.136 24.882 11 25.018 11 25.155C11 25.337 11.136 25.428 11.271 25.428C11.541 25.428 11.857 25.109 12.443 25.109C12.804 25.109 13.254 25.291 13.976 25.746C14.052 25.791 14.126 25.839 14.201 25.89L14.201 26.429L14.201 27.065C14.201 27.702 13.931 28.112 13.39 28.112C13.029 28.112 12.804 27.839 12.804 27.475C12.804 27.202 12.984 27.111 12.984 26.975C12.984 26.838 12.894 26.747 12.713 26.747C12.443 26.747 11.992 27.156 11.992 27.839C11.992 28.476 12.443 29.249 13.39 29.249C13.926 29.249 14.429 29.085 14.901 28.617C15.337 29.329 16.104 29.964 16.971 30.199C16.733 31.4 15.911 32.388 14.742 32.388C14.156 32.388 13.841 32.069 13.841 31.66C13.841 31.341 14.066 31.159 14.246 31.068C14.472 30.977 14.652 30.932 14.652 30.659C14.652 30.523 14.562 30.341 14.111 30.341C13.3 30.341 12.623 31.068 12.623 31.933C12.623 32.888 13.3 33.798 14.697 33.798C15.888 33.798 16.925 33.208 17.581 32.465C18.352 33.094 19.527 33.616 20.107 33.616C20.287 33.616 20.468 33.525 20.468 33.343C20.468 33.161 20.287 33.024 20.107 32.933C19.07 32.388 18.394 31.614 18.394 30.25L18.394 30.227C20.004 29.924 21.509 28.608 21.842 26.342C23.307 25.714 24.074 24.631 24.074 23.153C24.074 21.016 22.091 19.56 20.017 19.56ZM27.681 32.388C26.103 32.388 25.066 31.478 25.066 30.113C25.066 28.976 25.833 28.066 26.734 28.066C27.095 28.066 27.411 28.203 27.411 28.567C27.411 28.794 27.32 28.976 27.546 28.976C27.681 28.976 27.816 28.839 27.816 28.476C27.816 28.021 27.411 27.657 26.824 27.657L26.689 27.657C26.779 27.475 26.779 27.293 26.779 27.247C26.779 26.838 26.464 26.611 26.148 26.611C25.833 26.611 25.517 26.793 25.517 27.02C25.517 27.111 25.562 27.156 25.652 27.156C25.788 27.156 25.833 27.02 26.058 27.02C26.238 27.02 26.374 27.111 26.374 27.338C26.374 27.657 26.103 27.793 25.878 27.93C25.156 28.339 24.661 29.158 24.661 30.113C24.661 31.387 25.382 32.206 26.419 32.57L25.742 33.616C24.841 33.616 24.39 34.298 23.578 35.754C23.488 35.39 23.218 35.117 22.767 35.117C22.271 35.117 21.956 35.481 21.956 35.981C21.956 36.118 22.046 36.209 22.136 36.209C22.271 36.209 22.361 36.118 22.361 35.981C22.361 35.754 22.496 35.526 22.767 35.526C23.083 35.526 23.218 35.754 23.218 36.027C23.218 36.345 23.173 36.527 22.947 36.891C22.001 38.437 20.693 39.211 19.566 39.211C18.574 39.211 17.988 38.619 17.988 38.028C17.988 37.482 18.304 37.027 18.845 37.027C19.205 37.027 19.431 37.255 19.431 37.573C19.431 37.846 19.205 37.846 19.205 37.983C19.205 38.074 19.296 38.119 19.386 38.119C19.656 38.119 19.837 37.801 19.837 37.482C19.837 36.982 19.431 36.618 18.845 36.618C18.304 36.618 17.853 36.982 17.718 37.346C17.582 36.982 17.132 36.618 16.591 36.618C16.005 36.618 15.599 36.982 15.599 37.482C15.599 37.801 15.779 38.119 16.05 38.119C16.14 38.119 16.23 38.074 16.23 37.983C16.23 37.846 16.005 37.846 16.005 37.573C16.005 37.255 16.23 37.027 16.591 37.027C17.132 37.027 17.447 37.482 17.447 38.028C17.447 38.619 16.861 39.211 15.869 39.211C14.742 39.211 13.435 38.437 12.488 36.891C12.263 36.527 12.218 36.345 12.218 36.027C12.218 35.754 12.353 35.526 12.668 35.526C12.939 35.526 13.074 35.754 13.074 35.981C13.074 36.118 13.164 36.209 13.3 36.209C13.39 36.209 13.48 36.118 13.48 35.981C13.48 35.481 13.164 35.117 12.668 35.117C12.218 35.117 11.947 35.39 11.857 35.754C11.045 34.298 10.595 33.616 9.693 33.616L9.017 32.57C10.054 32.206 10.775 31.387 10.775 30.113C10.775 29.158 10.279 28.339 9.558 27.93C9.332 27.793 9.062 27.657 9.062 27.338C9.062 27.111 9.197 27.02 9.377 27.02C9.603 27.02 9.648 27.156 9.783 27.156C9.873 27.156 9.918 27.111 9.918 27.02C9.918 26.793 9.603 26.611 9.287 26.611C8.972 26.611 8.656 26.838 8.656 27.247C8.656 27.293 8.656 27.475 8.746 27.657L8.611 27.657C8.025 27.657 7.619 28.021 7.619 28.476C7.619 28.839 7.754 28.976 7.89 28.976C8.115 28.976 8.025 28.794 8.025 28.567C8.025 28.203 8.34 28.066 8.701 28.066C9.603 28.066 10.369 28.976 10.369 30.113C10.369 31.478 9.332 32.388 7.754 32.388C5.906 32.388 4.508 31.023 4.508 29.112C4.508 27.247 5.59 25.974 6.808 24.837L7.845 23.836C9.152 22.608 9.693 21.334 9.693 19.742C9.693 18.013 8.656 16.103 6.492 15.148C6.943 15.011 7.213 14.556 7.213 14.01C7.213 13.646 7.078 13.419 7.078 13.146C7.078 12.6 7.394 12.282 7.845 12.282C8.25 12.282 8.521 12.6 8.521 12.919C8.521 13.192 8.34 13.419 8.025 13.419C7.89 13.419 7.799 13.419 7.799 13.556C7.799 13.692 7.935 13.737 8.115 13.737C8.656 13.737 8.927 13.283 8.927 13.055C9.017 13.101 9.107 13.146 9.242 13.146C9.558 13.146 9.783 12.919 9.783 12.6C9.783 12.509 9.738 12.373 9.603 12.373C9.513 12.373 9.468 12.464 9.468 12.555C9.468 12.691 9.377 12.782 9.242 12.782C9.062 12.782 8.927 12.646 8.836 12.464C8.656 12.145 8.295 11.872 7.845 11.872C7.258 11.872 6.808 12.282 6.717 12.828C6.447 12.555 6.131 12.282 5.68 12.009C6.041 11.781 6.357 11.6 6.717 11.327C7.258 10.917 7.754 10.462 8.295 9.871L10.775 7.142C12.939 4.731 14.336 4.139 15.689 4.139C16.861 4.139 17.447 4.731 17.447 5.413C17.447 5.913 17.234 6.284 16.896 6.468C16.704 6.272 16.563 6.004 16.5 5.686C16.455 5.459 16.41 5.459 16.365 5.459C16.275 5.459 16.275 5.55 16.275 5.641C16.275 6.03 16.367 6.343 16.518 6.586C16.468 6.592 16.417 6.596 16.365 6.596C15.914 6.596 15.644 6.368 15.644 6.095C15.644 6.05 15.644 5.959 15.734 5.868C15.824 5.777 15.779 5.732 15.734 5.732C15.554 5.732 15.373 5.959 15.373 6.232C15.373 6.55 15.644 7.005 16.41 7.005C16.524 7.005 16.674 6.991 16.836 6.942C17.091 7.138 17.404 7.233 17.718 7.233C18.031 7.233 18.345 7.138 18.599 6.942C18.761 6.991 18.912 7.005 19.025 7.005C19.792 7.005 20.062 6.55 20.062 6.232C20.062 5.959 19.882 5.732 19.701 5.732C19.656 5.732 19.611 5.777 19.701 5.868C19.792 5.959 19.792 6.05 19.792 6.095C19.792 6.368 19.521 6.596 19.07 6.596C19.018 6.596 18.967 6.592 18.918 6.586C19.068 6.343 19.16 6.03 19.16 5.641C19.16 5.55 19.16 5.459 19.07 5.459C19.025 5.459 18.98 5.459 18.935 5.686C18.872 6.004 18.731 6.272 18.539 6.468C18.201 6.284 17.988 5.913 17.988 5.413C17.988 4.731 18.574 4.139 19.746 4.139C21.099 4.139 22.496 4.731 24.661 7.142L27.14 9.871C27.636 10.462 28.177 10.917 28.718 11.327C29.079 11.6 29.394 11.781 29.755 12.009C29.304 12.282 28.988 12.555 28.718 12.828C28.628 12.282 28.177 11.872 27.591 11.872C27.14 11.872 26.779 12.145 26.599 12.464C26.509 12.646 26.374 12.782 26.193 12.782C26.058 12.782 25.968 12.691 25.968 12.555C25.968 12.464 25.923 12.373 25.833 12.373C25.697 12.373 25.652 12.509 25.652 12.6C25.652 12.919 25.878 13.146 26.193 13.146C26.328 13.146 26.419 13.101 26.509 13.055C26.509 13.283 26.779 13.737 27.32 13.737C27.501 13.737 27.636 13.692 27.636 13.556C27.636 13.419 27.546 13.419 27.411 13.419C27.095 13.419 26.915 13.237 26.915 12.919C26.915 12.6 27.185 12.282 27.591 12.282C28.042 12.282 28.357 12.6 28.357 13.146C28.357 13.419 28.222 13.646 28.222 14.01C28.222 14.556 28.493 15.011 28.943 15.148C26.779 16.103 25.742 18.013 25.742 19.742C25.742 21.334 26.283 22.608 27.591 23.836L28.628 24.837C29.845 25.974 30.927 27.247 30.927 29.112C30.927 31.023 29.529 32.388 27.681 32.388ZM17.718 40.848C17.357 40.121 16.951 39.666 16.771 39.438C17.222 39.256 17.537 38.938 17.718 38.574C17.898 38.938 18.214 39.256 18.664 39.438C18.484 39.666 18.078 40.121 17.718 40.848ZM18.174 6.725C18.032 6.789 17.878 6.823 17.718 6.823C17.557 6.823 17.403 6.789 17.262 6.725C17.438 6.591 17.601 6.394 17.718 6.11C17.835 6.394 17.997 6.591 18.174 6.725ZM31.648 27.156C31.378 27.156 31.152 27.293 31.062 27.475C30.702 26.656 30.341 25.883 28.763 24.427C28.853 24.473 29.169 24.518 29.394 24.518C29.89 24.518 30.431 24.382 30.747 24.063C30.837 24.382 31.107 24.564 31.423 24.564C31.919 24.564 32.099 24.245 32.099 23.881C32.099 23.745 32.054 23.608 31.919 23.608C31.648 23.608 31.874 24.154 31.423 24.154C31.243 24.154 31.107 24.018 31.107 23.79C31.107 23.563 31.243 23.29 31.243 22.972C31.243 22.244 30.792 21.743 30.251 21.607C29.935 21.516 29.755 21.288 29.755 21.016C29.755 20.652 30.025 20.606 30.206 20.606C30.386 20.606 30.521 20.652 30.521 20.515C30.521 20.379 30.386 20.288 30.116 20.288C29.8 20.288 29.349 20.515 29.349 21.016C29.349 21.198 29.394 21.379 29.575 21.561C29.169 21.652 28.808 21.971 28.808 22.471C28.808 22.79 28.898 23.108 29.124 23.108C29.394 23.108 29.169 22.881 29.169 22.517C29.169 22.107 29.529 21.925 29.89 21.925C30.386 21.925 30.837 22.38 30.837 22.972C30.837 23.654 30.296 24.109 29.439 24.109C28.943 24.109 28.222 24.018 27.636 23.335C26.689 22.289 26.148 21.379 26.148 19.742C26.148 17.649 27.636 15.83 29.8 15.239C30.251 15.102 30.611 14.693 30.611 14.147C30.611 13.692 30.341 13.328 29.89 13.328C29.71 13.328 29.575 13.374 29.575 13.51C29.575 13.646 29.71 13.646 29.8 13.646C29.98 13.646 30.206 13.828 30.206 14.147C30.206 14.602 29.845 14.875 29.439 14.875C28.943 14.875 28.628 14.511 28.628 14.01C28.628 13.055 29.755 12.418 30.611 12.009C29.845 11.645 29.575 11.509 28.988 11.054C28.853 10.917 28.808 10.781 28.808 10.599C28.808 10.371 28.943 10.189 29.124 10.189C29.259 10.189 29.349 10.28 29.349 10.417C29.349 10.553 29.259 10.553 29.259 10.644C29.259 10.735 29.304 10.781 29.394 10.781C29.484 10.781 29.71 10.69 29.71 10.326C29.71 10.053 29.529 9.78 29.124 9.78C28.718 9.78 28.402 10.098 28.402 10.553C28.087 10.28 27.726 9.962 27.411 9.598L25.968 8.006C25.562 7.551 25.788 6.687 26.374 6.687C26.689 6.687 26.824 6.914 26.824 7.096C26.824 7.506 26.419 7.324 26.419 7.551C26.419 7.642 26.464 7.733 26.599 7.733C26.915 7.733 27.23 7.506 27.23 7.051C27.23 6.641 26.87 6.277 26.374 6.277C25.788 6.277 25.382 6.732 25.382 7.369L24.931 6.869C22.947 4.685 21.324 3.73 19.746 3.73C19.16 3.73 18.619 3.912 18.304 4.139C18.033 3.821 17.898 3.594 17.718 3.321C17.537 3.594 17.402 3.821 17.132 4.139C16.816 3.912 16.275 3.73 15.689 3.73C14.111 3.73 12.488 4.685 10.504 6.869L10.054 7.369C10.054 6.732 9.648 6.277 9.062 6.277C8.566 6.277 8.205 6.641 8.205 7.051C8.205 7.506 8.521 7.733 8.836 7.733C8.972 7.733 9.017 7.642 9.017 7.551C9.017 7.324 8.611 7.506 8.611 7.096C8.611 6.914 8.746 6.687 9.062 6.687C9.648 6.687 9.873 7.551 9.468 8.006L8.025 9.598C7.709 9.962 7.349 10.28 7.033 10.553C7.033 10.098 6.717 9.78 6.312 9.78C5.906 9.78 5.726 10.053 5.726 10.326C5.726 10.69 5.951 10.781 6.041 10.781C6.131 10.781 6.176 10.735 6.176 10.644C6.176 10.553 6.086 10.553 6.086 10.417C6.086 10.28 6.176 10.189 6.312 10.189C6.492 10.189 6.627 10.371 6.627 10.599C6.627 10.781 6.582 10.917 6.447 11.054C5.906 11.6 5.59 11.645 4.824 12.009C5.68 12.418 6.808 13.055 6.808 14.01C6.808 14.511 6.492 14.875 5.996 14.875C5.59 14.875 5.23 14.602 5.23 14.147C5.23 13.828 5.455 13.646 5.635 13.646C5.726 13.646 5.861 13.646 5.861 13.51C5.861 13.374 5.726 13.328 5.545 13.328C5.094 13.328 4.824 13.692 4.824 14.147C4.824 14.693 5.185 15.102 5.635 15.239C7.799 15.875 9.287 17.649 9.287 19.742C9.287 21.379 8.701 22.244 7.799 23.335C7.213 24.018 6.492 24.109 5.996 24.109C5.14 24.109 4.598 23.654 4.598 22.972C4.598 22.38 5.049 21.925 5.545 21.925C5.906 21.925 6.267 22.107 6.267 22.517C6.267 22.881 6.041 23.108 6.312 23.108C6.537 23.108 6.627 22.79 6.627 22.471C6.627 21.971 6.267 21.652 5.861 21.561C6.041 21.379 6.086 21.198 6.086 21.016C6.086 20.515 5.635 20.288 5.32 20.288C5.049 20.288 4.914 20.379 4.914 20.515C4.914 20.652 5.049 20.606 5.23 20.606C5.41 20.606 5.68 20.652 5.68 21.016C5.68 21.288 5.5 21.516 5.185 21.607C4.644 21.743 4.193 22.244 4.193 22.972C4.193 23.29 4.328 23.563 4.328 23.79C4.328 24.018 4.193 24.154 4.012 24.154C3.562 24.154 3.787 23.608 3.517 23.608C3.381 23.608 3.336 23.745 3.336 23.881C3.336 24.245 3.517 24.564 4.012 24.564C4.328 24.564 4.598 24.382 4.689 24.063C5.004 24.382 5.545 24.518 6.041 24.518C6.267 24.518 6.582 24.473 6.672 24.427C5.094 25.883 4.734 26.656 4.373 27.475C4.283 27.293 4.058 27.156 3.787 27.156C3.336 27.156 3.111 27.429 3.111 27.839C3.111 27.93 3.111 28.203 3.336 28.203C3.517 28.203 3.426 28.021 3.426 27.884C3.426 27.702 3.562 27.566 3.787 27.566C4.148 27.566 4.238 27.884 4.148 28.385C4.103 28.612 4.103 28.885 4.103 29.112C4.103 31.25 5.68 32.797 7.754 32.797C8.07 32.797 8.34 32.751 8.656 32.706L9.287 33.661C8.836 33.798 8.521 34.207 8.521 34.662C8.521 35.253 8.972 35.708 9.558 35.708C9.918 35.708 10.189 35.526 10.189 35.344C10.189 35.208 10.099 35.162 10.008 35.162C9.873 35.162 9.873 35.299 9.558 35.299C9.197 35.299 8.927 35.026 8.927 34.662C8.927 34.298 9.242 34.025 9.693 34.025C10.549 34.025 10.955 35.026 11.541 36.027L12.127 37.027C13.074 38.665 14.607 39.62 15.869 39.62C16.05 39.62 16.23 39.62 16.41 39.575C16.951 40.121 17.492 41.121 17.718 41.576C17.943 41.121 18.484 40.121 19.025 39.575C19.205 39.62 19.386 39.62 19.566 39.62C20.828 39.62 22.361 38.665 23.308 37.027L23.894 36.027C24.48 35.026 24.886 34.025 25.742 34.025C26.193 34.025 26.509 34.298 26.509 34.662C26.509 35.026 26.238 35.299 25.878 35.299C25.562 35.299 25.562 35.162 25.427 35.162C25.337 35.162 25.247 35.208 25.247 35.344C25.247 35.526 25.517 35.708 25.878 35.708C26.464 35.708 26.915 35.253 26.915 34.662C26.915 34.207 26.599 33.798 26.148 33.661L26.779 32.706C27.095 32.751 27.366 32.797 27.681 32.797C29.755 32.797 31.333 31.25 31.333 29.112C31.333 28.885 31.333 28.612 31.288 28.385C31.198 27.884 31.288 27.566 31.648 27.566C31.874 27.566 32.009 27.702 32.009 27.884C32.009 28.021 31.919 28.203 32.099 28.203C32.325 28.203 32.325 27.93 32.325 27.839C32.325 27.429 32.099 27.156 31.648 27.156ZM30.476 34.98C28.493 37.027 25.562 38.483 22.767 39.848C20.919 40.757 19.115 41.667 17.718 42.759C16.32 41.667 14.517 40.757 12.668 39.848C9.873 38.483 6.943 37.027 4.959 34.98C2.435 32.388 1.217 29.749 1.217 26.747C1.217 24.2 2.209 22.062 4.463 19.196C4.644 18.969 4.824 18.741 4.824 18.559C4.824 18.377 4.644 18.013 4.553 17.831L2.976 14.374C2.615 13.601 2.254 12.873 2.254 12.1C2.254 11.463 2.66 11.008 3.201 10.553L5.455 8.506C5.545 8.415 5.545 8.279 5.5 8.188L4.779 6.687C4.689 6.505 4.689 6.368 4.824 6.277C7.033 4.776 8.881 4.321 11.541 3.594C14.066 2.911 16.32 2.32 17.718 1.41C19.115 2.32 21.369 2.911 23.894 3.594C26.554 4.321 28.357 4.867 30.611 6.277C30.747 6.368 30.747 6.505 30.657 6.687L29.935 8.188C29.89 8.279 29.89 8.415 29.98 8.506L32.234 10.553C32.775 11.008 33.181 11.463 33.181 12.1C33.181 12.873 32.821 13.601 32.46 14.374L30.882 17.831C30.792 18.013 30.611 18.377 30.611 18.559C30.611 18.741 30.792 18.969 30.972 19.196C33.407 21.925 34.218 24.2 34.218 26.747C34.218 29.749 33.001 32.388 30.476 34.98ZM32.595 19.332C32.189 18.832 31.964 18.605 31.964 18.423C31.964 18.241 32.099 17.968 32.234 17.649L33.587 14.647C33.993 13.737 34.353 12.964 34.353 12.009C34.353 11.327 34.083 10.644 33.407 10.053L31.468 8.37C31.288 8.233 31.288 8.006 31.378 7.824L32.099 6.186C32.144 6.095 32.144 5.959 32.009 5.868C29.8 4.367 27.275 3.457 24.886 2.775C22.496 2.138 19.296 1.228 17.718 0C16.14 1.228 12.939 2.092 10.549 2.775C8.16 3.457 5.635 4.367 3.426 5.868C3.291 5.959 3.291 6.095 3.336 6.186L4.058 7.824C4.148 8.006 4.148 8.233 3.967 8.37L2.029 10.053C1.353 10.644 1.082 11.327 1.082 12.009C1.082 12.964 1.443 13.737 1.848 14.647L3.201 17.649C3.336 17.968 3.471 18.241 3.471 18.423C3.471 18.605 3.246 18.832 2.84 19.332C0.812 21.88 0 23.972 0 26.747C0 30.614 1.894 33.57 4.058 35.799C6.267 38.074 9.332 39.575 12.127 40.939C13.976 41.849 15.914 42.759 17.718 44.215C19.521 42.759 21.46 41.849 23.308 40.939C26.103 39.575 29.214 38.074 31.378 35.799C33.542 33.57 35.435 30.614 35.435 26.747C35.435 23.972 34.624 21.88 32.595 19.332Z" fill="rgb(30,32,68)" fill-opacity="1.000" fill-rule="evenodd" transform="matrix(1 0 0 1 12 8)"/></svg>