<svg xmlns="http://www.w3.org/2000/svg" viewBox="0 0 60 60" width="60" height="60"><path d="M0 0L60 0L60 60L0 60L0 0Z" fill="rgb(255,255,255)" fill-opacity="1.000" fill-rule="nonzero" transform="matrix(1 0 0 1 0 0)"/><path d="M12.999 17.958C10.058 17.958 7.668 15.616 7.668 12.735C7.668 9.854 10.058 7.513 12.999 7.513C15.939 7.513 18.33 9.854 18.33 12.735C18.33 15.616 15.939 17.958 12.999 17.958ZM12.999 0C5.831 0 0 5.713 0 12.735L0 32.25L7.668 32.25L7.668 24.369L8.271 24.601C9.78 25.178 11.369 25.471 12.999 25.471C20.167 25.471 25.998 19.758 25.998 12.735C25.998 5.713 20.167 0 12.999 0Z" fill="rgb(65,65,65)" fill-opacity="1.000" fill-rule="nonzero" transform="matrix(1 0 0 1 17.1865 18.75)"/><path d="M0 7.167L7.172 7.167L7.172 0L0 0L0 7.167Z" fill="rgb(0,197,255)" fill-opacity="1.000" fill-rule="nonzero" transform="matrix(1 0 0 1 17.1862 8)"/></svg>