<svg xmlns="http://www.w3.org/2000/svg" viewBox="0 0 60 60" width="60" height="60"><path d="M0 0L60 0L60 60L0 60L0 0Z" fill="rgb(255,255,255)" fill-opacity="1.000" fill-rule="nonzero" transform="matrix(1 0 0 1 0 0)"/><path d="M0 11.277C0 5.037 4.99 0 11.161 0C17.332 0 22.322 5.047 22.322 11.277C22.322 17.506 17.332 22.553 11.161 22.553C4.99 22.553 0 17.506 0 11.277Z" fill="rgb(23,169,144)" fill-opacity="1.000" fill-rule="nonzero" transform="matrix(1 0 0 1 18.7803 18.7186)"/><path d="M4.114 19.004C4.114 10.809 10.685 4.16 18.798 4.16C26.912 4.16 33.482 10.8 33.482 19.004C33.482 27.209 26.912 33.849 18.798 33.849C10.685 33.849 4.114 27.209 4.114 19.004ZM0 19.004C0 8.51 8.418 0 18.798 0C29.178 0 37.596 8.51 37.596 19.004C37.596 29.498 29.178 38.008 18.798 38.008C8.418 38.008 0 29.498 0 19.004Z" fill="rgb(250,174,40)" fill-opacity="1.000" fill-rule="evenodd" transform="matrix(1 0 0 1 11.1436 10.9917)"/></svg>