<svg xmlns="http://www.w3.org/2000/svg" viewBox="0 0 60 60" width="60" height="60"><path d="M0 0L60 0L60 60L0 60L0 0Z" fill="rgb(255,255,255)" fill-opacity="1.000" fill-rule="nonzero" transform="matrix(1 0 0 1 0 0)"/><path d="M35.587 7.793C32.778 7.558 30.273 6.591 28.397 5.652C26.978 4.931 25.919 4.242 25.38 3.9L20.728 10.977C20.897 11.141 20.984 11.25 20.984 11.25C22.549 12.259 24.027 13.038 25.428 13.607C29.444 15.256 32.819 15.228 35.588 14.359C42.493 12.187 45.652 4.746 45.652 4.746C42.23 7.394 38.722 8.05 35.587 7.793ZM0 10.883C4.346 7.162 8.311 6.218 11.602 6.501L15.791 0.184C3.552 -1.653 0 10.883 0 10.883Z" fill="rgb(255,204,0)" fill-opacity="1.000" fill-rule="nonzero" transform="matrix(1 0 0 1 7.3484 25.8055)"/><path d="M22.599 24.57L20.365 30.552L32.759 30.552L32.759 25.322C29.989 26.191 26.615 26.219 22.599 24.57ZM20.365 0L12.963 11.146L8.774 17.464L0 30.674L12.145 30.674L17.899 21.94L22.551 14.863L31.04 1.971L25.569 16.615C27.445 17.554 29.95 18.521 32.759 18.756L32.759 0L20.365 0Z" fill="rgb(39,132,40)" fill-opacity="1.000" fill-rule="nonzero" transform="matrix(1 0 0 1 10.1773 14.8431)"/></svg>