<svg xmlns="http://www.w3.org/2000/svg" viewBox="0 0 60 60" width="60" height="60"><path d="M0 0L60 0L60 60L0 60L0 0Z" fill="rgb(255,255,255)" fill-opacity="1.000" fill-rule="nonzero" transform="matrix(1 0 0 1 0 0)"/><path d="M8.012 0C9.211 0 9.486 0.795 10.165 5.246C10.527 7.601 10.714 10.607 10.714 14.133C10.714 16.518 10.527 18.064 10.165 18.801C9.992 19.177 9.544 19.321 9.183 19.119C8.706 18.873 8.402 18.498 8.287 17.992C8.243 17.761 8.243 17.515 8.272 17.269C8.359 16.662 8.691 15.275 8.691 13.902C8.691 13.107 8.691 11.734 8.576 9.653L8.243 9.653L8.359 9.653C7.246 9.653 5.931 9.798 5.122 10.116C3.33 10.795 2.188 12.544 2.188 14.451L2.188 15.029C2.188 16.185 2.708 16.821 3.749 16.821C4.732 16.821 5.931 15.925 7.347 14.133L7.564 13.902C7.665 13.787 7.853 13.815 7.911 13.946C7.983 14.061 7.998 14.206 7.954 14.336C6.957 17.197 5.483 18.628 3.532 18.628C2.188 18.628 1.191 17.934 0.541 16.532C-0.023 15.347 -0.124 13.989 0.136 12.703C0.757 9.798 3.33 7.818 5.729 7.63C7.203 7.515 8.344 7.862 8.344 7.862C8.229 4.451 7.347 1.344 7.347 1.344L7.289 0.925C7.246 0.477 7.564 0.058 8.012 0Z" fill="rgb(4,19,62)" fill-opacity="1.000" fill-rule="evenodd" transform="matrix(1 0 0 1 6 17)"/><path d="M1.474 0.007C1.705 0.022 1.922 0.108 2.081 0.267C2.399 0.614 2.529 1.221 2.471 2.088L2.312 4.617C2.269 5.253 2.283 5.903 2.356 6.539C2.457 7.478 2.645 7.955 3.223 7.984L4.205 8.042L4.408 8.056C4.624 8.071 4.783 8.259 4.769 8.461C4.754 8.678 4.668 8.866 4.538 9.025C4.234 9.357 3.83 9.675 3.309 9.964C3.035 10.123 2.717 10.195 2.413 10.181C1.127 10.094 0.708 8.895 0.26 6.582C0.116 5.802 0.043 5.022 0.029 4.241L0 2.131C0.101 0.629 0.289 -0.08 1.474 0.007Z" fill="rgb(4,19,62)" fill-opacity="1.000" fill-rule="evenodd" transform="matrix(1 0 0 1 18.5498 25.8227)"/><path d="M1.488 0.007C1.705 0.022 1.922 0.108 2.081 0.267C2.399 0.614 2.529 1.221 2.471 2.088L2.312 4.617C2.269 5.253 2.283 5.903 2.356 6.539C2.471 7.478 2.645 7.955 3.223 7.984L4.205 8.042L4.408 8.056C4.624 8.071 4.783 8.259 4.769 8.461C4.754 8.678 4.682 8.866 4.538 9.025C4.234 9.357 3.83 9.675 3.309 9.964C3.035 10.123 2.731 10.195 2.413 10.181C1.127 10.094 0.723 8.895 0.26 6.582C0.116 5.802 0.043 5.022 0.029 4.241L0 2.131C0.101 0.629 0.289 -0.08 1.488 0.007Z" fill="rgb(4,19,62)" fill-opacity="1.000" fill-rule="evenodd" transform="matrix(1 0 0 1 35.6167 25.8227)"/><path d="M7.084 0.075C7.777 -0.156 8.543 0.162 8.832 0.826C9.468 2.272 9.786 5.306 9.786 9.945L9.786 10.61C9.786 14.917 8.485 17.792 5.87 19.209C5.422 19.454 4.916 19.584 4.41 19.584C3.081 19.584 2.112 18.717 1.505 16.997C1.346 16.55 1.26 16.087 1.231 15.625C1.202 15.263 1.52 14.989 1.867 15.047C2.054 15.075 2.185 15.206 2.286 15.35C2.777 15.957 3.109 16.477 3.803 17.041C4.034 17.229 4.323 17.344 4.627 17.344C5.508 17.344 6.26 16.593 6.852 15.075C7.329 13.847 7.546 12.532 7.517 11.203L7.445 8.095C7.445 8.095 5.176 11.174 2.387 11.058C0.739 11 -0.446 9.512 0.161 6.838C0.653 4.598 1.693 3.038 3.76 1.65C4.728 1.014 5.768 0.509 6.867 0.147L7.084 0.075ZM2.213 7.749L2.213 7.821C2.271 8.37 2.734 8.789 3.283 8.818C4.583 8.818 6.65 6.954 7.112 4.786C7.257 4.107 7.17 3.514 6.968 3.038C6.968 3.038 6.953 3.038 6.953 3.023C6.838 2.749 6.505 2.647 6.245 2.792C3.861 3.991 2.213 5.884 2.213 7.749Z" fill="rgb(4,19,62)" fill-opacity="1.000" fill-rule="evenodd" transform="matrix(1 0 0 1 24.3279 23.9483)"/><path d="M7.23 0L7.345 0C7.678 0 8.01 0.159 8.198 0.448C8.212 0.462 8.212 0.491 8.227 0.506C8.472 0.954 8.574 1.46 8.53 1.965L8.371 3.989L8.27 5.275C8.256 5.434 8.4 5.564 8.559 5.549C9.094 5.506 10.308 5.419 12.114 5.333C12.692 5.304 13.184 5.781 13.155 6.359C13.14 6.864 12.808 7.312 12.331 7.457C11.666 7.659 10.582 7.804 8.949 8.035C8.747 8.064 8.574 8.237 8.574 8.454L8.574 8.526L8.574 8.757L8.574 9.205C8.574 12.038 8.285 13.469 7.678 13.469L7.591 13.469C7.302 13.469 7.027 13.367 6.825 13.18C6.204 12.602 5.886 11.489 5.886 9.87L5.871 8.772C5.857 8.584 5.698 8.44 5.51 8.454C5.322 8.468 5.062 8.497 4.715 8.541C3.472 8.714 2.201 8.96 1.117 8.974C1.001 8.974 0.885 8.96 0.784 8.945L0.727 8.931C0.279 8.844 -0.039 8.425 0.004 7.977L0.033 7.544C0.047 7.414 0.076 7.298 0.134 7.182C0.25 6.966 0.423 6.734 0.857 6.648C1.637 6.489 1.868 6.489 2.836 6.359L4.715 6.156C5.626 6.041 5.886 6.055 5.886 5.159L5.886 1.344C5.886 0.607 6.493 0 7.23 0Z" fill="rgb(226,71,71)" fill-opacity="1.000" fill-rule="evenodd" transform="matrix(1 0 0 1 40.8442 21.2197)"/><path d="M1.641 4.313L0 4.313L0 0L1.583 0C2.331 0 2.807 0.454 2.807 1.186C2.807 1.651 2.535 1.981 2.263 2.094C2.574 2.228 2.875 2.559 2.875 3.095C2.875 3.89 2.36 4.313 1.641 4.313ZM1.525 0.588L0.612 0.588L0.612 1.826L1.525 1.826C1.923 1.826 2.195 1.609 2.195 1.207C2.195 0.805 1.923 0.588 1.525 0.588ZM1.583 2.414L0.612 2.414L0.612 3.724L1.583 3.724C2.011 3.724 2.253 3.446 2.253 3.064C2.253 2.682 2.011 2.414 1.583 2.414Z" fill="rgb(4,19,62)" fill-opacity="1.000" fill-rule="evenodd" transform="matrix(1 0 0 1 19 16)"/><path d="M2.836 4.313L2.552 3.446L0.939 3.446L0.655 4.313L0 4.313L1.496 0L1.995 0L3.491 4.313L2.836 4.313ZM1.76 0.98L1.125 2.889L2.376 2.889L1.76 0.98Z" fill="rgb(4,19,62)" fill-opacity="1.000" fill-rule="evenodd" transform="matrix(1 0 0 1 23.7233 16)"/><path d="M1.545 4.313C1.102 4.313 0.711 4.15 0.412 3.856C-0.01 3.44 0 2.973 0 2.151C0 1.339 -0.01 0.863 0.412 0.446C0.711 0.162 1.102 0 1.545 0C2.339 0 2.936 0.457 3.08 1.299L2.421 1.299C2.318 0.873 2.019 0.578 1.545 0.578C1.288 0.578 1.061 0.67 0.907 0.832C0.701 1.055 0.649 1.299 0.649 2.151C0.649 3.004 0.701 3.247 0.907 3.48C1.061 3.643 1.288 3.734 1.545 3.734C2.019 3.734 2.318 3.44 2.421 3.004L3.08 3.004C2.936 3.856 2.328 4.313 1.545 4.313Z" fill="rgb(4,19,62)" fill-opacity="1.000" fill-rule="evenodd" transform="matrix(1 0 0 1 33.9911 16)"/><path d="M2.67 3.856C2.382 4.15 2.002 4.313 1.54 4.313C1.078 4.313 0.708 4.15 0.411 3.856C-0.01 3.44 0 2.973 0 2.151C0 1.339 -0.01 0.863 0.411 0.446C0.708 0.162 1.078 0 1.54 0C2.002 0 2.382 0.162 2.67 0.446C3.101 0.863 3.08 1.339 3.08 2.151C3.08 2.973 3.101 3.44 2.67 3.856ZM2.177 0.832C2.033 0.68 1.797 0.578 1.54 0.578C1.283 0.578 1.047 0.68 0.904 0.832C0.688 1.065 0.647 1.299 0.647 2.151C0.647 3.004 0.688 3.247 0.904 3.47C1.047 3.633 1.283 3.734 1.54 3.734C1.797 3.734 2.033 3.633 2.177 3.47C2.392 3.247 2.433 3.004 2.433 2.151C2.433 1.299 2.392 1.065 2.177 0.832Z" fill="rgb(4,19,62)" fill-opacity="1.000" fill-rule="evenodd" transform="matrix(1 0 0 1 38.9197 16)"/><path d="M2.67 4.313L0.657 1.279L0.657 4.313L0 4.313L0 0L0.605 0L2.618 3.033L2.618 0L3.286 0L3.286 4.313L2.67 4.313Z" fill="rgb(4,19,62)" fill-opacity="1.000" fill-rule="evenodd" transform="matrix(1 0 0 1 28.8571 16)"/></svg>