<svg xmlns="http://www.w3.org/2000/svg" viewBox="0 0 60 60" width="60" height="60"><path d="M0 0L60 0L60 60L0 60L0 0Z" fill="rgb(255,255,255)" fill-opacity="1.000" fill-rule="nonzero" transform="matrix(1 0 0 1 0 0)"/><path d="M6.777 6.549C6.777 6.924 6.513 7.083 6.095 7.083L5.223 7.083L5.223 6.016L6.157 6.016C6.556 6.016 6.777 6.203 6.777 6.535L6.777 6.549ZM7.017 8.567L7.017 8.553C7.017 8.214 6.802 8.005 6.317 8.005L5.223 8.005L5.223 9.115L6.347 9.115C6.765 9.115 7.017 8.942 7.017 8.567ZM13.947 7.976L12.805 7.976L13.376 6.34L13.947 7.976ZM23.564 20.499C23.564 21.853 22.61 22.425 21.101 22.425L18.024 22.425L18.024 18.573L21.323 18.573C22.766 18.573 23.564 19.25 23.564 20.447L23.564 20.499ZM21.89 25.753C23.642 25.753 24.419 26.508 24.419 27.731L24.419 27.782C24.419 29.11 23.541 29.735 22.083 29.757L18.024 29.757L18.024 25.753L21.89 25.753ZM36.838 9.151C37.6 9.151 38.128 8.445 38.128 7.58L38.128 7.565C38.128 6.701 37.588 5.981 36.826 5.981C36.064 5.981 35.536 6.686 35.536 7.551L35.536 7.565C35.536 8.43 36.076 9.151 36.838 9.151ZM43 0L43 29.757L42.911 29.757L41.133 27.651C39.929 28.935 38.856 29.757 37.104 29.757C34.476 29.757 32.658 27.188 32.658 24.106L32.658 24.055C32.658 20.972 34.52 18.455 37.104 18.455C38.469 18.455 39.574 19.067 40.634 20.089L42.798 17.174C41.442 15.754 39.77 14.807 37.126 14.807C32.417 14.807 29.132 18.995 29.132 24.106L29.132 24.157C29.132 26.275 29.696 28.21 30.673 29.757L27.588 29.757C27.707 29.305 27.769 28.81 27.769 28.27L27.769 28.219C27.769 25.804 26.674 24.546 24.9 23.75C25.995 23.031 26.915 21.85 26.915 19.821L26.915 19.769C26.915 16.944 24.988 15.121 21.857 15.121L14.739 15.121L14.739 29.757L13.991 29.757L8.685 15.131L5.393 15.131L0.087 29.757L0 29.757L0 0L43 0ZM34.546 7.58C34.546 9.014 35.499 10.174 36.826 10.174C38.153 10.174 39.117 8.999 39.117 7.566L39.117 7.551C39.117 6.117 38.165 4.957 36.838 4.957C35.511 4.957 34.546 6.132 34.546 7.566L34.546 7.58ZM27.058 7.58C27.058 9.028 27.998 10.174 29.263 10.174C30.092 10.174 30.584 9.828 31.026 9.274L30.424 8.56C30.086 8.92 29.785 9.151 29.294 9.151C28.556 9.151 28.047 8.431 28.047 7.566L28.047 7.551C28.047 6.687 28.569 5.98 29.294 5.98C29.724 5.98 30.062 6.197 30.393 6.549L30.995 5.735C30.596 5.274 30.111 4.957 29.3 4.957C27.979 4.957 27.058 6.132 27.058 7.566L27.058 7.58ZM19.317 10.088L20.25 10.088L20.25 6.881L22.333 10.088L23.138 10.088L23.138 5.043L22.204 5.043L22.204 8.149L20.189 5.043L19.317 5.043L19.317 10.088ZM11.109 10.088L12.073 10.088L12.467 8.956L14.285 8.956L14.678 10.088L15.667 10.088L13.824 5.007L12.952 5.007L11.109 10.088ZM4.302 10.088L6.347 10.088C7.318 10.088 7.957 9.626 7.957 8.704L7.957 8.69C7.957 8.012 7.65 7.674 7.152 7.45C7.459 7.248 7.717 6.931 7.717 6.363L7.717 6.348C7.717 5.555 7.177 5.043 6.298 5.043L4.302 5.043L4.302 10.088ZM7.017 19.748L10.496 29.757L3.538 29.757L7.017 19.748ZM43 42.871L37.79 42.871L37.79 33.79L39.494 33.79L39.494 41.054L43 41.054L43 42.871ZM33.532 42.871L35.235 42.871L35.235 33.79L33.532 33.79L33.532 42.871ZM28.306 43C27.134 43 25.95 42.52 25.021 41.547L26.027 40.133C26.724 40.808 27.454 41.236 28.339 41.236C29.036 41.236 29.456 40.912 29.456 40.38L29.456 40.354C29.456 39.848 29.191 39.589 27.897 39.199C26.337 38.733 25.331 38.226 25.331 36.424L25.331 36.398C25.331 34.75 26.459 33.66 28.04 33.66C29.169 33.66 30.131 34.075 30.916 34.815L30.031 36.319C29.345 35.761 28.671 35.425 28.018 35.425C27.366 35.425 27.023 35.775 27.023 36.216L27.023 36.241C27.023 36.838 27.355 37.033 28.693 37.436C30.263 37.915 31.148 38.577 31.148 40.16L31.148 40.186C31.148 41.988 29.976 43 28.306 43ZM22.357 42.871L21.649 40.834L18.376 40.834L17.668 42.871L15.932 42.871L19.249 33.725L20.82 33.725L24.138 42.871L22.357 42.871ZM20.013 36.125L18.984 39.07L21.041 39.07L20.013 36.125ZM13.153 42.871L11.494 39.965L10.156 39.965L10.156 42.871L8.453 42.871L8.453 33.79L11.992 33.79C13.817 33.79 14.912 34.918 14.912 36.787L14.912 36.813C14.912 38.278 14.237 39.199 13.253 39.627L15.144 42.871L13.153 42.871ZM13.186 36.89C13.186 36.034 12.678 35.593 11.848 35.593L10.156 35.593L10.156 38.201L11.881 38.201C12.711 38.201 13.186 37.682 13.186 36.917L13.186 36.89ZM3.684 42.871L0.001 42.871L0.001 33.79L3.595 33.79C5.177 33.79 6.15 34.711 6.15 36.138L6.15 36.164C6.15 37.189 5.685 37.76 5.133 38.123C6.028 38.525 6.582 39.134 6.582 40.354L6.582 40.38C6.582 42.04 5.431 42.871 3.684 42.871ZM4.458 36.475C4.458 35.878 4.06 35.541 3.341 35.541L1.66 35.541L1.66 37.461L3.23 37.461C3.982 37.461 4.458 37.176 4.458 36.501L4.458 36.475ZM4.889 40.107C4.889 39.498 4.502 39.122 3.629 39.122L1.66 39.122L1.66 41.119L3.684 41.119C4.436 41.119 4.889 40.808 4.889 40.134L4.889 40.107Z" fill="rgb(166,135,75)" fill-opacity="1.000" fill-rule="evenodd" transform="matrix(1 0 0 1 8 8)"/></svg>