<svg xmlns="http://www.w3.org/2000/svg" viewBox="0 0 130 60" width="130" height="60"><path d="M0 0L130 0L130 60L0 60L0 0Z" fill="rgb(255,255,255)" fill-opacity="1.000" fill-rule="nonzero" transform="matrix(1 0 0 1 0 0)"/><path d="M3.406 3.138L0 3.138L1.695 0L3.406 3.138Z" fill="rgb(199,159,42)" fill-opacity="1.000" fill-rule="evenodd" transform="matrix(1 0 0 1 69.1873 20.895)"/><path d="M17.058 16.791L8.529 0.922L0 16.791L8.529 0L17.058 16.791Z" fill="rgb(15,38,89)" fill-opacity="1.000" fill-rule="evenodd" transform="matrix(1 0 0 1 62.3532 19.9725)"/><path d="M68.532 5.927C68.481 5.927 68.469 5.889 68.481 5.838L69.649 2.716C69.662 2.666 69.687 2.602 69.725 2.602C69.763 2.602 69.776 2.666 69.789 2.716L70.931 5.851C70.944 5.889 70.931 5.927 70.868 5.927L68.532 5.927ZM71.109 6.562C71.172 6.562 71.21 6.587 71.236 6.651L72.251 9.341C72.314 9.494 72.225 9.608 72.137 9.634C72.01 9.646 71.959 9.672 71.959 9.748C71.959 9.836 72.111 9.836 72.34 9.849C73.355 9.875 74.282 9.875 74.739 9.875C75.208 9.875 75.322 9.849 75.322 9.748C75.322 9.659 75.259 9.646 75.158 9.646C75.005 9.646 74.815 9.634 74.624 9.595C74.358 9.532 73.99 9.354 73.507 8.212C72.695 6.283 70.664 1.104 70.36 0.406C70.233 0.114 70.157 0 70.043 0C69.916 0 69.84 0.14 69.687 0.508L66.501 8.479C66.247 9.113 66.006 9.545 65.423 9.621C65.321 9.634 65.143 9.646 65.029 9.646C64.927 9.646 64.877 9.672 64.877 9.748C64.877 9.85 64.953 9.875 65.118 9.875C65.778 9.875 66.476 9.837 66.615 9.837C67.009 9.837 67.555 9.875 67.961 9.875C68.1 9.875 68.177 9.849 68.177 9.748C68.177 9.672 68.139 9.646 67.986 9.646L67.796 9.646C67.402 9.646 67.288 9.481 67.288 9.253C67.288 9.101 67.352 8.796 67.478 8.479L68.164 6.664C68.189 6.587 68.215 6.562 68.278 6.562L71.109 6.562ZM78.749 6.194C78.749 7.818 78.749 8.694 79.016 8.923C79.232 9.113 79.562 9.202 80.552 9.202C81.224 9.202 81.719 9.189 82.037 8.846C82.189 8.682 82.341 8.326 82.367 8.085C82.379 7.971 82.405 7.894 82.506 7.894C82.595 7.894 82.608 7.958 82.608 8.11C82.608 8.25 82.519 9.202 82.418 9.57C82.341 9.849 82.278 9.913 81.618 9.913C79.79 9.913 78.953 9.836 77.925 9.836C77.633 9.836 76.833 9.875 76.325 9.875C76.16 9.875 76.071 9.836 76.071 9.748C76.071 9.684 76.122 9.646 76.274 9.646C76.465 9.646 76.617 9.621 76.731 9.595C76.985 9.545 77.049 9.265 77.099 8.897C77.163 8.364 77.163 7.361 77.163 6.194L77.163 3.96C77.163 2.031 77.163 1.675 77.137 1.269C77.112 0.838 77.011 0.634 76.592 0.546C76.49 0.52 76.338 0.508 76.173 0.508C76.033 0.508 75.957 0.482 75.957 0.393C75.957 0.304 76.046 0.279 76.236 0.279C76.833 0.279 77.632 0.317 77.975 0.317C78.28 0.317 79.206 0.279 79.701 0.279C79.879 0.279 79.967 0.304 79.967 0.393C79.967 0.482 79.891 0.508 79.739 0.508C79.599 0.508 79.396 0.52 79.244 0.546C78.902 0.609 78.8 0.825 78.775 1.269C78.749 1.675 78.749 2.031 78.749 3.96L78.749 6.194L78.749 6.194ZM86.441 6.194C86.441 7.412 86.441 8.364 86.504 8.897C86.543 9.265 86.619 9.545 86.999 9.595C87.177 9.621 87.456 9.646 87.634 9.646C87.799 9.646 87.85 9.684 87.85 9.748C87.85 9.836 87.761 9.875 87.571 9.875C86.771 9.875 85.971 9.836 85.641 9.836C85.311 9.836 84.512 9.875 84.029 9.875C83.852 9.875 83.763 9.849 83.763 9.748C83.763 9.684 83.814 9.646 83.953 9.646C84.144 9.646 84.296 9.621 84.41 9.595C84.664 9.545 84.727 9.265 84.778 8.897C84.842 8.364 84.842 7.412 84.842 6.194L84.842 3.96C84.842 2.031 84.842 1.675 84.816 1.269C84.791 0.838 84.69 0.634 84.271 0.546C84.169 0.52 83.953 0.508 83.776 0.508C83.649 0.508 83.56 0.482 83.56 0.406C83.56 0.304 83.661 0.279 83.852 0.279C84.512 0.279 85.311 0.317 85.679 0.317C86.162 0.317 88.738 0.317 89.03 0.305C89.271 0.292 89.424 0.292 89.551 0.254C89.627 0.228 89.69 0.178 89.754 0.178C89.804 0.178 89.843 0.228 89.843 0.292C89.843 0.381 89.779 0.533 89.741 0.863C89.728 0.99 89.703 1.739 89.677 1.891C89.665 1.992 89.639 2.069 89.551 2.069C89.462 2.069 89.436 2.005 89.424 1.866C89.424 1.764 89.424 1.561 89.348 1.383C89.259 1.206 88.992 1.015 88.51 1.003L86.555 0.964C86.479 0.964 86.441 1.003 86.441 1.142L86.441 4.315C86.441 4.391 86.454 4.429 86.53 4.429L88.154 4.417C88.37 4.417 88.548 4.417 88.725 4.404C88.967 4.391 89.144 4.341 89.271 4.176C89.335 4.1 89.36 4.049 89.436 4.049C89.487 4.049 89.512 4.087 89.512 4.163C89.512 4.239 89.449 4.557 89.411 4.95C89.385 5.204 89.36 5.788 89.36 5.876C89.36 5.991 89.36 6.117 89.233 6.117C89.157 6.117 89.132 6.029 89.132 5.94C89.132 5.851 89.106 5.699 89.056 5.546C88.992 5.369 88.802 5.14 88.408 5.09C88.091 5.051 86.746 5.051 86.53 5.051C86.466 5.051 86.441 5.077 86.441 5.165L86.441 6.194L86.441 6.194ZM93.117 5.927C93.066 5.927 93.053 5.889 93.066 5.838L94.234 2.716C94.246 2.666 94.272 2.602 94.31 2.602C94.348 2.602 94.361 2.666 94.374 2.716L95.516 5.851C95.529 5.889 95.516 5.927 95.452 5.927L93.117 5.927ZM95.694 6.562C95.757 6.562 95.795 6.587 95.82 6.651L96.836 9.341C96.899 9.494 96.81 9.608 96.722 9.634C96.595 9.646 96.544 9.672 96.544 9.748C96.544 9.836 96.696 9.836 96.925 9.849C97.94 9.875 98.866 9.875 99.323 9.875C99.793 9.875 99.907 9.849 99.907 9.748C99.907 9.659 99.844 9.646 99.742 9.646C99.59 9.646 99.4 9.634 99.209 9.595C98.943 9.532 98.575 9.354 98.092 8.212C97.28 6.283 95.249 1.104 94.945 0.406C94.818 0.114 94.742 0 94.627 0C94.501 0 94.425 0.14 94.272 0.508L91.086 8.478C90.832 9.113 90.591 9.545 90.007 9.621C89.906 9.634 89.728 9.646 89.614 9.646C89.512 9.646 89.461 9.672 89.461 9.748C89.461 9.849 89.538 9.875 89.703 9.875C90.363 9.875 91.061 9.837 91.2 9.837C91.594 9.837 92.14 9.875 92.546 9.875C92.685 9.875 92.762 9.849 92.762 9.748C92.762 9.672 92.723 9.646 92.571 9.646L92.381 9.646C91.987 9.646 91.873 9.481 91.873 9.253C91.873 9.1 91.936 8.796 92.063 8.478L92.749 6.663C92.774 6.587 92.799 6.562 92.863 6.562L95.694 6.562ZM2.805 1.041C2.805 0.901 2.83 0.85 2.919 0.825C3.046 0.8 3.16 0.8 3.338 0.8C4.43 0.8 4.924 1.916 4.924 2.767C4.924 3.389 4.734 3.846 4.404 4.112C4.188 4.302 3.909 4.353 3.49 4.353C3.198 4.353 3.008 4.341 2.894 4.315C2.843 4.302 2.805 4.277 2.805 4.175L2.805 1.041ZM1.282 6.194C1.282 7.361 1.282 8.364 1.218 8.897C1.168 9.265 1.104 9.545 0.85 9.595C0.736 9.621 0.584 9.646 0.393 9.646C0.241 9.646 0.19 9.684 0.19 9.748C0.19 9.836 0.279 9.875 0.444 9.875C0.952 9.875 1.752 9.836 2.043 9.836C2.424 9.836 3.579 9.913 3.884 9.913C6.219 9.913 7.273 8.504 7.273 7.146C7.273 5.661 6.004 4.76 4.963 4.404C5.661 3.846 6.257 3.224 6.257 2.183C6.257 1.51 5.851 0.279 3.554 0.279C3.122 0.279 2.627 0.318 2.005 0.318C1.751 0.318 0.952 0.279 0.279 0.279C0.089 0.279 0 0.305 0 0.394C0 0.483 0.076 0.508 0.216 0.508C0.393 0.508 0.609 0.521 0.711 0.546C1.13 0.635 1.231 0.838 1.257 1.27C1.282 1.676 1.282 2.031 1.282 3.96L1.282 6.194L1.282 6.194ZM5.711 7.717C5.711 9.037 4.747 9.341 4.175 9.341C3.884 9.341 3.592 9.328 3.249 9.189C2.843 9.024 2.805 8.808 2.805 7.97L2.805 4.963C2.805 4.899 2.83 4.874 2.881 4.874C3.071 4.874 3.198 4.874 3.427 4.886C3.922 4.912 4.214 5.001 4.48 5.191C5.445 5.864 5.711 6.93 5.711 7.717ZM10.293 5.927C10.243 5.927 10.23 5.889 10.243 5.838L11.41 2.716C11.423 2.666 11.448 2.602 11.486 2.602C11.525 2.602 11.537 2.666 11.55 2.716L12.692 5.851C12.705 5.889 12.692 5.927 12.629 5.927L10.293 5.927ZM12.87 6.562C12.933 6.562 12.971 6.587 12.997 6.651L14.012 9.341C14.075 9.494 13.987 9.608 13.898 9.634C13.771 9.646 13.72 9.672 13.72 9.748C13.72 9.836 13.872 9.836 14.101 9.849C15.116 9.875 16.043 9.875 16.5 9.875C16.969 9.875 17.083 9.849 17.083 9.748C17.083 9.659 17.02 9.646 16.919 9.646C16.766 9.646 16.576 9.634 16.386 9.595C16.119 9.532 15.751 9.354 15.269 8.212C14.456 6.283 12.425 1.104 12.121 0.406C11.994 0.114 11.918 0 11.804 0C11.677 0 11.6 0.14 11.448 0.508L8.263 8.478C8.009 9.113 7.767 9.545 7.184 9.621C7.082 9.634 6.904 9.646 6.79 9.646C6.689 9.646 6.638 9.672 6.638 9.748C6.638 9.849 6.714 9.875 6.879 9.875C7.539 9.875 8.237 9.837 8.376 9.837C8.77 9.837 9.316 9.875 9.722 9.875C9.862 9.875 9.938 9.849 9.938 9.748C9.938 9.672 9.9 9.646 9.747 9.646L9.557 9.646C9.163 9.646 9.049 9.481 9.049 9.253C9.049 9.1 9.112 8.796 9.24 8.478L9.925 6.663C9.95 6.587 9.976 6.562 10.039 6.562L12.87 6.562ZM19.508 8.148C19.533 9.138 19.698 9.468 19.952 9.557C20.168 9.634 20.409 9.646 20.612 9.646C20.752 9.646 20.828 9.672 20.828 9.748C20.828 9.849 20.714 9.875 20.536 9.875C19.711 9.875 19.203 9.836 18.962 9.836C18.848 9.836 18.251 9.875 17.591 9.875C17.426 9.875 17.312 9.862 17.312 9.748C17.312 9.672 17.388 9.646 17.515 9.646C17.68 9.646 17.909 9.634 18.086 9.583C18.416 9.481 18.467 9.113 18.48 8.009L18.594 0.495C18.594 0.241 18.632 0.063 18.759 0.063C18.898 0.063 19.013 0.228 19.228 0.457C19.381 0.622 21.31 2.691 23.163 4.531C24.026 5.394 25.74 7.222 25.955 7.425L26.019 7.425L25.892 1.726C25.879 0.952 25.765 0.711 25.46 0.584C25.27 0.508 24.965 0.508 24.788 0.508C24.635 0.508 24.585 0.469 24.585 0.393C24.585 0.292 24.724 0.279 24.915 0.279C25.575 0.279 26.184 0.317 26.45 0.317C26.59 0.317 27.072 0.279 27.694 0.279C27.859 0.279 27.986 0.292 27.986 0.393C27.986 0.469 27.91 0.508 27.758 0.508C27.631 0.508 27.529 0.508 27.377 0.546C27.022 0.647 26.92 0.914 26.907 1.625L26.768 9.634C26.768 9.913 26.717 10.027 26.603 10.027C26.463 10.027 26.311 9.887 26.171 9.748C25.372 8.986 23.747 7.324 22.427 6.016C21.043 4.645 19.634 3.059 19.406 2.818L19.368 2.818L19.508 8.148ZM29.801 8.669C28.557 7.577 28.227 6.156 28.227 4.924C28.227 4.062 28.494 2.564 29.712 1.447C30.626 0.609 31.832 0.101 33.723 0.101C34.51 0.101 34.98 0.152 35.563 0.228C36.046 0.292 36.452 0.406 36.833 0.444C36.972 0.457 37.023 0.52 37.023 0.597C37.023 0.698 36.985 0.85 36.96 1.294C36.934 1.713 36.947 2.411 36.921 2.665C36.909 2.856 36.883 2.957 36.769 2.957C36.668 2.957 36.642 2.856 36.642 2.678C36.629 2.284 36.464 1.84 36.147 1.51C35.728 1.066 34.738 0.723 33.571 0.723C32.466 0.723 31.743 1.002 31.185 1.51C30.258 2.361 30.017 3.566 30.017 4.798C30.017 7.818 32.314 9.316 34.015 9.316C35.145 9.316 35.83 9.189 36.338 8.605C36.553 8.364 36.719 7.996 36.769 7.768C36.807 7.565 36.833 7.514 36.934 7.514C37.023 7.514 37.049 7.602 37.049 7.704C37.049 7.856 36.896 8.961 36.769 9.392C36.706 9.608 36.655 9.671 36.439 9.76C35.932 9.963 34.967 10.052 34.155 10.052C32.416 10.052 30.956 9.672 29.801 8.669ZM43.268 9.418C40.831 9.418 39.371 7.323 39.371 4.683C39.371 1.523 41.034 0.711 42.493 0.711C44.575 0.711 46.212 2.475 46.212 5.318C46.212 8.986 44.156 9.418 43.268 9.418ZM42.734 10.052C45.958 10.052 47.989 7.755 47.989 4.848C47.989 1.942 46.022 0.101 42.861 0.101C39.054 0.101 37.619 2.906 37.619 5.077C37.62 7.323 39.092 10.052 42.734 10.052Z" fill="rgb(199,159,42)" fill-opacity="1.000" fill-rule="evenodd" transform="matrix(1 0 0 1 14.8669 27.0037)"/></svg>