<svg xmlns="http://www.w3.org/2000/svg" viewBox="0 0 130 60" width="130" height="60"><defs><linearGradient id="g36" gradientUnits="userSpaceOnUse" x1="89.38" y1="45.59" x2="2.90" y2="20.21"><stop offset="0.0%" stop-color="rgb(0,151,95)" stop-opacity="1.000"/><stop offset="100.0%" stop-color="rgb(0,65,35)" stop-opacity="1.000"/></linearGradient><linearGradient id="g37" gradientUnits="userSpaceOnUse" x1="-2.55" y1="0.82" x2="102.82" y2="66.60"><stop offset="0.0%" stop-color="rgb(0,151,95)" stop-opacity="1.000"/><stop offset="100.0%" stop-color="rgb(0,65,35)" stop-opacity="1.000"/></linearGradient><linearGradient id="g38" gradientUnits="userSpaceOnUse" x1="16.12" y1="38.05" x2="113.15" y2="26.05"><stop offset="0.0%" stop-color="rgb(0,151,95)" stop-opacity="1.000"/><stop offset="36.0%" stop-color="rgb(0,151,95)" stop-opacity="1.000"/><stop offset="91.0%" stop-color="rgb(0,65,35)" stop-opacity="1.000"/><stop offset="100.0%" stop-color="rgb(0,65,35)" stop-opacity="1.000"/></linearGradient></defs><path d="M0 0L130 0L130 60L0 60L0 0Z" fill="rgb(255,255,255)" fill-opacity="1.000" fill-rule="nonzero" transform="matrix(1 0 0 1 0 0)"/><path d="M4.115 16.434L0 12.319L12.321 0L22.937 10.616L28.597 10.614L28.597 16.276L24.64 12.319L20.527 16.434L4.115 16.434Z" fill="url(#g36)" fill-rule="nonzero" transform="matrix(1 0 0 1 87.403 7.3872)"/><path d="M8.204 28.398L8.204 20.525L0 12.321L12.319 0L24.64 12.321L8.561 28.4L8.204 28.398Z" fill="url(#g37)" fill-rule="nonzero" transform="matrix(1 0 0 1 79.1991 23.821)"/><path d="M12.321 16.436L0 4.115L16.412 4.115L20.525 0L24.482 3.957L24.482 4.275L12.321 16.436Z" fill="url(#g38)" fill-rule="nonzero" transform="matrix(1 0 0 1 91.5178 19.7061)"/><path d="M0 0L0 9.164L62.081 9.164L62.081 0L0 0Z" fill="rgb(0,0,0)" fill-opacity="1.000" fill-rule="nonzero" transform="matrix(1 0 0 1 13.0495 39.995)"/><path d="M0 209.953L373.14 209.953L373.14 0L0 0L0 209.953Z" fill="rgb(0,0,0)" fill-opacity="1.000" fill-rule="nonzero" transform="matrix(1 0 0 1 -229.1518 -135.2649)"/><path d="M0 58.921L115.052 58.921L115.052 0L0 0L0 58.921Z" fill="rgb(0,0,0)" fill-opacity="1.000" fill-rule="nonzero" transform="matrix(1 0 0 1 4.8384 3.3893)"/><path d="M1.117 2.755L0 2.755L0 0L1.075 0C1.588 0 1.91 0.29 1.91 0.754C1.91 1.052 1.724 1.266 1.537 1.337C1.751 1.423 1.953 1.627 1.953 1.975C1.953 2.482 1.607 2.753 1.117 2.753M1.04 0.373L0.42 0.373L0.42 1.163L1.042 1.163C1.31 1.163 1.491 1.023 1.491 0.768C1.491 0.513 1.308 0.373 1.042 0.373M1.081 1.538L0.42 1.538L0.42 2.378L1.081 2.378C1.372 2.378 1.533 2.199 1.533 1.956C1.533 1.713 1.37 1.538 1.081 1.538Z" fill="rgb(0,0,0)" fill-opacity="1.000" fill-rule="nonzero" transform="matrix(1 0 0 1 14.0211 40.9903)"/><path d="M0 0L0 9.164L62.081 9.164L62.081 0L0 0Z" fill="rgb(0,0,0)" fill-opacity="1.000" fill-rule="nonzero" transform="matrix(1 0 0 1 13.0495 39.995)"/><path d="M0 209.953L373.14 209.953L373.14 0L0 0L0 209.953Z" fill="rgb(0,0,0)" fill-opacity="1.000" fill-rule="nonzero" transform="matrix(1 0 0 1 -229.1518 -135.2649)"/><path d="M0 58.921L115.052 58.921L115.052 0L0 0L0 58.921Z" fill="rgb(0,0,0)" fill-opacity="1.000" fill-rule="nonzero" transform="matrix(1 0 0 1 4.8384 3.3893)"/><path d="M1.918 2.755L1.728 2.201L0.637 2.201L0.447 2.755L0 2.755L1.013 0L1.351 0L2.363 2.755L1.918 2.755ZM1.191 0.622L0.76 1.845L1.609 1.845L1.191 0.622Z" fill="rgb(0,0,0)" fill-opacity="1.000" fill-rule="nonzero" transform="matrix(1 0 0 1 16.0327 40.9903)"/><path d="M0 0L0 9.164L62.081 9.164L62.081 0L0 0Z" fill="rgb(0,0,0)" fill-opacity="1.000" fill-rule="nonzero" transform="matrix(1 0 0 1 13.0495 39.995)"/><path d="M0 209.953L373.14 209.953L373.14 0L0 0L0 209.953Z" fill="rgb(0,0,0)" fill-opacity="1.000" fill-rule="nonzero" transform="matrix(1 0 0 1 -229.1518 -135.2649)"/><path d="M0 58.921L115.052 58.921L115.052 0L0 0L0 58.921Z" fill="rgb(0,0,0)" fill-opacity="1.000" fill-rule="nonzero" transform="matrix(1 0 0 1 4.8384 3.3893)"/><path d="M1.695 2.755L0.42 0.816L0.42 2.755L0 2.755L0 0L0.385 0L1.662 1.934L1.662 0L2.081 0L2.081 2.755L1.695 2.755Z" fill="rgb(0,0,0)" fill-opacity="1.000" fill-rule="nonzero" transform="matrix(1 0 0 1 18.5572 40.9903)"/><path d="M0 0L0 9.164L62.081 9.164L62.081 0L0 0Z" fill="rgb(0,0,0)" fill-opacity="1.000" fill-rule="nonzero" transform="matrix(1 0 0 1 13.0495 39.995)"/><path d="M0 209.953L373.14 209.953L373.14 0L0 0L0 209.953Z" fill="rgb(0,0,0)" fill-opacity="1.000" fill-rule="nonzero" transform="matrix(1 0 0 1 -229.1518 -135.2649)"/><path d="M0 58.921L115.052 58.921L115.052 0L0 0L0 58.921Z" fill="rgb(0,0,0)" fill-opacity="1.000" fill-rule="nonzero" transform="matrix(1 0 0 1 4.8384 3.3893)"/><path d="M0.993 2.801C0.705 2.801 0.457 2.696 0.268 2.508C-0.004 2.238 0 1.93 0 1.402C0 0.873 -0.004 0.566 0.268 0.295C0.457 0.105 0.705 0 0.993 0C1.5 0 1.881 0.297 1.978 0.848L1.551 0.848C1.485 0.57 1.298 0.375 0.991 0.375C0.828 0.375 0.68 0.437 0.583 0.54C0.447 0.688 0.416 0.846 0.416 1.4C0.416 1.954 0.447 2.111 0.583 2.259C0.68 2.364 0.828 2.426 0.991 2.426C1.298 2.426 1.489 2.232 1.555 1.954L1.978 1.954C1.885 2.504 1.495 2.801 0.993 2.801Z" fill="rgb(0,0,0)" fill-opacity="1.000" fill-rule="nonzero" transform="matrix(1 0 0 1 21.0273 40.967)"/><path d="M0 0L0 9.164L62.081 9.164L62.081 0L0 0Z" fill="rgb(0,0,0)" fill-opacity="1.000" fill-rule="nonzero" transform="matrix(1 0 0 1 13.0495 39.995)"/><path d="M0 209.953L373.14 209.953L373.14 0L0 0L0 209.953Z" fill="rgb(0,0,0)" fill-opacity="1.000" fill-rule="nonzero" transform="matrix(1 0 0 1 -229.1518 -135.2649)"/><path d="M0 58.921L115.052 58.921L115.052 0L0 0L0 58.921Z" fill="rgb(0,0,0)" fill-opacity="1.000" fill-rule="nonzero" transform="matrix(1 0 0 1 4.8384 3.3893)"/><path d="M1.722 2.508C1.531 2.698 1.287 2.801 0.993 2.801C0.7 2.801 0.457 2.696 0.266 2.508C-0.006 2.238 0 1.93 0 1.402C0 0.873 -0.004 0.566 0.266 0.295C0.457 0.105 0.698 0 0.993 0C1.289 0 1.533 0.105 1.722 0.294C1.994 0.564 1.986 0.871 1.986 1.4C1.986 1.928 1.994 2.236 1.722 2.506M1.403 0.546C1.306 0.441 1.154 0.375 0.993 0.375C0.832 0.375 0.678 0.441 0.581 0.546C0.445 0.692 0.418 0.848 0.418 1.402C0.418 1.956 0.445 2.109 0.581 2.257C0.678 2.362 0.83 2.428 0.993 2.428C1.156 2.428 1.308 2.362 1.403 2.257C1.539 2.109 1.566 1.956 1.566 1.402C1.566 0.848 1.539 0.694 1.403 0.546Z" fill="rgb(0,0,0)" fill-opacity="1.000" fill-rule="nonzero" transform="matrix(1 0 0 1 23.2331 40.967)"/><path d="M0 0L0 9.164L62.081 9.164L62.081 0L0 0Z" fill="rgb(0,0,0)" fill-opacity="1.000" fill-rule="nonzero" transform="matrix(1 0 0 1 13.0495 39.995)"/><path d="M0 209.953L373.14 209.953L373.14 0L0 0L0 209.953Z" fill="rgb(0,0,0)" fill-opacity="1.000" fill-rule="nonzero" transform="matrix(1 0 0 1 -229.1518 -135.2649)"/><path d="M0 58.921L115.052 58.921L115.052 0L0 0L0 58.921Z" fill="rgb(0,0,0)" fill-opacity="1.000" fill-rule="nonzero" transform="matrix(1 0 0 1 4.8384 3.3893)"/><path d="M1.526 2.755L0.945 1.594L0.42 1.594L0.42 2.755L0 2.755L0 0L1.071 0C1.596 0 1.93 0.336 1.93 0.805C1.93 1.199 1.689 1.45 1.378 1.536L2.015 2.755L1.526 2.755ZM1.04 0.375L0.418 0.375L0.418 1.238L1.04 1.238C1.32 1.238 1.508 1.079 1.508 0.809C1.508 0.538 1.318 0.375 1.04 0.375Z" fill="rgb(0,0,0)" fill-opacity="1.000" fill-rule="nonzero" transform="matrix(1 0 0 1 26.3076 40.9903)"/><path d="M0 0L0 9.164L62.081 9.164L62.081 0L0 0Z" fill="rgb(0,0,0)" fill-opacity="1.000" fill-rule="nonzero" transform="matrix(1 0 0 1 13.0495 39.995)"/><path d="M0 209.953L373.14 209.953L373.14 0L0 0L0 209.953Z" fill="rgb(0,0,0)" fill-opacity="1.000" fill-rule="nonzero" transform="matrix(1 0 0 1 -229.1518 -135.2649)"/><path d="M0 58.921L115.052 58.921L115.052 0L0 0L0 58.921Z" fill="rgb(0,0,0)" fill-opacity="1.000" fill-rule="nonzero" transform="matrix(1 0 0 1 4.8384 3.3893)"/><path d="M0 2.755L0 0L1.767 0L1.767 0.375L0.42 0.375L0.42 1.18L1.568 1.18L1.568 1.551L0.42 1.551L0.42 2.379L1.767 2.379L1.767 2.755L0 2.755Z" fill="rgb(0,0,0)" fill-opacity="1.000" fill-rule="nonzero" transform="matrix(1 0 0 1 28.6184 40.9903)"/><path d="M0 0L0 9.164L62.081 9.164L62.081 0L0 0Z" fill="rgb(0,0,0)" fill-opacity="1.000" fill-rule="nonzero" transform="matrix(1 0 0 1 13.0495 39.995)"/><path d="M0 209.953L373.14 209.953L373.14 0L0 0L0 209.953Z" fill="rgb(0,0,0)" fill-opacity="1.000" fill-rule="nonzero" transform="matrix(1 0 0 1 -229.1518 -135.2649)"/><path d="M0 58.921L115.052 58.921L115.052 0L0 0L0 58.921Z" fill="rgb(0,0,0)" fill-opacity="1.000" fill-rule="nonzero" transform="matrix(1 0 0 1 4.8384 3.3893)"/><path d="M1.753 2.488C1.543 2.708 1.283 2.801 0.993 2.801C0.705 2.801 0.457 2.696 0.268 2.508C-0.004 2.238 0 1.93 0 1.402C0 0.873 -0.004 0.566 0.268 0.295C0.457 0.105 0.698 0 0.993 0C1.58 0 1.92 0.383 1.998 0.855L1.576 0.855C1.506 0.554 1.304 0.377 0.993 0.377C0.83 0.377 0.682 0.443 0.585 0.546C0.449 0.694 0.418 0.848 0.418 1.402C0.418 1.956 0.449 2.113 0.585 2.261C0.682 2.366 0.83 2.426 0.993 2.426C1.176 2.426 1.335 2.356 1.442 2.234C1.543 2.117 1.582 1.979 1.582 1.8L1.582 1.645L0.993 1.645L0.993 1.289L2.002 1.289L2.002 1.711C2.002 2.066 1.936 2.296 1.753 2.488Z" fill="rgb(0,0,0)" fill-opacity="1.000" fill-rule="nonzero" transform="matrix(1 0 0 1 30.626 40.967)"/><path d="M0 0L0 9.164L62.081 9.164L62.081 0L0 0Z" fill="rgb(0,0,0)" fill-opacity="1.000" fill-rule="nonzero" transform="matrix(1 0 0 1 13.0495 39.995)"/><path d="M0 209.953L373.14 209.953L373.14 0L0 0L0 209.953Z" fill="rgb(0,0,0)" fill-opacity="1.000" fill-rule="nonzero" transform="matrix(1 0 0 1 -229.1518 -135.2649)"/><path d="M0 58.921L115.052 58.921L115.052 0L0 0L0 58.921Z" fill="rgb(0,0,0)" fill-opacity="1.000" fill-rule="nonzero" transform="matrix(1 0 0 1 4.8384 3.3893)"/><path d="M0 2.755L0.42 2.755L0.42 0L0 0L0 2.755Z" fill="rgb(0,0,0)" fill-opacity="1.000" fill-rule="nonzero" transform="matrix(1 0 0 1 33.0144 40.9903)"/><path d="M0 0L0 9.164L62.081 9.164L62.081 0L0 0Z" fill="rgb(0,0,0)" fill-opacity="1.000" fill-rule="nonzero" transform="matrix(1 0 0 1 13.0495 39.995)"/><path d="M0 209.953L373.14 209.953L373.14 0L0 0L0 209.953Z" fill="rgb(0,0,0)" fill-opacity="1.000" fill-rule="nonzero" transform="matrix(1 0 0 1 -229.1518 -135.2649)"/><path d="M0 58.921L115.052 58.921L115.052 0L0 0L0 58.921Z" fill="rgb(0,0,0)" fill-opacity="1.000" fill-rule="nonzero" transform="matrix(1 0 0 1 4.8384 3.3893)"/><path d="M1.722 2.508C1.531 2.698 1.287 2.801 0.993 2.801C0.7 2.801 0.457 2.696 0.268 2.508C-0.004 2.238 0 1.93 0 1.402C0 0.873 -0.004 0.566 0.268 0.295C0.457 0.105 0.698 0 0.993 0C1.289 0 1.533 0.105 1.722 0.294C1.994 0.564 1.986 0.871 1.986 1.4C1.986 1.928 1.994 2.236 1.722 2.506M1.403 0.546C1.306 0.441 1.154 0.375 0.993 0.375C0.832 0.375 0.678 0.441 0.581 0.546C0.445 0.692 0.418 0.848 0.418 1.402C0.418 1.956 0.445 2.109 0.581 2.257C0.678 2.362 0.83 2.428 0.993 2.428C1.156 2.428 1.308 2.362 1.403 2.257C1.539 2.109 1.566 1.956 1.566 1.402C1.566 0.848 1.539 0.694 1.403 0.546Z" fill="rgb(0,0,0)" fill-opacity="1.000" fill-rule="nonzero" transform="matrix(1 0 0 1 33.8229 40.967)"/><path d="M0 0L0 9.164L62.081 9.164L62.081 0L0 0Z" fill="rgb(0,0,0)" fill-opacity="1.000" fill-rule="nonzero" transform="matrix(1 0 0 1 13.0495 39.995)"/><path d="M0 209.953L373.14 209.953L373.14 0L0 0L0 209.953Z" fill="rgb(0,0,0)" fill-opacity="1.000" fill-rule="nonzero" transform="matrix(1 0 0 1 -229.1518 -135.2649)"/><path d="M0 58.921L115.052 58.921L115.052 0L0 0L0 58.921Z" fill="rgb(0,0,0)" fill-opacity="1.000" fill-rule="nonzero" transform="matrix(1 0 0 1 4.8384 3.3893)"/><path d="M1.697 2.755L0.42 0.816L0.42 2.755L0 2.755L0 0L0.385 0L1.662 1.934L1.662 0L2.081 0L2.081 2.755L1.697 2.755Z" fill="rgb(0,0,0)" fill-opacity="1.000" fill-rule="nonzero" transform="matrix(1 0 0 1 36.1959 40.9903)"/><path d="M0 0L0 9.164L62.081 9.164L62.081 0L0 0Z" fill="rgb(0,0,0)" fill-opacity="1.000" fill-rule="nonzero" transform="matrix(1 0 0 1 13.0495 39.995)"/><path d="M0 209.953L373.14 209.953L373.14 0L0 0L0 209.953Z" fill="rgb(0,0,0)" fill-opacity="1.000" fill-rule="nonzero" transform="matrix(1 0 0 1 -229.1518 -135.2649)"/><path d="M0 58.921L115.052 58.921L115.052 0L0 0L0 58.921Z" fill="rgb(0,0,0)" fill-opacity="1.000" fill-rule="nonzero" transform="matrix(1 0 0 1 4.8384 3.3893)"/><path d="M1.918 2.755L1.728 2.201L0.637 2.201L0.447 2.755L0 2.755L1.013 0L1.351 0L2.363 2.755L1.918 2.755ZM1.193 0.622L0.762 1.845L1.611 1.845L1.193 0.622Z" fill="rgb(0,0,0)" fill-opacity="1.000" fill-rule="nonzero" transform="matrix(1 0 0 1 38.4367 40.9903)"/><path d="M0 0L0 9.164L62.081 9.164L62.081 0L0 0Z" fill="rgb(0,0,0)" fill-opacity="1.000" fill-rule="nonzero" transform="matrix(1 0 0 1 13.0495 39.995)"/><path d="M0 209.953L373.14 209.953L373.14 0L0 0L0 209.953Z" fill="rgb(0,0,0)" fill-opacity="1.000" fill-rule="nonzero" transform="matrix(1 0 0 1 -229.1518 -135.2649)"/><path d="M0 58.921L115.052 58.921L115.052 0L0 0L0 58.921Z" fill="rgb(0,0,0)" fill-opacity="1.000" fill-rule="nonzero" transform="matrix(1 0 0 1 4.8384 3.3893)"/><path d="M0 2.755L0 0L0.42 0L0.42 2.379L1.751 2.379L1.751 2.755L0 2.755Z" fill="rgb(0,0,0)" fill-opacity="1.000" fill-rule="nonzero" transform="matrix(1 0 0 1 40.9612 40.9903)"/><path d="M0 0L0 9.164L62.081 9.164L62.081 0L0 0Z" fill="rgb(0,0,0)" fill-opacity="1.000" fill-rule="nonzero" transform="matrix(1 0 0 1 13.0495 39.995)"/><path d="M0 209.953L373.14 209.953L373.14 0L0 0L0 209.953Z" fill="rgb(0,0,0)" fill-opacity="1.000" fill-rule="nonzero" transform="matrix(1 0 0 1 -229.1518 -135.2649)"/><path d="M0 58.921L115.052 58.921L115.052 0L0 0L0 58.921Z" fill="rgb(0,0,0)" fill-opacity="1.000" fill-rule="nonzero" transform="matrix(1 0 0 1 4.8384 3.3893)"/><path d="M1.685 2.496C1.51 2.671 1.257 2.755 0.97 2.755L0 2.755L0 0L0.97 0C1.257 0 1.51 0.086 1.685 0.259C1.984 0.556 1.965 0.958 1.965 1.357C1.965 1.755 1.984 2.197 1.685 2.494M1.397 0.56C1.281 0.432 1.125 0.375 0.927 0.375L0.42 0.375L0.42 2.379L0.927 2.379C1.125 2.379 1.281 2.321 1.397 2.193C1.541 2.033 1.545 1.736 1.545 1.357C1.545 0.978 1.541 0.719 1.397 0.56Z" fill="rgb(0,0,0)" fill-opacity="1.000" fill-rule="nonzero" transform="matrix(1 0 0 1 43.8841 40.9903)"/><path d="M0 0L0 9.164L62.081 9.164L62.081 0L0 0Z" fill="rgb(0,0,0)" fill-opacity="1.000" fill-rule="nonzero" transform="matrix(1 0 0 1 13.0495 39.995)"/><path d="M0 209.953L373.14 209.953L373.14 0L0 0L0 209.953Z" fill="rgb(0,0,0)" fill-opacity="1.000" fill-rule="nonzero" transform="matrix(1 0 0 1 -229.1518 -135.2649)"/><path d="M0 58.921L115.052 58.921L115.052 0L0 0L0 58.921Z" fill="rgb(0,0,0)" fill-opacity="1.000" fill-rule="nonzero" transform="matrix(1 0 0 1 4.8384 3.3893)"/><path d="M0 2.755L0 0L1.767 0L1.767 0.375L0.42 0.375L0.42 1.18L1.568 1.18L1.568 1.551L0.42 1.551L0.42 2.379L1.767 2.379L1.767 2.755L0 2.755Z" fill="rgb(0,0,0)" fill-opacity="1.000" fill-rule="nonzero" transform="matrix(1 0 0 1 46.2376 40.9903)"/><path d="M0 0L0 9.164L62.081 9.164L62.081 0L0 0Z" fill="rgb(0,0,0)" fill-opacity="1.000" fill-rule="nonzero" transform="matrix(1 0 0 1 13.0495 39.995)"/><path d="M0 209.953L373.14 209.953L373.14 0L0 0L0 209.953Z" fill="rgb(0,0,0)" fill-opacity="1.000" fill-rule="nonzero" transform="matrix(1 0 0 1 -229.1518 -135.2649)"/><path d="M0 58.921L115.052 58.921L115.052 0L0 0L0 58.921Z" fill="rgb(0,0,0)" fill-opacity="1.000" fill-rule="nonzero" transform="matrix(1 0 0 1 4.8384 3.3893)"/><path d="M1.685 2.494C1.51 2.669 1.257 2.753 0.97 2.753L0 2.753L0 0L0.97 0C1.257 0 1.51 0.086 1.685 0.259C1.984 0.556 1.965 0.958 1.965 1.357C1.965 1.755 1.984 2.197 1.685 2.494ZM1.397 0.56C1.281 0.432 1.125 0.375 0.927 0.375L0.42 0.375L0.42 2.379L0.927 2.379C1.125 2.379 1.281 2.321 1.397 2.193C1.541 2.033 1.545 1.736 1.545 1.357C1.545 0.978 1.541 0.719 1.397 0.56Z" fill="rgb(0,0,0)" fill-opacity="1.000" fill-rule="nonzero" transform="matrix(1 0 0 1 14.0211 45.409)"/><path d="M0 0L0 9.164L62.081 9.164L62.081 0L0 0Z" fill="rgb(0,0,0)" fill-opacity="1.000" fill-rule="nonzero" transform="matrix(1 0 0 1 13.0495 39.995)"/><path d="M0 209.953L373.14 209.953L373.14 0L0 0L0 209.953Z" fill="rgb(0,0,0)" fill-opacity="1.000" fill-rule="nonzero" transform="matrix(1 0 0 1 -229.1518 -135.2649)"/><path d="M0 58.921L115.052 58.921L115.052 0L0 0L0 58.921Z" fill="rgb(0,0,0)" fill-opacity="1.000" fill-rule="nonzero" transform="matrix(1 0 0 1 4.8384 3.3893)"/><path d="M0 2.755L0 0L1.767 0L1.767 0.375L0.42 0.375L0.42 1.18L1.568 1.18L1.568 1.551L0.42 1.551L0.42 2.379L1.767 2.379L1.767 2.755L0 2.755Z" fill="rgb(0,0,0)" fill-opacity="1.000" fill-rule="nonzero" transform="matrix(1 0 0 1 16.3747 45.409)"/><path d="M0 0L0 9.164L62.081 9.164L62.081 0L0 0Z" fill="rgb(0,0,0)" fill-opacity="1.000" fill-rule="nonzero" transform="matrix(1 0 0 1 13.0495 39.995)"/><path d="M0 209.953L373.14 209.953L373.14 0L0 0L0 209.953Z" fill="rgb(0,0,0)" fill-opacity="1.000" fill-rule="nonzero" transform="matrix(1 0 0 1 -229.1518 -135.2649)"/><path d="M0 58.921L115.052 58.921L115.052 0L0 0L0 58.921Z" fill="rgb(0,0,0)" fill-opacity="1.000" fill-rule="nonzero" transform="matrix(1 0 0 1 4.8384 3.3893)"/><path d="M0.978 2.799C0.562 2.799 0.262 2.702 0 2.436L0.28 2.162C0.482 2.364 0.704 2.424 0.985 2.424C1.347 2.424 1.557 2.269 1.557 2.002L1.522 1.783C1.378 1.65 1.308 1.623 1.145 1.6L0.818 1.553C0.593 1.522 0.414 1.444 0.293 1.334C0.157 1.205 0.091 1.032 0.091 0.809C0.091 0.329 0.441 0 1.014 0C1.38 0 1.636 0.093 1.872 0.313L1.603 0.575C1.432 0.412 1.234 0.364 1.001 0.364C0.674 0.364 0.496 0.55 0.496 0.793L0.527 0.982C0.67 1.11 0.783 1.155 0.911 1.174L1.226 1.221C1.483 1.26 1.627 1.322 1.743 1.427C1.895 1.559 1.969 1.755 1.969 1.991C1.969 2.498 1.553 2.799 0.976 2.799" fill="rgb(0,0,0)" fill-opacity="1.000" fill-rule="nonzero" transform="matrix(1 0 0 1 18.2385 45.3876)"/><path d="M0 0L0 9.164L62.081 9.164L62.081 0L0 0Z" fill="rgb(0,0,0)" fill-opacity="1.000" fill-rule="nonzero" transform="matrix(1 0 0 1 13.0495 39.995)"/><path d="M0 209.953L373.14 209.953L373.14 0L0 0L0 209.953Z" fill="rgb(0,0,0)" fill-opacity="1.000" fill-rule="nonzero" transform="matrix(1 0 0 1 -229.1518 -135.2649)"/><path d="M0 58.921L115.052 58.921L115.052 0L0 0L0 58.921Z" fill="rgb(0,0,0)" fill-opacity="1.000" fill-rule="nonzero" transform="matrix(1 0 0 1 4.8384 3.3893)"/><path d="M0 2.755L0 0L1.767 0L1.767 0.375L0.42 0.375L0.42 1.18L1.568 1.18L1.568 1.551L0.42 1.551L0.42 2.379L1.767 2.379L1.767 2.755L0 2.755Z" fill="rgb(0,0,0)" fill-opacity="1.000" fill-rule="nonzero" transform="matrix(1 0 0 1 20.5415 45.409)"/><path d="M0 0L0 9.164L62.081 9.164L62.081 0L0 0Z" fill="rgb(0,0,0)" fill-opacity="1.000" fill-rule="nonzero" transform="matrix(1 0 0 1 13.0495 39.995)"/><path d="M0 209.953L373.14 209.953L373.14 0L0 0L0 209.953Z" fill="rgb(0,0,0)" fill-opacity="1.000" fill-rule="nonzero" transform="matrix(1 0 0 1 -229.1518 -135.2649)"/><path d="M0 58.921L115.052 58.921L115.052 0L0 0L0 58.921Z" fill="rgb(0,0,0)" fill-opacity="1.000" fill-rule="nonzero" transform="matrix(1 0 0 1 4.8384 3.3893)"/><path d="M1.695 2.755L0.418 0.816L0.418 2.755L0 2.755L0 0L0.385 0L1.662 1.934L1.662 0L2.079 0L2.079 2.755L1.695 2.755Z" fill="rgb(0,0,0)" fill-opacity="1.000" fill-rule="nonzero" transform="matrix(1 0 0 1 22.65 45.409)"/><path d="M0 0L0 9.164L62.081 9.164L62.081 0L0 0Z" fill="rgb(0,0,0)" fill-opacity="1.000" fill-rule="nonzero" transform="matrix(1 0 0 1 13.0495 39.995)"/><path d="M0 209.953L373.14 209.953L373.14 0L0 0L0 209.953Z" fill="rgb(0,0,0)" fill-opacity="1.000" fill-rule="nonzero" transform="matrix(1 0 0 1 -229.1518 -135.2649)"/><path d="M0 58.921L115.052 58.921L115.052 0L0 0L0 58.921Z" fill="rgb(0,0,0)" fill-opacity="1.000" fill-rule="nonzero" transform="matrix(1 0 0 1 4.8384 3.3893)"/><path d="M1.234 2.755L0.908 2.755L0 0L0.433 0L1.071 2.004L1.706 0L2.149 0L1.234 2.755Z" fill="rgb(0,0,0)" fill-opacity="1.000" fill-rule="nonzero" transform="matrix(1 0 0 1 24.8792 45.409)"/><path d="M0 0L0 9.164L62.081 9.164L62.081 0L0 0Z" fill="rgb(0,0,0)" fill-opacity="1.000" fill-rule="nonzero" transform="matrix(1 0 0 1 13.0495 39.995)"/><path d="M0 209.953L373.14 209.953L373.14 0L0 0L0 209.953Z" fill="rgb(0,0,0)" fill-opacity="1.000" fill-rule="nonzero" transform="matrix(1 0 0 1 -229.1518 -135.2649)"/><path d="M0 58.921L115.052 58.921L115.052 0L0 0L0 58.921Z" fill="rgb(0,0,0)" fill-opacity="1.000" fill-rule="nonzero" transform="matrix(1 0 0 1 4.8384 3.3893)"/><path d="M1.724 2.506C1.533 2.696 1.289 2.799 0.995 2.799C0.702 2.799 0.459 2.694 0.268 2.506C-0.004 2.236 0 1.928 0 1.4C0 0.871 -0.004 0.564 0.268 0.294C0.459 0.103 0.7 0 0.995 0C1.29 0 1.535 0.105 1.724 0.294C1.996 0.564 1.988 0.871 1.988 1.4C1.988 1.928 1.996 2.236 1.724 2.506ZM1.405 0.546C1.308 0.441 1.156 0.375 0.995 0.375C0.834 0.375 0.68 0.441 0.583 0.546C0.447 0.692 0.42 0.848 0.42 1.402C0.42 1.956 0.447 2.109 0.583 2.257C0.68 2.362 0.832 2.428 0.995 2.428C1.158 2.428 1.31 2.362 1.405 2.257C1.541 2.109 1.568 1.956 1.568 1.402C1.568 0.848 1.541 0.694 1.405 0.546Z" fill="rgb(0,0,0)" fill-opacity="1.000" fill-rule="nonzero" transform="matrix(1 0 0 1 27.0365 45.3858)"/><path d="M0 0L0 9.164L62.081 9.164L62.081 0L0 0Z" fill="rgb(0,0,0)" fill-opacity="1.000" fill-rule="nonzero" transform="matrix(1 0 0 1 13.0495 39.995)"/><path d="M0 209.953L373.14 209.953L373.14 0L0 0L0 209.953Z" fill="rgb(0,0,0)" fill-opacity="1.000" fill-rule="nonzero" transform="matrix(1 0 0 1 -229.1518 -135.2649)"/><path d="M0 58.921L115.052 58.921L115.052 0L0 0L0 58.921Z" fill="rgb(0,0,0)" fill-opacity="1.000" fill-rule="nonzero" transform="matrix(1 0 0 1 4.8384 3.3893)"/><path d="M0 2.755L0 0L0.42 0L0.42 2.379L1.751 2.379L1.751 2.755L0 2.755Z" fill="rgb(0,0,0)" fill-opacity="1.000" fill-rule="nonzero" transform="matrix(1 0 0 1 29.4132 45.409)"/><path d="M0 0L0 9.164L62.081 9.164L62.081 0L0 0Z" fill="rgb(0,0,0)" fill-opacity="1.000" fill-rule="nonzero" transform="matrix(1 0 0 1 13.0495 39.995)"/><path d="M0 209.953L373.14 209.953L373.14 0L0 0L0 209.953Z" fill="rgb(0,0,0)" fill-opacity="1.000" fill-rule="nonzero" transform="matrix(1 0 0 1 -229.1518 -135.2649)"/><path d="M0 58.921L115.052 58.921L115.052 0L0 0L0 58.921Z" fill="rgb(0,0,0)" fill-opacity="1.000" fill-rule="nonzero" transform="matrix(1 0 0 1 4.8384 3.3893)"/><path d="M1.234 2.755L0.908 2.755L0 0L0.435 0L1.073 2.004L1.708 0L2.151 0L1.234 2.755Z" fill="rgb(0,0,0)" fill-opacity="1.000" fill-rule="nonzero" transform="matrix(1 0 0 1 30.797 45.409)"/><path d="M0 0L0 9.164L62.081 9.164L62.081 0L0 0Z" fill="rgb(0,0,0)" fill-opacity="1.000" fill-rule="nonzero" transform="matrix(1 0 0 1 13.0495 39.995)"/><path d="M0 209.953L373.14 209.953L373.14 0L0 0L0 209.953Z" fill="rgb(0,0,0)" fill-opacity="1.000" fill-rule="nonzero" transform="matrix(1 0 0 1 -229.1518 -135.2649)"/><path d="M0 58.921L115.052 58.921L115.052 0L0 0L0 58.921Z" fill="rgb(0,0,0)" fill-opacity="1.000" fill-rule="nonzero" transform="matrix(1 0 0 1 4.8384 3.3893)"/><path d="M0 2.755L0.42 2.755L0.42 0L0 0L0 2.755Z" fill="rgb(0,0,0)" fill-opacity="1.000" fill-rule="nonzero" transform="matrix(1 0 0 1 33.0941 45.409)"/><path d="M0 0L0 9.164L62.081 9.164L62.081 0L0 0Z" fill="rgb(0,0,0)" fill-opacity="1.000" fill-rule="nonzero" transform="matrix(1 0 0 1 13.0495 39.995)"/><path d="M0 209.953L373.14 209.953L373.14 0L0 0L0 209.953Z" fill="rgb(0,0,0)" fill-opacity="1.000" fill-rule="nonzero" transform="matrix(1 0 0 1 -229.1518 -135.2649)"/><path d="M0 58.921L115.052 58.921L115.052 0L0 0L0 58.921Z" fill="rgb(0,0,0)" fill-opacity="1.000" fill-rule="nonzero" transform="matrix(1 0 0 1 4.8384 3.3893)"/><path d="M2.019 2.755L2.019 0.914L1.382 2.257L1.071 2.257L0.42 0.914L0.42 2.755L0 2.755L0 0L0.42 0L1.226 1.715L2.017 0L2.437 0L2.437 2.755L2.019 2.755Z" fill="rgb(0,0,0)" fill-opacity="1.000" fill-rule="nonzero" transform="matrix(1 0 0 1 34.0036 45.409)"/><path d="M0 0L0 9.164L62.081 9.164L62.081 0L0 0Z" fill="rgb(0,0,0)" fill-opacity="1.000" fill-rule="nonzero" transform="matrix(1 0 0 1 13.0495 39.995)"/><path d="M0 209.953L373.14 209.953L373.14 0L0 0L0 209.953Z" fill="rgb(0,0,0)" fill-opacity="1.000" fill-rule="nonzero" transform="matrix(1 0 0 1 -229.1518 -135.2649)"/><path d="M0 58.921L115.052 58.921L115.052 0L0 0L0 58.921Z" fill="rgb(0,0,0)" fill-opacity="1.000" fill-rule="nonzero" transform="matrix(1 0 0 1 4.8384 3.3893)"/><path d="M0 2.755L0 0L1.767 0L1.767 0.375L0.42 0.375L0.42 1.18L1.568 1.18L1.568 1.551L0.42 1.551L0.42 2.379L1.767 2.379L1.767 2.755L0 2.755Z" fill="rgb(0,0,0)" fill-opacity="1.000" fill-rule="nonzero" transform="matrix(1 0 0 1 36.9267 45.409)"/><path d="M0 0L0 9.164L62.081 9.164L62.081 0L0 0Z" fill="rgb(0,0,0)" fill-opacity="1.000" fill-rule="nonzero" transform="matrix(1 0 0 1 13.0495 39.995)"/><path d="M0 209.953L373.14 209.953L373.14 0L0 0L0 209.953Z" fill="rgb(0,0,0)" fill-opacity="1.000" fill-rule="nonzero" transform="matrix(1 0 0 1 -229.1518 -135.2649)"/><path d="M0 58.921L115.052 58.921L115.052 0L0 0L0 58.921Z" fill="rgb(0,0,0)" fill-opacity="1.000" fill-rule="nonzero" transform="matrix(1 0 0 1 4.8384 3.3893)"/><path d="M1.697 2.755L0.42 0.816L0.42 2.755L0 2.755L0 0L0.385 0L1.662 1.934L1.662 0L2.081 0L2.081 2.755L1.697 2.755Z" fill="rgb(0,0,0)" fill-opacity="1.000" fill-rule="nonzero" transform="matrix(1 0 0 1 39.0352 45.409)"/><path d="M0 0L0 9.164L62.081 9.164L62.081 0L0 0Z" fill="rgb(0,0,0)" fill-opacity="1.000" fill-rule="nonzero" transform="matrix(1 0 0 1 13.0495 39.995)"/><path d="M0 209.953L373.14 209.953L373.14 0L0 0L0 209.953Z" fill="rgb(0,0,0)" fill-opacity="1.000" fill-rule="nonzero" transform="matrix(1 0 0 1 -229.1518 -135.2649)"/><path d="M0 58.921L115.052 58.921L115.052 0L0 0L0 58.921Z" fill="rgb(0,0,0)" fill-opacity="1.000" fill-rule="nonzero" transform="matrix(1 0 0 1 4.8384 3.3893)"/><path d="M1.18 0.375L1.18 2.755L0.76 2.755L0.76 0.375L0 0.375L0 0L1.94 0L1.94 0.375L1.18 0.375Z" fill="rgb(0,0,0)" fill-opacity="1.000" fill-rule="nonzero" transform="matrix(1 0 0 1 41.3635 45.409)"/><path d="M0 0L0 9.164L62.081 9.164L62.081 0L0 0Z" fill="rgb(0,0,0)" fill-opacity="1.000" fill-rule="nonzero" transform="matrix(1 0 0 1 13.0495 39.995)"/><path d="M0 209.953L373.14 209.953L373.14 0L0 0L0 209.953Z" fill="rgb(0,0,0)" fill-opacity="1.000" fill-rule="nonzero" transform="matrix(1 0 0 1 -229.1518 -135.2649)"/><path d="M0 58.921L115.052 58.921L115.052 0L0 0L0 58.921Z" fill="rgb(0,0,0)" fill-opacity="1.000" fill-rule="nonzero" transform="matrix(1 0 0 1 4.8384 3.3893)"/><path d="M1.722 2.506C1.531 2.696 1.287 2.799 0.993 2.799C0.7 2.799 0.457 2.694 0.266 2.506C-0.006 2.236 0 1.928 0 1.4C0 0.871 -0.004 0.564 0.266 0.294C0.457 0.103 0.698 0 0.993 0C1.289 0 1.533 0.105 1.722 0.294C1.994 0.564 1.986 0.871 1.986 1.4C1.986 1.928 1.994 2.236 1.722 2.506ZM1.403 0.544C1.306 0.439 1.154 0.373 0.993 0.373C0.832 0.373 0.678 0.439 0.581 0.544C0.445 0.69 0.418 0.846 0.418 1.4C0.418 1.954 0.445 2.107 0.581 2.255C0.678 2.36 0.83 2.426 0.993 2.426C1.156 2.426 1.308 2.36 1.403 2.255C1.539 2.107 1.566 1.954 1.566 1.4C1.566 0.846 1.539 0.692 1.403 0.544Z" fill="rgb(0,0,0)" fill-opacity="1.000" fill-rule="nonzero" transform="matrix(1 0 0 1 43.371 45.3858)"/><path d="M0 0L0 9.164L62.081 9.164L62.081 0L0 0Z" fill="rgb(0,0,0)" fill-opacity="1.000" fill-rule="nonzero" transform="matrix(1 0 0 1 13.0495 39.995)"/><path d="M0 209.953L373.14 209.953L373.14 0L0 0L0 209.953Z" fill="rgb(0,0,0)" fill-opacity="1.000" fill-rule="nonzero" transform="matrix(1 0 0 1 -229.1518 -135.2649)"/><path d="M0 58.921L115.052 58.921L115.052 0L0 0L0 58.921Z" fill="rgb(0,0,0)" fill-opacity="1.000" fill-rule="nonzero" transform="matrix(1 0 0 1 4.8384 3.3893)"/><path d="M1.685 2.494C1.51 2.669 1.257 2.753 0.97 2.753L0 2.753L0 0L0.97 0C1.257 0 1.51 0.086 1.685 0.259C1.984 0.556 1.965 0.958 1.965 1.357C1.965 1.755 1.984 2.197 1.685 2.494ZM1.397 0.56C1.281 0.432 1.125 0.373 0.927 0.373L0.42 0.373L0.42 2.379L0.927 2.379C1.125 2.379 1.281 2.321 1.397 2.193C1.541 2.033 1.545 1.736 1.545 1.357C1.545 0.978 1.541 0.719 1.397 0.56Z" fill="rgb(0,0,0)" fill-opacity="1.000" fill-rule="nonzero" transform="matrix(1 0 0 1 46.2571 45.409)"/><path d="M0 0L0 9.164L62.081 9.164L62.081 0L0 0Z" fill="rgb(0,0,0)" fill-opacity="1.000" fill-rule="nonzero" transform="matrix(1 0 0 1 13.0495 39.995)"/><path d="M0 209.953L373.14 209.953L373.14 0L0 0L0 209.953Z" fill="rgb(0,0,0)" fill-opacity="1.000" fill-rule="nonzero" transform="matrix(1 0 0 1 -229.1518 -135.2649)"/><path d="M0 58.921L115.052 58.921L115.052 0L0 0L0 58.921Z" fill="rgb(0,0,0)" fill-opacity="1.000" fill-rule="nonzero" transform="matrix(1 0 0 1 4.8384 3.3893)"/><path d="M1.722 2.506C1.531 2.696 1.287 2.799 0.993 2.799C0.7 2.799 0.457 2.694 0.266 2.506C-0.006 2.236 0 1.928 0 1.4C0 0.871 -0.004 0.564 0.266 0.294C0.457 0.103 0.698 0 0.993 0C1.289 0 1.533 0.105 1.722 0.294C1.994 0.564 1.986 0.871 1.986 1.4C1.986 1.928 1.994 2.236 1.722 2.506ZM1.403 0.544C1.306 0.439 1.154 0.373 0.993 0.373C0.832 0.373 0.678 0.439 0.581 0.544C0.445 0.69 0.418 0.846 0.418 1.4C0.418 1.954 0.445 2.107 0.581 2.255C0.678 2.36 0.83 2.426 0.993 2.426C1.156 2.426 1.308 2.36 1.403 2.255C1.539 2.107 1.566 1.954 1.566 1.4C1.566 0.846 1.539 0.692 1.403 0.544Z" fill="rgb(0,0,0)" fill-opacity="1.000" fill-rule="nonzero" transform="matrix(1 0 0 1 48.5095 45.3876)"/><path d="M0 0L0 9.164L62.081 9.164L62.081 0L0 0Z" fill="rgb(0,0,0)" fill-opacity="1.000" fill-rule="nonzero" transform="matrix(1 0 0 1 13.0495 39.995)"/><path d="M0 209.953L373.14 209.953L373.14 0L0 0L0 209.953Z" fill="rgb(0,0,0)" fill-opacity="1.000" fill-rule="nonzero" transform="matrix(1 0 0 1 -229.1518 -135.2649)"/><path d="M0 58.921L115.052 58.921L115.052 0L0 0L0 58.921Z" fill="rgb(0,0,0)" fill-opacity="1.000" fill-rule="nonzero" transform="matrix(1 0 0 1 4.8384 3.3893)"/><path d="M0 2.755L0 0L1.767 0L1.767 0.375L0.42 0.375L0.42 1.18L1.568 1.18L1.568 1.551L0.42 1.551L0.42 2.379L1.767 2.379L1.767 2.755L0 2.755Z" fill="rgb(0,0,0)" fill-opacity="1.000" fill-rule="nonzero" transform="matrix(1 0 0 1 51.584 45.409)"/><path d="M0 0L0 9.164L62.081 9.164L62.081 0L0 0Z" fill="rgb(0,0,0)" fill-opacity="1.000" fill-rule="nonzero" transform="matrix(1 0 0 1 13.0495 39.995)"/><path d="M0 209.953L373.14 209.953L373.14 0L0 0L0 209.953Z" fill="rgb(0,0,0)" fill-opacity="1.000" fill-rule="nonzero" transform="matrix(1 0 0 1 -229.1518 -135.2649)"/><path d="M0 58.921L115.052 58.921L115.052 0L0 0L0 58.921Z" fill="rgb(0,0,0)" fill-opacity="1.000" fill-rule="nonzero" transform="matrix(1 0 0 1 4.8384 3.3893)"/><path d="M1.681 2.753L1.081 1.697L0.482 2.753L0 2.753L0.853 1.341L0.054 0L0.536 0L1.081 0.986L1.627 0L2.109 0L1.31 1.341L2.167 2.753L1.681 2.753Z" fill="rgb(0,0,0)" fill-opacity="1.000" fill-rule="nonzero" transform="matrix(1 0 0 1 53.3701 45.411)"/><path d="M0 0L0 9.164L62.081 9.164L62.081 0L0 0Z" fill="rgb(0,0,0)" fill-opacity="1.000" fill-rule="nonzero" transform="matrix(1 0 0 1 13.0495 39.995)"/><path d="M0 209.953L373.14 209.953L373.14 0L0 0L0 209.953Z" fill="rgb(0,0,0)" fill-opacity="1.000" fill-rule="nonzero" transform="matrix(1 0 0 1 -229.1518 -135.2649)"/><path d="M0 58.921L115.052 58.921L115.052 0L0 0L0 58.921Z" fill="rgb(0,0,0)" fill-opacity="1.000" fill-rule="nonzero" transform="matrix(1 0 0 1 4.8384 3.3893)"/><path d="M1.18 0.375L1.18 2.755L0.76 2.755L0.76 0.375L0 0.375L0 0L1.94 0L1.94 0.375L1.18 0.375Z" fill="rgb(0,0,0)" fill-opacity="1.000" fill-rule="nonzero" transform="matrix(1 0 0 1 55.4592 45.409)"/><path d="M0 0L0 9.164L62.081 9.164L62.081 0L0 0Z" fill="rgb(0,0,0)" fill-opacity="1.000" fill-rule="nonzero" transform="matrix(1 0 0 1 13.0495 39.995)"/><path d="M0 209.953L373.14 209.953L373.14 0L0 0L0 209.953Z" fill="rgb(0,0,0)" fill-opacity="1.000" fill-rule="nonzero" transform="matrix(1 0 0 1 -229.1518 -135.2649)"/><path d="M0 58.921L115.052 58.921L115.052 0L0 0L0 58.921Z" fill="rgb(0,0,0)" fill-opacity="1.000" fill-rule="nonzero" transform="matrix(1 0 0 1 4.8384 3.3893)"/><path d="M1.526 2.755L0.945 1.594L0.42 1.594L0.42 2.755L0 2.755L0 0L1.071 0C1.596 0 1.93 0.336 1.93 0.805C1.93 1.199 1.689 1.45 1.378 1.536L2.015 2.755L1.526 2.755ZM1.04 0.375L0.418 0.375L0.418 1.238L1.04 1.238C1.32 1.238 1.508 1.079 1.508 0.809C1.508 0.538 1.318 0.375 1.04 0.375Z" fill="rgb(0,0,0)" fill-opacity="1.000" fill-rule="nonzero" transform="matrix(1 0 0 1 57.6456 45.409)"/><path d="M0 0L0 9.164L62.081 9.164L62.081 0L0 0Z" fill="rgb(0,0,0)" fill-opacity="1.000" fill-rule="nonzero" transform="matrix(1 0 0 1 13.0495 39.995)"/><path d="M0 209.953L373.14 209.953L373.14 0L0 0L0 209.953Z" fill="rgb(0,0,0)" fill-opacity="1.000" fill-rule="nonzero" transform="matrix(1 0 0 1 -229.1518 -135.2649)"/><path d="M0 58.921L115.052 58.921L115.052 0L0 0L0 58.921Z" fill="rgb(0,0,0)" fill-opacity="1.000" fill-rule="nonzero" transform="matrix(1 0 0 1 4.8384 3.3893)"/><path d="M0 2.755L0 0L1.767 0L1.767 0.375L0.42 0.375L0.42 1.18L1.568 1.18L1.568 1.551L0.42 1.551L0.42 2.379L1.767 2.379L1.767 2.755L0 2.755Z" fill="rgb(0,0,0)" fill-opacity="1.000" fill-rule="nonzero" transform="matrix(1 0 0 1 59.9563 45.409)"/><path d="M0 0L0 9.164L62.081 9.164L62.081 0L0 0Z" fill="rgb(0,0,0)" fill-opacity="1.000" fill-rule="nonzero" transform="matrix(1 0 0 1 13.0495 39.995)"/><path d="M0 209.953L373.14 209.953L373.14 0L0 0L0 209.953Z" fill="rgb(0,0,0)" fill-opacity="1.000" fill-rule="nonzero" transform="matrix(1 0 0 1 -229.1518 -135.2649)"/><path d="M0 58.921L115.052 58.921L115.052 0L0 0L0 58.921Z" fill="rgb(0,0,0)" fill-opacity="1.000" fill-rule="nonzero" transform="matrix(1 0 0 1 4.8384 3.3893)"/><path d="M2.019 2.755L2.019 0.914L1.382 2.255L1.071 2.255L0.42 0.914L0.42 2.755L0 2.755L0 0L0.42 0L1.228 1.715L2.019 0L2.439 0L2.439 2.755L2.019 2.755Z" fill="rgb(0,0,0)" fill-opacity="1.000" fill-rule="nonzero" transform="matrix(1 0 0 1 62.0631 45.409)"/><path d="M0 0L0 9.164L62.081 9.164L62.081 0L0 0Z" fill="rgb(0,0,0)" fill-opacity="1.000" fill-rule="nonzero" transform="matrix(1 0 0 1 13.0495 39.995)"/><path d="M0 209.953L373.14 209.953L373.14 0L0 0L0 209.953Z" fill="rgb(0,0,0)" fill-opacity="1.000" fill-rule="nonzero" transform="matrix(1 0 0 1 -229.1518 -135.2649)"/><path d="M0 58.921L115.052 58.921L115.052 0L0 0L0 58.921Z" fill="rgb(0,0,0)" fill-opacity="1.000" fill-rule="nonzero" transform="matrix(1 0 0 1 4.8384 3.3893)"/><path d="M1.722 2.506C1.531 2.696 1.287 2.799 0.993 2.799C0.7 2.799 0.457 2.694 0.268 2.506C-0.004 2.236 0 1.928 0 1.4C0 0.871 -0.004 0.564 0.268 0.294C0.459 0.103 0.698 0 0.993 0C1.289 0 1.533 0.105 1.722 0.294C1.994 0.564 1.986 0.871 1.986 1.4C1.986 1.928 1.994 2.236 1.722 2.506ZM1.403 0.544C1.306 0.439 1.154 0.373 0.993 0.373C0.832 0.373 0.678 0.439 0.581 0.544C0.445 0.69 0.418 0.846 0.418 1.4C0.418 1.954 0.445 2.107 0.581 2.255C0.678 2.36 0.83 2.426 0.993 2.426C1.156 2.426 1.308 2.36 1.403 2.255C1.539 2.107 1.566 1.954 1.566 1.4C1.566 0.846 1.539 0.692 1.403 0.544Z" fill="rgb(0,0,0)" fill-opacity="1.000" fill-rule="nonzero" transform="matrix(1 0 0 1 64.8888 45.3876)"/><path d="M0 0L0 9.164L62.081 9.164L62.081 0L0 0Z" fill="rgb(0,0,0)" fill-opacity="1.000" fill-rule="nonzero" transform="matrix(1 0 0 1 13.0495 39.995)"/><path d="M0 209.953L373.14 209.953L373.14 0L0 0L0 209.953Z" fill="rgb(0,0,0)" fill-opacity="1.000" fill-rule="nonzero" transform="matrix(1 0 0 1 -229.1518 -135.2649)"/><path d="M0 58.921L115.052 58.921L115.052 0L0 0L0 58.921Z" fill="rgb(0,0,0)" fill-opacity="1.000" fill-rule="nonzero" transform="matrix(1 0 0 1 4.8384 3.3893)"/><path d="M0.978 2.799C0.562 2.799 0.262 2.702 0 2.436L0.28 2.162C0.482 2.364 0.704 2.424 0.985 2.424C1.347 2.424 1.557 2.269 1.557 2.002L1.522 1.783C1.378 1.65 1.308 1.623 1.145 1.6L0.818 1.553C0.593 1.522 0.414 1.444 0.293 1.334C0.157 1.205 0.091 1.032 0.091 0.809C0.091 0.329 0.441 0 1.014 0C1.38 0 1.636 0.093 1.872 0.313L1.603 0.575C1.432 0.412 1.234 0.364 1.001 0.364C0.674 0.364 0.496 0.55 0.496 0.793L0.527 0.982C0.67 1.11 0.783 1.155 0.911 1.174L1.226 1.221C1.483 1.26 1.627 1.322 1.743 1.427C1.895 1.559 1.969 1.755 1.969 1.991C1.969 2.498 1.553 2.799 0.976 2.799" fill="rgb(0,0,0)" fill-opacity="1.000" fill-rule="nonzero" transform="matrix(1 0 0 1 67.7184 45.3876)"/><path d="M0 0L0 9.164L62.081 9.164L62.081 0L0 0Z" fill="rgb(0,0,0)" fill-opacity="1.000" fill-rule="nonzero" transform="matrix(1 0 0 1 13.0495 39.995)"/><path d="M0 209.953L373.14 209.953L373.14 0L0 0L0 209.953Z" fill="rgb(0,0,0)" fill-opacity="1.000" fill-rule="nonzero" transform="matrix(1 0 0 1 -229.1518 -135.2649)"/><path d="M0 58.921L115.052 58.921L115.052 0L0 0L0 58.921Z" fill="rgb(0,0,0)" fill-opacity="1.000" fill-rule="nonzero" transform="matrix(1 0 0 1 4.8384 3.3893)"/><path d="M0.989 2.778C0.426 2.778 0 2.395 0 1.825L0 0L0.42 0L0.42 1.806C0.42 2.173 0.645 2.403 0.991 2.403C1.337 2.403 1.566 2.175 1.566 1.806L1.566 0L1.986 0L1.986 1.825C1.986 2.395 1.555 2.778 0.993 2.778" fill="rgb(0,0,0)" fill-opacity="1.000" fill-rule="nonzero" transform="matrix(1 0 0 1 69.9787 45.409)"/><path d="M0 0L0 9.164L62.081 9.164L62.081 0L0 0Z" fill="rgb(0,0,0)" fill-opacity="1.000" fill-rule="nonzero" transform="matrix(1 0 0 1 13.0495 39.995)"/><path d="M0 209.953L373.14 209.953L373.14 0L0 0L0 209.953Z" fill="rgb(0,0,0)" fill-opacity="1.000" fill-rule="nonzero" transform="matrix(1 0 0 1 -229.1518 -135.2649)"/><path d="M0 58.921L115.052 58.921L115.052 0L0 0L0 58.921Z" fill="rgb(0,0,0)" fill-opacity="1.000" fill-rule="nonzero" transform="matrix(1 0 0 1 4.8384 3.3893)"/><path d="M0 2.755L0 0L0.42 0L0.42 2.379L1.751 2.379L1.751 2.755L0 2.755Z" fill="rgb(0,0,0)" fill-opacity="1.000" fill-rule="nonzero" transform="matrix(1 0 0 1 72.408 45.409)"/><path d="M12.274 6.83C13.395 6.246 14.193 5.077 14.193 3.766C14.193 2.901 13.841 2.104 13.234 1.473C12.391 0.584 11.035 0 9.141 0L0 0L0 15.273L9.422 15.273C11.501 15.273 12.648 14.783 13.582 13.894C14.54 12.957 15.009 11.836 15.009 10.618C15.009 8.842 14.051 7.438 12.274 6.83ZM3.367 2.784L8.744 2.784C9.493 2.784 9.936 2.948 10.263 3.299C10.545 3.58 10.731 3.954 10.731 4.399C10.731 4.866 10.545 5.311 10.216 5.638C9.863 5.989 9.375 6.129 8.743 6.129L3.367 6.129L3.367 2.784ZM10.987 11.928C10.591 12.302 10.007 12.513 9.304 12.513L3.367 12.513L3.367 8.654L9.306 8.654C10.031 8.654 10.568 8.886 10.989 9.309C11.318 9.66 11.529 10.104 11.529 10.595C11.529 11.087 11.318 11.578 10.989 11.928" fill="rgb(0,108,79)" fill-opacity="1.000" fill-rule="nonzero" transform="matrix(1 0 0 1 13 21.6082)"/><path d="M14.31 4.818C14.31 3.604 13.842 2.504 13.046 1.663C12.065 0.63 10.64 0 8.464 0L0 0L0 15.273L3.344 15.273L3.344 9.66L7.881 9.66L10.969 15.273L14.803 15.273L11.224 9.122C13.095 8.305 14.311 6.782 14.311 4.818M8.815 6.83L3.343 6.83L3.343 2.83L8.583 2.83C9.19 2.83 9.868 2.901 10.406 3.485C10.757 3.836 10.944 4.305 10.944 4.818C10.944 5.989 9.985 6.83 8.816 6.83" fill="rgb(0,108,79)" fill-opacity="1.000" fill-rule="nonzero" transform="matrix(1 0 0 1 29.2133 21.6082)"/><path d="M7.176 0L0 0L0 15.273L7.176 15.273C10.048 15.273 11.709 14.501 13.019 13.262C14.443 11.857 15.215 9.847 15.215 7.624C15.215 5.473 14.491 3.556 13.158 2.175C11.803 0.795 9.98 0 7.176 0ZM10.331 11.297C9.534 11.999 8.811 12.397 7.059 12.397L3.341 12.397L3.341 2.901L7.057 2.901C8.858 2.901 9.674 3.345 10.446 4.118C11.286 4.984 11.732 6.199 11.732 7.649C11.732 9.192 11.217 10.408 10.329 11.297" fill="rgb(0,108,79)" fill-opacity="1.000" fill-rule="nonzero" transform="matrix(1 0 0 1 45.1623 21.6082)"/><path d="M3.35 12.398L3.35 8.748L8.993 8.748L8.993 5.872L3.35 5.872L3.35 2.901L12.739 2.901L12.739 0L0 0L0 15.273L13.276 15.273L13.276 12.398L3.35 12.398Z" fill="rgb(0,108,79)" fill-opacity="1.000" fill-rule="nonzero" transform="matrix(1 0 0 1 61.9043 21.6082)"/></svg>