<svg xmlns="http://www.w3.org/2000/svg" viewBox="0 0 60 60" width="60" height="60"><path d="M0 0L60 0L60 60L0 60L0 0Z" fill="rgb(255,255,255)" fill-opacity="1.000" fill-rule="nonzero" transform="matrix(1 0 0 1 0 0)"/><path d="M0 0L39.605 0L39.605 45.695L0 45.695L0 0Z" fill="rgb(234,28,36)" fill-opacity="1.000" fill-rule="nonzero" transform="matrix(1 0 0 1 10 7)"/><path d="M25.627 15.926C25.634 15.895 26.911 7.579 12.433 0C18.067 0.105 21.201 -0.288 23.716 1.142C23.716 1.142 25.287 1.74 26.75 3.827C29.273 8.005 28.546 13.72 25.627 15.926ZM25.667 31.877C24.972 32.488 23.602 33.732 20.734 34.106C17.865 34.481 10.848 34.171 10.848 34.171C10.965 34.145 21.523 32.171 18.78 23.064C21.106 22.257 23.107 21.03 24.395 18.843C27.368 20.807 29.573 27.358 25.667 31.877ZM16.938 19.075C13.392 14.278 6.849 10.133 0 7.87L0 0.868C8.355 2.011 20.09 7.727 20.928 14.416C21.315 17.428 17.718 18.989 16.938 19.075ZM0.01 17.045L0.01 12.86C0.837 13.137 7.889 15.506 11.87 19.688C6.1 19.688 0.712 17.329 0.01 17.045ZM14.031 27.707C10.49 32.044 0.264 29.621 0.01 29.556L0.01 22.297C8.294 24.963 14.646 24.083 14.646 24.083C14.646 24.083 14.82 24.308 14.901 25.097C14.973 26.517 14.392 27.291 14.031 27.707Z" fill="rgb(255,255,255)" fill-opacity="1.000" fill-rule="nonzero" transform="matrix(1 0 0 -1 15.6438 46.991)"/></svg>