<svg xmlns="http://www.w3.org/2000/svg" viewBox="0 0 130 60" width="130" height="60"><path d="M0 0L130 0L130 60L0 60L0 0Z" fill="rgb(255,255,255)" fill-opacity="1.000" fill-rule="nonzero" transform="matrix(1 0 0 1 0 0)"/><path d="M0 0L110.276 0L110.276 1.075L1.573 1.075C1.573 1.075 1.17 1.099 0.933 1.019C0.783 0.969 0.7 0.924 0.571 0.833C0.248 0.605 0 0 0 0Z" fill="rgb(65,173,73)" fill-opacity="1.000" fill-rule="nonzero" transform="matrix(1 0 0 1 11.7615 36.9218)"/><path d="M7.183 8.202C6.557 8.355 5.86 8.532 4.738 8.532C2.54 8.532 0 7.421 0 4.302C0 1.43 2.008 0 4.726 0C5.563 0 6.379 0.19 7.171 0.425L6.993 2.211C6.285 1.82 5.6 1.632 4.844 1.632C3.284 1.632 2.267 2.766 2.267 4.302C2.267 5.921 3.413 6.901 5.021 6.901C5.741 6.901 6.474 6.711 7.077 6.476L7.183 8.202Z" fill="rgb(0,62,126)" fill-opacity="1.000" fill-rule="nonzero" transform="matrix(1 0 0 1 59.2168 25.3518)"/><path d="M2.859 5.023C3.663 5.023 4.171 4.29 4.171 3.568C3.899 3.556 3.592 3.533 3.273 3.533C2.552 3.533 1.986 3.758 1.986 4.349C1.985 4.773 2.362 5.023 2.859 5.023ZM4.326 6.299C4.314 5.967 4.278 5.648 4.278 5.33L4.255 5.33C3.77 6.098 3.178 6.44 2.304 6.44C1.087 6.44 0 5.838 0 4.502C0 2.623 2.044 2.4 3.178 2.4C3.521 2.4 3.899 2.434 4.171 2.481C4.159 1.643 3.532 1.418 2.766 1.418C2.08 1.418 1.395 1.549 0.803 1.879L0.769 0.439C1.526 0.129 2.317 0 3.226 0C4.797 0 6.156 0.675 6.156 2.554L6.156 4.845C6.156 5.33 6.18 5.814 6.274 6.299L4.326 6.299Z" fill="rgb(0,62,126)" fill-opacity="1.000" fill-rule="nonzero" transform="matrix(1 0 0 1 66.6786 27.4433)"/><path d="M2.127 0L0 0L0 1.558L2.127 1.558L2.127 0Z" fill="rgb(0,62,126)" fill-opacity="1.000" fill-rule="nonzero" transform="matrix(1 0 0 1 73.6336 25.3518)"/><path d="M2.127 0L0 0L0 6.156L2.127 6.156L2.127 0Z" fill="rgb(0,62,126)" fill-opacity="1.000" fill-rule="nonzero" transform="matrix(1 0 0 1 73.6336 27.586)"/><path d="M2.09 3.025L0.165 0L2.682 0L3.591 1.844L4.549 0L6.878 0L4.95 3.001L7.006 6.156L4.442 6.156L3.415 4.242L2.399 6.156L0 6.156L2.09 3.025Z" fill="rgb(0,62,126)" fill-opacity="1.000" fill-rule="nonzero" transform="matrix(1 0 0 1 76.2816 27.586)"/><path d="M2.857 5.023C3.661 5.023 4.169 4.29 4.169 3.568C3.897 3.556 3.591 3.533 3.271 3.533C2.551 3.533 1.985 3.758 1.985 4.349C1.985 4.773 2.362 5.023 2.857 5.023ZM4.324 6.299C4.311 5.967 4.274 5.648 4.274 5.33L4.251 5.33C3.769 6.098 3.177 6.44 2.302 6.44C1.084 6.44 0 5.838 0 4.502C0 2.623 2.043 2.4 3.177 2.4C3.52 2.4 3.897 2.434 4.169 2.481C4.156 1.643 3.53 1.418 2.763 1.418C2.077 1.418 1.393 1.549 0.801 1.879L0.765 0.439C1.522 0.129 2.315 0 3.224 0C4.796 0 6.155 0.675 6.155 2.554L6.155 4.845C6.155 5.33 6.179 5.814 6.273 6.299L4.324 6.299Z" fill="rgb(0,62,126)" fill-opacity="1.000" fill-rule="nonzero" transform="matrix(1 0 0 1 83.1179 27.4433)"/><path d="M7.946 8.174C6.55 8.53 5.508 8.554 4.749 8.554C2.546 8.554 0 7.441 0 4.312C0 1.197 2.19 0 5.222 0C5.767 0 6.917 0.06 7.724 0.368L7.543 2.168C6.857 1.767 6.053 1.636 5.532 1.636C3.743 1.636 2.273 2.382 2.273 4.312C2.273 5.936 3.423 6.92 5.034 6.92C5.33 6.92 5.613 6.871 5.814 6.777L5.814 5.141L4.526 5.141L4.526 3.577L7.946 3.577L7.946 8.174Z" fill="rgb(0,62,126)" fill-opacity="1.000" fill-rule="nonzero" transform="matrix(1 0 0 1 92.4939 25.3742)"/><path d="M4.502 2.641C4.502 1.932 4.17 1.351 3.316 1.351C2.549 1.351 2.179 1.932 2.133 2.641L4.502 2.641ZM2.156 3.851C2.273 4.704 2.926 5.035 3.968 5.035C4.549 5.035 5.212 4.905 5.851 4.563L5.851 6.067C5.165 6.34 4.382 6.458 3.588 6.458C1.553 6.458 0 5.261 0 3.224C0 1.186 1.385 0 3.305 0C5.592 0 6.419 1.624 6.419 3.461L6.419 3.851L2.156 3.851Z" fill="rgb(0,62,126)" fill-opacity="1.000" fill-rule="nonzero" transform="matrix(1 0 0 1 101.163 27.4707)"/><path d="M4.408 1.849C4.172 1.779 3.934 1.779 3.685 1.779C2.69 1.779 2.132 2.502 2.132 3.709L2.132 6.316L0 6.316L0 0.143L1.943 0.143L1.943 1.281L1.967 1.281C2.334 0.499 2.868 0 3.79 0C4.041 0 4.3 0.037 4.515 0.072L4.408 1.849Z" fill="rgb(0,62,126)" fill-opacity="1.000" fill-rule="nonzero" transform="matrix(1 0 0 1 108.316 27.4704)"/><path d="M2.868 5.036C3.675 5.036 4.183 4.3 4.183 3.577C3.91 3.566 3.604 3.542 3.282 3.542C2.559 3.542 1.991 3.767 1.991 4.361C1.99 4.786 2.37 5.036 2.868 5.036ZM4.337 6.316C4.324 5.983 4.29 5.664 4.29 5.344L4.267 5.344C3.779 6.113 3.187 6.458 2.31 6.458C1.09 6.458 0 5.854 0 4.514C0 2.631 2.051 2.406 3.187 2.406C3.533 2.406 3.91 2.442 4.183 2.488C4.172 1.648 3.541 1.422 2.774 1.422C2.085 1.422 1.399 1.552 0.807 1.885L0.77 0.44C1.529 0.131 2.323 0 3.234 0C4.811 0 6.173 0.676 6.173 2.56L6.173 4.858C6.173 5.344 6.197 5.83 6.291 6.316L4.337 6.316Z" fill="rgb(0,62,126)" fill-opacity="1.000" fill-rule="nonzero" transform="matrix(1 0 0 1 112.7582 27.4707)"/><path d="M2.132 0L0 0L0 8.388L2.132 8.388L2.132 0Z" fill="rgb(0,62,126)" fill-opacity="1.000" fill-rule="nonzero" transform="matrix(1 0 0 1 119.9055 25.3991)"/><path d="M0.853 3.664L1.779 3.664C2.655 3.664 3.821 3.436 3.821 2.102C3.821 0.889 2.704 0.72 1.995 0.72L0.853 0.72L0.853 3.664ZM0.829 7.667L1.694 7.667C2.812 7.667 4.073 7.365 4.073 6.032C4.073 4.543 2.787 4.386 1.562 4.386L0.829 4.386L0.829 7.667ZM0 0L1.995 0C3.365 0 4.651 0.456 4.651 2.066C4.651 3.136 4.157 3.773 3.124 3.977L3.124 4.001C4.182 4.193 4.902 4.89 4.902 5.996C4.902 7.823 3.413 8.388 1.67 8.388L0 8.388L0 0Z" fill="rgb(0,62,126)" fill-opacity="1.000" fill-rule="nonzero" transform="matrix(1 0 0 1 25.9392 25.3518)"/><path d="M3.918 3.185L3.701 3.185C2.391 3.185 0.829 3.318 0.829 4.664C0.829 5.469 1.406 5.77 2.103 5.77C3.881 5.77 3.918 4.218 3.918 3.558L3.918 3.185L3.918 3.185ZM3.99 5.288L3.965 5.288C3.629 6.021 2.776 6.418 2.019 6.418C0.276 6.418 0 5.24 0 4.687C0 2.632 2.187 2.537 3.773 2.537L3.918 2.537L3.918 2.225C3.918 1.179 3.546 0.65 2.524 0.65C1.886 0.65 1.286 0.793 0.722 1.154L0.722 0.422C1.191 0.194 1.983 0 2.524 0C4.037 0 4.675 0.686 4.675 2.284L4.675 4.988C4.675 5.479 4.675 5.854 4.735 6.274L3.99 6.274L3.99 5.288Z" fill="rgb(0,62,126)" fill-opacity="1.000" fill-rule="nonzero" transform="matrix(1 0 0 1 32.1392 27.4653)"/><path d="M0.048 1.587C0.048 1.119 0.048 0.638 0 0.145L0.733 0.145L0.733 1.239L0.757 1.239C1.01 0.686 1.467 0 2.74 0C4.253 0 4.831 1.01 4.831 2.356L4.831 6.273L4.073 6.273L4.073 2.548C4.073 1.395 3.665 0.65 2.619 0.65C1.237 0.65 0.806 1.864 0.806 2.885L0.806 6.273L0.048 6.273L0.048 1.587L0.048 1.587Z" fill="rgb(0,62,126)" fill-opacity="1.000" fill-rule="nonzero" transform="matrix(1 0 0 1 38.5675 27.465)"/><path d="M4.445 0.963C4.037 0.783 3.544 0.65 3.136 0.65C1.658 0.65 0.829 1.72 0.829 3.209C0.829 4.603 1.67 5.77 3.052 5.77C3.533 5.77 3.977 5.661 4.434 5.492L4.506 6.202C3.989 6.382 3.508 6.418 2.932 6.418C0.961 6.418 0 4.916 0 3.209C0 1.323 1.213 0 3.028 0C3.761 0 4.29 0.169 4.506 0.241L4.445 0.963Z" fill="rgb(0,62,126)" fill-opacity="1.000" fill-rule="nonzero" transform="matrix(1 0 0 1 44.8406 27.465)"/><path d="M2.86 5.77C4.181 5.77 4.891 4.627 4.891 3.209C4.891 1.792 4.181 0.65 2.86 0.65C1.538 0.65 0.829 1.792 0.829 3.209C0.829 4.627 1.538 5.77 2.86 5.77ZM2.86 0C4.844 0 5.719 1.539 5.719 3.209C5.719 4.881 4.844 6.418 2.86 6.418C0.877 6.418 0 4.881 0 3.209C0 1.539 0.878 0 2.86 0Z" fill="rgb(0,62,126)" fill-opacity="1.000" fill-rule="nonzero" transform="matrix(1 0 0 1 50.1627 27.4653)"/><path d="M4.019 7.175C3.926 7.002 2.531 4.658 2.531 4.658C2.327 4.297 2.312 4.019 2.531 3.646C2.627 3.459 3.163 2.552 3.163 2.552C3.353 2.217 3.571 1.984 4.103 1.984L5.263 1.981C5.709 1.981 5.878 2.088 6.081 2.467C6.121 2.537 6.366 2.986 6.506 3.225C6.723 3.605 6.934 3.718 7.388 3.718L9.338 3.718L7.725 0.919C7.364 0.297 6.979 0 6.134 0L3.462 0C2.406 0 1.933 0.335 1.443 1.159L0.257 3.213C-0.056 3.755 -0.113 4.468 0.257 5.159L3.012 9.807L4.025 8.126C4.217 7.784 4.205 7.522 4.019 7.175Z" fill="rgb(0,62,126)" fill-opacity="1.000" fill-rule="nonzero" transform="matrix(1 0 0 1 10.5225 21)"/><path d="M7.652 2.825C7.55 2.99 6.136 5.37 6.136 5.37C5.923 5.726 5.691 5.88 5.259 5.876C5.048 5.886 3.989 5.875 3.989 5.875C3.605 5.876 3.292 5.814 3.025 5.353L2.445 4.349C2.221 3.963 2.228 3.765 2.455 3.4C2.497 3.33 2.752 2.928 2.891 2.686C3.11 2.309 3.102 2.071 2.875 1.676L1.891 0L0.292 2.751C-0.065 3.373 -0.129 3.854 0.294 4.587L1.63 6.901C2.158 7.817 2.683 8.058 3.642 8.068L5.943 8.071C6.569 8.071 7.216 7.762 7.629 7.095C7.822 6.755 10.479 2.343 10.479 2.343L8.472 2.343C8.08 2.348 7.861 2.488 7.652 2.825Z" fill="rgb(0,62,126)" fill-opacity="1.000" fill-rule="nonzero" transform="matrix(1 0 0 1 8 25.7104)"/><path d="M1.86 2.194C2.055 2.2 4.826 2.192 4.826 2.192C5.241 2.198 5.491 2.322 5.704 2.699C5.817 2.876 6.306 3.713 6.306 3.713C6.5 4.045 6.595 4.351 6.328 4.811L5.749 5.817C5.525 6.202 5.351 6.295 4.921 6.281C4.84 6.281 4.419 6.272 4.14 6.273C3.703 6.272 3.499 6.4 3.274 6.791C3.196 6.925 2.247 8.478 2.247 8.478L5.441 8.478C6.16 8.477 6.607 8.291 7.031 7.56L8.367 5.246C8.894 4.331 8.842 3.754 8.371 2.919C8.23 2.67 7.694 1.759 7.24 0.972C6.928 0.43 6.338 0.024 5.554 0C5.161 0.003 0 0.01 0 0.01L1.019 1.719C1.22 2.057 1.466 2.182 1.86 2.194Z" fill="rgb(0,62,126)" fill-opacity="1.000" fill-rule="nonzero" transform="matrix(1 0 0 1 13.5186 25.2915)"/></svg>