<svg xmlns="http://www.w3.org/2000/svg" viewBox="0 0 130 60" width="130" height="60"><path d="M0 0L130 0L130 60L0 60L0 0Z" fill="rgb(255,255,255)" fill-opacity="1.000" fill-rule="nonzero" transform="matrix(1 0 0 1 0 0)"/><path d="M5.814 7.081C4.66 7.081 3.524 7.367 2.509 7.914C1.494 8.461 0.632 9.251 0 10.214L0 19.81L9.631 19.81C10.878 18.989 11.826 17.789 12.336 16.388C12.846 14.987 12.89 13.46 12.462 12.032C12.034 10.604 11.156 9.351 9.959 8.46C8.761 7.568 7.308 7.085 5.814 7.081ZM0 0L0 8.01L7.947 0.085L19.782 11.89L11.834 19.81L19.859 19.81L19.859 0L0 0Z" fill="rgb(0,135,82)" fill-opacity="1.000" fill-rule="nonzero" transform="matrix(1 0 0 1 16.0274 20)"/><path d="M13.598 4.643C13.491 3.115 12.841 1.965 11.666 1.222C10.705 0.617 9.381 0.297 7.834 0.297L2.491 0.297L0 18.121L5.199 18.121C8.506 18.121 10.83 17.425 12.108 16.057C12.945 15.157 13.319 13.974 13.218 12.536C13.09 10.627 12.149 9.31 10.62 8.834C12.484 8.264 13.732 6.558 13.598 4.643ZM8.819 14.091C8.055 14.909 6.603 15.022 5.148 15.022L4.144 15.022L4.797 10.303L5.784 10.303C7.564 10.303 9.227 10.538 9.347 12.243C9.404 13.05 9.23 13.654 8.819 14.095L8.819 14.091ZM9.302 6.488C8.631 7.207 7.349 7.359 6.393 7.359L5.215 7.359L5.794 3.391L6.882 3.391C8.344 3.391 9.664 3.512 9.766 4.981C9.81 5.608 9.654 6.114 9.302 6.492L9.302 6.488ZM31.536 0.301L27.876 0.301L26.007 13.139L21.489 0.301L16.779 0.301L14.187 18.121L17.898 18.121L19.684 5.176L24.132 18.121L28.918 18.121L31.536 0.301ZM44.634 1.791C43.226 0.802 41.377 0.301 39.14 0.301L33.729 0.301L31.21 18.121L37.313 18.121C40.898 18.121 43.625 17.149 45.407 15.236C47.655 12.826 47.79 9.622 47.672 7.927C47.476 5.133 46.454 3.07 44.634 1.791ZM42.099 13.209C40.974 14.415 39.244 15.026 36.959 15.026L35.528 15.026L37.152 3.395L38.215 3.395C41.435 3.395 43.454 4.906 43.632 7.439C43.81 9.971 43.294 11.928 42.099 13.209ZM54.025 3.395L60.881 3.395L61.257 0.301L50.596 0.301L48.081 18.121L58.871 18.121L59.33 15.026L52.399 15.026L53.044 10.457L59.196 10.457L59.599 7.363L53.47 7.363L54.025 3.395ZM72.954 0.788C71.618 0.265 70.049 0 68.293 0C66.079 0 64.247 0.657 63.141 1.85C62.267 2.787 61.876 4.001 61.981 5.46C62.165 8.111 64.1 9.15 65.807 10.066C67.184 10.805 68.373 11.445 68.467 12.773C68.514 13.445 68.339 14.005 67.926 14.443C67.401 15.007 66.509 15.33 65.479 15.33C63.955 15.33 62.457 14.717 61.171 14.142L60.985 14.059L60.212 17.384L60.362 17.437C62.207 18.091 63.93 18.424 65.485 18.424C68.044 18.424 70.021 17.754 71.201 16.49C72.145 15.477 72.564 14.106 72.445 12.413C72.246 9.558 70.127 8.359 68.418 7.395C67.13 6.669 66.024 6.041 65.946 4.924C65.927 4.731 65.949 4.536 66.011 4.351C66.073 4.167 66.173 3.998 66.306 3.856C66.829 3.296 67.823 3.097 68.579 3.097C69.839 3.119 71.078 3.42 72.206 3.98L72.399 4.075L73.101 0.846L72.954 0.788Z" fill="rgb(0,83,155)" fill-opacity="1.000" fill-rule="nonzero" transform="matrix(1 0 0 1 40.8719 21.6974)"/></svg>