<svg xmlns="http://www.w3.org/2000/svg" viewBox="0 0 60 60" width="60" height="60"><path d="M0 0L60 0L60 60L0 60L0 0Z" fill="rgb(19,122,151)" fill-opacity="1.000" fill-rule="nonzero" transform="matrix(1 0 0 1 0 0)"/><path d="M11.625 0L21.958 0L25.187 3.229L14.857 3.229L14.854 9.043L16.791 9.043L20.021 12.27L12.27 12.27L12.27 20.021L9.043 16.791L9.043 14.854L3.229 14.854L3.229 25.187L0 21.958L0 11.625L5.814 11.625L5.814 5.814L11.625 5.814L11.625 0Z" fill="rgb(255,255,255)" fill-opacity="1.000" fill-rule="nonzero" transform="matrix(1 0 0 -1 11.188 48.0001)"/><path d="M0 0L0 7.748L3.229 10.978L3.229 3.229L10.98 3.229L7.748 0L0 0Z" fill="rgb(255,255,255)" fill-opacity="1.000" fill-rule="nonzero" transform="matrix(1 0 0 -1 34.4381 24.7501)"/><path d="M9.045 10.978L6.458 10.978L6.458 3.229L14.209 3.227L10.98 0L3.231 0L3.229 1.935L0 1.937L0 4.521L9.043 13.562L9.045 10.978Z" fill="rgb(255,255,255)" fill-opacity="1.000" fill-rule="nonzero" transform="matrix(1 0 0 -1 16.9994 24.7501)"/><path d="M10.98 6.456L10.98 9.041L13.562 9.041L4.521 0L1.937 0L1.937 3.229L0 3.229L0 10.978L3.229 14.207L3.229 6.456L10.98 6.456Z" fill="rgb(255,255,255)" fill-opacity="1.000" fill-rule="nonzero" transform="matrix(1 0 0 -1 34.4381 42.1864)"/></svg>