<svg xmlns="http://www.w3.org/2000/svg" viewBox="0 0 60 60" width="60" height="60"><defs><linearGradient id="g69" gradientUnits="userSpaceOnUse" x1="-14.52" y1="-24.26" x2="73.18" y2="127.48"><stop offset="0.0%" stop-color="rgb(34,58,210)" stop-opacity="1.000"/><stop offset="100.0%" stop-color="rgb(23,39,140)" stop-opacity="1.000"/></linearGradient></defs><path d="M0 0L60 0L60 60L0 60L0 0Z" fill="rgb(255,255,255)" fill-opacity="1.000" fill-rule="nonzero" transform="matrix(1 0 0 1 0 0)"/><path d="M15.389 0.004C15.389 0.004 12.834 -0.005 10.135 0.004C7.435 0.013 6.751 2.073 6.751 2.073L0 19.48L2.628 26.254C5.325 26.243 6.009 24.185 6.009 24.185L15.389 0.004Z" fill="rgb(49,199,237)" fill-opacity="1.000" fill-rule="evenodd" transform="matrix(1 0 0 1 39.611 20.7405)"/><path d="M29.095 15.58L29.089 15.564C29.089 15.562 29.089 15.56 29.089 15.558L29.084 15.547C28.494 14.066 27.268 12.845 25.855 11.898C27.272 10.661 28.153 8.816 28.153 6.756C28.153 3.784 25.591 0 18.234 0L5.328 0L5.328 9.925L0 9.925L0 15.633L5.327 15.633L5.327 25.89L18.892 25.89C20.061 25.898 21.226 25.765 22.363 25.494L22.378 25.491C23.205 25.292 24.005 24.993 24.759 24.6L27.601 31.927C27.601 31.927 28.285 33.986 30.984 33.996C33.682 34.005 36.238 33.996 36.238 33.996L29.095 15.58ZM12.984 5.708L17.753 5.708C19.854 5.708 20.51 6.8 20.51 7.818C20.51 8.836 19.857 9.92 17.77 9.925L12.984 9.925L12.984 5.708ZM12.984 15.633L18.041 15.633C20.267 15.633 20.963 16.789 20.963 17.869C20.963 18.948 20.271 20.097 18.059 20.104L12.984 20.104L12.984 15.633Z" fill="rgb(34,58,210)" fill-opacity="1.000" fill-rule="evenodd" transform="matrix(1 0 0 1 6 13)"/><path d="M16.675 1.868C16.675 1.868 16.106 0 13.015 0L12.796 0L12.796 0.009C14.956 0.038 15.635 1.179 15.635 2.244C15.635 3.321 14.942 4.473 12.73 4.479L7.656 4.479L7.656 0.003L0 0.009L0 10.266L13.564 10.266C14.733 10.273 15.898 10.141 17.035 9.87L17.05 9.866C17.877 9.668 18.677 9.368 19.431 8.975L16.675 1.868Z" fill="url(#g69)" fill-rule="nonzero" transform="matrix(1 0 0 1 11.3282 28.6242)" opacity="0.800000011920929"/><path d="M5.327 0L0 0L5.327 2.449L5.327 0Z" fill="rgb(49,199,237)" fill-opacity="1.000" fill-rule="nonzero" transform="matrix(1 0 0 1 6 28.6335)"/></svg>