<svg xmlns="http://www.w3.org/2000/svg" viewBox="0 0 60 60" width="60" height="60"><path d="M0 0L60 0L60 60L0 60L0 0Z" fill="rgb(0,103,56)" fill-opacity="1.000" fill-rule="nonzero" transform="matrix(1 0 0 1 0 0)"/><path d="M9.568 14.58C9.568 14.58 10.999 7.308 18.577 8.704C19.882 8.945 21.139 9.237 22.366 9.521C28.259 10.89 33.438 12.093 39.794 6.61C39.794 6.61 38.17 13.06 29.833 14.303C26.28 14.833 23.545 14.308 20.95 13.809C17.457 13.137 14.215 12.514 9.568 14.58ZM0.014 0L40.989 0L40.989 41.637L0.014 41.637L0.014 32.737C0.648 32.853 1.283 32.975 1.923 33.098C6.528 33.985 11.375 34.918 17.69 33.973C32.495 31.791 35.379 20.302 35.379 20.302C24.13 30.014 14.966 27.896 4.538 25.486C3.059 25.145 1.554 24.797 0.014 24.476L0.014 21.822C4.207 20.999 7.666 21.666 11.314 22.368C15.049 23.088 18.982 23.845 24.101 23.08C36.116 21.284 38.456 11.984 38.456 11.984C29.333 19.863 21.894 18.144 13.434 16.19C11.635 15.774 9.789 15.348 7.872 15.001C4.458 14.383 1.904 15.001 0 16.092L0.014 0Z" fill="rgb(255,255,255)" fill-opacity="1.000" fill-rule="evenodd" transform="matrix(1 0 0 1 10 9)"/></svg>