<svg xmlns="http://www.w3.org/2000/svg" viewBox="0 0 60 60" width="60" height="60"><path d="M0 0L60 0L60 60L0 60L0 0Z" fill="rgb(255,255,255)" fill-opacity="1.000" fill-rule="nonzero" transform="matrix(1 0 0 1 0 0)"/><path d="M14.981 9.418L14.981 7.035L7.221 7.035L7.221 14.185L11.976 14.185L11.976 16.569L7.221 16.569L7.221 23.72L14.981 23.72L14.981 21.33L9.608 21.33L9.608 18.946L14.383 18.946L14.383 11.795L9.608 11.795L9.608 9.412M0 15.387C0.012 12.334 0.934 9.354 2.65 6.821C4.367 4.289 6.8 2.318 9.644 1.158C12.487 -0.001 15.613 -0.299 18.627 0.304C21.64 0.907 24.406 2.384 26.575 4.547C28.744 6.71 30.219 9.462 30.814 12.457C31.409 15.452 31.096 18.555 29.916 21.374C28.736 24.192 26.742 26.601 24.184 28.294C21.627 29.988 18.622 30.891 15.547 30.89C13.501 30.887 11.476 30.483 9.587 29.702C7.698 28.921 5.982 27.778 4.538 26.338C3.095 24.898 1.951 23.19 1.172 21.311C0.393 19.432 -0.005 17.419 0 15.387ZM2.407 15.387C2.417 12.808 3.197 10.291 4.647 8.152C6.097 6.013 8.153 4.348 10.555 3.369C12.957 2.389 15.597 2.138 18.143 2.647C20.688 3.156 23.025 4.403 24.857 6.23C26.69 8.057 27.936 10.382 28.439 12.912C28.942 15.442 28.679 18.063 27.683 20.444C26.687 22.825 25.002 24.86 22.842 26.292C20.683 27.723 18.144 28.487 15.547 28.487C12.056 28.479 8.711 27.094 6.247 24.638C3.783 22.181 2.402 18.854 2.407 15.387ZM16.185 21.336L16.185 23.72L23.933 23.72L23.933 16.576L19.164 16.576L19.164 14.192L23.933 14.192L23.933 7.041L16.185 7.041L16.185 9.425L21.545 9.425L21.545 11.815L16.77 11.815L16.77 18.959L21.545 18.959L21.545 21.343L16.185 21.336Z" fill="rgb(203,2,2)" fill-opacity="1.000" fill-rule="evenodd" transform="matrix(1 0 0 1 14 15)"/></svg>