<svg xmlns="http://www.w3.org/2000/svg" viewBox="0 0 130 60" width="130" height="60"><path d="M0 0L130 0L130 60L0 60L0 0Z" fill="rgb(255,255,255)" fill-opacity="1.000" fill-rule="nonzero" transform="matrix(1 0 0 1 0 0)"/><path d="M105.954 0L0 0L0 19.942L105.954 19.942L105.954 0Z" fill="rgb(0,0,0)" fill-opacity="1.000" fill-rule="nonzero" transform="matrix(1 0 0 1 12 20)"/><path d="M5.591 4.058C4.103 4.058 2.766 4.653 1.836 5.703L1.836 0.373C1.836 0.163 1.674 0 1.464 0L0.372 0C0.163 0 0 0.175 0 0.373L0 14.321C0 14.531 0.163 14.694 0.372 14.694L1.464 14.694C1.674 14.694 1.836 14.519 1.836 14.321L1.836 13.283C2.766 14.333 4.103 14.927 5.591 14.927C8.589 14.927 10.844 12.595 10.844 9.493C10.856 6.391 8.589 4.058 5.591 4.058ZM5.405 5.878C7.439 5.878 8.973 7.429 8.973 9.493C8.973 11.557 7.439 13.108 5.405 13.108C3.371 13.108 1.836 11.557 1.836 9.493C1.836 7.429 3.371 5.878 5.405 5.878Z" fill="rgb(0,0,81)" fill-opacity="1.000" fill-rule="nonzero" transform="matrix(1 0 0 1 38.4652 22.5073)"/><path d="M105.954 0L0 0L0 19.942L105.954 19.942L105.954 0Z" fill="rgb(0,0,0)" fill-opacity="1.000" fill-rule="nonzero" transform="matrix(1 0 0 1 12 20)"/><path d="M10.461 0.233L9.368 0.233C9.159 0.233 8.996 0.408 8.996 0.606L8.996 1.644C8.066 0.595 6.73 0 5.242 0C2.255 0 0 2.332 0 5.434C0 8.537 2.255 10.869 5.242 10.869C6.73 10.869 8.066 10.274 8.996 9.225L8.996 10.263C8.996 10.472 9.159 10.636 9.368 10.636L10.461 10.636C10.67 10.636 10.832 10.461 10.832 10.263L10.832 0.606C10.832 0.397 10.67 0.233 10.461 0.233ZM5.428 9.05C3.405 9.05 1.883 7.499 1.883 5.434C1.883 3.37 3.405 1.819 5.428 1.819C7.462 1.819 8.996 3.37 8.996 5.434C8.996 7.499 7.462 9.05 5.428 9.05Z" fill="rgb(0,0,81)" fill-opacity="1.000" fill-rule="nonzero" transform="matrix(1 0 0 1 51.7152 26.5657)"/><path d="M105.954 0L0 0L0 19.942L105.954 19.942L105.954 0Z" fill="rgb(0,0,0)" fill-opacity="1.000" fill-rule="nonzero" transform="matrix(1 0 0 1 12 20)"/><path d="M5.184 0C3.812 0 2.662 0.455 1.836 1.283L1.836 0.606C1.836 0.397 1.674 0.233 1.464 0.233L0.372 0.233C0.163 0.233 0 0.408 0 0.606L0 10.263C0 10.472 0.163 10.636 0.372 10.636L1.464 10.636C1.674 10.636 1.836 10.461 1.836 10.263L1.836 4.77C1.836 2.974 3.022 1.819 4.858 1.819C6.602 1.819 7.729 2.962 7.729 4.735L7.729 10.263C7.729 10.472 7.892 10.636 8.101 10.636L9.194 10.636C9.403 10.636 9.566 10.461 9.566 10.263L9.566 4.408C9.577 1.773 7.811 0 5.184 0Z" fill="rgb(0,0,81)" fill-opacity="1.000" fill-rule="nonzero" transform="matrix(1 0 0 1 66.174 26.5657)"/><path d="M105.954 0L0 0L0 19.942L105.954 19.942L105.954 0Z" fill="rgb(0,0,0)" fill-opacity="1.000" fill-rule="nonzero" transform="matrix(1 0 0 1 12 20)"/><path d="M5.346 0.023L5.068 0.023C3.777 0.023 2.65 0.501 1.836 1.388L1.836 0.373C1.836 0.163 1.674 0 1.464 0L0.372 0C0.163 0 0 0.175 0 0.373L0 10.029C0 10.239 0.163 10.402 0.372 10.402L1.464 10.402C1.674 10.402 1.836 10.228 1.836 10.029L1.836 5.236C1.836 3.195 3.068 1.924 5.068 1.924L5.346 1.924C5.556 1.924 5.718 1.749 5.718 1.551L5.718 0.42C5.73 0.187 5.556 0.023 5.346 0.023Z" fill="rgb(0,0,81)" fill-opacity="1.000" fill-rule="nonzero" transform="matrix(1 0 0 1 79.2613 26.8106)"/><path d="M105.954 0L0 0L0 19.942L105.954 19.942L105.954 0Z" fill="rgb(0,0,0)" fill-opacity="1.000" fill-rule="nonzero" transform="matrix(1 0 0 1 12 20)"/><path d="M1.464 0L0.372 0C0.163 0 0 0.175 0 0.373L0 10.029C0 10.239 0.163 10.402 0.372 10.402L1.464 10.402C1.674 10.402 1.836 10.228 1.836 10.029L1.836 0.373C1.848 0.163 1.674 0 1.464 0Z" fill="rgb(0,0,81)" fill-opacity="1.000" fill-rule="nonzero" transform="matrix(1 0 0 1 87.5367 26.7989)"/><path d="M105.954 0L0 0L0 19.942L105.954 19.942L105.954 0Z" fill="rgb(0,0,0)" fill-opacity="1.000" fill-rule="nonzero" transform="matrix(1 0 0 1 12 20)"/><path d="M1.162 0C0.523 0 0 0.513 0 1.155C0 1.808 0.511 2.332 1.162 2.332C1.825 2.332 2.348 1.819 2.348 1.155C2.348 0.513 1.836 0 1.162 0Z" fill="rgb(0,0,81)" fill-opacity="1.000" fill-rule="nonzero" transform="matrix(1 0 0 1 87.2926 22.9505)"/><path d="M105.954 0L0 0L0 19.942L105.954 19.942L105.954 0Z" fill="rgb(0,0,0)" fill-opacity="1.000" fill-rule="nonzero" transform="matrix(1 0 0 1 12 20)"/><path d="M4.625 4.525C3.172 4.175 2.207 3.883 2.207 3.02C2.207 2.204 3.23 1.773 4.23 1.773C5.194 1.773 6.101 2.146 6.694 2.811C6.763 2.892 6.88 2.939 6.984 2.927C7.101 2.927 7.194 2.869 7.263 2.776L7.879 1.959C7.996 1.808 7.984 1.598 7.844 1.458C6.915 0.525 5.624 0 4.195 0C1.905 0 0.313 1.271 0.313 3.09C0.313 5.306 2.358 5.831 4.021 6.262C5.45 6.612 6.38 6.904 6.38 7.755C6.38 8.56 5.45 9.12 4.125 9.12C2.963 9.12 1.952 8.7 1.266 7.918C1.196 7.837 1.08 7.79 0.975 7.79C0.859 7.79 0.754 7.849 0.696 7.93L0.08 8.723C-0.036 8.875 -0.024 9.085 0.104 9.225C1.103 10.274 2.579 10.881 4.148 10.881C6.612 10.881 8.263 9.574 8.263 7.639C8.274 5.434 6.159 4.91 4.625 4.525Z" fill="rgb(0,0,81)" fill-opacity="1.000" fill-rule="nonzero" transform="matrix(1 0 0 1 92.2798 26.554)"/><path d="M105.954 0L0 0L0 19.942L105.954 19.942L105.954 0Z" fill="rgb(0,0,0)" fill-opacity="1.000" fill-rule="nonzero" transform="matrix(1 0 0 1 12 20)"/><path d="M8.833 0L7.741 0C7.532 0 7.369 0.175 7.369 0.373L7.369 6.076C7.369 7.744 6.288 8.816 4.614 8.816C2.929 8.816 1.836 7.744 1.836 6.076L1.836 0.373C1.836 0.163 1.674 0 1.464 0L0.372 0C0.163 0 0 0.175 0 0.373L0 6.227C0 8.863 1.86 10.636 4.614 10.636C7.369 10.636 9.217 8.863 9.217 6.227L9.217 0.373C9.205 0.163 9.043 0 8.833 0Z" fill="rgb(0,0,81)" fill-opacity="1.000" fill-rule="nonzero" transform="matrix(1 0 0 1 103.3786 26.7989)"/><path d="M105.954 0L0 0L0 19.942L105.954 19.942L105.954 0Z" fill="rgb(0,0,0)" fill-opacity="1.000" fill-rule="nonzero" transform="matrix(1 0 0 1 12 20)"/><path d="M1.464 0L0.372 0C0.163 0 0 0.175 0 0.373L0 14.321C0 14.531 0.163 14.694 0.372 14.694L1.464 14.694C1.674 14.694 1.836 14.519 1.836 14.321L1.836 0.385C1.836 0.175 1.674 0 1.464 0Z" fill="rgb(0,0,81)" fill-opacity="1.000" fill-rule="nonzero" transform="matrix(1 0 0 1 116.1172 22.4957)"/><path d="M105.954 0L0 0L0 19.942L105.954 19.942L105.954 0Z" fill="rgb(0,0,0)" fill-opacity="1.000" fill-rule="nonzero" transform="matrix(1 0 0 1 12 20)"/><path d="M12.573 5.073L10.074 0.7C9.83 0.268 9.365 0 8.877 0L3.879 0C3.379 0 2.926 0.268 2.682 0.7L0.183 5.073C-0.061 5.504 -0.061 6.041 0.183 6.472L2.682 10.846C2.926 11.277 3.391 11.545 3.879 11.545L5.692 11.545L6.378 10.344L3.879 10.344C3.809 10.344 3.74 10.309 3.705 10.239L1.206 5.866C1.171 5.808 1.171 5.726 1.206 5.668L3.705 1.294C3.74 1.236 3.809 1.19 3.879 1.19L8.877 1.19C8.947 1.19 9.016 1.225 9.051 1.294L11.55 5.668C11.585 5.726 11.585 5.808 11.55 5.866L10.097 8.408L11.469 8.408L12.585 6.472C12.829 6.041 12.829 5.504 12.573 5.073Z" fill="rgb(7,136,254)" fill-opacity="1.000" fill-rule="nonzero" transform="matrix(1 0 0 1 16.4196 19.9883)"/><path d="M105.954 0L0 0L0 19.942L105.954 19.942L105.954 0Z" fill="rgb(0,0,0)" fill-opacity="1.000" fill-rule="nonzero" transform="matrix(1 0 0 1 12 20)"/><path d="M12.585 5.073L11.469 3.137L10.097 3.137L11.55 5.679C11.585 5.738 11.585 5.819 11.55 5.878L9.051 10.251C9.016 10.309 8.947 10.356 8.877 10.356L3.879 10.356C3.809 10.356 3.74 10.321 3.705 10.251L1.206 5.878C1.171 5.819 1.171 5.738 1.206 5.679L3.705 1.306C3.74 1.248 3.809 1.201 3.879 1.201L6.378 1.201L5.692 0L3.891 0C3.391 0 2.938 0.268 2.694 0.7L0.183 5.073C-0.061 5.504 -0.061 6.041 0.183 6.472L2.682 10.846C2.926 11.277 3.391 11.545 3.879 11.545L8.877 11.545C9.377 11.545 9.83 11.277 10.074 10.846L12.573 6.472C12.84 6.041 12.84 5.504 12.585 5.073Z" fill="rgb(160,111,254)" fill-opacity="1.000" fill-rule="nonzero" transform="matrix(1 0 0 1 12.0029 28.3966)"/><path d="M105.954 0L0 0L0 19.942L105.954 19.942L105.954 0Z" fill="rgb(0,0,0)" fill-opacity="1.000" fill-rule="nonzero" transform="matrix(1 0 0 1 12 20)"/><path d="M11.286 5.061L8.787 0.7C8.543 0.268 8.078 0 7.59 0L2.592 0C2.092 0 1.639 0.268 1.395 0.7L0 3.125L1.371 3.125L2.418 1.294C2.452 1.236 2.522 1.19 2.592 1.19L7.59 1.19C7.659 1.19 7.729 1.225 7.764 1.294L10.263 5.668C10.298 5.726 10.298 5.808 10.263 5.866L7.764 10.239C7.729 10.298 7.659 10.344 7.59 10.344L2.592 10.344C2.522 10.344 2.452 10.309 2.418 10.239L1.371 8.42L0.686 9.621L1.395 10.846C1.639 11.277 2.104 11.545 2.592 11.545L7.59 11.545C8.089 11.545 8.543 11.277 8.787 10.846L11.286 6.472C11.541 6.029 11.541 5.493 11.286 5.061Z" fill="rgb(0,217,203)" fill-opacity="1.000" fill-rule="nonzero" transform="matrix(1 0 0 1 22.1119 28.4083)"/></svg>