<svg xmlns="http://www.w3.org/2000/svg" viewBox="0 0 60 60" width="60" height="60"><path d="M0 0L60 0L60 60L0 60L0 0Z" fill="rgb(255,255,255)" fill-opacity="1.000" fill-rule="nonzero" transform="matrix(1 0 0 1 0 0)"/><path d="M0 0C0.734 0 1.468 0 2.224 0C2.224 1.36 2.224 2.721 2.224 4.123C3.074 4.121 3.074 4.121 3.94 4.119C4.299 4.118 4.658 4.118 5.017 4.117C5.587 4.117 6.157 4.116 6.726 4.114C7.141 4.113 7.556 4.113 7.971 4.113C8.191 4.112 8.41 4.112 8.63 4.111C8.837 4.11 9.044 4.11 9.251 4.11C9.326 4.11 9.402 4.11 9.478 4.11C10.291 4.105 10.946 4.221 11.559 4.797C11.962 5.221 12.17 5.764 12.16 6.345C12.197 6.343 12.235 6.341 12.274 6.338C12.857 6.342 13.366 6.623 13.772 7.024C14.178 7.464 14.353 7.982 14.353 8.572C14.354 8.608 14.354 8.645 14.354 8.682C14.354 8.802 14.355 8.923 14.355 9.043C14.355 9.127 14.355 9.211 14.355 9.295C14.356 9.471 14.356 9.647 14.356 9.823C14.356 10.047 14.357 10.272 14.358 10.497C14.359 10.67 14.359 10.844 14.359 11.017C14.359 11.1 14.359 11.183 14.36 11.266C14.364 12.073 14.261 12.698 13.668 13.299C13.238 13.695 12.724 13.879 12.145 13.879C12.111 13.879 12.077 13.879 12.042 13.879C11.927 13.879 11.813 13.879 11.698 13.879C11.616 13.88 11.534 13.88 11.452 13.88C11.229 13.88 11.006 13.881 10.784 13.881C10.644 13.881 10.505 13.881 10.365 13.881C9.979 13.882 9.593 13.882 9.207 13.882C9.182 13.882 9.157 13.882 9.132 13.882C9.095 13.882 9.095 13.882 9.057 13.882C9.007 13.882 8.957 13.882 8.907 13.882C8.881 13.882 8.857 13.882 8.831 13.882C8.428 13.882 8.025 13.883 7.622 13.884C7.209 13.885 6.794 13.885 6.38 13.885C6.148 13.885 5.916 13.885 5.683 13.886C5.465 13.887 5.246 13.887 5.027 13.887C4.947 13.887 4.867 13.887 4.787 13.887C4.055 13.89 3.426 13.808 2.876 13.272C2.85 13.246 2.824 13.22 2.798 13.192C2.764 13.16 2.764 13.16 2.729 13.126C2.357 12.742 2.188 12.212 2.188 11.687C1.466 11.687 0.744 11.687 0 11.687C0 7.83 0 3.974 0 0ZM2.224 6.381C2.224 8.12 2.224 9.859 2.224 11.651C5.491 11.651 8.758 11.651 12.124 11.651C12.124 9.912 12.124 8.173 12.124 6.381C8.857 6.381 5.59 6.381 2.224 6.381Z" fill="rgb(0,109,198)" fill-opacity="1.000" fill-rule="nonzero" transform="matrix(1 0 0 1 5 21.9679)"/><path d="M4.881 0.001C4.964 0.001 5.046 0 5.128 0C5.351 0 5.573 0 5.795 0.001C6.029 0.001 6.262 0.001 6.496 0.001C6.888 0.001 7.28 0.001 7.671 0.002C8.073 0.003 8.476 0.003 8.878 0.003C9.364 0.002 9.85 0.003 10.337 0.003C10.522 0.003 10.707 0.003 10.892 0.003C11.11 0.003 11.328 0.003 11.547 0.004C11.626 0.004 11.706 0.004 11.786 0.004C12.283 0.003 12.743 0.008 13.188 0.259C13.222 0.278 13.222 0.278 13.257 0.297C13.752 0.579 14.111 1.049 14.276 1.596C14.332 1.851 14.358 2.095 14.358 2.355C14.358 2.389 14.358 2.424 14.359 2.459C14.359 2.57 14.359 2.682 14.359 2.793C14.36 2.872 14.36 2.95 14.36 3.028C14.36 3.193 14.361 3.356 14.361 3.521C14.361 3.729 14.362 3.938 14.363 4.146C14.364 4.308 14.364 4.471 14.364 4.632C14.364 4.709 14.364 4.786 14.365 4.863C14.37 5.608 14.289 6.295 13.747 6.857C13.721 6.884 13.694 6.91 13.666 6.938C13.644 6.961 13.622 6.984 13.599 7.007C13.253 7.34 12.75 7.541 12.271 7.55C12.216 7.549 12.216 7.549 12.16 7.547C12.155 7.601 12.155 7.601 12.15 7.656C12.086 8.31 11.838 8.875 11.322 9.302C10.7 9.757 10.035 9.786 9.293 9.782C9.215 9.782 9.138 9.782 9.06 9.782C8.852 9.782 8.643 9.782 8.435 9.781C8.216 9.78 7.997 9.78 7.779 9.78C7.365 9.779 6.952 9.779 6.539 9.778C5.98 9.776 5.421 9.775 4.862 9.775C3.983 9.774 3.103 9.772 2.224 9.77C2.224 11.13 2.224 12.491 2.224 13.892C1.49 13.892 0.756 13.892 0 13.892C0 10.036 0 6.179 0 2.206C0.722 2.206 1.444 2.206 2.188 2.206C2.188 2.099 2.188 1.993 2.188 1.883C2.268 1.327 2.573 0.828 3.004 0.473C3.598 0.033 4.169 -0.002 4.881 0.001ZM2.224 2.241C2.224 3.98 2.224 5.72 2.224 7.511C5.491 7.511 8.758 7.511 12.124 7.511C12.124 5.772 12.124 4.033 12.124 2.241C8.857 2.241 5.59 2.241 2.224 2.241Z" fill="rgb(0,109,198)" fill-opacity="1.000" fill-rule="nonzero" transform="matrix(1 0 0 1 35.5605 26.1075)"/><path d="M4.393 0C4.428 0 4.462 0 4.498 0C4.613 0 4.729 0 4.844 0.001C4.927 0.001 5.009 0.001 5.092 0.001C5.317 0.001 5.541 0.001 5.766 0.001C6.001 0.001 6.235 0.001 6.47 0.001C6.865 0.001 7.258 0.002 7.653 0.002C8.058 0.002 8.464 0.002 8.87 0.003C8.895 0.003 8.92 0.003 8.946 0.003C9.072 0.003 9.197 0.003 9.323 0.003C10.364 0.003 11.405 0.004 12.446 0.005C12.446 0.738 12.446 1.471 12.446 2.227C9.073 2.227 5.7 2.227 2.224 2.227C2.224 4.7 2.224 7.172 2.224 9.72C1.49 9.72 0.756 9.72 0 9.72C0 7.235 0 4.751 0 2.191C0.722 2.191 1.444 2.191 2.188 2.191C2.188 2.097 2.188 2.002 2.188 1.905C2.291 1.312 2.569 0.777 3.061 0.415C3.315 0.239 3.572 0.116 3.874 0.04C3.898 0.034 3.923 0.028 3.948 0.021C4.097 -0.002 4.243 0 4.393 0Z" fill="rgb(0,109,198)" fill-opacity="1.000" fill-rule="nonzero" transform="matrix(1 0 0 1 21.2129 26.1219)"/><path d="M0 0C1.456 0 2.912 0 4.412 0C4.412 0.379 4.412 0.757 4.412 1.147C2.956 1.147 1.5 1.147 0 1.147C0 0.769 0 0.39 0 0Z" fill="rgb(0,109,198)" fill-opacity="1.000" fill-rule="nonzero" transform="matrix(1 0 0 1 50.4458 34.6943)"/><path d="M0.404 0.041C0.637 0.032 0.871 0.025 1.104 0.021C1.183 0.019 1.263 0.017 1.342 0.014C2.084 -0.015 2.084 -0.015 2.321 0.175C2.534 0.452 2.486 0.808 2.47 1.138C2.468 1.206 2.467 1.274 2.466 1.341C2.462 1.505 2.456 1.669 2.448 1.833C2.306 1.833 2.164 1.833 2.018 1.833C2 1.691 2 1.691 1.982 1.546C1.968 1.566 1.955 1.587 1.942 1.608C1.827 1.752 1.739 1.824 1.556 1.863C1.418 1.875 1.28 1.877 1.141 1.874C1.054 1.874 0.967 1.876 0.88 1.879C0.595 1.882 0.402 1.869 0.187 1.664C0.077 1.54 0.018 1.443 0 1.277C0.024 1.066 0.122 0.941 0.273 0.796C0.536 0.616 0.932 0.687 1.233 0.7C1.309 0.701 1.385 0.703 1.461 0.704C1.647 0.708 1.832 0.714 2.018 0.722C2.018 0.627 2.018 0.533 2.018 0.435C1.485 0.435 0.952 0.435 0.404 0.435C0.404 0.305 0.404 0.175 0.404 0.041ZM0.439 1.152C0.439 1.235 0.439 1.318 0.439 1.403C0.96 1.403 1.481 1.403 2.018 1.403C2.018 1.32 2.018 1.237 2.018 1.152C1.497 1.152 0.976 1.152 0.439 1.152Z" fill="rgb(0,109,198)" fill-opacity="1.000" fill-rule="nonzero" transform="matrix(1 0 0 1 37.0935 21.5687)"/><path d="M0 0C0.142 0 0.284 0 0.43 0C0.43 0.201 0.43 0.402 0.43 0.609C0.479 0.608 0.527 0.606 0.577 0.604C0.757 0.598 0.937 0.595 1.118 0.592C1.196 0.59 1.273 0.588 1.351 0.585C2.08 0.56 2.08 0.56 2.292 0.737C2.442 0.94 2.453 1.168 2.447 1.411C2.446 1.486 2.448 1.559 2.451 1.633C2.453 1.876 2.42 2.063 2.262 2.255C2.026 2.456 1.777 2.454 1.481 2.445C1.394 2.442 1.307 2.443 1.22 2.445C0.758 2.443 0.758 2.443 0.57 2.256C0.506 2.176 0.506 2.176 0.466 2.115C0.454 2.21 0.443 2.304 0.43 2.402C0.288 2.402 0.146 2.402 0 2.402C0 1.609 0 0.817 0 0ZM0.43 1.004C0.43 1.323 0.43 1.643 0.43 1.972C0.951 1.972 1.472 1.972 2.009 1.972C2.009 1.652 2.009 1.333 2.009 1.004C1.488 1.004 0.967 1.004 0.43 1.004Z" fill="rgb(0,109,197)" fill-opacity="1.000" fill-rule="nonzero" transform="matrix(1 0 0 1 33.6592 21)"/><path d="M1.135 0.005C1.25 0.007 1.365 0.005 1.48 0.003C2.09 0 2.09 0 2.323 0.2C2.501 0.43 2.505 0.666 2.497 0.948C2.498 0.995 2.5 1.041 2.501 1.089C2.499 1.325 2.47 1.506 2.323 1.696C2.052 1.928 1.705 1.898 1.366 1.891C1.251 1.889 1.136 1.891 1.021 1.893C0.411 1.896 0.411 1.896 0.178 1.696C0 1.466 -0.004 1.23 0.004 0.948C0.003 0.901 0.001 0.855 0 0.807C0.002 0.571 0.032 0.39 0.178 0.2C0.448 -0.032 0.796 -0.002 1.135 0.005ZM0.443 0.446C0.443 0.765 0.443 1.085 0.443 1.414C0.964 1.414 1.485 1.414 2.022 1.414C2.022 1.094 2.022 0.775 2.022 0.446C1.501 0.446 0.98 0.446 0.443 0.446Z" fill="rgb(0,109,198)" fill-opacity="1.000" fill-rule="nonzero" transform="matrix(1 0 0 1 47.4555 21.5576)"/><path d="M1.273 0.021C1.353 0.023 1.432 0.025 1.512 0.026C1.706 0.03 1.9 0.036 2.094 0.043C2.094 0.173 2.094 0.304 2.094 0.438C1.561 0.438 1.028 0.438 0.48 0.438C0.48 0.757 0.48 1.077 0.48 1.405C1.131 1.405 1.781 1.405 2.452 1.405C2.362 1.587 2.259 1.717 2.094 1.836C1.965 1.876 1.844 1.878 1.709 1.877C1.655 1.877 1.655 1.877 1.6 1.878C1.524 1.878 1.447 1.878 1.371 1.877C1.255 1.876 1.14 1.879 1.024 1.881C0.409 1.887 0.409 1.887 0.178 1.688C0 1.457 -0.004 1.221 0.004 0.939C0.003 0.893 0.001 0.846 0 0.798C0.002 0.563 0.032 0.38 0.177 0.191C0.476 -0.068 0.902 0.006 1.273 0.021Z" fill="rgb(0,109,198)" fill-opacity="1.000" fill-rule="nonzero" transform="matrix(1 0 0 1 43.9763 21.566)"/><path d="M1.127 0.005C1.242 0.007 1.357 0.005 1.472 0.003C2.081 0 2.081 0 2.316 0.187C2.531 0.463 2.482 0.819 2.466 1.149C2.465 1.217 2.463 1.284 2.461 1.352C2.457 1.516 2.451 1.68 2.444 1.844C2.314 1.844 2.183 1.844 2.049 1.844C2.049 1.382 2.049 0.921 2.049 0.446C1.517 0.446 0.984 0.446 0.435 0.446C0.435 0.907 0.435 1.368 0.435 1.844C0.305 1.844 0.175 1.844 0.041 1.844C0.032 1.646 0.025 1.449 0.021 1.251C0.019 1.184 0.017 1.117 0.014 1.05C-0.015 0.423 -0.015 0.423 0.169 0.187C0.441 -0.03 0.795 -0.002 1.127 0.005Z" fill="rgb(0,109,198)" fill-opacity="1.000" fill-rule="nonzero" transform="matrix(1 0 0 1 40.541 21.558)"/></svg>