<svg xmlns="http://www.w3.org/2000/svg" viewBox="0 0 130 60" width="130" height="60"><path d="M0 0L130 0L130 60L0 60L0 0Z" fill="rgb(255,255,255)" fill-opacity="1.000" fill-rule="nonzero" transform="matrix(1 0 0 1 0 0)"/><path d="M18.981 4.157C17.483 4.031 16.146 3.515 15.146 3.014C14.389 2.63 13.824 2.263 13.537 2.08L11.055 5.855C11.145 5.942 11.192 6 11.192 6C12.026 6.538 12.815 6.954 13.562 7.257C15.704 8.137 17.504 8.122 18.981 7.659C22.664 6.5 24.348 2.531 24.348 2.531C22.524 3.944 20.652 4.293 18.981 4.157ZM0 5.804C2.318 3.82 4.433 3.317 6.188 3.468L8.422 0.098C1.894 -0.882 0 5.804 0 5.804Z" fill="rgb(255,204,0)" fill-opacity="1.000" fill-rule="nonzero" transform="matrix(1 0 0 1 6.9448 27.8468)"/><path d="M12.053 13.104L10.862 16.295L17.472 16.295L17.472 13.506C15.995 13.969 14.195 13.984 12.053 13.104ZM10.862 0L6.914 5.945L4.68 9.314L0 16.36L6.478 16.36L9.547 11.702L12.028 7.927L16.555 1.051L13.637 8.862C14.638 9.362 15.974 9.878 17.472 10.004L17.472 0L10.862 0Z" fill="rgb(39,132,40)" fill-opacity="1.000" fill-rule="nonzero" transform="matrix(1 0 0 1 8.4533 22)"/><path d="M2.066 5.327C1.81 5.327 1.659 5.334 1.487 5.323L1.487 3.523L1.495 2.675L1.487 1.009C1.627 1.009 1.81 0.995 2.143 0.995C2.825 0.995 3.192 1.213 3.192 1.7C3.192 2.173 2.831 2.56 2.149 2.554L2.149 3.445C2.783 3.453 3.35 3.781 3.35 4.422C3.35 5.096 2.747 5.327 2.066 5.327ZM3.608 2.906L3.608 2.887C4.346 2.612 4.691 2.089 4.691 1.528C4.691 0.94 4.368 0.503 3.902 0.267C3.419 -0.008 2.943 0 1.962 0C1.2 0 0.401 0.026 0 0.046L0 6.323L1.628 6.323C2.952 6.323 3.755 6.208 4.238 5.837C4.653 5.524 4.928 5.069 4.928 4.481C4.925 3.654 4.365 3.091 3.607 2.906L3.608 2.906Z" fill="rgb(69,64,62)" fill-opacity="1.000" fill-rule="nonzero" transform="matrix(1 0 0 1 32.4163 31.899)"/><path d="M0.002 6.398L0.002 0L1.619 0L2.886 2.345C3.253 3.017 3.606 3.818 3.887 4.54L3.907 4.54C3.891 3.692 3.857 2.847 3.857 1.871L3.797 0L5.066 0L5.066 6.398L3.614 6.398L2.307 3.931C1.945 3.237 1.537 2.419 1.248 1.67L1.21 1.67C1.254 2.526 1.275 3.425 1.275 4.47L1.275 6.398L0 6.398L0.001 6.398L0.002 6.398Z" fill="rgb(69,64,62)" fill-opacity="1.000" fill-rule="nonzero" transform="matrix(1 0 0 1 44.1998 31.8511)"/><path d="M0.004 6.398L0.004 0L1.619 0L2.888 2.345C3.25 3.017 3.603 3.818 3.884 4.54L3.903 4.54C3.886 3.692 3.853 2.847 3.853 1.871L3.794 0L5.061 0L5.061 6.398L3.614 6.398L2.305 3.931C1.944 3.237 1.536 2.419 1.243 1.67L1.208 1.67C1.255 2.526 1.275 3.425 1.275 4.47L1.275 6.398L0 6.398L0 6.398L0.004 6.398Z" fill="rgb(69,64,62)" fill-opacity="1.000" fill-rule="nonzero" transform="matrix(1 0 0 1 108.7324 31.8511)"/><path d="M4.764 6.336C4.518 6.456 3.938 6.607 3.201 6.607C1.089 6.607 0 5.222 0 3.391C0 1.207 1.489 0 3.339 0C4.057 0 4.6 0.154 4.846 0.287L4.835 1.381C4.564 1.257 3.895 1.19 3.392 1.19C2.305 1.19 1.451 1.88 1.451 3.315C1.451 4.596 2.179 5.403 3.402 5.403C3.828 5.403 4.47 5.316 4.753 5.192L4.768 6.336L4.764 6.336Z" fill="rgb(69,64,62)" fill-opacity="1.000" fill-rule="nonzero" transform="matrix(1 0 0 1 50.1809 31.7455)"/><path d="M1.376 5.284C1.496 5.314 1.695 5.314 1.856 5.314C3.12 5.324 3.943 4.603 3.943 3.074C3.943 1.697 3.201 1.043 2.003 1.043C1.703 1.043 1.495 1.073 1.376 1.102L1.376 5.284L1.373 5.284L1.376 5.284ZM0 0.074C0.522 0.027 1.206 0 1.897 0C3.067 0 3.789 0.132 4.368 0.596C5.005 1.092 5.404 1.885 5.404 3.03C5.404 4.251 4.978 5.096 4.399 5.619C3.755 6.176 2.757 6.361 1.551 6.384C0.902 6.398 0.348 6.35 0 6.35L0 0.074Z" fill="rgb(69,64,62)" fill-opacity="1.000" fill-rule="nonzero" transform="matrix(1 0 0 1 63.9203 31.8717)"/><path d="M2.726 1.177L1.861 4.755L1.434 6.398L0 6.398L1.869 0L3.675 0L5.582 6.398L4.093 6.398L3.62 4.755L2.726 1.177Z" fill="rgb(69,64,62)" fill-opacity="1.000" fill-rule="nonzero" transform="matrix(1 0 0 1 69.3949 31.8511)"/><path d="M2.723 1.177L1.852 4.755L1.428 6.398L0 6.398L1.861 0L3.669 0L5.576 6.398L4.09 6.398L3.617 4.755L2.723 1.177Z" fill="rgb(69,64,62)" fill-opacity="1.000" fill-rule="nonzero" transform="matrix(1 0 0 1 38.0828 31.8511)"/><path d="M2.729 1.177L1.858 4.755L1.431 6.398L0 6.398L1.869 0L3.675 0L5.576 6.398L4.09 6.398L3.617 4.755L2.729 1.177Z" fill="rgb(69,64,62)" fill-opacity="1.000" fill-rule="nonzero" transform="matrix(1 0 0 1 77.691 31.8511)"/><path d="M2.729 1.177L1.861 4.755L1.437 6.398L0 6.398L1.872 0L3.675 0L5.579 6.398L4.09 6.398L3.623 4.755L2.729 1.177Z" fill="rgb(69,64,62)" fill-opacity="1.000" fill-rule="nonzero" transform="matrix(1 0 0 1 91.4327 31.8511)"/><path d="M2.729 1.177L1.861 4.755L1.431 6.398L0 6.398L1.869 0L3.678 0L5.582 6.398L4.093 6.398L3.623 4.755L2.729 1.177Z" fill="rgb(69,64,62)" fill-opacity="1.000" fill-rule="nonzero" transform="matrix(1 0 0 1 117.4735 31.8511)"/><path d="M0 5.617L2.909 1.224L2.909 1.198L0.264 1.198L0.264 0L4.7 0L4.7 0.835L1.849 5.163L1.849 5.2L4.743 5.2L4.743 6.398L0 6.398L0 5.617Z" fill="rgb(69,64,62)" fill-opacity="1.000" fill-rule="nonzero" transform="matrix(1 0 0 1 97.215 31.8511)"/><path d="M3.202 0L4.07 1.195L3.174 1.195L2.753 0.568L2.732 0.568L2.309 1.195L1.421 1.195L2.284 0L3.202 0ZM2.743 6.888C3.616 6.888 4.113 5.968 4.113 4.715C4.113 3.568 3.633 2.582 2.743 2.582C1.854 2.582 1.355 3.547 1.355 4.745C1.355 5.951 1.871 6.888 2.735 6.888L2.743 6.888ZM2.685 8.037C0.999 8.037 0 6.604 0 4.783C0 2.866 1.101 1.43 2.777 1.43C4.529 1.43 5.49 2.905 5.49 4.67C5.49 6.776 4.361 8.037 2.693 8.037L2.684 8.037L2.685 8.037L2.685 8.037Z" fill="rgb(69,64,62)" fill-opacity="1.000" fill-rule="nonzero" transform="matrix(1 0 0 1 102.3529 30.3153)"/><path d="M2.747 5.458L2.737 5.458C1.87 5.458 1.356 4.521 1.356 3.315C1.356 2.117 1.856 1.152 2.747 1.152C3.635 1.152 4.115 2.138 4.115 3.285C4.118 4.538 3.619 5.458 2.751 5.458L2.747 5.458ZM2.779 0C1.101 0 0 1.436 0 3.352C0 5.173 1.001 6.607 2.685 6.607L2.696 6.607C4.359 6.607 5.49 5.346 5.49 3.24C5.487 1.475 4.526 0 2.776 0L2.779 0Z" fill="rgb(69,64,62)" fill-opacity="1.000" fill-rule="nonzero" transform="matrix(1 0 0 1 55.524 31.7455)"/><path d="M1.376 6.398L0 6.398L0 0L1.376 0L1.376 6.398Z" fill="rgb(69,64,62)" fill-opacity="1.000" fill-rule="nonzero" transform="matrix(1 0 0 1 115.2122 31.8511)"/><path d="M0 6.398L0 0.017L2.087 0.017L3.216 3.909L4.38 0L6.467 0L6.467 6.384L5.152 6.384L5.152 1.502L3.573 6.314L2.711 6.314L1.303 1.561L1.309 6.384L0 6.398Z" fill="rgb(69,64,62)" fill-opacity="1.000" fill-rule="nonzero" transform="matrix(1 0 0 1 84.0626 31.8717)"/></svg>