<svg xmlns="http://www.w3.org/2000/svg" viewBox="0 0 130 60" width="130" height="60"><path d="M0 0L130 0L130 60L0 60L0 0Z" fill="rgb(255,255,255)" fill-opacity="1.000" fill-rule="nonzero" transform="matrix(1 0 0 1 0 0)"/><path d="M7.062 9.638L7.062 8.256C7.062 7.501 6.814 6.862 6.321 6.333C5.823 5.811 5.195 5.548 4.439 5.548C3.53 5.548 2.821 5.881 2.301 6.553C1.78 7.225 1.525 8.148 1.525 9.337C1.525 10.418 1.772 11.273 2.271 11.895C2.769 12.517 3.44 12.831 4.278 12.831C5.117 12.831 5.775 12.53 6.291 11.925C6.807 11.321 7.062 10.561 7.062 9.638ZM8.549 13.874L7.062 13.874L7.062 12.284L7.025 12.284C6.334 13.49 5.272 14.092 3.835 14.092C2.674 14.092 1.74 13.671 1.044 12.836C0.348 11.993 0 10.857 0 9.412C0 7.86 0.386 6.624 1.157 5.686C1.928 4.748 2.959 4.284 4.246 4.284C5.533 4.284 6.446 4.793 7.025 5.803L7.062 5.803L7.062 0L8.549 0L8.549 13.874Z" fill="rgb(250,174,40)" fill-opacity="1.000" fill-rule="nonzero" transform="matrix(1 0 0 1 74.632 24.3797)"/><path d="M1.687 13.696L0.2 13.696L0.2 4.329L1.687 4.329L1.687 13.696ZM0.959 1.954C0.691 1.954 0.468 1.858 0.28 1.678C0.093 1.497 0 1.264 0 0.981C0 0.697 0.093 0.464 0.28 0.276C0.466 0.093 0.691 0 0.959 0C1.227 0 1.462 0.095 1.655 0.276C1.848 0.464 1.94 0.697 1.94 0.981C1.94 1.264 1.848 1.477 1.655 1.665C1.462 1.853 1.232 1.949 0.959 1.949" fill="rgb(250,174,40)" fill-opacity="1.000" fill-rule="nonzero" transform="matrix(1 0 0 1 85.4819 24.5505)"/><path d="M4.844 1.69C4.584 1.49 4.211 1.389 3.72 1.389C3.087 1.389 2.558 1.69 2.128 2.295C1.705 2.899 1.487 3.722 1.487 4.763L1.487 9.538L0 9.538L0 0.168L1.487 0.168L1.487 2.097L1.525 2.097C1.737 1.437 2.06 0.92 2.493 0.552C2.926 0.183 3.415 0 3.955 0C4.341 0 4.639 0.045 4.844 0.125L4.844 1.683L4.844 1.69Z" fill="rgb(250,174,40)" fill-opacity="1.000" fill-rule="nonzero" transform="matrix(1 0 0 1 89.6626 28.7163)"/><path d="M6.571 4.005C6.564 3.137 6.361 2.465 5.951 1.981C5.54 1.497 4.974 1.259 4.253 1.259C3.532 1.259 2.959 1.51 2.468 2.019C1.978 2.528 1.68 3.188 1.56 4.005L6.564 4.005L6.571 4.005ZM8.094 5.274L1.547 5.274C1.572 6.318 1.853 7.12 2.381 7.694C2.909 8.259 3.642 8.542 4.569 8.542C5.613 8.542 6.571 8.196 7.448 7.499L7.448 8.906C6.634 9.503 5.558 9.804 4.213 9.804C2.869 9.804 1.875 9.377 1.124 8.527C0.378 7.679 0 6.478 0 4.941C0 3.484 0.411 2.295 1.224 1.377C2.045 0.459 3.059 0 4.271 0C5.482 0 6.421 0.396 7.087 1.186C7.753 1.976 8.081 3.077 8.081 4.492L8.081 5.277L8.094 5.274Z" fill="rgb(250,174,40)" fill-opacity="1.000" fill-rule="nonzero" transform="matrix(1 0 0 1 94.7294 28.6685)"/><path d="M5.415 12.051C5.067 12.246 4.601 12.347 4.028 12.347C2.406 12.347 1.592 11.429 1.592 9.6L1.592 4.053L0 4.053L0 2.771L1.592 2.771L1.592 0.484L3.079 0L3.079 2.771L5.417 2.771L5.417 4.053L3.079 4.053L3.079 9.33C3.079 9.959 3.184 10.403 3.397 10.674C3.61 10.945 3.955 11.075 4.449 11.075C4.822 11.075 5.144 10.975 5.417 10.762L5.417 12.043L5.415 12.051Z" fill="rgb(250,174,40)" fill-opacity="1.000" fill-rule="nonzero" transform="matrix(1 0 0 1 103.4512 26.1154)"/><path d="M0 2.964C0 1.324 1.312 0 2.934 0C4.556 0 5.868 1.327 5.868 2.964C5.868 4.602 4.556 5.929 2.934 5.929C1.312 5.929 0 4.602 0 2.964Z" fill="rgb(23,169,144)" fill-opacity="1.000" fill-rule="nonzero" transform="matrix(1 0 0 1 111.1243 30.6523)"/><path d="M1.081 4.996C1.081 2.842 2.809 1.093 4.942 1.093C7.075 1.093 8.802 2.839 8.802 4.996C8.802 7.153 7.075 8.898 4.942 8.898C2.809 8.898 1.081 7.153 1.081 4.996ZM0 4.996C0 2.237 2.213 0 4.942 0C7.67 0 9.883 2.237 9.883 4.996C9.883 7.755 7.67 9.992 4.942 9.992C2.213 9.992 0 7.755 0 4.996Z" fill="rgb(250,174,40)" fill-opacity="1.000" fill-rule="evenodd" transform="matrix(1 0 0 1 109.1166 28.6209)"/><path d="M11.546 2.337L11.633 2.337C11.994 1.878 12.479 1.608 13.07 1.608C14.009 1.608 14.545 2.054 14.545 3.097C14.545 3.644 14.527 5.176 14.545 5.66L13.19 5.66L13.19 3.318C13.19 2.626 13.003 2.262 12.462 2.262C11.841 2.262 11.661 2.764 11.661 3.526L11.661 5.663L10.299 5.663L10.299 1.715L11.598 1.715L11.561 2.337L11.546 2.337ZM19.279 2.45C18.973 2.137 18.595 1.949 18.022 1.949C17.233 1.949 16.823 2.626 16.823 3.702C16.823 4.778 17.339 5.304 18.302 5.304C18.683 5.304 19.091 5.134 19.291 4.933L19.471 5.179C19.136 5.48 18.465 5.756 17.899 5.756C16.047 5.756 15.439 4.682 15.439 3.689C15.439 2.495 16.415 1.603 17.937 1.603C18.62 1.603 19.088 1.748 19.534 1.966L19.279 2.443L19.279 2.45ZM22.15 1.608C23.612 1.608 24.468 2.38 24.468 3.606C24.468 4.938 23.517 5.768 22.15 5.768C21.014 5.768 19.832 5.229 19.832 3.79C19.832 2.35 20.951 1.61 22.15 1.61M22.17 1.906C21.542 1.906 21.176 2.548 21.176 3.797C21.176 4.72 21.407 5.475 22.165 5.475C22.806 5.475 23.129 4.758 23.129 3.484C23.129 2.528 22.849 1.906 22.17 1.906ZM5.422 2.057C5.963 1.736 6.714 1.61 7.305 1.61C8.319 1.61 9.027 1.981 9.027 2.924L9.027 5.658L7.853 5.658C7.853 5.575 7.866 5.382 7.853 5.199L7.853 5.099L7.778 5.174C7.485 5.52 7.132 5.763 6.559 5.763C5.608 5.763 5.222 5.224 5.222 4.715C5.222 4.023 5.75 3.722 6.614 3.541C7.678 3.321 7.821 3.253 7.821 2.912C7.821 2.485 7.448 2.144 6.852 2.144C6.168 2.144 5.715 2.378 5.578 2.458L5.422 2.044L5.422 2.057ZM7.841 3.476L7.778 3.509L7.355 3.667C7.212 3.712 7.07 3.762 6.939 3.825C6.679 3.958 6.486 4.171 6.486 4.61C6.486 5.049 6.709 5.282 7.077 5.282C7.53 5.282 7.841 4.973 7.841 4.422L7.841 3.481L7.841 3.476ZM1.97 0.396L1.454 0.396L1.424 2.508L1.903 2.508C2.468 2.508 3.039 2.144 3.039 1.409C3.039 0.858 2.754 0.399 1.963 0.399M0 0.005L2.481 0.005C3.63 0.005 4.383 0.381 4.383 1.254C4.383 2.127 3.445 2.503 2.849 2.606L2.849 2.689C3.44 2.714 4.546 3.077 4.546 4.045C4.546 5.197 3.482 5.665 2.346 5.665L0 5.665L0 0L0 0.005ZM1.878 2.894L1.424 2.894L1.437 5.262L2.008 5.262C2.599 5.262 3.109 4.835 3.109 4.093C3.109 3.295 2.674 2.899 1.885 2.899" fill="rgb(250,174,40)" fill-opacity="1.000" fill-rule="evenodd" transform="matrix(1 0 0 1 29.323 20.6681)"/><path d="M2.841 13.099C3.345 15.67 5.528 17.17 8.013 17.17C9.555 17.17 10.93 16.58 10.93 15.296C10.93 14.441 10.377 13.864 9.588 13.405L8.236 12.773C7.746 12.577 7.222 12.384 6.702 12.176C4.606 11.346 2.566 10.31 2.566 7.797C2.566 4.963 5.327 3.624 8.036 3.624C9.28 3.624 10.156 3.887 10.822 4.146L11.686 4.509C11.934 4.61 12.152 4.68 12.364 4.68C12.83 4.68 13.06 4.459 13.11 3.857L13.428 3.857L13.428 7.86L13.105 7.86C12.547 5.643 10.67 4.336 8.269 4.336C6.939 4.336 5.845 4.916 5.845 6.17C5.845 6.93 6.391 7.421 7.165 7.81C7.938 8.199 8.962 8.507 9.994 8.896C12.046 9.668 14.047 10.732 14.047 13.35C14.047 16.555 11.671 17.874 8.434 17.874C7.513 17.874 6.494 17.674 5.643 17.465C5.22 17.365 4.834 17.257 4.536 17.182C4.238 17.107 4 17.049 3.883 17.049C3.417 17.049 3.012 17.358 2.864 17.714L2.531 17.714L2.531 13.087L2.854 13.087L2.841 13.099ZM33.486 17.704L33.486 17.385C32.434 17.385 32.024 17.139 32.024 16.028L32.024 12.791C33.666 12.791 34.337 13.036 34.429 14.757L34.765 14.757L34.765 10.19L34.429 10.19C34.337 11.91 33.671 12.156 32.024 12.156L32.024 8.053L33.788 8.053C35.373 8.053 36.194 8.718 36.344 10.253L36.68 10.253L36.68 7.419L27.275 7.419L27.275 7.74C28.326 7.74 28.737 7.985 28.737 9.096L28.737 16.033C28.737 17.147 28.326 17.39 27.275 17.39L27.275 17.711L33.486 17.711L33.486 17.704ZM55.518 17.704L55.518 17.385C54.592 17.385 54.331 17.109 54.331 16.738C54.331 16.462 54.407 16.249 54.529 15.928L55.077 14.438L57.956 14.438L58.67 16.159C58.745 16.359 58.838 16.623 58.838 16.851C58.838 17.197 58.565 17.385 58.217 17.385L57.533 17.385L57.533 17.706L63.011 17.706L63.011 17.385C62.508 17.34 62.39 17.272 62.109 16.63L58.259 7.406L57.195 7.406L53.708 16.008C53.267 17.089 53.005 17.323 52.384 17.385L52.384 17.706L55.518 17.704ZM57.714 13.859L55.295 13.859L56.514 10.824L57.714 13.859ZM44.102 17.761L44.438 17.761C44.531 17.503 44.816 17.272 45.154 17.272C45.492 17.272 47.149 17.882 48.516 17.882C50.922 17.882 52.719 16.901 52.719 14.483C52.719 10.538 46.663 11.291 46.663 9.182C46.663 8.301 47.422 7.883 48.398 7.883C50.163 7.883 51.533 8.851 51.928 10.483L52.264 10.483L52.264 7.414L51.928 7.414C51.898 7.878 51.748 8.023 51.425 8.023C50.847 8.023 50.088 7.243 48.231 7.243C46.223 7.243 44.14 8.241 44.14 10.378C44.14 14.167 50.318 13.5 50.318 15.913C50.318 16.811 49.36 17.245 48.218 17.245C46.391 17.245 44.793 16.131 44.445 14.235L44.11 14.235L44.11 17.761L44.102 17.761ZM15.331 12.557C15.331 16.071 17.854 17.879 21.236 17.879C24.618 17.879 27.142 16.071 27.142 12.557C27.142 9.044 24.618 7.235 21.236 7.235C17.854 7.235 15.331 9.046 15.331 12.557ZM18.708 12.557C18.708 9.177 19.747 7.878 21.239 7.878C22.731 7.878 23.762 9.179 23.762 12.557C23.762 15.936 22.728 17.24 21.236 17.24C19.744 17.24 18.708 15.938 18.708 12.557ZM43.271 17.704L43.271 17.385C42.24 17.385 41.822 17.139 41.822 16.028L41.822 9.091C41.822 7.98 42.232 7.735 43.271 7.735L43.271 7.414L37.078 7.414L37.078 7.735C38.129 7.735 38.54 7.98 38.54 9.091L38.54 16.026C38.54 17.139 38.129 17.383 37.078 17.383L37.078 17.704L43.271 17.704ZM0 0L16.395 0L16.395 1.016L0 1.016L0 0ZM0 1.746L16.395 1.746L16.395 2.079L0 2.079L0 1.746ZM0 20.638L16.395 20.638L16.395 21.656L0 21.656L0 20.638ZM0 19.565L16.395 19.565L16.395 19.898L0 19.898L0 19.565Z" fill="rgb(23,169,144)" fill-opacity="1.000" fill-rule="evenodd" transform="matrix(1 0 0 1 11.2934 20.6755)"/></svg>