<svg xmlns="http://www.w3.org/2000/svg" viewBox="0 0 60 60" width="60" height="60"><path d="M0 0L60 0L60 60L0 60L0 0Z" fill="rgb(255,255,255)" fill-opacity="1.000" fill-rule="nonzero" transform="matrix(1 0 0 1 0 0)"/><path d="M12.864 0C14.3 0.573 15.718 1.189 17.12 1.844C12.657 3.677 8.347 5.846 4.236 8.33C2.844 7.593 1.432 6.896 0 6.241C4.106 3.824 8.405 1.733 12.864 0Z" fill="rgb(0,103,177)" fill-opacity="1.000" fill-rule="evenodd" transform="matrix(1 0 0 1 11.664 23.4013)"/><path d="M13.32 0C8.686 1.484 4.226 3.425 0 5.779C1.348 6.272 2.683 6.797 4 7.359C8.095 4.922 12.423 2.872 16.927 1.242C15.736 0.799 14.531 0.386 13.32 0Z" fill="rgb(0,103,177)" fill-opacity="1.000" fill-rule="evenodd" transform="matrix(1 0 0 1 5.8967 21.5033)"/><path d="M15.369 4.476C11.729 2.696 7.951 1.197 4.065 0C2.698 0.398 1.343 0.832 0 1.305C4.001 2.503 7.891 4.019 11.637 5.833C12.869 5.356 14.114 4.902 15.369 4.476Z" fill="rgb(227,24,54)" fill-opacity="1.000" fill-rule="evenodd" transform="matrix(1 0 0 1 18.8243 18.7418)"/><path d="M15.249 4.112C11.525 2.469 7.672 1.094 3.737 0C2.483 0.262 1.237 0.555 0 0.876C3.909 2.029 7.71 3.491 11.376 5.232C12.657 4.831 13.949 4.457 15.249 4.112Z" fill="rgb(227,24,54)" fill-opacity="1.000" fill-rule="evenodd" transform="matrix(1 0 0 1 24.8885 17.3163)"/><path d="M26.019 0C16.674 3.185 7.92 7.721 0 13.4C1.981 14.629 3.909 15.934 5.794 17.309C13.259 11.322 21.546 6.334 30.465 2.545C29.01 1.653 27.522 0.805 26.019 0Z" fill="rgb(227,24,54)" fill-opacity="1.000" fill-rule="evenodd" transform="matrix(1 0 0 1 23.6521 24.6675)"/><path d="M27.084 0C17.369 2.598 8.234 6.79 0 12.312C1.856 13.235 3.677 14.22 5.462 15.268C13.532 9.62 22.487 5.222 32.039 2.321C30.41 1.495 28.758 0.718 27.084 0Z" fill="rgb(227,24,54)" fill-opacity="1.000" fill-rule="evenodd" transform="matrix(1 0 0 1 16.1579 21.5802)"/><path d="M0 1.026C0 0.46 0.471 0 1.049 0C1.626 0 2.096 0.46 2.096 1.026C2.096 1.601 1.626 2.062 1.049 2.062C0.471 2.062 0 1.601 0 1.026ZM0.198 1.026C0.198 1.496 0.576 1.859 1.049 1.859C1.517 1.859 1.895 1.496 1.895 1.026C1.895 0.57 1.517 0.204 1.049 0.204C0.577 0.204 0.198 0.57 0.198 1.026Z" fill="rgb(227,24,54)" fill-opacity="1.000" fill-rule="evenodd" transform="matrix(1 0 0 1 32.5021 39.9382)"/><path d="M0.911 1.152L0.715 1.152L0.38 0.621L0.172 0.621L0.172 1.152L0 1.152L0 0L0.51 0C0.608 0 0.708 0.006 0.798 0.056C0.883 0.107 0.928 0.208 0.928 0.305C0.928 0.531 0.765 0.616 0.557 0.622L0.911 1.152ZM0.365 0.479C0.528 0.479 0.753 0.507 0.753 0.303C0.753 0.152 0.623 0.132 0.476 0.132L0.173 0.132L0.173 0.478L0.365 0.479Z" fill="rgb(227,24,54)" fill-opacity="1.000" fill-rule="evenodd" transform="matrix(1 0 0 1 33.1502 40.3917)"/></svg>