<svg xmlns="http://www.w3.org/2000/svg" viewBox="0 0 130 60" width="130" height="60"><path d="M0 0L130 0L130 60L0 60L0 0Z" fill="rgb(255,255,255)" fill-opacity="1.000" fill-rule="nonzero" transform="matrix(1 0 0 1 0 0)"/><path d="M0 0L3.04 0L3.969 4.854L3.993 4.854L5.092 0L8.047 0L8.047 8.664L5.875 8.664L5.875 2.264L5.851 2.264L4.368 8.664L3.053 8.664L1.69 2.046L1.666 2.046L1.666 8.664L0 8.664" fill="rgb(0,103,177)" fill-opacity="1.000" fill-rule="nonzero" transform="matrix(1 0 0 1 12.0304 32.687)"/><path d="M0 5.765L0 0L1.954 0L1.954 8.663L0 8.663" fill="rgb(0,103,177)" fill-opacity="1.000" fill-rule="nonzero" transform="matrix(1 0 0 1 38.9289 32.6866)"/><path d="M0 8.664L1.954 8.664L1.954 0L0 0L0 8.664Z" fill="rgb(0,103,177)" fill-opacity="1.000" fill-rule="nonzero" transform="matrix(1 0 0 1 41.8266 32.6867)"/><path d="M0 0L2.171 0L2.171 7.131L5.115 7.131L5.115 8.663L0 8.663" fill="rgb(0,103,177)" fill-opacity="1.000" fill-rule="nonzero" transform="matrix(1 0 0 1 48.0413 32.6867)"/><path d="M2.016 0L2.727 3.541L2.753 3.541L3.585 0L5.115 0L3.076 6.303C2.667 7.567 1.773 7.933 0.617 7.933C0.423 7.933 0.23 7.909 0.038 7.884L0.038 6.486C0.207 6.522 0.387 6.545 0.557 6.545C1.147 6.545 1.654 6.376 1.654 5.816C1.654 5.67 1.628 5.462 1.569 5.268L0 0" fill="rgb(0,103,177)" fill-opacity="1.000" fill-rule="nonzero" transform="matrix(1 0 0 1 53.4714 35.2428)"/><path d="M0 0L1.953 0L1.953 3.372L1.977 3.372C2.388 2.752 3.001 2.41 3.702 2.41C4.484 2.41 4.992 2.945 4.992 3.785L4.992 8.663L3.038 8.663L3.038 4.344C3.038 4.016 2.928 3.798 2.567 3.798C2.362 3.798 2.194 3.883 2.06 4.052L1.953 4.199L1.953 8.663L0 8.663" fill="rgb(0,103,177)" fill-opacity="1.000" fill-rule="nonzero" transform="matrix(1 0 0 1 70.876 32.6867)"/><path d="M3.645 0C2.88 0 2.345 0.352 1.948 0.766L1.921 0.766L1.908 0.139L0 0.139L0 6.251L1.951 6.251L1.951 1.882C2.129 1.652 2.366 1.502 2.584 1.502C2.915 1.502 3.035 1.699 3.035 2.045L3.035 6.251L4.985 6.251L4.985 1.42C4.985 0.582 4.498 0 3.645 0Z" fill="rgb(0,103,177)" fill-opacity="1.000" fill-rule="nonzero" transform="matrix(1 0 0 1 59.2626 35.0992)"/><path d="M3.408 2.473L1.95 2.473C1.92 1.891 2.119 1.241 2.667 1.241C3.347 1.241 3.424 1.9 3.408 2.473ZM2.689 0C0.896 0 0 1.458 0 3.186C0 4.876 0.847 6.398 2.71 6.398C4.443 6.398 5.038 5.008 5.13 4.733L3.812 4.246C3.718 4.74 3.319 5.084 2.849 5.084C2.063 5.084 1.925 4.176 1.95 3.639L5.207 3.639L5.207 3.223C5.207 1.63 4.562 0 2.689 0Z" fill="rgb(0,103,177)" fill-opacity="1.000" fill-rule="nonzero" transform="matrix(1 0 0 1 20.8167 35.099)"/><path d="M0 3.057L0 6.111L1.951 6.111L1.951 0L0 0" fill="rgb(0,103,177)" fill-opacity="1.000" fill-rule="nonzero" transform="matrix(1 0 0 1 35.7953 35.2389)"/><path d="M0 1.749L1.951 1.749L1.951 0L0 0L0 1.749Z" fill="rgb(0,103,177)" fill-opacity="1.000" fill-rule="nonzero" transform="matrix(1 0 0 1 35.7953 32.6876)"/><path d="M2.812 1.241C3.128 1.241 3.283 1.413 3.376 1.656C3.466 1.884 3.476 2.182 3.476 2.421L5.134 2.421C5.134 1.815 4.824 0 2.756 0C0.917 0 0 1.667 0 3.332C0 4.839 0.917 6.399 2.667 6.399C4.088 6.399 4.93 5.62 5.076 4.139L3.557 3.918C3.557 4.382 3.498 5.084 2.812 5.084C2.311 5.084 2.091 4.636 2.091 3.261C2.091 2.047 2.165 1.241 2.812 1.241Z" fill="rgb(0,103,177)" fill-opacity="1.000" fill-rule="nonzero" transform="matrix(1 0 0 1 64.9663 35.0962)"/><path d="M1.935 0.971L1.909 0.971L1.887 0.139L0 0.139L0 6.251L1.951 6.251L1.951 2.296C2.18 2.015 2.526 1.821 3.017 1.821C3.356 1.821 3.596 1.903 3.813 1.991L3.813 0C3.062 0 2.335 0.327 1.935 0.971Z" fill="rgb(0,103,177)" fill-opacity="1.000" fill-rule="nonzero" transform="matrix(1 0 0 1 26.7544 35.0986)"/><path d="M1.935 0.971L1.908 0.971L1.887 0.139L0 0.139L0 6.251L1.951 6.251L1.951 2.296C2.18 2.015 2.526 1.821 3.016 1.821C3.356 1.821 3.596 1.903 3.813 1.991L3.813 0C3.062 0 2.335 0.327 1.935 0.971Z" fill="rgb(0,103,177)" fill-opacity="1.000" fill-rule="nonzero" transform="matrix(1 0 0 1 31.2214 35.0986)"/><path d="M2.725 0C0.905 0 0 1.354 0 3.181C0 5.083 0.869 6.412 2.725 6.412C4.582 6.412 5.449 5.083 5.449 3.181C5.449 1.354 4.545 0 2.725 0ZM2.725 5.169C2.241 5.169 2.026 4.73 2.026 3.18C2.026 1.766 2.17 1.243 2.725 1.243C3.279 1.243 3.423 1.766 3.423 3.18C3.423 4.73 3.207 5.169 2.725 5.169Z" fill="rgb(0,103,177)" fill-opacity="1.000" fill-rule="nonzero" transform="matrix(1 0 0 1 37.7714 22.8788)"/><path d="M0.796 2.048L0.796 2.731L0 2.731L0 4.122L0.796 4.122L0.796 8.849L2.749 8.849L2.749 4.122L3.812 4.122L3.812 2.731L2.749 2.731L2.749 2.111C2.749 1.739 2.935 1.536 3.449 1.536C3.557 1.536 3.702 1.56 3.812 1.585L3.812 0.074C3.496 0.038 3.207 0 2.822 0C1.533 0.001 0.796 0.549 0.796 2.048Z" fill="rgb(0,103,177)" fill-opacity="1.000" fill-rule="nonzero" transform="matrix(1 0 0 1 43.6822 20.3091)"/><path d="M5.066 1.864C5.066 0.511 3.849 0 2.678 0C1.57 0 0.484 0.486 0.268 1.693L1.967 2.047C1.988 1.689 2.138 1.243 2.607 1.243C2.944 1.243 3.112 1.486 3.112 1.851L3.112 2.377C1.822 2.528 0.044 2.999 0.001 4.591C-0.029 5.716 0.713 6.381 1.687 6.381C2.263 6.381 2.839 6.059 3.172 5.704C3.184 5.806 3.197 6.095 3.234 6.264L5.247 6.264C5.173 6.18 5.065 5.972 5.065 5.277L5.066 1.864ZM3.113 4.705C2.947 4.926 2.708 5.085 2.486 5.085C2.136 5.085 1.919 4.863 1.919 4.436C1.919 3.655 2.43 3.393 3.112 3.326L3.113 4.705Z" fill="rgb(0,103,177)" fill-opacity="1.000" fill-rule="nonzero" transform="matrix(1 0 0 1 18.5925 22.8954)"/><path d="M3.648 0C2.886 0 2.349 0.357 1.946 0.771L1.921 0.771L1.911 0.146L0 0.146L0 6.264L1.953 6.264L1.953 1.889C2.131 1.657 2.369 1.509 2.588 1.509C2.915 1.509 3.039 1.702 3.039 2.051L3.039 6.263L4.992 6.263L4.992 1.424C4.992 0.585 4.503 0 3.648 0Z" fill="rgb(0,103,177)" fill-opacity="1.000" fill-rule="nonzero" transform="matrix(1 0 0 1 24.7991 22.8944)"/><path d="M5.366 8.678L3.723 4.443L5.357 2.559L3.414 2.559L1.978 4.408L1.954 4.408L1.954 0L0 0L0 8.678L1.954 8.678L1.954 6.486L2.365 6.009L2.388 6.009L3.34 8.678L5.366 8.678Z" fill="rgb(0,103,177)" fill-opacity="1.000" fill-rule="nonzero" transform="matrix(1 0 0 1 31.0037 20.4807)"/><path d="M4.512 4.165L4.512 4.097C5.134 3.852 5.913 3.254 5.913 2.12C5.913 0.922 4.913 0 3.393 0L0 0L0 8.679L3.306 8.679C4.936 8.679 6.116 7.843 6.116 6.357C6.116 5.245 5.442 4.475 4.512 4.165ZM2.108 1.536L2.868 1.536C3.361 1.536 3.913 1.67 3.913 2.499C3.913 3.012 3.603 3.438 2.819 3.438L2.108 3.438L2.108 1.536ZM2.904 7.071L2.108 7.071L2.108 4.9L2.904 4.9C3.603 4.9 3.998 5.327 3.998 5.973C3.998 6.863 3.373 7.071 2.904 7.071Z" fill="rgb(0,103,177)" fill-opacity="1.000" fill-rule="nonzero" transform="matrix(1 0 0 1 11.9999 20.4804)"/><path d="M5.066 5.277L5.066 1.864C5.066 0.511 3.85 0 2.68 0C1.571 0 0.485 0.486 0.268 1.693L1.968 2.047C1.989 1.689 2.138 1.243 2.608 1.243C2.943 1.243 3.114 1.486 3.114 1.851L3.114 2.377C1.822 2.528 0.043 2.999 0.001 4.591C-0.029 5.716 0.713 6.381 1.687 6.381C2.263 6.381 2.839 6.059 3.175 5.704C3.184 5.806 3.198 6.095 3.233 6.264L5.246 6.264C5.175 6.18 5.066 5.972 5.066 5.277ZM3.115 4.704C2.946 4.926 2.709 5.085 2.488 5.085C2.136 5.085 1.92 4.862 1.92 4.436C1.92 3.655 2.431 3.393 3.114 3.326L3.115 4.704Z" fill="rgb(0,103,177)" fill-opacity="1.000" fill-rule="nonzero" transform="matrix(1 0 0 1 83.9626 22.8958)"/><path d="M2.69 0C0.893 0 0 1.463 0 3.194C0 4.888 0.844 6.412 2.713 6.412C4.451 6.412 5.052 5.023 5.138 4.742L3.821 4.254C3.724 4.747 3.326 5.094 2.855 5.094C2.069 5.094 1.926 4.189 1.953 3.645L5.221 3.645L5.221 3.23C5.221 1.634 4.571 0 2.69 0ZM3.412 2.474L1.953 2.474C1.923 1.898 2.122 1.243 2.677 1.243C3.352 1.243 3.431 1.906 3.412 2.474Z" fill="rgb(0,103,177)" fill-opacity="1.000" fill-rule="nonzero" transform="matrix(1 0 0 1 65.0462 22.8788)"/><path d="M1.952 0L0 0L0 6.118L1.952 6.118L1.952 0Z" fill="rgb(0,103,177)" fill-opacity="1.000" fill-rule="nonzero" transform="matrix(1 0 0 1 75.5351 23.0405)"/><path d="M1.952 0L0 0L0 1.755L1.952 1.755L1.952 0Z" fill="rgb(0,103,177)" fill-opacity="1.000" fill-rule="nonzero" transform="matrix(1 0 0 1 75.5351 20.4802)"/><path d="M2.818 1.243C3.133 1.243 3.289 1.414 3.384 1.656C3.47 1.889 3.481 2.181 3.481 2.425L5.146 2.425C5.146 1.816 4.832 0 2.76 0C0.915 0 0 1.67 0 3.339C0 4.851 0.914 6.412 2.675 6.412C4.098 6.412 4.941 5.632 5.087 4.145L3.568 3.925C3.568 4.389 3.507 5.094 2.819 5.094C2.314 5.094 2.097 4.645 2.097 3.266C2.095 2.047 2.168 1.243 2.818 1.243Z" fill="rgb(0,103,177)" fill-opacity="1.000" fill-rule="nonzero" transform="matrix(1 0 0 1 78.3389 22.8793)"/><path d="M2.013 0L0 8.678L1.88 8.678L2.255 6.924L4.244 6.924L4.582 8.678L6.691 8.678L4.857 0L2.013 0ZM2.556 5.388L3.281 1.852L3.325 1.852L3.942 5.388L2.556 5.388Z" fill="rgb(0,103,177)" fill-opacity="1.000" fill-rule="nonzero" transform="matrix(1 0 0 1 48.8763 20.4807)"/><path d="M1.942 0.974L1.91 0.974L1.89 0.146L0 0.146L0 6.264L1.955 6.264L1.955 2.302C2.185 2.026 2.528 1.828 3.026 1.828C3.363 1.828 3.601 1.911 3.822 1.998L3.822 0C3.069 0 2.341 0.328 1.942 0.974Z" fill="rgb(0,103,177)" fill-opacity="1.000" fill-rule="nonzero" transform="matrix(1 0 0 1 71.0713 22.8941)"/><path d="M6.632 0C5.814 0 5.23 0.445 4.889 0.819L4.864 0.819C4.679 0.347 4.283 0 3.689 0C2.962 0 2.35 0.38 1.941 0.769L1.916 0.769L1.906 0.146L0 0.146L0 6.264L1.916 6.264L1.916 1.901C2.081 1.675 2.374 1.524 2.579 1.524C2.942 1.524 3.038 1.743 3.038 2.072L3.038 6.264L4.955 6.264L4.955 1.901C5.082 1.732 5.361 1.524 5.623 1.524C5.978 1.524 6.077 1.743 6.077 2.072L6.077 6.264L7.993 6.264L7.993 1.387C7.993 0.542 7.443 0 6.632 0Z" fill="rgb(0,103,177)" fill-opacity="1.000" fill-rule="nonzero" transform="matrix(1 0 0 1 56.2043 22.8945)"/><path d="M6.94 0C7.714 0.309 8.48 0.641 9.236 0.995C6.828 1.984 4.503 3.154 2.285 4.494C1.534 4.096 0.773 3.72 0 3.367C2.215 2.063 4.534 0.935 6.94 0Z" fill="rgb(0,103,177)" fill-opacity="1.000" fill-rule="evenodd" transform="matrix(1 0 0 1 94.0976 19.1061)"/><path d="M7.186 0C4.686 0.8 2.28 1.848 0 3.118C0.727 3.384 1.448 3.667 2.158 3.97C4.367 2.655 6.702 1.549 9.132 0.67C8.489 0.431 7.839 0.208 7.186 0Z" fill="rgb(0,103,177)" fill-opacity="1.000" fill-rule="evenodd" transform="matrix(1 0 0 1 90.9863 18.0825)"/><path d="M8.292 2.415C6.328 1.454 4.289 0.646 2.193 0C1.455 0.215 0.725 0.449 0 0.704C2.159 1.35 4.257 2.168 6.278 3.147C6.942 2.889 7.614 2.644 8.292 2.415Z" fill="rgb(227,24,54)" fill-opacity="1.000" fill-rule="evenodd" transform="matrix(1 0 0 1 97.9605 16.5927)"/><path d="M8.227 2.218C6.217 1.332 4.139 0.59 2.016 0C1.339 0.141 0.667 0.299 0 0.472C2.109 1.095 4.159 1.883 6.137 2.823C6.828 2.606 7.525 2.404 8.227 2.218Z" fill="rgb(227,24,54)" fill-opacity="1.000" fill-rule="evenodd" transform="matrix(1 0 0 1 101.2319 15.8235)"/><path d="M14.037 0C8.996 1.718 4.272 4.165 0 7.229C1.069 7.892 2.109 8.596 3.126 9.338C7.153 6.108 11.624 3.417 16.435 1.373C15.65 0.892 14.848 0.434 14.037 0Z" fill="rgb(227,24,54)" fill-opacity="1.000" fill-rule="evenodd" transform="matrix(1 0 0 1 100.5651 19.7892)"/><path d="M14.611 0C9.37 1.402 4.442 3.663 0 6.642C1.001 7.14 1.984 7.671 2.947 8.237C7.3 5.19 12.131 2.817 17.284 1.252C16.405 0.807 15.514 0.387 14.611 0Z" fill="rgb(227,24,54)" fill-opacity="1.000" fill-rule="evenodd" transform="matrix(1 0 0 1 96.522 18.1236)"/><path d="M0 0.553C0 0.248 0.254 0 0.566 0C0.877 0 1.131 0.248 1.131 0.553C1.131 0.864 0.877 1.112 0.566 1.112C0.254 1.112 0 0.864 0 0.553ZM0.107 0.553C0.107 0.807 0.311 1.003 0.566 1.003C0.818 1.003 1.022 0.807 1.022 0.553C1.022 0.308 0.818 0.11 0.566 0.11C0.311 0.11 0.107 0.308 0.107 0.553Z" fill="rgb(227,24,54)" fill-opacity="1.000" fill-rule="evenodd" transform="matrix(1 0 0 1 105.3392 28.0276)"/><path d="M0.491 0.622L0.386 0.622L0.205 0.335L0.093 0.335L0.093 0.622L0 0.622L0 0L0.275 0C0.328 0 0.382 0.003 0.431 0.03C0.477 0.058 0.501 0.112 0.501 0.165C0.501 0.286 0.413 0.332 0.301 0.335L0.491 0.622ZM0.197 0.259C0.285 0.259 0.406 0.274 0.406 0.163C0.406 0.082 0.336 0.071 0.257 0.071L0.093 0.071L0.093 0.258L0.197 0.259Z" fill="rgb(227,24,54)" fill-opacity="1.000" fill-rule="evenodd" transform="matrix(1 0 0 1 105.6891 28.2723)"/></svg>