<svg xmlns="http://www.w3.org/2000/svg" viewBox="0 0 60 60" width="60" height="60"><path d="M0 0L60 0L60 60L0 60L0 0Z" fill="rgb(255,255,255)" fill-opacity="1.000" fill-rule="nonzero" transform="matrix(1 0 0 1 0 0)"/><path d="M0 5C0 2.239 2.239 0 5 0L33 0C35.761 0 38 2.239 38 5L38 33C38 35.761 35.761 38 33 38L5 38C2.239 38 0 35.761 0 33L0 5Z" fill="rgb(0,50,200)" fill-opacity="1.000" fill-rule="nonzero" transform="matrix(1 0 0 1 11 11)"/><path d="M21.126 7C19.503 2.907 15.378 0 10.561 0C5.748 0 1.625 2.914 0 7L3.829 7C5.211 4.843 7.715 3.404 10.561 3.404C13.416 3.404 15.914 4.847 17.293 7L21.126 7Z" fill="rgb(231,26,59)" fill-opacity="1.000" fill-rule="evenodd" transform="matrix(1 0 0 1 19.7037 18)"/><path d="M21.865 0L18.032 0C18.755 1.128 19.171 2.45 19.171 3.861C19.189 5.827 18.359 7.634 17.041 8.967L14.062 6.02L11.644 8.424L14.08 10.845C13.214 11.161 12.275 11.319 11.3 11.319C6.95 11.319 3.43 7.967 3.43 3.861C3.43 2.447 3.846 1.126 4.568 0L0.739 0C0.262 1.201 0 2.503 0 3.861C0 9.845 5.073 14.723 11.3 14.723C13.232 14.723 15.074 14.249 16.662 13.424L19.821 16.548L22.24 14.144L19.442 11.371C21.392 9.424 22.601 6.774 22.601 3.861C22.601 2.501 22.34 1.2 21.865 0Z" fill="rgb(255,255,255)" fill-opacity="1.000" fill-rule="evenodd" transform="matrix(1 0 0 1 19 25)"/></svg>