<svg xmlns="http://www.w3.org/2000/svg" viewBox="0 0 130 60" width="130" height="60"><path d="M0 0L130 0L130 60L0 60L0 0Z" fill="rgb(255,255,255)" fill-opacity="1.000" fill-rule="nonzero" transform="matrix(1 0 0 1 0 0)"/><path d="M3.249 6.791C4.73 5.545 6.679 4.79 8.809 4.79C13.503 4.79 17.312 8.458 17.33 12.967C17.33 17.477 13.521 21.144 8.827 21.144C6.697 21.144 4.766 20.389 3.267 19.143L3.267 20.723L0 20.723L0 0L3.249 0L3.249 6.791ZM3.574 12.967C3.574 15.704 5.921 17.915 8.809 17.915C11.698 17.915 14.044 15.704 14.044 12.967C14.044 10.23 11.698 8.019 8.809 8.019C5.921 8.019 3.574 10.247 3.574 12.967Z" fill="rgb(0,50,200)" fill-opacity="1.000" fill-rule="evenodd" transform="matrix(1 0 0 1 22 14.4738)"/><path d="M8.502 0C10.633 0 12.564 0.755 14.062 2L14.062 0.509L17.33 0.509L17.33 15.932L14.062 15.932L14.062 14.353C12.582 15.599 10.633 16.353 8.502 16.353C3.809 16.353 0 12.686 0 8.177C0 3.667 3.809 0 8.502 0ZM3.267 8.159C3.267 10.896 5.614 13.107 8.502 13.107C11.391 13.107 13.738 10.896 13.738 8.159C13.738 5.422 11.391 3.211 8.502 3.211C5.614 3.211 3.267 5.439 3.267 8.159Z" fill="rgb(0,50,200)" fill-opacity="1.000" fill-rule="evenodd" transform="matrix(1 0 0 1 40.812 19.2813)"/><path d="M0 0L3.267 0L3.267 15.423L0 15.423L0 0Z" fill="rgb(0,50,200)" fill-opacity="1.000" fill-rule="nonzero" transform="matrix(1 0 0 1 104.0653 19.7728)"/><path d="M2.293 4.387C3.559 4.387 4.585 3.405 4.585 2.193C4.585 0.982 3.559 0 2.293 0C1.027 0 0 0.982 0 2.193C0 3.405 1.027 4.387 2.293 4.387Z" fill="rgb(0,50,200)" fill-opacity="1.000" fill-rule="nonzero" transform="matrix(1 0 0 1 103.4147 14.0527)"/><path d="M3.267 1.965C4.387 0.86 5.849 0 8.033 0C11.824 0 14.965 3.088 14.983 6.896L14.983 15.739L11.716 15.739L11.716 7.44C11.716 5.141 9.82 3.264 7.492 3.264C5.163 3.264 3.267 5.124 3.267 7.44L3.267 15.739L0 15.739L0 0.316L3.267 0.316L3.267 1.965Z" fill="rgb(0,50,200)" fill-opacity="1.000" fill-rule="nonzero" transform="matrix(1 0 0 1 61.2997 19.4744)"/><path d="M11.3 0C5.073 0 0 4.878 0 10.861C0 16.845 5.073 21.723 11.3 21.723C13.232 21.723 15.074 21.249 16.662 20.424L19.821 23.548L22.24 21.144L19.442 18.371C21.392 16.424 22.601 13.774 22.601 10.861C22.601 4.86 17.528 0 11.3 0ZM17.041 15.967L14.062 13.02L11.644 15.424L14.08 17.845C13.214 18.161 12.275 18.319 11.3 18.319C6.95 18.319 3.43 14.967 3.43 10.861C3.43 6.738 6.968 3.404 11.3 3.404C15.651 3.404 19.171 6.755 19.171 10.861C19.189 12.827 18.359 14.634 17.041 15.967Z" fill="rgb(231,26,59)" fill-opacity="1.000" fill-rule="evenodd" transform="matrix(1 0 0 1 78.4323 14)"/><path d="M3.421 2.656C3.978 2.48 4.3 1.992 4.3 1.408C4.3 0.544 3.606 0 2.469 0L0 0L0 5.513L2.55 5.513C3.784 5.513 4.567 4.905 4.567 4.009C4.575 3.337 4.195 2.8 3.421 2.656ZM0.783 0.672L2.396 0.672C3.139 0.672 3.566 0.992 3.566 1.496C3.566 2.048 3.13 2.384 2.34 2.384L0.791 2.384L0.791 0.672L0.783 0.672ZM2.517 4.825L0.775 4.825L0.775 3.081L2.541 3.081C3.324 3.081 3.8 3.369 3.8 3.905C3.8 4.425 3.348 4.825 2.517 4.825Z" fill="rgb(232,25,60)" fill-opacity="1.000" fill-rule="nonzero" transform="matrix(1 0 0 1 51.6022 39.7233)"/><path d="M2.477 0L0 5.545L0.839 5.545L1.46 4.129L4.236 4.129L4.857 5.545L5.688 5.545L3.219 0L2.477 0ZM1.767 3.417L2.848 0.936L3.929 3.417L1.767 3.417Z" fill="rgb(232,25,60)" fill-opacity="1.000" fill-rule="nonzero" transform="matrix(1 0 0 1 56.7415 39.6831)"/><path d="M3.84 2.44L0.783 2.44L0.783 0L0 0L0 5.513L0.783 5.513L0.783 3.153L3.84 3.153L3.84 5.513L4.631 5.513L4.631 0L3.84 0L3.84 2.44Z" fill="rgb(232,25,60)" fill-opacity="1.000" fill-rule="nonzero" transform="matrix(1 0 0 1 63.3815 39.7152)"/><path d="M0.775 0L0 0L0 5.513L0.775 5.513L0.775 0Z" fill="rgb(232,25,60)" fill-opacity="1.000" fill-rule="nonzero" transform="matrix(1 0 0 1 69.5541 39.7152)"/><path d="M3.211 0L2.477 0L0 5.545L0.831 5.545L1.452 4.129L4.228 4.129L4.849 5.545L5.68 5.545L3.211 0ZM1.759 3.417L2.84 0.936L3.921 3.417L1.759 3.417Z" fill="rgb(232,25,60)" fill-opacity="1.000" fill-rule="nonzero" transform="matrix(1 0 0 1 71.2643 39.6831)"/><path d="M2.364 0L0 5.545L1.468 5.545L1.84 4.593L4.195 4.593L4.575 5.545L6.043 5.545L3.687 0L2.364 0ZM2.299 3.433L3.018 1.6L3.736 3.433L2.299 3.433Z" fill="rgb(0,50,200)" fill-opacity="1.000" fill-rule="nonzero" transform="matrix(1 0 0 1 27.8411 39.6832)"/><path d="M3.139 2.376L2.364 2.2C1.92 2.112 1.694 1.976 1.694 1.656C1.694 1.296 2.017 1.088 2.501 1.088C3.09 1.088 3.34 1.424 3.413 1.832L4.801 1.832C4.671 0.352 3.324 0 2.429 0C1.121 0 0.218 0.696 0.218 1.8C0.218 2.672 0.734 3.169 1.831 3.409L2.743 3.601C3.227 3.689 3.332 3.889 3.332 4.089C3.332 4.401 3.042 4.593 2.55 4.593C1.896 4.593 1.476 4.273 1.388 3.793L0 3.793C0.129 5.153 1.259 5.753 2.509 5.753C3.897 5.753 4.817 5.065 4.817 3.961C4.817 3.009 4.163 2.592 3.139 2.376Z" fill="rgb(0,50,200)" fill-opacity="1.000" fill-rule="nonzero" transform="matrix(1 0 0 1 34.1504 39.5952)"/><path d="M2.364 0L0 5.545L1.468 5.545L1.84 4.593L4.195 4.593L4.575 5.545L6.043 5.545L3.695 0L2.364 0ZM2.299 3.433L3.017 1.6L3.744 3.433L2.299 3.433Z" fill="rgb(0,50,200)" fill-opacity="1.000" fill-rule="nonzero" transform="matrix(1 0 0 1 39.3145 39.6832)"/><path d="M3.139 2.376L2.364 2.2C1.92 2.112 1.694 1.976 1.694 1.656C1.694 1.296 2.017 1.088 2.501 1.088C3.09 1.088 3.34 1.424 3.413 1.832L4.801 1.832C4.663 0.352 3.324 0 2.429 0C1.121 0 0.218 0.696 0.218 1.8C0.218 2.672 0.734 3.169 1.831 3.409L2.743 3.601C3.227 3.689 3.332 3.889 3.332 4.089C3.332 4.401 3.042 4.593 2.55 4.593C1.896 4.593 1.476 4.273 1.388 3.793L0 3.793C0.129 5.153 1.259 5.753 2.509 5.753C3.897 5.753 4.817 5.065 4.817 3.961C4.817 3.009 4.163 2.592 3.139 2.376Z" fill="rgb(0,50,200)" fill-opacity="1.000" fill-rule="nonzero" transform="matrix(1 0 0 1 45.6315 39.5952)"/><path d="M4.308 3.337C4.163 4.025 3.671 4.457 2.937 4.457C2.033 4.457 1.404 3.785 1.404 2.865C1.404 1.952 2.033 1.272 2.937 1.272C3.671 1.272 4.163 1.704 4.308 2.392L5.696 2.176C5.438 0.872 4.373 0 2.945 0C1.267 0 0 1.208 0 2.873C0 4.537 1.267 5.745 2.945 5.745C4.381 5.745 5.438 4.873 5.696 3.561L4.333 3.345L4.308 3.345L4.308 3.337Z" fill="rgb(0,50,200)" fill-opacity="1.000" fill-rule="nonzero" transform="matrix(1 0 0 1 22 39.6037)"/></svg>