<svg xmlns="http://www.w3.org/2000/svg" viewBox="0 0 60 60" width="60" height="60"><path d="M0 0L60 0L60 60L0 60L0 0Z" fill="rgb(0,50,200)" fill-opacity="1.000" fill-rule="nonzero" transform="matrix(1 0 0 1 0 0)"/><path d="M29.349 9.725C27.095 4.038 21.364 0 14.673 0C7.985 0 2.257 4.048 0 9.725L5.319 9.725C7.24 6.729 10.718 4.729 14.673 4.729C18.639 4.729 22.109 6.734 24.025 9.725L29.349 9.725Z" fill="rgb(231,26,59)" fill-opacity="1.000" fill-rule="evenodd" transform="matrix(1 0 0 1 15.5787 13.4168)"/><path d="M30.376 0L25.052 0C26.056 1.567 26.634 3.404 26.634 5.365C26.659 8.095 25.506 10.606 23.675 12.458L19.536 8.363L16.176 11.703L19.561 15.067C18.357 15.505 17.053 15.725 15.699 15.725C9.655 15.725 4.765 11.069 4.765 5.365C4.765 3.4 5.343 1.564 6.346 0L1.027 0C0.363 1.668 0 3.477 0 5.365C0 13.677 7.047 20.454 15.699 20.454C18.383 20.454 20.941 19.796 23.148 18.65L27.537 22.989L30.897 19.649L27.01 15.798C29.719 13.092 31.399 9.411 31.399 5.365C31.399 3.475 31.037 1.667 30.376 0Z" fill="rgb(255,255,255)" fill-opacity="1.000" fill-rule="evenodd" transform="matrix(1 0 0 1 14.6006 23.1417)"/></svg>