<svg xmlns="http://www.w3.org/2000/svg" viewBox="0 0 130 60" width="130" height="60"><path d="M0 0L130 0L130 60L0 60L0 0Z" fill="rgb(255,255,255)" fill-opacity="1.000" fill-rule="nonzero" transform="matrix(1 0 0 1 0 0)"/><path d="M0.257 9.53L4.493 13.765C4.818 14.125 5.217 14.412 5.663 14.604C6.109 14.796 6.591 14.89 7.077 14.879C7.845 14.829 8.578 14.54 9.174 14.054C9.8 14.606 10.611 14.901 11.445 14.879C12.22 14.828 12.961 14.54 13.567 14.054C14.196 14.616 15.019 14.912 15.862 14.879C16.73 14.798 17.545 14.425 18.174 13.823C18.515 14.168 18.923 14.439 19.374 14.619C19.824 14.799 20.307 14.885 20.791 14.871C21.937 14.747 22.992 14.188 23.739 13.311L29.114 5.461C29.181 5.371 29.229 5.268 29.255 5.159C29.281 5.05 29.284 4.937 29.265 4.826C29.246 4.716 29.204 4.611 29.143 4.517C29.081 4.423 29.001 4.343 28.908 4.281C28.817 4.214 28.714 4.167 28.605 4.141C28.495 4.116 28.382 4.114 28.271 4.134C28.161 4.154 28.055 4.196 27.962 4.258C27.868 4.32 27.788 4.401 27.727 4.495L22.41 12.271C21.968 12.767 21.366 13.094 20.709 13.195C20.421 13.193 20.136 13.129 19.875 13.006C19.614 12.884 19.383 12.706 19.198 12.485L6.961 0.244C6.885 0.167 6.793 0.105 6.693 0.063C6.592 0.022 6.484 0 6.375 0C6.266 0 6.158 0.022 6.058 0.063C5.957 0.105 5.866 0.167 5.789 0.244C5.708 0.321 5.643 0.414 5.599 0.517C5.555 0.62 5.532 0.731 5.532 0.843C5.532 0.955 5.555 1.065 5.599 1.168C5.643 1.271 5.708 1.364 5.789 1.441L16.969 12.642C16.636 12.93 16.225 13.111 15.788 13.162C15.538 13.158 15.291 13.101 15.065 12.994C14.838 12.888 14.637 12.734 14.475 12.543L4.906 2.976C4.828 2.895 4.736 2.831 4.633 2.786C4.53 2.742 4.419 2.719 4.307 2.719C4.195 2.719 4.084 2.742 3.981 2.786C3.878 2.831 3.785 2.895 3.708 2.976C3.627 3.053 3.562 3.146 3.518 3.249C3.474 3.352 3.451 3.463 3.451 3.575C3.451 3.687 3.474 3.798 3.518 3.9C3.562 4.003 3.627 4.096 3.708 4.173L12.337 12.799C12.052 13.011 11.715 13.139 11.362 13.17C11.112 13.167 10.865 13.109 10.639 13.003C10.413 12.896 10.212 12.742 10.049 12.551L3.147 5.651C3.07 5.57 2.977 5.505 2.874 5.461C2.771 5.417 2.66 5.394 2.548 5.394C2.436 5.394 2.325 5.417 2.223 5.461C2.12 5.505 2.027 5.57 1.95 5.651C1.868 5.728 1.804 5.821 1.76 5.924C1.715 6.026 1.693 6.137 1.693 6.249C1.693 6.361 1.715 6.472 1.76 6.575C1.804 6.678 1.868 6.771 1.95 6.848L7.944 12.84C7.664 13.039 7.336 13.159 6.994 13.187C6.746 13.182 6.501 13.124 6.276 13.017C6.051 12.911 5.851 12.758 5.69 12.568L1.454 8.333C1.377 8.252 1.284 8.188 1.181 8.143C1.078 8.099 0.968 8.077 0.856 8.077C0.744 8.077 0.633 8.099 0.53 8.143C0.427 8.188 0.334 8.252 0.257 8.333C0.176 8.411 0.111 8.503 0.067 8.606C0.023 8.709 0 8.82 0 8.932C0 9.044 0.023 9.155 0.067 9.258C0.111 9.36 0.176 9.453 0.257 9.53Z" fill="rgb(255,205,0)" fill-opacity="1.000" fill-rule="nonzero" transform="matrix(1 0 0 1 19.9907 22.8135)"/><path d="M29.005 5.359L24.769 1.133C24.448 0.769 24.051 0.48 23.606 0.285C23.161 0.089 22.679 -0.007 22.193 0.002C21.425 0.053 20.692 0.341 20.096 0.828C19.478 0.268 18.667 -0.028 17.834 0.002C17.058 0.05 16.316 0.339 15.712 0.828C15.08 0.27 14.259 -0.025 13.416 0.002C12.554 0.066 11.739 0.421 11.104 1.009C10.759 0.673 10.349 0.411 9.899 0.238C9.449 0.065 8.969 -0.015 8.487 0.002C7.343 0.133 6.291 0.69 5.539 1.562L0.148 9.429C0.085 9.521 0.041 9.625 0.018 9.734C-0.005 9.843 -0.006 9.956 0.015 10.065C0.035 10.175 0.078 10.279 0.139 10.373C0.2 10.466 0.279 10.546 0.371 10.609C0.463 10.672 0.567 10.716 0.676 10.739C0.785 10.762 0.898 10.763 1.007 10.742C1.117 10.722 1.221 10.679 1.315 10.618C1.408 10.557 1.489 10.479 1.551 10.386L6.861 2.619C7.305 2.121 7.91 1.794 8.57 1.695C8.856 1.699 9.139 1.765 9.398 1.887C9.657 2.01 9.887 2.186 10.072 2.404L22.292 14.637C22.37 14.716 22.462 14.779 22.564 14.822C22.667 14.864 22.776 14.886 22.887 14.885C22.999 14.887 23.11 14.866 23.214 14.823C23.317 14.781 23.411 14.717 23.49 14.637C23.571 14.56 23.635 14.467 23.68 14.365C23.724 14.262 23.747 14.151 23.747 14.039C23.747 13.927 23.724 13.816 23.68 13.713C23.635 13.61 23.571 13.518 23.49 13.44L12.31 2.248C12.641 1.959 13.054 1.781 13.491 1.736C13.741 1.738 13.988 1.795 14.215 1.901C14.442 2.008 14.642 2.163 14.803 2.355L24.356 11.905C24.435 11.985 24.529 12.048 24.632 12.091C24.736 12.134 24.847 12.155 24.959 12.153C25.07 12.153 25.179 12.132 25.282 12.089C25.384 12.047 25.476 11.984 25.554 11.905C25.634 11.831 25.699 11.742 25.744 11.643C25.79 11.544 25.815 11.437 25.819 11.328C25.823 11.219 25.805 11.11 25.766 11.008C25.728 10.906 25.67 10.812 25.595 10.733L16.934 2.091C17.219 1.881 17.556 1.752 17.908 1.719C18.159 1.725 18.406 1.783 18.632 1.892C18.858 2 19.059 2.155 19.221 2.347L26.115 9.239C26.194 9.319 26.287 9.382 26.391 9.425C26.495 9.467 26.606 9.488 26.718 9.487C26.829 9.487 26.938 9.466 27.04 9.423C27.142 9.381 27.235 9.318 27.312 9.239C27.394 9.162 27.458 9.069 27.502 8.966C27.547 8.863 27.569 8.753 27.569 8.641C27.569 8.529 27.547 8.418 27.502 8.315C27.458 8.212 27.394 8.119 27.312 8.042L21.326 2.049C21.611 1.848 21.945 1.728 22.292 1.703C22.542 1.709 22.787 1.768 23.012 1.876C23.237 1.984 23.436 2.139 23.597 2.33L27.824 6.556C27.903 6.635 27.996 6.697 28.099 6.74C28.202 6.782 28.312 6.804 28.423 6.804C28.534 6.804 28.644 6.782 28.747 6.74C28.85 6.697 28.943 6.635 29.022 6.556C29.1 6.478 29.162 6.384 29.205 6.282C29.248 6.179 29.269 6.069 29.269 5.958C29.269 5.847 29.248 5.737 29.205 5.634C29.162 5.531 29.1 5.438 29.022 5.359" fill="rgb(0,105,55)" fill-opacity="1.000" fill-rule="nonzero" transform="matrix(1 0 0 1 20.001 15.9976)"/><path d="M4.904 0L12.501 0C17.455 0 19.106 2.064 19.106 4.383C19.106 6.703 17.57 8.428 14.978 9.055C15.777 9.275 16.482 9.753 16.982 10.414C17.482 11.075 17.75 11.883 17.744 12.712C17.744 15.865 15.11 18.267 9.487 18.267L0 18.267L4.904 0ZM9.669 14.197C11.419 14.197 12.484 13.413 12.484 12.266C12.484 11.325 11.733 10.83 10.247 10.83L6.746 10.83L5.829 14.197L9.669 14.197ZM11.13 7.28C12.93 7.28 13.896 6.579 13.896 5.431C13.896 4.606 13.244 4.069 11.708 4.069L8.546 4.069L7.72 7.28L11.13 7.28Z" fill="rgb(0,105,55)" fill-opacity="1.000" fill-rule="nonzero" transform="matrix(1 0 0 1 52.1516 17.6013)"/><path d="M4.88 0L12.443 0C17.397 0 19.048 2.047 19.048 4.358C19.048 6.67 17.512 8.386 14.969 9.006C15.764 9.225 16.465 9.701 16.962 10.359C17.459 11.017 17.725 11.821 17.719 12.646C17.719 15.782 15.093 18.176 9.462 18.176L0 18.176L4.88 0ZM9.619 14.123C11.361 14.123 12.426 13.347 12.426 12.2C12.426 11.267 11.675 10.772 10.189 10.772L6.713 10.772L5.804 14.123L9.619 14.123ZM11.072 7.239C12.864 7.239 13.83 6.537 13.83 5.398C13.83 4.573 13.178 4.045 11.642 4.045L8.504 4.045L7.679 7.239L11.072 7.239Z" fill="rgb(0,105,55)" fill-opacity="1.000" fill-rule="nonzero" transform="matrix(1 0 0 1 69.9613 17.6509)"/><path d="M0 10.972C0.021 9.504 0.333 8.055 0.917 6.708C1.501 5.361 2.345 4.143 3.402 3.123C4.459 2.103 5.707 1.303 7.074 0.767C8.441 0.232 9.901 -0.028 11.369 0.002C15.093 0.002 17.669 1.794 18.801 4.6L14.391 6.986C14.093 6.266 13.58 5.655 12.923 5.236C12.266 4.816 11.496 4.609 10.717 4.641C7.704 4.641 5.284 7.481 5.284 10.651C5.248 11.143 5.316 11.637 5.484 12.102C5.653 12.566 5.918 12.989 6.262 13.343C6.606 13.697 7.021 13.974 7.481 14.156C7.94 14.338 8.432 14.42 8.925 14.398C9.67 14.383 10.403 14.211 11.077 13.892C11.75 13.574 12.348 13.116 12.831 12.549L16.233 15.57C15.297 16.67 14.127 17.546 12.808 18.135C11.489 18.723 10.055 19.009 8.612 18.971C3.567 18.971 0 15.876 0 11.014" fill="rgb(0,105,55)" fill-opacity="1.000" fill-rule="nonzero" transform="matrix(1 0 0 1 89.2408 17.2687)"/><path d="M3.352 2.027C3.372 2.313 3.332 2.601 3.234 2.871C3.136 3.141 2.982 3.388 2.783 3.595C2.324 3.985 1.731 4.178 1.131 4.132L0 4.132L0 0.004L1.272 0.004C1.55 -0.014 1.829 0.024 2.092 0.115C2.356 0.205 2.599 0.347 2.807 0.533C2.996 0.731 3.142 0.966 3.236 1.223C3.329 1.48 3.369 1.754 3.352 2.027ZM2.642 2.027C2.642 1.044 2.18 0.549 1.255 0.549L0.669 0.549L0.669 3.595L1.148 3.595C1.355 3.622 1.565 3.599 1.762 3.529C1.958 3.46 2.136 3.344 2.28 3.193C2.424 3.042 2.53 2.859 2.59 2.66C2.65 2.46 2.662 2.249 2.626 2.043L2.642 2.027Z" fill="rgb(0,105,55)" fill-opacity="1.000" fill-rule="nonzero" transform="matrix(1 0 0 1 83.428 38.8189)"/><path d="M0 4.127L0 0L0.677 0L0.677 4.127L0 4.127Z" fill="rgb(0,105,55)" fill-opacity="1.000" fill-rule="nonzero" transform="matrix(1 0 0 1 88.1261 38.815)"/><path d="M1.895 1.984L3.414 1.984L3.414 4.056C3.183 4.134 2.945 4.192 2.704 4.23C2.458 4.264 2.21 4.28 1.961 4.279C1.692 4.293 1.423 4.247 1.174 4.146C0.924 4.045 0.7 3.89 0.516 3.693C0.153 3.254 -0.03 2.694 0.004 2.125C-0.011 1.84 0.033 1.556 0.132 1.289C0.231 1.022 0.385 0.778 0.582 0.573C0.793 0.377 1.041 0.225 1.312 0.127C1.583 0.029 1.871 -0.013 2.159 0.003C2.579 0.002 2.995 0.086 3.381 0.251L3.142 0.821C2.831 0.668 2.489 0.586 2.143 0.581C1.948 0.571 1.753 0.604 1.572 0.676C1.391 0.749 1.228 0.86 1.094 1.002C0.826 1.316 0.69 1.721 0.714 2.133C0.682 2.545 0.806 2.955 1.061 3.28C1.187 3.416 1.341 3.521 1.512 3.59C1.683 3.658 1.868 3.688 2.052 3.677C2.288 3.676 2.524 3.649 2.754 3.594L2.754 2.562L1.928 2.562L1.895 1.984Z" fill="rgb(0,105,55)" fill-opacity="1.000" fill-rule="nonzero" transform="matrix(1 0 0 1 90.1448 38.7209)"/><path d="M0 4.127L0 0L0.677 0L0.677 4.127L0 4.127Z" fill="rgb(0,105,55)" fill-opacity="1.000" fill-rule="nonzero" transform="matrix(1 0 0 1 95.0122 38.815)"/><path d="M1.874 4.119L1.205 4.119L1.205 0.578L0 0.578L0 0L3.096 0L3.096 0.578L1.874 0.578L1.874 4.119Z" fill="rgb(0,105,55)" fill-opacity="1.000" fill-rule="nonzero" transform="matrix(1 0 0 1 96.7874 38.8233)"/><path d="M3.105 4.127L2.692 2.988L1.115 2.988L0.71 4.127L0 4.127L1.544 0L2.279 0L3.823 4.127L3.105 4.127ZM2.518 2.402L2.138 1.279C2.094 1.163 2.055 1.045 2.023 0.924C1.973 0.759 1.932 0.644 1.916 0.57C1.859 0.827 1.784 1.081 1.693 1.329L1.313 2.402L2.518 2.402Z" fill="rgb(0,105,55)" fill-opacity="1.000" fill-rule="nonzero" transform="matrix(1 0 0 1 100.4286 38.815)"/><path d="M0 4.127L0 0L0.669 0L0.669 3.541L2.419 3.541L2.419 4.119L0 4.127Z" fill="rgb(0,105,55)" fill-opacity="1.000" fill-rule="nonzero" transform="matrix(1 0 0 1 105.2588 38.815)"/></svg>