<svg xmlns="http://www.w3.org/2000/svg" viewBox="0 0 60 60" width="60" height="60"><path d="M0 0L60 0L60 60L0 60L0 0Z" fill="rgb(255,255,255)" fill-opacity="1.000" fill-rule="nonzero" transform="matrix(1 0 0 1 0 0)"/><path d="M0.359 13.31L6.274 19.224C6.729 19.727 7.286 20.127 7.909 20.396C8.532 20.664 9.206 20.795 9.884 20.78C10.956 20.71 11.98 20.307 12.813 19.627C13.686 20.398 14.819 20.81 15.984 20.78C17.066 20.708 18.101 20.306 18.947 19.627C19.826 20.413 20.975 20.826 22.153 20.78C23.365 20.666 24.503 20.146 25.382 19.304C25.858 19.786 26.428 20.165 27.057 20.417C27.686 20.669 28.36 20.788 29.037 20.768C30.637 20.595 32.111 19.815 33.154 18.59L40.66 7.627C40.754 7.501 40.821 7.358 40.857 7.205C40.893 7.053 40.898 6.895 40.871 6.74C40.844 6.586 40.786 6.439 40.7 6.308C40.614 6.177 40.503 6.065 40.372 5.978C40.246 5.885 40.102 5.819 39.949 5.784C39.796 5.749 39.637 5.745 39.483 5.773C39.329 5.801 39.182 5.86 39.051 5.947C38.92 6.034 38.809 6.146 38.723 6.278L31.297 17.137C30.68 17.831 29.84 18.287 28.922 18.428C28.519 18.426 28.122 18.336 27.758 18.165C27.393 17.993 27.07 17.745 26.811 17.437L9.722 0.341C9.615 0.233 9.488 0.147 9.347 0.089C9.206 0.03 9.056 0 8.904 0C8.751 0 8.601 0.03 8.46 0.089C8.32 0.147 8.192 0.233 8.085 0.341C7.971 0.449 7.881 0.578 7.819 0.722C7.758 0.866 7.726 1.02 7.726 1.177C7.726 1.333 7.758 1.488 7.819 1.632C7.881 1.775 7.971 1.905 8.085 2.013L23.698 17.656C23.234 18.058 22.659 18.311 22.049 18.382C21.7 18.377 21.355 18.297 21.039 18.148C20.723 17.999 20.442 17.784 20.216 17.518L6.851 4.157C6.743 4.043 6.614 3.953 6.47 3.891C6.326 3.83 6.171 3.798 6.015 3.798C5.859 3.798 5.704 3.83 5.56 3.891C5.416 3.953 5.287 4.043 5.179 4.157C5.066 4.264 4.975 4.394 4.914 4.538C4.852 4.681 4.82 4.836 4.82 4.993C4.82 5.149 4.852 5.304 4.914 5.447C4.975 5.591 5.066 5.721 5.179 5.828L17.229 17.875C16.832 18.17 16.361 18.35 15.868 18.394C15.519 18.388 15.174 18.308 14.858 18.159C14.542 18.01 14.261 17.795 14.035 17.529L4.395 7.892C4.287 7.778 4.157 7.688 4.014 7.626C3.87 7.565 3.715 7.533 3.559 7.533C3.402 7.533 3.248 7.565 3.104 7.626C2.96 7.688 2.831 7.778 2.723 7.892C2.609 7.999 2.519 8.129 2.457 8.273C2.396 8.416 2.364 8.571 2.364 8.728C2.364 8.884 2.396 9.039 2.457 9.182C2.519 9.326 2.609 9.456 2.723 9.563L11.094 17.933C10.704 18.21 10.246 18.378 9.768 18.417C9.421 18.41 9.079 18.329 8.765 18.18C8.45 18.031 8.172 17.817 7.946 17.552L2.031 11.638C1.923 11.525 1.794 11.435 1.65 11.373C1.506 11.311 1.351 11.28 1.195 11.28C1.039 11.28 0.884 11.311 0.74 11.373C0.596 11.435 0.467 11.525 0.359 11.638C0.246 11.746 0.155 11.876 0.094 12.019C0.032 12.163 0 12.318 0 12.474C0 12.63 0.032 12.785 0.094 12.929C0.155 13.073 0.246 13.202 0.359 13.31Z" fill="rgb(255,205,0)" fill-opacity="1.000" fill-rule="nonzero" transform="matrix(1 0 0 1 9.194 24.2165)"/><path d="M40.508 7.485L34.592 1.583C34.143 1.075 33.589 0.67 32.967 0.397C32.346 0.125 31.673 -0.01 30.995 0.003C29.922 0.074 28.898 0.477 28.066 1.156C27.203 0.375 26.07 -0.039 24.906 0.003C23.823 0.07 22.787 0.473 21.943 1.156C21.061 0.377 19.914 -0.035 18.737 0.003C17.532 0.093 16.394 0.589 15.508 1.41C15.026 0.941 14.453 0.574 13.825 0.332C13.196 0.091 12.526 -0.021 11.853 0.003C10.255 0.186 8.785 0.964 7.736 2.182L0.206 13.168C0.119 13.297 0.057 13.442 0.025 13.594C-0.007 13.747 -0.008 13.904 0.021 14.057C0.05 14.21 0.108 14.356 0.194 14.486C0.279 14.617 0.389 14.729 0.518 14.817C0.646 14.905 0.791 14.966 0.944 14.998C1.096 15.03 1.254 15.031 1.407 15.003C1.56 14.974 1.706 14.915 1.836 14.83C1.967 14.744 2.079 14.634 2.167 14.505L9.581 3.658C10.202 2.962 11.046 2.506 11.968 2.367C12.368 2.373 12.763 2.465 13.125 2.636C13.487 2.807 13.808 3.053 14.067 3.358L31.133 20.442C31.241 20.553 31.371 20.64 31.513 20.7C31.656 20.759 31.809 20.789 31.963 20.788C32.12 20.791 32.275 20.761 32.42 20.702C32.565 20.642 32.696 20.554 32.805 20.442C32.919 20.335 33.009 20.205 33.071 20.061C33.132 19.918 33.164 19.763 33.164 19.607C33.164 19.45 33.132 19.295 33.071 19.152C33.009 19.008 32.919 18.878 32.805 18.771L17.192 3.139C17.655 2.736 18.231 2.487 18.841 2.424C19.191 2.427 19.536 2.506 19.852 2.655C20.169 2.805 20.449 3.021 20.674 3.289L34.016 16.627C34.125 16.738 34.257 16.827 34.401 16.886C34.546 16.946 34.701 16.975 34.858 16.972C35.012 16.973 35.165 16.943 35.308 16.884C35.451 16.824 35.58 16.737 35.688 16.627C35.8 16.523 35.89 16.399 35.954 16.26C36.017 16.122 36.053 15.972 36.058 15.82C36.064 15.668 36.039 15.516 35.985 15.374C35.931 15.231 35.85 15.101 35.746 14.99L23.649 2.92C24.047 2.627 24.518 2.447 25.01 2.401C25.36 2.409 25.705 2.491 26.021 2.642C26.337 2.793 26.618 3.009 26.844 3.277L36.472 12.903C36.582 13.015 36.713 13.103 36.857 13.163C37.002 13.222 37.157 13.251 37.314 13.249C37.468 13.25 37.621 13.22 37.764 13.16C37.907 13.101 38.036 13.013 38.144 12.903C38.257 12.795 38.348 12.666 38.409 12.522C38.471 12.378 38.503 12.224 38.503 12.067C38.503 11.911 38.471 11.756 38.409 11.613C38.348 11.469 38.257 11.339 38.144 11.232L29.784 2.862C30.181 2.581 30.648 2.413 31.133 2.378C31.482 2.387 31.824 2.469 32.138 2.62C32.453 2.771 32.731 2.987 32.955 3.254L38.859 9.157C38.969 9.266 39.099 9.353 39.243 9.413C39.386 9.472 39.54 9.503 39.695 9.503C39.85 9.503 40.004 9.472 40.147 9.413C40.291 9.353 40.421 9.266 40.531 9.157C40.641 9.047 40.728 8.916 40.787 8.773C40.847 8.63 40.877 8.476 40.877 8.321C40.877 8.166 40.847 8.012 40.787 7.868C40.728 7.725 40.641 7.595 40.531 7.485" fill="rgb(0,105,55)" fill-opacity="1.000" fill-rule="nonzero" transform="matrix(1 0 0 1 9.2084 14.6975)"/></svg>