<svg xmlns="http://www.w3.org/2000/svg" viewBox="0 0 60 60" width="60" height="60"><path d="M0 0L60 0L60 60L0 60L0 0Z" fill="rgb(255,255,255)" fill-opacity="1.000" fill-rule="nonzero" transform="matrix(1 0 0 1 0 0)"/><path d="M30.272 10.303L17.572 2.97C17.141 2.722 16.61 2.722 16.18 2.97L3.48 10.303C3.049 10.551 2.784 11.011 2.784 11.508L2.784 26.173C2.784 26.67 3.049 27.129 3.48 27.378L16.18 34.71C16.61 34.959 17.141 34.959 17.572 34.71L30.272 27.378C30.702 27.129 30.968 26.67 30.968 26.173L30.968 11.508C30.968 11.011 30.702 10.551 30.272 10.303ZM18.963 0.559C17.672 -0.186 16.08 -0.186 14.788 0.559L2.088 7.892C0.796 8.638 0 10.016 0 11.508L0 26.173C0 27.665 0.796 29.043 2.088 29.789L14.788 37.121C16.08 37.867 17.672 37.867 18.963 37.121L31.663 29.789C32.955 29.043 33.751 27.665 33.751 26.173L33.751 11.508C33.751 10.016 32.955 8.638 31.663 7.892L18.963 0.559Z" fill="rgb(0,0,0)" fill-opacity="1.000" fill-rule="evenodd" transform="matrix(1 0 0 1 13.248 10.6956)"/><path d="M2.627 8.883C2.834 8.679 2.998 8.526 3.156 8.377C4.479 7.108 6.042 6.339 7.85 6.119C10.829 5.762 13.356 6.685 15.398 8.91C16.639 10.262 17.413 11.855 17.652 13.679C18.044 16.668 17.293 19.3 15.158 21.475C13.873 22.788 12.354 23.662 10.535 23.953C7.686 24.404 5.116 23.766 2.872 21.909C2.693 21.761 2.524 21.591 2.344 21.437C1.685 20.882 1.315 20.129 0.966 19.371C0.503 18.371 0.177 17.327 0.03 16.234C0.013 16.107 0.002 15.987 0.002 15.86C0.002 10.751 0.002 5.647 0.002 0.537C0.002 0.466 -0.003 0.389 0.002 0.317C0.03 0.092 0.117 0.004 0.34 0.004C0.988 -0.001 1.636 -0.001 2.279 0.004C2.507 0.004 2.589 0.098 2.616 0.323C2.627 0.416 2.622 0.51 2.622 0.603C2.622 3.235 2.622 5.866 2.622 8.498C2.627 8.608 2.627 8.718 2.627 8.883ZM8.776 21.536C9.358 21.541 9.968 21.475 10.562 21.294C13.127 20.519 14.984 18.113 15.098 15.404C15.185 13.261 14.434 11.459 12.86 10.042C11.411 8.734 9.68 8.262 7.768 8.586C5.824 8.916 4.288 9.916 3.297 11.663C2.437 13.179 2.301 14.816 2.616 16.509C3.085 19.03 5.475 21.596 8.776 21.536Z" fill="rgb(0,0,0)" fill-opacity="1.000" fill-rule="nonzero" transform="matrix(1 0 0 1 21.248 15)"/><path d="M16.703 8.351C16.703 12.964 12.964 16.703 8.351 16.703C3.739 16.703 0 12.964 0 8.351C0 3.739 3.739 0 8.351 0C12.964 0 16.703 3.739 16.703 8.351Z" fill="rgb(0,0,0)" fill-opacity="1.000" fill-rule="nonzero" transform="matrix(1 0 0 1 21.7734 21.3513)"/></svg>