<svg xmlns="http://www.w3.org/2000/svg" viewBox="0 0 130 60" width="130" height="60"><path d="M0 0L130 0L130 60L0 60L0 0Z" fill="rgb(255,255,255)" fill-opacity="1.000" fill-rule="nonzero" transform="matrix(1 0 0 1 0 0)"/><path d="M1.966 6.716C2.121 6.562 2.243 6.446 2.362 6.334C3.352 5.374 4.522 4.793 5.875 4.627C8.104 4.357 9.995 5.054 11.524 6.737C12.453 7.759 13.032 8.964 13.211 10.343C13.504 12.603 12.942 14.592 11.344 16.237C10.383 17.23 9.245 17.891 7.884 18.111C5.753 18.451 3.829 17.97 2.15 16.566C2.015 16.453 1.889 16.325 1.754 16.208C1.261 15.789 0.984 15.22 0.723 14.646C0.377 13.89 0.132 13.101 0.022 12.274C0.01 12.179 0.002 12.087 0.002 11.992C0.002 8.129 0.002 4.269 0.002 0.406C0.002 0.352 -0.002 0.294 0.002 0.24C0.022 0.07 0.087 0.003 0.255 0.003C0.74 -0.001 1.225 -0.001 1.705 0.003C1.877 0.003 1.938 0.074 1.958 0.244C1.966 0.315 1.962 0.385 1.962 0.456C1.962 2.446 1.962 4.436 1.962 6.425C1.966 6.508 1.966 6.592 1.966 6.716ZM6.568 16.283C7.004 16.287 7.46 16.237 7.905 16.1C9.824 15.515 11.214 13.695 11.3 11.647C11.365 10.027 10.802 8.664 9.625 7.593C8.54 6.604 7.244 6.247 5.814 6.492C4.359 6.741 3.209 7.497 2.468 8.818C1.824 9.965 1.722 11.203 1.958 12.482C2.309 14.389 4.098 16.329 6.568 16.283Z" fill="rgb(0,0,0)" fill-opacity="1.000" fill-rule="nonzero" transform="matrix(1 0 0 1 15 20.7729)"/><path d="M2.016 7.15C2.048 7.914 2.191 8.62 2.525 9.277C3.141 10.49 4.062 11.362 5.386 11.669C7.045 12.052 8.541 11.653 9.833 10.523C10.179 10.22 10.44 9.837 10.693 9.451C10.803 9.281 10.909 9.106 11.015 8.936C11.125 8.762 11.19 8.741 11.377 8.836C11.516 8.907 11.646 8.982 11.785 9.056C12.042 9.198 12.303 9.335 12.559 9.476C12.743 9.58 12.771 9.651 12.686 9.833C11.757 11.748 10.314 13.024 8.239 13.485C6.964 13.767 5.688 13.717 4.433 13.339C3.32 13.003 2.399 12.367 1.657 11.453C0.769 10.357 0.198 9.119 0.047 7.702C-0.173 5.625 0.377 3.781 1.714 2.19C2.815 0.881 4.217 0.179 5.896 0.034C7.008 -0.066 8.101 0.046 9.128 0.491C11.092 1.342 12.343 2.842 12.902 4.94C13.061 5.538 13.134 6.153 13.142 6.776C13.142 6.838 13.146 6.901 13.138 6.963C13.126 7.071 13.061 7.133 12.955 7.141C12.877 7.146 12.8 7.146 12.722 7.146C9.246 7.146 5.773 7.146 2.297 7.146C2.215 7.15 2.13 7.15 2.016 7.15ZM10.974 5.363C10.77 4.632 10.501 3.951 9.979 3.415C8.679 2.078 7.102 1.658 5.329 2.103C3.956 2.447 3.026 3.369 2.484 4.695C2.395 4.907 2.301 5.123 2.256 5.363C5.162 5.363 8.06 5.363 10.974 5.363Z" fill="rgb(0,0,0)" fill-opacity="1.000" fill-rule="nonzero" transform="matrix(1 0 0 1 30.6923 25.3349)"/><path d="M2.016 7.146C2.048 7.91 2.191 8.616 2.525 9.277C3.141 10.49 4.062 11.362 5.386 11.669C7.045 12.052 8.541 11.653 9.833 10.523C10.179 10.22 10.44 9.837 10.693 9.451C10.803 9.281 10.909 9.106 11.015 8.936C11.125 8.762 11.19 8.741 11.377 8.836C11.516 8.907 11.647 8.982 11.785 9.057C12.042 9.198 12.303 9.335 12.559 9.476C12.743 9.58 12.771 9.651 12.686 9.833C11.756 11.748 10.314 13.024 8.239 13.485C6.955 13.767 5.672 13.717 4.412 13.335C3.308 12.999 2.395 12.363 1.657 11.453C0.769 10.357 0.198 9.119 0.047 7.702C-0.173 5.625 0.377 3.781 1.714 2.19C2.814 0.881 4.217 0.179 5.896 0.034C7.008 -0.066 8.101 0.046 9.128 0.491C11.092 1.342 12.343 2.842 12.902 4.94C13.061 5.538 13.134 6.153 13.142 6.776C13.142 6.838 13.146 6.901 13.138 6.963C13.126 7.071 13.061 7.133 12.955 7.141C12.877 7.146 12.8 7.146 12.722 7.146C9.246 7.146 5.773 7.146 2.297 7.146C2.211 7.146 2.13 7.146 2.016 7.146ZM2.256 5.359C5.166 5.359 8.06 5.359 10.958 5.359C10.456 3.075 8.525 1.999 6.711 1.94C4.653 1.87 2.896 3.037 2.256 5.359Z" fill="rgb(0,0,0)" fill-opacity="1.000" fill-rule="nonzero" transform="matrix(1 0 0 1 46.0104 25.3336)"/><path d="M0.003 7.091C0.003 4.864 0.003 2.642 0.003 0.415C0.003 0.021 0.023 0 0.402 0C0.794 0 1.185 0 1.58 0C1.959 0 1.976 0.017 1.976 0.415C1.976 1.903 1.976 3.394 1.976 4.881C1.976 5.218 1.976 5.554 1.976 5.891C1.976 6.123 1.951 6.107 2.184 6.107C2.921 6.107 3.659 6.107 4.397 6.107C4.45 6.107 4.503 6.107 4.56 6.107C4.902 6.107 4.926 6.131 4.926 6.48C4.926 6.85 4.931 7.216 4.926 7.585C4.922 7.839 4.878 7.885 4.625 7.885C3.818 7.885 3.011 7.885 2.204 7.885C1.972 7.885 1.992 7.864 1.992 8.096C1.992 9.717 1.992 11.341 1.992 12.961C1.992 13.368 1.996 13.775 2.09 14.174C2.245 14.838 2.579 15.387 3.088 15.823C3.447 16.126 3.887 16.168 4.331 16.143C4.633 16.126 4.918 16.035 5.191 15.898C5.224 15.881 5.261 15.86 5.293 15.848C5.464 15.777 5.546 15.811 5.615 15.989C5.693 16.184 5.758 16.384 5.831 16.583C5.913 16.803 5.998 17.019 6.076 17.24C6.125 17.385 6.096 17.468 5.958 17.522C5.191 17.809 4.409 18.033 3.577 17.962C2.567 17.879 1.752 17.414 1.112 16.616C0.354 15.678 0.007 14.589 0.003 13.38C-0.001 11.291 -0.001 9.189 0.003 7.091Z" fill="rgb(0,0,0)" fill-opacity="1.000" fill-rule="nonzero" transform="matrix(1 0 0 1 61.1525 21.0133)"/><path d="M7.503 7.148C5.759 7.148 4.015 7.148 2.27 7.148C2.013 7.148 2.005 7.082 2.034 7.414C2.127 8.461 2.462 9.412 3.138 10.222C3.798 11.007 4.61 11.556 5.624 11.722C7.202 11.983 8.616 11.597 9.83 10.529C10.238 10.168 10.54 9.707 10.833 9.246C10.902 9.134 10.968 9.017 11.041 8.909C11.131 8.772 11.208 8.743 11.351 8.822C11.766 9.042 12.182 9.267 12.59 9.495C12.753 9.587 12.769 9.661 12.683 9.844C12.492 10.247 12.268 10.629 12.007 10.991C10.919 12.499 9.46 13.358 7.642 13.591C6.635 13.72 5.633 13.67 4.646 13.404C3.505 13.097 2.547 12.499 1.773 11.593C0.819 10.475 0.208 9.196 0.049 7.717C-0.175 5.644 0.371 3.796 1.704 2.201C2.808 0.884 4.214 0.177 5.906 0.032C7.018 -0.063 8.111 0.045 9.138 0.493C11.094 1.345 12.341 2.84 12.899 4.926C13.062 5.532 13.136 6.155 13.14 6.782C13.14 6.836 13.144 6.89 13.136 6.949C13.124 7.065 13.062 7.136 12.944 7.144C12.875 7.148 12.806 7.148 12.736 7.148C10.992 7.148 9.248 7.148 7.503 7.148ZM10.968 5.366C10.393 2.886 8.249 1.91 6.472 1.939C4.426 1.976 2.824 3.239 2.266 5.366C5.164 5.366 8.058 5.366 10.968 5.366Z" fill="rgb(0,0,0)" fill-opacity="1.000" fill-rule="nonzero" transform="matrix(1 0 0 1 68.9834 25.3336)"/><path d="M0 8.952C0 6.107 0 3.265 0 0.42C0 0.025 0.024 0 0.42 0C0.819 0 1.219 0 1.618 0C1.924 0 1.973 0.054 1.977 0.374C1.977 0.798 1.977 1.221 1.977 1.641C1.977 6.912 1.977 12.184 1.977 17.456C1.977 17.896 1.969 17.904 1.541 17.904C1.141 17.904 0.742 17.904 0.342 17.904C0.033 17.904 0.004 17.875 0.004 17.551C0.004 14.959 0.004 12.367 0.004 9.77C0 9.5 0 9.226 0 8.952Z" fill="rgb(0,0,0)" fill-opacity="1.000" fill-rule="nonzero" transform="matrix(1 0 0 1 84.6441 21.0767)"/><path d="M1.973 8.96C1.973 11.806 1.973 14.647 1.973 17.493C1.973 17.896 1.96 17.908 1.577 17.908C1.153 17.908 0.734 17.908 0.31 17.908C0.053 17.908 0.004 17.854 0 17.589C0 17.551 0 17.51 0 17.472C0 11.802 0 6.127 0 0.457C0 0.029 0.024 0 0.436 0C0.827 0 1.219 0 1.614 0C1.675 0 1.736 0.004 1.797 0.012C1.903 0.025 1.964 0.091 1.973 0.199C1.977 0.278 1.977 0.357 1.977 0.436C1.973 3.273 1.973 6.119 1.973 8.96Z" fill="rgb(0,0,0)" fill-opacity="1.000" fill-rule="nonzero" transform="matrix(1 0 0 1 89.4644 21.0767)"/><path d="M7.507 7.144C5.763 7.144 4.018 7.144 2.274 7.144C2.017 7.144 2.009 7.077 2.038 7.41C2.132 8.457 2.465 9.408 3.143 10.218C3.807 11.011 4.626 11.56 5.649 11.726C7.206 11.979 8.608 11.593 9.814 10.546C10.173 10.235 10.442 9.84 10.706 9.441C10.821 9.267 10.927 9.084 11.041 8.909C11.131 8.772 11.208 8.743 11.351 8.822C11.766 9.042 12.182 9.267 12.589 9.495C12.753 9.586 12.769 9.661 12.684 9.844C12.492 10.247 12.268 10.629 12.006 10.991C10.919 12.499 9.459 13.358 7.642 13.591C6.635 13.72 5.632 13.67 4.646 13.404C3.505 13.097 2.548 12.499 1.773 11.593C0.819 10.476 0.208 9.196 0.049 7.717C-0.175 5.644 0.371 3.796 1.704 2.2C2.808 0.884 4.214 0.177 5.905 0.032C7.018 -0.064 8.11 0.044 9.137 0.493C11.094 1.345 12.341 2.836 12.899 4.926C13.063 5.532 13.135 6.155 13.14 6.783C13.14 6.837 13.144 6.891 13.135 6.949C13.123 7.065 13.063 7.136 12.945 7.144C12.875 7.148 12.806 7.148 12.737 7.148C11 7.144 9.256 7.144 7.507 7.144ZM2.262 5.358C5.172 5.358 8.066 5.358 10.963 5.358C10.466 3.081 8.538 1.997 6.72 1.939C4.67 1.868 2.91 3.023 2.262 5.358Z" fill="rgb(0,0,0)" fill-opacity="1.000" fill-rule="nonzero" transform="matrix(1 0 0 1 93.9285 25.3361)"/><path d="M0.009 9.472C0.009 8.35 0.009 7.232 0.009 6.111C0.009 5.604 0.131 5.118 0.286 4.64C0.649 3.531 1.133 2.484 1.949 1.641C2.723 0.843 3.636 0.266 4.732 0.033C5.152 -0.054 5.556 0.042 5.951 0.183C6.139 0.249 6.322 0.337 6.493 0.441C6.644 0.532 6.669 0.619 6.583 0.773C6.33 1.201 6.065 1.624 5.808 2.052C5.743 2.16 5.649 2.198 5.531 2.156C4.94 1.953 4.418 2.119 3.962 2.505C3.147 3.195 2.528 4.03 2.242 5.085C2.14 5.463 2.112 5.857 2.083 6.248C2.018 7.116 1.998 7.984 1.993 8.857C1.989 10.228 1.993 11.598 1.993 12.969C1.993 13.335 1.977 13.352 1.614 13.352C1.182 13.352 0.754 13.352 0.323 13.352C0.05 13.352 0 13.298 0 13.023C0.009 11.839 0.009 10.655 0.009 9.472Z" fill="rgb(0,0,0)" fill-opacity="1.000" fill-rule="nonzero" transform="matrix(1 0 0 1 109.2287 25.6108)"/></svg>