<svg xmlns="http://www.w3.org/2000/svg" viewBox="0 0 60 60" width="60" height="60"><path d="M0 0L60 0L60 60L0 60L0 0Z" fill="rgb(6,99,249)" fill-opacity="1.000" fill-rule="nonzero" transform="matrix(1 0 0 1 0 0)"/><path d="M11.996 0C5.176 0 0 4.971 0 11.658C0 18.346 4.967 23.181 11.999 23.181C18.984 23.181 24.128 18.225 24.128 11.573C24.128 4.921 19.108 0 11.996 0ZM12.031 16.585C9.121 16.594 7.062 14.489 7.062 11.623C7.062 8.757 9.21 6.596 12.04 6.596C14.983 6.596 17.072 8.701 17.072 11.594C17.072 14.486 14.933 16.594 12.031 16.594L12.031 16.585Z" fill="rgb(255,255,255)" fill-opacity="1.000" fill-rule="nonzero" transform="matrix(1 0 0 1 11.2385 22.2372)"/><path d="M0 0L6.979 0L6.979 30.407L0 30.407L0 0Z" fill="rgb(255,255,255)" fill-opacity="1.000" fill-rule="nonzero" transform="matrix(1 0 0 1 11 15)"/><path d="M4.979 0C7.921 0 10.01 2.108 10.01 4.997C10.01 7.887 7.88 9.995 4.979 9.995C2.077 9.995 0 7.89 0 5.021C0 2.152 2.148 0 4.979 0ZM4.979 0C7.921 0 10.01 2.108 10.01 4.997C10.01 7.887 7.88 9.995 4.979 9.995C2.077 9.995 0 7.89 0 5.021C0 2.152 2.148 0 4.979 0Z" fill="rgb(249,200,6)" fill-opacity="1.000" fill-rule="nonzero" transform="matrix(1 0 0 1 38.286 35.9297)"/></svg>