<svg xmlns="http://www.w3.org/2000/svg" viewBox="0 0 130 60" width="130" height="60"><path d="M0 0L130 0L130 60L0 60L0 0Z" fill="rgb(255,255,255)" fill-opacity="1.000" fill-rule="nonzero" transform="matrix(1 0 0 1 0 0)"/><path d="M74.021 0.4C68.772 0.4 64.789 4.219 64.789 9.366C64.789 14.479 68.611 18.235 74.021 18.235C79.431 18.235 83.351 14.416 83.351 9.301C83.351 4.185 79.497 0.4 74.021 0.4ZM74.051 13.165C71.806 13.165 70.221 11.545 70.221 9.339C70.221 7.133 71.874 5.47 74.051 5.47C76.315 5.47 77.923 7.09 77.923 9.316C77.923 11.543 76.281 13.165 74.051 13.165ZM9.233 0C3.983 0 0 3.826 0 8.973C0 14.119 3.823 17.841 9.235 17.841C14.611 17.841 18.569 14.027 18.569 8.907C18.569 3.787 14.706 0 9.233 0ZM9.26 12.764C7.02 12.771 5.435 11.151 5.435 8.945C5.435 6.74 7.088 5.077 9.267 5.077C11.531 5.077 13.139 6.697 13.139 8.923C13.139 11.149 11.493 12.771 9.26 12.771L9.26 12.764Z" fill="rgb(0,0,0)" fill-opacity="1.000" fill-rule="nonzero" transform="matrix(1 0 0 1 18.1834 23.6767)"/><path d="M10.451 0L4.826 0L0 16.993L4.717 16.993L10.451 0Z" fill="rgb(249,14,6)" fill-opacity="1.000" fill-rule="nonzero" transform="matrix(1 0 0 1 71.9913 24.4979)"/><path d="M5.392 10.016C5.519 11.491 6.934 12.748 8.884 12.748C9.558 12.749 10.222 12.59 10.823 12.284C11.423 11.978 11.942 11.534 12.337 10.988L15.797 13.66C15.326 14.633 13.062 17.305 8.777 17.305C3.342 17.305 0 13.565 0 8.694C0 3.823 3.279 0 8.13 0C13.383 0 16.246 3.362 16.246 8.986C16.246 9.301 16.246 9.647 16.214 10.025L5.392 10.016ZM5.55 6.683L10.897 6.683C10.834 5.364 9.86 4.233 8.225 4.233C6.495 4.233 5.675 5.52 5.544 6.683L5.55 6.683Z" fill="rgb(0,0,0)" fill-opacity="1.000" fill-rule="nonzero" transform="matrix(1 0 0 1 38.6821 24.3554)"/><path d="M0 0L5.41 0L5.41 23.402L0 23.402L0 0Z" fill="rgb(6,99,249)" fill-opacity="1.000" fill-rule="nonzero" transform="matrix(1 0 0 1 57.2444 18.0886)"/><path d="M53.991 23.384L52.422 23.384L46.591 6.391L52.39 6.391L55.597 17.653M0 0L5.372 0L5.372 23.402L0 23.402L0 0Z" fill="rgb(0,0,0)" fill-opacity="1.000" fill-rule="nonzero" transform="matrix(1 0 0 1 18 18.1067)"/><path d="M3.832 0C6.096 0 7.704 1.622 7.704 3.846C7.704 6.07 6.064 7.692 3.832 7.692C1.599 7.692 0 6.072 0 3.864C0 1.656 1.653 0 3.832 0ZM3.832 0C6.096 0 7.704 1.622 7.704 3.846C7.704 6.07 6.064 7.692 3.832 7.692C1.599 7.692 0 6.072 0 3.864C0 1.656 1.653 0 3.832 0Z" fill="rgb(249,200,6)" fill-opacity="1.000" fill-rule="nonzero" transform="matrix(1 0 0 1 103.2963 34.2148)"/></svg>