<svg xmlns="http://www.w3.org/2000/svg" viewBox="0 0 60 60" width="60" height="60"><path d="M0 0L60 0L60 60L0 60L0 0Z" fill="rgb(0,0,0)" fill-opacity="1.000" fill-rule="nonzero" transform="matrix(1 0 0 1 0 0)"/><path d="M0 0L29.067 0L37.333 4.831L43.467 5.368L43.467 17.983L2.133 19.593L0 0Z" fill="rgb(0,0,0)" fill-opacity="1.000" fill-rule="evenodd" transform="matrix(1 0 0 1 8.1337 27.4721)"/><path d="M40.624 37.574C40.623 37.784 40.61 37.995 40.585 38.204C40.544 38.546 40.332 38.769 39.989 38.79C39.606 38.813 39.218 38.822 38.837 38.789C38.479 38.759 38.282 38.583 38.223 38.169C38.196 37.981 38.196 37.788 38.197 37.597L38.197 37.517C38.196 36.803 38.196 36.088 38.196 35.374L38.196 35.365C38.197 34.035 38.197 32.705 38.192 31.375C38.191 31.057 38.169 30.735 38.116 30.422C38.014 29.817 37.709 29.302 36.891 29.081C36.07 28.86 35.24 28.867 34.41 29.012C34.125 29.062 33.848 29.152 33.601 29.317C33.245 29.554 33.041 29.883 32.936 30.298C32.841 30.672 32.84 31.049 32.839 31.426L32.839 31.531C32.834 32.653 32.835 33.776 32.835 34.899C32.836 35.736 32.836 36.574 32.834 37.411C32.834 37.686 32.81 37.961 32.781 38.235C32.742 38.601 32.493 38.767 32.206 38.788C31.824 38.816 31.435 38.829 31.054 38.79C30.603 38.744 30.491 38.532 30.418 38.14C30.404 38.067 30.404 37.99 30.404 37.915L30.405 37.879L30.405 36.455C30.404 34.621 30.404 32.787 30.408 30.953C30.41 30.294 30.538 29.656 30.794 29.047C31.16 28.177 31.793 27.564 32.647 27.177C33.227 26.914 33.839 26.778 34.471 26.709C35.022 26.65 35.571 26.625 36.123 26.663C36.848 26.714 37.564 26.813 38.247 27.083C39.255 27.481 39.956 28.175 40.321 29.204C40.524 29.778 40.609 30.371 40.615 30.975C40.622 31.716 40.621 32.457 40.619 33.197L40.619 33.2C40.619 33.511 40.618 33.822 40.618 34.133L40.625 34.133C40.625 34.431 40.626 34.729 40.626 35.027L40.626 35.036C40.626 35.882 40.626 36.728 40.624 37.574ZM12.97 32.726C12.97 32.559 12.972 32.392 12.973 32.225C12.977 31.833 12.98 31.44 12.965 31.049C12.95 30.664 12.845 30.29 12.655 29.949C12.34 29.38 11.81 29.12 11.206 29.014C10.334 28.861 9.457 28.855 8.593 29.09C8.261 29.18 7.96 29.337 7.714 29.588C7.389 29.919 7.235 30.332 7.179 30.777C7.127 31.179 7.109 31.587 7.1 31.992C7.087 32.536 7.086 33.082 7.1 33.626C7.109 34.002 7.134 34.381 7.187 34.753C7.237 35.099 7.362 35.427 7.582 35.708C7.909 36.124 8.361 36.319 8.862 36.425C9.371 36.532 9.886 36.534 10.402 36.524C10.811 36.516 11.214 36.462 11.603 36.34C12.108 36.182 12.505 35.892 12.728 35.39C12.875 35.06 12.96 34.716 12.97 34.36C12.981 33.978 12.979 33.595 12.977 33.213L12.977 33.212L12.977 33.207C12.976 33.047 12.975 32.886 12.975 32.726L12.97 32.726ZM23.542 28.963C23.905 29.01 24.254 29.098 24.577 29.27C25.073 29.535 25.367 29.95 25.509 30.492C25.591 30.807 25.593 31.123 25.594 31.446C25.595 31.496 25.595 31.546 25.595 31.596C25.377 31.655 20.502 31.66 20.276 31.609C20.273 31.603 20.27 31.596 20.267 31.589C20.258 31.573 20.249 31.555 20.249 31.536C20.228 31.084 20.251 30.637 20.421 30.21C20.615 29.719 20.962 29.373 21.447 29.177C22.123 28.903 22.826 28.87 23.542 28.963ZM27.959 32.638C27.948 32.802 27.908 32.97 27.85 33.124C27.73 33.445 27.466 33.586 27.141 33.617C26.968 33.634 26.793 33.63 26.619 33.63C24.6 33.631 22.581 33.631 20.562 33.631L20.304 33.631C20.281 33.665 20.274 33.671 20.273 33.677C20.209 34.24 20.238 34.794 20.48 35.316C20.697 35.782 21.079 36.069 21.552 36.243C22.055 36.428 22.578 36.499 23.11 36.522C24.028 36.561 24.938 36.478 25.841 36.325C26.184 36.267 26.524 36.189 26.865 36.12C26.893 36.114 26.921 36.105 26.95 36.101C27.274 36.048 27.491 36.157 27.56 36.473C27.656 36.915 27.642 37.369 27.566 37.814C27.517 38.101 27.292 38.258 27.029 38.331C26.618 38.446 26.201 38.544 25.783 38.632C24.759 38.848 23.72 38.84 22.682 38.792C21.918 38.757 21.168 38.623 20.45 38.348C19.567 38.009 18.859 37.457 18.407 36.611C18.191 36.207 18.052 35.774 17.961 35.323C17.812 34.584 17.808 33.838 17.809 33.09C17.811 32.292 17.781 31.492 17.881 30.697C18.004 29.713 18.312 28.803 18.996 28.056C19.462 27.547 20.038 27.203 20.692 26.994C21.715 26.666 22.763 26.583 23.831 26.691C24.397 26.749 24.947 26.86 25.476 27.072C26.469 27.47 27.177 28.159 27.592 29.145C27.846 29.746 27.954 30.379 28.001 31.028C28.039 31.568 27.995 32.102 27.959 32.638ZM15.435 33.834C15.436 34.403 15.38 34.966 15.245 35.517C14.889 36.962 14.029 37.961 12.602 38.449C11.746 38.742 10.863 38.824 9.965 38.815C9.514 38.81 9.065 38.789 8.621 38.708C7.578 38.518 6.631 38.134 5.887 37.345C5.462 36.893 5.176 36.361 4.98 35.775C4.757 35.105 4.696 34.415 4.696 33.715C4.698 32.03 4.697 30.345 4.697 28.661L4.698 28.661C4.698 26.882 4.698 25.102 4.699 23.323C4.699 23.157 4.704 22.99 4.713 22.823C4.734 22.457 4.978 22.195 5.305 22.153C5.705 22.102 6.1 22.093 6.497 22.158C6.869 22.219 7.026 22.439 7.075 22.794C7.096 22.944 7.093 23.098 7.094 23.251C7.094 24.434 7.093 25.618 7.093 26.801C7.093 26.845 7.09 26.889 7.094 26.932C7.107 27.056 7.146 27.08 7.266 27.045C8.477 26.685 9.709 26.567 10.966 26.705C11.896 26.806 12.769 27.06 13.547 27.599C14.133 28.005 14.574 28.534 14.888 29.17C15.285 29.974 15.425 30.835 15.433 31.721C15.44 32.425 15.433 33.13 15.435 33.834ZM47.945 31.601C47.857 30.533 47.664 29.486 47.344 28.466C46.287 25.099 44.321 22.395 41.405 20.398C39.7 19.23 37.825 18.464 35.799 18.054C35.002 17.893 34.193 17.845 33.391 17.73C31.953 17.524 30.69 16.455 30.338 15.041C30.237 14.637 30.206 14.212 30.169 13.794C30.095 12.953 29.956 12.125 29.743 11.309C28.511 6.578 25.158 2.812 20.583 1.02C18.882 0.355 17.114 0.023 15.29 0.001C13.881 -0.016 12.497 0.165 11.136 0.536C9.395 1.01 7.792 1.774 6.324 2.82C5.284 3.56 4.353 4.418 3.536 5.402C2.791 6.3 2.149 7.264 1.624 8.304C0.881 9.774 0.39 11.325 0.162 12.955C0.073 13.593 -0.001 14.232 0 14.88C0.007 19.906 0.004 24.931 0.004 29.957C0.004 35.098 0.008 40.24 0 45.382C-0.002 46.396 0.555 47.402 1.725 47.826C2.092 47.959 2.472 48 2.859 48C4.958 47.998 7.057 47.999 9.156 47.999C17.108 47.999 25.06 47.998 33.012 47.999C33.879 48 34.738 47.911 35.588 47.756C37.753 47.36 39.743 46.533 41.549 45.272C42.96 44.286 44.17 43.094 45.172 41.694C45.787 40.835 46.296 39.918 46.726 38.953C47.17 37.953 47.495 36.917 47.709 35.847C47.991 34.445 48.064 33.028 47.945 31.601Z" fill="rgb(255,255,255)" fill-opacity="1.000" fill-rule="evenodd" transform="matrix(1 0 0 1 6 6)"/></svg>