<svg xmlns="http://www.w3.org/2000/svg" viewBox="0 0 130 60" width="130" height="60"><path d="M0 0L130 0L130 60L0 60L0 0Z" fill="rgb(255,255,255)" fill-opacity="1.000" fill-rule="nonzero" transform="matrix(1 0 0 1 0 0)"/><path d="M4.23 13C3.536 13 2.839 12.979 2.153 12.933C1.429 12.884 0.709 12.784 0 12.634L0 0.329C0.582 0.216 1.231 0.141 1.928 0.084C2.622 0.026 3.271 0 3.873 0C4.683 0 5.423 0.058 6.101 0.179C6.778 0.291 7.36 0.49 7.85 0.769C8.34 1.052 8.723 1.418 8.997 1.879C9.271 2.34 9.412 2.905 9.412 3.571C9.412 4.585 8.922 5.383 7.945 5.968C8.755 6.268 9.299 6.691 9.591 7.21C9.882 7.738 10.031 8.328 10.031 8.985C10.031 10.32 9.542 11.317 8.573 11.985C7.588 12.671 6.15 13 4.23 13ZM2.784 5.132L4.176 5.132C5.06 5.132 5.68 5.02 6.066 4.795C6.441 4.57 6.631 4.204 6.631 3.706C6.631 3.19 6.435 2.833 6.049 2.625C5.654 2.418 5.081 2.314 4.328 2.314C4.083 2.314 3.821 2.314 3.539 2.323C3.256 2.331 3.011 2.343 2.787 2.369C2.784 2.369 2.784 5.132 2.784 5.132ZM2.784 7.314L2.784 10.593C2.991 10.622 3.216 10.639 3.461 10.651C3.706 10.663 3.977 10.671 4.271 10.671C5.127 10.671 5.813 10.55 6.34 10.305C6.867 10.06 7.129 9.611 7.129 8.951C7.129 8.369 6.913 7.945 6.472 7.7C6.032 7.446 5.4 7.325 4.582 7.325L2.787 7.325L2.787 7.314L2.784 7.314Z" fill="rgb(77,77,77)" fill-opacity="1.000" fill-rule="nonzero" transform="matrix(1 0 0 1 28.6452 24.3719)"/><path d="M3.274 1.617C3.274 2.115 3.115 2.51 2.784 2.801C2.464 3.092 2.078 3.234 1.637 3.234C1.213 3.239 0.804 3.087 0.49 2.801C0.17 2.51 0 2.124 0 1.617C0 1.118 0.158 0.723 0.49 0.432C0.804 0.15 1.213 -0.006 1.637 0C2.06 -0.006 2.47 0.147 2.784 0.432C3.112 0.723 3.274 1.118 3.274 1.617ZM3.011 14.034L0.285 14.034L0.285 4.398L3.011 4.398L3.011 14.034Z" fill="rgb(77,77,77)" fill-opacity="1.000" fill-rule="nonzero" transform="matrix(1 0 0 1 39.472 23.1787)"/><path d="M0.012 0.441L2.738 0L2.738 2.839L6.017 2.839L6.017 5.112L2.738 5.112L2.738 8.495C2.738 9.069 2.842 9.53 3.037 9.867C3.233 10.204 3.648 10.383 4.259 10.383C4.562 10.38 4.865 10.354 5.161 10.299C5.452 10.248 5.738 10.173 6.017 10.075L6.403 12.199C6.046 12.343 5.677 12.461 5.303 12.547C4.899 12.642 4.409 12.697 3.818 12.697C3.075 12.697 2.455 12.593 1.965 12.397C1.476 12.201 1.081 11.919 0.79 11.55C0.499 11.193 0.291 10.752 0.179 10.245C0.058 9.686 -0.003 9.115 0 8.544L0 0.441L0.012 0.441Z" fill="rgb(77,77,77)" fill-opacity="1.000" fill-rule="nonzero" transform="matrix(1 0 0 1 43.9386 24.7379)"/><path d="M0 5.066C-0.006 4.398 0.11 3.732 0.337 3.101C0.551 2.504 0.882 1.957 1.314 1.493C1.738 1.032 2.262 0.674 2.873 0.403C3.484 0.13 4.179 0 4.96 0C5.476 0 5.945 0.046 6.369 0.141C6.795 0.233 7.21 0.366 7.611 0.536L7.046 2.718C6.769 2.617 6.487 2.53 6.199 2.464C5.862 2.386 5.519 2.349 5.173 2.352C4.363 2.352 3.764 2.605 3.369 3.104C2.974 3.602 2.778 4.259 2.778 5.078C2.778 5.942 2.966 6.619 3.332 7.089C3.706 7.568 4.357 7.804 5.277 7.804C5.634 7.804 5.989 7.772 6.34 7.709C6.697 7.654 7.049 7.556 7.383 7.418L7.769 9.654C7.383 9.81 6.986 9.925 6.576 10.003C6.055 10.103 5.527 10.155 4.997 10.152C4.112 10.152 3.36 10.02 2.723 9.758C2.084 9.495 1.568 9.138 1.153 8.686C0.738 8.233 0.447 7.7 0.26 7.086C0.09 6.426 0.003 5.749 0 5.066Z" fill="rgb(77,77,77)" fill-opacity="1.000" fill-rule="nonzero" transform="matrix(1 0 0 1 50.3418 27.3314)"/><path d="M9.467 5.049C9.467 5.81 9.354 6.496 9.138 7.127C8.922 7.758 8.602 8.291 8.19 8.735C7.769 9.181 7.259 9.533 6.694 9.769C6.109 10.014 5.464 10.135 4.749 10.135C4.043 10.135 3.395 10.014 2.813 9.769C2.245 9.536 1.738 9.181 1.317 8.735C0.902 8.294 0.573 7.749 0.349 7.127C0.112 6.496 0 5.801 0 5.049C0 4.288 0.121 3.602 0.357 2.98C0.594 2.36 0.922 1.824 1.343 1.392C1.769 0.951 2.279 0.599 2.847 0.366C3.429 0.121 4.06 0 4.746 0C5.441 0 6.081 0.121 6.663 0.366C7.245 0.611 7.743 0.948 8.158 1.392C8.585 1.85 8.916 2.389 9.127 2.98C9.346 3.602 9.467 4.288 9.467 5.049ZM6.686 5.049C6.686 4.202 6.516 3.545 6.179 3.066C5.841 2.588 5.36 2.343 4.741 2.343C4.121 2.343 3.631 2.588 3.294 3.066C2.957 3.545 2.778 4.213 2.778 5.049C2.778 5.896 2.948 6.562 3.294 7.052C3.631 7.55 4.121 7.795 4.741 7.795C5.36 7.795 5.841 7.55 6.179 7.052C6.516 6.553 6.686 5.885 6.686 5.049Z" fill="rgb(77,77,77)" fill-opacity="1.000" fill-rule="nonzero" transform="matrix(1 0 0 1 58.0392 27.3314)"/><path d="M3.274 1.617C3.274 2.115 3.115 2.51 2.784 2.801C2.464 3.092 2.078 3.234 1.637 3.234C1.213 3.239 0.804 3.087 0.49 2.801C0.17 2.51 0 2.124 0 1.617C0 1.118 0.158 0.723 0.49 0.432C0.804 0.15 1.213 -0.006 1.637 0C2.06 -0.006 2.47 0.147 2.784 0.432C3.112 0.723 3.274 1.118 3.274 1.617ZM3.02 14.034L0.294 14.034L0.294 4.398L3.02 4.398L3.02 14.034Z" fill="rgb(77,77,77)" fill-opacity="1.000" fill-rule="nonzero" transform="matrix(1 0 0 1 68.3126 23.1787)"/><path d="M0 0.553C0.461 0.421 1.063 0.291 1.795 0.179C2.556 0.061 3.326 0 4.098 0C4.916 0 5.594 0.104 6.138 0.32C6.683 0.536 7.115 0.836 7.426 1.222C7.746 1.617 7.971 2.078 8.104 2.614C8.236 3.15 8.299 3.752 8.299 4.409L8.299 9.853L5.573 9.853L5.573 4.738C5.573 3.853 5.461 3.233 5.225 2.867C4.988 2.501 4.556 2.323 3.928 2.323C3.732 2.323 3.524 2.331 3.308 2.352C3.092 2.372 2.893 2.389 2.726 2.418L2.726 9.853L0 9.853L0 0.553Z" fill="rgb(77,77,77)" fill-opacity="1.000" fill-rule="nonzero" transform="matrix(1 0 0 1 72.8833 27.3517)"/><path d="M6.334 13.233C4.265 13.233 2.697 12.66 1.617 11.513C0.536 10.366 0 8.74 0 6.625C0 5.573 0.17 4.643 0.499 3.815C0.827 2.988 1.28 2.294 1.853 1.729C2.435 1.158 3.135 0.718 3.902 0.441C4.692 0.15 5.556 0 6.487 0C7.023 0 7.513 0.037 7.954 0.121C8.346 0.184 8.732 0.277 9.109 0.395C9.392 0.481 9.668 0.588 9.936 0.715C10.152 0.827 10.311 0.911 10.415 0.968L9.588 3.271C9.152 3.046 8.697 2.87 8.225 2.743C7.709 2.594 7.115 2.527 6.458 2.527C6.02 2.527 5.585 2.602 5.17 2.743C4.749 2.893 4.369 3.135 4.052 3.449C3.732 3.769 3.47 4.193 3.271 4.7C3.075 5.216 2.98 5.838 2.98 6.57C2.977 7.121 3.04 7.671 3.167 8.207C3.3 8.714 3.504 9.147 3.787 9.513C4.086 9.89 4.473 10.19 4.913 10.386C5.374 10.602 5.939 10.706 6.596 10.706C6.971 10.706 7.343 10.683 7.714 10.631C8.014 10.59 8.308 10.533 8.599 10.452C8.83 10.395 9.057 10.32 9.276 10.227C9.472 10.144 9.651 10.057 9.804 9.991L10.593 12.285C10.19 12.53 9.625 12.746 8.893 12.942C8.147 13.138 7.294 13.233 6.334 13.233Z" fill="rgb(10,193,142)" fill-opacity="1.000" fill-rule="nonzero" transform="matrix(1 0 0 1 82.3037 24.2335)"/><path d="M4.107 0C4.916 0 5.582 0.095 6.118 0.274C6.654 0.452 7.086 0.715 7.406 1.063C7.735 1.415 7.968 1.841 8.092 2.305C8.225 2.795 8.288 3.34 8.288 3.931L8.288 9.608C7.893 9.691 7.357 9.795 6.663 9.908C5.968 10.02 5.121 10.086 4.135 10.086C3.516 10.086 2.951 10.029 2.444 9.916C1.937 9.804 1.504 9.625 1.138 9.38C0.775 9.132 0.484 8.798 0.291 8.403C0.095 8 0 7.51 0 6.919C0 6.354 0.112 5.885 0.337 5.49C0.55 5.106 0.862 4.787 1.239 4.559C1.614 4.323 2.049 4.156 2.536 4.052C3.037 3.945 3.547 3.893 4.058 3.893C4.415 3.893 4.726 3.913 4.997 3.939C5.271 3.968 5.496 4.006 5.666 4.06L5.666 3.807C5.666 3.346 5.524 2.971 5.242 2.689C4.96 2.406 4.473 2.265 3.775 2.265C3.317 2.265 2.859 2.3 2.403 2.369C1.951 2.435 1.556 2.527 1.228 2.651L0.879 0.452C1.037 0.406 1.236 0.349 1.47 0.294C1.706 0.236 1.968 0.19 2.251 0.144C2.533 0.098 2.824 0.069 3.135 0.032C3.467 0.02 3.787 0 4.107 0ZM4.323 7.98C4.596 7.98 4.85 7.971 5.092 7.959C5.288 7.957 5.481 7.936 5.674 7.902L5.674 5.833C5.562 5.804 5.4 5.787 5.176 5.758C4.977 5.732 4.775 5.72 4.573 5.72C4.331 5.723 4.089 5.738 3.85 5.766C3.625 5.795 3.426 5.85 3.259 5.945C3.095 6.023 2.957 6.144 2.856 6.294C2.755 6.458 2.703 6.645 2.706 6.838C2.706 7.262 2.847 7.562 3.138 7.723C3.429 7.905 3.824 7.98 4.323 7.98Z" fill="rgb(10,193,142)" fill-opacity="1.000" fill-rule="nonzero" transform="matrix(1 0 0 1 93.0671 27.3228)"/><path d="M3.32 7.934C3.818 7.934 4.176 7.887 4.383 7.784C4.591 7.689 4.694 7.493 4.694 7.219C4.694 7.003 4.562 6.804 4.291 6.645C4.017 6.475 3.614 6.297 3.06 6.092C2.637 5.934 2.242 5.772 1.896 5.594C1.548 5.423 1.248 5.219 1.012 4.983C0.764 4.741 0.573 4.449 0.447 4.127C0.314 3.798 0.251 3.403 0.251 2.934C0.251 2.032 0.588 1.317 1.256 0.79C1.925 0.262 2.844 0 4.02 0C4.585 0 5.147 0.055 5.703 0.158C6.239 0.262 6.671 0.375 6.983 0.496L6.504 2.62C6.164 2.501 5.821 2.403 5.47 2.328C5.057 2.239 4.64 2.193 4.219 2.196C3.363 2.196 2.939 2.432 2.939 2.911C2.937 3.011 2.957 3.109 2.997 3.202C3.046 3.3 3.121 3.386 3.213 3.447C3.357 3.545 3.507 3.628 3.666 3.7C3.899 3.815 4.141 3.913 4.389 4C4.991 4.225 5.478 4.441 5.873 4.657C6.268 4.873 6.568 5.109 6.795 5.351C7.011 5.591 7.176 5.87 7.274 6.179C7.369 6.478 7.415 6.836 7.415 7.242C7.415 8.19 7.057 8.916 6.343 9.395C5.628 9.884 4.622 10.127 3.317 10.127C2.461 10.127 1.746 10.052 1.184 9.91C0.62 9.761 0.225 9.637 0 9.544L0.461 7.325C0.925 7.507 1.403 7.651 1.89 7.758C2.36 7.876 2.839 7.934 3.32 7.934Z" fill="rgb(10,193,142)" fill-opacity="1.000" fill-rule="nonzero" transform="matrix(1 0 0 1 102.2744 27.3228)"/><path d="M0 14.213L0 0.441L2.726 0L2.726 4.617C2.957 4.545 3.193 4.484 3.432 4.438C3.706 4.383 3.988 4.354 4.268 4.354C5.049 4.354 5.697 4.458 6.213 4.674C6.729 4.89 7.144 5.19 7.455 5.576C7.766 5.971 7.983 6.432 8.112 6.968C8.245 7.504 8.299 8.106 8.299 8.763L8.299 14.207L5.573 14.207L5.573 9.089C5.573 8.204 5.461 7.585 5.236 7.219C5.011 6.853 4.588 6.674 3.985 6.674C3.755 6.671 3.524 6.694 3.3 6.74C3.083 6.787 2.896 6.824 2.726 6.882L2.726 14.204L0 14.204L0 14.213Z" fill="rgb(10,193,142)" fill-opacity="1.000" fill-rule="nonzero" transform="matrix(1 0 0 1 110.7007 23.0002)"/><path d="M7.181 14.363C11.148 14.363 14.363 11.148 14.363 7.181C14.363 3.215 11.148 0 7.181 0C3.215 0 0 3.215 0 7.181C0 11.148 3.215 14.363 7.181 14.363Z" fill="rgb(10,193,142)" fill-opacity="1.000" fill-rule="nonzero" transform="matrix(1 0 0 1 12.0001 23.1729)"/><path d="M5.905 2.084C5.545 1.265 4.717 1.095 3.703 1.262L3.377 0L2.608 0.199L2.928 1.458C2.726 1.51 2.519 1.553 2.314 1.611L1.991 0.36L1.222 0.559L1.548 1.821C1.383 1.867 0 2.225 0 2.225L0.213 3.046C0.213 3.046 0.778 2.888 0.772 2.902C1.084 2.821 1.231 2.977 1.303 3.124L2.196 6.582C2.207 6.683 2.19 6.856 1.974 6.91C1.986 6.916 1.415 7.055 1.415 7.055L1.499 8.011C1.499 8.011 2.867 7.66 3.049 7.617L3.38 8.893L4.147 8.694L3.818 7.409C4.032 7.36 4.233 7.308 4.435 7.256L4.764 8.536L5.533 8.337L5.204 7.063C6.386 6.775 7.222 6.032 7.049 4.89C6.939 4.204 6.19 3.64 5.565 3.576C5.945 3.23 6.141 2.732 5.905 2.084ZM5.533 5.092C5.686 6.222 4.118 6.36 3.596 6.496L3.144 4.807C3.668 4.668 5.277 4.095 5.533 5.092ZM4.588 2.792C4.749 3.795 3.409 3.913 2.974 4.026L2.565 2.493C3 2.38 4.259 1.865 4.588 2.792Z" fill="rgb(255,255,255)" fill-opacity="1.000" fill-rule="nonzero" transform="matrix(1 0 0 1 15.5187 25.8674)"/></svg>