<svg xmlns="http://www.w3.org/2000/svg" viewBox="0 0 130 60" width="130" height="60"><path d="M0 0L130 0L130 60L0 60L0 0Z" fill="rgb(255,255,255)" fill-opacity="1.000" fill-rule="nonzero" transform="matrix(1 0 0 1 0 0)"/><path d="M21.492 13.55C20.034 19.394 14.115 22.951 8.269 21.494C2.426 20.037 -1.131 14.117 0.327 8.272C1.783 2.427 7.703 -1.131 13.547 0.326C19.392 1.784 22.949 7.704 21.492 13.55Z" fill="rgb(247,147,26)" fill-opacity="1.000" fill-rule="nonzero" transform="matrix(1 0 0 1 13.0702 19.1794)"/><path d="M10.41 5.554C10.628 4.103 9.522 3.322 8.011 2.802L8.501 0.835L7.304 0.537L6.827 2.451C6.512 2.373 6.189 2.299 5.868 2.226L6.348 0.298L5.152 0L4.661 1.966C4.401 1.907 4.145 1.848 3.897 1.786L3.898 1.78L2.247 1.368L1.929 2.646C1.929 2.646 2.817 2.85 2.798 2.863C3.283 2.984 3.371 3.304 3.356 3.559L2.798 5.799C2.831 5.808 2.874 5.82 2.922 5.839C2.882 5.829 2.84 5.818 2.796 5.808L2.013 8.946C1.954 9.093 1.803 9.314 1.464 9.23C1.476 9.248 0.594 9.013 0.594 9.013L0 10.383L1.558 10.772C1.848 10.844 2.132 10.92 2.411 10.992L1.916 12.981L3.111 13.279L3.602 11.311C3.929 11.4 4.246 11.482 4.556 11.559L4.067 13.518L5.264 13.816L5.76 11.831C7.801 12.217 9.336 12.061 9.982 10.215C10.502 8.728 9.956 7.871 8.882 7.312C9.664 7.132 10.253 6.617 10.41 5.554ZM7.675 9.39C7.305 10.876 4.803 10.072 3.991 9.871L4.648 7.236C5.46 7.438 8.062 7.839 7.675 9.39ZM8.046 5.533C7.708 6.885 5.625 6.198 4.949 6.03L5.545 3.64C6.221 3.808 8.397 4.122 8.046 5.533Z" fill="rgb(255,255,255)" fill-opacity="1.000" fill-rule="nonzero" transform="matrix(1 0 0 1 18.377 22.9809)"/><path d="M9.636 6.598C10.52 6.598 11.285 6.756 11.927 7.068C12.573 7.382 13.105 7.806 13.532 8.338C13.954 8.873 14.267 9.499 14.47 10.216C14.671 10.935 14.772 11.708 14.772 12.535C14.772 13.806 14.539 15.007 14.069 16.139C13.599 17.273 12.961 18.256 12.15 19.095C11.339 19.933 10.381 20.593 9.277 21.081C8.175 21.569 6.977 21.813 5.69 21.813C5.524 21.813 5.231 21.808 4.818 21.8C4.405 21.791 3.93 21.749 3.398 21.677C2.863 21.602 2.297 21.492 1.699 21.344C1.102 21.198 0.534 20.995 0 20.737L4.777 0.663L9.056 0L7.346 7.123C7.712 6.958 8.081 6.83 8.449 6.737C8.817 6.646 9.213 6.598 9.636 6.598ZM6.047 18.419C6.691 18.419 7.298 18.26 7.869 17.949C8.441 17.637 8.934 17.217 9.348 16.693C9.762 16.166 10.089 15.573 10.328 14.911C10.566 14.248 10.687 13.557 10.687 12.838C10.687 11.955 10.539 11.266 10.245 10.768C9.951 10.272 9.406 10.022 8.616 10.022C8.357 10.022 8.023 10.071 7.609 10.16C7.194 10.254 6.822 10.448 6.489 10.741L4.668 18.306C4.777 18.325 4.874 18.344 4.957 18.361C5.038 18.38 5.128 18.393 5.217 18.402C5.312 18.413 5.42 18.418 5.551 18.418C5.681 18.418 5.844 18.419 6.047 18.419Z" fill="rgb(77,77,77)" fill-opacity="1.000" fill-rule="nonzero" transform="matrix(1 0 0 1 35.4047 19.1839)"/><path d="M4.087 21.151L0 21.151L3.451 6.628L7.566 6.628L4.087 21.151ZM6.076 4.858C5.505 4.858 4.988 4.689 4.529 4.348C4.066 4.01 3.837 3.49 3.837 2.788C3.837 2.402 3.916 2.04 4.071 1.698C4.229 1.357 4.435 1.064 4.694 0.814C4.952 0.567 5.251 0.369 5.59 0.22C5.932 0.073 6.296 0 6.683 0C7.253 0 7.767 0.17 8.228 0.51C8.687 0.852 8.918 1.373 8.918 2.071C8.918 2.458 8.84 2.821 8.683 3.162C8.527 3.503 8.321 3.797 8.062 4.046C7.806 4.294 7.504 4.491 7.166 4.639C6.824 4.788 6.462 4.858 6.076 4.858Z" fill="rgb(77,77,77)" fill-opacity="1.000" fill-rule="nonzero" transform="matrix(1 0 0 1 50.5286 19.4601)"/><path d="M3.1 0.663L7.38 0L6.329 4.281L10.913 4.281L10.086 7.649L5.529 7.649L4.315 12.729C4.203 13.152 4.14 13.548 4.122 13.915C4.102 14.284 4.149 14.602 4.259 14.869C4.369 15.136 4.566 15.342 4.853 15.488C5.138 15.637 5.546 15.711 6.081 15.711C6.522 15.711 6.952 15.669 7.367 15.586C7.78 15.504 8.198 15.391 8.622 15.242L8.926 18.39C8.374 18.593 7.776 18.767 7.132 18.914C6.486 19.062 5.722 19.134 4.839 19.134C3.57 19.134 2.585 18.946 1.884 18.57C1.184 18.192 0.689 17.676 0.392 17.022C0.1 16.37 -0.03 15.619 0.006 14.773C0.044 13.924 0.172 13.033 0.392 12.094L3.1 0.663Z" fill="rgb(77,77,77)" fill-opacity="1.000" fill-rule="nonzero" transform="matrix(1 0 0 1 58.5763 21.8073)"/><path d="M0 9.114C0 7.863 0.203 6.683 0.607 5.579C1.011 4.474 1.593 3.507 2.348 2.677C3.101 1.852 4.018 1.198 5.097 0.718C6.171 0.241 7.373 0 8.698 0C9.528 0 10.269 0.078 10.921 0.236C11.575 0.394 12.168 0.599 12.703 0.856L11.294 4.061C10.926 3.912 10.543 3.78 10.148 3.661C9.753 3.539 9.27 3.48 8.699 3.48C7.335 3.48 6.256 3.951 5.454 4.888C4.654 5.826 4.252 7.088 4.252 8.672C4.252 9.611 4.454 10.369 4.86 10.95C5.265 11.531 6.012 11.819 7.096 11.819C7.632 11.819 8.148 11.764 8.643 11.654C9.141 11.544 9.582 11.405 9.969 11.241L10.274 14.526C9.757 14.726 9.187 14.907 8.562 15.066C7.935 15.219 7.189 15.298 6.325 15.298C5.183 15.298 4.216 15.131 3.425 14.802C2.634 14.468 1.981 14.025 1.466 13.463C0.949 12.9 0.577 12.242 0.347 11.487C0.117 10.733 0 9.941 0 9.114Z" fill="rgb(77,77,77)" fill-opacity="1.000" fill-rule="nonzero" transform="matrix(1 0 0 1 69.3093 25.6996)"/><path d="M5.741 15.298C4.766 15.298 3.918 15.15 3.2 14.856C2.483 14.561 1.889 14.148 1.42 13.613C0.95 13.081 0.598 12.45 0.357 11.722C0.116 10.995 0 10.19 0 9.308C0 8.202 0.178 7.096 0.537 5.993C0.894 4.888 1.424 3.895 2.126 3.012C2.822 2.128 3.681 1.405 4.692 0.841C5.702 0.282 6.864 0 8.169 0C9.127 0 9.97 0.149 10.698 0.443C11.424 0.737 12.021 1.153 12.493 1.686C12.96 2.221 13.315 2.849 13.554 3.578C13.794 4.303 13.913 5.11 13.913 5.993C13.913 7.096 13.738 8.202 13.39 9.308C13.042 10.409 12.525 11.405 11.843 12.289C11.163 13.172 10.312 13.894 9.29 14.456C8.269 15.017 7.085 15.298 5.741 15.298ZM7.784 3.481C7.178 3.481 6.642 3.657 6.184 4.004C5.723 4.356 5.337 4.797 5.025 5.33C4.71 5.866 4.477 6.449 4.319 7.084C4.162 7.72 4.086 8.321 4.086 8.892C4.086 9.813 4.234 10.531 4.526 11.048C4.823 11.561 5.355 11.82 6.128 11.82C6.736 11.82 7.269 11.645 7.731 11.294C8.188 10.945 8.575 10.503 8.889 9.969C9.202 9.437 9.438 8.851 9.595 8.216C9.75 7.582 9.829 6.977 9.829 6.407C9.829 5.488 9.681 4.769 9.386 4.253C9.091 3.739 8.557 3.481 7.784 3.481Z" fill="rgb(77,77,77)" fill-opacity="1.000" fill-rule="nonzero" transform="matrix(1 0 0 1 81.7224 25.6991)"/><path d="M4.09 21.151L0 21.151L3.451 6.628L7.568 6.628L4.09 21.151ZM6.076 4.858C5.506 4.858 4.989 4.689 4.531 4.348C4.071 4.01 3.839 3.49 3.839 2.788C3.839 2.402 3.919 2.04 4.075 1.698C4.23 1.357 4.438 1.064 4.697 0.814C4.953 0.567 5.255 0.369 5.594 0.22C5.933 0.073 6.297 0 6.683 0C7.254 0 7.77 0.17 8.23 0.51C8.69 0.852 8.922 1.373 8.922 2.071C8.922 2.458 8.84 2.821 8.685 3.162C8.531 3.503 8.323 3.797 8.066 4.046C7.807 4.294 7.509 4.491 7.169 4.639C6.827 4.788 6.464 4.858 6.076 4.858Z" fill="rgb(77,77,77)" fill-opacity="1.000" fill-rule="nonzero" transform="matrix(1 0 0 1 95.9999 19.4601)"/><path d="M3.343 0.995C3.653 0.905 4 0.795 4.376 0.677C4.754 0.558 5.177 0.448 5.649 0.348C6.115 0.245 6.642 0.162 7.222 0.098C7.801 0.032 8.461 0 9.194 0C11.35 0 12.835 0.628 13.656 1.879C14.475 3.131 14.617 4.844 14.085 7.015L12.205 14.857L8.092 14.857L9.914 7.18C10.025 6.701 10.112 6.237 10.176 5.784C10.242 5.336 10.238 4.94 10.162 4.598C10.089 4.26 9.918 3.983 9.652 3.768C9.383 3.557 8.975 3.451 8.423 3.451C7.89 3.451 7.348 3.509 6.794 3.619L4.116 14.856L0 14.856L3.343 0.995Z" fill="rgb(77,77,77)" fill-opacity="1.000" fill-rule="nonzero" transform="matrix(1 0 0 1 103.1689 25.7545)"/></svg>