<svg xmlns="http://www.w3.org/2000/svg" viewBox="0 0 60 60" width="60" height="60"><path d="M0 0L60 0L60 60L0 60L0 0Z" fill="rgb(10,193,142)" fill-opacity="1.000" fill-rule="nonzero" transform="matrix(1 0 0 1 0 0)"/><path d="M16.13 32.26C25.038 32.26 32.26 25.038 32.26 16.13C32.26 7.222 25.038 0 16.13 0C7.222 0 0 7.222 0 16.13C0 25.038 7.222 32.26 16.13 32.26Z" fill="rgb(255,255,255)" fill-opacity="1.000" fill-rule="nonzero" transform="matrix(1 0 0 1 14 14)"/><path d="M13.263 4.68C12.453 2.842 10.596 2.46 8.317 2.835L7.586 0L5.858 0.447L6.576 3.275C6.123 3.392 5.657 3.489 5.198 3.618L4.473 0.809L2.744 1.256L3.476 4.091C3.107 4.194 0 4.997 0 4.997L0.479 6.842C0.479 6.842 1.748 6.486 1.735 6.518C2.434 6.337 2.764 6.686 2.926 7.016L4.932 14.784C4.958 15.01 4.919 15.399 4.434 15.522C4.46 15.535 3.178 15.845 3.178 15.845L3.366 17.994C3.366 17.994 6.44 17.204 6.848 17.107L7.592 19.975L9.314 19.528L8.576 16.641C9.055 16.531 9.508 16.415 9.962 16.298L10.699 19.172L12.428 18.726L11.69 15.865C14.344 15.217 16.221 13.547 15.832 10.984C15.586 9.444 13.903 8.175 12.499 8.033C13.353 7.256 13.793 6.136 13.263 4.68ZM12.428 11.437C12.771 13.975 9.25 14.285 8.078 14.589L7.062 10.796C8.24 10.486 11.852 9.198 12.428 11.437ZM10.305 6.272C10.667 8.525 7.657 8.79 6.68 9.042L5.761 5.599C6.738 5.346 9.567 4.188 10.305 6.272Z" fill="rgb(10,193,142)" fill-opacity="1.000" fill-rule="nonzero" transform="matrix(1 0 0 1 21.903 20.0524)"/></svg>