<svg xmlns="http://www.w3.org/2000/svg" viewBox="0 0 60 60" width="60" height="60"><path d="M0 0L60 0L60 60L0 60L0 0Z" fill="rgb(247,147,26)" fill-opacity="1.000" fill-rule="nonzero" transform="matrix(1 0 0 1 0 0)"/><path d="M32.257 16.129C32.257 25.037 25.036 32.258 16.128 32.258C7.221 32.258 0 25.037 0 16.129C0 7.221 7.221 0 16.128 0C25.036 0 32.257 7.221 32.257 16.129ZM20.003 10.137C22.247 10.907 23.888 12.061 23.566 14.208C23.332 15.78 22.457 16.54 21.295 16.807C22.89 17.633 23.433 19.203 22.928 21.101C21.969 23.831 19.69 24.061 16.659 23.491L15.923 26.426L14.146 25.984L14.872 23.088C14.412 22.974 13.941 22.852 13.456 22.722L12.727 25.632L10.952 25.191L11.687 22.249L8.108 21.35L8.991 19.323C8.991 19.323 10.301 19.669 10.283 19.643C10.786 19.767 11.01 19.441 11.098 19.224L13.092 11.256C13.115 10.88 12.984 10.406 12.264 10.226C12.292 10.207 10.973 9.907 10.973 9.907L11.446 8.016L15.03 8.9L15.759 5.992L17.535 6.434L16.821 9.284C17.299 9.392 17.779 9.502 18.246 9.618L18.954 6.786L20.731 7.227L20.003 10.137ZM15.752 14.988C16.962 15.309 19.596 16.007 20.055 14.177C20.523 12.303 17.964 11.738 16.712 11.461L16.712 11.461L16.711 11.461C16.57 11.429 16.444 11.402 16.342 11.376L15.457 14.912C15.542 14.933 15.641 14.959 15.752 14.988ZM14.38 20.681C15.83 21.063 19.001 21.898 19.505 19.88C20.021 17.818 16.947 17.13 15.448 16.795L15.447 16.795C15.28 16.758 15.132 16.725 15.011 16.695L14.035 20.591C14.134 20.616 14.25 20.646 14.38 20.681L14.38 20.681Z" fill="rgb(255,255,255)" fill-opacity="1.000" fill-rule="evenodd" transform="matrix(1 0 0 1 14 14)"/></svg>