<svg xmlns="http://www.w3.org/2000/svg" viewBox="0 0 60 60" width="60" height="60"><path d="M0 0L60 0L60 60L0 60L0 0Z" fill="rgb(255,255,255)" fill-opacity="1.000" fill-rule="nonzero" transform="matrix(1 0 0 1 0 0)"/><path d="M20.997 26.144C20.997 25.72 20.645 25.382 20.226 25.404C19.525 25.44 18.522 25.469 17.839 25.469C13.759 25.469 10.451 22.136 10.451 18.024L10.451 0.267C10.451 0.119 10.332 0 10.186 0L0.164 0C0.073 0 0 0.074 0 0.165L0 18.024C0.013 27.954 8.005 36 17.862 36C18.855 36 19.827 35.914 20.776 35.756C20.904 35.735 20.997 35.622 20.997 35.492L20.997 26.144Z" fill="rgb(0,0,0)" fill-opacity="1.000" fill-rule="evenodd" transform="matrix(1 0 0 1 11.9696 12)"/><path d="M3.168 0C2.163 0 1.18 0.088 0.221 0.25C0.093 0.272 0 0.385 0 0.516L0 9.886C0 10.307 0.344 10.689 0.756 10.648C1.167 10.607 3.144 10.579 3.144 10.579C7.225 10.579 10.533 13.912 10.533 18.024L10.546 18.024L10.546 34.251C10.546 34.316 10.614 34.36 10.673 34.333C16.788 31.475 21.031 25.239 21.031 18C21.031 8.059 13.033 0 3.168 0Z" fill="rgb(0,0,0)" fill-opacity="1.000" fill-rule="evenodd" transform="matrix(1 0 0 1 26.6649 12)"/></svg>