<svg xmlns="http://www.w3.org/2000/svg" viewBox="0 0 130 60" width="130" height="60"><path d="M0 0L130 0L130 60L0 60L0 0Z" fill="rgb(255,255,255)" fill-opacity="1.000" fill-rule="nonzero" transform="matrix(1 0 0 1 0 0)"/><path d="M16.331 20.334C16.331 20.005 16.057 19.742 15.731 19.759C15.186 19.787 14.406 19.809 13.875 19.809C10.701 19.809 8.128 17.217 8.128 14.018L8.128 0.208C8.128 0.093 8.036 0 7.922 0L0.128 0C0.057 0 0 0.057 0 0.128L0 14.018C0.01 21.742 6.226 28 13.893 28C14.665 28 15.421 27.933 16.159 27.81C16.258 27.794 16.331 27.706 16.331 27.605L16.331 20.334Z" fill="rgb(0,0,0)" fill-opacity="1.000" fill-rule="evenodd" transform="matrix(1 0 0 1 15 16)"/><path d="M2.464 0C1.682 0 0.918 0.069 0.172 0.195C0.072 0.212 0 0.3 0 0.401L0 7.689C0 8.016 0.268 8.314 0.588 8.281C0.907 8.25 2.445 8.228 2.445 8.228C5.619 8.228 8.192 10.82 8.192 14.018L8.202 14.018L8.202 26.64C8.202 26.691 8.256 26.725 8.301 26.703C13.057 24.481 16.357 19.631 16.357 14C16.357 6.268 10.137 0 2.464 0Z" fill="rgb(0,0,0)" fill-opacity="1.000" fill-rule="evenodd" transform="matrix(1 0 0 1 26.4297 16)"/><path d="M58.722 6.072C53.595 6.072 51.332 9.561 51.332 14.287C51.332 18.93 54.032 21.732 58.257 21.732C63.383 21.732 65.62 18.298 65.62 13.628C65.62 8.957 62.975 6.072 58.722 6.072ZM60.427 17.749C59.854 18.133 59.228 18.353 58.354 18.353C56.637 18.353 55.601 16.87 55.601 14.205C55.601 12.72 55.9 11.402 56.392 10.715C56.964 10.275 57.618 10.056 58.464 10.056C60.291 10.056 61.19 11.567 61.19 13.764C61.19 15.413 60.917 16.87 60.427 17.749ZM44.357 12.446C42.12 12.061 41.603 11.787 41.603 11.1C41.603 10.77 41.712 10.468 41.875 10.275C42.448 10.083 43.32 9.973 44.22 9.973C45.992 9.973 47.573 10.248 48.882 10.66L48.882 7.089C47.874 6.567 46.21 6.072 43.893 6.072C39.967 6.072 37.513 7.94 37.513 11.127C37.513 14.177 39.312 15.111 42.611 15.715C45.038 16.182 45.555 16.429 45.555 17.172C45.555 17.502 45.474 17.749 45.338 17.914C44.738 18.133 43.893 18.271 42.666 18.271C41.03 18.271 39.094 17.914 37.922 17.502L37.922 20.991C39.148 21.485 41.084 21.732 42.802 21.732C46.974 21.732 49.673 20.414 49.673 17.034C49.673 14.149 47.901 13.105 44.357 12.446ZM12.679 11.732C14.069 10.907 15.269 9.561 15.269 7.638C15.269 4.368 12.76 2.638 7.525 2.638L0 2.638L0 21.458L8.752 21.458C13.414 21.458 15.787 19.672 15.787 16.128C15.787 13.764 14.423 12.446 12.679 11.732ZM4.581 6.237C5.317 6.209 6.216 6.182 7.253 6.182C9.652 6.182 10.715 6.896 10.715 8.462C10.715 9.341 10.388 9.973 9.57 10.55C8.943 10.687 8.207 10.77 7.334 10.77C6.299 10.77 5.317 10.743 4.581 10.715L4.581 6.237ZM10.416 18.161C9.815 18.326 8.807 18.38 7.961 18.38C6.571 18.38 5.398 18.353 4.581 18.326L4.581 13.957L7.825 13.957C10.17 13.957 11.152 14.644 11.152 16.21C11.152 16.98 10.879 17.611 10.416 18.161ZM18.833 21.458L23.25 21.458L23.25 6.346L18.833 6.346L18.833 21.458ZM31.39 2.61L27.162 2.94L27.162 17.199C27.162 20.001 28.444 21.705 31.661 21.705C33.025 21.705 34.116 21.458 35.043 21.046L35.043 17.556C34.143 17.886 33.352 18.051 32.507 18.051C31.771 18.051 31.39 17.638 31.39 16.952L31.39 9.863L34.961 9.863L34.961 6.347L31.39 6.347L31.39 2.61ZM23.249 3.764L23.249 0L18.833 0.329L18.833 3.764L23.249 3.764Z" fill="rgb(0,0,0)" fill-opacity="1.000" fill-rule="evenodd" transform="matrix(1 0 0 1 50.2871 17.9936)"/></svg>