<svg xmlns="http://www.w3.org/2000/svg" viewBox="0 0 60 60" width="60" height="60"><path d="M0 0L60 0L60 60L0 60L0 0Z" fill="rgb(255,60,101)" fill-opacity="1.000" fill-rule="nonzero" transform="matrix(1 0 0 1 0 0)"/><path d="M0 28.603L29.148 28.603L29.148 0L0 0L0 28.603Z" fill="rgb(255,60,101)" fill-opacity="1.000" fill-rule="nonzero" transform="matrix(1 0 0 1 15 16)"/><path d="M11.84 5.877C11.842 7.043 11.497 8.182 10.848 9.152C10.199 10.122 9.275 10.879 8.193 11.326C7.112 11.774 5.921 11.892 4.772 11.666C3.623 11.44 2.567 10.88 1.738 10.057C0.909 9.234 0.344 8.185 0.115 7.042C-0.115 5.899 0.002 4.715 0.45 3.638C0.897 2.561 1.656 1.641 2.63 0.993C3.604 0.346 4.749 0 5.92 0C6.697 -0.001 7.466 0.151 8.184 0.446C8.901 0.741 9.554 1.173 10.103 1.719C10.653 2.265 11.089 2.913 11.387 3.626C11.685 4.34 11.839 5.105 11.84 5.877Z" fill="rgb(253,211,3)" fill-opacity="1.000" fill-rule="nonzero" transform="matrix(1 0 0 1 23.8809 24.2275)"/></svg>