<svg xmlns="http://www.w3.org/2000/svg" viewBox="0 0 130 60" width="130" height="60"><path d="M0 0L130 0L130 60L0 60L0 0Z" fill="rgb(255,255,255)" fill-opacity="1.000" fill-rule="nonzero" transform="matrix(1 0 0 1 0 0)"/><path d="M0 28.603L29.148 28.603L29.148 0L0 0L0 28.603Z" fill="rgb(255,60,101)" fill-opacity="1.000" fill-rule="nonzero" transform="matrix(1 0 0 1 15 16.3929)"/><path d="M0 5.388L5.427 5.388L5.427 0L0 0L0 5.388Z" fill="rgb(255,60,101)" fill-opacity="1.000" fill-rule="nonzero" transform="matrix(1 0 0 1 74.715 16)"/><path d="M11.84 5.877C11.842 7.043 11.497 8.182 10.848 9.152C10.199 10.122 9.275 10.879 8.193 11.326C7.112 11.774 5.921 11.892 4.772 11.666C3.623 11.44 2.567 10.88 1.738 10.057C0.909 9.234 0.344 8.185 0.115 7.042C-0.115 5.899 0.002 4.715 0.45 3.638C0.897 2.561 1.656 1.641 2.63 0.993C3.604 0.346 4.749 0 5.92 0C6.697 -0.001 7.466 0.151 8.184 0.446C8.901 0.741 9.554 1.173 10.103 1.719C10.653 2.265 11.089 2.913 11.387 3.626C11.685 4.34 11.839 5.105 11.84 5.877Z" fill="rgb(253,211,3)" fill-opacity="1.000" fill-rule="nonzero" transform="matrix(1 0 0 1 23.88 24.6203)"/><path d="M11.732 28.995L0 28.995L0 0L10.226 0C13.283 0 15.302 0.607 16.972 2.03C17.837 2.742 18.535 3.633 19.018 4.642C19.5 5.651 19.755 6.752 19.764 7.869C19.73 9.664 19.043 11.386 17.831 12.715C19.18 13.377 20.31 14.411 21.086 15.693C21.909 17.028 22.344 18.564 22.343 20.13C22.335 21.304 22.087 22.464 21.614 23.539C21.141 24.614 20.454 25.583 19.593 26.386C18.709 27.241 17.647 27.893 16.482 28.296C14.951 28.798 13.344 29.034 11.732 28.995ZM5.801 16.415L5.801 24.413L11.601 24.413C13.427 24.413 14.656 23.998 15.469 23.108C16.159 22.379 16.543 21.415 16.543 20.414C16.543 19.413 16.159 18.45 15.469 17.721C14.655 16.83 13.428 16.416 11.601 16.416L5.801 16.415ZM5.889 5.317L5.889 11.598L10.575 11.598C10.996 11.607 11.414 11.533 11.805 11.379C12.196 11.225 12.552 10.995 12.852 10.702C13.153 10.41 13.392 10.061 13.555 9.675C13.718 9.29 13.801 8.875 13.801 8.457C13.801 8.039 13.718 7.625 13.555 7.239C13.392 6.854 13.153 6.505 12.852 6.212C12.552 5.919 12.196 5.69 11.805 5.536C11.414 5.382 10.996 5.307 10.575 5.316L5.889 5.316L5.889 5.317Z" fill="rgb(0,0,0)" fill-opacity="1.000" fill-rule="nonzero" transform="matrix(1 0 0 1 49.1991 16)"/><path d="M11.373 8.699L11.346 4.349L5.427 4.349L5.427 0L0 0L0.026 24.646L9.893 24.646L9.893 20.297L5.453 20.297L5.453 8.699L11.373 8.699Z" fill="rgb(0,0,0)" fill-opacity="1.000" fill-rule="nonzero" transform="matrix(1 0 0 1 83.6737 20.3493)"/><path d="M17.266 0L0.493 0L0.493 4.349L9.866 4.349L0 15.947L0 20.297L17.266 20.297L17.266 15.947L6.412 15.947L17.266 3.383L17.266 0Z" fill="rgb(0,0,0)" fill-opacity="1.000" fill-rule="nonzero" transform="matrix(1 0 0 1 97.5131 24.6986)"/><path d="M0 5.316L0 19.813L5.427 19.813L5.427 0L0 0L0 5.316Z" fill="rgb(0,0,0)" fill-opacity="1.000" fill-rule="nonzero" transform="matrix(1 0 0 1 74.8206 25.1821)"/></svg>