<svg xmlns="http://www.w3.org/2000/svg" viewBox="0 0 60 60" width="60" height="60"><path d="M0 0L60 0L60 60L0 60L0 0Z" fill="rgb(255,255,255)" fill-opacity="1.000" fill-rule="nonzero" transform="matrix(1 0 0 1 0 0)"/><path d="M0 0L0 23.265C0 30.277 5.577 35.961 12.456 35.961C19.335 35.961 24.912 30.277 24.912 23.265C24.912 16.254 19.335 10.57 12.456 10.57L8.661 10.57L8.661 17.182L12.428 17.182C15.77 17.182 18.48 19.986 18.48 23.392C18.48 26.752 15.807 29.517 12.511 29.517C9.215 29.517 6.542 26.794 6.542 23.434L6.542 0L0 0Z" fill="rgb(0,0,0)" fill-opacity="1.000" fill-rule="evenodd" transform="matrix(1 0 0 1 11 12)"/><path d="M0 0L0 9.305L0.01 9.309C1.57 9.952 2.668 10.59 3.639 11.373C4.611 12.155 5.458 13.084 6.513 14.309L6.542 14.342L6.542 0L0 0Z" fill="rgb(0,0,0)" fill-opacity="1.000" fill-rule="evenodd" transform="matrix(1 0 0 1 28.5418 12)"/><path d="M5.296 0L11.915 0C11.915 4.183 11.915 11.189 7.557 12.65C11.529 13.775 12.081 21.59 11.86 25.357L5.296 25.357C5.314 23.895 5.196 20.443 4.579 18.329C3.961 16.215 1.269 15.649 0 15.63C0.092 15.33 0.287 14.45 0.331 13.325C0.375 12.201 0.129 10.383 0 9.614L1.489 9.446C2.188 9.427 3.784 8.883 4.579 6.859C5.373 4.835 5.388 1.443 5.296 0Z" fill="rgb(0,0,0)" fill-opacity="1.000" fill-rule="nonzero" transform="matrix(1 0 0 1 37.7154 22.6431)"/></svg>