<svg xmlns="http://www.w3.org/2000/svg" viewBox="0 0 130 60" width="130" height="60"><path d="M0 0L130 0L130 60L0 60L0 0Z" fill="rgb(255,255,255)" fill-opacity="1.000" fill-rule="nonzero" transform="matrix(1 0 0 1 0 0)"/><path d="M0 0L0 24.297C0 31.619 5.917 37.555 13.216 37.555C20.515 37.555 26.432 31.619 26.432 24.297C26.432 16.974 20.515 11.039 13.216 11.039L9.189 11.039L9.189 17.944L13.187 17.944C16.733 17.944 19.607 20.872 19.607 24.429C19.607 27.938 16.772 30.826 13.275 30.826C9.777 30.826 6.942 27.982 6.942 24.473L6.942 0L0 0Z" fill="rgb(0,0,0)" fill-opacity="1.000" fill-rule="evenodd" transform="matrix(1 0 0 1 20.437 10.7021)"/><path d="M0 0L0 9.718L0.011 9.722C1.665 10.394 2.83 11.059 3.862 11.877C4.893 12.694 5.791 13.664 6.911 14.943L6.942 14.978L6.942 0L0 0Z" fill="rgb(0,0,0)" fill-opacity="1.000" fill-rule="evenodd" transform="matrix(1 0 0 1 39.0494 10.7021)"/><path d="M5.619 0L12.642 0C12.642 4.368 12.642 11.685 8.019 13.211C12.233 14.385 12.818 22.547 12.584 26.481L5.619 26.481C5.638 24.954 5.514 21.349 4.858 19.141C4.202 16.934 1.346 16.343 0 16.323C0.098 16.01 0.304 15.09 0.351 13.916C0.398 12.741 0.137 10.843 0 10.04L1.58 9.864C2.322 9.845 4.015 9.277 4.858 7.163C5.701 5.05 5.716 1.507 5.619 0Z" fill="rgb(0,0,0)" fill-opacity="1.000" fill-rule="nonzero" transform="matrix(1 0 0 1 48.783 21.817)"/><path d="M9.084 3.417L5.779 6.851L9.505 12.507L5.934 12.507L3.726 8.848L2.959 9.599L2.959 12.507L0 12.507L0 0L2.959 0L2.959 6.445L5.657 3.417L9.084 3.417Z" fill="rgb(0,0,0)" fill-opacity="1.000" fill-rule="nonzero" transform="matrix(1 0 0 1 100.4956 21.7964)"/><path d="M5.746 0C4.669 0 3.448 0.579 2.91 1.507L2.873 1.507L2.873 0.263L0 0.263L0 9.353L2.959 9.353L2.959 4.395C2.959 3.397 3.444 2.452 4.558 2.452C6.057 2.452 6.047 3.53 6.037 4.677C6.037 4.77 6.036 4.864 6.036 4.958L6.036 9.357L8.994 9.357L8.994 3.524C8.994 2.21 8.75 0.004 5.738 0.004L5.746 0Z" fill="rgb(0,0,0)" fill-opacity="1.000" fill-rule="nonzero" transform="matrix(1 0 0 1 89.5256 24.951)"/><path d="M4.644 0C6.787 0 8.856 0.472 8.856 3.048L8.86 3.056L8.86 7.032C8.86 7.8 8.86 8.642 9.207 9.361L6.232 9.361C6.129 9.091 6.095 8.817 6.06 8.532L6.056 8.502C5.293 9.308 4.159 9.624 3.081 9.624C1.359 9.624 0 8.745 0 6.872C0 4.446 2.149 4.159 4.055 3.904C4.476 3.848 4.885 3.793 5.256 3.717C5.762 3.61 6.04 3.438 6.04 2.875C6.04 2.193 5.22 1.93 4.612 1.93C3.791 1.93 3.269 2.296 3.13 3.068L0.363 3.068C0.412 1.877 0.971 1.105 1.771 0.633C2.571 0.177 3.616 0 4.644 0ZM2.955 6.744C2.955 7.48 3.53 7.78 4.191 7.78L4.191 7.784C5.603 7.784 6.073 6.975 6.003 5.101C5.73 5.273 5.311 5.353 4.874 5.437C4.64 5.482 4.4 5.529 4.175 5.59C3.51 5.746 2.955 6.009 2.955 6.744Z" fill="rgb(0,0,0)" fill-opacity="1.000" fill-rule="evenodd" transform="matrix(1 0 0 1 78.7229 24.951)"/><path d="M5.567 3.155C4.452 3.155 3.599 3.574 2.991 4.416L2.959 4.416L2.959 0L0 0L0 12.507L2.82 12.507L2.82 11.456L2.853 11.456C3.428 12.314 4.297 12.77 5.342 12.77C8.178 12.77 9.378 10.318 9.378 7.759C9.378 5.393 8.125 3.15 5.567 3.15L5.567 3.155ZM4.644 10.495C3.306 10.495 2.853 9.46 2.853 7.866C2.853 5.993 3.861 5.43 4.665 5.43C5.971 5.43 6.424 6.708 6.424 7.866C6.424 9.11 5.971 10.495 4.648 10.495L4.644 10.495Z" fill="rgb(0,0,0)" fill-opacity="1.000" fill-rule="evenodd" transform="matrix(1 0 0 1 68.243 21.7964)"/></svg>