<svg xmlns="http://www.w3.org/2000/svg" viewBox="0 0 130 60" width="130" height="60"><path d="M0 0L130 0L130 60L0 60L0 0Z" fill="rgb(255,255,255)" fill-opacity="1.000" fill-rule="nonzero" transform="matrix(1 0 0 1 0 0)"/><path d="M4.9 2.45C4.9 1.098 3.804 0 2.45 0C1.097 0 0 1.097 0 2.45C0 3.38 0.517 4.188 1.279 4.604L1.279 14.428C0.517 14.843 0 15.651 0 16.581C0 17.934 1.096 19.031 2.45 19.031C3.803 19.031 4.9 17.935 4.9 16.581C4.9 15.651 4.382 14.843 3.62 14.428L3.62 4.604C4.382 4.188 4.9 3.379 4.9 2.45Z" fill="rgb(0,37,224)" fill-opacity="1.000" fill-rule="nonzero" transform="matrix(1 0 0 1 35.2695 19.6196)"/><path d="M21.153 16.336C23.02 14.576 24.113 12.107 24.113 9.458C24.113 4.243 19.872 0 14.658 0L4.047 0C1.816 0 0 1.816 0 4.049L0 30.951C0 33.184 1.816 35 4.047 35L15.723 35C21.301 35 25.838 30.462 25.838 24.882C25.839 21.344 24.03 18.158 21.153 16.336ZM15.723 32.166L4.047 32.166C3.378 32.166 2.832 31.621 2.832 30.95L2.832 4.048C2.832 3.378 3.378 2.832 4.047 2.832L14.657 2.832C18.309 2.832 21.28 5.804 21.28 9.457C21.28 11.592 20.264 13.558 18.576 14.796L18.576 18.178C21.251 19.313 23.007 21.926 23.007 24.881C23.007 28.898 19.74 32.166 15.723 32.166Z" fill="rgb(0,37,224)" fill-opacity="1.000" fill-rule="nonzero" transform="matrix(1 0 0 1 26 12)"/><path d="M12.744 7.564C12.015 6.877 11.146 6.349 10.161 5.997C9.182 5.646 8.115 5.468 6.991 5.468C5.938 5.468 4.959 5.647 4.076 6.001L4.076 0.199L3.839 0.16C3.204 0.054 2.603 0 2.053 0C1.546 0 0.936 0.053 0.241 0.159L0 0.195L0 20.09L0.154 20.169C2.049 21.138 4.193 21.63 6.526 21.63C7.754 21.63 8.911 21.436 9.961 21.053C11.018 20.669 11.934 20.11 12.684 19.392C13.435 18.673 14.023 17.787 14.429 16.759C14.834 15.735 15.039 14.593 15.039 13.362C15.039 12.172 14.839 11.07 14.443 10.087C14.047 9.101 13.475 8.252 12.744 7.564ZM4.075 9.749C4.845 9.387 5.742 9.202 6.742 9.202C8.059 9.202 9.063 9.59 9.811 10.386C10.554 11.178 10.93 12.232 10.93 13.517C10.93 14.886 10.554 15.981 9.811 16.771C9.074 17.557 8.02 17.955 6.679 17.955C5.77 17.955 4.895 17.807 4.074 17.514L4.074 9.749L4.075 9.749Z" fill="rgb(0,37,224)" fill-opacity="1.000" fill-rule="nonzero" transform="matrix(1 0 0 1 65.0651 18.7468)"/><path d="M2.022 0C1.323 0 0.718 0.054 0.223 0.162L0 0.211L0 21.051L0.228 21.096C0.762 21.202 1.377 21.257 2.054 21.257C2.796 21.257 3.412 21.202 3.887 21.095L4.107 21.046L4.107 0.209L3.882 0.162C3.367 0.054 2.742 0 2.022 0Z" fill="rgb(0,37,224)" fill-opacity="1.000" fill-rule="nonzero" transform="matrix(1 0 0 1 83.2788 18.7468)"/><path d="M14.006 0.161C13.492 0.054 12.876 0 12.178 0C11.481 0 10.865 0.054 10.351 0.161L10.125 0.208L10.125 11.617C9.315 11.927 8.398 12.085 7.396 12.085C6.251 12.085 5.406 11.847 4.882 11.38C4.368 10.921 4.107 10 4.107 8.641L4.107 0.213L3.887 0.163C3.411 0.055 2.805 0.001 2.085 0.001C1.387 0.001 0.762 0.055 0.228 0.162L0 0.207L0 9.666C0 11.084 0.298 12.254 0.886 13.146C1.473 14.038 2.283 14.711 3.293 15.145C4.287 15.573 5.511 15.789 6.929 15.789C9.488 15.789 11.89 15.258 14.071 14.208L14.232 14.131L14.232 0.208L14.006 0.161Z" fill="rgb(0,37,224)" fill-opacity="1.000" fill-rule="nonzero" transform="matrix(1 0 0 1 90.5595 24.568)"/></svg>