<svg xmlns="http://www.w3.org/2000/svg" viewBox="0 0 60 60" width="60" height="60"><path d="M0 0L60 0L60 60L0 60L0 0Z" fill="rgb(0,37,224)" fill-opacity="1.000" fill-rule="nonzero" transform="matrix(1 0 0 1 0 0)"/><path d="M4.9 2.45C4.9 1.098 3.804 0 2.45 0C1.097 0 0 1.097 0 2.45C0 3.38 0.517 4.188 1.279 4.604L1.279 14.428C0.517 14.843 0 15.651 0 16.581C0 17.934 1.096 19.031 2.45 19.031C3.803 19.031 4.9 17.935 4.9 16.581C4.9 15.651 4.382 14.843 3.62 14.428L3.62 4.604C4.382 4.188 4.9 3.379 4.9 2.45Z" fill="rgb(255,255,255)" fill-opacity="1.000" fill-rule="nonzero" transform="matrix(1 0 0 1 26.2695 19.6196)"/><path d="M21.153 16.336C23.02 14.576 24.113 12.107 24.113 9.458C24.113 4.243 19.872 0 14.658 0L4.047 0C1.816 0 0 1.816 0 4.049L0 30.951C0 33.184 1.816 35 4.047 35L15.723 35C21.301 35 25.838 30.462 25.838 24.882C25.839 21.344 24.03 18.158 21.153 16.336ZM15.723 32.166L4.047 32.166C3.378 32.166 2.832 31.621 2.832 30.95L2.832 4.048C2.832 3.378 3.378 2.832 4.047 2.832L14.657 2.832C18.309 2.832 21.28 5.804 21.28 9.457C21.28 11.592 20.264 13.558 18.576 14.796L18.576 18.178C21.251 19.313 23.007 21.926 23.007 24.881C23.007 28.898 19.74 32.166 15.723 32.166Z" fill="rgb(255,255,255)" fill-opacity="1.000" fill-rule="nonzero" transform="matrix(1 0 0 1 17 12)"/></svg>