<svg xmlns="http://www.w3.org/2000/svg" viewBox="0 0 60 60" width="60" height="60"><defs><linearGradient id="g82" gradientUnits="userSpaceOnUse" x1="29.85" y1="58.42" x2="29.85" y2="1.52"><stop offset="0.0%" stop-color="rgb(0,128,83)" stop-opacity="1.000"/><stop offset="60.0%" stop-color="rgb(127,203,174)" stop-opacity="1.000"/><stop offset="100.0%" stop-color="rgb(0,167,109)" stop-opacity="1.000"/></linearGradient><linearGradient id="g83" gradientUnits="userSpaceOnUse" x1="37.49" y1="54.32" x2="37.49" y2="5.58"><stop offset="0.0%" stop-color="rgb(0,167,109)" stop-opacity="1.000"/><stop offset="30.0%" stop-color="rgb(127,203,174)" stop-opacity="1.000"/><stop offset="55.0%" stop-color="rgb(0,167,109)" stop-opacity="1.000"/><stop offset="83.5%" stop-color="rgb(0,128,83)" stop-opacity="1.000"/><stop offset="86.9%" stop-color="rgb(0,133,88)" stop-opacity="1.000"/><stop offset="92.4%" stop-color="rgb(0,146,100)" stop-opacity="1.000"/><stop offset="99.4%" stop-color="rgb(0,169,122)" stop-opacity="1.000"/><stop offset="100.0%" stop-color="rgb(0,173,125)" stop-opacity="1.000"/></linearGradient><linearGradient id="g84" gradientUnits="userSpaceOnUse" x1="46.47" y1="14.28" x2="46.47" y2="45.47"><stop offset="0.0%" stop-color="rgb(0,179,135)" stop-opacity="1.000"/><stop offset="100.0%" stop-color="rgb(0,167,109)" stop-opacity="1.000"/></linearGradient><linearGradient id="g85" gradientUnits="userSpaceOnUse" x1="11.91" y1="21.00" x2="11.91" y2="38.92"><stop offset="0.0%" stop-color="rgb(0,179,135)" stop-opacity="1.000"/><stop offset="100.0%" stop-color="rgb(0,167,109)" stop-opacity="1.000"/></linearGradient><linearGradient id="g86" gradientUnits="userSpaceOnUse" x1="34.58" y1="14.91" x2="34.58" y2="45.43"><stop offset="0.0%" stop-color="rgb(0,179,135)" stop-opacity="1.000"/><stop offset="100.0%" stop-color="rgb(0,167,109)" stop-opacity="1.000"/></linearGradient><linearGradient id="g87" gradientUnits="userSpaceOnUse" x1="5.02" y1="21.61" x2="5.02" y2="38.50"><stop offset="0.0%" stop-color="rgb(0,179,135)" stop-opacity="1.000"/><stop offset="100.0%" stop-color="rgb(0,167,109)" stop-opacity="1.000"/></linearGradient></defs><path d="M0 0L60 0L60 60L0 60L0 0Z" fill="rgb(255,255,255)" fill-opacity="1.000" fill-rule="nonzero" transform="matrix(1 0 0 1 0 0)"/><path d="M34.792 0L0 0L0 34.481L34.792 34.481L34.792 0Z" fill="url(#g82)" fill-rule="nonzero" transform="matrix(1 0 0 1 13 13)"/><path d="M33.106 16.785C33.106 24 33.413 31.367 33.413 31.367C33.413 32.203 32.876 32.734 32.187 32.734L2.069 32.734C1.379 32.734 0.92 32.127 0.843 31.367C0.843 31.367 0 25.063 0 15.494C0 5.848 0.92 1.367 0.92 1.367C0.996 0.608 1.456 0 2.146 0L32.263 0C32.953 0 33.49 0.608 33.49 1.367C33.413 1.367 33.106 9.646 33.106 16.785Z" fill="url(#g83)" fill-rule="nonzero" transform="matrix(1 0 0 1 13.6134 13.6076)"/><path d="M10.039 5.468C7.893 6.684 7.204 6.835 4.905 8.203L4.981 7.975C6.207 6.684 6.744 6.076 7.51 4.937C5.364 5.089 2.222 5.316 0 5.772L0.153 5.544C2.222 4.557 5.978 3.57 7.893 3.342C7.434 2.658 3.602 0.608 2.682 0.228L2.759 0C5.671 0.304 9.503 1.671 11.112 2.658C11.802 2.43 12.568 2.43 13.871 2.278C13.871 2.278 13.641 3.038 12.262 4.025C12.645 4.937 11.802 10.177 11.035 11.544C11.035 9.418 10.882 6.684 10.039 5.468Z" fill="url(#g84)" fill-rule="nonzero" transform="matrix(1 0 0 1 29.9367 16.7977)"/><path d="M7.893 7.899L7.97 7.671C6.821 7.215 5.671 6.911 4.751 6C5.058 5.165 5.364 4.557 5.901 3.797L5.978 3.57C4.981 3.722 4.138 4.101 3.295 4.253C2.606 3.114 2.376 1.519 1.993 0L1.993 0.152C1.839 1.899 1.763 3.114 1.993 4.481C1.303 4.709 0.69 4.709 0.077 4.937L0 5.165C0.92 5.696 1.609 6.152 2.682 6.608C3.219 7.747 3.832 8.582 4.751 9.494L4.828 9.266C4.675 8.582 4.445 8.051 4.521 7.291C5.671 7.671 6.591 7.823 7.893 7.899Z" fill="url(#g85)" fill-rule="nonzero" transform="matrix(1 0 0 1 16.3717 33.0507)"/><path d="M8.66 0C8.66 0 8.2 0.835 7.817 1.899L7.74 1.899C10.422 2.278 12.951 3.342 13.564 3.722L13.488 3.949C10.729 3.494 9.273 3.494 8.2 3.646C7.204 3.722 6.974 3.873 6.974 3.873C6.361 5.165 6.054 7.291 5.901 8.051L5.824 8.278C5.288 7.063 4.598 4.633 4.598 4.633C3.219 5.392 0 8.354 0 8.354C1.763 4.861 3.602 3.266 3.602 3.266C2.989 2.658 1.379 2.354 0.153 2.278L0.23 2.051C0.996 1.823 2.529 1.747 3.525 1.671C4.751 1.671 5.441 1.671 5.441 1.671C6.437 0.835 8.047 0.076 8.66 0Z" fill="url(#g86)" fill-rule="nonzero" transform="matrix(1 0 0 1 18.8239 23.6326)"/><path d="M4.598 0.38C4.062 1.139 3.525 1.747 2.912 2.43C1.993 2.658 0.92 2.582 0.077 2.582L0 2.81C0.613 3.114 1.226 3.342 1.916 3.494C1.379 3.949 0.69 4.329 0.153 4.709L0.077 4.937C1.15 4.709 2.606 4.253 3.678 3.57C4.215 3.57 4.751 3.57 5.135 3.494L5.211 3.266C5.135 3.038 4.905 2.886 4.828 2.506C5.824 1.747 6.514 1.063 7.357 0.228L7.51 0C6.667 0.532 5.671 1.367 4.751 1.823C4.675 1.291 4.598 0.911 4.598 0.38Z" fill="url(#g87)" fill-rule="nonzero" transform="matrix(1 0 0 1 26.2576 38.3674)"/><path d="M9.963 5.241C7.817 6.456 7.127 6.608 4.828 7.975C6.207 6.532 6.667 5.924 7.51 4.633C5.364 4.709 2.222 5.013 0 5.468C1.916 4.405 5.824 3.266 7.817 3.038C7.357 2.43 3.525 0.456 2.529 0C5.518 0.228 9.273 1.367 11.035 2.43C11.725 2.203 12.492 2.203 13.794 2.051C13.488 2.658 13.488 3.038 12.185 3.873C12.568 4.785 11.725 10.025 10.959 11.392C10.959 9.19 10.729 6.456 9.963 5.241Z" fill="rgb(255,255,255)" fill-opacity="1.000" fill-rule="nonzero" transform="matrix(1 0 0 1 30.1666 16.7977)"/><path d="M7.893 7.747C6.667 7.291 5.748 6.759 4.828 5.848C5.135 5.013 5.441 4.405 5.978 3.646C4.981 3.797 4.215 3.873 3.372 4.101C2.606 2.81 2.299 1.595 1.993 0C1.763 1.747 1.763 2.962 1.993 4.329C1.226 4.557 0.613 4.709 0 5.013C0.92 5.544 1.686 6 2.682 6.456C3.219 7.595 3.832 8.43 4.751 9.342C4.521 8.582 4.445 7.975 4.598 7.139C5.594 7.519 6.591 7.671 7.893 7.747Z" fill="rgb(255,255,255)" fill-opacity="1.000" fill-rule="nonzero" transform="matrix(1 0 0 1 16.5254 32.9746)"/><path d="M8.736 0C8.353 0.532 7.893 1.443 7.817 1.823C10.959 2.278 13.564 3.873 13.564 3.873C10.806 3.418 9.349 3.418 8.277 3.57C7.28 3.646 7.05 3.797 7.05 3.797C6.284 5.392 5.824 8.203 5.824 8.203C5.288 6.987 4.598 4.557 4.598 4.557C3.219 5.316 0 8.278 0 8.278C1.763 4.785 3.602 3.19 3.602 3.19C2.989 2.582 1.379 2.278 0.153 2.203C0.766 1.975 2.376 1.671 3.602 1.595C4.828 1.595 5.518 1.595 5.518 1.595C6.514 0.835 8.123 0.076 8.736 0Z" fill="rgb(255,255,255)" fill-opacity="1.000" fill-rule="nonzero" transform="matrix(1 0 0 1 18.9008 23.4049)"/><path d="M4.675 0.152C4.138 0.911 3.602 1.519 2.989 2.203C1.916 2.506 1.073 2.582 0 2.582C0.613 2.886 1.226 3.114 1.916 3.266C1.226 3.873 0.69 4.253 0 4.709C1.073 4.481 2.529 4.025 3.602 3.342C4.138 3.342 4.675 3.342 5.058 3.266C4.981 2.962 4.905 2.734 4.828 2.278C5.824 1.519 6.591 0.835 7.357 0C6.437 0.608 5.671 1.063 4.675 1.519C4.675 1.063 4.675 0.684 4.675 0.152Z" fill="rgb(255,255,255)" fill-opacity="1.000" fill-rule="nonzero" transform="matrix(1 0 0 1 26.3344 38.3674)"/></svg>