<svg xmlns="http://www.w3.org/2000/svg" viewBox="0 0 130 60" width="130" height="60"><defs><linearGradient id="g88" gradientUnits="userSpaceOnUse" x1="64.67" y1="58.42" x2="64.67" y2="1.52"><stop offset="0.0%" stop-color="rgb(0,128,83)" stop-opacity="1.000"/><stop offset="60.0%" stop-color="rgb(127,203,174)" stop-opacity="1.000"/><stop offset="100.0%" stop-color="rgb(0,167,109)" stop-opacity="1.000"/></linearGradient><linearGradient id="g89" gradientUnits="userSpaceOnUse" x1="81.23" y1="54.32" x2="81.23" y2="5.58"><stop offset="0.0%" stop-color="rgb(0,167,109)" stop-opacity="1.000"/><stop offset="30.0%" stop-color="rgb(127,203,174)" stop-opacity="1.000"/><stop offset="55.0%" stop-color="rgb(0,167,109)" stop-opacity="1.000"/><stop offset="83.5%" stop-color="rgb(0,128,83)" stop-opacity="1.000"/><stop offset="86.9%" stop-color="rgb(0,133,88)" stop-opacity="1.000"/><stop offset="92.4%" stop-color="rgb(0,146,100)" stop-opacity="1.000"/><stop offset="99.4%" stop-color="rgb(0,169,122)" stop-opacity="1.000"/><stop offset="100.0%" stop-color="rgb(0,173,125)" stop-opacity="1.000"/></linearGradient><linearGradient id="g90" gradientUnits="userSpaceOnUse" x1="100.68" y1="14.28" x2="100.68" y2="45.47"><stop offset="0.0%" stop-color="rgb(0,179,135)" stop-opacity="1.000"/><stop offset="100.0%" stop-color="rgb(0,167,109)" stop-opacity="1.000"/></linearGradient><linearGradient id="g91" gradientUnits="userSpaceOnUse" x1="25.81" y1="21.00" x2="25.81" y2="38.92"><stop offset="0.0%" stop-color="rgb(0,179,135)" stop-opacity="1.000"/><stop offset="100.0%" stop-color="rgb(0,167,109)" stop-opacity="1.000"/></linearGradient><linearGradient id="g92" gradientUnits="userSpaceOnUse" x1="74.92" y1="14.91" x2="74.92" y2="45.43"><stop offset="0.0%" stop-color="rgb(0,179,135)" stop-opacity="1.000"/><stop offset="100.0%" stop-color="rgb(0,167,109)" stop-opacity="1.000"/></linearGradient><linearGradient id="g93" gradientUnits="userSpaceOnUse" x1="10.87" y1="21.61" x2="10.87" y2="38.50"><stop offset="0.0%" stop-color="rgb(0,179,135)" stop-opacity="1.000"/><stop offset="100.0%" stop-color="rgb(0,167,109)" stop-opacity="1.000"/></linearGradient></defs><path d="M0 0L130 0L130 60L0 60L0 0Z" fill="rgb(255,255,255)" fill-opacity="1.000" fill-rule="nonzero" transform="matrix(1 0 0 1 0 0)"/><path d="M23.208 0L0 0L0 23L23.208 23L23.208 0Z" fill="url(#g88)" fill-rule="nonzero" transform="matrix(1 0 0 1 9 18)"/><path d="M22.083 11.196C22.083 16.009 22.288 20.923 22.288 20.923C22.288 21.48 21.93 21.835 21.47 21.835L1.38 21.835C0.92 21.835 0.613 21.43 0.562 20.923C0.562 20.923 0 16.718 0 10.335C0 3.901 0.613 0.912 0.613 0.912C0.665 0.405 0.971 0 1.431 0L21.521 0C21.981 0 22.339 0.405 22.339 0.912C22.288 0.912 22.083 6.434 22.083 11.196Z" fill="url(#g89)" fill-rule="nonzero" transform="matrix(1 0 0 1 9.4089 18.4053)"/><path d="M6.696 3.648C5.265 4.458 4.805 4.559 3.272 5.471L3.323 5.319C4.141 4.458 4.498 4.053 5.01 3.293C3.578 3.394 1.482 3.546 0 3.85L0.102 3.698C1.482 3.04 3.987 2.381 5.265 2.229C4.958 1.773 2.403 0.405 1.789 0.152L1.84 0C3.783 0.203 6.339 1.115 7.412 1.773C7.872 1.621 8.383 1.621 9.252 1.52C9.252 1.52 9.099 2.026 8.179 2.685C8.435 3.293 7.872 6.789 7.361 7.7C7.361 6.282 7.259 4.458 6.696 3.648Z" fill="url(#g90)" fill-rule="nonzero" transform="matrix(1 0 0 1 20.2971 20.533)"/><path d="M5.265 5.269L5.316 5.117C4.55 4.813 3.783 4.61 3.169 4.002C3.374 3.445 3.578 3.04 3.936 2.533L3.987 2.381C3.323 2.482 2.76 2.736 2.198 2.837C1.738 2.077 1.585 1.013 1.329 0L1.329 0.101C1.227 1.267 1.176 2.077 1.329 2.989C0.869 3.141 0.46 3.141 0.051 3.293L0 3.445C0.613 3.8 1.073 4.104 1.789 4.407C2.147 5.167 2.556 5.725 3.169 6.333L3.22 6.181C3.118 5.725 2.965 5.37 3.016 4.863C3.783 5.117 4.396 5.218 5.265 5.269Z" fill="url(#g91)" fill-rule="nonzero" transform="matrix(1 0 0 1 11.2492 31.3744)"/><path d="M5.776 0C5.776 0 5.47 0.557 5.214 1.267L5.163 1.267C6.952 1.52 8.639 2.229 9.048 2.482L8.997 2.634C7.157 2.33 6.185 2.33 5.47 2.432C4.805 2.482 4.652 2.584 4.652 2.584C4.243 3.445 4.038 4.863 3.936 5.37L3.885 5.522C3.527 4.711 3.067 3.09 3.067 3.09C2.147 3.597 0 5.573 0 5.573C1.176 3.242 2.403 2.178 2.403 2.178C1.994 1.773 0.92 1.57 0.102 1.52L0.153 1.368C0.665 1.216 1.687 1.165 2.351 1.115C3.169 1.115 3.629 1.115 3.629 1.115C4.294 0.557 5.367 0.051 5.776 0Z" fill="url(#g92)" fill-rule="nonzero" transform="matrix(1 0 0 1 12.885 25.0925)"/><path d="M3.067 0.253C2.709 0.76 2.351 1.165 1.942 1.621C1.329 1.773 0.613 1.722 0.051 1.722L0 1.874C0.409 2.077 0.818 2.229 1.278 2.33C0.92 2.634 0.46 2.888 0.102 3.141L0.051 3.293C0.767 3.141 1.738 2.837 2.454 2.381C2.812 2.381 3.169 2.381 3.425 2.33L3.476 2.178C3.425 2.026 3.272 1.925 3.22 1.672C3.885 1.165 4.345 0.709 4.907 0.152L5.01 0C4.447 0.355 3.783 0.912 3.169 1.216C3.118 0.861 3.067 0.608 3.067 0.253Z" fill="url(#g93)" fill-rule="nonzero" transform="matrix(1 0 0 1 17.8435 34.9207)"/><path d="M6.645 3.496C5.214 4.306 4.754 4.407 3.22 5.319C4.141 4.357 4.447 3.952 5.01 3.09C3.578 3.141 1.482 3.344 0 3.648C1.278 2.938 3.885 2.178 5.214 2.026C4.907 1.621 2.351 0.304 1.687 0C3.681 0.152 6.185 0.912 7.361 1.621C7.821 1.469 8.332 1.469 9.201 1.368C8.997 1.773 8.997 2.026 8.128 2.584C8.383 3.192 7.821 6.687 7.31 7.599C7.31 6.13 7.157 4.306 6.645 3.496Z" fill="rgb(255,255,255)" fill-opacity="1.000" fill-rule="nonzero" transform="matrix(1 0 0 1 20.4505 20.533)"/><path d="M5.265 5.167C4.447 4.863 3.834 4.509 3.22 3.901C3.425 3.344 3.629 2.938 3.987 2.432C3.323 2.533 2.812 2.584 2.249 2.736C1.738 1.874 1.534 1.064 1.329 0C1.176 1.165 1.176 1.976 1.329 2.888C0.818 3.04 0.409 3.141 0 3.344C0.613 3.698 1.125 4.002 1.789 4.306C2.147 5.066 2.556 5.623 3.169 6.231C3.016 5.725 2.965 5.319 3.067 4.762C3.732 5.015 4.396 5.117 5.265 5.167Z" fill="rgb(255,255,255)" fill-opacity="1.000" fill-rule="nonzero" transform="matrix(1 0 0 1 11.3514 31.3238)"/><path d="M5.827 0C5.572 0.355 5.265 0.963 5.214 1.216C7.31 1.52 9.048 2.584 9.048 2.584C7.208 2.28 6.236 2.28 5.521 2.381C4.856 2.432 4.703 2.533 4.703 2.533C4.192 3.597 3.885 5.471 3.885 5.471C3.527 4.661 3.067 3.04 3.067 3.04C2.147 3.546 0 5.522 0 5.522C1.176 3.192 2.403 2.128 2.403 2.128C1.994 1.722 0.92 1.52 0.102 1.469C0.511 1.317 1.585 1.115 2.403 1.064C3.22 1.064 3.681 1.064 3.681 1.064C4.345 0.557 5.419 0.051 5.827 0Z" fill="rgb(255,255,255)" fill-opacity="1.000" fill-rule="nonzero" transform="matrix(1 0 0 1 12.9361 24.9405)"/><path d="M3.118 0.101C2.76 0.608 2.403 1.013 1.994 1.469C1.278 1.672 0.716 1.722 0 1.722C0.409 1.925 0.818 2.077 1.278 2.178C0.818 2.584 0.46 2.837 0 3.141C0.716 2.989 1.687 2.685 2.403 2.229C2.76 2.229 3.118 2.229 3.374 2.178C3.323 1.976 3.272 1.824 3.22 1.52C3.885 1.013 4.396 0.557 4.907 0C4.294 0.405 3.783 0.709 3.118 1.013C3.118 0.709 3.118 0.456 3.118 0.101Z" fill="rgb(255,255,255)" fill-opacity="1.000" fill-rule="nonzero" transform="matrix(1 0 0 1 17.8946 34.9207)"/><path d="M2.914 0.912C4.498 0.912 5.061 1.216 5.061 2.077C5.061 2.33 5.01 2.533 4.856 2.685C4.55 3.04 3.987 3.242 3.22 3.192L3.169 3.192L2.709 4.306L3.169 4.306C4.038 4.306 4.805 4.559 5.163 5.015C5.316 5.218 5.419 5.471 5.419 5.725C5.419 6.586 4.652 7.042 3.118 7.042C2.863 7.042 2.454 7.042 2.198 7.042C2.147 5.877 2.147 4.256 2.147 3.8C2.147 3.242 2.198 2.026 2.198 0.963C2.351 0.912 2.658 0.912 2.914 0.912ZM0.051 0.101C0.102 0.912 0.153 3.04 0.153 3.8C0.153 4.509 0.153 6.89 0.051 7.903L0.051 8.004L3.732 8.004C5.572 8.004 7.514 7.447 7.514 5.826C7.514 4.813 6.748 4.053 5.367 3.648C6.39 3.394 7.105 2.685 7.105 1.874C7.105 0.557 5.572 0.051 4.141 0L0 0L0.051 0.101Z" fill="rgb(0,0,0)" fill-opacity="1.000" fill-rule="nonzero" transform="matrix(1 0 0 1 37.984 25.4978)"/><path d="M7.054 0L5.214 0L5.265 2.026C5.316 3.04 5.316 4.053 5.419 5.015C5.316 4.711 5.214 4.559 4.652 3.749C4.652 3.698 2.76 0.811 2.096 0L0 0L0 0.101C0.051 0.912 0.102 3.04 0.102 3.8C0.102 4.509 0.102 6.89 0 7.903L0 8.004L1.891 8.004L1.891 7.903C1.789 5.978 1.789 4.002 1.789 2.077C1.84 2.33 1.942 2.482 2.249 2.938C2.249 2.989 5.521 7.65 5.674 7.954L5.674 8.004L7.208 8.004L7.208 7.903C7.105 6.89 7.105 4.509 7.105 3.8C7.105 3.04 7.157 0.912 7.208 0.101L7.208 0.051L7.054 0.051L7.054 0Z" fill="rgb(0,0,0)" fill-opacity="1.000" fill-rule="nonzero" transform="matrix(1 0 0 1 47.0831 25.4978)"/><path d="M2.76 0.963C3.834 0.963 4.55 1.165 4.907 1.57C5.061 1.773 5.163 2.026 5.163 2.28C5.163 3.445 3.834 3.698 2.76 3.698L2.3 3.698C2.3 3.698 2.198 3.698 2.096 3.698C2.096 3.445 2.096 3.09 2.096 2.685C2.096 2.178 2.096 1.57 2.096 1.013C2.249 1.013 2.505 0.963 2.76 0.963ZM0 0.101C0.051 0.912 0.102 3.04 0.102 3.8C0.102 4.509 0.102 6.89 0 7.903L0 8.004L2.249 8.004L2.249 7.903C2.198 7.143 2.147 5.775 2.147 4.711C2.249 4.711 2.556 4.711 2.556 4.711L2.863 4.711C5.827 4.711 7.259 3.952 7.259 2.33C7.259 0.456 5.265 0.051 3.578 0L0.051 0L0.051 0.101" fill="rgb(0,0,0)" fill-opacity="1.000" fill-rule="nonzero" transform="matrix(1 0 0 1 56.3355 25.4978)"/><path d="M2.76 0.963C3.834 0.963 4.55 1.165 4.907 1.57C5.061 1.773 5.163 2.026 5.163 2.28C5.163 3.445 3.834 3.698 2.76 3.698L2.3 3.698C2.3 3.698 2.198 3.698 2.096 3.698C2.096 3.445 2.096 3.09 2.096 2.685C2.096 2.178 2.096 1.57 2.096 1.013C2.249 1.013 2.505 0.963 2.76 0.963ZM0 0.101C0.051 0.912 0.102 3.04 0.102 3.8C0.102 4.509 0.102 6.89 0 7.903L0 8.004L2.249 8.004L2.249 7.903C2.198 7.143 2.147 5.775 2.147 4.711C2.249 4.711 2.556 4.711 2.556 4.711L2.863 4.711C5.827 4.711 7.259 3.952 7.259 2.33C7.259 0.456 5.214 0.051 3.527 0L0 0L0 0.101Z" fill="rgb(0,0,0)" fill-opacity="1.000" fill-rule="nonzero" transform="matrix(1 0 0 1 67.8371 25.4978)"/><path d="M4.192 2.381C4.345 2.786 4.856 3.8 5.367 5.066C5.265 5.066 5.163 5.066 5.163 5.066L4.192 5.066C4.192 5.066 3.169 5.066 3.016 5.066C3.425 4.053 3.834 3.141 4.192 2.381ZM3.629 0C3.169 1.165 0.46 6.991 0.051 7.903L0 8.004L1.891 8.004L1.891 7.954C2.045 7.396 2.3 6.789 2.556 6.13C2.658 6.13 4.141 6.13 4.141 6.13L5.47 6.13C5.47 6.13 5.674 6.13 5.725 6.13C6.083 6.991 6.339 7.65 6.441 7.954L6.441 8.004L8.639 8.004L5.061 0L5.112 0L3.629 0Z" fill="rgb(0,0,0)" fill-opacity="1.000" fill-rule="nonzero" transform="matrix(1 0 0 1 74.4313 25.4978)"/><path d="M0 0.101C0.051 0.912 0.102 3.04 0.102 3.8C0.102 4.509 0.102 6.89 0 7.903L0 8.004L2.249 8.004L2.249 7.903C2.147 6.89 2.096 4.509 2.096 3.8C2.096 3.242 2.096 2.026 2.147 1.013C2.3 1.013 2.556 0.963 2.76 0.963C3.783 0.963 4.55 1.165 4.907 1.57C5.061 1.773 5.163 2.026 5.163 2.28C5.163 3.192 4.294 3.648 3.476 3.698C3.22 3.698 3.016 3.698 3.016 3.698L2.863 3.648L2.965 3.8C3.783 4.965 4.958 6.941 5.47 7.903L5.47 7.954L7.872 7.954L7.821 7.852C7.719 7.7 6.134 5.421 5.47 4.458L5.419 4.407C6.645 4.053 7.259 3.344 7.259 2.33C7.259 0.507 5.265 0.051 3.527 0L0 0L0 0.101Z" fill="rgb(0,0,0)" fill-opacity="1.000" fill-rule="nonzero" transform="matrix(1 0 0 1 84.0415 25.4978)"/><path d="M2.147 0L0 0L0 0.051C0.051 0.861 0.102 2.989 0.102 3.749C0.102 4.458 0.102 6.839 0 7.852L0 7.954L2.249 7.954L2.249 7.852C2.147 6.839 2.147 4.458 2.147 3.749C2.147 2.989 2.198 0.861 2.249 0.051L2.249 0L2.147 0Z" fill="rgb(0,0,0)" fill-opacity="1.000" fill-rule="nonzero" transform="matrix(1 0 0 1 92.9361 25.4978)"/><path d="M2.863 0.912C4.447 0.912 5.01 1.216 5.01 2.077C5.01 2.33 4.958 2.533 4.805 2.685C4.498 3.04 3.936 3.242 3.169 3.192L3.118 3.192L2.709 4.306L3.118 4.306C3.987 4.306 4.703 4.559 5.112 5.015C5.316 5.218 5.367 5.471 5.367 5.725C5.367 6.586 4.601 7.042 3.016 7.042C2.76 7.042 2.351 7.042 2.096 7.042C2.045 5.877 2.045 4.256 2.045 3.8C2.045 3.242 2.045 2.026 2.096 0.963C2.3 0.912 2.607 0.912 2.863 0.912ZM0 0.101C0.051 0.912 0.102 3.04 0.102 3.8C0.102 4.509 0.102 6.89 0 7.903L0 8.004L3.732 8.004C5.572 8.004 7.514 7.447 7.514 5.826C7.514 4.813 6.748 4.053 5.367 3.648C6.39 3.394 7.105 2.685 7.105 1.874C7.105 0.557 5.572 0.051 4.141 0L0 0L0 0.101Z" fill="rgb(0,0,0)" fill-opacity="1.000" fill-rule="nonzero" transform="matrix(1 0 0 1 97.1789 25.4978)"/><path d="M4.141 2.33C4.345 2.685 4.805 3.749 5.316 5.015C5.214 5.015 5.163 5.015 5.163 5.015L4.192 5.015C4.192 5.015 3.169 5.015 3.016 5.015C3.374 4.053 3.783 3.141 4.141 2.33ZM5.061 0L3.578 0L3.578 0.051C3.118 1.267 0.307 7.396 0.051 7.903L0 8.004L1.942 8.004L1.942 7.954C2.096 7.396 2.3 6.789 2.556 6.13C2.607 6.13 4.141 6.13 4.141 6.13L5.47 6.13L5.725 6.13C6.083 6.991 6.339 7.65 6.441 7.954L6.441 8.004L8.639 8.004L5.061 0Z" fill="rgb(0,0,0)" fill-opacity="1.000" fill-rule="nonzero" transform="matrix(1 0 0 1 105.1022 25.4978)"/><path d="M0 2.482C0 3.901 1.431 4.458 2.658 4.965C3.629 5.37 4.652 5.775 4.652 6.434C4.652 6.637 4.601 6.789 4.498 6.941C4.243 7.194 3.783 7.346 3.016 7.295C2.249 7.244 1.431 7.042 0.46 6.586L0.102 6.383L0.102 6.687L0.102 8.106L0.358 8.156L0.511 8.156C0.971 8.258 1.891 8.46 2.76 8.46C5.112 8.46 6.543 7.548 6.543 5.978C6.543 4.509 5.112 3.952 3.783 3.445C2.811 3.04 1.84 2.685 1.84 2.077C1.84 1.874 1.84 1.368 3.067 1.368C3.987 1.368 4.856 1.722 5.367 1.925L5.827 2.128L5.827 1.824L5.827 0.355L5.367 0.253C4.907 0.152 4.141 0 3.374 0C1.329 0.101 0 1.064 0 2.482Z" fill="rgb(0,0,0)" fill-opacity="1.000" fill-rule="nonzero" transform="matrix(1 0 0 1 114.4569 25.0925)"/></svg>