<svg xmlns="http://www.w3.org/2000/svg" viewBox="0 0 60 60" width="60" height="60"><path d="M0 0L60 0L60 60L0 60L0 0Z" fill="rgb(18,90,158)" fill-opacity="1.000" fill-rule="nonzero" transform="matrix(1 0 0 1 0 0)"/><path d="M0 8.046L3.763 8.046C5.15 8.068 6.671 7.708 6.671 6.029C6.671 5.308 6.242 4.722 5.612 4.406C6.468 4.158 6.997 3.414 6.997 2.502C6.997 0.586 5.589 0 3.865 0L0 0L0 8.046ZM2.096 4.879L3.718 4.879C4.079 4.879 4.575 5.071 4.575 5.645C4.575 6.231 4.158 6.423 3.718 6.423L2.096 6.423L2.096 4.879ZM2.096 1.679L3.775 1.679C4.44 1.679 4.902 1.916 4.902 2.58C4.902 3.29 4.406 3.527 3.775 3.527L2.096 3.527L2.096 1.679Z" fill="rgb(255,255,255)" fill-opacity="1.000" fill-rule="nonzero" transform="matrix(1 0 0 -1 6 32.0468)"/><path d="M3.076 6.186C4.89 6.186 6.164 4.845 6.164 3.087C6.164 1.329 4.89 0 3.076 0C1.262 0 0 1.329 0 3.087C0 4.845 1.262 6.186 3.076 6.186ZM3.076 1.464C3.966 1.464 4.248 2.344 4.248 3.087C4.248 3.831 3.966 4.721 3.076 4.721C2.185 4.721 1.915 3.831 1.915 3.087C1.915 2.344 2.185 1.464 3.076 1.464Z" fill="rgb(255,255,255)" fill-opacity="1.000" fill-rule="nonzero" transform="matrix(1 0 0 -1 13.6339 32.2155)"/><path d="M0.236 4.214C0.27 4.98 0.631 5.476 1.149 5.78C1.667 6.073 2.344 6.186 3.008 6.186C4.394 6.186 5.735 5.882 5.735 4.225L5.735 1.668C5.735 1.171 5.735 0.63 5.961 0.169L4.033 0.169C3.966 0.349 3.944 0.529 3.921 0.721C3.425 0.203 2.693 0 1.994 0C0.879 0 0 0.563 0 1.769C0 3.673 2.073 3.526 3.403 3.797C3.73 3.865 3.91 3.977 3.91 4.338C3.91 4.777 3.38 4.947 2.986 4.947C2.456 4.947 2.118 4.71 2.029 4.214L0.236 4.214ZM2.715 1.183C3.628 1.183 3.932 1.701 3.887 2.907C3.617 2.738 3.121 2.704 2.704 2.592C2.276 2.49 1.915 2.31 1.915 1.848C1.915 1.375 2.287 1.183 2.715 1.183Z" fill="rgb(255,255,255)" fill-opacity="1.000" fill-rule="nonzero" transform="matrix(1 0 0 -1 20.2919 32.2154)"/><path d="M4.946 0L2.535 0L0 8.046L2.186 8.046L3.764 2.063L3.786 2.063L5.364 8.046L7.549 8.046L4.946 0Z" fill="rgb(255,255,255)" fill-opacity="1.000" fill-rule="nonzero" transform="matrix(1 0 0 -1 26.6131 32.0469)"/><path d="M1.916 6.581L0 6.581L0 8.046L1.916 8.046L1.916 6.581ZM0 5.849L1.916 5.849L1.916 0L0 0L0 5.849Z" fill="rgb(255,255,255)" fill-opacity="1.000" fill-rule="nonzero" transform="matrix(1 0 0 -1 34.6651 32.0469)"/><path d="M1.825 2.096C1.825 1.803 1.949 1.589 2.14 1.442C2.321 1.307 2.58 1.239 2.85 1.239C3.222 1.239 3.752 1.397 3.752 1.859C3.752 2.31 3.155 2.4 2.817 2.479C1.611 2.783 0.101 2.817 0.101 4.394C0.101 5.803 1.622 6.186 2.772 6.186C4.056 6.186 5.397 5.738 5.465 4.217L3.695 4.217C3.695 4.465 3.606 4.699 3.448 4.8C3.29 4.901 3.076 4.947 2.839 4.947C2.524 4.947 2.017 4.913 2.017 4.507C2.017 3.955 3.301 3.853 4.18 3.662C5.363 3.425 5.668 2.569 5.668 2.085C5.668 0.518 4.18 0 2.862 0C1.476 0 0.056 0.462 0 2.096L1.825 2.096Z" fill="rgb(255,255,255)" fill-opacity="1.000" fill-rule="nonzero" transform="matrix(1 0 0 -1 37.4465 32.2156)"/><path d="M4.068 4.104L2.885 4.104L2.885 2.006C2.885 1.544 3.155 1.442 3.572 1.442C3.73 1.442 3.899 1.465 4.068 1.465L4.068 0.057C3.718 0.045 3.369 0 3.02 0C1.386 0 0.969 0.474 0.969 2.062L0.969 4.104L0 4.104L0 5.584L0.969 5.584L0.969 7.389L2.885 7.389L2.885 5.584L4.068 5.584L4.068 4.104Z" fill="rgb(255,255,255)" fill-opacity="1.000" fill-rule="nonzero" transform="matrix(1 0 0 -1 43.3661 32.1032)"/><path d="M0.237 4.214C0.271 4.98 0.631 5.476 1.149 5.78C1.667 6.073 2.344 6.186 3.009 6.186C4.395 6.186 5.735 5.882 5.735 4.225L5.735 1.668C5.735 1.171 5.735 0.63 5.961 0.169L4.034 0.169C3.966 0.349 3.944 0.529 3.921 0.721C3.426 0.203 2.693 0 1.994 0C0.879 0 0 0.563 0 1.769C0 3.673 2.073 3.526 3.403 3.797C3.729 3.865 3.91 3.977 3.91 4.338C3.91 4.777 3.38 4.947 2.986 4.947C2.456 4.947 2.118 4.71 2.028 4.214L0.237 4.214ZM2.716 1.183C3.628 1.183 3.932 1.701 3.887 2.907C3.617 2.738 3.122 2.704 2.704 2.592C2.276 2.49 1.915 2.31 1.915 1.848C1.915 1.375 2.287 1.183 2.716 1.183Z" fill="rgb(255,255,255)" fill-opacity="1.000" fill-rule="nonzero" transform="matrix(1 0 0 -1 47.8817 32.2154)"/><path d="M33.188 2.174C30.09 2.175 2.239 2.18 1.82 2.176C1.717 2.176 1.588 2.169 1.448 2.149C0.84 2.062 0 1.715 0.001 0.47L0 0L0.782 0L32.452 0L32.454 0.389C32.453 1.158 32.713 1.767 33.188 2.174" fill="rgb(0,166,80)" fill-opacity="1.000" fill-rule="nonzero" transform="matrix(1 0 0 -1 6.0166 36.2885)"/><path d="M1.809 2.178C1.675 2.178 1.543 2.168 1.416 2.149C0.731 2.047 0.295 1.712 0.108 1.155C0.086 1.09 0.07 1.018 0.055 0.945C0.023 0.792 0.001 0.628 0.001 0.446L0 0.005C0 0.005 12.469 -0.003 12.888 0.001C12.992 0.001 13.119 0.009 13.26 0.029C13.869 0.119 14.708 0.477 14.707 1.768L14.708 2.176C10.16 2.178 2.223 2.181 1.809 2.178" fill="rgb(252,210,5)" fill-opacity="1.000" fill-rule="nonzero" transform="matrix(1 0 0 -1 39.1509 36.2937)"/></svg>