<svg xmlns="http://www.w3.org/2000/svg" viewBox="0 0 130 60" width="130" height="60"><path d="M0 0L130 0L130 60L0 60L0 0Z" fill="rgb(255,255,255)" fill-opacity="1.000" fill-rule="nonzero" transform="matrix(1 0 0 1 0 0)"/><path d="M17.131 8.556L13.68 19.07L21.427 19.066L11.727 41.773L31.79 14.812L24.051 14.802L27.185 6.972C27.191 6.949 27.198 6.925 27.206 6.899C27.57 5.812 27.806 3.432 26.209 1.749C24.611 0.068 22.697 0.058 21.539 0L20.134 0L7.566 0C5.481 0 3.589 0.851 2.22 2.221C0.851 3.591 0 5.486 0 7.573L0 26.352C0 28.439 0.851 30.333 2.22 31.704C3.589 33.075 5.481 33.925 7.566 33.925L12.451 33.925L15.852 25.369L8.549 25.369L8.549 8.556L17.131 8.556Z" fill="rgb(91,196,190)" fill-opacity="1.000" fill-rule="evenodd" transform="matrix(1 0 0 1 11.9989 9.0006)"/><path d="M12.267 9.735L12.267 9.568C14.85 9.344 15.845 7.95 15.845 5.189C15.845 1.227 13.914 0.167 8.461 0.167C4.713 0.167 2.527 0.195 0 0.391L0 19.638C2.783 19.833 5.168 19.86 9.398 19.86C14.311 19.86 16.497 18.801 16.497 14.84C16.497 11.771 15.39 9.986 12.267 9.735ZM9.967 6.053C9.967 7.559 9.626 7.894 8.207 7.894L6.02 7.894L6.02 4.268L8.149 4.268C9.626 4.268 9.967 4.575 9.967 6.053ZM8.291 15.76L6.02 15.76L6.02 11.437L8.263 11.437C9.995 11.437 10.364 11.827 10.364 13.613C10.364 15.369 9.995 15.76 8.291 15.76ZM27.288 0C20.586 0 18.173 2.092 18.173 10.014C18.173 17.936 20.586 20.028 27.288 20.028C34.017 20.028 36.43 17.936 36.43 10.014C36.43 2.092 34.017 0 27.288 0ZM27.288 4.491C29.389 4.491 29.928 5.551 29.928 10.014C29.928 14.477 29.389 15.537 27.288 15.537C25.186 15.537 24.647 14.477 24.647 10.014C24.647 5.551 25.186 4.491 27.288 4.491ZM44.92 0.391L38.759 0.391L38.759 15.369C38.759 17.964 40.576 19.749 43.415 19.749C46.624 19.749 50.06 19.749 52.985 19.359L52.701 14.84L46.114 14.84C45.375 14.84 44.92 14.421 44.92 13.835L44.92 0.391ZM67.977 0.391L50.855 0.391L50.855 4.91L56.335 4.91L56.335 19.638L62.497 19.638L62.497 4.91L67.977 4.91L67.977 0.391Z" fill="rgb(0,75,136)" fill-opacity="1.000" fill-rule="nonzero" transform="matrix(1 0 0 1 50.0224 17.0962)"/></svg>