<svg xmlns="http://www.w3.org/2000/svg" viewBox="0 0 60 60" width="60" height="60"><path d="M0 0L60 0L60 60L0 60L0 0Z" fill="rgb(255,255,255)" fill-opacity="1.000" fill-rule="nonzero" transform="matrix(1 0 0 1 0 0)"/><path d="M17.131 8.556L13.68 19.07L21.427 19.066L11.727 41.773L31.79 14.812L24.051 14.802L27.185 6.972C27.191 6.949 27.198 6.925 27.206 6.899C27.57 5.812 27.806 3.432 26.209 1.749C24.611 0.068 22.697 0.058 21.539 0L20.134 0L7.566 0C5.481 0 3.589 0.851 2.22 2.221C0.851 3.591 0 5.486 0 7.573L0 26.352C0 28.439 0.851 30.333 2.22 31.704C3.589 33.075 5.481 33.925 7.566 33.925L12.451 33.925L15.852 25.369L8.549 25.369L8.549 8.556L17.131 8.556Z" fill="rgb(91,196,190)" fill-opacity="1.000" fill-rule="evenodd" transform="matrix(1 0 0 1 14 9)"/></svg>