<svg xmlns="http://www.w3.org/2000/svg" viewBox="0 0 130 60" width="130" height="60"><path d="M0 0L130 0L130 60L0 60L0 0Z" fill="rgb(255,255,255)" fill-opacity="1.000" fill-rule="nonzero" transform="matrix(1 0 0 1 0 0)"/><path d="M4.616 0.47C4.526 0.326 4.401 0.208 4.252 0.125C4.103 0.043 3.936 0 3.766 0L0.46 0C0.378 0 0.297 0.022 0.226 0.063C0.156 0.105 0.097 0.165 0.057 0.237C0.018 0.309 -0.002 0.39 0 0.472C0.003 0.554 0.027 0.634 0.071 0.703L8.25 13.74C8.595 14.289 8.778 14.925 8.778 15.574C8.778 16.223 8.595 16.859 8.25 17.409L0.071 30.444C0.027 30.514 0.003 30.594 0.001 30.676C-0.002 30.758 0.018 30.839 0.058 30.911C0.098 30.982 0.156 31.042 0.227 31.084C0.298 31.126 0.378 31.148 0.46 31.148L3.766 31.148C3.936 31.148 4.103 31.105 4.252 31.022C4.401 30.94 4.526 30.822 4.616 30.678L12.943 17.408C13.288 16.858 13.471 16.223 13.471 15.574C13.471 14.925 13.288 14.289 12.943 13.739L4.616 0.47Z" fill="rgb(255,170,14)" fill-opacity="1.000" fill-rule="nonzero" transform="matrix(1 0 0 1 43.3686 14.3765)"/><path d="M2.925 0.001C3.566 -0.008 4.207 0.057 4.834 0.192C5.381 0.321 5.839 0.524 6.207 0.804C6.501 1.03 6.735 1.324 6.89 1.66C7.054 2.035 7.133 2.441 7.124 2.849L7.124 3.129C7.132 3.588 7.024 4.042 6.811 4.449C6.602 4.84 6.272 5.146 5.821 5.368C6.414 5.531 6.893 5.822 7.258 6.241C7.624 6.661 7.806 7.226 7.805 7.937L7.805 8.182C7.805 9.243 7.476 10.035 6.818 10.559C6.414 10.873 5.898 11.103 5.268 11.249C4.639 11.395 3.881 11.468 2.993 11.468C2.596 11.468 2.185 11.459 1.759 11.441C1.333 11.424 0.962 11.402 0.648 11.379C0.379 11.356 0.205 11.291 0.123 11.185C0.04 11.08 0 10.894 0 10.626L0 0.874C0 0.606 0.043 0.426 0.131 0.332C0.219 0.239 0.379 0.175 0.612 0.141C0.938 0.094 1.297 0.059 1.688 0.035C2.082 0.012 2.493 0.001 2.925 0.001ZM3.24 1.801L2.768 1.801C2.639 1.801 2.517 1.807 2.4 1.819C2.271 1.83 2.208 1.917 2.208 2.079L2.208 4.738L3.048 4.738C3.619 4.738 4.074 4.633 4.413 4.425C4.75 4.216 4.921 3.834 4.921 3.277L4.921 3.068C4.921 2.64 4.786 2.322 4.518 2.113C4.25 1.906 3.824 1.801 3.24 1.801ZM5.602 7.957C5.608 7.72 5.557 7.486 5.453 7.274C5.358 7.088 5.223 6.926 5.059 6.798C4.867 6.663 4.65 6.569 4.42 6.521C4.112 6.458 3.798 6.429 3.483 6.435L2.206 6.435L2.206 9.324C2.201 9.393 2.216 9.462 2.25 9.522C2.278 9.563 2.346 9.595 2.45 9.618C2.758 9.657 3.068 9.675 3.378 9.67C3.724 9.676 4.07 9.647 4.41 9.583C4.653 9.536 4.885 9.442 5.092 9.306C5.43 9.064 5.6 8.684 5.6 8.165L5.6 7.957L5.602 7.957Z" fill="rgb(0,50,101)" fill-opacity="1.000" fill-rule="nonzero" transform="matrix(1 0 0 1 61.5997 17.8774)"/><path d="M3.65 0C4.31 0 4.863 0.087 5.31 0.262C5.736 0.423 6.115 0.687 6.412 1.032C6.745 1.423 6.981 1.887 7.099 2.387C7.239 2.974 7.306 3.576 7.299 4.179L7.299 4.704C7.308 5.31 7.24 5.915 7.099 6.504C6.98 7.001 6.745 7.463 6.412 7.851C6.106 8.188 5.725 8.448 5.299 8.612C4.848 8.792 4.297 8.882 3.649 8.883C3 8.883 2.45 8.793 1.998 8.612C1.572 8.45 1.191 8.189 0.887 7.851C0.555 7.462 0.319 7.001 0.2 6.504C0.06 5.915 -0.007 5.31 0.001 4.704L0.001 4.179C-0.006 3.576 0.061 2.974 0.2 2.387C0.317 1.887 0.553 1.423 0.887 1.032C1.185 0.689 1.564 0.424 1.989 0.262C2.436 0.088 2.99 0 3.65 0ZM3.65 7.255C3.966 7.255 4.21 7.214 4.38 7.131C4.554 7.047 4.707 6.926 4.829 6.777C4.982 6.576 5.084 6.302 5.136 5.954C5.196 5.511 5.222 5.064 5.216 4.617L5.216 4.245C5.222 3.801 5.196 3.358 5.136 2.918C5.083 2.576 4.98 2.304 4.829 2.103C4.712 1.947 4.558 1.822 4.38 1.74C4.21 1.664 3.966 1.625 3.65 1.625C3.333 1.625 3.09 1.664 2.92 1.74C2.742 1.822 2.588 1.947 2.471 2.103C2.318 2.304 2.215 2.575 2.162 2.918C2.103 3.358 2.076 3.801 2.083 4.245L2.083 4.617C2.077 5.064 2.103 5.511 2.162 5.954C2.216 6.302 2.319 6.577 2.471 6.777C2.593 6.926 2.746 7.047 2.92 7.131C3.09 7.214 3.333 7.255 3.65 7.255Z" fill="rgb(0,50,101)" fill-opacity="1.000" fill-rule="nonzero" transform="matrix(1 0 0 1 70.8563 20.6228)"/><path d="M7.178 8.289C7.178 8.463 7.146 8.58 7.081 8.638C7.016 8.697 6.886 8.726 6.687 8.726L5.585 8.726C5.386 8.726 5.254 8.697 5.191 8.639C5.126 8.581 5.094 8.465 5.094 8.29L5.094 3.425C5.101 3.144 5.074 2.863 5.015 2.588C4.969 2.39 4.869 2.209 4.726 2.064C4.596 1.936 4.437 1.84 4.263 1.785C4.038 1.721 3.805 1.692 3.571 1.698C3.046 1.698 2.673 1.803 2.452 2.012C2.33 2.125 2.237 2.266 2.18 2.422C2.115 2.59 2.083 2.855 2.084 3.215L2.084 8.289C2.084 8.463 2.052 8.58 1.987 8.638C1.922 8.695 1.791 8.724 1.593 8.724L0.491 8.724C0.292 8.724 0.162 8.695 0.097 8.636C0.032 8.579 0 8.462 0 8.287L0 0.561C0 0.293 0.14 0.159 0.42 0.159L1.068 0.159C1.219 0.159 1.328 0.179 1.391 0.221C1.455 0.262 1.499 0.347 1.522 0.477L1.61 0.901L1.662 0.901C1.925 0.63 2.237 0.412 2.582 0.257C2.95 0.086 3.436 0 4.043 0C4.674 0 5.204 0.091 5.636 0.271C6.075 0.457 6.447 0.77 6.704 1.171C6.909 1.494 7.041 1.858 7.09 2.237C7.149 2.66 7.178 3.086 7.178 3.513L7.178 8.289L7.178 8.289Z" fill="rgb(0,50,101)" fill-opacity="1.000" fill-rule="nonzero" transform="matrix(1 0 0 1 79.9543 20.62)"/><path d="M6.999 5.876C6.999 6.47 6.917 6.946 6.754 7.3C6.592 7.655 6.33 7.955 6.002 8.165C5.668 8.376 5.296 8.521 4.908 8.593C4.45 8.684 3.984 8.728 3.517 8.725C3.039 8.729 2.561 8.688 2.091 8.602C1.7 8.535 1.327 8.386 0.997 8.165C0.676 7.949 0.419 7.65 0.254 7.3C0.085 6.946 0 6.47 0 5.876L0 0.439C0 0.264 0.032 0.147 0.097 0.088C0.16 0.03 0.292 0 0.491 0L1.593 0C1.791 0 1.922 0.029 1.987 0.086C2.051 0.144 2.084 0.259 2.084 0.434L2.084 5.622C2.084 5.923 2.116 6.154 2.181 6.315C2.238 6.468 2.338 6.601 2.469 6.697C2.605 6.792 2.76 6.855 2.924 6.879C3.121 6.91 3.32 6.924 3.519 6.922C3.72 6.924 3.922 6.909 4.122 6.879C4.284 6.858 4.437 6.795 4.568 6.697C4.698 6.603 4.793 6.469 4.839 6.315C4.899 6.089 4.926 5.856 4.918 5.622L4.918 0.436C4.918 0.263 4.95 0.147 5.015 0.088C5.079 0.031 5.21 0.002 5.409 0.002L6.512 0.002C6.709 0.002 6.841 0.031 6.906 0.09C6.969 0.149 7.002 0.264 7.002 0.44L7.002 5.876L6.999 5.876Z" fill="rgb(0,50,101)" fill-opacity="1.000" fill-rule="nonzero" transform="matrix(1 0 0 1 89.0584 20.7782)"/><path d="M3.022 8.879C2.546 8.877 2.071 8.834 1.603 8.747C1.161 8.673 0.728 8.546 0.315 8.371C0.151 8.313 0.052 8.249 0.017 8.179C0.005 8.14 -0.001 8.098 0 8.057C0.002 7.986 0.014 7.915 0.035 7.846L0.227 6.99C0.273 6.793 0.372 6.693 0.524 6.693C0.589 6.694 0.654 6.706 0.716 6.728C1.066 6.864 1.426 6.972 1.794 7.051C2.139 7.132 2.492 7.176 2.847 7.182C3.079 7.186 3.311 7.171 3.541 7.139C3.697 7.117 3.845 7.06 3.976 6.973C4.172 6.844 4.27 6.618 4.27 6.291L4.27 6.168C4.27 5.889 4.192 5.691 4.036 5.574C3.88 5.458 3.622 5.354 3.264 5.26L2.222 5.015C1.792 4.921 1.463 4.815 1.237 4.692C1.014 4.574 0.814 4.417 0.645 4.229C0.286 3.845 0.106 3.308 0.107 2.621L0.107 2.464C0.107 1.986 0.174 1.602 0.31 1.31C0.442 1.024 0.64 0.772 0.887 0.577C1.165 0.365 1.486 0.216 1.827 0.14C2.205 0.046 2.69 0 3.281 0C3.729 0 4.177 0.035 4.619 0.105C4.972 0.153 5.319 0.235 5.657 0.35C5.786 0.396 5.863 0.447 5.887 0.499C5.911 0.551 5.911 0.641 5.887 0.77L5.672 1.749C5.648 1.877 5.597 1.956 5.519 1.985C5.422 2.014 5.319 2.011 5.224 1.976C4.668 1.804 4.09 1.71 3.508 1.697C2.964 1.697 2.607 1.762 2.432 1.888C2.27 2.005 2.189 2.191 2.189 2.448L2.189 2.57C2.189 2.838 2.27 3.022 2.432 3.121C2.632 3.234 2.849 3.314 3.074 3.357L4.151 3.602C5.009 3.801 5.612 4.116 5.959 4.547C6.1 4.741 6.204 4.961 6.263 5.194C6.326 5.457 6.356 5.727 6.353 5.998L6.353 6.209C6.353 7.013 6.116 7.643 5.644 8.097C5.078 8.616 4.204 8.879 3.022 8.879Z" fill="rgb(0,50,101)" fill-opacity="1.000" fill-rule="nonzero" transform="matrix(1 0 0 1 97.6468 20.6242)"/><path d="M2.206 11.029C2.206 11.218 2.178 11.337 2.118 11.391C2.059 11.444 1.932 11.47 1.733 11.47L0.473 11.47C0.274 11.47 0.147 11.444 0.088 11.391C0.029 11.339 0 11.219 0 11.032L0 0.84C0 0.572 0.043 0.389 0.131 0.289C0.219 0.19 0.379 0.129 0.612 0.106C1.007 0.055 1.404 0.026 1.802 0.018C2.257 0.007 2.753 0.001 3.29 0.001C3.949 -0.008 4.606 0.051 5.253 0.175C5.811 0.292 6.275 0.501 6.645 0.801C7.002 1.079 7.271 1.453 7.423 1.879C7.585 2.32 7.665 2.859 7.665 3.497L7.665 3.809C7.665 5.074 7.29 6.002 6.538 6.593C6.122 6.924 5.636 7.156 5.117 7.272C4.491 7.408 3.852 7.472 3.211 7.464L2.205 7.464L2.205 11.029L2.206 11.029ZM3.344 1.803L2.836 1.803C2.689 1.801 2.543 1.813 2.398 1.837C2.27 1.86 2.206 1.943 2.206 2.081L2.206 5.666L3.292 5.666C4.085 5.666 4.645 5.524 4.971 5.239C5.297 4.955 5.461 4.459 5.462 3.752L5.462 3.525C5.462 3.167 5.427 2.884 5.357 2.681C5.292 2.485 5.17 2.312 5.007 2.185C4.825 2.042 4.612 1.94 4.386 1.889C4.146 1.832 3.799 1.803 3.344 1.803L3.344 1.803Z" fill="rgb(255,170,14)" fill-opacity="1.000" fill-rule="nonzero" transform="matrix(1 0 0 1 61.6012 30.7446)"/><path d="M5.25 8.005C5.091 8.287 4.85 8.514 4.559 8.657C4.262 8.805 3.85 8.88 3.325 8.881L2.677 8.881C2.223 8.881 1.847 8.837 1.549 8.751C1.257 8.666 0.985 8.522 0.752 8.326C0.495 8.104 0.299 7.82 0.184 7.501C0.056 7.141 -0.006 6.762 0 6.381L0 5.981C0 5.043 0.245 4.371 0.735 3.966C1.003 3.734 1.347 3.569 1.767 3.472C2.267 3.365 2.778 3.315 3.289 3.323L3.918 3.323C4.082 3.323 4.247 3.326 4.418 3.332C4.586 3.338 4.747 3.346 4.898 3.358L4.898 2.872C4.898 2.427 4.799 2.119 4.599 1.951C4.461 1.85 4.302 1.782 4.134 1.752C3.886 1.71 3.635 1.692 3.385 1.697C3.033 1.7 2.681 1.73 2.334 1.788C1.961 1.845 1.593 1.93 1.232 2.04C1.093 2.089 0.991 2.086 0.927 2.034C0.853 1.962 0.807 1.866 0.797 1.763L0.641 0.943C0.607 0.792 0.604 0.679 0.633 0.603C0.662 0.528 0.753 0.466 0.904 0.419C1.302 0.297 1.708 0.201 2.119 0.131C2.589 0.045 3.066 0.002 3.543 0C4.175 0 4.678 0.044 5.051 0.131C5.413 0.214 5.757 0.359 6.069 0.559C6.376 0.77 6.616 1.064 6.761 1.407C6.907 1.75 6.98 2.237 6.981 2.867L6.981 8.391C6.981 8.613 6.858 8.723 6.613 8.723L5.807 8.723C5.573 8.723 5.433 8.62 5.387 8.416L5.282 8.006L5.25 8.006L5.25 8.005ZM4.901 4.982C4.748 4.971 4.584 4.962 4.408 4.956C4.231 4.951 4.055 4.948 3.879 4.948L3.263 4.948C3.083 4.946 2.904 4.961 2.727 4.992C2.587 5.012 2.456 5.071 2.348 5.161C2.172 5.304 2.084 5.594 2.084 6.03L2.084 6.244C2.084 6.623 2.172 6.888 2.348 7.042C2.435 7.11 2.533 7.161 2.638 7.193C2.796 7.24 2.959 7.261 3.123 7.255L3.757 7.255C4.168 7.255 4.462 7.161 4.637 6.971C4.813 6.782 4.901 6.48 4.901 6.066L4.901 4.982Z" fill="rgb(255,170,14)" fill-opacity="1.000" fill-rule="nonzero" transform="matrix(1 0 0 1 70.6656 33.4912)"/><path d="M7.3 7.856C7.031 7.447 6.675 7.101 6.259 6.843C6.595 6.557 6.856 6.194 7.02 5.785C7.205 5.347 7.298 4.795 7.298 4.13L7.298 3.588C7.298 2.701 7.171 1.966 6.918 1.382C6.706 0.895 6.319 0.532 5.756 0.288C5.753 0.287 5.752 0.287 5.749 0.285C5.118 0.058 4.335 0.004 3.805 0L3.651 0C3.584 0 3.518 0.001 3.453 0.003C3.396 0.004 3.339 0.006 3.283 0.009C3.275 0.009 3.267 0.009 3.26 0.01C3.241 0.01 3.224 0.012 3.205 0.013C2.869 0.031 2.535 0.08 2.208 0.157C1.804 0.251 1.424 0.43 1.095 0.682C0.72 0.975 0.432 1.365 0.261 1.809C0.087 2.258 0 2.849 0 3.584L0 4.125C0 4.778 0.081 5.34 0.244 5.813C0.397 6.271 0.68 6.675 1.059 6.974C1.375 7.221 1.735 7.405 2.12 7.516C2.514 7.633 3.023 7.691 3.648 7.691C3.869 7.692 4.089 7.681 4.309 7.656C4.503 7.633 4.664 7.61 4.792 7.587C5.319 7.901 5.582 8.356 5.582 8.949L5.582 9.072C5.584 9.24 5.564 9.408 5.521 9.571C5.476 9.723 5.388 9.86 5.269 9.964C5.091 10.123 4.875 10.231 4.642 10.279C4.333 10.342 4.017 10.371 3.701 10.366C3.221 10.363 2.743 10.304 2.276 10.19C1.815 10.085 1.364 9.939 0.93 9.753C0.886 9.731 0.838 9.718 0.789 9.715C0.74 9.712 0.691 9.719 0.645 9.736C0.559 9.771 0.494 9.859 0.448 9.999L0.207 10.786C0.184 10.841 0.172 10.9 0.172 10.96C0.172 11.135 0.283 11.263 0.502 11.345C1.05 11.543 1.611 11.701 2.181 11.816C2.721 11.929 3.272 11.988 3.824 11.991C4.589 11.991 5.212 11.927 5.693 11.799C6.174 11.671 6.565 11.474 6.866 11.207C7.112 10.996 7.313 10.738 7.456 10.447C7.595 10.162 7.664 9.781 7.664 9.304L7.664 9.147C7.67 8.691 7.544 8.242 7.3 7.856ZM5.215 3.986C5.216 4.31 5.192 4.634 5.145 4.955C5.112 5.223 5.009 5.479 4.846 5.695C4.72 5.834 4.558 5.935 4.378 5.987C4.139 6.045 3.894 6.071 3.648 6.065C3.051 6.065 2.657 5.942 2.469 5.696C2.305 5.495 2.196 5.255 2.153 4.999C2.1 4.664 2.077 4.325 2.082 3.986L2.082 3.669C2.079 3.342 2.103 3.015 2.153 2.691C2.189 2.428 2.298 2.181 2.469 1.978C2.563 1.86 2.716 1.772 2.927 1.714C3.162 1.652 3.405 1.622 3.648 1.625C4.188 1.625 4.587 1.742 4.846 1.978C5.009 2.142 5.111 2.374 5.153 2.674C5.196 3.004 5.217 3.336 5.215 3.669L5.215 3.986Z" fill="rgb(255,170,14)" fill-opacity="1.000" fill-rule="nonzero" transform="matrix(1 0 0 1 79.3105 33.4917)"/><path d="M3.65 0C4.31 0 4.863 0.087 5.31 0.262C5.736 0.423 6.115 0.687 6.412 1.032C6.745 1.423 6.981 1.887 7.099 2.387C7.238 2.974 7.305 3.576 7.298 4.179L7.298 4.704C7.306 5.31 7.239 5.914 7.099 6.504C6.98 7.001 6.745 7.462 6.412 7.85C6.106 8.187 5.725 8.448 5.299 8.612C4.848 8.792 4.297 8.882 3.649 8.883C3.001 8.883 2.45 8.792 1.998 8.612C1.572 8.45 1.191 8.189 0.887 7.85C0.554 7.462 0.319 7.001 0.2 6.504C0.06 5.914 -0.007 5.31 0.001 4.704L0.001 4.179C-0.006 3.576 0.061 2.974 0.2 2.387C0.317 1.887 0.553 1.423 0.887 1.032C1.185 0.688 1.564 0.424 1.989 0.262C2.436 0.087 2.99 -0.001 3.65 0ZM3.65 7.254C3.966 7.254 4.21 7.212 4.38 7.13C4.554 7.045 4.707 6.924 4.829 6.775C4.982 6.575 5.084 6.3 5.136 5.952C5.196 5.509 5.222 5.063 5.216 4.616L5.216 4.244C5.222 3.8 5.196 3.356 5.136 2.916C5.083 2.574 4.98 2.302 4.829 2.102C4.712 1.945 4.558 1.82 4.38 1.739C4.21 1.662 3.966 1.623 3.65 1.623C3.333 1.623 3.09 1.662 2.92 1.739C2.742 1.82 2.588 1.945 2.471 2.102C2.318 2.302 2.215 2.574 2.163 2.916C2.103 3.356 2.077 3.8 2.083 4.244L2.083 4.616C2.077 5.063 2.103 5.509 2.163 5.952C2.216 6.301 2.319 6.575 2.471 6.775C2.593 6.924 2.746 7.045 2.92 7.13C3.09 7.214 3.333 7.254 3.65 7.254Z" fill="rgb(255,170,14)" fill-opacity="1.000" fill-rule="nonzero" transform="matrix(1 0 0 1 88.1628 33.4916)"/><path d="M21.88 13.783L13.528 0.471C13.437 0.327 13.311 0.208 13.162 0.126C13.013 0.043 12.845 0 12.675 0L1.006 0C0.827 0 0.65 0.048 0.495 0.14C0.341 0.231 0.213 0.362 0.126 0.519C0.039 0.676 -0.004 0.853 0.001 1.033C0.005 1.212 0.058 1.387 0.154 1.54L7.835 13.783C8.181 14.334 8.364 14.972 8.364 15.623C8.364 16.274 8.181 16.911 7.835 17.463L0.154 29.706C0.058 29.858 0.005 30.033 0 30.213C-0.005 30.392 0.039 30.57 0.126 30.727C0.213 30.884 0.34 31.015 0.495 31.106C0.65 31.197 0.827 31.246 1.006 31.246L12.675 31.246C12.845 31.246 13.013 31.202 13.162 31.12C13.311 31.037 13.437 30.918 13.528 30.774L21.88 17.463C22.226 16.911 22.409 16.274 22.409 15.623C22.409 14.972 22.226 14.334 21.88 13.783ZM20.815 16.796L12.536 29.99L1.46 29.99L8.9 18.13C9.368 17.378 9.616 16.509 9.616 15.623C9.616 14.737 9.368 13.868 8.9 13.115L1.46 1.256L12.536 1.256L20.815 14.45C21.034 14.802 21.15 15.208 21.15 15.623C21.15 16.037 21.034 16.444 20.815 16.796Z" fill="rgb(0,50,101)" fill-opacity="1.000" fill-rule="nonzero" transform="matrix(1 0 0 1 25.0566 14.3781)"/></svg>