<svg xmlns="http://www.w3.org/2000/svg" viewBox="0 0 60 60" width="60" height="60"><path d="M0 0L60 0L60 60L0 60L0 0Z" fill="rgb(255,255,255)" fill-opacity="1.000" fill-rule="nonzero" transform="matrix(1 0 0 1 0 0)"/><path d="M4.616 0.47C4.526 0.326 4.401 0.208 4.252 0.125C4.103 0.043 3.936 0 3.766 0L0.46 0C0.378 0 0.297 0.022 0.226 0.063C0.156 0.105 0.097 0.165 0.057 0.237C0.018 0.309 -0.002 0.39 0 0.472C0.003 0.554 0.027 0.634 0.071 0.703L8.25 13.74C8.595 14.289 8.778 14.925 8.778 15.574C8.778 16.223 8.595 16.859 8.25 17.409L0.071 30.444C0.027 30.514 0.003 30.594 0.001 30.676C-0.002 30.758 0.018 30.839 0.058 30.911C0.098 30.982 0.156 31.042 0.227 31.084C0.298 31.126 0.378 31.148 0.46 31.148L3.766 31.148C3.936 31.148 4.103 31.105 4.252 31.022C4.401 30.94 4.526 30.822 4.616 30.678L12.943 17.408C13.288 16.858 13.471 16.223 13.471 15.574C13.471 14.925 13.288 14.289 12.943 13.739L4.616 0.47Z" fill="rgb(255,170,14)" fill-opacity="1.000" fill-rule="nonzero" transform="matrix(1 0 0 1 32.3119 14.3765)"/><path d="M21.88 13.783L13.528 0.471C13.437 0.327 13.311 0.208 13.162 0.126C13.013 0.043 12.845 0 12.675 0L1.006 0C0.827 0 0.65 0.048 0.495 0.14C0.341 0.231 0.213 0.362 0.126 0.519C0.039 0.676 -0.004 0.853 0.001 1.033C0.005 1.212 0.058 1.387 0.154 1.54L7.835 13.783C8.181 14.334 8.364 14.972 8.364 15.623C8.364 16.274 8.181 16.911 7.835 17.463L0.154 29.706C0.058 29.858 0.005 30.033 0 30.213C-0.005 30.392 0.039 30.57 0.126 30.727C0.213 30.884 0.34 31.015 0.495 31.106C0.65 31.197 0.827 31.246 1.006 31.246L12.675 31.246C12.845 31.246 13.013 31.202 13.162 31.12C13.311 31.037 13.437 30.918 13.528 30.774L21.88 17.463C22.226 16.911 22.409 16.274 22.409 15.623C22.409 14.972 22.226 14.334 21.88 13.783ZM20.815 16.796L12.536 29.99L1.46 29.99L8.9 18.13C9.368 17.378 9.616 16.509 9.616 15.623C9.616 14.737 9.368 13.868 8.9 13.115L1.46 1.256L12.536 1.256L20.815 14.45C21.034 14.802 21.15 15.208 21.15 15.623C21.15 16.037 21.034 16.444 20.815 16.796Z" fill="rgb(0,50,101)" fill-opacity="1.000" fill-rule="nonzero" transform="matrix(1 0 0 1 14 14.3781)"/></svg>