<svg xmlns="http://www.w3.org/2000/svg" viewBox="0 0 60 60" width="60" height="60"><path d="M0 0L60 0L60 60L0 60L0 0Z" fill="rgb(255,255,255)" fill-opacity="1.000" fill-rule="nonzero" transform="matrix(1 0 0 1 0 0)"/><path d="M22.643 32.088L19.915 33.653C19.525 33.849 19.525 34.045 19.525 34.436L19.525 44.413C19.525 44.804 19.72 45 19.915 45L22.643 45L22.643 32.088ZM27.709 29.154L24.201 31.11L24.007 31.11L24.007 44.609L27.904 44.609C28.111 44.609 28.309 44.526 28.455 44.38C28.601 44.233 28.683 44.034 28.683 43.826L28.683 29.741C28.722 29.615 28.718 29.48 28.671 29.357C28.625 29.234 28.538 29.13 28.426 29.063C28.314 28.995 28.182 28.967 28.052 28.984C27.922 29 27.801 29.06 27.709 29.154ZM22.253 9.591C19.376 9.568 16.505 9.831 13.679 10.373C15.192 8.399 17.141 6.805 19.373 5.719C21.606 4.632 24.059 4.082 26.54 4.113C30.334 4.113 34.027 5.348 37.062 7.634C37.452 8.026 37.842 8.221 38.231 7.83C38.314 7.756 38.381 7.666 38.426 7.565C38.472 7.464 38.495 7.354 38.495 7.243C38.495 7.132 38.472 7.022 38.426 6.921C38.381 6.82 38.314 6.73 38.231 6.656C36.488 4.522 34.284 2.814 31.785 1.662C29.287 0.509 26.56 -0.057 23.812 0.005C20.123 0.071 16.539 1.243 13.518 3.369C10.498 5.496 8.179 8.48 6.859 11.938L0.624 14.481C0.104 14.873 -0.091 15.264 0.039 15.655C0.078 15.768 0.143 15.87 0.228 15.954C0.312 16.038 0.415 16.101 0.528 16.139C0.641 16.176 0.761 16.188 0.879 16.172C0.997 16.156 1.109 16.113 1.208 16.046C2.803 15.541 4.43 15.149 6.08 14.873C5.91 15.775 5.845 16.694 5.885 17.611C5.832 20.722 6.575 23.794 8.042 26.534C9.509 29.273 11.651 31.59 14.264 33.262C14.653 33.458 15.238 33.458 15.433 33.066C15.628 32.675 15.628 32.284 15.238 31.893C13.608 30.413 12.312 28.599 11.438 26.575C10.564 24.55 10.133 22.361 10.172 20.155C10.111 18.05 10.58 15.964 11.536 14.09L16.992 13.699C30.242 13.699 41.544 18.198 41.544 23.872C41.544 29.545 37.842 29.741 33.36 31.697C32.386 32.088 32.386 32.48 32.386 32.871C32.386 33.262 32.97 33.458 33.555 33.262C41.349 30.914 47 26.611 47 21.72C47 16.829 36.088 9.591 22.253 9.591Z" fill="rgb(229,23,63)" fill-opacity="1.000" fill-rule="nonzero" transform="matrix(1 0 0 1 6 7)"/></svg>