<svg xmlns="http://www.w3.org/2000/svg" viewBox="0 0 130 60" width="130" height="60"><path d="M0 0L130 0L130 60L0 60L0 0Z" fill="rgb(255,255,255)" fill-opacity="1.000" fill-rule="nonzero" transform="matrix(1 0 0 1 0 0)"/><path d="M31.519 8.906C30.699 8.914 29.892 9.1 29.152 9.451L29.152 3.727C28.208 4.085 27.319 4.575 26.511 5.181C26.335 5.322 26.193 5.502 26.099 5.707C26.004 5.912 25.958 6.136 25.965 6.362L25.965 20.353C27.315 20.798 28.731 21.013 30.153 20.989C34.341 20.989 36.708 18.445 36.708 14.811C36.708 11.177 35.069 8.906 31.519 8.906ZM30.335 18.445C29.932 18.467 29.529 18.405 29.152 18.263L29.152 11.904C29.73 11.668 30.348 11.545 30.973 11.54C32.611 11.54 33.431 12.631 33.431 14.72C33.431 16.81 32.429 18.445 30.335 18.445ZM10.579 14.902L9.305 15.629C9.122 15.72 9.122 15.81 9.122 15.992L9.122 20.626C9.122 20.807 9.213 20.898 9.305 20.898L10.579 20.898L10.579 14.902ZM44.811 8.996C44.186 8.989 43.569 9.134 43.014 9.419C42.458 9.704 41.981 10.12 41.624 10.632C41.536 10.14 41.414 9.654 41.26 9.178L39.986 8.996L38.711 9.178L38.711 20.716C39.21 20.877 39.736 20.939 40.259 20.898L41.898 20.716L41.898 15.084C41.898 12.812 43.081 11.631 44.629 11.631L45.721 11.631C45.857 10.789 45.857 9.93 45.721 9.087L44.811 8.996ZM12.946 13.539L11.307 14.448L11.216 14.448L11.216 20.716L13.037 20.716C13.134 20.716 13.226 20.678 13.295 20.61C13.363 20.542 13.401 20.449 13.401 20.353L13.401 13.812C13.42 13.753 13.418 13.691 13.396 13.633C13.374 13.576 13.334 13.528 13.281 13.497C13.229 13.465 13.167 13.452 13.106 13.46C13.046 13.468 12.989 13.496 12.946 13.539ZM10.397 4.454C9.053 4.444 7.711 4.565 6.391 4.817C7.098 3.9 8.009 3.16 9.052 2.656C10.095 2.151 11.241 1.896 12.4 1.91C14.173 1.91 15.898 2.484 17.316 3.545C17.498 3.727 17.68 3.818 17.862 3.636C17.901 3.602 17.932 3.56 17.954 3.513C17.975 3.466 17.986 3.415 17.986 3.364C17.986 3.312 17.975 3.261 17.954 3.214C17.932 3.167 17.901 3.125 17.862 3.091C17.048 2.1 16.018 1.307 14.851 0.772C13.684 0.236 12.41 -0.027 11.125 0.002C9.402 0.033 7.727 0.577 6.316 1.565C4.905 2.552 3.821 3.938 3.205 5.544L0.291 6.725C0.049 6.907 -0.042 7.089 0.018 7.27C0.037 7.323 0.067 7.37 0.106 7.409C0.146 7.448 0.194 7.477 0.247 7.495C0.299 7.512 0.355 7.518 0.411 7.51C0.466 7.503 0.518 7.483 0.564 7.452C1.309 7.217 2.07 7.035 2.841 6.907C2.761 7.326 2.731 7.753 2.749 8.179C2.725 9.623 3.072 11.05 3.757 12.322C4.443 13.595 5.444 14.671 6.664 15.447C6.846 15.538 7.119 15.538 7.211 15.356C7.302 15.174 7.302 14.993 7.119 14.811C6.358 14.124 5.753 13.282 5.344 12.341C4.936 11.401 4.734 10.384 4.752 9.36C4.724 8.383 4.943 7.414 5.39 6.543L7.939 6.362C14.13 6.362 19.41 8.451 19.41 11.086C19.41 13.721 17.68 13.812 15.586 14.72C15.131 14.902 15.131 15.084 15.131 15.265C15.131 15.447 15.404 15.538 15.677 15.447C19.319 14.357 21.959 12.358 21.959 10.087C21.959 7.815 16.861 4.454 10.397 4.454ZM64.931 6.362L64.931 9.087L63.292 8.906C59.742 8.906 57.375 11.268 57.375 15.084C57.375 18.899 59.651 20.989 63.292 20.989C64.931 21.036 66.566 20.79 68.118 20.262L68.118 3.727C67.174 4.085 66.285 4.575 65.477 5.181C65.288 5.31 65.138 5.488 65.042 5.696C64.945 5.904 64.907 6.134 64.931 6.362ZM64.931 18.263C64.491 18.408 64.028 18.47 63.566 18.445C61.472 18.445 60.652 17.082 60.652 15.084C60.652 13.085 61.472 11.449 63.566 11.449L64.931 11.631L64.931 18.263ZM97.524 18.445C95.977 18.445 94.884 17.173 94.884 14.993C94.884 12.812 95.795 11.54 97.524 11.54C98.24 11.521 98.952 11.645 99.618 11.904C99.813 11.104 100.186 10.358 100.711 9.723C99.623 9.135 98.396 8.852 97.16 8.906C93.609 8.906 91.607 11.359 91.607 14.993C91.607 18.627 93.701 20.989 97.251 20.989C98.477 21.049 99.699 20.799 100.802 20.262C100.267 19.572 99.837 18.807 99.527 17.991C98.906 18.302 98.219 18.458 97.524 18.445ZM50.729 8.906C49.565 8.882 48.403 9.004 47.269 9.269C47.087 10.107 47.087 10.975 47.269 11.813C48.216 11.544 49.198 11.422 50.182 11.449C51.821 11.449 52.641 12.085 52.641 13.448L52.641 13.63L51.093 13.448C48.453 13.448 46.086 14.448 46.086 17.082C46.086 19.717 48.179 20.989 51.275 20.989C52.752 20.956 54.22 20.742 55.645 20.353L55.645 13.721C55.645 10.541 53.915 8.996 50.729 8.906ZM52.641 18.445L51.275 18.445C49.818 18.445 48.999 17.991 48.999 16.991C48.999 15.992 49.818 15.538 51.275 15.538L52.641 15.538L52.641 18.445ZM106.446 8.906C102.896 8.906 100.893 11.359 100.893 14.993C100.893 18.627 102.987 20.989 106.446 20.989C109.906 20.989 112 18.627 112 14.993C112 11.359 109.997 8.906 106.446 8.906ZM106.446 18.445C104.626 18.445 104.17 16.991 104.17 14.993C104.17 12.994 104.626 11.449 106.446 11.449C108.267 11.449 108.814 12.903 108.814 14.993C108.814 17.082 108.176 18.445 106.446 18.445ZM75.401 8.906C72.033 8.906 69.939 11.177 69.939 14.993C69.939 18.809 72.124 20.989 75.947 20.989C77.192 21.03 78.432 20.814 79.589 20.353C79.77 19.545 79.77 18.708 79.589 17.9C78.531 18.25 77.426 18.434 76.311 18.445C74.491 18.445 73.307 17.718 73.034 15.901L80.226 15.901C80.337 15.363 80.398 14.815 80.408 14.266C80.408 10.814 78.405 8.906 75.401 8.906ZM73.034 13.539C73.046 13.241 73.116 12.948 73.242 12.677C73.367 12.405 73.545 12.162 73.764 11.959C73.984 11.757 74.242 11.599 74.523 11.496C74.804 11.393 75.102 11.346 75.401 11.359C76.858 11.359 77.404 12.267 77.404 13.539L73.034 13.539ZM87.692 13.902L86.326 13.357C85.598 12.994 85.234 12.812 85.234 12.267C85.234 11.722 85.871 11.359 86.69 11.359C87.714 11.386 88.727 11.57 89.695 11.904C89.877 11.127 89.877 10.318 89.695 9.542C88.608 9.061 87.422 8.843 86.235 8.906C83.777 8.906 81.956 10.178 81.956 12.176C81.956 14.175 82.684 14.902 84.869 15.81L85.871 16.174C86.781 16.537 87.054 16.81 87.054 17.446C87.054 18.082 86.144 18.445 85.416 18.445C84.232 18.462 83.056 18.246 81.956 17.809C81.686 18.605 81.686 19.467 81.956 20.262C83.186 20.808 84.527 21.057 85.871 20.989C88.329 20.989 90.332 19.717 90.332 17.446C90.332 15.174 89.513 14.629 87.692 13.902Z" fill="rgb(229,23,63)" fill-opacity="1.000" fill-rule="nonzero" transform="matrix(1 0 0 1 9 19)"/></svg>