<svg xmlns="http://www.w3.org/2000/svg" viewBox="0 0 60 60" width="60" height="60"><path d="M0 0L60 0L60 60L0 60L0 0Z" fill="rgb(8,55,123)" fill-opacity="1.000" fill-rule="nonzero" transform="matrix(1 0 0 1 0 0)"/><path d="M14.502 9.807C15.214 10.738 15.642 11.896 15.642 13.156C15.642 16.205 13.16 18.687 10.111 18.687L0 18.687L0 11.062L0 7.625L0 0L5.156 0L11.001 0C14.051 0 16.532 2.481 16.532 5.531C16.532 7.252 15.741 8.792 14.502 9.807ZM4.589 15.249L9.203 15.249C10.358 15.249 11.297 14.31 11.297 13.156C11.297 12 10.358 11.062 9.203 11.062L4.589 11.062L4.589 15.249ZM9.617 3.437L4.589 3.437L4.589 7.625L9.617 7.625C10.772 7.625 11.71 6.685 11.71 5.531C11.71 4.376 10.772 3.437 9.617 3.437Z" fill="rgb(255,255,255)" fill-opacity="1.000" fill-rule="nonzero" transform="matrix(1 0 0 -1 17.9916 40.1217)"/><path d="M5.651 2.323C5.651 1.645 5.391 1.088 4.872 0.652C4.352 0.218 3.685 0 2.872 0C2.108 0 1.463 0.202 0.937 0.605C0.413 1.006 0.101 1.555 0 2.249L2.06 2.249C2.216 1.848 2.491 1.645 2.894 1.645C3.141 1.645 3.343 1.71 3.504 1.84C3.662 1.972 3.742 2.143 3.742 2.355C3.742 2.56 3.664 2.724 3.509 2.849C3.353 2.973 3.137 3.034 2.861 3.034L2.163 3.034L2.163 4.476L2.809 4.476C3.07 4.476 3.279 4.534 3.434 4.651C3.59 4.768 3.667 4.922 3.667 5.112C3.667 5.325 3.595 5.495 3.45 5.622C3.306 5.749 3.109 5.813 2.861 5.813C2.614 5.813 2.411 5.728 2.252 5.558C2.156 5.456 2.087 5.32 2.038 5.156L0.072 5.156C0.186 5.869 0.492 6.426 0.99 6.826C1.488 7.225 2.108 7.424 2.851 7.424C3.635 7.424 4.281 7.213 4.786 6.788C5.291 6.364 5.545 5.823 5.545 5.166C5.545 4.565 5.298 4.105 4.803 3.787C5.368 3.468 5.651 2.981 5.651 2.323Z" fill="rgb(255,255,255)" fill-opacity="1.000" fill-rule="nonzero" transform="matrix(1 0 0 -1 43.8059 20.4245)"/><path d="M7.039 28.146L7.039 30.434L0 30.434L0 0L7.039 0L7.039 2.296L2.282 2.296L2.282 28.146L7.039 28.146Z" fill="rgb(255,255,255)" fill-opacity="1.000" fill-rule="nonzero" transform="matrix(1 0 0 -1 11 45.9997)"/><path d="M0 2.297L0 0L7.039 0L7.039 30.435L0 30.435L0 28.146L4.757 28.146L4.757 2.297L0 2.297Z" fill="rgb(255,255,255)" fill-opacity="1.000" fill-rule="nonzero" transform="matrix(1 0 0 -1 34.3957 46.0002)"/></svg>