<svg xmlns="http://www.w3.org/2000/svg" viewBox="0 0 130 60" width="130" height="60"><path d="M0 0L130 0L130 60L0 60L0 0Z" fill="rgb(255,255,255)" fill-opacity="1.000" fill-rule="nonzero" transform="matrix(1 0 0 1 0 0)"/><path d="M17.824 12.053C18.698 13.197 19.224 14.621 19.224 16.168C19.224 19.917 16.173 22.966 12.426 22.966L0 22.966L0 13.595L0 9.371L0 0L6.337 0L13.52 0C17.269 0 20.318 3.049 20.318 6.797C20.318 8.913 19.345 10.805 17.824 12.053ZM5.641 18.741L11.311 18.741C12.73 18.741 13.884 17.587 13.884 16.168C13.884 14.749 12.73 13.595 11.311 13.595L5.641 13.595L5.641 18.741ZM11.82 4.224L5.641 4.224L5.641 9.371L11.82 9.371C13.239 9.371 14.392 8.216 14.392 6.797C14.392 5.378 13.239 4.224 11.82 4.224Z" fill="rgb(8,55,123)" fill-opacity="1.000" fill-rule="nonzero" transform="matrix(1 0 0 -1 28.6003 43.3327)"/><path d="M6.945 2.855C6.945 2.021 6.626 1.337 5.988 0.802C5.349 0.268 4.529 0 3.53 0C2.591 0 1.798 0.248 1.152 0.744C0.507 1.237 0.124 1.911 0 2.764L2.531 2.764C2.723 2.271 3.061 2.021 3.557 2.021C3.86 2.021 4.109 2.101 4.306 2.262C4.501 2.423 4.599 2.634 4.599 2.894C4.599 3.147 4.503 3.348 4.313 3.501C4.121 3.653 3.855 3.729 3.516 3.729L2.658 3.729L2.658 5.501L3.452 5.501C3.773 5.501 4.03 5.573 4.221 5.716C4.412 5.86 4.507 6.049 4.507 6.283C4.507 6.544 4.419 6.753 4.24 6.909C4.063 7.066 3.821 7.144 3.516 7.144C3.212 7.144 2.963 7.04 2.767 6.83C2.65 6.705 2.565 6.538 2.505 6.337L0.089 6.337C0.228 7.214 0.604 7.898 1.217 8.389C1.829 8.88 2.591 9.125 3.504 9.125C4.468 9.125 5.262 8.865 5.882 8.343C6.503 7.821 6.814 7.157 6.814 6.349C6.814 5.61 6.511 5.045 5.903 4.655C6.598 4.263 6.945 3.664 6.945 2.855Z" fill="rgb(8,55,123)" fill-opacity="1.000" fill-rule="nonzero" transform="matrix(1 0 0 -1 60.3205 19.1247)"/><path d="M8.651 34.592L8.651 37.404L0 37.404L0 0L8.651 0L8.651 2.822L2.804 2.822L2.804 34.592L8.651 34.592Z" fill="rgb(8,55,123)" fill-opacity="1.000" fill-rule="nonzero" transform="matrix(1 0 0 -1 20 50.5573)"/><path d="M0 2.823L0 0L8.651 0L8.651 37.405L0 37.405L0 34.592L5.847 34.592L5.847 2.823L0 2.823Z" fill="rgb(8,55,123)" fill-opacity="1.000" fill-rule="nonzero" transform="matrix(1 0 0 -1 48.751 50.5577)"/><path d="M3.496 3.152C3.898 3.109 4.22 2.954 4.465 2.688C4.709 2.422 4.831 2.083 4.831 1.668C4.831 1.174 4.662 0.773 4.321 0.463C3.982 0.153 3.521 0 2.938 0L0 0L0 6.213L2.764 6.213C3.345 6.213 3.798 6.068 4.126 5.777C4.455 5.487 4.618 5.1 4.618 4.618C4.618 4.234 4.51 3.909 4.293 3.644C4.076 3.378 3.812 3.221 3.496 3.171L3.496 3.152ZM0.473 3.329L2.865 3.329C3.255 3.329 3.57 3.445 3.812 3.681C4.053 3.917 4.172 4.222 4.172 4.598C4.172 4.963 4.044 5.256 3.788 5.475C3.531 5.695 3.177 5.805 2.726 5.805L0.473 5.805L0.473 3.329ZM2.902 0.407C3.34 0.407 3.694 0.526 3.959 0.765C4.226 1.003 4.358 1.313 4.358 1.697C4.358 2.079 4.223 2.382 3.956 2.606C3.687 2.827 3.332 2.938 2.894 2.938L0.473 2.938L0.473 0.407L2.902 0.407Z" fill="rgb(7,54,122)" fill-opacity="1.000" fill-rule="nonzero" transform="matrix(1 0 0 -1 74.7163 43.333)"/><path d="M5.573 0L4.812 1.697L1.271 1.697L0.501 0L0 0L2.828 6.213L3.246 6.213L6.074 0L5.573 0ZM3.043 5.62L1.465 2.123L4.618 2.123L3.043 5.62Z" fill="rgb(7,54,122)" fill-opacity="1.000" fill-rule="nonzero" transform="matrix(1 0 0 -1 80.1073 43.3331)"/><path d="M4.219 0L0 0L0 6.213L0.473 6.213L0.473 0.426L4.219 0.426L4.219 0Z" fill="rgb(7,54,122)" fill-opacity="1.000" fill-rule="nonzero" transform="matrix(1 0 0 -1 87.3097 43.3331)"/><path d="M4.725 0.863C5.161 1.148 5.471 1.534 5.658 2.023L6.113 1.911C5.902 1.324 5.537 0.859 5.017 0.515C4.498 0.172 3.893 0 3.199 0C2.304 0 1.547 0.312 0.928 0.933C0.309 1.554 0 2.313 0 3.21C0 4.105 0.309 4.865 0.928 5.487C1.547 6.108 2.304 6.418 3.199 6.418C3.893 6.418 4.498 6.248 5.017 5.908C5.537 5.568 5.902 5.11 6.113 4.536L5.667 4.396C5.488 4.884 5.179 5.272 4.741 5.555C4.3 5.84 3.788 5.982 3.199 5.982C2.433 5.982 1.785 5.714 1.258 5.18C0.728 4.645 0.464 3.988 0.464 3.21C0.464 2.43 0.728 1.772 1.258 1.238C1.785 0.704 2.433 0.436 3.199 0.436C3.781 0.436 4.29 0.578 4.725 0.863Z" fill="rgb(7,54,122)" fill-opacity="1.000" fill-rule="nonzero" transform="matrix(1 0 0 -1 91.6826 43.4367)"/><path d="M5.574 0L4.813 1.697L1.272 1.697L0.501 0L0 0L2.829 6.213L3.246 6.213L6.074 0L5.574 0ZM3.043 5.619L1.465 2.123L4.619 2.123L3.043 5.619ZM2.204 7.534C2.132 7.451 2.096 7.338 2.096 7.196L1.753 7.196C1.753 7.461 1.822 7.664 1.958 7.803C2.093 7.942 2.264 8.012 2.468 8.012C2.653 8.012 2.856 7.929 3.075 7.767C3.294 7.602 3.472 7.519 3.608 7.519C3.725 7.519 3.816 7.564 3.882 7.65C3.947 7.737 3.979 7.854 3.979 8.002L4.331 8.002C4.331 7.73 4.264 7.525 4.132 7.386C4 7.247 3.831 7.177 3.627 7.177C3.441 7.177 3.238 7.258 3.019 7.418C2.8 7.579 2.625 7.66 2.495 7.66C2.372 7.66 2.274 7.618 2.204 7.534Z" fill="rgb(7,54,122)" fill-opacity="1.000" fill-rule="nonzero" transform="matrix(1 0 0 -1 98.2785 43.3331)"/><path d="M5.435 5.487C6.048 4.865 6.353 4.105 6.353 3.21C6.353 2.307 6.048 1.547 5.435 0.928C4.824 0.31 4.071 0 3.181 0C2.285 0 1.53 0.31 0.919 0.928C0.306 1.547 0 2.307 0 3.21C0 4.105 0.308 4.865 0.925 5.487C1.538 6.108 2.291 6.418 3.181 6.418C4.071 6.418 4.824 6.108 5.435 5.487ZM5.106 1.233C5.628 1.767 5.89 2.425 5.89 3.21C5.89 3.988 5.628 4.646 5.106 5.18C4.584 5.714 3.942 5.982 3.181 5.982C2.414 5.982 1.77 5.714 1.248 5.18C0.724 4.646 0.464 3.988 0.464 3.21C0.464 2.425 0.724 1.767 1.248 1.233C1.77 0.703 2.414 0.437 3.181 0.437C3.942 0.437 4.584 0.703 5.106 1.233Z" fill="rgb(7,54,122)" fill-opacity="1.000" fill-rule="nonzero" transform="matrix(1 0 0 -1 104.6473 43.4367)"/><path d="M3.654 3.162C4.012 3.119 4.311 2.966 4.549 2.703C4.787 2.44 4.907 2.102 4.907 1.687C4.907 1.18 4.738 0.773 4.401 0.463C4.063 0.155 3.59 0 2.978 0L0 0L0 6.213L2.857 6.213C3.431 6.213 3.883 6.064 4.211 5.767C4.538 5.471 4.702 5.075 4.702 4.581C4.702 4.203 4.599 3.887 4.391 3.63C4.185 3.374 3.938 3.227 3.654 3.19L3.654 3.162ZM0.733 3.431L2.847 3.431C3.193 3.431 3.473 3.533 3.687 3.737C3.901 3.941 4.007 4.21 4.007 4.544C4.007 4.858 3.897 5.111 3.677 5.299C3.458 5.488 3.163 5.582 2.792 5.582L0.733 5.582L0.733 3.431ZM2.912 0.63C3.296 0.63 3.601 0.732 3.825 0.937C4.051 1.14 4.164 1.412 4.164 1.752C4.164 2.08 4.049 2.343 3.816 2.539C3.585 2.738 3.286 2.838 2.921 2.838L0.733 2.838L0.733 0.63L2.912 0.63Z" fill="rgb(8,55,123)" fill-opacity="1.000" fill-rule="nonzero" transform="matrix(1 0 0 -1 74.7033 34.9579)"/><path d="M5.495 5.518C6.116 4.894 6.428 4.13 6.428 3.227C6.428 2.325 6.116 1.561 5.495 0.937C4.874 0.312 4.115 0 3.219 0C2.316 0 1.553 0.312 0.932 0.937C0.311 1.561 0 2.325 0 3.227C0 4.13 0.311 4.894 0.932 5.518C1.553 6.142 2.316 6.455 3.219 6.455C4.115 6.455 4.874 6.142 5.495 5.518ZM4.971 1.423C5.448 1.908 5.686 2.511 5.686 3.227C5.686 3.939 5.448 4.54 4.971 5.03C4.496 5.523 3.911 5.769 3.219 5.769C2.52 5.769 1.933 5.523 1.457 5.03C0.98 4.54 0.742 3.939 0.742 3.227C0.742 2.511 0.98 1.908 1.457 1.423C1.933 0.938 2.52 0.696 3.219 0.696C3.911 0.696 4.496 0.938 4.971 1.423Z" fill="rgb(8,55,123)" fill-opacity="1.000" fill-rule="nonzero" transform="matrix(1 0 0 -1 80.3133 35.079)"/><path d="M4.293 0L0 0L0 6.213L0.733 6.213L0.733 0.667L4.293 0.667L4.293 0Z" fill="rgb(8,55,123)" fill-opacity="1.000" fill-rule="nonzero" transform="matrix(1 0 0 -1 87.7907 34.9581)"/><path d="M3.947 5.991C4.364 5.682 4.626 5.268 4.73 4.749L3.997 4.582C3.929 4.959 3.75 5.258 3.46 5.481C3.169 5.703 2.81 5.815 2.384 5.815C1.964 5.815 1.624 5.711 1.364 5.504C1.105 5.297 0.974 5.027 0.974 4.692C0.974 4.427 1.053 4.221 1.211 4.076C1.369 3.93 1.602 3.827 1.911 3.765L3.266 3.459C4.31 3.236 4.833 2.698 4.833 1.845C4.833 1.283 4.622 0.835 4.202 0.502C3.781 0.167 3.222 0 2.524 0C1.849 0 1.279 0.166 0.813 0.496C0.346 0.827 0.076 1.28 0 1.855L0.771 2.012C0.839 1.579 1.036 1.245 1.364 1.006C1.692 0.768 2.099 0.649 2.588 0.649C3.058 0.649 3.427 0.755 3.697 0.969C3.966 1.183 4.1 1.463 4.1 1.808C4.1 2.093 4.021 2.307 3.863 2.448C3.705 2.59 3.448 2.701 3.089 2.783L1.689 3.088C0.693 3.311 0.195 3.839 0.195 4.674C0.195 5.205 0.398 5.635 0.803 5.963C1.208 6.29 1.741 6.455 2.403 6.455C3.014 6.455 3.53 6.3 3.947 5.991Z" fill="rgb(8,55,123)" fill-opacity="1.000" fill-rule="nonzero" transform="matrix(1 0 0 -1 92.7702 35.079)"/><path d="M5.453 0L4.757 1.576L1.483 1.576L0.786 0L0 0L2.782 6.213L3.458 6.213L6.241 0L5.453 0ZM3.124 5.304L1.77 2.235L4.47 2.235L3.124 5.304Z" fill="rgb(8,55,123)" fill-opacity="1.000" fill-rule="nonzero" transform="matrix(1 0 0 -1 98.2871 34.9581)"/><path d="M3.82 3.163C4.141 3.126 4.417 2.978 4.646 2.718C4.874 2.458 4.989 2.121 4.989 1.707C4.989 1.188 4.821 0.773 4.485 0.465C4.147 0.155 3.66 0 3.024 0L0 0L0 6.215L2.958 6.215C3.52 6.215 3.969 6.061 4.303 5.755C4.636 5.449 4.803 5.042 4.803 4.535C4.803 4.17 4.703 3.868 4.502 3.627C4.302 3.385 4.074 3.244 3.82 3.2L3.82 3.163ZM0.993 3.525L2.847 3.525C3.143 3.525 3.383 3.613 3.566 3.789C3.747 3.965 3.838 4.196 3.838 4.48C3.838 4.74 3.747 4.952 3.566 5.115C3.383 5.279 3.146 5.361 2.856 5.361L0.993 5.361L0.993 3.525ZM2.922 0.854C3.249 0.854 3.505 0.94 3.691 1.113C3.876 1.286 3.969 1.516 3.969 1.799C3.969 2.078 3.875 2.302 3.687 2.472C3.497 2.642 3.252 2.727 2.948 2.727L0.993 2.727L0.993 0.854L2.922 0.854Z" fill="rgb(0,186,242)" fill-opacity="1.000" fill-rule="nonzero" transform="matrix(1 0 0 -1 74.6991 26.5818)"/><path d="M4.107 0L1.892 2.476L0.993 2.476L0.993 0L0 0L0 6.214L2.921 6.214C3.557 6.214 4.072 6.042 4.465 5.699C4.858 5.356 5.055 4.903 5.055 4.341C5.055 3.809 4.876 3.374 4.52 3.038C4.165 2.701 3.69 2.516 3.097 2.486L5.341 0L4.107 0ZM2.921 3.376C3.262 3.376 3.536 3.464 3.747 3.64C3.957 3.817 4.062 4.05 4.062 4.341C4.062 4.631 3.957 4.866 3.747 5.045C3.536 5.225 3.262 5.315 2.921 5.315L0.993 5.315L0.993 3.376L2.921 3.376Z" fill="rgb(0,186,242)" fill-opacity="1.000" fill-rule="nonzero" transform="matrix(1 0 0 -1 80.9041 26.5816)"/><path d="M5.322 0L4.71 1.448L1.688 1.448L1.076 0L0 0L2.736 6.214L3.663 6.214L6.398 0L5.322 0ZM3.2 4.999L2.077 2.356L4.322 2.356L3.2 4.999Z" fill="rgb(0,186,242)" fill-opacity="1.000" fill-rule="nonzero" transform="matrix(1 0 0 -1 86.6198 26.5815)"/><path d="M4.038 5.999C4.469 5.684 4.738 5.257 4.85 4.719L3.858 4.516C3.802 4.843 3.644 5.108 3.384 5.309C3.125 5.509 2.81 5.61 2.439 5.61C2.074 5.61 1.781 5.522 1.557 5.346C1.335 5.169 1.224 4.942 1.224 4.664C1.224 4.447 1.287 4.277 1.414 4.154C1.54 4.03 1.741 3.941 2.012 3.885L3.358 3.597C4.42 3.362 4.952 2.797 4.952 1.9C4.952 1.319 4.733 0.857 4.297 0.514C3.862 0.171 3.286 0 2.569 0C1.882 0 1.301 0.161 0.824 0.486C0.348 0.811 0.074 1.264 0 1.845L1.058 2.067C1.131 1.678 1.31 1.382 1.595 1.182C1.879 0.981 2.234 0.88 2.662 0.88C3.069 0.88 3.39 0.968 3.621 1.144C3.854 1.32 3.969 1.554 3.969 1.845C3.969 2.08 3.902 2.259 3.769 2.383C3.636 2.506 3.412 2.602 3.098 2.67L1.744 2.948C0.698 3.189 0.176 3.752 0.176 4.636C0.176 5.187 0.385 5.63 0.802 5.967C1.219 6.304 1.772 6.472 2.458 6.472C3.082 6.472 3.609 6.315 4.038 5.999Z" fill="rgb(0,186,242)" fill-opacity="1.000" fill-rule="nonzero" transform="matrix(1 0 0 -1 93.4811 26.7102)"/><path d="M0 6.214L0.992 6.214L0.992 0L0 0L0 6.214Z" fill="rgb(0,186,242)" fill-opacity="1.000" fill-rule="nonzero" transform="matrix(1 0 0 -1 99.693 26.5808)"/><path d="M4.386 0L0 0L0 6.214L0.993 6.214L0.993 0.9L4.386 0.9L4.386 0Z" fill="rgb(0,186,242)" fill-opacity="1.000" fill-rule="nonzero" transform="matrix(1 0 0 -1 102.1945 26.5815)"/></svg>