<svg xmlns="http://www.w3.org/2000/svg" viewBox="0 0 60 60" width="60" height="60"><path d="M0 0L60 0L60 60L0 60L0 0Z" fill="rgb(255,255,255)" fill-opacity="1.000" fill-rule="nonzero" transform="matrix(1 0 0 1 0 0)"/><path d="M21.501 43.002C33.375 43.002 43.002 33.375 43.002 21.501C43.002 9.626 33.375 0 21.501 0C9.626 0 0 9.626 0 21.501C0 33.375 9.626 43.002 21.501 43.002Z" fill="rgb(8,85,140)" fill-opacity="1.000" fill-rule="nonzero" transform="matrix(1 0 0 1 8 8)"/><path d="M28.47 26.563C25.479 29.867 21.156 31.942 16.348 31.942C16.211 31.942 16.073 31.94 15.937 31.937C15.895 31.935 15.854 31.934 15.814 31.932C15.716 31.929 15.617 31.925 15.52 31.922C15.474 31.919 15.427 31.915 15.382 31.913C15.293 31.908 15.206 31.903 15.118 31.897C15.059 31.892 15.001 31.887 14.943 31.882C14.864 31.875 14.785 31.868 14.708 31.86C14.651 31.855 14.596 31.848 14.54 31.841C14.463 31.833 14.385 31.824 14.308 31.816C14.249 31.808 14.189 31.799 14.13 31.792C14.054 31.781 13.98 31.771 13.905 31.761C13.848 31.752 13.792 31.742 13.735 31.734C13.659 31.72 13.584 31.708 13.508 31.695C13.451 31.685 13.394 31.675 13.337 31.665C13.263 31.65 13.191 31.636 13.117 31.623C13.058 31.611 12.997 31.598 12.937 31.584C12.866 31.569 12.796 31.554 12.727 31.539C12.668 31.525 12.611 31.512 12.552 31.498C12.481 31.482 12.409 31.463 12.339 31.446L12.164 31.401C12.097 31.382 12.031 31.366 11.964 31.347C11.9 31.329 11.836 31.31 11.772 31.292L11.589 31.238C11.523 31.218 11.458 31.198 11.394 31.177C11.334 31.157 11.273 31.139 11.213 31.119C11.15 31.097 11.087 31.077 11.024 31.055L10.836 30.987C10.777 30.967 10.718 30.945 10.66 30.925C10.594 30.9 10.53 30.875 10.465 30.85C10.406 30.828 10.349 30.806 10.292 30.782C10.229 30.757 10.171 30.734 10.11 30.709C10.05 30.683 9.989 30.658 9.93 30.633C9.866 30.606 9.804 30.579 9.742 30.551C9.687 30.527 9.633 30.502 9.577 30.478C9.514 30.448 9.45 30.418 9.384 30.388C9.33 30.362 9.277 30.337 9.223 30.31C9.164 30.282 9.105 30.253 9.046 30.223C8.989 30.194 8.93 30.166 8.872 30.135C8.821 30.11 8.771 30.082 8.72 30.056C8.655 30.021 8.591 29.988 8.525 29.952L8.413 29.888C8.337 29.846 8.262 29.804 8.186 29.761L8.132 29.73C7.737 29.499 7.352 29.251 6.978 28.991L6.907 28.942C6.825 28.883 6.744 28.825 6.663 28.764L6.601 28.719C6.52 28.66 6.442 28.599 6.363 28.537L6.297 28.489C6.225 28.431 6.152 28.373 6.082 28.315L5.996 28.247C5.929 28.191 5.862 28.136 5.796 28.078L5.702 27.999C5.64 27.946 5.578 27.89 5.516 27.836L5.413 27.746C5.351 27.689 5.289 27.633 5.228 27.576L5.136 27.49C5.072 27.43 5.01 27.369 4.948 27.309L4.862 27.225C4.801 27.164 4.741 27.104 4.68 27.042L4.595 26.954C4.532 26.89 4.472 26.826 4.411 26.761L4.336 26.68C4.274 26.613 4.211 26.546 4.151 26.477L4.084 26.401C4.022 26.331 3.959 26.26 3.899 26.19L3.838 26.116C3.774 26.042 3.712 25.966 3.65 25.889L3.605 25.833C3.539 25.753 3.475 25.672 3.413 25.59L3.371 25.534C3.307 25.452 3.243 25.368 3.181 25.284L3.149 25.238C3.084 25.151 3.022 25.064 2.958 24.975L2.931 24.934C2.867 24.843 2.803 24.751 2.741 24.657L2.728 24.637C2.662 24.536 2.596 24.437 2.533 24.336L2.533 24.334C1.657 22.956 0.983 21.435 0.551 19.817L0.55 19.805C0.518 19.686 0.487 19.567 0.459 19.447L0.452 19.425C0.423 19.308 0.398 19.19 0.371 19.071L0.365 19.042C0.341 18.925 0.318 18.809 0.294 18.691L0.287 18.654C0.266 18.538 0.245 18.422 0.225 18.304L0.218 18.266C0.198 18.148 0.181 18.031 0.165 17.911L0.16 17.879C0.143 17.758 0.128 17.637 0.113 17.516L0.109 17.488C0.096 17.363 0.082 17.239 0.071 17.113L0.071 17.103C0.059 16.973 0.047 16.844 0.039 16.715L0.039 16.713C0.013 16.342 0 15.969 0 15.592L0 15.59L0 15.589L0 15.587L0 15.585L0 15.584L0 15.582L0 15.58L0 15.579L0 15.577L0 15.575L0 15.574L0 15.572L0 15.57L0 15.569L0 15.567L0 15.565C0.012 8.265 4.816 2.089 11.428 0L11.426 3.82C6.831 5.742 3.601 10.275 3.59 15.565L3.59 15.569L3.59 15.57L3.59 15.572L3.59 15.574L3.59 15.575L3.59 15.577L3.59 15.579L3.59 15.58L3.59 15.582L3.59 15.584L3.59 15.585L3.59 15.587L3.59 15.589L3.59 15.59L3.59 15.592C3.59 15.974 3.606 16.35 3.64 16.721C3.648 16.817 3.657 16.913 3.667 17.007L3.67 17.034C3.682 17.128 3.692 17.221 3.706 17.313L3.707 17.333C3.859 18.432 4.148 19.488 4.559 20.479L4.561 20.482C4.596 20.566 4.632 20.65 4.669 20.735L4.68 20.76C4.716 20.84 4.751 20.919 4.788 20.998L4.805 21.032C4.842 21.111 4.88 21.19 4.919 21.267L4.932 21.294C4.969 21.37 5.008 21.445 5.048 21.519L5.072 21.566C5.111 21.637 5.149 21.709 5.188 21.78L5.211 21.824C5.252 21.894 5.292 21.963 5.332 22.034L5.361 22.081C5.401 22.15 5.443 22.22 5.485 22.287L5.512 22.329C5.556 22.4 5.6 22.469 5.643 22.538L5.667 22.573C5.714 22.644 5.761 22.714 5.808 22.785L5.823 22.807C6.2 23.353 6.616 23.87 7.07 24.351L7.089 24.371C7.149 24.435 7.211 24.499 7.275 24.561L7.29 24.578C7.344 24.632 7.398 24.684 7.45 24.736L7.509 24.793C7.557 24.84 7.608 24.887 7.658 24.934L7.722 24.993C7.774 25.042 7.826 25.087 7.878 25.134L7.942 25.19C7.994 25.237 8.048 25.284 8.102 25.329L8.166 25.383C8.216 25.425 8.268 25.467 8.32 25.509L8.401 25.574C8.451 25.615 8.5 25.653 8.551 25.692L8.635 25.756C8.685 25.795 8.735 25.832 8.786 25.87L8.875 25.934C8.925 25.971 8.974 26.006 9.025 26.042L9.122 26.109C9.169 26.142 9.218 26.174 9.267 26.208L9.372 26.277C9.421 26.309 9.47 26.341 9.52 26.373L9.616 26.432C9.668 26.465 9.72 26.499 9.774 26.531L9.865 26.584C9.92 26.616 9.976 26.648 10.031 26.68L10.132 26.737C10.184 26.766 10.236 26.795 10.288 26.823L10.399 26.882C10.451 26.911 10.505 26.937 10.557 26.966L10.604 26.989C10.676 27.025 10.749 27.062 10.823 27.097C10.91 27.139 10.999 27.181 11.088 27.221L11.092 27.223C11.139 27.243 11.187 27.265 11.236 27.285C11.278 27.304 11.32 27.324 11.364 27.342C11.416 27.364 11.468 27.384 11.52 27.406C11.562 27.423 11.602 27.442 11.644 27.457C11.695 27.477 11.745 27.495 11.796 27.515L11.928 27.566C11.979 27.584 12.029 27.601 12.08 27.62L12.216 27.668C12.263 27.684 12.312 27.7 12.36 27.715L12.508 27.764L12.649 27.808L12.802 27.853L12.937 27.89C12.992 27.905 13.048 27.921 13.103 27.936L13.234 27.969C13.29 27.983 13.345 27.996 13.401 28.01L13.537 28.042L13.701 28.077L13.843 28.105C13.896 28.117 13.95 28.127 14.004 28.137L14.147 28.163C14.202 28.173 14.258 28.181 14.313 28.191L14.456 28.213C14.511 28.221 14.567 28.228 14.624 28.236L14.765 28.255C14.822 28.262 14.878 28.268 14.935 28.275C14.982 28.28 15.031 28.285 15.079 28.29C15.137 28.295 15.194 28.3 15.251 28.305C15.298 28.309 15.347 28.314 15.394 28.317C15.463 28.322 15.533 28.326 15.604 28.331L15.705 28.336C15.797 28.341 15.891 28.344 15.987 28.347L16.022 28.349C16.132 28.351 16.239 28.352 16.348 28.352L16.414 28.352L16.417 28.352L16.479 28.352L16.484 28.352L16.545 28.351L16.552 28.351L16.609 28.351L16.619 28.349L16.674 28.349L16.686 28.349L16.738 28.347L16.753 28.346L16.804 28.346L16.821 28.344L16.868 28.342L16.888 28.342L16.933 28.339L16.955 28.339L16.997 28.337L17.022 28.336L17.061 28.332L17.089 28.332L17.125 28.329L17.157 28.327L17.189 28.326L17.192 28.326L17.254 28.32L17.289 28.319L17.318 28.315L17.355 28.314L17.382 28.312L17.422 28.309L17.446 28.305L17.488 28.302L17.51 28.3L17.555 28.297L17.573 28.295L17.699 28.282L17.753 28.277L17.763 28.275L17.819 28.268L17.827 28.268L17.884 28.262L17.889 28.26L17.95 28.253L17.953 28.253L18.015 28.245L18.079 28.236L18.081 28.236L18.141 28.228L18.146 28.226L18.259 28.211L18.266 28.21L18.276 28.208L18.33 28.199L18.341 28.198L18.392 28.189L18.405 28.188L18.454 28.179L18.471 28.176L18.516 28.169L18.535 28.166L18.578 28.157L18.703 28.136C18.785 28.12 18.867 28.104 18.948 28.087L18.985 28.08L19.01 28.075L19.012 28.073C19.133 28.048 19.254 28.021 19.375 27.991L19.429 27.978L19.437 27.976L19.496 27.961L19.553 27.946L19.556 27.946L19.677 27.914L19.679 27.914L19.738 27.897L19.741 27.897L19.797 27.88L19.803 27.878L19.857 27.863L19.866 27.862L19.916 27.847L19.928 27.843L19.977 27.83L20.02 27.816L20.035 27.811L20.051 27.808L20.094 27.793L20.113 27.788L20.155 27.776C20.212 27.757 20.271 27.739 20.328 27.719L20.331 27.719L20.326 27.702C22.6 26.956 24.522 25.63 25.983 23.944C26.111 23.802 26.233 23.65 26.351 23.502L29.125 25.82C29.052 25.897 28.683 26.332 28.47 26.563Z" fill="rgb(255,221,33)" fill-opacity="1.000" fill-rule="evenodd" transform="matrix(1 0 0 1 14.9373 13.9037)"/><path d="M5.092 4.264L7.652 2.054C6.877 1.234 5.931 0.544 4.892 0L0 4.21C1.568 4.065 3.336 4.101 5.092 4.264Z" fill="rgb(87,185,82)" fill-opacity="1.000" fill-rule="evenodd" transform="matrix(1 0 0 1 32.1998 18.6782)"/><path d="M0 0.003C3.42 -0.066 6.598 0.931 9.24 2.701L9.223 7.215L9.206 7.198C7.168 5.033 3.635 3.445 0 3.516L0 0.003Z" fill="rgb(87,185,82)" fill-opacity="1.000" fill-rule="evenodd" transform="matrix(1 0 0 1 31.0637 13.1542)"/><path d="M8.428 0L0 7.12L0 11.744L12.517 1.197C11.339 0.687 9.917 0.279 8.428 0Z" fill="rgb(87,185,82)" fill-opacity="1.000" fill-rule="evenodd" transform="matrix(1 0 0 1 31.0654 27.948)"/><path d="M12.631 5.369C9.273 3.826 4.201 3.253 0.992 3.772L0 0.174C2.899 -0.243 7.646 0.095 11.466 1.114L12.631 5.369Z" fill="rgb(87,185,82)" fill-opacity="1.000" fill-rule="evenodd" transform="matrix(1 0 0 1 31.4318 23.3724)"/><path d="M0 24.838L3.588 26.432L3.588 2.958L0.017 0L0 24.838Z" fill="rgb(87,185,82)" fill-opacity="1.000" fill-rule="evenodd" transform="matrix(1 0 0 1 26.9128 13.7374)"/></svg>