<svg xmlns="http://www.w3.org/2000/svg" viewBox="0 0 60 60" width="60" height="60"><path d="M0 0L60 0L60 60L0 60L0 0Z" fill="rgb(255,255,255)" fill-opacity="1.000" fill-rule="nonzero" transform="matrix(1 0 0 1 0 0)"/><path d="M22.876 15.716L22.876 15.296C28.107 15.296 32.078 12.636 32.078 8.301C32.078 3.513 28.454 0 22.753 0L5.073 0L5.073 4.383L21.355 4.383C24.736 4.383 27.009 6.466 27.009 9.565C27.009 11.591 26.223 14.99 20.964 14.99L9.852 14.99C7.036 14.99 5.07 12.703 5.07 9.428L0 9.428C0 14.404 3.381 18.506 9.142 18.506L9.142 18.93C2.86 18.927 0 21.507 0 25.667L5.073 25.667C5.073 22.137 7.21 19.369 10.733 19.369L22.532 19.369C25.411 19.369 28.388 21.58 28.388 25.278C28.388 28.976 25.351 30.839 22.532 30.839L5.073 30.839L5.073 35.219L22.876 35.219C28.663 35.219 33.458 30.983 33.458 25.278C33.458 19.573 29.815 15.719 22.876 15.719L22.876 15.716Z" fill="rgb(255,6,81)" fill-opacity="1.000" fill-rule="evenodd" transform="matrix(1 0 0 1 13.242 12.7809)"/></svg>