<svg xmlns="http://www.w3.org/2000/svg" viewBox="0 0 130 60" width="130" height="60"><path d="M0 0L130 0L130 60L0 60L0 0Z" fill="rgb(255,255,255)" fill-opacity="1.000" fill-rule="nonzero" transform="matrix(1 0 0 1 0 0)"/><path d="M10.9 7.488L10.9 7.288C13.392 7.288 15.284 6.021 15.284 3.955C15.284 1.674 13.558 0 10.841 0L2.417 0L2.417 2.088L10.175 2.088C11.786 2.088 12.869 3.081 12.869 4.558C12.869 5.523 12.494 7.142 9.989 7.142L4.694 7.142C3.353 7.142 2.416 6.052 2.416 4.492L0 4.492C0 6.863 1.611 8.818 4.356 8.818L4.356 9.02C1.363 9.018 0 10.247 0 12.229L2.417 12.229C2.417 10.548 3.435 9.229 5.114 9.229L10.736 9.229C12.108 9.229 13.526 10.282 13.526 12.044C13.526 13.806 12.079 14.694 10.736 14.694L2.417 14.694L2.417 16.781L10.9 16.781C13.657 16.781 15.942 14.762 15.942 12.044C15.942 9.326 14.206 7.49 10.9 7.49L10.9 7.488ZM36.77 10.59L40.3 0.566L40.757 0.566L44.424 10.59L36.77 10.59ZM20.195 7.877L20.195 1.996L26.159 1.996C28.24 1.996 29.433 3.04 29.433 4.858C29.433 6.776 28.239 7.877 26.159 7.877L20.195 7.877ZM38.349 0L32.237 16.408L29.526 11.83C28.919 10.715 27.849 9.807 26.013 9.807L26.013 9.605C29.759 9.605 31.805 7.725 31.805 4.726C31.805 1.727 29.645 0 26.028 0L17.889 0L17.889 16.781L20.195 16.781L20.195 9.807L24.082 9.807C25.568 9.807 26.168 10.498 26.836 11.61L29.835 16.781L34.589 16.781L36.09 12.519L45.13 12.519L46.688 16.781L48.96 16.781L42.708 0L38.349 0ZM70.497 0.566L66.969 10.59L74.621 10.59L70.954 0.566L70.497 0.566ZM79.159 16.781L76.887 16.781L76.887 16.782L75.328 12.521L66.289 12.521L64.788 16.782L49.718 16.782L49.718 12.331L62.088 2.231L62.088 2.04L50.004 2.04L50.004 0L62.631 0L62.631 4.448L50.258 14.551L50.258 14.743L63.038 14.785L68.547 0L72.907 0L79.159 16.781Z" fill="rgb(0,0,0)" fill-opacity="1.000" fill-rule="evenodd" transform="matrix(1 0 0 1 13 21.2893)"/><path d="M2.638 2.714C3.658 2.714 4.249 3.442 4.249 4.68C4.249 5.917 3.657 6.647 2.638 6.647C1.62 6.647 1.017 5.873 1.017 4.68C1.017 3.488 1.618 2.714 2.638 2.714ZM3.1 7.543C4.523 7.543 5.367 6.482 5.367 4.68C5.367 2.879 4.524 1.818 3.1 1.818C1.862 1.818 1.118 2.548 1.118 3.764L1.095 3.764L1.095 0L0 0L0 7.432L1.095 7.432L1.095 5.597L1.118 5.597C1.118 6.813 1.862 7.543 3.1 7.543ZM8.695 2.714C9.713 2.714 10.305 3.488 10.305 4.68C10.305 5.873 9.713 6.647 8.695 6.647C7.677 6.647 7.086 5.917 7.086 4.68C7.086 3.444 7.677 2.714 8.695 2.714ZM11.323 7.432L11.323 1.929L10.228 1.929L10.228 3.764L10.207 3.764C10.207 2.548 9.473 1.818 8.224 1.818C6.801 1.818 5.958 2.879 5.958 4.68C5.958 6.482 6.8 7.543 8.224 7.543C9.473 7.543 10.207 6.813 10.207 5.597L10.228 5.597L10.228 7.432L11.323 7.432ZM17.327 4.04L17.327 7.434L16.232 7.434L16.232 4.073C16.232 3.211 15.761 2.714 14.961 2.714C14.064 2.714 13.527 3.354 13.527 4.438L13.527 7.432L12.431 7.432L12.431 1.929L13.527 1.929L13.527 3.841L13.549 3.841C13.549 2.571 14.227 1.818 15.378 1.818C16.605 1.818 17.327 2.647 17.327 4.04ZM22.316 7.432L23.707 7.432L20.761 4.548L23.487 1.929L22.129 1.929L19.513 4.526L19.49 4.526L19.49 0L18.395 0L18.395 7.432L19.49 7.432L19.49 4.614L19.513 4.614L22.316 7.432Z" fill="rgb(255,6,81)" fill-opacity="1.000" fill-rule="evenodd" transform="matrix(1 0 0 1 92.2926 21.2893)"/></svg>