<svg xmlns="http://www.w3.org/2000/svg" viewBox="0 0 60 60" width="60" height="60"><path d="M0 0L60 0L60 60L0 60L0 0Z" fill="rgb(255,255,255)" fill-opacity="1.000" fill-rule="nonzero" transform="matrix(1 0 0 1 0 0)"/><path d="M8.685 6.445C7.102 6.445 5.71 6.878 4.559 7.743L3.839 8.273L3.839 0L0 1.154L0 23.615L3.887 23.615L3.887 22.22L4.607 22.749C5.806 23.567 7.198 24 8.733 24C13.148 24 16.747 20.056 16.747 15.198C16.747 10.341 13.1 6.445 8.685 6.445ZM8.397 20.056C5.806 20.056 3.839 17.988 3.839 15.246C3.839 12.505 5.806 10.389 8.397 10.389C10.989 10.389 12.956 12.457 12.956 15.198C12.908 17.94 10.989 20.056 8.397 20.056Z" fill="rgb(51,51,204)" fill-opacity="1.000" fill-rule="nonzero" transform="matrix(1 0 0 1 8 18)"/><path d="M7.246 7.359L6.814 7.214C4.991 6.541 4.223 6.108 4.223 5.146C4.223 4.136 5.23 3.752 6.19 3.752C7.15 3.752 8.302 4.088 8.302 5.531L8.302 6.349L12.14 6.349L12.14 5.531C12.14 2.309 9.693 0 6.19 0C2.399 0 0.432 2.549 0.432 5.098C0.432 8.705 3.407 9.764 5.806 10.629L6.046 10.725C7.87 11.399 8.781 11.88 8.781 12.697C8.781 13.804 7.582 14.188 6.526 14.188C5.326 14.188 3.839 13.852 3.839 12.168L3.839 11.303L0 11.303L0 12.168C0 15.631 2.591 17.94 6.526 17.94C10.029 17.94 12.62 15.776 12.62 12.745C12.572 9.331 9.597 8.224 7.246 7.359Z" fill="rgb(51,51,204)" fill-opacity="1.000" fill-rule="nonzero" transform="matrix(1 0 0 1 25.5627 24.0601)"/><path d="M7.774 15.343L11.9 15.343L11.9 13.852L5.998 13.852L8.541 11.351C10.605 9.331 11.613 7.503 11.613 5.627C11.613 2.838 9.645 0 5.854 0C3.023 0 0 1.78 0 5.627L0 6.301L3.791 6.301L3.791 5.675C3.791 4.377 4.511 3.703 5.902 3.703C6.814 3.703 7.822 4.232 7.822 5.627C7.822 6.782 6.67 8.032 5.854 8.85L2.111 12.601C0.816 13.9 0.048 15.679 0.048 17.507L11.948 17.507L11.948 16.016L7.774 16.016C7.582 16.016 7.39 15.872 7.39 15.631C7.39 15.535 7.534 15.343 7.774 15.343ZM13.532 15.727C13.532 16.016 13.292 16.257 13.004 16.257C12.716 16.257 12.476 16.016 12.476 15.727C12.476 15.439 12.716 15.198 13.004 15.198C13.292 15.198 13.532 15.439 13.532 15.727Z" fill="rgb(51,51,204)" fill-opacity="1.000" fill-rule="nonzero" transform="matrix(1 0 0 1 38.9508 24.0601)"/></svg>