<svg xmlns="http://www.w3.org/2000/svg" viewBox="0 0 60 60" width="60" height="60"><path d="M0 0L60 0L60 60L0 60L0 0Z" fill="rgb(255,255,255)" fill-opacity="1.000" fill-rule="nonzero" transform="matrix(1 0 0 1 0 0)"/><path d="M34.27 20.608L34.795 17.988L30.279 17.988L30.279 14.408L27.109 14.899L27.109 25.591C27.109 29.288 28.523 30.388 32.377 30.388L34.065 30.388L34.59 27.791L32.605 27.791C30.849 27.791 30.279 27.347 30.279 25.381L30.279 20.608L34.27 20.608ZM12.49 13.168L12.49 24.656C12.49 28.914 14.405 30.692 18.579 30.692C22.912 30.692 24.828 28.961 24.828 24.679L24.828 23.58C24.828 19.556 23.049 17.59 19.172 17.59C17.94 17.59 16.595 17.847 15.682 18.572L15.682 12.653L12.49 13.168ZM18.693 20.163C20.882 20.163 21.658 21.053 21.658 23.696L21.658 24.679C21.658 27.252 20.882 28.142 18.647 28.142C16.413 28.142 15.637 27.252 15.637 24.656L15.637 23.322C15.637 20.959 16.413 20.163 18.693 20.163ZM41.933 17.59C37.76 17.59 35.844 19.391 35.844 23.509L35.844 24.141C35.844 28.048 37.509 29.943 41.431 29.943C42.686 29.943 43.94 29.71 44.83 28.984L44.83 29.452C44.83 31.652 43.895 32.376 41.705 32.376L40.394 32.376C39.645 32.39 39.304 32.526 38.853 33.286L38.85 33.285C35.09 39.39 28.561 43.12 21.446 43.12C10.093 43.12 0.858 33.646 0.858 22C0.858 10.354 10.093 0.88 21.446 0.88C29.42 0.88 36.674 5.617 40.068 12.99L41.014 12.99C37.555 5.095 29.887 0 21.446 0C9.621 0 0 9.869 0 22C0 34.131 9.621 44 21.446 44C28.4 44 34.818 40.579 38.819 34.903L41.888 34.903C45.924 34.903 48 33.336 48 29.335L48 23.299C48 19.321 46.016 17.59 41.933 17.59ZM44.853 24.539C44.853 26.738 44.1 27.416 41.934 27.416C39.493 27.416 39.014 26.551 39.014 24.001L39.014 23.603C39.014 21.076 39.447 20.163 41.933 20.163C44.374 20.163 44.853 21.053 44.853 23.626L44.853 24.539Z" fill="rgb(0,30,97)" fill-opacity="1.000" fill-rule="evenodd" transform="matrix(1 0 0 1 6 8)"/></svg>