<svg xmlns="http://www.w3.org/2000/svg" viewBox="0 0 130 60" width="130" height="60"><path d="M0 0L130 0L130 60L0 60L0 0Z" fill="rgb(255,255,255)" fill-opacity="1.000" fill-rule="nonzero" transform="matrix(1 0 0 1 0 0)"/><path d="M94.101 16.985L91.659 16.985L91.456 17.877L94.101 17.877C96.521 17.877 97.337 18.533 97.337 20.475L97.337 21.416C96.737 20.804 95.676 20.494 94.177 20.494C91.785 20.494 90.623 21.527 90.623 23.65L90.623 23.804C90.623 25.795 91.768 26.804 94.025 26.804L94.633 26.804C97.025 26.804 98.238 25.795 98.238 23.804L98.238 20.475C98.238 17.996 97.039 16.985 94.101 16.985ZM97.337 23.933C97.337 25.357 96.572 25.912 94.608 25.912L94.228 25.912C92.333 25.912 91.524 25.282 91.524 23.804L91.524 23.65C91.524 22.045 92.295 21.36 94.101 21.36L94.253 21.36C96.415 21.36 97.337 22.022 97.337 23.572L97.337 23.933ZM31.384 18.735L31.865 16.353L27.729 16.353L27.729 13.098L24.826 13.545L24.826 23.265C24.826 26.625 26.12 27.625 29.65 27.625L31.196 27.625L31.676 25.264L29.859 25.264C28.251 25.264 27.729 24.861 27.729 23.073L27.729 18.735L31.384 18.735ZM11.438 11.971L11.438 22.415C11.438 26.286 13.192 27.902 17.014 27.902C20.983 27.902 22.737 26.328 22.737 22.436L22.737 21.436C22.737 17.778 21.108 15.991 17.557 15.991C16.429 15.991 15.197 16.225 14.362 16.884L14.362 11.503L11.438 11.971ZM17.119 18.33C19.124 18.33 19.834 19.139 19.834 21.542L19.834 22.436C19.834 24.775 19.124 25.584 17.077 25.584C15.03 25.584 14.32 24.775 14.32 22.414L14.32 21.202C14.32 19.054 15.03 18.33 17.119 18.33ZM38.402 15.991C34.58 15.991 32.825 17.629 32.825 21.372L32.825 21.946C32.825 25.498 34.35 27.221 37.942 27.221C39.091 27.221 40.24 27.009 41.054 26.349L41.054 26.775C41.054 28.774 40.198 29.433 38.193 29.433L36.992 29.433C36.306 29.445 35.994 29.57 35.581 30.26L35.578 30.259C32.134 35.809 26.156 39.2 19.64 39.2C9.243 39.2 0.786 30.587 0.786 20C0.786 9.413 9.243 0.8 19.64 0.8C26.942 0.8 33.586 5.107 36.694 11.809L37.56 11.809C34.392 4.632 27.37 0 19.64 0C8.811 0 0 8.972 0 20C0 31.028 8.811 40 19.64 40C26.009 40 31.886 36.89 35.55 31.73L38.36 31.73C42.057 31.73 43.957 30.305 43.957 26.668L43.957 21.181C43.957 17.565 42.14 15.991 38.402 15.991ZM41.075 22.308C41.075 24.307 40.386 24.924 38.402 24.924C36.167 24.924 35.728 24.137 35.728 21.819L35.728 21.457C35.728 19.16 36.125 18.33 38.402 18.33C40.636 18.33 41.075 19.139 41.075 21.478L41.075 22.308ZM100.099 26.804L101 26.804L101 13.296L100.099 13.296L100.099 26.804L100.099 26.804ZM79.796 17.877L79.998 16.985L75.968 16.985L75.968 14.435L75.042 14.604L75.042 23.34C75.042 25.828 75.957 26.753 78.418 26.753L79.749 26.753L79.918 25.861L78.418 25.861C76.563 25.861 75.968 25.261 75.968 23.391L75.968 17.878L79.797 17.878L79.796 17.877ZM88.14 22.927C88.14 25.226 87.434 25.964 85.234 25.964C83.098 25.964 82.378 25.198 82.378 22.927L82.378 16.985L81.451 16.985L81.451 22.927C81.451 25.754 82.512 26.856 85.233 26.856C87.938 26.856 89.041 25.718 89.041 22.927L89.041 16.985L88.14 16.985L88.14 22.927ZM67.759 22.282L67.759 21.456C67.759 18.814 68.645 17.877 71.147 17.877L73.26 17.877L73.462 16.985L71.147 16.985C68.164 16.985 66.832 18.364 66.832 21.456L66.832 22.282C66.832 25.374 68.163 26.753 71.147 26.753L73.285 26.753L73.487 25.861L71.147 25.861C68.709 25.861 67.759 24.858 67.759 22.282L67.759 22.282ZM61.089 16.985L58.646 16.985L58.444 17.877L61.089 17.877C63.489 17.877 64.299 18.533 64.299 20.475L64.299 21.416C63.7 20.804 62.639 20.494 61.139 20.494C58.748 20.494 57.585 21.527 57.585 23.65L57.585 23.804C57.585 25.795 58.738 26.804 61.012 26.804L61.62 26.804C63.996 26.804 65.2 25.795 65.2 23.804L65.2 20.475C65.2 17.996 64.009 16.985 61.089 16.985ZM64.299 23.933C64.299 25.376 63.566 25.912 61.595 25.912L61.215 25.912C59.303 25.912 58.486 25.282 58.486 23.804L58.486 23.65C58.486 22.045 59.257 21.36 61.063 21.36L61.215 21.36C63.377 21.36 64.299 22.022 64.299 23.572L64.299 23.933ZM52.018 16.831C49.161 16.831 47.831 18.268 47.831 21.353L47.831 29.746L48.732 29.746L48.732 25.436C49.384 26.299 50.6 26.804 52.069 26.804C54.913 26.804 56.181 25.409 56.181 22.282L56.181 21.327C56.181 18.217 54.897 16.831 52.018 16.831ZM55.254 22.282C55.254 24.928 54.391 25.912 52.069 25.912C49.871 25.912 48.757 24.821 48.757 22.669L48.757 21.353C48.757 18.774 49.702 17.722 52.018 17.722C54.347 17.722 55.254 18.733 55.254 21.327L55.254 22.282Z" fill="rgb(0,30,97)" fill-opacity="1.000" fill-rule="evenodd" transform="matrix(1 0 0 1 14 10)"/></svg>