<svg xmlns="http://www.w3.org/2000/svg" viewBox="0 0 60 60" width="60" height="60"><path d="M0 0L60 0L60 60L0 60L0 0Z" fill="rgb(21,187,238)" fill-opacity="1.000" fill-rule="nonzero" transform="matrix(1 0 0 1 0 0)"/><path d="M19.735 0.002C15.87 -0.047 12.078 1.053 8.84 3.16C5.603 5.267 3.067 8.287 1.554 11.836C0.042 15.385 -0.379 19.303 0.345 23.091C1.07 26.879 2.907 30.367 5.623 33.11C8.339 35.854 11.812 37.73 15.599 38.5C19.387 39.27 23.318 38.899 26.894 37.435C30.47 35.97 33.528 33.477 35.68 30.274C37.833 27.071 38.982 23.302 38.982 19.445C39.013 14.321 37.003 9.393 33.393 5.747C29.784 2.101 24.871 0.034 19.735 0.002ZM19.735 36.713C16.303 36.756 12.936 35.779 10.061 33.907C7.187 32.036 4.935 29.354 3.592 26.203C2.25 23.051 1.876 19.573 2.52 16.209C3.163 12.845 4.794 9.749 7.206 7.312C9.618 4.876 12.701 3.21 16.065 2.526C19.428 1.842 22.919 2.171 26.094 3.472C29.269 4.772 31.985 6.985 33.896 9.83C35.808 12.674 36.828 16.021 36.829 19.445C36.857 23.996 35.072 28.372 31.867 31.61C28.662 34.849 24.299 36.685 19.737 36.715" fill="rgb(255,255,255)" fill-opacity="1.000" fill-rule="evenodd" transform="matrix(1 0 0 1 10.0176 11.0435)"/><path d="M15.435 0.001C12.412 -0.037 9.446 0.823 6.914 2.471C4.383 4.119 2.399 6.481 1.216 9.256C0.033 12.032 -0.296 15.096 0.27 18.059C0.837 21.021 2.273 23.749 4.398 25.895C6.522 28.041 9.238 29.508 12.2 30.111C15.162 30.713 18.237 30.423 21.033 29.277C23.83 28.131 26.222 26.182 27.905 23.677C29.589 21.171 30.487 18.223 30.487 15.207C30.508 11.2 28.935 7.349 26.113 4.498C23.291 1.647 19.451 0.03 15.435 0.001ZM14.573 26.439C14.572 26.596 14.54 26.751 14.479 26.896C14.418 27.041 14.329 27.173 14.216 27.283C14.104 27.394 13.971 27.481 13.825 27.54C13.679 27.599 13.523 27.629 13.366 27.628L11.901 27.628C11.745 27.629 11.59 27.598 11.446 27.539C11.302 27.479 11.171 27.391 11.062 27.28C10.952 27.17 10.866 27.038 10.807 26.894C10.749 26.749 10.721 26.594 10.724 26.439L10.724 24.436C10.725 24.357 10.696 24.28 10.643 24.221C10.59 24.161 10.517 24.124 10.437 24.117C9.581 24.023 8.789 23.616 8.216 22.974C7.643 22.331 7.328 21.5 7.334 20.64L7.334 19.712C7.333 19.572 7.359 19.433 7.412 19.303C7.465 19.173 7.543 19.055 7.642 18.955C7.741 18.855 7.858 18.776 7.988 18.721C8.117 18.667 8.256 18.638 8.396 18.638L12.964 18.638C13.176 18.639 13.387 18.682 13.583 18.764C13.779 18.846 13.956 18.966 14.106 19.117C14.255 19.268 14.374 19.447 14.454 19.644C14.534 19.84 14.574 20.051 14.573 20.263L14.573 26.439ZM23.22 20.634C23.225 21.498 22.907 22.333 22.327 22.976C21.748 23.619 20.95 24.023 20.088 24.111C20.015 24.121 19.947 24.155 19.895 24.208C19.843 24.261 19.81 24.329 19.801 24.402L19.801 26.404C19.801 26.717 19.678 27.018 19.458 27.241C19.237 27.464 18.937 27.591 18.623 27.595L17.157 27.595C17.001 27.595 16.847 27.565 16.703 27.505C16.558 27.445 16.428 27.357 16.318 27.246C16.208 27.135 16.122 27.004 16.064 26.859C16.006 26.714 15.978 26.56 15.98 26.404L15.98 19.533C15.981 19.258 15.91 18.987 15.774 18.747C15.638 18.508 15.442 18.308 15.205 18.167L9.287 14.626C8.796 14.324 8.389 13.902 8.108 13.399C7.826 12.896 7.679 12.329 7.68 11.753L7.68 9.756C7.675 8.893 7.993 8.058 8.572 7.415C9.15 6.773 9.948 6.368 10.809 6.28C10.883 6.269 10.95 6.235 11.002 6.182C11.053 6.129 11.086 6.061 11.096 5.988L11.096 3.947C11.095 3.634 11.219 3.333 11.44 3.111C11.66 2.888 11.96 2.762 12.274 2.759L13.739 2.759C13.895 2.758 14.05 2.788 14.194 2.848C14.338 2.907 14.469 2.995 14.579 3.106C14.688 3.216 14.775 3.348 14.833 3.492C14.891 3.637 14.92 3.791 14.917 3.947L14.917 10.826C14.923 11.099 14.997 11.368 15.132 11.606C15.268 11.844 15.46 12.046 15.693 12.191L21.61 15.732C22.102 16.034 22.509 16.456 22.791 16.959C23.073 17.461 23.221 18.028 23.22 18.604L23.22 20.634ZM22.444 11.754L17.877 11.754C17.664 11.753 17.453 11.71 17.257 11.628C17.061 11.546 16.883 11.426 16.734 11.275C16.584 11.124 16.466 10.945 16.386 10.748C16.305 10.552 16.265 10.341 16.266 10.129L16.266 3.947C16.266 3.634 16.39 3.333 16.611 3.111C16.832 2.888 17.132 2.762 17.446 2.759L18.91 2.759C19.066 2.758 19.22 2.788 19.365 2.848C19.509 2.907 19.64 2.995 19.749 3.106C19.859 3.216 19.946 3.348 20.004 3.492C20.062 3.637 20.091 3.791 20.088 3.947L20.088 5.95C20.087 6.029 20.116 6.106 20.169 6.165C20.222 6.224 20.295 6.261 20.374 6.269C21.231 6.363 22.022 6.77 22.596 7.412C23.169 8.054 23.483 8.885 23.478 9.745L23.478 10.674L23.505 10.674C23.507 10.814 23.48 10.954 23.428 11.084C23.375 11.214 23.297 11.332 23.198 11.432C23.099 11.532 22.982 11.611 22.852 11.666C22.722 11.72 22.583 11.749 22.443 11.749" fill="rgb(255,255,255)" fill-opacity="1.000" fill-rule="evenodd" transform="matrix(1 0 0 1 14.317 15.311)"/></svg>