<svg xmlns="http://www.w3.org/2000/svg" viewBox="0 0 130 60" width="130" height="60"><path d="M0 0L130 0L130 60L0 60L0 0Z" fill="rgb(255,255,255)" fill-opacity="1.000" fill-rule="nonzero" transform="matrix(1 0 0 1 0 0)"/><path d="M106.484 0L0 0L0 32.522L106.484 32.522L106.484 0Z" fill="rgb(0,0,0)" fill-opacity="1.000" fill-rule="nonzero" transform="matrix(1 0 0 1 11.7422 13.478)"/><path d="M8.615 0.001C6.928 -0.02 5.273 0.46 3.859 1.38C2.446 2.299 1.339 3.618 0.679 5.167C0.018 6.717 -0.165 8.427 0.151 10.081C0.467 11.734 1.269 13.257 2.455 14.455C3.641 15.653 5.157 16.472 6.81 16.808C8.464 17.144 10.18 16.982 11.741 16.343C13.302 15.703 14.637 14.615 15.577 13.217C16.516 11.818 17.018 10.173 17.018 8.489C17.031 6.252 16.154 4.101 14.578 2.509C13.003 0.917 10.858 0.015 8.615 0.001ZM8.615 16.028C7.117 16.046 5.647 15.62 4.392 14.803C3.138 13.986 2.155 12.815 1.568 11.439C0.982 10.063 0.819 8.545 1.1 7.076C1.381 5.608 2.093 4.256 3.146 3.192C4.199 2.129 5.545 1.401 7.013 1.103C8.481 0.804 10.005 0.948 11.392 1.516C12.778 2.083 13.963 3.05 14.798 4.291C15.632 5.533 16.078 6.994 16.078 8.489C16.09 10.476 15.311 12.386 13.912 13.8C12.513 15.214 10.608 16.015 8.617 16.028" fill="rgb(21,187,238)" fill-opacity="1.000" fill-rule="evenodd" transform="matrix(1 0 0 1 101.2087 19.0772)"/><path d="M6.738 0.001C5.419 -0.016 4.124 0.359 3.019 1.079C1.913 1.798 1.047 2.829 0.531 4.041C0.014 5.253 -0.129 6.59 0.118 7.884C0.365 9.177 0.992 10.368 1.92 11.305C2.847 12.242 4.033 12.882 5.326 13.145C6.619 13.408 7.962 13.281 9.182 12.781C10.403 12.281 11.447 11.43 12.182 10.336C12.917 9.243 13.31 7.956 13.309 6.639C13.319 4.89 12.632 3.208 11.4 1.964C10.168 0.719 8.492 0.013 6.738 0.001ZM6.362 11.542C6.362 11.611 6.348 11.679 6.321 11.742C6.294 11.805 6.255 11.863 6.206 11.911C6.157 11.959 6.099 11.997 6.036 12.023C5.972 12.049 5.904 12.062 5.835 12.061L5.195 12.061C5.127 12.062 5.06 12.048 4.997 12.022C4.934 11.996 4.877 11.958 4.829 11.91C4.781 11.861 4.743 11.804 4.718 11.741C4.693 11.678 4.68 11.61 4.681 11.542L4.681 10.668C4.682 10.633 4.67 10.6 4.646 10.574C4.623 10.548 4.591 10.532 4.557 10.528C4.183 10.487 3.837 10.31 3.587 10.029C3.337 9.749 3.199 9.386 3.202 9.011L3.202 8.605C3.201 8.544 3.213 8.483 3.236 8.427C3.259 8.37 3.293 8.319 3.336 8.275C3.379 8.231 3.431 8.197 3.487 8.173C3.544 8.149 3.604 8.137 3.666 8.136L5.659 8.136C5.752 8.137 5.844 8.156 5.93 8.192C6.015 8.228 6.093 8.28 6.158 8.346C6.223 8.412 6.275 8.49 6.31 8.576C6.345 8.662 6.363 8.753 6.362 8.846L6.362 11.542ZM10.137 9.008C10.139 9.385 10 9.75 9.747 10.03C9.494 10.311 9.146 10.488 8.77 10.526C8.738 10.53 8.708 10.545 8.685 10.568C8.663 10.591 8.648 10.621 8.644 10.653L8.644 11.527C8.645 11.664 8.591 11.795 8.494 11.892C8.398 11.99 8.267 12.045 8.13 12.047L7.49 12.047C7.422 12.047 7.355 12.034 7.292 12.007C7.229 11.981 7.172 11.943 7.124 11.895C7.076 11.846 7.038 11.789 7.013 11.726C6.988 11.662 6.975 11.595 6.976 11.527L6.976 8.527C6.977 8.407 6.946 8.289 6.886 8.184C6.827 8.08 6.741 7.993 6.638 7.931L4.055 6.385C3.84 6.253 3.663 6.069 3.54 5.849C3.417 5.63 3.352 5.382 3.353 5.131L3.353 4.259C3.351 3.882 3.489 3.518 3.742 3.237C3.995 2.957 4.343 2.78 4.719 2.742C4.751 2.737 4.78 2.722 4.803 2.699C4.825 2.676 4.84 2.646 4.844 2.614L4.844 1.723C4.844 1.586 4.898 1.455 4.994 1.358C5.091 1.261 5.221 1.206 5.358 1.204L5.998 1.204C6.066 1.204 6.134 1.217 6.196 1.243C6.259 1.269 6.317 1.308 6.364 1.356C6.412 1.404 6.45 1.462 6.476 1.525C6.501 1.588 6.513 1.655 6.512 1.723L6.512 4.726C6.515 4.846 6.547 4.963 6.606 5.067C6.665 5.171 6.749 5.259 6.851 5.322L9.434 6.868C9.649 7 9.827 7.184 9.95 7.403C10.073 7.623 10.137 7.87 10.137 8.122L10.137 9.008ZM9.798 5.131L7.804 5.131C7.711 5.131 7.62 5.112 7.534 5.076C7.448 5.04 7.371 4.988 7.305 4.922C7.24 4.856 7.188 4.778 7.153 4.692C7.118 4.606 7.101 4.515 7.101 4.422L7.101 1.723C7.101 1.586 7.155 1.455 7.252 1.358C7.348 1.261 7.479 1.206 7.616 1.204L8.255 1.204C8.323 1.204 8.391 1.217 8.454 1.243C8.517 1.269 8.574 1.308 8.622 1.356C8.67 1.404 8.707 1.462 8.733 1.525C8.758 1.588 8.771 1.655 8.77 1.723L8.77 2.597C8.769 2.632 8.782 2.666 8.805 2.691C8.828 2.717 8.86 2.733 8.895 2.737C9.269 2.778 9.614 2.956 9.864 3.236C10.115 3.516 10.252 3.879 10.25 4.254L10.25 4.66L10.262 4.66C10.262 4.721 10.251 4.782 10.228 4.839C10.205 4.895 10.17 4.947 10.127 4.991C10.084 5.034 10.033 5.069 9.976 5.093C9.92 5.117 9.859 5.129 9.798 5.129" fill="rgb(21,187,238)" fill-opacity="1.000" fill-rule="evenodd" transform="matrix(1 0 0 1 103.0858 20.9401)"/><path d="M1.856 0L6.559 0C7.052 0.008 7.523 0.209 7.87 0.56C8.217 0.91 8.413 1.382 8.416 1.874L8.416 27.771C8.416 28.848 7.55 29.285 6.484 29.285L1.931 29.285C0.866 29.285 0 28.848 0 27.771L0 1.874C-0.002 1.63 0.045 1.387 0.137 1.16C0.229 0.933 0.365 0.727 0.538 0.553C0.71 0.378 0.915 0.24 1.142 0.145C1.368 0.05 1.611 0.001 1.856 0Z" fill="rgb(21,187,238)" fill-opacity="1.000" fill-rule="evenodd" transform="matrix(1 0 0 1 62.6453 16.2908)"/><path d="M6.559 26.471L1.856 26.471C0.828 26.471 0 26.072 0 25.034L0 1.874C-0.002 1.63 0.045 1.387 0.137 1.16C0.229 0.933 0.365 0.727 0.538 0.552C0.71 0.378 0.916 0.24 1.142 0.145C1.368 0.05 1.611 0.001 1.856 0L6.559 0C6.804 0.001 7.047 0.05 7.273 0.145C7.499 0.24 7.705 0.378 7.877 0.552C8.05 0.726 8.186 0.933 8.278 1.16C8.37 1.387 8.417 1.63 8.414 1.874L8.414 25.033C8.414 26.072 7.588 26.471 6.559 26.471Z" fill="rgb(21,187,238)" fill-opacity="1.000" fill-rule="evenodd" transform="matrix(1 0 0 1 52.8253 19.1038)"/><path d="M1.856 0L6.559 0C6.804 0.001 7.047 0.05 7.273 0.145C7.5 0.24 7.705 0.378 7.877 0.553C8.049 0.727 8.186 0.933 8.278 1.16C8.37 1.387 8.417 1.63 8.414 1.874L8.414 25.034C8.414 26.073 7.588 26.471 6.559 26.471L1.856 26.471C0.827 26.472 0 26.074 0 25.034L0 1.874C-0.002 1.63 0.045 1.387 0.137 1.16C0.229 0.933 0.365 0.727 0.538 0.553C0.71 0.378 0.915 0.24 1.142 0.145C1.368 0.05 1.611 0.001 1.856 0Z" fill="rgb(21,187,238)" fill-opacity="1.000" fill-rule="evenodd" transform="matrix(1 0 0 1 11.7422 19.1032)"/><path d="M1.873 0L2.864 0C4.761 -0.011 6.585 0.731 7.935 2.061C9.285 3.391 10.05 5.202 10.063 7.095C10.062 8.105 9.844 9.104 9.422 10.022C9 10.94 8.385 11.757 7.618 12.416C9.059 13.345 10.158 14.716 10.748 16.324C11.338 17.931 11.387 19.686 10.889 21.324C10.39 22.961 9.37 24.392 7.983 25.4C6.597 26.408 4.919 26.938 3.203 26.909L1.873 26.909C1.616 26.909 1.362 26.856 1.127 26.753C0.891 26.651 0.679 26.501 0.504 26.313C0.329 26.126 0.194 25.904 0.108 25.663C0.022 25.421 -0.013 25.164 0.004 24.908L0.004 1.875C0.003 1.379 0.199 0.903 0.55 0.552C0.9 0.2 1.376 0.002 1.873 0Z" fill="rgb(21,187,238)" fill-opacity="1.000" fill-rule="evenodd" transform="matrix(1 0 0 1 21.0675 19.0905)"/><path d="M1.844 0L6.57 0C7.062 0.004 7.533 0.202 7.878 0.551C8.224 0.9 8.417 1.372 8.414 1.862L8.414 17.444C8.414 17.567 8.389 17.688 8.341 17.801C8.294 17.913 8.224 18.016 8.137 18.102C8.05 18.187 7.946 18.255 7.833 18.301C7.719 18.347 7.597 18.37 7.475 18.369C3.311 18.369 0 14.024 0 9.564L0 1.849C0 1.361 0.194 0.892 0.54 0.546C0.885 0.199 1.354 0.003 1.844 0Z" fill="rgb(21,187,238)" fill-opacity="1.000" fill-rule="evenodd" transform="matrix(1 0 0 1 33.6892 27.6301)"/><path d="M1.844 0L6.571 0C7.06 0.003 7.529 0.199 7.874 0.546C8.219 0.892 8.413 1.361 8.414 1.849L8.414 9.565C8.414 14.025 5.103 18.37 0.94 18.37C0.817 18.371 0.695 18.348 0.582 18.302C0.468 18.256 0.364 18.188 0.277 18.102C0.19 18.016 0.12 17.914 0.073 17.801C0.025 17.688 0 17.567 0 17.444L0 1.862C-0.002 1.372 0.191 0.9 0.536 0.551C0.882 0.202 1.352 0.004 1.844 0Z" fill="rgb(21,187,238)" fill-opacity="1.000" fill-rule="evenodd" transform="matrix(1 0 0 1 43.0307 27.6301)"/><path d="M1.855 0L6.558 0C6.803 0.001 7.045 0.05 7.271 0.145C7.497 0.24 7.702 0.378 7.873 0.553C8.045 0.727 8.181 0.934 8.272 1.161C8.363 1.388 8.408 1.63 8.405 1.875L8.405 30.508C8.407 30.771 8.357 31.032 8.257 31.276C8.158 31.52 8.011 31.742 7.825 31.929C7.64 32.116 7.419 32.265 7.175 32.367C6.932 32.469 6.671 32.521 6.407 32.522L1.994 32.522C1.73 32.521 1.47 32.468 1.227 32.366C0.984 32.264 0.763 32.115 0.578 31.928C0.393 31.741 0.246 31.519 0.147 31.275C0.048 31.032 -0.002 30.771 0 30.508L0 1.875C-0.002 1.63 0.044 1.387 0.137 1.16C0.229 0.934 0.365 0.727 0.537 0.553C0.71 0.379 0.915 0.24 1.141 0.145C1.367 0.05 1.61 0.001 1.855 0Z" fill="rgb(21,187,238)" fill-opacity="1.000" fill-rule="evenodd" transform="matrix(1 0 0 1 72.4537 13.478)"/><path d="M1.855 5.927C1.362 5.921 0.89 5.721 0.543 5.37C0.196 5.02 0.001 4.547 0 4.054C-0.004 3.525 0.097 3 0.297 2.51C0.496 2.02 0.791 1.574 1.164 1.197C1.536 0.82 1.98 0.521 2.469 0.315C2.958 0.11 3.482 0.003 4.013 0L5.63 0C5.872 0.001 6.112 0.049 6.335 0.143C6.559 0.236 6.761 0.373 6.932 0.545C7.102 0.717 7.236 0.921 7.327 1.145C7.418 1.369 7.464 1.608 7.462 1.85L7.462 4.08C7.464 4.322 7.418 4.561 7.327 4.785C7.236 5.009 7.102 5.213 6.931 5.385C6.761 5.557 6.559 5.693 6.335 5.787C6.112 5.88 5.872 5.929 5.63 5.929L1.855 5.927Z" fill="rgb(21,187,238)" fill-opacity="1.000" fill-rule="evenodd" transform="matrix(1 0 0 1 83.2377 27.6316)"/><path d="M5.876 0L6.565 0C7.053 0.004 7.52 0.201 7.863 0.548C8.206 0.894 8.398 1.362 8.396 1.849L8.396 10.034C8.398 10.521 8.206 10.989 7.863 11.336C7.52 11.683 7.053 11.879 6.565 11.884L5.876 11.884C4.31 11.863 2.816 11.227 1.716 10.115C0.617 9.003 0 7.504 0 5.942C0 4.38 0.617 2.88 1.716 1.768C2.816 0.656 4.31 0.021 5.876 0Z" fill="rgb(21,187,238)" fill-opacity="1.000" fill-rule="evenodd" transform="matrix(1 0 0 1 82.3038 34.1167)"/><path d="M1.856 0L6.559 0C7.053 0.006 7.525 0.206 7.872 0.557C8.22 0.908 8.414 1.381 8.414 1.874L8.414 16.496C8.417 16.741 8.37 16.984 8.278 17.21C8.186 17.437 8.05 17.644 7.877 17.818C7.705 17.992 7.499 18.131 7.273 18.226C7.047 18.32 6.804 18.37 6.559 18.371L1.856 18.371C1.611 18.37 1.368 18.32 1.141 18.226C0.915 18.131 0.71 17.992 0.537 17.818C0.365 17.644 0.229 17.437 0.137 17.21C0.044 16.984 -0.002 16.741 0 16.496L0 1.874C-0.002 1.63 0.045 1.387 0.137 1.16C0.229 0.933 0.365 0.727 0.538 0.553C0.71 0.378 0.915 0.24 1.142 0.145C1.368 0.05 1.611 0.001 1.856 0Z" fill="rgb(21,187,238)" fill-opacity="1.000" fill-rule="evenodd" transform="matrix(1 0 0 1 91.6037 27.6301)"/></svg>