<svg xmlns="http://www.w3.org/2000/svg" viewBox="0 0 130 60" width="130" height="60"><path d="M0 0L130 0L130 60L0 60L0 0Z" fill="rgb(255,255,255)" fill-opacity="1.000" fill-rule="nonzero" transform="matrix(1 0 0 1 0 0)"/><path d="M14.032 14.708C14.758 14.084 15.231 13.263 15.454 12.248L22.622 12.248C22.294 15.151 21.104 17.501 19.053 19.3C17.002 21.1 14.476 22 11.478 22C9.291 22 7.323 21.528 5.572 20.585C3.821 19.641 2.455 18.331 1.473 16.652C0.491 14.974 0 13.09 0 11C0 8.91 0.491 7.026 1.473 5.348C2.455 3.669 3.821 2.359 5.572 1.415C7.323 0.471 9.291 0 11.478 0C14.428 0 16.919 0.868 18.951 2.605C20.982 4.341 22.183 6.617 22.549 9.432L15.484 9.432C15.184 8.504 14.672 7.757 13.946 7.19C13.221 6.625 12.408 6.342 11.508 6.342C10.269 6.342 9.271 6.77 8.512 7.626C7.751 8.482 7.372 9.607 7.372 10.999C7.372 12.383 7.755 13.503 8.519 14.36C9.284 15.216 10.279 15.643 11.508 15.643C12.466 15.643 13.307 15.331 14.032 14.708ZM39.474 8.988C40.866 10.299 41.562 11.995 41.562 14.073C41.562 16.449 40.761 18.365 39.159 19.818C37.555 21.273 35.444 22 32.822 22C30.231 22 28.124 21.27 26.501 19.811C24.877 18.351 24.066 16.46 24.066 14.134C24.066 12.865 24.289 11.587 24.734 10.302C25.179 9.016 25.868 7.61 26.801 6.085L30.095 0.704L37.058 0.703L33.159 7.052C33.549 7.032 33.856 7.022 34.082 7.022C36.283 7.022 38.081 7.677 39.474 8.988ZM34.773 16.023C35.274 15.522 35.525 14.872 35.525 14.073C35.525 13.274 35.274 12.619 34.773 12.106C34.271 11.594 33.621 11.338 32.823 11.338C32.024 11.338 31.372 11.595 30.872 12.106C30.369 12.619 30.119 13.274 30.119 14.073C30.119 14.872 30.369 15.522 30.871 16.023C31.372 16.526 32.024 16.777 32.822 16.777C33.621 16.777 34.272 16.526 34.773 16.023ZM54.615 10.047C57.088 10.765 58.651 12.915 58.651 15.693C58.651 17.229 58.111 18.563 57.047 19.658C55.99 20.745 54.663 21.297 53.105 21.297L46.361 21.297C46.348 21.297 46.336 21.294 46.325 21.29C46.313 21.285 46.303 21.278 46.294 21.269C46.285 21.26 46.279 21.25 46.274 21.239C46.269 21.228 46.267 21.216 46.267 21.203L46.267 0.797C46.267 0.745 46.308 0.703 46.361 0.703L52.301 0.703C53.745 0.703 54.937 1.177 55.841 2.113C56.771 3.011 57.245 4.212 57.245 5.676C57.245 7.64 56.253 9.258 54.615 10.047ZM56.482 19.133C57.43 18.184 57.891 17.059 57.891 15.692C57.891 14.174 57.418 12.931 56.484 11.997C55.518 11.032 54.328 10.562 52.846 10.562L47.028 10.562L47.028 20.536L53.104 20.536C54.44 20.536 55.577 20.063 56.482 19.133ZM47.027 1.464L47.027 9.802L52.301 9.802C53.535 9.802 54.546 9.415 55.307 8.653C56.089 7.872 56.484 6.87 56.484 5.676C56.484 3.195 54.764 1.464 52.301 1.464L47.027 1.464ZM111.982 21.149C111.992 21.163 111.998 21.179 112 21.196C112.001 21.213 111.998 21.23 111.99 21.245C111.982 21.26 111.97 21.273 111.955 21.282C111.941 21.291 111.924 21.296 111.907 21.296L111.199 21.296C111.184 21.296 111.169 21.293 111.155 21.286C111.142 21.279 111.13 21.269 111.122 21.257L103.563 10.655L100.224 14.511L100.224 21.202C100.224 21.215 100.222 21.227 100.218 21.238C100.213 21.25 100.206 21.26 100.197 21.269C100.189 21.278 100.178 21.285 100.167 21.289C100.156 21.294 100.143 21.297 100.131 21.297L99.569 21.297C99.557 21.297 99.544 21.294 99.533 21.29C99.522 21.285 99.511 21.278 99.503 21.269C99.494 21.26 99.487 21.25 99.482 21.239C99.478 21.228 99.475 21.216 99.476 21.203L99.476 0.797C99.476 0.745 99.518 0.703 99.569 0.703L100.131 0.703C100.182 0.703 100.224 0.745 100.224 0.797L100.224 13.377L111.067 0.736C111.075 0.726 111.086 0.717 111.099 0.712C111.111 0.706 111.125 0.703 111.139 0.703L111.881 0.703C111.934 0.703 111.976 0.745 111.976 0.797C111.976 0.82 111.966 0.841 111.953 0.857L104.066 10.053L111.982 21.149ZM94.73 0.703C94.781 0.703 94.823 0.745 94.823 0.797L94.823 21.203C94.823 21.216 94.821 21.228 94.816 21.239C94.811 21.25 94.805 21.26 94.796 21.269C94.787 21.278 94.777 21.285 94.766 21.29C94.754 21.294 94.742 21.297 94.73 21.297L94.471 21.297C94.456 21.297 94.442 21.294 94.428 21.287C94.415 21.28 94.404 21.27 94.395 21.258L80.787 2.375L80.787 21.203C80.788 21.216 80.785 21.228 80.781 21.239C80.776 21.25 80.769 21.26 80.76 21.269C80.752 21.278 80.742 21.285 80.73 21.29C80.719 21.294 80.706 21.297 80.694 21.297L80.121 21.297C80.109 21.297 80.096 21.294 80.085 21.29C80.074 21.285 80.063 21.278 80.055 21.269C80.046 21.26 80.039 21.25 80.035 21.239C80.03 21.228 80.028 21.216 80.028 21.203L80.028 0.797C80.028 0.745 80.07 0.703 80.121 0.703L80.485 0.703C80.5 0.703 80.514 0.707 80.527 0.714C80.54 0.72 80.551 0.73 80.56 0.742L94.062 19.478L94.062 0.798C94.062 0.746 94.104 0.704 94.156 0.704L94.73 0.703ZM76.643 21.17C76.649 21.184 76.651 21.2 76.649 21.215C76.648 21.23 76.642 21.244 76.634 21.256C76.625 21.269 76.613 21.279 76.6 21.286C76.586 21.293 76.571 21.297 76.556 21.297L75.96 21.297C75.941 21.297 75.922 21.291 75.906 21.28C75.891 21.268 75.879 21.253 75.873 21.235L73.491 14.925L63.781 14.925L61.4 21.236C61.394 21.254 61.382 21.269 61.366 21.28C61.35 21.291 61.332 21.297 61.313 21.297L60.716 21.297C60.701 21.297 60.686 21.293 60.672 21.286C60.658 21.279 60.647 21.268 60.638 21.256C60.63 21.243 60.624 21.229 60.623 21.214C60.621 21.199 60.624 21.184 60.629 21.17L68.367 0.764C68.373 0.746 68.385 0.731 68.401 0.72C68.416 0.709 68.435 0.703 68.454 0.703L68.817 0.703C68.836 0.703 68.855 0.709 68.871 0.72C68.887 0.731 68.899 0.746 68.905 0.765L76.643 21.17ZM64.06 14.164L73.213 14.164L68.637 2.172L64.06 14.164Z" fill="rgb(0,0,0)" fill-opacity="1.000" fill-rule="nonzero" transform="matrix(1 0 0 1 9 19)"/></svg>