<svg xmlns="http://www.w3.org/2000/svg" viewBox="0 0 60 60" width="60" height="60"><path d="M0 0L60 0L60 60L0 60L0 0Z" fill="rgb(255,255,255)" fill-opacity="1.000" fill-rule="nonzero" transform="matrix(1 0 0 1 0 0)"/><path d="M16.205 16.714C17.044 16.004 17.59 15.072 17.848 13.918L26.126 13.918C25.747 17.217 24.372 19.888 22.004 21.932C19.635 23.977 16.718 25 13.256 25C10.731 25 8.457 24.464 6.435 23.392C4.413 22.32 2.835 20.83 1.701 18.923C0.567 17.016 0 14.875 0 12.5C0 10.125 0.567 7.984 1.701 6.077C2.835 4.17 4.413 2.68 6.435 1.608C8.457 0.535 10.731 0 13.256 0C16.663 0 19.54 0.986 21.887 2.96C24.232 4.933 25.618 7.52 26.042 10.719L17.882 10.719C17.536 9.664 16.945 8.815 16.106 8.171C15.268 7.528 14.33 7.206 13.291 7.206C11.86 7.206 10.707 7.693 9.83 8.666C8.952 9.639 8.514 10.917 8.514 12.499C8.514 14.072 8.956 15.345 9.838 16.318C10.722 17.291 11.871 17.776 13.291 17.776C14.396 17.776 15.368 17.422 16.205 16.714ZM45.589 10.214C47.196 11.703 48 13.63 48 15.992C48 18.692 47.075 20.869 45.224 22.521C43.373 24.174 40.934 25 37.905 25C34.913 25 32.48 24.171 30.606 22.513C28.73 20.853 27.794 18.704 27.794 16.061C27.794 14.619 28.051 13.167 28.565 11.706C29.08 10.246 29.875 8.648 30.952 6.915L34.757 0.8L42.798 0.799L38.296 8.014C38.745 7.991 39.1 7.979 39.361 7.979C41.903 7.979 43.979 8.724 45.589 10.214ZM40.159 18.208C40.738 17.639 41.028 16.9 41.028 15.992C41.028 15.084 40.738 14.34 40.159 13.757C39.579 13.175 38.828 12.884 37.907 12.884C36.984 12.884 36.231 13.176 35.654 13.757C35.073 14.34 34.784 15.084 34.784 15.992C34.784 16.9 35.073 17.639 35.653 18.208C36.231 18.779 36.984 19.065 37.905 19.065C38.828 19.065 39.581 18.779 40.159 18.208Z" fill="rgb(0,0,0)" fill-opacity="1.000" fill-rule="nonzero" transform="matrix(1 0 0 1 6 17)"/></svg>