<svg xmlns="http://www.w3.org/2000/svg" viewBox="0 0 60 60" width="60" height="60"><path d="M0 0L60 0L60 60L0 60L0 0Z" fill="rgb(0,0,0)" fill-opacity="1.000" fill-rule="nonzero" transform="matrix(1 0 0 1 0 0)"/><path d="M6.424 6.776C6.105 7.057 5.693 7.21 5.268 7.206C4.705 7.206 4.249 7.008 3.899 6.61C3.548 6.217 3.374 5.7 3.374 5.063C3.374 4.423 3.547 3.904 3.895 3.51C4.244 3.115 4.7 2.919 5.267 2.919C5.68 2.919 6.052 3.049 6.383 3.31C6.715 3.571 6.949 3.916 7.087 4.343L10.323 4.343C10.154 3.048 9.604 1.999 8.674 1.199C7.745 0.4 6.604 0 5.254 0C4.254 0 3.351 0.219 2.55 0.652C1.768 1.068 1.117 1.695 0.673 2.463C0.224 3.235 0 4.104 0 5.067C0 6.029 0.224 6.898 0.674 7.67C1.123 8.443 1.749 9.046 2.55 9.481C3.351 9.917 4.254 10.133 5.254 10.133C6.628 10.133 7.782 9.719 8.722 8.892C9.66 8.061 10.206 6.979 10.356 5.642L7.075 5.642C6.972 6.11 6.756 6.488 6.424 6.776ZM15.918 7.381C15.687 7.613 15.389 7.728 15.024 7.728C14.659 7.728 14.361 7.611 14.132 7.381C13.901 7.151 13.786 6.852 13.786 6.483C13.786 6.113 13.903 5.812 14.132 5.576C14.361 5.341 14.659 5.223 15.024 5.223C15.391 5.223 15.687 5.341 15.918 5.576C16.148 5.814 16.263 6.115 16.263 6.483C16.263 6.85 16.147 7.151 15.918 7.381ZM18.067 4.14C17.429 3.536 16.608 3.234 15.599 3.234C15.497 3.234 15.357 3.239 15.179 3.249L16.963 0.325L13.777 0.325L12.267 2.802C11.839 3.505 11.524 4.153 11.321 4.745C11.121 5.312 11.017 5.909 11.014 6.51C11.014 7.581 11.386 8.451 12.128 9.124C12.873 9.796 13.835 10.132 15.022 10.132C16.222 10.132 17.188 9.796 17.922 9.127C18.656 8.458 19.024 7.576 19.024 6.481C19.024 5.524 18.705 4.743 18.067 4.14ZM24.24 0.277L21.258 0.277L21.258 10.14L22.026 10.14L22.026 6.542L24.153 6.542C25.243 6.542 26.108 6.257 26.744 5.69C27.382 5.123 27.7 4.352 27.7 3.381C27.7 2.419 27.389 1.662 26.766 1.108C26.143 0.554 25.302 0.277 24.239 0.277L24.24 0.277ZM26.2 5.216C25.714 5.634 25.012 5.843 24.095 5.843L22.025 5.843L22.025 0.934L24.181 0.934C25.058 0.934 25.736 1.147 26.214 1.574C26.693 2.001 26.931 2.609 26.931 3.394C26.931 4.191 26.687 4.799 26.2 5.216ZM28.811 8.218C28.811 8.839 29.028 9.339 29.463 9.719C29.897 10.096 30.484 10.286 31.229 10.286C31.826 10.286 32.352 10.171 32.806 9.937C33.251 9.713 33.631 9.377 33.907 8.961L33.907 9.326C33.907 9.625 33.994 9.864 34.168 10.034C34.341 10.203 34.573 10.288 34.863 10.288C35.016 10.288 35.171 10.257 35.326 10.2L35.326 9.588C35.216 9.636 35.098 9.661 34.979 9.661C34.863 9.661 34.774 9.624 34.711 9.551C34.649 9.478 34.617 9.38 34.617 9.253L34.617 5.057C34.617 4.279 34.383 3.668 33.915 3.22C33.447 2.773 32.76 2.549 31.853 2.549C31.003 2.549 30.347 2.709 29.884 3.024C29.419 3.339 29.124 3.784 29 4.357L29.651 4.532C29.747 4.094 29.966 3.767 30.31 3.549C30.651 3.33 31.161 3.22 31.836 3.22C33.216 3.22 33.907 3.861 33.907 5.143L33.907 5.653L30.823 6.105C30.157 6.202 29.656 6.414 29.318 6.739C28.979 7.064 28.811 7.557 28.811 8.218ZM31.329 9.602C30.732 9.602 30.281 9.48 29.976 9.237C29.672 8.995 29.52 8.644 29.52 8.189C29.52 7.751 29.634 7.42 29.867 7.191C30.099 6.962 30.474 6.81 30.996 6.732L33.907 6.295L33.907 8.189C33.744 8.557 33.437 8.885 32.987 9.171C32.538 9.458 31.986 9.602 31.329 9.602ZM36.08 12.573L36.08 11.975C36.282 12.082 36.499 12.136 36.731 12.136C36.992 12.136 37.214 12.073 37.398 11.946C37.581 11.819 37.755 11.623 37.92 11.357C38.083 11.088 38.286 10.694 38.527 10.169C37.312 7.567 36.379 5.075 35.733 2.695L36.514 2.695C37.083 4.919 37.874 7.154 38.887 9.397C39.868 7.234 40.662 4.992 41.261 2.695L42 2.695C41.305 5.2 40.384 7.688 39.234 10.154C38.925 10.814 38.667 11.317 38.46 11.662C38.253 12.006 38.014 12.276 37.743 12.47C37.472 12.664 37.144 12.761 36.758 12.761C36.499 12.763 36.272 12.7 36.08 12.573Z" fill="rgb(255,255,255)" fill-opacity="1.000" fill-rule="evenodd" transform="matrix(1 0 0 1 9 24)"/></svg>