<svg xmlns="http://www.w3.org/2000/svg" viewBox="0 0 60 60" width="60" height="60"><path d="M0 60L60 60L60 0L0 0L0 60Z" fill="rgb(0,112,175)" fill-opacity="1.000" fill-rule="nonzero" transform="matrix(1 0 0 1 0 0)"/><path d="M0 19L16.615 19L28 0L11.382 0L0 19Z" fill="rgb(255,255,255)" fill-opacity="1.000" fill-rule="evenodd" transform="matrix(1 0 0 -1 21 50)"/><path d="M0 0L17.126 0L32 19L14.874 19L0 0Z" fill="rgb(246,130,42)" fill-opacity="1.000" fill-rule="evenodd" transform="matrix(1 0 0 -1 23 28)"/><path d="M0 0L17.66 0L33 19L15.337 19L0 0Z" fill="rgb(246,130,42)" fill-opacity="1.000" fill-rule="evenodd" transform="matrix(1 0 0 -1 5 50)"/><path d="M0 19L16.022 19L27 0L10.975 0L0 19Z" fill="rgb(255,255,255)" fill-opacity="1.000" fill-rule="evenodd" transform="matrix(1 0 0 -1 12 28)"/></svg>