<svg xmlns="http://www.w3.org/2000/svg" viewBox="0 0 130 60" width="130" height="60"><path d="M0 0L130 0L130 60L0 60L0 0Z" fill="rgb(255,255,255)" fill-opacity="1.000" fill-rule="nonzero" transform="matrix(1 0 0 1 0 0)"/><path d="M13.287 14.68L10.779 8.285L14.25 8.285L13.299 14.706L13.287 14.68ZM0 0L10.289 21.673L18.068 21.673L22.405 0L15.576 0L15.073 2.889L8.448 2.889L6.924 0L0 0ZM25.639 0L28.619 21.673L35.501 21.673L32.522 0L25.639 0ZM71.407 14.706L68.889 8.285L72.358 8.285L71.407 14.706ZM58.108 0L68.398 21.673L76.176 21.673L80.515 0L73.685 0L73.183 2.889L66.556 2.889L65.032 0L58.108 0Z" fill="rgb(0,112,175)" fill-opacity="1.000" fill-rule="evenodd" transform="matrix(1 0 0 -1 33.3402 41.1278)"/><path d="M0 10.011L8.623 10.011L14.532 0L5.907 0L0 10.011Z" fill="rgb(0,112,175)" fill-opacity="1.000" fill-rule="evenodd" transform="matrix(1 0 0 -1 76.2352 41.0049)"/><path d="M0 0L8.913 0L16.654 9.969L7.741 9.969L0 0Z" fill="rgb(246,130,42)" fill-opacity="1.000" fill-rule="evenodd" transform="matrix(1 0 0 -1 77.1316 29.4562)"/><path d="M0 0L8.912 0L16.652 10.091L7.739 10.091L0 0Z" fill="rgb(246,130,42)" fill-opacity="1.000" fill-rule="evenodd" transform="matrix(1 0 0 -1 68.2201 41.0657)"/><path d="M0 10.091L8.318 10.091L14.017 0L5.698 0L0 10.091Z" fill="rgb(0,112,175)" fill-opacity="1.000" fill-rule="evenodd" transform="matrix(1 0 0 -1 71.4338 29.4562)"/><path d="M16.544 21.216L15.882 14.841C13.346 18.421 7.467 15.951 7.006 11.491C6.419 5.831 12.077 4.512 15.155 7.845L14.492 1.455C13.573 0.994 12.675 0.635 11.788 0.394C10.906 0.151 10.022 0.022 9.145 0.003C8.042 -0.021 7.043 0.097 6.142 0.356C5.242 0.611 4.428 1.016 3.707 1.562C2.317 2.603 1.312 3.925 0.692 5.533C0.073 7.147 -0.13 8.968 0.08 11.004C0.251 12.64 0.653 14.131 1.295 15.483C1.931 16.834 2.813 18.064 3.935 19.178C4.996 20.239 6.151 21.041 7.402 21.585C8.647 22.124 10.006 22.412 11.475 22.444C12.353 22.463 13.214 22.373 14.05 22.166C14.89 21.961 15.718 21.64 16.544 21.216Z" fill="rgb(0,112,175)" fill-opacity="1.000" fill-rule="evenodd" transform="matrix(1 0 0 -1 17 41.4464)"/></svg>