<svg xmlns="http://www.w3.org/2000/svg" viewBox="0 0 60 60" width="60" height="60"><path d="M0 0L60 0L60 60L0 60L0 0Z" fill="rgb(255,255,255)" fill-opacity="1.000" fill-rule="nonzero" transform="matrix(1 0 0 1 0 0)"/><path d="M11.112 24.323C14.719 24.388 17.723 23.252 19.436 20.478C20.674 18.474 20.186 16.141 20.821 12.751C21.472 9.28 23.045 5.925 21.967 3.541C21.501 2.511 20.884 1.822 20.131 1.251C18.057 -0.323 15.072 -0.163 12.985 0.68C10.529 1.672 9.242 0.5 7.909 0.258C6.767 0.051 5.853 -0.196 4.049 0.248C3.291 0.434 1.575 1.194 0.577 3.082C-0.797 5.682 0.588 7.751 1.577 12.252C2.494 16.427 2.194 19.17 3.725 21.18C5.257 23.189 7.505 24.257 11.112 24.323Z" fill="rgb(255,117,0)" fill-opacity="1.000" fill-rule="nonzero" transform="matrix(1 0 0 1 19 23.8804)"/><path d="M8.198 8.591C8.201 7.36 7.129 6.375 5.81 6.394C5.535 6.398 5.277 6.303 5.085 6.126C4.893 5.949 4.787 5.71 4.788 5.454C4.789 5.197 4.896 4.956 5.088 4.774C5.282 4.591 5.54 4.489 5.815 4.485C7.134 4.465 8.211 3.44 8.214 2.197C8.218 0.966 7.146 -0.019 5.826 0C4.287 0.022 2.825 0.615 1.712 1.667C0.612 2.704 0.004 4.075 0 5.524C-0.003 6.973 0.597 8.325 1.692 9.332C2.8 10.353 4.259 10.902 5.798 10.88C7.118 10.86 8.195 9.834 8.198 8.591Z" fill="rgb(0,233,132)" fill-opacity="1.000" fill-rule="nonzero" transform="matrix(1 0 0 1 25.0254 12)"/></svg>