<svg xmlns="http://www.w3.org/2000/svg" viewBox="0 0 130 60" width="130" height="60"><path d="M0 0L130 0L130 60L0 60L0 0Z" fill="rgb(255,255,255)" fill-opacity="1.000" fill-rule="nonzero" transform="matrix(1 0 0 1 0 0)"/><path d="M11.112 24.323C14.719 24.388 17.723 23.252 19.436 20.478C20.674 18.474 20.186 16.141 20.821 12.751C21.472 9.28 23.045 5.925 21.967 3.541C21.501 2.511 20.884 1.822 20.131 1.251C18.057 -0.323 15.072 -0.163 12.985 0.68C10.529 1.672 9.242 0.5 7.909 0.258C6.767 0.051 5.853 -0.196 4.049 0.248C3.291 0.434 1.575 1.194 0.577 3.082C-0.797 5.682 0.588 7.751 1.577 12.252C2.494 16.427 2.194 19.17 3.725 21.18C5.257 23.189 7.505 24.257 11.112 24.323Z" fill="rgb(255,117,0)" fill-opacity="1.000" fill-rule="nonzero" transform="matrix(1 0 0 1 24.5622 23.6736)"/><path d="M8.198 8.591C8.201 7.36 7.129 6.375 5.81 6.394C5.535 6.398 5.277 6.303 5.085 6.126C4.893 5.949 4.787 5.71 4.788 5.454C4.789 5.197 4.896 4.956 5.088 4.774C5.282 4.591 5.54 4.489 5.815 4.485C7.134 4.465 8.211 3.44 8.214 2.197C8.218 0.966 7.146 -0.019 5.826 0C4.287 0.022 2.825 0.615 1.712 1.667C0.612 2.704 0.004 4.075 0 5.524C-0.003 6.973 0.597 8.325 1.692 9.332C2.8 10.353 4.259 10.902 5.798 10.88C7.118 10.86 8.195 9.834 8.198 8.591Z" fill="rgb(0,233,132)" fill-opacity="1.000" fill-rule="nonzero" transform="matrix(1 0 0 1 30.5871 12)"/><path d="M1.782 11.233C0.594 10.105 0 8.522 0 6.484C0 5.189 0.272 4.05 0.819 3.068C1.364 2.085 2.137 1.328 3.139 0.797C4.141 0.266 5.307 0 6.637 0C10.269 0 12.355 1.711 12.893 5.131L9.53 5.131C9.41 4.33 9.118 3.73 8.655 3.329C8.192 2.929 7.534 2.729 6.682 2.729C5.666 2.729 4.854 3.064 4.25 3.733C3.644 4.403 3.341 5.32 3.341 6.484C3.341 7.634 3.64 8.54 4.238 9.203C4.835 9.865 5.665 10.196 6.726 10.196C7.593 10.196 8.277 9.985 8.778 9.563C9.278 9.142 9.582 8.53 9.686 7.729L13.049 7.729C12.975 8.734 12.691 9.629 12.197 10.415C11.704 11.201 10.99 11.816 10.056 12.26C9.122 12.704 8.004 12.925 6.704 12.925C4.611 12.925 2.971 12.361 1.782 11.233Z" fill="rgb(232,5,55)" fill-opacity="1.000" fill-rule="nonzero" transform="matrix(1 0 0 1 55.0735 27.4941)"/><path d="M13.497 0.328L13.497 12.597L10.247 12.597L10.247 8.733C10.127 10.174 9.69 11.233 8.936 11.91C8.181 12.587 7.16 12.925 5.875 12.925C4.694 12.925 3.663 12.671 2.781 12.161C1.898 11.652 1.215 10.914 0.729 9.945C0.243 8.978 0 7.817 0 6.463C0 5.124 0.258 3.967 0.773 2.992C1.289 2.017 1.992 1.274 2.881 0.764C3.769 0.255 4.768 0 5.873 0C7.129 0 8.138 0.339 8.9 1.015C9.663 1.692 10.111 2.744 10.246 4.17L10.246 0.327L13.497 0.327L13.497 0.328ZM9.473 9.213C10.063 8.544 10.358 7.634 10.358 6.484C10.358 5.305 10.063 4.381 9.473 3.711C8.882 3.042 8.063 2.707 7.018 2.707C5.912 2.707 5.019 3.038 4.338 3.701C3.658 4.363 3.318 5.283 3.318 6.462C3.318 7.627 3.661 8.544 4.349 9.213C5.036 9.883 5.926 10.218 7.017 10.218C8.064 10.218 8.882 9.883 9.473 9.213Z" fill="rgb(232,5,55)" fill-opacity="1.000" fill-rule="nonzero" transform="matrix(1 0 0 1 69.9425 27.4941)"/><path d="M0 17.989L0 14.824C0.643 15.013 1.285 15.108 1.928 15.108C2.735 15.108 3.31 14.933 3.655 14.584C3.998 14.235 4.17 13.616 4.17 12.728L4.17 0L7.421 0L7.421 12.881C7.421 14.219 7.237 15.282 6.871 16.068C6.505 16.854 5.937 17.418 5.167 17.76C4.397 18.102 3.37 18.273 2.084 18.273C1.248 18.273 0.554 18.178 0 17.989Z" fill="rgb(232,5,55)" fill-opacity="1.000" fill-rule="nonzero" transform="matrix(1 0 0 1 82.6317 27.822)"/><path d="M11.166 0L11.166 12.27L7.915 12.27L7.915 8.1L7.892 8.1C7.892 9.133 7.713 9.985 7.355 10.654C6.996 11.324 6.529 11.815 5.953 12.128C5.377 12.44 4.753 12.597 4.081 12.597C2.72 12.597 1.701 12.23 1.02 11.495C0.34 10.76 0 9.614 0 8.057L0 0L3.251 0L3.251 7.248C3.251 8.121 3.433 8.758 3.8 9.158C4.166 9.558 4.723 9.758 5.471 9.758C6.129 9.758 6.7 9.518 7.186 9.038C7.672 8.557 7.915 7.902 7.915 7.073L7.915 0L11.166 0Z" fill="rgb(232,5,55)" fill-opacity="1.000" fill-rule="nonzero" transform="matrix(1 0 0 1 93.2709 27.822)"/><path d="M0.571 3.188C0.19 2.824 0 2.387 0 1.877C0 1.354 0.19 0.91 0.571 0.546C0.953 0.182 1.404 0 1.928 0C2.451 0 2.899 0.182 3.273 0.546C3.647 0.91 3.834 1.354 3.834 1.877C3.834 2.386 3.647 2.824 3.273 3.188C2.9 3.551 2.452 3.733 1.928 3.733C1.405 3.733 0.953 3.551 0.571 3.188Z" fill="rgb(0,233,132)" fill-opacity="1.000" fill-rule="nonzero" transform="matrix(1 0 0 1 86.5121 22.08)"/></svg>