<svg xmlns="http://www.w3.org/2000/svg" viewBox="0 0 60 60" width="60" height="60"><defs><linearGradient id="g109" gradientUnits="userSpaceOnUse" x1="30.00" y1="60.84" x2="30.00" y2="-0.84"><stop offset="0.0%" stop-color="rgb(10,108,139)" stop-opacity="1.000"/><stop offset="100.0%" stop-color="rgb(70,192,230)" stop-opacity="1.000"/></linearGradient><linearGradient id="g110" gradientUnits="userSpaceOnUse" x1="-6.17" y1="40.98" x2="59.64" y2="20.87"><stop offset="0.0%" stop-color="rgb(70,230,163)" stop-opacity="1.000"/><stop offset="47.5%" stop-color="rgb(51,199,137)" stop-opacity="1.000"/><stop offset="100.0%" stop-color="rgb(51,199,137)" stop-opacity="1.000"/></linearGradient><linearGradient id="g111" gradientUnits="userSpaceOnUse" x1="61.17" y1="57.55" x2="12.43" y2="8.43"><stop offset="0.0%" stop-color="rgb(187,164,255)" stop-opacity="1.000"/><stop offset="100.0%" stop-color="rgb(113,89,178)" stop-opacity="1.000"/></linearGradient></defs><path d="M0 0L60 0L60 60L0 60L0 0Z" fill="rgb(11,21,33)" fill-opacity="1.000" fill-rule="nonzero" transform="matrix(1 0 0 1 0 0)"/><path d="M12.026 35.458C11.283 35.458 10.553 35.263 9.909 34.891C9.265 34.52 8.731 33.985 8.359 33.342L0.567 19.846C0.196 19.203 0 18.473 0 17.729C0 16.986 0.196 16.256 0.567 15.613L8.36 2.117C8.731 1.473 9.266 0.939 9.909 0.567C10.553 0.196 11.283 0 12.026 0L19.817 0L27.609 0C28.352 0 29.082 0.196 29.726 0.568C30.37 0.939 30.904 1.473 31.276 2.117L36.16 10.579C36.452 11.084 36.531 11.684 36.38 12.248C36.229 12.812 35.86 13.292 35.355 13.584L31.929 15.562C31.423 15.853 30.823 15.932 30.259 15.781C29.696 15.63 29.215 15.262 28.923 14.756L26.023 9.732C25.781 9.314 25.434 8.967 25.016 8.725C24.598 8.484 24.124 8.357 23.641 8.357L15.994 8.357C15.511 8.357 15.037 8.484 14.619 8.725C14.201 8.967 13.853 9.314 13.612 9.732L9.789 16.354C9.547 16.772 9.42 17.247 9.42 17.729C9.42 18.212 9.547 18.686 9.789 19.105L11.701 22.415L13.612 25.727C13.854 26.145 14.201 26.492 14.619 26.733C15.037 26.975 15.511 27.102 15.994 27.102L23.641 27.102C24.623 27.102 25.531 26.577 26.023 25.727L28.923 20.702C29.215 20.197 29.695 19.828 30.259 19.677C30.822 19.526 31.423 19.605 31.928 19.897L35.355 21.875C35.86 22.167 36.229 22.647 36.38 23.211C36.531 23.775 36.452 24.375 36.16 24.88L31.276 33.342C30.904 33.985 30.37 34.52 29.726 34.892C29.082 35.263 28.352 35.459 27.609 35.459L12.026 35.458Z" fill="url(#g109)" fill-rule="evenodd" transform="matrix(1 0 0 1 12 12)"/><path d="M12.947 8.357L12.998 8.357L20.644 8.357C21.627 8.357 22.535 8.881 23.026 9.732L25.926 14.756C26.218 15.262 26.699 15.63 27.262 15.781C27.826 15.932 28.426 15.853 28.932 15.562L32.358 13.584C32.864 13.292 33.232 12.812 33.383 12.248C33.534 11.684 33.455 11.084 33.164 10.579L28.279 2.117C27.908 1.473 27.373 0.939 26.73 0.567C26.086 0.196 25.356 0 24.613 0L16.821 0L9.029 0C8.286 0 7.556 0.196 6.912 0.568C6.269 0.939 5.734 1.473 5.363 2.117L0 11.406C2.172 8.861 5.258 8.356 6.62 8.357L12.947 8.357Z" fill="url(#g110)" fill-rule="nonzero" transform="matrix(1 0 0 1 14.9959 12)"/><path d="M13.825 15.856L9.219 15.856C5.516 15.403 3.002 11.788 2.172 9.921L0 6.124C0.241 6.542 0.589 6.89 1.007 7.131C1.425 7.372 1.899 7.499 2.382 7.499L10.028 7.499C11.011 7.499 11.919 6.975 12.41 6.124L15.31 1.1C15.602 0.595 16.083 0.226 16.646 0.075C17.21 -0.076 17.81 0.003 18.316 0.295L21.742 2.273C22.248 2.564 22.616 3.045 22.767 3.608C22.918 4.172 22.839 4.773 22.548 5.278L17.663 13.739C17.323 14.329 16.846 14.827 16.272 15.193C15.698 15.558 15.045 15.78 14.367 15.84C14.195 15.846 14.014 15.851 13.825 15.856Z" fill="url(#g111)" fill-rule="nonzero" transform="matrix(1 0 0 1 25.6119 31.6027)"/><path d="M3.105 9.145C2.912 9.145 2.722 9.094 2.555 8.998C2.388 8.901 2.249 8.762 2.152 8.595L1.15 6.859L0.147 5.123C0.051 4.956 0 4.766 0 4.573C0 4.38 0.051 4.19 0.147 4.023L1.15 2.286L2.152 0.55C2.249 0.383 2.387 0.244 2.555 0.147C2.722 0.051 2.912 0 3.105 0L7.114 0C7.507 0 7.87 0.21 8.067 0.55L9.069 2.286L10.072 4.023C10.169 4.19 10.219 4.38 10.219 4.573C10.219 4.766 10.169 4.956 10.072 5.123L9.069 6.859L8.067 8.595C7.97 8.762 7.831 8.901 7.664 8.998C7.497 9.094 7.307 9.145 7.114 9.145L3.105 9.145Z" fill="rgb(255,255,255)" fill-opacity="1.000" fill-rule="nonzero" transform="matrix(1 0 0 1 26.7079 25.1877)"/></svg>