<svg xmlns="http://www.w3.org/2000/svg" viewBox="0 0 130 60" width="130" height="60"><defs><linearGradient id="g115" gradientUnits="userSpaceOnUse" x1="65.00" y1="60.84" x2="65.00" y2="-0.84"><stop offset="0.0%" stop-color="rgb(10,108,139)" stop-opacity="1.000"/><stop offset="100.0%" stop-color="rgb(70,192,230)" stop-opacity="1.000"/></linearGradient><linearGradient id="g116" gradientUnits="userSpaceOnUse" x1="-13.37" y1="40.98" x2="129.23" y2="20.87"><stop offset="0.0%" stop-color="rgb(70,230,163)" stop-opacity="1.000"/><stop offset="47.5%" stop-color="rgb(51,199,137)" stop-opacity="1.000"/><stop offset="100.0%" stop-color="rgb(51,199,137)" stop-opacity="1.000"/></linearGradient><linearGradient id="g117" gradientUnits="userSpaceOnUse" x1="132.54" y1="57.55" x2="26.94" y2="8.43"><stop offset="0.0%" stop-color="rgb(187,164,255)" stop-opacity="1.000"/><stop offset="100.0%" stop-color="rgb(113,89,178)" stop-opacity="1.000"/></linearGradient></defs><path d="M0 0L130 0L130 60L0 60L0 0Z" fill="rgb(255,255,255)" fill-opacity="1.000" fill-rule="nonzero" transform="matrix(1 0 0 1 0 0)"/><path d="M9.087 26.792C8.525 26.792 7.974 26.645 7.487 26.364C7.001 26.083 6.597 25.679 6.316 25.193L0.429 14.996C0.148 14.51 0 13.958 0 13.396C0 12.835 0.148 12.283 0.429 11.797L6.317 1.6C6.597 1.113 7.001 0.71 7.487 0.429C7.974 0.148 8.525 0 9.087 0L14.974 0L20.861 0C21.423 0 21.975 0.148 22.461 0.429C22.947 0.71 23.351 1.113 23.632 1.6L27.323 7.993C27.543 8.375 27.603 8.829 27.489 9.255C27.374 9.68 27.096 10.043 26.714 10.264L24.125 11.759C23.743 11.979 23.29 12.039 22.864 11.924C22.438 11.81 22.075 11.532 21.854 11.15L19.663 7.354C19.48 7.038 19.218 6.775 18.902 6.593C18.586 6.411 18.228 6.314 17.863 6.315L12.085 6.315C11.72 6.314 11.362 6.41 11.046 6.593C10.73 6.775 10.468 7.037 10.285 7.353L7.396 12.357C7.214 12.673 7.118 13.032 7.118 13.396C7.118 13.761 7.214 14.119 7.396 14.435L8.841 16.937L10.286 19.439C10.468 19.755 10.73 20.017 11.046 20.2C11.362 20.382 11.72 20.478 12.085 20.478L17.863 20.478C18.605 20.478 19.291 20.082 19.663 19.439L21.854 15.643C22.075 15.261 22.438 14.982 22.863 14.868C23.289 14.754 23.743 14.814 24.125 15.034L26.714 16.529C27.096 16.749 27.374 17.112 27.489 17.538C27.603 17.964 27.543 18.418 27.323 18.8L23.632 25.193C23.351 25.679 22.947 26.083 22.461 26.364C21.975 26.645 21.423 26.793 20.861 26.793L9.087 26.792Z" fill="url(#g115)" fill-rule="evenodd" transform="matrix(1 0 0 1 10.9997 16.4896)"/><path d="M9.782 6.315L9.821 6.315L15.599 6.315C16.341 6.315 17.027 6.711 17.399 7.354L19.59 11.15C19.81 11.532 20.173 11.81 20.599 11.924C21.025 12.039 21.479 11.979 21.861 11.759L24.45 10.264C24.832 10.043 25.11 9.68 25.224 9.255C25.339 8.829 25.279 8.375 25.058 7.993L21.368 1.6C21.087 1.113 20.683 0.709 20.197 0.429C19.711 0.148 19.159 0 18.597 0L12.71 0L6.822 0C6.261 0 5.709 0.148 5.223 0.429C4.737 0.71 4.333 1.113 4.052 1.6L0 8.618C1.641 6.695 3.973 6.314 5.002 6.315L9.782 6.315Z" fill="url(#g116)" fill-rule="nonzero" transform="matrix(1 0 0 1 13.2639 16.4896)"/><path d="M10.446 11.981L6.966 11.981C4.168 11.639 2.269 8.907 1.641 7.496L0 4.627C0.182 4.943 0.445 5.206 0.761 5.388C1.077 5.571 1.435 5.667 1.8 5.667L7.577 5.667C8.32 5.667 9.006 5.27 9.377 4.627L11.569 0.831C11.789 0.449 12.152 0.171 12.578 0.057C13.004 -0.057 13.457 0.002 13.839 0.223L16.428 1.717C16.81 1.938 17.089 2.301 17.203 2.727C17.317 3.152 17.257 3.606 17.037 3.988L13.346 10.381C13.089 10.827 12.729 11.203 12.295 11.48C11.861 11.756 11.368 11.924 10.856 11.969C10.726 11.973 10.589 11.977 10.446 11.981Z" fill="url(#g117)" fill-rule="nonzero" transform="matrix(1 0 0 1 21.2853 31.3015)"/><path d="M2.346 11.095C2.2 11.095 2.057 11.057 1.93 10.984C1.804 10.911 1.699 10.806 1.626 10.68L0.869 9.368L0.111 8.056C0.038 7.93 0 7.786 0 7.64C0 7.494 0.038 7.351 0.111 7.225L0.869 5.913L1.626 4.601C1.699 4.475 1.804 4.37 1.93 4.297C2.057 4.224 2.2 4.185 2.346 4.185L5.375 4.185C5.673 4.185 5.947 4.344 6.096 4.601L6.853 5.913L7.61 7.225C7.683 7.351 7.722 7.494 7.722 7.64C7.722 7.786 7.683 7.93 7.61 8.056L6.853 9.368L6.095 10.68C6.022 10.806 5.917 10.911 5.791 10.984C5.665 11.057 5.521 11.095 5.375 11.095L2.346 11.095ZM93.222 4.817L93.222 4.013C93.222 3.862 93.344 3.74 93.495 3.74L95.864 3.74C96.015 3.74 96.137 3.862 96.137 4.013L96.137 14.515C96.137 14.666 96.015 14.789 95.864 14.789L93.495 14.789C93.423 14.789 93.353 14.76 93.302 14.708C93.25 14.657 93.222 14.587 93.222 14.515L93.222 13.564C92.232 14.355 91.003 14.787 89.736 14.789C86.672 14.789 84.158 12.275 84.158 9.169C84.158 6.105 86.672 3.591 89.736 3.591C91.003 3.593 92.232 4.026 93.222 4.817ZM87.222 9.19C87.221 9.573 87.295 9.953 87.441 10.307C87.588 10.661 87.802 10.983 88.073 11.254C88.344 11.525 88.666 11.74 89.02 11.886C89.374 12.032 89.754 12.107 90.137 12.106C91.764 12.106 93.053 10.817 93.053 9.19C93.053 7.584 91.764 6.296 90.137 6.296C88.531 6.296 87.222 7.584 87.222 9.19ZM77.737 11.261L77.737 1.668C77.737 1.517 77.86 1.395 78.011 1.395L80.379 1.395C80.531 1.395 80.653 1.517 80.653 1.668L80.653 3.74L82.788 3.74C82.939 3.74 83.062 3.862 83.062 4.013L83.062 6.001C83.062 6.074 83.033 6.143 82.981 6.194C82.93 6.246 82.86 6.275 82.788 6.275L80.653 6.275L80.653 11.029C80.674 11.958 81.224 12.423 82.111 12.423L83.084 12.423C83.12 12.423 83.155 12.43 83.188 12.443C83.222 12.457 83.252 12.477 83.277 12.503C83.303 12.528 83.323 12.558 83.337 12.592C83.35 12.625 83.357 12.66 83.357 12.696L83.357 14.638C83.357 14.783 83.246 14.902 83.101 14.91C82.213 14.957 81.328 14.947 80.653 14.831C78.984 14.599 77.758 13.31 77.737 11.261ZM67.372 18.065C67.372 18.101 67.365 18.136 67.351 18.17C67.337 18.203 67.317 18.233 67.291 18.258C67.266 18.284 67.236 18.304 67.203 18.318C67.169 18.331 67.134 18.338 67.098 18.338L64.73 18.338C64.694 18.338 64.658 18.331 64.625 18.318C64.592 18.304 64.562 18.284 64.536 18.258C64.511 18.233 64.491 18.203 64.477 18.17C64.463 18.136 64.456 18.101 64.456 18.065L64.456 4.013C64.456 3.862 64.579 3.74 64.73 3.74L67.098 3.74C67.249 3.74 67.372 3.862 67.372 4.013L67.372 4.817C68.343 4.056 69.548 3.592 70.879 3.592C73.942 3.592 76.456 6.106 76.456 9.169C76.456 12.275 73.942 14.789 70.879 14.789C69.548 14.789 68.343 14.324 67.372 13.564L67.372 18.065ZM73.372 9.19C73.372 7.585 72.062 6.296 70.456 6.296C70.076 6.295 69.699 6.369 69.347 6.514C68.996 6.659 68.676 6.872 68.407 7.141C68.138 7.41 67.925 7.73 67.78 8.081C67.635 8.433 67.561 8.81 67.562 9.19C67.562 10.817 68.85 12.106 70.456 12.106C70.84 12.107 71.219 12.032 71.573 11.886C71.927 11.74 72.249 11.525 72.52 11.254C72.791 10.983 73.006 10.662 73.152 10.307C73.298 9.953 73.373 9.574 73.372 9.19ZM54.09 18.065C54.09 18.216 53.968 18.338 53.817 18.338L51.448 18.338C51.412 18.338 51.377 18.331 51.344 18.318C51.31 18.304 51.28 18.284 51.255 18.258C51.229 18.233 51.209 18.203 51.195 18.17C51.182 18.136 51.175 18.101 51.175 18.065L51.175 4.013C51.175 3.862 51.297 3.74 51.448 3.74L53.817 3.74C53.968 3.74 54.09 3.862 54.09 4.013L54.09 4.817C55.062 4.056 56.266 3.592 57.597 3.592C60.661 3.592 63.175 6.106 63.175 9.169C63.175 12.275 60.661 14.789 57.597 14.789C56.266 14.789 55.062 14.324 54.09 13.564L54.09 18.065ZM60.09 9.19C60.09 7.585 58.781 6.296 57.175 6.296C56.794 6.295 56.417 6.369 56.066 6.514C55.714 6.659 55.394 6.872 55.125 7.141C54.856 7.41 54.643 7.73 54.498 8.081C54.353 8.433 54.279 8.81 54.28 9.19C54.28 10.817 55.569 12.106 57.175 12.106C57.558 12.107 57.937 12.032 58.292 11.886C58.646 11.74 58.968 11.525 59.239 11.254C59.51 10.983 59.724 10.662 59.87 10.307C60.017 9.953 60.091 9.574 60.09 9.19ZM46.497 4.817L46.497 4.013C46.497 3.862 46.62 3.74 46.771 3.74L49.139 3.74C49.291 3.74 49.413 3.862 49.413 4.013L49.413 14.515C49.413 14.587 49.384 14.657 49.333 14.708C49.282 14.76 49.212 14.789 49.139 14.789L46.771 14.789C46.699 14.789 46.629 14.76 46.578 14.708C46.526 14.657 46.497 14.587 46.497 14.515L46.497 13.564C45.508 14.355 44.279 14.787 43.011 14.789C39.948 14.789 37.434 12.275 37.434 9.169C37.434 6.105 39.948 3.591 43.011 3.591C44.279 3.593 45.508 4.026 46.497 4.817ZM40.497 9.19C40.496 9.573 40.571 9.953 40.717 10.307C40.864 10.661 41.078 10.983 41.349 11.254C41.62 11.525 41.942 11.74 42.296 11.886C42.65 12.032 43.03 12.107 43.413 12.106C45.04 12.106 46.329 10.817 46.329 9.19C46.329 7.584 45.04 6.296 43.413 6.296C41.807 6.296 40.497 7.584 40.497 9.19ZM33.035 9.718C33.059 9.673 33.094 9.637 33.138 9.611C33.181 9.585 33.23 9.571 33.281 9.57L35.839 9.57C36.019 9.57 36.151 9.743 36.094 9.915C35.118 12.863 32.333 14.979 29.057 14.979C24.916 14.979 21.557 11.641 21.557 7.5C21.557 3.359 24.916 0 29.057 0C32.333 0 35.118 2.115 36.094 5.064C36.151 5.236 36.019 5.408 35.839 5.408L33.303 5.408C33.252 5.408 33.203 5.394 33.159 5.368C33.116 5.342 33.08 5.304 33.056 5.26C32.271 3.842 30.773 2.894 29.057 2.894C26.522 2.894 24.473 4.944 24.473 7.479C24.473 9.993 26.522 12.064 29.057 12.064C30.773 12.064 32.251 11.116 33.035 9.718Z" fill="rgb(11,21,33)" fill-opacity="1.000" fill-rule="nonzero" transform="matrix(1 0 0 1 22.1128 22.2692)"/></svg>