<svg xmlns="http://www.w3.org/2000/svg" viewBox="0 0 60 60" width="60" height="60"><path d="M0 0L60 0L60 60L0 60L0 0Z" fill="rgb(35,31,32)" fill-opacity="1.000" fill-rule="nonzero" transform="matrix(1 0 0 1 0 0)"/><path d="M5.845 10.567C7.362 10.567 8.284 10.296 8.748 9.717C9.001 9.401 9.129 8.983 9.132 8.453C9.133 8.158 9.096 7.829 9.022 7.463L7.983 2.361C7.839 1.656 7.752 1.116 7.754 0.668C7.755 0.526 7.768 0.394 7.788 0.271C7.371 0.271 5.269 0.271 4.944 0.271C4.944 0.302 4.939 0.332 4.939 0.364C4.938 0.576 4.954 0.799 4.973 1.031L5.002 1.449L4.845 1.449L4.783 1.35C4.272 0.515 3.114 0 2.121 0C1.298 0 0.708 0.214 0.368 0.638C-0.006 1.105 -0.095 1.837 0.102 2.812C0.49 4.717 1.342 5.523 3.479 6.01C3.48 6.01 4.898 6.339 4.898 6.339C5.74 6.528 6.146 6.905 6.296 7.643C6.378 8.048 6.334 8.361 6.163 8.574C6.005 8.77 5.752 8.87 5.41 8.87C4.651 8.87 4.246 8.47 3.996 7.477C3.733 7.477 1.874 7.477 1.458 7.477C2.141 10.156 4.483 10.567 5.845 10.567ZM5.814 5.314C5.814 5.314 5.757 5.26 5.647 5.216C5.467 5.146 5.068 5.08 4.822 5.018C4.631 4.969 4.415 4.913 4.183 4.813C3.563 4.547 3.244 4.11 3.079 3.307C2.983 2.838 3.039 2.453 3.243 2.199C3.395 2.008 3.621 1.908 3.892 1.908C5 1.908 5.348 2.986 5.513 3.798L5.822 5.314L5.814 5.314Z" fill="rgb(255,255,255)" fill-opacity="1.000" fill-rule="nonzero" transform="matrix(1 0 0 -1 13.159 38.3776)"/><path d="M0.871 4.488C0.271 5.237 0.153 6.414 0.567 8.511C1.471 13.078 3.178 13.884 4.664 13.884C5.371 13.884 6.434 13.617 6.56 12.358L6.579 12.162L6.786 12.162C6.786 12.162 7.027 13.347 7.08 13.611C7.36 13.611 9.429 13.611 9.842 13.611C9.742 13.119 7.791 3.588 7.791 3.588C7.303 1.193 5.791 0 3.016 0C0.445 0 0.063 1.541 0.005 2.018C-0.017 2.199 0.042 2.734 0.042 2.734C0.338 2.734 2.355 2.734 2.731 2.734C2.731 2.732 2.731 2.732 2.731 2.732C2.732 2.488 2.751 2.129 2.831 2.028C2.943 1.889 3.035 1.725 3.462 1.725C4.028 1.725 4.569 1.89 4.834 3.189L5.291 5.439L5.071 5.439L5.009 5.332C4.459 4.364 3.433 3.875 2.353 3.875C1.688 3.875 1.202 4.074 0.871 4.488ZM3.613 8.733C3.312 7.246 3.324 6.676 3.62 6.306C3.767 6.123 3.987 6.034 4.29 6.034C5.13 6.034 5.54 6.552 5.967 8.644C6.271 10.142 6.303 11.094 6.011 11.459C5.868 11.636 5.659 11.724 5.37 11.724C4.502 11.724 4.039 10.825 3.613 8.733Z" fill="rgb(255,255,255)" fill-opacity="1.000" fill-rule="nonzero" transform="matrix(1 0 0 -1 28.2943 41.6945)"/><path d="M5.031 10.023C4.932 9.54 3.057 0.32 2.991 0C2.708 0 0.421 0 0 0C0.099 0.484 1.977 9.703 2.043 10.023C2.325 10.023 4.611 10.023 5.031 10.023Z" fill="rgb(255,255,255)" fill-opacity="1.000" fill-rule="nonzero" transform="matrix(1 0 0 -1 37.5354 38.1069)"/><path d="M5.712 13.368C5.612 12.876 3.057 0.325 2.99 0C2.707 0 0.422 0 0 0C0.1 0.493 2.655 13.043 2.722 13.368C3.006 13.368 5.291 13.368 5.712 13.368Z" fill="rgb(255,255,255)" fill-opacity="1.000" fill-rule="nonzero" transform="matrix(1 0 0 -1 42.3457 38.1069)"/><path d="M5.713 13.368C5.612 12.876 3.057 0.325 2.989 0C2.707 0 0.42 0 0 0C0.101 0.493 2.657 13.043 2.722 13.368C3.006 13.368 5.293 13.368 5.713 13.368Z" fill="rgb(255,255,255)" fill-opacity="1.000" fill-rule="nonzero" transform="matrix(1 0 0 -1 47.1391 38.1069)"/><path d="M7.573 10.296C6.593 10.296 5.427 9.599 4.858 8.479L4.799 8.363L4.58 8.363C4.58 8.363 4.843 9.655 4.917 10.023C4.861 10.023 4.772 10.023 4.661 10.023L4.661 10.025C4.336 10.025 2.234 10.025 1.817 10.025C1.837 9.9 1.85 9.769 1.851 9.626C1.853 9.304 1.807 8.933 1.728 8.487C1.174 5.765 0.074 0.367 0 0C0.421 0 2.707 0 2.992 0C3.183 0.942 4.116 5.531 4.116 5.531C4.397 6.912 5.194 7.554 6.621 7.554C6.867 7.554 7.083 7.541 7.296 7.509C7.363 7.834 7.78 9.885 7.863 10.296C7.718 10.296 7.573 10.296 7.573 10.296Z" fill="rgb(255,255,255)" fill-opacity="1.000" fill-rule="nonzero" transform="matrix(1 0 0 -1 22.0178 38.1069)"/><path d="M0.588 0.988C-0.159 1.919 -0.192 3.632 0.475 6.902C1.538 12.13 3.077 13.894 6.57 13.894C7.966 13.894 8.947 13.556 9.482 12.888C9.828 12.457 10.003 11.868 10.008 11.13C10.01 10.727 9.962 10.28 9.862 9.791C9.862 9.791 9.77 9.345 9.719 9.092C9.435 9.092 6.775 9.092 6.775 9.092C6.775 9.092 6.993 10.519 6.991 10.833C6.989 11.187 6.976 11.379 6.842 11.557C6.704 11.742 6.5 11.891 6.177 11.891C4.876 11.891 4.449 10.631 3.708 6.991C3.132 4.166 2.927 2.868 3.371 2.314C3.539 2.105 3.793 2.004 4.149 2.004C5.174 2.004 5.577 2.897 6.092 5.381C6.375 5.381 8.638 5.381 9.058 5.381C9 5.093 8.903 4.618 8.903 4.618C8.279 1.554 6.512 0 3.651 0C2.101 0 1.128 0.315 0.588 0.988Z" fill="rgb(255,255,255)" fill-opacity="1.000" fill-rule="nonzero" transform="matrix(1 0 0 -1 4.2515 38.5726)"/><path d="M0.03 1.452L0.927 1.452L0.897 1.306L0.527 1.306L0.261 0L0.103 0L0.369 1.306L0 1.306L0.03 1.452Z" fill="rgb(255,255,255)" fill-opacity="1.000" fill-rule="nonzero" transform="matrix(1 0 0 -1 53.458 26.1839)"/><path d="M1.21 1.452L1.487 1.452L1.192 0L1.034 0L1.277 1.196C1.29 1.258 1.306 1.318 1.314 1.38L1.311 1.38C1.276 1.295 1.252 1.241 1.227 1.185L0.687 0L0.499 0L0.444 1.202C0.441 1.252 0.439 1.301 0.439 1.38L0.435 1.38C0.422 1.318 0.413 1.255 0.4 1.192L0.158 0L0 0L0.295 1.452L0.575 1.452L0.624 0.319C0.627 0.257 0.623 0.197 0.611 0.104L0.615 0.104C0.64 0.178 0.664 0.249 0.695 0.321L1.21 1.452Z" fill="rgb(255,255,255)" fill-opacity="1.000" fill-rule="nonzero" transform="matrix(1 0 0 -1 54.2612 26.1839)"/><path d="M22.217 0.06C22.451 5.569 15.915 9.705 9.815 8.419C3.718 7.133 0.771 1.738 0 0.071L0.997 0.071C2.332 2.353 3.684 4.124 5.987 4.784C7.451 5.203 8.6 5.107 11.43 3.503C12.734 2.763 15.684 0.541 18.853 0.096C20.229 -0.096 22.217 0.06 22.217 0.06Z" fill="rgb(0,131,80)" fill-opacity="1.000" fill-rule="nonzero" transform="matrix(1 0 0 -1 20.6056 26.9605)"/></svg>