<svg xmlns="http://www.w3.org/2000/svg" viewBox="0 0 60 60" width="60" height="60"><path d="M0 0L60 0L60 60L0 60L0 0Z" fill="rgb(29,91,198)" fill-opacity="1.000" fill-rule="nonzero" transform="matrix(1 0 0 1 0 0)"/><path d="M0.746 4.975C0.293 4.512 0.001 3.838 0.001 2.997C-0.014 2.277 0.247 1.578 0.731 1.041C0.946 0.807 1.208 0.62 1.499 0.491C1.79 0.362 2.105 0.294 2.424 0.292C3.572 0.292 4.382 1.095 4.386 1.781C4.386 2.15 4.15 2.435 3.831 2.435C3.682 2.437 3.538 2.382 3.428 2.281C3.37 2.226 3.325 2.16 3.294 2.086C3.264 2.012 3.25 1.933 3.253 1.853C3.256 1.687 3.326 1.529 3.446 1.413C3.352 1.258 3.216 1.132 3.055 1.049C2.893 0.965 2.712 0.926 2.53 0.937C2.332 0.939 2.138 0.991 1.966 1.089C1.795 1.187 1.651 1.327 1.549 1.496C1.28 1.946 1.146 2.464 1.166 2.988C1.145 3.514 1.283 4.035 1.561 4.483C1.665 4.651 1.81 4.791 1.983 4.89C2.155 4.989 2.35 5.043 2.549 5.047C3.017 5.047 3.316 4.835 3.467 4.572C3.406 4.516 3.358 4.448 3.325 4.372C3.292 4.297 3.274 4.216 3.273 4.133C3.27 4.054 3.284 3.974 3.314 3.9C3.344 3.827 3.389 3.76 3.446 3.704C3.559 3.603 3.706 3.548 3.858 3.55C4.177 3.55 4.411 3.835 4.411 4.203C4.411 4.896 3.604 5.691 2.451 5.694C2.133 5.694 1.818 5.63 1.525 5.507C1.232 5.383 0.967 5.203 0.746 4.975ZM0.746 4.975C0.293 4.512 0.001 3.838 0.001 2.997C-0.014 2.277 0.247 1.578 0.731 1.041C0.946 0.807 1.208 0.62 1.499 0.491C1.79 0.362 2.105 0.294 2.424 0.292C3.572 0.292 4.382 1.095 4.386 1.781C4.386 2.15 4.15 2.435 3.831 2.435C3.682 2.437 3.538 2.382 3.428 2.281C3.37 2.226 3.325 2.16 3.294 2.086C3.264 2.012 3.25 1.933 3.253 1.853C3.256 1.687 3.326 1.529 3.446 1.413C3.352 1.258 3.216 1.132 3.055 1.049C2.893 0.965 2.712 0.926 2.53 0.937C2.332 0.939 2.138 0.991 1.966 1.089C1.795 1.187 1.651 1.327 1.549 1.496C1.28 1.946 1.146 2.464 1.166 2.988C1.145 3.514 1.283 4.035 1.561 4.483C1.665 4.651 1.81 4.791 1.983 4.89C2.155 4.989 2.35 5.043 2.549 5.047C3.017 5.047 3.316 4.835 3.467 4.572C3.406 4.516 3.358 4.448 3.325 4.372C3.292 4.297 3.274 4.216 3.273 4.133C3.27 4.054 3.284 3.974 3.314 3.9C3.344 3.827 3.389 3.76 3.446 3.704C3.559 3.603 3.706 3.548 3.858 3.55C4.177 3.55 4.411 3.835 4.411 4.203C4.411 4.896 3.604 5.691 2.451 5.694C2.133 5.694 1.818 5.63 1.525 5.507C1.232 5.383 0.967 5.203 0.746 4.975ZM0.746 4.975C0.293 4.512 0.001 3.838 0.001 2.997C-0.014 2.277 0.247 1.578 0.731 1.041C0.946 0.807 1.208 0.62 1.499 0.491C1.79 0.362 2.105 0.294 2.424 0.292C3.572 0.292 4.382 1.095 4.386 1.781C4.386 2.15 4.15 2.435 3.831 2.435C3.682 2.437 3.538 2.382 3.428 2.281C3.37 2.226 3.325 2.16 3.294 2.086C3.264 2.012 3.25 1.933 3.253 1.853C3.256 1.687 3.326 1.529 3.446 1.413C3.352 1.258 3.216 1.132 3.055 1.049C2.893 0.965 2.712 0.926 2.53 0.937C2.332 0.939 2.138 0.991 1.966 1.089C1.795 1.187 1.651 1.327 1.549 1.496C1.28 1.946 1.146 2.464 1.166 2.988C1.145 3.514 1.283 4.035 1.561 4.483C1.665 4.651 1.81 4.791 1.983 4.89C2.155 4.989 2.35 5.043 2.549 5.047C3.017 5.047 3.316 4.835 3.467 4.572C3.406 4.516 3.358 4.448 3.325 4.372C3.292 4.297 3.274 4.216 3.273 4.133C3.27 4.054 3.284 3.974 3.314 3.9C3.344 3.827 3.389 3.76 3.446 3.704C3.559 3.603 3.706 3.548 3.858 3.55C4.177 3.55 4.411 3.835 4.411 4.203C4.411 4.896 3.604 5.691 2.451 5.694C2.133 5.694 1.818 5.63 1.525 5.507C1.232 5.383 0.967 5.203 0.746 4.975ZM17.282 3.186C17.356 3.186 17.376 3.167 17.39 3.143C17.406 3.1 17.412 3.055 17.409 3.009C17.408 2.918 17.388 2.828 17.352 2.744C17.315 2.66 17.262 2.584 17.196 2.521C17.13 2.458 17.052 2.408 16.967 2.374C16.881 2.341 16.79 2.325 16.698 2.327C16.16 2.327 15.943 2.755 15.91 3.186L17.282 3.186ZM6.618 3.802C6.203 3.81 5.934 4.002 5.934 4.382C5.931 4.464 5.945 4.546 5.976 4.623C6.006 4.699 6.053 4.768 6.112 4.825C6.172 4.883 6.243 4.927 6.321 4.954C6.399 4.982 6.481 4.993 6.564 4.987C6.692 4.982 6.818 4.95 6.933 4.892C7.047 4.834 7.148 4.753 7.227 4.653L7.227 4.125C7.223 4.08 7.206 4.037 7.18 4C7.154 3.963 7.119 3.933 7.078 3.913C6.939 3.836 6.783 3.799 6.624 3.806L6.618 3.802ZM22.309 3.591C22.309 4.611 22.757 5.049 23.194 5.05C23.694 5.05 24.056 4.611 24.06 3.752C24.075 3.383 23.981 3.017 23.79 2.7C23.724 2.589 23.63 2.496 23.518 2.43C23.405 2.365 23.278 2.329 23.147 2.327C22.628 2.327 22.305 2.795 22.302 3.589L22.309 3.591ZM9.29 5.532C9.128 5.489 9.021 5.398 9.021 5.264C9.023 5.206 9.038 5.149 9.064 5.097L9.073 5.077L9.093 5.077C9.187 5.059 9.275 5.021 9.35 4.964C9.445 4.885 9.485 4.776 9.485 4.468L9.485 2.916C9.477 2.648 9.415 2.562 9.197 2.556C9.139 2.557 9.081 2.563 9.024 2.575L8.99 2.575L8.978 2.544C8.955 2.49 8.943 2.432 8.943 2.374C8.943 2.065 9.289 1.907 9.52 1.839C9.602 1.812 9.688 1.797 9.774 1.796C10.088 1.796 10.257 2.015 10.331 2.298C10.537 1.968 10.87 1.75 11.184 1.749C11.262 1.745 11.34 1.757 11.413 1.783C11.486 1.81 11.553 1.851 11.609 1.904C11.666 1.958 11.711 2.022 11.742 2.093C11.773 2.164 11.789 2.24 11.79 2.318C11.793 2.386 11.782 2.455 11.758 2.519C11.734 2.584 11.697 2.643 11.65 2.694C11.603 2.744 11.547 2.785 11.484 2.813C11.421 2.842 11.353 2.858 11.284 2.861C11.173 2.863 11.064 2.826 10.977 2.758C10.89 2.689 10.829 2.592 10.806 2.484C10.629 2.542 10.376 2.763 10.373 3.527L10.373 4.464C10.373 4.77 10.417 4.88 10.508 4.959C10.612 5.019 10.727 5.058 10.847 5.073L10.867 5.073L10.876 5.093C10.905 5.149 10.921 5.21 10.923 5.272C10.923 5.398 10.829 5.485 10.676 5.526C10.452 5.578 10.222 5.599 9.992 5.589C9.754 5.598 9.516 5.576 9.283 5.524L9.29 5.532ZM12.403 5.524C12.242 5.481 12.134 5.39 12.134 5.256C12.136 5.198 12.151 5.141 12.177 5.089L12.187 5.069L12.207 5.069C12.3 5.052 12.387 5.013 12.463 4.956C12.557 4.877 12.597 4.768 12.597 4.46L12.597 2.916C12.597 2.648 12.529 2.562 12.311 2.556C12.252 2.557 12.194 2.563 12.137 2.575L12.103 2.575L12.091 2.544C12.068 2.49 12.056 2.432 12.055 2.374C12.062 2.065 12.402 1.907 12.634 1.839C12.716 1.812 12.801 1.797 12.888 1.796C13.203 1.796 13.371 2.015 13.445 2.299C13.651 1.968 13.983 1.75 14.297 1.75C14.374 1.746 14.452 1.758 14.525 1.784C14.598 1.811 14.665 1.852 14.722 1.905C14.778 1.958 14.823 2.022 14.854 2.093C14.885 2.164 14.902 2.24 14.902 2.318C14.909 2.455 14.861 2.589 14.769 2.692C14.678 2.794 14.549 2.856 14.411 2.865C14.3 2.867 14.191 2.831 14.104 2.762C14.016 2.693 13.956 2.596 13.933 2.488C13.756 2.546 13.501 2.767 13.499 3.531L13.499 4.468C13.499 4.774 13.544 4.884 13.633 4.963C13.738 5.023 13.853 5.062 13.972 5.077L13.992 5.077L14.002 5.097C14.03 5.153 14.046 5.214 14.048 5.276C14.048 5.402 13.955 5.489 13.801 5.53C13.578 5.581 13.348 5.603 13.119 5.593C12.881 5.602 12.642 5.58 12.409 5.528L12.403 5.524ZM19.011 5.528C18.85 5.484 18.742 5.394 18.742 5.26C18.744 5.202 18.759 5.145 18.785 5.093L18.793 5.074L18.815 5.074C18.908 5.057 18.996 5.018 19.072 4.962C19.165 4.883 19.206 4.773 19.206 4.465L19.206 2.433L18.655 2.414L18.645 2.39C18.619 2.329 18.605 2.263 18.604 2.197C18.603 2.152 18.612 2.108 18.629 2.067C18.647 2.025 18.673 1.988 18.705 1.957C18.738 1.926 18.776 1.902 18.818 1.887C18.861 1.871 18.906 1.864 18.951 1.867L19.192 1.867L19.192 1.63C19.192 1.084 19.294 0.773 19.434 0.559C19.648 0.227 20.022 0 20.59 0C21.304 0 21.901 0.332 21.905 0.862C21.909 0.929 21.899 0.997 21.876 1.06C21.852 1.124 21.816 1.182 21.77 1.231C21.723 1.28 21.667 1.32 21.605 1.347C21.543 1.374 21.476 1.388 21.408 1.389C21.281 1.387 21.16 1.337 21.069 1.248C20.979 1.16 20.927 1.04 20.923 0.914C20.925 0.819 20.952 0.726 21.004 0.646C20.9 0.573 20.775 0.537 20.649 0.543C20.567 0.535 20.484 0.549 20.409 0.585C20.335 0.621 20.273 0.677 20.229 0.747C20.149 0.909 20.113 1.089 20.125 1.27L20.125 1.856L21.067 1.856L21.078 1.881C21.105 1.943 21.119 2.01 21.118 2.078C21.121 2.17 21.089 2.261 21.028 2.33C20.967 2.4 20.881 2.444 20.789 2.453C20.719 2.453 20.643 2.453 20.576 2.453C20.419 2.453 20.263 2.442 20.147 2.439L20.147 4.468C20.147 4.773 20.199 4.883 20.292 4.963C20.413 5.023 20.544 5.062 20.678 5.077L20.698 5.077L20.708 5.097C20.732 5.145 20.745 5.197 20.747 5.251C20.747 5.385 20.631 5.478 20.459 5.518C20.215 5.573 19.966 5.596 19.716 5.587C19.477 5.595 19.237 5.573 19.003 5.521L19.011 5.528ZM30.26 5.521C30.098 5.478 29.991 5.387 29.991 5.253C29.992 5.195 30.007 5.137 30.034 5.085L30.042 5.066L30.062 5.066C30.154 5.048 30.242 5.01 30.316 4.952C30.413 4.875 30.451 4.765 30.451 4.457L30.451 2.916C30.444 2.648 30.383 2.562 30.165 2.556C30.107 2.557 30.049 2.563 29.992 2.575L29.958 2.575L29.945 2.544C29.923 2.491 29.912 2.434 29.911 2.376C29.911 2.066 30.258 1.907 30.488 1.841C30.572 1.814 30.659 1.8 30.747 1.798C31.059 1.798 31.228 2.021 31.3 2.308C31.504 1.974 31.83 1.753 32.15 1.752C32.228 1.747 32.306 1.759 32.379 1.785C32.452 1.812 32.519 1.853 32.576 1.906C32.633 1.96 32.678 2.024 32.709 2.095C32.74 2.166 32.755 2.243 32.756 2.32C32.759 2.389 32.748 2.457 32.725 2.521C32.701 2.586 32.665 2.645 32.619 2.695C32.572 2.746 32.516 2.786 32.454 2.815C32.391 2.844 32.324 2.861 32.255 2.864C32.143 2.866 32.034 2.83 31.946 2.761C31.858 2.692 31.797 2.595 31.773 2.486C31.597 2.544 31.347 2.765 31.344 3.53L31.344 4.467C31.344 4.773 31.389 4.884 31.479 4.962C31.583 5.021 31.698 5.059 31.818 5.075L31.838 5.075L31.847 5.095C31.877 5.151 31.893 5.213 31.896 5.276C31.896 5.402 31.802 5.488 31.65 5.529C31.426 5.58 31.198 5.601 30.969 5.592C30.73 5.601 30.492 5.579 30.26 5.526L30.26 5.521ZM23.147 5.644C22.645 5.65 22.161 5.457 21.802 5.109C21.619 4.922 21.475 4.701 21.379 4.459C21.282 4.216 21.236 3.957 21.242 3.696C21.239 3.442 21.288 3.19 21.384 2.954C21.481 2.719 21.623 2.505 21.804 2.325C21.984 2.145 22.199 2.003 22.435 1.906C22.672 1.81 22.925 1.761 23.181 1.764C23.434 1.757 23.686 1.801 23.922 1.893C24.158 1.985 24.373 2.123 24.555 2.299C24.733 2.485 24.872 2.705 24.964 2.945C25.056 3.186 25.1 3.441 25.093 3.699C25.103 3.956 25.06 4.212 24.966 4.452C24.872 4.692 24.729 4.91 24.546 5.093C24.364 5.275 24.145 5.419 23.905 5.513C23.664 5.608 23.406 5.653 23.147 5.644ZM14.911 3.771C14.896 3.24 15.086 2.724 15.442 2.328C15.621 2.143 15.838 1.997 16.077 1.9C16.317 1.802 16.574 1.756 16.833 1.764C17.048 1.755 17.262 1.792 17.462 1.872C17.662 1.952 17.842 2.074 17.99 2.229C18.229 2.492 18.363 2.833 18.364 3.187C18.367 3.37 18.324 3.551 18.238 3.713L18.225 3.733L15.902 3.733C15.941 4.402 16.371 4.876 17.121 4.879C17.296 4.88 17.469 4.845 17.63 4.776C17.791 4.707 17.935 4.605 18.055 4.477L18.08 4.445L18.112 4.469C18.159 4.504 18.195 4.55 18.219 4.603C18.242 4.656 18.252 4.714 18.247 4.772C18.247 5.16 17.788 5.656 16.775 5.656C16.528 5.656 16.283 5.607 16.055 5.511C15.827 5.416 15.62 5.277 15.447 5.101C15.273 4.926 15.137 4.718 15.045 4.489C14.953 4.261 14.908 4.017 14.911 3.771ZM28.315 5.484C28.248 5.375 28.203 5.255 28.181 5.13C28.143 5.173 28.099 5.219 28.031 5.283C27.778 5.523 27.44 5.657 27.09 5.656C26.91 5.663 26.732 5.63 26.566 5.561C26.401 5.491 26.252 5.387 26.132 5.255C25.798 4.853 25.801 4.357 25.801 3.649L25.801 2.949C25.793 2.672 25.705 2.577 25.445 2.569C25.412 2.569 25.375 2.569 25.335 2.569L25.304 2.569L25.293 2.54C25.273 2.493 25.263 2.443 25.262 2.393C25.27 2.059 25.694 1.883 25.942 1.831C26.024 1.816 26.107 1.807 26.191 1.804C26.274 1.797 26.358 1.811 26.435 1.842C26.512 1.873 26.581 1.922 26.636 1.984C26.733 2.118 26.78 2.281 26.771 2.446L26.771 3.62C26.771 4.053 26.802 4.377 26.899 4.586C26.94 4.685 27.013 4.769 27.106 4.825C27.199 4.88 27.307 4.904 27.415 4.893C27.533 4.9 27.651 4.874 27.755 4.818C27.858 4.762 27.945 4.678 28.003 4.576C28.108 4.368 28.158 4.137 28.147 3.905L28.147 2.955C28.139 2.678 28.052 2.581 27.792 2.575C27.755 2.573 27.718 2.573 27.682 2.575L27.651 2.575L27.639 2.545C27.62 2.498 27.609 2.448 27.609 2.398C27.617 2.065 28.04 1.888 28.29 1.836C28.372 1.821 28.454 1.812 28.537 1.809C28.621 1.803 28.705 1.816 28.782 1.847C28.86 1.878 28.929 1.927 28.984 1.99C29.081 2.124 29.129 2.287 29.119 2.451C29.119 2.585 29.105 2.825 29.105 3.824C29.105 4.247 29.105 4.472 29.105 4.54C29.105 4.828 29.209 4.956 29.477 4.962L29.568 4.962L29.599 4.962L29.61 4.991C29.629 5.037 29.639 5.086 29.641 5.136C29.63 5.459 29.206 5.589 28.96 5.639C28.883 5.652 28.806 5.661 28.728 5.664C28.652 5.671 28.574 5.658 28.504 5.627C28.433 5.596 28.372 5.547 28.325 5.486L28.315 5.484ZM4.912 4.447C4.908 4.277 4.946 4.109 5.023 3.958C5.099 3.806 5.212 3.675 5.35 3.577C5.677 3.36 6.064 3.253 6.456 3.269C6.717 3.265 6.977 3.311 7.221 3.403L7.221 2.991C7.221 2.573 7.055 2.335 6.584 2.33C6.432 2.334 6.282 2.361 6.137 2.407C6.153 2.467 6.161 2.528 6.162 2.589C6.164 2.723 6.116 2.852 6.027 2.952C5.982 3 5.927 3.038 5.865 3.064C5.804 3.09 5.738 3.103 5.672 3.102C5.608 3.101 5.544 3.087 5.485 3.062C5.426 3.036 5.373 3 5.328 2.954C5.284 2.908 5.249 2.853 5.226 2.794C5.202 2.734 5.191 2.671 5.193 2.607C5.193 2.099 5.819 1.758 6.645 1.758C7.301 1.758 7.713 1.912 7.932 2.193C8.131 2.446 8.141 2.814 8.142 3.335L8.142 4.693C8.142 4.96 8.296 5.026 8.624 5.077L8.662 5.077L8.662 5.114C8.643 5.472 8.378 5.62 8.094 5.649C8.069 5.651 8.044 5.651 8.02 5.649C7.879 5.653 7.741 5.616 7.621 5.543C7.502 5.469 7.406 5.363 7.347 5.236C7.044 5.496 6.661 5.646 6.261 5.659C5.498 5.659 4.916 5.146 4.916 4.445" fill="rgb(255,255,255)" fill-opacity="1.000" fill-rule="nonzero" transform="matrix(1 0 0 1 5.4267 23.5846)"/><path d="M0.176 2.041C0.398 2.184 0.653 2.269 0.916 2.287C1.133 2.287 1.309 2.189 1.309 1.958C1.309 1.726 1.113 1.655 0.869 1.583C0.492 1.475 0.062 1.352 0.062 0.818C0.062 0.284 0.506 0 1.004 0C1.354 -0.006 1.692 0.125 1.946 0.366L1.651 0.725C1.482 0.561 1.26 0.463 1.024 0.447C0.838 0.447 0.663 0.539 0.663 0.746C0.663 0.982 0.88 1.049 1.122 1.12C1.5 1.239 1.919 1.388 1.919 1.923C1.919 2.458 1.515 2.745 0.942 2.745C0.608 2.748 0.281 2.655 0 2.477L0.176 2.041Z" fill="rgb(28,175,231)" fill-opacity="1.000" fill-rule="nonzero" transform="matrix(1 0 0 1 19.3209 31.0564)"/><path d="M1.207 0C1.589 0 2.333 0.119 2.333 1.301C2.333 2.287 1.807 2.739 1.122 2.739C0.437 2.739 0 2.298 0 1.368C0.003 0.298 0.675 0 1.207 0ZM1.703 1.384C1.703 0.808 1.569 0.454 1.176 0.454C0.783 0.454 0.628 0.803 0.628 1.297C0.628 1.79 0.706 2.288 1.167 2.288C1.543 2.287 1.703 1.919 1.703 1.384Z" fill="rgb(28,175,231)" fill-opacity="1.000" fill-rule="nonzero" transform="matrix(1 0 0 1 21.4738 31.0566)"/><path d="M0.615 0L0.615 2.724C0.615 3.043 0.682 3.161 0.893 3.161C1.006 3.154 1.117 3.127 1.219 3.079L1.354 3.49C1.165 3.591 0.953 3.644 0.739 3.644C0.04 3.644 0 3.242 0 2.853L0 0L0.615 0Z" fill="rgb(28,175,231)" fill-opacity="1.000" fill-rule="nonzero" transform="matrix(1 0 0 1 24.2415 30.152)"/><path d="M2.141 0L2.141 2.153L2.182 2.585L1.655 2.585L1.619 2.281L1.603 2.281C1.519 2.401 1.407 2.498 1.276 2.564C1.145 2.629 0.999 2.661 0.853 2.656C0.285 2.656 0 2.359 0 1.752L0 0L0.615 0L0.615 1.639C0.615 1.952 0.673 2.184 1.019 2.184C1.151 2.181 1.277 2.128 1.372 2.037C1.467 1.945 1.523 1.821 1.53 1.69L1.53 0L2.141 0Z" fill="rgb(28,175,231)" fill-opacity="1.000" fill-rule="nonzero" transform="matrix(1 0 0 1 25.77 31.1342)"/><path d="M1.272 2.246C0.811 2.246 0.615 1.892 0.615 1.357C0.615 0.771 0.857 0.489 1.204 0.489C1.314 0.498 1.421 0.531 1.517 0.586C1.613 0.641 1.695 0.716 1.757 0.807L2.145 0.489C2.039 0.335 1.897 0.21 1.731 0.125C1.565 0.04 1.38 -0.003 1.193 0C0.646 0 0 0.349 0 1.382C0 2.085 0.285 2.529 0.79 2.676L0.441 3.462L0.908 3.462L1.23 2.734C1.544 2.731 1.849 2.627 2.098 2.437L1.865 2.025C1.698 2.163 1.489 2.241 1.272 2.246Z" fill="rgb(28,175,231)" fill-opacity="1.000" fill-rule="nonzero" transform="matrix(1 0 0 1 28.3641 31.0564)"/><path d="M1.207 1.085C1.589 1.085 2.333 1.204 2.333 2.386C2.333 3.372 1.807 3.824 1.122 3.824C0.437 3.824 0 3.383 0 2.453C0.003 1.384 0.674 1.085 1.207 1.085ZM0.437 0.149C0.562 0.054 0.714 0.002 0.871 0C1.14 0 1.331 0.134 1.569 0.134C1.682 0.131 1.792 0.099 1.889 0.04L1.931 0.456C1.826 0.522 1.704 0.556 1.58 0.554C1.347 0.554 1.072 0.436 0.867 0.436C0.731 0.437 0.599 0.474 0.483 0.545L0.437 0.149ZM1.706 2.469C1.706 1.893 1.572 1.539 1.179 1.539C0.786 1.539 0.631 1.888 0.631 2.382C0.631 2.876 0.709 3.373 1.169 3.373C1.543 3.372 1.706 3.004 1.706 2.469Z" fill="rgb(28,175,231)" fill-opacity="1.000" fill-rule="nonzero" transform="matrix(1 0 0 1 30.6447 29.9714)"/><path d="M2.09 0.719C2.09 1.509 1.102 1.612 0.627 1.618C0.647 1.952 0.838 2.276 1.278 2.276C1.513 2.271 1.741 2.192 1.928 2.05L2.121 2.451C1.857 2.643 1.538 2.744 1.211 2.739C0.358 2.739 0 2.194 0 1.424C0 0.653 0.439 0 1.261 0C1.771 0.004 2.09 0.261 2.09 0.719ZM1.232 0.442C0.819 0.442 0.623 0.843 0.607 1.222C0.887 1.222 1.542 1.14 1.542 0.744C1.545 0.703 1.539 0.662 1.524 0.624C1.51 0.585 1.487 0.551 1.457 0.522C1.428 0.493 1.393 0.471 1.354 0.457C1.315 0.443 1.274 0.438 1.232 0.442Z" fill="rgb(28,175,231)" fill-opacity="1.000" fill-rule="nonzero" transform="matrix(1 0 0 1 33.2712 31.0526)"/><path d="M0.178 2.041C0.399 2.184 0.653 2.269 0.916 2.287C1.133 2.287 1.309 2.189 1.309 1.958C1.309 1.726 1.113 1.655 0.871 1.583C0.492 1.475 0.063 1.352 0.063 0.818C0.063 0.284 0.509 0 1.005 0C1.355 -0.006 1.693 0.125 1.946 0.366L1.651 0.725C1.482 0.562 1.26 0.463 1.025 0.447C0.84 0.447 0.663 0.539 0.663 0.746C0.663 0.982 0.88 1.049 1.124 1.12C1.5 1.239 1.919 1.388 1.919 1.923C1.919 2.458 1.515 2.745 0.942 2.745C0.608 2.749 0.281 2.656 0 2.477L0.178 2.041Z" fill="rgb(28,175,231)" fill-opacity="1.000" fill-rule="nonzero" transform="matrix(1 0 0 1 35.6527 31.0564)"/><path d="M0.357 0C0.403 -0.002 0.45 0.006 0.493 0.023C0.537 0.039 0.576 0.064 0.61 0.097C0.643 0.129 0.669 0.168 0.687 0.21C0.705 0.253 0.714 0.299 0.713 0.345C0.714 0.391 0.705 0.437 0.687 0.479C0.669 0.522 0.642 0.56 0.609 0.592C0.575 0.623 0.536 0.648 0.492 0.664C0.449 0.68 0.403 0.687 0.357 0.684C0.31 0.688 0.264 0.681 0.22 0.666C0.176 0.65 0.136 0.626 0.102 0.594C0.069 0.562 0.042 0.523 0.025 0.481C0.007 0.438 -0.001 0.392 0 0.345C0 0.299 0.008 0.253 0.026 0.21C0.044 0.168 0.071 0.129 0.104 0.097C0.137 0.064 0.177 0.039 0.22 0.023C0.264 0.006 0.31 -0.002 0.357 0ZM0.051 3.671L0.051 1.085L0.666 1.085L0.666 3.671L0.051 3.671Z" fill="rgb(28,175,231)" fill-opacity="1.000" fill-rule="nonzero" transform="matrix(1 0 0 1 16.3674 34.3976)"/><path d="M0.042 2.666L0.042 0.525L0 0.078L0.518 0.078L0.571 0.402C0.659 0.274 0.778 0.171 0.917 0.1C1.056 0.03 1.21 -0.004 1.366 0C1.882 0 2.188 0.288 2.188 0.894L2.188 2.663L1.573 2.663L1.573 1.031C1.573 0.718 1.516 0.475 1.185 0.475C1.116 0.475 1.048 0.488 0.984 0.514C0.921 0.54 0.863 0.578 0.814 0.626C0.765 0.675 0.726 0.732 0.699 0.795C0.672 0.858 0.658 0.926 0.658 0.995L0.658 2.666L0.042 2.666Z" fill="rgb(28,175,231)" fill-opacity="1.000" fill-rule="nonzero" transform="matrix(1 0 0 1 17.5704 35.4024)"/><path d="M2.269 2.158L2.316 2.652L1.777 2.652L1.741 2.385L1.721 2.385C1.641 2.496 1.534 2.585 1.411 2.645C1.287 2.706 1.151 2.735 1.013 2.73C0.284 2.73 0 2.215 0 1.48C0 0.575 0.455 0 1.345 0C1.66 0.01 1.97 0.071 2.264 0.181L2.269 2.158ZM1.659 0.503C1.535 0.456 1.404 0.433 1.271 0.436C0.78 0.436 0.615 0.894 0.615 1.449C0.615 1.876 0.718 2.281 1.153 2.281C1.216 2.286 1.279 2.278 1.339 2.258C1.399 2.238 1.454 2.206 1.501 2.165C1.548 2.123 1.587 2.072 1.614 2.015C1.641 1.959 1.656 1.897 1.659 1.835L1.659 0.503Z" fill="rgb(28,175,231)" fill-opacity="1.000" fill-rule="nonzero" transform="matrix(1 0 0 1 20.1848 35.4161)"/><path d="M0.042 2.666L0.042 0.525L0 0.078L0.517 0.078L0.569 0.402C0.657 0.274 0.776 0.171 0.915 0.1C1.054 0.03 1.209 -0.004 1.364 0C1.881 0 2.186 0.288 2.186 0.894L2.186 2.663L1.572 2.663L1.572 1.031C1.572 0.718 1.514 0.475 1.184 0.475C1.115 0.475 1.047 0.488 0.983 0.514C0.919 0.54 0.861 0.578 0.812 0.626C0.763 0.675 0.724 0.732 0.698 0.795C0.671 0.858 0.657 0.926 0.657 0.995L0.657 2.666L0.042 2.666Z" fill="rgb(28,175,231)" fill-opacity="1.000" fill-rule="nonzero" transform="matrix(1 0 0 1 23.0009 35.4024)"/><path d="M1.865 2.025L2.098 2.437C1.841 2.635 1.524 2.74 1.199 2.734C0.439 2.734 0 2.256 0 1.382C0 0.349 0.646 0 1.193 0C1.38 -0.003 1.565 0.04 1.731 0.125C1.897 0.21 2.039 0.335 2.145 0.489L1.752 0.807C1.689 0.716 1.607 0.641 1.511 0.586C1.416 0.531 1.309 0.498 1.199 0.489C0.853 0.489 0.61 0.771 0.61 1.357C0.61 1.892 0.806 2.246 1.266 2.246C1.485 2.242 1.697 2.164 1.865 2.025Z" fill="rgb(28,175,231)" fill-opacity="1.000" fill-rule="nonzero" transform="matrix(1 0 0 1 25.6206 35.4053)"/><path d="M2.083 0.719C2.083 1.509 1.097 1.612 0.62 1.618C0.642 1.952 0.833 2.276 1.271 2.276C1.507 2.271 1.735 2.192 1.923 2.05L2.114 2.451C1.85 2.643 1.531 2.744 1.204 2.739C0.351 2.739 0 2.194 0 1.424C0 0.653 0.44 0 1.261 0C1.768 0.004 2.083 0.261 2.083 0.719ZM1.226 0.442C0.811 0.442 0.615 0.843 0.6 1.222C0.879 1.222 1.535 1.14 1.535 0.744C1.538 0.703 1.532 0.662 1.517 0.624C1.503 0.585 1.48 0.551 1.451 0.522C1.421 0.493 1.386 0.471 1.347 0.457C1.308 0.443 1.267 0.438 1.226 0.442Z" fill="rgb(28,175,231)" fill-opacity="1.000" fill-rule="nonzero" transform="matrix(1 0 0 1 27.8057 35.4014)"/><path d="M0.357 0C0.403 -0.002 0.45 0.006 0.493 0.023C0.537 0.039 0.577 0.064 0.61 0.097C0.643 0.129 0.67 0.168 0.688 0.21C0.706 0.253 0.715 0.299 0.715 0.345C0.715 0.391 0.706 0.437 0.688 0.479C0.669 0.522 0.643 0.56 0.609 0.592C0.576 0.623 0.536 0.648 0.493 0.664C0.449 0.68 0.403 0.687 0.357 0.684C0.31 0.687 0.264 0.681 0.22 0.665C0.176 0.65 0.136 0.625 0.103 0.593C0.069 0.562 0.043 0.523 0.025 0.48C0.007 0.438 -0.001 0.392 0 0.345C0 0.299 0.008 0.253 0.026 0.21C0.044 0.168 0.071 0.129 0.104 0.097C0.137 0.064 0.177 0.039 0.22 0.023C0.264 0.006 0.31 -0.002 0.357 0ZM0.053 3.671L0.053 1.085L0.668 1.085L0.668 3.671L0.053 3.671Z" fill="rgb(28,175,231)" fill-opacity="1.000" fill-rule="nonzero" transform="matrix(1 0 0 1 30.2235 34.3976)"/><path d="M0.662 2.663L0.047 2.663L0.047 0.494L0 0.078L0.507 0.078L0.569 0.452C0.614 0.322 0.698 0.209 0.81 0.128C0.921 0.047 1.055 0.003 1.193 0C1.338 -0.003 1.481 0.033 1.608 0.103L1.499 0.622C1.387 0.557 1.261 0.522 1.132 0.519C0.853 0.519 0.671 0.74 0.662 1.039L0.662 2.663Z" fill="rgb(28,175,231)" fill-opacity="1.000" fill-rule="nonzero" transform="matrix(1 0 0 1 31.4278 35.4053)"/><path d="M2.269 2.158L2.316 2.652L1.777 2.652L1.741 2.385L1.721 2.385C1.641 2.496 1.534 2.585 1.411 2.645C1.287 2.706 1.151 2.735 1.013 2.73C0.284 2.73 0 2.215 0 1.48C0 0.575 0.455 0 1.346 0C1.66 0.01 1.971 0.071 2.266 0.181L2.269 2.158ZM1.659 0.503C1.535 0.456 1.404 0.433 1.272 0.436C0.78 0.436 0.615 0.894 0.615 1.449C0.615 1.876 0.719 2.281 1.153 2.281C1.215 2.286 1.278 2.278 1.337 2.258C1.397 2.239 1.452 2.207 1.499 2.167C1.546 2.126 1.584 2.076 1.612 2.02C1.639 1.964 1.655 1.903 1.659 1.841L1.659 0.503Z" fill="rgb(28,175,231)" fill-opacity="1.000" fill-rule="nonzero" transform="matrix(1 0 0 1 33.0195 35.4161)"/><path d="M0.182 2.041C0.403 2.184 0.657 2.269 0.92 2.287C1.137 2.287 1.313 2.189 1.313 1.958C1.313 1.726 1.117 1.655 0.873 1.583C0.496 1.475 0.073 1.352 0.073 0.818C0.073 0.284 0.517 0 1.014 0C1.362 -0.005 1.698 0.126 1.95 0.365L1.655 0.725C1.485 0.561 1.262 0.462 1.025 0.447C0.838 0.447 0.663 0.539 0.663 0.745C0.663 0.982 0.88 1.049 1.123 1.12C1.5 1.239 1.919 1.388 1.919 1.923C1.919 2.458 1.515 2.745 0.942 2.745C0.608 2.748 0.281 2.655 0 2.477L0.182 2.041Z" fill="rgb(28,175,231)" fill-opacity="1.000" fill-rule="nonzero" transform="matrix(1 0 0 1 35.6486 35.4053)"/><path d="M0 0.93L0 3.665L0.614 3.665L0.614 1.551L1.378 1.551L1.378 1.073L0.614 1.073L0.614 0.883C0.614 0.601 0.712 0.456 0.97 0.456C1.141 0.465 1.308 0.511 1.46 0.59L1.611 0.179C1.387 0.069 1.142 0.008 0.892 0C0.093 -0.005 0 0.518 0 0.93Z" fill="rgb(28,175,231)" fill-opacity="1.000" fill-rule="nonzero" transform="matrix(1 0 0 1 14.5417 34.4018)"/><path d="M3.985 0.032C3.994 0.023 4.004 0.015 4.015 0.01C4.026 0.004 4.039 0.001 4.051 0C4.06 0 4.068 0.003 4.075 0.006C4.083 0.01 4.09 0.015 4.095 0.022C4.1 0.028 4.104 0.036 4.107 0.044C4.109 0.052 4.11 0.06 4.109 0.068C4.107 0.094 4.095 0.119 4.076 0.136C3.213 1.207 2.585 2.453 2.585 4.184C2.585 5.916 3.213 7.139 4.076 8.205C4.095 8.223 4.107 8.248 4.109 8.275C4.11 8.283 4.109 8.292 4.107 8.3C4.104 8.308 4.1 8.315 4.095 8.321C4.09 8.328 4.083 8.333 4.075 8.337C4.068 8.34 4.06 8.343 4.051 8.343C4.039 8.342 4.026 8.339 4.015 8.333C4.003 8.328 3.993 8.319 3.985 8.31L0.304 4.773C0.21 4.703 0.133 4.612 0.08 4.508C0.027 4.403 0 4.288 0 4.171C0 4.054 0.027 3.938 0.08 3.834C0.133 3.729 0.21 3.639 0.304 3.569L3.985 0.032Z" fill="rgb(28,175,231)" fill-opacity="1.000" fill-rule="nonzero" transform="matrix(1 0 0 1 40.6752 23.1176)"/><path d="M2.003 0C0.562 0 0 2.031 0 4.452C0 6.873 0.562 8.877 2.003 8.877C2.869 8.877 3.606 8.373 3.607 7.959C3.607 7.912 3.597 7.865 3.578 7.821C3.559 7.778 3.532 7.739 3.497 7.706C3.087 7.313 2.928 6.919 2.925 6.571C2.927 6.274 3.042 5.989 3.249 5.774C3.455 5.559 3.735 5.431 4.034 5.415C4.767 5.415 5.199 5.988 5.199 6.729C5.199 7.432 4.897 8.018 4.571 8.488C4.559 8.505 4.552 8.525 4.552 8.546C4.55 8.563 4.555 8.579 4.566 8.591C4.576 8.604 4.591 8.612 4.607 8.613C4.62 8.612 4.633 8.608 4.645 8.602C4.657 8.596 4.667 8.588 4.676 8.577L8.35 5.041C8.445 4.971 8.522 4.88 8.575 4.776C8.629 4.671 8.656 4.556 8.656 4.438C8.656 4.321 8.629 4.206 8.575 4.101C8.522 3.997 8.445 3.906 8.35 3.836L4.676 0.3C4.658 0.28 4.633 0.267 4.607 0.265C4.599 0.266 4.591 0.268 4.584 0.272C4.576 0.275 4.571 0.281 4.565 0.287C4.56 0.293 4.556 0.3 4.554 0.308C4.552 0.316 4.551 0.324 4.552 0.332C4.552 0.353 4.559 0.374 4.571 0.392C4.897 0.86 5.199 1.446 5.199 2.148C5.199 2.889 4.767 3.463 4.034 3.463C3.735 3.447 3.455 3.318 3.248 3.103C3.042 2.888 2.927 2.603 2.925 2.306C2.925 1.959 3.087 1.566 3.497 1.172C3.532 1.14 3.559 1.1 3.578 1.057C3.597 1.014 3.607 0.967 3.607 0.919C3.607 0.504 2.869 0 2.003 0Z" fill="rgb(255,255,255)" fill-opacity="1.000" fill-rule="nonzero" transform="matrix(1 0 0 1 45.4872 22.85)"/></svg>