<svg xmlns="http://www.w3.org/2000/svg" viewBox="0 0 60 60" width="60" height="60"><defs><linearGradient id="g107" gradientUnits="userSpaceOnUse" x1="0.00" y1="0.00" x2="60.00" y2="0.00"><stop offset="0.0%" stop-color="rgb(255,216,28)" stop-opacity="1.000"/><stop offset="17.7%" stop-color="rgb(255,67,38)" stop-opacity="1.000"/><stop offset="34.9%" stop-color="rgb(250,20,182)" stop-opacity="1.000"/><stop offset="52.6%" stop-color="rgb(151,3,242)" stop-opacity="1.000"/><stop offset="68.2%" stop-color="rgb(99,43,255)" stop-opacity="1.000"/><stop offset="84.4%" stop-color="rgb(13,173,255)" stop-opacity="1.000"/><stop offset="100.0%" stop-color="rgb(19,255,82)" stop-opacity="1.000"/></linearGradient></defs><path d="M0 0L60 0L60 60L0 60L0 0Z" fill="rgb(15,137,255)" fill-opacity="1.000" fill-rule="nonzero" transform="matrix(1 0 0 1 0 0)"/><path d="M38.496 0L6.504 0C2.912 0 0 2.912 0 6.504L0 38.496C0 42.088 2.912 45 6.504 45L38.496 45C42.088 45 45 42.088 45 38.496L45 6.504C45 2.912 42.088 0 38.496 0Z" fill="rgb(15,137,255)" fill-opacity="1.000" fill-rule="nonzero" transform="matrix(1 0 0 1 7 7)"/><path d="M24.665 0.289C25.137 0.537 25.233 0.529 25.682 0.207C25.802 0.121 25.856 0.122 25.945 0.212C26.037 0.305 26.004 0.374 25.771 0.584C25.398 0.918 24.894 0.931 24.388 0.62C23.957 0.355 23.735 0.347 23.43 0.587C23.239 0.737 23.171 0.751 23.065 0.662C22.949 0.566 22.952 0.532 23.089 0.378C23.309 0.131 23.733 -0.042 23.992 0.009C24.113 0.033 24.416 0.159 24.665 0.289ZM7.493 1.462C7.676 1.513 7.965 1.677 8.136 1.827C8.418 2.075 8.434 2.112 8.307 2.238C8.194 2.352 8.141 2.357 8.017 2.266C7.933 2.205 7.69 2.073 7.476 1.971C6.972 1.732 6.28 1.788 5.8 2.105C4.745 2.803 4.852 4.797 5.975 5.364C6.547 5.653 7.389 5.576 7.916 5.186C8.181 4.991 8.221 4.984 8.344 5.109C8.467 5.233 8.449 5.275 8.157 5.544C7.211 6.416 5.39 6.04 4.765 4.843C4.584 4.495 4.521 3.366 4.655 2.863C4.781 2.388 5.503 1.635 5.975 1.485C6.377 1.357 7.077 1.347 7.493 1.462ZM12.006 1.58C12.253 1.695 12.516 1.875 12.589 1.98C12.72 2.167 12.724 2.165 12.802 1.836C12.86 1.589 12.926 1.501 13.053 1.501C13.219 1.501 13.227 1.581 13.249 3.678C13.27 5.617 13.257 5.862 13.131 5.91C12.945 5.981 12.833 5.796 12.832 5.416L12.83 5.113L12.492 5.443C12.141 5.786 11.535 6.027 11.026 6.027C10.265 6.027 9.446 5.45 9.161 4.714C8.958 4.186 8.958 3.211 9.161 2.683C9.592 1.567 10.893 1.062 12.006 1.58ZM25.042 1.456C25.208 1.503 25.492 1.661 25.674 1.807C25.855 1.953 26.023 2.072 26.047 2.072C26.071 2.072 26.103 1.944 26.118 1.787C26.139 1.568 26.192 1.494 26.343 1.473L26.541 1.445L26.541 3.643C26.541 5.075 26.509 5.861 26.449 5.898C26.287 5.998 26.102 5.751 26.102 5.436L26.102 5.13L25.859 5.39C25.137 6.163 23.851 6.23 23.042 5.537C22.038 4.678 22.046 2.712 23.056 1.846C23.253 1.678 23.534 1.505 23.681 1.463C24.05 1.355 24.681 1.352 25.042 1.456ZM30.822 1.688C31.457 2.08 31.746 2.614 31.797 3.483C31.844 4.296 31.694 4.803 31.263 5.295C30.523 6.137 29.173 6.25 28.25 5.546C27.89 5.272 27.52 4.532 27.451 3.949C27.339 3.003 27.853 2.006 28.664 1.594C29.078 1.384 29.21 1.36 29.77 1.393C30.279 1.423 30.489 1.482 30.822 1.688ZM16.64 1.552C17.107 1.681 17.568 2.128 17.661 2.538C17.793 3.129 17.56 3.628 16.976 4.007L16.77 4.14L17.305 4.954C17.599 5.402 17.84 5.81 17.84 5.86C17.84 5.91 17.731 5.938 17.598 5.923C17.402 5.901 17.25 5.735 16.785 5.039L16.214 4.182L15.58 4.182L14.946 4.182L14.921 5.037C14.899 5.794 14.876 5.897 14.73 5.925C14.64 5.942 14.531 5.903 14.49 5.838C14.402 5.7 14.384 1.602 14.471 1.516C14.565 1.421 16.271 1.449 16.64 1.552ZM21.867 1.695C21.893 1.883 21.865 1.891 21.032 1.915L20.169 1.94L20.145 3.946L20.122 5.951L19.926 5.923C19.731 5.896 19.729 5.882 19.686 3.918L19.642 1.94L18.785 1.915C18.028 1.893 17.928 1.872 17.928 1.732C17.928 1.645 17.955 1.547 17.988 1.514C18.021 1.481 18.901 1.464 19.944 1.477C21.825 1.501 21.839 1.502 21.867 1.695ZM10.625 1.887C10.231 2.016 9.97 2.234 9.749 2.621C9.57 2.933 9.535 3.111 9.537 3.698C9.539 4.278 9.576 4.467 9.753 4.779C9.871 4.987 10.089 5.232 10.238 5.325C10.826 5.688 11.685 5.625 12.214 5.18C12.644 4.818 12.742 4.54 12.742 3.693C12.742 2.813 12.556 2.365 12.066 2.062C11.748 1.865 10.979 1.772 10.625 1.887ZM23.86 1.897C23.059 2.148 22.627 3.151 22.852 4.236C23.095 5.409 24.248 5.916 25.305 5.314C25.859 4.999 25.966 4.769 26 3.816C26.035 2.81 25.905 2.441 25.394 2.103C25.027 1.86 24.293 1.761 23.86 1.897ZM28.948 1.971C28.035 2.4 27.684 3.676 28.202 4.69C28.636 5.541 29.729 5.792 30.617 5.243C31.562 4.659 31.542 2.74 30.583 2.105C30.125 1.802 29.43 1.745 28.948 1.971ZM14.94 2.811L14.94 3.726L15.445 3.759C16.144 3.804 16.702 3.689 16.941 3.45C17.414 2.978 17.196 2.17 16.548 1.99C16.364 1.939 15.927 1.897 15.577 1.897L14.94 1.896L14.94 2.811ZM2.221 8.204C2.34 8.336 2.365 8.716 2.388 10.818C2.425 14.191 2.371 14.113 4.654 14.113C6.323 14.113 6.326 14.116 6.326 15.212C6.326 16.365 6.392 16.333 4.1 16.294C2.376 16.265 2.206 16.248 1.781 16.058C0.849 15.639 0.257 14.704 0.085 13.373C-0.036 12.447 -0.025 8.608 0.099 8.373C0.256 8.074 0.337 8.052 1.237 8.05C1.932 8.049 2.105 8.076 2.221 8.204ZM8.984 8.203C9.097 8.331 9.126 8.746 9.155 10.69C9.19 12.956 9.198 13.037 9.407 13.454C9.692 14.024 9.961 14.206 10.598 14.259C11.024 14.294 11.186 14.265 11.51 14.098C12.23 13.724 12.252 13.634 12.309 10.817C12.337 9.464 12.367 8.349 12.375 8.341C12.649 8.061 12.696 8.049 13.518 8.05C13.986 8.051 14.415 8.081 14.473 8.118C14.705 8.266 14.764 8.728 14.764 10.408C14.764 13.05 14.593 14.003 13.945 14.967C13.209 16.062 11.65 16.631 10.018 16.399C8.792 16.225 7.819 15.592 7.348 14.662C6.851 13.681 6.811 13.389 6.81 10.745C6.81 7.833 6.714 8.049 7.999 8.049C8.697 8.049 8.872 8.076 8.984 8.203ZM18.543 8.225C18.713 8.395 18.719 8.517 18.719 12.18C18.719 16.697 18.831 16.31 17.517 16.31C16.85 16.31 16.633 16.279 16.507 16.165C16.355 16.028 16.346 15.789 16.346 12.195C16.346 8.759 16.361 8.354 16.491 8.209C16.613 8.074 16.775 8.049 17.502 8.049C18.25 8.049 18.391 8.073 18.543 8.225ZM26.996 8.194C27.13 8.315 27.156 8.477 27.156 9.168L27.156 9.995L26.655 10.538C26.379 10.837 25.48 11.763 24.656 12.597L23.159 14.113L25.016 14.113C27.223 14.113 27.245 14.121 27.312 14.93C27.335 15.201 27.327 15.562 27.295 15.732C27.183 16.333 27.325 16.31 23.651 16.31C20.945 16.31 20.303 16.288 20.166 16.187C20.032 16.089 19.991 15.928 19.964 15.396C19.945 15.029 19.956 14.626 19.987 14.501C20.02 14.37 20.879 13.411 22.014 12.238L23.983 10.202L22.107 10.178C20.621 10.16 20.21 10.129 20.129 10.031C19.995 9.87 19.91 9.034 19.985 8.632C20.099 8.026 19.959 8.049 23.574 8.049C26.485 8.049 26.852 8.064 26.996 8.194ZM33.302 8.203C33.427 8.305 33.979 9.624 34.941 12.123C36.679 16.635 36.659 16.31 35.203 16.31C34.322 16.31 34.282 16.302 34.108 16.082C34.009 15.956 33.84 15.579 33.732 15.245L33.537 14.637L31.962 14.661L30.387 14.684L30.14 15.384C30.005 15.769 29.824 16.135 29.739 16.197C29.549 16.336 28.102 16.353 27.854 16.219C27.76 16.169 27.684 16.042 27.684 15.937C27.684 15.603 30.493 8.369 30.687 8.203C30.838 8.073 31.048 8.049 31.99 8.049C32.93 8.049 33.144 8.074 33.302 8.203ZM31.528 11.246C31.301 11.89 31.091 12.483 31.06 12.562C31.011 12.691 31.108 12.707 31.937 12.707C32.45 12.707 32.869 12.678 32.869 12.642C32.869 12.54 32.056 10.209 31.996 10.138C31.966 10.103 31.755 10.601 31.528 11.246Z" fill="rgb(255,255,255)" fill-opacity="1.000" fill-rule="evenodd" transform="matrix(1 0 0 1 11.3945 21.2383)"/><path d="M80 0L0 0L0 4.482L80 4.482L80 0Z" fill="rgb(217,217,217)" fill-opacity="1.000" fill-rule="nonzero" transform="matrix(1 0 0 1 -8 56)"/><path d="M68.438 0L11.563 0C5.177 0 0 2.912 0 6.504L0 38.496C0 42.088 5.177 45 11.563 45L68.438 45C74.823 45 80 42.088 80 38.496L80 6.504C80 2.912 74.823 0 68.438 0Z" fill="url(#g107)" fill-rule="nonzero" transform="matrix(1 0 0 1 -8 15.4824)"/></svg>