<svg xmlns="http://www.w3.org/2000/svg" viewBox="0 0 60 60" width="60" height="60"><path d="M0 0L60 0L60 60L0 60L0 0Z" fill="rgb(255,255,255)" fill-opacity="1.000" fill-rule="nonzero" transform="matrix(1 0 0 1 0 0)"/><path d="M0 6.938L0 0L3.602 0L3.602 1.067L1.455 1.067L1.455 2.84L3.507 2.84L3.507 3.907L1.455 3.907L1.455 6.938L0 6.938Z" fill="rgb(0,0,0)" fill-opacity="1.000" fill-rule="nonzero" transform="matrix(1 0 0 1 11.5909 39.2495)"/><path d="M1.36 6.938L0 6.938L0 2.084L1.36 2.084L1.36 6.938ZM1.36 1.067L0 1.067L0 0L1.36 0L1.36 1.067Z" fill="rgb(0,0,0)" fill-opacity="1.000" fill-rule="nonzero" transform="matrix(1 0 0 1 15.5803 39.2495)"/><path d="M1.353 0.585L1.372 0.585C1.646 0.152 2.008 0 2.516 0C3.164 0 3.729 0.381 3.729 1.055L3.729 4.949L2.37 4.949L2.37 1.601C2.37 1.169 2.294 0.832 1.862 0.832C1.43 0.832 1.353 1.169 1.353 1.601L1.353 4.949L0 4.949L0 0.095L1.353 0.095L1.353 0.585Z" fill="rgb(0,0,0)" fill-opacity="1.000" fill-rule="nonzero" transform="matrix(1 0 0 1 17.5503 41.2386)"/><path d="M3.825 4.047C3.825 4.346 3.863 4.651 3.895 4.956L2.63 4.956L2.573 4.308L2.554 4.308C2.268 4.81 1.868 5.051 1.283 5.051C0.343 5.051 0 4.346 0 3.501C0 1.9 1.239 1.83 2.497 1.849L2.497 1.474C2.497 1.061 2.44 0.762 1.951 0.762C1.48 0.762 1.442 1.118 1.442 1.499L0.114 1.499C0.114 0.915 0.299 0.54 0.616 0.318C0.921 0.083 1.366 0 1.887 0C3.609 0 3.831 0.737 3.831 1.62L3.831 4.047L3.825 4.047ZM1.322 3.444C1.322 3.787 1.379 4.212 1.817 4.212C2.618 4.212 2.491 3.139 2.491 2.611C1.823 2.63 1.322 2.573 1.322 3.444Z" fill="rgb(0,0,0)" fill-opacity="1.000" fill-rule="nonzero" transform="matrix(1 0 0 1 21.6295 41.2386)"/><path d="M1.353 0.585L1.372 0.585C1.646 0.152 2.008 0 2.516 0C3.158 0 3.729 0.381 3.729 1.055L3.729 4.949L2.376 4.949L2.376 1.601C2.376 1.169 2.3 0.832 1.868 0.832C1.436 0.832 1.36 1.169 1.36 1.601L1.36 4.949L0 4.949L0 0.095L1.36 0.095L1.36 0.585L1.353 0.585Z" fill="rgb(0,0,0)" fill-opacity="1.000" fill-rule="nonzero" transform="matrix(1 0 0 1 25.9936 41.2386)"/><path d="M2.592 1.836C2.592 1.118 2.408 0.877 1.989 0.877C1.41 0.877 1.366 1.385 1.366 2.389C1.366 3.869 1.493 4.187 1.989 4.187C2.408 4.187 2.611 3.799 2.611 3.164L3.965 3.164C3.965 4.479 3.253 5.051 1.982 5.051C0.235 5.051 0 3.984 0 2.465C0 1.144 0.191 0 1.982 0C3.228 0 3.939 0.559 3.939 1.83L2.592 1.83L2.592 1.836Z" fill="rgb(0,0,0)" fill-opacity="1.000" fill-rule="nonzero" transform="matrix(1 0 0 1 30.0919 41.2258)"/><path d="M1.353 6.938L0 6.938L0 2.084L1.353 2.084L1.353 6.938ZM1.353 1.067L0 1.067L0 0L1.353 0L1.353 1.067Z" fill="rgb(0,0,0)" fill-opacity="1.000" fill-rule="nonzero" transform="matrix(1 0 0 1 34.4565 39.2495)"/><path d="M3.825 4.047C3.825 4.346 3.863 4.651 3.888 4.956L2.63 4.956L2.573 4.308L2.554 4.308C2.268 4.81 1.874 5.051 1.283 5.051C0.343 5.051 0 4.346 0 3.501C0 1.9 1.239 1.83 2.497 1.849L2.497 1.474C2.497 1.061 2.44 0.762 1.951 0.762C1.48 0.762 1.442 1.118 1.442 1.499L0.121 1.499C0.121 0.915 0.305 0.54 0.623 0.318C0.928 0.083 1.372 0 1.887 0C3.609 0 3.831 0.737 3.831 1.62L3.831 4.047L3.825 4.047ZM1.322 3.444C1.322 3.787 1.379 4.212 1.823 4.212C2.618 4.212 2.491 3.139 2.491 2.611C1.823 2.63 1.322 2.573 1.322 3.444Z" fill="rgb(0,0,0)" fill-opacity="1.000" fill-rule="nonzero" transform="matrix(1 0 0 1 36.2804 41.2386)"/><path d="M1.353 0L0 0L0 6.938L1.353 6.938L1.353 0Z" fill="rgb(0,0,0)" fill-opacity="1.000" fill-rule="nonzero" transform="matrix(1 0 0 1 40.6896 39.2495)"/><path d="M10.057 17.745C10.858 17.078 10.998 16.246 10.998 15.502L10.998 12.383L6.639 12.383L6.639 16.621C6.639 17.224 6.144 17.713 5.54 17.713C4.937 17.713 4.486 17.224 4.486 16.621L4.486 4.619C4.486 4.015 4.937 3.526 5.54 3.526C6.144 3.526 6.639 4.015 6.639 4.619L6.639 8.882L10.991 8.882L10.991 4.46C10.991 2.014 9.397 0.006 5.502 0C1.512 0 0 2.02 0 4.466L0 16.995C0 19.416 1.919 21.246 4.384 21.246L5.731 21.246L10.057 17.745Z" fill="rgb(0,0,0)" fill-opacity="1.000" fill-rule="nonzero" transform="matrix(1 0 0 1 10.4345 14.5159)"/><path d="M3.012 17.828L3.012 4.06L0 4.06L0 0L10.89 0L10.89 4.06L7.866 4.06L7.866 20.807L6.576 20.807L3.012 17.828Z" fill="rgb(0,0,0)" fill-opacity="1.000" fill-rule="nonzero" transform="matrix(1 0 0 1 34.6665 14.9288)"/><path d="M21.583 8.882L10.979 0L0 8.882L21.583 8.882Z" fill="rgb(253,185,39)" fill-opacity="1.000" fill-rule="nonzero" transform="matrix(1 0 0 1 18.0461 26.8859)"/><path d="M9.606 0L3.533 0L0 15.871L6.589 10.553L13.457 16.309L9.606 0ZM5.413 9.537L6.589 3.539L7.758 9.537L5.413 9.537Z" fill="rgb(0,0,0)" fill-opacity="1.000" fill-rule="nonzero" transform="matrix(1 0 0 1 22.4426 14.9543)"/><path d="M0 1.29C0 0.578 0.578 0 1.302 0C2.014 0 2.592 0.578 2.592 1.29C2.592 2.008 2.014 2.592 1.302 2.592C0.578 2.586 0 2.008 0 1.29ZM2.363 1.29C2.363 0.705 1.887 0.222 1.302 0.222C0.712 0.222 0.229 0.705 0.229 1.29C0.229 1.881 0.712 2.363 1.302 2.363C1.887 2.357 2.363 1.881 2.363 1.29ZM1.023 1.372L1.023 2.027L0.788 2.027L0.788 0.508L1.283 0.508C1.563 0.508 1.855 0.585 1.855 0.928C1.855 1.099 1.747 1.239 1.544 1.283L1.544 1.29C1.754 1.334 1.779 1.423 1.804 1.588C1.823 1.734 1.842 1.893 1.893 2.027L1.588 2.027C1.569 1.944 1.544 1.842 1.538 1.754C1.518 1.62 1.518 1.499 1.449 1.43C1.385 1.366 1.309 1.372 1.226 1.366L1.023 1.366L1.023 1.372ZM1.277 1.137C1.499 1.131 1.55 1.036 1.55 0.921C1.55 0.807 1.499 0.75 1.309 0.75L1.023 0.75L1.023 1.137L1.277 1.137Z" fill="rgb(0,0,0)" fill-opacity="1.000" fill-rule="nonzero" transform="matrix(1 0 0 1 46.4078 14.8081)"/></svg>