<svg xmlns="http://www.w3.org/2000/svg" viewBox="0 0 130 60" width="130" height="60"><path d="M0 0L130 0L130 60L0 60L0 0Z" fill="rgb(255,255,255)" fill-opacity="1.000" fill-rule="nonzero" transform="matrix(1 0 0 1 0 0)"/><path d="M1.599 1.157L1.599 1.614L0 1.614L0 1.157L1.599 1.157ZM0.429 0.457L0.998 0.457L0.998 3.223C0.998 3.333 1.015 3.416 1.048 3.472C1.081 3.527 1.123 3.564 1.176 3.584C1.229 3.604 1.287 3.613 1.349 3.613C1.395 3.613 1.434 3.61 1.469 3.604C1.503 3.597 1.53 3.592 1.549 3.588L1.652 4.059C1.619 4.071 1.572 4.084 1.511 4.096C1.45 4.11 1.374 4.118 1.282 4.119C1.132 4.122 0.993 4.095 0.863 4.039C0.734 3.984 0.629 3.897 0.549 3.781C0.469 3.664 0.429 3.517 0.429 3.341L0.429 0.457ZM2.861 2.345L2.861 4.081L2.291 4.081L2.291 0.183L2.853 0.183L2.853 1.633L2.89 1.633C2.958 1.476 3.063 1.351 3.204 1.258C3.345 1.166 3.529 1.119 3.756 1.119C3.957 1.119 4.132 1.16 4.282 1.243C4.433 1.325 4.55 1.449 4.633 1.612C4.717 1.775 4.759 1.978 4.759 2.221L4.759 4.081L4.189 4.081L4.189 2.29C4.189 2.076 4.134 1.909 4.023 1.791C3.913 1.672 3.759 1.612 3.562 1.612C3.428 1.612 3.307 1.641 3.2 1.698C3.095 1.755 3.012 1.839 2.951 1.949C2.891 2.058 2.861 2.19 2.861 2.345ZM6.78 4.14C6.491 4.14 6.243 4.079 6.035 3.956C5.828 3.831 5.668 3.657 5.555 3.432C5.443 3.206 5.387 2.942 5.387 2.638C5.387 2.339 5.443 2.075 5.555 1.846C5.668 1.618 5.825 1.44 6.027 1.312C6.231 1.183 6.468 1.119 6.74 1.119C6.905 1.119 7.065 1.146 7.22 1.201C7.375 1.256 7.514 1.341 7.637 1.458C7.76 1.575 7.858 1.727 7.929 1.913C8 2.098 8.035 2.324 8.035 2.589L8.035 2.791L5.709 2.791L5.709 2.364L7.477 2.364C7.477 2.214 7.447 2.082 7.386 1.966C7.325 1.85 7.239 1.758 7.128 1.69C7.019 1.623 6.891 1.59 6.744 1.59C6.584 1.59 6.444 1.629 6.325 1.708C6.206 1.785 6.115 1.886 6.05 2.012C5.987 2.136 5.955 2.272 5.955 2.417L5.955 2.751C5.955 2.946 5.989 3.112 6.058 3.249C6.128 3.387 6.225 3.491 6.349 3.564C6.474 3.635 6.619 3.67 6.785 3.67C6.894 3.67 6.992 3.655 7.081 3.624C7.17 3.593 7.247 3.546 7.311 3.483C7.376 3.421 7.426 3.345 7.46 3.253L7.999 3.35C7.956 3.509 7.878 3.648 7.767 3.767C7.656 3.885 7.517 3.977 7.349 4.043C7.183 4.108 6.993 4.14 6.78 4.14ZM10.133 4.081L10.133 0.183L10.703 0.183L10.703 1.631L10.737 1.631C10.77 1.57 10.817 1.5 10.88 1.42C10.942 1.34 11.028 1.27 11.139 1.211C11.249 1.15 11.395 1.119 11.577 1.119C11.813 1.119 12.024 1.179 12.209 1.298C12.395 1.418 12.54 1.59 12.646 1.814C12.752 2.039 12.806 2.309 12.806 2.625C12.806 2.941 12.753 3.212 12.648 3.438C12.542 3.663 12.397 3.836 12.213 3.958C12.029 4.078 11.819 4.138 11.583 4.138C11.405 4.138 11.259 4.109 11.146 4.049C11.034 3.989 10.947 3.919 10.883 3.84C10.82 3.76 10.771 3.688 10.737 3.626L10.689 3.626L10.689 4.081L10.133 4.081ZM10.691 2.619C10.691 2.825 10.721 3.005 10.781 3.16C10.84 3.315 10.927 3.436 11.04 3.524C11.153 3.61 11.291 3.653 11.455 3.653C11.625 3.653 11.767 3.608 11.882 3.518C11.996 3.426 12.082 3.303 12.141 3.147C12.2 2.991 12.23 2.815 12.23 2.619C12.23 2.426 12.201 2.253 12.143 2.1C12.085 1.946 11.999 1.825 11.883 1.736C11.769 1.647 11.626 1.603 11.455 1.603C11.29 1.603 11.15 1.645 11.036 1.73C10.923 1.815 10.837 1.934 10.779 2.086C10.72 2.239 10.691 2.416 10.691 2.619ZM14.706 4.14C14.418 4.14 14.17 4.079 13.961 3.956C13.754 3.831 13.594 3.657 13.482 3.432C13.37 3.206 13.314 2.942 13.314 2.638C13.314 2.339 13.37 2.075 13.482 1.846C13.594 1.618 13.752 1.44 13.954 1.312C14.157 1.183 14.395 1.119 14.667 1.119C14.832 1.119 14.992 1.146 15.147 1.201C15.301 1.256 15.441 1.341 15.564 1.458C15.687 1.575 15.784 1.727 15.855 1.913C15.926 2.098 15.962 2.324 15.962 2.589L15.962 2.791L13.636 2.791L13.636 2.364L15.404 2.364C15.404 2.214 15.373 2.082 15.312 1.966C15.251 1.85 15.166 1.758 15.055 1.69C14.946 1.623 14.818 1.59 14.67 1.59C14.51 1.59 14.37 1.629 14.251 1.708C14.133 1.785 14.042 1.886 13.977 2.012C13.913 2.136 13.882 2.272 13.882 2.417L13.882 2.751C13.882 2.946 13.916 3.112 13.984 3.249C14.054 3.387 14.151 3.491 14.276 3.564C14.4 3.635 14.546 3.67 14.712 3.67C14.82 3.67 14.919 3.655 15.007 3.624C15.096 3.593 15.173 3.546 15.238 3.483C15.303 3.421 15.352 3.345 15.387 3.253L15.926 3.35C15.883 3.509 15.805 3.648 15.693 3.767C15.583 3.885 15.444 3.977 15.276 4.043C15.11 4.108 14.92 4.14 14.706 4.14ZM18.787 1.871L18.27 1.963C18.249 1.897 18.214 1.834 18.168 1.774C18.122 1.714 18.06 1.666 17.981 1.627C17.902 1.59 17.804 1.57 17.686 1.57C17.524 1.57 17.39 1.607 17.282 1.679C17.174 1.75 17.12 1.842 17.12 1.955C17.12 2.053 17.156 2.131 17.228 2.191C17.301 2.251 17.418 2.299 17.579 2.338L18.044 2.444C18.313 2.506 18.514 2.602 18.646 2.732C18.778 2.861 18.844 3.029 18.844 3.236C18.844 3.411 18.793 3.567 18.691 3.704C18.591 3.84 18.451 3.947 18.27 4.024C18.091 4.102 17.884 4.14 17.647 4.14C17.32 4.14 17.052 4.071 16.845 3.931C16.638 3.79 16.511 3.59 16.464 3.331L17.015 3.247C17.049 3.391 17.12 3.499 17.226 3.573C17.333 3.645 17.472 3.682 17.644 3.682C17.83 3.682 17.98 3.643 18.091 3.565C18.203 3.487 18.259 3.391 18.259 3.278C18.259 3.187 18.225 3.11 18.156 3.048C18.089 2.985 17.985 2.938 17.846 2.907L17.35 2.798C17.077 2.736 16.875 2.637 16.745 2.501C16.615 2.366 16.55 2.194 16.55 1.985C16.55 1.813 16.598 1.662 16.695 1.532C16.791 1.403 16.925 1.302 17.095 1.23C17.265 1.156 17.46 1.119 17.68 1.119C17.996 1.119 18.245 1.188 18.427 1.325C18.608 1.461 18.728 1.643 18.787 1.871ZM20.836 1.157L20.836 1.614L19.238 1.614L19.238 1.157L20.836 1.157ZM19.666 0.457L20.236 0.457L20.236 3.223C20.236 3.333 20.253 3.416 20.286 3.472C20.319 3.527 20.361 3.564 20.413 3.584C20.466 3.604 20.524 3.613 20.586 3.613C20.632 3.613 20.672 3.61 20.707 3.604C20.741 3.597 20.768 3.592 20.787 3.588L20.889 4.059C20.856 4.071 20.81 4.084 20.748 4.096C20.687 4.11 20.611 4.118 20.52 4.119C20.37 4.122 20.23 4.095 20.101 4.039C19.971 3.984 19.866 3.897 19.786 3.781C19.706 3.664 19.666 3.517 19.666 3.341L19.666 0.457ZM25.079 1.871L24.563 1.963C24.541 1.897 24.507 1.834 24.459 1.774C24.414 1.714 24.352 1.666 24.273 1.627C24.194 1.59 24.096 1.57 23.977 1.57C23.816 1.57 23.682 1.607 23.574 1.679C23.466 1.75 23.412 1.842 23.412 1.955C23.412 2.053 23.448 2.131 23.52 2.191C23.593 2.251 23.71 2.299 23.871 2.338L24.336 2.444C24.605 2.506 24.806 2.602 24.938 2.732C25.07 2.861 25.136 3.029 25.136 3.236C25.136 3.411 25.085 3.567 24.983 3.704C24.883 3.84 24.743 3.947 24.563 4.024C24.383 4.102 24.176 4.14 23.94 4.14C23.612 4.14 23.344 4.071 23.137 3.931C22.93 3.79 22.803 3.59 22.756 3.331L23.307 3.247C23.341 3.391 23.412 3.499 23.518 3.573C23.625 3.645 23.764 3.682 23.936 3.682C24.122 3.682 24.272 3.643 24.383 3.565C24.495 3.487 24.551 3.391 24.551 3.278C24.551 3.187 24.517 3.11 24.448 3.048C24.381 2.985 24.277 2.938 24.138 2.907L23.642 2.798C23.369 2.736 23.167 2.637 23.036 2.501C22.907 2.366 22.842 2.194 22.842 1.985C22.842 1.813 22.89 1.662 22.987 1.532C23.083 1.403 23.217 1.302 23.387 1.23C23.557 1.156 23.752 1.119 23.972 1.119C24.288 1.119 24.537 1.188 24.719 1.325C24.9 1.461 25.02 1.643 25.079 1.871ZM27.023 4.14C26.735 4.14 26.487 4.079 26.279 3.956C26.072 3.831 25.912 3.657 25.798 3.432C25.687 3.206 25.631 2.942 25.631 2.638C25.631 2.339 25.687 2.075 25.798 1.846C25.912 1.618 26.069 1.44 26.271 1.312C26.474 1.183 26.711 1.119 26.983 1.119C27.148 1.119 27.308 1.146 27.463 1.201C27.618 1.256 27.757 1.341 27.881 1.458C28.004 1.575 28.101 1.727 28.172 1.913C28.243 2.098 28.279 2.324 28.279 2.589L28.279 2.791L25.953 2.791L25.953 2.364L27.721 2.364C27.721 2.214 27.69 2.082 27.629 1.966C27.568 1.85 27.482 1.758 27.372 1.69C27.263 1.623 27.134 1.59 26.987 1.59C26.827 1.59 26.687 1.629 26.568 1.708C26.45 1.785 26.358 1.886 26.294 2.012C26.23 2.136 26.198 2.272 26.198 2.417L26.198 2.751C26.198 2.946 26.233 3.112 26.301 3.249C26.371 3.387 26.468 3.491 26.593 3.564C26.717 3.635 26.863 3.67 27.029 3.67C27.137 3.67 27.235 3.655 27.324 3.624C27.413 3.593 27.49 3.546 27.555 3.483C27.62 3.421 27.669 3.345 27.703 3.253L28.243 3.35C28.199 3.509 28.122 3.648 28.01 3.767C27.9 3.885 27.761 3.977 27.593 4.043C27.427 4.108 27.237 4.14 27.023 4.14ZM28.911 4.081L28.911 1.157L29.461 1.157L29.461 1.622L29.492 1.622C29.545 1.464 29.639 1.341 29.774 1.251C29.91 1.159 30.064 1.114 30.235 1.114C30.271 1.114 30.312 1.115 30.361 1.117C30.41 1.12 30.449 1.123 30.477 1.127L30.477 1.671C30.454 1.665 30.413 1.658 30.355 1.65C30.296 1.641 30.238 1.637 30.18 1.637C30.045 1.637 29.925 1.666 29.82 1.723C29.715 1.779 29.633 1.857 29.572 1.957C29.511 2.056 29.481 2.169 29.481 2.296L29.481 4.081L28.911 4.081ZM33.562 1.157L32.501 4.081L31.891 4.081L30.828 1.157L31.44 1.157L32.181 3.407L32.211 3.407L32.951 1.157L33.562 1.157ZM34.097 4.081L34.097 1.157L34.667 1.157L34.667 4.081L34.097 4.081ZM34.385 0.706C34.286 0.706 34.201 0.673 34.13 0.607C34.06 0.54 34.025 0.46 34.025 0.367C34.025 0.273 34.06 0.193 34.13 0.127C34.201 0.06 34.286 0.027 34.385 0.027C34.484 0.027 34.569 0.06 34.638 0.127C34.71 0.193 34.745 0.273 34.745 0.367C34.745 0.46 34.71 0.54 34.638 0.607C34.569 0.673 34.484 0.706 34.385 0.706ZM36.666 4.14C36.383 4.14 36.139 4.076 35.934 3.948C35.731 3.819 35.575 3.64 35.466 3.413C35.357 3.186 35.302 2.926 35.302 2.633C35.302 2.336 35.358 2.074 35.47 1.846C35.581 1.618 35.739 1.44 35.942 1.312C36.145 1.183 36.385 1.119 36.66 1.119C36.883 1.119 37.081 1.16 37.255 1.243C37.429 1.324 37.569 1.438 37.676 1.586C37.784 1.733 37.848 1.905 37.868 2.102L37.314 2.102C37.283 1.964 37.213 1.846 37.104 1.747C36.996 1.649 36.851 1.599 36.67 1.599C36.511 1.599 36.372 1.641 36.253 1.725C36.135 1.807 36.043 1.925 35.976 2.079C35.91 2.231 35.877 2.411 35.877 2.619C35.877 2.833 35.91 3.016 35.974 3.171C36.039 3.326 36.131 3.446 36.249 3.531C36.368 3.616 36.508 3.659 36.67 3.659C36.778 3.659 36.876 3.639 36.963 3.6C37.052 3.559 37.126 3.501 37.186 3.426C37.247 3.352 37.29 3.261 37.314 3.156L37.868 3.156C37.848 3.345 37.786 3.514 37.683 3.663C37.58 3.811 37.443 3.928 37.27 4.013C37.099 4.098 36.897 4.14 36.666 4.14ZM39.738 4.14C39.45 4.14 39.202 4.079 38.993 3.956C38.787 3.831 38.626 3.657 38.513 3.432C38.402 3.206 38.346 2.942 38.346 2.638C38.346 2.339 38.402 2.075 38.513 1.846C38.626 1.618 38.784 1.44 38.986 1.312C39.189 1.183 39.427 1.119 39.699 1.119C39.864 1.119 40.024 1.146 40.178 1.201C40.333 1.256 40.473 1.341 40.596 1.458C40.719 1.575 40.816 1.727 40.887 1.913C40.958 2.098 40.994 2.324 40.994 2.589L40.994 2.791L38.668 2.791L38.668 2.364L40.436 2.364C40.436 2.214 40.405 2.082 40.344 1.966C40.283 1.85 40.198 1.758 40.087 1.69C39.978 1.623 39.85 1.59 39.702 1.59C39.542 1.59 39.402 1.629 39.283 1.708C39.165 1.785 39.074 1.886 39.009 2.012C38.945 2.136 38.914 2.272 38.914 2.417L38.914 2.751C38.914 2.946 38.948 3.112 39.016 3.249C39.086 3.387 39.183 3.491 39.308 3.564C39.432 3.635 39.578 3.67 39.744 3.67C39.852 3.67 39.951 3.655 40.039 3.624C40.128 3.593 40.205 3.546 40.27 3.483C40.335 3.421 40.384 3.345 40.419 3.253L40.958 3.35C40.915 3.509 40.837 3.648 40.725 3.767C40.615 3.885 40.476 3.977 40.308 4.043C40.142 4.108 39.952 4.14 39.738 4.14ZM44.438 1.157L44.438 1.614L42.785 1.614L42.785 1.157L44.438 1.157ZM43.238 4.081L43.238 0.819C43.238 0.636 43.278 0.484 43.358 0.364C43.438 0.242 43.544 0.151 43.676 0.091C43.808 0.03 43.952 0 44.107 0C44.221 0 44.319 0.009 44.4 0.029C44.482 0.046 44.542 0.063 44.581 0.078L44.448 0.539C44.421 0.531 44.387 0.522 44.345 0.512C44.303 0.501 44.252 0.495 44.193 0.495C44.054 0.495 43.955 0.529 43.895 0.598C43.837 0.666 43.808 0.765 43.808 0.895L43.808 4.081L43.238 4.081ZM46.143 4.14C45.869 4.14 45.63 4.077 45.425 3.952C45.221 3.826 45.062 3.65 44.949 3.424C44.836 3.199 44.779 2.935 44.779 2.633C44.779 2.329 44.836 2.064 44.949 1.837C45.062 1.61 45.221 1.433 45.425 1.308C45.63 1.182 45.869 1.119 46.143 1.119C46.418 1.119 46.657 1.182 46.862 1.308C47.066 1.433 47.225 1.61 47.338 1.837C47.451 2.064 47.507 2.329 47.507 2.633C47.507 2.935 47.451 3.199 47.338 3.424C47.225 3.65 47.066 3.826 46.862 3.952C46.657 4.077 46.418 4.14 46.143 4.14ZM46.145 3.663C46.323 3.663 46.47 3.615 46.587 3.522C46.704 3.428 46.79 3.303 46.846 3.147C46.904 2.991 46.932 2.819 46.932 2.631C46.932 2.444 46.904 2.273 46.846 2.117C46.79 1.959 46.704 1.833 46.587 1.738C46.47 1.643 46.323 1.595 46.145 1.595C45.966 1.595 45.818 1.643 45.699 1.738C45.583 1.833 45.496 1.959 45.438 2.117C45.383 2.273 45.355 2.444 45.355 2.631C45.355 2.819 45.383 2.991 45.438 3.147C45.496 3.303 45.583 3.428 45.699 3.522C45.818 3.615 45.966 3.663 46.145 3.663ZM48.143 4.081L48.143 1.157L48.694 1.157L48.694 1.622L48.724 1.622C48.778 1.464 48.872 1.341 49.006 1.251C49.142 1.159 49.296 1.114 49.467 1.114C49.503 1.114 49.545 1.115 49.593 1.117C49.643 1.12 49.681 1.123 49.709 1.127L49.709 1.671C49.686 1.665 49.646 1.658 49.587 1.65C49.529 1.641 49.47 1.637 49.412 1.637C49.277 1.637 49.157 1.666 49.052 1.723C48.948 1.779 48.865 1.857 48.804 1.957C48.743 2.056 48.713 2.169 48.713 2.296L48.713 4.081L48.143 4.081ZM52.849 5.239C52.616 5.239 52.416 5.208 52.249 5.147C52.082 5.086 51.947 5.006 51.841 4.906C51.736 4.805 51.657 4.695 51.605 4.576L52.094 4.374C52.129 4.43 52.174 4.489 52.232 4.551C52.29 4.615 52.369 4.669 52.468 4.713C52.568 4.758 52.697 4.78 52.855 4.78C53.071 4.78 53.249 4.727 53.39 4.622C53.531 4.518 53.601 4.352 53.601 4.123L53.601 3.548L53.565 3.548C53.531 3.61 53.481 3.68 53.417 3.756C53.353 3.832 53.265 3.898 53.154 3.954C53.042 4.01 52.897 4.037 52.717 4.037C52.486 4.037 52.278 3.984 52.093 3.876C51.908 3.767 51.762 3.606 51.654 3.394C51.548 3.181 51.494 2.919 51.494 2.608C51.494 2.297 51.547 2.031 51.653 1.808C51.759 1.586 51.905 1.416 52.091 1.298C52.276 1.179 52.486 1.119 52.721 1.119C52.903 1.119 53.049 1.15 53.161 1.211C53.273 1.27 53.36 1.34 53.422 1.42C53.486 1.5 53.535 1.57 53.569 1.631L53.611 1.631L53.611 1.157L54.169 1.157L54.169 4.146C54.169 4.397 54.111 4.604 53.994 4.765C53.877 4.926 53.719 5.045 53.519 5.123C53.321 5.2 53.098 5.239 52.849 5.239ZM52.843 3.565C53.007 3.565 53.145 3.527 53.258 3.451C53.373 3.374 53.459 3.263 53.518 3.12C53.577 2.975 53.607 2.802 53.607 2.6C53.607 2.403 53.578 2.23 53.519 2.081C53.461 1.931 53.375 1.814 53.262 1.73C53.149 1.645 53.009 1.603 52.843 1.603C52.672 1.603 52.529 1.647 52.415 1.736C52.3 1.824 52.214 1.943 52.155 2.094C52.098 2.245 52.07 2.414 52.07 2.6C52.07 2.792 52.099 2.96 52.157 3.105C52.216 3.249 52.302 3.362 52.416 3.444C52.532 3.525 52.674 3.565 52.843 3.565ZM54.933 4.081L54.933 1.157L55.484 1.157L55.484 1.622L55.514 1.622C55.567 1.464 55.661 1.341 55.796 1.251C55.932 1.159 56.086 1.114 56.257 1.114C56.293 1.114 56.335 1.115 56.383 1.117C56.432 1.12 56.471 1.123 56.499 1.127L56.499 1.671C56.476 1.665 56.436 1.658 56.377 1.65C56.319 1.641 56.26 1.637 56.202 1.637C56.067 1.637 55.947 1.666 55.842 1.723C55.738 1.779 55.655 1.857 55.594 1.957C55.533 2.056 55.503 2.169 55.503 2.296L55.503 4.081L54.933 4.081ZM58.12 4.14C57.845 4.14 57.606 4.077 57.402 3.952C57.197 3.826 57.038 3.65 56.925 3.424C56.812 3.199 56.756 2.935 56.756 2.633C56.756 2.329 56.812 2.064 56.925 1.837C57.038 1.61 57.197 1.433 57.402 1.308C57.606 1.182 57.845 1.119 58.12 1.119C58.394 1.119 58.634 1.182 58.838 1.308C59.042 1.433 59.201 1.61 59.314 1.837C59.427 2.064 59.484 2.329 59.484 2.633C59.484 2.935 59.427 3.199 59.314 3.424C59.201 3.65 59.042 3.826 58.838 3.952C58.634 4.077 58.394 4.14 58.12 4.14ZM58.122 3.663C58.299 3.663 58.447 3.615 58.564 3.522C58.68 3.428 58.767 3.303 58.823 3.147C58.88 2.991 58.908 2.819 58.908 2.631C58.908 2.444 58.88 2.273 58.823 2.117C58.767 1.959 58.68 1.833 58.564 1.738C58.447 1.643 58.299 1.595 58.122 1.595C57.943 1.595 57.794 1.643 57.676 1.738C57.559 1.833 57.472 1.959 57.415 2.117C57.359 2.273 57.331 2.444 57.331 2.631C57.331 2.819 57.359 2.991 57.415 3.147C57.472 3.303 57.559 3.428 57.676 3.522C57.794 3.615 57.943 3.663 58.122 3.663ZM60.665 4.081L59.804 1.157L60.392 1.157L60.966 3.305L60.995 3.305L61.57 1.157L62.158 1.157L62.73 3.295L62.759 3.295L63.328 1.157L63.917 1.157L63.058 4.081L62.477 4.081L61.882 1.97L61.838 1.97L61.244 4.081L60.665 4.081ZM65.824 1.157L65.824 1.614L64.225 1.614L64.225 1.157L65.824 1.157ZM64.654 0.457L65.223 0.457L65.223 3.223C65.223 3.333 65.24 3.416 65.273 3.472C65.306 3.527 65.348 3.564 65.401 3.584C65.454 3.604 65.512 3.613 65.574 3.613C65.62 3.613 65.66 3.61 65.694 3.604C65.728 3.597 65.755 3.592 65.774 3.588L65.877 4.059C65.844 4.071 65.797 4.084 65.736 4.096C65.675 4.11 65.599 4.118 65.507 4.119C65.357 4.122 65.218 4.095 65.088 4.039C64.959 3.984 64.854 3.897 64.774 3.781C64.694 3.664 64.654 3.517 64.654 3.341L64.654 0.457ZM67.086 2.345L67.086 4.081L66.516 4.081L66.516 0.183L67.079 0.183L67.079 1.633L67.115 1.633C67.183 1.476 67.288 1.351 67.429 1.258C67.57 1.166 67.754 1.119 67.981 1.119C68.182 1.119 68.357 1.16 68.507 1.243C68.658 1.325 68.775 1.449 68.858 1.612C68.942 1.775 68.984 1.978 68.984 2.221L68.984 4.081L68.414 4.081L68.414 2.29C68.414 2.076 68.359 1.909 68.248 1.791C68.138 1.672 67.984 1.612 67.787 1.612C67.653 1.612 67.532 1.641 67.425 1.698C67.32 1.755 67.237 1.839 67.176 1.949C67.116 2.058 67.086 2.19 67.086 2.345Z" fill="rgb(118,100,250)" fill-opacity="1.000" fill-rule="nonzero" transform="matrix(1 0 0 1 49.7289 39.7612)"/><path d="M0 6.151C0 2.648 2.629 0 6.134 0C8.054 0 9.619 0.792 10.641 2.043C10.787 2.231 10.787 2.398 10.641 2.544L9.556 3.586C9.369 3.774 9.118 3.732 8.972 3.565C8.284 2.877 7.491 2.419 6.26 2.419C4.048 2.419 2.504 4.003 2.504 6.171C2.504 8.34 4.048 9.966 6.301 9.966C7.512 9.966 8.304 9.507 8.972 8.819C9.139 8.652 9.389 8.611 9.577 8.798L10.662 9.841C10.808 9.987 10.808 10.154 10.662 10.341C9.661 11.592 8.096 12.384 6.197 12.384C2.629 12.343 0 9.674 0 6.151Z" fill="rgb(118,100,250)" fill-opacity="1.000" fill-rule="nonzero" transform="matrix(1 0 0 1 48.0351 23.0902)"/><path d="M0 6.13C0 2.669 2.4 0 5.988 0C9.515 0 11.559 2.669 11.559 5.608C11.559 6.651 11.351 7.151 10.454 7.151L2.525 7.151C2.838 9.028 4.236 10.279 6.573 10.279C7.72 10.279 8.659 9.987 9.598 9.361C9.744 9.257 9.89 9.299 9.974 9.424L10.641 10.341C10.787 10.529 10.746 10.675 10.537 10.862C9.494 11.863 7.991 12.343 6.322 12.343C2.504 12.364 0 9.653 0 6.13ZM9.264 5.275C9.118 3.357 7.845 2.189 5.988 2.189C4.131 2.189 2.775 3.315 2.504 5.275L9.264 5.275Z" fill="rgb(118,100,250)" fill-opacity="1.000" fill-rule="nonzero" transform="matrix(1 0 0 1 59.8235 23.0694)"/><path d="M0 16.825L0 0.354C0 0.146 0.125 0 0.334 0L2.253 0C2.462 0 2.587 0.146 2.587 0.354L2.587 16.804C2.587 17.013 2.462 17.159 2.253 17.159L0.334 17.159C0.125 17.18 0 17.034 0 16.825Z" fill="rgb(118,100,250)" fill-opacity="1.000" fill-rule="nonzero" transform="matrix(1 0 0 1 73.0518 17.9613)"/><path d="M0 6.151C0 2.648 2.629 0 6.134 0C8.054 0 9.619 0.792 10.641 2.043C10.787 2.231 10.787 2.398 10.641 2.544L9.556 3.586C9.369 3.774 9.118 3.732 8.972 3.565C8.284 2.877 7.491 2.419 6.26 2.419C4.048 2.419 2.504 4.003 2.504 6.171C2.504 8.34 4.048 9.966 6.301 9.966C7.512 9.966 8.304 9.507 8.972 8.819C9.139 8.652 9.389 8.611 9.577 8.798L10.662 9.841C10.808 9.987 10.808 10.154 10.662 10.341C9.661 11.592 8.096 12.384 6.197 12.384C2.65 12.343 0 9.674 0 6.151Z" fill="rgb(118,100,250)" fill-opacity="1.000" fill-rule="nonzero" transform="matrix(1 0 0 1 77.3086 23.0902)"/><path d="M0 6.171C0 2.69 2.587 0 6.114 0C9.598 0 12.206 2.69 12.206 6.171C12.206 9.653 9.619 12.343 6.114 12.343C2.587 12.343 0 9.653 0 6.171ZM6.114 9.945C8.138 9.945 9.702 8.423 9.702 6.171C9.702 3.92 8.138 2.398 6.114 2.398C4.069 2.398 2.504 3.92 2.504 6.171C2.504 8.423 4.069 9.945 6.114 9.945Z" fill="rgb(118,100,250)" fill-opacity="1.000" fill-rule="nonzero" transform="matrix(1 0 0 1 88.6391 23.0902)"/><path d="M0 1.48C0 0.667 0.647 0 1.523 0C2.358 0 3.005 0.667 3.005 1.48C3.005 2.314 2.358 3.002 1.523 3.002C0.647 2.981 0 2.314 0 1.48ZM0.188 5.879C0.188 5.671 0.313 5.525 0.522 5.525L2.462 5.525C2.671 5.525 2.796 5.671 2.796 5.879L2.796 16.93C2.796 17.138 2.671 17.284 2.462 17.284L0.522 17.284C0.313 17.284 0.188 17.138 0.188 16.93L0.188 5.879Z" fill="rgb(118,100,250)" fill-opacity="1.000" fill-rule="nonzero" transform="matrix(1 0 0 1 102.3059 17.8571)"/><path d="M0 11.696L0 0.646C0 0.438 0.125 0.292 0.334 0.292L2.17 0.292C2.379 0.292 2.504 0.396 2.504 0.667L2.608 2.106C3.276 0.897 4.465 0 6.301 0C8.805 0 10.579 1.73 10.579 4.837L10.579 11.717C10.579 11.926 10.433 12.072 10.224 12.072L8.325 12.072C8.117 12.072 7.991 11.926 7.991 11.717L7.991 5.296C7.991 3.44 7.073 2.398 5.425 2.398C3.756 2.398 2.608 3.461 2.608 5.296L2.608 11.696C2.608 11.905 2.483 12.051 2.274 12.051L0.355 12.051C0.125 12.051 0 11.905 0 11.696Z" fill="rgb(118,100,250)" fill-opacity="1.000" fill-rule="nonzero" transform="matrix(1 0 0 1 107.8555 23.0902)"/><path d="M30.484 15.303C30.484 9.111 26.749 3.628 21.074 1.313C20.886 0.563 20.198 0 19.384 0C18.424 0 17.631 0.792 17.631 1.751C17.631 2.71 18.424 3.503 19.384 3.503C19.655 3.503 19.906 3.44 20.135 3.315C25.039 5.275 28.273 9.987 28.273 15.303C28.273 22.079 22.994 27.625 16.317 28.188L16.317 25.645C19.676 25.269 22.639 23.289 24.287 20.328C25.164 20.245 25.852 19.494 25.852 18.597C25.852 17.638 25.059 16.846 24.1 16.846C23.14 16.846 22.347 17.638 22.347 18.597C22.347 18.764 22.389 18.931 22.43 19.077C21.032 21.787 18.257 23.497 15.169 23.497C10.641 23.497 6.969 19.828 6.969 15.303C6.969 10.779 10.641 7.11 15.169 7.11C18.278 7.11 21.053 8.861 22.451 11.592C22.389 11.78 22.347 11.967 22.347 12.155C22.347 13.114 23.14 13.906 24.1 13.906C25.059 13.906 25.852 13.114 25.852 12.155C25.852 11.279 25.205 10.55 24.371 10.425C22.764 7.381 19.739 5.337 16.338 4.962L16.338 1.376L16.338 1.355C16.338 1.334 16.358 1.313 16.358 1.272C16.358 0.667 15.858 0.167 15.253 0.167C6.844 0.167 0 6.964 0 15.303C0 21.475 3.735 26.958 9.41 29.293C9.598 30.044 10.287 30.607 11.1 30.607C12.06 30.607 12.853 29.814 12.853 28.855C12.853 27.896 12.06 27.104 11.1 27.104C10.829 27.104 10.579 27.166 10.349 27.292C5.446 25.332 2.212 20.62 2.212 15.303C2.212 8.548 7.47 2.981 14.147 2.419L14.147 4.941C8.889 5.462 4.778 9.903 4.778 15.303C4.778 20.703 8.889 25.123 14.147 25.665L14.147 29.377C14.147 29.981 14.648 30.482 15.253 30.482C15.315 30.482 15.357 30.461 15.399 30.461C23.724 30.377 30.484 23.622 30.484 15.303Z" fill="rgb(118,100,250)" fill-opacity="1.000" fill-rule="nonzero" transform="matrix(1 0 0 1 12 14)"/></svg>