<svg xmlns="http://www.w3.org/2000/svg" viewBox="0 0 60 60" width="60" height="60"><path d="M0 0L60 0L60 60L0 60L0 0Z" fill="rgb(255,255,255)" fill-opacity="1.000" fill-rule="nonzero" transform="matrix(1 0 0 1 0 0)"/><path d="M40 20C40 11.907 35.099 4.741 27.652 1.717C27.406 0.736 26.502 0 25.435 0C24.175 0 23.135 1.035 23.135 2.289C23.135 3.542 24.175 4.578 25.435 4.578C25.791 4.578 26.119 4.496 26.42 4.332C32.854 6.894 37.098 13.052 37.098 20C37.098 28.856 30.171 36.104 21.41 36.839L21.41 33.515C25.818 33.025 29.706 30.436 31.869 26.567C33.018 26.458 33.922 25.477 33.922 24.305C33.922 23.052 32.882 22.016 31.622 22.016C30.363 22.016 29.322 23.052 29.322 24.305C29.322 24.523 29.377 24.741 29.432 24.932C27.598 28.474 23.956 30.708 19.904 30.708C13.963 30.708 9.144 25.913 9.144 20C9.144 14.087 13.963 9.292 19.904 9.292C23.984 9.292 27.625 11.58 29.459 15.15C29.377 15.395 29.322 15.64 29.322 15.886C29.322 17.139 30.363 18.174 31.622 18.174C32.882 18.174 33.922 17.139 33.922 15.886C33.922 14.741 33.073 13.787 31.978 13.624C29.87 9.646 25.9 6.975 21.437 6.485L21.437 1.798L21.437 1.771C21.437 1.744 21.465 1.717 21.465 1.662C21.465 0.872 20.808 0.218 20.014 0.218C8.98 0.218 0 9.101 0 20C0 28.065 4.901 35.232 12.348 38.283C12.594 39.264 13.498 40 14.565 40C15.825 40 16.865 38.965 16.865 37.711C16.865 36.458 15.825 35.422 14.565 35.422C14.209 35.422 13.881 35.504 13.58 35.668C7.146 33.106 2.902 26.948 2.902 20C2.902 11.172 9.802 3.896 18.563 3.161L18.563 6.458C11.663 7.139 6.27 12.943 6.27 20C6.27 27.057 11.663 32.834 18.563 33.542L18.563 38.392C18.563 39.183 19.22 39.837 20.014 39.837C20.096 39.837 20.151 39.809 20.205 39.809C31.129 39.7 40 30.872 40 20Z" fill="rgb(118,100,250)" fill-opacity="1.000" fill-rule="nonzero" transform="matrix(1 0 0 1 10 10)"/></svg>