<svg xmlns="http://www.w3.org/2000/svg" viewBox="0 0 60 60" width="60" height="60"><path d="M0 0L60 0L60 60L0 60L0 0Z" fill="rgb(255,255,255)" fill-opacity="1.000" fill-rule="nonzero" transform="matrix(1 0 0 1 0 0)"/><path d="M20.769 27.149C18.173 27.149 15.631 26.402 13.448 24.995C11.265 23.589 9.531 21.583 8.437 19.216C7.36 16.85 6.987 14.224 7.36 11.652C7.733 9.079 8.837 6.668 10.542 4.705L5.03 0C3.245 2.073 1.888 4.478 1.037 7.077C0.184 9.677 -0.148 12.419 0.06 15.147C0.267 17.875 1.012 20.536 2.232 22.976C3.468 25.415 5.174 27.586 7.251 29.365C9.327 31.144 11.734 32.494 14.333 33.341C16.932 34.187 19.672 34.51 22.396 34.293C25.119 34.076 27.775 33.321 30.207 32.071C32.64 30.823 34.802 29.107 36.569 27.022L31.057 22.318C29.789 23.831 28.204 25.048 26.414 25.882C24.623 26.718 22.675 27.149 20.701 27.147L20.769 27.149Z" fill="rgb(90,100,110)" fill-opacity="1.000" fill-rule="nonzero" transform="matrix(1 0 0 1 9.5263 16.6414)"/><path d="M15.705 0C12.723 -0.003 9.775 0.638 7.069 1.879C4.357 3.121 1.946 4.934 0 7.194L5.496 11.9C7.837 9.199 11.15 7.535 14.711 7.273C18.272 7.011 21.793 8.163 24.508 10.488C27.222 12.813 28.907 16.117 29.201 19.68C29.493 23.244 28.365 26.778 26.065 29.514L31.56 34.218C34.116 31.191 35.758 27.496 36.287 23.567C36.816 19.639 36.212 15.641 34.547 12.043C32.881 8.448 30.223 5.403 26.885 3.269C23.539 1.149 19.664 0 15.705 0Z" fill="rgb(0,174,239)" fill-opacity="1.000" fill-rule="nonzero" transform="matrix(1 0 0 1 14.59 9.4336)"/></svg>