<svg xmlns="http://www.w3.org/2000/svg" viewBox="0 0 130 60" width="130" height="60"><path d="M0 0L130 0L130 60L0 60L0 0Z" fill="rgb(255,255,255)" fill-opacity="1.000" fill-rule="nonzero" transform="matrix(1 0 0 1 0 0)"/><path d="M39.943 0.001C39.638 0.001 39.337 0.061 39.056 0.178C38.775 0.295 38.52 0.466 38.305 0.681C37.88 1.106 37.625 1.706 37.625 2.322L37.625 30.337C37.625 30.953 37.869 31.542 38.305 31.978C38.52 32.193 38.775 32.364 39.056 32.481C39.338 32.597 39.639 32.657 39.943 32.657C40.248 32.657 40.549 32.597 40.83 32.481C41.111 32.364 41.367 32.193 41.582 31.978C42.007 31.553 42.262 30.953 42.262 30.337L42.262 2.321C42.262 1.705 42.017 1.115 41.582 0.68C41.367 0.464 41.111 0.293 40.83 0.177C40.549 0.06 40.247 0.001 39.943 0.001ZM4.631 9.876C4.631 8.595 3.594 7.556 2.316 7.556C1.038 7.556 0 8.595 0 9.876L0 30.335C0 31.616 1.038 32.655 2.316 32.655C3.594 32.655 4.631 31.616 4.631 30.335L4.631 9.876Z" fill="rgb(90,100,110)" fill-opacity="1.000" fill-rule="nonzero" transform="matrix(1 0 0 1 41.3655 13.656)"/><path d="M5.94 2.974C5.925 3.753 5.605 4.494 5.05 5.039C4.494 5.584 3.748 5.889 2.97 5.889C2.192 5.889 1.446 5.583 0.89 5.039C0.335 4.494 0.015 3.753 0 2.974C0 2.186 0.313 1.429 0.87 0.871C1.426 0.313 2.18 0 2.969 0C3.758 0 4.512 0.313 5.069 0.871C5.626 1.429 5.94 2.186 5.94 2.974Z" fill="rgb(0,174,239)" fill-opacity="1.000" fill-rule="nonzero" transform="matrix(1 0 0 1 40.7113 13.007)"/><path d="M25.322 8.057C23.096 3.016 17.828 -0.547 11.818 0.069C9.791 0.283 7.842 0.964 6.123 2.058C4.403 3.152 2.96 4.63 1.906 6.375C0.852 8.121 0.215 10.087 0.046 12.119C-0.124 14.153 0.18 16.198 0.931 18.094C1.682 19.989 2.861 21.685 4.376 23.05C5.89 24.413 7.7 25.408 9.662 25.956C11.624 26.504 13.699 26.589 15.689 26.206C17.678 25.822 19.574 24.981 21.196 23.747C21.469 23.538 21.692 23.27 21.848 22.964C22.004 22.658 22.09 22.32 22.098 21.976C22.116 21.366 21.89 20.773 21.471 20.329C21.053 19.885 20.475 19.625 19.864 19.606C19.34 19.589 18.825 19.753 18.407 20.069C16.802 21.308 14.808 21.933 12.783 21.831C11.137 21.746 9.548 21.19 8.216 20.232C6.872 19.273 5.83 17.952 5.211 16.422C5.126 16.215 5.121 15.985 5.196 15.775C5.271 15.565 5.421 15.391 5.617 15.285C5.747 15.215 5.893 15.179 6.04 15.179L22.128 15.179C22.642 15.181 23.152 15.081 23.628 14.886C24.104 14.69 24.536 14.402 24.9 14.039C25.265 13.676 25.555 13.244 25.752 12.768C25.95 12.293 26.052 11.783 26.053 11.269C26.021 10.164 25.777 9.074 25.337 8.061L25.322 8.057ZM13.186 4.603C14.908 4.603 16.591 5.121 18.016 6.088C19.442 7.056 20.545 8.43 21.181 10.032C21.235 10.169 21.255 10.316 21.24 10.462C21.224 10.608 21.173 10.748 21.09 10.87C21.008 10.991 20.898 11.091 20.768 11.16C20.639 11.229 20.494 11.266 20.348 11.266L6.023 11.266C5.876 11.267 5.732 11.23 5.603 11.16C5.473 11.09 5.362 10.99 5.28 10.87C5.197 10.75 5.146 10.609 5.131 10.462C5.115 10.316 5.136 10.169 5.189 10.032C5.826 8.43 6.929 7.056 8.355 6.088C9.78 5.132 11.464 4.603 13.186 4.603ZM50.814 21.839C49.163 21.839 47.546 21.364 46.158 20.47C44.77 19.575 43.667 18.3 42.971 16.794C42.287 15.29 42.049 13.62 42.286 11.984C42.524 10.348 43.226 8.815 44.31 7.567L40.804 4.574C39.67 5.892 38.807 7.422 38.266 9.075C37.723 10.728 37.512 12.472 37.644 14.207C37.776 15.941 38.25 17.634 39.025 19.186C39.811 20.737 40.896 22.117 42.217 23.249C43.538 24.38 45.068 25.238 46.721 25.777C48.374 26.315 50.116 26.521 51.849 26.382C53.58 26.244 55.269 25.764 56.816 24.969C58.363 24.176 59.738 23.085 60.862 21.758L57.356 18.767C56.55 19.73 55.542 20.503 54.403 21.034C53.265 21.565 52.026 21.839 50.77 21.838L50.814 21.839Z" fill="rgb(90,100,110)" fill-opacity="1.000" fill-rule="nonzero" transform="matrix(1 0 0 1 49.4812 20.5585)"/><path d="M9.987 0C8.091 -0.002 6.216 0.406 4.495 1.195C2.771 1.985 1.238 3.138 0 4.575L3.495 7.567C4.984 5.85 7.091 4.792 9.355 4.625C11.62 4.458 13.859 5.191 15.585 6.67C17.311 8.149 18.383 10.25 18.57 12.515C18.755 14.781 18.038 17.029 16.575 18.769L20.07 21.76C21.695 19.835 22.74 17.486 23.076 14.987C23.413 12.489 23.029 9.946 21.969 7.659C20.911 5.372 19.22 3.436 17.097 2.079C14.969 0.731 12.505 0 9.987 0Z" fill="rgb(0,174,239)" fill-opacity="1.000" fill-rule="nonzero" transform="matrix(1 0 0 1 90.3074 20.549)"/><path d="M21.324 20.176C20.924 19.83 20.419 19.63 19.89 19.611C19.361 19.592 18.843 19.755 18.421 20.071C17.146 21.046 15.625 21.645 14.028 21.801C12.432 21.956 10.823 21.662 9.386 20.951C7.949 20.239 6.737 19.141 5.888 17.778C5.04 16.414 4.589 14.841 4.586 13.235C4.584 11.629 5.029 10.054 5.873 8.688C6.716 7.323 7.924 6.22 9.361 5.505C10.797 4.79 12.404 4.49 14 4.64C15.597 4.79 17.12 5.383 18.398 6.355C18.817 6.678 19.333 6.847 19.861 6.834C20.389 6.821 20.897 6.628 21.299 6.285C21.559 6.062 21.767 5.786 21.905 5.475C22.043 5.164 22.113 4.824 22.107 4.482C22.1 4.14 22.015 3.804 21.862 3.499C21.709 3.194 21.488 2.925 21.22 2.717C19.263 1.219 16.925 0.299 14.472 0.062C12.018 -0.176 9.55 0.278 7.341 1.373C5.133 2.469 3.276 4.164 1.978 6.261C0.68 8.358 -0.005 10.779 0 13.245C0.005 15.712 0.698 18.129 2.002 20.222C3.307 22.315 5.17 24 7.382 25.087C9.593 26.174 12.066 26.621 14.517 26.376C16.969 26.13 19.303 25.202 21.255 23.698C21.52 23.49 21.736 23.225 21.886 22.924C22.036 22.622 22.118 22.291 22.125 21.953C22.131 21.617 22.063 21.282 21.925 20.975C21.786 20.667 21.581 20.395 21.325 20.176L21.324 20.176Z" fill="rgb(90,100,110)" fill-opacity="1.000" fill-rule="nonzero" transform="matrix(1 0 0 1 15.7717 20.5553)"/></svg>