<svg xmlns="http://www.w3.org/2000/svg" viewBox="0 0 60 60" width="60" height="60"><path d="M0 0L60 0L60 60L0 60L0 0Z" fill="rgb(255,255,255)" fill-opacity="1.000" fill-rule="nonzero" transform="matrix(1 0 0 1 0 0)"/><path d="M0 8.545C0 3.74 3.938 0 9.07 0C12.04 0 14.751 1.322 16.301 3.321L14.074 5.546C13.483 4.791 12.729 4.178 11.868 3.753C11.008 3.329 10.062 3.104 9.103 3.095C6.036 3.095 3.583 5.385 3.583 8.545C3.583 11.737 6.036 14.027 9.103 14.027C10.097 14.025 11.077 13.795 11.967 13.353C12.858 12.911 13.634 12.27 14.235 11.479L16.43 13.64C14.945 15.735 12.105 17.122 9.07 17.122C3.938 17.122 0 13.382 0 8.545Z" fill="rgb(37,91,227)" fill-opacity="1.000" fill-rule="nonzero" transform="matrix(1 0 0 1 7 26.5766)"/><path d="M0 0L3.518 0L3.518 15.961L0 15.961L0 0Z" fill="rgb(37,91,227)" fill-opacity="1.000" fill-rule="nonzero" transform="matrix(1 0 0 1 26.3354 27.1568)"/><path d="M3.841 16.703L3.841 7.997L0 7.997L0 5.03L4.003 5.03L4.003 1.612L7.295 0L7.295 5.03L12.524 5.03L12.524 7.997L7.295 7.997L7.295 16.122C7.295 17.735 8.199 18.444 9.91 18.444C10.8 18.449 11.681 18.262 12.492 17.896L12.492 20.927C11.475 21.372 10.374 21.593 9.264 21.572C6.133 21.572 3.841 19.863 3.841 16.703Z" fill="rgb(37,91,227)" fill-opacity="1.000" fill-rule="nonzero" transform="matrix(1 0 0 1 32.5648 22.1272)"/><path d="M0 0L3.518 0L3.518 15.961L0 15.961L0 0Z" fill="rgb(37,91,227)" fill-opacity="1.000" fill-rule="nonzero" transform="matrix(1 0 0 1 47.8651 27.1568)"/><path d="M14.751 0C17.641 -0.007 20.49 0.681 23.057 2.005C25.625 3.33 27.836 5.252 29.503 7.61L25.404 7.61C24.06 6.118 22.417 4.925 20.582 4.108C18.747 3.292 16.76 2.87 14.751 2.87C12.743 2.87 10.756 3.292 8.921 4.108C7.086 4.925 5.443 6.118 4.099 7.61L0 7.61C1.667 5.252 3.878 3.33 6.445 2.005C9.013 0.681 11.862 -0.007 14.751 0Z" fill="rgb(255,60,40)" fill-opacity="1.000" fill-rule="nonzero" transform="matrix(1 0 0 1 24.0758 17)"/></svg>