<svg xmlns="http://www.w3.org/2000/svg" viewBox="0 0 130 60" width="130" height="60"><path d="M0 0L130 0L130 60L0 60L0 0Z" fill="rgb(255,255,255)" fill-opacity="1.000" fill-rule="nonzero" transform="matrix(1 0 0 1 0 0)"/><path d="M35.278 4.794L41.2 0.69C41.501 0.481 41.354 0.01 40.989 0.01L38.242 0.01C38.009 0.01 37.781 0.08 37.588 0.213L34.108 2.605L32.722 0.523C32.509 0.202 32.151 0.009 31.766 0.007L30.13 0C29.831 -0.001 29.653 0.331 29.818 0.58L32.591 4.746L30.319 9.719C30.295 9.771 30.333 9.831 30.392 9.831L32.217 9.833C32.669 9.833 33.08 9.569 33.267 9.158L35.278 4.794ZM18.503 0.014L28.211 0.014C28.483 0.014 28.663 0.295 28.55 0.542L24.617 9.152C24.429 9.563 24.02 9.827 23.567 9.827L15.079 9.827C14.237 9.827 13.679 8.956 14.029 8.19L15.78 4.355C15.969 3.944 16.379 3.68 16.83 3.68L24.014 3.68C24.264 3.68 24.492 3.533 24.596 3.305L24.739 2.993C24.852 2.746 24.672 2.465 24.4 2.465L17.22 2.465C16.949 2.465 16.768 2.184 16.882 1.937L17.453 0.689C17.641 0.277 18.051 0.014 18.503 0.014ZM22.908 7.003L23.065 6.659C23.177 6.412 22.997 6.131 22.726 6.131L17.899 6.131C17.754 6.131 17.622 6.216 17.561 6.349L17.333 6.848C17.22 7.096 17.4 7.377 17.673 7.377L22.327 7.377C22.577 7.377 22.804 7.23 22.908 7.003ZM14.335 0.016L5.216 0.016C4.737 0.016 4.302 0.295 4.103 0.731L0.007 9.722C-0.017 9.775 0.022 9.835 0.08 9.835L1.895 9.835C2.347 9.835 2.757 9.571 2.945 9.16L3.84 7.2C3.89 7.09 4 7.019 4.121 7.019L9 7.019C10.98 7.019 12.777 5.863 13.601 4.06L14.998 1.057C15.223 0.572 14.87 0.016 14.335 0.016ZM11.214 3.392L11.396 2.995C11.508 2.748 11.327 2.467 11.057 2.467L6.242 2.467C6.096 2.467 5.964 2.552 5.903 2.685L5.094 4.455C5.07 4.508 5.108 4.568 5.166 4.568L9.385 4.568C10.172 4.568 10.887 4.109 11.214 3.392Z" fill="rgb(30,25,26)" fill-opacity="1.000" fill-rule="evenodd" transform="matrix(1 0 0 1 73.6557 30.1623)"/><path d="M41.498 6.985L43.905 6.985L43.905 0L41.498 0L41.498 6.985ZM56.774 12.282L56.774 12.992L56.774 12.998L56.774 14.695L49.653 14.695L49.653 12.282L56.774 12.282ZM54.962 3.065L48.461 9.582L46.753 7.867L53.253 1.353L54.962 3.065ZM38.443 10.829C39.529 9.713 40.85 9.166 42.378 9.166C43.905 9.166 45.251 9.713 46.363 10.829C47.452 11.945 47.994 13.293 47.994 14.851C47.994 16.408 47.452 17.757 46.363 18.848C45.251 19.966 43.905 20.535 42.378 20.535C40.85 20.535 39.529 19.966 38.443 18.848C37.328 17.757 36.785 16.408 36.785 14.851C36.785 13.293 37.328 11.945 38.443 10.829ZM44.473 16.954C43.905 17.552 43.205 17.835 42.378 17.835C41.575 17.835 40.875 17.552 40.307 16.954C39.736 16.356 39.425 15.655 39.425 14.851C39.425 13.997 39.736 13.293 40.307 12.723C40.875 12.127 41.575 11.841 42.378 11.866C43.205 11.841 43.905 12.127 44.498 12.723C45.044 13.293 45.328 13.997 45.354 14.851C45.328 15.655 45.044 16.356 44.473 16.954ZM36.552 11.944L36.527 9.191L35.829 9.244L34.791 9.53C34.068 9.816 33.421 10.309 32.875 11.061L32.875 9.684L30.312 9.66L30.312 20.459L32.979 20.459L32.979 15.294C32.979 14.409 33.084 13.788 33.318 13.396C33.497 12.983 33.834 12.646 34.25 12.359C34.715 12.048 35.206 11.892 35.725 11.892L36.552 11.944ZM24.023 9.14C25.188 9.114 26.222 9.349 27.155 9.841C28.033 10.309 28.504 11.216 28.504 12.514L28.504 20.459L25.808 20.459L25.808 19.341C24.98 20.068 23.815 20.432 22.342 20.459C21.433 20.432 20.683 20.174 20.139 19.705C19.518 19.134 19.208 18.354 19.235 17.397C19.208 16.02 19.701 15.06 20.708 14.463C21.304 14.123 22.081 13.891 23.038 13.759L25.11 13.425C25.522 13.243 25.731 12.955 25.731 12.592C25.705 12.152 25.574 11.84 25.265 11.684C24.956 11.502 24.515 11.397 23.946 11.424C23.271 11.397 22.807 11.581 22.522 11.945C22.342 12.152 22.184 12.465 22.133 12.931L19.441 12.931C19.518 11.945 19.752 11.164 20.218 10.568C20.941 9.608 22.211 9.114 24.023 9.14ZM24.928 17.992C25.419 17.627 25.678 16.978 25.678 16.046L25.678 14.956L25.163 15.238L23.815 15.578C23.246 15.655 22.807 15.785 22.546 15.941C22.108 16.226 21.899 16.618 21.899 17.162C21.899 17.655 22.031 17.992 22.288 18.226C22.546 18.431 22.857 18.536 23.246 18.536C23.867 18.536 24.41 18.354 24.928 17.992ZM14.962 20.458L17.654 20.458L17.654 6.389L14.962 6.389L14.962 20.458ZM2.664 13.397C2.639 12.204 3.055 11.191 3.907 10.336C4.736 9.505 5.745 9.063 6.936 9.063C7.765 9.063 8.516 9.296 9.24 9.764C9.888 10.206 10.406 10.828 10.769 11.555L13.59 11.555C13.175 10.05 12.373 8.802 11.155 7.845C9.914 6.856 8.49 6.364 6.936 6.39C4.996 6.364 3.388 7.039 2.043 8.44C0.671 9.815 0 11.45 0 13.397C0 15.318 0.671 17.007 2.043 18.381C3.388 19.731 4.996 20.407 6.936 20.407C8.49 20.407 9.914 19.938 11.155 18.977C12.373 17.991 13.175 16.772 13.59 15.266L10.769 15.266C10.406 15.993 9.888 16.588 9.24 17.058C8.516 17.499 7.765 17.733 6.936 17.733C5.745 17.733 4.736 17.291 3.907 16.46C3.055 15.604 2.639 14.592 2.664 13.397Z" fill="rgb(180,30,19)" fill-opacity="1.000" fill-rule="evenodd" transform="matrix(1 0 0 1 13.9997 20)"/></svg>