<svg xmlns="http://www.w3.org/2000/svg" viewBox="0 0 60 60" width="60" height="60"><path d="M0 0L60 0L60 60L0 60L0 0Z" fill="rgb(180,30,19)" fill-opacity="1.000" fill-rule="nonzero" transform="matrix(1 0 0 1 0 0)"/><path d="M29.185 3.966L34.085 0.571C34.334 0.398 34.212 0.008 33.91 0.008L31.638 0.008C31.445 0.008 31.256 0.067 31.097 0.176L28.218 2.155L27.071 0.432C26.895 0.167 26.598 0.008 26.28 0.006L24.927 0C24.679 -0.001 24.532 0.274 24.669 0.48L26.962 3.926L25.083 8.04C25.063 8.084 25.095 8.134 25.143 8.134L26.653 8.135C27.027 8.135 27.367 7.917 27.522 7.576L29.185 3.966ZM15.307 0.012L23.339 0.012C23.564 0.012 23.713 0.244 23.619 0.449L20.366 7.571C20.21 7.912 19.872 8.13 19.497 8.13L12.475 8.13C11.778 8.13 11.317 7.409 11.606 6.776L13.055 3.603C13.211 3.263 13.551 3.045 13.924 3.045L19.867 3.045C20.074 3.045 20.262 2.923 20.348 2.734L20.467 2.476C20.56 2.272 20.411 2.039 20.186 2.039L14.246 2.039C14.022 2.039 13.872 1.807 13.966 1.602L14.439 0.57C14.594 0.23 14.933 0.012 15.307 0.012ZM18.952 5.793L19.082 5.509C19.175 5.305 19.025 5.072 18.802 5.072L14.808 5.072C14.688 5.072 14.579 5.142 14.529 5.253L14.339 5.666C14.246 5.87 14.395 6.103 14.621 6.103L18.471 6.103C18.678 6.103 18.866 5.982 18.952 5.793ZM11.859 0.013L4.315 0.013C3.919 0.013 3.559 0.244 3.394 0.605L0.006 8.043C-0.014 8.087 0.018 8.137 0.066 8.137L1.568 8.137C1.942 8.137 2.281 7.918 2.436 7.578L3.177 5.956C3.219 5.865 3.309 5.807 3.409 5.807L7.446 5.807C9.084 5.807 10.57 4.851 11.252 3.359L12.407 0.875C12.594 0.473 12.302 0.013 11.859 0.013ZM9.277 2.806L9.428 2.478C9.521 2.273 9.371 2.041 9.148 2.041L5.164 2.041C5.043 2.041 4.934 2.111 4.883 2.221L4.214 3.686C4.194 3.73 4.226 3.779 4.274 3.779L7.764 3.779C8.415 3.779 9.007 3.399 9.277 2.806Z" fill="rgb(255,255,255)" fill-opacity="1.000" fill-rule="evenodd" transform="matrix(1 0 0 1 19.2368 35.8633)"/><path d="M34.331 5.779L36.323 5.779L36.323 0L34.331 0L34.331 5.779ZM46.969 10.161L46.969 10.749L46.969 10.753L46.969 12.157L41.078 12.157L41.078 10.161L46.969 10.161ZM45.47 2.535L40.092 7.927L38.679 6.509L44.056 1.119L45.47 2.535ZM31.803 8.959C32.702 8.035 33.795 7.583 35.059 7.583C36.323 7.583 37.436 8.035 38.356 8.959C39.257 9.882 39.706 10.997 39.706 12.286C39.706 13.575 39.257 14.691 38.356 15.593C37.436 16.518 36.323 16.989 35.059 16.989C33.795 16.989 32.702 16.518 31.803 15.593C30.881 14.691 30.432 13.575 30.432 12.286C30.432 10.997 30.881 9.882 31.803 8.959ZM36.792 14.026C36.323 14.521 35.744 14.755 35.059 14.755C34.395 14.755 33.816 14.521 33.346 14.026C32.873 13.531 32.617 12.951 32.617 12.286C32.617 11.58 32.873 10.997 33.346 10.526C33.816 10.033 34.395 9.796 35.059 9.817C35.744 9.796 36.323 10.033 36.814 10.526C37.264 10.997 37.5 11.58 37.522 12.286C37.5 12.951 37.264 13.531 36.792 14.026ZM30.239 9.882L30.219 7.604L29.641 7.647L28.782 7.884C28.185 8.121 27.649 8.529 27.198 9.15L27.198 8.012L25.077 7.992L25.077 16.926L27.283 16.926L27.283 12.652C27.283 11.921 27.37 11.407 27.564 11.083C27.712 10.741 27.991 10.462 28.335 10.225C28.72 9.967 29.126 9.838 29.555 9.838L30.239 9.882ZM19.874 7.562C20.838 7.54 21.694 7.734 22.465 8.141C23.192 8.529 23.581 9.279 23.581 10.353L23.581 16.926L21.351 16.926L21.351 16.001C20.666 16.602 19.702 16.904 18.483 16.926C17.731 16.904 17.111 16.69 16.661 16.302C16.147 15.83 15.891 15.185 15.913 14.392C15.891 13.253 16.298 12.459 17.131 11.965C17.625 11.684 18.267 11.492 19.059 11.383L20.774 11.106C21.115 10.956 21.287 10.718 21.287 10.418C21.266 10.053 21.157 9.795 20.902 9.666C20.646 9.515 20.282 9.428 19.811 9.451C19.252 9.428 18.868 9.581 18.632 9.882C18.483 10.053 18.353 10.312 18.311 10.698L16.083 10.698C16.147 9.882 16.341 9.236 16.726 8.743C17.325 7.948 18.375 7.54 19.874 7.562ZM20.623 14.884C21.029 14.583 21.243 14.046 21.243 13.275L21.243 12.373L20.817 12.607L19.702 12.888C19.231 12.952 18.868 13.059 18.652 13.188C18.29 13.424 18.117 13.748 18.117 14.198C18.117 14.606 18.226 14.884 18.439 15.078C18.652 15.248 18.91 15.335 19.231 15.335C19.745 15.335 20.195 15.185 20.623 14.884ZM12.378 16.925L14.605 16.925L14.605 5.286L12.378 5.286L12.378 16.925ZM2.204 11.083C2.184 10.097 2.527 9.258 3.232 8.551C3.918 7.863 4.753 7.498 5.738 7.498C6.424 7.498 7.045 7.691 7.645 8.077C8.181 8.443 8.608 8.958 8.909 9.559L11.243 9.559C10.9 8.314 10.236 7.282 9.229 6.49C8.202 5.672 7.024 5.265 5.738 5.286C4.133 5.265 2.803 5.823 1.69 6.982C0.555 8.12 0 9.473 0 11.083C0 12.672 0.555 14.07 1.69 15.207C2.803 16.323 4.133 16.883 5.738 16.883C7.024 16.883 8.202 16.495 9.229 15.7C10.236 14.884 10.9 13.876 11.243 12.629L8.909 12.629C8.608 13.231 8.181 13.723 7.645 14.112C7.045 14.477 6.424 14.67 5.738 14.67C4.753 14.67 3.918 14.305 3.232 13.617C2.527 12.909 2.184 12.072 2.204 11.083Z" fill="rgb(255,255,255)" fill-opacity="1.000" fill-rule="evenodd" transform="matrix(1 0 0 1 6 16.8354)"/></svg>