<svg xmlns="http://www.w3.org/2000/svg" viewBox="0 0 130 60" width="130" height="60"><path d="M0 0L130 0L130 60L0 60L0 0Z" fill="rgb(255,255,255)" fill-opacity="1.000" fill-rule="nonzero" transform="matrix(1 0 0 1 0 0)"/><path d="M11.684 17.957C11.684 18.311 11.399 18.598 11.046 18.598C10.694 18.598 10.408 18.311 10.408 17.957C10.408 14.474 7.582 11.64 4.11 11.64C3.757 11.64 3.471 11.354 3.471 11C3.471 10.646 3.757 10.36 4.11 10.36C7.582 10.36 10.408 7.526 10.408 4.043C10.408 3.689 10.694 3.402 11.046 3.402C11.399 3.402 11.684 3.689 11.684 4.043C11.684 7.526 14.509 10.36 17.982 10.36L21.913 10.36C21.581 4.591 16.799 0 10.967 0C4.92 0 0 4.935 0 11C0 17.066 4.92 22 10.967 22C16.799 22 21.581 17.409 21.913 11.64L17.982 11.64C14.509 11.64 11.684 14.474 11.684 17.957Z" fill="rgb(0,0,0)" fill-opacity="1.000" fill-rule="evenodd" transform="matrix(1 0 0 1 9 19)"/><path d="M10.48 3.846C10.48 2.846 10.199 2.115 9.636 1.653C9.074 1.192 8.273 0.961 7.233 0.961L6.394 0.961L6.394 7.238L7.201 7.238C8.241 7.238 9.048 6.967 9.621 6.425C10.194 5.882 10.48 5.023 10.48 3.846ZM17.815 14.996L12.117 14.996C11.999 14.996 11.888 14.935 11.823 14.836C10.873 13.389 10.079 12.23 9.441 11.36C8.78 10.459 7.958 9.416 6.976 8.232L6.393 8.232L6.393 12.787C6.393 13.04 6.441 13.256 6.537 13.432C6.632 13.608 6.814 13.756 7.083 13.876C7.218 13.932 7.428 13.99 7.715 14.05L8.174 14.146C8.336 14.18 8.453 14.322 8.453 14.487L8.453 14.996L0 14.996L0 14.504C0 14.317 0.141 14.159 0.328 14.137L1.23 14.082C1.567 14.043 1.805 13.995 1.947 13.939C2.215 13.826 2.396 13.684 2.488 13.511C2.58 13.338 2.626 13.118 2.626 12.85L2.626 2.272C2.626 2.018 2.587 1.807 2.509 1.638C2.431 1.469 2.243 1.321 1.947 1.194C1.72 1.103 1.453 1.025 1.145 0.962L0.698 0.869C0.535 0.836 0.418 0.693 0.418 0.528L0.418 0L8.867 0C10.755 0 12.19 0.294 13.17 0.882C14.15 1.471 14.64 2.36 14.64 3.551C14.64 4.601 14.337 5.444 13.733 6.082C13.128 6.719 12.206 7.218 10.968 7.577C11.449 8.197 12.009 8.916 12.65 9.733C13.29 10.55 13.957 11.385 14.65 12.237C14.87 12.512 15.169 12.849 15.548 13.246C15.926 13.645 16.379 13.889 16.669 13.981C16.831 14.03 17.145 14.073 17.396 14.108L17.497 14.122C17.68 14.148 17.815 14.304 17.815 14.487L17.815 14.996Z" fill="rgb(0,0,0)" fill-opacity="1.000" fill-rule="evenodd" transform="matrix(1 0 0 1 86.4641 22.3283)"/><path d="M14.491 11.471C13.804 12.559 13.042 13.371 12.207 13.908C11.371 14.445 10.596 14.834 9.528 14.834C8.795 14.834 8.178 14.694 7.575 14.443C6.972 14.191 6.396 13.748 5.952 13.211C5.599 12.785 5.356 12.286 5.152 11.775C4.941 11.246 4.813 10.681 4.482 10.208C4.186 9.783 3.796 9.419 3.344 9.155C3.072 8.996 2.777 8.874 2.47 8.798C2.188 8.728 1.891 8.706 1.588 8.705C1.398 8.704 1.22 8.598 1.171 8.429C1.096 8.172 1.304 7.941 1.569 7.941C1.581 7.941 1.593 7.941 1.605 7.941C2.414 7.934 3.203 7.62 3.823 7.107C5.052 6.09 4.904 4.437 5.688 3.175C6.307 2.18 7.527 1.418 8.962 1.418C10.114 1.418 11.091 1.811 11.892 2.597C12.656 3.346 13.315 4.499 13.87 6.056C13.921 6.197 14.055 6.293 14.207 6.293L14.962 6.293L14.962 0.804L13.991 0.804C13.907 0.804 13.826 0.833 13.762 0.885L13.055 1.51C12.807 1.381 12.025 0.787 10.851 0.405C9.485 -0.038 8.173 -0.08 6.988 0.1C4.86 0.422 2.614 1.812 1.408 3.67C0.471 5.112 0 6.541 0 8.475C0 11.547 1.836 13.574 2.497 14.192C3.133 14.788 4.321 15.661 5.361 16.019C6.4 16.376 7.407 16.534 8.599 16.534C9.593 16.534 10.46 16.272 11.176 16.012C13.867 15.037 15.105 12.926 15.408 12.437C15.511 12.271 15.461 12.055 15.292 11.953L14.491 11.471Z" fill="rgb(0,0,0)" fill-opacity="1.000" fill-rule="evenodd" transform="matrix(1 0 0 1 39.9597 21.6077)"/><path d="M13.248 11.29C13.367 10.852 13.444 10.558 13.444 10.558C13.456 10.357 13.297 10.187 13.096 10.187L12.356 10.187C12.13 10.73 11.262 12.881 10.916 13.249C10.584 13.6 10.114 13.719 9.661 13.818C9.095 13.942 8.531 14.037 7.949 14.033C7.452 14.029 6.843 14.009 6.421 13.717C6.238 13.59 6.115 13.393 6.051 13.125C5.988 12.858 5.956 12.491 5.956 12.026L5.956 2.166C5.956 1.92 6.002 1.7 6.093 1.506C6.185 1.312 6.368 1.17 6.643 1.078C6.869 1.008 7.135 0.953 7.442 0.914L7.935 0.852C8.11 0.83 8.241 0.682 8.241 0.506L8.241 0L0 0L0 0.526C0 0.693 0.119 0.836 0.283 0.868L0.735 0.956C1.042 1.016 1.305 1.096 1.524 1.194C1.82 1.328 2.007 1.478 2.084 1.643C2.162 1.809 2.201 2.019 2.201 2.272L2.201 12.851C2.201 13.125 2.151 13.351 2.052 13.527C1.954 13.703 1.777 13.841 1.524 13.939C1.418 13.981 1.199 14.025 0.868 14.071C0.666 14.099 0.48 14.122 0.31 14.141C0.132 14.161 0 14.309 0 14.487L0 14.996L8.877 14.996L9.772 14.996L11.991 14.996L13.248 11.29Z" fill="rgb(0,0,0)" fill-opacity="1.000" fill-rule="evenodd" transform="matrix(1 0 0 1 55.8172 22.3283)"/><path d="M5.412 9.014L7.553 3.668L9.725 9.014L5.412 9.014ZM17.18 14.138L16.905 14.079C16.643 14.023 16.414 13.94 16.217 13.828C15.956 13.676 15.755 13.514 15.614 13.344C15.473 13.174 15.357 12.984 15.265 12.776C14.715 11.498 14.049 9.886 13.266 7.941C12.714 6.571 11.075 2.577 10.359 0.832C10.501 0.787 10.604 0.659 10.604 0.506L10.604 0L9.628 0L8.728 0L7.902 0C6.908 2.362 6 4.523 5.178 6.482C4.357 8.441 3.537 10.397 2.719 12.349C2.585 12.682 2.417 12.971 2.216 13.214C2.015 13.457 1.77 13.662 1.481 13.828C1.312 13.933 1.081 14.015 0.788 14.073L0.281 14.175C0.117 14.208 0 14.351 0 14.517L0 14.996L6.157 14.996L6.156 14.499C6.156 14.322 6.022 14.172 5.846 14.152C5.211 14.082 4.745 13.979 4.45 13.844C4.108 13.688 3.937 13.499 3.937 13.276C3.937 13.207 3.949 13.085 3.974 12.911C3.999 12.738 4.078 12.456 4.211 12.067C4.316 11.769 4.441 11.428 4.584 11.046C4.728 10.664 4.86 10.331 4.979 10.046L10.161 10.046L11.442 13.11C11.491 13.228 11.521 13.321 11.531 13.391C11.542 13.46 11.548 13.523 11.548 13.578C11.548 13.739 11.291 13.872 10.777 13.98C10.395 14.06 10.05 14.118 9.741 14.154C9.566 14.174 9.436 14.323 9.436 14.499L9.436 14.996L17.456 14.996L17.456 14.479C17.456 14.314 17.341 14.172 17.18 14.138Z" fill="rgb(0,0,0)" fill-opacity="1.000" fill-rule="evenodd" transform="matrix(1 0 0 1 69.1871 22.3269)"/><path d="M5.413 9.014L7.553 3.668L9.725 9.014L5.413 9.014ZM17.18 14.138L16.905 14.079C16.643 14.023 16.414 13.94 16.217 13.828C15.956 13.676 15.755 13.514 15.614 13.344C15.473 13.174 15.357 12.984 15.265 12.776C14.715 11.498 14.049 9.886 13.266 7.941C12.714 6.571 11.076 2.577 10.36 0.832C10.501 0.787 10.604 0.659 10.604 0.506L10.604 0L9.628 0L8.728 0L7.902 0C6.907 2.362 6 4.523 5.178 6.482C4.356 8.441 3.537 10.397 2.719 12.349C2.585 12.682 2.417 12.971 2.216 13.214C2.015 13.457 1.77 13.662 1.481 13.828C1.312 13.933 1.081 14.015 0.788 14.073L0.281 14.175C0.117 14.208 0 14.351 0 14.517L0 14.996L6.157 14.996L6.157 14.499C6.157 14.322 6.022 14.172 5.846 14.152C5.211 14.082 4.745 13.979 4.45 13.844C4.108 13.688 3.938 13.499 3.938 13.276C3.938 13.207 3.949 13.085 3.974 12.911C3.999 12.738 4.078 12.456 4.211 12.067C4.316 11.769 4.441 11.428 4.585 11.046C4.728 10.664 4.859 10.331 4.979 10.046L10.161 10.046L11.442 13.11C11.491 13.228 11.521 13.321 11.532 13.391C11.542 13.46 11.548 13.523 11.548 13.578C11.548 13.739 11.291 13.872 10.777 13.98C10.395 14.06 10.05 14.118 9.741 14.154C9.566 14.174 9.436 14.323 9.436 14.499L9.436 14.996L17.456 14.996L17.456 14.479C17.456 14.314 17.341 14.172 17.18 14.138Z" fill="rgb(0,0,0)" fill-opacity="1.000" fill-rule="evenodd" transform="matrix(1 0 0 1 103.966 22.3269)"/></svg>