<svg xmlns="http://www.w3.org/2000/svg" viewBox="0 0 60 60" width="60" height="60"><path d="M0 0L60 0L60 60L0 60L0 0Z" fill="rgb(255,255,255)" fill-opacity="1.000" fill-rule="nonzero" transform="matrix(1 0 0 1 0 0)"/><path d="M19.196 29.384C19.196 29.964 18.726 30.433 18.147 30.433C17.568 30.433 17.098 29.964 17.098 29.384C17.098 23.685 12.456 19.048 6.751 19.048C6.173 19.048 5.703 18.579 5.703 18C5.703 17.421 6.173 16.952 6.751 16.952C12.456 16.952 17.098 12.315 17.098 6.615C17.098 6.037 17.568 5.567 18.147 5.567C18.726 5.567 19.196 6.037 19.196 6.615C19.196 12.315 23.837 16.952 29.541 16.952L36 16.952C35.455 7.513 27.598 0 18.017 0C8.082 0 0 8.075 0 18C0 27.925 8.082 36 18.017 36C27.598 36 35.455 28.487 36 19.048L29.541 19.048C23.837 19.048 19.196 23.685 19.196 29.384Z" fill="rgb(0,0,0)" fill-opacity="1.000" fill-rule="evenodd" transform="matrix(1 0 0 1 12 12)"/></svg>