<svg xmlns="http://www.w3.org/2000/svg" viewBox="0 0 60 60" width="60" height="60"><path d="M0 0L60 0L60 60L0 60L0 0Z" fill="rgb(255,255,255)" fill-opacity="1.000" fill-rule="nonzero" transform="matrix(1 0 0 1 0 0)"/><path d="M15.82 0.003L13.136 12.7L10.268 15.06L7.583 27.615L12.3 27.615L18.18 0.003L15.82 0.003ZM23.405 0.003L22.316 5.046L19.484 7.403L15.13 27.615L17.49 27.615L18.578 22.572L21.444 20.213L25.763 0.001L23.405 0.003ZM8.273 0.001L3.919 20.357L1.053 22.752L0 27.615L4.717 27.615L10.631 0L8.274 0L8.273 0.001ZM36.178 0.003L30.299 27.615L32.622 27.615L36.976 7.26L39.842 4.901L40.895 0.003L36.178 0.003ZM33.311 0.003L28.593 0.003L22.715 27.615L25.074 27.615L27.797 14.915L30.662 12.558L33.311 0.003Z" fill="rgb(5,0,245)" fill-opacity="1.000" fill-rule="nonzero" transform="matrix(1 0 0 1 9.6466 16.385)"/></svg>