<svg xmlns="http://www.w3.org/2000/svg" viewBox="0 0 130 60" width="130" height="60"><path d="M0 0L130 0L130 60L0 60L0 0Z" fill="rgb(255,255,255)" fill-opacity="1.000" fill-rule="nonzero" transform="matrix(1 0 0 1 0 0)"/><path d="M107.705 3.402C105.375 3.402 103.42 4.607 102.482 6.08L102.161 6.08L100.714 3.482L99.214 3.482L99.214 20.436L102.536 20.436L102.536 12.214C102.536 9 104.545 7.098 107.973 7.098L108.75 7.098L108.75 3.482C108.404 3.429 108.055 3.402 107.705 3.402ZM92.545 6.08L92.223 6.08C90.991 4.42 88.634 3.16 86.33 3.16C81.67 3.16 77.652 7.018 77.652 11.973C77.652 16.767 81.509 20.785 86.33 20.785C88.795 20.785 90.991 19.553 92.143 17.625L92.143 20.437L95.464 20.437L95.464 3.482L93.964 3.482L92.545 6.08ZM86.545 17.544C85.813 17.547 85.087 17.405 84.41 17.126C83.732 16.847 83.117 16.437 82.599 15.919C82.081 15.401 81.671 14.786 81.392 14.108C81.113 13.431 80.97 12.705 80.973 11.973C80.972 11.241 81.116 10.516 81.396 9.84C81.676 9.164 82.086 8.55 82.604 8.032C83.121 7.515 83.736 7.104 84.412 6.825C85.088 6.545 85.813 6.401 86.545 6.402C87.279 6.399 88.006 6.54 88.685 6.819C89.364 7.097 89.981 7.507 90.501 8.024C91.021 8.542 91.434 9.157 91.715 9.834C91.997 10.512 92.143 11.238 92.143 11.972C92.145 12.707 92.001 13.434 91.72 14.113C91.439 14.791 91.027 15.407 90.506 15.926C89.986 16.444 89.368 16.854 88.688 17.131C88.008 17.409 87.279 17.549 86.545 17.544ZM66.482 3.16C61.607 3.16 57.857 7.125 57.857 11.946C57.857 16.928 61.687 20.785 66.777 20.785C69.723 20.785 72.214 19.525 74.197 17.008L71.57 15C70.472 16.5 68.704 17.518 66.776 17.518C64.204 17.518 61.82 15.697 61.365 13.179L74.945 13.179L74.945 11.947C74.918 6.938 71.275 3.162 66.481 3.162L66.482 3.16ZM61.392 10.285C61.955 7.795 64.178 6.321 66.509 6.321C68.893 6.321 70.794 7.821 71.303 10.285L61.393 10.285L61.392 10.285ZM42.134 17.49C41.407 17.494 40.687 17.354 40.014 17.078C39.341 16.803 38.73 16.397 38.215 15.884C37.7 15.372 37.291 14.762 37.012 14.091C36.733 13.42 36.59 12.7 36.59 11.973C36.59 8.919 38.947 6.455 42.134 6.455C43.661 6.455 44.84 7.098 45.804 7.955L48.322 5.678C46.822 4.152 44.625 3.161 42.161 3.161C37.366 3.161 33.268 7.125 33.268 11.973C33.268 16.874 37.259 20.785 42.161 20.785C45.429 20.785 47.92 19.285 49.473 16.821L46.688 15.08C45.616 16.5 44.143 17.49 42.134 17.49ZM51.563 2.678L51.563 20.437L54.883 20.437L54.883 0L54.483 0L51.563 2.678ZM11.678 0.027L9.697 9.4L7.58 11.142L5.598 20.41L9.08 20.41L13.42 0.027L11.678 0.027ZM17.277 0.027L16.473 3.75L14.383 5.49L11.169 20.41L12.911 20.41L13.714 16.687L15.83 14.946L19.018 0.026L17.277 0.027ZM6.107 0.026L2.893 15.052L0.777 16.82L0 20.41L3.482 20.41L7.848 0.025L6.108 0.025L6.107 0.026ZM26.706 0.027L22.366 20.41L24.081 20.41L27.295 5.384L29.411 3.643L30.188 0.027L26.706 0.027ZM24.59 0.027L21.107 0.027L16.768 20.41L18.509 20.41L20.519 11.035L22.634 9.295L24.59 0.027ZM40.5 31.793C39.991 32.436 39.188 32.757 38.197 32.757C36.429 32.757 35.223 31.525 35.223 29.677C35.223 27.856 36.429 26.624 38.197 26.624C39.375 26.624 40.017 27.186 40.367 27.641L40.393 27.695L40.741 27.695L40.607 25.927L40.554 25.9C39.964 25.445 39.054 25.177 38.116 25.177C35.491 25.177 33.589 27.079 33.589 29.704C33.589 32.329 35.491 34.257 38.116 34.257C39.134 34.257 40.098 33.963 40.688 33.507L40.714 33.48L40.875 31.793L40.5 31.793ZM46.178 25.15C43.527 25.15 41.705 26.999 41.705 29.677C41.705 32.302 43.58 34.23 46.178 34.23C48.777 34.23 50.678 32.329 50.678 29.677C50.678 27.026 48.83 25.15 46.178 25.15ZM49.071 29.677C49.071 31.525 47.919 32.757 46.205 32.757C44.491 32.757 43.339 31.525 43.339 29.677C43.339 27.856 44.491 26.624 46.205 26.624C47.919 26.624 49.071 27.829 49.071 29.677ZM57.08 25.231C56.973 25.177 56.812 25.151 56.598 25.151C56.04 25.148 55.491 25.293 55.006 25.57C54.522 25.847 54.119 26.248 53.839 26.731L53.464 25.258L52.42 25.258L52.42 34.097L54.028 34.097L54.028 29.302C54.028 27.749 54.992 26.704 56.411 26.704C56.679 26.704 56.947 26.731 57.135 26.784L57.295 26.838L57.162 25.258L57.082 25.231L57.08 25.231ZM63.375 25.231C63.268 25.177 63.107 25.151 62.893 25.151C62.335 25.148 61.786 25.293 61.301 25.57C60.817 25.847 60.414 26.248 60.134 26.731L59.759 25.258L58.714 25.258L58.714 34.097L60.322 34.097L60.322 29.302C60.322 27.749 61.286 26.704 62.705 26.704C62.973 26.704 63.241 26.731 63.429 26.784L63.589 26.838L63.455 25.258L63.375 25.231ZM68.277 25.15C65.813 25.15 63.964 27.106 63.964 29.704C63.964 32.409 65.839 34.23 68.625 34.23C69.83 34.23 71.063 33.856 71.759 33.293L71.786 33.266L72.054 31.633L71.705 31.633L71.679 31.659C70.982 32.356 69.857 32.757 68.705 32.757C66.938 32.757 65.839 31.874 65.598 30.267L72.295 30.267L72.295 30.159C72.321 29.919 72.321 29.731 72.321 29.517C72.321 26.918 70.688 25.15 68.277 25.15ZM68.25 26.624C69.67 26.624 70.634 27.534 70.741 28.954L65.625 28.954C65.866 27.534 66.911 26.624 68.25 26.624ZM78.107 32.597C77.947 32.731 77.652 32.811 77.304 32.811C76.366 32.811 75.911 32.329 75.911 31.311L75.911 26.651L78.375 26.651L78.375 25.285L75.937 25.285L75.937 23.49L72.75 26.33L72.75 26.65L74.33 26.65L74.33 31.445C74.33 33.185 75.375 34.23 77.09 34.23C77.491 34.23 78 34.15 78.241 33.99L78.295 33.963L78.455 32.597L78.107 32.597ZM83.679 25.15C81.027 25.15 79.206 26.999 79.206 29.677C79.206 32.302 81.081 34.23 83.679 34.23C86.277 34.23 88.179 32.329 88.179 29.677C88.179 27.026 86.331 25.15 83.679 25.15ZM86.545 29.677C86.545 31.525 85.393 32.757 83.679 32.757C81.964 32.757 80.813 31.525 80.813 29.677C80.813 27.856 81.964 26.624 83.679 26.624C85.419 26.624 86.545 27.829 86.545 29.677ZM94.554 25.231C94.4 25.172 94.236 25.144 94.072 25.151C93.513 25.148 92.964 25.292 92.479 25.57C91.995 25.847 91.592 26.248 91.312 26.731L90.938 25.258L89.893 25.258L89.893 34.097L91.5 34.097L91.5 29.302C91.5 27.749 92.465 26.704 93.884 26.704C94.152 26.704 94.42 26.731 94.607 26.784L94.768 26.838L94.634 25.258L94.554 25.231ZM98.84 25.15C97.714 25.15 96.616 25.499 96.08 25.847L96.027 25.874L95.813 27.427L96.161 27.427L96.188 27.401C96.884 26.865 97.688 26.624 98.732 26.624C100.179 26.624 100.956 27.267 100.956 28.472L100.956 28.927C100.411 28.803 99.854 28.74 99.295 28.74C96.75 28.74 95.331 29.758 95.331 31.606C95.331 33.159 96.563 34.257 98.331 34.257C99.509 34.257 100.554 33.695 101.143 32.704L101.518 34.15L102.536 34.15L102.536 28.392C102.536 26.356 101.143 25.151 98.839 25.151L98.84 25.15ZM99.268 30.079C99.804 30.079 100.366 30.159 100.929 30.293C100.929 31.82 99.991 32.784 98.599 32.784C97.554 32.784 96.884 32.275 96.884 31.499C96.884 30.561 97.688 30.079 99.268 30.079Z" fill="rgb(5,0,245)" fill-opacity="1.000" fill-rule="nonzero" transform="matrix(1 0 0 1 10.5 12.5)"/></svg>