<svg xmlns="http://www.w3.org/2000/svg" viewBox="0 0 60 60" width="60" height="60"><path d="M0 0L60 0L60 60L0 60L0 0Z" fill="rgb(255,255,255)" fill-opacity="1.000" fill-rule="nonzero" transform="matrix(1 0 0 1 0 0)"/><path d="M4.598 0C1.746 2.926 0 6.934 0 11.348C0 15.762 1.746 19.746 4.598 22.684C3.098 19.205 2.275 15.381 2.275 11.361C2.25 7.316 3.098 3.492 4.598 0Z" fill="rgb(71,56,255)" fill-opacity="1.000" fill-rule="nonzero" transform="matrix(1 0 0 1 13.4791 18.3822)"/><path d="M3.258 28.278C4.5 29.225 5.902 29.987 7.39 30.541C4.193 26.287 2.299 21 2.299 15.283C2.299 9.541 4.205 4.254 7.414 0C5.926 0.566 4.525 1.316 3.258 2.262C1.193 6.147 0 10.574 0 15.283C0.025 19.992 1.193 24.418 3.258 28.278Z" fill="rgb(71,56,255)" fill-opacity="1.000" fill-rule="nonzero" transform="matrix(1 0 0 1 16.6903 14.4494)"/><path d="M5.779 32.041C6.934 32.336 8.164 32.496 9.406 32.532C5.029 28.487 2.287 22.697 2.287 16.279C2.287 9.836 5.029 4.045 9.431 0C8.189 0.037 6.984 0.197 5.803 0.492C2.164 4.734 0 10.242 0 16.266C0 22.291 2.164 27.787 5.779 32.041Z" fill="rgb(71,56,255)" fill-opacity="1.000" fill-rule="nonzero" transform="matrix(1 0 0 1 19.9718 13.4775)"/><path d="M0 16.254C0 22.77 2.963 28.61 7.598 32.471C8.521 32.422 9.418 32.274 10.291 32.065C5.262 28.598 1.955 22.807 1.955 16.242C1.955 9.664 5.262 3.873 10.303 0.406C9.431 0.197 8.533 0.061 7.611 0C2.951 3.897 0 9.725 0 16.254Z" fill="rgb(71,56,255)" fill-opacity="1.000" fill-rule="nonzero" transform="matrix(1 0 0 1 23.2289 13.4897)"/><path d="M0 15.344C0 21.86 3.48 27.565 8.68 30.688C9.467 30.405 10.217 30.073 10.943 29.692C5.619 27.098 1.967 21.664 1.967 15.344C1.967 9.024 5.643 3.578 10.967 0.996C10.254 0.615 9.492 0.283 8.705 0C3.492 3.135 0 8.84 0 15.344Z" fill="rgb(71,56,255)" fill-opacity="1.000" fill-rule="nonzero" transform="matrix(1 0 0 1 26.4752 14.3997)"/><path d="M0 13.537C0 19.647 3.725 24.86 9.025 27.061C9.566 26.717 10.07 26.311 10.562 25.893C5.361 24.184 1.623 19.291 1.623 13.537C1.623 7.758 5.385 2.877 10.586 1.168C10.094 0.75 9.59 0.369 9.049 0C3.725 2.201 0 7.426 0 13.537Z" fill="rgb(71,56,255)" fill-opacity="1.000" fill-rule="nonzero" transform="matrix(1 0 0 1 29.7324 16.2065)"/><path d="M0 11.041C0 16.401 3.689 20.889 8.68 22.106C9.099 21.651 9.48 21.184 9.849 20.692C5.189 19.955 1.623 15.91 1.623 11.053C1.623 6.184 5.189 2.139 9.861 1.414C9.492 0.922 9.111 0.43 8.693 0C3.689 1.193 0 5.693 0 11.041Z" fill="rgb(71,56,255)" fill-opacity="1.000" fill-rule="nonzero" transform="matrix(1 0 0 1 32.9922 18.7034)"/><path d="M0 7.807C0 11.988 3.307 15.418 7.451 15.59C8.705 13.279 9.443 10.623 9.443 7.783C9.443 4.967 8.73 2.299 7.463 0C3.307 0.197 0 3.602 0 7.807Z" fill="rgb(71,56,255)" fill-opacity="1.000" fill-rule="nonzero" transform="matrix(1 0 0 1 36.5578 21.9359)"/></svg>