<svg xmlns="http://www.w3.org/2000/svg" viewBox="0 0 130 60" width="130" height="60"><path d="M0 0L130 0L130 60L0 60L0 0Z" fill="rgb(255,255,255)" fill-opacity="1.000" fill-rule="nonzero" transform="matrix(1 0 0 1 0 0)"/><path d="M0 0L2.033 0L2.033 9.933L0 9.933L0 0Z" fill="rgb(71,56,255)" fill-opacity="1.000" fill-rule="nonzero" transform="matrix(1 0 0 1 53.7996 23.6012)"/><path d="M0 3.915C0 1.642 1.704 0 4.03 0C6.365 0 8.06 1.642 8.06 3.915C8.06 6.187 6.365 7.829 4.03 7.829C1.696 7.829 0 6.187 0 3.915ZM4.03 5.938C5.166 5.938 6.001 5.095 6.001 3.932C6.001 2.769 5.166 1.926 4.03 1.926C2.894 1.926 2.059 2.769 2.059 3.932C2.059 5.077 2.894 5.938 4.03 5.938Z" fill="rgb(71,56,255)" fill-opacity="1.000" fill-rule="nonzero" transform="matrix(1 0 0 1 56.9079 25.8555)"/><path d="M0 4.358L0 0L2.033 0L2.033 4.119C2.033 5.202 2.539 5.796 3.444 5.796C4.509 5.796 5.184 5.131 5.184 4.074L5.184 0.009L7.217 0.009L7.217 7.527L5.299 7.527L5.246 6.64C4.669 7.305 3.844 7.66 2.867 7.66C1.065 7.669 0 6.507 0 4.358Z" fill="rgb(71,56,255)" fill-opacity="1.000" fill-rule="nonzero" transform="matrix(1 0 0 1 66.04 26.0066)"/><path d="M0 6.169C0 3.897 1.58 2.255 3.737 2.255C4.607 2.255 5.379 2.521 6.01 3.009L6.01 0L8.042 0L8.042 9.933L6.285 9.933L6.205 9.178C5.548 9.747 4.705 10.084 3.737 10.084C1.5 10.084 0 8.353 0 6.169ZM4.03 8.193C5.193 8.193 6.027 7.359 6.027 6.187C6.027 5.015 5.193 4.181 4.03 4.181C2.876 4.181 2.051 5.015 2.051 6.187C2.042 7.341 2.876 8.193 4.03 8.193Z" fill="rgb(71,56,255)" fill-opacity="1.000" fill-rule="nonzero" transform="matrix(1 0 0 1 74.4745 23.6012)"/><path d="M0 0.177L0 0.009L2.113 0.009L2.778 2.192L3.56 4.642L5.237 0.408L6.782 0.408L8.486 4.651L9.259 2.184L9.924 0L12.02 0L12.02 0.169L9.516 7.518L7.617 7.518L6.862 5.583L5.992 3.249L5.104 5.583L4.332 7.518L2.459 7.518L0 0.177Z" fill="rgb(71,56,255)" fill-opacity="1.000" fill-rule="nonzero" transform="matrix(1 0 0 1 83.4927 26.0066)"/><path d="M0 3.915C0 1.616 1.607 0 3.79 0C4.749 0 5.601 0.337 6.232 0.905L6.311 0.151L8.069 0.151L8.069 7.669L6.311 7.669L6.232 6.915C5.575 7.483 4.731 7.82 3.79 7.82C1.536 7.829 0 6.125 0 3.915ZM4.057 5.938C5.211 5.938 6.036 5.104 6.036 3.932C6.036 2.761 5.202 1.926 4.057 1.926C2.894 1.926 2.059 2.761 2.059 3.932C2.059 5.086 2.894 5.938 4.057 5.938Z" fill="rgb(71,56,255)" fill-opacity="1.000" fill-rule="nonzero" transform="matrix(1 0 0 1 95.6983 25.8555)"/><path d="M0 0L2.033 0L2.033 9.933L0 9.933L0 0Z" fill="rgb(71,56,255)" fill-opacity="1.000" fill-rule="nonzero" transform="matrix(1 0 0 1 105.5533 23.6012)"/><path d="M2.033 6.622L2.033 9.933L0 9.933L0 0L2.033 0L2.033 5.619L4.19 2.397L6.48 2.397L6.48 2.583L4.012 6.036L6.729 9.738L6.729 9.924L4.341 9.924L2.033 6.622Z" fill="rgb(71,56,255)" fill-opacity="1.000" fill-rule="nonzero" transform="matrix(1 0 0 1 109.2707 23.6012)"/><path d="M3.995 5.903C2.832 5.903 2.051 5.077 2.051 3.897C2.051 2.716 2.832 1.891 3.995 1.891C4.731 1.891 5.344 2.255 5.672 2.867L7.341 1.855C6.684 0.701 5.459 0 3.959 0C1.633 0 0 1.633 0 3.915C0 6.196 1.642 7.829 3.959 7.829C5.477 7.829 6.702 7.119 7.359 5.974L5.628 5.024C5.291 5.548 4.722 5.903 3.995 5.903Z" fill="rgb(71,56,255)" fill-opacity="1.000" fill-rule="nonzero" transform="matrix(1 0 0 1 45.5976 25.8915)"/><path d="M3.32 0C1.261 2.113 0 5.006 0 8.193C0 11.38 1.261 14.256 3.32 16.377C2.237 13.865 1.642 11.105 1.642 8.202C1.624 5.282 2.237 2.521 3.32 0Z" fill="rgb(71,56,255)" fill-opacity="1.000" fill-rule="nonzero" transform="matrix(1 0 0 1 12.1855 21.541)"/><path d="M2.352 20.416C3.249 21.1 4.261 21.65 5.335 22.05C3.027 18.978 1.66 15.161 1.66 11.034C1.66 6.888 3.036 3.071 5.353 0C4.279 0.408 3.267 0.95 2.352 1.633C0.861 4.438 0 7.634 0 11.034C0.018 14.433 0.861 17.629 2.352 20.416Z" fill="rgb(71,56,255)" fill-opacity="1.000" fill-rule="nonzero" transform="matrix(1 0 0 1 14.503 18.7016)"/><path d="M4.172 23.132C5.007 23.345 5.894 23.461 6.791 23.487C3.631 20.567 1.651 16.386 1.651 11.753C1.651 7.101 3.631 2.92 6.809 0C5.912 0.027 5.042 0.142 4.19 0.355C1.562 3.417 0 7.394 0 11.744C0 16.093 1.562 20.061 4.172 23.132Z" fill="rgb(71,56,255)" fill-opacity="1.000" fill-rule="nonzero" transform="matrix(1 0 0 1 16.8726 18)"/><path d="M0 11.735C0 16.439 2.139 20.656 5.486 23.443C6.152 23.408 6.8 23.301 7.43 23.15C3.799 20.647 1.411 16.466 1.411 11.726C1.411 6.977 3.799 2.796 7.439 0.293C6.809 0.142 6.161 0.044 5.495 0C2.13 2.814 0 7.021 0 11.735Z" fill="rgb(71,56,255)" fill-opacity="1.000" fill-rule="nonzero" transform="matrix(1 0 0 1 19.2248 18.0089)"/><path d="M0 11.078C0 15.783 2.512 19.901 6.267 22.156C6.835 21.952 7.377 21.712 7.9 21.437C4.057 19.564 1.42 15.641 1.42 11.078C1.42 6.515 4.074 2.583 7.918 0.719C7.403 0.444 6.853 0.204 6.285 0C2.521 2.264 0 6.382 0 11.078Z" fill="rgb(71,56,255)" fill-opacity="1.000" fill-rule="nonzero" transform="matrix(1 0 0 1 21.5691 18.6658)"/><path d="M0 9.773C0 14.185 2.69 17.949 6.516 19.537C6.906 19.289 7.27 18.996 7.625 18.694C3.87 17.46 1.172 13.927 1.172 9.773C1.172 5.601 3.888 2.077 7.643 0.843C7.288 0.541 6.924 0.266 6.533 0C2.69 1.589 0 5.361 0 9.773Z" fill="rgb(71,56,255)" fill-opacity="1.000" fill-rule="nonzero" transform="matrix(1 0 0 1 23.9198 19.9702)"/><path d="M0 7.971C0 11.841 2.663 15.081 6.267 15.96C6.569 15.632 6.844 15.294 7.11 14.939C3.746 14.407 1.172 11.486 1.172 7.98C1.172 4.465 3.746 1.545 7.119 1.021C6.853 0.666 6.578 0.311 6.276 0C2.663 0.861 0 4.11 0 7.971Z" fill="rgb(71,56,255)" fill-opacity="1.000" fill-rule="nonzero" transform="matrix(1 0 0 1 26.2736 21.7729)"/><path d="M0 5.637C0 8.655 2.388 11.131 5.379 11.256C6.285 9.587 6.817 7.669 6.817 5.619C6.817 3.586 6.303 1.66 5.388 0C2.388 0.142 0 2.601 0 5.637Z" fill="rgb(71,56,255)" fill-opacity="1.000" fill-rule="nonzero" transform="matrix(1 0 0 1 28.8473 24.1068)"/></svg>