<svg xmlns="http://www.w3.org/2000/svg" viewBox="0 0 60 60" width="60" height="60"><path d="M0 0L60 0L60 60L0 60L0 0Z" fill="rgb(35,31,32)" fill-opacity="1.000" fill-rule="nonzero" transform="matrix(1 0 0 1 0 0)"/><path d="M0 0L4.918 0L4.918 4.97L0 4.97L0 0Z" fill="rgb(163,36,40)" fill-opacity="1.000" fill-rule="nonzero" transform="matrix(1 0 0 -1 48.0823 20.9699)"/><path d="M12.883 3.273C12.7 3.436 12.475 3.563 12.21 3.654C11.943 3.744 11.64 3.789 11.3 3.789L9.835 3.789L9.835 0.069L11.278 0.069C11.619 0.069 11.924 0.116 12.193 0.21C12.463 0.304 12.69 0.434 12.874 0.601C13.059 0.767 13.2 0.965 13.298 1.193C13.396 1.421 13.444 1.67 13.444 1.939L13.444 1.95C13.444 2.219 13.396 2.467 13.301 2.691C13.205 2.917 13.065 3.11 12.883 3.273ZM12.369 1.923C12.369 1.622 12.273 1.391 12.081 1.227C11.888 1.065 11.634 0.983 11.318 0.983L10.888 0.983L10.888 2.875L11.318 2.875C11.634 2.875 11.888 2.793 12.081 2.628C12.273 2.463 12.369 2.232 12.369 1.934L12.369 1.923ZM15.263 10.282L8.075 10.282C7.395 10.282 6.764 10.541 6.298 11.009C5.823 11.483 5.565 12.216 5.565 12.888L5.565 13.365C5.565 14.026 5.821 14.648 6.288 15.116C6.756 15.585 7.377 15.844 8.038 15.844L15.263 15.844L15.263 20.799L9.262 20.799C6.728 20.782 0 20.604 0 13.059C0 5.515 6.756 5.474 9.298 5.457L15.263 5.455L15.263 10.282ZM0.919 0.069L1.977 0.069L1.977 3.789L0.919 3.789L0.919 0.069ZM6.622 1.823L5.056 3.789L4.071 3.789L4.071 0.069L5.107 0.069L5.107 2.11L6.734 0.069L7.659 0.069L7.659 3.789L6.622 3.789L6.622 1.823ZM17.546 1.695C17.546 1.433 17.483 1.24 17.357 1.116C17.232 0.992 17.063 0.93 16.851 0.93C16.639 0.93 16.47 0.994 16.345 1.124C16.219 1.253 16.156 1.453 16.156 1.722L16.156 3.789L15.081 3.789L15.081 1.701C15.081 1.41 15.122 1.158 15.204 0.943C15.285 0.729 15.402 0.552 15.554 0.412C15.705 0.272 15.89 0.168 16.107 0.101C16.325 0.034 16.569 0 16.84 0C17.111 0 17.356 0.034 17.576 0.101C17.794 0.168 17.981 0.272 18.135 0.412C18.289 0.552 18.408 0.731 18.493 0.949C18.578 1.167 18.621 1.426 18.621 1.727L18.621 3.789L17.546 3.789L17.546 1.695ZM44.13 3.789L43.077 3.789L43.077 0.069L45.97 0.069L45.97 0.972L44.13 0.972L44.13 3.789ZM39.36 3.816L37.742 0.069L38.849 0.069L39.12 0.733L40.586 0.733L40.863 0.069L41.993 0.069L40.374 3.816L39.36 3.816ZM39.43 1.53L39.859 2.588L40.282 1.53L39.43 1.53ZM35.247 0.069L36.305 0.069L36.305 3.789L35.247 3.789L35.247 0.069ZM41.082 20.787L41.082 15.665L34.525 15.665L34.525 20.799L29.607 20.799L29.607 11.951C28.801 13.007 24.236 18.436 23.782 18.969C23.328 19.502 22.619 20.205 21.963 20.463C21.309 20.722 20.517 20.799 19.813 20.799L16.504 20.799L16.504 5.455L21.41 5.455L21.41 14.08C22.257 13.1 27.28 7.435 27.28 7.435C28.037 6.505 29.069 5.937 29.67 5.731C30.366 5.491 30.827 5.455 31.561 5.455L34.525 5.455L34.525 10.839L41.082 10.839L41.082 5.455L45.974 5.455L45.974 20.787L41.082 20.787ZM23.246 1.995C23.123 2.083 22.974 2.158 22.799 2.22C22.623 2.282 22.427 2.336 22.21 2.382C22.079 2.41 21.972 2.438 21.886 2.464C21.802 2.491 21.734 2.517 21.686 2.544C21.637 2.57 21.602 2.599 21.582 2.631C21.563 2.663 21.553 2.7 21.553 2.743L21.553 2.753C21.553 2.82 21.584 2.877 21.648 2.923C21.711 2.968 21.806 2.992 21.933 2.992C22.103 2.992 22.279 2.961 22.462 2.899C22.645 2.837 22.823 2.746 22.997 2.625L23.523 3.356C23.317 3.519 23.086 3.643 22.831 3.727C22.576 3.811 22.285 3.853 21.96 3.853C21.732 3.853 21.528 3.823 21.347 3.765C21.166 3.707 21.011 3.624 20.882 3.518C20.754 3.412 20.656 3.287 20.589 3.142C20.522 2.996 20.489 2.838 20.489 2.665L20.489 2.654C20.489 2.463 20.526 2.303 20.6 2.174C20.674 2.044 20.776 1.937 20.904 1.85C21.032 1.764 21.183 1.693 21.357 1.638C21.531 1.583 21.719 1.533 21.922 1.487C22.052 1.459 22.158 1.431 22.239 1.404C22.321 1.378 22.386 1.351 22.435 1.322C22.484 1.294 22.517 1.265 22.535 1.235C22.553 1.205 22.562 1.17 22.562 1.131L22.562 1.121C22.562 1.039 22.525 0.977 22.451 0.932C22.377 0.888 22.269 0.866 22.128 0.866C21.687 0.866 21.276 1.015 20.896 1.313L20.309 0.626C20.545 0.419 20.816 0.264 21.121 0.16C21.427 0.057 21.75 0.005 22.09 0.005C22.322 0.005 22.532 0.033 22.72 0.088C22.908 0.142 23.069 0.222 23.203 0.327C23.337 0.431 23.441 0.557 23.515 0.705C23.589 0.854 23.627 1.024 23.627 1.215L23.627 1.226C23.627 1.398 23.594 1.548 23.529 1.674C23.464 1.799 23.37 1.906 23.246 1.995ZM33.108 1.796C33.25 1.984 33.32 2.221 33.32 2.508L33.32 2.519C33.32 2.884 33.208 3.173 32.983 3.385C32.857 3.512 32.692 3.612 32.49 3.683C32.287 3.753 32.039 3.789 31.746 3.789L29.949 3.789L29.949 0.069L31.002 0.069L31.002 1.196L31.464 1.196L32.229 0.069L33.445 0.069L32.538 1.366C32.777 1.465 32.967 1.608 33.108 1.796ZM32.261 2.444C32.261 2.309 32.213 2.203 32.115 2.123C32.018 2.043 31.878 2.003 31.697 2.003L31.002 2.003L31.002 2.896L31.692 2.896C31.869 2.896 32.008 2.859 32.109 2.787C32.211 2.715 32.261 2.604 32.261 2.455L32.261 2.444ZM25.097 2.886L26.237 2.886L26.237 0.069L27.29 0.069L27.29 2.886L28.43 2.886L28.43 3.789L25.097 3.789L25.097 2.886Z" fill="rgb(255,255,255)" fill-opacity="1.000" fill-rule="nonzero" transform="matrix(1 0 0 -1 7 43)"/></svg>