<svg xmlns="http://www.w3.org/2000/svg" viewBox="0 0 60 60" width="60" height="60"><path d="M0 0L60 0L60 60L0 60L0 0Z" fill="rgb(255,255,255)" fill-opacity="1.000" fill-rule="nonzero" transform="matrix(1 0 0 1 0 0)"/><path d="M0 0L0 6.84L6.809 13.649L13.665 13.649L0 0Z" fill="rgb(143,177,149)" fill-opacity="1.000" fill-rule="nonzero" transform="matrix(1 0 0 1 29.6489 13)"/><path d="M20.459 13.649L13.649 20.459L13.634 20.443L6.809 13.649L13.634 6.856L13.649 6.84L20.289 13.48L13.649 6.809L13.649 0L13.634 0.015L0 13.649L13.634 27.299L13.649 27.314L27.268 13.665L20.459 13.665L20.459 13.649Z" fill="rgb(75,140,106)" fill-opacity="1.000" fill-rule="nonzero" transform="matrix(1 0 0 1 16 13)"/><path d="M13.649 13.649L0 0L0 6.809L13.649 20.49L27.314 6.809L27.314 0L13.649 13.649Z" fill="rgb(251,199,26)" fill-opacity="1.000" fill-rule="nonzero" transform="matrix(1 0 0 1 16 26.6494)"/><path d="M0 0L0 6.84L6.809 13.649L13.665 13.649L0 0Z" fill="rgb(143,177,149)" fill-opacity="1.000" fill-rule="nonzero" transform="matrix(1 0 0 1 29.6489 13)"/><path d="M13.634 27.299L0 13.649L13.634 0.015L13.634 6.856L6.809 13.649L13.634 20.443L13.634 27.299ZM13.649 0.031L13.649 6.809L20.459 13.665L27.268 13.665L13.649 27.314L13.634 27.299L13.634 20.459L13.649 20.474L20.459 13.665L13.649 6.856L13.634 6.871L13.634 0.015L13.649 0L13.649 0.031Z" fill="rgb(75,140,105)" fill-opacity="1.000" fill-rule="nonzero" transform="matrix(1 0 0 1 16 13)"/><path d="M13.665 13.696L0 0L0 14.437L27.33 14.437L27.33 0L13.665 13.696Z" fill="rgb(24,116,82)" fill-opacity="1.000" fill-rule="nonzero" transform="matrix(1 0 0 1 16 33.4586)"/><path d="M6.84 0L0 6.809L6.84 13.649L13.649 6.809L6.84 0Z" fill="rgb(24,116,82)" fill-opacity="1.000" fill-rule="nonzero" transform="matrix(1 0 0 1 22.8091 19.8401)"/></svg>