<svg xmlns="http://www.w3.org/2000/svg" viewBox="0 0 130 60" width="130" height="60"><path d="M0 0L130 0L130 60L0 60L0 0Z" fill="rgb(255,255,255)" fill-opacity="1.000" fill-rule="nonzero" transform="matrix(1 0 0 1 0 0)"/><path d="M0 0L0 6.84L6.809 13.649L13.665 13.649L0 0Z" fill="rgb(143,177,149)" fill-opacity="1.000" fill-rule="nonzero" transform="matrix(1 0 0 1 31.9907 9.03)"/><path d="M20.459 13.649L13.649 20.459L13.634 20.443L6.809 13.649L13.634 6.856L13.649 6.84L20.289 13.48L13.649 6.809L13.649 0L13.634 0.015L0 13.649L13.634 27.299L13.649 27.314L27.268 13.665L20.459 13.665L20.459 13.649Z" fill="rgb(75,140,106)" fill-opacity="1.000" fill-rule="nonzero" transform="matrix(1 0 0 1 18.3418 9.03)"/><path d="M13.649 13.649L0 0L0 6.809L13.649 20.49L27.314 6.809L27.314 0L13.649 13.649Z" fill="rgb(251,199,26)" fill-opacity="1.000" fill-rule="nonzero" transform="matrix(1 0 0 1 18.3418 22.6794)"/><path d="M4.323 0.664C4.354 0.679 4.37 0.695 4.401 0.695C4.37 0.741 4.339 0.787 4.323 0.834L4.323 0.664ZM33.753 0.232L33.753 0.015C33.768 0 33.799 0 33.815 0C33.799 0.077 33.768 0.154 33.753 0.232ZM80.568 1.328L80.568 1.405L80.507 1.405L80.568 1.328ZM4.323 3.196C4.277 3.381 4.246 3.582 4.246 3.767C4.246 3.968 4.277 4.138 4.323 4.292L4.323 3.196ZM4.076 1.328C3.953 1.127 3.767 0.957 3.551 0.849C3.335 0.741 3.088 0.695 2.779 0.695C2.455 0.695 2.177 0.757 1.899 0.896C1.637 1.035 1.405 1.235 1.235 1.482C1.065 1.714 0.942 1.992 0.849 2.301C0.757 2.594 0.71 2.918 0.71 3.227C0.71 3.752 0.849 4.184 1.112 4.478C1.39 4.787 1.76 4.941 2.223 4.941C2.517 4.941 2.795 4.879 3.073 4.756C3.335 4.648 3.598 4.462 3.845 4.215L3.891 4.277C3.783 4.478 3.706 4.709 3.675 4.926C3.428 5.034 3.181 5.111 2.918 5.173C2.671 5.219 2.44 5.25 2.208 5.25C1.529 5.25 0.988 5.064 0.587 4.694C0.201 4.323 0 3.814 0 3.15C0 2.795 0.062 2.455 0.185 2.115C0.324 1.791 0.494 1.498 0.741 1.235C1.004 0.957 1.328 0.726 1.683 0.587C2.038 0.448 2.44 0.371 2.903 0.371C3.181 0.371 3.443 0.401 3.69 0.463C3.906 0.51 4.123 0.587 4.308 0.679L4.308 0.865C4.277 0.911 4.262 0.973 4.231 1.019C4.2 1.127 4.169 1.235 4.153 1.343L4.076 1.343L4.076 1.328ZM5.975 1.791L5.975 2.069C5.698 2.131 5.45 2.316 5.25 2.609C5.003 2.98 4.864 3.428 4.864 3.968C4.864 4.292 4.941 4.54 5.08 4.709C5.234 4.879 5.435 4.972 5.713 4.972C5.806 4.972 5.883 4.956 5.975 4.941L5.975 5.219C5.898 5.219 5.837 5.234 5.759 5.234C5.296 5.234 4.941 5.095 4.663 4.833C4.509 4.678 4.385 4.509 4.323 4.292L4.323 3.196C4.416 2.887 4.555 2.609 4.787 2.362C5.095 2.023 5.528 1.822 5.975 1.791ZM18.482 4.246L18.59 4.246C18.621 4.462 18.714 4.632 18.853 4.771C18.992 4.895 19.177 4.956 19.378 4.956C19.579 4.956 19.748 4.895 19.887 4.771C20.011 4.648 20.073 4.478 20.073 4.308C20.073 4.076 19.856 3.86 19.44 3.69C19.424 3.69 19.393 3.675 19.378 3.659C19.115 3.551 18.93 3.428 18.822 3.289C18.714 3.15 18.652 2.965 18.668 2.795C18.668 2.501 18.776 2.239 18.992 2.054C19.208 1.853 19.47 1.76 19.81 1.76C19.995 1.76 20.165 1.776 20.32 1.822C20.474 1.868 20.628 1.93 20.752 2.007C20.706 2.084 20.675 2.177 20.644 2.27C20.613 2.362 20.598 2.47 20.567 2.563L20.474 2.563C20.412 2.378 20.335 2.239 20.212 2.162C20.104 2.069 19.949 2.023 19.795 2.023C19.609 2.023 19.47 2.069 19.362 2.193C19.254 2.301 19.193 2.44 19.193 2.594C19.193 2.81 19.378 3.011 19.795 3.165C19.826 3.181 19.841 3.181 19.856 3.196C20.134 3.32 20.335 3.428 20.443 3.567C20.551 3.706 20.613 3.86 20.613 4.076C20.613 4.416 20.49 4.694 20.242 4.895C20.011 5.111 19.687 5.219 19.301 5.219C19.1 5.219 18.915 5.188 18.729 5.126C18.559 5.064 18.405 4.972 18.266 4.864C18.297 4.756 18.328 4.632 18.359 4.524C18.39 4.447 18.436 4.339 18.482 4.246ZM15.811 4.246L15.919 4.246C15.95 4.462 16.043 4.632 16.182 4.771C16.321 4.895 16.49 4.956 16.707 4.956C16.923 4.956 17.077 4.895 17.216 4.771C17.34 4.648 17.401 4.478 17.401 4.308C17.401 4.076 17.201 3.86 16.768 3.69C16.753 3.69 16.722 3.675 16.707 3.659C16.444 3.551 16.259 3.428 16.151 3.289C16.043 3.15 15.981 2.965 15.996 2.795C15.996 2.501 16.104 2.239 16.321 2.054C16.537 1.853 16.799 1.76 17.139 1.76C17.324 1.76 17.494 1.776 17.648 1.822C17.803 1.868 17.942 1.93 18.081 2.007C18.05 2.084 18.004 2.177 17.973 2.27C17.942 2.362 17.926 2.47 17.896 2.563L17.803 2.563C17.757 2.378 17.664 2.239 17.54 2.162C17.432 2.069 17.293 2.023 17.124 2.023C16.938 2.023 16.799 2.069 16.691 2.193C16.583 2.301 16.521 2.44 16.521 2.594C16.521 2.81 16.722 3.011 17.124 3.165C17.139 3.165 17.17 3.181 17.185 3.196C17.479 3.32 17.664 3.428 17.772 3.567C17.88 3.706 17.942 3.86 17.942 4.076C17.942 4.416 17.818 4.694 17.571 4.895C17.34 5.111 17.015 5.219 16.629 5.219C16.429 5.219 16.243 5.188 16.058 5.126C15.888 5.064 15.718 4.972 15.579 4.864C15.61 4.756 15.641 4.632 15.672 4.524C15.734 4.431 15.78 4.339 15.811 4.246ZM14.097 5.142C14.282 4.431 14.437 3.798 14.53 3.227C14.638 2.656 14.699 2.193 14.699 1.853L14.885 1.884L15.224 1.884C15.271 1.868 15.348 1.868 15.41 1.853C15.24 2.455 15.101 3.057 14.977 3.675C14.885 4.153 14.823 4.648 14.792 5.142C14.715 5.142 14.638 5.126 14.56 5.111L14.298 5.111C14.267 5.126 14.19 5.142 14.097 5.142ZM14.885 0.664C14.885 0.556 14.916 0.479 14.977 0.417C15.039 0.355 15.132 0.324 15.224 0.324C15.332 0.324 15.41 0.355 15.471 0.417C15.518 0.463 15.549 0.556 15.549 0.664C15.549 0.757 15.518 0.834 15.456 0.896C15.394 0.957 15.317 0.988 15.209 0.988C15.116 0.988 15.024 0.957 14.977 0.896C14.916 0.834 14.885 0.757 14.885 0.664ZM10.268 5.142C10.407 4.632 10.515 4.153 10.592 3.721C10.669 3.289 10.716 2.98 10.716 2.779C10.716 2.579 10.654 2.44 10.577 2.332C10.484 2.239 10.33 2.193 10.16 2.193C9.728 2.193 9.403 2.409 9.187 2.841C8.971 3.273 8.817 4.045 8.724 5.142C8.662 5.142 8.6 5.126 8.539 5.126C8.477 5.126 8.431 5.126 8.384 5.126L8.276 5.126C8.23 5.126 8.168 5.142 8.075 5.157C8.245 4.524 8.369 3.922 8.477 3.351C8.585 2.779 8.647 2.285 8.678 1.868C8.739 1.868 8.801 1.884 8.847 1.899L9.125 1.899L9.311 1.868C9.264 1.976 9.233 2.1 9.203 2.208C9.172 2.316 9.156 2.424 9.125 2.532C9.311 2.27 9.511 2.084 9.712 1.976C9.928 1.868 10.16 1.791 10.407 1.807C10.7 1.807 10.901 1.868 11.055 1.992C11.21 2.115 11.287 2.285 11.302 2.532C11.472 2.316 11.688 2.131 11.936 1.976C12.152 1.868 12.383 1.791 12.646 1.791C12.939 1.791 13.171 1.868 13.325 2.007C13.495 2.162 13.572 2.362 13.572 2.625C13.572 2.779 13.526 3.134 13.418 3.706C13.31 4.262 13.233 4.756 13.171 5.173C13.124 5.157 13.063 5.157 13.001 5.157C12.955 5.142 12.908 5.142 12.846 5.142L12.692 5.142C12.646 5.157 12.584 5.157 12.507 5.173C12.646 4.663 12.754 4.184 12.831 3.752C12.908 3.32 12.939 3.011 12.939 2.81C12.939 2.609 12.893 2.47 12.8 2.362C12.708 2.27 12.569 2.223 12.383 2.223C11.951 2.223 11.627 2.44 11.411 2.887C11.194 3.32 11.04 4.092 10.947 5.188C10.901 5.173 10.839 5.173 10.777 5.157L10.484 5.157C10.422 5.126 10.361 5.142 10.268 5.142ZM5.975 5.219L5.975 4.941C6.238 4.864 6.454 4.694 6.67 4.401C6.948 4.015 7.072 3.551 7.072 3.011C7.072 2.718 6.995 2.486 6.84 2.301C6.686 2.115 6.47 2.038 6.207 2.038L6.192 2.038C6.114 2.038 6.037 2.054 5.975 2.069L5.975 1.791L6.114 1.791C6.624 1.791 7.01 1.915 7.288 2.177C7.566 2.44 7.705 2.795 7.705 3.243C7.705 3.798 7.52 4.277 7.134 4.663C6.84 4.972 6.423 5.173 5.975 5.219ZM22.312 3.289L22.312 3.582C22.08 3.659 21.91 3.737 21.787 3.845C21.632 3.968 21.555 4.153 21.555 4.354C21.555 4.509 21.617 4.632 21.694 4.725C21.787 4.817 21.895 4.864 22.049 4.864C22.142 4.864 22.219 4.864 22.312 4.817L22.312 5.126C22.157 5.188 22.003 5.219 21.833 5.219C21.57 5.219 21.37 5.142 21.215 5.003C21.061 4.848 20.984 4.663 20.984 4.416C20.984 4.092 21.076 3.86 21.292 3.675C21.493 3.52 21.817 3.397 22.312 3.289ZM22.312 1.807L22.312 2.084C22.234 2.115 22.157 2.146 22.095 2.177C21.941 2.27 21.802 2.409 21.725 2.579L21.617 2.563C21.632 2.501 21.648 2.44 21.648 2.362C21.663 2.301 21.663 2.239 21.663 2.177L21.663 2.115C21.648 2.084 21.648 2.069 21.648 2.054C21.817 1.946 21.987 1.868 22.157 1.837C22.219 1.822 22.265 1.807 22.312 1.807ZM22.312 0.664L22.312 1.05C22.281 1.065 22.25 1.081 22.234 1.096C22.188 1.143 22.157 1.22 22.142 1.297L21.925 1.297C21.956 1.081 22.018 0.911 22.126 0.787C22.173 0.741 22.234 0.695 22.312 0.664ZM22.312 1.065L22.312 0.679C22.373 0.648 22.45 0.648 22.528 0.648C22.559 0.648 22.589 0.648 22.62 0.664C22.651 0.664 22.698 0.679 22.759 0.695L23.207 0.803L23.315 0.834C23.346 0.834 23.392 0.849 23.408 0.849C23.5 0.849 23.578 0.834 23.624 0.787C23.67 0.757 23.717 0.679 23.732 0.587L23.917 0.587C23.871 0.803 23.809 0.973 23.686 1.096C23.578 1.22 23.439 1.282 23.284 1.282C23.253 1.282 23.207 1.282 23.161 1.266C23.13 1.266 23.068 1.251 23.022 1.235L22.589 1.127C22.559 1.112 22.512 1.112 22.481 1.112C22.45 1.112 22.42 1.112 22.389 1.112C22.373 1.05 22.342 1.05 22.312 1.065ZM22.312 5.126L22.312 4.817C22.42 4.787 22.512 4.725 22.605 4.663C22.775 4.524 22.883 4.37 22.929 4.184L23.068 3.428L22.497 3.567C22.435 3.582 22.373 3.598 22.312 3.613L22.312 3.32C22.342 3.32 22.358 3.32 22.389 3.304L22.96 3.196C23.053 3.181 23.13 3.119 23.161 3.026C23.207 2.934 23.238 2.795 23.238 2.625C23.238 2.455 23.192 2.316 23.084 2.223C22.975 2.131 22.836 2.084 22.667 2.084C22.559 2.084 22.435 2.084 22.342 2.115L22.342 1.837C22.466 1.807 22.605 1.807 22.744 1.807C23.084 1.807 23.331 1.884 23.516 2.023C23.701 2.162 23.794 2.378 23.794 2.64C23.794 2.718 23.794 2.81 23.778 2.934C23.763 3.042 23.747 3.181 23.717 3.304L23.485 4.462C23.47 4.509 23.47 4.555 23.47 4.601C23.454 4.648 23.454 4.694 23.454 4.725C23.454 4.802 23.47 4.833 23.516 4.879C23.547 4.91 23.593 4.926 23.67 4.926C23.701 4.926 23.732 4.926 23.763 4.926C23.794 4.926 23.84 4.91 23.902 4.895L23.995 5.064C23.902 5.126 23.794 5.173 23.686 5.203C23.593 5.234 23.485 5.25 23.392 5.25C23.269 5.25 23.145 5.203 23.053 5.111C22.975 5.018 22.929 4.895 22.914 4.725C22.759 4.91 22.605 5.034 22.435 5.126L22.312 5.126ZM26.048 1.791L26.048 2.069C25.77 2.131 25.539 2.316 25.338 2.609C25.091 2.98 24.952 3.428 24.952 3.968C24.952 4.292 25.029 4.54 25.168 4.709C25.322 4.879 25.523 4.972 25.786 4.972C25.878 4.972 25.971 4.956 26.048 4.941L26.048 5.219C25.986 5.219 25.909 5.234 25.832 5.234C25.369 5.234 25.014 5.095 24.736 4.833C24.458 4.57 24.334 4.215 24.334 3.767C24.334 3.212 24.52 2.748 24.875 2.362C25.183 2.023 25.585 1.822 26.048 1.791ZM26.048 5.219L26.048 4.941C26.311 4.864 26.542 4.694 26.743 4.401C27.021 4.015 27.144 3.551 27.144 3.011C27.144 2.718 27.067 2.486 26.897 2.301C26.743 2.115 26.527 2.038 26.264 2.038L26.249 2.038C26.172 2.038 26.094 2.054 26.033 2.069L26.033 1.791L26.172 1.791C26.666 1.791 27.052 1.915 27.345 2.177C27.638 2.44 27.762 2.795 27.762 3.243C27.762 3.798 27.577 4.277 27.206 4.663C26.897 4.972 26.496 5.173 26.048 5.219ZM31.514 1.791L31.514 2.193C31.267 2.254 31.051 2.409 30.866 2.671C30.634 3.011 30.526 3.443 30.526 3.953C30.526 4.246 30.588 4.478 30.711 4.632C30.835 4.787 31.02 4.864 31.267 4.864C31.36 4.864 31.437 4.848 31.529 4.833L31.529 5.142C31.375 5.188 31.236 5.203 31.082 5.203C30.727 5.203 30.449 5.08 30.217 4.817C30.001 4.57 29.893 4.231 29.893 3.814C29.893 3.227 30.063 2.733 30.402 2.347C30.696 2.023 31.066 1.822 31.514 1.791ZM33.753 3.227C33.707 3.412 33.691 3.598 33.691 3.783C33.691 3.953 33.707 4.123 33.753 4.262L33.753 3.227ZM33.753 0.015L33.753 0.232C33.537 1.004 33.351 1.776 33.197 2.548C33.012 3.412 32.873 4.277 32.749 5.142C32.688 5.142 32.641 5.126 32.595 5.126C32.533 5.126 32.502 5.126 32.456 5.126C32.425 5.126 32.363 5.126 32.317 5.126C32.271 5.126 32.209 5.142 32.132 5.142L32.255 4.663C32.07 4.864 31.885 5.003 31.684 5.095C31.638 5.126 31.576 5.142 31.499 5.173L31.499 4.864C31.746 4.802 31.962 4.632 32.132 4.385C32.363 4.045 32.487 3.613 32.487 3.104C32.487 2.81 32.425 2.579 32.286 2.424C32.147 2.27 31.962 2.193 31.715 2.193C31.638 2.193 31.56 2.193 31.499 2.223L31.499 1.822C31.545 1.807 31.607 1.807 31.653 1.807C31.885 1.807 32.085 1.868 32.271 1.992C32.456 2.131 32.564 2.285 32.657 2.532L32.811 1.776C32.873 1.436 32.935 1.112 32.996 0.849C33.043 0.571 33.089 0.293 33.135 0.046C33.212 0.046 33.29 0.077 33.321 0.077C33.382 0.093 33.413 0.093 33.429 0.093C33.475 0.093 33.521 0.093 33.583 0.093C33.66 0.015 33.691 0.015 33.753 0.015ZM35.282 1.791L35.282 2.069C35.112 2.115 34.957 2.208 34.834 2.347C34.648 2.548 34.525 2.826 34.448 3.196C34.509 3.196 34.602 3.196 34.71 3.196L35.282 3.196L35.282 3.459L35.019 3.459C34.772 3.474 34.556 3.474 34.386 3.474C34.371 3.551 34.371 3.629 34.355 3.69L34.355 3.906C34.355 4.231 34.432 4.478 34.587 4.648C34.741 4.817 34.973 4.91 35.266 4.91L35.266 5.25L35.143 5.25C34.695 5.25 34.34 5.111 34.077 4.864C33.923 4.694 33.799 4.493 33.737 4.277L33.737 3.227C33.815 2.903 33.969 2.609 34.185 2.347C34.494 2.023 34.849 1.837 35.282 1.791ZM35.282 3.459L35.282 3.196L35.837 3.196C35.945 3.196 36.038 3.196 36.1 3.196C36.1 3.119 36.115 3.057 36.115 3.011L36.115 2.872C36.115 2.609 36.069 2.424 35.945 2.27C35.837 2.131 35.683 2.054 35.482 2.054C35.405 2.054 35.343 2.054 35.282 2.069L35.282 1.791C35.359 1.776 35.436 1.776 35.498 1.776C35.884 1.776 36.177 1.899 36.393 2.131C36.609 2.378 36.717 2.702 36.717 3.119C36.717 3.15 36.717 3.196 36.717 3.258C36.717 3.32 36.702 3.397 36.702 3.49L36.548 3.49C36.038 3.474 35.683 3.474 35.467 3.474L35.282 3.474L35.282 3.459ZM35.282 5.234L35.282 4.895C35.467 4.895 35.637 4.848 35.806 4.771C35.992 4.694 36.162 4.555 36.347 4.37L36.44 4.431C36.409 4.509 36.362 4.57 36.347 4.648C36.316 4.725 36.301 4.802 36.27 4.895C36.1 5.003 35.899 5.095 35.714 5.157C35.559 5.203 35.42 5.234 35.282 5.234ZM42.4 3.582C42.338 3.613 42.292 3.644 42.245 3.675C42.044 3.845 41.936 4.092 41.936 4.416C41.936 4.663 42.014 4.848 42.168 5.003C42.23 5.064 42.307 5.111 42.4 5.142L42.4 3.582ZM42.4 0.479L42.4 1.235C41.983 1.946 41.581 2.656 41.164 3.381C40.732 4.184 40.423 4.771 40.269 5.142C40.207 5.142 40.161 5.126 40.099 5.111L39.96 5.111C39.929 5.111 39.883 5.126 39.806 5.142C39.775 4.694 39.667 4.061 39.512 3.273C39.327 2.332 39.126 1.39 38.895 0.463C38.987 0.479 39.064 0.479 39.126 0.479C39.203 0.494 39.25 0.494 39.281 0.494C39.327 0.494 39.373 0.494 39.435 0.479C39.497 0.479 39.574 0.479 39.651 0.463C39.682 0.787 39.728 1.127 39.79 1.451C39.836 1.791 39.898 2.162 39.975 2.594L40.269 4.323L41.272 2.44C41.535 1.976 41.736 1.59 41.859 1.297C41.998 1.004 42.122 0.726 42.23 0.448C42.292 0.479 42.353 0.479 42.4 0.479ZM42.693 3.459L42.693 3.906C42.585 4.03 42.523 4.184 42.523 4.354C42.523 4.509 42.569 4.632 42.662 4.725C42.678 4.74 42.693 4.756 42.693 4.756L42.693 5.219C42.6 5.219 42.492 5.188 42.4 5.142L42.4 3.582C42.477 3.536 42.569 3.49 42.693 3.459ZM42.693 2.007L42.693 2.563C42.693 2.563 42.693 2.563 42.693 2.579L42.569 2.563C42.585 2.486 42.6 2.424 42.616 2.362C42.631 2.301 42.631 2.239 42.631 2.177L42.631 2.069L42.693 2.007ZM42.693 0.479L42.693 0.741C42.6 0.911 42.508 1.065 42.4 1.235L42.4 0.479C42.4 0.479 42.4 0.479 42.415 0.494L42.647 0.494C42.662 0.479 42.678 0.479 42.693 0.479ZM45.256 5.142C45.503 4.169 45.704 3.258 45.874 2.393C46.044 1.529 46.152 0.726 46.244 0L46.26 0C46.414 0.015 46.522 0.031 46.553 0.031L46.692 0.031C46.738 0.015 46.816 0.015 46.908 0C46.692 0.88 46.507 1.776 46.352 2.656C46.198 3.474 46.059 4.308 45.951 5.142C45.889 5.142 45.812 5.126 45.75 5.111L45.488 5.111C45.441 5.126 45.364 5.142 45.256 5.142ZM42.693 0.741L42.693 0.479C42.739 0.479 42.786 0.479 42.863 0.463C42.801 0.556 42.739 0.648 42.693 0.741ZM42.693 5.219L42.693 4.756C42.786 4.833 42.894 4.864 43.017 4.864C43.218 4.864 43.403 4.787 43.573 4.663C43.743 4.524 43.851 4.37 43.882 4.184L44.021 3.428L43.465 3.567C43.141 3.644 42.894 3.737 42.755 3.86L42.693 3.922L42.693 3.474C42.878 3.397 43.094 3.351 43.357 3.289L43.928 3.181C44.021 3.165 44.083 3.104 44.129 3.011C44.175 2.918 44.191 2.779 44.191 2.609C44.191 2.44 44.144 2.301 44.036 2.208C43.928 2.115 43.789 2.069 43.604 2.069C43.419 2.069 43.233 2.1 43.064 2.208C42.909 2.301 42.786 2.424 42.693 2.594L42.693 2.038C42.832 1.961 42.986 1.915 43.125 1.868C43.311 1.822 43.48 1.791 43.681 1.791C44.021 1.791 44.268 1.868 44.453 2.007C44.638 2.146 44.716 2.362 44.716 2.625C44.716 2.702 44.716 2.795 44.7 2.918C44.685 3.042 44.669 3.165 44.638 3.289L44.407 4.447L44.376 4.586C44.376 4.632 44.361 4.678 44.361 4.709C44.361 4.787 44.376 4.817 44.407 4.864C44.453 4.895 44.499 4.926 44.561 4.91C44.592 4.91 44.623 4.91 44.654 4.91C44.685 4.91 44.731 4.895 44.793 4.879L44.886 5.049C44.793 5.111 44.685 5.157 44.577 5.188C44.484 5.219 44.391 5.234 44.299 5.234C44.144 5.234 44.036 5.188 43.959 5.095C43.882 5.003 43.82 4.879 43.82 4.709C43.681 4.864 43.527 5.003 43.341 5.111C43.172 5.188 43.002 5.234 42.816 5.234L42.693 5.219ZM48.699 1.791L48.699 2.069C48.421 2.131 48.19 2.316 47.974 2.609C47.711 2.98 47.588 3.428 47.588 3.968C47.588 4.292 47.665 4.54 47.804 4.709C47.943 4.879 48.159 4.972 48.421 4.972C48.514 4.972 48.607 4.956 48.684 4.941L48.684 5.219C48.607 5.219 48.545 5.234 48.468 5.234C48.004 5.234 47.634 5.095 47.356 4.833C47.094 4.57 46.939 4.215 46.939 3.767C46.939 3.212 47.124 2.748 47.48 2.362C47.835 2.023 48.236 1.822 48.699 1.791ZM50.768 5.142C50.938 4.509 51.077 3.906 51.17 3.335C51.278 2.764 51.34 2.27 51.371 1.853C51.432 1.868 51.494 1.868 51.556 1.884L51.834 1.884L51.988 1.853C51.957 1.961 51.926 2.069 51.911 2.177C51.88 2.285 51.865 2.393 51.849 2.517C52.004 2.301 52.173 2.115 52.328 1.992C52.513 1.868 52.683 1.807 52.837 1.807C52.868 1.807 52.884 1.807 52.93 1.822C52.961 1.822 52.992 1.837 53.023 1.837C52.992 1.93 52.976 2.038 52.945 2.115C52.93 2.208 52.915 2.316 52.915 2.409C52.837 2.393 52.776 2.378 52.729 2.378C52.683 2.378 52.621 2.362 52.59 2.362C52.266 2.362 52.034 2.563 51.865 2.949C51.695 3.335 51.556 4.076 51.432 5.157C51.371 5.157 51.309 5.142 51.232 5.142C51.185 5.142 51.123 5.142 51.077 5.142L50.985 5.142C50.923 5.126 50.846 5.142 50.768 5.142ZM48.699 5.219L48.699 4.941C48.962 4.864 49.193 4.694 49.394 4.401C49.657 4.015 49.796 3.551 49.796 3.011C49.796 2.718 49.718 2.486 49.564 2.301C49.41 2.115 49.193 2.038 48.931 2.038L48.915 2.038C48.838 2.038 48.777 2.054 48.699 2.069L48.699 1.791L48.838 1.791C49.332 1.791 49.718 1.915 49.996 2.177C50.29 2.44 50.429 2.795 50.429 3.243C50.429 3.798 50.243 4.277 49.857 4.663C49.549 4.972 49.147 5.173 48.699 5.219ZM54.659 1.791L54.659 2.069C54.505 2.115 54.351 2.208 54.212 2.347C54.026 2.548 53.903 2.826 53.826 3.196C53.887 3.196 53.98 3.196 54.088 3.196L54.659 3.196L54.659 3.459L54.412 3.459C54.165 3.474 53.949 3.474 53.764 3.474C53.748 3.551 53.748 3.629 53.748 3.69C53.733 3.767 53.733 3.829 53.733 3.906C53.733 4.231 53.81 4.478 53.98 4.648C54.134 4.817 54.351 4.91 54.659 4.91L54.659 5.25L54.551 5.25C54.103 5.25 53.748 5.111 53.486 4.864C53.223 4.601 53.084 4.231 53.084 3.798C53.084 3.227 53.27 2.748 53.594 2.362C53.872 2.023 54.242 1.822 54.659 1.791ZM60.712 5.142C61.005 4.092 61.237 3.15 61.422 2.332C61.608 1.513 61.731 0.896 61.793 0.448C61.87 0.463 61.947 0.479 61.994 0.479C62.04 0.494 62.086 0.494 62.117 0.494C62.148 0.494 62.194 0.494 62.256 0.479C62.302 0.479 62.364 0.479 62.457 0.448C62.503 0.741 62.642 1.328 62.889 2.193C62.92 2.301 62.935 2.378 62.951 2.455L63.43 4.2L64.665 2.301C64.696 2.239 64.757 2.162 64.819 2.054C65.159 1.529 65.483 1.004 65.807 0.463C65.9 0.479 65.962 0.494 66.008 0.494C66.054 0.51 66.085 0.51 66.101 0.51C66.132 0.51 66.178 0.51 66.24 0.494C66.286 0.494 66.348 0.494 66.456 0.463C66.255 1.312 66.054 2.162 65.9 3.026C65.761 3.721 65.653 4.431 65.576 5.142C65.499 5.142 65.421 5.126 65.344 5.111L65.035 5.111C64.958 5.126 64.881 5.126 64.788 5.142C64.881 4.817 64.974 4.493 65.051 4.184C65.128 3.876 65.19 3.598 65.236 3.335L65.638 1.328L64.093 3.798L64.047 3.86C63.738 4.339 63.491 4.756 63.275 5.157L63.044 5.157C62.858 4.462 62.673 3.798 62.503 3.165C62.333 2.532 62.163 1.93 61.994 1.343L61.685 2.841C61.577 3.366 61.499 3.814 61.422 4.138C61.376 4.478 61.33 4.817 61.283 5.157C61.222 5.157 61.16 5.142 61.098 5.126L61.005 5.126C60.975 5.126 60.928 5.126 60.897 5.142C60.836 5.126 60.789 5.142 60.712 5.142ZM56.435 4.246L56.543 4.246C56.574 4.462 56.667 4.632 56.806 4.771C56.945 4.895 57.114 4.956 57.331 4.956C57.547 4.956 57.717 4.895 57.84 4.771C57.964 4.648 58.025 4.478 58.025 4.308C58.025 4.076 57.825 3.86 57.392 3.69C57.361 3.69 57.346 3.675 57.331 3.659C57.068 3.551 56.883 3.428 56.775 3.289C56.667 3.15 56.62 2.995 56.62 2.795C56.62 2.501 56.728 2.239 56.945 2.054C57.161 1.853 57.423 1.76 57.763 1.76C57.948 1.76 58.118 1.776 58.272 1.822C58.427 1.868 58.566 1.93 58.705 2.007C58.674 2.084 58.628 2.177 58.597 2.27C58.566 2.362 58.55 2.47 58.519 2.563L58.427 2.563C58.381 2.378 58.288 2.239 58.164 2.162C58.056 2.069 57.917 2.023 57.732 2.023C57.578 2.023 57.408 2.069 57.3 2.193C57.192 2.301 57.13 2.44 57.13 2.594C57.13 2.81 57.331 3.011 57.732 3.165C57.747 3.165 57.778 3.181 57.794 3.196C58.087 3.32 58.272 3.428 58.396 3.567C58.504 3.706 58.566 3.86 58.566 4.076C58.566 4.416 58.442 4.694 58.195 4.895C57.948 5.111 57.639 5.219 57.253 5.219C57.053 5.219 56.867 5.188 56.682 5.126C56.512 5.064 56.342 4.972 56.203 4.864C56.234 4.756 56.265 4.632 56.296 4.524C56.358 4.431 56.404 4.339 56.435 4.246ZM54.659 3.459L54.659 3.196L55.215 3.196C55.323 3.196 55.416 3.196 55.478 3.196C55.478 3.119 55.493 3.057 55.493 3.011C55.493 2.965 55.493 2.918 55.493 2.872C55.493 2.609 55.431 2.424 55.323 2.27C55.215 2.131 55.045 2.054 54.845 2.054C54.783 2.054 54.721 2.054 54.644 2.069L54.644 1.791C54.721 1.776 54.798 1.776 54.86 1.776C55.246 1.776 55.539 1.899 55.756 2.131C55.972 2.378 56.08 2.702 56.08 3.119C56.08 3.15 56.08 3.196 56.064 3.258C56.064 3.32 56.064 3.397 56.049 3.49L55.895 3.49C55.385 3.474 55.03 3.474 54.814 3.474L54.659 3.474L54.659 3.459ZM54.659 5.234L54.659 4.895C54.845 4.895 55.03 4.848 55.184 4.771C55.354 4.694 55.524 4.555 55.725 4.37L55.817 4.431C55.786 4.509 55.756 4.57 55.725 4.648C55.694 4.725 55.678 4.802 55.648 4.895C55.462 5.003 55.277 5.095 55.092 5.157C54.953 5.203 54.814 5.234 54.659 5.234ZM68.34 2.069C68.062 2.131 67.83 2.316 67.614 2.609C67.351 2.98 67.228 3.428 67.228 3.968C67.228 4.292 67.305 4.54 67.444 4.709C67.583 4.879 67.784 4.972 68.062 4.972C68.154 4.972 68.247 4.956 68.324 4.941L68.324 5.219C68.247 5.219 68.185 5.234 68.108 5.234C67.645 5.234 67.274 5.095 66.996 4.833C66.718 4.57 66.595 4.215 66.595 3.767C66.595 3.212 66.765 2.748 67.135 2.362C67.46 2.023 67.861 1.822 68.324 1.791L68.324 2.069L68.34 2.069ZM72.2 1.853L72.2 2.177C71.953 2.254 71.737 2.409 71.551 2.687C71.32 3.042 71.196 3.49 71.196 4.03C71.196 4.323 71.258 4.54 71.397 4.694C71.536 4.848 71.721 4.941 71.968 4.941C72.045 4.941 72.123 4.926 72.184 4.91L72.184 5.234C72.123 5.234 72.092 5.234 72.03 5.234C71.814 5.234 71.628 5.203 71.443 5.126C71.258 5.034 71.073 4.91 70.934 4.756C70.856 4.802 70.779 4.864 70.717 4.941C70.656 5.003 70.594 5.08 70.532 5.157L70.301 5.157C70.409 4.771 70.563 4.138 70.748 3.258C70.934 2.362 71.134 1.297 71.351 0.015C71.428 0.031 71.489 0.031 71.536 0.046C71.598 0.062 71.628 0.062 71.675 0.062C71.721 0.062 71.767 0.062 71.829 0.046C71.891 0.031 71.968 0.031 72.03 0.015C71.891 0.463 71.737 1.05 71.598 1.745C71.567 1.868 71.551 1.961 71.536 2.023L71.474 2.347C71.644 2.162 71.814 2.023 71.999 1.93C72.092 1.899 72.138 1.868 72.2 1.853ZM68.556 2.038C68.479 2.038 68.417 2.038 68.34 2.069L68.34 1.791L68.479 1.791C68.973 1.791 69.359 1.915 69.637 2.177C69.915 2.44 70.069 2.795 70.069 3.243C70.069 3.798 69.884 4.262 69.498 4.663C69.189 4.987 68.787 5.188 68.34 5.234L68.34 4.956C68.602 4.879 68.834 4.709 69.034 4.416C69.297 4.03 69.436 3.567 69.436 3.026C69.436 2.733 69.359 2.501 69.204 2.316C69.05 2.146 68.834 2.054 68.571 2.054L68.556 2.054L68.556 2.038ZM77.666 5.142C77.851 4.431 78.005 3.798 78.098 3.227C78.206 2.64 78.252 2.193 78.268 1.853C78.345 1.853 78.407 1.868 78.469 1.884L78.808 1.884C78.87 1.884 78.932 1.868 79.009 1.853C78.839 2.455 78.7 3.057 78.577 3.659C78.469 4.215 78.407 4.709 78.391 5.126C78.314 5.126 78.237 5.111 78.16 5.095L77.897 5.095C77.82 5.126 77.743 5.142 77.666 5.142ZM78.453 0.664C78.453 0.556 78.484 0.479 78.546 0.417C78.608 0.355 78.685 0.324 78.793 0.324C78.901 0.324 78.978 0.355 79.04 0.417C79.102 0.463 79.133 0.556 79.133 0.664C79.133 0.757 79.102 0.834 79.04 0.896C78.978 0.957 78.901 0.988 78.808 0.988C78.716 0.988 78.623 0.957 78.561 0.896C78.484 0.834 78.453 0.757 78.453 0.664ZM75.952 5.142C76.199 4.169 76.4 3.258 76.569 2.393C76.724 1.529 76.847 0.726 76.925 0L76.94 0C77.11 0.015 77.218 0.031 77.249 0.031L77.388 0.031C77.465 0.015 77.542 0.015 77.604 0C77.388 0.88 77.202 1.776 77.033 2.656C76.878 3.474 76.739 4.308 76.631 5.142C76.554 5.142 76.492 5.126 76.43 5.111L76.168 5.111C76.106 5.126 76.029 5.142 75.952 5.142ZM74.284 5.142C74.469 4.431 74.624 3.798 74.717 3.227C74.825 2.64 74.871 2.193 74.902 1.853L75.087 1.884L75.427 1.884C75.489 1.884 75.55 1.868 75.612 1.853C75.442 2.455 75.303 3.057 75.195 3.659C75.103 4.138 75.041 4.632 75.01 5.126C74.933 5.126 74.856 5.111 74.778 5.095L74.516 5.095C74.439 5.126 74.361 5.142 74.284 5.142ZM75.072 0.664C75.072 0.556 75.103 0.479 75.164 0.417C75.226 0.355 75.319 0.324 75.411 0.324C75.519 0.324 75.597 0.355 75.658 0.417C75.705 0.463 75.736 0.556 75.736 0.664C75.736 0.757 75.705 0.834 75.643 0.896C75.581 0.957 75.504 0.988 75.411 0.988C75.319 0.988 75.226 0.957 75.164 0.896C75.103 0.834 75.072 0.757 75.072 0.664ZM72.2 5.219L72.2 4.895C72.447 4.833 72.678 4.663 72.848 4.385C73.08 4.03 73.203 3.582 73.203 3.073C73.203 2.779 73.126 2.548 73.018 2.378C72.879 2.223 72.709 2.146 72.462 2.146C72.37 2.146 72.277 2.162 72.2 2.177L72.2 1.853C72.339 1.807 72.478 1.791 72.648 1.791C73.018 1.791 73.311 1.899 73.528 2.162C73.744 2.409 73.852 2.733 73.852 3.165C73.852 3.752 73.667 4.262 73.327 4.648C73.064 4.987 72.648 5.188 72.2 5.219ZM80.568 3.289L80.568 3.582C80.337 3.659 80.167 3.737 80.044 3.845C79.889 3.968 79.812 4.153 79.812 4.354C79.812 4.509 79.858 4.632 79.951 4.725C80.044 4.817 80.152 4.864 80.306 4.864C80.399 4.864 80.476 4.848 80.568 4.817L80.568 5.126C80.414 5.188 80.26 5.219 80.09 5.219C79.827 5.219 79.611 5.142 79.472 5.003C79.318 4.848 79.241 4.663 79.241 4.416C79.241 4.092 79.333 3.86 79.549 3.675C79.75 3.52 80.09 3.397 80.568 3.289ZM80.568 1.807L80.568 2.084C80.491 2.115 80.414 2.146 80.352 2.177C80.198 2.27 80.059 2.409 79.982 2.579L79.858 2.563C79.874 2.486 79.889 2.424 79.889 2.362C79.905 2.301 79.905 2.239 79.905 2.177L79.905 2.115C79.889 2.084 79.889 2.069 79.889 2.054C80.059 1.946 80.229 1.868 80.399 1.837C80.46 1.822 80.522 1.807 80.568 1.807ZM84.846 5.142C85.031 4.431 85.185 3.798 85.278 3.227C85.386 2.64 85.432 2.193 85.463 1.853L85.648 1.884L85.988 1.884C86.05 1.884 86.127 1.868 86.189 1.853C86.019 2.455 85.88 3.057 85.757 3.659C85.664 4.153 85.602 4.632 85.571 5.126C85.494 5.126 85.417 5.111 85.34 5.095L85.077 5.095C85.015 5.126 84.938 5.142 84.846 5.142ZM85.633 0.664C85.633 0.556 85.664 0.479 85.726 0.417C85.787 0.355 85.88 0.324 85.973 0.324C86.081 0.324 86.158 0.355 86.22 0.417C86.266 0.463 86.297 0.556 86.297 0.664C86.297 0.757 86.266 0.834 86.204 0.896C86.143 0.957 86.065 0.988 85.957 0.988C85.865 0.988 85.787 0.957 85.726 0.896C85.664 0.834 85.633 0.757 85.633 0.664ZM82.56 5.142C82.715 4.509 82.854 3.906 82.962 3.335C83.039 2.841 83.116 2.347 83.147 1.853C83.209 1.853 83.255 1.868 83.317 1.884L83.595 1.884C83.641 1.884 83.703 1.868 83.765 1.853C83.734 1.961 83.703 2.069 83.672 2.177C83.641 2.285 83.626 2.393 83.626 2.517C83.78 2.301 83.935 2.115 84.104 1.992C84.274 1.868 84.444 1.807 84.598 1.807C84.629 1.807 84.66 1.807 84.691 1.807C84.722 1.807 84.753 1.822 84.784 1.822C84.753 1.915 84.722 2.007 84.707 2.1C84.707 2.193 84.676 2.285 84.676 2.378C84.598 2.362 84.537 2.347 84.475 2.347C84.429 2.347 84.382 2.332 84.336 2.332C84.012 2.332 83.78 2.532 83.61 2.918C83.44 3.304 83.301 4.045 83.193 5.142C83.116 5.126 83.054 5.126 82.993 5.126C82.946 5.111 82.9 5.111 82.854 5.111L82.746 5.111C82.73 5.126 82.653 5.142 82.56 5.142ZM80.568 1.405L80.568 1.328L81.479 0.417C81.557 0.34 81.618 0.293 81.68 0.262C81.727 0.232 81.788 0.216 81.85 0.201C81.927 0.201 82.004 0.216 82.051 0.278C82.097 0.324 82.128 0.386 82.128 0.463C82.128 0.525 82.113 0.556 82.082 0.602C82.051 0.648 81.974 0.695 81.881 0.757L80.8 1.39L80.568 1.39L80.568 1.405ZM80.568 5.126L80.568 4.817C80.677 4.787 80.769 4.725 80.862 4.663C81.047 4.524 81.14 4.37 81.186 4.184L81.325 3.428L80.754 3.567C80.692 3.582 80.63 3.598 80.568 3.613L80.568 3.32C80.599 3.32 80.615 3.32 80.646 3.304L81.217 3.196C81.31 3.181 81.371 3.119 81.402 3.026C81.449 2.934 81.479 2.795 81.479 2.625C81.479 2.455 81.433 2.316 81.325 2.223C81.232 2.131 81.078 2.084 80.893 2.084C80.785 2.084 80.677 2.084 80.568 2.115L80.568 1.837C80.692 1.807 80.831 1.807 80.97 1.807C81.31 1.807 81.557 1.884 81.742 2.023C81.912 2.162 82.004 2.378 82.004 2.64C82.004 2.718 81.989 2.81 81.989 2.934C81.974 3.042 81.958 3.181 81.927 3.304L81.696 4.462C81.68 4.509 81.665 4.555 81.665 4.601C81.649 4.648 81.649 4.694 81.649 4.725C81.649 4.802 81.665 4.833 81.711 4.879C81.742 4.91 81.804 4.941 81.865 4.926C81.896 4.926 81.912 4.926 81.958 4.926C81.989 4.926 82.035 4.91 82.097 4.895L82.19 5.064C82.082 5.126 81.974 5.173 81.881 5.203C81.788 5.234 81.696 5.25 81.588 5.25C81.464 5.25 81.325 5.203 81.248 5.111C81.171 5.018 81.124 4.895 81.109 4.725C80.954 4.864 80.769 5.018 80.568 5.126ZM88.258 1.791L88.258 2.069C87.98 2.131 87.733 2.316 87.532 2.609C87.27 2.98 87.146 3.428 87.146 3.968C87.146 4.292 87.223 4.54 87.362 4.709C87.517 4.879 87.717 4.972 87.995 4.972C88.088 4.972 88.165 4.956 88.258 4.941L88.258 5.219C88.181 5.219 88.119 5.234 88.042 5.234C87.578 5.234 87.223 5.095 86.945 4.833C86.667 4.57 86.544 4.215 86.544 3.767C86.544 3.212 86.729 2.748 87.069 2.362C87.378 2.023 87.81 1.822 88.258 1.791ZM90.404 4.246L90.512 4.246C90.543 4.462 90.636 4.632 90.775 4.771C90.914 4.895 91.083 4.956 91.3 4.956C91.516 4.956 91.686 4.895 91.809 4.771C91.933 4.648 92.01 4.478 91.994 4.308C91.994 4.076 91.778 3.86 91.361 3.69C91.346 3.69 91.315 3.675 91.3 3.659C91.037 3.551 90.852 3.412 90.744 3.289C90.636 3.15 90.574 2.965 90.589 2.795C90.589 2.486 90.697 2.239 90.914 2.054C91.13 1.853 91.408 1.76 91.732 1.76C91.917 1.76 92.087 1.776 92.242 1.822C92.396 1.868 92.535 1.93 92.689 2.007C92.643 2.084 92.612 2.177 92.581 2.27C92.55 2.362 92.535 2.47 92.504 2.563L92.396 2.563C92.334 2.378 92.241 2.239 92.133 2.162C92.025 2.069 91.886 2.023 91.717 2.023C91.547 2.023 91.392 2.069 91.284 2.193C91.176 2.301 91.114 2.44 91.114 2.594C91.114 2.81 91.315 3.011 91.717 3.165C91.747 3.165 91.763 3.181 91.778 3.196C92.072 3.32 92.257 3.428 92.365 3.567C92.473 3.706 92.535 3.86 92.535 4.076C92.535 4.416 92.427 4.694 92.18 4.895C91.948 5.111 91.624 5.219 91.238 5.219C91.037 5.219 90.852 5.188 90.667 5.126C90.481 5.064 90.327 4.972 90.188 4.864C90.219 4.756 90.25 4.632 90.296 4.524C90.311 4.431 90.358 4.339 90.404 4.246ZM88.258 5.219L88.258 4.941C88.52 4.864 88.737 4.694 88.953 4.401C89.231 4.015 89.354 3.551 89.354 3.011C89.354 2.718 89.277 2.486 89.123 2.301C88.968 2.131 88.752 2.038 88.489 2.038L88.474 2.038C88.397 2.038 88.335 2.038 88.258 2.069L88.258 1.791L88.397 1.791C88.906 1.791 89.292 1.915 89.57 2.177C89.864 2.44 90.003 2.795 90.003 3.243C90.003 3.798 89.802 4.262 89.431 4.663C89.123 4.972 88.706 5.173 88.258 5.219Z" fill="rgb(24,116,82)" fill-opacity="1.000" fill-rule="nonzero" transform="matrix(1 0 0 1 18.3105 46.7202)"/><path d="M0 0L0 6.84L6.809 13.649L13.665 13.649L0 0Z" fill="rgb(143,177,149)" fill-opacity="1.000" fill-rule="nonzero" transform="matrix(1 0 0 1 31.9907 9.03)"/><path d="M13.634 27.299L0 13.649L13.634 0.015L13.634 6.856L6.809 13.649L13.634 20.443L13.634 27.299ZM13.649 0.031L13.649 6.809L20.459 13.665L27.268 13.665L13.649 27.314L13.634 27.299L13.634 20.459L13.649 20.474L20.459 13.665L13.649 6.856L13.634 6.871L13.634 0.015L13.649 0L13.649 0.031Z" fill="rgb(75,140,105)" fill-opacity="1.000" fill-rule="nonzero" transform="matrix(1 0 0 1 18.3418 9.03)"/><path d="M13.665 13.696L0 0L0 14.437L27.33 14.437L27.33 0L13.665 13.696Z" fill="rgb(24,116,82)" fill-opacity="1.000" fill-rule="nonzero" transform="matrix(1 0 0 1 18.3418 29.4886)"/><path d="M6.84 0L0 6.809L6.84 13.649L13.649 6.809L6.84 0ZM62.38 26.187C62.241 26.681 62.102 27.175 61.963 27.654C62.102 27.608 62.256 27.577 62.38 27.546L62.38 26.187ZM62.38 8.755L62.38 9.341C60.774 11.966 59.168 14.591 57.608 17.232C55.555 20.69 53.501 24.164 51.494 27.654C51.278 27.592 51.062 27.546 50.846 27.53C50.645 27.5 50.429 27.5 50.228 27.5C50.027 27.5 49.826 27.515 49.626 27.53C49.41 27.561 49.193 27.592 48.977 27.654C48.56 24.581 48.082 21.524 47.526 18.467C46.97 15.317 46.321 12.044 45.596 8.662C45.982 8.724 46.352 8.77 46.707 8.801C47.078 8.832 47.449 8.847 47.819 8.847C48.205 8.847 48.607 8.832 49.008 8.801C49.425 8.77 49.842 8.724 50.259 8.662C50.506 11.241 50.784 13.696 51.093 16.027C51.386 18.343 51.757 20.582 52.143 22.698C53.671 20.428 55.123 18.081 56.481 15.703C57.778 13.418 58.983 11.071 60.064 8.662C60.295 8.724 60.511 8.77 60.727 8.801C60.959 8.832 61.175 8.847 61.407 8.847C61.638 8.847 61.87 8.832 62.117 8.801C62.194 8.786 62.287 8.786 62.38 8.755ZM40.176 27.036C39.342 27.376 38.478 27.623 37.598 27.808C36.733 27.978 35.837 28.071 34.942 28.071C32.163 28.071 29.985 27.33 28.426 25.847C26.851 24.365 26.064 22.327 26.064 19.702C26.064 16.274 27.144 13.51 29.306 11.426C31.468 9.341 34.324 8.292 37.876 8.292C39.157 8.292 40.331 8.415 41.381 8.678C42.43 8.925 43.341 9.295 44.113 9.789C43.851 10.314 43.619 10.839 43.419 11.364C43.202 11.889 43.033 12.414 42.863 12.939L42.647 12.769C42.23 11.858 41.535 11.102 40.67 10.623C39.79 10.114 38.771 9.851 37.628 9.851C36.47 9.851 35.436 10.098 34.556 10.592C33.645 11.086 32.842 11.843 32.116 12.862C31.468 13.819 30.958 14.946 30.603 16.213C30.248 17.494 30.063 18.822 30.063 20.165C30.063 22.188 30.541 23.763 31.483 24.875C32.425 25.986 33.753 26.542 35.467 26.542C36.362 26.542 37.258 26.372 38.153 26.064C39.049 25.77 39.914 25.292 40.763 24.689L41.01 24.906C40.84 25.322 40.686 25.708 40.547 26.048C40.408 26.403 40.3 26.727 40.176 27.036ZM62.38 9.341C62.519 9.125 62.658 8.894 62.812 8.662C62.673 8.693 62.534 8.724 62.38 8.755L62.38 9.341ZM62.38 27.546L62.38 26.187C62.997 24.025 63.63 21.632 64.279 19.038C65.143 15.595 65.946 12.152 66.687 8.678C66.935 8.724 67.166 8.77 67.398 8.817C67.614 8.847 67.846 8.863 68.077 8.863C68.293 8.863 68.54 8.847 68.772 8.817C69.004 8.786 69.235 8.739 69.482 8.678C70.054 10.932 70.671 13.186 71.335 15.41C71.984 17.54 72.663 19.656 73.389 21.771C74.979 19.733 76.554 17.664 78.083 15.579C79.688 13.387 81.34 11.086 83.054 8.662C83.286 8.724 83.502 8.77 83.734 8.801C83.95 8.832 84.197 8.847 84.413 8.847C84.66 8.847 84.907 8.832 85.139 8.801C85.37 8.77 85.602 8.724 85.834 8.662C84.83 13.063 84.058 16.923 83.502 20.242C82.946 23.562 82.668 26.017 82.638 27.654C82.313 27.577 81.989 27.546 81.618 27.5C80.862 27.422 80.105 27.422 79.349 27.5C78.978 27.53 78.608 27.577 78.252 27.654C78.53 26.635 78.855 25.199 79.194 23.315C79.565 21.431 79.997 18.76 80.568 15.317C78.901 17.34 77.311 19.424 75.797 21.555C74.315 23.609 72.925 25.708 71.613 27.87L70.702 27.87C70.239 25.569 69.698 23.284 69.081 21.015C68.479 18.837 67.846 16.768 67.135 14.807L65.638 20.968C65.421 21.895 65.236 22.836 65.066 23.763C64.866 24.921 64.649 26.187 64.433 27.638C64.202 27.577 63.955 27.53 63.707 27.484C63.522 27.453 63.352 27.438 63.167 27.438C62.982 27.438 62.796 27.453 62.611 27.484C62.534 27.515 62.457 27.53 62.38 27.546Z" fill="rgb(24,116,82)" fill-opacity="1.000" fill-rule="nonzero" transform="matrix(1 0 0 1 25.1509 15.8701)"/></svg>