<svg xmlns="http://www.w3.org/2000/svg" viewBox="0 0 130 60" width="130" height="60"><path d="M0 0L130 0L130 60L0 60L0 0Z" fill="rgb(255,255,255)" fill-opacity="1.000" fill-rule="nonzero" transform="matrix(1 0 0 1 0 0)"/><path d="M3.648 5.927C3.789 6.776 4.166 7.536 4.709 8.067C5.259 8.604 5.92 8.84 6.561 8.735C6.85 8.686 7.392 8.525 7.778 7.983C8.157 7.45 8.271 6.709 8.116 5.78C7.986 4.996 7.623 4.242 7.12 3.71C6.564 3.121 5.88 2.859 5.198 2.973C4.565 3.078 4.091 3.433 3.827 3.999C3.586 4.515 3.524 5.182 3.648 5.927ZM6.418 11.703C2.879 11.703 0 8.817 0 5.271C0 2.723 1.407 0 5.353 0C9.327 0 11.786 3.339 11.786 6.432C11.786 10.318 9.013 11.703 6.418 11.703Z" fill="rgb(255,96,64)" fill-opacity="1.000" fill-rule="nonzero" transform="matrix(1 0 0 -1 27.5163 40)"/><path d="M3.514 7.065C3.714 7.577 4.429 8.992 6.244 8.992C7.138 8.992 7.762 8.667 7.762 8.202C7.762 7.493 7.061 7.078 3.514 7.065ZM10.72 8.187C10.72 10.615 8.617 11.702 6.534 11.702C2.87 11.702 0 8.877 0 5.27C0 2.019 2.056 0 5.365 0C7.191 0 8.868 0.742 10.088 2.091L10.277 2.3L7.925 3.988L7.855 3.872C7.826 3.825 7.13 2.71 5.545 2.71C3.777 2.71 3.304 3.951 3.19 4.412C6.772 4.425 8.695 4.874 9.807 5.951C10.413 6.537 10.72 7.29 10.72 8.187Z" fill="rgb(255,96,64)" fill-opacity="1.000" fill-rule="nonzero" transform="matrix(1 0 0 -1 52.3365 39.9986)"/><path d="M7.971 11.535C6.454 11.535 5.386 10.761 4.77 10.134L4.95 11.248L1.842 11.248L0 0.006L3.506 0.004L4.385 5.388C4.672 7.145 5.661 8.325 6.846 8.325C7.206 8.325 7.479 8.214 7.66 7.996C7.948 7.648 8.019 7.002 7.861 6.173L6.88 0.006L9.966 0.001L10.082 0.001L10.508 0L11.69 7.132C11.893 8.371 11.642 9.449 10.962 10.249C10.306 11.021 9.547 11.535 7.971 11.535Z" fill="rgb(255,96,64)" fill-opacity="1.000" fill-rule="nonzero" transform="matrix(1 0 0 -1 39.6412 39.7448)"/><path d="M8.561 11.395C8.426 11.416 8.21 11.441 7.952 11.441C6.45 11.441 5.373 10.665 4.749 10.04L4.946 11.245L1.837 11.245L0 0L3.505 0L4.316 4.987C4.54 6.369 5.16 8.016 6.845 8.016C7.508 8.016 7.854 7.801 7.867 7.793L8.14 7.609L8.753 11.365L8.561 11.395Z" fill="rgb(41,59,132)" fill-opacity="1.000" fill-rule="nonzero" transform="matrix(1 0 0 -1 106.6076 39.7418)"/><path d="M6.117 14.604L2.381 14.037L1.963 11.481L0.494 11.481L0 8.541L1.488 8.541L0.667 3.58C0.52 2.661 0.776 1.735 1.37 1.038C1.941 0.369 2.75 0 3.647 0C4.927 0 5.637 0.231 5.667 0.241L5.739 0.265L6.197 3.051L6.027 3.026C6.023 3.026 5.68 2.976 5.341 2.976C5.007 2.976 4.665 2.993 4.5 3.186C4.354 3.358 4.329 3.662 4.416 4.203L5.124 8.541L7.492 8.541L7.977 11.481L5.607 11.481L6.117 14.604Z" fill="rgb(255,96,64)" fill-opacity="1.000" fill-rule="nonzero" transform="matrix(1 0 0 -1 74.0274 39.9778)"/><path d="M7.756 8.356L7.469 6.455C6.982 3.494 5.552 3.174 4.959 3.174C4.106 3.174 3.532 3.885 3.532 4.944C3.532 6.556 4.961 8.525 6.629 8.525C7.234 8.525 7.605 8.414 7.756 8.356ZM7.386 11.691C3.244 11.691 0 8.484 0 4.39C0 1.508 2.039 0 4.052 0C5.563 0 6.519 0.753 7.026 1.321L6.851 0.25L9.96 0.251L11.714 10.975L11.733 11.088L11.622 11.116C11.6 11.122 9.403 11.691 7.386 11.691Z" fill="rgb(41,59,132)" fill-opacity="1.000" fill-rule="nonzero" transform="matrix(1 0 0 -1 94.5078 39.9912)"/><path d="M6.438 11.7C3.273 11.7 0 9.3 0 5.282C0 2.172 2.205 0 5.362 0C7.018 0 8.249 0.688 8.301 0.717L8.378 0.761L7.942 3.343L7.787 3.261C7.5 3.108 6.914 2.851 6.224 2.851C4.546 2.851 3.504 3.884 3.504 5.549C3.504 7.366 5.026 8.843 6.897 8.843C7.727 8.843 8.449 8.418 8.457 8.414L8.615 8.319L9.077 11.125L8.993 11.167C8.949 11.189 7.898 11.7 6.438 11.7Z" fill="rgb(255,96,64)" fill-opacity="1.000" fill-rule="nonzero" transform="matrix(1 0 0 -1 63.9867 39.9997)"/><path d="M12.021 15.076C11.961 15.104 10.537 15.747 8.726 15.747C4.437 15.747 0 12.467 0 6.977C0 3.758 1.894 0 7.229 0C9.178 0 10.89 0.865 10.962 0.902L11.044 0.943L10.544 4.009L10.39 3.929C9.969 3.708 9.101 3.339 8.012 3.339C5.511 3.339 3.895 4.908 3.895 7.336C3.895 10.175 6.144 12.401 9.015 12.401C10.18 12.401 11.132 11.917 11.396 11.768L11.553 11.681L12.108 15.036L12.021 15.076Z" fill="rgb(255,96,64)" fill-opacity="1.000" fill-rule="nonzero" transform="matrix(1 0 0 -1 15.4339 39.998)"/><path d="M12.021 15.076C11.961 15.104 10.536 15.747 8.726 15.747C4.437 15.747 0 12.467 0 6.977C0 3.758 1.893 0 7.228 0C9.178 0 10.89 0.865 10.962 0.902L11.043 0.943L10.544 4.009L10.39 3.929C9.969 3.708 9.101 3.339 8.012 3.339C5.511 3.339 3.895 4.908 3.895 7.336C3.895 10.175 6.144 12.401 9.015 12.401C10.18 12.401 11.132 11.917 11.396 11.768L11.553 11.681L12.108 15.036L12.021 15.076Z" fill="rgb(41,59,132)" fill-opacity="1.000" fill-rule="nonzero" transform="matrix(1 0 0 -1 82.4193 39.9978)"/><path d="M1.843 0C2.861 0 3.687 0.826 3.687 1.845C3.687 2.863 2.861 3.689 1.843 3.689C0.825 3.689 0 2.863 0 1.845C0 0.826 0.825 0 1.843 0Z" fill="rgb(41,59,132)" fill-opacity="1.000" fill-rule="nonzero" transform="matrix(1 0 0 -1 33.2385 25.5244)"/><path d="M2.221 4.444C0.996 4.444 0 3.448 0 2.222C0 0.997 0.996 0 2.221 0C3.445 0 4.441 0.997 4.441 2.222C4.441 3.448 3.445 4.444 2.221 4.444Z" fill="rgb(41,59,132)" fill-opacity="1.000" fill-rule="nonzero" transform="matrix(1 0 0 -1 39.9525 25.5244)"/><path d="M2.598 5.199C1.166 5.199 0 4.033 0 2.6C0 1.166 1.166 0 2.598 0C4.031 0 5.196 1.166 5.196 2.6C5.196 4.033 4.031 5.199 2.598 5.199Z" fill="rgb(41,59,132)" fill-opacity="1.000" fill-rule="nonzero" transform="matrix(1 0 0 -1 47.4201 25.5242)"/><path d="M2.976 5.954C1.335 5.954 0 4.618 0 2.977C0 1.336 1.335 0 2.976 0C4.617 0 5.952 1.336 5.952 2.977C5.952 4.618 4.617 5.954 2.976 5.954Z" fill="rgb(41,59,132)" fill-opacity="1.000" fill-rule="nonzero" transform="matrix(1 0 0 -1 55.6454 25.5244)"/></svg>