<svg xmlns="http://www.w3.org/2000/svg" viewBox="0 0 60 60" width="60" height="60"><path d="M0 0L60 0L60 60L0 60L0 0Z" fill="rgb(255,255,255)" fill-opacity="1.000" fill-rule="nonzero" transform="matrix(1 0 0 1 0 0)"/><path d="M16.483 20.672C16.401 20.71 14.448 21.593 11.966 21.593C6.084 21.593 0 17.094 0 9.567C0 5.154 2.596 0 9.912 0C12.585 0 14.933 1.186 15.031 1.237L15.143 1.294L14.458 5.497L14.247 5.387C13.67 5.085 12.48 4.579 10.987 4.579C7.557 4.579 5.341 6.73 5.341 10.059C5.341 13.953 8.425 17.004 12.362 17.004C13.959 17.004 15.265 16.341 15.627 16.137L15.841 16.017L16.603 20.618L16.483 20.672Z" fill="rgb(255,96,64)" fill-opacity="1.000" fill-rule="nonzero" transform="matrix(1 0 0 -1 12.3664 46.6765)"/><path d="M16.483 20.672C16.401 20.71 14.447 21.593 11.966 21.593C6.084 21.593 0 17.094 0 9.567C0 5.154 2.596 0 9.912 0C12.585 0 14.933 1.186 15.031 1.237L15.143 1.294L14.458 5.497L14.247 5.387C13.67 5.085 12.479 4.579 10.987 4.579C7.557 4.579 5.341 6.73 5.341 10.059C5.341 13.953 8.425 17.004 12.362 17.004C13.959 17.004 15.265 16.341 15.627 16.137L15.841 16.017L16.603 20.618L16.483 20.672Z" fill="rgb(41,59,132)" fill-opacity="1.000" fill-rule="nonzero" transform="matrix(1 0 0 -1 30.3974 46.6762)"/><path d="M2.787 0C4.326 0 5.575 1.249 5.575 2.789C5.575 4.329 4.326 5.578 2.787 5.578C1.248 5.578 0 4.329 0 2.789C0 1.249 1.248 0 2.787 0Z" fill="rgb(41,59,132)" fill-opacity="1.000" fill-rule="nonzero" transform="matrix(1 0 0 -1 16.8742 21.2874)"/><path d="M3.358 6.72C1.506 6.72 0 5.213 0 3.36C0 1.508 1.506 0 3.358 0C5.209 0 6.716 1.508 6.716 3.36C6.716 5.213 5.209 6.72 3.358 6.72Z" fill="rgb(41,59,132)" fill-opacity="1.000" fill-rule="nonzero" transform="matrix(1 0 0 -1 27.0276 21.2874)"/><path d="M3.929 7.861C1.763 7.861 0 6.098 0 3.931C0 1.764 1.763 0 3.929 0C6.095 0 7.857 1.764 7.857 3.931C7.857 6.098 6.095 7.861 3.929 7.861Z" fill="rgb(41,59,132)" fill-opacity="1.000" fill-rule="nonzero" transform="matrix(1 0 0 -1 38.3167 21.2874)"/></svg>