<svg xmlns="http://www.w3.org/2000/svg" viewBox="0 0 60 60" width="60" height="60"><path d="M0 0L60 0L60 60L0 60L0 0Z" fill="rgb(230,113,100)" fill-opacity="1.000" fill-rule="nonzero" transform="matrix(1 0 0 1 0 0)"/><path d="M13.75 37C13.654 37 13.557 36.991 13.46 36.973C5.409 35.466 0 31.095 0 26.097C0 23.308 1.689 20.748 4.51 18.763C1.658 16.764 0 14.188 0 11.401C0 5.309 8.084 0.301 18.405 0.002C18.829 -0.02 19.232 0.142 19.537 0.433C19.838 0.72 20.005 1.106 20.005 1.519L20.005 14.401C20.005 15.215 19.336 15.894 18.514 15.917C13.969 16.038 9.888 17.087 6.834 18.73C8.833 19.818 11.281 20.657 14.032 21.138C14.764 21.266 15.296 21.894 15.296 22.632L15.296 35.481C15.296 35.934 15.092 36.361 14.735 36.65C14.455 36.878 14.107 37 13.75 37ZM5.598 19.464C2.878 21.249 1.243 23.568 1.243 26.097C1.243 30.491 6.246 34.379 13.693 35.774C13.814 35.796 13.901 35.743 13.943 35.71C13.984 35.677 14.053 35.602 14.053 35.481L14.053 22.632C14.053 22.49 13.95 22.364 13.814 22.341C10.614 21.781 7.82 20.779 5.598 19.464ZM18.452 1.222L18.442 1.222C8.798 1.502 1.243 5.973 1.243 11.401C1.243 13.871 2.888 16.212 5.655 18.026C8.955 16.079 13.453 14.831 18.48 14.696C18.635 14.692 18.762 14.56 18.762 14.401L18.762 1.519C18.762 1.411 18.705 1.341 18.671 1.309C18.636 1.276 18.563 1.222 18.452 1.222Z" fill="rgb(255,255,255)" fill-opacity="1.000" fill-rule="nonzero" transform="matrix(1 0 0 1 20 12)"/></svg>