<svg xmlns="http://www.w3.org/2000/svg" viewBox="0 0 60 60" width="60" height="60"><path d="M0 0L60 0L60 60L0 60L0 0Z" fill="rgb(38,135,233)" fill-opacity="1.000" fill-rule="nonzero" transform="matrix(1 0 0 1 0 0)"/><path d="M11.529 14.351L0 14.351C0.006 17.438 1.241 20.397 3.434 22.58C5.626 24.763 8.598 25.993 11.699 26L23.23 26C23.224 22.912 21.989 19.953 19.796 17.77C17.603 15.587 14.63 14.357 11.529 14.351ZM17.466 0C14.364 0.006 11.391 1.236 9.198 3.42C7.005 5.604 5.77 8.564 5.764 11.652L17.293 11.652C20.396 11.647 23.37 10.418 25.565 8.234C27.759 6.05 28.994 3.089 29 0L17.466 0Z" fill="rgb(255,255,255)" fill-opacity="1.000" fill-rule="nonzero" transform="matrix(1 0 0 1 16 17)"/></svg>