<svg xmlns="http://www.w3.org/2000/svg" viewBox="0 0 130 60" width="130" height="60"><path d="M0 0L130 0L130 60L0 60L0 0Z" fill="rgb(255,255,255)" fill-opacity="1.000" fill-rule="nonzero" transform="matrix(1 0 0 1 0 0)"/><path d="M18.471 3.212C15.118 3.212 12.94 5.707 12.94 8.594C12.94 11.611 15.031 13.999 18.471 13.999C21.781 13.999 23.959 11.46 23.959 8.594C23.959 5.6 21.868 3.212 18.471 3.212ZM18.45 11.46C16.73 11.46 15.924 10.07 15.924 8.594C15.924 7.14 16.73 5.751 18.471 5.751C20.191 5.751 20.975 7.118 20.975 8.594C20.975 10.07 20.192 11.46 18.45 11.46ZM11.581 10.567L10.106 9.441C9.409 10.505 8.298 11.22 6.773 11.22C4.421 11.22 3.071 9.375 3.071 6.987C3.071 4.687 4.29 2.777 6.838 2.777C8.319 2.777 9.321 3.428 9.996 4.492L11.487 3.351C11.83 3.087 11.908 2.598 11.653 2.247C10.515 0.679 8.743 0 6.817 0C2.157 0 0 3.473 0 6.989C0 11.155 2.483 14 6.773 14C8.82 14 10.626 13.267 11.753 11.664C12.001 11.312 11.922 10.827 11.581 10.567ZM31.75 3.212C30.271 3.212 29.095 3.841 28.311 4.861C28.289 4.579 28.245 4.297 28.18 3.993C28.049 3.624 27.767 3.45 27.31 3.45L25.565 3.45L25.565 13.76L28.549 13.76L28.549 8.855C28.549 6.772 29.55 5.751 31.032 5.751C32.208 5.751 32.86 6.445 32.86 7.878L32.86 13.76L35.844 13.76L35.844 7.987C35.845 4.817 34.364 3.212 31.75 3.212ZM43.367 11.38C43.196 11.429 43.016 11.461 42.834 11.461C41.637 11.461 40.962 10.767 40.962 9.291L40.962 5.928L43.63 5.928C44.075 5.928 44.436 5.567 44.436 5.124L44.436 3.454L40.963 3.454L40.963 1.975C40.963 1.532 40.601 1.172 40.157 1.172L37.981 1.172L37.981 9.182C37.981 12.162 39.298 13.999 41.93 13.999C43.47 13.999 44.549 13.334 45.044 12.949L44.268 11.722C44.076 11.423 43.71 11.28 43.367 11.38ZM50.966 3.212C49.323 3.212 48.077 3.518 46.845 4.357C46.442 4.632 46.366 5.194 46.673 5.573L47.503 6.598C48.592 5.751 49.506 5.577 50.574 5.577C51.968 5.577 52.882 6.314 52.882 7.921L52.882 8.052C52.055 7.747 51.118 7.596 50.073 7.596C47.068 7.596 45.826 9.203 45.826 10.851C45.826 12.458 46.894 13.999 49.593 13.999C51.314 13.999 52.469 13.259 53.165 12.304C53.188 12.586 53.21 12.867 53.275 13.172C53.362 13.584 53.688 13.758 54.146 13.758L55.691 13.758L55.691 8.074C55.693 4.688 53.601 3.212 50.966 3.212ZM52.774 9.875C52.599 10.983 51.706 11.828 50.095 11.828C49.202 11.828 48.593 11.481 48.593 10.7C48.593 9.875 49.181 9.463 50.575 9.463C51.402 9.463 52.078 9.571 52.796 9.745L52.774 9.875ZM82.186 11.286L77.482 11.286L82.358 5.948C82.641 5.644 82.75 5.362 82.75 4.95L82.75 4.256L82.753 3.45L74.717 3.45C74.216 3.45 73.912 3.732 73.912 4.252L73.912 5.923L79.052 5.923L74.198 11.26C73.915 11.542 73.784 11.824 73.784 12.238L73.784 13.76L82.994 13.76L82.994 12.089C82.991 11.568 82.687 11.286 82.186 11.286L82.186 11.286ZM93.791 3.45L91.51 3.45L91.51 8.377C91.51 10.46 90.573 11.458 89.093 11.458C87.961 11.458 87.329 10.764 87.329 9.353L87.329 4.148C87.329 3.762 87.015 3.449 86.627 3.449L84.345 3.449L84.345 9.245C84.345 12.37 85.804 13.999 88.374 13.999C89.811 13.999 90.943 13.369 91.749 12.371C91.771 12.632 91.813 12.935 91.88 13.195C91.987 13.587 92.293 13.759 92.75 13.759L94.495 13.759L94.495 4.148C94.493 3.763 94.179 3.45 93.791 3.45ZM98.774 0.222L96.598 0.222L96.598 12.957C96.598 13.4 96.959 13.76 97.404 13.76L99.58 13.76L99.58 1.025C99.578 0.582 99.219 0.222 98.774 0.222ZM67.211 0.216L64.415 0.216L59.123 13.76L62.172 13.76L63.327 10.526L68.858 10.526L70.034 13.76L73.169 13.76L68.144 0.845C67.994 0.412 67.668 0.216 67.211 0.216ZM64.154 7.987L66.092 2.777L68.031 7.987L64.154 7.987Z" fill="rgb(38,135,233)" fill-opacity="1.000" fill-rule="nonzero" transform="matrix(1 0 0 1 15 23)"/></svg>