<svg xmlns="http://www.w3.org/2000/svg" viewBox="0 0 130 60" width="130" height="60"><path d="M0 0L130 0L130 60L0 60L0 0Z" fill="rgb(255,255,255)" fill-opacity="1.000" fill-rule="nonzero" transform="matrix(1 0 0 1 0 0)"/><path d="M11.609 12.548C10.72 13.258 9.551 13.684 8.428 13.684C6.229 13.684 4.311 12.264 3.609 10.182L15.96 10.182C16.428 10.182 16.802 9.803 16.802 9.33L16.802 8.667C16.802 4.172 13.153 0.196 8.802 0.007C6.463 -0.088 4.124 0.764 2.486 2.468C0.802 4.124 -0.087 6.49 0.007 8.857C0.147 12.642 2.767 15.766 6.275 16.712C6.743 16.854 7.258 16.949 7.773 16.949C10.86 17.186 13.854 15.671 15.492 13.021L15.586 12.832L14.697 12.264C13.761 11.743 12.498 11.838 11.609 12.548ZM3.563 6.869C4.264 4.787 6.229 3.367 8.381 3.367C10.58 3.367 12.498 4.787 13.2 6.869L3.563 6.869Z" fill="rgb(0,54,65)" fill-opacity="1.000" fill-rule="nonzero" transform="matrix(1 0 0 1 73.4513 19.3191)"/><path d="M8.889 0.142C8.795 0.047 8.656 0 8.515 0C3.509 0.142 0 3.549 0 8.329L0 16.137C0 16.611 0.374 16.989 0.842 16.989L2.76 16.989C3.228 16.989 3.603 16.611 3.603 16.137L3.603 8.329C3.603 6.957 4.071 3.786 8.515 3.644C8.795 3.644 9.03 3.407 9.03 3.123L9.03 0.521C9.03 0.379 8.983 0.237 8.889 0.142Z" fill="rgb(0,54,65)" fill-opacity="1.000" fill-rule="nonzero" transform="matrix(1 0 0 1 91.6563 19.4206)"/><path d="M7.744 0.025C3.627 0.357 0.352 3.669 0.025 7.834C-0.349 12.803 3.534 16.967 8.399 16.967C10.224 16.967 12.001 16.352 13.498 15.216L13.498 16.257C13.498 16.636 13.826 16.967 14.201 16.967L16.118 16.967C16.492 16.967 16.82 16.636 16.82 16.257L16.82 8.449C16.774 3.575 12.657 -0.353 7.744 0.025ZM8.399 13.465C5.639 13.465 3.44 11.241 3.44 8.449C3.44 5.657 5.639 3.433 8.399 3.433C11.16 3.433 13.358 5.657 13.358 8.449C13.358 11.241 11.113 13.465 8.399 13.465Z" fill="rgb(0,54,65)" fill-opacity="1.000" fill-rule="nonzero" transform="matrix(1 0 0 1 100.6134 19.4429)"/><path d="M6.456 4.59C3.977 4.59 1.918 2.555 1.918 0C1.918 2.035 1.216 3.881 0 5.348C1.544 7.24 3.836 8.424 6.409 8.424C11.041 8.471 14.784 4.685 14.784 0.047L10.994 0.047C10.994 2.555 8.936 4.59 6.456 4.59Z" fill="rgb(0,54,65)" fill-opacity="1.000" fill-rule="nonzero" transform="matrix(1 0 0 1 39.4463 27.9394)"/><path d="M19.181 0C16.328 0 13.801 1.467 12.304 3.691C12.257 3.739 12.211 3.833 12.164 3.928C12.07 4.07 11.977 4.212 11.883 4.354C11.836 4.448 11.789 4.543 11.743 4.638C11.649 4.78 11.602 4.922 11.556 5.064C11.509 5.158 11.462 5.253 11.415 5.348C11.368 5.49 11.322 5.631 11.275 5.773C11.228 5.868 11.228 5.963 11.181 6.057C11.135 6.199 11.088 6.389 11.041 6.531C11.041 6.625 10.994 6.72 10.994 6.815C10.947 7.004 10.947 7.146 10.901 7.335C10.901 7.43 10.854 7.524 10.854 7.619C10.807 7.903 10.807 8.14 10.807 8.424C10.807 10.932 8.795 13.014 6.269 13.014C3.789 13.014 1.731 10.979 1.731 8.424C1.778 10.506 1.123 12.351 0 13.818C1.497 15.664 3.743 16.8 6.269 16.8C10.854 16.8 14.596 13.014 14.596 8.376C14.596 5.868 16.608 3.786 19.135 3.786C21.661 3.786 23.673 5.821 23.673 8.376L27.509 8.376C27.509 3.739 23.766 0 19.181 0Z" fill="rgb(150,220,0)" fill-opacity="1.000" fill-rule="nonzero" transform="matrix(1 0 0 1 26.7212 19.5626)"/><path d="M16.515 7.674C16.14 3.462 12.678 0.149 8.515 0.007C6.269 -0.087 4.164 0.717 2.62 2.232C0.936 3.841 0 6.112 0 8.478L0 21.587L0.187 21.587C1.871 21.587 3.275 20.167 3.275 18.464L3.275 15.198C4.772 16.381 6.316 16.949 8.14 16.949C10.48 16.949 12.772 15.956 14.363 14.157C15.953 12.406 16.749 10.087 16.515 7.674ZM8.281 13.305C5.614 13.305 3.462 11.128 3.462 8.431C3.462 5.734 5.614 3.557 8.281 3.557C10.947 3.557 13.099 5.734 13.099 8.431C13.099 11.128 10.947 13.305 8.281 13.305Z" fill="rgb(0,54,65)" fill-opacity="1.000" fill-rule="nonzero" transform="matrix(1 0 0 1 55.5396 19.413)"/><path d="M21.358 0.033C16.773 0.033 13.031 3.819 13.031 8.456C13.171 12.148 10.177 14.23 6.762 13.189C5.779 12.905 4.937 12.195 4.422 11.296C2.317 7.557 4.937 3.724 8.446 3.724C8.68 3.724 8.867 3.724 9.101 3.771C9.803 3.866 10.458 3.535 10.738 2.919C11.066 2.257 11.393 1.452 11.627 1.027C11.721 0.837 11.627 0.648 11.44 0.553C10.083 0.033 8.867 -0.109 7.276 0.08C4.656 0.364 1.662 2.636 0.68 5.096C-1.753 11.296 2.691 17.164 8.493 17.164C13.171 17.164 16.96 13.331 16.867 8.456L16.867 8.125C16.867 6.658 17.615 5.286 18.879 4.576C22.387 2.588 25.896 5.144 25.896 8.456C25.896 6.421 26.598 4.576 27.814 3.109C26.27 1.216 23.931 0.033 21.358 0.033Z" fill="rgb(0,54,65)" fill-opacity="1.000" fill-rule="nonzero" transform="matrix(1 0 0 1 11.6787 19.5297)"/></svg>