<svg xmlns="http://www.w3.org/2000/svg" viewBox="0 0 60 60" width="60" height="60"><path d="M0 0L60 0L60 60L0 60L0 0Z" fill="rgb(0,54,65)" fill-opacity="1.000" fill-rule="nonzero" transform="matrix(1 0 0 1 0 0)"/><path d="M7.61 5.411C4.687 5.411 2.261 3.012 2.261 0C2.261 2.399 1.434 4.574 0 6.304C1.82 8.535 4.522 9.929 7.555 9.929C13.015 9.985 17.426 5.523 17.426 0.056L12.96 0.056C12.96 3.012 10.533 5.411 7.61 5.411Z" fill="rgb(255,255,255)" fill-opacity="1.000" fill-rule="nonzero" transform="matrix(1 0 0 1 37.7186 29.6811)"/><path d="M22.61 0C19.246 0 16.268 1.729 14.504 4.351C14.449 4.407 14.393 4.518 14.338 4.63C14.228 4.797 14.118 4.965 14.007 5.132C13.952 5.244 13.897 5.355 13.842 5.467C13.732 5.634 13.676 5.801 13.621 5.969C13.566 6.08 13.511 6.192 13.456 6.304C13.401 6.471 13.346 6.638 13.29 6.806C13.235 6.917 13.235 7.029 13.18 7.14C13.125 7.308 13.07 7.531 13.015 7.698C13.015 7.81 12.96 7.921 12.96 8.033C12.904 8.256 12.904 8.423 12.849 8.646C12.849 8.758 12.794 8.87 12.794 8.981C12.739 9.316 12.739 9.595 12.739 9.929C12.739 12.886 10.368 15.34 7.39 15.34C4.467 15.34 2.04 12.942 2.04 9.929C2.096 12.384 1.324 14.559 0 16.289C1.765 18.464 4.412 19.803 7.39 19.803C12.794 19.803 17.206 15.34 17.206 9.874C17.206 6.917 19.577 4.463 22.555 4.463C25.533 4.463 27.904 6.861 27.904 9.874L32.427 9.874C32.427 4.407 28.015 0 22.61 0Z" fill="rgb(150,220,0)" fill-opacity="1.000" fill-rule="nonzero" transform="matrix(1 0 0 1 22.7184 19.8067)"/><path d="M25.176 0.039C19.772 0.039 15.36 4.501 15.36 9.968C15.526 14.319 11.996 16.774 7.97 15.546C6.812 15.212 5.82 14.375 5.213 13.315C2.731 8.908 5.82 4.39 9.956 4.39C10.231 4.39 10.452 4.39 10.728 4.445C11.555 4.557 12.327 4.167 12.658 3.441C13.044 2.66 13.43 1.712 13.706 1.21C13.816 0.987 13.706 0.764 13.485 0.652C11.886 0.039 10.452 -0.129 8.577 0.094C5.489 0.429 1.959 3.107 0.801 6.007C-2.066 13.315 3.173 20.232 10.011 20.232C15.526 20.232 19.992 15.714 19.882 9.968L19.882 9.578C19.882 7.848 20.765 6.231 22.254 5.394C26.39 3.051 30.526 6.063 30.526 9.968C30.526 7.569 31.353 5.394 32.787 3.665C30.967 1.433 28.209 0.039 25.176 0.039Z" fill="rgb(255,255,255)" fill-opacity="1.000" fill-rule="nonzero" transform="matrix(1 0 0 1 4.9873 19.7678)"/></svg>