<svg xmlns="http://www.w3.org/2000/svg" viewBox="0 0 130 60" width="130" height="60"><path d="M0 0L130 0L130 60L0 60L0 0Z" fill="rgb(255,255,255)" fill-opacity="1.000" fill-rule="nonzero" transform="matrix(1 0 0 1 0 0)"/><path d="M68 10.133L68 18.503C68 18.876 67.702 19.174 67.33 19.174L64.848 19.174C64.476 19.174 64.178 18.876 64.178 18.503L64.178 17.187C62.615 18.329 60.704 19.025 58.644 19.025C53.457 19.025 49.263 14.778 49.263 9.537C49.263 4.297 53.457 0.05 58.644 0.05C60.728 0.05 62.639 0.72 64.178 1.888L64.178 0.72C64.178 0.348 64.476 0.05 64.848 0.05L67.33 0.05C67.702 0.05 68 0.348 68 0.72L68 8.916C68.025 9.115 68.025 9.314 68.025 9.537C68.025 9.711 68.025 9.91 68 10.133ZM42.537 18.305C42.537 18.578 42.314 18.777 42.066 18.777L39.137 18.777C38.864 18.777 38.666 18.553 38.666 18.305L38.666 0.82C38.666 0.546 38.889 0.348 39.137 0.348L42.066 0.348C42.339 0.348 42.537 0.571 42.537 0.82L42.537 1.813C43.977 0.745 45.739 0.099 47.625 0.025C47.625 0.025 47.625 0.025 47.65 0.025C47.873 0.025 48.022 0.199 48.022 0.397L48.022 3.626C48.022 3.8 47.898 3.924 47.724 3.924C44.82 4.073 42.512 6.507 42.512 9.488L42.512 18.305L42.537 18.305ZM15.486 2.285C15.635 2.409 15.635 2.633 15.511 2.757L13.451 5.017C13.277 5.216 12.955 5.241 12.731 5.067C12.731 5.067 12.731 5.067 12.707 5.067C11.763 4.346 10.597 3.924 9.381 3.924C6.353 3.924 3.896 6.408 3.896 9.488C3.896 12.567 6.353 15.051 9.381 15.051C10.473 15.051 11.515 14.728 12.384 14.132C12.607 13.983 12.905 14.033 13.079 14.231L14.915 16.591C14.915 16.591 14.915 16.591 14.915 16.616C15.064 16.814 15.015 17.088 14.816 17.212C13.253 18.354 11.366 18.975 9.381 18.975C4.194 18.975 0 14.728 0 9.488C0 4.247 4.194 0 9.381 0C11.664 0.025 13.799 0.82 15.486 2.285ZM26.455 19C21.269 19 17.074 14.753 17.074 9.512C17.074 4.272 21.269 0.025 26.455 0.025C31.642 0.025 35.836 4.272 35.836 9.512C35.812 14.753 31.617 19 26.455 19ZM26.455 15.076C29.483 15.076 31.94 12.592 31.94 9.512C31.94 6.433 29.483 3.949 26.455 3.949C23.428 3.949 20.971 6.433 20.971 9.512C20.946 12.592 23.403 15.076 26.455 15.076ZM58.644 15.076C61.671 15.076 64.128 12.592 64.128 9.512C64.128 6.433 61.671 3.949 58.644 3.949C55.616 3.949 53.159 6.433 53.159 9.512C53.159 12.592 55.616 15.076 58.644 15.076Z" fill="rgb(32,32,32)" fill-opacity="1.000" fill-rule="nonzero" transform="matrix(1 0 0 1 47.9765 20.1791)"/><path d="M11.987 0C11.49 0 10.895 0.075 10.597 0.124C8.785 0.422 7.048 1.142 5.559 2.161C3.251 3.725 1.489 6.085 0.62 8.743C-0.397 11.872 -0.149 15.374 1.265 18.305C2.63 21.086 5.038 23.371 7.892 24.539C10.299 25.532 13.004 25.756 15.535 25.184C18.613 24.489 21.368 22.626 23.179 20.068C24.519 18.156 25.338 15.846 25.487 13.511C25.487 13.312 25.438 13.114 25.289 12.965C25.14 12.816 24.966 12.741 24.768 12.741L24.643 12.741C23.75 12.741 22.385 12.741 21.566 12.741C21.194 12.741 20.871 13.039 20.846 13.412C20.822 13.859 20.747 14.281 20.623 14.703C20.127 16.665 18.861 18.429 17.173 19.546C15.436 20.664 13.277 21.086 11.267 20.714C9.257 20.341 7.42 19.149 6.204 17.51C5.211 16.144 4.665 14.43 4.665 12.741C4.665 10.531 5.608 8.37 7.197 6.855C8.537 5.588 10.274 4.818 12.111 4.669C12.483 4.644 12.781 4.322 12.781 3.949L12.781 3.725C12.781 2.856 12.781 1.59 12.781 0.77C12.781 0.571 12.706 0.373 12.557 0.224C12.384 0.075 12.185 0 11.987 0ZM25.487 4.123C25.487 1.863 23.651 0.025 21.392 0.025C19.134 0.025 17.297 1.863 17.297 4.123C17.297 6.383 19.134 8.221 21.392 8.221C23.651 8.221 25.487 6.383 25.487 4.123Z" fill="rgb(254,62,109)" fill-opacity="1.000" fill-rule="nonzero" transform="matrix(1 0 0 1 14 17)"/></svg>