<svg xmlns="http://www.w3.org/2000/svg" viewBox="0 0 60 60" width="60" height="60"><path d="M0 0L60 0L60 60L0 60L0 0Z" fill="rgb(255,255,255)" fill-opacity="1.000" fill-rule="nonzero" transform="matrix(1 0 0 1 0 0)"/><path d="M18.812 0C18.033 0 17.098 0.117 16.631 0.195C13.787 0.662 11.061 1.793 8.724 3.39C5.102 5.845 2.336 9.548 0.973 13.717C-0.624 18.627 -0.234 24.122 1.986 28.72C4.128 33.085 7.906 36.67 12.385 38.502C16.163 40.061 20.409 40.411 24.381 39.515C29.211 38.424 33.534 35.501 36.378 31.487C38.481 28.487 39.766 24.863 40 21.199C40 20.888 39.922 20.576 39.688 20.342C39.455 20.108 39.182 19.991 38.87 19.991L38.676 19.991C37.274 19.991 35.131 19.991 33.846 19.991C33.262 19.991 32.756 20.459 32.717 21.044C32.678 21.745 32.561 22.407 32.366 23.07C31.587 26.148 29.601 28.915 26.952 30.669C24.226 32.423 20.837 33.085 17.682 32.501C14.527 31.916 11.645 30.045 9.737 27.473C8.179 25.33 7.322 22.641 7.322 19.991C7.322 16.523 8.802 13.133 11.295 10.756C13.398 8.768 16.124 7.56 19.007 7.326C19.591 7.287 20.058 6.781 20.058 6.196L20.058 5.845C20.058 4.481 20.058 2.494 20.058 1.208C20.058 0.896 19.941 0.585 19.708 0.351C19.435 0.117 19.123 0 18.812 0ZM40 6.469C40 2.923 37.118 0.039 33.573 0.039C30.029 0.039 27.147 2.923 27.147 6.469C27.147 10.015 30.029 12.899 33.573 12.899C37.118 12.899 40 10.015 40 6.469Z" fill="rgb(254,62,109)" fill-opacity="1.000" fill-rule="nonzero" transform="matrix(1 0 0 1 10 10)"/></svg>