<svg xmlns="http://www.w3.org/2000/svg" viewBox="0 0 60 60" width="60" height="60"><path d="M0 0L60 0L60 60L0 60L0 0Z" fill="rgb(94,106,113)" fill-opacity="1.000" fill-rule="nonzero" transform="matrix(1 0 0 1 0 0)"/><path d="M0 2.946L33.171 2.946L33.171 0L0 0L0 2.946Z" fill="rgb(255,255,255)" fill-opacity="1.000" fill-rule="evenodd" transform="matrix(1 0 0 1 12.3672 39.0557)"/><path d="M8.985 3.411C8.977 3.41 3.765 6.382 2.544 6.833C1.422 7.274 1.001 6.692 0.866 6.488C0.564 6.031 0.07 4.524 0 4.297C0.03 4.303 0.318 4.36 0.985 4.192C1.779 3.992 8.977 -0.002 8.985 0L8.985 3.411Z" fill="rgb(0,120,89)" fill-opacity="1.000" fill-rule="evenodd" transform="matrix(1 0 0 1 39.0152 17)"/><path d="M27.651 7.914L24.226 0.382L19.243 0.382L12.243 13.341C12.249 13.342 15.687 13.235 17.891 11.587C18.448 11.262 20.018 7.169 21.457 4.416L23.696 9.978C20.312 11.697 17.098 13.206 15.367 13.691C10.801 14.996 5.239 15.779 3.241 14.024C1.362 12.368 5.701 5.437 13.908 3.895C15.239 3.6 16.016 3.676 16.016 3.684C16.016 3.676 15.453 1.314 15.015 0.816C14.403 0.073 13.803 -0.079 12.91 0.033C11.133 0.138 3.576 2.137 0.594 8.386C-1.07 11.936 1.142 15.521 2.573 16.559C3.238 17.042 7.53 20.859 17.454 16.999C27.233 13.235 35.993 7.306 36 7.306L36 3.34C35.996 3.335 32.134 5.531 27.651 7.914Z" fill="rgb(255,255,255)" fill-opacity="1.000" fill-rule="evenodd" transform="matrix(1 0 0 1 12 18.6162)"/></svg>