<svg xmlns="http://www.w3.org/2000/svg" viewBox="0 0 130 60" width="130" height="60"><path d="M0 0L130 0L130 60L0 60L0 0Z" fill="rgb(255,255,255)" fill-opacity="1.000" fill-rule="nonzero" transform="matrix(1 0 0 1 0 0)"/><path d="M3.403 0C4.236 0 5.1 0.253 5.81 0.758L5.27 1.455C4.691 1.057 4.205 0.835 3.472 0.835C2.199 0.835 1.203 1.623 1.203 2.772C1.203 3.92 2.199 4.709 3.472 4.709C4.244 4.709 4.753 4.471 5.37 4.058L5.911 4.755C5.185 5.268 4.275 5.544 3.403 5.544C1.651 5.544 0 4.518 0 2.764C0 1.011 1.651 0 3.403 0Z" fill="rgb(0,120,89)" fill-opacity="1.000" fill-rule="evenodd" transform="matrix(1 0 0 1 31.4899 24.6994)"/><path d="M2.839 2.657C3.658 2.657 4.182 2.32 4.182 1.738C4.182 1.172 3.681 0.857 2.832 0.857L1.157 0.857L1.157 2.657L2.839 2.657ZM0 0L2.924 0C4.282 0 5.386 0.544 5.386 1.723C5.386 2.642 4.707 3.124 3.789 3.331L5.556 5.36L4.205 5.36L2.6 3.492L1.157 3.492L1.157 5.36L0 5.36L0 0Z" fill="rgb(0,120,89)" fill-opacity="1.000" fill-rule="evenodd" transform="matrix(1 0 0 1 38.642 24.7912)"/><path d="M0 0L5 0L5 6.891L0 6.891L0 0Z" fill="rgb(255,255,255)" fill-opacity="1.000" fill-rule="evenodd" transform="matrix(1 0 0 1 45.4006 23.26)"/><path d="M3.727 0L2.832 0.942L1.844 0.942L2.523 0L3.727 0ZM0 5.345L0 1.531L4.892 1.531L4.892 2.389L1.157 2.389L1.157 3.683L4.583 3.683L4.583 4.518L1.157 4.518L1.157 5.345C1.157 5.812 1.381 6.034 1.836 6.034L5 6.034L5 6.891L1.559 6.891C0.571 6.891 0 6.317 0 5.345Z" fill="rgb(0,120,89)" fill-opacity="1.000" fill-rule="evenodd" transform="matrix(1 0 0 1 45.4006 23.2597)"/><path d="M2.516 4.502C3.827 4.502 4.707 3.775 4.707 2.688C4.707 1.592 3.827 0.857 2.516 0.857L1.158 0.857L1.158 4.502L2.516 4.502ZM0 0L2.439 0C4.522 0 5.911 1.072 5.911 2.68C5.911 4.288 4.522 5.36 2.439 5.36L0 5.36L0 0Z" fill="rgb(0,120,89)" fill-opacity="1.000" fill-rule="evenodd" transform="matrix(1 0 0 1 51.8737 24.7914)"/><path d="M0 12.58L108.804 12.58L108.804 0L0 0L0 12.58Z" fill="rgb(255,255,255)" fill-opacity="1.000" fill-rule="evenodd" transform="matrix(1 0 0 1 10 23.26)"/><path d="M0 5.36L1.157 5.36L1.157 0L0 0L0 5.36Z" fill="rgb(0,120,89)" fill-opacity="1.000" fill-rule="evenodd" transform="matrix(1 0 0 1 59.1031 24.7912)"/><path d="M0 0.857L0 0L5.309 0L5.309 0.857L3.233 0.857L3.233 5.36L2.076 5.36L2.076 0.857L0 0.857Z" fill="rgb(0,120,89)" fill-opacity="1.000" fill-rule="evenodd" transform="matrix(1 0 0 1 61.5025 24.7914)"/><path d="M4.383 3.231L3.318 1.103L2.253 3.231L4.383 3.231ZM4.808 4.066L1.829 4.066L1.181 5.36L0 5.36L2.801 0L3.982 0L6.783 5.36L5.456 5.36L4.808 4.066Z" fill="rgb(0,120,89)" fill-opacity="1.000" fill-rule="evenodd" transform="matrix(1 0 0 1 69.2946 24.7912)"/><path d="M3.403 0C4.236 0 5.1 0.253 5.81 0.758L5.27 1.455C4.691 1.057 4.205 0.835 3.473 0.835C2.199 0.835 1.204 1.608 1.204 2.757C1.204 3.89 2.091 4.709 3.433 4.709C4.028 4.709 4.576 4.548 4.961 4.295L4.961 3.27L3.333 3.27L3.333 2.45L6.119 2.45L6.119 4.701C5.471 5.161 4.553 5.544 3.387 5.544C1.35 5.544 0 4.349 0 2.764C0 1.011 1.651 0 3.403 0Z" fill="rgb(0,120,89)" fill-opacity="1.000" fill-rule="evenodd" transform="matrix(1 0 0 1 76.5091 24.6994)"/><path d="M2.84 2.657C3.658 2.657 4.182 2.32 4.182 1.738C4.182 1.172 3.681 0.857 2.832 0.857L1.158 0.857L1.158 2.657L2.84 2.657ZM0 0L2.924 0C4.283 0 5.386 0.544 5.386 1.723C5.386 2.642 4.707 3.124 3.788 3.331L5.556 5.36L4.205 5.36L2.6 3.492L1.158 3.492L1.158 5.36L0 5.36L0 0Z" fill="rgb(0,120,89)" fill-opacity="1.000" fill-rule="evenodd" transform="matrix(1 0 0 1 84.1782 24.7912)"/><path d="M0 5.36L1.158 5.36L1.158 0L0 0L0 5.36Z" fill="rgb(0,120,89)" fill-opacity="1.000" fill-rule="evenodd" transform="matrix(1 0 0 1 91.1295 24.7912)"/><path d="M3.403 0C4.236 0 5.101 0.253 5.81 0.758L5.27 1.455C4.691 1.057 4.205 0.835 3.473 0.835C2.199 0.835 1.204 1.623 1.204 2.772C1.204 3.92 2.199 4.709 3.473 4.709C4.244 4.709 4.753 4.471 5.37 4.058L5.911 4.755C5.185 5.268 4.275 5.544 3.403 5.544C1.651 5.544 0 4.518 0 2.764C0 1.011 1.651 0 3.403 0Z" fill="rgb(0,120,89)" fill-opacity="1.000" fill-rule="evenodd" transform="matrix(1 0 0 1 93.6836 24.6994)"/><path d="M1.204 2.772C1.204 3.851 2.107 4.709 3.419 4.709C4.73 4.709 5.633 3.851 5.633 2.772C5.633 1.692 4.73 0.835 3.419 0.835C2.107 0.835 1.204 1.692 1.204 2.772ZM0 2.772C0 1.256 1.42 0 3.419 0C5.417 0 6.837 1.256 6.837 2.772C6.837 4.288 5.417 5.544 3.419 5.544C1.42 5.544 0 4.288 0 2.772Z" fill="rgb(0,120,89)" fill-opacity="1.000" fill-rule="evenodd" transform="matrix(1 0 0 1 100.1025 24.6994)"/><path d="M0 0L1.158 0L1.158 4.502L4.591 4.502L4.591 5.36L0 5.36L0 0Z" fill="rgb(0,120,89)" fill-opacity="1.000" fill-rule="evenodd" transform="matrix(1 0 0 1 108.1037 24.7912)"/><path d="M0 3.813L0 0L4.892 0L4.892 0.857L1.157 0.857L1.157 2.151L4.584 2.151L4.584 2.986L1.157 2.986L1.157 3.813C1.157 4.28 1.381 4.502 1.836 4.502L5 4.502L5 5.36L1.559 5.36C0.571 5.36 0 4.786 0 3.813Z" fill="rgb(0,120,89)" fill-opacity="1.000" fill-rule="evenodd" transform="matrix(1 0 0 1 113.5123 24.7912)"/><path d="M1.876 0C2.336 0 2.812 0.141 3.203 0.422L2.906 0.81C2.586 0.589 2.318 0.465 1.914 0.465C1.212 0.465 0.664 0.904 0.664 1.544C0.664 2.184 1.212 2.623 1.914 2.623C2.34 2.623 2.621 2.491 2.961 2.26L3.259 2.649C2.859 2.935 2.357 3.088 1.876 3.088C0.91 3.088 0 2.517 0 1.54C0 0.563 0.91 0 1.876 0Z" fill="rgb(94,106,113)" fill-opacity="1.000" fill-rule="evenodd" transform="matrix(1 0 0 1 31.6685 32.743)"/><path d="M0.664 1.544C0.664 2.145 1.161 2.623 1.885 2.623C2.608 2.623 3.105 2.145 3.105 1.544C3.105 0.943 2.608 0.465 1.885 0.465C1.161 0.465 0.664 0.943 0.664 1.544ZM0 1.544C0 0.699 0.783 0 1.885 0C2.987 0 3.769 0.699 3.769 1.544C3.769 2.388 2.987 3.088 1.885 3.088C0.783 3.088 0 2.388 0 1.544Z" fill="rgb(94,106,113)" fill-opacity="1.000" fill-rule="evenodd" transform="matrix(1 0 0 1 35.1404 32.7432)"/><path d="M1.566 1.48C2.016 1.48 2.306 1.292 2.306 0.968C2.306 0.652 2.029 0.478 1.561 0.478L0.638 0.478L0.638 1.48L1.566 1.48ZM0 0L1.612 0C2.361 0 2.969 0.303 2.969 0.96C2.969 1.472 2.595 1.74 2.089 1.855L3.063 2.986L2.319 2.986L1.434 1.945L0.638 1.945L0.638 2.986L0 2.986L0 0Z" fill="rgb(94,106,113)" fill-opacity="1.000" fill-rule="evenodd" transform="matrix(1 0 0 1 39.4422 32.7942)"/><path d="M1.608 1.608C2.063 1.608 2.357 1.395 2.357 1.032C2.357 0.679 2.076 0.478 1.604 0.478L0.638 0.478L0.638 1.608L1.608 1.608ZM0 0L1.629 0C2.395 0 3.02 0.328 3.02 1.032C3.02 1.732 2.403 2.086 1.629 2.086L0.638 2.086L0.638 2.986L0 2.986L0 0Z" fill="rgb(94,106,113)" fill-opacity="1.000" fill-rule="evenodd" transform="matrix(1 0 0 1 43.1227 32.794)"/><path d="M0.664 1.544C0.664 2.145 1.161 2.623 1.885 2.623C2.608 2.623 3.105 2.145 3.105 1.544C3.105 0.943 2.608 0.465 1.885 0.465C1.161 0.465 0.664 0.943 0.664 1.544ZM0 1.544C0 0.699 0.783 0 1.885 0C2.987 0 3.769 0.699 3.769 1.544C3.769 2.388 2.987 3.088 1.885 3.088C0.783 3.088 0 2.388 0 1.544Z" fill="rgb(94,106,113)" fill-opacity="1.000" fill-rule="evenodd" transform="matrix(1 0 0 1 46.3563 32.7432)"/><path d="M1.566 1.48C2.016 1.48 2.306 1.292 2.306 0.968C2.306 0.652 2.029 0.478 1.561 0.478L0.638 0.478L0.638 1.48L1.566 1.48ZM0 0L1.612 0C2.361 0 2.969 0.303 2.969 0.96C2.969 1.472 2.595 1.74 2.089 1.855L3.063 2.986L2.319 2.986L1.434 1.945L0.638 1.945L0.638 2.986L0 2.986L0 0Z" fill="rgb(94,106,113)" fill-opacity="1.000" fill-rule="evenodd" transform="matrix(1 0 0 1 50.7006 32.7942)"/><path d="M2.416 1.8L1.829 0.614L1.242 1.8L2.416 1.8ZM2.651 2.265L1.008 2.265L0.651 2.986L0 2.986L1.544 0L2.195 0L3.74 2.986L3.008 2.986L2.651 2.265Z" fill="rgb(94,106,113)" fill-opacity="1.000" fill-rule="evenodd" transform="matrix(1 0 0 1 53.9344 32.794)"/><path d="M0 0.478L0 0L2.927 0L2.927 0.478L1.783 0.478L1.783 2.986L1.144 2.986L1.144 0.478L0 0.478Z" fill="rgb(94,106,113)" fill-opacity="1.000" fill-rule="evenodd" transform="matrix(1 0 0 1 57.4192 32.794)"/><path d="M0 2.124L0 0L2.698 0L2.698 0.478L0.638 0.478L0.638 1.198L2.527 1.198L2.527 1.664L0.638 1.664L0.638 2.124C0.638 2.384 0.762 2.508 1.013 2.508L2.757 2.508L2.757 2.986L0.859 2.986C0.315 2.986 0 2.666 0 2.124Z" fill="rgb(94,106,113)" fill-opacity="1.000" fill-rule="evenodd" transform="matrix(1 0 0 1 60.8569 32.794)"/><path d="M1.57 0.759L1.57 0.751C1.57 0.55 1.43 0.414 1.23 0.414C1.017 0.414 0.877 0.563 0.877 0.772L0.877 0.781C0.877 0.93 0.936 1.041 1.102 1.224C1.408 1.113 1.57 0.972 1.57 0.759ZM1.587 2.384L0.923 1.706C0.647 1.826 0.527 2.009 0.527 2.201L0.527 2.209C0.527 2.461 0.736 2.644 1.025 2.644C1.23 2.644 1.417 2.546 1.587 2.384ZM1.885 2.692C1.629 2.93 1.332 3.08 0.97 3.08C0.417 3.08 0 2.743 0 2.227L0 2.218C0 1.834 0.225 1.557 0.634 1.382C0.464 1.165 0.387 0.977 0.387 0.759L0.387 0.751C0.387 0.35 0.71 0 1.242 0C1.714 0 2.034 0.32 2.034 0.721L2.034 0.73C2.034 1.122 1.774 1.356 1.378 1.506L1.889 2.026C2.003 1.855 2.11 1.659 2.208 1.45L2.604 1.659C2.485 1.898 2.353 2.133 2.2 2.342L2.667 2.819L2.28 3.097L1.885 2.692Z" fill="rgb(94,106,113)" fill-opacity="1.000" fill-rule="evenodd" transform="matrix(1 0 0 1 65.1414 32.743)"/><path d="M0 2.986L0.639 2.986L0.639 0L0 0L0 2.986Z" fill="rgb(94,106,113)" fill-opacity="1.000" fill-rule="evenodd" transform="matrix(1 0 0 1 69.4898 32.794)"/><path d="M0.639 0.857L0.639 2.986L0 2.986L0 0L0.639 0L2.464 2.124L2.464 0L3.101 0L3.101 2.986L2.464 2.986L0.639 0.857Z" fill="rgb(94,106,113)" fill-opacity="1.000" fill-rule="evenodd" transform="matrix(1 0 0 1 71.0214 32.794)"/><path d="M3.612 0L2.132 2.986L1.48 2.986L0 0L0.732 0L1.846 2.359L2.961 0L3.612 0Z" fill="rgb(94,106,113)" fill-opacity="1.000" fill-rule="evenodd" transform="matrix(1 0 0 1 74.5704 32.7942)"/><path d="M0 2.124L0 0L2.698 0L2.698 0.478L0.638 0.478L0.638 1.198L2.527 1.198L2.527 1.664L0.638 1.664L0.638 2.124C0.638 2.384 0.762 2.508 1.013 2.508L2.757 2.508L2.757 2.986L0.859 2.986C0.315 2.986 0 2.666 0 2.124Z" fill="rgb(94,106,113)" fill-opacity="1.000" fill-rule="evenodd" transform="matrix(1 0 0 1 78.5228 32.794)"/><path d="M0 2.615L0.298 2.184C0.685 2.47 1.213 2.602 1.668 2.602C2.14 2.602 2.527 2.461 2.527 2.239C2.527 2.009 2.098 1.919 1.604 1.813C0.923 1.668 0.115 1.497 0.115 0.9C0.115 0.345 0.804 0 1.591 0C2.131 0 2.697 0.153 3.106 0.431L2.808 0.862C2.472 0.606 2.021 0.478 1.604 0.478C1.178 0.478 0.77 0.61 0.77 0.823C0.77 1.024 1.161 1.105 1.629 1.199C2.323 1.34 3.182 1.514 3.182 2.163C3.182 2.751 2.476 3.088 1.676 3.088C1.059 3.088 0.438 2.905 0 2.615Z" fill="rgb(94,106,113)" fill-opacity="1.000" fill-rule="evenodd" transform="matrix(1 0 0 1 81.7486 32.743)"/><path d="M0 0.478L0 0L2.927 0L2.927 0.478L1.783 0.478L1.783 2.986L1.145 2.986L1.145 0.478L0 0.478Z" fill="rgb(94,106,113)" fill-opacity="1.000" fill-rule="evenodd" transform="matrix(1 0 0 1 85.2077 32.794)"/><path d="M2.842 0L3.522 0L3.522 2.986L2.885 2.986L2.885 0.759L1.702 2.427L0.553 0.81L0.553 2.986L0 2.986L0 0L0.681 0L1.761 1.519L2.842 0Z" fill="rgb(94,106,113)" fill-opacity="1.000" fill-rule="evenodd" transform="matrix(1 0 0 1 88.6239 32.7942)"/><path d="M0 2.124L0 0L2.698 0L2.698 0.478L0.638 0.478L0.638 1.198L2.527 1.198L2.527 1.664L0.638 1.664L0.638 2.124C0.638 2.384 0.762 2.508 1.013 2.508L2.757 2.508L2.757 2.986L0.859 2.986C0.315 2.986 0 2.666 0 2.124Z" fill="rgb(94,106,113)" fill-opacity="1.000" fill-rule="evenodd" transform="matrix(1 0 0 1 92.8917 32.794)"/><path d="M0.639 0.857L0.639 2.986L0 2.986L0 0L0.639 0L2.463 2.124L2.463 0L3.101 0L3.101 2.986L2.463 2.986L0.639 0.857Z" fill="rgb(94,106,113)" fill-opacity="1.000" fill-rule="evenodd" transform="matrix(1 0 0 1 96.3508 32.794)"/><path d="M0 0.478L0 0L2.927 0L2.927 0.478L1.783 0.478L1.783 2.986L1.145 2.986L1.145 0.478L0 0.478Z" fill="rgb(94,106,113)" fill-opacity="1.000" fill-rule="evenodd" transform="matrix(1 0 0 1 99.9422 32.794)"/><path d="M2.425 2.103C2.425 1.851 2.196 1.711 1.821 1.711L0.639 1.711L0.639 2.508L1.817 2.508C2.196 2.508 2.425 2.359 2.425 2.103ZM0.639 0.478L0.639 1.246L1.693 1.246C2.068 1.246 2.306 1.105 2.306 0.857C2.306 0.619 2.076 0.478 1.689 0.478L0.639 0.478ZM3.102 2.15C3.102 2.696 2.557 2.986 1.868 2.986L0 2.986L0 0L1.741 0C2.421 0 2.966 0.277 2.966 0.815C2.966 1.118 2.787 1.331 2.506 1.455C2.863 1.561 3.102 1.787 3.102 2.15Z" fill="rgb(94,106,113)" fill-opacity="1.000" fill-rule="evenodd" transform="matrix(1 0 0 1 104.55 32.794)"/><path d="M2.416 1.8L1.829 0.614L1.242 1.8L2.416 1.8ZM2.65 2.265L1.008 2.265L0.651 2.986L0 2.986L1.544 0L2.195 0L3.739 2.986L3.008 2.986L2.65 2.265Z" fill="rgb(94,106,113)" fill-opacity="1.000" fill-rule="evenodd" transform="matrix(1 0 0 1 107.7376 32.794)"/><path d="M0.638 0.857L0.638 2.986L0 2.986L0 0L0.638 0L2.463 2.124L2.463 0L3.101 0L3.101 2.986L2.463 2.986L0.638 0.857Z" fill="rgb(94,106,113)" fill-opacity="1.000" fill-rule="evenodd" transform="matrix(1 0 0 1 111.7538 32.794)"/><path d="M1.153 1.595L0.638 2.044L0.638 2.986L0 2.986L0 0L0.638 0L0.638 1.438L2.234 0L2.978 0L1.595 1.207L3.14 2.986L2.357 2.986L1.153 1.595Z" fill="rgb(94,106,113)" fill-opacity="1.000" fill-rule="evenodd" transform="matrix(1 0 0 1 115.6643 32.794)"/><path d="M0 1.052L1.98 0L3.452 3.035L1.262 3.035C1.262 3.036 0.841 3.036 0.672 2.66C0.515 2.243 0.004 1.053 0 1.052Z" fill="rgb(94,106,113)" fill-opacity="1.000" fill-rule="evenodd" transform="matrix(1 0 0 1 22.178 30.415)"/><path d="M0 1.414L15.923 1.414L15.923 0L0 0L0 1.414Z" fill="rgb(94,106,113)" fill-opacity="1.000" fill-rule="evenodd" transform="matrix(1 0 0 1 10.1763 34.4185)"/><path d="M4.313 1.637C4.309 1.637 1.807 3.063 1.221 3.28C0.683 3.492 0.48 3.212 0.416 3.115C0.271 2.895 0.034 2.172 0 2.063C0.014 2.066 0.153 2.093 0.473 2.012C0.854 1.916 4.309 -0.001 4.313 0L4.313 1.637Z" fill="rgb(0,120,89)" fill-opacity="1.000" fill-rule="evenodd" transform="matrix(1 0 0 1 22.9683 23.8313)"/><path d="M13.273 3.799L11.629 0.183L9.237 0.183L5.877 6.404C5.88 6.405 7.53 6.353 8.588 5.562C8.856 5.406 9.609 3.441 10.3 2.12L11.375 4.79C9.75 5.615 8.208 6.339 7.377 6.572C5.185 7.199 2.515 7.574 1.556 6.732C0.654 5.937 2.737 2.61 6.676 1.87C7.315 1.728 7.688 1.765 7.688 1.769C7.688 1.765 7.418 0.631 7.208 0.392C6.914 0.035 6.626 -0.038 6.197 0.016C5.344 0.066 1.716 1.026 0.285 4.025C-0.513 5.729 0.548 7.451 1.235 7.949C1.554 8.18 3.615 10.013 8.378 8.16C13.073 6.353 17.278 3.507 17.281 3.507L17.281 1.603C17.279 1.601 15.426 2.655 13.273 3.799Z" fill="rgb(94,106,113)" fill-opacity="1.000" fill-rule="evenodd" transform="matrix(1 0 0 1 10 24.6073)"/></svg>