<svg xmlns="http://www.w3.org/2000/svg" viewBox="0 0 60 60" width="60" height="60"><path d="M0 0L60 0L60 60L0 60L0 0Z" fill="rgb(25,155,67)" fill-opacity="1.000" fill-rule="nonzero" transform="matrix(1 0 0 1 0 0)"/><path d="M24 0L6.207 18L0 11.722C5.951 4.938 14.443 0.52 23.979 0" fill="rgb(255,255,255)" fill-opacity="1.000" fill-rule="evenodd" transform="matrix(1 0 0 1 23 35)"/><path d="M38.929 2.737C34.63 0.928 30.009 -0.003 25.342 0C15.342 0 6.344 4.196 0 10.905L7.125 18C13.512 10.392 23.103 5.563 33.823 5.563C34.603 5.563 35.376 5.583 36.156 5.643L39 2.808L38.929 2.737Z" fill="rgb(255,255,255)" fill-opacity="1.000" fill-rule="evenodd" transform="matrix(1 0 0 1 14 27)"/><path d="M11.5 9.098C7.581 9.093 3.69 9.737 0 11L11.5 0L23 11C19.31 9.737 15.419 9.093 11.5 9.098Z" fill="rgb(255,205,0)" fill-opacity="1.000" fill-rule="evenodd" transform="matrix(1 0 0 1 18 6)"/><path d="M42.997 7.35L38.392 2.774C34.067 0.94 29.412 -0.004 24.709 0C14.256 0 7.027 4.099 0 11.084L5.953 17C9.185 13.376 13.156 10.477 17.602 8.495C22.048 6.513 26.867 5.494 31.74 5.505C35.57 5.502 39.374 6.125 43 7.347" fill="rgb(255,255,255)" fill-opacity="1.000" fill-rule="evenodd" transform="matrix(1 0 0 1 6 18)"/></svg>