<svg xmlns="http://www.w3.org/2000/svg" viewBox="0 0 130 60" width="130" height="60"><path d="M0 0L130 0L130 60L0 60L0 0Z" fill="rgb(255,255,255)" fill-opacity="1.000" fill-rule="nonzero" transform="matrix(1 0 0 1 0 0)"/><path d="M11.985 4.261L13.448 2.372C12.006 0.901 9.906 0 7.806 0C3.415 0 0 3.36 0 7.731C0 12.146 3.373 15.55 7.721 15.55C9.821 15.55 11.963 14.562 13.469 13.024L11.985 11.311C10.86 12.431 9.333 13.134 7.848 13.134C4.879 13.134 2.545 10.74 2.545 7.709C2.545 4.678 4.879 2.306 7.848 2.306C9.354 2.306 10.903 3.053 11.985 4.261Z" fill="rgb(103,189,80)" fill-opacity="1.000" fill-rule="nonzero" transform="matrix(1 0 0 1 11 34.3619)"/><path d="M2.439 2.416L2.439 0.088L0 0.088L0 11.772L2.439 11.772L2.439 5.667C2.63 3.668 4.073 2.284 6.342 2.416L6.342 0C4.561 0 3.203 0.835 2.439 2.416Z" fill="rgb(103,189,80)" fill-opacity="1.000" fill-rule="nonzero" transform="matrix(1 0 0 1 25.4397 38.03)"/><path d="M5.706 0C2.354 0.022 0 2.416 0 5.952C0 9.466 2.291 11.86 5.77 11.86C7.721 11.86 9.333 11.135 10.436 9.883L9.142 8.456C8.315 9.335 7.191 9.818 5.96 9.818C4.179 9.818 2.842 8.698 2.461 6.897L10.988 6.897C11.285 2.68 9.672 0 5.706 0ZM2.418 5.052C2.673 3.185 3.945 2.02 5.727 2.02C7.573 2.02 8.782 3.163 8.866 5.052L2.418 5.052Z" fill="rgb(103,189,80)" fill-opacity="1.000" fill-rule="nonzero" transform="matrix(1 0 0 1 31.3098 38.03)"/><path d="M9.375 0L9.375 6.633C8.548 5.271 7.191 4.502 5.366 4.502C2.185 4.502 0 6.897 0 10.411C0 13.969 2.164 16.407 5.409 16.407C7.212 16.407 8.57 15.66 9.375 14.298L9.375 16.297L11.815 16.297L11.815 0L9.375 0ZM5.918 14.298C3.86 14.298 2.461 12.717 2.439 10.499C2.461 8.258 3.882 6.655 5.918 6.655C7.954 6.655 9.375 8.236 9.375 10.499C9.375 12.717 7.954 14.298 5.918 14.298Z" fill="rgb(103,189,80)" fill-opacity="1.000" fill-rule="nonzero" transform="matrix(1 0 0 1 42.9853 33.5055)"/><path d="M1.421 0C0.615 0 0 0.637 0 1.516C0 2.372 0.615 3.009 1.421 3.009C2.227 3.009 2.842 2.372 2.842 1.516C2.842 0.637 2.227 0 1.421 0ZM0.212 4.854L0.212 16.539L2.63 16.539L2.63 4.854L0.212 4.854Z" fill="rgb(103,189,80)" fill-opacity="1.000" fill-rule="nonzero" transform="matrix(1 0 0 1 55.8656 33.2637)"/><path d="M7.106 0C3.394 0 0.955 1.889 0.955 4.854C0.955 10.279 8.718 8.808 8.718 11.136C8.718 11.839 8.124 12.168 7.191 12.168C5.663 12.168 3.182 11.158 1.655 9.818L0 13.288C1.867 14.804 4.624 15.726 7.148 15.726C10.479 15.726 13.279 14.167 13.279 10.894C13.279 5.337 5.515 6.677 5.515 4.415C5.515 3.844 6.003 3.58 6.745 3.58C7.997 3.58 10.16 4.393 11.688 5.293L13.321 1.779C11.709 0.703 9.375 0 7.106 0Z" fill="rgb(0,113,65)" fill-opacity="1.000" fill-rule="nonzero" transform="matrix(1 0 0 1 59.5048 34.2082)"/><path d="M6.088 0C2.439 0 0 2.438 0 6.172C0 9.84 2.354 12.256 6.215 12.256C8.4 12.256 10.139 11.487 11.348 10.103L9.121 7.841C8.357 8.566 7.488 8.983 6.576 8.983C5.473 8.983 4.667 8.346 4.327 7.204L12.091 7.204C12.345 2.811 10.139 0 6.088 0ZM4.242 5.03C4.454 3.822 5.133 3.009 6.13 3.009C7.17 3.009 7.891 3.844 7.87 5.03L4.242 5.03Z" fill="rgb(0,113,65)" fill-opacity="1.000" fill-rule="nonzero" transform="matrix(1 0 0 1 73.4053 37.7003)"/><path d="M6.3 0C4.497 0 2.63 0.439 0.742 1.23L1.803 4.173C3.076 3.602 4.369 3.317 5.282 3.317C6.597 3.317 7.275 3.91 7.275 4.898L7.275 4.942L4.454 4.942C1.548 4.986 0 6.26 0 8.566C0 10.806 1.442 12.322 3.903 12.322C5.43 12.322 6.576 11.773 7.275 10.806L7.275 12.124L11.475 12.124L11.475 4.371C11.475 1.603 9.545 0 6.3 0ZM5.324 9.423C4.497 9.423 4.03 8.983 4.03 8.236C4.03 7.49 4.476 7.116 5.324 7.116L7.275 7.116L7.275 8.193C6.957 8.939 6.194 9.423 5.324 9.423Z" fill="rgb(0,113,65)" fill-opacity="1.000" fill-rule="nonzero" transform="matrix(1 0 0 1 85.8249 37.6783)"/><path d="M4.285 0.176L0 0.176L0 12.12L4.285 12.12L4.285 6.41C4.285 4.678 5.706 3.712 7.912 3.997L7.912 0C6.342 0 5.091 0.747 4.285 2.065L4.285 0.176Z" fill="rgb(0,113,65)" fill-opacity="1.000" fill-rule="nonzero" transform="matrix(1 0 0 1 98.546 37.6821)"/><path d="M6.3 0C4.497 0 2.63 0.439 0.742 1.23L1.803 4.173C3.076 3.602 4.369 3.317 5.281 3.317C6.597 3.317 7.275 3.91 7.275 4.898L7.275 4.942L4.454 4.942C1.548 4.986 0 6.26 0 8.566C0 10.806 1.442 12.322 3.903 12.322C5.43 12.322 6.576 11.773 7.275 10.806L7.275 12.124L11.475 12.124L11.475 4.371C11.475 1.603 9.545 0 6.3 0L6.3 0ZM5.324 9.423C4.497 9.423 4.03 8.983 4.03 8.236C4.03 7.49 4.476 7.116 5.324 7.116L7.275 7.116L7.275 8.193C6.957 8.939 6.194 9.423 5.324 9.423Z" fill="rgb(0,113,65)" fill-opacity="1.000" fill-rule="nonzero" transform="matrix(1 0 0 1 106.6988 37.6783)"/><path d="M0 6.495L4.279 6.495L4.287 0.166L0 0L0 6.495Z" fill="rgb(0,113,65)" fill-opacity="1.000" fill-rule="evenodd" transform="matrix(1 0 0 1 98.3951 29.746)"/><path d="M2.137 8.247L5.687 1.651L2.459 0L0 4.42L2.137 8.247Z" fill="rgb(103,189,80)" fill-opacity="1.000" fill-rule="evenodd" transform="matrix(1 0 0 1 94.9343 10.1425)"/><path d="M1.721 0.924L0 4.01C0.386 3.318 1.417 2.776 2.433 4.359L9.788 17.114L13.991 17.109L5.399 1.724C4.388 -0.301 2.519 -0.508 1.721 0.924Z" fill="rgb(0,113,65)" fill-opacity="1.000" fill-rule="evenodd" transform="matrix(1 0 0 1 95.7954 9)"/><path d="M28.182 3.086L26.461 0C26.847 0.692 26.785 1.888 24.953 2.007L0 2.302L0.475 6.003L25.674 5.985C27.873 6.09 28.981 4.518 28.182 3.086Z" fill="rgb(245,134,52)" fill-opacity="1.000" fill-rule="evenodd" transform="matrix(1 0 0 1 82.1318 23.9534)"/><path d="M1.749 19.814L5.191 19.814C4.419 19.814 3.45 19.16 4.266 17.457L12.774 1.651L9.546 0L0.579 16.115C-0.608 18.034 0.153 19.814 1.749 19.814Z" fill="rgb(103,189,80)" fill-opacity="1.000" fill-rule="evenodd" transform="matrix(1 0 0 1 80.5677 10.1425)"/><path d="M1.721 0.924L0 4.01C0.386 3.318 1.417 2.776 2.433 4.359L9.787 17.114L13.99 17.109L5.399 1.724C4.388 -0.301 2.519 -0.508 1.721 0.924L1.721 0.924Z" fill="rgb(0,113,65)" fill-opacity="1.000" fill-rule="evenodd" transform="matrix(1 0 0 1 88.5152 9)"/><path d="M0 18.714L4.279 18.714L4.287 12.385L8.953 3.828L6.746 0L0 12.219L0 18.714Z" fill="rgb(103,189,80)" fill-opacity="1.000" fill-rule="evenodd" transform="matrix(1 0 0 1 86.6067 17.5268)"/></svg>