<svg xmlns="http://www.w3.org/2000/svg" viewBox="0 0 130 60" width="130" height="60"><path d="M0 0L130 0L130 60L0 60L0 0Z" fill="rgb(255,255,255)" fill-opacity="1.000" fill-rule="nonzero" transform="matrix(1 0 0 1 0 0)"/><path d="M0 15.581L0 0.005L6.286 0.005C7.657 -0.03 9.027 0.11 10.363 0.422C11.325 0.666 12.217 1.131 12.967 1.781C13.769 2.477 14.398 3.35 14.806 4.331C15.231 5.39 15.44 6.523 15.422 7.664C15.428 8.724 15.248 9.777 14.892 10.776C14.564 11.7 14.051 12.547 13.384 13.267C12.65 14.065 11.733 14.671 10.711 15.033C9.428 15.438 8.085 15.622 6.739 15.576L0 15.581Z" fill="rgb(35,31,32)" fill-opacity="1.000" fill-rule="nonzero" transform="matrix(1 0 0 1 60.2522 19.5684)"/><path d="M12.781 11.291L15.222 11.291C15.165 12.006 14.948 12.699 14.586 13.318C14.225 13.938 13.729 14.468 13.135 14.869C11.927 15.691 10.266 16.1 8.152 16.097C5.613 16.097 3.62 15.383 2.174 13.954C0.728 12.526 0.003 10.558 0 8.048C0 5.572 0.755 3.61 2.265 2.16C3.774 0.711 5.805 -0.009 8.356 0C10.382 0 11.975 0.387 13.135 1.16C13.691 1.51 14.155 1.988 14.488 2.555C14.821 3.122 15.014 3.76 15.05 4.416L12.632 4.416C12.576 4.01 12.426 3.623 12.194 3.286C11.962 2.948 11.655 2.67 11.296 2.473C10.364 1.956 9.308 1.707 8.243 1.753C6.377 1.753 4.92 2.305 3.872 3.411C2.825 4.516 2.299 6.062 2.296 8.048C2.296 10.08 2.832 11.645 3.904 12.741C4.976 13.837 6.505 14.385 8.492 14.385C9.559 14.437 10.615 14.15 11.509 13.565C11.877 13.306 12.183 12.969 12.404 12.577C12.626 12.185 12.758 11.749 12.79 11.3" fill="rgb(35,31,32)" fill-opacity="1.000" fill-rule="nonzero" transform="matrix(1 0 0 1 14 19.3154)"/><path d="M0 15.58L0 0.005L6.952 0.005C7.949 -0.018 8.945 0.04 9.932 0.177C10.504 0.266 11.052 0.468 11.545 0.77C12.061 1.101 12.473 1.572 12.731 2.129C13.022 2.764 13.166 3.455 13.153 4.153C13.201 5.069 12.9 5.969 12.31 6.672C11.612 7.369 10.706 7.82 9.729 7.958C10.39 7.926 11.039 8.15 11.54 8.583C11.921 8.975 12.235 9.833 12.482 11.155L12.872 13.234C13.003 13.896 13.121 14.403 13.225 14.747C13.303 15.037 13.414 15.316 13.556 15.58L11.21 15.58C11.092 15.329 11.001 15.067 10.938 14.797C10.824 14.349 10.735 13.896 10.671 13.438L10.218 10.838C10.188 10.504 10.081 10.182 9.905 9.896C9.729 9.611 9.489 9.371 9.203 9.194C8.657 8.892 7.681 8.741 6.277 8.741L2.083 8.741L2.083 15.58L0 15.58ZM2.092 6.934L6.169 6.934C8.166 6.934 9.452 6.744 10.037 6.368C10.621 5.992 10.915 5.299 10.915 4.294C10.915 3.367 10.613 2.724 10.009 2.364C9.407 2.011 8.121 1.83 6.151 1.83L2.083 1.83L2.092 6.934Z" fill="rgb(35,31,32)" fill-opacity="1.000" fill-rule="nonzero" transform="matrix(1 0 0 1 31.2426 19.569)"/><path d="M0 15.576L0 0L11.554 0L11.554 1.848L2.124 1.848L2.124 6.409L10.888 6.409L10.888 8.27L2.124 8.27L2.124 13.633L11.839 13.633L11.839 15.576L0 15.576Z" fill="rgb(35,31,32)" fill-opacity="1.000" fill-rule="nonzero" transform="matrix(1 0 0 1 46.4153 19.5735)"/><path d="M2.197 0L0 0L0 15.576L2.197 15.576L2.197 0Z" fill="rgb(35,31,32)" fill-opacity="1.000" fill-rule="nonzero" transform="matrix(1 0 0 1 77.4576 19.5735)"/><path d="M0 1.911L0 0L15.25 0L15.25 1.911L8.714 1.911L8.714 15.576L6.531 15.576L6.531 1.911L0 1.911Z" fill="rgb(35,31,32)" fill-opacity="1.000" fill-rule="nonzero" transform="matrix(1 0 0 1 81.6205 19.5735)"/><path d="M0 15.576L7.473 0L9.964 0L17.252 15.576L14.928 15.576C12.79 10.888 10.825 6.517 8.696 1.775C6.504 6.391 4.334 10.983 2.129 15.576L0 15.576Z" fill="rgb(35,31,32)" fill-opacity="1.000" fill-rule="nonzero" transform="matrix(1 0 0 1 92.4905 19.5735)"/><path d="M0 2.355L1.218 0L3.51 0L2.296 2.355L0 2.355Z" fill="rgb(35,31,32)" fill-opacity="1.000" fill-rule="nonzero" transform="matrix(1 0 0 1 100.42 16.0001)"/><path d="M0 11.928L3.814 11.928C4.917 11.963 6.021 11.855 7.097 11.606C7.818 11.415 8.479 11.044 9.018 10.528C9.574 9.975 10.001 9.305 10.268 8.567C10.556 7.747 10.699 6.882 10.689 6.013C10.709 5.086 10.555 4.165 10.236 3.295C9.953 2.543 9.485 1.873 8.877 1.348C8.308 0.861 7.636 0.51 6.911 0.319C5.812 0.076 4.686 -0.029 3.56 0.007L0.014 0.007L0 11.928Z" fill="rgb(253,185,19)" fill-opacity="1.000" fill-rule="nonzero" transform="matrix(1 0 0 1 62.5256 21.3829)"/><path d="M10.933 9.674C10.925 10.173 10.722 10.648 10.367 10.999C10.012 11.349 9.534 11.547 9.036 11.549L0 11.549L0 8.017C0.009 7.517 0.214 7.041 0.571 6.69C0.927 6.34 1.407 6.143 1.907 6.142L10.933 6.142L10.933 9.679L10.933 9.674ZM14.924 3.229C14.919 3.615 14.763 3.982 14.489 4.254C14.215 4.525 13.846 4.677 13.461 4.679L6.93 4.679L6.93 1.445C6.936 1.06 7.093 0.692 7.367 0.422C7.642 0.151 8.012 0 8.397 0L14.924 0L14.924 3.229Z" fill="rgb(0,93,64)" fill-opacity="1.000" fill-rule="nonzero" transform="matrix(1 0 0 1 100.0768 19.5646)"/><path d="M93.21 2.686C93.21 2.043 93.531 1.522 94.116 1.522C94.7 1.522 95.022 2.043 95.022 2.686C95.022 3.329 94.7 3.85 94.116 3.85C93.531 3.85 93.21 3.333 93.21 2.686ZM92.843 2.686C92.843 3.447 93.233 4.144 94.111 4.144C94.99 4.144 95.379 3.447 95.379 2.686C95.379 1.925 94.99 1.227 94.111 1.227C93.233 1.227 92.843 1.929 92.843 2.686ZM92.123 0.095L91.797 0.095L91.797 0.548L92.132 0.548L92.123 0.095ZM91.797 4.076L92.132 4.076L92.132 1.3L91.797 1.3L91.797 4.076ZM91.145 1.336C90.935 1.262 90.714 1.225 90.492 1.227C90.305 1.227 90.12 1.265 89.948 1.339C89.777 1.414 89.622 1.523 89.495 1.66C89.367 1.797 89.269 1.959 89.207 2.135C89.145 2.312 89.12 2.499 89.134 2.686C89.134 3.46 89.559 4.14 90.433 4.14C90.67 4.149 90.906 4.117 91.131 4.045L91.099 3.723C90.905 3.803 90.698 3.846 90.488 3.85C90.345 3.842 90.206 3.805 90.078 3.742C89.95 3.678 89.836 3.589 89.744 3.48C89.651 3.371 89.582 3.245 89.54 3.108C89.498 2.971 89.485 2.828 89.5 2.686C89.481 2.54 89.493 2.392 89.536 2.252C89.578 2.111 89.651 1.981 89.748 1.871C89.845 1.761 89.964 1.672 90.098 1.612C90.232 1.552 90.377 1.521 90.524 1.522C90.726 1.531 90.925 1.58 91.108 1.667L91.145 1.336ZM86.466 2.695C86.466 2.052 86.778 1.531 87.372 1.531C87.965 1.531 88.278 2.052 88.278 2.695C88.278 3.338 87.965 3.859 87.372 3.859C86.778 3.859 86.466 3.343 86.466 2.695ZM86.099 2.695C86.099 3.456 86.489 4.153 87.367 4.153C88.246 4.153 88.635 3.456 88.635 2.695C88.635 1.934 88.246 1.236 87.367 1.236C86.489 1.236 86.099 1.938 86.099 2.695ZM87.064 1.015L87.304 1.015L87.974 0.226L87.553 0.226L87.064 1.015ZM85.42 1.304L85.085 1.304L85.085 1.626C84.991 1.491 84.863 1.384 84.714 1.316C84.565 1.249 84.4 1.223 84.238 1.241C83.436 1.241 83.114 1.852 83.114 2.699C83.114 3.315 83.391 4.094 84.26 4.094C84.438 4.101 84.613 4.052 84.761 3.953C84.909 3.855 85.022 3.713 85.085 3.546C85.085 4.33 85.008 4.978 84.147 4.978C83.867 4.973 83.591 4.905 83.341 4.778L83.314 5.122C83.58 5.213 83.857 5.263 84.138 5.272C85.066 5.272 85.411 4.638 85.411 3.863L85.42 1.304ZM83.472 2.695C83.472 2.156 83.635 1.531 84.278 1.531C84.922 1.531 85.08 2.025 85.08 2.695C85.08 3.202 84.863 3.795 84.256 3.795C83.649 3.795 83.472 3.243 83.472 2.695ZM80.682 2.5C80.666 2.266 80.74 2.035 80.891 1.855C81.041 1.675 81.255 1.561 81.488 1.535C81.987 1.535 82.181 2.02 82.181 2.5L80.682 2.5ZM82.34 3.65C82.106 3.778 81.845 3.849 81.579 3.859C80.99 3.859 80.673 3.379 80.673 2.794L82.535 2.794L82.535 2.613C82.535 1.861 82.213 1.227 81.452 1.227C80.764 1.227 80.306 1.834 80.306 2.686C80.306 3.537 80.641 4.144 81.543 4.144C81.813 4.14 82.08 4.086 82.331 3.986L82.34 3.65ZM77.476 4.103L77.82 4.103L77.82 2.563C77.82 2.111 78.015 1.544 78.621 1.544C79.074 1.544 79.265 1.884 79.265 2.41L79.265 4.103L79.604 4.103L79.604 2.296C79.604 1.685 79.346 1.227 78.676 1.227C78.488 1.212 78.3 1.259 78.142 1.36C77.983 1.461 77.862 1.612 77.797 1.789L77.797 1.3L77.448 1.3C77.448 1.517 77.448 1.753 77.448 1.957L77.476 4.103ZM74.595 2.708C74.595 2.065 74.908 1.544 75.501 1.544C76.094 1.544 76.407 2.065 76.407 2.708C76.407 3.352 76.09 3.872 75.501 3.872C74.912 3.872 74.595 3.356 74.595 2.708ZM74.228 2.708C74.228 3.469 74.618 4.167 75.496 4.167C76.375 4.167 76.765 3.469 76.765 2.708C76.765 1.948 76.375 1.25 75.496 1.25C74.618 1.25 74.228 1.952 74.228 2.708ZM72.679 4.099L73.014 4.099L73.014 2.74C73.014 2.237 73.159 1.626 73.689 1.626C73.772 1.625 73.854 1.636 73.934 1.658L73.934 1.3C73.859 1.278 73.781 1.267 73.703 1.268C73.54 1.286 73.386 1.352 73.261 1.459C73.137 1.565 73.047 1.707 73.005 1.866L73.005 1.3L72.666 1.3C72.687 1.507 72.694 1.716 72.688 1.925L72.679 4.099ZM71.773 1.313L71.438 1.313L71.438 1.635C71.345 1.5 71.217 1.393 71.068 1.325C70.919 1.258 70.754 1.232 70.591 1.25C69.785 1.25 69.464 1.866 69.464 2.708C69.464 3.329 69.744 4.103 70.609 4.103C70.788 4.112 70.964 4.063 71.113 3.965C71.262 3.866 71.376 3.723 71.438 3.555C71.438 4.343 71.366 4.987 70.501 4.987C70.222 4.986 69.947 4.919 69.699 4.792L69.672 5.136C69.936 5.227 70.212 5.276 70.492 5.281C71.425 5.281 71.764 4.651 71.764 3.872L71.773 1.313ZM69.826 2.708C69.826 2.169 69.989 1.544 70.632 1.544C71.275 1.544 71.434 2.038 71.434 2.708C71.434 3.216 71.216 3.809 70.609 3.809C70.003 3.809 69.826 3.256 69.826 2.708ZM68.141 2.754L66.533 2.754L67.339 0.652L68.141 2.754ZM65.632 4.112L65.99 4.112L66.388 3.089L68.263 3.089L68.662 4.112L69.047 4.112L67.57 0.299L67.158 0.299L65.632 4.112ZM61.556 2.717C61.556 2.074 61.868 1.553 62.461 1.553C63.055 1.553 63.367 2.074 63.367 2.717C63.367 3.361 63.046 3.881 62.461 3.881C61.877 3.881 61.556 3.365 61.556 2.717ZM61.189 2.717C61.189 3.478 61.574 4.176 62.457 4.176C63.34 4.176 63.725 3.478 63.725 2.717C63.725 1.957 63.336 1.259 62.457 1.259C61.578 1.259 61.189 1.961 61.189 2.717ZM58.616 2.881C58.616 3.179 58.616 3.886 57.81 3.886C57.502 3.886 57.248 3.746 57.248 3.379C57.248 2.772 57.941 2.708 58.521 2.708L58.616 2.708L58.616 2.881ZM58.648 4.112L58.979 4.112C58.956 3.919 58.947 3.723 58.951 3.528L58.951 2.269C58.951 1.54 58.671 1.232 58 1.232C57.721 1.24 57.447 1.305 57.194 1.422L57.194 1.753C57.434 1.598 57.715 1.519 58 1.526C58.453 1.526 58.616 1.766 58.616 2.242L58.616 2.382L58.553 2.382C57.851 2.382 56.877 2.428 56.877 3.361C56.877 3.61 57.004 4.144 57.783 4.144C57.96 4.148 58.136 4.102 58.289 4.012C58.441 3.921 58.566 3.79 58.648 3.632L58.648 4.112ZM55.233 4.112L55.568 4.112L55.568 2.754C55.568 2.251 55.713 1.64 56.247 1.64C56.33 1.641 56.412 1.652 56.492 1.671L56.492 1.313C56.415 1.292 56.336 1.281 56.257 1.282C56.093 1.299 55.939 1.366 55.815 1.472C55.69 1.579 55.601 1.721 55.559 1.88L55.559 1.3L55.219 1.3C55.24 1.507 55.248 1.716 55.242 1.925L55.233 4.112ZM54.019 2.881C54.019 3.179 54.019 3.886 53.217 3.886C52.91 3.886 52.651 3.746 52.651 3.379C52.651 2.772 53.344 2.708 53.924 2.708L54.019 2.708L54.019 2.881ZM54.051 4.112L54.35 4.112C54.336 3.916 54.336 3.72 54.35 3.524L54.35 2.26C54.35 1.535 54.064 1.223 53.394 1.223C53.115 1.233 52.841 1.299 52.588 1.418L52.588 1.753C52.828 1.598 53.109 1.518 53.394 1.522C53.847 1.522 54.01 1.766 54.01 2.242L54.01 2.382L53.947 2.382C53.245 2.382 52.275 2.423 52.275 3.361C52.275 3.61 52.398 4.144 53.181 4.144C53.358 4.148 53.533 4.102 53.685 4.011C53.837 3.921 53.961 3.79 54.042 3.632L54.051 4.112ZM51.361 2.717C51.361 3.261 51.197 3.881 50.554 3.881C49.911 3.881 49.753 3.225 49.753 2.717C49.753 2.21 49.961 1.553 50.554 1.553C51.148 1.553 51.361 2.179 51.361 2.717ZM49.418 5.258L49.753 5.258L49.753 3.601C49.817 3.77 49.934 3.914 50.087 4.011C50.239 4.108 50.419 4.153 50.6 4.14C51.347 4.14 51.727 3.51 51.727 2.686C51.727 1.861 51.406 1.227 50.6 1.227C50.415 1.227 50.234 1.281 50.079 1.383C49.925 1.484 49.803 1.628 49.73 1.798L49.73 1.291L49.395 1.291L49.418 5.258ZM45.482 4.017C45.725 4.113 45.986 4.158 46.247 4.149C46.362 4.163 46.478 4.154 46.589 4.122C46.7 4.089 46.803 4.034 46.892 3.96C46.98 3.886 47.053 3.795 47.105 3.692C47.157 3.589 47.187 3.476 47.194 3.361C47.194 2.455 45.835 2.514 45.835 2.002C45.835 1.644 46.075 1.549 46.419 1.549C46.627 1.554 46.831 1.598 47.022 1.68L47.053 1.381C46.838 1.303 46.612 1.26 46.383 1.255C45.93 1.255 45.5 1.463 45.5 2.015C45.5 2.817 46.804 2.722 46.804 3.374C46.804 3.691 46.523 3.868 46.202 3.868C45.954 3.869 45.71 3.808 45.491 3.691L45.482 4.017ZM44.508 2.853C44.508 3.152 44.508 3.859 43.706 3.859C43.394 3.859 43.14 3.718 43.14 3.352C43.14 2.745 43.833 2.681 44.413 2.681L44.508 2.681L44.508 2.853ZM44.54 4.085L44.866 4.085C44.843 3.891 44.834 3.696 44.839 3.501L44.839 2.269C44.839 1.54 44.558 1.232 43.887 1.232C43.609 1.24 43.334 1.305 43.081 1.422L43.081 1.753C43.321 1.598 43.602 1.519 43.887 1.526C44.34 1.526 44.503 1.766 44.503 2.242L44.503 2.382L44.44 2.382C43.738 2.382 42.764 2.428 42.764 3.361C42.764 3.61 42.891 4.144 43.67 4.144C43.848 4.148 44.023 4.102 44.176 4.012C44.329 3.921 44.453 3.79 44.535 3.632L44.54 4.085ZM41.125 4.085L41.46 4.085L41.46 2.727C41.46 2.224 41.605 1.612 42.139 1.612C42.222 1.614 42.304 1.625 42.384 1.644L42.384 1.286C42.307 1.265 42.228 1.254 42.148 1.255C41.985 1.272 41.831 1.338 41.707 1.445C41.582 1.552 41.493 1.694 41.451 1.852L41.451 1.3L41.116 1.3C41.129 1.508 41.129 1.717 41.116 1.925L41.125 4.085ZM40.219 0.095L39.857 0.095L39.857 0.548L40.192 0.548L40.219 0.095ZM39.857 4.076L40.192 4.076L40.192 1.3L39.857 1.3L39.857 4.076ZM37.275 2.487C37.258 2.253 37.333 2.021 37.483 1.842C37.634 1.662 37.848 1.547 38.081 1.522C38.579 1.522 38.774 2.006 38.774 2.487L37.275 2.487ZM38.951 3.641C38.716 3.768 38.456 3.838 38.19 3.845C37.606 3.845 37.284 3.365 37.284 2.781L39.145 2.781L39.145 2.609C39.145 1.861 38.824 1.25 38.063 1.25C37.375 1.25 36.917 1.852 36.917 2.708C36.917 3.564 37.252 4.162 38.154 4.162C38.429 4.156 38.7 4.095 38.951 3.981L38.951 3.641ZM36.482 1.336C36.271 1.262 36.049 1.225 35.826 1.227C35.638 1.227 35.453 1.265 35.282 1.339C35.11 1.414 34.955 1.523 34.828 1.66C34.7 1.797 34.602 1.959 34.54 2.135C34.478 2.312 34.453 2.499 34.467 2.686C34.467 3.46 34.893 4.14 35.767 4.14C36.004 4.149 36.242 4.117 36.469 4.045L36.432 3.723C36.238 3.803 36.031 3.846 35.821 3.85C35.678 3.842 35.539 3.805 35.411 3.742C35.283 3.678 35.169 3.589 35.077 3.48C34.984 3.371 34.915 3.245 34.873 3.108C34.832 2.971 34.818 2.828 34.834 2.686C34.815 2.54 34.828 2.393 34.87 2.252C34.913 2.112 34.986 1.983 35.082 1.873C35.179 1.762 35.298 1.674 35.432 1.614C35.566 1.553 35.711 1.522 35.857 1.522C36.06 1.531 36.258 1.58 36.442 1.667L36.482 1.336ZM31.636 4.076L31.971 4.076L31.971 2.536C31.971 2.083 32.166 1.522 32.773 1.522C33.226 1.522 33.416 1.861 33.416 2.382L33.416 4.076L33.751 4.076L33.751 2.296C33.751 1.685 33.498 1.227 32.845 1.227C32.658 1.213 32.47 1.26 32.312 1.361C32.153 1.462 32.032 1.613 31.967 1.789L31.967 1.3L31.613 1.3C31.625 1.519 31.625 1.738 31.613 1.957L31.636 4.076ZM30.413 2.849C30.413 3.148 30.413 3.854 29.612 3.854C29.304 3.854 29.045 3.714 29.045 3.347C29.045 2.74 29.738 2.677 30.318 2.677L30.418 2.677L30.413 2.849ZM30.445 4.081L30.798 4.081C30.776 3.887 30.767 3.692 30.771 3.497L30.771 2.269C30.771 1.54 30.49 1.232 29.82 1.232C29.541 1.24 29.267 1.305 29.014 1.422L29.014 1.753C29.253 1.598 29.534 1.519 29.82 1.526C30.273 1.526 30.436 1.766 30.436 2.242L30.436 2.382L30.345 2.382C29.643 2.382 28.674 2.428 28.674 3.361C28.674 3.61 28.796 4.144 29.58 4.144C29.757 4.148 29.933 4.102 30.086 4.012C30.238 3.921 30.363 3.79 30.445 3.632L30.445 4.081ZM25.839 4.081L26.174 4.081L26.174 2.541C26.174 2.088 26.369 1.526 26.98 1.526C27.433 1.526 27.623 1.866 27.623 2.387L27.623 4.081L27.958 4.081L27.958 2.296C27.958 1.685 27.705 1.227 27.053 1.227C26.865 1.213 26.678 1.26 26.519 1.361C26.361 1.462 26.239 1.613 26.174 1.789L26.174 1.3L25.816 1.3C25.835 1.518 25.842 1.737 25.839 1.957L25.839 4.081ZM24.933 0.095L24.593 0.095L24.593 0.548L24.91 0.548L24.933 0.095ZM24.598 4.081L24.91 4.081L24.91 1.3L24.575 1.3L24.598 4.081ZM22.138 4.081L22.51 4.081L22.51 2.269L23.869 2.269L23.869 1.952L22.51 1.952L22.51 0.593L23.909 0.593L23.909 0.272L22.143 0.272L22.138 4.081ZM18.18 4.017C18.423 4.109 18.681 4.153 18.941 4.144C19.056 4.159 19.172 4.151 19.283 4.118C19.395 4.086 19.498 4.031 19.587 3.957C19.676 3.883 19.748 3.792 19.8 3.688C19.852 3.585 19.882 3.472 19.887 3.356C19.887 2.45 18.551 2.509 18.551 1.997C18.551 1.644 18.791 1.544 19.136 1.544C19.344 1.545 19.549 1.59 19.738 1.676L19.77 1.372C19.554 1.295 19.328 1.254 19.099 1.25C18.647 1.25 18.194 1.458 18.194 2.006C18.194 2.813 19.498 2.713 19.498 3.365C19.498 3.687 19.217 3.863 18.896 3.863C18.65 3.86 18.408 3.799 18.189 3.687L18.18 4.017ZM15.852 2.491C15.835 2.258 15.909 2.027 16.059 1.847C16.208 1.668 16.421 1.553 16.654 1.526C17.156 1.526 17.347 2.011 17.347 2.491L15.852 2.491ZM17.51 3.646C17.275 3.771 17.015 3.842 16.749 3.854C16.16 3.854 15.843 3.37 15.843 2.785L17.709 2.785L17.709 2.613C17.709 1.866 17.387 1.255 16.622 1.255C15.938 1.255 15.481 1.861 15.481 2.713C15.481 3.564 15.816 4.167 16.717 4.167C16.988 4.166 17.255 4.112 17.505 4.008L17.51 3.646ZM12.79 2.681C12.79 2.038 13.112 1.517 13.696 1.517C14.28 1.517 14.602 2.038 14.602 2.681C14.602 3.324 14.28 3.845 13.696 3.845C13.112 3.845 12.79 3.324 12.79 2.681ZM12.423 2.681C12.423 3.442 12.813 4.14 13.692 4.14C14.57 4.14 14.946 3.442 14.946 2.681C14.946 1.92 14.557 1.223 13.678 1.223C12.799 1.223 12.41 1.92 12.41 2.681M13.135 0.87C13.184 0.738 13.23 0.67 13.37 0.67C13.456 0.68 13.54 0.703 13.619 0.738C13.722 0.778 13.831 0.802 13.941 0.811C14.072 0.811 14.33 0.725 14.394 0.326L14.203 0.326C14.186 0.382 14.151 0.43 14.104 0.464C14.056 0.497 13.999 0.514 13.941 0.512C13.86 0.494 13.782 0.47 13.705 0.439C13.602 0.402 13.493 0.38 13.384 0.376C13.135 0.376 13.003 0.634 12.953 0.865L13.135 0.87ZM11.966 1.323C11.759 1.254 11.541 1.221 11.323 1.223C11.136 1.222 10.951 1.261 10.779 1.335C10.607 1.409 10.453 1.518 10.325 1.655C10.198 1.792 10.1 1.954 10.037 2.131C9.975 2.307 9.95 2.495 9.964 2.681C9.964 3.456 10.39 4.14 11.264 4.14C11.501 4.15 11.737 4.116 11.961 4.04L11.93 3.718C11.736 3.799 11.528 3.842 11.318 3.845C11.175 3.838 11.036 3.802 10.907 3.738C10.779 3.675 10.665 3.586 10.573 3.477C10.48 3.368 10.411 3.241 10.369 3.104C10.328 2.967 10.315 2.823 10.331 2.681C10.312 2.536 10.324 2.388 10.366 2.247C10.409 2.107 10.481 1.977 10.578 1.866C10.675 1.756 10.795 1.668 10.928 1.608C11.062 1.547 11.208 1.517 11.355 1.517C11.556 1.526 11.753 1.575 11.934 1.662L11.966 1.323ZM10.979 4.529C11.054 4.52 11.13 4.52 11.205 4.529C11.23 4.527 11.254 4.53 11.277 4.538C11.301 4.546 11.322 4.558 11.341 4.574C11.359 4.59 11.374 4.609 11.385 4.631C11.396 4.653 11.403 4.677 11.404 4.701C11.407 4.706 11.408 4.712 11.408 4.717C11.408 4.723 11.407 4.728 11.404 4.733C11.404 4.869 11.291 4.932 11.128 4.932C10.957 4.923 10.791 4.869 10.648 4.774L10.621 4.982C10.793 5.051 10.975 5.09 11.16 5.1C11.404 5.1 11.744 5.045 11.744 4.724C11.745 4.678 11.736 4.631 11.719 4.588C11.702 4.545 11.676 4.506 11.644 4.473C11.611 4.44 11.573 4.413 11.53 4.395C11.488 4.376 11.442 4.367 11.395 4.366L11.368 4.366L11.196 4.366L11.296 4.072L11.151 4.072L10.979 4.529ZM9.262 1.3L8.927 1.3L8.927 2.84C8.927 3.293 8.737 3.854 8.125 3.854C7.672 3.854 7.482 3.519 7.482 2.994L7.482 1.3L7.142 1.3L7.142 3.08C7.142 3.691 7.396 4.149 8.071 4.149C8.261 4.163 8.451 4.113 8.61 4.007C8.769 3.901 8.889 3.746 8.95 3.564L8.95 4.058L9.271 4.058C9.26 3.839 9.26 3.62 9.271 3.401L9.262 1.3ZM5.888 4.076L6.223 4.076L6.223 0L5.888 0L5.888 4.076ZM2.994 2.686C2.994 2.043 3.311 1.522 3.9 1.522C4.488 1.522 4.805 2.043 4.805 2.686C4.805 3.329 4.484 3.85 3.9 3.85C3.315 3.85 2.994 3.333 2.994 2.686ZM2.627 2.686C2.627 3.447 3.016 4.144 3.895 4.144C4.774 4.144 5.172 3.442 5.172 2.686C5.172 1.929 4.783 1.227 3.904 1.227C3.025 1.227 2.636 1.929 2.636 2.686M0 3.972C0.266 4.085 0.553 4.14 0.842 4.135C0.995 4.152 1.149 4.136 1.294 4.089C1.44 4.043 1.575 3.967 1.69 3.865C1.804 3.764 1.896 3.639 1.96 3.5C2.024 3.361 2.058 3.21 2.061 3.057C2.061 1.943 0.358 1.934 0.358 1.173C0.358 0.684 0.779 0.521 1.159 0.521C1.385 0.516 1.608 0.564 1.812 0.661L1.871 0.317C1.636 0.234 1.39 0.191 1.141 0.19C1.001 0.179 0.859 0.195 0.725 0.239C0.59 0.283 0.466 0.354 0.36 0.447C0.253 0.54 0.167 0.653 0.105 0.78C0.043 0.907 0.007 1.046 0 1.187C0 2.183 1.707 2.278 1.707 3.025C1.713 3.135 1.694 3.243 1.653 3.345C1.612 3.446 1.55 3.537 1.47 3.611C1.39 3.686 1.295 3.742 1.192 3.776C1.088 3.81 0.978 3.822 0.87 3.809C0.581 3.818 0.296 3.742 0.05 3.592L0 3.972Z" fill="rgb(35,31,32)" fill-opacity="1.000" fill-rule="nonzero" transform="matrix(1 0 0 1 14.4529 38.7047)"/></svg>