<svg xmlns="http://www.w3.org/2000/svg" viewBox="0 0 130 60" width="130" height="60"><path d="M0 0L130 0L130 60L0 60L0 0Z" fill="rgb(255,255,255)" fill-opacity="1.000" fill-rule="nonzero" transform="matrix(1 0 0 1 0 0)"/><path d="M7.089 0L0 0L0 1.695L0.214 1.675L0.214 1.654C0.252 1.406 0.68 0.93 1.204 0.93C1.204 0.93 2.719 0.93 2.777 0.93C2.777 1.013 2.777 9.676 2.777 9.676L4.331 9.676C4.331 9.676 4.331 1.013 4.331 0.951C4.408 0.951 5.943 0.951 5.943 0.951C6.487 0.951 6.836 1.261 6.894 1.551L6.894 1.592L7.127 1.592L7.108 0.041L7.089 0.041L7.089 0Z" fill="rgb(24,57,100)" fill-opacity="1.000" fill-rule="nonzero" transform="matrix(1 0 0 1 47.8909 26.6559)"/><path d="M0.039 0L0 0L0 0.227L0.019 0.248C0.155 0.331 0.291 0.682 0.291 1.116L0.291 9.676L1.806 9.676C1.806 9.676 1.806 5.355 1.806 5.272C1.884 5.272 2.486 5.272 2.486 5.272C3.088 5.314 3.321 5.727 3.612 6.265L3.651 6.327L3.845 6.658C4.175 7.237 4.622 8.022 5.069 8.767C5.399 9.283 5.807 9.594 6.331 9.676C6.7 9.738 7.438 9.718 7.729 9.635L8.06 9.552L8.196 9.511L7.729 9.366C7.535 9.304 7.244 9.159 6.856 8.684C6.603 8.394 6.215 7.712 5.613 6.72L5.03 5.727L5.011 5.707C4.855 5.458 4.583 5.066 4.137 4.817C4.991 4.528 5.826 3.701 5.826 2.46C5.826 2.109 5.749 1.447 5.185 0.868C4.622 0.289 3.729 0 2.525 0L0.039 0ZM2.641 0.868C4.195 0.93 4.234 2.336 4.234 2.481C4.234 3.887 3.263 4.383 2.408 4.383C2.408 4.383 1.864 4.363 1.806 4.363C1.806 4.28 1.806 0.951 1.806 0.868C1.981 0.868 2.272 0.848 2.641 0.868Z" fill="rgb(24,57,100)" fill-opacity="1.000" fill-rule="nonzero" transform="matrix(1 0 0 1 19.555 26.6559)"/><path d="M0.039 0.021L0 0.021L0.019 0.269L0.039 0.269C0.175 0.331 0.291 0.682 0.291 0.972L0.291 9.676L2.894 9.676C4.603 9.676 6.04 9.118 7.011 8.043C7.827 7.154 8.273 5.934 8.273 4.693C8.273 3.949 8.04 2.812 7.36 1.882C6.467 0.641 5.049 0 3.127 0L0.039 0.021ZM1.845 0.951C1.923 0.951 2.661 0.951 2.661 0.951C2.874 0.951 3.418 0.972 3.807 1.034C6.37 1.447 6.642 3.742 6.642 4.693C6.642 5.479 6.506 6.616 5.865 7.485C5.244 8.332 4.273 8.767 2.952 8.767C2.641 8.767 2.253 8.767 1.826 8.746C1.845 8.684 1.845 1.034 1.845 0.951Z" fill="rgb(24,57,100)" fill-opacity="1.000" fill-rule="nonzero" transform="matrix(1 0 0 1 35.0917 26.6353)"/><path d="M1.787 0L0 0L0 0.227L0.02 0.248C0.175 0.331 0.291 0.641 0.291 1.054L0.291 9.676L1.806 9.676L1.806 0.021L1.787 0Z" fill="rgb(24,57,100)" fill-opacity="1.000" fill-rule="nonzero" transform="matrix(1 0 0 1 44.7242 26.6559)"/><path d="M5.108 0L0 0L0.02 0.227L0.039 0.227C0.175 0.31 0.33 0.641 0.33 1.096L0.33 9.656L5.418 9.656L5.787 7.939L5.574 7.857L5.515 7.96C5.088 8.663 4.661 8.746 3.185 8.746C2.661 8.767 2.136 8.704 1.826 8.684C1.826 8.622 1.826 4.817 1.826 4.735C1.903 4.735 4.408 4.735 4.408 4.735L4.408 3.866C4.408 3.866 1.903 3.866 1.826 3.866C1.826 3.784 1.826 0.93 1.826 0.868C1.903 0.868 3.923 0.889 3.923 0.889C4.389 0.889 4.914 1.365 4.952 1.654L4.952 1.695L5.166 1.695L5.108 0Z" fill="rgb(24,57,100)" fill-opacity="1.000" fill-rule="nonzero" transform="matrix(1 0 0 1 28.0619 26.6559)"/><path d="M1.787 0L0 0L0.019 0.227L0.039 0.227C0.194 0.31 0.311 0.641 0.311 1.054L0.311 9.676L1.826 9.676L1.826 0.021L1.787 0Z" fill="rgb(24,57,100)" fill-opacity="1.000" fill-rule="nonzero" transform="matrix(1 0 0 1 73.9713 26.6559)"/><path d="M5.088 0.021L0 0.021L0.02 0.269L0.039 0.269C0.175 0.351 0.33 0.662 0.33 1.116L0.33 9.676L5.419 9.676L5.787 7.96L5.554 7.877L5.496 7.981C5.069 8.684 4.642 8.767 3.185 8.767C2.661 8.787 2.136 8.725 1.826 8.704C1.826 8.642 1.826 4.838 1.826 4.755C1.903 4.755 4.409 4.755 4.409 4.755L4.409 3.887C4.409 3.887 1.903 3.887 1.826 3.887C1.826 3.804 1.826 0.951 1.826 0.889C1.903 0.889 3.923 0.91 3.923 0.91C4.506 0.91 4.933 1.365 4.933 1.675L4.933 1.716L5.166 1.695L5.127 0L5.088 0.021Z" fill="rgb(24,57,100)" fill-opacity="1.000" fill-rule="nonzero" transform="matrix(1 0 0 1 91.8779 26.6353)"/><path d="M0.116 2.523C0.097 3.867 0.855 4.528 2.097 5.19L2.563 5.438C3.535 5.955 4.175 6.286 4.175 7.258C4.175 7.423 4.137 8.002 3.729 8.457C3.438 8.767 3.03 8.912 2.525 8.912C1.068 8.891 0.544 7.692 0.35 6.989L0.311 6.865L0 6.927L0.078 8.953L0.155 8.994C0.641 9.284 1.456 9.78 2.602 9.801C3.437 9.801 4.273 9.449 4.836 8.85C5.341 8.312 5.613 7.65 5.613 6.906C5.613 5.211 4.506 4.611 3.34 3.949L3.127 3.825C1.864 3.164 1.437 2.854 1.437 2.109C1.437 1.592 1.806 0.807 2.816 0.827C4.039 0.848 4.564 1.778 4.68 2.275L4.719 2.419L5.03 2.378L4.913 0.6L4.855 0.559C4.156 0.062 3.282 0 2.932 0C1.573 -0.02 0.136 0.869 0.116 2.523Z" fill="rgb(24,57,100)" fill-opacity="1.000" fill-rule="nonzero" transform="matrix(1 0 0 1 78.1083 26.5728)"/><path d="M0.117 2.503C0.097 3.847 0.855 4.509 2.097 5.17L2.564 5.418C3.535 5.935 4.175 6.266 4.175 7.238C4.175 7.403 4.137 7.982 3.729 8.437C3.438 8.747 3.03 8.892 2.525 8.892C1.068 8.871 0.544 7.672 0.35 6.969L0.311 6.845L0 6.907L0.078 8.933L0.155 8.975C0.641 9.264 1.457 9.76 2.602 9.781C3.438 9.781 4.273 9.43 4.836 8.83C5.341 8.292 5.613 7.631 5.613 6.886C5.613 5.191 4.506 4.591 3.34 3.93L3.127 3.806C1.864 3.144 1.437 2.834 1.437 2.09C1.437 1.573 1.806 0.787 2.816 0.808C4.04 0.828 4.564 1.759 4.68 2.255L4.719 2.4L5.03 2.358L4.933 0.601L4.875 0.56C4.175 0.063 3.302 0.001 2.952 0.001C1.593 -0.04 0.136 0.849 0.117 2.503Z" fill="rgb(24,57,100)" fill-opacity="1.000" fill-rule="nonzero" transform="matrix(1 0 0 1 58.1445 26.5922)"/><path d="M0.116 2.543C0.097 3.887 0.855 4.549 2.097 5.21L2.563 5.458C3.535 5.975 4.175 6.306 4.175 7.278C4.175 7.443 4.137 8.022 3.729 8.477C3.437 8.787 3.03 8.932 2.525 8.932C1.068 8.911 0.544 7.712 0.35 7.009L0.311 6.885L0 6.947L0.078 8.973L0.155 9.015C0.641 9.304 1.456 9.8 2.602 9.821C3.437 9.821 4.273 9.469 4.836 8.87C5.341 8.332 5.613 7.671 5.613 6.926C5.613 5.231 4.506 4.631 3.34 3.97L3.127 3.846C1.864 3.184 1.437 2.874 1.437 2.13C1.437 1.799 1.573 1.468 1.806 1.22C2.059 0.972 2.408 0.827 2.816 0.827C4.039 0.848 4.564 1.778 4.68 2.274L4.719 2.398L5.03 2.357L4.933 0.6L4.875 0.558C4.175 0.062 3.302 0 2.952 0C1.592 0 0.136 0.889 0.116 2.543Z" fill="rgb(24,57,100)" fill-opacity="1.000" fill-rule="nonzero" transform="matrix(1 0 0 1 84.9258 26.5521)"/><path d="M6.933 0.041L5.729 0.041L5.749 0.269L5.768 0.269C5.826 0.31 6.02 0.455 6.02 1.054L6.02 6.534C6.02 7.588 5.651 8.87 3.904 8.87C2.253 8.87 1.903 7.815 1.903 6.244L1.903 0.021L0 0.021L0.019 0.227L0.039 0.227C0.155 0.289 0.369 0.558 0.369 1.075L0.369 6.223C0.369 9.428 2.35 9.78 3.845 9.78C4.583 9.78 6.953 9.552 6.953 6.534L6.953 0L6.933 0.041Z" fill="rgb(24,57,100)" fill-opacity="1.000" fill-rule="nonzero" transform="matrix(1 0 0 1 65.0373 26.6146)"/><path d="M1.262 1.593C0.466 2.523 0 3.764 0 5.045C0 6.472 0.524 7.754 1.476 8.684C2.389 9.573 3.593 10.049 4.894 10.049C5.574 10.049 6.914 9.925 8.196 9.077L8.254 9.036L8.409 7.03L8.157 7.01L8.118 7.092C7.166 9.263 5.69 8.953 5.127 8.953C2.622 8.953 1.767 6.989 1.767 4.859C1.767 2.812 2.622 1.055 5.146 1.055C5.923 1.055 7.322 1.034 8.06 2.895L8.098 2.999L8.331 2.916L8.176 0.828L8.118 0.807C6.933 0.249 5.982 0.001 5.03 0.001C3.496 -0.02 2.195 0.538 1.262 1.593Z" fill="rgb(24,57,100)" fill-opacity="1.000" fill-rule="nonzero" transform="matrix(1 0 0 1 10 26.4482)"/><path d="M15.612 10.848C13.922 10.558 12.096 10.393 10.756 10.641C10.679 10.662 10.62 10.6 10.62 10.517C10.62 10.021 10.62 8.408 10.252 6.402C10.252 6.361 10.232 6.34 10.193 6.32C5.785 3.032 1.803 0.841 0.172 0.014C0.056 -0.048 -0.061 0.117 0.036 0.22C4.794 4.872 6.465 12.791 6.678 13.846C6.697 13.908 6.756 13.949 6.814 13.949C12.155 12.853 17.515 14.218 19.01 14.652C19.127 14.693 19.205 14.528 19.127 14.445C18.02 13.184 16.855 12.005 15.67 10.889C15.67 10.868 15.65 10.848 15.612 10.848Z" fill="rgb(24,57,100)" fill-opacity="1.000" fill-rule="nonzero" transform="matrix(1 0 0 1 99.7661 22.3415)"/><path d="M12.493 11.996C8.201 5.876 2.103 1.368 0.181 0.024C0.064 -0.058 -0.053 0.086 0.025 0.21C1.501 2.278 2.258 4.656 2.628 6.641C2.628 6.682 2.647 6.703 2.666 6.723C4.434 8.047 6.24 9.535 8.026 11.169C8.046 11.189 8.065 11.189 8.085 11.189C9.949 11.52 11.658 11.975 12.357 12.182C12.474 12.223 12.551 12.099 12.493 11.996Z" fill="rgb(24,57,100)" fill-opacity="1.000" fill-rule="nonzero" transform="matrix(1 0 0 1 107.3713 22)"/><path d="M7.089 0L0 0L0 1.695L0.214 1.675L0.214 1.654C0.252 1.406 0.68 0.93 1.204 0.93C1.204 0.93 2.719 0.93 2.777 0.93C2.777 1.013 2.777 9.676 2.777 9.676L4.331 9.676C4.331 9.676 4.331 1.013 4.331 0.951C4.408 0.951 5.943 0.951 5.943 0.951C6.487 0.951 6.836 1.261 6.894 1.551L6.894 1.592L7.127 1.592L7.108 0.041L7.089 0.041L7.089 0Z" fill="rgb(24,57,100)" fill-opacity="1.000" fill-rule="nonzero" transform="matrix(1 0 0 1 47.8909 26.6559)"/><path d="M0.039 0L0 0L0 0.227L0.019 0.248C0.155 0.331 0.291 0.682 0.291 1.116L0.291 9.676L1.806 9.676C1.806 9.676 1.806 5.355 1.806 5.272C1.884 5.272 2.486 5.272 2.486 5.272C3.088 5.314 3.321 5.727 3.612 6.265L3.651 6.327L3.845 6.658C4.175 7.237 4.622 8.022 5.069 8.767C5.399 9.283 5.807 9.594 6.331 9.676C6.7 9.738 7.438 9.718 7.729 9.635L8.06 9.552L8.196 9.511L7.729 9.366C7.535 9.304 7.244 9.159 6.856 8.684C6.603 8.394 6.215 7.712 5.613 6.72L5.03 5.727L5.011 5.707C4.855 5.458 4.583 5.066 4.137 4.817C4.991 4.528 5.826 3.701 5.826 2.46C5.826 2.109 5.749 1.447 5.185 0.868C4.622 0.289 3.729 0 2.525 0L0.039 0ZM2.641 0.868C4.195 0.93 4.234 2.336 4.234 2.481C4.234 3.887 3.263 4.383 2.408 4.383C2.408 4.383 1.864 4.363 1.806 4.363C1.806 4.28 1.806 0.951 1.806 0.868C1.981 0.868 2.272 0.848 2.641 0.868Z" fill="rgb(24,57,100)" fill-opacity="1.000" fill-rule="nonzero" transform="matrix(1 0 0 1 19.555 26.6559)"/><path d="M0.039 0.021L0 0.021L0.019 0.269L0.039 0.269C0.175 0.331 0.291 0.682 0.291 0.972L0.291 9.676L2.894 9.676C4.603 9.676 6.04 9.118 7.011 8.043C7.827 7.154 8.273 5.934 8.273 4.693C8.273 3.949 8.04 2.812 7.36 1.882C6.467 0.641 5.049 0 3.127 0L0.039 0.021ZM1.845 0.951C1.923 0.951 2.661 0.951 2.661 0.951C2.874 0.951 3.418 0.972 3.807 1.034C6.37 1.447 6.642 3.742 6.642 4.693C6.642 5.479 6.506 6.616 5.865 7.485C5.244 8.332 4.273 8.767 2.952 8.767C2.641 8.767 2.253 8.767 1.826 8.746C1.845 8.684 1.845 1.034 1.845 0.951Z" fill="rgb(24,57,100)" fill-opacity="1.000" fill-rule="nonzero" transform="matrix(1 0 0 1 35.0917 26.6353)"/><path d="M1.787 0L0 0L0 0.227L0.02 0.248C0.175 0.331 0.291 0.641 0.291 1.054L0.291 9.676L1.806 9.676L1.806 0.021L1.787 0Z" fill="rgb(24,57,100)" fill-opacity="1.000" fill-rule="nonzero" transform="matrix(1 0 0 1 44.7242 26.6559)"/><path d="M5.108 0L0 0L0.02 0.227L0.039 0.227C0.175 0.31 0.33 0.641 0.33 1.096L0.33 9.656L5.418 9.656L5.787 7.939L5.574 7.857L5.515 7.96C5.088 8.663 4.661 8.746 3.185 8.746C2.661 8.767 2.136 8.704 1.826 8.684C1.826 8.622 1.826 4.817 1.826 4.735C1.903 4.735 4.408 4.735 4.408 4.735L4.408 3.866C4.408 3.866 1.903 3.866 1.826 3.866C1.826 3.784 1.826 0.93 1.826 0.868C1.903 0.868 3.923 0.889 3.923 0.889C4.389 0.889 4.914 1.365 4.952 1.654L4.952 1.695L5.166 1.695L5.108 0Z" fill="rgb(24,57,100)" fill-opacity="1.000" fill-rule="nonzero" transform="matrix(1 0 0 1 28.0619 26.6559)"/><path d="M1.787 0L0 0L0.019 0.227L0.039 0.227C0.194 0.31 0.311 0.641 0.311 1.054L0.311 9.676L1.826 9.676L1.826 0.021L1.787 0Z" fill="rgb(24,57,100)" fill-opacity="1.000" fill-rule="nonzero" transform="matrix(1 0 0 1 73.9713 26.6559)"/><path d="M5.088 0.021L0 0.021L0.02 0.269L0.039 0.269C0.175 0.351 0.33 0.662 0.33 1.116L0.33 9.676L5.419 9.676L5.787 7.96L5.554 7.877L5.496 7.981C5.069 8.684 4.642 8.767 3.185 8.767C2.661 8.787 2.136 8.725 1.826 8.704C1.826 8.642 1.826 4.838 1.826 4.755C1.903 4.755 4.409 4.755 4.409 4.755L4.409 3.887C4.409 3.887 1.903 3.887 1.826 3.887C1.826 3.804 1.826 0.951 1.826 0.889C1.903 0.889 3.923 0.91 3.923 0.91C4.506 0.91 4.933 1.365 4.933 1.675L4.933 1.716L5.166 1.695L5.127 0L5.088 0.021Z" fill="rgb(24,57,100)" fill-opacity="1.000" fill-rule="nonzero" transform="matrix(1 0 0 1 91.8779 26.6353)"/><path d="M0.116 2.523C0.097 3.867 0.855 4.528 2.097 5.19L2.563 5.438C3.535 5.955 4.175 6.286 4.175 7.258C4.175 7.423 4.137 8.002 3.729 8.457C3.438 8.767 3.03 8.912 2.525 8.912C1.068 8.891 0.544 7.692 0.35 6.989L0.311 6.865L0 6.927L0.078 8.953L0.155 8.994C0.641 9.284 1.456 9.78 2.602 9.801C3.437 9.801 4.273 9.449 4.836 8.85C5.341 8.312 5.613 7.65 5.613 6.906C5.613 5.211 4.506 4.611 3.34 3.949L3.127 3.825C1.864 3.164 1.437 2.854 1.437 2.109C1.437 1.592 1.806 0.807 2.816 0.827C4.039 0.848 4.564 1.778 4.68 2.275L4.719 2.419L5.03 2.378L4.913 0.6L4.855 0.559C4.156 0.062 3.282 0 2.932 0C1.573 -0.02 0.136 0.869 0.116 2.523Z" fill="rgb(24,57,100)" fill-opacity="1.000" fill-rule="nonzero" transform="matrix(1 0 0 1 78.1083 26.5728)"/><path d="M0.117 2.503C0.097 3.847 0.855 4.509 2.097 5.17L2.564 5.418C3.535 5.935 4.175 6.266 4.175 7.238C4.175 7.403 4.137 7.982 3.729 8.437C3.438 8.747 3.03 8.892 2.525 8.892C1.068 8.871 0.544 7.672 0.35 6.969L0.311 6.845L0 6.907L0.078 8.933L0.155 8.975C0.641 9.264 1.457 9.76 2.602 9.781C3.438 9.781 4.273 9.43 4.836 8.83C5.341 8.292 5.613 7.631 5.613 6.886C5.613 5.191 4.506 4.591 3.34 3.93L3.127 3.806C1.864 3.144 1.437 2.834 1.437 2.09C1.437 1.573 1.806 0.787 2.816 0.808C4.04 0.828 4.564 1.759 4.68 2.255L4.719 2.4L5.03 2.358L4.933 0.601L4.875 0.56C4.175 0.063 3.302 0.001 2.952 0.001C1.593 -0.04 0.136 0.849 0.117 2.503Z" fill="rgb(24,57,100)" fill-opacity="1.000" fill-rule="nonzero" transform="matrix(1 0 0 1 58.1445 26.5922)"/><path d="M0.116 2.543C0.097 3.887 0.855 4.549 2.097 5.21L2.563 5.458C3.535 5.975 4.175 6.306 4.175 7.278C4.175 7.443 4.137 8.022 3.729 8.477C3.437 8.787 3.03 8.932 2.525 8.932C1.068 8.911 0.544 7.712 0.35 7.009L0.311 6.885L0 6.947L0.078 8.973L0.155 9.015C0.641 9.304 1.456 9.8 2.602 9.821C3.437 9.821 4.273 9.469 4.836 8.87C5.341 8.332 5.613 7.671 5.613 6.926C5.613 5.231 4.506 4.631 3.34 3.97L3.127 3.846C1.864 3.184 1.437 2.874 1.437 2.13C1.437 1.799 1.573 1.468 1.806 1.22C2.059 0.972 2.408 0.827 2.816 0.827C4.039 0.848 4.564 1.778 4.68 2.274L4.719 2.398L5.03 2.357L4.933 0.6L4.875 0.558C4.175 0.062 3.302 0 2.952 0C1.592 0 0.136 0.889 0.116 2.543Z" fill="rgb(24,57,100)" fill-opacity="1.000" fill-rule="nonzero" transform="matrix(1 0 0 1 84.9258 26.5521)"/><path d="M6.933 0.041L5.729 0.041L5.749 0.269L5.768 0.269C5.826 0.31 6.02 0.455 6.02 1.054L6.02 6.534C6.02 7.588 5.651 8.87 3.904 8.87C2.253 8.87 1.903 7.815 1.903 6.244L1.903 0.021L0 0.021L0.019 0.227L0.039 0.227C0.155 0.289 0.369 0.558 0.369 1.075L0.369 6.223C0.369 9.428 2.35 9.78 3.845 9.78C4.583 9.78 6.953 9.552 6.953 6.534L6.953 0L6.933 0.041Z" fill="rgb(24,57,100)" fill-opacity="1.000" fill-rule="nonzero" transform="matrix(1 0 0 1 65.0373 26.6146)"/><path d="M1.262 1.593C0.466 2.523 0 3.764 0 5.045C0 6.472 0.524 7.754 1.476 8.684C2.389 9.573 3.593 10.049 4.894 10.049C5.574 10.049 6.914 9.925 8.196 9.077L8.254 9.036L8.409 7.03L8.157 7.01L8.118 7.092C7.166 9.263 5.69 8.953 5.127 8.953C2.622 8.953 1.767 6.989 1.767 4.859C1.767 2.812 2.622 1.055 5.146 1.055C5.923 1.055 7.322 1.034 8.06 2.895L8.098 2.999L8.331 2.916L8.176 0.828L8.118 0.807C6.933 0.249 5.982 0.001 5.03 0.001C3.496 -0.02 2.195 0.538 1.262 1.593Z" fill="rgb(24,57,100)" fill-opacity="1.000" fill-rule="nonzero" transform="matrix(1 0 0 1 10 26.4482)"/><path d="M15.612 10.848C13.922 10.558 12.096 10.393 10.756 10.641C10.679 10.662 10.62 10.6 10.62 10.517C10.62 10.021 10.62 8.408 10.252 6.402C10.252 6.361 10.232 6.34 10.193 6.32C5.785 3.032 1.803 0.841 0.172 0.014C0.056 -0.048 -0.061 0.117 0.036 0.22C4.794 4.872 6.465 12.791 6.678 13.846C6.697 13.908 6.756 13.949 6.814 13.949C12.155 12.853 17.515 14.218 19.01 14.652C19.127 14.693 19.205 14.528 19.127 14.445C18.02 13.184 16.855 12.005 15.67 10.889C15.67 10.868 15.65 10.848 15.612 10.848Z" fill="rgb(24,57,100)" fill-opacity="1.000" fill-rule="nonzero" transform="matrix(1 0 0 1 99.7661 22.3415)"/><path d="M12.493 11.996C8.201 5.876 2.103 1.368 0.181 0.024C0.064 -0.058 -0.053 0.086 0.025 0.21C1.501 2.278 2.258 4.656 2.628 6.641C2.628 6.682 2.647 6.703 2.666 6.723C4.434 8.047 6.24 9.535 8.026 11.169C8.046 11.189 8.065 11.189 8.085 11.189C9.949 11.52 11.658 11.975 12.357 12.182C12.474 12.223 12.551 12.099 12.493 11.996Z" fill="rgb(24,57,100)" fill-opacity="1.000" fill-rule="nonzero" transform="matrix(1 0 0 1 107.3713 22)"/></svg>