<svg xmlns="http://www.w3.org/2000/svg" viewBox="0 0 130 60" width="130" height="60"><path d="M0 0L130 0L130 60L0 60L0 0Z" fill="rgb(255,255,255)" fill-opacity="1.000" fill-rule="nonzero" transform="matrix(1 0 0 1 0 0)"/><path d="M9.642 8.906L9.953 10.719C2.473 13.666 -3.789 4.259 2.728 0.576C4.4 -0.105 6.298 0.065 8.055 0.434L8.622 2.191C-1.409 -0.416 2.048 12.051 9.642 8.906ZM9.557 0.235L11.314 11.173L16.754 11.173C19.984 11.088 20.154 6.356 15.762 5.222L17.746 0.235L15.224 0.235L13.325 6.186C15.196 6.072 16.697 6.412 16.839 8.226C16.952 9.728 14.6 9.501 13.184 9.473L11.654 0.264L9.557 0.235ZM20.579 11.173L18.822 0.235L26.416 0.235L26.7 2.077L21.259 2.077L21.854 5.053L26.473 5.053L26.756 6.526L22.138 6.526L22.648 9.331L27.975 9.331L28.286 11.173L20.579 11.173ZM29.958 11.229L35.937 11.229C40.839 10.975 40.131 0.434 33.188 0.32L27.833 0.32L29.958 11.229ZM31.63 9.388L30.411 2.077L33.245 2.077C37.127 2.559 38.09 9.104 35.03 9.388L31.63 9.388ZM39.281 0.207L41.717 0.207L43.361 11.173L40.952 11.173L39.281 0.207ZM75.067 11.229L81.046 11.229C85.948 10.975 85.24 0.434 78.298 0.32L72.942 0.32L75.067 11.229ZM76.739 9.388L75.521 2.077L78.354 2.077C82.237 2.559 83.171 9.104 80.14 9.388L76.739 9.388ZM63.846 0.235L65.915 0.264L67.474 9.473C68.89 9.501 71.242 9.728 71.129 8.226C70.959 6.412 69.486 6.072 67.615 6.186L69.486 0.235L72.036 0.235L70.052 5.222C74.445 6.356 74.246 11.088 71.044 11.173L65.603 11.173L63.846 0.235ZM57.783 10.833L52.003 2.191C42.057 -0.36 45.514 12.051 53.108 8.906L53.391 10.719C45.911 13.666 39.677 4.259 46.194 0.576C47.837 -0.105 49.736 -0.133 51.493 0.235L53.533 0.207L55.743 4.202L59.88 4.202L60.588 0.235L63.11 0.235L60.588 10.833L57.783 10.833ZM56.707 5.874L58.888 9.303L59.653 5.874L56.707 5.874Z" fill="rgb(0,55,103)" fill-opacity="1.000" fill-rule="evenodd" transform="matrix(1 0 0 -1 35.5177 35.6772)"/><path d="M12.33 9.144C6.549 12.062 1.251 12.714 0.174 10.985C-0.619 9.654 1.364 7.245 4.849 4.95C1.364 2.655 -0.619 0.728 0.174 0.161C0.996 -0.405 4.566 0.672 8.873 2.712C14.625 -0.009 20.15 -0.83 21.227 0.927C22.02 2.23 19.754 4.383 16.382 6.848C19.952 9.172 22.077 11.212 21.284 11.779C20.462 12.346 16.835 11.241 12.471 9.144L13.832 9.144C16.24 10.277 18.138 10.957 18.733 10.844C19.413 10.702 18.223 9.597 15.815 8.01L15.191 7.529C14.597 7.047 7.229 3.222 6.351 2.882C4.282 1.947 2.667 1.408 2.157 1.521C1.817 1.862 4.792 3.732 5.756 4.78L5.756 8.351C5.756 8.804 6.096 9.144 6.521 9.144L12.33 9.144ZM9.241 2.882L15.758 6.452L15.758 3.675C15.758 3.222 15.39 2.882 14.965 2.882L9.241 2.882Z" fill="rgb(0,55,103)" fill-opacity="1.000" fill-rule="evenodd" transform="matrix(1 0 0 -1 10.2754 36)"/></svg>