<svg xmlns="http://www.w3.org/2000/svg" viewBox="0 0 60 60" width="60" height="60"><path d="M0 0L60 0L60 60L0 60L0 0Z" fill="rgb(255,255,255)" fill-opacity="1.000" fill-rule="nonzero" transform="matrix(1 0 0 1 0 0)"/><path d="M0 8.287L5.46 8.287L5.47 0.211L0 0L0 8.287Z" fill="rgb(0,113,65)" fill-opacity="1.000" fill-rule="evenodd" transform="matrix(1 0 0 1 33.607 38.7126)"/><path d="M2.727 10.523L7.256 2.107L3.138 0L0 5.64L2.727 10.523Z" fill="rgb(103,189,80)" fill-opacity="1.000" fill-rule="evenodd" transform="matrix(1 0 0 1 29.1912 13.6987)"/><path d="M2.196 1.179L0 5.117C0.492 4.234 1.808 3.542 3.104 5.562L12.489 21.838L17.852 21.831L6.89 2.2C5.599 -0.384 3.214 -0.648 2.196 1.179Z" fill="rgb(0,113,65)" fill-opacity="1.000" fill-rule="evenodd" transform="matrix(1 0 0 1 30.2899 12.2408)"/><path d="M35.96 3.938L33.765 0C34.257 0.883 34.178 2.409 31.84 2.561L0 2.938L0.606 7.659L32.759 7.637C35.566 7.771 36.979 5.765 35.96 3.938Z" fill="rgb(245,134,52)" fill-opacity="1.000" fill-rule="evenodd" transform="matrix(1 0 0 1 12.855 31.3214)"/><path d="M2.232 25.282L6.624 25.282C5.639 25.282 4.403 24.448 5.444 22.276L16.299 2.107L12.18 0L0.739 20.562C-0.776 23.012 0.195 25.282 2.232 25.282Z" fill="rgb(103,189,80)" fill-opacity="1.000" fill-rule="evenodd" transform="matrix(1 0 0 1 10.8593 13.6987)"/><path d="M2.196 1.179L0 5.117C0.492 4.234 1.808 3.542 3.104 5.562L12.489 21.838L17.852 21.831L6.89 2.2C5.599 -0.384 3.214 -0.648 2.196 1.179L2.196 1.179Z" fill="rgb(0,113,65)" fill-opacity="1.000" fill-rule="evenodd" transform="matrix(1 0 0 1 21.0003 12.2408)"/><path d="M0 23.879L5.461 23.879L5.471 15.803L11.424 4.885L8.607 0L0 15.592L0 23.879Z" fill="rgb(103,189,80)" fill-opacity="1.000" fill-rule="evenodd" transform="matrix(1 0 0 1 18.5652 23.1209)"/></svg>