<svg xmlns="http://www.w3.org/2000/svg" viewBox="0 0 60 60" width="60" height="60"><path d="M0 0L60 0L60 60L0 60L0 0Z" fill="rgb(0,93,64)" fill-opacity="1.000" fill-rule="nonzero" transform="matrix(1 0 0 1 0 0)"/><path d="M28.628 25.332C28.607 26.637 28.074 27.882 27.145 28.8C26.217 29.718 24.965 30.235 23.659 30.241L0 30.241L0 20.991C0.025 19.682 0.561 18.435 1.495 17.518C2.428 16.6 3.684 16.084 4.993 16.081L28.628 16.081L28.628 25.343L28.628 25.332ZM39.076 8.456C39.064 9.464 38.655 10.428 37.939 11.138C37.222 11.848 36.255 12.248 35.246 12.251L18.145 12.251L18.145 3.783C18.16 2.774 18.572 1.812 19.291 1.104C20.01 0.397 20.978 0 21.987 0L39.076 0L39.076 8.456Z" fill="rgb(255,255,255)" fill-opacity="1.000" fill-rule="nonzero" transform="matrix(1 0 0 1 10.9219 14.6541)"/></svg>