<svg xmlns="http://www.w3.org/2000/svg" viewBox="0 0 130 60" width="130" height="60"><path d="M0 0L130 0L130 60L0 60L0 0Z" fill="rgb(255,255,255)" fill-opacity="1.000" fill-rule="nonzero" transform="matrix(1 0 0 1 0 0)"/><path d="M107 0L0 0L0 31.727L107 31.727L107 0Z" fill="rgb(0,0,0)" fill-opacity="1.000" fill-rule="nonzero" transform="matrix(1 0 0 1 12 14)"/><path d="M2.04 0.651C2.028 0.68 2.007 0.705 1.981 0.722C1.957 0.737 1.93 0.744 1.902 0.743C1.865 0.741 1.828 0.729 1.798 0.708C1.759 0.684 1.714 0.657 1.662 0.628C1.603 0.595 1.542 0.569 1.478 0.548C1.398 0.522 1.314 0.51 1.23 0.512C1.154 0.51 1.078 0.521 1.005 0.543C0.945 0.561 0.89 0.591 0.842 0.63C0.799 0.666 0.765 0.711 0.744 0.763C0.722 0.817 0.711 0.875 0.711 0.933C0.709 1.004 0.732 1.075 0.777 1.13C0.825 1.186 0.885 1.232 0.951 1.264C1.031 1.304 1.113 1.338 1.198 1.364C1.29 1.393 1.385 1.425 1.481 1.458C1.577 1.491 1.672 1.53 1.764 1.574C1.854 1.616 1.937 1.673 2.011 1.741C2.085 1.81 2.144 1.894 2.185 1.987C2.232 2.099 2.254 2.22 2.251 2.342C2.252 2.487 2.226 2.631 2.174 2.767C2.125 2.895 2.049 3.012 1.952 3.109C1.848 3.211 1.724 3.29 1.588 3.341C1.431 3.4 1.264 3.429 1.096 3.426C0.991 3.426 0.886 3.415 0.782 3.394C0.681 3.374 0.582 3.344 0.486 3.305C0.393 3.267 0.304 3.221 0.22 3.166C0.14 3.114 0.067 3.054 0 2.985L0.18 2.687C0.197 2.665 0.218 2.646 0.241 2.632C0.265 2.617 0.293 2.61 0.321 2.61C0.366 2.613 0.41 2.629 0.445 2.658C0.49 2.689 0.543 2.725 0.604 2.763C0.671 2.805 0.743 2.841 0.818 2.868C0.913 2.902 1.014 2.918 1.115 2.916C1.292 2.916 1.429 2.874 1.526 2.79C1.575 2.744 1.614 2.688 1.639 2.625C1.665 2.563 1.675 2.495 1.671 2.428C1.675 2.35 1.652 2.273 1.606 2.21C1.558 2.151 1.498 2.104 1.431 2.069C1.352 2.029 1.269 1.997 1.184 1.974C1.092 1.947 0.998 1.919 0.903 1.888C0.806 1.857 0.712 1.821 0.621 1.779C0.529 1.737 0.446 1.679 0.374 1.61C0.299 1.536 0.239 1.447 0.2 1.349C0.152 1.226 0.13 1.095 0.134 0.963C0.134 0.839 0.16 0.716 0.209 0.602C0.258 0.488 0.329 0.385 0.419 0.299C0.518 0.205 0.634 0.131 0.762 0.081C0.91 0.025 1.067 -0.002 1.225 0C1.411 -0.002 1.596 0.03 1.771 0.093C1.928 0.15 2.073 0.238 2.195 0.352L2.04 0.651Z" fill="rgb(25,155,67)" fill-opacity="1.000" fill-rule="nonzero" transform="matrix(1 0 0 1 47.1391 38.727)"/><path d="M0.73 0.366C0.73 0.414 0.72 0.461 0.7 0.504C0.661 0.591 0.591 0.659 0.503 0.696C0.458 0.715 0.41 0.725 0.36 0.725C0.312 0.725 0.265 0.715 0.221 0.696C0.178 0.677 0.139 0.651 0.106 0.618C0.074 0.586 0.048 0.547 0.029 0.504C0.01 0.461 0 0.414 0 0.366C0.001 0.268 0.04 0.175 0.109 0.107C0.141 0.074 0.18 0.047 0.223 0.029C0.267 0.01 0.314 0 0.362 0C0.412 0 0.46 0.01 0.506 0.029C0.549 0.047 0.589 0.074 0.622 0.107C0.656 0.14 0.683 0.179 0.702 0.222C0.721 0.268 0.73 0.316 0.73 0.366ZM0.644 1.058L0.644 3.434L0.074 3.434L0.074 1.058L0.644 1.058Z" fill="rgb(25,155,67)" fill-opacity="1.000" fill-rule="nonzero" transform="matrix(1 0 0 1 50.0239 38.6832)"/><path d="M1.614 0.505C1.603 0.527 1.586 0.546 1.566 0.56C1.546 0.571 1.524 0.576 1.502 0.575C1.47 0.574 1.44 0.566 1.413 0.551L1.304 0.497C1.258 0.475 1.211 0.457 1.162 0.443C1.101 0.426 1.037 0.418 0.974 0.419C0.88 0.414 0.787 0.439 0.708 0.491C0.678 0.512 0.653 0.54 0.636 0.573C0.619 0.605 0.611 0.642 0.611 0.679C0.611 0.702 0.615 0.726 0.623 0.748C0.632 0.77 0.645 0.79 0.661 0.807C0.699 0.845 0.744 0.876 0.793 0.899C0.853 0.927 0.915 0.951 0.979 0.969C1.048 0.99 1.119 1.013 1.191 1.038C1.263 1.062 1.334 1.091 1.403 1.122C1.471 1.153 1.533 1.193 1.589 1.243C1.649 1.295 1.696 1.359 1.727 1.432C1.759 1.505 1.774 1.584 1.771 1.663C1.772 1.772 1.75 1.879 1.708 1.979C1.667 2.075 1.604 2.161 1.525 2.229C1.439 2.303 1.338 2.359 1.229 2.393C1.02 2.456 0.799 2.469 0.585 2.43C0.509 2.416 0.434 2.395 0.361 2.368C0.293 2.343 0.226 2.312 0.163 2.276C0.104 2.243 0.05 2.204 0 2.16L0.131 1.942C0.146 1.918 0.167 1.897 0.191 1.882C0.218 1.867 0.249 1.86 0.279 1.861C0.315 1.861 0.35 1.872 0.38 1.891C0.411 1.912 0.448 1.933 0.488 1.956C0.535 1.981 0.584 2.003 0.635 2.021C0.704 2.043 0.776 2.053 0.848 2.051C0.907 2.052 0.966 2.044 1.023 2.027C1.066 2.013 1.107 1.992 1.142 1.963C1.173 1.939 1.196 1.907 1.212 1.872C1.227 1.837 1.234 1.8 1.234 1.763C1.236 1.713 1.218 1.664 1.184 1.626C1.146 1.587 1.102 1.556 1.052 1.533C0.992 1.505 0.93 1.481 0.866 1.463C0.796 1.442 0.724 1.42 0.649 1.394C0.575 1.37 0.502 1.341 0.432 1.307C0.363 1.276 0.3 1.233 0.245 1.182C0.189 1.129 0.144 1.065 0.113 0.994C0.078 0.909 0.061 0.817 0.064 0.725C0.064 0.63 0.083 0.535 0.121 0.448C0.16 0.359 0.218 0.28 0.291 0.217C0.373 0.147 0.468 0.093 0.571 0.059C0.695 0.018 0.826 -0.002 0.957 0C1.109 -0.002 1.261 0.026 1.403 0.081C1.527 0.13 1.641 0.202 1.738 0.295L1.614 0.505Z" fill="rgb(25,155,67)" fill-opacity="1.000" fill-rule="nonzero" transform="matrix(1 0 0 1 51.3279 39.6986)"/><path d="M0.993 3.14C0.789 3.14 0.631 3.082 0.52 2.965C0.41 2.849 0.354 2.688 0.354 2.482L0.354 1.156L0.114 1.156C0.098 1.156 0.083 1.154 0.068 1.148C0.053 1.142 0.04 1.133 0.03 1.121C0.019 1.11 0.011 1.096 0.006 1.081C0.001 1.066 -0.001 1.05 0.001 1.035L0.001 0.808L0.38 0.746L0.5 0.097C0.505 0.069 0.52 0.043 0.543 0.026C0.567 0.008 0.597 -0.001 0.627 0L0.923 0L0.923 0.748L1.546 0.748L1.546 1.156L0.924 1.156L0.924 2.441C0.92 2.504 0.94 2.565 0.979 2.615C0.997 2.635 1.02 2.652 1.046 2.662C1.071 2.673 1.099 2.678 1.126 2.677C1.156 2.678 1.187 2.674 1.215 2.664C1.237 2.657 1.258 2.648 1.278 2.638C1.295 2.628 1.311 2.62 1.325 2.611C1.337 2.603 1.352 2.599 1.367 2.598C1.381 2.598 1.396 2.602 1.408 2.611C1.421 2.622 1.433 2.635 1.443 2.649L1.613 2.927C1.529 2.997 1.432 3.051 1.327 3.085C1.219 3.121 1.107 3.14 0.993 3.14Z" fill="rgb(25,155,67)" fill-opacity="1.000" fill-rule="nonzero" transform="matrix(1 0 0 1 53.5666 39.0146)"/><path d="M1.139 0C1.28 -0.001 1.419 0.023 1.551 0.072C1.673 0.117 1.784 0.189 1.877 0.282C1.971 0.378 2.043 0.493 2.089 0.62C2.143 0.766 2.168 0.921 2.166 1.077C2.166 1.114 2.164 1.15 2.16 1.186C2.158 1.21 2.15 1.232 2.139 1.253C2.129 1.269 2.115 1.281 2.099 1.288C2.078 1.295 2.056 1.299 2.034 1.298L0.569 1.298C0.586 1.543 0.651 1.722 0.766 1.836C0.826 1.894 0.896 1.939 0.974 1.968C1.052 1.998 1.135 2.011 1.218 2.007C1.299 2.009 1.379 1.998 1.457 1.975C1.517 1.956 1.576 1.932 1.633 1.903C1.682 1.877 1.726 1.853 1.764 1.831C1.797 1.811 1.834 1.8 1.872 1.799C1.893 1.798 1.914 1.803 1.933 1.812C1.95 1.822 1.965 1.836 1.976 1.852L2.142 2.06C2.082 2.133 2.01 2.196 1.93 2.247C1.853 2.296 1.771 2.336 1.685 2.367C1.6 2.397 1.513 2.419 1.424 2.431C1.338 2.443 1.252 2.449 1.166 2.449C1.009 2.451 0.853 2.423 0.707 2.367C0.567 2.314 0.441 2.231 0.337 2.124C0.228 2.01 0.144 1.874 0.09 1.726C0.027 1.549 -0.003 1.363 0 1.176C-0.001 1.019 0.026 0.864 0.08 0.717C0.13 0.579 0.206 0.453 0.305 0.345C0.406 0.237 0.527 0.152 0.663 0.094C0.813 0.03 0.976 -0.002 1.139 0ZM1.151 0.41C1.08 0.406 1.008 0.417 0.941 0.441C0.874 0.465 0.813 0.503 0.761 0.551C0.659 0.662 0.596 0.803 0.581 0.952L1.652 0.952C1.652 0.881 1.642 0.81 1.622 0.742C1.603 0.679 1.572 0.62 1.529 0.57C1.487 0.52 1.433 0.48 1.373 0.453C1.303 0.423 1.227 0.409 1.151 0.41Z" fill="rgb(25,155,67)" fill-opacity="1.000" fill-rule="nonzero" transform="matrix(1 0 0 1 55.6343 39.704)"/><path d="M0 2.414L0 0.037L0.348 0.037C0.381 0.035 0.413 0.044 0.44 0.063C0.466 0.082 0.485 0.11 0.494 0.142L0.531 0.318C0.571 0.272 0.615 0.23 0.661 0.19C0.706 0.152 0.755 0.119 0.807 0.091C0.859 0.063 0.915 0.041 0.973 0.025C1.036 0.008 1.102 0 1.168 0C1.301 -0.005 1.432 0.038 1.536 0.122C1.636 0.208 1.711 0.32 1.753 0.445C1.788 0.37 1.834 0.302 1.892 0.243C1.945 0.188 2.007 0.141 2.074 0.105C2.14 0.069 2.211 0.043 2.285 0.026C2.359 0.009 2.434 0.001 2.51 0C2.629 -0.002 2.747 0.019 2.859 0.061C2.957 0.099 3.044 0.159 3.115 0.237C3.187 0.319 3.241 0.415 3.273 0.52C3.311 0.643 3.329 0.772 3.327 0.901L3.327 2.413L2.756 2.413L2.756 0.902C2.756 0.75 2.723 0.636 2.657 0.56C2.62 0.52 2.575 0.49 2.524 0.47C2.474 0.45 2.42 0.441 2.366 0.445C2.311 0.445 2.255 0.455 2.203 0.476C2.154 0.495 2.11 0.525 2.072 0.562C2.033 0.603 2.002 0.651 1.983 0.705C1.961 0.768 1.95 0.835 1.951 0.902L1.951 2.414L1.378 2.414L1.378 0.902C1.378 0.743 1.346 0.627 1.282 0.554C1.246 0.516 1.202 0.487 1.153 0.468C1.104 0.449 1.052 0.441 0.999 0.445C0.919 0.445 0.84 0.466 0.77 0.507C0.694 0.551 0.627 0.608 0.57 0.675L0.57 2.414L0 2.414Z" fill="rgb(25,155,67)" fill-opacity="1.000" fill-rule="nonzero" transform="matrix(1 0 0 1 58.4891 39.7037)"/><path d="M1.973 2.421L1.717 2.421C1.673 2.423 1.63 2.415 1.59 2.397C1.573 2.386 1.557 2.371 1.545 2.354C1.534 2.337 1.525 2.318 1.521 2.298L1.469 2.129C1.413 2.18 1.354 2.228 1.293 2.271C1.237 2.312 1.177 2.346 1.114 2.374C1.051 2.403 0.985 2.424 0.917 2.437C0.842 2.452 0.764 2.459 0.687 2.458C0.593 2.459 0.499 2.445 0.41 2.417C0.33 2.392 0.256 2.351 0.193 2.295C0.131 2.239 0.082 2.17 0.051 2.093C0.015 2.004 -0.002 1.908 0 1.812C0.001 1.719 0.025 1.627 0.071 1.546C0.127 1.448 0.208 1.366 0.305 1.309C0.44 1.228 0.586 1.169 0.739 1.133C0.961 1.082 1.188 1.059 1.415 1.064L1.415 0.924C1.415 0.763 1.382 0.645 1.315 0.568C1.278 0.528 1.233 0.498 1.182 0.478C1.132 0.458 1.078 0.449 1.024 0.453C0.946 0.45 0.868 0.462 0.794 0.485C0.737 0.504 0.683 0.528 0.631 0.558C0.585 0.585 0.544 0.609 0.505 0.631C0.466 0.653 0.423 0.664 0.378 0.664C0.343 0.665 0.308 0.654 0.279 0.633C0.252 0.614 0.229 0.588 0.212 0.559L0.113 0.376C0.381 0.128 0.734 -0.007 1.099 0C1.226 -0.001 1.352 0.023 1.469 0.072C1.574 0.115 1.668 0.179 1.745 0.262C1.822 0.345 1.881 0.444 1.917 0.552C1.957 0.672 1.977 0.797 1.976 0.923L1.973 2.421ZM0.865 2.064C0.92 2.065 0.975 2.059 1.028 2.048C1.076 2.038 1.123 2.022 1.168 2C1.213 1.979 1.256 1.952 1.295 1.921C1.339 1.888 1.38 1.852 1.418 1.813L1.418 1.415C1.279 1.413 1.14 1.423 1.002 1.446C0.909 1.461 0.817 1.489 0.731 1.527C0.673 1.551 0.623 1.591 0.587 1.641C0.552 1.697 0.538 1.764 0.546 1.829C0.554 1.894 0.585 1.955 0.633 2C0.701 2.046 0.783 2.069 0.865 2.064Z" fill="rgb(25,155,67)" fill-opacity="1.000" fill-rule="nonzero" transform="matrix(1 0 0 1 62.4853 39.6967)"/><path d="M1.83 3.441C1.798 3.444 1.766 3.435 1.739 3.416C1.713 3.397 1.693 3.369 1.685 3.337L1.639 3.108C1.591 3.162 1.54 3.212 1.484 3.258C1.431 3.303 1.372 3.342 1.31 3.374C1.246 3.407 1.179 3.433 1.109 3.449C1.033 3.468 0.955 3.477 0.877 3.476C0.754 3.478 0.632 3.45 0.522 3.395C0.412 3.34 0.316 3.26 0.244 3.16C0.16 3.046 0.099 2.916 0.064 2.779C0.019 2.61 -0.002 2.435 0 2.26C-0.001 2.094 0.023 1.929 0.072 1.77C0.115 1.628 0.185 1.494 0.277 1.377C0.364 1.268 0.473 1.179 0.598 1.116C0.729 1.052 0.872 1.02 1.018 1.022C1.134 1.019 1.25 1.041 1.357 1.086C1.45 1.128 1.534 1.185 1.607 1.256L1.607 0L2.177 0L2.177 3.441L1.83 3.441ZM1.071 3.022C1.177 3.026 1.281 3 1.374 2.948C1.464 2.892 1.544 2.821 1.609 2.738L1.609 1.672C1.553 1.6 1.48 1.543 1.398 1.505C1.32 1.473 1.236 1.456 1.152 1.457C1.071 1.456 0.991 1.472 0.917 1.505C0.847 1.539 0.786 1.589 0.74 1.652C0.687 1.728 0.649 1.813 0.628 1.903C0.6 2.02 0.587 2.14 0.589 2.26C0.587 2.379 0.598 2.497 0.622 2.613C0.639 2.697 0.672 2.777 0.718 2.85C0.755 2.907 0.808 2.953 0.87 2.982C0.934 3.009 1.002 3.023 1.071 3.022Z" fill="rgb(25,155,67)" fill-opacity="1.000" fill-rule="nonzero" transform="matrix(1 0 0 1 66.1988 38.6761)"/><path d="M1.139 0C1.28 -0.001 1.42 0.023 1.552 0.072C1.674 0.118 1.785 0.189 1.877 0.282C1.971 0.378 2.043 0.494 2.089 0.62C2.143 0.766 2.168 0.921 2.166 1.077C2.166 1.114 2.164 1.15 2.16 1.186C2.158 1.21 2.151 1.232 2.139 1.253C2.13 1.269 2.115 1.281 2.099 1.288C2.078 1.295 2.056 1.299 2.034 1.298L0.569 1.298C0.586 1.543 0.652 1.722 0.766 1.836C0.826 1.894 0.896 1.939 0.974 1.968C1.052 1.998 1.135 2.011 1.218 2.007C1.299 2.009 1.379 1.998 1.457 1.975C1.517 1.956 1.576 1.932 1.633 1.903C1.682 1.877 1.726 1.853 1.764 1.831C1.797 1.811 1.834 1.8 1.872 1.799C1.893 1.798 1.914 1.803 1.933 1.812C1.95 1.822 1.965 1.836 1.976 1.852L2.142 2.06C2.082 2.133 2.01 2.196 1.93 2.247C1.853 2.296 1.771 2.336 1.685 2.367C1.6 2.397 1.513 2.419 1.424 2.431C1.338 2.443 1.252 2.449 1.166 2.449C1.009 2.451 0.853 2.423 0.707 2.367C0.567 2.314 0.441 2.231 0.338 2.124C0.229 2.01 0.144 1.874 0.09 1.726C0.027 1.549 -0.003 1.363 0 1.176C-0.001 1.02 0.026 0.865 0.079 0.718C0.128 0.58 0.205 0.453 0.304 0.345C0.405 0.237 0.527 0.152 0.662 0.094C0.813 0.03 0.976 -0.002 1.139 0ZM1.151 0.411C1.08 0.406 1.009 0.417 0.942 0.441C0.875 0.465 0.813 0.503 0.761 0.551C0.659 0.662 0.596 0.803 0.581 0.952L1.652 0.952C1.652 0.881 1.642 0.81 1.622 0.742C1.603 0.679 1.572 0.62 1.529 0.57C1.487 0.52 1.433 0.48 1.373 0.453C1.303 0.423 1.227 0.409 1.151 0.411Z" fill="rgb(25,155,67)" fill-opacity="1.000" fill-rule="nonzero" transform="matrix(1 0 0 1 69.0597 39.704)"/><path d="M2.488 2.599C2.505 2.599 2.521 2.603 2.536 2.61C2.552 2.616 2.565 2.626 2.576 2.639L2.821 2.905C2.687 3.072 2.516 3.204 2.322 3.292C2.096 3.387 1.853 3.433 1.609 3.426C1.38 3.43 1.152 3.387 0.941 3.299C0.749 3.218 0.576 3.097 0.434 2.944C0.29 2.787 0.181 2.602 0.112 2.4C0.035 2.179 -0.002 1.946 0 1.712C-0.003 1.476 0.039 1.241 0.124 1.021C0.203 0.818 0.322 0.633 0.476 0.479C0.63 0.325 0.814 0.205 1.017 0.127C1.238 0.04 1.475 -0.003 1.712 0C1.936 -0.005 2.157 0.036 2.364 0.12C2.541 0.194 2.703 0.301 2.84 0.436L2.632 0.725C2.62 0.744 2.604 0.761 2.585 0.774C2.562 0.789 2.534 0.797 2.506 0.795C2.466 0.793 2.428 0.779 2.397 0.753C2.352 0.72 2.305 0.69 2.256 0.663C2.187 0.625 2.114 0.595 2.039 0.572C1.787 0.505 1.519 0.52 1.276 0.613C1.147 0.666 1.031 0.746 0.936 0.848C0.838 0.956 0.763 1.082 0.715 1.22C0.66 1.377 0.633 1.543 0.635 1.71C0.632 1.881 0.659 2.051 0.715 2.212C0.762 2.349 0.836 2.475 0.932 2.583C1.021 2.682 1.13 2.761 1.253 2.813C1.378 2.867 1.513 2.894 1.65 2.893C1.727 2.894 1.803 2.889 1.879 2.879C1.944 2.871 2.007 2.856 2.069 2.835C2.126 2.815 2.18 2.789 2.231 2.758C2.286 2.724 2.338 2.685 2.386 2.641C2.4 2.628 2.416 2.616 2.434 2.607C2.451 2.6 2.47 2.598 2.488 2.599Z" fill="rgb(25,155,67)" fill-opacity="1.000" fill-rule="nonzero" transform="matrix(1 0 0 1 72.87 38.7285)"/><path d="M0 2.423L0 0.047L0.334 0.047C0.378 0.042 0.421 0.054 0.457 0.079C0.483 0.11 0.499 0.148 0.502 0.188L0.537 0.476C0.612 0.34 0.714 0.222 0.837 0.128C0.947 0.044 1.082 -0.001 1.22 0C1.323 -0.004 1.425 0.025 1.511 0.082L1.437 0.51C1.435 0.533 1.424 0.554 1.408 0.569C1.389 0.582 1.367 0.588 1.345 0.586C1.313 0.585 1.281 0.58 1.25 0.57C1.198 0.558 1.144 0.553 1.091 0.554C0.981 0.552 0.874 0.586 0.787 0.652C0.692 0.73 0.618 0.829 0.569 0.941L0.569 2.421L0 2.423Z" fill="rgb(25,155,67)" fill-opacity="1.000" fill-rule="nonzero" transform="matrix(1 0 0 1 76.3537 39.6945)"/><path d="M1.139 0.973C1.28 0.972 1.42 0.996 1.551 1.045C1.673 1.09 1.784 1.162 1.876 1.255C1.971 1.351 2.043 1.466 2.089 1.593C2.142 1.74 2.168 1.894 2.165 2.05C2.166 2.087 2.164 2.123 2.16 2.159C2.157 2.183 2.15 2.206 2.139 2.226C2.129 2.242 2.115 2.254 2.098 2.261C2.078 2.268 2.056 2.272 2.034 2.271L0.569 2.271C0.586 2.516 0.651 2.695 0.766 2.809C0.825 2.867 0.896 2.912 0.974 2.941C1.052 2.971 1.135 2.984 1.218 2.98C1.299 2.982 1.379 2.971 1.457 2.948C1.517 2.929 1.575 2.905 1.632 2.876C1.682 2.85 1.726 2.826 1.764 2.804C1.796 2.784 1.834 2.773 1.872 2.772C1.893 2.771 1.914 2.776 1.933 2.785C1.949 2.795 1.965 2.809 1.976 2.825L2.142 3.033C2.082 3.106 2.01 3.169 1.93 3.22C1.853 3.269 1.77 3.31 1.684 3.34C1.6 3.37 1.512 3.392 1.423 3.404C1.338 3.416 1.252 3.422 1.166 3.422C1.009 3.424 0.853 3.396 0.706 3.34C0.567 3.287 0.441 3.204 0.337 3.097C0.229 2.983 0.144 2.847 0.09 2.699C0.027 2.523 -0.003 2.336 0 2.149C-0.001 1.993 0.026 1.837 0.079 1.69C0.128 1.552 0.205 1.426 0.304 1.318C0.405 1.21 0.526 1.125 0.662 1.067C0.812 1.002 0.976 0.971 1.139 0.973ZM1.15 1.384C1.08 1.379 1.008 1.39 0.941 1.414C0.874 1.438 0.813 1.476 0.761 1.524C0.659 1.635 0.596 1.776 0.58 1.925L1.652 1.925C1.652 1.854 1.642 1.783 1.621 1.716C1.603 1.652 1.572 1.594 1.53 1.543C1.487 1.493 1.433 1.453 1.373 1.426C1.302 1.396 1.227 1.382 1.15 1.384ZM1.952 0.003L1.381 0.605C1.357 0.632 1.328 0.653 1.296 0.669C1.263 0.682 1.227 0.688 1.191 0.686L0.85 0.686L1.175 0.124C1.195 0.087 1.222 0.056 1.256 0.032C1.298 0.008 1.346 -0.003 1.395 0.001L1.952 0.003Z" fill="rgb(25,155,67)" fill-opacity="1.000" fill-rule="nonzero" transform="matrix(1 0 0 1 78.305 38.731)"/><path d="M1.831 3.441C1.799 3.444 1.766 3.435 1.74 3.416C1.713 3.397 1.694 3.369 1.686 3.337L1.64 3.108C1.592 3.162 1.54 3.212 1.485 3.258C1.431 3.303 1.372 3.342 1.31 3.374C1.247 3.407 1.18 3.433 1.109 3.449C1.034 3.468 0.956 3.477 0.877 3.476C0.755 3.478 0.632 3.45 0.522 3.395C0.412 3.339 0.317 3.259 0.244 3.16C0.16 3.045 0.099 2.916 0.063 2.779C0.019 2.61 -0.002 2.435 0 2.26C-0.001 2.094 0.023 1.929 0.072 1.77C0.115 1.627 0.185 1.494 0.277 1.377C0.364 1.268 0.474 1.179 0.599 1.116C0.729 1.052 0.873 1.02 1.018 1.022C1.135 1.019 1.251 1.041 1.358 1.086C1.451 1.128 1.536 1.186 1.61 1.256L1.61 0L2.18 0L2.18 3.441L1.831 3.441ZM1.072 3.022C1.177 3.026 1.282 3 1.374 2.948C1.464 2.892 1.544 2.821 1.61 2.738L1.61 1.672C1.554 1.6 1.481 1.543 1.398 1.505C1.32 1.473 1.237 1.456 1.152 1.457C1.072 1.456 0.992 1.472 0.918 1.505C0.848 1.539 0.786 1.589 0.74 1.652C0.688 1.728 0.65 1.813 0.629 1.903C0.601 2.02 0.588 2.14 0.59 2.26C0.587 2.379 0.598 2.497 0.622 2.613C0.639 2.698 0.672 2.778 0.719 2.85C0.756 2.907 0.809 2.953 0.871 2.982C0.934 3.009 1.003 3.023 1.072 3.022Z" fill="rgb(25,155,67)" fill-opacity="1.000" fill-rule="nonzero" transform="matrix(1 0 0 1 80.995 38.6761)"/><path d="M0.73 0.366C0.73 0.414 0.72 0.461 0.7 0.504C0.681 0.547 0.653 0.586 0.62 0.618C0.586 0.651 0.547 0.677 0.504 0.696C0.458 0.715 0.409 0.725 0.36 0.725C0.312 0.725 0.265 0.715 0.221 0.696C0.135 0.659 0.066 0.591 0.029 0.504C0.01 0.461 0 0.414 0 0.366C0 0.316 0.01 0.267 0.029 0.222C0.066 0.135 0.135 0.066 0.221 0.029C0.265 0.01 0.312 0 0.36 0C0.409 0 0.458 0.01 0.504 0.029C0.591 0.066 0.661 0.135 0.7 0.222C0.72 0.267 0.73 0.316 0.73 0.366ZM0.642 1.058L0.642 3.434L0.072 3.434L0.072 1.058L0.642 1.058Z" fill="rgb(25,155,67)" fill-opacity="1.000" fill-rule="nonzero" transform="matrix(1 0 0 1 83.9798 38.6832)"/><path d="M0.993 3.14C0.789 3.14 0.631 3.082 0.521 2.965C0.41 2.849 0.354 2.688 0.354 2.482L0.354 1.156L0.114 1.156C0.099 1.156 0.083 1.154 0.068 1.148C0.053 1.142 0.04 1.133 0.03 1.121C0.019 1.11 0.011 1.096 0.006 1.081C0.001 1.066 -0.001 1.05 0.001 1.035L0.001 0.808L0.38 0.746L0.5 0.097C0.505 0.069 0.52 0.043 0.543 0.026C0.567 0.008 0.597 -0.001 0.627 0L0.923 0L0.923 0.748L1.546 0.748L1.546 1.156L0.923 1.156L0.923 2.441C0.918 2.504 0.938 2.565 0.977 2.615C0.995 2.635 1.018 2.652 1.044 2.662C1.069 2.673 1.096 2.678 1.124 2.677C1.155 2.678 1.184 2.674 1.213 2.664C1.235 2.657 1.256 2.648 1.276 2.638C1.293 2.628 1.308 2.62 1.323 2.611C1.335 2.603 1.35 2.599 1.364 2.598C1.379 2.598 1.394 2.602 1.406 2.611C1.419 2.622 1.431 2.635 1.441 2.649L1.611 2.927C1.527 2.997 1.429 3.051 1.325 3.085C1.218 3.121 1.106 3.14 0.993 3.14Z" fill="rgb(25,155,67)" fill-opacity="1.000" fill-rule="nonzero" transform="matrix(1 0 0 1 85.2787 39.0146)"/><path d="M1.175 0C1.339 -0.002 1.503 0.027 1.656 0.086C1.795 0.14 1.92 0.223 2.025 0.329C2.129 0.439 2.21 0.57 2.259 0.714C2.371 1.043 2.371 1.401 2.259 1.73C2.209 1.874 2.129 2.006 2.025 2.117C1.921 2.225 1.795 2.309 1.656 2.363C1.345 2.477 1.004 2.477 0.692 2.363C0.553 2.309 0.426 2.225 0.322 2.117C0.217 2.006 0.136 1.874 0.084 1.73C-0.028 1.401 -0.028 1.043 0.084 0.714C0.136 0.57 0.216 0.439 0.322 0.329C0.427 0.223 0.553 0.14 0.692 0.086C0.847 0.027 1.01 -0.002 1.175 0ZM1.175 2.008C1.372 2.008 1.518 1.942 1.612 1.809C1.706 1.676 1.754 1.482 1.754 1.225C1.754 0.969 1.707 0.774 1.612 0.64C1.517 0.505 1.372 0.438 1.175 0.438C0.975 0.438 0.827 0.506 0.731 0.641C0.636 0.776 0.587 0.97 0.587 1.225C0.587 1.48 0.635 1.674 0.73 1.808C0.825 1.942 0.975 2.008 1.175 2.008Z" fill="rgb(25,155,67)" fill-opacity="1.000" fill-rule="nonzero" transform="matrix(1 0 0 1 87.3435 39.704)"/><path d="M2.488 2.599C2.505 2.599 2.522 2.603 2.537 2.61C2.552 2.616 2.565 2.626 2.577 2.639L2.821 2.905C2.688 3.072 2.516 3.204 2.322 3.292C2.096 3.387 1.854 3.433 1.609 3.426C1.38 3.43 1.153 3.387 0.941 3.299C0.749 3.218 0.576 3.097 0.434 2.944C0.29 2.787 0.181 2.602 0.112 2.4C0.036 2.179 -0.002 1.946 0 1.712C-0.003 1.476 0.04 1.241 0.125 1.021C0.204 0.818 0.323 0.634 0.475 0.48C0.63 0.326 0.815 0.206 1.018 0.127C1.24 0.04 1.476 -0.003 1.714 0C1.937 -0.005 2.158 0.036 2.365 0.12C2.542 0.194 2.704 0.301 2.842 0.436L2.634 0.725C2.621 0.744 2.605 0.761 2.587 0.774C2.563 0.789 2.535 0.797 2.507 0.795C2.467 0.793 2.43 0.779 2.398 0.753C2.353 0.72 2.306 0.69 2.258 0.663C2.188 0.625 2.116 0.595 2.041 0.572C1.788 0.506 1.521 0.52 1.276 0.613C1.147 0.666 1.031 0.746 0.937 0.848C0.839 0.956 0.763 1.082 0.715 1.22C0.66 1.377 0.634 1.543 0.635 1.71C0.633 1.881 0.66 2.051 0.715 2.212C0.763 2.349 0.836 2.475 0.933 2.583C1.021 2.682 1.13 2.761 1.253 2.813C1.379 2.867 1.514 2.894 1.65 2.893C1.727 2.894 1.804 2.889 1.88 2.879C1.944 2.871 2.008 2.856 2.069 2.835C2.126 2.815 2.181 2.789 2.232 2.758C2.287 2.724 2.338 2.685 2.385 2.641C2.4 2.628 2.416 2.616 2.434 2.607C2.451 2.6 2.47 2.598 2.488 2.599Z" fill="rgb(25,155,67)" fill-opacity="1.000" fill-rule="nonzero" transform="matrix(1 0 0 1 91.3136 38.7284)"/><path d="M1.175 0C1.339 -0.002 1.503 0.027 1.656 0.086C1.795 0.14 1.921 0.223 2.024 0.329C2.129 0.439 2.209 0.57 2.26 0.714C2.37 1.043 2.37 1.4 2.26 1.73C2.209 1.874 2.128 2.006 2.024 2.117C1.921 2.225 1.795 2.309 1.656 2.363C1.345 2.477 1.004 2.477 0.693 2.363C0.553 2.309 0.426 2.225 0.322 2.117C0.217 2.006 0.136 1.874 0.084 1.73C-0.028 1.401 -0.028 1.043 0.084 0.714C0.135 0.57 0.217 0.439 0.322 0.329C0.427 0.223 0.553 0.14 0.693 0.086C0.847 0.027 1.01 -0.002 1.175 0ZM1.175 2.008C1.372 2.008 1.517 1.942 1.613 1.809C1.708 1.676 1.755 1.482 1.754 1.225C1.754 0.969 1.707 0.774 1.613 0.64C1.518 0.505 1.372 0.438 1.175 0.438C0.975 0.438 0.827 0.506 0.732 0.641C0.636 0.776 0.589 0.97 0.589 1.225C0.589 1.48 0.636 1.674 0.732 1.808C0.827 1.942 0.975 2.008 1.175 2.008Z" fill="rgb(25,155,67)" fill-opacity="1.000" fill-rule="nonzero" transform="matrix(1 0 0 1 94.6332 39.704)"/><path d="M1.175 0C1.339 -0.002 1.503 0.027 1.657 0.086C1.795 0.14 1.921 0.223 2.025 0.329C2.129 0.439 2.209 0.57 2.26 0.714C2.371 1.043 2.371 1.401 2.26 1.73C2.209 1.874 2.129 2.006 2.025 2.117C1.921 2.225 1.796 2.309 1.657 2.363C1.345 2.477 1.004 2.477 0.693 2.363C0.552 2.309 0.426 2.225 0.322 2.117C0.217 2.006 0.136 1.874 0.085 1.73C-0.028 1.401 -0.028 1.043 0.085 0.714C0.136 0.57 0.217 0.439 0.322 0.329C0.426 0.223 0.553 0.14 0.693 0.086C0.846 0.027 1.01 -0.002 1.175 0ZM1.175 2.008C1.372 2.008 1.518 1.942 1.613 1.809C1.708 1.676 1.755 1.482 1.755 1.225C1.755 0.969 1.708 0.774 1.613 0.64C1.518 0.505 1.372 0.438 1.175 0.438C0.975 0.438 0.827 0.506 0.732 0.641C0.636 0.776 0.589 0.97 0.589 1.225C0.589 1.48 0.636 1.674 0.732 1.808C0.827 1.942 0.975 2.008 1.175 2.008Z" fill="rgb(25,155,67)" fill-opacity="1.000" fill-rule="nonzero" transform="matrix(1 0 0 1 97.4841 39.704)"/><path d="M0 3.199L0 0.046L0.349 0.046C0.382 0.046 0.415 0.054 0.443 0.072C0.457 0.081 0.468 0.093 0.476 0.106C0.486 0.12 0.491 0.135 0.494 0.151L0.54 0.369C0.633 0.261 0.744 0.171 0.869 0.103C1.003 0.032 1.152 -0.003 1.303 0C1.426 -0.001 1.548 0.027 1.658 0.082C1.767 0.138 1.862 0.218 1.934 0.316C2.017 0.431 2.079 0.56 2.115 0.697C2.159 0.866 2.181 1.04 2.178 1.215C2.179 1.382 2.155 1.549 2.106 1.709C2.063 1.851 1.994 1.985 1.903 2.102C1.816 2.211 1.706 2.301 1.581 2.363C1.45 2.427 1.306 2.459 1.16 2.456C1.051 2.462 0.942 2.444 0.84 2.404C0.738 2.364 0.646 2.303 0.569 2.225L0.569 3.198L0 3.199ZM1.108 0.455C1.002 0.452 0.897 0.478 0.805 0.53C0.714 0.586 0.635 0.658 0.57 0.742L0.57 1.808C0.625 1.88 0.698 1.938 0.781 1.975C0.859 2.007 0.943 2.023 1.027 2.023C1.108 2.024 1.188 2.007 1.262 1.974C1.333 1.941 1.394 1.89 1.439 1.826C1.492 1.75 1.53 1.665 1.552 1.575C1.579 1.457 1.592 1.337 1.591 1.217C1.592 1.098 1.581 0.979 1.557 0.863C1.54 0.78 1.507 0.7 1.462 0.629C1.424 0.572 1.372 0.526 1.31 0.497C1.247 0.468 1.178 0.454 1.108 0.455Z" fill="rgb(25,155,67)" fill-opacity="1.000" fill-rule="nonzero" transform="matrix(1 0 0 1 100.4988 39.6948)"/><path d="M1.139 0C1.28 -0.001 1.42 0.023 1.552 0.072C1.673 0.118 1.784 0.189 1.877 0.282C1.971 0.378 2.043 0.494 2.089 0.62C2.142 0.766 2.168 0.921 2.165 1.077C2.166 1.114 2.164 1.15 2.16 1.186C2.157 1.21 2.15 1.232 2.139 1.253C2.129 1.269 2.115 1.281 2.098 1.288C2.078 1.295 2.056 1.299 2.034 1.298L0.569 1.298C0.586 1.543 0.651 1.722 0.766 1.836C0.825 1.894 0.896 1.939 0.974 1.968C1.052 1.998 1.135 2.011 1.218 2.007C1.299 2.009 1.379 1.998 1.457 1.975C1.517 1.956 1.576 1.932 1.632 1.903C1.682 1.877 1.726 1.853 1.763 1.831C1.796 1.811 1.834 1.8 1.872 1.799C1.893 1.798 1.914 1.803 1.932 1.813C1.949 1.822 1.964 1.836 1.976 1.852L2.142 2.06C2.082 2.133 2.01 2.196 1.93 2.247C1.853 2.296 1.771 2.337 1.685 2.367C1.6 2.397 1.513 2.419 1.423 2.431C1.338 2.443 1.252 2.449 1.166 2.449C1.009 2.451 0.853 2.423 0.706 2.367C0.567 2.314 0.441 2.231 0.337 2.124C0.229 2.01 0.144 1.874 0.09 1.726C0.027 1.549 -0.003 1.362 0 1.175C-0.001 1.019 0.026 0.864 0.078 0.717C0.128 0.579 0.205 0.452 0.304 0.344C0.404 0.236 0.526 0.151 0.662 0.093C0.812 0.029 0.976 -0.003 1.139 0ZM1.15 0.41C1.079 0.407 1.008 0.417 0.94 0.442C0.873 0.467 0.812 0.505 0.76 0.554C0.659 0.665 0.595 0.805 0.58 0.955L1.651 0.955C1.651 0.884 1.641 0.813 1.621 0.745C1.602 0.682 1.57 0.623 1.528 0.573C1.485 0.522 1.432 0.482 1.371 0.456C1.302 0.425 1.227 0.41 1.152 0.41L1.15 0.41Z" fill="rgb(25,155,67)" fill-opacity="1.000" fill-rule="nonzero" transform="matrix(1 0 0 1 103.1742 39.704)"/><path d="M0 2.423L0 0.047L0.334 0.047C0.378 0.042 0.421 0.054 0.457 0.079C0.483 0.11 0.499 0.148 0.502 0.188L0.537 0.476C0.611 0.341 0.712 0.223 0.833 0.128C0.944 0.044 1.078 -0.001 1.217 0C1.32 -0.004 1.421 0.025 1.507 0.082L1.434 0.51C1.432 0.533 1.421 0.554 1.403 0.569C1.385 0.582 1.363 0.588 1.341 0.586C1.309 0.585 1.277 0.58 1.246 0.57C1.194 0.558 1.141 0.553 1.087 0.554C0.978 0.552 0.87 0.586 0.783 0.652C0.688 0.73 0.614 0.829 0.566 0.941L0.566 2.421L0 2.423Z" fill="rgb(25,155,67)" fill-opacity="1.000" fill-rule="nonzero" transform="matrix(1 0 0 1 106.03 39.6945)"/><path d="M1.973 2.421L1.717 2.421C1.673 2.423 1.629 2.415 1.59 2.397C1.572 2.386 1.557 2.371 1.545 2.354C1.533 2.337 1.524 2.318 1.52 2.298L1.47 2.129C1.414 2.18 1.354 2.227 1.293 2.271C1.237 2.312 1.177 2.346 1.114 2.374C1.051 2.403 0.985 2.424 0.918 2.437C0.842 2.452 0.764 2.459 0.687 2.458C0.593 2.459 0.5 2.445 0.41 2.417C0.33 2.392 0.256 2.351 0.193 2.295C0.131 2.239 0.083 2.17 0.051 2.093C0.016 2.004 -0.002 1.908 0 1.812C0.001 1.719 0.025 1.627 0.071 1.546C0.127 1.448 0.208 1.366 0.305 1.309C0.44 1.228 0.586 1.169 0.739 1.133C0.961 1.082 1.188 1.059 1.416 1.064L1.416 0.924C1.416 0.764 1.382 0.645 1.315 0.568C1.277 0.528 1.232 0.497 1.182 0.477C1.131 0.457 1.077 0.448 1.023 0.452C0.945 0.45 0.867 0.461 0.792 0.485C0.736 0.503 0.681 0.528 0.63 0.558C0.584 0.585 0.542 0.609 0.504 0.631C0.465 0.652 0.421 0.664 0.377 0.663C0.341 0.664 0.307 0.653 0.277 0.633C0.25 0.613 0.227 0.588 0.21 0.559L0.107 0.376C0.374 0.128 0.728 -0.007 1.092 0C1.219 -0.002 1.345 0.021 1.463 0.069C1.567 0.112 1.661 0.176 1.739 0.259C1.816 0.343 1.874 0.442 1.911 0.549C1.951 0.669 1.971 0.794 1.969 0.92L1.973 2.421ZM0.865 2.064C0.92 2.065 0.974 2.059 1.027 2.048C1.076 2.038 1.123 2.022 1.168 2C1.212 1.979 1.253 1.952 1.292 1.922C1.336 1.889 1.377 1.852 1.416 1.813L1.416 1.415C1.276 1.413 1.137 1.424 0.999 1.447C0.905 1.462 0.814 1.489 0.728 1.527C0.67 1.552 0.621 1.591 0.583 1.642C0.549 1.698 0.534 1.764 0.543 1.83C0.551 1.895 0.582 1.956 0.63 2.001C0.699 2.047 0.782 2.069 0.865 2.064Z" fill="rgb(25,155,67)" fill-opacity="1.000" fill-rule="nonzero" transform="matrix(1 0 0 1 107.9579 39.6967)"/><path d="M0.992 3.14C0.788 3.14 0.63 3.082 0.52 2.965C0.409 2.849 0.353 2.688 0.353 2.482L0.353 1.156L0.113 1.156C0.083 1.156 0.055 1.145 0.033 1.125C0.022 1.113 0.013 1.099 0.007 1.084C0.002 1.068 -0.001 1.051 0 1.035L0 0.808L0.38 0.746L0.5 0.097C0.505 0.069 0.52 0.043 0.543 0.026C0.567 0.008 0.597 -0.001 0.627 0L0.923 0L0.923 0.748L1.546 0.748L1.546 1.156L0.923 1.156L0.923 2.441C0.918 2.504 0.938 2.565 0.977 2.615C0.995 2.635 1.018 2.652 1.044 2.662C1.069 2.673 1.096 2.678 1.124 2.677C1.155 2.678 1.185 2.674 1.213 2.664C1.235 2.657 1.255 2.648 1.276 2.638C1.294 2.628 1.309 2.62 1.323 2.611C1.335 2.603 1.35 2.599 1.364 2.598C1.379 2.598 1.394 2.602 1.406 2.611C1.419 2.622 1.431 2.635 1.441 2.649L1.611 2.927C1.527 2.997 1.43 3.051 1.325 3.085C1.218 3.121 1.106 3.14 0.992 3.14Z" fill="rgb(25,155,67)" fill-opacity="1.000" fill-rule="nonzero" transform="matrix(1 0 0 1 110.5031 39.0146)"/><path d="M0.73 0.366C0.73 0.414 0.72 0.461 0.699 0.504C0.68 0.547 0.653 0.586 0.62 0.618C0.586 0.651 0.547 0.677 0.503 0.696C0.458 0.715 0.409 0.725 0.36 0.725C0.312 0.725 0.264 0.715 0.22 0.696C0.178 0.677 0.139 0.651 0.106 0.618C0.074 0.585 0.047 0.547 0.029 0.504C0.009 0.461 0 0.413 0 0.366C0 0.294 0.02 0.224 0.06 0.164C0.099 0.104 0.154 0.057 0.22 0.029C0.264 0.01 0.312 0 0.36 0C0.409 0 0.458 0.01 0.503 0.029C0.547 0.047 0.586 0.074 0.62 0.107C0.654 0.14 0.681 0.179 0.699 0.222C0.72 0.267 0.73 0.316 0.73 0.366ZM0.644 1.058L0.644 3.434L0.074 3.434L0.074 1.058L0.644 1.058Z" fill="rgb(25,155,67)" fill-opacity="1.000" fill-rule="nonzero" transform="matrix(1 0 0 1 112.694 38.6832)"/><path d="M1.459 2.376L0.942 2.376L0 0L0.473 0C0.511 -0.001 0.547 0.01 0.578 0.031C0.605 0.049 0.626 0.076 0.637 0.107L1.094 1.376C1.12 1.45 1.142 1.523 1.16 1.594C1.178 1.664 1.193 1.736 1.207 1.807C1.221 1.736 1.237 1.665 1.254 1.594C1.274 1.52 1.296 1.447 1.323 1.376L1.792 0.107C1.802 0.076 1.823 0.049 1.849 0.031C1.878 0.01 1.913 -0.001 1.949 0L2.398 0L1.459 2.376Z" fill="rgb(25,155,67)" fill-opacity="1.000" fill-rule="nonzero" transform="matrix(1 0 0 1 113.9359 39.7411)"/><path d="M1.175 0C1.34 -0.002 1.503 0.027 1.657 0.086C1.796 0.14 1.921 0.223 2.025 0.329C2.129 0.439 2.209 0.57 2.26 0.714C2.371 1.043 2.371 1.401 2.26 1.73C2.209 1.874 2.129 2.006 2.025 2.117C1.922 2.225 1.796 2.309 1.657 2.363C1.345 2.477 1.004 2.477 0.693 2.363C0.553 2.309 0.426 2.225 0.322 2.117C0.217 2.006 0.136 1.874 0.085 1.73C-0.028 1.401 -0.028 1.043 0.085 0.714C0.136 0.57 0.217 0.439 0.322 0.329C0.427 0.223 0.554 0.14 0.693 0.086C0.846 0.027 1.01 -0.002 1.175 0ZM1.175 2.008C1.372 2.008 1.518 1.942 1.613 1.809C1.708 1.676 1.755 1.482 1.755 1.225C1.755 0.969 1.708 0.774 1.613 0.64C1.518 0.505 1.372 0.438 1.175 0.438C0.976 0.438 0.827 0.506 0.732 0.641C0.636 0.776 0.589 0.97 0.589 1.225C0.589 1.48 0.636 1.674 0.732 1.808C0.827 1.942 0.976 2.008 1.175 2.008Z" fill="rgb(25,155,67)" fill-opacity="1.000" fill-rule="nonzero" transform="matrix(1 0 0 1 116.6571 39.704)"/><path d="M9.943 10.171C10.02 10.171 10.096 10.186 10.168 10.213C10.249 10.245 10.323 10.294 10.385 10.357L11.636 11.667C11.097 12.371 10.387 12.925 9.575 13.277C8.748 13.64 7.77 13.821 6.642 13.821C5.606 13.821 4.679 13.646 3.859 13.297C3.069 12.968 2.358 12.474 1.773 11.848C1.19 11.214 0.743 10.467 0.457 9.653C0.146 8.771 -0.009 7.84 0 6.904C0 5.895 0.175 4.968 0.524 4.123C0.858 3.302 1.357 2.558 1.989 1.937C2.634 1.314 3.399 0.828 4.236 0.51C5.11 0.17 6.073 0 7.127 0C7.612 -0.003 8.095 0.041 8.571 0.132C9.004 0.216 9.429 0.34 9.839 0.503C10.219 0.654 10.582 0.844 10.924 1.069C11.243 1.279 11.537 1.524 11.803 1.798L10.741 3.218C10.67 3.307 10.588 3.387 10.498 3.455C10.404 3.526 10.273 3.564 10.105 3.564C9.995 3.564 9.886 3.539 9.787 3.49C9.678 3.435 9.572 3.374 9.468 3.309C9.356 3.236 9.233 3.159 9.099 3.077C8.948 2.984 8.788 2.907 8.622 2.845C8.412 2.765 8.195 2.704 7.975 2.662C7.688 2.608 7.398 2.583 7.107 2.587C6.567 2.58 6.032 2.683 5.533 2.889C5.068 3.083 4.651 3.378 4.312 3.752C3.959 4.148 3.689 4.611 3.517 5.113C3.32 5.689 3.223 6.296 3.232 6.905C3.232 7.598 3.327 8.213 3.517 8.752C3.685 9.252 3.949 9.714 4.293 10.112C4.61 10.473 5.001 10.759 5.44 10.953C5.882 11.146 6.36 11.244 6.842 11.24C7.105 11.241 7.367 11.227 7.628 11.198C7.853 11.173 8.074 11.125 8.288 11.054C8.49 10.987 8.684 10.898 8.868 10.79C9.065 10.672 9.252 10.537 9.425 10.387C9.499 10.325 9.581 10.273 9.668 10.233C9.754 10.192 9.848 10.171 9.943 10.171Z" fill="rgb(25,155,67)" fill-opacity="1.000" fill-rule="nonzero" transform="matrix(1 0 0 1 47.1376 23.0942)"/><path d="M0 9.812L0 0.186L1.721 0.186C1.842 0.183 1.963 0.196 2.081 0.223C2.17 0.244 2.253 0.283 2.325 0.339C2.392 0.394 2.444 0.466 2.474 0.548C2.513 0.65 2.543 0.756 2.563 0.863L2.723 1.764C3.077 1.22 3.476 0.79 3.92 0.474C4.341 0.165 4.849 -0.001 5.37 0C5.812 0 6.168 0.105 6.436 0.315L6.062 2.432C6.037 2.562 5.988 2.653 5.912 2.704C5.823 2.761 5.719 2.788 5.613 2.783C5.488 2.781 5.362 2.767 5.239 2.741C5.06 2.711 4.878 2.697 4.697 2.699C3.937 2.699 3.338 3.102 2.901 3.906L2.901 9.812L0 9.812Z" fill="rgb(25,155,67)" fill-opacity="1.000" fill-rule="nonzero" transform="matrix(1 0 0 1 60.2145 26.953)"/><path d="M4.791 0C5.392 -0.007 5.989 0.094 6.554 0.297C7.068 0.484 7.537 0.778 7.929 1.161C8.323 1.554 8.63 2.027 8.828 2.548C9.045 3.096 9.153 3.716 9.153 4.41C9.155 4.587 9.146 4.763 9.125 4.939C9.114 5.054 9.078 5.165 9.022 5.265C8.976 5.343 8.905 5.402 8.82 5.432C8.717 5.467 8.607 5.482 8.498 5.479L2.901 5.479C2.994 6.284 3.241 6.867 3.641 7.229C4.04 7.591 4.555 7.773 5.184 7.773C5.478 7.779 5.771 7.738 6.052 7.652C6.276 7.58 6.493 7.49 6.703 7.383C6.893 7.284 7.067 7.194 7.227 7.114C7.382 7.034 7.553 6.993 7.727 6.993C7.957 6.993 8.133 7.077 8.251 7.244L9.093 8.274C8.813 8.598 8.487 8.877 8.125 9.105C7.79 9.313 7.432 9.481 7.058 9.606C6.702 9.725 6.336 9.809 5.964 9.857C5.618 9.902 5.27 9.925 4.921 9.926C4.269 9.931 3.621 9.819 3.007 9.597C2.424 9.385 1.891 9.051 1.445 8.617C0.983 8.16 0.623 7.61 0.388 7.003C0.129 6.359 0 5.61 0 4.756C-0.003 4.131 0.109 3.511 0.332 2.927C0.546 2.364 0.87 1.849 1.286 1.414C1.714 0.972 2.226 0.622 2.792 0.383C3.382 0.128 4.049 0 4.791 0ZM4.845 1.987C4.29 1.987 3.856 2.143 3.543 2.456C3.231 2.769 3.025 3.219 2.926 3.806L6.547 3.806C6.547 3.58 6.517 3.356 6.458 3.138C6.401 2.927 6.302 2.729 6.167 2.558C6.025 2.381 5.844 2.24 5.639 2.145C5.39 2.034 5.119 1.98 4.847 1.987L4.845 1.987Z" fill="rgb(25,155,67)" fill-opacity="1.000" fill-rule="nonzero" transform="matrix(1 0 0 1 67.3045 26.9898)"/><path d="M7.468 13.896C7.308 13.902 7.149 13.86 7.013 13.775C6.888 13.688 6.797 13.56 6.757 13.413L6.533 12.68C6.344 12.88 6.14 13.066 5.924 13.237C5.711 13.405 5.481 13.549 5.237 13.669C4.983 13.792 4.716 13.885 4.441 13.947C4.139 14.014 3.829 14.047 3.519 14.044C3.031 14.049 2.549 13.934 2.114 13.71C1.674 13.479 1.293 13.148 1.001 12.745C0.689 12.324 0.444 11.809 0.267 11.2C0.09 10.59 0 9.895 0 9.115C-0.006 8.437 0.095 7.762 0.3 7.115C0.48 6.534 0.768 5.993 1.147 5.518C1.503 5.076 1.952 4.716 2.461 4.464C2.988 4.207 3.567 4.077 4.154 4.083C4.653 4.083 5.075 4.156 5.422 4.301C5.762 4.443 6.08 4.635 6.364 4.872L6.364 0L9.264 0L9.264 13.896L7.468 13.896ZM4.53 11.838C4.724 11.84 4.917 11.82 5.106 11.777C5.27 11.74 5.428 11.682 5.579 11.605C5.724 11.529 5.861 11.436 5.985 11.327C6.121 11.207 6.249 11.077 6.365 10.938L6.365 6.85C6.169 6.628 5.924 6.455 5.649 6.344C5.394 6.248 5.123 6.199 4.849 6.201C4.594 6.198 4.342 6.251 4.11 6.358C3.875 6.473 3.673 6.647 3.526 6.864C3.361 7.096 3.231 7.398 3.137 7.769C3.036 8.21 2.989 8.662 2.997 9.115C2.99 9.545 3.028 9.974 3.11 10.396C3.185 10.743 3.289 11.023 3.423 11.236C3.538 11.432 3.704 11.591 3.904 11.696C4.099 11.791 4.314 11.84 4.53 11.838Z" fill="rgb(25,155,67)" fill-opacity="1.000" fill-rule="nonzero" transform="matrix(1 0 0 1 77.4625 22.8692)"/><path d="M3.499 1.689C3.5 1.912 3.452 2.132 3.359 2.334C3.266 2.534 3.136 2.714 2.975 2.864C2.81 3.018 2.618 3.14 2.409 3.226C2.191 3.316 1.957 3.362 1.721 3.36C1.493 3.362 1.267 3.316 1.057 3.226C0.855 3.138 0.669 3.016 0.51 2.864C0.352 2.713 0.225 2.534 0.135 2.334C0.045 2.132 -0.001 1.912 0 1.689C-0.002 1.463 0.045 1.238 0.135 1.03C0.225 0.828 0.352 0.646 0.51 0.492C0.668 0.338 0.854 0.215 1.057 0.13C1.267 0.042 1.493 -0.002 1.721 0C1.957 -0.002 2.19 0.042 2.409 0.13C2.619 0.213 2.811 0.336 2.975 0.492C3.136 0.645 3.266 0.828 3.359 1.03C3.452 1.237 3.5 1.462 3.499 1.689ZM3.162 4.326L3.162 13.952L0.262 13.952L0.262 4.326L3.162 4.326Z" fill="rgb(25,155,67)" fill-opacity="1.000" fill-rule="nonzero" transform="matrix(1 0 0 1 88.8031 22.813)"/><path d="M8.586 2.894C8.51 3.023 8.41 3.137 8.292 3.228C8.175 3.307 8.036 3.346 7.895 3.34C7.732 3.335 7.572 3.288 7.431 3.205C7.268 3.116 7.079 3.015 6.87 2.904C6.64 2.783 6.401 2.682 6.155 2.602C5.858 2.508 5.549 2.463 5.238 2.468C4.645 2.468 4.204 2.593 3.914 2.844C3.624 3.094 3.479 3.433 3.48 3.86C3.476 3.985 3.497 4.109 3.542 4.225C3.587 4.342 3.655 4.448 3.741 4.537C3.94 4.733 4.173 4.891 4.429 5.002C4.745 5.143 5.07 5.263 5.402 5.359C5.767 5.468 6.14 5.589 6.52 5.721C6.902 5.855 7.275 6.011 7.637 6.19C7.997 6.366 8.325 6.598 8.609 6.879C8.902 7.17 9.135 7.515 9.297 7.895C9.472 8.294 9.56 8.776 9.56 9.339C9.565 9.939 9.454 10.535 9.234 11.093C9.021 11.63 8.697 12.115 8.284 12.518C7.844 12.939 7.322 13.265 6.75 13.474C6.142 13.706 5.452 13.822 4.678 13.822C4.243 13.821 3.809 13.778 3.382 13.692C2.947 13.607 2.52 13.484 2.106 13.326C1.704 13.172 1.315 12.985 0.945 12.764C0.602 12.562 0.285 12.319 0 12.04L0.936 10.574C1.007 10.459 1.107 10.365 1.226 10.301C1.349 10.234 1.488 10.198 1.628 10.199C1.829 10.204 2.025 10.265 2.194 10.376C2.384 10.493 2.6 10.623 2.839 10.766C3.104 10.919 3.381 11.05 3.668 11.155C4.022 11.28 4.396 11.34 4.772 11.332C5.345 11.332 5.791 11.206 6.109 10.956C6.428 10.705 6.586 10.307 6.585 9.763C6.585 9.448 6.497 9.191 6.323 8.993C6.13 8.783 5.896 8.616 5.635 8.503C5.322 8.362 4.998 8.248 4.667 8.159C4.305 8.06 3.934 7.95 3.553 7.83C3.172 7.709 2.8 7.56 2.441 7.384C2.081 7.209 1.753 6.974 1.473 6.688C1.174 6.379 0.94 6.013 0.785 5.611C0.61 5.181 0.523 4.651 0.523 4.019C0.523 3.508 0.628 3.003 0.831 2.534C1.041 2.045 1.351 1.606 1.739 1.244C2.165 0.849 2.664 0.542 3.208 0.339C3.787 0.112 4.45 0 5.201 0C5.609 -0.001 6.018 0.032 6.421 0.097C6.804 0.159 7.182 0.256 7.548 0.385C7.893 0.507 8.227 0.659 8.545 0.84C8.842 1.007 9.12 1.207 9.373 1.436L8.586 2.894Z" fill="rgb(25,155,67)" fill-opacity="1.000" fill-rule="nonzero" transform="matrix(1 0 0 1 93.3131 23.0933)"/><path d="M3.18 13.525L0 13.525L0 0L3.18 0L3.18 13.525Z" fill="rgb(25,155,67)" fill-opacity="1.000" fill-rule="nonzero" transform="matrix(1 0 0 1 104.7254 23.2397)"/><path d="M8.585 2.896C8.51 3.025 8.409 3.139 8.291 3.23C8.173 3.309 8.034 3.348 7.894 3.342C7.73 3.336 7.571 3.29 7.43 3.207C7.267 3.117 7.078 3.016 6.869 2.905C6.639 2.785 6.4 2.684 6.153 2.604C5.857 2.51 5.547 2.464 5.237 2.469C4.644 2.469 4.203 2.595 3.913 2.845C3.622 3.096 3.478 3.435 3.478 3.861C3.475 3.986 3.496 4.111 3.541 4.227C3.586 4.343 3.654 4.45 3.741 4.539C3.939 4.735 4.173 4.892 4.429 5.003C4.744 5.145 5.069 5.264 5.401 5.361C5.766 5.47 6.139 5.59 6.519 5.723C6.901 5.856 7.274 6.013 7.637 6.191C7.996 6.367 8.323 6.6 8.609 6.88C8.901 7.172 9.135 7.517 9.297 7.897C9.471 8.296 9.558 8.777 9.559 9.34C9.564 9.941 9.454 10.537 9.233 11.095C9.02 11.632 8.696 12.117 8.284 12.52C7.843 12.941 7.321 13.267 6.75 13.476C6.141 13.708 5.451 13.824 4.678 13.824C4.242 13.823 3.808 13.779 3.382 13.694C2.946 13.609 2.519 13.486 2.105 13.328C1.703 13.174 1.315 12.986 0.945 12.766C0.602 12.564 0.284 12.321 0 12.041L0.936 10.575C1.006 10.46 1.106 10.366 1.225 10.303C1.349 10.235 1.487 10.2 1.627 10.201C1.829 10.205 2.025 10.267 2.194 10.377C2.383 10.495 2.599 10.625 2.839 10.767C3.103 10.921 3.38 11.051 3.667 11.157C4.021 11.282 4.395 11.341 4.771 11.333C5.344 11.333 5.79 11.208 6.109 10.957C6.426 10.707 6.586 10.309 6.586 9.765C6.586 9.449 6.498 9.192 6.323 8.994C6.131 8.784 5.897 8.617 5.636 8.504C5.323 8.364 4.999 8.249 4.668 8.161C4.306 8.062 3.935 7.952 3.555 7.832C3.173 7.711 2.801 7.562 2.442 7.386C2.082 7.211 1.754 6.975 1.473 6.69C1.174 6.38 0.94 6.013 0.784 5.611C0.609 5.181 0.521 4.651 0.522 4.019C0.522 3.508 0.628 3.003 0.831 2.534C1.041 2.045 1.35 1.606 1.738 1.244C2.165 0.849 2.663 0.542 3.207 0.339C3.785 0.112 4.45 0 5.2 0C5.609 -0.001 6.017 0.032 6.42 0.097C6.804 0.159 7.181 0.256 7.548 0.385C7.892 0.507 8.224 0.659 8.541 0.839C8.838 1.008 9.116 1.208 9.369 1.438L8.585 2.896Z" fill="rgb(25,155,67)" fill-opacity="1.000" fill-rule="nonzero" transform="matrix(1 0 0 1 109.442 23.0917)"/><path d="M16.225 0L4.196 12.069L0 7.859C4.023 3.311 9.764 0.349 16.211 0" fill="rgb(25,155,67)" fill-opacity="1.000" fill-rule="evenodd" transform="matrix(1 0 0 1 23.6158 33.6577)"/><path d="M26.122 1.85C23.237 0.627 20.137 -0.002 17.005 0C10.295 0 4.257 2.837 0 7.371L4.781 12.168C9.067 7.025 15.503 3.76 22.696 3.76C23.22 3.76 23.738 3.774 24.262 3.815L26.17 1.898L26.122 1.85Z" fill="rgb(25,155,67)" fill-opacity="1.000" fill-rule="evenodd" transform="matrix(1 0 0 1 17.4529 27.965)"/><path d="M7.649 6.347C5.042 6.344 2.454 6.793 0 7.674L7.649 0L15.297 7.674C12.843 6.792 10.255 6.344 7.649 6.347Z" fill="rgb(255,205,0)" fill-opacity="1.000" fill-rule="evenodd" transform="matrix(1 0 0 1 20.1624 13.999)"/><path d="M29.081 5.019L25.967 1.894C23.041 0.642 19.893 -0.003 16.712 0C9.642 0 4.753 2.799 0 7.568L4.026 11.608C6.212 9.133 8.898 7.154 11.905 5.8C14.912 4.447 18.172 3.751 21.468 3.759C24.058 3.757 26.631 4.182 29.084 5.017" fill="rgb(25,155,67)" fill-opacity="1.000" fill-rule="evenodd" transform="matrix(1 0 0 1 12 22.295)"/></svg>