<svg xmlns="http://www.w3.org/2000/svg" viewBox="0 0 60 60" width="60" height="60"><path d="M0 0L60 0L60 60L0 60L0 0Z" fill="rgb(255,255,255)" fill-opacity="1.000" fill-rule="nonzero" transform="matrix(1 0 0 1 0 0)"/><path d="M32.501 22.583C28.983 21.98 25.183 21.636 22.393 22.152C22.231 22.195 22.11 22.066 22.11 21.894C22.11 20.861 22.11 17.504 21.342 13.328C21.342 13.242 21.301 13.199 21.221 13.156C12.043 6.312 3.754 1.75 0.358 0.028C0.116 -0.101 -0.127 0.243 0.075 0.459C9.981 10.143 13.458 26.629 13.903 28.824C13.943 28.953 14.064 29.039 14.186 29.039C25.304 26.758 36.463 29.599 39.576 30.503C39.818 30.589 39.98 30.244 39.818 30.072C37.514 27.447 35.088 24.993 32.622 22.669C32.622 22.626 32.581 22.583 32.501 22.583Z" fill="rgb(24,57,100)" fill-opacity="1.000" fill-rule="nonzero" transform="matrix(1 0 0 1 9.118 15.597)"/><path d="M26.009 24.973C17.073 12.232 4.378 2.848 0.376 0.051C0.133 -0.122 -0.109 0.18 0.052 0.438C3.125 4.742 4.702 9.692 5.47 13.824C5.47 13.911 5.51 13.954 5.551 13.997C9.23 16.751 12.99 19.85 16.71 23.251C16.75 23.294 16.791 23.294 16.831 23.294C20.712 23.983 24.27 24.93 25.726 25.36C25.968 25.446 26.13 25.188 26.009 24.973Z" fill="rgb(24,57,100)" fill-opacity="1.000" fill-rule="nonzero" transform="matrix(1 0 0 1 24.9502 14.8865)"/></svg>