<svg xmlns="http://www.w3.org/2000/svg" viewBox="0 0 60 60" width="60" height="60"><path d="M0 0L60 0L60 60L0 60L0 0Z" fill="rgb(0,55,103)" fill-opacity="1.000" fill-rule="nonzero" transform="matrix(1 0 0 1 0 0)"/><path d="M23.31 17.287C12.381 22.804 2.364 24.037 0.329 20.768C-1.171 18.251 2.579 13.698 9.168 9.358C2.579 5.02 -1.171 1.377 0.329 0.305C1.882 -0.766 8.632 1.27 16.774 5.127C27.649 -0.016 38.094 -1.569 40.13 1.752C41.63 4.216 37.345 8.287 30.97 12.947C37.72 17.34 41.737 21.197 40.238 22.268C38.684 23.34 31.827 21.251 23.577 17.287L26.149 17.287C30.702 19.43 34.291 20.715 35.416 20.501C36.702 20.233 34.452 18.144 29.899 15.144L28.72 14.233C27.595 13.323 13.667 6.091 12.007 5.448C8.096 3.68 5.043 2.662 4.078 2.876C3.436 3.519 9.06 7.055 10.882 9.037L10.882 15.787C10.882 16.644 11.525 17.287 12.328 17.287L23.31 17.287ZM17.471 5.448L29.791 12.197L29.791 6.948C29.791 6.091 29.095 5.448 28.291 5.448L17.471 5.448Z" fill="rgb(255,255,255)" fill-opacity="1.000" fill-rule="evenodd" transform="matrix(1 0 0 -1 9.4492 41.2456)"/></svg>