<svg xmlns="http://www.w3.org/2000/svg" viewBox="0 0 60 60" width="60" height="60"><path d="M0 0L60 0L60 60L0 60L0 0Z" fill="rgb(0,84,128)" fill-opacity="1.000" fill-rule="nonzero" transform="matrix(1 0 0 1 0 0)"/><path d="M0 1.535C2.133 0.549 4.521 0 7.041 0L7.558 0.006L9.846 10.753C8.426 10.86 7.121 11.373 6.045 12.176" fill="rgb(253,185,19)" fill-opacity="1.000" fill-rule="evenodd" transform="matrix(1 0 0 -1 22.6791 45.9539)"/><path d="M0 8.641L3.031 0C5.233 1.365 7.078 3.227 8.393 5.425L3.907 11.87C3.035 10.378 1.653 9.222 0 8.641Z" fill="rgb(253,185,19)" fill-opacity="1.000" fill-rule="evenodd" transform="matrix(1 0 0 -1 35.5207 43.453)"/><path d="M1.552 0.28L1.546 0L7.128 0.123C6.835 2.377 6.056 4.488 4.893 6.348L0 4.79C0.973 3.546 1.552 1.983 1.552 0.28Z" fill="rgb(253,185,19)" fill-opacity="1.000" fill-rule="evenodd" transform="matrix(1 0 0 -1 38.8727 28.1723)"/><path d="M5.675 4.674C3.995 5.782 2.097 6.598 0.052 7.041L0 1.01C1.287 0.977 2.493 0.614 3.533 0" fill="rgb(253,185,19)" fill-opacity="1.000" fill-rule="evenodd" transform="matrix(1 0 0 -1 33.2796 21.5748)"/><path d="M10.858 2.51L6.577 9.065C4.131 8.525 1.894 7.453 0 5.985L7.668 0C8.467 1.111 9.571 1.987 10.858 2.51Z" fill="rgb(253,185,19)" fill-opacity="1.000" fill-rule="evenodd" transform="matrix(1 0 0 -1 19.4779 23.609)"/><path d="M12.451 6.14C12.451 6.632 12.499 7.115 12.593 7.58L0.431 7.618C0.149 6.45 0 5.233 0 3.983C0 2.607 0.181 1.272 0.519 0L12.899 3.608C12.611 4.398 12.451 5.25 12.451 6.14Z" fill="rgb(253,185,19)" fill-opacity="1.000" fill-rule="evenodd" transform="matrix(1 0 0 -1 13.3125 34.0322)"/></svg>