<svg xmlns="http://www.w3.org/2000/svg" viewBox="0 0 130 60" width="130" height="60"><path d="M0 0L130 0L130 60L0 60L0 0Z" fill="rgb(255,255,255)" fill-opacity="1.000" fill-rule="nonzero" transform="matrix(1 0 0 1 0 0)"/><path d="M0 1.001C1.391 0.358 2.948 0 4.591 0L4.928 0.004L6.42 7.011C5.494 7.081 4.643 7.415 3.941 7.939" fill="rgb(253,185,19)" fill-opacity="1.000" fill-rule="evenodd" transform="matrix(1 0 0 -1 101.3971 31.4872)"/><path d="M0 5.634L1.976 0C3.412 0.89 4.615 2.104 5.473 3.537L2.548 7.74C1.979 6.767 1.078 6.013 0 5.634Z" fill="rgb(253,185,19)" fill-opacity="1.000" fill-rule="evenodd" transform="matrix(1 0 0 -1 109.7703 29.8565)"/><path d="M1.012 0.182L1.008 0L4.647 0.08C4.456 1.55 3.948 2.927 3.19 4.139L0 3.123C0.634 2.312 1.012 1.293 1.012 0.182Z" fill="rgb(253,185,19)" fill-opacity="1.000" fill-rule="evenodd" transform="matrix(1 0 0 -1 111.9545 19.8933)"/><path d="M3.7 3.047C2.605 3.77 1.367 4.302 0.034 4.591L0 0.658C0.839 0.637 1.625 0.4 2.303 0" fill="rgb(253,185,19)" fill-opacity="1.000" fill-rule="evenodd" transform="matrix(1 0 0 -1 108.3079 15.5913)"/><path d="M7.08 1.637L4.288 5.911C2.694 5.558 1.235 4.859 0 3.902L5 0C5.52 0.724 6.24 1.296 7.08 1.637Z" fill="rgb(253,185,19)" fill-opacity="1.000" fill-rule="evenodd" transform="matrix(1 0 0 -1 99.3086 16.9178)"/><path d="M8.118 4.003C8.118 4.325 8.149 4.639 8.211 4.942L0.281 4.967C0.097 4.205 0 3.412 0 2.597C0 1.7 0.118 0.83 0.338 0L8.41 2.352C8.222 2.868 8.118 3.423 8.118 4.003Z" fill="rgb(253,185,19)" fill-opacity="1.000" fill-rule="evenodd" transform="matrix(1 0 0 -1 95.289 23.714)"/><path d="M9.301 0.51L9.859 5.265C3.208 3.208 5.783 12.856 10.639 10.798L12.05 15.628C-1.203 18.751 -5.48 -3.617 9.301 0.51Z" fill="rgb(0,84,128)" fill-opacity="1.000" fill-rule="evenodd" transform="matrix(1 0 0 -1 14.3811 42.2729)"/><path d="M12.815 15.044C10.771 16.125 9.052 14.72 7.504 12.036L8.319 15.044C5.7 15.071 3.127 15.005 0.705 14.635L0 11.069C0.855 11.077 1.658 10.955 2.414 10.717L0.335 0.018L5.832 0C6.76 6.34 8.294 10.725 11.403 10.029" fill="rgb(0,84,128)" fill-opacity="1.000" fill-rule="evenodd" transform="matrix(1 0 0 -1 26.7656 41.745)"/><path d="M7.809 11.624C8.93 12.2 9.758 11.176 9.036 10.248C8.279 9.403 7.289 9.141 6.137 9.284C6.416 10.293 6.934 11.107 7.809 11.624ZM12.044 5.309C7.485 3.933 5.423 4.17 5.618 5.866C16.288 5.309 17.296 16.021 8.812 15.82C-1.177 15.359 -5.759 -4.893 12.044 1.112" fill="rgb(0,84,128)" fill-opacity="1.000" fill-rule="evenodd" transform="matrix(1 0 0 -1 37.9186 42.1508)"/><path d="M3.306 0C5.13 0 6.611 1.479 6.611 3.306C6.611 5.132 5.13 6.612 3.306 6.612C1.479 6.612 0 5.132 0 3.306C0 1.479 1.479 0 3.306 0Z" fill="rgb(0,84,128)" fill-opacity="1.000" fill-rule="evenodd" transform="matrix(1 0 0 -1 67.8674 25.9416)"/><path d="M0.713 14.598L0 11.084C0.825 11.117 1.652 11.006 2.479 10.79L0.267 0L5.766 0L8.513 14.859C5.7 15.16 3.073 15.121 0.713 14.598Z" fill="rgb(0,84,128)" fill-opacity="1.000" fill-rule="evenodd" transform="matrix(1 0 0 -1 64.4604 41.8052)"/><path d="M10.178 11.507L11.292 15.444C8.363 16.031 5.85 15.627 3.715 14.33C1.565 12.884 0.539 9.221 3.332 6.641C5.36 5.022 4.885 3.543 1.004 4.802L0 0.382C4.504 -0.585 7.951 0.216 9.88 3.558C10.698 5.688 10.192 7.47 8.73 9.006C8.027 9.706 7.049 10.112 7.281 10.986C7.695 11.948 8.785 11.939 10.178 11.507Z" fill="rgb(0,84,128)" fill-opacity="1.000" fill-rule="evenodd" transform="matrix(1 0 0 -1 72.7391 41.8056)"/><path d="M6.168 5.133C5.603 5.764 5.628 7.15 6.307 8.745C7.198 10.859 8.438 11.751 10.023 11.438C9.55 8.147 7.118 4.25 6.168 5.133ZM14.198 4.688L16.161 15.217C14.652 15.557 13.14 15.768 11.628 15.811C2.126 16.638 -0.823 8.487 0.189 3.608C0.987 -0.255 5.111 -1.946 9.141 3.312L8.285 0.508L15.994 0.852L16.667 4.316" fill="rgb(0,84,128)" fill-opacity="1.000" fill-rule="evenodd" transform="matrix(1 0 0 -1 84.1214 41.8061)"/><path d="M12.701 22.143C12.853 22.983 13.08 23.656 13.386 24.135C13.65 24.538 13.965 24.792 14.328 24.911C14.81 25.057 15.393 24.945 16.083 24.535L17.309 29.067C16.22 29.314 15.114 29.391 14.002 29.365C10.26 29.238 7.921 27.005 7.349 22.122L7.321 21.973L5.585 21.973L4.642 17.887L6.544 17.887L4.492 7.115C3.944 4.598 3.23 4.107 1.225 4.775L0 0.317C1.399 -0.076 2.896 -0.107 4.492 0.243C7.172 0.786 9.018 2.858 9.917 6.668L11.935 17.887L14.3 17.887L15.242 21.973L12.67 21.973" fill="rgb(0,84,128)" fill-opacity="1.000" fill-rule="evenodd" transform="matrix(1 0 0 -1 48.6384 48.892)"/></svg>