<svg xmlns="http://www.w3.org/2000/svg" viewBox="0 0 60 60" width="60" height="60"><path d="M0 0L60 0L60 60L0 60L0 0Z" fill="rgb(255,255,255)" fill-opacity="1.000" fill-rule="nonzero" transform="matrix(1 0 0 1 0 0)"/><path d="M45.014 24.5C45.014 35.812 35.812 45.014 24.499 45.014C13.187 45.014 3.986 35.812 3.986 24.5C3.986 13.188 13.188 3.986 24.499 3.986C35.81 3.986 45.014 13.188 45.014 24.5ZM49 24.5C49 10.99 38.01 0 24.499 0C10.989 0 0 10.99 0 24.5C0 38.01 10.99 49 24.499 49C38.009 49 48.999 38.008 48.999 24.5" fill="rgb(239,124,2)" fill-opacity="1.000" fill-rule="nonzero" transform="matrix(1 0 0 1 5 5)"/><path d="M28.571 13.386L22.722 18.989L19.206 15.607L20.584 14.283C22.847 11.868 19.951 9.759 19.951 9.759C19.933 9.754 19.92 9.746 19.907 9.739L14.935 14.525L14.632 14.821L10.278 18.996L4.433 13.394C3.628 12.622 3.626 11.365 4.43 10.592L10.278 4.989L13.794 8.37L12.415 9.695C10.152 12.111 13.05 14.219 13.05 14.219C13.067 14.224 13.079 14.232 13.095 14.24L22.724 4.981L28.57 10.583C29.374 11.354 29.375 12.613 28.572 13.386M31.274 7.99L23.064 0.119C22.898 -0.039 22.55 -0.04 22.384 0.119L16.496 5.774L10.616 0.126C10.442 -0.041 10.11 -0.04 9.938 0.126L1.726 7.998C0.614 9.063 0 10.484 0 11.995C0 13.506 0.613 14.925 1.726 15.99L9.938 23.862C10.102 24.021 10.437 24.034 10.616 23.862L16.504 18.206L22.384 23.855C22.583 24.047 22.86 24.05 23.062 23.855L31.274 15.983C32.386 14.918 33 13.497 33 11.986C33 10.475 32.387 9.056 31.274 7.991" fill="rgb(0,89,65)" fill-opacity="1.000" fill-rule="nonzero" transform="matrix(1 0 0 1 13 17)"/></svg>