<svg xmlns="http://www.w3.org/2000/svg" viewBox="0 0 130 60" width="130" height="60"><path d="M0 0L130 0L130 60L0 60L0 0Z" fill="rgb(255,255,255)" fill-opacity="1.000" fill-rule="nonzero" transform="matrix(1 0 0 1 0 0)"/><path d="M20.208 10.901C20.208 15.935 16.076 20.029 10.998 20.029C5.92 20.029 1.789 15.935 1.789 10.901C1.789 5.868 5.921 1.774 10.998 1.774C16.076 1.774 20.208 5.868 20.208 10.901ZM21.997 10.901C21.997 4.89 17.063 0 10.998 0C4.933 0 0 4.89 0 10.901C0 16.913 4.934 21.803 10.998 21.803C17.063 21.803 21.996 16.912 21.996 10.901" fill="rgb(239,124,2)" fill-opacity="1.000" fill-rule="nonzero" transform="matrix(1 0 0 1 10 19)"/><path d="M12.635 6.031L10.049 8.556L8.494 7.032L9.103 6.435C10.104 5.347 8.823 4.397 8.823 4.397C8.815 4.395 8.809 4.391 8.804 4.388L6.605 6.544L6.471 6.678L4.545 8.559L1.96 6.035C1.604 5.687 1.604 5.121 1.959 4.772L4.545 2.248L6.1 3.771L5.49 4.368C4.49 5.457 5.771 6.407 5.771 6.407C5.779 6.409 5.784 6.413 5.791 6.416L10.05 2.244L12.635 4.768C12.99 5.116 12.991 5.683 12.636 6.031M13.831 3.6L10.2 0.054C10.126 -0.018 9.973 -0.018 9.899 0.054L7.295 2.602L4.695 0.057C4.618 -0.019 4.471 -0.018 4.395 0.057L0.763 3.603C0.272 4.084 0 4.724 0 5.405C0 6.085 0.271 6.725 0.763 7.204L4.395 10.752C4.468 10.823 4.616 10.829 4.695 10.752L7.299 8.203L9.899 10.748C9.987 10.835 10.11 10.836 10.199 10.748L13.831 7.202C14.322 6.721 14.594 6.081 14.594 5.401C14.594 4.72 14.323 4.08 13.831 3.601" fill="rgb(0,89,65)" fill-opacity="1.000" fill-rule="nonzero" transform="matrix(1 0 0 1 13.7151 24.423)"/><path d="M7.168 12.081C4.813 12.081 3.35 10.251 3.35 7.304C3.35 4.357 4.778 2.568 7.168 2.568C9.559 2.568 10.962 4.338 10.962 7.304C10.962 10.269 9.508 12.081 7.168 12.081ZM7.168 0C2.747 0 0 2.799 0 7.304C0 11.809 2.747 14.628 7.168 14.628C11.589 14.628 14.312 11.821 14.312 7.304C14.312 2.787 11.575 0 7.168 0Z" fill="rgb(0,89,65)" fill-opacity="1.000" fill-rule="nonzero" transform="matrix(1 0 0 1 94.3872 22.5632)"/><path d="M11.244 11.87L3.344 11.87L3.344 8.304L8.228 8.304C8.739 8.239 9.341 8.031 9.341 7.4L9.358 5.817L3.343 5.817L3.343 2.684L9.623 2.684C10.278 2.634 10.669 2.127 10.827 1.79C11.024 1.365 11.373 0.001 11.373 0C11.373 0 1.353 0.003 1.338 0.003C0.6 0.003 0 0.526 0 1.168L0 13.192C-0.001 13.835 0.6 14.357 1.338 14.357L10.014 14.357C10.705 14.309 11.246 13.801 11.246 13.198C11.246 13.179 11.244 11.87 11.244 11.87" fill="rgb(0,89,65)" fill-opacity="1.000" fill-rule="nonzero" transform="matrix(1 0 0 1 68.2871 22.699)"/><path d="M9.185 14.376C9.868 14.325 10.393 13.839 10.408 13.244L10.408 11.895L3.35 11.889L3.35 0L0 0L0 14.378L9.185 14.376Z" fill="rgb(0,89,65)" fill-opacity="1.000" fill-rule="nonzero" transform="matrix(1 0 0 1 110.5919 22.6881)"/><path d="M1.618 13.956C3.563 14.515 4.794 14.627 6.15 14.627C8.849 14.627 12.065 13.913 12.065 10.514C12.065 8.41 11.031 7.393 7.807 6.327L5.851 5.69C4.566 5.271 3.655 4.906 3.655 4.011C3.655 3.115 4.62 2.568 6.056 2.568C7.085 2.568 8.024 2.779 8.885 3.007L9.334 3.128C9.992 3.226 10.496 2.944 10.81 2.299L11.344 1.005L9.723 0.526C8.537 0.177 7.303 0 6.056 0C2.441 0 0.282 1.5 0.282 4.011C0.282 6.085 1.305 7.087 4.494 8.135L6.452 8.794C7.495 9.146 8.692 9.66 8.692 10.515C8.692 12.081 6.779 12.081 6.151 12.081C5.046 12.081 3.98 11.927 2.694 11.579L2.072 11.414C1.97 11.394 1.858 11.383 1.75 11.383C1.06 11.383 0.69 11.864 0.501 12.269L0 13.5L1.619 13.956L1.618 13.956Z" fill="rgb(0,89,65)" fill-opacity="1.000" fill-rule="nonzero" transform="matrix(1 0 0 1 80.9752 22.5643)"/><path d="M8.582 12.048L9.098 13.156C9.553 14.042 10.208 14.336 10.925 14.336L13.26 14.331C13.26 14.331 11.577 10.946 11.529 10.839C11.065 9.953 10.223 8.696 9.593 8.448C9.525 8.421 9.163 8.279 9.163 8.279C9.163 8.279 9.551 8.116 9.631 8.08C10.847 7.604 12.256 6.301 12.256 4.414C12.256 1.707 10.193 0 6.595 0C6.595 0 1.353 0.003 1.323 0.003C0.669 0.003 0 0.723 0 1.275L0 14.337L3.353 14.337L3.353 2.662L6.595 2.662C7.962 2.662 8.881 3.466 8.881 4.662C8.881 6.007 7.94 6.661 6.106 6.661C5.522 6.661 5.242 6.773 5.025 7.004C4.563 7.495 4.517 8.428 4.567 9.159C7.084 9.244 7.79 10.358 8.582 12.048Z" fill="rgb(0,89,65)" fill-opacity="1.000" fill-rule="nonzero" transform="matrix(1 0 0 1 53.309 22.7081)"/><path d="M9.985 11.791C9.985 11.791 8.395 12.114 7.333 12.114C4.853 12.114 3.373 10.344 3.373 7.378L3.373 7.303C3.373 4.338 4.853 2.568 7.333 2.568C8.395 2.568 9.985 2.891 9.985 2.891C10.54 2.957 11.093 2.717 11.39 2.101C11.546 1.779 11.875 0.756 11.875 0.756L10.744 0.423C9.667 0.119 8.709 0 7.333 0C2.81 0 0 2.798 0 7.303L0 7.378C0 11.883 2.81 14.681 7.333 14.681C8.709 14.681 9.666 14.561 10.744 14.257L11.875 13.925C11.875 13.925 11.546 12.901 11.39 12.579C11.093 11.964 10.541 11.723 9.985 11.79" fill="rgb(0,89,65)" fill-opacity="1.000" fill-rule="nonzero" transform="matrix(1 0 0 1 39.7168 22.5362)"/></svg>