<svg xmlns="http://www.w3.org/2000/svg" viewBox="0 0 60 60" width="60" height="60"><path d="M0 0L60 0L60 60L0 60L0 0Z" fill="rgb(255,255,255)" fill-opacity="1.000" fill-rule="nonzero" transform="matrix(1 0 0 1 0 0)"/><path d="M23.896 31.827L21.458 31.827L18.54 29.149L18.54 27.776L21.561 24.892L21.561 20.325L25.51 17.75L30.007 21.149L23.896 31.827ZM13.802 24.617L14.248 20.325L12.772 16.48L21.493 16.48L20.051 20.325L20.463 24.617L17.098 24.617L13.802 24.617ZM15.793 29.149L12.875 31.861L10.403 31.861L4.257 21.149L8.789 17.785L12.772 20.325L12.772 24.892L15.793 27.776L15.793 29.149ZM10.369 8.549L23.862 8.549L25.475 15.416L8.789 15.416L10.369 8.549ZM17.132 0L0 9.888L0 29.664L17.132 39.552L34.265 29.664L34.265 9.888L17.132 0Z" fill="rgb(3,49,108)" fill-opacity="1.000" fill-rule="nonzero" transform="matrix(1 0 0 1 13 10)"/></svg>