<svg xmlns="http://www.w3.org/2000/svg" viewBox="0 0 130 60" width="130" height="60"><path d="M0 0L130 0L130 60L0 60L0 0Z" fill="rgb(255,255,255)" fill-opacity="1.000" fill-rule="nonzero" transform="matrix(1 0 0 1 0 0)"/><path d="M9.176 0L0 5.296L0 15.888L9.176 21.184L18.352 15.888L18.352 5.296L9.176 0ZM9.176 0L0 5.296L0 15.888L9.176 21.184L18.352 15.888L18.352 5.296L9.176 0Z" fill="rgb(255,255,255)" fill-opacity="1.000" fill-rule="nonzero" transform="matrix(1 0 0 1 9.8336 19.8161)"/><path d="M12.799 17.046L11.493 17.046L9.93 15.612L9.93 14.877L11.548 13.332L11.548 10.886L13.663 9.507L16.072 11.328L12.799 17.046ZM7.392 13.185L7.631 10.886L6.841 8.827L11.511 8.827L10.739 10.886L10.96 13.185L9.158 13.185L7.392 13.185ZM8.459 15.612L6.896 17.065L5.572 17.065L2.28 11.328L4.708 9.525L6.841 10.886L6.841 13.332L8.459 14.877L8.459 15.612ZM5.553 4.579L12.78 4.579L13.645 8.257L4.708 8.257L5.553 4.579ZM9.176 0L0 5.296L0 15.888L9.176 21.184L18.352 15.888L18.352 5.296L9.176 0Z" fill="rgb(3,49,108)" fill-opacity="1.000" fill-rule="nonzero" transform="matrix(1 0 0 1 9.8336 19.8161)"/><path d="M4.211 8.514C1.784 8.514 0 6.62 0 4.285C0 1.949 1.802 0 4.229 0C5.774 0 6.73 0.57 7.484 1.398L6.326 2.648C5.756 2.041 5.149 1.637 4.211 1.637C2.85 1.637 1.857 2.813 1.857 4.248C1.857 5.719 2.869 6.896 4.303 6.896C5.186 6.896 5.829 6.473 6.418 5.884L7.539 7.006C6.73 7.87 5.792 8.514 4.211 8.514Z" fill="rgb(0,46,115)" fill-opacity="1.000" fill-rule="nonzero" transform="matrix(1 0 0 1 34.2723 26.8037)"/><path d="M1.876 8.5L0 8.5L0 0.004L1.876 0.004L1.876 1.99C2.391 0.777 3.328 -0.069 4.763 0.004L4.763 1.99L4.652 1.99C3.016 1.99 1.876 3.057 1.876 5.227L1.876 8.5Z" fill="rgb(0,46,115)" fill-opacity="1.000" fill-rule="nonzero" transform="matrix(1 0 0 1 43.4858 26.8179)"/><path d="M8.68 0L4.542 10.813L2.648 10.813L3.549 8.532L0 0L2.004 0L4.413 6.307L6.73 0L8.68 0Z" fill="rgb(0,46,115)" fill-opacity="1.000" fill-rule="nonzero" transform="matrix(1 0 0 1 49.3701 26.7855)"/><path d="M4.211 1.637C2.942 1.637 1.839 2.666 1.839 4.266C1.839 5.866 2.961 6.896 4.211 6.896C5.498 6.896 6.546 5.884 6.546 4.266C6.546 2.648 5.48 1.637 4.211 1.637ZM4.634 8.514C3.292 8.514 2.446 7.834 1.876 7.08L1.876 10.813L0 10.813L0 0L1.876 0L1.876 1.526C2.482 0.68 3.328 0 4.634 0C6.565 0 8.44 1.526 8.44 4.248C8.44 6.969 6.583 8.514 4.634 8.514Z" fill="rgb(0,46,115)" fill-opacity="1.000" fill-rule="nonzero" transform="matrix(1 0 0 1 59.3554 26.7855)"/><path d="M2.905 3.843L2.905 7.852C2.905 8.569 3.273 8.863 3.917 8.863L4.652 8.863L4.652 10.537L3.365 10.537C2.004 10.537 1.03 9.93 1.03 8.146L1.03 3.843L0 3.843L0 2.243L1.03 2.243L1.03 0L2.905 0L2.905 2.243L4.652 2.243L4.652 3.843L2.905 3.843Z" fill="rgb(0,46,115)" fill-opacity="1.000" fill-rule="nonzero" transform="matrix(1 0 0 1 68.991 24.7257)"/><path d="M4.321 1.618C2.813 1.618 1.857 2.795 1.857 4.229C1.857 5.682 2.887 6.877 4.34 6.877C5.848 6.877 6.804 5.701 6.804 4.266C6.841 2.813 5.792 1.618 4.321 1.618ZM4.321 8.514C1.839 8.514 0 6.62 0 4.285C0 1.931 1.857 0 4.358 0C6.859 0 8.698 1.894 8.698 4.248C8.698 6.565 6.859 8.514 4.321 8.514Z" fill="rgb(0,46,115)" fill-opacity="1.000" fill-rule="nonzero" transform="matrix(1 0 0 1 75.2249 26.8037)"/><path d="M4.321 1.618C2.813 1.618 1.857 2.795 1.857 4.229C1.857 5.682 2.887 6.877 4.34 6.877C5.848 6.877 6.804 5.701 6.804 4.266C6.822 2.813 5.792 1.618 4.321 1.618ZM4.321 8.514C1.839 8.514 0 6.62 0 4.285C0 1.931 1.857 0 4.358 0C6.859 0 8.698 1.894 8.698 4.248C8.698 6.565 6.841 8.514 4.321 8.514Z" fill="rgb(0,46,115)" fill-opacity="1.000" fill-rule="nonzero" transform="matrix(1 0 0 1 97.4933 26.8037)"/><path d="M9.562 0C11.346 0 12.431 1.122 12.431 3.126L12.431 8.514L10.555 8.514L10.555 3.696C10.555 2.391 9.948 1.71 8.9 1.71C7.889 1.71 7.153 2.427 7.153 3.733L7.153 8.532L5.278 8.532L5.278 3.696C5.278 2.427 4.652 1.71 3.623 1.71C2.593 1.71 1.876 2.482 1.876 3.751L1.876 8.532L0 8.532L0 0.018L1.876 0.018L1.876 1.416C2.409 0.699 3.108 0.018 4.358 0.018C5.535 0.018 6.344 0.588 6.785 1.453C7.466 0.57 8.33 0 9.562 0Z" fill="rgb(0,46,115)" fill-opacity="1.000" fill-rule="nonzero" transform="matrix(1 0 0 1 107.7359 26.7855)"/><path d="M1.857 0.552L1.857 1.508L1.802 1.6L0.975 2.06L0.864 2.06L0.055 1.6L0 1.508L0 0.552L0.055 0.46L0.864 0L0.975 0L1.802 0.46L1.857 0.552Z" fill="rgb(0,46,115)" fill-opacity="1.000" fill-rule="nonzero" transform="matrix(1 0 0 1 85.5026 33.0376)"/><path d="M4.138 8.515C1.711 8.46 -0.036 6.529 0.001 4.194C0.037 1.858 1.876 -0.054 4.322 0.001C5.867 0.038 6.823 0.626 7.558 1.472L6.381 2.704C5.83 2.097 5.223 1.656 4.285 1.638C2.924 1.619 1.913 2.759 1.895 4.212C1.858 5.683 2.851 6.879 4.285 6.897C5.168 6.915 5.83 6.511 6.418 5.922L7.522 7.062C6.694 7.927 5.738 8.552 4.138 8.515Z" fill="rgb(0,46,115)" fill-opacity="1.000" fill-rule="nonzero" transform="matrix(1 0 0 1 88.9044 26.7844)"/></svg>