<svg xmlns="http://www.w3.org/2000/svg" viewBox="0 0 60 60" width="60" height="60"><path d="M0 0L60 0L60 60L0 60L0 0Z" fill="rgb(255,255,255)" fill-opacity="1.000" fill-rule="nonzero" transform="matrix(1 0 0 1 0 0)"/><path d="M10.657 12.64L10.657 0L7.546 0L7.546 5.921C3.828 4.076 0 6.637 0 10.85C0 13.852 1.707 16.523 4.929 16.44C6.334 16.413 7.546 15.697 8.151 14.375L8.151 14.65C8.206 16.496 10.134 16.523 11.676 16.165L11.649 14.155C10.685 14.265 10.657 13.687 10.657 12.64ZM7.656 11.263C7.656 12.558 6.802 13.687 5.453 13.687C3.8 13.687 3.112 12.365 3.112 10.823C3.112 8.151 5.453 7.215 7.683 8.509L7.683 11.263L7.656 11.263Z" fill="rgb(0,0,0)" fill-opacity="1.000" fill-rule="nonzero" transform="matrix(1 0 0 1 11 19)"/><path d="M5.168 0C5.949 0 6.672 0.167 7.333 0.501C7.995 0.835 8.578 1.313 9.08 1.936L9.08 1.025C9.08 0.744 9.136 0.547 9.247 0.433C9.368 0.311 9.563 0.251 9.834 0.251L11.736 0.251C12.007 0.251 12.198 0.311 12.31 0.433C12.43 0.547 12.49 0.744 12.49 1.025C12.49 1.306 12.43 1.507 12.31 1.629C12.198 1.742 12.007 1.799 11.736 1.799L10.755 1.799L10.755 11.115C10.755 12.019 10.551 12.793 10.145 13.439C9.746 14.091 9.164 14.589 8.398 14.93C7.633 15.272 6.711 15.443 5.635 15.443C4.869 15.443 4.095 15.378 3.314 15.249C2.532 15.128 1.802 14.949 1.124 14.714C0.813 14.608 0.658 14.407 0.658 14.11C0.658 13.989 0.69 13.837 0.754 13.655C0.897 13.237 1.124 13.029 1.436 13.029C1.523 13.029 1.611 13.044 1.699 13.074C2.321 13.287 2.975 13.454 3.661 13.575C4.346 13.697 5.004 13.757 5.635 13.757C6.735 13.757 7.565 13.507 8.123 13.006C8.681 12.512 8.96 11.833 8.96 10.967L8.96 8.678C7.972 9.862 6.707 10.455 5.168 10.455C4.179 10.455 3.294 10.246 2.512 9.828C1.731 9.403 1.117 8.796 0.67 8.006C0.223 7.217 0 6.29 0 5.227C0 4.164 0.223 3.238 0.67 2.449C1.117 1.659 1.731 1.055 2.512 0.638C3.294 0.213 4.179 0 5.168 0ZM5.288 1.685C4.578 1.685 3.968 1.837 3.457 2.141C2.947 2.437 2.556 2.855 2.285 3.394C2.022 3.925 1.89 4.536 1.89 5.227C1.89 5.918 2.022 6.533 2.285 7.072C2.556 7.604 2.947 8.021 3.457 8.325C3.968 8.621 4.578 8.769 5.288 8.769C5.997 8.769 6.628 8.629 7.178 8.348C7.736 8.067 8.171 7.661 8.482 7.129C8.801 6.59 8.96 5.956 8.96 5.227C8.96 4.499 8.801 3.868 8.482 3.337C8.171 2.798 7.736 2.388 7.178 2.107C6.628 1.826 5.997 1.685 5.288 1.685Z" fill="rgb(0,108,250)" fill-opacity="1.000" fill-rule="nonzero" transform="matrix(1 0 0 1 25 25.155)"/><path d="M5.766 0C6.858 0 7.844 0.235 8.721 0.706C9.598 1.177 10.284 1.834 10.779 2.676C11.281 3.511 11.532 4.457 11.532 5.512C11.532 6.567 11.281 7.516 10.779 8.359C10.284 9.194 9.598 9.847 8.721 10.318C7.844 10.789 6.858 11.024 5.766 11.024C4.673 11.024 3.688 10.789 2.811 10.318C1.934 9.847 1.244 9.194 0.741 8.359C0.247 7.516 0 6.567 0 5.512C0 4.457 0.247 3.511 0.741 2.676C1.244 1.834 1.934 1.177 2.811 0.706C3.688 0.235 4.673 0 5.766 0ZM5.766 1.685C4.992 1.685 4.31 1.849 3.72 2.175C3.138 2.494 2.688 2.946 2.368 3.53C2.049 4.107 1.89 4.768 1.89 5.512C1.89 6.256 2.049 6.92 2.368 7.505C2.688 8.082 3.138 8.534 3.72 8.86C4.31 9.179 4.992 9.339 5.766 9.339C6.54 9.339 7.217 9.179 7.8 8.86C8.39 8.534 8.844 8.082 9.163 7.505C9.483 6.92 9.642 6.256 9.642 5.512C9.642 4.768 9.483 4.107 9.163 3.53C8.844 2.946 8.39 2.494 7.8 2.175C7.217 1.849 6.54 1.685 5.766 1.685Z" fill="rgb(0,108,250)" fill-opacity="1.000" fill-rule="nonzero" transform="matrix(1 0 0 1 38.0352 25.155)"/></svg>