<svg xmlns="http://www.w3.org/2000/svg" viewBox="0 0 130 60" width="130" height="60"><path d="M0 0L130 0L130 60L0 60L0 0Z" fill="rgb(255,255,255)" fill-opacity="1.000" fill-rule="nonzero" transform="matrix(1 0 0 1 0 0)"/><path d="M50.45 12.64C49.982 13.411 49.239 13.797 48.44 13.797C47.118 13.797 45.741 12.778 45.741 10.85C45.741 8.95 47.118 7.959 48.44 7.959C49.239 7.931 50.01 8.317 50.45 9.033L50.478 9.005L52.626 7.188C51.607 5.893 50.01 5.232 48.385 5.232C45.576 5.232 42.657 7.132 42.657 10.878C42.657 14.651 45.549 16.523 48.358 16.496C50.01 16.468 51.607 15.807 52.626 14.54L50.45 12.64ZM70.03 12.172L70.03 0L66.974 0L66.974 12.172C66.974 16 68.956 16.826 72.261 16.22L72.151 13.907C70.691 14.155 70.03 13.824 70.03 12.172ZM64.027 13.136L64.027 9.391C64.027 6.306 61.714 5.232 58.987 5.232C57.555 5.232 55.821 5.563 54.499 6.334L55.545 8.399C56.234 8.014 57.308 7.683 58.574 7.683C59.648 7.683 61.053 7.986 61.053 9.28L61.053 9.886C60.254 9.363 59.18 9.198 58.216 9.198C55.848 9.198 53.948 10.437 54.058 13.053C54.113 15.119 55.931 16.413 57.941 16.413C59.318 16.413 60.998 15.89 61.631 14.568C61.631 16.468 63.394 16.551 65.018 16.22L64.991 14.485C63.999 14.568 64.027 14.045 64.027 13.136ZM60.998 12.392C60.888 13.521 59.593 14.017 58.574 14.017C57.858 14.017 57.17 13.632 57.115 12.86C57.005 11.814 57.803 11.263 58.767 11.208C59.538 11.208 60.364 11.401 60.97 11.842L60.97 12.392L60.998 12.392ZM35.332 5.232C32.523 5.26 29.714 7.132 29.714 10.85C29.714 14.595 32.578 16.468 35.415 16.468C38.223 16.468 41.032 14.595 41.032 10.85C41.06 7.077 38.196 5.205 35.332 5.232ZM35.359 13.742C34.065 13.742 32.798 12.778 32.798 10.85C32.798 8.922 34.093 7.959 35.415 7.959C36.709 7.959 37.976 8.922 37.976 10.85C37.976 12.805 36.681 13.769 35.359 13.742ZM26.492 12.172L26.492 0L23.435 0L23.435 12.172C23.435 16 25.418 16.826 28.723 16.22L28.613 13.907C27.153 14.155 26.492 13.824 26.492 12.172ZM10.657 12.668L10.657 0.028L7.546 0.028L7.546 5.948C3.828 4.103 0 6.664 0 10.878C0 13.879 1.707 16.551 4.929 16.468C6.334 16.44 7.546 15.724 8.151 14.403L8.151 14.678C8.206 16.523 10.134 16.551 11.676 16.193L11.649 14.182C10.685 14.292 10.657 13.714 10.657 12.668ZM7.656 11.291C7.656 12.585 6.802 13.714 5.453 13.714C3.8 13.714 3.112 12.392 3.112 10.85C3.112 8.179 5.453 7.243 7.683 8.537L7.683 11.291L7.656 11.291Z" fill="rgb(0,0,0)" fill-opacity="1.000" fill-rule="nonzero" transform="matrix(1 0 0 1 12 22)"/><path d="M3.084 0L0 0L0 3.084L3.084 3.084L3.084 0Z" fill="rgb(72,38,131)" fill-opacity="1.000" fill-rule="nonzero" transform="matrix(1 0 0 1 27.6692 30.5376)"/><path d="M5.168 0C5.949 0 6.672 0.167 7.333 0.501C7.995 0.835 8.578 1.313 9.08 1.936L9.08 1.025C9.08 0.744 9.136 0.547 9.247 0.433C9.368 0.311 9.563 0.251 9.834 0.251L11.736 0.251C12.007 0.251 12.198 0.311 12.31 0.433C12.43 0.547 12.49 0.744 12.49 1.025C12.49 1.306 12.43 1.507 12.31 1.629C12.198 1.742 12.007 1.799 11.736 1.799L10.755 1.799L10.755 11.115C10.755 12.019 10.551 12.793 10.145 13.439C9.746 14.091 9.164 14.589 8.398 14.93C7.633 15.272 6.711 15.443 5.635 15.443C4.869 15.443 4.095 15.378 3.314 15.249C2.532 15.128 1.802 14.949 1.124 14.714C0.813 14.608 0.658 14.407 0.658 14.11C0.658 13.989 0.69 13.837 0.754 13.655C0.897 13.237 1.124 13.029 1.436 13.029C1.523 13.029 1.611 13.044 1.699 13.074C2.321 13.287 2.975 13.454 3.661 13.575C4.346 13.697 5.004 13.757 5.635 13.757C6.735 13.757 7.565 13.507 8.123 13.006C8.681 12.512 8.96 11.833 8.96 10.967L8.96 8.678C7.972 9.862 6.707 10.455 5.168 10.455C4.179 10.455 3.294 10.246 2.512 9.828C1.731 9.403 1.117 8.796 0.67 8.006C0.223 7.217 0 6.29 0 5.227C0 4.164 0.223 3.238 0.67 2.449C1.117 1.659 1.731 1.055 2.512 0.638C3.294 0.213 4.179 0 5.168 0ZM5.288 1.685C4.578 1.685 3.968 1.837 3.457 2.141C2.947 2.437 2.556 2.855 2.285 3.394C2.022 3.925 1.89 4.536 1.89 5.227C1.89 5.918 2.022 6.533 2.285 7.072C2.556 7.604 2.947 8.021 3.457 8.325C3.968 8.621 4.578 8.769 5.288 8.769C5.997 8.769 6.628 8.629 7.178 8.348C7.736 8.067 8.171 7.661 8.482 7.129C8.801 6.59 8.96 5.956 8.96 5.227C8.96 4.499 8.801 3.868 8.482 3.337C8.171 2.798 7.736 2.388 7.178 2.107C6.628 1.826 5.997 1.685 5.288 1.685Z" fill="rgb(0,108,250)" fill-opacity="1.000" fill-rule="nonzero" transform="matrix(1 0 0 1 90.6205 28.1826)"/><path d="M5.766 0C6.858 0 7.844 0.235 8.721 0.706C9.598 1.177 10.284 1.834 10.779 2.676C11.281 3.511 11.532 4.457 11.532 5.512C11.532 6.567 11.281 7.516 10.779 8.359C10.284 9.194 9.598 9.847 8.721 10.318C7.844 10.789 6.858 11.024 5.766 11.024C4.673 11.024 3.688 10.789 2.811 10.318C1.934 9.847 1.244 9.194 0.741 8.359C0.247 7.516 0 6.567 0 5.512C0 4.457 0.247 3.511 0.741 2.676C1.244 1.834 1.934 1.177 2.811 0.706C3.688 0.235 4.673 0 5.766 0ZM5.766 1.685C4.992 1.685 4.31 1.849 3.72 2.175C3.138 2.494 2.688 2.946 2.368 3.53C2.049 4.107 1.89 4.768 1.89 5.512C1.89 6.256 2.049 6.92 2.368 7.505C2.688 8.082 3.138 8.534 3.72 8.86C4.31 9.179 4.992 9.339 5.766 9.339C6.54 9.339 7.217 9.179 7.8 8.86C8.39 8.534 8.844 8.082 9.163 7.505C9.483 6.92 9.642 6.256 9.642 5.512C9.642 4.768 9.483 4.107 9.163 3.53C8.844 2.946 8.39 2.494 7.8 2.175C7.217 1.849 6.54 1.685 5.766 1.685Z" fill="rgb(0,108,250)" fill-opacity="1.000" fill-rule="nonzero" transform="matrix(1 0 0 1 103.6565 28.1826)"/></svg>