<svg xmlns="http://www.w3.org/2000/svg" viewBox="0 0 130 60" width="130" height="60"><path d="M0 0L130 0L130 60L0 60L0 0Z" fill="rgb(255,255,255)" fill-opacity="1.000" fill-rule="nonzero" transform="matrix(1 0 0 1 0 0)"/><path d="M101.996 0L0 0L0 18L101.996 18L101.996 0Z" fill="rgb(0,0,0)" fill-opacity="1.000" fill-rule="nonzero" transform="matrix(1 0 0 1 14 21)"/><path d="M7.744 1.289C7.174 0.827 6.512 0.494 5.802 0.312C4.986 0.095 4.145 -0.009 3.301 0.001C2.864 0.001 2.346 0.001 1.742 0.054C1.158 0.088 0.576 0.158 0 0.262L0 10.752C0.568 10.865 1.143 10.94 1.722 10.977C2.301 11.01 2.807 11.03 3.244 11.03C4.113 11.041 4.978 10.925 5.814 10.686C6.527 10.486 7.19 10.138 7.76 9.664C8.299 9.194 8.719 8.602 8.984 7.937C9.292 7.157 9.441 6.322 9.421 5.483C9.442 4.629 9.293 3.779 8.984 2.983C8.716 2.325 8.29 1.743 7.744 1.289ZM6.047 8.031C5.464 8.642 4.567 8.948 3.354 8.948L2.819 8.948C2.668 8.948 2.538 8.948 2.411 8.923L2.411 2.112C2.589 2.089 2.767 2.077 2.946 2.075C3.121 2.075 3.288 2.075 3.456 2.075C4.68 2.075 5.549 2.365 6.104 2.942C6.659 3.519 6.92 4.378 6.92 5.507C6.972 6.431 6.658 7.338 6.047 8.031Z" fill="rgb(40,69,210)" fill-opacity="1.000" fill-rule="nonzero" transform="matrix(1 0 0 1 40.0209 24.4643)"/><path d="M6.269 0.902C5.964 0.593 5.588 0.364 5.175 0.235C4.623 0.065 4.047 -0.013 3.47 0.002C3.197 0 2.925 0.014 2.654 0.043C2.389 0.067 2.14 0.096 1.903 0.133C1.666 0.17 1.446 0.21 1.242 0.26C1.038 0.309 0.875 0.35 0.74 0.39L1.034 2.256C1.355 2.14 1.687 2.059 2.025 2.015C2.417 1.956 2.813 1.927 3.209 1.929C3.647 1.888 4.084 2.015 4.433 2.285C4.552 2.411 4.646 2.56 4.707 2.723C4.768 2.886 4.795 3.06 4.788 3.234L4.788 3.447C4.601 3.399 4.412 3.365 4.22 3.344C3.949 3.317 3.677 3.305 3.404 3.307C2.973 3.307 2.542 3.351 2.119 3.438C1.744 3.518 1.384 3.659 1.054 3.856C0.732 4.057 0.468 4.339 0.287 4.674C0.084 5.05 -0.015 5.474 0.002 5.901C-0.011 6.333 0.072 6.762 0.247 7.157C0.409 7.488 0.655 7.77 0.961 7.975C1.297 8.2 1.674 8.356 2.07 8.434C2.541 8.533 3.021 8.581 3.502 8.577C4.218 8.584 4.933 8.534 5.64 8.425C6.228 8.327 6.689 8.245 7.019 8.172L7.019 3.344C7.025 2.878 6.967 2.413 6.848 1.961C6.746 1.565 6.547 1.201 6.269 0.902ZM4.804 6.719C4.681 6.74 4.514 6.752 4.306 6.764C4.098 6.777 3.898 6.764 3.657 6.764C3.312 6.782 2.968 6.71 2.658 6.556C2.535 6.474 2.436 6.361 2.372 6.228C2.308 6.094 2.281 5.946 2.295 5.799C2.289 5.635 2.332 5.473 2.417 5.332C2.503 5.206 2.622 5.104 2.76 5.038C2.919 4.964 3.088 4.914 3.262 4.891C3.465 4.865 3.669 4.853 3.874 4.854C4.044 4.854 4.214 4.864 4.384 4.882C4.571 4.903 4.71 4.923 4.792 4.944L4.804 6.719Z" fill="rgb(40,69,210)" fill-opacity="1.000" fill-rule="nonzero" transform="matrix(1 0 0 1 50.3663 26.9627)"/><path d="M4.35 8.739C4.096 8.783 3.84 8.806 3.583 8.808C3.387 8.834 3.188 8.808 3.007 8.731C2.825 8.654 2.668 8.529 2.55 8.37C2.364 8.013 2.276 7.611 2.297 7.208L2.297 4.345L5.068 4.345L5.068 2.406L2.31 2.406L2.31 0L0 0.372L0 7.237C-0.004 7.722 0.045 8.207 0.147 8.681C0.234 9.089 0.416 9.47 0.678 9.794C0.942 10.113 1.284 10.359 1.669 10.51C2.17 10.694 2.702 10.78 3.236 10.764C3.657 10.771 4.077 10.73 4.488 10.641C4.806 10.567 5.117 10.469 5.419 10.346L5.092 8.542C4.852 8.632 4.603 8.698 4.35 8.739Z" fill="rgb(40,69,210)" fill-opacity="1.000" fill-rule="nonzero" transform="matrix(1 0 0 1 59.017 24.7759)"/><path d="M6.864 1.962C6.764 1.565 6.564 1.2 6.285 0.902C5.979 0.592 5.6 0.362 5.183 0.235C4.633 0.065 4.058 -0.014 3.482 0.002C3.209 0.001 2.937 0.014 2.666 0.043C2.401 0.067 2.152 0.096 1.915 0.133C1.679 0.17 1.458 0.211 1.254 0.26C1.05 0.309 0.887 0.35 0.752 0.391L1.046 2.256C1.367 2.141 1.7 2.06 2.038 2.015C2.423 1.957 2.811 1.929 3.2 1.929C3.639 1.887 4.076 2.015 4.424 2.285C4.544 2.411 4.638 2.56 4.699 2.723C4.76 2.886 4.787 3.06 4.779 3.234L4.779 3.447C4.595 3.399 4.406 3.364 4.216 3.344C3.945 3.318 3.673 3.305 3.4 3.307C2.969 3.307 2.538 3.351 2.115 3.438C1.727 3.519 1.354 3.664 1.014 3.868C0.709 4.072 0.459 4.349 0.287 4.674C0.084 5.05 -0.015 5.474 0.002 5.901C0.004 6.327 0.101 6.746 0.287 7.129C0.446 7.46 0.691 7.743 0.997 7.947C1.333 8.171 1.711 8.327 2.107 8.405C2.578 8.504 3.058 8.552 3.539 8.548C4.255 8.556 4.97 8.505 5.677 8.397C6.269 8.299 6.726 8.217 7.056 8.143L7.056 3.344C7.055 2.877 6.99 2.412 6.864 1.962ZM4.824 6.715C4.702 6.736 4.535 6.748 4.331 6.76C4.127 6.773 3.923 6.76 3.678 6.76C3.332 6.777 2.988 6.705 2.678 6.552C2.555 6.47 2.456 6.357 2.392 6.224C2.328 6.09 2.302 5.942 2.315 5.795C2.31 5.631 2.352 5.469 2.438 5.328C2.525 5.203 2.643 5.101 2.78 5.034C2.939 4.96 3.108 4.91 3.282 4.887C3.485 4.861 3.689 4.849 3.894 4.85C4.066 4.85 4.237 4.86 4.408 4.878C4.59 4.9 4.726 4.921 4.816 4.94L4.824 6.715Z" fill="rgb(40,69,210)" fill-opacity="1.000" fill-rule="nonzero" transform="matrix(1 0 0 1 64.7105 26.9626)"/><path d="M7.744 1.289C7.174 0.827 6.512 0.494 5.802 0.312C4.986 0.095 4.145 -0.009 3.301 0.001C2.864 0.001 2.346 0.001 1.742 0.054C1.158 0.088 0.576 0.158 0 0.262L0 10.752C0.568 10.865 1.143 10.94 1.722 10.977C2.301 11.01 2.807 11.03 3.244 11.03C4.113 11.041 4.978 10.925 5.814 10.686C6.527 10.486 7.19 10.138 7.76 9.664C8.299 9.194 8.719 8.602 8.984 7.937C9.292 7.157 9.441 6.322 9.421 5.483C9.442 4.629 9.293 3.779 8.984 2.983C8.716 2.325 8.29 1.743 7.744 1.289ZM6.047 8.031C5.464 8.642 4.567 8.948 3.354 8.948L2.819 8.948C2.668 8.948 2.538 8.948 2.411 8.923L2.411 2.112C2.589 2.089 2.767 2.077 2.946 2.075C3.121 2.075 3.288 2.075 3.456 2.075C4.68 2.075 5.549 2.365 6.104 2.942C6.659 3.519 6.92 4.378 6.92 5.507C6.972 6.431 6.658 7.338 6.047 8.031Z" fill="rgb(40,69,210)" fill-opacity="1.000" fill-rule="nonzero" transform="matrix(1 0 0 1 40.0209 24.4643)"/><path d="M6.269 0.902C5.964 0.593 5.588 0.364 5.175 0.235C4.623 0.065 4.047 -0.013 3.47 0.002C3.197 0 2.925 0.014 2.654 0.043C2.389 0.067 2.14 0.096 1.903 0.133C1.666 0.17 1.446 0.21 1.242 0.26C1.038 0.309 0.875 0.35 0.74 0.39L1.034 2.256C1.355 2.14 1.687 2.059 2.025 2.015C2.417 1.956 2.813 1.927 3.209 1.929C3.647 1.888 4.084 2.015 4.433 2.285C4.552 2.411 4.646 2.56 4.707 2.723C4.768 2.886 4.795 3.06 4.788 3.234L4.788 3.447C4.601 3.399 4.412 3.365 4.22 3.344C3.949 3.317 3.677 3.305 3.404 3.307C2.973 3.307 2.542 3.351 2.119 3.438C1.744 3.518 1.384 3.659 1.054 3.856C0.732 4.057 0.468 4.339 0.287 4.674C0.084 5.05 -0.015 5.474 0.002 5.901C-0.011 6.333 0.072 6.762 0.247 7.157C0.409 7.488 0.655 7.77 0.961 7.975C1.297 8.2 1.674 8.356 2.07 8.434C2.541 8.533 3.021 8.581 3.502 8.577C4.218 8.584 4.933 8.534 5.64 8.425C6.228 8.327 6.689 8.245 7.019 8.172L7.019 3.344C7.025 2.878 6.967 2.413 6.848 1.961C6.746 1.565 6.547 1.201 6.269 0.902ZM4.804 6.719C4.681 6.74 4.514 6.752 4.306 6.764C4.098 6.777 3.898 6.764 3.657 6.764C3.312 6.782 2.968 6.71 2.658 6.556C2.535 6.474 2.436 6.361 2.372 6.228C2.308 6.094 2.281 5.946 2.295 5.799C2.289 5.635 2.332 5.473 2.417 5.332C2.503 5.206 2.622 5.104 2.76 5.038C2.919 4.964 3.088 4.914 3.262 4.891C3.465 4.865 3.669 4.853 3.874 4.854C4.044 4.854 4.214 4.864 4.384 4.882C4.571 4.903 4.71 4.923 4.792 4.944L4.804 6.719Z" fill="rgb(40,69,210)" fill-opacity="1.000" fill-rule="nonzero" transform="matrix(1 0 0 1 50.3663 26.9627)"/><path d="M4.35 8.739C4.096 8.783 3.84 8.806 3.583 8.808C3.387 8.834 3.188 8.808 3.007 8.731C2.825 8.654 2.668 8.529 2.55 8.37C2.364 8.013 2.276 7.611 2.297 7.208L2.297 4.345L5.068 4.345L5.068 2.406L2.31 2.406L2.31 0L0 0.372L0 7.237C-0.004 7.722 0.045 8.207 0.147 8.681C0.234 9.089 0.416 9.47 0.678 9.794C0.942 10.113 1.284 10.359 1.669 10.51C2.17 10.694 2.702 10.78 3.236 10.764C3.657 10.771 4.077 10.73 4.488 10.641C4.806 10.567 5.117 10.469 5.419 10.346L5.092 8.542C4.852 8.632 4.603 8.698 4.35 8.739Z" fill="rgb(40,69,210)" fill-opacity="1.000" fill-rule="nonzero" transform="matrix(1 0 0 1 59.017 24.7759)"/><path d="M6.864 1.962C6.764 1.565 6.564 1.2 6.285 0.902C5.979 0.592 5.6 0.362 5.183 0.235C4.633 0.065 4.058 -0.014 3.482 0.002C3.209 0.001 2.937 0.014 2.666 0.043C2.401 0.067 2.152 0.096 1.915 0.133C1.679 0.17 1.458 0.211 1.254 0.26C1.05 0.309 0.887 0.35 0.752 0.391L1.046 2.256C1.367 2.141 1.7 2.06 2.038 2.015C2.423 1.957 2.811 1.929 3.2 1.929C3.639 1.887 4.076 2.015 4.424 2.285C4.544 2.411 4.638 2.56 4.699 2.723C4.76 2.886 4.787 3.06 4.779 3.234L4.779 3.447C4.595 3.399 4.406 3.364 4.216 3.344C3.945 3.318 3.673 3.305 3.4 3.307C2.969 3.307 2.538 3.351 2.115 3.438C1.727 3.519 1.354 3.664 1.014 3.868C0.709 4.072 0.459 4.349 0.287 4.674C0.084 5.05 -0.015 5.474 0.002 5.901C0.004 6.327 0.101 6.746 0.287 7.129C0.446 7.46 0.691 7.743 0.997 7.947C1.333 8.171 1.711 8.327 2.107 8.405C2.578 8.504 3.058 8.552 3.539 8.548C4.255 8.556 4.97 8.505 5.677 8.397C6.269 8.299 6.726 8.217 7.056 8.143L7.056 3.344C7.055 2.877 6.99 2.412 6.864 1.962ZM4.824 6.715C4.702 6.736 4.535 6.748 4.331 6.76C4.127 6.773 3.923 6.76 3.678 6.76C3.332 6.777 2.988 6.705 2.678 6.552C2.555 6.47 2.456 6.357 2.392 6.224C2.328 6.09 2.302 5.942 2.315 5.795C2.31 5.631 2.352 5.469 2.438 5.328C2.525 5.203 2.643 5.101 2.78 5.034C2.939 4.96 3.108 4.91 3.282 4.887C3.485 4.861 3.689 4.849 3.894 4.85C4.066 4.85 4.237 4.86 4.408 4.878C4.59 4.9 4.726 4.921 4.816 4.94L4.824 6.715Z" fill="rgb(40,69,210)" fill-opacity="1.000" fill-rule="nonzero" transform="matrix(1 0 0 1 64.7105 26.9626)"/><path d="M0 0.468C1.132 0.161 2.299 0.004 3.472 0.002C4.059 -0.015 4.644 0.077 5.198 0.272C5.623 0.428 6 0.693 6.291 1.041C6.567 1.388 6.762 1.792 6.863 2.223C6.982 2.722 7.039 3.233 7.034 3.745L7.034 8.36L4.725 8.36L4.725 4.023C4.767 3.479 4.665 2.933 4.431 2.44C4.304 2.273 4.135 2.141 3.942 2.06C3.749 1.978 3.538 1.948 3.329 1.974C3.166 1.974 2.991 1.982 2.803 1.998C2.619 1.998 2.452 2.031 2.309 2.052L2.309 8.36L0 8.36L0 0.468Z" fill="rgb(40,69,210)" fill-opacity="1.000" fill-rule="nonzero" transform="matrix(1 0 0 1 73.4515 26.9953)"/><path d="M7.993 4.288C7.999 4.887 7.905 5.483 7.716 6.051C7.542 6.559 7.264 7.024 6.9 7.417C6.547 7.798 6.117 8.098 5.639 8.297C5.121 8.509 4.566 8.614 4.007 8.608C3.447 8.616 2.892 8.51 2.375 8.297C1.895 8.099 1.464 7.799 1.11 7.417C0.749 7.022 0.472 6.557 0.294 6.051C0.093 5.485 -0.007 4.888 0 4.288C-0.007 3.689 0.096 3.094 0.302 2.533C0.481 2.032 0.759 1.573 1.118 1.182C1.477 0.808 1.909 0.511 2.387 0.311C3.421 -0.104 4.576 -0.104 5.61 0.311C6.088 0.51 6.518 0.807 6.875 1.182C7.236 1.573 7.513 2.032 7.691 2.533C7.896 3.095 7.998 3.689 7.993 4.288ZM5.639 4.288C5.676 3.697 5.534 3.11 5.231 2.602C5.097 2.403 4.913 2.242 4.699 2.134C4.485 2.027 4.246 1.977 4.007 1.988C3.768 1.979 3.53 2.03 3.316 2.137C3.102 2.244 2.918 2.404 2.783 2.602C2.469 3.106 2.32 3.695 2.355 4.288C2.315 4.883 2.458 5.477 2.763 5.989C2.895 6.191 3.077 6.355 3.292 6.466C3.506 6.576 3.746 6.629 3.987 6.619C4.228 6.631 4.467 6.578 4.682 6.468C4.897 6.357 5.079 6.192 5.211 5.989C5.519 5.477 5.668 4.885 5.639 4.288Z" fill="rgb(40,69,210)" fill-opacity="1.000" fill-rule="nonzero" transform="matrix(1 0 0 1 81.8194 26.9644)"/><path d="M4.476 4.024C4.517 3.481 4.419 2.935 4.19 2.441C4.083 2.281 3.936 2.154 3.762 2.072C3.59 1.99 3.397 1.956 3.207 1.974C3.057 1.975 2.907 1.983 2.758 1.999C2.603 1.999 2.452 2.032 2.309 2.052L2.309 8.361L0 8.361L0 0.469C0.196 0.416 0.408 0.363 0.69 0.305C0.971 0.248 1.232 0.195 1.506 0.15C1.779 0.105 2.101 0.064 2.411 0.039C2.721 0.015 3.027 0.003 3.325 0.003C3.813 -0.015 4.299 0.061 4.757 0.228C5.088 0.354 5.396 0.535 5.667 0.764C6.351 0.289 7.158 0.025 7.989 0.003C8.536 -0.016 9.081 0.076 9.592 0.273C9.988 0.435 10.333 0.701 10.592 1.042C10.849 1.392 11.025 1.796 11.106 2.224C11.201 2.726 11.248 3.235 11.244 3.746L11.244 8.361L8.935 8.361L8.935 4.024C8.975 3.481 8.876 2.936 8.65 2.441C8.543 2.282 8.395 2.154 8.222 2.072C8.048 1.99 7.857 1.956 7.666 1.974C7.489 1.984 7.313 2.016 7.144 2.069C6.95 2.119 6.765 2.197 6.593 2.302C6.669 2.546 6.717 2.799 6.736 3.055C6.736 3.316 6.765 3.599 6.765 3.901L6.765 8.361L4.455 8.361L4.476 4.024Z" fill="rgb(40,69,210)" fill-opacity="1.000" fill-rule="nonzero" transform="matrix(1 0 0 1 91.2076 26.9947)"/><path d="M2.756 1.367C2.765 1.554 2.733 1.74 2.663 1.914C2.592 2.087 2.485 2.242 2.348 2.369C2.079 2.604 1.735 2.734 1.379 2.734C1.022 2.734 0.678 2.604 0.41 2.369C0.272 2.243 0.165 2.087 0.094 1.914C0.023 1.741 -0.008 1.554 0.002 1.367C-0.008 1.18 0.023 0.993 0.094 0.82C0.165 0.647 0.272 0.491 0.41 0.365C0.678 0.13 1.022 0 1.379 0C1.735 0 2.079 0.13 2.348 0.365C2.485 0.492 2.592 0.647 2.663 0.82C2.733 0.993 2.765 1.18 2.756 1.367ZM2.535 11.901L0.218 11.901L0.218 3.719L2.527 3.719L2.535 11.901Z" fill="rgb(40,69,210)" fill-opacity="1.000" fill-rule="nonzero" transform="matrix(1 0 0 1 103.9464 23.4541)"/><path d="M2.293 6.82L2.995 6.047C3.24 5.777 3.472 5.515 3.701 5.249C3.929 4.983 4.141 4.737 4.341 4.5L4.859 3.882L7.601 3.882C7.054 4.512 6.52 5.11 5.998 5.691C5.475 6.272 4.908 6.853 4.288 7.466C4.637 7.778 4.964 8.113 5.267 8.468C5.598 8.857 5.92 9.258 6.23 9.675C6.54 10.093 6.822 10.494 7.083 10.903C7.344 11.312 7.556 11.696 7.732 12.04L5.076 12.04C4.912 11.767 4.725 11.469 4.512 11.144C4.3 10.819 4.076 10.492 3.839 10.162C3.605 9.836 3.354 9.522 3.089 9.221C2.852 8.944 2.591 8.688 2.309 8.456L2.309 12.04L0 12.04L0 0.372L2.309 0L2.293 6.82Z" fill="rgb(40,69,210)" fill-opacity="1.000" fill-rule="nonzero" transform="matrix(1 0 0 1 108.2815 23.2991)"/><path d="M8.947 0L0 0L0 13.243L3.672 13.243C3.751 13.243 3.828 13.228 3.901 13.198C3.974 13.169 4.04 13.125 4.096 13.069C4.152 13.014 4.196 12.948 4.226 12.875C4.256 12.802 4.272 12.724 4.272 12.645L4.272 9.524C4.272 9.378 4.33 9.237 4.433 9.133C4.536 9.03 4.676 8.972 4.823 8.972L7.997 8.972C8.075 8.972 8.152 8.956 8.225 8.926C8.297 8.896 8.363 8.852 8.418 8.797C8.473 8.741 8.517 8.675 8.547 8.603C8.577 8.531 8.592 8.453 8.592 8.374L8.592 5.347C8.592 5.253 8.61 5.159 8.646 5.072C8.681 4.984 8.734 4.905 8.8 4.838C8.867 4.771 8.945 4.718 9.032 4.682C9.119 4.646 9.212 4.627 9.306 4.627L12.57 4.627C12.761 4.627 12.944 4.703 13.078 4.838C13.213 4.973 13.289 5.156 13.289 5.347L13.289 8.62C13.289 8.714 13.27 8.808 13.234 8.895C13.198 8.982 13.145 9.061 13.078 9.128C13.011 9.194 12.932 9.247 12.845 9.282C12.758 9.318 12.665 9.336 12.57 9.336L9.547 9.336C9.389 9.336 9.237 9.399 9.125 9.51C9.012 9.622 8.949 9.774 8.947 9.933L8.947 13.128C8.948 13.201 8.934 13.273 8.907 13.34C8.879 13.407 8.839 13.469 8.787 13.52C8.736 13.571 8.675 13.612 8.608 13.64C8.541 13.667 8.469 13.681 8.397 13.68L5.304 13.68C5.224 13.678 5.145 13.692 5.071 13.721C4.997 13.75 4.929 13.794 4.872 13.85C4.815 13.905 4.77 13.972 4.739 14.045C4.708 14.119 4.692 14.198 4.692 14.278L4.692 17.96L8.947 17.96C10.124 17.96 11.289 17.727 12.376 17.275C13.463 16.824 14.45 16.161 15.281 15.326C16.113 14.492 16.772 13.501 17.221 12.41C17.67 11.32 17.901 10.151 17.899 8.972C17.899 7.793 17.667 6.626 17.217 5.537C16.768 4.449 16.108 3.459 15.277 2.626C14.446 1.793 13.459 1.132 12.373 0.682C11.287 0.231 10.123 -0.001 8.947 0Z" fill="rgb(40,69,210)" fill-opacity="1.000" fill-rule="nonzero" transform="matrix(1 0 0 1 14 21)"/></svg>