<svg xmlns="http://www.w3.org/2000/svg" viewBox="0 0 60 60" width="60" height="60"><path d="M0 0L60 0L60 60L0 60L0 0Z" fill="rgb(40,69,210)" fill-opacity="1.000" fill-rule="nonzero" transform="matrix(1 0 0 1 0 0)"/><path d="M13.997 0L0 0L0 20.646L5.744 20.646C5.867 20.647 5.989 20.623 6.103 20.577C6.217 20.531 6.32 20.462 6.407 20.376C6.494 20.289 6.564 20.186 6.611 20.073C6.658 19.959 6.682 19.838 6.682 19.715L6.682 14.848C6.682 14.62 6.773 14.401 6.935 14.239C7.096 14.078 7.316 13.987 7.544 13.987L12.51 13.987C12.632 13.987 12.753 13.963 12.866 13.916C12.979 13.87 13.082 13.801 13.169 13.714C13.255 13.628 13.324 13.525 13.371 13.412C13.417 13.299 13.442 13.178 13.442 13.056L13.442 8.336C13.441 8.189 13.469 8.043 13.525 7.907C13.58 7.771 13.663 7.647 13.766 7.543C13.87 7.439 13.994 7.356 14.13 7.299C14.266 7.243 14.411 7.214 14.558 7.214L19.664 7.214C19.962 7.214 20.248 7.332 20.459 7.542C20.669 7.753 20.788 8.038 20.788 8.336L20.788 13.439C20.788 13.586 20.759 13.731 20.702 13.867C20.646 14.003 20.563 14.126 20.458 14.23C20.354 14.334 20.23 14.416 20.094 14.472C19.958 14.527 19.812 14.556 19.664 14.555L14.935 14.555C14.687 14.555 14.45 14.653 14.274 14.827C14.098 15.002 13.999 15.239 13.997 15.486L13.997 20.467C13.998 20.581 13.976 20.693 13.933 20.798C13.89 20.903 13.826 20.998 13.746 21.078C13.666 21.158 13.571 21.222 13.466 21.265C13.361 21.308 13.249 21.329 13.135 21.328L8.297 21.328C8.173 21.325 8.049 21.347 7.933 21.392C7.817 21.437 7.711 21.505 7.622 21.592C7.533 21.679 7.462 21.783 7.413 21.897C7.365 22.012 7.34 22.135 7.34 22.26L7.34 28L13.997 28C15.837 28 17.66 27.637 19.36 26.933C21.06 26.229 22.605 25.196 23.905 23.895C25.206 22.593 26.237 21.048 26.94 19.348C27.642 17.648 28.003 15.826 28 13.987C28 12.15 27.638 10.331 26.934 8.633C26.23 6.936 25.199 5.393 23.898 4.095C22.598 2.796 21.054 1.765 19.355 1.063C17.656 0.36 15.835 -0.001 13.997 0Z" fill="rgb(255,255,255)" fill-opacity="1.000" fill-rule="nonzero" transform="matrix(1 0 0 1 16 16)"/></svg>