<svg xmlns="http://www.w3.org/2000/svg" viewBox="0 0 60 60" width="60" height="60"><path d="M0 0L60 0L60 60L0 60L0 0Z" fill="rgb(80,61,252)" fill-opacity="1.000" fill-rule="nonzero" transform="matrix(1 0 0 1 0 0)"/><path d="M0.007 5.614C0.007 3.873 0.014 2.136 0 0.398C-0.003 0.089 0.088 -0.006 0.401 0C1.517 0.017 2.632 0 3.747 0.011C6.389 0.031 8.667 1.762 9.293 4.295C9.949 6.967 8.603 9.694 6.1 10.793C5.325 11.133 4.519 11.282 3.683 11.289C2.577 11.299 1.476 11.282 0.371 11.296C0.092 11.299 -0.003 11.218 0 10.932C0.014 9.16 0.007 7.386 0.007 5.614ZM2.186 5.648C2.186 6.675 2.193 7.702 2.183 8.729C2.18 9.031 2.285 9.157 2.601 9.143C2.999 9.123 3.397 9.157 3.795 9.137C4.733 9.082 5.583 8.773 6.239 8.093C7.215 7.08 7.518 5.862 7.055 4.533C6.617 3.275 5.702 2.489 4.363 2.282C3.785 2.193 3.186 2.238 2.598 2.197C2.278 2.176 2.18 2.306 2.183 2.605C2.193 3.618 2.186 4.631 2.186 5.648Z" fill="rgb(255,255,255)" fill-opacity="1.000" fill-rule="nonzero" transform="matrix(1 0 0 1 6.2363 24.5189)"/><path d="M6.181 4.124C6.181 2.713 6.181 1.387 6.181 0C6.864 0.224 7.5 0.422 8.126 0.646C8.204 0.673 8.275 0.843 8.275 0.945C8.282 3.217 8.306 5.485 8.269 7.756C8.241 9.402 7.469 10.66 5.984 11.411C3.631 12.598 0.979 11.248 0.217 9.072C-0.399 7.317 0.339 5.264 1.88 4.291C3.11 3.516 4.443 3.448 5.8 3.978C5.899 4.009 5.997 4.05 6.181 4.124ZM2.118 7.701C2.107 8.858 2.964 9.735 4.11 9.742C5.239 9.748 6.171 8.851 6.184 7.752C6.198 6.658 5.263 5.712 4.161 5.706C3.022 5.695 2.128 6.569 2.118 7.701Z" fill="rgb(255,255,255)" fill-opacity="1.000" fill-rule="nonzero" transform="matrix(1 0 0 1 44.7103 24.0737)"/><path d="M2.332 5.093C2.679 5.64 3.094 5.95 3.628 6.035C4.23 6.133 4.838 6.116 5.335 5.667C5.501 5.518 5.63 5.531 5.794 5.698C6.117 6.031 6.457 6.351 6.81 6.65C7.021 6.827 6.984 6.949 6.804 7.106C5.396 8.336 3.179 8.432 1.686 7.32C0.17 6.194 -0.381 4.341 0.268 2.549C0.755 1.21 2.264 0.088 3.692 0.009C5.627 -0.099 7.069 0.737 7.868 2.488C8.215 3.246 8.184 4.073 8.14 4.885C8.136 4.95 7.922 5.048 7.807 5.048C6.158 5.059 4.508 5.055 2.856 5.055C2.717 5.065 2.574 5.079 2.332 5.093ZM5.739 3.063C5.763 2.978 5.773 2.954 5.773 2.934C5.77 2.9 5.763 2.866 5.746 2.838C5.345 2.315 4.831 2.026 4.155 2.005C3.448 1.985 2.9 2.264 2.468 2.794C2.349 2.94 2.414 3.053 2.608 3.056C2.927 3.063 3.244 3.059 3.563 3.059C4.284 3.063 5.012 3.063 5.739 3.063Z" fill="rgb(255,255,255)" fill-opacity="1.000" fill-rule="nonzero" transform="matrix(1 0 0 1 16.0913 27.7534)"/><path d="M2.313 5.116C2.677 5.653 3.082 5.973 3.612 6.061C4.214 6.163 4.822 6.15 5.319 5.708C5.499 5.545 5.642 5.558 5.802 5.742C6.155 6.153 6.523 6.551 6.927 7.003C6.788 7.116 6.577 7.313 6.339 7.469C3.935 9.02 0.705 7.734 0.11 4.96C-0.22 3.426 0.188 2.059 1.405 1.012C2.619 -0.032 4.04 -0.253 5.523 0.278C7.063 0.825 8.087 2.189 8.158 3.923C8.168 4.195 8.148 4.467 8.165 4.735C8.185 5.028 8.059 5.096 7.784 5.096C6.125 5.086 4.465 5.089 2.803 5.092C2.68 5.096 2.548 5.106 2.313 5.116ZM5.792 3.063C5.543 2.365 4.724 1.974 3.779 2.053C3.187 2.1 2.483 2.61 2.412 3.063C3.53 3.063 4.642 3.063 5.792 3.063Z" fill="rgb(255,255,255)" fill-opacity="1.000" fill-rule="nonzero" transform="matrix(1 0 0 1 27.904 27.7232)"/><path d="M2.064 8.106C1.414 8.106 0.806 8.113 0.194 8.099C0.132 8.099 0.054 7.984 0.017 7.909C-0.014 7.841 0.007 7.752 0.007 7.674C0.007 5.192 0.007 2.707 0.007 0.224C0.007 0.156 0.013 0.092 0.02 0C0.693 0 1.357 0 2.02 0C2.128 0.537 2.128 0.537 2.676 0.367C3.995 -0.051 5.736 0.554 6.532 1.673C7.035 2.384 7.28 3.149 7.266 4.016C7.246 5.246 7.249 6.477 7.269 7.708C7.276 8.041 7.161 8.14 6.841 8.123C6.409 8.099 5.974 8.103 5.546 8.123C5.27 8.133 5.195 8.024 5.199 7.766C5.209 6.511 5.209 5.26 5.199 4.005C5.192 3.142 4.682 2.503 3.91 2.367C2.934 2.193 2.074 2.887 2.067 3.869C2.06 5.134 2.064 6.399 2.064 7.664C2.064 7.786 2.064 7.922 2.064 8.106Z" fill="rgb(255,255,255)" fill-opacity="1.000" fill-rule="nonzero" transform="matrix(1 0 0 1 36.7338 27.6881)"/><path d="M0 0.724C0 0.697 0.017 0.673 0.044 0.666L2.19 0L2.19 11.261L0.065 11.261C0.031 11.261 0.003 11.234 0.003 11.2L0.003 0.724L0 0.724Z" fill="rgb(255,255,255)" fill-opacity="1.000" fill-rule="nonzero" transform="matrix(1 0 0 1 25.0666 24.5429)"/></svg>