<svg xmlns="http://www.w3.org/2000/svg" viewBox="0 0 60 60" width="60" height="60"><path d="M0 0L60 0L60 60L0 60L0 0Z" fill="rgb(236,6,6)" fill-opacity="1.000" fill-rule="nonzero" transform="matrix(1 0 0 1 0 0)"/><path d="M12.919 0.138C11.287 0.476 9.685 2.483 9.685 4.188C9.685 9.095 16.743 10.544 18.767 6.051C20.337 2.568 17.083 -0.721 12.919 0.138ZM2.922 12.007C0.345 12.979 0 14.015 0 20.765L0 26.068L10.904 26.068C23.199 26.068 22.238 25.94 22.238 27.599L22.238 28.706L11.164 28.752L0.089 28.797L0.036 30.002C-0.059 32.158 0.889 33.83 2.678 34.66C3.651 35.112 25.223 35.113 26.184 34.662C28.567 33.541 28.896 32.456 28.833 25.893L28.785 20.701L17.665 20.613L6.546 20.524L6.492 19.498C6.404 17.839 5.419 17.973 17.757 17.973C27.53 17.973 28.668 17.943 28.765 17.694C29.616 15.521 28.072 12.794 25.466 11.866C24.269 11.438 4.093 11.565 2.922 12.007Z" fill="rgb(255,255,255)" fill-opacity="1.000" fill-rule="evenodd" transform="matrix(1 0 0 1 15 12)"/></svg>