<svg xmlns="http://www.w3.org/2000/svg" viewBox="0 0 130 60" width="130" height="60"><path d="M0 0L130 0L130 60L0 60L0 0Z" fill="rgb(255,255,255)" fill-opacity="1.000" fill-rule="nonzero" transform="matrix(1 0 0 1 0 0)"/><path d="M96.902 0.03C96.885 0.048 96.872 3.231 96.872 7.104L96.872 14.147L97.124 14.147L97.375 14.147L97.375 7.074L97.375 0L97.154 0C97.032 0 96.919 0.014 96.902 0.03ZM104.107 1.496C103.691 1.584 103.282 2.106 103.282 2.55C103.282 3.826 105.083 4.203 105.6 3.034C106.001 2.128 105.17 1.272 104.107 1.496ZM39.321 1.879C39.283 1.903 38.971 2.056 38.628 2.219C38.284 2.383 37.991 2.55 37.975 2.59C37.939 2.685 37.94 10.383 37.976 10.519C38.003 10.62 38.016 10.622 38.731 10.622L39.458 10.622L39.459 8.779C39.459 6.533 39.488 6.385 40 5.946C40.515 5.505 41.419 5.524 41.718 5.983C41.907 6.273 41.93 6.567 41.93 8.662L41.93 10.622L42.663 10.622L43.396 10.622L43.394 8.367C43.392 5.971 43.381 5.824 43.167 5.403C42.605 4.295 41.048 4.063 39.641 4.876L39.527 4.942L39.502 3.398C39.488 2.549 39.473 1.849 39.467 1.843C39.45 1.822 39.39 1.837 39.321 1.879ZM54.703 2.075C54.437 2.206 54.128 2.353 54.016 2.403C53.903 2.452 53.796 2.514 53.778 2.54C53.738 2.596 53.731 10.445 53.77 10.55C53.808 10.647 58.205 10.661 58.337 10.564C58.406 10.514 58.414 10.434 58.403 9.958L58.39 9.409L56.833 9.386L55.277 9.363L55.265 5.634C55.259 3.582 55.238 1.889 55.219 1.871C55.2 1.853 54.968 1.945 54.703 2.075ZM78.23 2.016C77.547 2.377 77.683 3.389 78.439 3.57C79.506 3.826 80.046 2.488 79.075 1.997C78.871 1.894 78.442 1.903 78.23 2.016ZM0.013 2.301C0.001 2.332 -0.004 4.212 0.003 6.479L0.015 10.599L1.411 10.614C4.158 10.641 5.023 10.346 5.948 9.065C6.622 8.133 6.811 6.022 6.345 4.647C6.023 3.699 5.162 2.809 4.319 2.552C3.857 2.412 3.644 2.369 3.128 2.311C2.347 2.225 0.045 2.217 0.013 2.301ZM22.93 2.911C21.817 3.437 21.923 3.332 21.923 3.913C21.923 4.491 21.927 4.487 21.387 4.487L20.961 4.487L20.961 5.059L20.961 5.631L21.385 5.632C21.618 5.633 21.833 5.649 21.862 5.667C21.902 5.692 21.92 6.211 21.931 7.624L21.947 9.546L22.067 9.805C22.425 10.571 23.296 10.895 24.497 10.708C25.267 10.588 25.324 10.548 25.224 10.202C25.196 10.106 25.153 9.95 25.129 9.855C25.02 9.43 25.052 9.464 24.791 9.496C23.368 9.675 23.371 9.678 23.35 7.468C23.342 6.601 23.348 5.844 23.362 5.785L23.39 5.677L24.168 5.677L24.947 5.677L24.934 5.094L24.922 4.51L24.143 4.487L23.365 4.464L23.353 3.606C23.346 3.134 23.325 2.748 23.307 2.748C23.288 2.749 23.119 2.822 22.93 2.911ZM3.143 3.592C4.38 3.853 4.982 4.797 4.982 6.479C4.982 8.551 4.132 9.417 2.14 9.376L1.526 9.363L1.514 6.47C1.503 3.744 1.507 3.577 1.583 3.557C1.78 3.506 2.845 3.53 3.143 3.592ZM10.019 4.37C9.075 4.505 8.392 4.98 7.983 5.786C7.494 6.749 7.485 8.246 7.962 9.227C8.538 10.412 9.9 10.942 11.736 10.695C12.709 10.564 12.758 10.528 12.627 10.045C12.572 9.847 12.513 9.622 12.496 9.546C12.458 9.386 12.416 9.383 11.575 9.477C10.083 9.642 9.429 9.278 9.212 8.161L9.183 8.012L11.078 8.012C12.119 8.011 13 7.993 13.035 7.971C13.119 7.918 13.127 6.812 13.046 6.433C12.818 5.37 12.254 4.693 11.392 4.447C11.244 4.405 10.497 4.297 10.435 4.309C10.42 4.312 10.233 4.339 10.019 4.37ZM47.029 4.348C45.071 4.572 44.073 6.429 44.668 8.745C44.874 9.549 45.617 10.306 46.486 10.597C47.421 10.911 49.696 10.712 49.597 10.325C49.57 10.219 49.516 10.022 49.412 9.645L49.339 9.377L49.149 9.4C47.06 9.647 46.491 9.466 46.184 8.458C46.034 7.963 45.833 8.012 47.985 8.012C49.024 8.011 49.902 7.993 49.937 7.971C50.03 7.912 49.982 6.539 49.873 6.135C49.588 5.087 48.878 4.491 47.746 4.352C47.533 4.325 47.348 4.307 47.334 4.31C47.321 4.313 47.184 4.331 47.029 4.348ZM61.412 4.354C59.91 4.536 59.023 5.593 58.931 7.308C58.799 9.769 60.384 11.073 63.04 10.691C64.041 10.547 64.071 10.524 63.928 10.003C63.887 9.852 63.831 9.65 63.805 9.554L63.756 9.378L63.546 9.401C63.429 9.414 63.129 9.448 62.877 9.478C61.636 9.622 61.03 9.406 60.696 8.701C60.62 8.541 60.478 8.106 60.474 8.024C60.473 8.018 61.327 8.012 62.369 8.012C63.412 8.012 64.298 8 64.338 7.985C64.399 7.961 64.411 7.86 64.411 7.332C64.41 5.482 63.711 4.559 62.152 4.352C61.955 4.325 61.78 4.306 61.763 4.31C61.746 4.313 61.588 4.333 61.412 4.354ZM28.241 4.396C27.035 4.52 26.342 5.18 26.344 6.204C26.345 7.092 26.756 7.549 27.875 7.904C28.089 7.972 28.305 8.042 28.355 8.06C28.406 8.079 28.54 8.12 28.653 8.152C29.472 8.387 29.779 8.76 29.503 9.182C29.252 9.566 27.98 9.605 26.952 9.261C26.511 9.114 26.505 9.117 26.35 9.552C26.28 9.75 26.202 9.948 26.178 9.992C25.964 10.382 26.948 10.69 28.401 10.687C30.209 10.684 31.057 10.087 31.056 8.817C31.056 7.722 30.696 7.402 28.768 6.778C27.918 6.503 27.804 6.422 27.809 6.088C27.818 5.493 28.875 5.355 30.391 5.75C30.528 5.785 30.658 5.815 30.678 5.815C30.699 5.815 30.71 5.543 30.703 5.211L30.69 4.608L30.553 4.569C30.014 4.418 28.865 4.331 28.241 4.396ZM67.341 4.378C66.761 4.407 65.822 4.592 65.738 4.694C65.708 4.729 65.695 4.964 65.703 5.294C65.717 5.881 65.747 5.938 65.985 5.822C66.285 5.676 67.057 5.54 67.583 5.54C68.484 5.54 68.897 5.825 68.897 6.448C68.897 6.65 68.83 6.669 68.027 6.699C67.637 6.713 67.235 6.748 67.135 6.777C67.034 6.806 66.869 6.853 66.768 6.88C64.788 7.428 64.698 10.243 66.647 10.673C67.278 10.813 67.94 10.743 68.546 10.472C68.874 10.325 68.941 10.337 68.943 10.542C68.944 10.658 70.29 10.665 70.335 10.55C70.384 10.421 70.365 6.39 70.314 6.018C70.141 4.779 69.243 4.283 67.341 4.378ZM73.705 4.379C72.444 4.471 71.673 5.164 71.674 6.204C71.675 7.128 72.069 7.539 73.347 7.947C74.522 8.323 74.713 8.405 74.832 8.587C75.364 9.399 73.803 9.787 72.18 9.246C71.814 9.124 71.842 9.103 71.628 9.663C71.417 10.217 71.418 10.236 71.656 10.34C72.747 10.815 74.476 10.834 75.435 10.381C76.099 10.067 76.379 9.603 76.381 8.814C76.383 7.873 75.994 7.425 74.826 7.029C74.625 6.96 74.419 6.889 74.369 6.869C74.318 6.85 74.102 6.777 73.888 6.706C73.138 6.46 72.956 6.228 73.197 5.832C73.417 5.472 74.519 5.433 75.695 5.743C75.845 5.782 75.984 5.815 76.004 5.815C76.024 5.815 76.04 5.541 76.04 5.206L76.04 4.597L75.754 4.539C75.596 4.507 75.375 4.463 75.262 4.441C75.029 4.396 74.019 4.356 73.705 4.379ZM84.235 4.38C83.765 4.424 83.351 4.572 82.947 4.84C82.734 4.981 82.679 4.95 82.679 4.69L82.679 4.487L81.969 4.487L81.259 4.487L81.259 7.499C81.259 9.782 81.272 10.525 81.314 10.567C81.384 10.637 82.554 10.643 82.682 10.575C82.767 10.529 82.77 10.459 82.77 8.617L82.77 6.708L82.901 6.431C83.347 5.489 84.713 5.32 85.092 6.16C85.166 6.324 85.175 6.542 85.188 8.483L85.202 10.624L85.92 10.612L86.639 10.599L86.651 8.447C86.658 7.264 86.644 6.157 86.621 5.988C86.472 4.913 85.502 4.259 84.235 4.38ZM90.004 4.397C89.176 4.509 88.495 5.004 88.111 5.77C87.598 6.795 87.586 8.358 88.085 9.38C88.382 9.988 88.965 10.433 89.684 10.598C90.361 10.754 91.424 10.563 91.695 10.237C91.852 10.048 91.894 10.143 91.872 10.634C91.84 11.364 91.603 11.67 90.925 11.856C90.551 11.959 89.158 11.893 88.897 11.76C88.778 11.699 88.685 11.76 88.654 11.919C88.618 12.113 88.544 12.436 88.487 12.652C88.433 12.86 88.434 12.861 88.661 12.914C89.388 13.085 90.834 13.155 91.32 13.045C92.45 12.787 92.988 12.342 93.282 11.423C93.365 11.163 93.369 10.976 93.369 7.829L93.369 4.51L92.673 4.497L91.976 4.485L91.94 4.624L91.904 4.762L91.736 4.672C91.298 4.437 90.565 4.321 90.004 4.397ZM34.262 4.465C32.746 4.79 31.993 5.815 31.997 7.545C32.001 9.25 32.708 10.26 34.134 10.599C34.869 10.773 36.76 10.598 36.897 10.343C36.927 10.286 36.9 10.141 36.802 9.843C36.727 9.612 36.665 9.397 36.665 9.364C36.665 9.261 36.527 9.244 36.259 9.314C34.441 9.783 33.591 9.217 33.581 7.532L33.577 6.799L33.749 6.445C34.125 5.67 35.027 5.406 36.25 5.714C36.461 5.767 36.652 5.8 36.673 5.787C36.737 5.747 36.719 4.688 36.654 4.638C36.377 4.429 34.921 4.324 34.262 4.465ZM14.386 4.551C14.321 4.723 14.399 9.178 14.472 9.391C14.938 10.763 16.754 11.166 18.13 10.203C18.297 10.086 18.306 10.092 18.306 10.319C18.306 10.613 18.341 10.626 19.067 10.612L19.702 10.599L19.714 7.543L19.726 4.487L18.99 4.487L18.254 4.487L18.264 6.398C18.274 8.501 18.277 8.47 17.981 8.908C17.508 9.607 16.331 9.686 15.977 9.043C15.911 8.922 15.899 8.634 15.879 6.708L15.856 4.51L15.134 4.497C14.536 4.487 14.408 4.496 14.386 4.551ZM77.261 4.518C77.204 4.574 77.227 5.381 77.288 5.458C77.328 5.51 77.442 5.537 77.679 5.549C77.908 5.561 78.027 5.587 78.056 5.633C78.081 5.672 78.099 6.732 78.099 8.161L78.1 10.622L78.833 10.622L79.565 10.622L79.565 7.554L79.565 4.487L78.428 4.487C77.803 4.487 77.278 4.501 77.261 4.518ZM101.555 4.583C100.897 4.836 100.809 5.106 100.809 6.862L100.809 8.241L103.593 8.241C106.732 8.241 106.486 8.208 106.486 8.639L106.486 8.927L103.659 8.939L100.832 8.951L100.818 9.264C100.794 9.825 101.036 10.26 101.493 10.476C101.741 10.594 107.248 10.594 107.494 10.477C108.102 10.185 108.186 9.903 108.17 8.196L108.158 6.845L105.319 6.822L102.48 6.799L102.467 6.532C102.444 6.1 102.193 6.135 105.342 6.135C107.837 6.135 108.128 6.128 108.153 6.063C108.37 5.497 107.976 4.788 107.31 4.547C107.005 4.435 101.854 4.468 101.555 4.583ZM10.949 5.557C11.318 5.72 11.515 6.074 11.54 6.616L11.552 6.891L10.388 6.903C9.07 6.917 9.125 6.933 9.218 6.568C9.455 5.639 10.178 5.216 10.949 5.557ZM47.76 5.522C48.179 5.664 48.432 6.081 48.432 6.627L48.432 6.914L47.239 6.914L46.047 6.914L46.076 6.742C46.249 5.744 46.941 5.242 47.76 5.522ZM62.169 5.522C62.57 5.653 62.779 5.958 62.847 6.509C62.87 6.693 62.879 6.86 62.868 6.879C62.82 6.963 60.473 6.918 60.474 6.833C60.48 5.905 61.33 5.247 62.169 5.522ZM91.401 5.749C91.526 5.81 91.681 5.9 91.744 5.949L91.858 6.039L91.858 7.22L91.857 8.402L91.737 8.653C91.206 9.76 89.82 9.73 89.442 8.604C88.818 6.747 89.978 5.055 91.401 5.749ZM68.841 8.419C68.856 9.175 68.852 9.186 68.463 9.365C67.483 9.817 66.653 9.501 66.711 8.699C66.76 8.003 67.224 7.743 68.394 7.756L68.829 7.76L68.841 8.419Z" fill="rgb(236,6,6)" fill-opacity="1.000" fill-rule="evenodd" transform="matrix(1 0 0 1 11 23)"/></svg>