<svg xmlns="http://www.w3.org/2000/svg" viewBox="0 0 130 60" width="130" height="60"><path d="M0 0L130 0L130 60L0 60L0 0Z" fill="rgb(255,255,255)" fill-opacity="1.000" fill-rule="nonzero" transform="matrix(1 0 0 1 0 0)"/><path d="M2.659 7.935L0 7.935L0 0L2.659 0C5.473 0 6.981 1.35 6.981 3.962C6.981 6.552 5.729 7.935 2.659 7.935ZM2.467 1.207L1.595 1.207L1.595 6.727L2.448 6.727C4.644 6.771 5.353 5.718 5.353 3.973C5.353 2.052 4.336 1.207 2.467 1.207Z" fill="rgb(28,98,183)" fill-opacity="1.000" fill-rule="nonzero" transform="matrix(1 0 0 1 9.7396 31.1533)"/><path d="M1.575 2.327C1.619 1.602 1.98 0.933 2.814 0.933C3.623 0.933 4.023 1.525 3.989 2.327L1.575 2.327ZM2.862 0C0.737 0 0 1.482 0 2.875C0 4.533 0.848 5.773 2.659 5.827C4.1 5.839 5.377 5.411 5.464 3.863L3.989 3.863C3.989 4.489 3.474 4.895 2.871 4.895C1.855 4.895 1.532 4.159 1.518 3.259L5.589 3.248C5.709 1.602 4.982 0 2.862 0Z" fill="rgb(28,98,183)" fill-opacity="1.000" fill-rule="nonzero" transform="matrix(1 0 0 1 17.5831 33.4142)"/><path d="M5.377 5.477L3.854 5.477L3.845 4.577C3.589 5.29 2.881 5.652 2.014 5.652C0.983 5.652 0.01 5.038 0 3.567L0 0L1.542 0L1.542 3.358C1.532 4.149 1.845 4.588 2.602 4.599C3.286 4.599 3.845 4.214 3.845 3.15L3.845 0L5.377 0L5.377 5.477Z" fill="rgb(28,98,183)" fill-opacity="1.000" fill-rule="nonzero" transform="matrix(1 0 0 1 24.333 33.6115)"/><path d="M1.195 1.635L1.195 0.768L2.684 0L2.684 1.635L4.105 1.635L4.105 2.7L2.684 2.7L2.684 5.345C2.684 5.882 2.871 6.19 3.43 6.212C3.642 6.212 3.835 6.233 4.114 6.157L4.114 7.101C3.387 7.2 2.549 7.386 1.855 7.024C1.33 6.75 1.195 6.267 1.195 5.499L1.195 2.7L0 2.7L0 1.635L1.195 1.635Z" fill="rgb(28,98,183)" fill-opacity="1.000" fill-rule="nonzero" transform="matrix(1 0 0 1 30.4903 31.9984)"/><path d="M4.931 3.303C5.176 3.787 5.167 4.423 4.863 4.862C4.338 5.652 3.196 5.85 2.314 5.828C1.062 5.751 -0.051 5.433 0.002 3.962L1.524 3.962C1.51 4.599 1.915 4.829 2.493 4.851C3.052 4.851 3.61 4.664 3.61 4.159C3.61 3.753 3.22 3.578 2.719 3.468C2.146 3.347 1.736 3.293 1.095 3.04C0.585 2.798 0.079 2.392 0.079 1.624C0.079 0.988 0.585 0.505 1.245 0.241C1.688 0.055 2.237 0 2.709 0C3.769 0 4.921 0.362 4.853 1.679L3.423 1.679C3.423 1.482 3.379 1.262 3.211 1.13C2.897 0.856 1.934 0.823 1.635 1.273C1.298 2.041 2.339 2.096 3.49 2.403C4.217 2.568 4.709 2.864 4.931 3.303Z" fill="rgb(28,98,183)" fill-opacity="1.000" fill-rule="nonzero" transform="matrix(1 0 0 1 35.451 33.4251)"/><path d="M2.828 0C4.047 0 5.309 0.549 5.309 2.053L3.811 2.041C3.811 1.339 3.421 0.911 2.684 0.944C2.491 0.955 2.289 1.021 2.125 1.109C1.662 1.372 1.518 2.108 1.518 2.843C1.518 3.622 1.71 4.379 2.057 4.653C2.289 4.873 2.703 4.939 3.059 4.873C3.652 4.775 3.83 4.203 3.845 3.71L5.309 3.699C5.329 5.268 4.023 5.861 2.659 5.839C0.838 5.773 0 4.61 0 2.886C0 1.142 1.017 0 2.828 0Z" fill="rgb(28,98,183)" fill-opacity="1.000" fill-rule="nonzero" transform="matrix(1 0 0 1 41.3644 33.4028)"/><path d="M0 0L1.542 0L1.542 3.314C1.946 2.612 2.549 2.305 3.363 2.305C4.394 2.305 5.367 3.062 5.367 4.149L5.367 7.924L3.845 7.924L3.845 4.565C3.845 3.819 3.522 3.326 2.794 3.326C2.115 3.326 1.532 3.764 1.532 4.774L1.532 7.924L0 7.924L0 0Z" fill="rgb(28,98,183)" fill-opacity="1.000" fill-rule="nonzero" transform="matrix(1 0 0 1 47.8541 31.1641)"/><path d="M1.575 2.327C1.619 1.602 1.975 0.933 2.814 0.933C3.618 0.933 4.023 1.525 3.989 2.327L1.575 2.327ZM2.862 0C0.737 0 0 1.482 0 2.875C0 4.533 0.848 5.773 2.659 5.827C4.1 5.839 5.377 5.411 5.464 3.863L3.989 3.863C3.989 4.489 3.474 4.895 2.871 4.895C1.855 4.895 1.532 4.159 1.518 3.259L5.589 3.248C5.709 1.602 4.982 0 2.862 0Z" fill="rgb(28,98,183)" fill-opacity="1.000" fill-rule="nonzero" transform="matrix(1 0 0 1 54.4161 33.4142)"/><path d="M4.837 7.683C4.317 7.847 3.642 7.913 2.92 7.913L0 7.913L0 0L3.108 0C4.495 0 5.945 0.428 6.003 1.954C6.037 2.92 5.367 3.534 4.529 3.808C5.174 3.973 5.7 4.159 6.056 4.752C6.369 5.279 6.393 5.982 6.138 6.563C5.868 7.112 5.454 7.474 4.837 7.683ZM3.108 1.185L1.532 1.185L1.532 3.238L3.132 3.238C3.97 3.238 4.404 2.897 4.404 2.228C4.404 1.602 3.903 1.185 3.108 1.185ZM3.267 4.423L1.532 4.412L1.532 6.739L3.209 6.739C4.326 6.739 4.683 6.201 4.683 5.532C4.683 5.016 4.302 4.412 3.267 4.423Z" fill="rgb(28,98,183)" fill-opacity="1.000" fill-rule="nonzero" transform="matrix(1 0 0 1 64.6734 31.175)"/><path d="M2.423 4.851C1.855 4.807 1.518 4.533 1.518 4.006C1.527 2.854 3.016 2.975 3.787 2.975C3.821 3.886 3.744 4.829 2.423 4.851ZM5.252 1.669C5.252 0.549 4.023 -0.011 2.602 0C1.248 0.022 0.265 0.45 0.246 1.734L1.73 1.734C1.696 1.142 2.11 0.834 2.659 0.824C3.483 0.824 3.854 1.196 3.777 2.119C2.958 2.162 1.865 2.107 1.05 2.481C0.458 2.755 0 3.271 0 4.094C0 5.148 0.747 5.784 1.84 5.817C2.626 5.894 3.517 5.554 3.864 4.84L3.922 5.642L5.252 5.642C5.252 4.313 5.252 3.007 5.252 1.669Z" fill="rgb(28,98,183)" fill-opacity="1.000" fill-rule="nonzero" transform="matrix(1 0 0 1 71.9629 33.4467)"/><path d="M0 0.142L1.542 0.142L1.542 1.021C1.946 0.307 2.684 0 3.512 0C4.437 0 5.386 0.527 5.386 1.844L5.386 5.619L3.845 5.619L3.845 2.26C3.854 1.547 3.498 1.021 2.794 1.021C2.101 1.021 1.532 1.459 1.532 2.469L1.532 5.619L0 5.619L0 0.142Z" fill="rgb(28,98,183)" fill-opacity="1.000" fill-rule="nonzero" transform="matrix(1 0 0 1 78.6984 33.4691)"/><path d="M3.907 7.924L1.561 4.785L3.686 2.447L5.497 2.447L3.295 4.73L5.887 7.924L3.907 7.924ZM0 0L1.518 0L1.518 7.924L0 7.924L0 0Z" fill="rgb(28,98,183)" fill-opacity="1.000" fill-rule="nonzero" transform="matrix(1 0 0 1 85.5736 31.1641)"/><path d="M0 0L19.623 0L19.623 19.351L0 19.351L0 0ZM11.924 4.583L4.259 14.688L7.723 14.688L15.417 4.583L11.924 4.583ZM2.732 16.671L16.892 16.671L16.892 2.681L2.732 2.681L2.732 16.671Z" fill="rgb(28,98,183)" fill-opacity="1.000" fill-rule="nonzero" transform="matrix(1 0 0 1 99.6371 19.7255)"/></svg>