<svg xmlns="http://www.w3.org/2000/svg" viewBox="0 0 60 60" width="60" height="60"><path d="M0 0L60 0L60 60L0 60L0 0Z" fill="rgb(35,41,46)" fill-opacity="1.000" fill-rule="nonzero" transform="matrix(1 0 0 1 0 0)"/><path d="M18.418 2.234C18.418 2.521 18.304 2.795 18.101 2.998C17.898 3.2 17.623 3.314 17.336 3.314C16.739 3.314 16.255 2.83 16.256 2.234C16.256 1.638 16.74 1.155 17.337 1.155C17.934 1.155 18.418 1.638 18.418 2.234ZM2.296 1.146C2.296 1.779 1.782 2.293 1.148 2.293C0.514 2.293 0 1.779 0 1.146C0 0.513 0.514 0 1.148 0C1.782 0 2.296 0.513 2.296 1.146Z" fill="rgb(0,160,230)" fill-opacity="1.000" fill-rule="nonzero" transform="matrix(1 0 0 1 21.8812 22.2215)"/><path d="M10.048 0C9.842 -0.002 9.644 0.079 9.498 0.224C9.353 0.369 9.272 0.567 9.274 0.773L9.274 5.149C7.729 3.588 5.394 3.113 3.361 3.946C1.327 4.779 0 6.756 0 8.95C0 11.144 1.327 13.121 3.361 13.955C5.394 14.788 7.729 14.313 9.274 12.752L9.274 13.584C9.274 14.011 9.62 14.357 10.048 14.357C10.475 14.357 10.822 14.011 10.822 13.584L10.822 0.773C10.824 0.567 10.743 0.369 10.597 0.224C10.452 0.079 10.254 -0.002 10.048 0ZM5.404 12.812C3.267 12.812 1.534 11.082 1.534 8.948C1.534 6.815 3.267 5.085 5.404 5.085C7.541 5.085 9.274 6.815 9.274 8.948C9.274 11.174 7.478 12.812 5.404 12.812ZM15.081 6.686C15.287 6.684 15.485 6.765 15.631 6.91C15.776 7.055 15.857 7.253 15.855 7.459L15.855 13.618C15.855 14.044 15.509 14.39 15.081 14.39C14.654 14.39 14.307 14.044 14.307 13.618L14.307 7.459C14.305 7.253 14.386 7.056 14.532 6.91C14.677 6.765 14.875 6.684 15.081 6.686ZM31.174 7.661L31.17 7.659C31.365 7.656 31.552 7.732 31.689 7.87C31.827 8.007 31.903 8.194 31.901 8.388L31.901 14.192C31.92 14.464 31.785 14.724 31.552 14.866C31.319 15.008 31.025 15.008 30.792 14.866C30.558 14.724 30.424 14.464 30.443 14.192L30.443 8.39C30.441 8.196 30.517 8.009 30.654 7.871C30.792 7.734 30.979 7.658 31.174 7.661ZM39.622 4.741C36.804 4.741 34.52 7.022 34.52 9.836C34.521 12.649 36.805 14.93 39.623 14.929C42.441 14.929 44.726 12.649 44.726 9.835C44.729 8.483 44.192 7.185 43.235 6.229C42.277 5.273 40.977 4.738 39.622 4.741ZM39.622 13.474C37.609 13.474 35.977 11.845 35.977 9.835C35.977 7.825 37.609 6.196 39.622 6.196C41.636 6.196 43.267 7.825 43.267 9.835C43.267 11.845 41.635 13.474 39.622 13.474ZM27.61 5.471C27.612 5.276 27.536 5.089 27.398 4.952C27.261 4.815 27.074 4.739 26.879 4.741L22.606 4.741L22.586 4.741L22.507 4.741C20.3 4.745 18.346 6.164 17.663 8.259C16.98 10.354 17.724 12.649 19.505 13.949C21.287 15.248 23.703 15.257 25.495 13.971C26.351 15.196 26.37 16.818 25.544 18.063C24.718 19.307 23.214 19.922 21.751 19.613C20.288 19.303 19.162 18.133 18.913 16.661C18.83 16.283 18.468 16.035 18.086 16.095C17.703 16.155 17.434 16.502 17.472 16.886C17.883 19.402 20.099 21.224 22.651 21.146C25.31 21.073 27.497 18.922 27.605 16.27C27.659 15.073 27.287 13.895 26.555 12.946C28.123 10.9 27.921 8.008 26.085 6.199L26.88 6.199C27.075 6.201 27.262 6.125 27.4 5.988C27.537 5.85 27.613 5.663 27.611 5.469L27.61 5.471ZM26.15 9.836C26.15 11.846 24.518 13.475 22.505 13.475C20.492 13.475 18.86 11.846 18.86 9.836C18.86 7.826 20.492 6.197 22.505 6.197C24.518 6.198 26.149 7.826 26.15 9.836Z" fill="rgb(255,255,255)" fill-opacity="1.000" fill-rule="nonzero" transform="matrix(1 0 0 1 8 19)"/></svg>