<svg xmlns="http://www.w3.org/2000/svg" viewBox="0 0 130 60" width="130" height="60"><path d="M0 0L130 0L130 60L0 60L0 0Z" fill="rgb(255,255,255)" fill-opacity="1.000" fill-rule="nonzero" transform="matrix(1 0 0 1 0 0)"/><path d="M20.707 28.003C28.361 28.039 35.346 21.761 35.346 14.123C35.346 5.771 28.361 -0.003 20.707 0L14.12 0C6.375 -0.003 0 5.772 0 14.123C0 21.763 6.375 28.039 14.12 28.003L20.707 28.003Z" fill="rgb(0,121,190)" fill-opacity="1.000" fill-rule="nonzero" transform="matrix(1 0 0 1 11.2818 16)"/><path d="M12.814 0C5.737 0.002 0.002 5.739 0 12.819C0.002 19.898 5.737 25.634 12.814 25.636C19.893 25.634 25.629 19.898 25.63 12.819C25.629 5.739 19.893 0.002 12.814 0ZM4.692 12.819C4.698 9.359 6.859 6.409 9.906 5.237L9.906 20.4C6.859 19.228 4.698 16.279 4.692 12.819ZM15.721 20.403L15.721 5.236C18.769 6.406 20.933 9.358 20.939 12.819C20.933 16.282 18.769 19.231 15.721 20.403Z" fill="rgb(255,255,255)" fill-opacity="1.000" fill-rule="nonzero" transform="matrix(1 0 0 1 12.6193 17.1572)"/><path d="M1.353 1.635C1.353 0.31 0.662 0.397 0 0.383L0 0C0.574 0.028 1.162 0.028 1.738 0.028C2.356 0.028 3.195 0 4.285 0C8.098 0 10.174 2.547 10.174 5.155C10.174 6.613 9.321 10.28 4.108 10.28C3.358 10.28 2.665 10.251 1.973 10.251C1.311 10.251 0.662 10.265 0 10.28L0 9.898C0.883 9.809 1.311 9.779 1.353 8.777L1.353 1.635ZM2.796 8.542C2.796 9.676 3.607 9.809 4.328 9.809C7.51 9.809 8.554 7.408 8.554 5.213C8.554 2.46 6.787 0.472 3.946 0.472C3.341 0.472 3.063 0.516 2.797 0.531L2.796 8.542Z" fill="rgb(33,30,31)" fill-opacity="1.000" fill-rule="nonzero" transform="matrix(1 0 0 1 49.7635 20.3899)"/><path d="M0 10.06L0.279 10.06C0.691 10.06 0.986 10.06 0.986 9.573L0.986 5.583C0.986 4.936 0.765 4.846 0.22 4.553L0.22 4.317C0.912 4.109 1.738 3.831 1.795 3.787C1.899 3.728 1.987 3.712 2.061 3.712C2.134 3.712 2.164 3.801 2.164 3.919L2.164 9.573C2.164 10.06 2.488 10.06 2.9 10.06L3.15 10.06L3.15 10.443C2.649 10.443 2.134 10.414 1.605 10.414C1.075 10.414 0.544 10.428 0 10.443L0 10.06L0 10.06ZM1.575 1.445C1.192 1.445 0.854 1.091 0.854 0.708C0.854 0.339 1.207 0 1.575 0C1.957 0 2.297 0.311 2.297 0.708C2.297 1.106 1.972 1.445 1.575 1.445Z" fill="rgb(33,30,31)" fill-opacity="1.000" fill-rule="nonzero" transform="matrix(1 0 0 1 60.4541 20.2271)"/><path d="M0.972 1.959C0.972 1.414 0.809 1.267 0.118 0.987L0.118 0.708C0.751 0.502 1.354 0.31 2.061 0C2.105 0 2.149 0.03 2.149 0.147L2.149 1.105C2.989 0.502 3.711 0 4.699 0C5.949 0 6.391 0.913 6.391 2.062L6.391 5.861C6.391 6.348 6.715 6.348 7.127 6.348L7.392 6.348L7.392 6.731C6.876 6.731 6.361 6.702 5.832 6.702C5.301 6.702 4.77 6.716 4.241 6.731L4.241 6.348L4.505 6.348C4.919 6.348 5.212 6.348 5.212 5.861L5.212 2.048C5.212 1.207 4.699 0.796 3.858 0.796C3.388 0.796 2.636 1.178 2.149 1.503L2.149 5.861C2.149 6.348 2.474 6.348 2.887 6.348L3.151 6.348L3.151 6.731C2.636 6.731 2.12 6.702 1.59 6.702C1.061 6.702 0.53 6.716 0 6.731L0 6.348L0.266 6.348C0.678 6.348 0.972 6.348 0.972 5.861L0.972 1.959L0.972 1.959Z" fill="rgb(33,30,31)" fill-opacity="1.000" fill-rule="nonzero" transform="matrix(1 0 0 1 64.0315 23.9392)"/><path d="M1.179 2.666C1.148 2.799 1.148 3.02 1.179 3.521C1.265 4.919 2.166 6.068 3.342 6.068C4.153 6.068 4.787 5.626 5.331 5.082L5.537 5.288C4.859 6.186 4.02 6.952 2.813 6.952C0.471 6.952 0 4.683 0 3.742C0 0.855 1.944 0 2.974 0C4.167 0 5.449 0.751 5.463 2.312C5.463 2.401 5.463 2.489 5.449 2.578L5.316 2.666L1.179 2.666ZM3.785 2.195C4.153 2.195 4.196 2.003 4.196 1.827C4.196 1.076 3.74 0.472 2.915 0.472C2.018 0.472 1.399 1.133 1.222 2.195L3.785 2.195Z" fill="rgb(33,30,31)" fill-opacity="1.000" fill-rule="nonzero" transform="matrix(1 0 0 1 71.3652 23.9391)"/><path d="M0 6.348L0.398 6.348C0.809 6.348 1.103 6.348 1.103 5.861L1.103 1.724C1.103 1.267 0.559 1.178 0.338 1.061L0.338 0.841C1.413 0.383 2.002 0 2.136 0C2.223 0 2.267 0.044 2.267 0.192L2.267 1.517L2.298 1.517C2.665 0.943 3.285 0 4.182 0C4.55 0 5.021 0.25 5.021 0.781C5.021 1.178 4.742 1.533 4.33 1.533C3.872 1.533 3.872 1.178 3.357 1.178C3.106 1.178 2.282 1.517 2.282 2.401L2.282 5.861C2.282 6.348 2.576 6.348 2.989 6.348L3.813 6.348L3.813 6.731C3.003 6.716 2.387 6.702 1.752 6.702C1.149 6.702 0.53 6.716 0 6.731L0 6.348Z" fill="rgb(33,30,31)" fill-opacity="1.000" fill-rule="nonzero" transform="matrix(1 0 0 1 77.1671 23.9391)"/><path d="M0.266 4.683C0.457 5.655 1.046 6.481 2.121 6.481C2.988 6.481 3.313 5.951 3.313 5.435C3.313 3.697 0.103 4.257 0.103 1.886C0.103 1.061 0.767 0 2.386 0C2.856 0 3.489 0.133 4.063 0.428L4.168 1.929L3.828 1.929C3.681 1.002 3.166 0.472 2.223 0.472C1.634 0.472 1.075 0.811 1.075 1.444C1.075 3.168 4.491 2.636 4.491 4.948C4.491 5.92 3.71 6.952 1.958 6.952C1.369 6.952 0.677 6.746 0.162 6.452L0 4.758L0.266 4.683Z" fill="rgb(33,30,31)" fill-opacity="1.000" fill-rule="nonzero" transform="matrix(1 0 0 1 82.5708 23.9392)"/><path d="M9.202 2.888L8.834 2.888C8.554 1.165 7.332 0.472 5.683 0.472C3.989 0.472 1.53 1.606 1.53 5.14C1.53 8.117 3.652 10.252 5.918 10.252C7.376 10.252 8.584 9.25 8.879 7.704L9.217 7.791L8.879 9.941C8.26 10.325 6.596 10.723 5.623 10.723C2.179 10.723 0 8.499 0 5.185C0 2.166 2.694 0 5.58 0C6.772 0 7.921 0.384 9.055 0.782L9.202 2.888Z" fill="rgb(33,30,31)" fill-opacity="1.000" fill-rule="nonzero" transform="matrix(1 0 0 1 91.1566 20.1681)"/><path d="M0 10.87L0.279 10.87C0.692 10.87 0.987 10.87 0.987 10.383L0.987 2.181C0.987 1.223 0.766 1.193 0.206 1.032L0.206 0.796C0.795 0.605 1.414 0.339 1.723 0.162C1.884 0.075 2.002 0 2.046 0C2.136 0 2.165 0.089 2.165 0.207L2.165 10.383C2.165 10.87 2.489 10.87 2.901 10.87L3.15 10.87L3.15 11.253C2.651 11.253 2.136 11.223 1.605 11.223C1.076 11.223 0.546 11.238 0 11.253L0 10.87L0 10.87Z" fill="rgb(33,30,31)" fill-opacity="1.000" fill-rule="nonzero" transform="matrix(1 0 0 1 100.8891 19.4176)"/><path d="M6.303 5.699C6.303 5.965 6.464 5.979 6.714 5.979C6.891 5.979 7.111 5.965 7.303 5.965L7.303 6.275C6.67 6.333 5.462 6.642 5.182 6.73L5.108 6.686L5.108 5.494C4.226 6.215 3.548 6.73 2.501 6.73C1.706 6.73 0.882 6.215 0.882 4.979L0.882 1.207C0.882 0.825 0.823 0.456 0 0.383L0 0.103C0.531 0.088 1.706 0 1.899 0C2.062 0 2.062 0.103 2.062 0.427L2.062 4.225C2.062 4.668 2.062 5.935 3.342 5.935C3.843 5.935 4.505 5.552 5.123 5.038L5.123 1.074C5.123 0.781 4.417 0.619 3.888 0.471L3.888 0.206C5.211 0.117 6.037 0 6.183 0C6.303 0 6.303 0.103 6.303 0.266L6.303 5.699Z" fill="rgb(33,30,31)" fill-opacity="1.000" fill-rule="nonzero" transform="matrix(1 0 0 1 104.041 24.1607)"/><path d="M1.959 5.582C2.548 5.082 3.343 4.522 4.153 4.522C5.862 4.522 6.891 6.011 6.891 7.615C6.891 9.544 5.478 11.473 3.371 11.473C2.282 11.473 1.709 11.119 1.325 10.958L0.884 11.296L0.576 11.135C0.706 10.266 0.781 9.411 0.781 8.514L0.781 2.181C0.781 1.223 0.559 1.193 0 1.032L0 0.796C0.591 0.605 1.207 0.339 1.517 0.162C1.679 0.074 1.796 0 1.842 0C1.93 0 1.959 0.089 1.959 0.207L1.959 5.582L1.959 5.582L1.959 5.582ZM1.959 9.588C1.959 10.148 2.489 11.091 3.475 11.091C5.051 11.091 5.713 9.544 5.713 8.233C5.713 6.642 4.507 5.317 3.358 5.317C2.812 5.317 2.356 5.671 1.959 6.011L1.959 9.588Z" fill="rgb(33,30,31)" fill-opacity="1.000" fill-rule="nonzero" transform="matrix(1 0 0 1 111.3149 19.4176)"/><path d="M0 5.352L0.113 5.352C0.401 5.352 0.705 5.313 0.705 4.896L0.705 0.698C0.705 0.28 0.401 0.241 0.113 0.241L0 0.241L0 0C0.313 0 0.793 0.032 1.187 0.032C1.587 0.032 2.067 0 2.444 0L2.444 0.241L2.331 0.241C2.044 0.241 1.739 0.28 1.739 0.698L1.739 4.896C1.739 5.313 2.044 5.352 2.331 5.352L2.444 5.352L2.444 5.594C2.06 5.594 1.578 5.562 1.178 5.562C0.786 5.562 0.313 5.594 0 5.594L0 5.352Z" fill="rgb(33,30,31)" fill-opacity="1.000" fill-rule="nonzero" transform="matrix(1 0 0 1 49.7469 33.8807)"/><path d="M2.479 5.663C2.091 5.663 1.611 5.631 1.212 5.631C0.821 5.631 0.349 5.663 0.034 5.663L0 5.663L0 5.629L0 5.388L0 5.353L0.034 5.353L0.147 5.353C0.437 5.347 0.702 5.323 0.705 4.932L0.705 0.733C0.702 0.342 0.437 0.316 0.147 0.31L0 0.31L0 0.276L0 0L0.034 0C0.349 0 0.83 0.032 1.221 0.032C1.62 0.032 2.1 0 2.479 0L2.514 0L2.514 0.037L2.514 0.31L2.479 0.31L2.366 0.31C2.076 0.316 1.81 0.342 1.808 0.733L1.808 4.932C1.81 5.323 2.076 5.347 2.366 5.353L2.514 5.353L2.514 5.388L2.514 5.663L2.479 5.663ZM2.444 5.595L2.444 5.424L2.366 5.424C2.08 5.424 1.74 5.374 1.738 4.932L1.738 0.733C1.74 0.291 2.08 0.241 2.366 0.241L2.444 0.241L2.444 0.071C2.074 0.071 1.61 0.102 1.221 0.102C0.841 0.102 0.38 0.073 0.07 0.071L0.07 0.241L0.147 0.241C0.432 0.241 0.774 0.291 0.774 0.733L0.774 4.932C0.774 5.374 0.432 5.424 0.147 5.424L0.07 5.424L0.07 5.595C0.38 5.592 0.833 5.563 1.212 5.563C1.602 5.563 2.066 5.593 2.444 5.595Z" fill="rgb(33,30,31)" fill-opacity="1.000" fill-rule="nonzero" transform="matrix(1 0 0 1 49.7128 33.845)"/><path d="M5.201 4.014L5.217 3.999L5.217 0.994C5.217 0.336 4.759 0.241 4.519 0.241L4.343 0.241L4.343 0C4.72 0 5.088 0.032 5.464 0.032C5.793 0.032 6.123 0 6.451 0L6.451 0.241L6.331 0.241C5.993 0.241 5.617 0.304 5.617 1.258L5.617 4.905C5.617 5.185 5.625 5.465 5.664 5.713L5.359 5.713L1.234 1.114L1.234 4.416C1.234 5.113 1.369 5.352 1.987 5.352L2.122 5.352L2.122 5.594C1.779 5.594 1.435 5.562 1.089 5.562C0.73 5.562 0.361 5.594 0 5.594L0 5.352L0.112 5.352C0.665 5.352 0.833 4.977 0.833 4.336L0.833 0.961C0.833 0.512 0.463 0.241 0.105 0.241L0 0.241L0 0C0.304 0 0.617 0.032 0.921 0.032C1.161 0.032 1.394 0 1.634 0L5.201 4.014Z" fill="rgb(33,30,31)" fill-opacity="1.000" fill-rule="nonzero" transform="matrix(1 0 0 1 52.4949 33.8805)"/><path d="M5.7 5.783L5.37 5.771L1.304 1.238L1.304 4.45C1.313 5.147 1.419 5.344 2.023 5.352L2.194 5.352L2.194 5.387L2.194 5.662L2.159 5.662C1.812 5.662 1.467 5.63 1.125 5.63C0.766 5.63 0.398 5.662 0.035 5.662L0 5.662L0 5.628L0 5.352L0.035 5.352L0.148 5.352C0.677 5.349 0.828 5.009 0.835 4.37L0.835 0.996C0.833 0.569 0.483 0.31 0.14 0.309L0 0.309L0 0.273L0 0L0.035 0C0.341 0 0.655 0.031 0.956 0.031C1.194 0.031 1.426 0 1.696 0.012L5.218 3.976L5.218 1.029C5.213 0.391 4.788 0.315 4.555 0.309L4.343 0.309L4.343 0.273L4.343 0L4.378 0C4.757 0 5.126 0.031 5.5 0.031C5.826 0.031 6.154 0 6.486 0L6.521 0L6.521 0.034L6.521 0.309L6.486 0.309L6.366 0.309C6.036 0.318 5.696 0.347 5.687 1.292L5.687 4.939C5.687 5.219 5.695 5.499 5.734 5.742L5.742 5.783L5.7 5.783L5.7 5.783ZM5.396 5.712L5.661 5.712C5.625 5.472 5.618 5.205 5.618 4.939L5.618 1.292C5.618 0.331 6.021 0.239 6.366 0.239L6.451 0.239L6.451 0.069C6.135 0.072 5.819 0.101 5.5 0.101C5.134 0.101 4.777 0.072 4.414 0.069L4.413 0.239L4.555 0.239C4.801 0.239 5.287 0.349 5.287 1.029L5.276 4.057L5.26 4.074L5.233 4.099L1.67 0.069C1.432 0.069 1.2 0.101 0.956 0.101C0.662 0.101 0.361 0.072 0.071 0.069L0.069 0.239L0.14 0.239C0.516 0.239 0.903 0.527 0.903 0.996L0.903 4.37C0.903 5.011 0.724 5.421 0.148 5.423L0.071 5.421L0.071 5.594C0.418 5.59 0.775 5.562 1.125 5.562C1.46 5.562 1.793 5.59 2.124 5.594L2.124 5.423L2.023 5.423C1.392 5.421 1.235 5.147 1.235 4.45L1.235 1.058L5.396 5.712ZM5.218 4.033L5.218 4.03L5.211 4.024L5.218 4.033Z" fill="rgb(33,30,31)" fill-opacity="1.000" fill-rule="nonzero" transform="matrix(1 0 0 1 52.4591 33.8462)"/><path d="M0.985 0.649C0.383 0.649 0.361 0.793 0.241 1.378L0 1.378C0.032 1.154 0.072 0.93 0.096 0.697C0.128 0.472 0.144 0.249 0.144 0.017L0.337 0.017C0.401 0.257 0.601 0.249 0.818 0.249L4.952 0.249C5.168 0.249 5.368 0.241 5.385 0L5.576 0.032C5.545 0.249 5.513 0.465 5.488 0.682C5.474 0.898 5.474 1.114 5.474 1.33L5.233 1.42C5.216 1.123 5.176 0.649 4.64 0.649L3.326 0.649L3.326 4.913C3.326 5.53 3.606 5.601 3.99 5.601L4.143 5.601L4.143 5.843C3.83 5.843 3.269 5.811 2.837 5.811C2.356 5.811 1.795 5.843 1.482 5.843L1.482 5.601L1.635 5.601C2.076 5.601 2.3 5.562 2.3 4.929L2.3 0.649L0.985 0.649Z" fill="rgb(33,30,31)" fill-opacity="1.000" fill-rule="nonzero" transform="matrix(1 0 0 1 59.1593 33.6319)"/><path d="M4.184 5.917C3.868 5.917 3.308 5.885 2.877 5.885C2.397 5.885 1.836 5.917 1.522 5.917L1.488 5.917L1.488 5.883L1.488 5.607L1.522 5.607L1.675 5.607C2.116 5.597 2.294 5.591 2.304 4.97L2.304 0.725L1.025 0.725L1.025 0.69L1.025 0.654L2.374 0.654L2.374 4.97C2.374 5.613 2.115 5.678 1.675 5.678L1.557 5.678L1.557 5.847C1.873 5.846 2.412 5.817 2.877 5.817C3.295 5.817 3.83 5.846 4.147 5.847L4.147 5.678L4.03 5.678C3.643 5.678 3.331 5.583 3.331 4.953L3.331 0.654L4.68 0.654C5.218 0.656 5.288 1.113 5.306 1.411L5.478 1.347C5.478 1.138 5.479 0.928 5.494 0.717C5.517 0.511 5.547 0.307 5.577 0.102L5.454 0.082C5.417 0.315 5.192 0.327 4.99 0.325L0.858 0.325L0.817 0.325C0.628 0.325 0.422 0.316 0.351 0.092L0.218 0.092C0.217 0.313 0.202 0.528 0.171 0.742C0.148 0.962 0.111 1.174 0.081 1.385L0.253 1.385C0.358 0.827 0.427 0.646 1.025 0.654L1.025 0.69L1.025 0.725C0.433 0.735 0.445 0.835 0.314 1.427L0.308 1.455L0.281 1.455L0 1.455L0.004 1.413C0.037 1.189 0.077 0.965 0.101 0.732C0.134 0.51 0.15 0.287 0.15 0.057L0.15 0.022L0.184 0.022L0.404 0.022L0.409 0.047C0.464 0.25 0.613 0.251 0.817 0.254L0.858 0.254L4.99 0.254C5.214 0.251 5.376 0.247 5.39 0.038L5.393 0L5.429 0.008L5.656 0.043L5.65 0.078C5.618 0.293 5.587 0.51 5.563 0.725C5.547 0.938 5.547 1.155 5.547 1.371L5.547 1.396L5.525 1.405L5.241 1.508L5.239 1.461C5.218 1.16 5.186 0.725 4.68 0.725L3.401 0.725L3.401 4.953C3.408 5.558 3.648 5.599 4.03 5.607L4.218 5.607L4.218 5.642L4.218 5.917L4.184 5.917Z" fill="rgb(33,30,31)" fill-opacity="1.000" fill-rule="nonzero" transform="matrix(1 0 0 1 59.12 33.5911)"/><path d="M0 5.352L0.113 5.352C0.401 5.352 0.706 5.313 0.706 4.896L0.706 0.698C0.706 0.28 0.401 0.241 0.113 0.241L0 0.241L0 0C0.488 0 1.322 0.032 1.994 0.032C2.669 0.032 3.5 0 4.045 0C4.032 0.344 4.039 0.874 4.063 1.226L3.821 1.29C3.783 0.77 3.686 0.353 2.845 0.353L1.732 0.353L1.732 2.452L2.684 2.452C3.165 2.452 3.27 2.18 3.317 1.746L3.557 1.746C3.542 2.06 3.533 2.373 3.533 2.685C3.533 2.99 3.541 3.294 3.557 3.598L3.317 3.646C3.27 3.165 3.245 2.853 2.692 2.853L1.732 2.853L1.732 4.719C1.732 5.241 2.195 5.241 2.708 5.241C3.67 5.241 4.094 5.176 4.334 4.264L4.559 4.319C4.454 4.744 4.358 5.168 4.287 5.594C3.774 5.594 2.852 5.562 2.132 5.562C1.41 5.562 0.457 5.594 0 5.594L0 5.352Z" fill="rgb(33,30,31)" fill-opacity="1.000" fill-rule="nonzero" transform="matrix(1 0 0 1 64.9925 33.8807)"/><path d="M4.32 5.662C3.806 5.662 2.885 5.629 2.165 5.629C1.443 5.629 0.491 5.662 0.034 5.662L0 5.662L0 5.628L0 5.387L0 5.352L0.034 5.352L0.146 5.352C0.437 5.348 0.7 5.322 0.704 4.93L0.704 0.732C0.7 0.341 0.437 0.315 0.146 0.309L0 0.309L0 0.275L0 0L0.034 0C0.523 0 1.356 0.031 2.028 0.031C2.702 0.031 3.533 0 4.079 0L4.115 0L4.113 0.036C4.108 0.156 4.105 0.298 4.105 0.449C4.105 0.727 4.113 1.029 4.129 1.258L4.13 1.287L4.104 1.295L3.822 1.368L3.82 1.327C3.773 0.807 3.704 0.43 2.879 0.422L1.799 0.422L1.798 2.45L2.718 2.45C3.179 2.446 3.262 2.21 3.316 1.778L3.319 1.746L3.35 1.746L3.627 1.746L3.626 1.782C3.611 2.095 3.6 2.407 3.6 2.719C3.6 3.023 3.611 3.326 3.626 3.631L3.627 3.66L3.598 3.666L3.319 3.722L3.316 3.684C3.261 3.195 3.258 2.928 2.725 2.921L1.799 2.921L1.799 4.754C1.8 5.241 2.22 5.238 2.742 5.241C3.706 5.235 4.093 5.188 4.335 4.288L4.343 4.256L4.377 4.262L4.633 4.328L4.626 4.362C4.522 4.786 4.426 5.209 4.354 5.634L4.348 5.662L4.32 5.662ZM4.291 5.592C4.36 5.188 4.452 4.783 4.55 4.379L4.392 4.339C4.152 5.236 3.687 5.316 2.742 5.31C2.237 5.31 1.732 5.31 1.73 4.754L1.73 2.852L2.725 2.852C3.285 2.846 3.342 3.184 3.381 3.64L3.555 3.604C3.539 3.309 3.532 3.013 3.532 2.719C3.532 2.417 3.539 2.117 3.555 1.816L3.381 1.816C3.337 2.233 3.206 2.526 2.718 2.521L1.73 2.521L1.73 0.352L2.879 0.352C3.712 0.346 3.85 0.776 3.886 1.28L4.059 1.233C4.045 1.007 4.035 0.717 4.035 0.449C4.035 0.312 4.039 0.183 4.043 0.069C3.499 0.072 2.687 0.101 2.028 0.101C1.37 0.101 0.559 0.072 0.068 0.069L0.068 0.239L0.146 0.239C0.432 0.239 0.773 0.289 0.774 0.732L0.774 4.93C0.773 5.372 0.432 5.421 0.146 5.423L0.068 5.423L0.068 5.592C0.536 5.592 1.461 5.562 2.165 5.562C2.872 5.562 3.774 5.592 4.291 5.592Z" fill="rgb(33,30,31)" fill-opacity="1.000" fill-rule="nonzero" transform="matrix(1 0 0 1 64.9583 33.8462)"/><path d="M0.713 0.85C0.713 0.265 0.393 0.241 0.144 0.241L0 0.241L0 0C0.257 0 0.753 0.032 1.242 0.032C1.722 0.032 2.107 0 2.531 0C3.54 0 4.439 0.273 4.439 1.412C4.439 2.131 3.958 2.572 3.325 2.822L4.695 4.872C4.919 5.211 5.079 5.306 5.472 5.353L5.472 5.594C5.208 5.594 4.951 5.563 4.687 5.563C4.439 5.563 4.181 5.594 3.934 5.594C3.317 4.785 2.787 3.919 2.267 2.997L1.74 2.997L1.74 4.713C1.74 5.331 2.027 5.353 2.395 5.353L2.54 5.353L2.54 5.594C2.082 5.594 1.619 5.563 1.162 5.563C0.777 5.563 0.4 5.594 0 5.594L0 5.353L0.144 5.353C0.442 5.353 0.713 5.218 0.713 4.921L0.713 0.85ZM1.74 2.709L2.131 2.709C2.932 2.709 3.364 2.404 3.364 1.458C3.364 0.746 2.908 0.289 2.194 0.289C1.953 0.289 1.851 0.314 1.739 0.321L1.739 2.709L1.74 2.709Z" fill="rgb(33,30,31)" fill-opacity="1.000" fill-rule="nonzero" transform="matrix(1 0 0 1 69.9189 33.8801)"/><path d="M5.507 5.663C5.239 5.663 4.984 5.631 4.721 5.631C4.476 5.631 4.221 5.663 3.941 5.65C3.327 4.844 2.8 3.983 2.282 3.067L1.809 3.067L1.809 4.747C1.817 5.349 2.059 5.344 2.43 5.353L2.609 5.353L2.609 5.388L2.609 5.663L2.574 5.663C2.116 5.663 1.651 5.631 1.196 5.631C0.813 5.631 0.437 5.663 0.035 5.663L0 5.663L0 5.629L0 5.353L0.035 5.353L0.179 5.353C0.468 5.352 0.711 5.226 0.712 4.956L0.712 0.885C0.706 0.316 0.428 0.319 0.179 0.311L0 0.311L0 0.276L0 0L0.035 0C0.295 0 0.789 0.032 1.277 0.032C1.755 0.032 2.14 0 2.567 0C3.577 0.002 4.507 0.281 4.509 1.445C4.509 2.169 4.031 2.62 3.413 2.873L4.759 4.888C4.983 5.22 5.122 5.303 5.512 5.353L5.542 5.358L5.542 5.388L5.542 5.663L5.507 5.663L5.507 5.663ZM1.774 2.997L2.321 2.997L2.331 3.015C2.853 3.936 3.379 4.8 3.969 5.595C4.214 5.595 4.471 5.562 4.721 5.562C4.977 5.562 5.223 5.59 5.473 5.594L5.473 5.418C5.097 5.371 4.921 5.259 4.702 4.926L3.308 2.84L3.347 2.824C3.974 2.577 4.438 2.149 4.438 1.444C4.438 0.333 3.574 0.075 2.567 0.07C2.144 0.07 1.76 0.102 1.277 0.102C0.806 0.102 0.331 0.073 0.069 0.07L0.069 0.24L0.179 0.24C0.428 0.241 0.782 0.282 0.782 0.884L0.782 4.956C0.782 5.278 0.481 5.424 0.179 5.425L0.069 5.425L0.069 5.594C0.455 5.593 0.82 5.562 1.196 5.562C1.644 5.562 2.096 5.593 2.539 5.594L2.539 5.425L2.43 5.425C2.064 5.424 1.739 5.379 1.739 4.746L1.739 2.997L1.774 2.997L1.774 2.997ZM1.774 2.777L1.739 2.777L1.739 0.324L1.769 0.321C1.879 0.313 1.987 0.29 2.229 0.29C2.959 0.29 3.434 0.764 3.435 1.495C3.433 2.452 2.974 2.777 2.166 2.777L1.774 2.777L1.774 2.777ZM2.166 2.708C2.959 2.702 3.358 2.426 3.367 1.495C3.362 0.795 2.927 0.36 2.229 0.358C2.012 0.358 1.911 0.378 1.809 0.387L1.809 2.708L2.166 2.708Z" fill="rgb(33,30,31)" fill-opacity="1.000" fill-rule="nonzero" transform="matrix(1 0 0 1 69.8836 33.8452)"/><path d="M5.2 4.014L5.214 3.999L5.214 0.994C5.214 0.336 4.758 0.241 4.518 0.241L4.343 0.241L4.343 0C4.719 0 5.087 0.032 5.464 0.032C5.793 0.032 6.12 0 6.451 0L6.451 0.241L6.33 0.241C5.993 0.241 5.617 0.304 5.617 1.258L5.617 4.905C5.617 5.185 5.624 5.465 5.664 5.713L5.36 5.713L1.234 1.114L1.234 4.416C1.234 5.113 1.37 5.352 1.987 5.352L2.123 5.352L2.123 5.594C1.779 5.594 1.434 5.562 1.09 5.562C0.728 5.562 0.36 5.594 0 5.594L0 5.352L0.111 5.352C0.665 5.352 0.833 4.977 0.833 4.336L0.833 0.961C0.833 0.512 0.464 0.241 0.105 0.241L0 0.241L0 0C0.303 0 0.617 0.032 0.921 0.032C1.16 0.032 1.393 0 1.634 0L5.2 4.014Z" fill="rgb(33,30,31)" fill-opacity="1.000" fill-rule="nonzero" transform="matrix(1 0 0 1 75.6313 33.8805)"/><path d="M5.701 5.783L5.371 5.772L1.304 1.24L1.304 4.45C1.314 5.148 1.419 5.345 2.024 5.353L2.193 5.353L2.193 5.388L2.193 5.663L2.158 5.663C1.811 5.663 1.468 5.63 1.125 5.63C0.767 5.63 0.397 5.663 0.036 5.663L0 5.663L0 5.629L0 5.353L0.036 5.353L0.147 5.353C0.676 5.351 0.828 5.01 0.833 4.369L0.833 0.996C0.832 0.569 0.483 0.311 0.141 0.31L0 0.31L0 0.276L0 0L0.036 0C0.342 0 0.655 0.032 0.957 0.032C1.193 0.032 1.425 0 1.694 0.011L5.216 3.977L5.216 1.029C5.214 0.392 4.787 0.313 4.554 0.31L4.343 0.31L4.343 0.276L4.343 0L4.378 0C4.757 0 5.126 0.032 5.5 0.032C5.827 0.032 6.155 0 6.485 0L6.52 0L6.52 0.036L6.52 0.31L6.485 0.31L6.366 0.31C6.036 0.319 5.695 0.348 5.687 1.293L5.687 4.94C5.687 5.22 5.694 5.498 5.734 5.744L5.739 5.783L5.701 5.783ZM5.396 5.713L5.659 5.713C5.624 5.473 5.617 5.206 5.617 4.94L5.617 1.293C5.617 0.332 6.023 0.243 6.366 0.24L6.45 0.24L6.45 0.071C6.136 0.073 5.818 0.102 5.5 0.102C5.132 0.102 4.775 0.073 4.412 0.071L4.412 0.24L4.554 0.24C4.801 0.243 5.287 0.351 5.287 1.029L5.276 4.058L5.26 4.075L5.236 4.1L1.67 0.071C1.432 0.071 1.2 0.102 0.957 0.102C0.661 0.102 0.361 0.073 0.07 0.071L0.07 0.24L0.141 0.24C0.517 0.243 0.903 0.527 0.903 0.996L0.903 4.369C0.903 5.013 0.722 5.422 0.147 5.424L0.07 5.424L0.07 5.593C0.416 5.592 0.773 5.563 1.125 5.563C1.461 5.563 1.794 5.592 2.125 5.593L2.125 5.424L2.024 5.424C1.392 5.424 1.235 5.148 1.234 4.45L1.234 1.06L5.396 5.713ZM5.216 4.034L5.216 4.031L5.21 4.025L5.216 4.034Z" fill="rgb(33,30,31)" fill-opacity="1.000" fill-rule="nonzero" transform="matrix(1 0 0 1 75.5949 33.8452)"/><path d="M1.323 4.649C1.242 4.92 1.145 5.131 1.145 5.273C1.145 5.514 1.482 5.553 1.746 5.553L1.835 5.553L1.835 5.795C1.514 5.778 1.187 5.763 0.864 5.763C0.576 5.763 0.289 5.778 0 5.795L0 5.553L0.048 5.553C0.36 5.553 0.626 5.369 0.744 5.032L2.027 1.355C2.131 1.058 2.276 0.658 2.325 0.361C2.58 0.273 2.901 0.113 3.053 0.017C3.078 0.008 3.091 0 3.116 0C3.14 0 3.156 0 3.174 0.025C3.197 0.088 3.22 0.161 3.246 0.225L4.72 4.417C4.816 4.697 4.911 4.993 5.015 5.234C5.112 5.458 5.281 5.553 5.546 5.553L5.593 5.553L5.593 5.795C5.232 5.778 4.871 5.763 4.488 5.763C4.095 5.763 3.693 5.778 3.285 5.795L3.285 5.553L3.374 5.553C3.557 5.553 3.87 5.522 3.87 5.322C3.87 5.218 3.798 5.002 3.709 4.744L3.397 3.815L1.579 3.815L1.323 4.649ZM2.492 1.098L2.476 1.098L1.731 3.366L3.228 3.366L2.492 1.098Z" fill="rgb(33,30,31)" fill-opacity="1.000" fill-rule="nonzero" transform="matrix(1 0 0 1 82.0473 33.6794)"/><path d="M5.625 5.864C5.265 5.848 4.904 5.831 4.523 5.831C4.13 5.831 3.731 5.848 3.321 5.864L3.285 5.866L3.285 5.83L3.285 5.553L3.32 5.553L3.408 5.553C3.594 5.553 3.869 5.511 3.869 5.357C3.871 5.265 3.799 5.045 3.711 4.791L3.406 3.884L1.638 3.884L1.39 4.694C1.308 4.967 1.212 5.179 1.213 5.309C1.216 5.505 1.515 5.553 1.781 5.553L1.904 5.553L1.904 5.589L1.904 5.866L1.868 5.864C1.547 5.848 1.22 5.831 0.901 5.831C0.613 5.831 0.324 5.848 0.037 5.864L0 5.866L0 5.83L0 5.553L0.035 5.553L0.083 5.553C0.381 5.552 0.63 5.382 0.746 5.056L2.029 1.379C2.134 1.081 2.278 0.682 2.347 0.362C2.599 0.277 2.92 0.116 3.075 0.018C3.097 0.011 3.119 0 3.152 0C3.171 -0.001 3.215 0.004 3.24 0.047C3.263 0.113 3.288 0.184 3.313 0.249L4.788 4.44C4.883 4.721 4.978 5.017 5.083 5.254C5.176 5.468 5.323 5.552 5.581 5.553L5.662 5.553L5.662 5.589L5.662 5.866L5.625 5.864ZM3.355 5.792C3.751 5.778 4.14 5.763 4.523 5.763C4.895 5.763 5.243 5.778 5.591 5.792L5.591 5.625L5.58 5.625C5.306 5.627 5.117 5.519 5.018 5.283C4.914 5.039 4.816 4.742 4.722 4.462L3.247 0.271C3.222 0.207 3.199 0.134 3.178 0.078C3.171 0.07 3.173 0.07 3.166 0.07L3.152 0.07C3.135 0.07 3.126 0.075 3.105 0.081C2.951 0.181 2.629 0.338 2.392 0.401C2.342 0.704 2.198 1.105 2.094 1.401L0.812 5.079C0.689 5.427 0.409 5.626 0.083 5.625L0.07 5.625L0.07 5.792C0.344 5.778 0.622 5.763 0.901 5.763C1.21 5.763 1.527 5.778 1.832 5.792L1.832 5.625L1.781 5.625C1.52 5.622 1.156 5.592 1.146 5.309C1.146 5.149 1.245 4.944 1.323 4.674L1.358 4.684L1.323 4.673L1.587 3.816L3.455 3.816L3.776 4.768C3.866 5.025 3.939 5.239 3.939 5.357C3.928 5.603 3.59 5.62 3.408 5.625L3.355 5.625L3.355 5.792ZM1.717 3.436L2.484 1.098L2.511 1.098L2.527 1.098L2.551 1.098L3.312 3.436L1.717 3.436ZM1.813 3.366L3.215 3.366L2.518 1.219L1.813 3.366Z" fill="rgb(33,30,31)" fill-opacity="1.000" fill-rule="nonzero" transform="matrix(1 0 0 1 82.012 33.6445)"/><path d="M0.986 0.649C0.385 0.649 0.361 0.793 0.241 1.378L0 1.378C0.032 1.154 0.072 0.93 0.097 0.697C0.129 0.472 0.144 0.249 0.144 0.017L0.337 0.017C0.401 0.257 0.602 0.249 0.817 0.249L4.953 0.249C5.168 0.249 5.368 0.241 5.385 0L5.576 0.032C5.546 0.249 5.514 0.465 5.489 0.682C5.472 0.898 5.472 1.114 5.472 1.33L5.232 1.42C5.217 1.123 5.177 0.649 4.64 0.649L3.326 0.649L3.326 4.913C3.326 5.53 3.607 5.601 3.991 5.601L4.143 5.601L4.143 5.843C3.83 5.843 3.27 5.811 2.837 5.811C2.357 5.811 1.795 5.843 1.483 5.843L1.483 5.601L1.635 5.601C2.076 5.601 2.301 5.562 2.301 4.929L2.301 0.649L0.986 0.649Z" fill="rgb(33,30,31)" fill-opacity="1.000" fill-rule="nonzero" transform="matrix(1 0 0 1 87.0061 33.6319)"/><path d="M4.183 5.917C3.869 5.917 3.308 5.885 2.878 5.885C2.399 5.885 1.838 5.917 1.524 5.917L1.488 5.917L1.488 5.883L1.488 5.607L1.524 5.607L1.675 5.607C2.117 5.597 2.294 5.591 2.305 4.97L2.304 0.725L1.027 0.725L1.027 0.69L1.027 0.654L2.375 0.654L2.375 4.97C2.375 5.613 2.115 5.676 1.675 5.678L1.558 5.678L1.558 5.849C1.875 5.846 2.413 5.817 2.878 5.817C3.296 5.817 3.832 5.846 4.148 5.849L4.148 5.678L4.03 5.678C3.645 5.676 3.333 5.583 3.332 4.953L3.332 0.654L4.681 0.654C5.218 0.656 5.289 1.113 5.304 1.411L5.479 1.347C5.479 1.138 5.48 0.928 5.495 0.718C5.517 0.512 5.547 0.307 5.577 0.102L5.456 0.082C5.419 0.315 5.193 0.328 4.993 0.324L0.858 0.324L0.817 0.324C0.629 0.327 0.424 0.316 0.351 0.091L0.22 0.091C0.218 0.313 0.203 0.528 0.171 0.742C0.15 0.962 0.111 1.175 0.081 1.385L0.252 1.385C0.358 0.827 0.428 0.646 1.027 0.654L1.027 0.69L1.027 0.725C0.433 0.735 0.446 0.835 0.315 1.427L0.309 1.455L0.281 1.455L0 1.455L0.005 1.415C0.038 1.188 0.078 0.965 0.102 0.733C0.134 0.509 0.15 0.287 0.15 0.057L0.15 0.022L0.184 0.022L0.403 0.022L0.41 0.047C0.466 0.249 0.612 0.251 0.817 0.254L0.858 0.255L4.993 0.255C5.214 0.251 5.376 0.247 5.39 0.038L5.392 0L5.43 0.008L5.657 0.043L5.651 0.078C5.618 0.293 5.588 0.51 5.563 0.725C5.547 0.938 5.547 1.155 5.547 1.371L5.547 1.396L5.525 1.405L5.241 1.508L5.239 1.461C5.218 1.16 5.187 0.725 4.681 0.725L3.401 0.725L3.401 4.953C3.409 5.558 3.649 5.599 4.03 5.607L4.218 5.607L4.218 5.642L4.218 5.917L4.183 5.917Z" fill="rgb(33,30,31)" fill-opacity="1.000" fill-rule="nonzero" transform="matrix(1 0 0 1 86.9651 33.5911)"/><path d="M0 5.352L0.112 5.352C0.402 5.352 0.704 5.313 0.704 4.896L0.704 0.698C0.704 0.28 0.402 0.241 0.112 0.241L0 0.241L0 0C0.313 0 0.793 0.032 1.185 0.032C1.587 0.032 2.067 0 2.444 0L2.444 0.241L2.332 0.241C2.044 0.241 1.738 0.28 1.738 0.698L1.738 4.896C1.738 5.313 2.044 5.352 2.332 5.352L2.444 5.352L2.444 5.594C2.059 5.594 1.578 5.562 1.179 5.562C0.785 5.562 0.313 5.594 0 5.594L0 5.352Z" fill="rgb(33,30,31)" fill-opacity="1.000" fill-rule="nonzero" transform="matrix(1 0 0 1 92.8775 33.8807)"/><path d="M2.479 5.662C2.092 5.662 1.612 5.629 1.213 5.629C0.821 5.629 0.348 5.662 0.035 5.662L0 5.662L0 5.628L0 5.387L0 5.352L0.035 5.352L0.147 5.352C0.437 5.348 0.702 5.323 0.703 4.93L0.703 0.732C0.702 0.341 0.437 0.314 0.147 0.309L0 0.309L0 0.275L0 0L0.035 0C0.348 0 0.829 0.031 1.22 0.031C1.619 0.031 2.1 0 2.479 0L2.513 0L2.513 0.034L2.513 0.309L2.479 0.309L2.367 0.309C2.074 0.314 1.811 0.341 1.807 0.732L1.807 4.93C1.811 5.323 2.074 5.348 2.367 5.352L2.513 5.352L2.513 5.387L2.513 5.662L2.479 5.662ZM2.443 5.592L2.443 5.423L2.367 5.423C2.08 5.423 1.74 5.372 1.74 4.93L1.74 0.732C1.74 0.289 2.08 0.239 2.367 0.239L2.443 0.239L2.443 0.069C2.073 0.072 1.61 0.101 1.22 0.101C0.84 0.101 0.381 0.072 0.07 0.069L0.07 0.239L0.147 0.239C0.432 0.239 0.773 0.289 0.775 0.732L0.775 4.93C0.773 5.372 0.432 5.423 0.147 5.423L0.07 5.423L0.07 5.592C0.379 5.589 0.832 5.562 1.213 5.562C1.601 5.562 2.065 5.591 2.443 5.592Z" fill="rgb(33,30,31)" fill-opacity="1.000" fill-rule="nonzero" transform="matrix(1 0 0 1 92.8434 33.8462)"/><path d="M2.955 0C4.663 0 6.024 1.059 6.024 2.765C6.024 4.609 4.703 5.834 2.997 5.834C1.297 5.834 0 4.68 0 2.957C0 1.291 1.289 0 2.955 0ZM3.076 5.481C4.631 5.481 4.902 4.11 4.902 2.941C4.902 1.77 4.27 0.352 2.94 0.352C1.537 0.352 1.121 1.602 1.121 2.675C1.121 4.11 1.778 5.481 3.076 5.481Z" fill="rgb(33,30,31)" fill-opacity="1.000" fill-rule="nonzero" transform="matrix(1 0 0 1 95.5623 33.7606)"/><path d="M0 2.992C0.003 1.306 1.308 0.002 2.991 0L2.991 0.035L2.991 0.069C1.344 0.069 0.069 1.343 0.068 2.992C0.072 4.695 1.35 5.832 3.033 5.833C4.722 5.832 6.025 4.624 6.027 2.799C6.026 1.114 4.685 0.071 2.991 0.069L2.991 0.035L2.991 0C4.712 0.001 6.092 1.071 6.095 2.799C6.093 4.662 4.754 5.899 3.033 5.903C1.319 5.899 0.003 4.734 0 2.992L0 2.992L0 2.992ZM1.122 2.71C1.125 1.632 1.546 0.351 2.976 0.351C4.336 0.355 4.971 1.799 4.973 2.976C4.971 4.145 4.696 5.549 3.113 5.549L3.113 5.516L3.113 5.482C4.636 5.479 4.9 4.145 4.904 2.976C4.904 1.815 4.278 0.424 2.976 0.422C1.601 0.424 1.195 1.643 1.192 2.71C1.193 4.138 1.844 5.478 3.113 5.482L3.113 5.516L3.113 5.549C1.782 5.548 1.125 4.153 1.122 2.71Z" fill="rgb(33,30,31)" fill-opacity="1.000" fill-rule="nonzero" transform="matrix(1 0 0 1 95.5264 33.7256)"/><path d="M5.201 4.014L5.217 3.999L5.217 0.994C5.217 0.336 4.759 0.241 4.518 0.241L4.345 0.241L4.345 0C4.72 0 5.089 0.032 5.464 0.032C5.794 0.032 6.122 0 6.451 0L6.451 0.241L6.33 0.241C5.994 0.241 5.617 0.304 5.617 1.258L5.617 4.905C5.617 5.185 5.625 5.465 5.666 5.713L5.362 5.713L1.235 1.114L1.235 4.416C1.235 5.113 1.37 5.352 1.987 5.352L2.124 5.352L2.124 5.594C1.779 5.594 1.435 5.562 1.091 5.562C0.73 5.562 0.361 5.594 0 5.594L0 5.352L0.113 5.352C0.667 5.352 0.833 4.977 0.833 4.336L0.833 0.961C0.833 0.512 0.466 0.241 0.104 0.241L0 0.241L0 0C0.304 0 0.617 0.032 0.921 0.032C1.162 0.032 1.393 0 1.635 0L5.201 4.014Z" fill="rgb(33,30,31)" fill-opacity="1.000" fill-rule="nonzero" transform="matrix(1 0 0 1 101.7858 33.8805)"/><path d="M5.7 5.782L5.368 5.771L1.303 1.238L1.303 4.45C1.312 5.147 1.418 5.344 2.02 5.351L2.193 5.351L2.193 5.387L2.193 5.662L2.158 5.662C1.811 5.662 1.467 5.63 1.125 5.63C0.765 5.63 0.397 5.662 0.033 5.662L0 5.662L0 5.628L0 5.351L0.033 5.351L0.147 5.351C0.675 5.349 0.827 5.009 0.833 4.37L0.833 0.995C0.832 0.568 0.483 0.309 0.138 0.309L0 0.309L0 0.275L0 0L0.033 0C0.341 0 0.653 0.031 0.955 0.031C1.193 0.031 1.424 0 1.695 0.012L5.216 3.976L5.216 1.029C5.213 0.391 4.787 0.315 4.552 0.309L4.342 0.309L4.342 0.275L4.342 0L4.378 0C4.755 0 5.124 0.031 5.497 0.031C5.826 0.031 6.153 0 6.485 0L6.519 0L6.519 0.035L6.519 0.309L6.485 0.309L6.364 0.309C6.034 0.318 5.693 0.348 5.687 1.292L5.687 4.939C5.687 5.219 5.693 5.498 5.732 5.743L5.738 5.782L5.7 5.782L5.7 5.782ZM5.396 5.712L5.658 5.712C5.623 5.472 5.617 5.205 5.617 4.939L5.617 1.292C5.617 0.329 6.021 0.242 6.364 0.239L6.451 0.239L6.451 0.069C6.135 0.072 5.818 0.101 5.497 0.101C5.133 0.101 4.775 0.072 4.412 0.069L4.412 0.239L4.552 0.239C4.801 0.242 5.284 0.351 5.284 1.029L5.275 4.057L5.26 4.074L5.235 4.099L1.669 0.069C1.433 0.069 1.199 0.101 0.955 0.101C0.66 0.101 0.36 0.072 0.068 0.069L0.068 0.239L0.139 0.239C0.515 0.242 0.902 0.526 0.902 0.995L0.902 4.37C0.902 5.011 0.723 5.421 0.147 5.423L0.068 5.423L0.068 5.592C0.416 5.591 0.773 5.562 1.125 5.562C1.459 5.562 1.79 5.591 2.123 5.592L2.123 5.423L2.02 5.423C1.391 5.423 1.234 5.147 1.234 4.45L1.234 1.058L5.396 5.712ZM5.216 4.033L5.216 4.03L5.209 4.024L5.216 4.033Z" fill="rgb(33,30,31)" fill-opacity="1.000" fill-rule="nonzero" transform="matrix(1 0 0 1 101.7516 33.8462)"/><path d="M1.32 4.649C1.242 4.92 1.145 5.131 1.145 5.273C1.145 5.514 1.482 5.553 1.745 5.553L1.834 5.553L1.834 5.795C1.513 5.778 1.185 5.763 0.864 5.763C0.575 5.763 0.287 5.778 0 5.795L0 5.553L0.046 5.553C0.359 5.553 0.625 5.369 0.743 5.032L2.027 1.355C2.13 1.058 2.275 0.658 2.322 0.361C2.579 0.273 2.899 0.113 3.053 0.017C3.075 0.008 3.091 0 3.116 0C3.14 0 3.155 0 3.171 0.025C3.195 0.088 3.22 0.161 3.244 0.225L4.718 4.417C4.814 4.697 4.909 4.993 5.015 5.234C5.111 5.458 5.28 5.553 5.543 5.553L5.592 5.553L5.592 5.795C5.231 5.778 4.871 5.763 4.486 5.763C4.094 5.763 3.693 5.778 3.284 5.795L3.284 5.553L3.373 5.553C3.555 5.553 3.87 5.522 3.87 5.322C3.87 5.218 3.797 5.002 3.708 4.744L3.397 3.815L1.577 3.815L1.32 4.649ZM2.491 1.098L2.475 1.098L1.729 3.366L3.229 3.366L2.491 1.098Z" fill="rgb(33,30,31)" fill-opacity="1.000" fill-rule="nonzero" transform="matrix(1 0 0 1 108.204 33.6794)"/><path d="M5.624 5.863C5.263 5.848 4.903 5.831 4.521 5.831C4.13 5.831 3.729 5.848 3.32 5.863L3.284 5.865L3.284 5.828L3.284 5.553L3.319 5.553L3.406 5.553C3.593 5.553 3.869 5.509 3.869 5.355C3.871 5.264 3.799 5.046 3.709 4.789L3.405 3.883L1.636 3.883L1.389 4.693C1.309 4.967 1.213 5.178 1.215 5.307C1.215 5.504 1.515 5.553 1.78 5.553L1.902 5.553L1.902 5.587L1.902 5.865L1.866 5.863C1.546 5.848 1.218 5.831 0.899 5.831C0.612 5.831 0.324 5.848 0.035 5.863L0 5.865L0 5.828L0 5.553L0.035 5.553L0.081 5.553C0.379 5.552 0.63 5.38 0.746 5.055L2.029 1.377C2.131 1.08 2.275 0.681 2.346 0.362C2.598 0.275 2.92 0.115 3.075 0.017C3.096 0.01 3.118 0 3.151 0C3.172 -0.002 3.213 0.003 3.239 0.047C3.263 0.11 3.286 0.183 3.313 0.248L4.786 4.439C4.882 4.72 4.978 5.016 5.082 5.254C5.175 5.467 5.322 5.55 5.577 5.553L5.661 5.553L5.661 5.587L5.661 5.865L5.624 5.863ZM3.353 5.792C3.749 5.777 4.139 5.762 4.521 5.762C4.893 5.762 5.243 5.777 5.592 5.791L5.591 5.624L5.577 5.624C5.306 5.624 5.117 5.518 5.017 5.282C4.912 5.038 4.816 4.741 4.721 4.461L3.246 0.27C3.222 0.206 3.198 0.133 3.178 0.079C3.171 0.069 3.172 0.069 3.166 0.069L3.151 0.069C3.134 0.069 3.125 0.074 3.106 0.08C2.95 0.178 2.629 0.338 2.391 0.4C2.342 0.703 2.196 1.103 2.093 1.4L0.81 5.078C0.688 5.426 0.408 5.624 0.081 5.624L0.069 5.624L0.069 5.791C0.344 5.777 0.62 5.762 0.899 5.762C1.21 5.762 1.526 5.777 1.834 5.791L1.834 5.624L1.78 5.624C1.519 5.62 1.153 5.592 1.144 5.307C1.146 5.148 1.245 4.944 1.322 4.673L1.355 4.683L1.322 4.671L1.586 3.815L3.455 3.815L3.776 4.767C3.864 5.025 3.937 5.238 3.937 5.355C3.925 5.602 3.589 5.619 3.406 5.624L3.353 5.624L3.353 5.792L3.353 5.792ZM1.716 3.434L2.485 1.097L2.509 1.097L2.526 1.097L2.551 1.097L3.309 3.434L1.716 3.434ZM1.812 3.365L3.214 3.365L2.517 1.219L1.812 3.365Z" fill="rgb(33,30,31)" fill-opacity="1.000" fill-rule="nonzero" transform="matrix(1 0 0 1 108.1687 33.6458)"/><path d="M1.74 4.808C1.74 5.129 1.962 5.224 2.218 5.257C2.547 5.282 2.907 5.282 3.278 5.241C3.613 5.201 3.902 5.008 4.045 4.808C4.173 4.632 4.245 4.407 4.294 4.231L4.526 4.231C4.438 4.688 4.326 5.138 4.229 5.594C3.526 5.594 2.819 5.562 2.115 5.562C1.409 5.562 0.705 5.594 0 5.594L0 5.352L0.11 5.352C0.4 5.352 0.713 5.313 0.713 4.816L0.713 0.698C0.713 0.28 0.4 0.241 0.11 0.241L0 0.241L0 0C0.423 0 0.841 0.032 1.265 0.032C1.675 0.032 2.075 0 2.484 0L2.484 0.241L2.282 0.241C1.978 0.241 1.74 0.249 1.74 0.673L1.74 4.808Z" fill="rgb(33,30,31)" fill-opacity="1.000" fill-rule="nonzero" transform="matrix(1 0 0 1 114.076 33.8807)"/><path d="M4.265 5.662C3.559 5.662 2.854 5.63 2.151 5.63C1.445 5.63 0.74 5.662 0.034 5.662L0 5.662L0 5.628L0 5.352L0.034 5.352L0.146 5.352C0.436 5.345 0.711 5.325 0.714 4.85L0.714 0.731C0.711 0.341 0.438 0.314 0.146 0.309L0 0.309L0 0.275L0 0L0.034 0C0.46 0 0.877 0.031 1.301 0.031C1.707 0.031 2.107 0 2.519 0L2.552 0L2.552 0.034L2.552 0.309L2.519 0.309L2.318 0.309C2.007 0.318 1.814 0.303 1.808 0.707L1.808 4.843C1.81 5.141 2.006 5.222 2.256 5.257C2.398 5.267 2.546 5.273 2.7 5.273C2.896 5.273 3.1 5.263 3.307 5.241C3.634 5.203 3.915 5.014 4.053 4.823C4.176 4.652 4.247 4.432 4.295 4.257L4.302 4.23L4.329 4.23L4.604 4.23L4.597 4.273C4.506 4.731 4.396 5.179 4.299 5.635L4.292 5.662L4.265 5.662L4.265 5.662L4.265 5.662ZM4.236 5.592C4.329 5.158 4.434 4.733 4.52 4.299L4.355 4.299C4.305 4.474 4.234 4.689 4.108 4.864C3.959 5.071 3.662 5.267 3.315 5.31C3.105 5.332 2.897 5.343 2.7 5.343C2.545 5.343 2.395 5.335 2.25 5.325C1.989 5.296 1.736 5.185 1.737 4.843L1.737 0.707C1.737 0.262 2.019 0.239 2.318 0.239L2.484 0.239L2.484 0.069C2.089 0.072 1.7 0.101 1.301 0.101C0.886 0.101 0.48 0.072 0.069 0.069L0.069 0.239L0.146 0.239C0.432 0.239 0.782 0.289 0.782 0.731L0.782 4.85C0.782 5.369 0.433 5.423 0.146 5.423L0.069 5.423L0.069 5.592C0.762 5.592 1.455 5.562 2.151 5.562C2.847 5.562 3.543 5.592 4.236 5.592Z" fill="rgb(33,30,31)" fill-opacity="1.000" fill-rule="nonzero" transform="matrix(1 0 0 1 114.0401 33.8463)"/><path d="M0.844 0C1.327 0 1.687 0.371 1.687 0.847C1.687 1.32 1.327 1.688 0.844 1.688C0.361 1.688 0 1.32 0 0.847C0 0.371 0.361 0 0.844 0ZM0.844 1.531C1.221 1.531 1.511 1.208 1.511 0.847C1.511 0.483 1.226 0.158 0.844 0.158C0.465 0.158 0.174 0.483 0.174 0.847C0.174 1.208 0.465 1.531 0.844 1.531ZM0.424 1.291L0.424 1.25C0.528 1.235 0.547 1.238 0.547 1.174L0.547 0.549C0.547 0.462 0.537 0.432 0.428 0.436L0.428 0.393L0.86 0.393C1.008 0.393 1.145 0.464 1.145 0.617C1.145 0.743 1.061 0.836 0.945 0.872L1.083 1.065C1.148 1.153 1.221 1.235 1.27 1.264L1.27 1.291L1.105 1.291C1.026 1.291 0.957 1.125 0.802 0.902L0.708 0.902L0.708 1.183C0.708 1.238 0.728 1.235 0.832 1.25L0.832 1.291L0.424 1.291ZM0.708 0.847L0.808 0.847C0.917 0.847 0.968 0.764 0.968 0.631C0.968 0.497 0.889 0.449 0.802 0.449L0.708 0.449L0.708 0.847Z" fill="rgb(33,30,31)" fill-opacity="1.000" fill-rule="nonzero" transform="matrix(1 0 0 1 117.6608 33.6528)"/><path d="M20.707 28.003C28.361 28.039 35.346 21.761 35.346 14.123C35.346 5.771 28.361 -0.003 20.707 0L14.12 0C6.375 -0.003 0 5.772 0 14.123C0 21.763 6.375 28.039 14.12 28.003L20.707 28.003Z" fill="rgb(0,121,190)" fill-opacity="1.000" fill-rule="nonzero" transform="matrix(1 0 0 1 11.2818 16)"/><path d="M12.814 0C5.737 0.002 0.002 5.739 0 12.819C0.002 19.898 5.737 25.634 12.814 25.636C19.893 25.634 25.629 19.898 25.63 12.819C25.629 5.739 19.893 0.002 12.814 0ZM4.692 12.819C4.698 9.359 6.859 6.409 9.906 5.237L9.906 20.4C6.859 19.228 4.698 16.279 4.692 12.819ZM15.721 20.403L15.721 5.236C18.769 6.406 20.933 9.358 20.939 12.819C20.933 16.282 18.769 19.231 15.721 20.403Z" fill="rgb(255,255,255)" fill-opacity="1.000" fill-rule="nonzero" transform="matrix(1 0 0 1 12.6192 17.1572)"/><path d="M1.353 1.635C1.353 0.31 0.662 0.397 0 0.383L0 0C0.574 0.028 1.162 0.028 1.738 0.028C2.356 0.028 3.195 0 4.285 0C8.098 0 10.174 2.547 10.174 5.155C10.174 6.613 9.321 10.28 4.108 10.28C3.358 10.28 2.665 10.251 1.973 10.251C1.311 10.251 0.662 10.265 0 10.28L0 9.898C0.883 9.809 1.311 9.779 1.353 8.777L1.353 1.635ZM2.796 8.542C2.796 9.676 3.607 9.809 4.328 9.809C7.51 9.809 8.554 7.408 8.554 5.213C8.554 2.46 6.787 0.472 3.946 0.472C3.341 0.472 3.063 0.516 2.797 0.531L2.796 8.542Z" fill="rgb(33,30,31)" fill-opacity="1.000" fill-rule="nonzero" transform="matrix(1 0 0 1 49.7635 20.3899)"/><path d="M0 10.06L0.279 10.06C0.691 10.06 0.986 10.06 0.986 9.573L0.986 5.583C0.986 4.936 0.765 4.846 0.22 4.553L0.22 4.317C0.912 4.109 1.738 3.831 1.795 3.787C1.899 3.728 1.987 3.712 2.061 3.712C2.134 3.712 2.164 3.801 2.164 3.919L2.164 9.573C2.164 10.06 2.488 10.06 2.9 10.06L3.15 10.06L3.15 10.443C2.649 10.443 2.134 10.414 1.605 10.414C1.075 10.414 0.544 10.428 0 10.443L0 10.06L0 10.06ZM1.575 1.445C1.192 1.445 0.854 1.091 0.854 0.708C0.854 0.339 1.207 0 1.575 0C1.957 0 2.297 0.311 2.297 0.708C2.297 1.106 1.972 1.445 1.575 1.445Z" fill="rgb(33,30,31)" fill-opacity="1.000" fill-rule="nonzero" transform="matrix(1 0 0 1 60.4541 20.2271)"/><path d="M0.972 1.959C0.972 1.414 0.809 1.267 0.118 0.987L0.118 0.708C0.751 0.502 1.354 0.31 2.061 0C2.105 0 2.149 0.03 2.149 0.147L2.149 1.105C2.989 0.502 3.711 0 4.699 0C5.949 0 6.391 0.913 6.391 2.062L6.391 5.861C6.391 6.348 6.715 6.348 7.127 6.348L7.392 6.348L7.392 6.731C6.876 6.731 6.361 6.702 5.832 6.702C5.301 6.702 4.77 6.716 4.241 6.731L4.241 6.348L4.505 6.348C4.919 6.348 5.212 6.348 5.212 5.861L5.212 2.048C5.212 1.207 4.699 0.796 3.858 0.796C3.388 0.796 2.636 1.178 2.149 1.503L2.149 5.861C2.149 6.348 2.474 6.348 2.887 6.348L3.151 6.348L3.151 6.731C2.636 6.731 2.12 6.702 1.59 6.702C1.061 6.702 0.53 6.716 0 6.731L0 6.348L0.266 6.348C0.678 6.348 0.972 6.348 0.972 5.861L0.972 1.959L0.972 1.959Z" fill="rgb(33,30,31)" fill-opacity="1.000" fill-rule="nonzero" transform="matrix(1 0 0 1 64.0315 23.9392)"/><path d="M1.179 2.666C1.148 2.799 1.148 3.02 1.179 3.521C1.265 4.919 2.166 6.068 3.342 6.068C4.153 6.068 4.787 5.626 5.331 5.082L5.537 5.288C4.859 6.186 4.02 6.952 2.813 6.952C0.471 6.952 0 4.683 0 3.742C0 0.855 1.944 0 2.974 0C4.167 0 5.449 0.751 5.463 2.312C5.463 2.401 5.463 2.489 5.449 2.578L5.316 2.666L1.179 2.666ZM3.785 2.195C4.153 2.195 4.196 2.003 4.196 1.827C4.196 1.076 3.74 0.472 2.915 0.472C2.018 0.472 1.399 1.133 1.222 2.195L3.785 2.195Z" fill="rgb(33,30,31)" fill-opacity="1.000" fill-rule="nonzero" transform="matrix(1 0 0 1 71.3652 23.9391)"/><path d="M0 6.348L0.398 6.348C0.809 6.348 1.103 6.348 1.103 5.861L1.103 1.724C1.103 1.267 0.559 1.178 0.338 1.061L0.338 0.841C1.413 0.383 2.002 0 2.136 0C2.223 0 2.267 0.044 2.267 0.192L2.267 1.517L2.298 1.517C2.665 0.943 3.285 0 4.182 0C4.55 0 5.021 0.25 5.021 0.781C5.021 1.178 4.742 1.533 4.33 1.533C3.872 1.533 3.872 1.178 3.357 1.178C3.106 1.178 2.282 1.517 2.282 2.401L2.282 5.861C2.282 6.348 2.576 6.348 2.989 6.348L3.813 6.348L3.813 6.731C3.003 6.716 2.387 6.702 1.752 6.702C1.149 6.702 0.53 6.716 0 6.731L0 6.348Z" fill="rgb(33,30,31)" fill-opacity="1.000" fill-rule="nonzero" transform="matrix(1 0 0 1 77.1671 23.9391)"/><path d="M0.266 4.683C0.457 5.655 1.046 6.481 2.121 6.481C2.988 6.481 3.313 5.951 3.313 5.435C3.313 3.697 0.103 4.257 0.103 1.886C0.103 1.061 0.767 0 2.386 0C2.856 0 3.489 0.133 4.063 0.428L4.168 1.929L3.828 1.929C3.681 1.002 3.166 0.472 2.223 0.472C1.634 0.472 1.075 0.811 1.075 1.444C1.075 3.168 4.491 2.636 4.491 4.948C4.491 5.92 3.71 6.952 1.958 6.952C1.369 6.952 0.677 6.746 0.162 6.452L0 4.758L0.266 4.683Z" fill="rgb(33,30,31)" fill-opacity="1.000" fill-rule="nonzero" transform="matrix(1 0 0 1 82.5708 23.9392)"/><path d="M9.202 2.888L8.834 2.888C8.554 1.165 7.332 0.472 5.683 0.472C3.989 0.472 1.53 1.606 1.53 5.14C1.53 8.117 3.652 10.252 5.918 10.252C7.376 10.252 8.584 9.25 8.879 7.704L9.217 7.791L8.879 9.941C8.26 10.325 6.596 10.723 5.623 10.723C2.179 10.723 0 8.499 0 5.185C0 2.166 2.694 0 5.58 0C6.772 0 7.921 0.384 9.055 0.782L9.202 2.888Z" fill="rgb(33,30,31)" fill-opacity="1.000" fill-rule="nonzero" transform="matrix(1 0 0 1 91.1566 20.1681)"/><path d="M0 10.87L0.279 10.87C0.692 10.87 0.987 10.87 0.987 10.383L0.987 2.181C0.987 1.223 0.766 1.193 0.206 1.032L0.206 0.796C0.795 0.605 1.414 0.339 1.723 0.162C1.884 0.075 2.002 0 2.046 0C2.136 0 2.165 0.089 2.165 0.207L2.165 10.383C2.165 10.87 2.489 10.87 2.901 10.87L3.15 10.87L3.15 11.253C2.651 11.253 2.136 11.223 1.605 11.223C1.076 11.223 0.546 11.238 0 11.253L0 10.87L0 10.87Z" fill="rgb(33,30,31)" fill-opacity="1.000" fill-rule="nonzero" transform="matrix(1 0 0 1 100.8891 19.4176)"/><path d="M6.303 5.699C6.303 5.965 6.464 5.979 6.714 5.979C6.891 5.979 7.111 5.965 7.303 5.965L7.303 6.275C6.67 6.333 5.462 6.642 5.182 6.73L5.108 6.686L5.108 5.494C4.226 6.215 3.548 6.73 2.501 6.73C1.706 6.73 0.882 6.215 0.882 4.979L0.882 1.207C0.882 0.825 0.823 0.456 0 0.383L0 0.103C0.531 0.088 1.706 0 1.899 0C2.062 0 2.062 0.103 2.062 0.427L2.062 4.225C2.062 4.668 2.062 5.935 3.342 5.935C3.843 5.935 4.505 5.552 5.123 5.038L5.123 1.074C5.123 0.781 4.417 0.619 3.888 0.471L3.888 0.206C5.211 0.117 6.037 0 6.183 0C6.303 0 6.303 0.103 6.303 0.266L6.303 5.699Z" fill="rgb(33,30,31)" fill-opacity="1.000" fill-rule="nonzero" transform="matrix(1 0 0 1 104.041 24.1607)"/><path d="M1.959 5.582C2.548 5.082 3.343 4.522 4.153 4.522C5.862 4.522 6.891 6.011 6.891 7.615C6.891 9.544 5.478 11.473 3.371 11.473C2.282 11.473 1.709 11.119 1.325 10.958L0.884 11.296L0.576 11.135C0.706 10.266 0.781 9.411 0.781 8.514L0.781 2.181C0.781 1.223 0.559 1.193 0 1.032L0 0.796C0.591 0.605 1.207 0.339 1.517 0.162C1.679 0.074 1.796 0 1.842 0C1.93 0 1.959 0.089 1.959 0.207L1.959 5.582L1.959 5.582L1.959 5.582ZM1.959 9.588C1.959 10.148 2.489 11.091 3.475 11.091C5.051 11.091 5.713 9.544 5.713 8.233C5.713 6.642 4.507 5.317 3.358 5.317C2.812 5.317 2.356 5.671 1.959 6.011L1.959 9.588Z" fill="rgb(33,30,31)" fill-opacity="1.000" fill-rule="nonzero" transform="matrix(1 0 0 1 111.3149 19.4176)"/><path d="M0 5.352L0.113 5.352C0.401 5.352 0.705 5.313 0.705 4.896L0.705 0.698C0.705 0.28 0.401 0.241 0.113 0.241L0 0.241L0 0C0.313 0 0.793 0.032 1.187 0.032C1.587 0.032 2.067 0 2.444 0L2.444 0.241L2.331 0.241C2.044 0.241 1.739 0.28 1.739 0.698L1.739 4.896C1.739 5.313 2.044 5.352 2.331 5.352L2.444 5.352L2.444 5.594C2.06 5.594 1.578 5.562 1.178 5.562C0.786 5.562 0.313 5.594 0 5.594L0 5.352Z" fill="rgb(33,30,31)" fill-opacity="1.000" fill-rule="nonzero" transform="matrix(1 0 0 1 49.7469 33.8807)"/><path d="M2.479 5.663C2.091 5.663 1.611 5.631 1.212 5.631C0.821 5.631 0.349 5.663 0.034 5.663L0 5.663L0 5.629L0 5.388L0 5.353L0.034 5.353L0.147 5.353C0.437 5.347 0.702 5.323 0.705 4.932L0.705 0.733C0.702 0.342 0.437 0.316 0.147 0.31L0 0.31L0 0.276L0 0L0.034 0C0.349 0 0.83 0.032 1.221 0.032C1.62 0.032 2.1 0 2.479 0L2.514 0L2.514 0.037L2.514 0.31L2.479 0.31L2.366 0.31C2.076 0.316 1.81 0.342 1.808 0.733L1.808 4.932C1.81 5.323 2.076 5.347 2.366 5.353L2.514 5.353L2.514 5.388L2.514 5.663L2.479 5.663ZM2.444 5.595L2.444 5.424L2.366 5.424C2.08 5.424 1.74 5.374 1.738 4.932L1.738 0.733C1.74 0.291 2.08 0.241 2.366 0.241L2.444 0.241L2.444 0.071C2.074 0.071 1.61 0.102 1.221 0.102C0.841 0.102 0.38 0.073 0.07 0.071L0.07 0.241L0.147 0.241C0.432 0.241 0.774 0.291 0.774 0.733L0.774 4.932C0.774 5.374 0.432 5.424 0.147 5.424L0.07 5.424L0.07 5.595C0.38 5.592 0.833 5.563 1.212 5.563C1.602 5.563 2.066 5.593 2.444 5.595Z" fill="rgb(33,30,31)" fill-opacity="1.000" fill-rule="nonzero" transform="matrix(1 0 0 1 49.7128 33.845)"/><path d="M5.201 4.014L5.217 3.999L5.217 0.994C5.217 0.336 4.759 0.241 4.519 0.241L4.343 0.241L4.343 0C4.72 0 5.088 0.032 5.464 0.032C5.793 0.032 6.123 0 6.451 0L6.451 0.241L6.331 0.241C5.993 0.241 5.617 0.304 5.617 1.258L5.617 4.905C5.617 5.185 5.625 5.465 5.664 5.713L5.359 5.713L1.234 1.114L1.234 4.416C1.234 5.113 1.369 5.352 1.987 5.352L2.122 5.352L2.122 5.594C1.779 5.594 1.435 5.562 1.089 5.562C0.73 5.562 0.361 5.594 0 5.594L0 5.352L0.112 5.352C0.665 5.352 0.833 4.977 0.833 4.336L0.833 0.961C0.833 0.512 0.463 0.241 0.105 0.241L0 0.241L0 0C0.304 0 0.617 0.032 0.921 0.032C1.161 0.032 1.394 0 1.634 0L5.201 4.014Z" fill="rgb(33,30,31)" fill-opacity="1.000" fill-rule="nonzero" transform="matrix(1 0 0 1 52.4949 33.8805)"/><path d="M5.7 5.783L5.37 5.771L1.304 1.238L1.304 4.45C1.313 5.147 1.419 5.344 2.023 5.352L2.194 5.352L2.194 5.387L2.194 5.662L2.159 5.662C1.812 5.662 1.467 5.63 1.125 5.63C0.766 5.63 0.398 5.662 0.035 5.662L0 5.662L0 5.628L0 5.352L0.035 5.352L0.148 5.352C0.677 5.349 0.828 5.009 0.835 4.37L0.835 0.996C0.833 0.569 0.483 0.31 0.14 0.309L0 0.309L0 0.273L0 0L0.035 0C0.341 0 0.655 0.031 0.956 0.031C1.194 0.031 1.426 0 1.696 0.012L5.218 3.976L5.218 1.029C5.213 0.391 4.788 0.315 4.555 0.309L4.343 0.309L4.343 0.273L4.343 0L4.378 0C4.757 0 5.126 0.031 5.5 0.031C5.826 0.031 6.154 0 6.486 0L6.521 0L6.521 0.034L6.521 0.309L6.486 0.309L6.366 0.309C6.036 0.318 5.696 0.347 5.687 1.292L5.687 4.939C5.687 5.219 5.695 5.499 5.734 5.742L5.742 5.783L5.7 5.783L5.7 5.783ZM5.396 5.712L5.661 5.712C5.625 5.472 5.618 5.205 5.618 4.939L5.618 1.292C5.618 0.331 6.021 0.239 6.366 0.239L6.451 0.239L6.451 0.069C6.135 0.072 5.819 0.101 5.5 0.101C5.134 0.101 4.777 0.072 4.414 0.069L4.413 0.239L4.555 0.239C4.801 0.239 5.287 0.349 5.287 1.029L5.276 4.057L5.26 4.074L5.233 4.099L1.67 0.069C1.432 0.069 1.2 0.101 0.956 0.101C0.662 0.101 0.361 0.072 0.071 0.069L0.069 0.239L0.14 0.239C0.516 0.239 0.903 0.527 0.903 0.996L0.903 4.37C0.903 5.011 0.724 5.421 0.148 5.423L0.071 5.421L0.071 5.594C0.418 5.59 0.775 5.562 1.125 5.562C1.46 5.562 1.793 5.59 2.124 5.594L2.124 5.423L2.023 5.423C1.392 5.421 1.235 5.147 1.235 4.45L1.235 1.058L5.396 5.712ZM5.218 4.033L5.218 4.03L5.211 4.024L5.218 4.033Z" fill="rgb(33,30,31)" fill-opacity="1.000" fill-rule="nonzero" transform="matrix(1 0 0 1 52.4591 33.8462)"/><path d="M0.985 0.649C0.383 0.649 0.361 0.793 0.241 1.378L0 1.378C0.032 1.154 0.072 0.93 0.096 0.697C0.128 0.472 0.144 0.249 0.144 0.017L0.337 0.017C0.401 0.257 0.601 0.249 0.818 0.249L4.952 0.249C5.168 0.249 5.368 0.241 5.385 0L5.576 0.032C5.545 0.249 5.513 0.465 5.488 0.682C5.474 0.898 5.474 1.114 5.474 1.33L5.233 1.42C5.216 1.123 5.176 0.649 4.64 0.649L3.326 0.649L3.326 4.913C3.326 5.53 3.606 5.601 3.99 5.601L4.143 5.601L4.143 5.843C3.83 5.843 3.269 5.811 2.837 5.811C2.356 5.811 1.795 5.843 1.482 5.843L1.482 5.601L1.635 5.601C2.076 5.601 2.3 5.562 2.3 4.929L2.3 0.649L0.985 0.649Z" fill="rgb(33,30,31)" fill-opacity="1.000" fill-rule="nonzero" transform="matrix(1 0 0 1 59.1593 33.6319)"/><path d="M4.184 5.917C3.868 5.917 3.308 5.885 2.877 5.885C2.397 5.885 1.836 5.917 1.522 5.917L1.488 5.917L1.488 5.883L1.488 5.607L1.522 5.607L1.675 5.607C2.116 5.597 2.294 5.591 2.304 4.97L2.304 0.725L1.025 0.725L1.025 0.69L1.025 0.654L2.374 0.654L2.374 4.97C2.374 5.613 2.115 5.678 1.675 5.678L1.557 5.678L1.557 5.847C1.873 5.846 2.412 5.817 2.877 5.817C3.295 5.817 3.83 5.846 4.147 5.847L4.147 5.678L4.03 5.678C3.643 5.678 3.331 5.583 3.331 4.953L3.331 0.654L4.68 0.654C5.218 0.656 5.288 1.113 5.306 1.411L5.478 1.347C5.478 1.138 5.479 0.928 5.494 0.717C5.517 0.511 5.547 0.307 5.577 0.102L5.454 0.082C5.417 0.315 5.192 0.327 4.99 0.325L0.858 0.325L0.817 0.325C0.628 0.325 0.422 0.316 0.351 0.092L0.218 0.092C0.217 0.313 0.202 0.528 0.171 0.742C0.148 0.962 0.111 1.174 0.081 1.385L0.253 1.385C0.358 0.827 0.427 0.646 1.025 0.654L1.025 0.69L1.025 0.725C0.433 0.735 0.445 0.835 0.314 1.427L0.308 1.455L0.281 1.455L0 1.455L0.004 1.413C0.037 1.189 0.077 0.965 0.101 0.732C0.134 0.51 0.15 0.287 0.15 0.057L0.15 0.022L0.184 0.022L0.404 0.022L0.409 0.047C0.464 0.25 0.613 0.251 0.817 0.254L0.858 0.254L4.99 0.254C5.214 0.251 5.376 0.247 5.39 0.038L5.393 0L5.429 0.008L5.656 0.043L5.65 0.078C5.618 0.293 5.587 0.51 5.563 0.725C5.547 0.938 5.547 1.155 5.547 1.371L5.547 1.396L5.525 1.405L5.241 1.508L5.239 1.461C5.218 1.16 5.186 0.725 4.68 0.725L3.401 0.725L3.401 4.953C3.408 5.558 3.648 5.599 4.03 5.607L4.218 5.607L4.218 5.642L4.218 5.917L4.184 5.917Z" fill="rgb(33,30,31)" fill-opacity="1.000" fill-rule="nonzero" transform="matrix(1 0 0 1 59.12 33.5911)"/><path d="M0 5.352L0.113 5.352C0.401 5.352 0.706 5.313 0.706 4.896L0.706 0.698C0.706 0.28 0.401 0.241 0.113 0.241L0 0.241L0 0C0.488 0 1.322 0.032 1.994 0.032C2.669 0.032 3.5 0 4.045 0C4.032 0.344 4.039 0.874 4.063 1.226L3.821 1.29C3.783 0.77 3.686 0.353 2.845 0.353L1.732 0.353L1.732 2.452L2.684 2.452C3.165 2.452 3.27 2.18 3.317 1.746L3.557 1.746C3.542 2.06 3.533 2.373 3.533 2.685C3.533 2.99 3.541 3.294 3.557 3.598L3.317 3.646C3.27 3.165 3.245 2.853 2.692 2.853L1.732 2.853L1.732 4.719C1.732 5.241 2.195 5.241 2.708 5.241C3.67 5.241 4.094 5.176 4.334 4.264L4.559 4.319C4.454 4.744 4.358 5.168 4.287 5.594C3.774 5.594 2.852 5.562 2.132 5.562C1.41 5.562 0.457 5.594 0 5.594L0 5.352Z" fill="rgb(33,30,31)" fill-opacity="1.000" fill-rule="nonzero" transform="matrix(1 0 0 1 64.9925 33.8807)"/><path d="M4.32 5.662C3.806 5.662 2.885 5.629 2.165 5.629C1.443 5.629 0.491 5.662 0.034 5.662L0 5.662L0 5.628L0 5.387L0 5.352L0.034 5.352L0.146 5.352C0.437 5.348 0.7 5.322 0.704 4.93L0.704 0.732C0.7 0.341 0.437 0.315 0.146 0.309L0 0.309L0 0.275L0 0L0.034 0C0.523 0 1.356 0.031 2.028 0.031C2.702 0.031 3.533 0 4.079 0L4.115 0L4.113 0.036C4.108 0.156 4.105 0.298 4.105 0.449C4.105 0.727 4.113 1.029 4.129 1.258L4.13 1.287L4.104 1.295L3.822 1.368L3.82 1.327C3.773 0.807 3.704 0.43 2.879 0.422L1.799 0.422L1.798 2.45L2.718 2.45C3.179 2.446 3.262 2.21 3.316 1.778L3.319 1.746L3.35 1.746L3.627 1.746L3.626 1.782C3.611 2.095 3.6 2.407 3.6 2.719C3.6 3.023 3.611 3.326 3.626 3.631L3.627 3.66L3.598 3.666L3.319 3.722L3.316 3.684C3.261 3.195 3.258 2.928 2.725 2.921L1.799 2.921L1.799 4.754C1.8 5.241 2.22 5.238 2.742 5.241C3.706 5.235 4.093 5.188 4.335 4.288L4.343 4.256L4.377 4.262L4.633 4.328L4.626 4.362C4.522 4.786 4.426 5.209 4.354 5.634L4.348 5.662L4.32 5.662ZM4.291 5.592C4.36 5.188 4.452 4.783 4.55 4.379L4.392 4.339C4.152 5.236 3.687 5.316 2.742 5.31C2.237 5.31 1.732 5.31 1.73 4.754L1.73 2.852L2.725 2.852C3.285 2.846 3.342 3.184 3.381 3.64L3.555 3.604C3.539 3.309 3.532 3.013 3.532 2.719C3.532 2.417 3.539 2.117 3.555 1.816L3.381 1.816C3.337 2.233 3.206 2.526 2.718 2.521L1.73 2.521L1.73 0.352L2.879 0.352C3.712 0.346 3.85 0.776 3.886 1.28L4.059 1.233C4.045 1.007 4.035 0.717 4.035 0.449C4.035 0.312 4.039 0.183 4.043 0.069C3.499 0.072 2.687 0.101 2.028 0.101C1.37 0.101 0.559 0.072 0.068 0.069L0.068 0.239L0.146 0.239C0.432 0.239 0.773 0.289 0.774 0.732L0.774 4.93C0.773 5.372 0.432 5.421 0.146 5.423L0.068 5.423L0.068 5.592C0.536 5.592 1.461 5.562 2.165 5.562C2.872 5.562 3.774 5.592 4.291 5.592Z" fill="rgb(33,30,31)" fill-opacity="1.000" fill-rule="nonzero" transform="matrix(1 0 0 1 64.9583 33.8462)"/><path d="M0.713 0.85C0.713 0.265 0.393 0.241 0.144 0.241L0 0.241L0 0C0.257 0 0.753 0.032 1.242 0.032C1.722 0.032 2.107 0 2.531 0C3.54 0 4.439 0.273 4.439 1.412C4.439 2.131 3.958 2.572 3.325 2.822L4.695 4.872C4.919 5.211 5.079 5.306 5.472 5.353L5.472 5.594C5.208 5.594 4.951 5.563 4.687 5.563C4.439 5.563 4.181 5.594 3.934 5.594C3.317 4.785 2.787 3.919 2.267 2.997L1.74 2.997L1.74 4.713C1.74 5.331 2.027 5.353 2.395 5.353L2.54 5.353L2.54 5.594C2.082 5.594 1.619 5.563 1.162 5.563C0.777 5.563 0.4 5.594 0 5.594L0 5.353L0.144 5.353C0.442 5.353 0.713 5.218 0.713 4.921L0.713 0.85ZM1.74 2.709L2.131 2.709C2.932 2.709 3.364 2.404 3.364 1.458C3.364 0.746 2.908 0.289 2.194 0.289C1.953 0.289 1.851 0.314 1.739 0.321L1.739 2.709L1.74 2.709Z" fill="rgb(33,30,31)" fill-opacity="1.000" fill-rule="nonzero" transform="matrix(1 0 0 1 69.9189 33.8801)"/><path d="M5.507 5.663C5.239 5.663 4.984 5.631 4.721 5.631C4.476 5.631 4.221 5.663 3.941 5.65C3.327 4.844 2.8 3.983 2.282 3.067L1.809 3.067L1.809 4.747C1.817 5.349 2.059 5.344 2.43 5.353L2.609 5.353L2.609 5.388L2.609 5.663L2.574 5.663C2.116 5.663 1.651 5.631 1.196 5.631C0.813 5.631 0.437 5.663 0.035 5.663L0 5.663L0 5.629L0 5.353L0.035 5.353L0.179 5.353C0.468 5.352 0.711 5.226 0.712 4.956L0.712 0.885C0.706 0.316 0.428 0.319 0.179 0.311L0 0.311L0 0.276L0 0L0.035 0C0.295 0 0.789 0.032 1.277 0.032C1.755 0.032 2.14 0 2.567 0C3.577 0.002 4.507 0.281 4.509 1.445C4.509 2.169 4.031 2.62 3.413 2.873L4.759 4.888C4.983 5.22 5.122 5.303 5.512 5.353L5.542 5.358L5.542 5.388L5.542 5.663L5.507 5.663L5.507 5.663ZM1.774 2.997L2.321 2.997L2.331 3.015C2.853 3.936 3.379 4.8 3.969 5.595C4.214 5.595 4.471 5.562 4.721 5.562C4.977 5.562 5.223 5.59 5.473 5.594L5.473 5.418C5.097 5.371 4.921 5.259 4.702 4.926L3.308 2.84L3.347 2.824C3.974 2.577 4.438 2.149 4.438 1.444C4.438 0.333 3.574 0.075 2.567 0.07C2.144 0.07 1.76 0.102 1.277 0.102C0.806 0.102 0.331 0.073 0.069 0.07L0.069 0.24L0.179 0.24C0.428 0.241 0.782 0.282 0.782 0.884L0.782 4.956C0.782 5.278 0.481 5.424 0.179 5.425L0.069 5.425L0.069 5.594C0.455 5.593 0.82 5.562 1.196 5.562C1.644 5.562 2.096 5.593 2.539 5.594L2.539 5.425L2.43 5.425C2.064 5.424 1.739 5.379 1.739 4.746L1.739 2.997L1.774 2.997L1.774 2.997ZM1.774 2.777L1.739 2.777L1.739 0.324L1.769 0.321C1.879 0.313 1.987 0.29 2.229 0.29C2.959 0.29 3.434 0.764 3.435 1.495C3.433 2.452 2.974 2.777 2.166 2.777L1.774 2.777L1.774 2.777ZM2.166 2.708C2.959 2.702 3.358 2.426 3.367 1.495C3.362 0.795 2.927 0.36 2.229 0.358C2.012 0.358 1.911 0.378 1.809 0.387L1.809 2.708L2.166 2.708Z" fill="rgb(33,30,31)" fill-opacity="1.000" fill-rule="nonzero" transform="matrix(1 0 0 1 69.8836 33.8452)"/><path d="M5.2 4.014L5.214 3.999L5.214 0.994C5.214 0.336 4.758 0.241 4.518 0.241L4.343 0.241L4.343 0C4.719 0 5.087 0.032 5.464 0.032C5.793 0.032 6.12 0 6.451 0L6.451 0.241L6.33 0.241C5.993 0.241 5.617 0.304 5.617 1.258L5.617 4.905C5.617 5.185 5.624 5.465 5.664 5.713L5.36 5.713L1.234 1.114L1.234 4.416C1.234 5.113 1.37 5.352 1.987 5.352L2.123 5.352L2.123 5.594C1.779 5.594 1.434 5.562 1.09 5.562C0.728 5.562 0.36 5.594 0 5.594L0 5.352L0.111 5.352C0.665 5.352 0.833 4.977 0.833 4.336L0.833 0.961C0.833 0.512 0.464 0.241 0.105 0.241L0 0.241L0 0C0.303 0 0.617 0.032 0.921 0.032C1.16 0.032 1.393 0 1.634 0L5.2 4.014Z" fill="rgb(33,30,31)" fill-opacity="1.000" fill-rule="nonzero" transform="matrix(1 0 0 1 75.6313 33.8805)"/><path d="M5.701 5.783L5.371 5.772L1.304 1.24L1.304 4.45C1.314 5.148 1.419 5.345 2.024 5.353L2.193 5.353L2.193 5.388L2.193 5.663L2.158 5.663C1.811 5.663 1.468 5.63 1.125 5.63C0.767 5.63 0.397 5.663 0.036 5.663L0 5.663L0 5.629L0 5.353L0.036 5.353L0.147 5.353C0.676 5.351 0.828 5.01 0.833 4.369L0.833 0.996C0.832 0.569 0.483 0.311 0.141 0.31L0 0.31L0 0.276L0 0L0.036 0C0.342 0 0.655 0.032 0.957 0.032C1.193 0.032 1.425 0 1.694 0.011L5.216 3.977L5.216 1.029C5.214 0.392 4.787 0.313 4.554 0.31L4.343 0.31L4.343 0.276L4.343 0L4.378 0C4.757 0 5.126 0.032 5.5 0.032C5.827 0.032 6.155 0 6.485 0L6.52 0L6.52 0.036L6.52 0.31L6.485 0.31L6.366 0.31C6.036 0.319 5.695 0.348 5.687 1.293L5.687 4.94C5.687 5.22 5.694 5.498 5.734 5.744L5.739 5.783L5.701 5.783ZM5.396 5.713L5.659 5.713C5.624 5.473 5.617 5.206 5.617 4.94L5.617 1.293C5.617 0.332 6.023 0.243 6.366 0.24L6.45 0.24L6.45 0.071C6.136 0.073 5.818 0.102 5.5 0.102C5.132 0.102 4.775 0.073 4.412 0.071L4.412 0.24L4.554 0.24C4.801 0.243 5.287 0.351 5.287 1.029L5.276 4.058L5.26 4.075L5.236 4.1L1.67 0.071C1.432 0.071 1.2 0.102 0.957 0.102C0.661 0.102 0.361 0.073 0.07 0.071L0.07 0.24L0.141 0.24C0.517 0.243 0.903 0.527 0.903 0.996L0.903 4.369C0.903 5.013 0.722 5.422 0.147 5.424L0.07 5.424L0.07 5.593C0.416 5.592 0.773 5.563 1.125 5.563C1.461 5.563 1.794 5.592 2.125 5.593L2.125 5.424L2.024 5.424C1.392 5.424 1.235 5.148 1.234 4.45L1.234 1.06L5.396 5.713ZM5.216 4.034L5.216 4.031L5.21 4.025L5.216 4.034Z" fill="rgb(33,30,31)" fill-opacity="1.000" fill-rule="nonzero" transform="matrix(1 0 0 1 75.5949 33.8452)"/><path d="M1.323 4.649C1.242 4.92 1.145 5.131 1.145 5.273C1.145 5.514 1.482 5.553 1.746 5.553L1.835 5.553L1.835 5.795C1.514 5.778 1.187 5.763 0.864 5.763C0.576 5.763 0.289 5.778 0 5.795L0 5.553L0.048 5.553C0.36 5.553 0.626 5.369 0.744 5.032L2.027 1.355C2.131 1.058 2.276 0.658 2.325 0.361C2.58 0.273 2.901 0.113 3.053 0.017C3.078 0.008 3.091 0 3.116 0C3.14 0 3.156 0 3.174 0.025C3.197 0.088 3.22 0.161 3.246 0.225L4.72 4.417C4.816 4.697 4.911 4.993 5.015 5.234C5.112 5.458 5.281 5.553 5.546 5.553L5.593 5.553L5.593 5.795C5.232 5.778 4.871 5.763 4.488 5.763C4.095 5.763 3.693 5.778 3.285 5.795L3.285 5.553L3.374 5.553C3.557 5.553 3.87 5.522 3.87 5.322C3.87 5.218 3.798 5.002 3.709 4.744L3.397 3.815L1.579 3.815L1.323 4.649ZM2.492 1.098L2.476 1.098L1.731 3.366L3.228 3.366L2.492 1.098Z" fill="rgb(33,30,31)" fill-opacity="1.000" fill-rule="nonzero" transform="matrix(1 0 0 1 82.0473 33.6794)"/><path d="M5.625 5.864C5.265 5.848 4.904 5.831 4.523 5.831C4.13 5.831 3.731 5.848 3.321 5.864L3.285 5.866L3.285 5.83L3.285 5.553L3.32 5.553L3.408 5.553C3.594 5.553 3.869 5.511 3.869 5.357C3.871 5.265 3.799 5.045 3.711 4.791L3.406 3.884L1.638 3.884L1.39 4.694C1.308 4.967 1.212 5.179 1.213 5.309C1.216 5.505 1.515 5.553 1.781 5.553L1.904 5.553L1.904 5.589L1.904 5.866L1.868 5.864C1.547 5.848 1.22 5.831 0.901 5.831C0.613 5.831 0.324 5.848 0.037 5.864L0 5.866L0 5.83L0 5.553L0.035 5.553L0.083 5.553C0.381 5.552 0.63 5.382 0.746 5.056L2.029 1.379C2.134 1.081 2.278 0.682 2.347 0.362C2.599 0.277 2.92 0.116 3.075 0.018C3.097 0.011 3.119 0 3.152 0C3.171 -0.001 3.215 0.004 3.24 0.047C3.263 0.113 3.288 0.184 3.313 0.249L4.788 4.44C4.883 4.721 4.978 5.017 5.083 5.254C5.176 5.468 5.323 5.552 5.581 5.553L5.662 5.553L5.662 5.589L5.662 5.866L5.625 5.864ZM3.355 5.792C3.751 5.778 4.14 5.763 4.523 5.763C4.895 5.763 5.243 5.778 5.591 5.792L5.591 5.625L5.58 5.625C5.306 5.627 5.117 5.519 5.018 5.283C4.914 5.039 4.816 4.742 4.722 4.462L3.247 0.271C3.222 0.207 3.199 0.134 3.178 0.078C3.171 0.07 3.173 0.07 3.166 0.07L3.152 0.07C3.135 0.07 3.126 0.075 3.105 0.081C2.951 0.181 2.629 0.338 2.392 0.401C2.342 0.704 2.198 1.105 2.094 1.401L0.812 5.079C0.689 5.427 0.409 5.626 0.083 5.625L0.07 5.625L0.07 5.792C0.344 5.778 0.622 5.763 0.901 5.763C1.21 5.763 1.527 5.778 1.832 5.792L1.832 5.625L1.781 5.625C1.52 5.622 1.156 5.592 1.146 5.309C1.146 5.149 1.245 4.944 1.323 4.674L1.358 4.684L1.323 4.673L1.587 3.816L3.455 3.816L3.776 4.768C3.866 5.025 3.939 5.239 3.939 5.357C3.928 5.603 3.59 5.62 3.408 5.625L3.355 5.625L3.355 5.792ZM1.717 3.436L2.484 1.098L2.511 1.098L2.527 1.098L2.551 1.098L3.312 3.436L1.717 3.436ZM1.813 3.366L3.215 3.366L2.518 1.219L1.813 3.366Z" fill="rgb(33,30,31)" fill-opacity="1.000" fill-rule="nonzero" transform="matrix(1 0 0 1 82.012 33.6445)"/><path d="M0.986 0.649C0.385 0.649 0.361 0.793 0.241 1.378L0 1.378C0.032 1.154 0.072 0.93 0.097 0.697C0.129 0.472 0.144 0.249 0.144 0.017L0.337 0.017C0.401 0.257 0.602 0.249 0.817 0.249L4.953 0.249C5.168 0.249 5.368 0.241 5.385 0L5.576 0.032C5.546 0.249 5.514 0.465 5.489 0.682C5.472 0.898 5.472 1.114 5.472 1.33L5.232 1.42C5.217 1.123 5.177 0.649 4.64 0.649L3.326 0.649L3.326 4.913C3.326 5.53 3.607 5.601 3.991 5.601L4.143 5.601L4.143 5.843C3.83 5.843 3.27 5.811 2.837 5.811C2.357 5.811 1.795 5.843 1.483 5.843L1.483 5.601L1.635 5.601C2.076 5.601 2.301 5.562 2.301 4.929L2.301 0.649L0.986 0.649Z" fill="rgb(33,30,31)" fill-opacity="1.000" fill-rule="nonzero" transform="matrix(1 0 0 1 87.0061 33.6319)"/><path d="M4.183 5.917C3.869 5.917 3.308 5.885 2.878 5.885C2.399 5.885 1.838 5.917 1.524 5.917L1.488 5.917L1.488 5.883L1.488 5.607L1.524 5.607L1.675 5.607C2.117 5.597 2.294 5.591 2.305 4.97L2.304 0.725L1.027 0.725L1.027 0.69L1.027 0.654L2.375 0.654L2.375 4.97C2.375 5.613 2.115 5.676 1.675 5.678L1.558 5.678L1.558 5.849C1.875 5.846 2.413 5.817 2.878 5.817C3.296 5.817 3.832 5.846 4.148 5.849L4.148 5.678L4.03 5.678C3.645 5.676 3.333 5.583 3.332 4.953L3.332 0.654L4.681 0.654C5.218 0.656 5.289 1.113 5.304 1.411L5.479 1.347C5.479 1.138 5.48 0.928 5.495 0.718C5.517 0.512 5.547 0.307 5.577 0.102L5.456 0.082C5.419 0.315 5.193 0.328 4.993 0.324L0.858 0.324L0.817 0.324C0.629 0.327 0.424 0.316 0.351 0.091L0.22 0.091C0.218 0.313 0.203 0.528 0.171 0.742C0.15 0.962 0.111 1.175 0.081 1.385L0.252 1.385C0.358 0.827 0.428 0.646 1.027 0.654L1.027 0.69L1.027 0.725C0.433 0.735 0.446 0.835 0.315 1.427L0.309 1.455L0.281 1.455L0 1.455L0.005 1.415C0.038 1.188 0.078 0.965 0.102 0.733C0.134 0.509 0.15 0.287 0.15 0.057L0.15 0.022L0.184 0.022L0.403 0.022L0.41 0.047C0.466 0.249 0.612 0.251 0.817 0.254L0.858 0.255L4.993 0.255C5.214 0.251 5.376 0.247 5.39 0.038L5.392 0L5.43 0.008L5.657 0.043L5.651 0.078C5.618 0.293 5.588 0.51 5.563 0.725C5.547 0.938 5.547 1.155 5.547 1.371L5.547 1.396L5.525 1.405L5.241 1.508L5.239 1.461C5.218 1.16 5.187 0.725 4.681 0.725L3.401 0.725L3.401 4.953C3.409 5.558 3.649 5.599 4.03 5.607L4.218 5.607L4.218 5.642L4.218 5.917L4.183 5.917Z" fill="rgb(33,30,31)" fill-opacity="1.000" fill-rule="nonzero" transform="matrix(1 0 0 1 86.9651 33.5911)"/><path d="M0 5.352L0.112 5.352C0.402 5.352 0.704 5.313 0.704 4.896L0.704 0.698C0.704 0.28 0.402 0.241 0.112 0.241L0 0.241L0 0C0.313 0 0.793 0.032 1.185 0.032C1.587 0.032 2.067 0 2.444 0L2.444 0.241L2.332 0.241C2.044 0.241 1.738 0.28 1.738 0.698L1.738 4.896C1.738 5.313 2.044 5.352 2.332 5.352L2.444 5.352L2.444 5.594C2.059 5.594 1.578 5.562 1.179 5.562C0.785 5.562 0.313 5.594 0 5.594L0 5.352Z" fill="rgb(33,30,31)" fill-opacity="1.000" fill-rule="nonzero" transform="matrix(1 0 0 1 92.8775 33.8807)"/><path d="M2.479 5.662C2.092 5.662 1.612 5.629 1.213 5.629C0.821 5.629 0.348 5.662 0.035 5.662L0 5.662L0 5.628L0 5.387L0 5.352L0.035 5.352L0.147 5.352C0.437 5.348 0.702 5.323 0.703 4.93L0.703 0.732C0.702 0.341 0.437 0.314 0.147 0.309L0 0.309L0 0.275L0 0L0.035 0C0.348 0 0.829 0.031 1.22 0.031C1.619 0.031 2.1 0 2.479 0L2.513 0L2.513 0.034L2.513 0.309L2.479 0.309L2.367 0.309C2.074 0.314 1.811 0.341 1.807 0.732L1.807 4.93C1.811 5.323 2.074 5.348 2.367 5.352L2.513 5.352L2.513 5.387L2.513 5.662L2.479 5.662ZM2.443 5.592L2.443 5.423L2.367 5.423C2.08 5.423 1.74 5.372 1.74 4.93L1.74 0.732C1.74 0.289 2.08 0.239 2.367 0.239L2.443 0.239L2.443 0.069C2.073 0.072 1.61 0.101 1.22 0.101C0.84 0.101 0.381 0.072 0.07 0.069L0.07 0.239L0.147 0.239C0.432 0.239 0.773 0.289 0.775 0.732L0.775 4.93C0.773 5.372 0.432 5.423 0.147 5.423L0.07 5.423L0.07 5.592C0.379 5.589 0.832 5.562 1.213 5.562C1.601 5.562 2.065 5.591 2.443 5.592Z" fill="rgb(33,30,31)" fill-opacity="1.000" fill-rule="nonzero" transform="matrix(1 0 0 1 92.8434 33.8462)"/><path d="M2.955 0C4.663 0 6.024 1.059 6.024 2.765C6.024 4.609 4.703 5.834 2.997 5.834C1.297 5.834 0 4.68 0 2.957C0 1.291 1.289 0 2.955 0ZM3.076 5.481C4.631 5.481 4.902 4.11 4.902 2.941C4.902 1.77 4.27 0.352 2.94 0.352C1.537 0.352 1.121 1.602 1.121 2.675C1.121 4.11 1.778 5.481 3.076 5.481Z" fill="rgb(33,30,31)" fill-opacity="1.000" fill-rule="nonzero" transform="matrix(1 0 0 1 95.5623 33.7606)"/><path d="M0 2.992C0.003 1.306 1.308 0.002 2.991 0L2.991 0.035L2.991 0.069C1.344 0.069 0.069 1.343 0.068 2.992C0.072 4.695 1.35 5.832 3.033 5.833C4.722 5.832 6.025 4.624 6.027 2.799C6.026 1.114 4.685 0.071 2.991 0.069L2.991 0.035L2.991 0C4.712 0.001 6.092 1.071 6.095 2.799C6.093 4.662 4.754 5.899 3.033 5.903C1.319 5.899 0.003 4.734 0 2.992L0 2.992L0 2.992ZM1.122 2.71C1.125 1.632 1.546 0.351 2.976 0.351C4.336 0.355 4.971 1.799 4.973 2.976C4.971 4.145 4.696 5.549 3.113 5.549L3.113 5.516L3.113 5.482C4.636 5.479 4.9 4.145 4.904 2.976C4.904 1.815 4.278 0.424 2.976 0.422C1.601 0.424 1.195 1.643 1.192 2.71C1.193 4.138 1.844 5.478 3.113 5.482L3.113 5.516L3.113 5.549C1.782 5.548 1.125 4.153 1.122 2.71Z" fill="rgb(33,30,31)" fill-opacity="1.000" fill-rule="nonzero" transform="matrix(1 0 0 1 95.5264 33.7256)"/><path d="M5.201 4.014L5.217 3.999L5.217 0.994C5.217 0.336 4.759 0.241 4.518 0.241L4.345 0.241L4.345 0C4.72 0 5.089 0.032 5.464 0.032C5.794 0.032 6.122 0 6.451 0L6.451 0.241L6.33 0.241C5.994 0.241 5.617 0.304 5.617 1.258L5.617 4.905C5.617 5.185 5.625 5.465 5.666 5.713L5.362 5.713L1.235 1.114L1.235 4.416C1.235 5.113 1.37 5.352 1.987 5.352L2.124 5.352L2.124 5.594C1.779 5.594 1.435 5.562 1.091 5.562C0.73 5.562 0.361 5.594 0 5.594L0 5.352L0.113 5.352C0.667 5.352 0.833 4.977 0.833 4.336L0.833 0.961C0.833 0.512 0.466 0.241 0.104 0.241L0 0.241L0 0C0.304 0 0.617 0.032 0.921 0.032C1.162 0.032 1.393 0 1.635 0L5.201 4.014Z" fill="rgb(33,30,31)" fill-opacity="1.000" fill-rule="nonzero" transform="matrix(1 0 0 1 101.7858 33.8805)"/><path d="M5.7 5.782L5.368 5.771L1.303 1.238L1.303 4.45C1.312 5.147 1.418 5.344 2.02 5.351L2.193 5.351L2.193 5.387L2.193 5.662L2.158 5.662C1.811 5.662 1.467 5.63 1.125 5.63C0.765 5.63 0.397 5.662 0.033 5.662L0 5.662L0 5.628L0 5.351L0.033 5.351L0.147 5.351C0.675 5.349 0.827 5.009 0.833 4.37L0.833 0.995C0.832 0.568 0.483 0.309 0.138 0.309L0 0.309L0 0.275L0 0L0.033 0C0.341 0 0.653 0.031 0.955 0.031C1.193 0.031 1.424 0 1.695 0.012L5.216 3.976L5.216 1.029C5.213 0.391 4.787 0.315 4.552 0.309L4.342 0.309L4.342 0.275L4.342 0L4.378 0C4.755 0 5.124 0.031 5.497 0.031C5.826 0.031 6.153 0 6.485 0L6.519 0L6.519 0.035L6.519 0.309L6.485 0.309L6.364 0.309C6.034 0.318 5.693 0.348 5.687 1.292L5.687 4.939C5.687 5.219 5.693 5.498 5.732 5.743L5.738 5.782L5.7 5.782L5.7 5.782ZM5.396 5.712L5.658 5.712C5.623 5.472 5.617 5.205 5.617 4.939L5.617 1.292C5.617 0.329 6.021 0.242 6.364 0.239L6.451 0.239L6.451 0.069C6.135 0.072 5.818 0.101 5.497 0.101C5.133 0.101 4.775 0.072 4.412 0.069L4.412 0.239L4.552 0.239C4.801 0.242 5.284 0.351 5.284 1.029L5.275 4.057L5.26 4.074L5.235 4.099L1.669 0.069C1.433 0.069 1.199 0.101 0.955 0.101C0.66 0.101 0.36 0.072 0.068 0.069L0.068 0.239L0.139 0.239C0.515 0.242 0.902 0.526 0.902 0.995L0.902 4.37C0.902 5.011 0.723 5.421 0.147 5.423L0.068 5.423L0.068 5.592C0.416 5.591 0.773 5.562 1.125 5.562C1.459 5.562 1.79 5.591 2.123 5.592L2.123 5.423L2.02 5.423C1.391 5.423 1.234 5.147 1.234 4.45L1.234 1.058L5.396 5.712ZM5.216 4.033L5.216 4.03L5.209 4.024L5.216 4.033Z" fill="rgb(33,30,31)" fill-opacity="1.000" fill-rule="nonzero" transform="matrix(1 0 0 1 101.7516 33.8462)"/><path d="M1.32 4.649C1.242 4.92 1.145 5.131 1.145 5.273C1.145 5.514 1.482 5.553 1.745 5.553L1.834 5.553L1.834 5.795C1.513 5.778 1.185 5.763 0.864 5.763C0.575 5.763 0.287 5.778 0 5.795L0 5.553L0.046 5.553C0.359 5.553 0.625 5.369 0.743 5.032L2.027 1.355C2.13 1.058 2.275 0.658 2.322 0.361C2.579 0.273 2.899 0.113 3.053 0.017C3.075 0.008 3.091 0 3.116 0C3.14 0 3.155 0 3.171 0.025C3.195 0.088 3.22 0.161 3.244 0.225L4.718 4.417C4.814 4.697 4.909 4.993 5.015 5.234C5.111 5.458 5.28 5.553 5.543 5.553L5.592 5.553L5.592 5.795C5.231 5.778 4.871 5.763 4.486 5.763C4.094 5.763 3.693 5.778 3.284 5.795L3.284 5.553L3.373 5.553C3.555 5.553 3.87 5.522 3.87 5.322C3.87 5.218 3.797 5.002 3.708 4.744L3.397 3.815L1.577 3.815L1.32 4.649ZM2.491 1.098L2.475 1.098L1.729 3.366L3.229 3.366L2.491 1.098Z" fill="rgb(33,30,31)" fill-opacity="1.000" fill-rule="nonzero" transform="matrix(1 0 0 1 108.204 33.6794)"/><path d="M5.624 5.863C5.263 5.848 4.903 5.831 4.521 5.831C4.13 5.831 3.729 5.848 3.32 5.863L3.284 5.865L3.284 5.828L3.284 5.553L3.319 5.553L3.406 5.553C3.593 5.553 3.869 5.509 3.869 5.355C3.871 5.264 3.799 5.046 3.709 4.789L3.405 3.883L1.636 3.883L1.389 4.693C1.309 4.967 1.213 5.178 1.215 5.307C1.215 5.504 1.515 5.553 1.78 5.553L1.902 5.553L1.902 5.587L1.902 5.865L1.866 5.863C1.546 5.848 1.218 5.831 0.899 5.831C0.612 5.831 0.324 5.848 0.035 5.863L0 5.865L0 5.828L0 5.553L0.035 5.553L0.081 5.553C0.379 5.552 0.63 5.38 0.746 5.055L2.029 1.377C2.131 1.08 2.275 0.681 2.346 0.362C2.598 0.275 2.92 0.115 3.075 0.017C3.096 0.01 3.118 0 3.151 0C3.172 -0.002 3.213 0.003 3.239 0.047C3.263 0.11 3.286 0.183 3.313 0.248L4.786 4.439C4.882 4.72 4.978 5.016 5.082 5.254C5.175 5.467 5.322 5.55 5.577 5.553L5.661 5.553L5.661 5.587L5.661 5.865L5.624 5.863ZM3.353 5.792C3.749 5.777 4.139 5.762 4.521 5.762C4.893 5.762 5.243 5.777 5.592 5.791L5.591 5.624L5.577 5.624C5.306 5.624 5.117 5.518 5.017 5.282C4.912 5.038 4.816 4.741 4.721 4.461L3.246 0.27C3.222 0.206 3.198 0.133 3.178 0.079C3.171 0.069 3.172 0.069 3.166 0.069L3.151 0.069C3.134 0.069 3.125 0.074 3.106 0.08C2.95 0.178 2.629 0.338 2.391 0.4C2.342 0.703 2.196 1.103 2.093 1.4L0.81 5.078C0.688 5.426 0.408 5.624 0.081 5.624L0.069 5.624L0.069 5.791C0.344 5.777 0.62 5.762 0.899 5.762C1.21 5.762 1.526 5.777 1.834 5.791L1.834 5.624L1.78 5.624C1.519 5.62 1.153 5.592 1.144 5.307C1.146 5.148 1.245 4.944 1.322 4.673L1.355 4.683L1.322 4.671L1.586 3.815L3.455 3.815L3.776 4.767C3.864 5.025 3.937 5.238 3.937 5.355C3.925 5.602 3.589 5.619 3.406 5.624L3.353 5.624L3.353 5.792L3.353 5.792ZM1.716 3.434L2.485 1.097L2.509 1.097L2.526 1.097L2.551 1.097L3.309 3.434L1.716 3.434ZM1.812 3.365L3.214 3.365L2.517 1.219L1.812 3.365Z" fill="rgb(33,30,31)" fill-opacity="1.000" fill-rule="nonzero" transform="matrix(1 0 0 1 108.1687 33.6458)"/><path d="M1.74 4.808C1.74 5.129 1.962 5.224 2.218 5.257C2.547 5.282 2.907 5.282 3.278 5.241C3.613 5.201 3.902 5.008 4.045 4.808C4.173 4.632 4.245 4.407 4.294 4.231L4.526 4.231C4.438 4.688 4.326 5.138 4.229 5.594C3.526 5.594 2.819 5.562 2.115 5.562C1.409 5.562 0.705 5.594 0 5.594L0 5.352L0.11 5.352C0.4 5.352 0.713 5.313 0.713 4.816L0.713 0.698C0.713 0.28 0.4 0.241 0.11 0.241L0 0.241L0 0C0.423 0 0.841 0.032 1.265 0.032C1.675 0.032 2.075 0 2.484 0L2.484 0.241L2.282 0.241C1.978 0.241 1.74 0.249 1.74 0.673L1.74 4.808Z" fill="rgb(33,30,31)" fill-opacity="1.000" fill-rule="nonzero" transform="matrix(1 0 0 1 114.076 33.8807)"/><path d="M4.265 5.662C3.559 5.662 2.854 5.63 2.151 5.63C1.445 5.63 0.74 5.662 0.034 5.662L0 5.662L0 5.628L0 5.352L0.034 5.352L0.146 5.352C0.436 5.345 0.711 5.325 0.714 4.85L0.714 0.731C0.711 0.341 0.438 0.314 0.146 0.309L0 0.309L0 0.275L0 0L0.034 0C0.46 0 0.877 0.031 1.301 0.031C1.707 0.031 2.107 0 2.519 0L2.552 0L2.552 0.034L2.552 0.309L2.519 0.309L2.318 0.309C2.007 0.318 1.814 0.303 1.808 0.707L1.808 4.843C1.81 5.141 2.006 5.222 2.256 5.257C2.398 5.267 2.546 5.273 2.7 5.273C2.896 5.273 3.1 5.263 3.307 5.241C3.634 5.203 3.915 5.014 4.053 4.823C4.176 4.652 4.247 4.432 4.295 4.257L4.302 4.23L4.329 4.23L4.604 4.23L4.597 4.273C4.506 4.731 4.396 5.179 4.299 5.635L4.292 5.662L4.265 5.662L4.265 5.662L4.265 5.662ZM4.236 5.592C4.329 5.158 4.434 4.733 4.52 4.299L4.355 4.299C4.305 4.474 4.234 4.689 4.108 4.864C3.959 5.071 3.662 5.267 3.315 5.31C3.105 5.332 2.897 5.343 2.7 5.343C2.545 5.343 2.395 5.335 2.25 5.325C1.989 5.296 1.736 5.185 1.737 4.843L1.737 0.707C1.737 0.262 2.019 0.239 2.318 0.239L2.484 0.239L2.484 0.069C2.089 0.072 1.7 0.101 1.301 0.101C0.886 0.101 0.48 0.072 0.069 0.069L0.069 0.239L0.146 0.239C0.432 0.239 0.782 0.289 0.782 0.731L0.782 4.85C0.782 5.369 0.433 5.423 0.146 5.423L0.069 5.423L0.069 5.592C0.762 5.592 1.455 5.562 2.151 5.562C2.847 5.562 3.543 5.592 4.236 5.592Z" fill="rgb(33,30,31)" fill-opacity="1.000" fill-rule="nonzero" transform="matrix(1 0 0 1 114.0401 33.8463)"/><path d="M0.844 0C1.327 0 1.687 0.371 1.687 0.847C1.687 1.32 1.327 1.688 0.844 1.688C0.361 1.688 0 1.32 0 0.847C0 0.371 0.361 0 0.844 0ZM0.844 1.531C1.221 1.531 1.511 1.208 1.511 0.847C1.511 0.483 1.226 0.158 0.844 0.158C0.465 0.158 0.174 0.483 0.174 0.847C0.174 1.208 0.465 1.531 0.844 1.531ZM0.424 1.291L0.424 1.25C0.528 1.235 0.547 1.238 0.547 1.174L0.547 0.549C0.547 0.462 0.537 0.432 0.428 0.436L0.428 0.393L0.86 0.393C1.008 0.393 1.145 0.464 1.145 0.617C1.145 0.743 1.061 0.836 0.945 0.872L1.083 1.065C1.148 1.153 1.221 1.235 1.27 1.264L1.27 1.291L1.105 1.291C1.026 1.291 0.957 1.125 0.802 0.902L0.708 0.902L0.708 1.183C0.708 1.238 0.728 1.235 0.832 1.25L0.832 1.291L0.424 1.291ZM0.708 0.847L0.808 0.847C0.917 0.847 0.968 0.764 0.968 0.631C0.968 0.497 0.889 0.449 0.802 0.449L0.708 0.449L0.708 0.847Z" fill="rgb(33,30,31)" fill-opacity="1.000" fill-rule="nonzero" transform="matrix(1 0 0 1 117.6608 33.6528)"/></svg>