<svg xmlns="http://www.w3.org/2000/svg" viewBox="0 0 60 60" width="60" height="60"><path d="M0 0L60 0L60 60L0 60L0 0Z" fill="rgb(0,121,190)" fill-opacity="1.000" fill-rule="nonzero" transform="matrix(1 0 0 1 0 0)"/><path d="M20.707 28.003C28.361 28.039 35.346 21.761 35.346 14.123C35.346 5.771 28.361 -0.003 20.707 0L14.12 0C6.375 -0.003 0 5.772 0 14.123C0 21.763 6.375 28.039 14.12 28.003L20.707 28.003Z" fill="rgb(255,255,255)" fill-opacity="1.000" fill-rule="nonzero" transform="matrix(1 0 0 1 12 16)"/><path d="M12.814 0C5.737 0.002 0.002 5.739 0 12.819C0.002 19.898 5.737 25.634 12.814 25.636C19.893 25.634 25.629 19.898 25.63 12.819C25.629 5.739 19.893 0.002 12.814 0ZM4.692 12.819C4.698 9.359 6.859 6.409 9.906 5.237L9.906 20.4C6.859 19.228 4.698 16.279 4.692 12.819ZM15.721 20.403L15.721 5.236C18.769 6.406 20.933 9.358 20.939 12.819C20.933 16.282 18.769 19.231 15.721 20.403Z" fill="rgb(0,121,190)" fill-opacity="1.000" fill-rule="nonzero" transform="matrix(1 0 0 1 13.3374 17.1572)"/></svg>