<svg xmlns="http://www.w3.org/2000/svg" viewBox="0 0 130 60" width="130" height="60"><path d="M0 0L130 0L130 60L0 60L0 0Z" fill="rgb(255,255,255)" fill-opacity="1.000" fill-rule="nonzero" transform="matrix(1 0 0 1 0 0)"/><path d="M9.732 22.551C6.802 22.551 4.677 20.486 4.677 17.64C4.677 14.916 6.856 12.698 9.535 12.698C12.25 12.698 14.297 14.852 14.297 17.706C14.297 20.423 12.291 22.551 9.732 22.551ZM18.156 0L15.217 0C14.802 0 14.463 0.338 14.463 0.751L14.463 9.802L14.46 9.846C12.998 8.753 11.368 8.262 9.242 8.262C6.853 8.262 4.717 9.079 3.068 10.625C1.118 12.405 0 14.938 0 17.575C0 20.447 1.195 23.055 3.365 24.92C4.946 26.293 6.977 27.019 9.242 27.019C11.211 27.019 12.923 26.477 14.46 25.362L14.463 25.366L14.463 25.843C14.463 26.255 14.802 26.595 15.217 26.595L18.156 26.595C18.57 26.595 18.909 26.255 18.909 25.843L18.909 0.751C18.909 0.338 18.57 0 18.156 0Z" fill="rgb(0,153,255)" fill-opacity="1.000" fill-rule="nonzero" transform="matrix(1 0 0 1 11.4277 15.4297)"/><path d="M11.468 15.518L4.446 15.518L4.446 15.514L4.446 0.751C4.446 0.338 4.107 0 3.692 0L0.753 0C0.338 0 0 0.338 0 0.751L0.008 19.194C0.008 19.608 0.346 19.946 0.761 19.946L11.468 19.946C11.89 19.946 12.223 19.598 12.223 19.186L12.223 16.268C12.223 15.855 11.884 15.518 11.468 15.518Z" fill="rgb(0,153,255)" fill-opacity="1.000" fill-rule="nonzero" transform="matrix(1 0 0 1 39.2271 15.4263)"/><path d="M18.133 22.158L4.449 22.162L4.446 0.751C4.446 0.338 4.106 0 3.692 0L0.753 0C0.339 0 0 0.338 0 0.751L0 25.813C0 26.227 0.339 26.565 0.753 26.594L18.133 26.594C18.548 26.565 18.887 26.213 18.887 25.8L18.887 22.914C18.887 22.501 18.541 22.16 18.133 22.158Z" fill="rgb(0,153,255)" fill-opacity="1.000" fill-rule="nonzero" transform="matrix(1 0 0 1 32.5592 15.427)"/><path d="M0.475 3.128C0.618 3.271 0.791 3.386 0.993 3.472C1.195 3.558 1.428 3.602 1.693 3.602C1.953 3.602 2.169 3.56 2.341 3.477C2.515 3.394 2.601 3.263 2.601 3.084C2.601 2.992 2.582 2.915 2.545 2.847C2.508 2.781 2.444 2.722 2.355 2.671C2.265 2.62 2.148 2.572 2 2.529C1.854 2.486 1.67 2.439 1.452 2.386C1.295 2.352 1.141 2.306 0.99 2.249C0.836 2.191 0.7 2.116 0.577 2.021C0.457 1.926 0.36 1.811 0.285 1.675C0.209 1.541 0.172 1.379 0.172 1.19C0.172 0.993 0.217 0.823 0.307 0.677C0.395 0.53 0.515 0.406 0.665 0.306C0.815 0.206 0.983 0.13 1.17 0.078C1.358 0.025 1.553 0 1.754 0C2.094 0 2.386 0.045 2.632 0.134C2.876 0.223 3.091 0.348 3.275 0.509L2.852 1.042C2.731 0.934 2.579 0.842 2.398 0.767C2.216 0.692 2.005 0.655 1.763 0.655C1.514 0.655 1.316 0.695 1.167 0.776C1.016 0.856 0.942 0.988 0.942 1.172C0.942 1.344 1.041 1.473 1.24 1.555C1.439 1.639 1.699 1.718 2.022 1.792C2.212 1.838 2.389 1.891 2.554 1.952C2.718 2.013 2.862 2.089 2.986 2.185C3.11 2.279 3.208 2.395 3.28 2.534C3.351 2.671 3.388 2.837 3.388 3.033C3.388 3.234 3.341 3.411 3.249 3.563C3.157 3.715 3.034 3.843 2.879 3.947C2.722 4.05 2.543 4.127 2.341 4.179C2.14 4.231 1.93 4.256 1.711 4.256C0.951 4.256 0.379 4.052 0 3.644L0.475 3.128Z" fill="rgb(0,153,255)" fill-opacity="1.000" fill-rule="nonzero" transform="matrix(1 0 0 1 86.2815 31.2102)"/><path d="M2.127 3.584C2.333 3.584 2.522 3.543 2.689 3.459C2.856 3.376 2.997 3.267 3.112 3.132C3.228 2.997 3.316 2.842 3.376 2.667C3.436 2.492 3.466 2.312 3.466 2.128C3.466 1.95 3.436 1.773 3.376 1.598C3.316 1.423 3.225 1.267 3.108 1.129C2.99 0.991 2.849 0.881 2.685 0.797C2.52 0.714 2.333 0.672 2.127 0.672C1.919 0.672 1.732 0.714 1.565 0.797C1.397 0.881 1.257 0.99 1.142 1.124C1.026 1.26 0.939 1.415 0.878 1.59C0.817 1.765 0.787 1.945 0.787 2.128C0.787 2.312 0.817 2.491 0.878 2.662C0.939 2.834 1.028 2.99 1.146 3.128C1.264 3.265 1.405 3.376 1.57 3.459C1.734 3.543 1.919 3.584 2.127 3.584ZM2.127 4.256C1.816 4.256 1.53 4.2 1.271 4.089C1.012 3.977 0.789 3.823 0.6 3.628C0.413 3.432 0.267 3.207 0.16 2.952C0.054 2.696 0 2.421 0 2.128C0 1.835 0.054 1.561 0.16 1.306C0.267 1.05 0.413 0.825 0.6 0.629C0.789 0.434 1.012 0.281 1.271 0.169C1.53 0.057 1.816 0 2.127 0C2.433 0 2.714 0.057 2.974 0.169C3.234 0.281 3.458 0.434 3.649 0.629C3.839 0.825 3.987 1.05 4.094 1.306C4.2 1.561 4.253 1.835 4.253 2.128C4.253 2.421 4.2 2.696 4.094 2.952C3.987 3.207 3.839 3.432 3.649 3.628C3.458 3.823 3.234 3.977 2.974 4.089C2.714 4.2 2.433 4.256 2.127 4.256Z" fill="rgb(0,153,255)" fill-opacity="1.000" fill-rule="nonzero" transform="matrix(1 0 0 1 90.1698 31.2103)"/><path d="M0 0L0.778 0L0.778 5.747L0 5.747L0 0Z" fill="rgb(0,153,255)" fill-opacity="1.000" fill-rule="nonzero" transform="matrix(1 0 0 1 95.0891 29.5996)"/><path d="M0 0L0.778 0L0.778 2.352C0.778 2.731 0.855 3.006 1.012 3.175C1.167 3.344 1.392 3.429 1.686 3.429C1.91 3.429 2.097 3.383 2.243 3.291C2.389 3.2 2.51 3.08 2.601 2.933C2.694 2.788 2.759 2.621 2.797 2.434C2.834 2.247 2.853 2.057 2.853 1.86L2.853 0L3.631 0L3.631 3.136L3.631 3.597C3.631 3.726 3.634 3.863 3.64 4.006L2.897 4.006L2.871 3.412C2.819 3.48 2.755 3.555 2.681 3.636C2.606 3.716 2.513 3.789 2.404 3.856C2.294 3.922 2.167 3.977 2.023 4.023C1.879 4.07 1.715 4.093 1.531 4.093C1.006 4.093 0.62 3.941 0.372 3.64C0.125 3.338 0.001 2.927 0.001 2.404L0 0Z" fill="rgb(0,153,255)" fill-opacity="1.000" fill-rule="nonzero" transform="matrix(1 0 0 1 96.6885 31.3397)"/><path d="M0.726 1.956L0 1.956L0 1.309L0.726 1.309L0.726 0L1.504 0L1.504 1.309L2.68 1.309L2.68 1.956L1.504 1.956L1.504 3.929C1.504 4.25 1.554 4.471 1.656 4.592C1.756 4.712 1.899 4.772 2.082 4.772C2.233 4.772 2.357 4.75 2.455 4.704C2.552 4.658 2.65 4.589 2.748 4.497L3.103 4.971C2.935 5.132 2.764 5.248 2.589 5.32C2.413 5.392 2.204 5.428 1.962 5.428C1.535 5.428 1.223 5.312 1.025 5.083C0.826 4.853 0.726 4.494 0.726 4.005L0.726 1.956Z" fill="rgb(0,153,255)" fill-opacity="1.000" fill-rule="nonzero" transform="matrix(1 0 0 1 100.9321 30.0306)"/><path d="M0.053 1.586L0.83 1.586L0.83 5.591L0.053 5.591L0.053 1.586ZM0 0L0.873 0L0.873 0.871L0 0.871L0 0Z" fill="rgb(0,153,255)" fill-opacity="1.000" fill-rule="nonzero" transform="matrix(1 0 0 1 104.5275 29.7542)"/><path d="M2.127 3.584C2.335 3.584 2.522 3.543 2.689 3.459C2.857 3.376 2.997 3.267 3.112 3.132C3.228 2.997 3.316 2.842 3.376 2.667C3.437 2.492 3.467 2.312 3.467 2.128C3.467 1.95 3.437 1.773 3.376 1.598C3.317 1.423 3.226 1.267 3.109 1.129C2.99 0.991 2.849 0.881 2.685 0.797C2.521 0.714 2.335 0.672 2.127 0.672C1.919 0.672 1.732 0.714 1.566 0.797C1.398 0.881 1.257 0.99 1.142 1.124C1.026 1.26 0.939 1.415 0.879 1.59C0.818 1.765 0.788 1.945 0.788 2.128C0.788 2.312 0.818 2.491 0.879 2.662C0.939 2.834 1.028 2.99 1.146 3.128C1.265 3.265 1.405 3.376 1.57 3.459C1.734 3.543 1.919 3.584 2.127 3.584ZM2.127 4.256C1.816 4.256 1.531 4.2 1.271 4.089C1.013 3.977 0.789 3.823 0.602 3.628C0.413 3.432 0.267 3.207 0.161 2.952C0.054 2.696 0 2.421 0 2.128C0 1.835 0.054 1.561 0.161 1.306C0.268 1.05 0.413 0.825 0.602 0.629C0.789 0.434 1.013 0.281 1.271 0.169C1.531 0.057 1.816 0 2.127 0C2.433 0 2.715 0.057 2.974 0.169C3.234 0.281 3.458 0.434 3.649 0.629C3.839 0.825 3.987 1.05 4.094 1.306C4.2 1.561 4.254 1.835 4.254 2.128C4.254 2.421 4.2 2.696 4.094 2.952C3.986 3.207 3.839 3.432 3.649 3.628C3.458 3.823 3.234 3.977 2.974 4.089C2.715 4.2 2.433 4.256 2.127 4.256Z" fill="rgb(0,153,255)" fill-opacity="1.000" fill-rule="nonzero" transform="matrix(1 0 0 1 106.0569 31.2103)"/><path d="M0.01 0.965L0.01 0.504C0.01 0.375 0.006 0.239 0 0.095L0.743 0.095L0.769 0.698C0.822 0.629 0.885 0.552 0.96 0.469C1.034 0.386 1.126 0.31 1.237 0.242C1.346 0.172 1.474 0.115 1.621 0.069C1.768 0.023 1.934 0 2.118 0C2.642 0 3.031 0.152 3.286 0.457C3.538 0.762 3.666 1.175 3.666 1.698L3.666 4.101L2.887 4.101L2.887 1.757C2.887 1.385 2.807 1.111 2.645 0.935C2.483 0.76 2.256 0.673 1.962 0.673C1.737 0.673 1.55 0.718 1.401 0.81C1.25 0.902 1.131 1.02 1.042 1.167C0.952 1.314 0.888 1.48 0.847 1.667C0.807 1.854 0.787 2.045 0.787 2.24L0.787 4.101L0.009 4.101L0.01 0.965Z" fill="rgb(0,153,255)" fill-opacity="1.000" fill-rule="nonzero" transform="matrix(1 0 0 1 110.9364 31.245)"/><path d="M0.476 3.128C0.62 3.271 0.793 3.386 0.995 3.472C1.196 3.558 1.429 3.602 1.695 3.602C1.954 3.602 2.169 3.56 2.343 3.477C2.516 3.394 2.603 3.263 2.603 3.084C2.603 2.992 2.584 2.915 2.546 2.847C2.508 2.781 2.445 2.722 2.356 2.671C2.267 2.62 2.148 2.572 2.002 2.529C1.854 2.486 1.671 2.439 1.452 2.386C1.297 2.352 1.143 2.306 0.991 2.249C0.837 2.191 0.701 2.116 0.58 2.021C0.459 1.926 0.36 1.811 0.286 1.675C0.21 1.541 0.173 1.379 0.173 1.19C0.173 0.993 0.217 0.823 0.307 0.677C0.396 0.53 0.517 0.406 0.666 0.306C0.815 0.206 0.984 0.13 1.171 0.078C1.36 0.025 1.553 0 1.755 0C2.096 0 2.388 0.045 2.633 0.134C2.878 0.223 3.091 0.348 3.277 0.509L2.853 1.042C2.732 0.934 2.58 0.842 2.4 0.767C2.217 0.692 2.006 0.655 1.764 0.655C1.515 0.655 1.317 0.695 1.167 0.776C1.017 0.856 0.942 0.988 0.942 1.172C0.942 1.344 1.041 1.473 1.241 1.555C1.439 1.639 1.7 1.718 2.023 1.792C2.213 1.838 2.391 1.891 2.555 1.952C2.719 2.013 2.863 2.089 2.988 2.185C3.111 2.279 3.208 2.395 3.28 2.534C3.353 2.671 3.389 2.837 3.389 3.033C3.389 3.234 3.343 3.411 3.25 3.563C3.159 3.715 3.034 3.843 2.88 3.947C2.723 4.05 2.544 4.127 2.343 4.179C2.141 4.231 1.93 4.256 1.711 4.256C0.951 4.256 0.381 4.052 0 3.644L0.476 3.128Z" fill="rgb(0,153,255)" fill-opacity="1.000" fill-rule="nonzero" transform="matrix(1 0 0 1 115.1828 31.2102)"/><path d="M0.01 0.964L0.01 0.504C0.01 0.374 0.006 0.239 0 0.095L0.744 0.095L0.77 0.698C0.822 0.629 0.886 0.552 0.961 0.47C1.037 0.386 1.13 0.31 1.239 0.242C1.348 0.172 1.476 0.115 1.623 0.069C1.771 0.023 1.936 0 2.12 0C2.645 0 3.034 0.152 3.288 0.456C3.541 0.761 3.668 1.175 3.668 1.697L3.668 4.1L2.889 4.1L2.889 1.757C2.889 1.385 2.809 1.11 2.648 0.935C2.486 0.759 2.259 0.672 1.966 0.672C1.74 0.672 1.553 0.718 1.403 0.81C1.253 0.901 1.133 1.02 1.045 1.168C0.955 1.313 0.889 1.479 0.849 1.667C0.808 1.853 0.788 2.046 0.788 2.24L0.788 4.1L0.009 4.1L0.01 0.964Z" fill="rgb(0,153,255)" fill-opacity="1.000" fill-rule="nonzero" transform="matrix(1 0 0 1 59.7949 31.2625)"/><path d="M2.739 2.232C2.716 2.226 2.672 2.219 2.606 2.21C2.539 2.202 2.464 2.194 2.377 2.188C2.291 2.184 2.198 2.177 2.1 2.171C2.002 2.166 1.906 2.163 1.815 2.163C1.596 2.163 1.418 2.188 1.284 2.24C1.147 2.292 1.041 2.357 0.963 2.435C0.886 2.512 0.832 2.598 0.804 2.693C0.774 2.788 0.76 2.878 0.76 2.964C0.76 3.183 0.835 3.348 0.984 3.459C1.135 3.571 1.342 3.628 1.607 3.628C1.757 3.628 1.899 3.601 2.035 3.55C2.17 3.498 2.291 3.429 2.394 3.344C2.498 3.257 2.582 3.157 2.644 3.042C2.707 2.927 2.739 2.809 2.739 2.689L2.739 2.232ZM2.749 3.644C2.6 3.846 2.401 3.995 2.157 4.093C1.911 4.19 1.659 4.239 1.4 4.239C1.233 4.239 1.068 4.218 0.903 4.174C0.739 4.131 0.589 4.06 0.454 3.96C0.319 3.859 0.209 3.729 0.125 3.571C0.042 3.413 0 3.22 0 2.99C0 2.559 0.15 2.215 0.454 1.956C0.756 1.697 1.192 1.569 1.764 1.569C1.856 1.569 1.954 1.572 2.057 1.577C2.161 1.584 2.259 1.588 2.352 1.594C2.443 1.601 2.524 1.605 2.593 1.611C2.662 1.618 2.711 1.623 2.74 1.629L2.74 1.482C2.74 1.183 2.649 0.969 2.469 0.84C2.287 0.71 2.04 0.646 1.728 0.646C1.423 0.646 1.181 0.688 1.003 0.771C0.825 0.855 0.675 0.939 0.553 1.025L0.19 0.5C0.259 0.443 0.342 0.385 0.441 0.328C0.538 0.27 0.654 0.216 0.786 0.168C0.919 0.119 1.069 0.079 1.236 0.047C1.403 0.015 1.596 0 1.815 0C2.334 0 2.742 0.126 3.039 0.375C3.335 0.625 3.484 0.979 3.484 1.439L3.484 3.334L3.484 3.77C3.484 3.91 3.487 4.03 3.492 4.126L2.766 4.126L2.749 3.644Z" fill="rgb(0,153,255)" fill-opacity="1.000" fill-rule="nonzero" transform="matrix(1 0 0 1 64.141 31.2362)"/><path d="M0.008 0.964L0.008 0.504C0.008 0.374 0.006 0.239 0 0.095L0.744 0.095L0.769 0.698C0.821 0.629 0.885 0.552 0.959 0.47C1.034 0.386 1.127 0.31 1.236 0.242C1.346 0.172 1.473 0.115 1.62 0.069C1.767 0.023 1.932 0 2.117 0C2.641 0 3.03 0.152 3.283 0.456C3.538 0.761 3.664 1.175 3.664 1.697L3.664 4.1L2.886 4.1L2.886 1.757C2.886 1.385 2.805 1.11 2.644 0.935C2.482 0.759 2.255 0.672 1.962 0.672C1.737 0.672 1.549 0.718 1.4 0.81C1.25 0.901 1.131 1.02 1.041 1.168C0.952 1.313 0.887 1.479 0.847 1.667C0.806 1.853 0.786 2.046 0.786 2.24L0.786 4.1L0.008 4.1L0.008 0.964Z" fill="rgb(0,153,255)" fill-opacity="1.000" fill-rule="nonzero" transform="matrix(1 0 0 1 68.4458 31.2625)"/><path d="M3.683 3.584C3.503 3.786 3.283 3.947 3.022 4.071C2.76 4.194 2.455 4.256 2.11 4.256C1.786 4.256 1.494 4.203 1.232 4.097C0.971 3.991 0.748 3.844 0.567 3.657C0.385 3.47 0.245 3.246 0.147 2.986C0.049 2.724 0 2.438 0 2.128C0 1.835 0.052 1.56 0.156 1.301C0.26 1.042 0.405 0.817 0.593 0.624C0.78 0.433 1.001 0.28 1.259 0.168C1.515 0.056 1.798 0 2.11 0C2.45 0 2.749 0.06 3.009 0.181C3.269 0.302 3.489 0.465 3.675 0.672L3.164 1.163C3.043 1.014 2.896 0.896 2.724 0.81C2.551 0.724 2.347 0.68 2.11 0.68C1.902 0.68 1.716 0.72 1.552 0.797C1.387 0.875 1.249 0.981 1.137 1.115C1.025 1.251 0.939 1.406 0.878 1.581C0.817 1.756 0.788 1.939 0.788 2.129C0.788 2.312 0.817 2.492 0.878 2.667C0.939 2.842 1.025 2.997 1.137 3.131C1.249 3.266 1.387 3.374 1.552 3.455C1.716 3.535 1.902 3.575 2.11 3.575C2.347 3.575 2.557 3.531 2.746 3.442C2.933 3.354 3.087 3.234 3.208 3.084L3.683 3.584Z" fill="rgb(0,153,255)" fill-opacity="1.000" fill-rule="nonzero" transform="matrix(1 0 0 1 72.7012 31.2281)"/><path d="M0.053 1.585L0.83 1.585L0.83 5.59L0.053 5.59L0.053 1.585ZM0 0L0.873 0L0.873 0.871L0 0.871L0 0Z" fill="rgb(0,153,255)" fill-opacity="1.000" fill-rule="nonzero" transform="matrix(1 0 0 1 77.0162 29.7724)"/><path d="M2.742 2.232C2.718 2.226 2.673 2.219 2.607 2.21C2.54 2.202 2.464 2.194 2.377 2.188C2.292 2.184 2.199 2.177 2.101 2.171C2.003 2.166 1.908 2.163 1.816 2.163C1.596 2.163 1.42 2.188 1.284 2.24C1.148 2.292 1.042 2.357 0.964 2.435C0.886 2.512 0.833 2.598 0.804 2.693C0.775 2.788 0.762 2.878 0.762 2.964C0.762 3.183 0.836 3.348 0.986 3.459C1.136 3.571 1.343 3.628 1.608 3.628C1.758 3.628 1.901 3.601 2.036 3.55C2.171 3.498 2.292 3.429 2.395 3.344C2.499 3.257 2.582 3.157 2.645 3.042C2.71 2.927 2.742 2.809 2.742 2.689L2.742 2.232ZM2.75 3.644C2.6 3.846 2.402 3.995 2.157 4.093C1.913 4.19 1.661 4.239 1.402 4.239C1.233 4.239 1.069 4.218 0.904 4.174C0.74 4.131 0.59 4.06 0.454 3.96C0.319 3.859 0.209 3.729 0.127 3.571C0.043 3.413 0 3.22 0 2.99C0 2.559 0.152 2.215 0.454 1.956C0.758 1.697 1.194 1.569 1.764 1.569C1.856 1.569 1.954 1.572 2.057 1.577C2.162 1.584 2.259 1.588 2.352 1.594C2.444 1.601 2.526 1.605 2.594 1.611C2.662 1.618 2.713 1.623 2.742 1.629L2.742 1.482C2.742 1.183 2.65 0.969 2.469 0.84C2.287 0.711 2.04 0.646 1.73 0.646C1.424 0.646 1.182 0.688 1.004 0.771C0.825 0.855 0.676 0.939 0.554 1.025L0.191 0.5C0.261 0.443 0.344 0.385 0.441 0.328C0.54 0.27 0.655 0.216 0.787 0.168C0.92 0.119 1.069 0.079 1.237 0.047C1.404 0.015 1.597 0 1.816 0C2.335 0 2.743 0.126 3.039 0.375C3.336 0.625 3.485 0.979 3.485 1.439L3.485 3.334L3.485 3.77C3.485 3.91 3.486 4.03 3.493 4.126L2.766 4.126L2.75 3.644Z" fill="rgb(0,153,255)" fill-opacity="1.000" fill-rule="nonzero" transform="matrix(1 0 0 1 78.5676 31.2362)"/><path d="M0 0L0.778 0L0.778 5.745L0 5.745L0 0Z" fill="rgb(0,153,255)" fill-opacity="1.000" fill-rule="nonzero" transform="matrix(1 0 0 1 83.0288 29.6172)"/><path d="M0.051 1.585L0.829 1.585L0.829 5.591L0.051 5.591L0.051 1.585ZM0 0L0.872 0L0.872 0.87L0 0.87L0 0Z" fill="rgb(0,153,255)" fill-opacity="1.000" fill-rule="nonzero" transform="matrix(1 0 0 1 57.9557 29.7718)"/><path d="M2.753 0.098C2.548 0.032 2.339 0 2.126 0C1.942 0 1.766 0.029 1.599 0.09C1.431 0.15 1.283 0.244 1.154 0.37C1.024 0.496 0.92 0.658 0.842 0.857C0.765 1.055 0.726 1.29 0.726 1.559L0.726 1.886L0 1.886L0 2.533L0.726 2.533L0.726 5.892L1.504 5.892L1.504 2.533L2.653 2.533L2.653 1.886L1.504 1.886L1.504 1.628C1.504 1.278 1.571 1.03 1.707 0.887C1.842 0.743 2.022 0.671 2.247 0.671C2.379 0.671 2.506 0.701 2.63 0.753L3.027 0.224C2.938 0.172 2.848 0.13 2.753 0.098Z" fill="rgb(0,153,255)" fill-opacity="1.000" fill-rule="nonzero" transform="matrix(1 0 0 1 54.4162 29.4705)"/><path d="M0.778 3.223C0.87 3.297 1.002 3.369 1.176 3.437C1.348 3.507 1.564 3.541 1.824 3.541C2.02 3.541 2.2 3.505 2.364 3.434C2.528 3.362 2.669 3.261 2.787 3.132C2.905 3.003 2.996 2.852 3.06 2.68C3.124 2.508 3.155 2.318 3.155 2.111C3.155 1.917 3.133 1.732 3.089 1.559C3.047 1.388 2.978 1.235 2.882 1.103C2.787 0.971 2.665 0.867 2.515 0.789C2.365 0.711 2.181 0.672 1.962 0.672C1.685 0.672 1.449 0.749 1.253 0.9C1.057 1.052 0.919 1.275 0.838 1.568C0.809 1.661 0.792 1.759 0.786 1.866C0.781 1.972 0.778 2.082 0.778 2.197L0.778 3.223ZM0.008 0.957L0.008 0.496C0.008 0.365 0.006 0.23 0 0.087L0.743 0.087L0.769 0.655C0.809 0.604 0.867 0.54 0.942 0.465C1.017 0.39 1.11 0.319 1.223 0.25C1.335 0.181 1.466 0.122 1.616 0.073C1.766 0.024 1.939 0 2.135 0C2.446 0 2.715 0.057 2.944 0.173C3.171 0.288 3.359 0.442 3.509 0.638C3.659 0.833 3.77 1.058 3.842 1.309C3.914 1.563 3.95 1.83 3.95 2.111C3.95 2.473 3.888 2.786 3.764 3.05C3.64 3.315 3.479 3.532 3.28 3.705C3.082 3.877 2.859 4.005 2.615 4.088C2.37 4.171 2.129 4.214 1.893 4.214C1.622 4.214 1.405 4.186 1.24 4.131C1.075 4.077 0.922 4.018 0.778 3.955L0.778 5.816L0.008 5.816L0.008 0.957Z" fill="rgb(0,153,255)" fill-opacity="1.000" fill-rule="nonzero" transform="matrix(1 0 0 1 54.8263 37.9177)"/><path d="M2.739 2.231C2.716 2.226 2.672 2.218 2.605 2.21C2.539 2.202 2.462 2.194 2.376 2.189C2.29 2.182 2.197 2.178 2.099 2.171C2.001 2.165 1.906 2.163 1.814 2.163C1.595 2.163 1.418 2.189 1.282 2.24C1.147 2.293 1.041 2.356 0.963 2.434C0.886 2.512 0.833 2.598 0.803 2.692C0.774 2.788 0.76 2.878 0.76 2.964C0.76 3.182 0.835 3.347 0.986 3.46C1.134 3.572 1.342 3.628 1.606 3.628C1.756 3.628 1.899 3.602 2.035 3.549C2.17 3.498 2.29 3.43 2.393 3.343C2.496 3.257 2.58 3.157 2.644 3.041C2.707 2.927 2.739 2.809 2.739 2.689L2.739 2.231ZM2.749 3.644C2.598 3.846 2.4 3.995 2.156 4.093C1.911 4.19 1.659 4.239 1.399 4.239C1.232 4.239 1.068 4.218 0.903 4.175C0.739 4.131 0.59 4.06 0.455 3.96C0.318 3.859 0.209 3.729 0.126 3.571C0.042 3.413 0 3.22 0 2.989C0 2.559 0.152 2.214 0.454 1.956C0.756 1.698 1.192 1.568 1.762 1.568C1.855 1.568 1.953 1.571 2.056 1.576C2.161 1.583 2.259 1.587 2.35 1.593C2.442 1.6 2.523 1.604 2.592 1.61C2.661 1.617 2.71 1.623 2.739 1.629L2.739 1.481C2.739 1.184 2.649 0.969 2.468 0.84C2.286 0.711 2.039 0.646 1.728 0.646C1.423 0.646 1.181 0.687 1.003 0.771C0.824 0.854 0.675 0.939 0.553 1.025L0.19 0.499C0.259 0.442 0.343 0.385 0.441 0.328C0.539 0.27 0.654 0.217 0.786 0.168C0.919 0.119 1.069 0.078 1.236 0.047C1.402 0.015 1.595 0 1.814 0C2.333 0 2.741 0.125 3.037 0.375C3.335 0.624 3.482 0.979 3.482 1.439L3.482 3.334L3.482 3.769C3.482 3.91 3.486 4.029 3.492 4.127L2.766 4.127L2.749 3.644Z" fill="rgb(0,153,255)" fill-opacity="1.000" fill-rule="nonzero" transform="matrix(1 0 0 1 59.2517 37.8833)"/><path d="M0.01 0.879L0.01 0.444C0.01 0.321 0.006 0.193 0 0.061L0.743 0.061L0.769 0.707C0.817 0.639 0.876 0.562 0.951 0.48C1.026 0.396 1.116 0.32 1.224 0.251C1.331 0.181 1.454 0.123 1.595 0.074C1.737 0.025 1.899 0 2.084 0C2.17 0 2.249 0.006 2.322 0.018C2.394 0.029 2.461 0.047 2.524 0.069L2.352 0.793C2.247 0.753 2.116 0.733 1.954 0.733C1.787 0.733 1.633 0.764 1.492 0.827C1.35 0.891 1.228 0.979 1.123 1.091C1.021 1.203 0.939 1.333 0.878 1.482C0.818 1.632 0.787 1.79 0.787 1.956L0.787 4.067L0.009 4.067L0.01 0.879Z" fill="rgb(0,153,255)" fill-opacity="1.000" fill-rule="nonzero" transform="matrix(1 0 0 1 63.5297 37.9432)"/><path d="M0.521 1.956L0 1.956L0 1.31L0.521 1.31L0.521 0L1.299 0L1.299 1.31L2.474 1.31L2.474 1.956L1.299 1.956L1.299 3.929C1.299 4.25 1.349 4.472 1.449 4.592C1.55 4.712 1.694 4.774 1.877 4.774C2.028 4.774 2.151 4.75 2.25 4.704C2.348 4.658 2.446 4.589 2.543 4.497L2.898 4.971C2.731 5.131 2.559 5.249 2.384 5.32C2.207 5.391 1.998 5.428 1.757 5.428C1.33 5.428 1.017 5.314 0.819 5.083C0.62 4.853 0.521 4.495 0.521 4.006L0.521 1.956Z" fill="rgb(0,153,255)" fill-opacity="1.000" fill-rule="nonzero" transform="matrix(1 0 0 1 66.4254 36.6945)"/><path d="M0.008 0.964L0.008 0.504C0.008 0.374 0.005 0.238 0 0.095L0.743 0.095L0.769 0.698C0.821 0.629 0.884 0.552 0.959 0.469C1.034 0.387 1.126 0.31 1.235 0.242C1.344 0.172 1.473 0.115 1.619 0.068C1.767 0.022 1.931 0 2.117 0C2.641 0 3.03 0.153 3.283 0.456C3.537 0.761 3.663 1.175 3.663 1.697L3.663 4.101L2.885 4.101L2.885 1.757C2.885 1.385 2.804 1.11 2.644 0.934C2.482 0.759 2.255 0.672 1.961 0.672C1.736 0.672 1.549 0.718 1.398 0.81C1.249 0.901 1.131 1.02 1.041 1.168C0.951 1.313 0.886 1.481 0.847 1.667C0.806 1.853 0.787 2.046 0.787 2.24L0.787 4.101L0.008 4.101L0.008 0.964Z" fill="rgb(0,153,255)" fill-opacity="1.000" fill-rule="nonzero" transform="matrix(1 0 0 1 69.869 37.9096)"/><path d="M3.164 1.774C3.14 1.465 3.031 1.201 2.835 0.982C2.639 0.764 2.362 0.655 2.005 0.655C1.821 0.655 1.655 0.687 1.508 0.75C1.361 0.813 1.236 0.896 1.132 0.999C1.028 1.102 0.948 1.222 0.891 1.357C0.833 1.492 0.801 1.631 0.795 1.774L3.164 1.774ZM3.864 3.541C3.818 3.593 3.748 3.659 3.656 3.739C3.564 3.819 3.444 3.897 3.297 3.972C3.15 4.047 2.978 4.111 2.779 4.165C2.58 4.22 2.354 4.248 2.101 4.248C1.789 4.248 1.504 4.195 1.244 4.092C0.985 3.988 0.763 3.843 0.579 3.653C0.395 3.464 0.252 3.236 0.15 2.972C0.051 2.708 0 2.415 0 2.093C0 1.8 0.049 1.527 0.147 1.271C0.245 1.015 0.383 0.794 0.561 0.606C0.74 0.421 0.952 0.273 1.197 0.164C1.443 0.054 1.712 0 2.005 0C2.351 0 2.648 0.066 2.896 0.198C3.143 0.33 3.347 0.505 3.505 0.724C3.664 0.941 3.779 1.192 3.855 1.473C3.93 1.754 3.968 2.047 3.968 2.352L0.795 2.352C0.801 2.53 0.84 2.693 0.912 2.843C0.984 2.992 1.081 3.121 1.201 3.231C1.323 3.34 1.461 3.426 1.616 3.489C1.772 3.552 1.936 3.584 2.109 3.584C2.449 3.584 2.728 3.527 2.948 3.411C3.166 3.296 3.325 3.185 3.423 3.075L3.864 3.541Z" fill="rgb(0,153,255)" fill-opacity="1.000" fill-rule="nonzero" transform="matrix(1 0 0 1 74.153 37.8837)"/><path d="M0.008 0.879L0.008 0.444C0.008 0.321 0.005 0.193 0 0.061L0.742 0.061L0.769 0.707C0.815 0.639 0.875 0.562 0.95 0.48C1.026 0.396 1.117 0.32 1.223 0.251C1.33 0.181 1.453 0.123 1.594 0.074C1.736 0.025 1.898 0 2.083 0C2.169 0 2.248 0.006 2.321 0.018C2.393 0.029 2.46 0.047 2.523 0.069L2.351 0.793C2.247 0.753 2.114 0.733 1.953 0.733C1.786 0.733 1.631 0.764 1.491 0.827C1.349 0.891 1.228 0.979 1.122 1.091C1.02 1.203 0.937 1.333 0.876 1.482C0.817 1.632 0.786 1.79 0.786 1.956L0.786 4.067L0.008 4.067L0.008 0.879Z" fill="rgb(0,153,255)" fill-opacity="1.000" fill-rule="nonzero" transform="matrix(1 0 0 1 78.7555 37.9432)"/></svg>