<svg xmlns="http://www.w3.org/2000/svg" viewBox="0 0 60 60" width="60" height="60"><path d="M0 0L60 0L60 60L0 60L0 0Z" fill="rgb(0,153,255)" fill-opacity="1.000" fill-rule="nonzero" transform="matrix(1 0 0 1 0 0)"/><path d="M9.732 22.551C6.802 22.551 4.677 20.486 4.677 17.64C4.677 14.916 6.856 12.698 9.535 12.698C12.25 12.698 14.297 14.852 14.297 17.706C14.297 20.423 12.291 22.551 9.732 22.551ZM18.156 0L15.217 0C14.802 0 14.463 0.338 14.463 0.751L14.463 9.802L14.46 9.846C12.998 8.753 11.368 8.262 9.242 8.262C6.853 8.262 4.717 9.079 3.068 10.625C1.118 12.405 0 14.938 0 17.575C0 20.447 1.195 23.055 3.365 24.92C4.946 26.293 6.977 27.019 9.242 27.019C11.211 27.019 12.923 26.477 14.46 25.362L14.463 25.366L14.463 25.843C14.463 26.255 14.802 26.595 15.217 26.595L18.156 26.595C18.57 26.595 18.909 26.255 18.909 25.843L18.909 0.751C18.909 0.338 18.57 0 18.156 0Z" fill="rgb(255,255,255)" fill-opacity="1.000" fill-rule="nonzero" transform="matrix(1 0 0 1 10 16.0034)"/><path d="M11.468 15.518L4.446 15.518L4.446 15.514L4.446 0.751C4.446 0.338 4.107 0 3.692 0L0.753 0C0.338 0 0 0.338 0 0.751L0.008 19.194C0.008 19.608 0.346 19.946 0.761 19.946L11.468 19.946C11.89 19.946 12.223 19.598 12.223 19.186L12.223 16.268C12.223 15.855 11.884 15.518 11.468 15.518Z" fill="rgb(255,255,255)" fill-opacity="1.000" fill-rule="nonzero" transform="matrix(1 0 0 1 37.7993 16)"/><path d="M18.133 22.158L4.449 22.162L4.446 0.751C4.446 0.338 4.106 0 3.692 0L0.753 0C0.339 0 0 0.338 0 0.751L0 25.813C0 26.227 0.339 26.565 0.753 26.594L18.133 26.594C18.548 26.565 18.887 26.213 18.887 25.8L18.887 22.914C18.887 22.501 18.541 22.16 18.133 22.158Z" fill="rgb(255,255,255)" fill-opacity="1.000" fill-rule="nonzero" transform="matrix(1 0 0 1 31.1313 16.0005)"/></svg>