<svg xmlns="http://www.w3.org/2000/svg" viewBox="0 0 60 60" width="60" height="60"><path d="M0 0L60 0L60 60L0 60L0 0Z" fill="rgb(255,255,255)" fill-opacity="1.000" fill-rule="nonzero" transform="matrix(1 0 0 1 0 0)"/><path d="M17.843 14.77L17.432 14.77C17.139 14.817 16.839 14.795 16.556 14.705C16.274 14.615 16.017 14.459 15.807 14.251C15.597 14.043 15.44 13.788 15.349 13.508C15.258 13.228 15.236 12.931 15.284 12.641L15.284 5.886C15.33 5.481 15.247 5.072 15.047 4.715C14.669 4.476 14.219 4.372 13.773 4.419C12.457 4.419 12.211 4.654 12.211 5.886L12.211 12.641C12.26 12.932 12.239 13.23 12.149 13.512C12.059 13.793 11.902 14.049 11.692 14.258C11.482 14.468 11.225 14.624 10.941 14.715C10.658 14.806 10.356 14.828 10.063 14.78L9.806 14.78C9.513 14.827 9.213 14.805 8.93 14.715C8.647 14.625 8.391 14.469 8.181 14.261C7.971 14.053 7.814 13.799 7.723 13.519C7.632 13.239 7.609 12.941 7.657 12.651L7.657 5.897C7.706 5.512 7.638 5.122 7.462 4.776C7.084 4.527 6.628 4.422 6.177 4.481C5.722 4.418 5.26 4.527 4.882 4.786C4.677 5.137 4.594 5.545 4.646 5.948L4.646 12.702C4.673 12.991 4.641 13.283 4.551 13.56C4.461 13.837 4.315 14.092 4.122 14.311C3.901 14.504 3.643 14.65 3.364 14.741C3.085 14.832 2.79 14.866 2.498 14.841L2.169 14.841C1.875 14.867 1.579 14.835 1.298 14.746C1.018 14.657 0.758 14.512 0.535 14.321C0.342 14.102 0.196 13.847 0.106 13.57C0.016 13.293 -0.017 13.001 0.01 12.712L0.01 5.907C-0.037 5.12 0.076 4.333 0.343 3.591C0.61 2.849 1.024 2.167 1.562 1.587C2.187 1.036 2.915 0.614 3.706 0.344C4.496 0.075 5.333 -0.036 6.167 0.019C7.555 -0.07 8.925 0.375 9.991 1.261C11.051 0.38 12.411 -0.068 13.794 0.008C17.812 0.008 19.96 2.046 19.96 5.876L19.96 12.63C20.009 12.913 19.99 13.203 19.906 13.478C19.821 13.752 19.673 14.003 19.474 14.211C19.274 14.418 19.028 14.577 18.756 14.674C18.484 14.771 18.192 14.804 17.905 14.77" fill="rgb(32,42,208)" fill-opacity="1.000" fill-rule="nonzero" transform="matrix(1 0 0 1 28.6912 21.8104)"/><path d="M13.72 9.276C8.823 9.201 4.151 7.226 0.707 3.775L0.492 3.571C0.177 3.253 0 2.825 0 2.379C0 1.934 0.177 1.506 0.492 1.188L1.201 0.495C1.358 0.338 1.544 0.214 1.75 0.129C1.955 0.044 2.176 0 2.398 0C2.621 0 2.841 0.044 3.047 0.129C3.252 0.214 3.439 0.338 3.596 0.495L3.822 0.709C6.48 3.374 10.093 4.89 13.874 4.926C15.725 4.935 17.56 4.579 19.271 3.879C20.982 3.18 22.537 2.151 23.844 0.851L24.204 0.505C24.36 0.348 24.547 0.224 24.752 0.139C24.958 0.054 25.178 0.01 25.401 0.01C25.624 0.01 25.844 0.054 26.05 0.139C26.255 0.224 26.442 0.348 26.598 0.505L27.308 1.198C27.623 1.516 27.799 1.944 27.799 2.39C27.799 2.835 27.623 3.263 27.308 3.582L26.948 3.928C25.217 5.652 23.154 7.014 20.881 7.932C18.609 8.851 16.174 9.308 13.72 9.276Z" fill="rgb(32,42,208)" fill-opacity="1.000" fill-rule="nonzero" transform="matrix(1 0 0 1 18.0765 39.7223)"/><path d="M9.569 18.724C9.569 19.4 9.298 20.047 8.816 20.525C8.335 21.003 7.681 21.271 6.999 21.271C6.318 21.271 5.664 21.003 5.183 20.525C4.701 20.047 4.43 19.4 4.43 18.724C4.47 18.28 4.608 17.851 4.834 17.465C5.059 17.08 5.367 16.748 5.735 16.493C6.095 16.218 7.37 15.474 9.548 14.221L9.569 18.724ZM14.02 1.925C14.021 1.673 13.972 1.423 13.875 1.189C13.779 0.956 13.637 0.743 13.457 0.565C13.278 0.386 13.064 0.244 12.829 0.147C12.594 0.05 12.342 0 12.087 0L11.501 0C11.247 0 10.995 0.05 10.76 0.147C10.524 0.244 10.311 0.386 10.131 0.565C9.952 0.743 9.81 0.956 9.713 1.189C9.617 1.423 9.568 1.673 9.569 1.925L9.569 9.148C7.267 10.326 5.043 11.646 2.909 13.101C2.03 13.76 1.313 14.607 0.809 15.579C0.306 16.551 0.029 17.622 0 18.714C0 20.557 0.739 22.324 2.053 23.627C3.368 24.93 5.151 25.662 7.01 25.662C8.869 25.662 10.652 24.93 11.966 23.627C13.281 22.324 14.02 20.557 14.02 18.714L14.02 1.925Z" fill="rgb(32,42,208)" fill-opacity="1.000" fill-rule="nonzero" transform="matrix(1 0 0 1 12 11)"/><path d="M3.69 1.46L3.402 0.971C3.15 0.529 2.731 0.205 2.237 0.07C1.744 -0.066 1.217 -0.002 0.771 0.248L0 0.675L0 5.769L2.94 4.109C3.162 3.984 3.357 3.817 3.514 3.617C3.671 3.417 3.787 3.189 3.855 2.944C3.922 2.7 3.941 2.445 3.909 2.194C3.877 1.943 3.796 1.7 3.669 1.48" fill="rgb(32,42,208)" fill-opacity="1.000" fill-rule="nonzero" transform="matrix(1 0 0 1 27.0471 16.3656)"/></svg>