<svg xmlns="http://www.w3.org/2000/svg" viewBox="0 0 130 60" width="130" height="60"><path d="M0 0L130 0L130 60L0 60L0 0Z" fill="rgb(255,255,255)" fill-opacity="1.000" fill-rule="nonzero" transform="matrix(1 0 0 1 0 0)"/><path d="M26.535 16.739L30.017 16.739L30.017 13.257L26.535 13.257L26.535 16.739ZM16.739 0L13.257 0L13.257 3.479L16.739 3.479L16.739 0ZM13.267 30L16.75 30L16.75 26.518L13.267 26.518L13.267 30ZM0 16.739L3.482 16.739L3.482 13.257L0 13.257L0 16.739ZM22.367 7.154L22.367 4.165L25.849 4.165L25.849 7.644L22.856 7.644C22.816 7.644 22.776 7.652 22.739 7.667C22.702 7.682 22.668 7.705 22.64 7.734C22.612 7.762 22.59 7.796 22.574 7.834C22.559 7.871 22.552 7.911 22.552 7.951L22.552 12.68L19.408 12.68C19.165 12.68 18.932 12.776 18.759 12.947C18.587 13.119 18.49 13.352 18.489 13.595L18.489 16.402C18.489 16.644 18.586 16.877 18.757 17.049C18.929 17.221 19.162 17.317 19.404 17.317L22.552 17.317L22.552 22.046C22.552 22.126 22.584 22.204 22.641 22.261C22.698 22.318 22.776 22.35 22.856 22.35L25.849 22.35L25.849 25.832L22.367 25.832L22.367 22.839C22.366 22.759 22.333 22.681 22.275 22.624C22.218 22.567 22.14 22.535 22.059 22.535L17.331 22.535L17.331 19.394C17.331 19.152 17.234 18.919 17.062 18.747C16.891 18.575 16.658 18.479 16.415 18.479L13.608 18.479C13.488 18.479 13.369 18.503 13.257 18.549C13.146 18.595 13.045 18.663 12.96 18.748C12.875 18.834 12.808 18.935 12.762 19.046C12.716 19.158 12.693 19.277 12.693 19.398L12.693 22.539L7.964 22.539C7.924 22.539 7.884 22.547 7.847 22.562C7.81 22.578 7.777 22.601 7.748 22.629C7.72 22.658 7.698 22.692 7.683 22.729C7.668 22.766 7.66 22.806 7.66 22.846L7.66 25.835L4.178 25.835L4.178 22.353L7.171 22.353C7.251 22.353 7.329 22.321 7.386 22.264C7.443 22.207 7.475 22.13 7.475 22.049L7.475 17.32L10.619 17.32C10.862 17.32 11.095 17.224 11.266 17.052C11.438 16.881 11.535 16.648 11.535 16.405L11.535 13.598C11.535 13.356 11.438 13.123 11.266 12.951C11.095 12.779 10.862 12.683 10.619 12.683L7.475 12.683L7.475 7.954C7.475 7.873 7.443 7.796 7.386 7.738C7.329 7.681 7.252 7.648 7.171 7.647L4.178 7.647L4.178 4.168L7.66 4.168L7.66 7.157C7.66 7.238 7.692 7.315 7.749 7.372C7.806 7.429 7.884 7.461 7.964 7.461L12.693 7.461L12.693 10.606C12.693 10.726 12.717 10.845 12.763 10.956C12.809 11.067 12.876 11.168 12.961 11.253C13.046 11.338 13.147 11.405 13.258 11.451C13.369 11.497 13.488 11.521 13.608 11.521L16.415 11.521C16.658 11.521 16.891 11.425 17.062 11.253C17.234 11.081 17.331 10.848 17.331 10.606L17.331 7.461L22.059 7.461C22.099 7.462 22.139 7.454 22.177 7.439C22.214 7.424 22.248 7.402 22.276 7.373C22.305 7.345 22.328 7.311 22.343 7.274C22.359 7.237 22.367 7.197 22.367 7.157" fill="rgb(0,216,216)" fill-opacity="1.000" fill-rule="nonzero" transform="matrix(1 0 0 1 14 15)"/><path d="M0 18.178L8.826 18.178C13.852 18.178 17.608 14.27 17.608 9.076C17.608 3.881 13.838 0 8.826 0L0 0L0 18.178ZM2.432 15.973L2.432 2.206L8.687 2.206C12.372 2.206 15.166 5.168 15.166 9.076C15.166 12.984 12.372 15.983 8.687 15.983L2.432 15.973ZM26.447 18.459C27.883 18.486 29.294 18.086 30.501 17.308C31.709 16.53 32.657 15.411 33.226 14.092C33.794 12.773 33.957 11.315 33.694 9.903C33.431 8.491 32.753 7.19 31.748 6.165C30.742 5.14 29.454 4.437 28.048 4.147C26.641 3.856 25.18 3.991 23.851 4.534C22.521 5.077 21.384 6.004 20.583 7.196C19.782 8.388 19.354 9.791 19.354 11.227C19.335 12.17 19.505 13.108 19.853 13.984C20.202 14.861 20.721 15.659 21.382 16.332C22.042 17.006 22.83 17.541 23.7 17.906C24.57 18.271 25.503 18.459 26.447 18.459ZM26.447 16.253C23.745 16.253 21.586 14.047 21.586 11.227C21.586 8.407 23.738 6.201 26.447 6.201C29.156 6.201 31.304 8.407 31.304 11.227C31.304 14.047 29.156 16.253 26.447 16.253ZM51.104 18.178L53.339 18.178L53.339 11.541C53.339 11.465 53.369 11.392 53.423 11.338C53.477 11.284 53.55 11.254 53.626 11.254L54.927 11.254C54.971 11.254 55.015 11.264 55.054 11.283C55.094 11.302 55.13 11.331 55.157 11.366L60.375 18.178L62.834 18.178L57.163 10.916L62.27 4.273L59.868 4.273L55.139 10.582C55.112 10.617 55.078 10.646 55.038 10.666C54.998 10.686 54.955 10.696 54.91 10.697L53.609 10.697C53.572 10.697 53.534 10.69 53.5 10.675C53.465 10.661 53.433 10.639 53.407 10.613C53.38 10.586 53.359 10.555 53.344 10.52C53.329 10.485 53.323 10.448 53.323 10.41L53.323 0L51.086 0L51.104 18.178ZM37.448 11.227C37.448 8.407 39.542 6.201 42.197 6.201C43.226 6.193 44.228 6.526 45.049 7.147C45.869 7.768 46.462 8.644 46.733 9.636L48.938 9.636C48.263 6.397 45.618 3.996 42.21 3.996C38.299 3.996 35.229 7.177 35.229 11.227C35.229 15.277 38.299 18.459 42.21 18.459C45.618 18.459 48.269 16.057 48.938 12.818L46.733 12.818C46.462 13.809 45.872 14.682 45.055 15.303C44.236 15.924 43.237 16.258 42.21 16.253C39.555 16.253 37.461 14.047 37.461 11.227" fill="rgb(0,216,216)" fill-opacity="1.000" fill-rule="nonzero" transform="matrix(1 0 0 1 52.7217 20.9108)"/></svg>