<svg xmlns="http://www.w3.org/2000/svg" viewBox="0 0 60 60" width="60" height="60"><path d="M0 0L60 0L60 60L0 60L0 0Z" fill="rgb(255,79,14)" fill-opacity="1.000" fill-rule="nonzero" transform="matrix(1 0 0 1 0 0)"/><path d="M11.286 10.569C11.375 8.068 9.717 6.094 7.054 6.094C6.778 6.094 6.494 6.13 6.213 6.191L11.022 0L1.676 0L1.676 2.343L6.271 2.343L0 10.569L3.016 10.569C4.003 9.23 5.185 8.314 6.613 8.314C8.042 8.314 8.765 9.195 8.712 10.569L11.286 10.569Z" fill="rgb(18,18,18)" fill-opacity="1.000" fill-rule="nonzero" transform="matrix(1 0 0 1 41.4376 25.7877)"/><path d="M10.034 6.13L10.034 3.787L6.613 3.787L6.613 3.1C6.613 1.198 5.361 0 3.351 0C1.34 0 0 1.268 0 3.083C0 5.02 1.34 6.13 3.65 6.13L4.073 6.13L4.073 11.221C4.073 13.387 5.202 14.62 7.477 14.62C8.271 14.62 8.905 14.497 9.258 14.321L9.258 12.119C8.941 12.242 8.588 12.331 8.094 12.331C7.036 12.331 6.613 11.767 6.613 10.781L6.613 6.13L10.034 6.13L10.034 6.13ZM3.421 3.787C2.769 3.787 2.381 3.47 2.381 2.924C2.381 2.43 2.716 2.096 3.192 2.096C3.739 2.096 4.074 2.483 4.074 3.117L4.074 3.787L3.422 3.787L3.421 3.787Z" fill="rgb(18,18,18)" fill-opacity="1.000" fill-rule="nonzero" transform="matrix(1 0 0 1 30.982 22)"/><path d="M6.262 0.039C2.525 -0.374 -0.374 2.521 0.039 6.253C0.301 8.618 2.482 10.797 4.849 11.058C8.586 11.471 11.483 8.577 11.07 4.844C10.809 2.48 8.628 0.301 6.262 0.039Z" fill="rgb(18,18,18)" fill-opacity="1.000" fill-rule="nonzero" transform="matrix(1 0 0 1 20.2608 25.5232)"/><path d="M11.462 0L8.922 0L8.922 2.643C8.922 3.867 8.885 4.414 8.769 5.45C7.792 3.929 6.369 3.259 4.708 3.259C1.675 3.259 0 5.848 0 8.738C0 11.627 1.675 14.357 4.708 14.357C6.371 14.357 7.795 13.686 8.772 12.162C8.901 13.158 8.923 13.665 8.923 14.092L11.462 14.092L11.462 13.564C11.462 11.85 11.164 10.137 10.77 8.755C11.206 7.383 11.462 5.762 11.462 2.819L11.462 0.001L11.462 0ZM4.955 11.926C3.297 11.926 2.574 10.393 2.574 8.738C2.574 7.17 3.297 5.69 4.955 5.69C6.224 5.69 7.406 6.87 7.97 8.738C7.406 10.693 6.224 11.926 4.955 11.926Z" fill="rgb(18,18,18)" fill-opacity="1.000" fill-rule="nonzero" transform="matrix(1 0 0 1 7.2725 22.2643)"/></svg>