<svg xmlns="http://www.w3.org/2000/svg" viewBox="0 0 130 60" width="130" height="60"><path d="M0 0L130 0L130 60L0 60L0 0Z" fill="rgb(255,255,255)" fill-opacity="1.000" fill-rule="nonzero" transform="matrix(1 0 0 1 0 0)"/><path d="M0 0L0 5.968L14.437 10.47L28.87 5.968L28.87 0L14.437 4.502L0 0Z" fill="rgb(147,193,45)" fill-opacity="1.000" fill-rule="nonzero" transform="matrix(1 0 0 1 13 32.5301)"/><path d="M14.437 4.502L0 0L0 5.968L14.437 10.47L23.085 7.773L23.085 9.57L14.437 12.267L0 7.765L0 13.733L14.437 18.235L28.87 13.733L28.87 13.593L28.87 7.765L28.87 5.968L28.87 2.473L28.87 0L14.437 4.502Z" fill="rgb(147,193,45)" fill-opacity="1.000" fill-rule="nonzero" transform="matrix(1 0 0 1 13 17)"/><path d="M8.611 0.224L8.611 8.415L6.365 8.415L6.365 7.195C5.898 8.096 4.859 8.639 3.687 8.639C1.555 8.639 0 6.857 0 4.319C0 1.782 1.555 0 3.687 0C4.859 0 5.898 0.547 6.365 1.447L6.365 0.228L8.611 0.228L8.611 0.224ZM4.362 2.055C3.095 2.055 2.31 2.956 2.31 4.319C2.31 5.683 3.095 6.584 4.362 6.584C5.629 6.584 6.414 5.683 6.414 4.319C6.414 2.956 5.629 2.055 4.362 2.055Z" fill="rgb(238,244,229)" fill-opacity="1.000" fill-rule="nonzero" transform="matrix(1 0 0 1 87.7452 27.3331)"/><path d="M8.322 9.349L8.322 11.469L0.129 11.469L0.129 9.703L4.138 5.961C5.42 4.756 5.823 4.129 5.823 3.438C5.823 2.617 5.261 2.12 4.362 2.12C3.384 2.12 2.469 2.731 1.843 3.951L0 2.826C0.819 1.03 2.356 0 4.347 0C6.657 0 8.178 1.398 8.178 3.324C8.178 4.479 7.647 5.508 6.319 6.747L3.528 9.349L8.322 9.349Z" fill="rgb(238,244,229)" fill-opacity="1.000" fill-rule="nonzero" transform="matrix(1 0 0 1 63.4848 24.2787)"/><path d="M7.647 8.415L5.371 8.415L5.371 3.647C5.371 2.572 4.939 2.074 3.975 2.074C2.902 2.074 2.276 2.701 2.276 3.791L2.276 8.418L0 8.418L0 0.224L2.23 0.224L2.23 1.413C2.678 0.528 3.641 0 4.844 0C6.593 0 7.651 1.109 7.651 3.051L7.651 8.415L7.647 8.415Z" fill="rgb(238,244,229)" fill-opacity="1.000" fill-rule="nonzero" transform="matrix(1 0 0 1 98.5256 27.3331)"/><path d="M3.126 8.449L2.276 8.449L2.276 11.754L0 11.754L0 0L2.276 0L2.276 6.47L3.175 6.47L5.386 3.563L8.064 3.563L5.034 7.45L8.129 11.754L5.451 11.754L3.126 8.449Z" fill="rgb(238,244,229)" fill-opacity="1.000" fill-rule="nonzero" transform="matrix(1 0 0 1 108.2739 23.9938)"/><path d="M5.58 11.241L0 11.241L0 0L5.197 0C7.378 0 8.724 1.14 8.724 2.94C8.724 4.224 8.019 5.11 6.782 5.478C8.273 5.782 9.138 6.747 9.138 8.225C9.142 10.086 7.776 11.241 5.58 11.241ZM2.34 2.025L2.34 4.532L4.521 4.532C5.788 4.532 6.3 4.114 6.3 3.263C6.3 2.412 5.804 2.025 4.521 2.025L2.34 2.025ZM4.905 6.519L2.34 6.519L2.34 9.216L4.905 9.216C6.172 9.216 6.684 8.798 6.684 7.883C6.687 6.971 6.172 6.519 4.905 6.519Z" fill="rgb(238,244,229)" fill-opacity="1.000" fill-rule="nonzero" transform="matrix(1 0 0 1 77.2267 24.5066)"/><path d="M8.262 9.106L8.262 11.241L0 11.241L0 0L8.098 0L8.098 2.135L2.359 2.135L2.359 4.513L7.715 4.513L7.715 6.633L2.359 6.633L2.359 9.106L8.262 9.106Z" fill="rgb(238,244,229)" fill-opacity="1.000" fill-rule="nonzero" transform="matrix(1 0 0 1 53.8763 24.5066)"/></svg>