<svg xmlns="http://www.w3.org/2000/svg" viewBox="0 0 60 60" width="60" height="60"><path d="M0 0L60 0L60 60L0 60L0 0Z" fill="rgb(147,193,45)" fill-opacity="1.000" fill-rule="nonzero" transform="matrix(1 0 0 1 0 0)"/><path d="M0 0L0 5.968L14.437 10.47L28.87 5.968L28.87 0L14.437 4.502L0 0Z" fill="rgb(255,255,255)" fill-opacity="1.000" fill-rule="nonzero" transform="matrix(1 0 0 1 16 32.53)"/><path d="M14.437 4.502L0 0L0 5.968L14.437 10.47L23.085 7.773L23.085 9.57L14.437 12.267L0 7.765L0 13.733L14.437 18.235L28.87 13.733L28.87 13.593L28.87 7.765L28.87 5.968L28.87 2.473L28.87 0L14.437 4.502Z" fill="rgb(255,255,255)" fill-opacity="1.000" fill-rule="nonzero" transform="matrix(1 0 0 1 16 17)"/></svg>