<svg xmlns="http://www.w3.org/2000/svg" viewBox="0 0 130 60" width="130" height="60"><path d="M0 0L130 0L130 60L0 60L0 0Z" fill="rgb(255,255,255)" fill-opacity="1.000" fill-rule="nonzero" transform="matrix(1 0 0 1 0 0)"/><path d="M0 3.331C2.39 1.257 5.511 0 8.925 0C16.448 0 22.547 6.099 22.547 13.623C22.547 15.659 22.1 17.592 21.297 19.327C18.309 12.126 10.327 5.854 0 3.331Z" fill="rgb(30,40,81)" fill-opacity="1.000" fill-rule="nonzero" transform="matrix(1 0 0 1 16.6963 15)"/><path d="M1.224 0C0.437 1.721 0 3.635 0 5.651C0 13.175 6.099 19.274 13.623 19.274C18.2 19.274 22.252 17.014 24.723 13.55C24.167 12.906 23.476 12.259 22.616 11.664C19.022 9.178 13.851 8.504 7.234 9.65C5.408 7.294 3.668 5.034 2.112 3.007C13.852 3.474 19.898 7.248 22.935 10.445C23.804 11.361 24.478 12.278 25.002 13.142C25.133 12.945 25.256 12.746 25.376 12.542C24.862 11.738 24.222 10.895 23.421 10.048C21.3 7.801 18.495 6.013 15.087 4.732C11.318 3.316 7.606 2.594 3.033 2.363C2.394 1.528 1.788 0.739 1.224 0.002L1.224 0ZM11.382 9.784C15.908 9.514 19.55 10.312 22.244 12.169C22.758 12.523 23.209 12.901 23.603 13.285C21.235 12.438 18.49 11.903 13.917 12.959C13.017 11.82 11.875 10.397 11.38 9.784L11.382 9.784Z" fill="rgb(30,40,81)" fill-opacity="1.000" fill-rule="nonzero" transform="matrix(1 0 0 1 12 22.9712)"/><path d="M0 22.257L3.932 22.257L5.879 0L1.946 0L0 22.257Z" fill="rgb(30,40,81)" fill-opacity="1.000" fill-rule="nonzero" transform="matrix(1 0 0 1 97.1749 17.5702)"/><path d="M12.469 0.389L12.343 1.828C11.459 0.638 10.077 0 8.318 0C4.226 0 1.073 3.388 0.65 8.239C0.219 13.153 2.58 16.206 6.81 16.206C8.66 16.206 10.192 15.623 11.231 14.562L11.176 15.19C10.991 17.316 9.59 18.922 6.965 18.922C5.082 18.922 4.173 18.015 3.846 16.748L0 16.748L0.009 16.855C0.295 20.136 2.982 22.257 6.852 22.257C11.421 22.257 14.747 19.32 15.13 14.95L16.404 0.389L12.47 0.389L12.469 0.389ZM7.858 13.136C5.614 13.136 4.432 11.313 4.7 8.263C4.964 5.238 6.373 3.573 8.666 3.573C10.958 3.573 12.131 5.293 11.868 8.294C11.603 11.327 10.104 13.136 7.86 13.136L7.858 13.136Z" fill="rgb(30,40,81)" fill-opacity="1.000" fill-rule="nonzero" transform="matrix(1 0 0 1 79.4083 23.7427)"/><path d="M14.666 7.875C15.083 3.107 12.643 0 8.225 0C3.806 0 0.481 3.34 0.048 8.287C-0.388 13.264 2.189 16.477 6.621 16.477C11.465 16.477 13.476 13.448 14.145 11.129L10.79 11.081C10.035 12.458 8.844 13.163 7.136 13.163C4.759 13.163 3.59 11.424 3.78 9.262L14.543 9.262C14.56 9.065 14.648 8.067 14.665 7.875L14.666 7.875ZM4.002 6.759C4.482 4.828 5.922 3.331 8.084 3.331C10.406 3.331 11.522 4.743 11.345 6.759L4.002 6.759Z" fill="rgb(30,40,81)" fill-opacity="1.000" fill-rule="nonzero" transform="matrix(1 0 0 1 103.5888 23.741)"/><path d="M8.299 0C3.988 0 1.564 1.814 1.075 5.384L4.828 5.384C5.185 3.935 6.138 3.273 7.892 3.273C9.47 3.273 10.706 3.733 10.603 6.005C10.118 6.075 8.871 6.205 7.496 6.397C4.012 6.864 0.408 7.347 0.028 11.69C-0.243 14.778 1.49 16.477 4.906 16.477C7.093 16.477 9.065 15.058 9.863 13.833L9.825 16.086L13.508 16.086L14.365 6.287C14.741 1.998 12.813 0 8.297 0L8.299 0ZM6.198 13.463C4.698 13.463 3.853 12.923 3.961 11.694C4.004 11.212 4.131 9.746 7.105 9.146C8.287 8.883 9.559 8.655 10.55 8.463C10.26 11.784 7.827 13.465 6.198 13.465L6.198 13.463Z" fill="rgb(30,40,81)" fill-opacity="1.000" fill-rule="nonzero" transform="matrix(1 0 0 1 64.0054 23.741)"/><path d="M4.575 18.394L5.044 13.019L15.286 13.019L15.618 9.211L5.377 9.211L5.85 3.806L16.892 3.806L17.225 0L1.944 0L0 22.232L15.294 22.232L15.63 18.394L4.575 18.394Z" fill="rgb(30,40,81)" fill-opacity="1.000" fill-rule="nonzero" transform="matrix(1 0 0 1 46.5117 17.5702)"/></svg>