<svg xmlns="http://www.w3.org/2000/svg" viewBox="0 0 60 60" width="60" height="60"><path d="M0 0L60 0L60 60L0 60L0 0Z" fill="rgb(30,40,81)" fill-opacity="1.000" fill-rule="nonzero" transform="matrix(1 0 0 1 0 0)"/><path d="M0 4.495C3.225 1.696 7.435 0 12.04 0C22.191 0 30.419 8.228 30.419 18.378C30.419 21.126 29.815 23.733 28.732 26.074C24.7 16.359 13.932 7.897 0 4.495Z" fill="rgb(255,255,255)" fill-opacity="1.000" fill-rule="nonzero" transform="matrix(1 0 0 1 17.5813 11.2441)"/><path d="M1.652 0C0.59 2.322 0 4.904 0 7.624C0 17.775 8.228 26.003 18.378 26.003C24.555 26.003 30.021 22.954 33.354 18.281C32.605 17.411 31.672 16.539 30.511 15.737C25.663 12.383 18.686 11.473 9.759 13.019C7.296 9.84 4.948 6.792 2.85 4.057C18.688 4.687 26.845 9.778 30.941 14.092C32.114 15.327 33.023 16.565 33.731 17.731C33.907 17.465 34.073 17.196 34.235 16.921C33.541 15.836 32.679 14.698 31.598 13.555C28.737 10.525 24.952 8.112 20.354 6.384C15.269 4.474 10.261 3.5 4.092 3.188C3.229 2.061 2.413 0.997 1.652 0.002L1.652 0ZM15.355 13.199C21.462 12.836 26.375 13.912 30.009 16.417C30.703 16.896 31.311 17.405 31.843 17.923C28.649 16.78 24.946 16.058 18.776 17.483C17.562 15.947 16.021 14.027 15.353 13.199L15.355 13.199Z" fill="rgb(255,255,255)" fill-opacity="1.000" fill-rule="nonzero" transform="matrix(1 0 0 1 11.2441 21.9982)"/></svg>