<svg xmlns="http://www.w3.org/2000/svg" viewBox="0 0 130 60" width="130" height="60"><path d="M0 0L130 0L130 60L0 60L0 0Z" fill="rgb(255,255,255)" fill-opacity="1.000" fill-rule="nonzero" transform="matrix(1 0 0 1 0 0)"/><path d="M0 0L0 18.607L7 18.607L7 15.44L3.316 15.44L3.316 10.597L6.632 10.597L6.632 7.617L3.316 7.617L3.316 3.167L7 3.167L7 0L0 0ZM19.435 8.734C20.95 7.865 21.891 6.437 21.891 4.74C21.891 1.987 19.947 0 16.303 0L9.63 0L9.63 18.607L16.426 18.607C20.336 18.607 22.526 16.082 22.526 13.019C22.505 11.073 21.482 9.583 19.435 8.734ZM15.648 3.167C17.736 3.167 18.657 4.036 18.657 5.319C18.657 6.706 17.45 7.637 15.341 7.637L12.946 7.637L12.946 3.167L15.648 3.167ZM15.566 15.44L12.946 15.44L12.946 10.597L15.566 10.597C18.084 10.597 19.108 11.487 19.108 12.894C19.108 14.302 18.084 15.44 15.566 15.44ZM89.347 9.541L103.921 18.814L97.719 18.814L86.051 11.383L74.957 18.814L69.287 18.814L83.145 9.541L74.445 3.995C73.75 3.56 73.074 3.187 72.235 3.187C70.863 3.187 69.697 4.098 69.697 5.94L69.697 13.888C69.697 17.261 68.141 19 65.316 19C63.597 19 62.144 18.193 60.752 16.641L49.248 3.705C48.859 3.291 48.572 3.167 48.245 3.167C47.672 3.167 47.221 3.539 47.221 4.346L47.221 14.902C47.221 17.779 45.584 19 43.455 19C41.674 19 40.528 18.172 39.443 16.723L37.806 14.529L28.451 14.529L28.451 18.793L25.156 18.793L25.156 4.388C25.156 1.532 26.65 0 29.066 0C30.457 0 31.665 0.683 32.934 2.38L42.657 15.44C42.862 15.709 43.087 15.833 43.312 15.833C43.66 15.833 43.926 15.564 43.926 15.068L43.926 4.76C43.926 1.594 45.85 0.021 48.163 0.021C49.76 0.021 51.152 0.849 52.196 2.028L63.843 15.109C64.334 15.647 64.784 15.854 65.194 15.854C65.869 15.854 66.381 15.337 66.381 14.467L66.381 6.271C66.381 2.028 68.755 0.021 72.276 0.021C73.688 0.021 75.223 0.538 76.656 1.449L86.44 7.679L97.616 0.207L103.287 0.207L89.347 9.541ZM28.451 3.912L28.451 11.549L35.575 11.549L29.618 3.56C29.434 3.291 29.25 3.187 29.004 3.187C28.718 3.187 28.451 3.394 28.451 3.912Z" fill="rgb(0,81,255)" fill-opacity="1.000" fill-rule="evenodd" transform="matrix(1 0 0 1 13 20)"/></svg>