<svg xmlns="http://www.w3.org/2000/svg" viewBox="0 0 60 60" width="60" height="60"><path d="M0 0L60 0L60 60L0 60L0 0Z" fill="rgb(255,255,255)" fill-opacity="1.000" fill-rule="nonzero" transform="matrix(1 0 0 1 0 0)"/><path d="M24 0L8 0C3.582 0 0 3.582 0 8L0 24C0 28.418 3.582 32 8 32L24 32C28.418 32 32 28.418 32 24L32 8C32 3.582 28.418 0 24 0Z" fill="rgb(0,81,255)" fill-opacity="1.000" fill-rule="nonzero" transform="matrix(1 0 0 1 14 14)"/><path d="M28 0L4 0C1.791 0 0 1.791 0 4L0 28C0 30.209 1.791 32 4 32L28 32C30.209 32 32 30.209 32 28L32 4C32 1.791 30.209 0 28 0Z" fill="rgb(0,14,43)" fill-opacity="1.000" fill-rule="nonzero" transform="matrix(1 0 0 1 14 14)"/><path d="M0.817 1.67L23.191 1.67C23.408 1.67 23.616 1.756 23.769 1.909C23.923 2.063 24.009 2.271 24.009 2.487L24.009 0.817C24.008 0.601 23.922 0.393 23.769 0.24C23.616 0.087 23.408 0 23.191 0L0.817 0C0.601 0 0.393 0.087 0.24 0.24C0.087 0.393 0 0.601 0 0.817L0 2.487C0 2.271 0.086 2.063 0.239 1.909C0.393 1.756 0.601 1.67 0.817 1.67Z" fill="rgb(255,255,255)" fill-opacity="1.000" fill-rule="nonzero" transform="matrix(1 0 0 1 17.7334 19.3334)"/><path d="M0.817 3.008L23.191 3.008C23.408 3.008 23.616 3.094 23.769 3.247C23.923 3.401 24.009 3.609 24.009 3.826L24.009 0.817C24.009 0.601 23.923 0.393 23.769 0.239C23.616 0.086 23.408 0 23.191 0L0.817 0C0.601 0 0.393 0.086 0.239 0.239C0.086 0.393 0 0.601 0 0.817L0 3.826C0 3.609 0.086 3.401 0.239 3.247C0.393 3.094 0.601 3.008 0.817 3.008Z" fill="rgb(182,202,245)" fill-opacity="1.000" fill-rule="nonzero" transform="matrix(1 0 0 1 17.7334 21.0033)"/><path d="M0.817 4.323L23.191 4.323C23.408 4.323 23.616 4.409 23.769 4.562C23.923 4.715 24.009 4.923 24.009 5.14L24.009 0.817C24.009 0.601 23.923 0.393 23.769 0.239C23.616 0.086 23.408 0 23.191 0L0.817 0C0.601 0 0.393 0.086 0.239 0.239C0.086 0.393 0 0.601 0 0.817L0 5.146C-0.001 5.038 0.02 4.931 0.061 4.831C0.101 4.731 0.161 4.641 0.237 4.564C0.313 4.488 0.404 4.427 0.503 4.385C0.603 4.344 0.71 4.323 0.817 4.323Z" fill="rgb(121,161,249)" fill-opacity="1.000" fill-rule="nonzero" transform="matrix(1 0 0 1 17.7334 24.0114)"/><path d="M3.515 5.994C4.303 5.994 5.083 6.149 5.81 6.45C6.538 6.751 7.199 7.192 7.756 7.749C8.313 8.306 8.974 8.748 9.702 9.049C10.429 9.351 11.209 9.506 11.997 9.506C12.785 9.506 13.565 9.351 14.292 9.049C15.02 8.748 15.681 8.306 16.238 7.749C16.795 7.192 17.456 6.751 18.184 6.45C18.911 6.149 19.691 5.994 20.479 5.994L23.988 5.994L23.988 0.817C23.988 0.601 23.902 0.393 23.749 0.239C23.596 0.086 23.388 0 23.171 0L0.817 0C0.601 0 0.393 0.086 0.239 0.239C0.086 0.393 0 0.601 0 0.817L0 6L3.51 6L3.515 5.994Z" fill="rgb(61,121,252)" fill-opacity="1.000" fill-rule="nonzero" transform="matrix(1 0 0 1 17.7334 28.34)"/></svg>