<svg xmlns="http://www.w3.org/2000/svg" viewBox="0 0 60 60" width="60" height="60"><defs><linearGradient id="g106" gradientUnits="userSpaceOnUse" x1="30.00" y1="60.00" x2="30.00" y2="0.00"><stop offset="0.0%" stop-color="rgb(0,193,203)" stop-opacity="1.000"/><stop offset="100.0%" stop-color="rgb(0,203,236)" stop-opacity="1.000"/></linearGradient></defs><path d="M0 0L60 0L60 60L0 60L0 0Z" fill="url(#g106)" fill-rule="nonzero" transform="matrix(1 0 0 1 0 0)"/><path d="M0 0L1.663 0C1.87 0 2.063 0.025 2.238 0.073C2.417 0.121 2.571 0.194 2.698 0.292C2.829 0.386 2.93 0.507 3.002 0.658C3.077 0.804 3.117 0.977 3.117 1.176C3.117 1.446 3.041 1.669 2.887 1.841C2.732 2.01 2.535 2.133 2.291 2.213L2.291 2.227C2.436 2.236 2.571 2.272 2.696 2.341C2.822 2.402 2.93 2.487 3.02 2.594C3.114 2.697 3.19 2.816 3.243 2.953C3.298 3.09 3.324 3.238 3.324 3.398C3.324 3.611 3.278 3.8 3.188 3.964C3.103 4.124 2.983 4.259 2.829 4.371C2.675 4.483 2.498 4.565 2.295 4.624C2.093 4.682 1.875 4.711 1.64 4.711L0 4.711L0 0ZM0.649 1.957L1.534 1.957C1.656 1.957 1.771 1.946 1.879 1.923C1.987 1.895 2.082 1.854 2.164 1.797C2.245 1.74 2.309 1.667 2.353 1.578C2.404 1.489 2.427 1.382 2.427 1.251C2.427 1.064 2.367 0.904 2.245 0.765C2.123 0.628 1.932 0.56 1.67 0.56L0.649 0.56L0.649 1.957ZM0.649 4.152L1.603 4.152C1.702 4.152 1.81 4.143 1.927 4.124C2.049 4.102 2.162 4.063 2.266 4.006C2.369 3.944 2.456 3.862 2.53 3.759C2.601 3.656 2.638 3.521 2.638 3.352C2.638 3.074 2.546 2.864 2.36 2.727C2.176 2.585 1.925 2.514 1.61 2.514L0.649 2.514L0.649 4.152Z" fill="rgb(255,255,255)" fill-opacity="1.000" fill-rule="nonzero" transform="matrix(1 0 0 1 7.115 35.762)"/><path d="M0.168 0.464C0.34 0.308 0.538 0.194 0.764 0.119C0.989 0.039 1.214 0 1.44 0C1.674 0 1.874 0.03 2.042 0.087C2.215 0.144 2.353 0.222 2.461 0.32C2.569 0.418 2.647 0.53 2.698 0.66C2.753 0.783 2.778 0.916 2.778 1.053L2.778 2.663C2.778 2.775 2.781 2.875 2.785 2.969C2.79 3.062 2.797 3.151 2.806 3.236L2.265 3.236C2.252 3.076 2.245 2.916 2.245 2.756L2.231 2.756C2.095 2.96 1.937 3.104 1.75 3.188C1.566 3.273 1.35 3.314 1.109 3.314C0.959 3.314 0.819 3.293 0.683 3.254C0.547 3.215 0.428 3.154 0.324 3.074C0.225 2.994 0.147 2.896 0.087 2.782C0.03 2.663 0 2.523 0 2.368C0 2.165 0.046 1.994 0.136 1.857C0.23 1.72 0.356 1.608 0.515 1.523C0.678 1.434 0.865 1.372 1.076 1.336C1.293 1.297 1.523 1.277 1.766 1.277L2.213 1.277L2.213 1.142C2.213 1.062 2.196 0.982 2.164 0.902C2.132 0.822 2.086 0.751 2.022 0.69C1.96 0.623 1.879 0.573 1.785 0.537C1.69 0.498 1.578 0.477 1.447 0.477C1.329 0.477 1.226 0.489 1.136 0.512C1.051 0.534 0.971 0.562 0.899 0.598C0.828 0.63 0.761 0.667 0.704 0.713C0.646 0.756 0.589 0.799 0.534 0.838L0.168 0.464ZM1.886 1.715C1.741 1.715 1.594 1.724 1.44 1.742C1.29 1.756 1.155 1.784 1.028 1.829C0.906 1.873 0.805 1.937 0.724 2.016C0.649 2.096 0.609 2.199 0.609 2.323C0.609 2.505 0.669 2.635 0.791 2.715C0.918 2.795 1.086 2.834 1.299 2.834C1.467 2.834 1.608 2.807 1.725 2.754C1.842 2.697 1.937 2.624 2.01 2.535C2.082 2.446 2.134 2.348 2.167 2.243C2.199 2.131 2.215 2.023 2.215 1.916L2.215 1.717L1.886 1.717L1.886 1.715Z" fill="rgb(255,255,255)" fill-opacity="1.000" fill-rule="nonzero" transform="matrix(1 0 0 1 11.0664 37.2418)"/><path d="M0 0.08L0.609 0.08L0.609 0.566L0.623 0.566C0.699 0.397 0.833 0.263 1.023 0.16C1.212 0.053 1.431 0 1.679 0C1.833 0 1.978 0.025 2.118 0.073C2.263 0.116 2.387 0.187 2.491 0.285C2.599 0.384 2.684 0.509 2.749 0.665C2.811 0.815 2.843 0.996 2.843 1.204L2.843 3.231L2.231 3.231L2.231 1.368C2.231 1.222 2.21 1.098 2.171 0.996C2.13 0.888 2.077 0.804 2.008 0.742C1.941 0.676 1.861 0.628 1.771 0.603C1.686 0.571 1.596 0.557 1.5 0.557C1.373 0.557 1.256 0.578 1.148 0.617C1.04 0.655 0.945 0.722 0.863 0.808C0.782 0.893 0.718 1 0.674 1.135C0.628 1.267 0.607 1.425 0.607 1.608L0.607 3.231L0 3.231L0 0.08Z" fill="rgb(255,255,255)" fill-opacity="1.000" fill-rule="nonzero" transform="matrix(1 0 0 1 14.728 37.2396)"/><path d="M0 0L0.61 0L0.61 3.247L1.99 1.884L2.836 1.884L1.341 3.314L2.965 5.031L2.1 5.031L0.612 3.394L0.612 5.031L0.002 5.031L0.002 0L0 0Z" fill="rgb(255,255,255)" fill-opacity="1.000" fill-rule="nonzero" transform="matrix(1 0 0 1 18.4862 35.4446)"/><path d="M16.224 1.329L16.224 0C14.773 0 13.922 0.69 13.37 1.526L13.37 0L10.366 0L10.366 1.329L11.767 1.329L11.767 7.134L10.366 7.134L8.963 7.134L8.963 0L5.709 0L5.709 1.329L7.211 1.329L7.211 6.298C6.458 6.938 5.508 7.381 4.457 7.381C3.457 7.381 3.105 6.789 3.105 5.855L3.105 0L0 0L0 1.329L1.403 1.329L1.403 6.004C1.403 7.824 2.404 8.71 3.956 8.71C5.258 8.71 6.41 8.219 7.312 7.381L7.312 8.463L10.366 8.463L15.624 8.463L15.624 7.134L13.471 7.134L13.471 2.608C14.021 1.969 14.973 1.329 16.224 1.329Z" fill="rgb(255,255,255)" fill-opacity="1.000" fill-rule="evenodd" transform="matrix(1 0 0 1 26.2464 23.6904)"/><path d="M0 0L0 1.329L1.502 1.329L1.502 10.726L0 10.726L0 12.104L9.614 12.104L9.614 9.397L8.262 9.397L8.262 10.726L3.254 10.726L3.254 6.298L8.211 6.298L8.211 4.921L3.254 4.921L3.254 1.329L8.262 1.329L8.262 2.706L9.612 2.706L9.612 0L0 0Z" fill="rgb(255,255,255)" fill-opacity="1.000" fill-rule="evenodd" transform="matrix(1 0 0 1 7.0713 20.0982)"/><path d="M3.956 10.973C3.356 10.973 2.404 10.58 1.702 9.989L1.702 5.412C2.302 5.02 3.054 4.675 3.905 4.675C5.607 4.675 6.309 6.004 6.309 7.675C6.309 9.349 5.808 10.973 3.956 10.973ZM4.306 3.396C3.255 3.396 2.404 3.741 1.702 4.184L1.702 0L0 0L0 12.104L1.702 12.104L1.702 11.316C2.404 11.857 3.305 12.3 4.306 12.3C6.709 12.3 8.062 10.283 8.062 7.675C8.062 5.068 6.709 3.396 4.306 3.396Z" fill="rgb(255,255,255)" fill-opacity="1.000" fill-rule="evenodd" transform="matrix(1 0 0 1 18.0354 20.0982)"/><path d="M0 1.329L1.352 1.329L1.352 0L0 0L0 1.329Z" fill="rgb(121,227,236)" fill-opacity="1.000" fill-rule="evenodd" transform="matrix(1 0 0 1 16.6853 20.0982)" opacity="0.5"/><path d="M0 1.329L1.401 1.329L1.401 0L0 0L0 1.329Z" fill="rgb(121,227,236)" fill-opacity="1.000" fill-rule="evenodd" transform="matrix(1 0 0 1 42.4706 23.6904)" opacity="0.5"/><path d="M4.756 0L4.756 1.329L6.109 1.329L3.756 7.922L1.753 1.329L3.105 1.329L3.105 0L0 0L0 1.329L2.302 8.463L3.604 8.463L3.153 9.694C2.703 10.925 1.651 11.17 0.4 11.17L0 11.17L0 12.499L0.4 12.499C2.604 12.499 4.004 11.957 4.807 9.843L7.861 1.331L9.014 1.331L9.014 0.002L4.756 0.002L4.756 0Z" fill="rgb(255,255,255)" fill-opacity="1.000" fill-rule="evenodd" transform="matrix(1 0 0 1 43.8736 23.6904)"/></svg>