<svg xmlns="http://www.w3.org/2000/svg" viewBox="0 0 60 60" width="60" height="60"><path d="M0 0L60 0L60 60L0 60L0 0Z" fill="rgb(255,255,255)" fill-opacity="1.000" fill-rule="nonzero" transform="matrix(1 0 0 1 0 0)"/><path d="M1.446 0C0.657 0 0.156 0.516 0 1.199L2.808 1.199C2.712 0.444 2.186 0 1.446 0Z" fill="rgb(247,39,23)" fill-opacity="1.000" fill-rule="nonzero" transform="matrix(1 0 0 1 23.3686 27.8525)"/><path d="M1.637 0C0.633 0 0 0.695 0 1.667C0 2.627 0.645 3.345 1.637 3.345C2.63 3.345 3.298 2.662 3.298 1.667C3.298 0.672 2.629 0 1.637 0Z" fill="rgb(247,39,23)" fill-opacity="1.000" fill-rule="nonzero" transform="matrix(1 0 0 1 15.6736 28.1524)"/><path d="M29.573 10.558C28.066 10.558 26.892 11.162 26.701 12.731C26.687 12.732 26.71 12.731 26.696 12.731C26.222 5.621 20.635 0 13.432 0C7.74 0 2.868 3.512 0.841 8.494L5.667 8.494L5.416 10.125L1.629 10.125L1.629 11.853L5.058 11.853L4.796 13.424L1.629 13.424L1.629 14.432C1.629 15.043 1.892 15.331 2.394 15.331L5.631 15.331L5.369 16.962L1.784 16.962C1.609 16.962 1.443 16.946 1.285 16.918L1.285 16.919C1.285 16.919 0.665 16.851 0.28 16.349C0.271 16.338 0.114 16.151 0.037 15.844C0.017 15.764 0.015 15.759 0 15.696C0.026 15.899 0.069 16.172 0.088 16.272C0.198 16.842 0.336 17.323 0.349 17.357C1.959 23.092 7.205 27.297 13.432 27.297C19.803 27.297 25.184 22.898 26.659 16.963L24.831 16.963L24.831 13.629C24.831 12.73 24.485 12.154 23.6 12.154C22.716 12.154 22.37 12.73 22.37 13.629L22.37 16.963L20.542 16.963L20.542 13.173C20.542 11.362 21.856 10.559 23.6 10.559C25.344 10.559 26.659 11.363 26.659 13.173L26.658 16.963L28.497 16.963L28.497 13.629C28.497 12.73 28.737 12.154 29.608 12.154C29.883 12.154 30.217 12.238 30.337 12.297L30.683 10.69C30.482 10.665 29.968 10.558 29.573 10.558ZM12.812 13.448C12.812 15.739 11.461 17.082 9.227 17.082C7.159 17.082 5.761 15.69 5.761 13.819C5.761 11.864 7.087 10.557 9.071 10.557C9.979 10.557 10.648 10.916 10.983 11.276L10.983 8.494L12.811 8.494L12.811 13.448L12.812 13.448ZM17.424 15.703C17.962 15.703 18.459 15.547 18.926 15.331L18.774 16.782C18.249 16.998 17.616 17.082 16.982 17.082C14.879 17.082 13.397 15.847 13.397 13.748C13.397 11.925 14.723 10.558 16.755 10.558C19.048 10.558 20.195 12.021 20.148 14.275L15.417 14.275C15.596 15.308 16.576 15.703 17.424 15.703Z" fill="rgb(247,39,23)" fill-opacity="1.000" fill-rule="nonzero" transform="matrix(1 0 0 1 7.9998 16)"/><path d="M3.357 0C1.326 0 0 1.367 0 3.19C0 5.289 1.482 6.524 3.585 6.524C4.218 6.524 4.852 6.44 5.377 6.224L5.529 4.773C5.063 4.989 4.565 5.145 4.028 5.145C3.179 5.145 2.2 4.75 2.021 3.718L6.753 3.718C6.798 1.463 5.651 0 3.357 0ZM1.971 2.495C2.127 1.812 2.629 1.296 3.416 1.296C4.158 1.296 4.683 1.739 4.778 2.495L1.971 2.495Z" fill="rgb(247,39,23)" fill-opacity="1.000" fill-rule="nonzero" transform="matrix(1 0 0 1 38.3613 26.5578)"/><path d="M5.221 0L5.221 2.782C4.886 2.423 4.217 2.062 3.31 2.062C1.326 2.062 0 3.37 0 5.325C0 7.196 1.398 8.588 3.465 8.588C5.7 8.588 7.05 7.244 7.05 4.954L7.05 0L5.221 0ZM3.548 7.005C2.557 7.005 1.91 6.285 1.91 5.326C1.91 4.354 2.544 3.659 3.548 3.659C4.539 3.659 5.208 4.331 5.208 5.326C5.21 6.321 4.54 7.005 3.548 7.005Z" fill="rgb(247,39,23)" fill-opacity="1.000" fill-rule="nonzero" transform="matrix(1 0 0 1 45.3148 24.4943)"/></svg>