<svg xmlns="http://www.w3.org/2000/svg" viewBox="0 0 60 60" width="60" height="60"><path d="M0 0L60 0L60 60L0 60L0 0Z" fill="rgb(243,113,36)" fill-opacity="1.000" fill-rule="nonzero" transform="matrix(1 0 0 1 0 0)"/><path d="M42.82 8.589L49.117 6.247L49.117 0L41.497 6.022C41.017 6.395 40.724 6.765 40.724 7.322C40.724 8.289 41.645 9.032 42.823 8.586M40.722 30.263L44.772 30.263L44.772 10.56L40.722 10.56L40.722 30.265L40.722 30.263ZM22.349 30.263L26.399 30.263L26.399 22.679L36.523 22.679L36.523 18.962L26.399 18.962C26.325 15.877 28.387 14.017 31.222 14.017C32.768 14.017 34.094 14.574 35.087 15.281L37.665 12.344C35.787 10.932 33.761 10.187 31.332 10.187C25.994 10.187 22.349 13.756 22.349 18.962L22.349 30.265L22.349 30.263ZM4.124 18.33C4.714 15.654 6.813 14.017 9.721 14.017C12.63 14.017 14.618 15.654 14.987 18.33L4.124 18.33ZM19.145 20.003C19.145 15.468 15.906 10.189 9.719 10.189C4.271 10.187 0 14.313 0 20.262C0 26.212 4.307 30.636 10.124 30.636C13.733 30.636 16.642 28.887 18.556 26.323L15.721 23.981C14.323 25.841 12.407 26.807 10.014 26.807C6.849 26.807 4.712 24.986 4.122 22.049L17.144 22.049C18.396 22.049 19.143 21.454 19.143 20.003" fill="rgb(255,255,255)" fill-opacity="1.000" fill-rule="nonzero" transform="matrix(1 0 0 1 5 12)"/></svg>