<svg xmlns="http://www.w3.org/2000/svg" viewBox="0 0 60 60" width="60" height="60"><path d="M0 0L60 0L60 60L0 60L0 0Z" fill="rgb(40,35,91)" fill-opacity="1.000" fill-rule="nonzero" transform="matrix(1 0 0 1 0 0)"/><path d="M9.782 11.012L9.782 13.043L0 13.043L0 0L9.521 0L9.521 2.031L2.422 2.031L2.422 5.422L8.72 5.422L8.72 7.416L2.422 7.416L2.422 11.012L9.782 11.012Z" fill="rgb(255,255,255)" fill-opacity="1.000" fill-rule="nonzero" transform="matrix(1 0 0 1 7 20.8538)"/><path d="M5.366 1.882C4.385 1.882 3.894 2.416 3.894 3.484L3.894 4.08L6.633 4.08L6.633 5.944L3.969 5.944L3.969 13.956L1.64 13.956L1.64 5.944L0 5.944L0 4.08L1.64 4.08L1.64 3.447C1.64 2.379 1.95 1.54 2.571 0.932C3.192 0.311 4.068 0 5.198 0C6.093 0 6.795 0.18 7.304 0.54L6.652 2.292C6.254 2.019 5.826 1.882 5.366 1.882Z" fill="rgb(255,255,255)" fill-opacity="1.000" fill-rule="nonzero" transform="matrix(1 0 0 1 17.9348 19.9408)"/><path d="M10.173 5.143C10.173 5.304 10.161 5.534 10.136 5.832L2.329 5.832C2.466 6.565 2.82 7.149 3.391 7.583C3.975 8.006 4.695 8.217 5.552 8.217C6.646 8.217 7.546 7.857 8.254 7.136L9.503 8.571C9.055 9.105 8.49 9.509 7.807 9.782C7.124 10.055 6.354 10.192 5.497 10.192C4.403 10.192 3.441 9.975 2.609 9.54C1.776 9.105 1.13 8.503 0.671 7.732C0.224 6.95 0 6.068 0 5.087C0 4.118 0.217 3.248 0.652 2.478C1.099 1.696 1.714 1.087 2.497 0.652C3.279 0.217 4.161 0 5.143 0C6.111 0 6.975 0.217 7.732 0.652C8.503 1.075 9.099 1.677 9.521 2.459C9.956 3.23 10.173 4.124 10.173 5.143ZM5.143 1.863C4.397 1.863 3.764 2.087 3.242 2.534C2.733 2.969 2.422 3.553 2.31 4.285L7.956 4.285C7.857 3.565 7.552 2.981 7.043 2.534C6.534 2.087 5.9 1.863 5.143 1.863Z" fill="rgb(255,255,255)" fill-opacity="1.000" fill-rule="nonzero" transform="matrix(1 0 0 1 25.172 23.8349)"/><path d="M7.695 9.95L5.143 6.503L2.571 9.95L0 9.95L3.876 4.9L0.168 0L2.758 0L5.198 3.261L7.639 0L10.155 0L6.428 4.863L10.322 9.95L7.695 9.95Z" fill="rgb(255,255,255)" fill-opacity="1.000" fill-rule="nonzero" transform="matrix(1 0 0 1 35.9486 23.9467)"/><path d="M0 0L6.793 0L6.793 3.774L0 3.774L0 0Z" fill="rgb(185,22,44)" fill-opacity="1.000" fill-rule="nonzero" transform="matrix(1 0 0 1 46.2071 18)"/><path d="M0.693 5.509L0.693 1.151C0.693 0.806 0.794 0.529 0.996 0.317C1.197 0.106 1.487 0 1.866 0C2.013 0 2.156 0.02 2.294 0.059C2.431 0.098 2.547 0.16 2.64 0.243L2.463 0.634C2.39 0.57 2.304 0.524 2.205 0.494C2.107 0.46 2.001 0.443 1.888 0.443C1.667 0.443 1.497 0.504 1.379 0.627C1.261 0.75 1.202 0.932 1.202 1.173L1.202 1.763L1.217 2.006L1.217 5.509L0.693 5.509ZM0 2.072L0 1.637L2.397 1.637L2.397 2.072L0 2.072Z" fill="rgb(255,255,255)" fill-opacity="1.000" fill-rule="nonzero" transform="matrix(1 0 0 1 7.1997 36.7518)"/><path d="M0.118 5.473L0.118 1.6L0.642 1.6L0.642 5.473L0.118 5.473ZM0.384 0.745C0.275 0.745 0.184 0.708 0.111 0.634C0.037 0.561 0 0.472 0 0.369C0 0.266 0.037 0.179 0.111 0.111C0.184 0.037 0.275 0 0.384 0C0.492 0 0.583 0.034 0.656 0.103C0.73 0.172 0.767 0.258 0.767 0.361C0.767 0.47 0.73 0.561 0.656 0.634C0.588 0.708 0.497 0.745 0.384 0.745Z" fill="rgb(255,255,255)" fill-opacity="1.000" fill-rule="nonzero" transform="matrix(1 0 0 1 12.068 36.7884)"/><path d="M1.977 0C2.291 0 2.567 0.061 2.803 0.184C3.044 0.302 3.23 0.484 3.363 0.73C3.501 0.976 3.57 1.286 3.57 1.659L3.57 3.909L3.046 3.909L3.046 1.711C3.046 1.303 2.943 0.996 2.736 0.789C2.535 0.578 2.25 0.472 1.881 0.472C1.605 0.472 1.364 0.529 1.158 0.642C0.956 0.75 0.799 0.91 0.686 1.121C0.578 1.328 0.524 1.578 0.524 1.873L0.524 3.909L0 3.909L0 0.037L0.502 0.037L0.502 1.099L0.42 0.9C0.543 0.62 0.74 0.401 1.01 0.243C1.281 0.081 1.603 0 1.977 0Z" fill="rgb(255,255,255)" fill-opacity="1.000" fill-rule="nonzero" transform="matrix(1 0 0 1 16.2303 38.3522)"/><path d="M2.751 3.909L2.751 3.053L2.729 2.913L2.729 1.482C2.729 1.153 2.635 0.9 2.449 0.723C2.267 0.546 1.994 0.457 1.63 0.457C1.379 0.457 1.141 0.499 0.915 0.583C0.688 0.666 0.497 0.777 0.339 0.915L0.103 0.524C0.3 0.356 0.536 0.229 0.811 0.14C1.087 0.047 1.377 0 1.682 0C2.183 0 2.569 0.125 2.84 0.376C3.115 0.622 3.253 0.998 3.253 1.505L3.253 3.909L2.751 3.909ZM1.416 3.946C1.126 3.946 0.873 3.899 0.656 3.806C0.445 3.707 0.283 3.575 0.17 3.407C0.057 3.235 0 3.039 0 2.817C0 2.616 0.047 2.434 0.14 2.272C0.238 2.104 0.396 1.972 0.612 1.873C0.833 1.77 1.128 1.718 1.497 1.718L2.832 1.718L2.832 2.109L1.512 2.109C1.138 2.109 0.878 2.176 0.73 2.309C0.588 2.441 0.516 2.606 0.516 2.803C0.516 3.024 0.602 3.201 0.774 3.334C0.947 3.466 1.187 3.533 1.497 3.533C1.792 3.533 2.045 3.466 2.257 3.334C2.473 3.196 2.631 2.999 2.729 2.744L2.847 3.105C2.749 3.361 2.576 3.565 2.331 3.717C2.09 3.87 1.785 3.946 1.416 3.946Z" fill="rgb(255,255,255)" fill-opacity="1.000" fill-rule="nonzero" transform="matrix(1 0 0 1 22.8802 38.3522)"/><path d="M1.977 0C2.291 0 2.567 0.061 2.803 0.184C3.044 0.302 3.23 0.484 3.363 0.73C3.501 0.976 3.57 1.286 3.57 1.659L3.57 3.909L3.046 3.909L3.046 1.711C3.046 1.303 2.943 0.996 2.736 0.789C2.535 0.578 2.249 0.472 1.881 0.472C1.605 0.472 1.364 0.529 1.158 0.642C0.956 0.75 0.799 0.91 0.686 1.121C0.578 1.328 0.524 1.578 0.524 1.873L0.524 3.909L0 3.909L0 0.037L0.502 0.037L0.502 1.099L0.42 0.9C0.543 0.62 0.74 0.401 1.01 0.243C1.281 0.081 1.603 0 1.977 0Z" fill="rgb(255,255,255)" fill-opacity="1.000" fill-rule="nonzero" transform="matrix(1 0 0 1 29.5459 38.3522)"/><path d="M1.999 3.946C1.615 3.946 1.271 3.862 0.966 3.695C0.666 3.523 0.43 3.289 0.258 2.994C0.086 2.694 0 2.353 0 1.969C0 1.581 0.086 1.239 0.258 0.944C0.43 0.649 0.666 0.418 0.966 0.251C1.271 0.084 1.615 0 1.999 0C2.328 0 2.626 0.064 2.891 0.192C3.157 0.32 3.366 0.511 3.518 0.767L3.127 1.033C2.994 0.836 2.83 0.691 2.633 0.597C2.436 0.504 2.222 0.457 1.991 0.457C1.716 0.457 1.468 0.521 1.246 0.649C1.025 0.772 0.851 0.947 0.723 1.173C0.595 1.399 0.531 1.664 0.531 1.969C0.531 2.274 0.595 2.54 0.723 2.766C0.851 2.992 1.025 3.169 1.246 3.297C1.468 3.42 1.716 3.481 1.991 3.481C2.222 3.481 2.436 3.434 2.633 3.341C2.83 3.248 2.994 3.105 3.127 2.913L3.518 3.179C3.366 3.43 3.157 3.621 2.891 3.754C2.626 3.882 2.328 3.946 1.999 3.946Z" fill="rgb(255,255,255)" fill-opacity="1.000" fill-rule="nonzero" transform="matrix(1 0 0 1 36.1325 38.3522)"/><path d="M2.036 3.946C1.632 3.946 1.278 3.862 0.974 3.695C0.669 3.523 0.43 3.289 0.258 2.994C0.086 2.694 0 2.353 0 1.969C0 1.586 0.081 1.246 0.243 0.951C0.411 0.656 0.637 0.425 0.922 0.258C1.212 0.086 1.536 0 1.895 0C2.259 0 2.581 0.084 2.862 0.251C3.147 0.413 3.371 0.644 3.533 0.944C3.695 1.239 3.776 1.581 3.776 1.969C3.776 1.994 3.774 2.021 3.769 2.05C3.769 2.075 3.769 2.102 3.769 2.131L0.398 2.131L0.398 1.741L3.489 1.741L3.282 1.895C3.282 1.615 3.221 1.367 3.098 1.151C2.98 0.929 2.817 0.757 2.611 0.634C2.404 0.511 2.166 0.45 1.895 0.45C1.63 0.45 1.391 0.511 1.18 0.634C0.969 0.757 0.804 0.929 0.686 1.151C0.568 1.372 0.509 1.625 0.509 1.91L0.509 1.991C0.509 2.286 0.573 2.547 0.701 2.773C0.833 2.994 1.015 3.169 1.246 3.297C1.482 3.42 1.75 3.481 2.05 3.481C2.286 3.481 2.505 3.439 2.707 3.356C2.913 3.272 3.09 3.144 3.238 2.972L3.533 3.312C3.361 3.518 3.144 3.675 2.884 3.784C2.628 3.892 2.345 3.946 2.036 3.946Z" fill="rgb(255,255,255)" fill-opacity="1.000" fill-rule="nonzero" transform="matrix(1 0 0 1 42.2148 38.3522)"/></svg>