<svg xmlns="http://www.w3.org/2000/svg" viewBox="0 0 60 60" width="60" height="60"><path d="M0 0L60 0L60 60L0 60L0 0Z" fill="rgb(0,57,51)" fill-opacity="1.000" fill-rule="nonzero" transform="matrix(1 0 0 1 0 0)"/><path d="M0 5.962L3.472 5.962C4.094 2.658 6.968 0 10.631 0C14.797 0 17.718 2.969 17.718 7.446C17.718 7.925 17.67 8.308 17.622 8.644L6.416 8.644C6.943 10.679 8.619 11.876 10.63 11.876C12.354 11.876 13.647 11.205 14.677 10.033L16.736 11.924C15.371 13.48 13.336 14.558 10.63 14.558C6.967 14.558 4.094 11.948 3.471 8.644L0 8.644L0 5.962ZM14.749 5.962C14.605 5.124 14.222 4.358 13.671 3.807C12.953 3.089 11.9 2.634 10.631 2.634C9.362 2.634 8.332 3.065 7.566 3.831C7.04 4.358 6.608 5.076 6.393 5.962L14.749 5.962L14.749 5.962ZM19.801 0.096L22.817 0.096L22.817 11.589L28.276 11.589L28.276 14.462L22.865 14.462C20.878 14.462 19.801 13.385 19.801 11.397L19.801 0.096ZM28.851 7.279C28.851 3.376 32.036 0.001 36.25 0.001C39.985 0.001 42.906 2.634 43.528 5.962L47 5.962L47 8.644L43.528 8.644C42.882 11.948 39.96 14.558 36.25 14.558C32.012 14.557 28.851 11.205 28.851 7.279ZM36.25 11.732C38.764 11.732 40.631 9.817 40.631 7.303C40.631 4.813 38.716 2.825 36.25 2.825C33.736 2.825 31.868 4.74 31.868 7.278C31.868 9.745 33.784 11.732 36.25 11.732Z" fill="rgb(255,255,255)" fill-opacity="1.000" fill-rule="nonzero" transform="matrix(1 0 0 1 6 23)"/></svg>