<svg xmlns="http://www.w3.org/2000/svg" viewBox="0 0 60 60" width="60" height="60"><path d="M0 0L60 0L60 60L0 60L0 0Z" fill="rgb(28,74,46)" fill-opacity="1.000" fill-rule="nonzero" transform="matrix(1 0 0 1 0 0)"/><path d="M0 10.612C0 10.612 2.417 7.757 7.759 6.807C13.101 5.857 13.613 6.807 17.416 5.415C21.218 4.023 22.686 0 22.686 0L33.444 1.978C33.444 1.978 31.908 4.828 25.394 5.928C18.88 7.027 17.709 6.66 14.562 8.781C12.691 10.034 11.238 11.819 10.392 13.906L0 10.612Z" fill="rgb(255,255,255)" fill-opacity="1.000" fill-rule="nonzero" transform="matrix(1 0 0 1 13.5547 13.8411)"/><path d="M0 10.612C0 10.612 2.417 7.756 7.759 6.805C13.101 5.853 13.613 6.805 17.416 5.415C21.218 4.026 22.686 0 22.686 0L33.444 1.974C33.444 1.974 31.908 4.829 25.394 5.926C18.88 7.023 17.709 6.659 14.562 8.781C12.691 10.034 11.239 11.818 10.392 13.904L0 10.612Z" fill="rgb(255,255,255)" fill-opacity="1.000" fill-rule="nonzero" transform="matrix(1 0 0 1 13.5547 31.6272)"/><path d="M0 10.613C0 10.613 2.417 7.759 7.759 6.805C13.101 5.852 13.613 6.805 17.416 5.418C21.218 4.031 22.686 0 22.686 0L33.444 1.978C33.444 1.978 31.908 4.835 25.394 5.934C18.88 7.033 17.709 6.663 14.562 8.784C12.69 10.036 11.238 11.82 10.392 13.907L0 10.613Z" fill="rgb(195,101,28)" fill-opacity="1.000" fill-rule="nonzero" transform="matrix(1 0 0 1 13.5547 22.5504)"/></svg>