<svg xmlns="http://www.w3.org/2000/svg" viewBox="0 0 130 60" width="130" height="60"><path d="M0 0L130 0L130 60L0 60L0 0Z" fill="rgb(255,255,255)" fill-opacity="1.000" fill-rule="nonzero" transform="matrix(1 0 0 1 0 0)"/><path d="M0 7.157C0 7.157 1.63 5.231 5.233 4.591C8.836 3.95 9.181 4.591 11.745 3.652C14.31 2.713 15.3 0 15.3 0L22.556 1.334C22.556 1.334 21.519 3.256 17.126 3.998C12.733 4.739 11.944 4.492 9.821 5.922C8.559 6.767 7.579 7.971 7.008 9.378L0 7.157Z" fill="rgb(28,74,46)" fill-opacity="1.000" fill-rule="nonzero" transform="matrix(1 0 0 1 9 19)"/><path d="M0 7.157C0 7.157 1.63 5.231 5.233 4.589C8.836 3.947 9.181 4.589 11.745 3.652C14.31 2.715 15.3 0 15.3 0L22.556 1.332C22.556 1.332 21.519 3.257 17.126 3.997C12.733 4.737 11.944 4.491 9.821 5.922C8.559 6.767 7.58 7.97 7.008 9.377L0 7.157Z" fill="rgb(28,74,46)" fill-opacity="1.000" fill-rule="nonzero" transform="matrix(1 0 0 1 9 30.9954)"/><path d="M0 7.158C0 7.158 1.63 5.233 5.233 4.59C8.836 3.947 9.181 4.59 11.745 3.654C14.31 2.719 15.3 0 15.3 0L22.556 1.334C22.556 1.334 21.519 3.261 17.126 4.002C12.733 4.743 11.944 4.494 9.821 5.924C8.559 6.768 7.579 7.972 7.008 9.379L0 7.158Z" fill="rgb(195,101,28)" fill-opacity="1.000" fill-rule="nonzero" transform="matrix(1 0 0 1 9 24.8737)"/><path d="M7.986 13.674C6.813 13.849 5.628 13.928 4.442 13.91C2.083 13.91 0 13.307 0 9.981L0 3.912C0 0.586 2.102 0.003 4.46 0.003C5.64 -0.017 6.819 0.062 7.986 0.238C8.242 0.275 8.352 0.366 8.352 0.603L8.352 2.303C8.352 2.399 8.313 2.492 8.244 2.56C8.176 2.628 8.083 2.667 7.986 2.667L4.277 2.667C3.417 2.667 3.108 2.962 3.108 3.91L3.108 5.575L7.84 5.575C7.937 5.575 8.029 5.614 8.098 5.682C8.166 5.751 8.204 5.844 8.204 5.94L8.204 7.676C8.204 7.773 8.166 7.866 8.098 7.935C8.029 8.003 7.937 8.042 7.84 8.042L3.108 8.042L3.108 9.979C3.108 10.929 3.417 11.221 4.277 11.221L7.986 11.221C8.083 11.221 8.176 11.26 8.245 11.328C8.314 11.397 8.352 11.49 8.353 11.587L8.353 13.285C8.353 13.527 8.243 13.638 7.986 13.674Z" fill="rgb(0,45,126)" fill-opacity="1.000" fill-rule="nonzero" transform="matrix(1 0 0 1 33.6408 19.2217)"/><path d="M12.045 13.582L9.634 13.582C9.547 13.572 9.467 13.528 9.413 13.459C9.358 13.39 9.332 13.303 9.342 13.215L9.342 5.595C9.342 5.468 9.287 5.449 9.25 5.449C9.195 5.449 9.159 5.485 9.104 5.577L7.459 8.592C7.407 8.692 7.327 8.773 7.23 8.829C7.132 8.884 7.021 8.91 6.909 8.904L5.448 8.904C5.336 8.909 5.225 8.883 5.128 8.828C5.03 8.773 4.951 8.691 4.898 8.592L3.253 5.577C3.199 5.485 3.163 5.449 3.109 5.449C3.07 5.449 3.016 5.467 3.016 5.595L3.016 13.215C3.025 13.302 3 13.39 2.945 13.458C2.89 13.527 2.811 13.571 2.724 13.582L0.311 13.582C0.165 13.582 0 13.528 0 13.325L0 0.624C-0.002 0.539 0.013 0.454 0.046 0.375C0.078 0.296 0.127 0.225 0.19 0.166C0.252 0.107 0.325 0.062 0.406 0.034C0.487 0.006 0.573 -0.005 0.658 0.002L2.377 0.002C2.545 -0.003 2.71 0.04 2.853 0.128C2.996 0.216 3.11 0.344 3.18 0.496L5.976 5.706C6.049 5.852 6.104 5.941 6.178 5.941C6.251 5.941 6.306 5.851 6.379 5.706L9.174 0.496C9.245 0.344 9.359 0.216 9.502 0.128C9.645 0.04 9.811 -0.004 9.979 0.002L11.697 0.002C11.783 -0.003 11.87 0.009 11.951 0.039C12.032 0.069 12.106 0.116 12.168 0.176C12.23 0.237 12.278 0.309 12.311 0.389C12.343 0.47 12.358 0.556 12.355 0.642L12.355 13.327C12.357 13.528 12.193 13.582 12.045 13.582Z" fill="rgb(0,45,126)" fill-opacity="1.000" fill-rule="nonzero" transform="matrix(1 0 0 1 43.8188 19.3862)"/><path d="M4.569 8.991C4.131 8.991 3.546 8.953 3.089 8.934L3.089 13.374C3.089 13.471 3.051 13.564 2.982 13.633C2.913 13.702 2.82 13.741 2.723 13.741L0.365 13.741C0.318 13.743 0.271 13.735 0.228 13.718C0.184 13.701 0.144 13.676 0.109 13.644C0.075 13.611 0.048 13.572 0.029 13.529C0.011 13.486 0.001 13.44 0 13.393L0 1.113C0 0.492 0.256 0.325 0.824 0.236C2.054 0.072 3.294 -0.007 4.535 0C7.294 0 10.017 0.966 10.017 4.404L10.017 4.568C10.015 7.985 7.292 8.991 4.569 8.991ZM6.91 4.403C6.91 3.105 6.104 2.593 4.569 2.593C4.313 2.593 3.308 2.632 3.089 2.648L3.089 6.376C3.29 6.395 4.368 6.415 4.569 6.415C6.195 6.415 6.91 5.81 6.91 4.569L6.91 4.403Z" fill="rgb(0,45,126)" fill-opacity="1.000" fill-rule="nonzero" transform="matrix(1 0 0 1 58.2588 19.2271)"/><path d="M10.214 13.74L7.418 13.74C7.217 13.74 7.145 13.557 7.053 13.373L4.604 8.751L4.404 8.769C4.021 8.769 3.454 8.733 3.106 8.733L3.106 13.373C3.106 13.47 3.067 13.563 2.999 13.632C2.931 13.7 2.838 13.739 2.742 13.74L0.366 13.74C0.269 13.74 0.176 13.701 0.108 13.632C0.039 13.564 0 13.47 0 13.373L0 1.112C0 0.491 0.257 0.325 0.824 0.235C2.054 0.077 3.293 -0.001 4.533 0C7.639 0 10.033 1.04 10.033 4.277L10.033 4.512C10.033 6.451 9.013 7.637 7.676 8.167L10.436 13.32C10.468 13.383 10.486 13.452 10.489 13.522C10.489 13.649 10.417 13.74 10.214 13.74ZM6.925 4.275C6.925 3.159 6.066 2.648 4.532 2.648C4.275 2.648 3.325 2.684 3.105 2.702L3.105 6.21C3.307 6.229 4.204 6.247 4.404 6.247C6.323 6.247 6.925 5.754 6.925 4.511L6.925 4.275Z" fill="rgb(0,45,126)" fill-opacity="1.000" fill-rule="nonzero" transform="matrix(1 0 0 1 69.4635 19.2279)"/><path d="M7.986 13.674C6.812 13.849 5.627 13.928 4.441 13.91C2.083 13.91 0 13.307 0 9.981L0 3.912C0 0.586 2.1 0.003 4.459 0.003C5.639 -0.017 6.819 0.062 7.986 0.238C8.241 0.275 8.351 0.366 8.351 0.603L8.351 2.303C8.351 2.399 8.312 2.492 8.243 2.56C8.175 2.628 8.082 2.667 7.986 2.667L4.275 2.667C3.418 2.667 3.105 2.962 3.105 3.91L3.105 5.575L7.839 5.575C7.936 5.575 8.029 5.614 8.097 5.682C8.166 5.751 8.204 5.844 8.204 5.94L8.204 7.676C8.204 7.773 8.166 7.866 8.097 7.934C8.029 8.003 7.936 8.042 7.839 8.042L3.105 8.042L3.105 9.979C3.105 10.929 3.419 11.221 4.275 11.221L7.986 11.221C8.083 11.221 8.176 11.26 8.244 11.328C8.313 11.397 8.351 11.49 8.351 11.587L8.351 13.285C8.351 13.527 8.241 13.638 7.986 13.674Z" fill="rgb(0,45,126)" fill-opacity="1.000" fill-rule="nonzero" transform="matrix(1 0 0 1 81.1417 19.2218)"/><path d="M4.223 13.908C3.06 13.923 1.899 13.788 0.771 13.506C0.588 13.451 0.405 13.341 0.405 13.14L0.405 11.349C0.398 11.304 0.402 11.257 0.416 11.213C0.43 11.169 0.454 11.129 0.485 11.095C0.517 11.062 0.556 11.036 0.599 11.02C0.642 11.004 0.689 10.998 0.734 11.002L0.789 11.002C1.539 11.076 3.548 11.221 4.261 11.221C5.523 11.221 5.888 10.82 5.888 9.943C5.888 9.413 5.632 9.119 4.682 8.553L2.158 7.054C0.459 6.049 0 4.896 0 3.562C0 1.552 1.133 0 4.678 0C5.98 0.008 7.277 0.143 8.553 0.401C8.631 0.413 8.702 0.452 8.753 0.513C8.803 0.574 8.83 0.651 8.827 0.73L8.827 2.576C8.833 2.618 8.828 2.661 8.814 2.701C8.801 2.741 8.778 2.777 8.748 2.807C8.718 2.837 8.682 2.86 8.642 2.873C8.602 2.887 8.559 2.891 8.517 2.886L8.481 2.886C7.968 2.85 5.849 2.685 4.606 2.685C3.564 2.685 3.179 2.996 3.179 3.653C3.179 4.166 3.418 4.404 4.404 4.934L6.743 6.195C8.644 7.217 9.21 8.424 9.21 9.903C9.211 11.844 7.933 13.908 4.223 13.908Z" fill="rgb(0,45,126)" fill-opacity="1.000" fill-rule="nonzero" transform="matrix(1 0 0 1 90.8077 19.2244)"/><path d="M9.432 2.578L6.47 2.578L6.47 13.213C6.47 13.31 6.432 13.403 6.363 13.472C6.295 13.541 6.202 13.579 6.105 13.58L3.712 13.58C3.614 13.579 3.521 13.541 3.452 13.472C3.384 13.403 3.345 13.31 3.345 13.213L3.345 2.578L0.366 2.578C0.319 2.58 0.273 2.573 0.229 2.556C0.185 2.539 0.144 2.514 0.11 2.482C0.076 2.45 0.049 2.411 0.03 2.368C0.011 2.325 0.001 2.278 0 2.231L0 0.348C0.001 0.301 0.011 0.254 0.03 0.211C0.049 0.168 0.076 0.129 0.11 0.097C0.144 0.065 0.184 0.039 0.228 0.023C0.273 0.006 0.319 -0.001 0.366 0L9.43 0C9.526 -0.004 9.621 0.03 9.693 0.095C9.765 0.16 9.808 0.251 9.814 0.348L9.814 2.231C9.808 2.327 9.765 2.418 9.694 2.483C9.622 2.548 9.528 2.582 9.432 2.578Z" fill="rgb(0,45,126)" fill-opacity="1.000" fill-rule="nonzero" transform="matrix(1 0 0 1 100.5488 19.3885)"/><path d="M11.222 13.742L8.663 13.742C8.574 13.738 8.488 13.703 8.422 13.643C8.355 13.583 8.311 13.502 8.298 13.413L7.639 10.415L3.894 10.415L3.235 13.413C3.221 13.502 3.177 13.583 3.111 13.643C3.044 13.703 2.959 13.738 2.87 13.742L0.311 13.742C0.271 13.746 0.23 13.741 0.192 13.728C0.154 13.715 0.119 13.694 0.089 13.667C0.06 13.639 0.037 13.605 0.021 13.568C0.006 13.53 -0.001 13.49 0 13.449C0.008 13.42 0.014 13.389 0.019 13.359L2.743 2.028C3.162 0.273 4.514 0 5.775 0C7.036 0 8.37 0.275 8.791 2.028L11.514 13.359C11.518 13.389 11.524 13.42 11.532 13.449C11.533 13.49 11.526 13.53 11.511 13.567C11.496 13.605 11.473 13.638 11.443 13.666C11.414 13.694 11.379 13.715 11.341 13.728C11.303 13.741 11.262 13.746 11.222 13.742ZM6.014 2.869C5.978 2.685 5.94 2.595 5.775 2.595C5.611 2.595 5.557 2.686 5.52 2.869L4.405 7.912L7.128 7.912L6.014 2.869Z" fill="rgb(0,45,126)" fill-opacity="1.000" fill-rule="nonzero" transform="matrix(1 0 0 1 109.4684 19.226)"/><path d="M3.219 5.384C2.867 5.472 2.505 5.513 2.142 5.506C1.043 5.506 0 4.929 0 3.205L0 2.294C0 0.573 1.042 0.001 2.142 0.001C2.505 -0.006 2.867 0.036 3.219 0.125C3.322 0.155 3.378 0.182 3.378 0.282L3.378 0.982C3.381 1.001 3.379 1.021 3.374 1.039C3.368 1.057 3.358 1.074 3.345 1.088C3.331 1.102 3.315 1.113 3.297 1.119C3.279 1.126 3.26 1.129 3.241 1.127L3.219 1.127C2.945 1.106 2.547 1.069 2.149 1.069C1.65 1.069 1.251 1.33 1.251 2.292L1.251 3.203C1.251 4.166 1.65 4.425 2.149 4.425C2.547 4.425 2.945 4.39 3.219 4.369L3.241 4.369C3.26 4.367 3.28 4.37 3.297 4.376C3.315 4.383 3.332 4.394 3.345 4.408C3.358 4.422 3.368 4.438 3.374 4.457C3.38 4.475 3.381 4.494 3.378 4.513L3.378 5.216C3.376 5.319 3.321 5.353 3.219 5.384Z" fill="rgb(28,74,46)" fill-opacity="1.000" fill-rule="nonzero" transform="matrix(1 0 0 1 33.7019 34.927)"/><path d="M4.441 5.441L3.428 5.441C3.393 5.439 3.359 5.425 3.333 5.402C3.307 5.378 3.289 5.346 3.284 5.311L3.023 4.124L1.541 4.124L1.279 5.311C1.274 5.346 1.257 5.378 1.231 5.402C1.204 5.425 1.17 5.439 1.135 5.441L0.122 5.441C0.106 5.442 0.09 5.44 0.075 5.435C0.06 5.43 0.047 5.422 0.035 5.411C0.024 5.401 0.015 5.388 0.008 5.373C0.002 5.358 0 5.343 0 5.327C0 5.319 0.006 5.304 0.006 5.288L1.084 0.804C1.25 0.109 1.786 0 2.285 0C2.784 0 3.313 0.109 3.479 0.804L4.557 5.288C4.559 5.301 4.561 5.314 4.564 5.327C4.565 5.343 4.562 5.358 4.556 5.373C4.549 5.388 4.54 5.401 4.529 5.412C4.517 5.422 4.503 5.431 4.488 5.436C4.473 5.441 4.457 5.442 4.441 5.441ZM2.38 1.137C2.365 1.063 2.351 1.028 2.285 1.028C2.22 1.028 2.199 1.063 2.185 1.137L1.743 3.133L2.821 3.133L2.38 1.137Z" fill="rgb(28,74,46)" fill-opacity="1.000" fill-rule="nonzero" transform="matrix(1 0 0 1 37.8767 34.9273)"/><path d="M1.808 3.56C1.634 3.56 1.403 3.544 1.222 3.537L1.222 5.294C1.222 5.333 1.207 5.37 1.18 5.397C1.153 5.424 1.116 5.44 1.078 5.44L0.143 5.44C0.124 5.441 0.106 5.438 0.089 5.431C0.071 5.425 0.056 5.415 0.042 5.402C0.029 5.389 0.018 5.374 0.011 5.357C0.004 5.34 0 5.321 0 5.303L0 0.442C0 0.197 0.1 0.132 0.325 0.093C0.812 0.029 1.303 -0.002 1.794 0C2.886 0 3.965 0.384 3.965 1.745L3.965 1.809C3.966 3.162 2.887 3.56 1.808 3.56ZM2.734 1.745C2.734 1.23 2.415 1.028 1.808 1.028C1.707 1.028 1.309 1.041 1.222 1.048L1.222 2.525C1.3 2.533 1.729 2.541 1.808 2.541C2.452 2.541 2.734 2.302 2.734 1.809L2.734 1.745Z" fill="rgb(28,74,46)" fill-opacity="1.000" fill-rule="nonzero" transform="matrix(1 0 0 1 43.4461 34.9276)"/><path d="M1.1 5.374L0.131 5.374C0.113 5.374 0.095 5.37 0.078 5.362C0.061 5.354 0.046 5.343 0.034 5.33C0.022 5.316 0.013 5.3 0.007 5.283C0.001 5.265 -0.001 5.247 0.001 5.228L0.001 0.138C-0.001 0.12 0.001 0.102 0.007 0.085C0.013 0.069 0.023 0.053 0.035 0.04C0.047 0.027 0.062 0.017 0.079 0.01C0.095 0.003 0.113 0 0.131 0L1.1 0C1.118 -0.001 1.137 0.003 1.154 0.009C1.171 0.016 1.186 0.026 1.199 0.039C1.212 0.052 1.222 0.068 1.228 0.085C1.235 0.102 1.238 0.12 1.237 0.138L1.237 5.228C1.238 5.247 1.235 5.266 1.229 5.283C1.222 5.301 1.212 5.317 1.2 5.33C1.187 5.344 1.171 5.355 1.154 5.362C1.137 5.37 1.119 5.374 1.1 5.374Z" fill="rgb(28,74,46)" fill-opacity="1.000" fill-rule="nonzero" transform="matrix(1 0 0 1 48.5158 34.9936)"/><path d="M3.733 1.019L2.561 1.019L2.561 5.228C2.561 5.248 2.558 5.267 2.55 5.284C2.543 5.302 2.532 5.318 2.519 5.332C2.505 5.345 2.489 5.356 2.472 5.363C2.454 5.371 2.435 5.374 2.416 5.374L1.468 5.374C1.43 5.374 1.393 5.359 1.366 5.331C1.339 5.304 1.324 5.267 1.324 5.228L1.324 1.019L0.144 1.019C0.126 1.02 0.107 1.017 0.09 1.01C0.072 1.004 0.056 0.994 0.043 0.981C0.029 0.968 0.019 0.953 0.011 0.935C0.004 0.918 0 0.9 0 0.881L0 0.138C0 0.12 0.004 0.101 0.011 0.084C0.019 0.067 0.029 0.051 0.043 0.039C0.056 0.026 0.072 0.016 0.09 0.009C0.107 0.002 0.126 -0.001 0.144 0L3.734 0C3.772 -0.002 3.81 0.012 3.838 0.038C3.867 0.064 3.884 0.1 3.886 0.138L3.886 0.881C3.885 0.9 3.88 0.919 3.872 0.936C3.864 0.954 3.852 0.969 3.838 0.982C3.824 0.995 3.807 1.004 3.789 1.011C3.771 1.017 3.752 1.02 3.733 1.019Z" fill="rgb(28,74,46)" fill-opacity="1.000" fill-rule="nonzero" transform="matrix(1 0 0 1 50.804 34.9931)"/><path d="M4.442 5.441L3.429 5.441C3.394 5.439 3.36 5.425 3.334 5.402C3.308 5.378 3.29 5.346 3.285 5.311L3.024 4.124L1.54 4.124L1.281 5.311C1.275 5.346 1.258 5.378 1.231 5.402C1.205 5.425 1.171 5.439 1.136 5.441L0.124 5.441C0.108 5.442 0.092 5.441 0.077 5.436C0.062 5.431 0.048 5.422 0.036 5.412C0.024 5.401 0.015 5.388 0.009 5.373C0.003 5.358 0 5.343 0 5.327C0.003 5.314 0.006 5.301 0.007 5.288L1.086 0.804C1.252 0.109 1.788 0 2.287 0C2.786 0 3.315 0.109 3.48 0.804L4.559 5.288C4.561 5.301 4.563 5.314 4.566 5.327C4.566 5.343 4.563 5.359 4.557 5.373C4.551 5.388 4.541 5.401 4.53 5.412C4.518 5.423 4.504 5.431 4.489 5.436C4.474 5.441 4.458 5.442 4.442 5.441ZM2.38 1.137C2.366 1.063 2.351 1.028 2.286 1.028C2.221 1.028 2.199 1.063 2.185 1.137L1.743 3.133L2.822 3.133L2.38 1.137Z" fill="rgb(28,74,46)" fill-opacity="1.000" fill-rule="nonzero" transform="matrix(1 0 0 1 55.368 34.9273)"/><path d="M2.943 5.344C2.553 5.406 2.16 5.438 1.766 5.438C0.832 5.438 0 5.199 0 3.884L0 0.144C0 0.106 0.016 0.069 0.043 0.043C0.069 0.016 0.106 0 0.144 0L1.091 0C1.13 0 1.167 0.015 1.194 0.042C1.221 0.069 1.236 0.106 1.237 0.144L1.237 3.885C1.237 4.26 1.36 4.377 1.7 4.377L2.944 4.377C2.982 4.377 3.019 4.392 3.046 4.419C3.073 4.446 3.089 4.483 3.09 4.521L3.09 5.195C3.089 5.284 3.045 5.323 2.943 5.344Z" fill="rgb(28,74,46)" fill-opacity="1.000" fill-rule="nonzero" transform="matrix(1 0 0 1 60.9405 34.9948)"/></svg>