<svg xmlns="http://www.w3.org/2000/svg" viewBox="0 0 60 60" width="60" height="60"><path d="M0 0L60 0L60 60L0 60L0 0Z" fill="rgb(37,37,37)" fill-opacity="1.000" fill-rule="nonzero" transform="matrix(1 0 0 1 0 0)"/><path d="M4.767 9.351L17.584 9.351C16.834 6.37 14.546 4.433 11.516 4.433C8.487 4.433 5.697 6.497 4.767 9.351ZM17.751 23.139L13.95 23.139C1.359 23.139 0 15.045 0 11.569C0 5.19 5.165 0 11.512 0C17.859 0 22.261 4.977 22.261 11.569L22.261 13.788L4.681 13.788C5.562 17.091 8.618 18.706 13.95 18.706L17.751 18.706L17.751 23.143L17.751 23.139Z" fill="rgb(255,255,255)" fill-opacity="1.000" fill-rule="nonzero" transform="matrix(1 0 0 1 22.9041 14)"/><path d="M19.836 19.259C9.083 19.259 0 10.44 0 0L4.415 0C4.415 8.035 11.48 14.822 19.841 14.822L19.841 19.259L19.836 19.259Z" fill="rgb(229,0,126)" fill-opacity="1.000" fill-rule="nonzero" transform="matrix(1 0 0 1 15 26.4305)"/></svg>