<svg xmlns="http://www.w3.org/2000/svg" viewBox="0 0 130 60" width="130" height="60"><path d="M0 0L130 0L130 60L0 60L0 0Z" fill="rgb(255,255,255)" fill-opacity="1.000" fill-rule="nonzero" transform="matrix(1 0 0 1 0 0)"/><path d="M0.905 6.38C0.905 3.313 3.193 0.91 6.114 0.91C9.034 0.91 11.276 3.22 11.276 6.404L11.276 6.453C11.276 9.61 9.106 11.902 6.114 11.902C3.121 11.902 0.905 9.498 0.905 6.431L0.905 6.383L0.905 6.38ZM6.138 0C3.863 0 1.92 1.17 0.929 3.059L0.929 0.284L0 0.284L0 16.304L0.929 16.304L0.929 9.753C1.92 11.641 3.863 12.811 6.138 12.811C9.611 12.811 12.23 10.066 12.23 6.431L12.23 6.383C12.23 2.745 9.611 0.003 6.138 0.003" fill="rgb(37,37,37)" fill-opacity="1.000" fill-rule="nonzero" transform="matrix(1 0 0 1 79.3682 22.7369)"/><path d="M4.635 11.805C2.937 11.805 0.953 11.051 0.953 8.932L0.953 8.883C0.953 6.643 3.292 5.843 5.481 5.843C7.035 5.843 8.367 6.063 9.656 6.533L9.656 7.891C9.656 9.774 7.737 11.805 4.635 11.805ZM5.457 0C4.034 0 2.737 0.327 1.25 1.06L1.063 1.154L1.426 1.977L1.629 1.881C3.017 1.21 4.189 0.91 5.433 0.91C7.361 0.91 9.656 1.602 9.656 4.894L9.656 5.578C8.402 5.167 6.891 4.934 5.457 4.934C2.141 4.934 0 6.493 0 8.907L0 8.956C0 11.539 2.39 12.717 4.611 12.717C7.05 12.717 8.802 11.588 9.656 10.324L9.656 12.436L10.585 12.436L10.585 4.875C10.585 3.381 10.166 2.165 9.37 1.368C8.471 0.464 7.155 0.005 5.457 0.005" fill="rgb(37,37,37)" fill-opacity="1.000" fill-rule="nonzero" transform="matrix(1 0 0 1 93.0663 22.8304)"/><path d="M11.154 0L6.236 10.984L1.022 0L0 0L5.766 12.025C4.509 14.759 3.799 15.204 2.6 15.204C1.965 15.204 1.206 14.923 0.737 14.644L0.55 14.531L0.096 15.306L0.28 15.419C0.808 15.744 1.695 16.09 2.603 16.09C4.365 16.09 5.251 15.25 6.559 12.35L12.15 0L11.154 0Z" fill="rgb(37,37,37)" fill-opacity="1.000" fill-rule="nonzero" transform="matrix(1 0 0 1 104.8507 23.0213)"/><path d="M3.073 13.64L0 13.64L0 0.279L3.073 0.279L3.073 2.377C3.289 2.055 3.529 1.752 3.788 1.47C4.047 1.189 4.349 0.939 4.691 0.716C5.035 0.494 5.411 0.322 5.82 0.193C6.231 0.064 6.695 0 7.213 0C8.719 0 9.883 0.464 10.705 1.392C11.525 2.321 11.936 3.568 11.936 5.138L11.936 13.643L8.863 13.643L8.863 6.069C8.863 5.025 8.618 4.22 8.126 3.657C7.635 3.093 6.941 2.812 6.041 2.812C5.142 2.812 4.442 3.102 3.895 3.684C3.345 4.263 3.07 5.076 3.07 6.12L3.07 13.646L3.073 13.64Z" fill="rgb(37,37,37)" fill-opacity="1.000" fill-rule="nonzero" transform="matrix(1 0 0 1 31.4878 22.2546)"/><path d="M3.073 13.619L0 13.619L0 0.258L3.073 0.258L3.073 3.271C3.492 2.257 4.087 1.449 4.861 0.84C5.633 0.234 6.607 -0.045 7.782 0.006L7.782 3.244L7.606 3.244C6.933 3.244 6.322 3.354 5.766 3.574C5.214 3.794 4.733 4.122 4.33 4.562C3.927 5.002 3.617 5.554 3.398 6.22C3.18 6.888 3.07 7.658 3.07 8.535L3.07 13.622L3.073 13.619Z" fill="rgb(37,37,37)" fill-opacity="1.000" fill-rule="nonzero" transform="matrix(1 0 0 1 55.3071 22.275)"/><path d="M2.819 5.53L10.398 5.53C9.955 3.767 8.602 2.621 6.81 2.621C5.019 2.621 3.369 3.842 2.819 5.53ZM10.497 13.683L8.249 13.683C0.804 13.683 0 8.897 0 6.842C0 3.069 3.054 0 6.807 0C10.561 0 13.164 2.943 13.164 6.842L13.164 8.154L2.766 8.154C3.286 10.107 5.091 11.062 8.246 11.062L10.495 11.062L10.495 13.686L10.497 13.683Z" fill="rgb(37,37,37)" fill-opacity="1.000" fill-rule="nonzero" transform="matrix(1 0 0 1 63.6764 22.26)"/><path d="M2.819 5.53L10.398 5.53C9.955 3.767 8.602 2.621 6.81 2.621C5.019 2.621 3.369 3.842 2.819 5.53ZM10.497 13.683L8.249 13.683C0.804 13.683 0 8.897 0 6.842C0 3.069 3.054 0 6.808 0C10.561 0 13.164 2.943 13.164 6.842L13.164 8.154L2.768 8.154C3.289 10.107 5.096 11.062 8.249 11.062L10.497 11.062L10.497 13.686L10.497 13.683Z" fill="rgb(37,37,37)" fill-opacity="1.000" fill-rule="nonzero" transform="matrix(1 0 0 1 16.6747 22.26)"/><path d="M11.73 11.389C5.371 11.389 0 6.173 0 0L2.611 0C2.611 4.752 6.789 8.765 11.733 8.765L11.733 11.389L11.73 11.389Z" fill="rgb(229,0,126)" fill-opacity="1.000" fill-rule="nonzero" transform="matrix(1 0 0 1 12 29.6109)"/><path d="M7.221 16.895C2.699 16.895 0 14.692 0 11.003L0 0L3.046 0L3.046 3.531L7.221 3.531L7.221 6.592L3.046 6.592L3.046 11.005C3.046 11.706 3.046 13.836 7.221 13.836L7.221 16.897L7.221 16.895Z" fill="rgb(37,37,37)" fill-opacity="1.000" fill-rule="nonzero" transform="matrix(1 0 0 1 45.3684 18.9997)"/></svg>