<svg xmlns="http://www.w3.org/2000/svg" viewBox="0 0 60 60" width="60" height="60"><path d="M0 0L60 0L60 60L0 60L0 0Z" fill="rgb(0,0,0)" fill-opacity="1.000" fill-rule="nonzero" transform="matrix(1 0 0 1 0 0)"/><path d="M4.765 17.611L17.221 17.611L17.221 12.842L4.765 12.842L4.765 4.769L18.443 4.769L18.443 0L0 0L0 30.458L18.443 30.458L18.443 25.684L4.765 25.684L4.765 17.611Z" fill="rgb(255,255,255)" fill-opacity="1.000" fill-rule="nonzero" transform="matrix(1 0 0 1 9.7461 15.121)"/><path d="M18.444 0L0 0L0 4.77L18.444 4.77L18.444 0Z" fill="rgb(236,0,0)" fill-opacity="1.000" fill-rule="nonzero" transform="matrix(1 0 0 1 32.556 40.8058)"/></svg>