<svg xmlns="http://www.w3.org/2000/svg" viewBox="0 0 130 60" width="130" height="60"><path d="M0 0L130 0L130 60L0 60L0 0Z" fill="rgb(255,255,255)" fill-opacity="1.000" fill-rule="nonzero" transform="matrix(1 0 0 1 0 0)"/><path d="M13.963 2.596C13.333 1.868 12.52 1.249 11.547 0.753C10.563 0.253 9.384 0 8.05 0C6.914 0 5.844 0.206 4.868 0.612C3.891 1.021 3.03 1.589 2.307 2.299C1.58 3.015 1.009 3.881 0.604 4.872C0.199 5.861 0 6.936 0 8.069L0 8.804C0 10.042 0.192 11.185 0.586 12.206C0.98 13.241 1.533 14.139 2.235 14.881C2.94 15.634 3.793 16.224 4.777 16.633C5.746 17.039 6.828 17.245 7.992 17.245C10.075 17.245 11.767 16.756 13.022 15.79C13.728 15.247 14.317 14.599 14.776 13.864L14.99 13.52L11.872 11.902L11.688 12.192C11.493 12.499 11.239 12.771 10.928 13.003C10.61 13.245 10.212 13.441 9.746 13.585C9.276 13.73 8.704 13.803 8.046 13.803C6.647 13.803 5.551 13.375 4.792 12.579C4.137 11.891 3.736 10.986 3.595 9.893L15.84 9.893L15.84 7.388C15.84 6.65 15.673 5.842 15.377 4.985C15.076 4.119 14.592 3.312 13.963 2.581M3.739 6.516C3.822 6.241 3.938 5.955 4.079 5.69C4.321 5.231 4.64 4.836 5.023 4.5C5.41 4.159 5.866 3.895 6.372 3.71C6.885 3.518 7.453 3.424 8.053 3.424C8.578 3.424 9.091 3.519 9.587 3.7C10.082 3.877 10.527 4.134 10.914 4.456C11.29 4.775 11.605 5.151 11.843 5.607C11.992 5.89 12.1 6.241 12.172 6.516L3.743 6.516L3.739 6.516Z" fill="rgb(0,0,0)" fill-opacity="1.000" fill-rule="nonzero" transform="matrix(1 0 0 1 54.8809 23.8711)"/><path d="M4.058 0.872L4.025 0.89C3.483 1.452 3.186 2.172 3.186 3.015L3.186 6.291L0 6.291L0 9.665L3.186 9.665L3.186 22.7L6.828 22.7L6.828 9.665L10.925 9.665L10.925 6.291L6.828 6.291L6.828 3.75C6.828 3.414 6.849 3.374 7.03 3.374L10.921 3.374L10.921 0L6.17 0C5.32 0 4.607 0.304 4.054 0.869" fill="rgb(0,0,0)" fill-opacity="1.000" fill-rule="nonzero" transform="matrix(1 0 0 1 42.498 18)"/><path d="M3.551 13.125L12.834 13.125L12.834 9.571L3.551 9.571L3.551 3.555L13.746 3.555L13.746 0L0 0L0 22.7L13.746 22.7L13.746 19.142L3.551 19.142L3.551 13.125Z" fill="rgb(0,0,0)" fill-opacity="1.000" fill-rule="nonzero" transform="matrix(1 0 0 1 11 18.0078)"/><path d="M12.422 8.199C11.402 7.424 9.977 6.972 8.072 6.816C6.513 6.7 5.443 6.469 4.893 6.128C4.419 5.832 4.209 5.451 4.209 4.89C4.209 4.633 4.271 4.405 4.394 4.221C4.531 4.014 4.723 3.837 4.962 3.692C5.218 3.537 5.522 3.421 5.866 3.341C6.22 3.262 6.596 3.218 6.987 3.218C7.96 3.218 8.748 3.457 9.334 3.924C9.782 4.29 10.075 4.749 10.223 5.339L10.292 5.607L13.67 5.296L13.605 4.948C13.503 4.402 13.319 3.852 13.059 3.309C12.751 2.675 12.31 2.103 11.746 1.618C11.185 1.137 10.491 0.742 9.677 0.449C8.86 0.152 7.912 0 6.86 0C6.093 0 5.356 0.101 4.661 0.297C3.956 0.496 3.305 0.8 2.734 1.202C2.152 1.618 1.692 2.136 1.349 2.74C0.998 3.359 0.828 4.083 0.828 4.89L0.828 5.075C0.828 6.581 1.363 7.747 2.445 8.543C3.461 9.296 4.911 9.745 6.766 9.875C8.195 9.973 9.222 10.186 9.822 10.516C10.332 10.794 10.556 11.218 10.556 11.891C10.556 12.51 10.307 12.959 9.775 13.299C9.182 13.679 8.365 13.875 7.348 13.875C6.159 13.875 5.208 13.564 4.513 12.952C3.964 12.463 3.598 11.826 3.432 11.062L3.37 10.784L0 11.091L0.036 11.417C0.105 12.058 0.278 12.695 0.546 13.317C0.861 14.049 1.331 14.707 1.946 15.276C2.56 15.848 3.331 16.307 4.238 16.644C5.139 16.981 6.227 17.155 7.475 17.155C8.401 17.155 9.269 17.039 10.057 16.811C10.863 16.579 11.565 16.235 12.14 15.783C12.719 15.33 13.189 14.769 13.521 14.114C13.854 13.455 14.031 12.709 14.031 11.895L14.031 11.71C14.031 10.19 13.482 9.01 12.418 8.203" fill="rgb(0,0,0)" fill-opacity="1.000" fill-rule="nonzero" transform="matrix(1 0 0 1 27.0059 23.9219)"/><path d="M6.723 0.822C6.137 1.151 5.645 1.614 5.19 2.165L5.19 0.449L0 0.449L0 3.823L1.638 3.823L1.638 16.861L4.604 16.861L5.19 16.847L5.19 8.474C5.19 7.703 5.298 7.001 5.518 6.385C5.743 5.763 6.036 5.245 6.419 4.807C6.788 4.384 7.24 4.047 7.761 3.815C8.285 3.584 8.867 3.464 9.5 3.464L10.556 3.464L10.556 0L9.746 0C8.686 0 7.67 0.29 6.719 0.825" fill="rgb(0,0,0)" fill-opacity="1.000" fill-rule="nonzero" transform="matrix(1 0 0 1 72.9043 23.8457)"/><path d="M12.885 0.424L12.288 0.434L12.288 2.016C11.833 1.495 11.359 1.075 10.784 0.76C9.854 0.257 8.813 0 7.674 0C6.647 0 5.656 0.192 4.73 0.565C3.797 0.945 2.976 1.499 2.278 2.219C1.584 2.936 1.009 3.823 0.611 4.858C0.22 5.886 0 7.07 0 8.38L0 8.872C0 10.201 0.22 11.399 0.615 12.427C1.009 13.462 1.577 14.349 2.271 15.066C2.973 15.79 3.804 16.34 4.734 16.706C5.656 17.068 6.668 17.252 7.739 17.252C8.809 17.252 9.811 16.981 10.762 16.441C11.348 16.112 11.836 15.667 12.292 15.113L12.292 16.829L15.843 16.829L15.843 0.42L12.889 0.42L12.885 0.424ZM12.288 8.445L12.288 8.811C12.288 9.582 12.183 10.284 11.963 10.899C11.738 11.522 11.449 12.04 11.066 12.478C10.697 12.901 10.245 13.234 9.724 13.466C9.203 13.698 8.618 13.813 7.985 13.813C6.708 13.813 5.649 13.386 4.86 12.539C4.057 11.685 3.642 10.451 3.642 8.876L3.642 8.384C3.642 7.638 3.765 6.943 3.989 6.324C4.206 5.719 4.517 5.194 4.9 4.771C5.283 4.351 5.743 4.022 6.26 3.79C6.773 3.558 7.356 3.443 7.985 3.443C8.614 3.443 9.167 3.566 9.688 3.805C10.216 4.047 10.679 4.387 11.062 4.814C11.449 5.245 11.749 5.774 11.966 6.385C12.187 7.004 12.292 7.699 12.292 8.445" fill="rgb(0,0,0)" fill-opacity="1.000" fill-rule="nonzero" transform="matrix(1 0 0 1 84.8643 23.8711)"/><path d="M13.746 0L0 0L0 3.555L13.746 3.555L13.746 0Z" fill="rgb(236,0,0)" fill-opacity="1.000" fill-rule="nonzero" transform="matrix(1 0 0 1 104.2539 37.1504)"/></svg>