<svg xmlns="http://www.w3.org/2000/svg" viewBox="0 0 60 60" width="60" height="60"><path d="M0 0L60 0L60 60L0 60L0 0Z" fill="rgb(0,180,188)" fill-opacity="1.000" fill-rule="nonzero" transform="matrix(1 0 0 1 0 0)"/><path d="M0 6.488L0 0.393C0 0.131 0.129 0 0.388 0L3.933 0C4.127 0 4.223 0.164 4.223 0.492L4.223 0.796C4.223 1.124 4.127 1.288 3.933 1.288L1.491 1.288L1.491 2.713L3.67 2.713C3.864 2.713 3.961 2.877 3.961 3.204L3.961 3.509C3.961 3.837 3.864 4 3.67 4L1.491 4L1.491 5.593L3.942 5.593C4.136 5.593 4.233 5.757 4.233 6.084L4.233 6.39C4.233 6.718 4.136 6.881 3.942 6.881L0.388 6.881C0.129 6.881 0 6.75 0 6.488Z" fill="rgb(255,255,255)" fill-opacity="1.000" fill-rule="nonzero" transform="matrix(1 0 0 1 14 43.9609)"/><path d="M0 0.256C0 0.085 0.2 0 0.601 0L0.852 0C1.24 0 1.457 0.102 1.502 0.305L2.228 3.47C2.241 3.516 2.341 3.988 2.528 4.886C2.567 4.624 2.677 4.152 2.858 3.47L3.652 0.206C3.684 0.069 3.862 0 4.185 0L4.553 0C4.876 0 5.053 0.069 5.086 0.206L5.851 3.47C5.961 3.949 6.071 4.443 6.18 4.955C6.225 4.765 6.285 4.498 6.359 4.154C6.434 3.809 6.484 3.582 6.51 3.47L7.265 0.305C7.31 0.102 7.527 0 7.914 0L8.021 0C8.421 0 8.621 0.085 8.621 0.256C8.617 0.305 8.611 0.354 8.602 0.403L7.023 6.714C6.984 6.852 6.806 6.921 6.49 6.921L5.784 6.921C5.454 6.921 5.277 6.852 5.251 6.714L4.301 2.644L3.313 6.714C3.274 6.852 3.096 6.921 2.78 6.921L2.083 6.921C1.753 6.921 1.576 6.852 1.55 6.714L0.02 0.403C0.005 0.355 -0.001 0.306 0 0.256Z" fill="rgb(255,255,255)" fill-opacity="1.000" fill-rule="nonzero" transform="matrix(1 0 0 1 18.5817 43.9413)"/><path d="M0 6.705C0.007 6.644 0.02 6.585 0.039 6.528L2.17 0.206C2.221 0.069 2.405 0 2.722 0L3.227 0C3.543 0 3.727 0.069 3.779 0.206L5.91 6.528C5.928 6.585 5.938 6.645 5.939 6.705C5.939 6.849 5.778 6.92 5.455 6.919L5.03 6.919C4.713 6.919 4.532 6.851 4.487 6.713L4.1 5.514L1.815 5.514L1.427 6.713C1.382 6.851 1.234 6.92 0.982 6.919L0.591 6.919C0.197 6.92 0 6.849 0 6.705ZM2.228 4.217L3.681 4.217L3.129 2.467L2.983 1.839L2.945 1.839C2.887 2.146 2.838 2.356 2.799 2.467L2.228 4.217Z" fill="rgb(255,255,255)" fill-opacity="1.000" fill-rule="nonzero" transform="matrix(1 0 0 1 27.1642 43.9413)"/><path d="M0 6.508L0 0.315C0 0.105 0.194 0 0.581 0L0.911 0C1.298 0 1.492 0.105 1.492 0.315L1.492 5.613L3.652 5.613C3.846 5.613 3.943 5.777 3.943 6.105L3.943 6.409C3.943 6.737 3.846 6.901 3.652 6.901L0.387 6.901C0.129 6.901 0 6.77 0 6.508Z" fill="rgb(255,255,255)" fill-opacity="1.000" fill-rule="nonzero" transform="matrix(1 0 0 1 33.7709 43.9413)"/><path d="M0 6.508L0 0.315C0 0.105 0.194 0 0.581 0L0.911 0C1.298 0 1.492 0.105 1.492 0.315L1.492 5.613L3.652 5.613C3.846 5.613 3.942 5.777 3.943 6.105L3.943 6.409C3.943 6.737 3.846 6.901 3.652 6.901L0.387 6.901C0.129 6.901 0 6.77 0 6.508Z" fill="rgb(255,255,255)" fill-opacity="1.000" fill-rule="nonzero" transform="matrix(1 0 0 1 38.4588 43.9413)"/><path d="M2.025 6.606L2.025 3.598L0.097 0.442C0.032 0.331 0 0.249 0 0.196C0 0.065 0.207 0 0.62 0L1.036 0C1.353 0 1.547 0.063 1.618 0.188L2.799 2.292L3.991 0.188C4.062 0.063 4.256 0 4.572 0L4.921 0C5.328 0 5.532 0.065 5.532 0.196C5.532 0.262 5.503 0.344 5.445 0.442L3.517 3.627L3.517 6.607C3.517 6.817 3.324 6.921 2.936 6.921L2.607 6.921C2.219 6.921 2.025 6.816 2.025 6.606Z" fill="rgb(255,255,255)" fill-opacity="1.000" fill-rule="nonzero" transform="matrix(1 0 0 1 41.2796 43.9413)"/><path d="M0.523 9.473C1.025 10.688 1.864 11.73 2.939 12.473C4.039 13.234 5.34 13.641 6.673 13.64L6.674 13.64C7.456 13.64 8.232 13.5 8.966 13.225C9.789 13.222 10.603 13.051 11.36 12.724C12.492 12.23 13.456 11.412 14.132 10.37C14.808 9.328 15.167 8.109 15.164 6.863L15.164 6.859C15.166 5.838 14.925 4.832 14.463 3.925C14 3.017 13.328 2.235 12.504 1.645C11.532 0.948 10.381 0.551 9.19 0.502C8.392 0.17 7.537 -0.001 6.674 0C5.781 -0.001 4.896 0.182 4.075 0.537C2.862 1.066 1.829 1.944 1.105 3.061C0.38 4.177 -0.004 5.484 0 6.819C-0.002 7.73 0.176 8.632 0.523 9.473ZM8.814 12.363C8.126 12.349 7.447 12.199 6.815 11.923C5.843 11.492 5.016 10.783 4.436 9.884C3.856 8.985 3.549 7.934 3.552 6.861C3.55 5.962 3.765 5.076 4.179 4.28C4.593 3.484 5.193 2.802 5.927 2.293C6.812 1.68 7.86 1.353 8.933 1.354L8.934 1.354C8.955 1.354 8.977 1.354 9.002 1.355C9.796 1.718 10.501 2.252 11.068 2.92C11.635 3.588 12.049 4.374 12.282 5.222C12.515 6.07 12.56 6.959 12.415 7.827C12.27 8.695 11.938 9.519 11.442 10.243C10.79 11.194 9.876 11.931 8.814 12.363ZM13.889 9.005C13.483 9.985 12.805 10.827 11.938 11.427C11.688 11.601 11.424 11.752 11.149 11.88C11.844 11.238 12.398 10.457 12.777 9.586C13.156 8.715 13.351 7.774 13.349 6.823L13.349 6.821C13.351 5.91 13.173 5.008 12.825 4.167C12.477 3.327 11.967 2.565 11.323 1.927C12.176 2.362 12.901 3.017 13.423 3.826C13.912 4.586 14.21 5.455 14.291 6.358C14.372 7.26 14.235 8.169 13.89 9.006L13.889 9.005ZM1.307 4.499C1.746 3.438 2.48 2.527 3.419 1.876C4.377 1.213 5.512 0.858 6.674 0.859C6.731 0.859 6.787 0.86 6.844 0.862C6.73 0.903 6.617 0.948 6.506 0.996C5.373 1.49 4.409 2.309 3.733 3.351C3.057 4.394 2.699 5.613 2.702 6.86C2.7 7.894 2.946 8.914 3.421 9.83C3.895 10.747 4.583 11.534 5.425 12.122C5.805 12.387 6.214 12.608 6.642 12.78C5.874 12.777 5.114 12.619 4.408 12.313C3.365 11.86 2.474 11.11 1.844 10.154C1.303 9.329 0.97 8.381 0.876 7.395C0.783 6.408 0.931 5.414 1.307 4.499Z" fill="rgb(255,255,255)" fill-opacity="1.000" fill-rule="nonzero" transform="matrix(1 0 0 1 22.7978 9)"/><path d="M0 0L0 0L0.001 0L0 0Z" fill="rgb(255,255,255)" fill-opacity="1.000" fill-rule="nonzero" transform="matrix(1 0 0 1 18.7336 20.8658)"/><path d="M30.811 1.781C30.771 1.629 30.716 1.482 30.647 1.34C30.575 1.192 30.487 1.051 30.384 0.922C30.161 0.641 29.881 0.412 29.562 0.251C29.241 0.087 28.887 0.001 28.528 0C28.403 0 28.279 0.011 28.156 0.032C27.935 0.073 27.721 0.146 27.52 0.249C27.414 0.302 27.312 0.359 27.214 0.42C27.069 0.332 26.915 0.259 26.755 0.201C26.494 0.107 26.22 0.059 25.944 0.058C25.812 0.058 25.68 0.069 25.55 0.092C25.315 0.136 25.087 0.214 24.874 0.323C24.56 0.479 24.278 0.679 24.015 0.872C23.753 1.065 23.51 1.253 23.294 1.388C22.589 1.83 21.863 2.235 21.117 2.601C19.862 3.214 18.568 3.715 17.246 4.033C16.963 4.023 16.68 4.002 16.396 3.969C15.078 3.812 13.795 3.446 12.555 2.941C11.316 2.436 10.12 1.79 8.979 1.079C8.859 1.005 8.733 0.914 8.601 0.815C8.402 0.668 8.19 0.504 7.955 0.359C7.835 0.284 7.71 0.218 7.58 0.162C7.444 0.103 7.301 0.059 7.155 0.033C7.036 0.012 6.916 0.002 6.795 0.002C6.558 0.003 6.322 0.04 6.096 0.111C5.869 0.182 5.652 0.284 5.453 0.415C5.38 0.463 5.31 0.515 5.244 0.571C5.197 0.612 5.153 0.655 5.111 0.699C5.05 0.765 4.992 0.834 4.938 0.906C4.885 0.977 4.83 1.052 4.768 1.137L4.767 1.138C4.673 1.075 4.575 1.004 4.475 0.929C4.26 0.77 4.033 0.594 3.782 0.439C3.654 0.359 3.521 0.289 3.383 0.229C3.239 0.166 3.087 0.12 2.932 0.092C2.805 0.07 2.678 0.059 2.549 0.06C2.297 0.06 2.046 0.1 1.805 0.176C1.564 0.251 1.334 0.36 1.122 0.499C1.045 0.55 0.971 0.605 0.9 0.665C0.851 0.708 0.803 0.753 0.758 0.801C0.693 0.871 0.632 0.944 0.574 1.02C0.516 1.097 0.457 1.18 0.388 1.274C0.306 1.389 0.238 1.515 0.187 1.648C0.113 1.842 0.063 2.045 0.038 2.252C0.012 2.455 -0.001 2.66 0 2.865C0.003 3.192 0.023 3.52 0.059 3.845C0.104 4.285 0.148 4.673 0.201 5.059C0.255 5.446 0.32 5.832 0.407 6.267C0.576 7.116 0.797 7.953 1.069 8.774C1.331 9.569 1.643 10.347 2.003 11.102C2.352 11.835 2.747 12.543 3.188 13.223C3.615 13.882 4.087 14.51 4.6 15.103C5.099 15.68 5.64 16.218 6.218 16.714C6.782 17.198 7.384 17.636 8.018 18.023C8.641 18.405 9.296 18.732 9.976 19C10.654 19.267 11.354 19.47 12.069 19.608C12.785 19.746 13.512 19.816 14.241 19.817C14.97 19.816 15.697 19.746 16.413 19.608C17.128 19.47 17.828 19.267 18.506 19C19.169 18.738 19.809 18.421 20.419 18.051C20.829 17.942 21.232 17.809 21.627 17.654C22.26 17.405 22.871 17.101 23.452 16.746C24.042 16.385 24.602 15.977 25.128 15.526C25.666 15.065 26.169 14.563 26.634 14.027C27.111 13.475 27.55 12.89 27.948 12.276C28.358 11.644 28.726 10.985 29.051 10.304C29.385 9.601 29.675 8.877 29.92 8.137C30.172 7.373 30.377 6.594 30.534 5.804C30.614 5.4 30.675 5.041 30.725 4.681C30.776 4.321 30.816 3.961 30.858 3.551C30.892 3.257 30.911 2.96 30.915 2.664C30.919 2.366 30.884 2.069 30.811 1.781ZM27.58 3.714C27.578 3.728 27.577 3.743 27.576 3.757C27.548 4.029 27.521 4.278 27.492 4.517C27.475 4.661 27.456 4.8 27.437 4.939C27.384 5.311 27.324 5.678 27.24 6.098C27.078 6.912 26.866 7.715 26.606 8.502C26.355 9.263 26.057 10.007 25.712 10.73C25.38 11.428 25.003 12.104 24.583 12.752C24.177 13.378 23.729 13.974 23.242 14.538C22.887 14.948 22.509 15.338 22.112 15.706C21.981 15.827 21.848 15.944 21.713 16.059C21.202 16.498 20.657 16.896 20.085 17.25C19.897 17.298 19.708 17.34 19.519 17.377C18.287 17.616 17.021 17.616 15.789 17.377C15.175 17.259 14.573 17.083 13.99 16.854C13.403 16.622 12.836 16.34 12.297 16.01C11.746 15.673 11.223 15.292 10.732 14.871C10.226 14.437 9.753 13.965 9.316 13.461C8.864 12.939 8.449 12.385 8.073 11.805C7.683 11.204 7.334 10.578 7.025 9.931C6.706 9.26 6.429 8.57 6.197 7.864C5.956 7.134 5.76 6.389 5.61 5.634C5.532 5.244 5.475 4.904 5.427 4.56C5.379 4.216 5.34 3.867 5.299 3.463C5.296 3.432 5.292 3.401 5.289 3.368C5.277 3.24 5.265 3.102 5.257 2.96C5.255 2.925 5.254 2.889 5.252 2.853C5.249 2.782 5.248 2.711 5.248 2.64C5.248 2.572 5.25 2.504 5.253 2.438C6.316 3.057 7.423 3.62 8.574 4.079C9.92 4.615 11.326 5.009 12.781 5.182C12.841 5.189 12.902 5.195 12.962 5.202C13.26 5.233 13.557 5.252 13.853 5.261C13.914 5.262 13.976 5.264 14.039 5.265C14.098 5.265 14.158 5.265 14.217 5.265C14.284 5.265 14.352 5.264 14.419 5.263C14.553 5.261 14.687 5.257 14.821 5.25C14.888 5.247 14.954 5.243 15.021 5.239C15.8 5.188 16.573 5.072 17.333 4.893L17.367 4.893C17.438 4.894 17.507 4.895 17.576 4.896L17.636 4.896C18.826 4.896 19.99 4.713 21.119 4.402C22.249 4.09 23.345 3.65 24.402 3.135C24.574 3.05 24.747 2.963 24.921 2.872L24.956 2.854C25.124 2.765 25.293 2.675 25.461 2.582C25.813 2.386 26.162 2.179 26.5 1.969C26.668 1.863 26.829 1.745 26.987 1.628L27.181 1.484C27.208 1.512 27.235 1.541 27.257 1.571C27.327 1.66 27.388 1.757 27.438 1.859C27.511 2.012 27.562 2.174 27.591 2.34C27.622 2.522 27.637 2.706 27.635 2.89C27.635 3.022 27.629 3.158 27.619 3.297C27.609 3.436 27.597 3.571 27.583 3.71L27.663 3.718L27.58 3.714ZM5.783 1.237C5.825 1.199 5.87 1.165 5.918 1.135C6.051 1.047 6.195 0.979 6.346 0.931C6.491 0.886 6.642 0.862 6.794 0.861C6.866 0.861 6.937 0.867 7.008 0.879C7.122 0.901 7.231 0.939 7.333 0.992C7.506 1.078 7.696 1.209 7.894 1.357C8.092 1.503 8.301 1.666 8.531 1.81C9.703 2.54 10.94 3.208 12.236 3.736C12.878 3.999 13.534 4.223 14.202 4.407C13.829 4.407 13.454 4.388 13.077 4.35C13.011 4.343 12.946 4.336 12.88 4.329C12.282 4.256 11.688 4.147 11.103 4C10.349 3.81 9.608 3.569 8.885 3.279C7.716 2.814 6.584 2.233 5.495 1.587C5.532 1.534 5.565 1.489 5.595 1.45C5.625 1.41 5.653 1.374 5.677 1.345C5.71 1.306 5.745 1.27 5.783 1.237ZM21.487 3.373C22.259 2.994 23.012 2.576 23.742 2.119C23.921 2.007 24.094 1.881 24.264 1.755C24.518 1.565 24.769 1.375 25.011 1.227C25.124 1.156 25.243 1.094 25.365 1.041C25.471 0.994 25.583 0.96 25.696 0.939C25.778 0.925 25.861 0.917 25.945 0.917C26.103 0.918 26.26 0.942 26.411 0.99C26.283 1.084 26.161 1.171 26.049 1.241C25.395 1.65 24.721 2.025 24.03 2.364C23.149 2.793 22.248 3.165 21.331 3.448C21.384 3.423 21.435 3.398 21.487 3.372L21.452 3.3L21.487 3.373ZM16.253 18.764C14.923 19.022 13.556 19.022 12.226 18.764C11.562 18.637 10.912 18.448 10.283 18.201C9.649 17.951 9.037 17.646 8.455 17.29C7.86 16.926 7.296 16.515 6.766 16.061C6.221 15.592 5.711 15.083 5.24 14.538C4.753 13.974 4.304 13.378 3.899 12.752C3.479 12.104 3.102 11.428 2.769 10.73C2.425 10.007 2.127 9.263 1.876 8.502C1.616 7.715 1.404 6.912 1.242 6.098C1.158 5.678 1.097 5.311 1.045 4.939C0.993 4.568 0.951 4.192 0.906 3.758C0.873 3.462 0.854 3.165 0.851 2.867L0.851 2.864C0.848 2.649 0.867 2.434 0.906 2.222C0.922 2.135 0.947 2.05 0.978 1.967C1.003 1.903 1.036 1.841 1.075 1.784C1.137 1.7 1.188 1.628 1.232 1.57C1.266 1.525 1.295 1.489 1.322 1.456C1.358 1.413 1.396 1.372 1.438 1.335C1.485 1.294 1.535 1.256 1.588 1.222C1.733 1.127 1.891 1.052 2.057 1C2.216 0.949 2.381 0.923 2.548 0.922C2.627 0.922 2.706 0.929 2.785 0.942C2.91 0.966 3.03 1.009 3.143 1.067C3.332 1.161 3.537 1.304 3.751 1.463C3.965 1.621 4.19 1.796 4.436 1.949L4.45 1.958C4.44 2.016 4.431 2.073 4.423 2.132C4.418 2.175 4.414 2.218 4.411 2.26C4.4 2.389 4.396 2.518 4.396 2.643C4.396 2.687 4.396 2.73 4.397 2.772C4.4 2.892 4.406 3.009 4.413 3.121C4.413 3.127 4.413 3.133 4.413 3.138C4.419 3.212 4.425 3.283 4.431 3.353C4.437 3.422 4.444 3.492 4.45 3.556C4.46 3.652 4.47 3.746 4.48 3.838C4.486 3.892 4.491 3.946 4.497 3.998C4.524 4.235 4.55 4.46 4.583 4.685C4.633 5.045 4.693 5.404 4.774 5.808C4.931 6.598 5.136 7.377 5.389 8.141C5.634 8.88 5.925 9.602 6.261 10.304C6.585 10.985 6.953 11.644 7.363 12.276C7.76 12.89 8.2 13.475 8.678 14.027C9.142 14.564 9.645 15.065 10.182 15.526C10.708 15.977 11.269 16.385 11.859 16.746C12.44 17.101 13.05 17.405 13.683 17.654C14.314 17.903 14.966 18.093 15.632 18.222C16.28 18.346 16.939 18.411 17.599 18.415C17.159 18.56 16.71 18.677 16.254 18.764L16.269 18.844L16.253 18.764ZM30.011 3.463C29.97 3.868 29.931 4.217 29.882 4.561C29.834 4.905 29.776 5.245 29.7 5.634C29.549 6.389 29.353 7.134 29.112 7.864C28.879 8.57 28.602 9.261 28.283 9.931C27.975 10.578 27.625 11.205 27.236 11.805C26.86 12.386 26.444 12.939 25.993 13.461C25.556 13.966 25.083 14.437 24.577 14.871C24.1 15.281 23.592 15.652 23.058 15.982C23.341 15.702 23.616 15.41 23.881 15.104C23.959 15.015 24.036 14.924 24.112 14.832C24.299 14.606 24.482 14.373 24.659 14.134C24.761 13.997 24.862 13.857 24.961 13.716C25.074 13.555 25.185 13.39 25.294 13.222C25.734 12.542 26.13 11.834 26.478 11.102C26.838 10.347 27.15 9.569 27.413 8.774C27.684 7.953 27.904 7.115 28.073 6.267C28.16 5.832 28.225 5.446 28.279 5.059C28.333 4.672 28.376 4.285 28.421 3.845C28.44 3.662 28.458 3.473 28.47 3.281C28.477 3.153 28.482 3.024 28.482 2.893C28.487 2.575 28.449 2.259 28.371 1.951C28.329 1.79 28.271 1.633 28.198 1.483C28.121 1.324 28.027 1.175 27.918 1.038L27.901 1.018C28.028 0.953 28.163 0.906 28.302 0.879C28.376 0.866 28.452 0.859 28.528 0.859C28.755 0.861 28.979 0.917 29.182 1.02C29.39 1.126 29.573 1.275 29.719 1.458C29.783 1.539 29.839 1.627 29.884 1.72C29.95 1.859 29.997 2.007 30.024 2.159C30.052 2.326 30.065 2.495 30.064 2.664L30.064 2.666C30.059 2.933 30.042 3.199 30.011 3.464L30.09 3.472L30.011 3.463Z" fill="rgb(255,255,255)" fill-opacity="1.000" fill-rule="nonzero" transform="matrix(1 0 0 1 14.9538 20.4267)"/></svg>