<svg xmlns="http://www.w3.org/2000/svg" viewBox="0 0 60 60" width="60" height="60"><path d="M0 0L60 0L60 60L0 60L0 0Z" fill="rgb(27,52,81)" fill-opacity="1.000" fill-rule="nonzero" transform="matrix(1 0 0 1 0 0)"/><path d="M0 0L18.376 0C18.874 0.005 19.351 0.204 19.701 0.555C20.052 0.906 20.248 1.381 20.246 1.874L20.246 11.595C20.243 12.091 20.042 12.566 19.688 12.917C19.334 13.267 18.855 13.466 18.354 13.47L15.713 13.47C7.857 6.473 6.91 5.58 0 0Z" fill="rgb(255,255,255)" fill-opacity="1.000" fill-rule="evenodd" transform="matrix(1 0 0 1 20 13)"/><path d="M0 0L10.915 13.818C11.4 14.429 11.796 15.954 11.796 17.218L11.796 32.366C11.796 34.48 11.136 35.374 10.321 34.35L0.88 22.384C0.396 21.774 0 20.248 0 18.984L0 0Z" fill="rgb(39,218,188)" fill-opacity="1.000" fill-rule="evenodd" transform="matrix(1 0 0 1 20 13)"/></svg>