<svg xmlns="http://www.w3.org/2000/svg" viewBox="0 0 130 60" width="130" height="60"><path d="M0 0L130 0L130 60L0 60L0 0Z" fill="rgb(255,255,255)" fill-opacity="1.000" fill-rule="nonzero" transform="matrix(1 0 0 1 0 0)"/><path d="M3.499 8.852L2.399 10.879L0 10.879L5.457 1.049C5.607 0.767 5.808 0.516 6.052 0.308C6.332 0.088 6.685 -0.02 7.042 0.003C7.392 -0.017 7.737 0.092 8.011 0.308C8.242 0.527 8.443 0.776 8.605 1.049L14.018 10.879L11.598 10.879L10.607 9.092L6.998 2.401L3.499 8.852Z" fill="rgb(27,52,81)" fill-opacity="1.000" fill-rule="evenodd" transform="matrix(1 0 0 1 102.832 19.0125)"/><path d="M3.939 10.658L3.939 2.049L0 2.049L0 0L9.991 0L9.991 2.049L6.052 2.049L6.052 10.658L3.939 10.658Z" fill="rgb(27,52,81)" fill-opacity="1.000" fill-rule="evenodd" transform="matrix(1 0 0 1 94.4258 19.2334)"/><path d="M2.091 0L0 0L0 10.658L2.091 10.658L2.091 0Z" fill="rgb(27,52,81)" fill-opacity="1.000" fill-rule="nonzero" transform="matrix(1 0 0 1 91.2344 19.2334)"/><path d="M3.588 10.658C3.01 10.67 2.432 10.604 1.872 10.462C1.453 10.355 1.072 10.136 0.771 9.83C0.475 9.511 0.27 9.12 0.177 8.696C0.052 8.138 -0.007 7.568 0.001 6.996L0.001 0L2.07 0L2.07 6.909C2.065 7.172 2.088 7.435 2.136 7.694C2.168 7.89 2.26 8.073 2.4 8.217C2.543 8.356 2.716 8.46 2.906 8.522C3.172 8.589 3.446 8.619 3.72 8.609L9.288 8.609L9.288 10.636L3.588 10.636L3.588 10.658Z" fill="rgb(27,52,81)" fill-opacity="1.000" fill-rule="evenodd" transform="matrix(1 0 0 1 80.8027 19.2334)"/><path d="M2.091 0L0 0L0 10.658L2.091 10.658L2.091 0Z" fill="rgb(27,52,81)" fill-opacity="1.000" fill-rule="nonzero" transform="matrix(1 0 0 1 77.1055 19.2334)"/><path d="M3.588 10.659C3.01 10.672 2.432 10.606 1.871 10.463C1.453 10.357 1.072 10.138 0.771 9.831C0.475 9.512 0.27 9.121 0.177 8.698C0.052 8.14 -0.007 7.569 0.001 6.998L0.001 3.663C-0.007 3.092 0.052 2.521 0.177 1.963C0.266 1.538 0.471 1.146 0.771 0.83C1.076 0.528 1.455 0.31 1.871 0.198C2.432 0.055 3.01 -0.011 3.588 0.001L10.102 0.001L10.102 2.05L3.698 2.05C3.431 2.039 3.164 2.069 2.906 2.137C2.721 2.187 2.554 2.285 2.421 2.421C2.294 2.578 2.21 2.766 2.18 2.966C2.131 3.239 2.109 3.516 2.113 3.794L2.113 6.911C2.109 7.188 2.131 7.465 2.18 7.739C2.215 7.93 2.298 8.11 2.421 8.262C2.553 8.41 2.731 8.51 2.928 8.545C3.188 8.601 3.453 8.63 3.72 8.632L10.124 8.632L10.124 10.659L3.588 10.659Z" fill="rgb(27,52,81)" fill-opacity="1.000" fill-rule="evenodd" transform="matrix(1 0 0 1 65.6387 19.2319)"/><path d="M3.499 8.852L2.399 10.879L0 10.879L5.458 1.049C5.607 0.767 5.809 0.516 6.052 0.308C6.332 0.088 6.685 -0.02 7.042 0.003C7.392 -0.017 7.737 0.092 8.011 0.308C8.243 0.527 8.443 0.776 8.605 1.049L14.019 10.879L11.598 10.879L10.607 9.092L6.998 2.401L3.499 8.852Z" fill="rgb(27,52,81)" fill-opacity="1.000" fill-rule="evenodd" transform="matrix(1 0 0 1 51.3359 19.0125)"/><path d="M2.069 6.649L2.069 10.638L0.001 10.638L0.001 3.663C-0.007 3.092 0.052 2.521 0.177 1.963C0.265 1.538 0.471 1.146 0.771 0.83C1.076 0.528 1.455 0.31 1.871 0.198C2.432 0.055 3.009 -0.011 3.588 0.001L10.014 0.001L10.014 2.05L3.632 2.05C3.06 2.05 2.642 2.181 2.421 2.464C2.201 2.726 2.069 3.184 2.069 3.816L2.069 4.666L7.373 4.666L7.373 6.671L2.069 6.671L2.069 6.649Z" fill="rgb(27,52,81)" fill-opacity="1.000" fill-rule="evenodd" transform="matrix(1 0 0 1 41.5859 19.2319)"/><path d="M15.427 5.492L15.427 2.942L12.236 0.109L13.864 0.109L16.065 2.027L18.288 0.109L19.828 0.109L16.637 2.964L16.637 5.492L15.427 5.492ZM8.627 3.335L11.246 3.335L9.925 1.22L8.627 3.335ZM11.818 4.25L8.055 4.25L7.284 5.492L5.898 5.492L9.045 0.523C9.133 0.375 9.253 0.248 9.397 0.153C9.571 0.053 9.768 0 9.969 0C10.17 0 10.368 0.053 10.541 0.153C10.675 0.26 10.793 0.384 10.893 0.523L14.041 5.492L12.632 5.492L11.818 4.25ZM5.172 1.896C5.184 1.79 5.173 1.682 5.138 1.58C5.104 1.479 5.048 1.386 4.974 1.308C4.77 1.183 4.53 1.129 4.291 1.155L1.188 1.155L1.188 2.986L4.313 2.986C4.544 3.009 4.777 2.956 4.974 2.833C5.106 2.746 5.15 2.55 5.15 2.267L5.15 1.896L5.172 1.896ZM1.21 3.967L1.21 5.514L0 5.514L0 0.109L4.357 0.109C4.683 0.099 5.008 0.128 5.326 0.196C5.561 0.244 5.78 0.349 5.964 0.501C6.124 0.648 6.238 0.837 6.294 1.046C6.371 1.308 6.408 1.58 6.404 1.853L6.404 2.31C6.414 2.582 6.384 2.853 6.316 3.117C6.26 3.313 6.144 3.488 5.986 3.618C5.807 3.757 5.594 3.847 5.37 3.88C5.042 3.928 4.711 3.95 4.379 3.945L1.21 3.945L1.21 3.967Z" fill="rgb(39,218,188)" fill-opacity="1.000" fill-rule="nonzero" transform="matrix(1 0 0 1 41.3672 31.853)"/><path d="M0 0L18.376 0C18.874 0.005 19.351 0.204 19.701 0.555C20.052 0.906 20.248 1.381 20.246 1.874L20.246 11.595C20.243 12.091 20.042 12.566 19.688 12.917C19.334 13.267 18.855 13.466 18.354 13.47L15.713 13.47C7.857 6.473 6.91 5.58 0 0Z" fill="rgb(27,52,81)" fill-opacity="1.000" fill-rule="evenodd" transform="matrix(1 0 0 1 13 13)"/><path d="M0 0L10.915 13.818C11.4 14.429 11.796 15.954 11.796 17.218L11.796 32.366C11.796 34.48 11.136 35.374 10.321 34.35L0.88 22.384C0.396 21.774 0 20.248 0 18.984L0 0Z" fill="rgb(39,218,188)" fill-opacity="1.000" fill-rule="evenodd" transform="matrix(1 0 0 1 13 13)"/></svg>