<svg xmlns="http://www.w3.org/2000/svg" viewBox="0 0 60 60" width="60" height="60"><defs><linearGradient id="g362" gradientUnits="userSpaceOnUse" x1="18.56" y1="5.03" x2="37.85" y2="44.69"><stop offset="0.0%" stop-color="rgb(238,123,54)" stop-opacity="1.000"/><stop offset="50.9%" stop-color="rgb(233,172,72)" stop-opacity="1.000"/><stop offset="100.0%" stop-color="rgb(238,123,54)" stop-opacity="1.000"/></linearGradient><linearGradient id="g363" gradientUnits="userSpaceOnUse" x1="37.74" y1="54.42" x2="20.20" y2="11.29"><stop offset="0.0%" stop-color="rgb(47,123,165)" stop-opacity="1.000"/><stop offset="100.0%" stop-color="rgb(10,109,153)" stop-opacity="1.000"/></linearGradient></defs><path d="M0 0L60 0L60 60L0 60L0 0Z" fill="rgb(255,255,255)" fill-opacity="1.000" fill-rule="nonzero" transform="matrix(1 0 0 1 0 0)"/><path d="M14.315 34.903C16.118 32.645 17.066 26.748 17.957 21.222C18.236 19.48 18.511 17.776 18.806 16.222L13.633 16.222L15.308 14.451L19.152 14.451C19.334 13.643 19.523 12.9 19.728 12.244C21.163 7.637 24.533 3.672 29.069 1.904C24.953 -0.009 20.317 -0.497 15.892 0.515C11.468 1.527 7.505 3.982 4.63 7.494C1.754 11.005 0.127 15.373 0.007 19.911C-0.113 24.448 1.279 28.896 3.965 32.555C6.3 35.733 11.333 38.606 14.305 34.887" fill="url(#g362)" fill-rule="evenodd" transform="matrix(1 0 0 1 9.0786 9.0793)"/><path d="M24.047 3.163C21.913 0.575 17.464 -1.546 14.812 1.504C13.342 3.192 12.586 6.395 11.929 10.152L20.898 10.152L18.957 12.283C18.957 12.283 15.869 11.962 11.637 11.924C11.637 11.991 11.615 12.061 11.605 12.129L11.605 11.924L8.261 11.924L11.355 13.468C10.289 19.874 9.004 27.001 4.898 31.441C4.073 32.342 3.135 33.132 2.108 33.792C1.44 34.217 0.735 34.578 0 34.872C4.211 36.73 8.925 37.114 13.381 35.961C17.837 34.808 21.774 32.185 24.555 28.518C27.336 24.851 28.798 20.352 28.706 15.751C28.614 11.149 26.972 6.713 24.047 3.16" fill="url(#g363)" fill-rule="evenodd" transform="matrix(1 0 0 1 21.2822 13.3872)"/></svg>