<svg xmlns="http://www.w3.org/2000/svg" viewBox="0 0 130 60" width="130" height="60"><defs><linearGradient id="g364" gradientUnits="userSpaceOnUse" x1="40.21" y1="5.03" x2="82.02" y2="44.69"><stop offset="0.0%" stop-color="rgb(238,123,54)" stop-opacity="1.000"/><stop offset="50.9%" stop-color="rgb(233,172,72)" stop-opacity="1.000"/><stop offset="100.0%" stop-color="rgb(238,123,54)" stop-opacity="1.000"/></linearGradient><linearGradient id="g365" gradientUnits="userSpaceOnUse" x1="81.77" y1="54.42" x2="43.77" y2="11.29"><stop offset="0.0%" stop-color="rgb(47,123,165)" stop-opacity="1.000"/><stop offset="100.0%" stop-color="rgb(10,109,153)" stop-opacity="1.000"/></linearGradient></defs><path d="M0 0L130 0L130 60L0 60L0 0Z" fill="rgb(255,255,255)" fill-opacity="1.000" fill-rule="nonzero" transform="matrix(1 0 0 1 0 0)"/><path d="M18.794 1.774L18.794 0.648C18.794 0.244 18.645 0.101 18.246 0.101L14.797 0.101C14.393 0.101 14.25 0.25 14.25 0.648L14.25 1.774L15.48 1.774L15.48 1.468C15.478 1.445 15.48 1.421 15.488 1.399C15.496 1.377 15.509 1.356 15.526 1.34C15.542 1.323 15.563 1.31 15.585 1.302C15.607 1.295 15.631 1.292 15.654 1.294L15.813 1.294L15.813 5.781L17.234 5.781L17.234 1.291L17.391 1.291C17.415 1.288 17.438 1.291 17.461 1.299C17.483 1.307 17.503 1.32 17.52 1.336C17.537 1.353 17.55 1.373 17.558 1.395C17.566 1.418 17.569 1.441 17.567 1.465L17.567 1.774L18.794 1.774ZM5.265 0.101L3.51 5.781L4.221 5.781C4.634 5.781 4.801 5.662 4.917 5.322L6.022 1.553L6.038 1.553L6.577 3.433L6.067 3.433L5.174 4.584L6.897 4.584L7.154 5.314C7.27 5.655 7.435 5.774 7.85 5.774L8.54 5.774L6.785 0.101L5.265 0.101ZM21.679 0.101L20.159 0.101L18.405 5.781L19.11 5.781C19.524 5.781 19.69 5.662 19.806 5.322L20.916 1.56L20.932 1.56L21.471 3.44L20.956 3.44L20.064 4.591L21.787 4.591L22.045 5.322C22.161 5.662 22.326 5.781 22.739 5.781L23.431 5.781L21.679 0.101ZM1.42 1.291L2.424 1.291C2.448 1.288 2.473 1.291 2.495 1.299C2.518 1.306 2.539 1.319 2.556 1.336C2.573 1.354 2.586 1.374 2.594 1.397C2.602 1.42 2.604 1.444 2.601 1.468L2.601 1.777L3.87 1.777L3.87 0.68C3.87 0.275 3.696 0.101 3.291 0.101L0 0.101L0 5.781L1.42 5.781L1.42 4.591L1.914 4.591L2.839 3.401L1.42 3.401L1.42 1.291ZM11.631 4.56C10.796 4.56 10.106 3.806 10.106 2.878C10.106 1.847 10.773 1.315 11.594 1.315C11.959 1.315 12.467 1.441 12.467 1.761L12.467 1.771L13.735 1.771L13.735 1.325C13.735 0.262 12.236 0 11.562 0C9.873 0 8.626 1.245 8.626 2.872C8.626 4.578 9.816 5.863 11.601 5.863C12.043 5.863 12.481 5.773 12.888 5.598C13.295 5.424 13.661 5.168 13.966 4.847L13.244 3.831C13.036 4.052 12.785 4.23 12.507 4.354C12.23 4.478 11.93 4.546 11.626 4.554" fill="rgb(10,109,153)" fill-opacity="1.000" fill-rule="evenodd" transform="matrix(1 0 0 1 35.6953 26.5679)"/><path d="M2.221 0.098L0 0.098L0 5.768L0.57 5.768L0.57 3.227L2.039 3.227L2.039 2.728L0.57 2.728L0.57 0.598L2.006 0.598C2.03 0.595 2.055 0.597 2.078 0.605C2.101 0.613 2.122 0.626 2.14 0.643C2.157 0.66 2.17 0.681 2.178 0.704C2.186 0.728 2.188 0.752 2.185 0.776L2.185 1.154L2.708 1.154L2.708 0.59C2.708 0.244 2.572 0.098 2.225 0.098L2.221 0.098ZM25.906 5.331C24.616 5.331 23.657 4.242 23.657 2.887C23.657 1.532 24.624 0.532 25.888 0.532C26.543 0.532 27.462 0.822 27.462 1.355L27.462 1.669L27.993 1.669L27.993 1.202C27.993 0.347 26.679 0 25.872 0C24.276 0 23.074 1.249 23.074 2.887C23.074 4.524 24.243 5.862 25.9 5.862C26.308 5.864 26.712 5.784 27.087 5.626C27.463 5.468 27.803 5.236 28.087 4.942L27.764 4.53C27.523 4.781 27.235 4.982 26.916 5.119C26.597 5.257 26.253 5.328 25.906 5.331Z" fill="rgb(238,123,54)" fill-opacity="1.000" fill-rule="evenodd" transform="matrix(1 0 0 1 60.9258 26.5725)"/><path d="M0 0L0.541 0L0.541 5.67L0 5.67L0 0ZM29.318 0L29.859 0L29.859 5.67L29.318 5.67L29.318 0Z" fill="rgb(238,123,54)" fill-opacity="1.000" fill-rule="nonzero" transform="matrix(1 0 0 1 64.9922 26.6707)"/><path d="M3.847 0.495L3.847 4.745C3.78 4.629 0.516 0.003 0.516 0.003L0 0.003L0 5.673L0.075 5.673C0.421 5.673 0.567 5.524 0.567 5.18L0.567 0.953C0.641 1.08 3.897 5.673 3.897 5.673L4.398 5.673L4.398 0.003L4.34 0.003C3.994 0.003 3.848 0.152 3.848 0.495L3.847 0.495ZM15.181 0.495L15.181 4.745C15.114 4.629 11.851 0.003 11.851 0.003L11.335 0.003L11.335 5.673L11.409 5.673C11.756 5.673 11.901 5.524 11.901 5.18L11.901 0.953C11.976 1.08 15.232 5.673 15.232 5.673L15.733 5.673L15.733 0.003L15.675 0.003C15.328 0.003 15.183 0.152 15.183 0.495L15.181 0.495ZM25.365 0.003L23.146 0.003L23.146 5.673L25.365 5.673C25.711 5.673 25.85 5.524 25.85 5.18L25.85 4.617L25.324 4.617L25.324 4.994C25.328 5.019 25.326 5.043 25.318 5.066C25.31 5.089 25.298 5.11 25.28 5.128C25.263 5.145 25.242 5.158 25.219 5.166C25.196 5.174 25.172 5.176 25.147 5.173L23.709 5.173L23.709 3.132L25.185 3.132L25.185 2.633L23.714 2.633L23.714 0.503L25.152 0.503C25.176 0.499 25.201 0.502 25.224 0.51C25.247 0.518 25.268 0.531 25.285 0.548C25.302 0.565 25.315 0.586 25.322 0.609C25.33 0.632 25.333 0.657 25.329 0.681L25.329 1.059L25.854 1.059L25.854 0.495C25.854 0.149 25.716 0.003 25.369 0.003L25.365 0.003ZM7.648 0.003L5.793 4.994L5.793 5.011L5.546 5.673L5.67 5.673C6.073 5.673 6.186 5.592 6.331 5.204L7.945 0.616L7.96 0.616L8.928 3.375L7.214 3.375L6.834 3.866L9.076 3.866L9.568 5.204C9.717 5.592 9.834 5.673 10.237 5.673L10.353 5.673L8.246 0.003L7.648 0.003ZM36.374 0.003L35.779 0.003L33.924 4.994L33.924 5.011L33.662 5.673L33.786 5.673C34.189 5.673 34.302 5.592 34.446 5.204L36.06 0.616L36.076 0.616L37.043 3.375L35.342 3.375L34.962 3.866L37.204 3.866L37.695 5.204C37.843 5.592 37.961 5.673 38.364 5.673L38.481 5.673L36.374 0.003ZM32.538 4.987L31.729 3.375C31.686 3.283 31.619 3.205 31.535 3.149L31.535 3.132C32.092 3.012 32.632 2.496 32.632 1.617C32.632 0.632 31.955 0.003 31.003 0.003L29.117 0.003L29.117 5.673L29.681 5.673L29.681 0.503L30.947 0.503C31.618 0.503 32.037 0.931 32.037 1.632C32.037 2.332 31.618 2.786 30.939 2.786L30.079 2.786L29.694 3.285L30.633 3.285C30.947 3.285 31.052 3.326 31.205 3.625L32.026 5.244C32.211 5.616 32.349 5.673 32.809 5.673L32.895 5.673L32.578 5.048C32.564 5.029 32.552 5.009 32.542 4.987L32.538 4.987ZM48.238 0L46.714 0L44.966 5.673L45.677 5.673C46.09 5.673 46.257 5.554 46.373 5.213L47.482 1.452L47.494 1.452L48.033 3.333L47.518 3.333L46.626 4.483L48.348 4.483L48.606 5.213C48.721 5.554 48.887 5.673 49.3 5.673L49.991 5.673L48.238 0Z" fill="rgb(238,123,54)" fill-opacity="1.000" fill-rule="evenodd" transform="matrix(1 0 0 1 67.0976 26.6677)"/><path d="M0.715 3.949C0.715 3.949 1.35 4.528 2.054 4.528C2.335 4.528 2.649 4.419 2.649 4.081C2.649 3.415 0.12 3.439 0.12 1.715C0.12 0.681 0.989 0 2.101 0C3.309 0 3.904 0.634 3.904 0.634L3.324 1.755C3.324 1.755 2.76 1.261 2.087 1.261C1.804 1.261 1.492 1.386 1.492 1.708C1.492 2.413 4.021 2.288 4.021 4.058C4.021 4.99 3.306 5.798 2.045 5.798C1.285 5.81 0.55 5.523 0 4.998L0.715 3.949Z" fill="rgb(238,123,54)" fill-opacity="1.000" fill-rule="nonzero" transform="matrix(1 0 0 1 107.0781 26.5547)"/><path d="M0.643 0.323C0.643 0.386 0.624 0.448 0.588 0.501C0.553 0.554 0.503 0.595 0.444 0.62C0.386 0.644 0.321 0.65 0.259 0.638C0.196 0.625 0.139 0.595 0.094 0.55C0.049 0.505 0.019 0.448 0.006 0.385C-0.006 0.323 0 0.259 0.024 0.2C0.049 0.141 0.09 0.091 0.143 0.056C0.196 0.02 0.258 0.002 0.321 0.002C0.364 0.002 0.405 0.01 0.444 0.026C0.483 0.042 0.519 0.066 0.549 0.096C0.578 0.125 0.602 0.161 0.618 0.2C0.634 0.239 0.643 0.281 0.643 0.323ZM7.067 0.321C7.067 0.385 7.048 0.447 7.012 0.5C6.977 0.553 6.927 0.594 6.868 0.618C6.81 0.642 6.745 0.649 6.683 0.636C6.62 0.624 6.563 0.593 6.518 0.548C6.473 0.504 6.443 0.446 6.43 0.384C6.418 0.322 6.424 0.257 6.448 0.198C6.473 0.14 6.514 0.089 6.567 0.054C6.62 0.019 6.682 0 6.745 0C6.787 0 6.829 0.008 6.868 0.024C6.907 0.041 6.943 0.064 6.973 0.094C7.002 0.124 7.026 0.159 7.042 0.198C7.058 0.237 7.067 0.279 7.067 0.321Z" fill="rgb(238,123,54)" fill-opacity="1.000" fill-rule="evenodd" transform="matrix(1 0 0 1 110.9297 31.7007)"/><path d="M6.647 16.207C7.484 15.158 7.925 12.42 8.338 9.854C8.467 9.045 8.595 8.254 8.732 7.532L6.33 7.532L7.108 6.71L8.893 6.71C8.978 6.335 9.065 5.99 9.161 5.685C9.827 3.546 11.392 1.705 13.498 0.884C11.586 -0.004 9.434 -0.231 7.379 0.239C5.325 0.709 3.485 1.849 2.15 3.48C0.814 5.11 0.059 7.138 0.003 9.245C-0.053 11.352 0.594 13.418 1.841 15.117C2.925 16.592 5.262 17.926 6.642 16.199" fill="url(#g364)" fill-rule="evenodd" transform="matrix(1 0 0 1 13.0859 20)"/><path d="M11.166 1.469C10.175 0.267 8.109 -0.718 6.878 0.698C6.195 1.482 5.844 2.969 5.539 4.714L9.704 4.714L8.802 5.703C8.802 5.703 7.369 5.554 5.404 5.537C5.404 5.568 5.393 5.601 5.389 5.632L5.389 5.537L3.836 5.537L5.273 6.254C4.777 9.228 4.181 12.538 2.274 14.599C1.891 15.018 1.456 15.385 0.979 15.691C0.669 15.888 0.341 16.056 0 16.192C1.955 17.055 4.144 17.233 6.213 16.698C8.282 16.162 10.11 14.945 11.402 13.242C12.693 11.539 13.372 9.45 13.329 7.314C13.286 5.177 12.524 3.117 11.166 1.467" fill="url(#g365)" fill-rule="evenodd" transform="matrix(1 0 0 1 18.7539 22.0002)"/></svg>