<svg xmlns="http://www.w3.org/2000/svg" viewBox="0 0 60 60" width="60" height="60"><path d="M0 0L60 0L60 60L0 60L0 0Z" fill="rgb(255,255,255)" fill-opacity="1.000" fill-rule="nonzero" transform="matrix(1 0 0 1 0 0)"/><path d="M23.338 0C23.209 0.005 23.085 0.05 22.982 0.129L19.131 2.912C18.957 3.042 18.838 3.232 18.797 3.444C18.755 3.657 18.794 3.878 18.907 4.064L23.017 10.6C23.114 10.751 23.223 10.839 23.327 10.839C23.432 10.839 23.533 10.733 23.618 10.546L25.227 6.556C25.408 6.022 25.428 5.447 25.284 4.902L23.817 0.399C23.792 0.289 23.732 0.19 23.645 0.118C23.558 0.046 23.451 0.005 23.338 0ZM17.663 4.284C17.495 3.745 17.172 3.268 16.734 2.912L12.886 0.129C12.784 0.05 12.66 0.005 12.531 0C12.419 0.006 12.312 0.047 12.226 0.119C12.14 0.19 12.08 0.288 12.054 0.397L10.588 4.899C10.524 5.107 10.539 5.331 10.631 5.527C10.723 5.724 10.885 5.879 11.086 5.962L18.261 8.846C18.467 8.926 18.617 8.917 18.689 8.827C18.719 8.77 18.738 8.708 18.742 8.643C18.747 8.578 18.738 8.513 18.715 8.453L17.663 4.284ZM3.373 7.014L4.843 11.516C4.902 11.69 5.015 11.841 5.164 11.947C5.314 12.054 5.493 12.11 5.677 12.11C5.746 12.111 5.815 12.103 5.882 12.086L13.376 10.215C13.561 10.17 13.68 10.084 13.705 9.984C13.729 9.883 13.656 9.754 13.509 9.631L10.196 6.721C9.829 6.414 9.113 6.005 8.634 6.005L3.887 6.005C3.681 6.005 3.519 6.228 3.424 6.359C3.328 6.564 3.309 6.796 3.373 7.014ZM10.365 13.811C10.324 13.715 10.192 13.652 10.001 13.639L5.698 13.346L5.594 13.346C5.064 13.362 4.548 13.521 4.101 13.807L0.255 16.59C0.18 16.637 0.118 16.702 0.074 16.778C0.03 16.855 0.004 16.94 0 17.029C0.005 17.116 0.03 17.201 0.075 17.276C0.119 17.352 0.181 17.416 0.255 17.462L4.101 20.248C4.279 20.372 4.497 20.426 4.713 20.399C4.929 20.372 5.127 20.267 5.27 20.102L10.236 14.195C10.361 14.044 10.406 13.907 10.365 13.811ZM10.038 19.219C10.059 19.095 10.03 18.969 9.958 18.867C9.939 18.847 9.916 18.832 9.891 18.822C9.866 18.812 9.839 18.808 9.812 18.809C9.708 18.816 9.607 18.852 9.522 18.912L5.866 21.195C5.402 21.519 5.045 21.973 4.838 22.499L3.369 27.002C3.337 27.086 3.325 27.176 3.334 27.265C3.343 27.354 3.372 27.44 3.42 27.516C3.474 27.586 3.545 27.642 3.625 27.679C3.706 27.716 3.794 27.734 3.883 27.73L8.649 27.73C8.868 27.724 9.077 27.637 9.236 27.486C9.395 27.335 9.493 27.131 9.51 26.912L10.038 19.219ZM12.851 23.414C12.755 23.263 12.646 23.174 12.544 23.174C12.44 23.174 12.328 23.283 12.252 23.469L10.644 27.461C10.462 27.994 10.442 28.57 10.588 29.114L12.054 33.617C12.079 33.726 12.139 33.824 12.225 33.896C12.312 33.968 12.419 34.009 12.531 34.014C12.66 34.01 12.784 33.964 12.886 33.885L16.734 31.102C16.908 30.972 17.027 30.782 17.068 30.569C17.11 30.356 17.07 30.135 16.958 29.95L12.851 23.414ZM18.206 29.731C18.373 30.268 18.697 30.746 19.135 31.102L22.982 33.885C23.085 33.964 23.21 34.01 23.34 34.014C23.452 34.009 23.558 33.967 23.644 33.895C23.73 33.824 23.79 33.726 23.815 33.617L25.284 29.114C25.348 28.907 25.332 28.683 25.239 28.486C25.147 28.289 24.985 28.134 24.785 28.05L17.605 25.167C17.528 25.132 17.445 25.114 17.361 25.111C17.327 25.107 17.293 25.113 17.261 25.126C17.229 25.139 17.202 25.16 17.18 25.187C17.149 25.243 17.13 25.306 17.125 25.37C17.12 25.434 17.129 25.498 17.151 25.559L18.206 29.73L18.206 29.731ZM32.49 27.002L31.02 22.499C30.961 22.328 30.85 22.179 30.703 22.073C30.556 21.966 30.38 21.908 30.199 21.906C30.129 21.906 30.06 21.914 29.993 21.93L22.481 23.801C22.296 23.846 22.174 23.932 22.152 24.032C22.129 24.133 22.199 24.261 22.345 24.384L25.661 27.154C26.113 27.496 26.656 27.696 27.222 27.73L31.978 27.73C32.067 27.734 32.155 27.716 32.235 27.679C32.316 27.642 32.386 27.586 32.441 27.516C32.488 27.44 32.517 27.354 32.526 27.265C32.534 27.175 32.522 27.086 32.49 27.002ZM25.488 20.235C25.526 20.33 25.662 20.393 25.851 20.406L30.167 20.701L30.27 20.701C30.801 20.685 31.317 20.526 31.764 20.24L35.612 17.454C35.686 17.408 35.748 17.344 35.793 17.269C35.837 17.193 35.862 17.108 35.867 17.021C35.862 16.934 35.836 16.85 35.792 16.775C35.748 16.7 35.687 16.637 35.614 16.591L31.766 13.809C31.62 13.704 31.445 13.648 31.265 13.65C31.138 13.648 31.013 13.674 30.897 13.726C30.781 13.778 30.678 13.854 30.595 13.95L25.615 19.865C25.502 20.001 25.447 20.139 25.488 20.235ZM30.05 12.79C30.484 12.484 30.817 12.056 31.008 11.561L32.51 6.971C32.569 6.767 32.553 6.549 32.463 6.357C32.377 6.236 32.223 6.017 32.034 6.017L27.171 6.017C26.76 6.017 26.396 6.502 26.367 6.914L25.824 14.79C25.806 14.915 25.832 15.043 25.899 15.152C25.976 15.235 26.127 15.235 26.31 15.129L30.05 12.79Z" fill="rgb(250,175,0)" fill-opacity="1.000" fill-rule="evenodd" transform="matrix(1 0 0 1 12 13.0001)"/></svg>