<svg xmlns="http://www.w3.org/2000/svg" viewBox="0 0 130 60" width="130" height="60"><path d="M0 0L130 0L130 60L0 60L0 0Z" fill="rgb(255,255,255)" fill-opacity="1.000" fill-rule="nonzero" transform="matrix(1 0 0 1 0 0)"/><path d="M2.219 5.274L2.219 7.138C2.226 7.182 2.222 7.227 2.208 7.269C2.194 7.311 2.171 7.349 2.139 7.381C2.108 7.412 2.069 7.435 2.027 7.449C1.985 7.463 1.94 7.466 1.896 7.46L0.326 7.46C0.282 7.454 0.238 7.458 0.196 7.472C0.154 7.486 0.116 7.509 0.085 7.54C0.053 7.571 0.03 7.609 0.016 7.651C0.001 7.693 -0.003 7.737 0.003 7.781L0.003 10.118C-0.003 10.162 0 10.207 0.014 10.249C0.028 10.291 0.052 10.329 0.083 10.36C0.115 10.392 0.153 10.415 0.195 10.429C0.237 10.443 0.282 10.446 0.326 10.439L1.897 10.439C1.941 10.433 1.985 10.437 2.027 10.451C2.069 10.465 2.108 10.489 2.139 10.52C2.17 10.551 2.194 10.589 2.208 10.631C2.222 10.673 2.226 10.717 2.22 10.761L2.22 25.656C2.211 25.722 2.225 25.79 2.26 25.846C2.295 25.903 2.349 25.945 2.412 25.966C2.454 25.98 2.499 25.984 2.543 25.978L5.34 25.978C5.384 25.984 5.429 25.98 5.471 25.966C5.512 25.952 5.55 25.929 5.582 25.898C5.613 25.867 5.637 25.829 5.651 25.787C5.665 25.745 5.669 25.701 5.663 25.657L5.663 10.764C5.654 10.698 5.667 10.631 5.702 10.574C5.738 10.517 5.792 10.475 5.855 10.454C5.897 10.44 5.942 10.436 5.986 10.443L8.719 10.443C8.785 10.452 8.853 10.438 8.91 10.403C8.966 10.368 9.009 10.315 9.031 10.251C9.045 10.209 9.049 10.165 9.042 10.121L9.042 7.781C9.049 7.737 9.045 7.692 9.031 7.65C9.017 7.608 8.994 7.57 8.962 7.539C8.931 7.507 8.893 7.484 8.85 7.47C8.808 7.456 8.764 7.452 8.72 7.459L5.986 7.459C5.943 7.465 5.898 7.461 5.856 7.447C5.814 7.433 5.776 7.41 5.745 7.379C5.714 7.348 5.69 7.31 5.676 7.268C5.662 7.226 5.657 7.182 5.663 7.138L5.663 4.588C5.663 3.709 6.03 2.98 7.148 2.98C7.498 2.978 7.846 3.022 8.184 3.109C8.225 3.129 8.269 3.139 8.315 3.139C8.36 3.139 8.404 3.127 8.444 3.106C8.484 3.085 8.519 3.055 8.545 3.018C8.571 2.981 8.587 2.938 8.594 2.894L9.112 0.751C9.127 0.71 9.133 0.667 9.13 0.624C9.127 0.581 9.115 0.539 9.094 0.5C9.074 0.462 9.046 0.428 9.013 0.401C8.979 0.374 8.94 0.355 8.898 0.344C8.218 0.115 7.505 -0.001 6.788 0C3.446 0.002 2.22 1.694 2.22 5.273L2.219 5.274ZM19.832 17.826L19.832 18.64C19.832 20.955 18.477 23.335 15.098 23.335C12.193 23.335 11.418 22.284 11.418 20.635C11.418 19.283 11.998 17.505 15.077 17.505L19.509 17.505C19.575 17.498 19.642 17.514 19.698 17.55C19.754 17.586 19.795 17.64 19.815 17.704C19.828 17.746 19.831 17.79 19.824 17.833L19.832 17.826ZM60.014 7.111C59.32 7.101 58.633 7.243 58 7.528C57.368 7.814 56.806 8.235 56.355 8.762C56.205 8.975 56.054 8.868 56.054 8.567L56.054 7.775C56.064 7.709 56.05 7.641 56.014 7.585C55.979 7.528 55.925 7.485 55.861 7.465C55.82 7.451 55.775 7.447 55.731 7.453L52.934 7.453C52.868 7.444 52.8 7.458 52.743 7.493C52.686 7.527 52.643 7.581 52.621 7.645C52.608 7.686 52.603 7.731 52.61 7.774L52.61 25.657C52.603 25.701 52.607 25.746 52.621 25.788C52.636 25.83 52.659 25.869 52.691 25.9C52.722 25.931 52.761 25.955 52.803 25.968C52.845 25.982 52.89 25.986 52.934 25.979L55.731 25.979C55.774 25.984 55.818 25.979 55.859 25.964C55.9 25.949 55.937 25.925 55.967 25.894C55.997 25.863 56.02 25.825 56.033 25.784C56.046 25.743 56.05 25.699 56.044 25.656L56.044 13.997C56.044 11.511 57.033 10.118 59.185 10.118C59.83 10.111 60.474 10.182 61.101 10.331C61.316 10.374 61.447 10.31 61.489 10.096L62.027 7.761C62.041 7.72 62.045 7.676 62.04 7.633C62.035 7.591 62.021 7.549 61.998 7.513C61.976 7.476 61.945 7.445 61.91 7.421C61.874 7.397 61.833 7.381 61.791 7.374C61.211 7.201 60.609 7.115 60.005 7.118L60.014 7.111ZM42.748 10.118C45.977 10.118 46.859 12.369 46.859 16.652C46.859 20.936 45.977 23.34 42.748 23.34C39.519 23.34 38.358 20.932 38.358 16.652C38.358 12.372 39.518 10.118 42.748 10.118ZM29.94 3.886L27.141 3.886C27.075 3.877 27.008 3.891 26.951 3.926C26.895 3.961 26.852 4.015 26.83 4.078C26.817 4.12 26.813 4.164 26.819 4.208L26.819 7.143C26.829 7.209 26.815 7.277 26.78 7.333C26.744 7.39 26.69 7.433 26.626 7.453C26.584 7.467 26.54 7.471 26.496 7.465L25.27 7.465C25.226 7.459 25.182 7.463 25.14 7.477C25.098 7.491 25.06 7.514 25.029 7.545C24.998 7.576 24.974 7.614 24.96 7.656C24.946 7.698 24.941 7.742 24.947 7.786L24.947 10.123C24.937 10.189 24.951 10.257 24.986 10.313C25.021 10.37 25.075 10.413 25.139 10.433C25.181 10.447 25.226 10.451 25.27 10.445L26.496 10.445C26.562 10.435 26.629 10.449 26.686 10.484C26.743 10.519 26.786 10.573 26.807 10.636C26.821 10.678 26.825 10.723 26.819 10.766L26.819 20.962C26.819 24.777 28.649 26.292 31.705 26.292C32.952 26.292 33.298 26.185 33.605 26.057C33.679 26.031 33.742 25.98 33.785 25.914C33.828 25.848 33.848 25.77 33.841 25.692L33.841 23.405C33.841 23.17 33.713 23.084 33.475 23.149C33.043 23.28 32.594 23.345 32.142 23.341C30.894 23.341 30.269 22.825 30.269 21.278L30.269 10.765C30.259 10.699 30.273 10.631 30.308 10.575C30.343 10.518 30.397 10.475 30.461 10.455C30.503 10.441 30.548 10.437 30.592 10.443L33.691 10.443C33.733 10.449 33.777 10.447 33.818 10.436C33.859 10.426 33.898 10.407 33.932 10.381C33.967 10.355 33.995 10.322 34.017 10.285C34.038 10.248 34.052 10.207 34.057 10.165L34.553 7.807C34.617 7.592 34.51 7.464 34.273 7.464L30.585 7.464C30.542 7.47 30.497 7.466 30.455 7.452C30.413 7.438 30.375 7.414 30.344 7.383C30.312 7.352 30.289 7.314 30.275 7.272C30.261 7.23 30.256 7.185 30.263 7.141L30.263 4.203C30.271 4.138 30.256 4.072 30.221 4.016C30.186 3.96 30.132 3.919 30.07 3.899C30.029 3.885 29.985 3.881 29.941 3.887L29.94 3.886ZM17.349 7.465L12.185 7.465C12.141 7.459 12.096 7.463 12.055 7.477C12.013 7.491 11.975 7.514 11.943 7.545C11.912 7.576 11.888 7.614 11.874 7.656C11.86 7.698 11.856 7.742 11.862 7.786L11.862 10.123C11.852 10.189 11.866 10.257 11.901 10.313C11.936 10.37 11.99 10.413 12.053 10.433C12.096 10.447 12.141 10.451 12.185 10.445L16.66 10.445C18.812 10.445 19.824 11.174 19.824 13.167L19.824 14.581C19.83 14.625 19.827 14.669 19.813 14.711C19.799 14.754 19.775 14.792 19.744 14.823C19.712 14.854 19.674 14.878 19.632 14.891C19.59 14.905 19.545 14.909 19.501 14.902L14.809 14.881C10.827 14.881 7.88 16.36 7.88 20.539C7.88 24.676 11.13 26.304 14.077 26.304C16.322 26.304 18.382 25.617 19.458 24.413C19.673 24.198 19.824 24.241 19.824 24.541L19.824 25.656C19.817 25.7 19.821 25.744 19.835 25.786C19.849 25.829 19.873 25.867 19.904 25.898C19.936 25.929 19.974 25.953 20.016 25.967C20.058 25.98 20.103 25.984 20.147 25.977L22.946 25.977C22.989 25.984 23.034 25.98 23.076 25.966C23.118 25.952 23.156 25.928 23.187 25.897C23.218 25.866 23.242 25.828 23.256 25.786C23.27 25.745 23.274 25.7 23.269 25.656L23.269 12.731C23.269 9.087 21.164 7.459 17.349 7.459L17.349 7.465ZM42.745 7.121C37.343 7.141 34.912 10.228 34.912 16.657C34.912 23.087 37.365 26.303 42.745 26.303C48.123 26.303 50.299 23.087 50.299 16.657C50.299 10.228 48.125 7.118 42.748 7.118L42.745 7.121Z" fill="rgb(104,96,88)" fill-opacity="1.000" fill-rule="nonzero" transform="matrix(1 0 0 1 17.3815 23.6958)"/><path d="M19.607 0C19.499 0.004 19.394 0.042 19.309 0.108L16.072 2.446C15.927 2.555 15.827 2.715 15.792 2.894C15.757 3.073 15.79 3.258 15.884 3.414L19.338 8.905C19.419 9.033 19.51 9.106 19.598 9.106C19.687 9.106 19.771 9.017 19.842 8.86L21.194 5.508C21.347 5.059 21.364 4.576 21.243 4.118L20.01 0.335C19.989 0.243 19.938 0.16 19.865 0.099C19.793 0.039 19.702 0.004 19.607 0ZM14.84 3.599C14.698 3.146 14.427 2.746 14.059 2.447L10.826 0.108C10.741 0.042 10.636 0.004 10.528 0C10.434 0.005 10.344 0.04 10.272 0.1C10.199 0.16 10.149 0.242 10.127 0.334L8.896 4.116C8.841 4.29 8.854 4.478 8.932 4.644C9.009 4.809 9.145 4.939 9.314 5.009L15.342 7.432C15.515 7.499 15.641 7.492 15.701 7.416C15.727 7.368 15.742 7.316 15.746 7.261C15.75 7.207 15.742 7.153 15.724 7.101L14.84 3.599ZM2.834 5.892L4.068 9.675C4.119 9.821 4.213 9.948 4.339 10.037C4.465 10.127 4.615 10.175 4.769 10.174C4.827 10.175 4.885 10.168 4.942 10.154L11.238 8.582C11.393 8.544 11.493 8.472 11.514 8.388C11.535 8.303 11.473 8.195 11.35 8.092L8.566 5.647C8.257 5.389 7.656 5.045 7.254 5.045L3.265 5.045C3.092 5.045 2.956 5.232 2.877 5.343C2.796 5.514 2.78 5.71 2.834 5.892ZM8.708 11.603C8.673 11.522 8.563 11.469 8.402 11.459L4.787 11.213L4.7 11.213C4.254 11.226 3.821 11.36 3.445 11.6L0.214 13.938C0.152 13.978 0.099 14.032 0.062 14.096C0.025 14.16 0.004 14.232 0 14.306C0.004 14.38 0.026 14.451 0.063 14.515C0.1 14.578 0.152 14.632 0.214 14.671L3.445 17.011C3.595 17.116 3.778 17.161 3.96 17.138C4.141 17.116 4.308 17.027 4.427 16.889L8.599 11.926C8.705 11.799 8.743 11.684 8.708 11.603ZM8.434 16.146C8.451 16.043 8.427 15.936 8.366 15.851C8.35 15.834 8.331 15.822 8.31 15.813C8.289 15.805 8.266 15.801 8.243 15.802C8.156 15.808 8.072 15.838 8 15.888L4.928 17.807C4.539 18.079 4.238 18.46 4.065 18.903L2.83 22.686C2.803 22.756 2.793 22.832 2.801 22.906C2.808 22.981 2.833 23.054 2.873 23.117C2.919 23.176 2.978 23.223 3.046 23.254C3.113 23.286 3.188 23.301 3.262 23.297L7.266 23.297C7.45 23.292 7.626 23.219 7.76 23.092C7.893 22.965 7.975 22.794 7.99 22.61L8.434 16.146ZM10.797 19.671C10.716 19.544 10.625 19.47 10.538 19.47C10.452 19.47 10.357 19.561 10.293 19.718L8.943 23.071C8.789 23.519 8.773 24.003 8.896 24.46L10.127 28.243C10.148 28.335 10.199 28.417 10.271 28.478C10.344 28.538 10.434 28.573 10.528 28.577C10.636 28.573 10.741 28.535 10.826 28.469L14.059 26.13C14.205 26.021 14.305 25.861 14.34 25.682C14.375 25.504 14.342 25.318 14.247 25.162L10.797 19.671ZM15.295 24.978C15.436 25.43 15.708 25.831 16.076 26.13L19.309 28.468C19.395 28.535 19.5 28.573 19.609 28.577C19.703 28.572 19.792 28.537 19.864 28.477C19.937 28.417 19.987 28.335 20.008 28.243L21.243 24.46C21.296 24.286 21.282 24.098 21.205 23.932C21.127 23.767 20.991 23.637 20.823 23.566L14.791 21.144C14.726 21.115 14.657 21.099 14.586 21.097C14.557 21.094 14.528 21.098 14.502 21.109C14.475 21.12 14.452 21.138 14.434 21.161C14.408 21.208 14.392 21.26 14.388 21.314C14.384 21.368 14.391 21.422 14.41 21.473L15.295 24.977L15.295 24.978ZM27.296 22.686L26.062 18.903C26.012 18.759 25.919 18.633 25.795 18.544C25.672 18.455 25.524 18.406 25.371 18.404C25.313 18.404 25.255 18.411 25.198 18.425L18.887 19.997C18.732 20.034 18.63 20.106 18.611 20.19C18.592 20.275 18.65 20.383 18.773 20.486L21.559 22.813C21.938 23.1 22.395 23.269 22.87 23.297L26.866 23.297C26.941 23.3 27.015 23.286 27.082 23.254C27.15 23.223 27.209 23.176 27.255 23.117C27.295 23.053 27.319 22.981 27.326 22.906C27.333 22.831 27.323 22.756 27.296 22.686ZM21.413 17.001C21.446 17.08 21.56 17.134 21.719 17.144L25.345 17.392L25.432 17.392C25.877 17.378 26.311 17.244 26.686 17.005L29.919 14.664C29.982 14.625 30.034 14.572 30.071 14.508C30.108 14.445 30.13 14.373 30.133 14.3C30.129 14.227 30.108 14.156 30.071 14.093C30.034 14.031 29.982 13.978 29.921 13.939L26.688 11.602C26.566 11.513 26.418 11.466 26.267 11.468C26.161 11.467 26.055 11.489 25.958 11.532C25.861 11.576 25.774 11.64 25.704 11.72L21.52 16.69C21.425 16.803 21.379 16.92 21.413 17.001ZM25.247 10.745C25.611 10.488 25.891 10.129 26.051 9.713L27.314 5.856C27.363 5.685 27.349 5.502 27.274 5.341C27.201 5.239 27.072 5.055 26.913 5.055L22.828 5.055C22.482 5.055 22.176 5.463 22.152 5.808L21.696 12.425C21.681 12.531 21.703 12.639 21.759 12.73C21.824 12.8 21.95 12.8 22.104 12.71L25.247 10.745Z" fill="rgb(250,175,0)" fill-opacity="1.000" fill-rule="evenodd" transform="matrix(1 0 0 1 81.6999 10.5487)"/></svg>