<svg xmlns="http://www.w3.org/2000/svg" viewBox="0 0 130 60" width="130" height="60"><defs><linearGradient id="g122" gradientUnits="userSpaceOnUse" x1="22.73" y1="41.98" x2="22.73" y2="31.41"><stop offset="0.0%" stop-color="rgb(0,233,106)" stop-opacity="1.000"/><stop offset="100.0%" stop-color="rgb(36,132,127)" stop-opacity="1.000"/></linearGradient><linearGradient id="g123" gradientUnits="userSpaceOnUse" x1="65.04" y1="53.98" x2="65.04" y2="6.02"><stop offset="0.0%" stop-color="rgb(0,233,106)" stop-opacity="1.000"/><stop offset="100.0%" stop-color="rgb(36,132,127)" stop-opacity="1.000"/></linearGradient><linearGradient id="g124" gradientUnits="userSpaceOnUse" x1="65.00" y1="100.96" x2="65.00" y2="-40.96"><stop offset="0.0%" stop-color="rgb(0,233,106)" stop-opacity="1.000"/><stop offset="100.0%" stop-color="rgb(36,132,127)" stop-opacity="1.000"/></linearGradient></defs><path d="M0 0L130 0L130 60L0 60L0 0Z" fill="rgb(255,255,255)" fill-opacity="1.000" fill-rule="nonzero" transform="matrix(1 0 0 1 0 0)"/><path d="M5.057 6.358L0 10.036L0 0L5.057 6.358Z" fill="url(#g122)" fill-rule="nonzero" transform="matrix(1 0 0 1 21.7383 16)"/><path d="M0 17.455L0 16.409C0 15.093 0.602 13.857 1.617 13.048L1.696 12.985C2.457 12.382 3.393 12.049 4.376 12.049L6.31 12.049L22.941 0C22.941 4.059 21.007 7.864 17.725 10.258L11.875 14.507C11.621 14.681 11.463 14.982 11.463 15.299C11.463 16.092 12.382 16.568 13.032 16.092L22.941 8.878C22.941 12.969 20.991 16.805 17.693 19.199L14.348 21.641L14.348 28.68L4.217 15.949C3.726 15.315 2.822 15.22 2.204 15.711L0 17.455Z" fill="url(#g123)" fill-rule="nonzero" transform="matrix(1 0 0 1 16 16.0156)"/><path d="M6.326 3.9L6.326 6.199L0 6.199L0 3.9L6.326 3.9ZM1.316 13.73L1.316 3.393C1.316 2.632 1.459 1.998 1.744 1.506C2.03 0.999 2.426 0.634 2.933 0.381C3.44 0.127 4.027 0 4.693 0C5.121 0 5.533 0.032 5.929 0.095C6.31 0.159 6.611 0.222 6.802 0.27L6.31 2.568C6.199 2.537 6.056 2.505 5.882 2.473C5.723 2.442 5.565 2.442 5.422 2.442C5.058 2.442 4.804 2.521 4.661 2.679C4.519 2.838 4.455 3.06 4.455 3.345L4.455 13.73L1.332 13.73L1.316 13.73ZM11.574 13.92C10.543 13.92 9.655 13.714 8.91 13.318C8.165 12.905 7.594 12.319 7.198 11.574C6.802 10.813 6.595 9.909 6.595 8.862C6.595 7.816 6.802 6.96 7.198 6.199C7.594 5.438 8.165 4.836 8.894 4.423C9.624 3.995 10.48 3.789 11.479 3.789C12.176 3.789 12.826 3.9 13.397 4.122C13.983 4.344 14.475 4.661 14.903 5.089C15.331 5.517 15.648 6.04 15.886 6.675C16.124 7.293 16.235 8.006 16.235 8.815L16.235 9.592L7.689 9.592L7.689 7.769L13.318 7.769C13.318 7.436 13.238 7.134 13.08 6.881C12.921 6.627 12.715 6.421 12.446 6.278C12.176 6.136 11.875 6.056 11.526 6.056C11.177 6.056 10.86 6.136 10.591 6.294C10.321 6.453 10.099 6.659 9.925 6.928C9.766 7.198 9.671 7.499 9.671 7.832L9.671 9.687C9.671 10.083 9.75 10.448 9.909 10.749C10.067 11.05 10.29 11.288 10.575 11.447C10.86 11.605 11.209 11.7 11.605 11.7C11.875 11.7 12.128 11.669 12.366 11.589C12.588 11.51 12.794 11.399 12.953 11.256C13.112 11.114 13.238 10.924 13.318 10.702L16.187 10.781C16.06 11.431 15.807 11.986 15.395 12.461C14.998 12.937 14.459 13.302 13.809 13.571C13.159 13.825 12.398 13.968 11.542 13.968L11.574 13.92ZM20.071 13.904C19.437 13.904 18.882 13.793 18.407 13.587C17.931 13.381 17.535 13.048 17.265 12.62C16.996 12.192 16.853 11.653 16.853 11.003C16.853 10.464 16.948 9.988 17.138 9.623C17.329 9.243 17.598 8.942 17.931 8.704C18.264 8.466 18.66 8.292 19.089 8.165C19.532 8.038 19.992 7.959 20.499 7.911C21.054 7.864 21.514 7.8 21.847 7.753C22.196 7.689 22.434 7.61 22.592 7.499C22.751 7.388 22.83 7.229 22.83 7.039L22.83 7.008C22.83 6.675 22.719 6.421 22.497 6.247C22.275 6.072 21.958 5.977 21.578 5.977C21.165 5.977 20.833 6.072 20.579 6.247C20.325 6.421 20.167 6.675 20.103 6.992L17.218 6.897C17.297 6.294 17.519 5.771 17.884 5.295C18.248 4.82 18.74 4.455 19.358 4.186C19.992 3.916 20.737 3.773 21.625 3.773C22.259 3.773 22.83 3.853 23.353 3.995C23.876 4.138 24.336 4.36 24.733 4.629C25.129 4.899 25.43 5.248 25.636 5.66C25.858 6.072 25.969 6.532 25.969 7.055L25.969 13.746L23.02 13.746L23.02 12.382L22.941 12.382C22.767 12.715 22.545 13 22.275 13.222C22.006 13.46 21.689 13.619 21.324 13.746C20.959 13.857 20.547 13.92 20.087 13.92L20.071 13.904ZM21.038 11.843C21.372 11.843 21.673 11.78 21.942 11.637C22.212 11.494 22.434 11.32 22.592 11.066C22.751 10.828 22.83 10.543 22.83 10.226L22.83 9.291C22.735 9.338 22.624 9.386 22.497 9.417C22.37 9.449 22.243 9.497 22.085 9.528C21.942 9.56 21.784 9.592 21.625 9.623C21.467 9.655 21.308 9.671 21.165 9.687C20.864 9.734 20.626 9.814 20.404 9.909C20.198 10.004 20.04 10.131 19.929 10.289C19.818 10.448 19.77 10.622 19.77 10.844C19.77 11.161 19.881 11.415 20.119 11.589C20.357 11.764 20.658 11.843 21.007 11.843L21.038 11.843ZM32.866 3.9L32.866 6.199L26.667 6.199L26.667 3.9L32.866 3.9ZM27.967 1.538L31.09 1.538L31.09 10.638C31.09 10.828 31.122 10.987 31.185 11.098C31.249 11.209 31.344 11.304 31.455 11.352C31.581 11.399 31.724 11.415 31.883 11.415C32.01 11.415 32.121 11.415 32.263 11.383C32.406 11.352 32.501 11.336 32.565 11.32L33.04 13.587C32.897 13.635 32.675 13.682 32.406 13.746C32.137 13.809 31.819 13.857 31.439 13.872C30.71 13.904 30.075 13.825 29.552 13.619C29.029 13.413 28.633 13.08 28.347 12.652C28.078 12.208 27.935 11.653 27.951 10.987L27.951 1.538L27.967 1.538Z" fill="url(#g124)" fill-rule="nonzero" transform="matrix(1 0 0 1 42.3184 23.3569)"/><path d="M0.016 13.111L0.016 0L1.522 0L1.522 4.836L1.649 4.836C1.76 4.661 1.918 4.455 2.109 4.186C2.315 3.916 2.6 3.678 2.965 3.472C3.345 3.266 3.853 3.155 4.487 3.155C5.311 3.155 6.04 3.361 6.675 3.773C7.309 4.186 7.8 4.772 8.149 5.533C8.498 6.294 8.688 7.182 8.688 8.228C8.688 9.275 8.514 10.178 8.149 10.939C7.8 11.7 7.309 12.287 6.675 12.699C6.04 13.111 5.327 13.318 4.503 13.318C3.868 13.318 3.361 13.207 2.981 13C2.6 12.794 2.315 12.541 2.109 12.271C1.903 12.002 1.744 11.78 1.633 11.589L1.458 11.589L1.458 13.096L0 13.096L0.016 13.111ZM1.506 8.197C1.506 8.942 1.617 9.592 1.839 10.163C2.061 10.733 2.378 11.161 2.79 11.494C3.202 11.811 3.726 11.97 4.328 11.97C4.931 11.97 5.485 11.811 5.914 11.478C6.342 11.145 6.659 10.686 6.881 10.115C7.103 9.544 7.214 8.91 7.214 8.212C7.214 7.515 7.103 6.897 6.897 6.342C6.69 5.787 6.373 5.343 5.945 5.01C5.517 4.677 4.994 4.518 4.344 4.518C3.694 4.518 3.218 4.677 2.79 4.978C2.378 5.279 2.061 5.723 1.839 6.278C1.633 6.833 1.522 7.467 1.522 8.212L1.506 8.197ZM13.365 13.349C12.747 13.349 12.176 13.238 11.669 13C11.161 12.763 10.765 12.414 10.464 11.97C10.163 11.51 10.02 10.971 10.02 10.337C10.02 9.766 10.131 9.322 10.353 8.973C10.575 8.625 10.876 8.339 11.241 8.149C11.605 7.959 12.018 7.8 12.477 7.705C12.937 7.61 13.381 7.515 13.841 7.467C14.443 7.388 14.919 7.34 15.299 7.293C15.68 7.245 15.949 7.182 16.124 7.087C16.298 6.992 16.393 6.817 16.393 6.58L16.393 6.532C16.393 5.898 16.219 5.406 15.87 5.057C15.521 4.709 15.014 4.534 14.316 4.534C13.619 4.534 13.032 4.693 12.62 5.01C12.208 5.327 11.922 5.66 11.748 6.025L10.321 5.517C10.575 4.915 10.923 4.455 11.352 4.122C11.78 3.789 12.255 3.551 12.763 3.425C13.27 3.282 13.777 3.218 14.269 3.218C14.586 3.218 14.95 3.25 15.363 3.329C15.775 3.409 16.171 3.551 16.568 3.789C16.948 4.027 17.281 4.36 17.535 4.836C17.788 5.295 17.915 5.929 17.915 6.706L17.915 13.191L16.409 13.191L16.409 11.859L16.33 11.859C16.235 12.065 16.06 12.303 15.823 12.541C15.585 12.778 15.268 12.985 14.871 13.159C14.475 13.333 13.983 13.413 13.413 13.413L13.365 13.349ZM13.587 11.986C14.19 11.986 14.681 11.875 15.093 11.637C15.505 11.399 15.822 11.098 16.028 10.733C16.235 10.369 16.346 9.972 16.346 9.56L16.346 8.181C16.346 8.181 16.14 8.323 15.917 8.387C15.711 8.45 15.458 8.498 15.172 8.545C14.903 8.593 14.618 8.625 14.364 8.656C14.11 8.688 13.888 8.704 13.73 8.736C13.333 8.783 12.969 8.863 12.636 8.989C12.303 9.1 12.033 9.275 11.811 9.497C11.605 9.719 11.51 10.02 11.51 10.4C11.51 10.924 11.7 11.32 12.097 11.589C12.493 11.859 12.985 11.986 13.587 11.986ZM21.593 7.198L21.593 13.111L20.087 13.111L20.087 3.282L21.546 3.282L21.546 4.82L21.673 4.82C21.895 4.328 22.259 3.916 22.719 3.615C23.195 3.314 23.797 3.155 24.542 3.155C25.208 3.155 25.795 3.298 26.286 3.567C26.778 3.837 27.174 4.249 27.459 4.804C27.745 5.343 27.872 6.04 27.872 6.881L27.872 13.127L26.366 13.127L26.366 6.976C26.366 6.199 26.159 5.597 25.763 5.168C25.367 4.74 24.812 4.518 24.114 4.518C23.639 4.518 23.195 4.629 22.814 4.836C22.434 5.042 22.148 5.343 21.926 5.755C21.704 6.151 21.593 6.643 21.593 7.214L21.593 7.198ZM31.502 9.528L31.471 7.658L31.772 7.658L36.068 3.282L37.939 3.282L33.357 7.911L33.23 7.911L31.486 9.528L31.502 9.528ZM30.091 13.111L30.091 0L31.597 0L31.597 13.111L30.091 13.111ZM36.338 13.111L32.501 8.244L33.579 7.198L38.272 13.111L36.354 13.111L36.338 13.111Z" fill="rgb(29,29,27)" fill-opacity="1.000" fill-rule="nonzero" transform="matrix(1 0 0 1 76.8164 23.9736)"/></svg>