<svg xmlns="http://www.w3.org/2000/svg" viewBox="0 0 60 60" width="60" height="60"><defs><linearGradient id="g120" gradientUnits="userSpaceOnUse" x1="10.49" y1="41.98" x2="10.49" y2="31.41"><stop offset="0.0%" stop-color="rgb(0,233,106)" stop-opacity="1.000"/><stop offset="100.0%" stop-color="rgb(36,132,127)" stop-opacity="1.000"/></linearGradient><linearGradient id="g121" gradientUnits="userSpaceOnUse" x1="30.02" y1="53.98" x2="30.02" y2="6.02"><stop offset="0.0%" stop-color="rgb(0,233,106)" stop-opacity="1.000"/><stop offset="100.0%" stop-color="rgb(36,132,127)" stop-opacity="1.000"/></linearGradient></defs><path d="M0 0L60 0L60 60L0 60L0 0Z" fill="rgb(255,255,255)" fill-opacity="1.000" fill-rule="nonzero" transform="matrix(1 0 0 1 0 0)"/><path d="M6.847 8.607L0 13.587L0 0L6.847 8.607Z" fill="url(#g120)" fill-rule="nonzero" transform="matrix(1 0 0 1 22.7098 10.9228)"/><path d="M0 23.632L0 22.216C0 20.434 0.816 18.76 2.189 17.665L2.297 17.579C3.327 16.764 4.593 16.313 5.924 16.313L8.543 16.313L31.059 0C31.059 5.495 28.44 10.646 23.997 13.887L16.077 19.64C15.733 19.876 15.519 20.284 15.519 20.713C15.519 21.786 16.764 22.43 17.644 21.786L31.059 12.02C31.059 17.558 28.419 22.752 23.954 25.993L19.425 29.299L19.425 38.829L5.71 21.593C5.044 20.735 3.821 20.606 2.984 21.271L0 23.632Z" fill="url(#g121)" fill-rule="nonzero" transform="matrix(1 0 0 1 14.941 10.9439)"/></svg>