<svg xmlns="http://www.w3.org/2000/svg" viewBox="0 0 60 60" width="60" height="60"><path d="M0 0L60 0L60 60L0 60L0 0Z" fill="rgb(255,255,255)" fill-opacity="1.000" fill-rule="nonzero" transform="matrix(1 0 0 1 0 0)"/><path d="M30.391 18.165L14.349 46.195L0 46.195L0 34.466L0.017 34.466L0.017 0L20.441 0L0.714 34.466L11.185 34.466L30.912 0L45.261 0L45.261 11.728L45.244 11.728L45.244 46.195L24.82 46.195L44.547 11.728L34.962 11.728L30.391 18.165Z" fill="rgb(0,181,218)" fill-opacity="1.000" fill-rule="evenodd" transform="matrix(1 0 0 1 7.7377 7.4029)"/></svg>