<svg xmlns="http://www.w3.org/2000/svg" viewBox="0 0 130 60" width="130" height="60"><path d="M0 0L130 0L130 60L0 60L0 0Z" fill="rgb(255,255,255)" fill-opacity="1.000" fill-rule="nonzero" transform="matrix(1 0 0 1 0 0)"/><path d="M8.552 5.114L4.038 13L0 13L0 9.699L0.005 9.699L0.005 0L5.753 0L0.201 9.699L3.148 9.699L8.7 0L12.738 0L12.738 3.301L12.733 3.301L12.733 13L6.985 13L12.536 3.301L9.839 3.301L8.552 5.114Z" fill="rgb(0,181,218)" fill-opacity="1.000" fill-rule="evenodd" transform="matrix(1 0 0 1 7.4077 23)"/><path d="M0 13L2.66 13L2.66 7.76L8.122 7.76L8.122 5.578L2.66 5.578L2.66 2.231L8.738 2.231L8.738 0L0 0L0 13Z" fill="rgb(0,0,0)" fill-opacity="1.000" fill-rule="nonzero" transform="matrix(1 0 0 1 26.4623 23)"/><path d="M2.601 7.468L8.56 7.468L8.56 5.286L2.601 5.286L2.601 2.231L9.128 2.231L9.128 0L0 0L0 13L9.27 13L9.27 10.815L2.601 10.815L2.601 7.468Z" fill="rgb(0,0,0)" fill-opacity="1.000" fill-rule="nonzero" transform="matrix(1 0 0 1 36.6915 23)"/><path d="M7.583 9.264C7.583 10.234 6.871 10.817 5.64 10.817L2.56 10.817L2.56 7.517L5.64 7.517C6.968 7.517 7.583 8.052 7.583 9.07L7.583 9.264ZM2.56 2.182L5.263 2.182C6.494 2.182 7.063 2.62 7.063 3.638L7.063 3.833C7.063 4.851 6.588 5.337 5.263 5.337L2.56 5.337L2.56 2.182ZM8.057 6.161C9.148 5.626 9.717 4.608 9.717 3.492L9.717 3.298C9.717 1.067 8.057 0 5.497 0L0 0L0 13L5.923 13C8.434 13 10.283 11.641 10.283 9.362L10.283 9.167C10.283 7.809 9.429 6.644 8.054 6.161L8.057 6.161Z" fill="rgb(0,0,0)" fill-opacity="1.000" fill-rule="nonzero" transform="matrix(1 0 0 1 47.6136 23)"/><path d="M5.331 6.16L2.62 6.16L2.62 2.229L5.334 2.229C6.62 2.229 7.524 2.761 7.524 4.071L7.524 4.314C7.524 5.576 6.62 6.157 5.334 6.157L5.331 6.16ZM10.235 4.317L10.235 4.074C10.235 1.405 8.284 0 5.618 0L0 0L0 13L2.617 13L2.617 8.391L4.806 8.391L7.71 13L10.709 13L7.521 8.099C9.188 7.564 10.235 6.305 10.235 4.314L10.235 4.317Z" fill="rgb(0,0,0)" fill-opacity="1.000" fill-rule="nonzero" transform="matrix(1 0 0 1 59.3345 23)"/><path d="M4.428 8.003L6.237 2.814L8.046 8.003L4.428 8.003ZM4.858 0L0 13L2.714 13L3.667 10.234L8.815 10.234L9.811 13L12.574 13L7.761 0L4.858 0Z" fill="rgb(0,0,0)" fill-opacity="1.000" fill-rule="nonzero" transform="matrix(1 0 0 1 70.2567 23)"/><path d="M7.583 9.264C7.583 10.234 6.874 10.817 5.637 10.817L2.56 10.817L2.56 7.52L5.637 7.52C6.971 7.52 7.583 8.054 7.583 9.073L7.583 9.267L7.583 9.264ZM2.56 2.182L5.214 2.182C6.497 2.182 7.065 2.62 7.065 3.638L7.065 3.833C7.065 4.851 6.54 5.337 5.257 5.337L2.56 5.337L2.56 2.182ZM8.011 6.161C9.148 5.626 9.717 4.608 9.717 3.492L9.717 3.298C9.72 1.067 8.057 0 5.497 0L0 0L0 13L5.874 13C8.434 13 10.283 11.641 10.283 9.362L10.283 9.167C10.283 7.809 9.429 6.644 8.008 6.161L8.011 6.161Z" fill="rgb(0,0,0)" fill-opacity="1.000" fill-rule="nonzero" transform="matrix(1 0 0 1 84.0025 23)"/><path d="M4.407 8.003L6.209 2.814L8.019 8.003L4.407 8.003ZM4.788 0L0 13L2.657 13L3.649 10.234L8.777 10.234L9.769 13L12.52 13L7.684 0L4.788 0Z" fill="rgb(0,0,0)" fill-opacity="1.000" fill-rule="nonzero" transform="matrix(1 0 0 1 94.4983 23)"/><path d="M0 0L0 4.852L2.504 9.217L2.504 0L0 0Z" fill="rgb(0,0,0)" fill-opacity="1.000" fill-rule="nonzero" transform="matrix(1 0 0 1 116.6087 23)"/><path d="M3.133 0L0 0L0 13L2.564 13L2.564 7.906L0.051 3.492L2.564 3.492L7.98 13L10.922 13L10.922 9.216L8.404 9.216L3.133 0Z" fill="rgb(0,0,0)" fill-opacity="1.000" fill-rule="nonzero" transform="matrix(1 0 0 1 108.1907 23)"/></svg>