<svg xmlns="http://www.w3.org/2000/svg" viewBox="0 0 60 60" width="60" height="60"><path d="M0 0L60 0L60 60L0 60L0 0Z" fill="rgb(255,255,255)" fill-opacity="1.000" fill-rule="nonzero" transform="matrix(1 0 0 1 0 0)"/><path d="M3.052 0L0 0L0 3.052L3.052 3.052L3.052 0Z" fill="rgb(255,102,0)" fill-opacity="1.000" fill-rule="nonzero" transform="matrix(1 0 0 1 50.7204 38.734)"/><path d="M2.833 0L4.652 13.629L6.465 0L9.291 0L6.645 16.629L2.619 16.629L0 0L2.833 0Z" fill="rgb(255,102,0)" fill-opacity="1.000" fill-rule="nonzero" transform="matrix(1 0 0 1 41.7034 25.1513)"/><path d="M1.566 7.151L0 7.151L0 9.364L1.566 9.364L1.566 23.787L4.325 23.787L4.325 9.357L6.265 9.357L6.265 7.145L4.325 7.145L4.325 3.772C4.325 3.279 4.425 2.899 4.665 2.646C4.905 2.386 5.272 2.266 5.765 2.266L6.265 2.266L6.265 0L5.265 0C4.039 0 2.859 0.26 2.299 0.793C1.74 1.326 1.573 2.153 1.573 3.332L1.573 7.145L1.566 7.151Z" fill="rgb(255,102,0)" fill-opacity="1.000" fill-rule="nonzero" transform="matrix(1 0 0 1 6 18)"/><path d="M2.766 0L0 0L0 16.629L2.766 16.629L2.766 0Z" fill="rgb(255,102,0)" fill-opacity="1.000" fill-rule="nonzero" transform="matrix(1 0 0 1 13.1243 25.1513)"/><path d="M2.773 9.451L8.538 9.451L8.538 4.325C8.531 1.26 7.058 0 4.265 0C1.473 0 0 1.253 0 4.345L0 12.77C0.007 15.582 1.713 17.035 4.265 17.035C6.818 17.035 8.531 15.836 8.544 12.77L8.544 11.437L5.872 11.437C5.872 11.437 5.872 12.623 5.872 13.016C5.872 14.143 5.452 14.922 4.319 14.922C3.186 14.922 2.773 14.136 2.773 13.016L2.773 9.451ZM2.773 3.772C2.773 2.833 3.019 1.859 4.312 1.859C5.605 1.859 5.865 2.819 5.865 3.766L5.865 7.205L2.773 7.205L2.773 3.766L2.773 3.772Z" fill="rgb(255,102,0)" fill-opacity="1.000" fill-rule="nonzero" transform="matrix(1 0 0 1 25.8876 24.958)"/><path d="M5.192 7.365C3.106 5.532 2.933 5.279 2.933 3.926C2.933 2.766 3.032 2.066 4.072 2.066C5.112 2.066 5.245 2.759 5.245 3.939L5.245 5.472L7.911 5.472L7.911 2.966C7.904 1 6.392 0 4.012 0C1.633 0 0.147 0.78 0.133 3.926C0.133 4.459 0.133 4.459 0.133 4.252C0.133 5.239 0.14 6.805 2.586 8.904L3.286 9.504C5.085 11.024 5.285 11.203 5.279 13.01C5.279 14.123 5.212 14.969 4.039 14.969C2.866 14.969 2.799 14.116 2.799 13.596L2.799 11.47L0 11.47L0 13.663C0 16.362 1.76 17.035 4.039 17.035C6.318 17.035 8.078 16.362 8.078 12.883L8.078 12.596C8.078 10.17 7.631 9.517 5.192 7.371L5.192 7.365Z" fill="rgb(255,102,0)" fill-opacity="1.000" fill-rule="nonzero" transform="matrix(1 0 0 1 16.9175 24.9648)"/><path d="M2.519 1.906L2.519 0.193L0 0.193L0 16.822L2.719 16.822L2.719 5.232C2.719 4.339 3.012 3.746 3.519 3.399C3.999 3.066 4.592 2.952 5.345 2.946L5.345 0C3.906 0.027 3.279 0.313 2.546 1.839L2.519 1.899L2.519 1.906Z" fill="rgb(255,102,0)" fill-opacity="1.000" fill-rule="nonzero" transform="matrix(1 0 0 1 35.6049 24.958)"/></svg>