<svg xmlns="http://www.w3.org/2000/svg" viewBox="0 0 130 60" width="130" height="60"><path d="M0 0L130 0L130 60L0 60L0 0Z" fill="rgb(255,255,255)" fill-opacity="1.000" fill-rule="nonzero" transform="matrix(1 0 0 1 0 0)"/><path d="M0.783 7.747L7.409 7.747L7.409 6.985L0.783 6.985L0.783 0L0 0L0 10.52C0 12.912 1.799 14.69 4.17 14.69L8.34 14.69L8.34 13.907L4.17 13.907C2.223 13.907 0.783 12.468 0.783 10.52L0.783 7.747Z" fill="rgb(23,50,92)" fill-opacity="1.000" fill-rule="nonzero" transform="matrix(1 0 0 -1 52.2913 37.2543)"/><path d="M0.783 0L0 0L0 10.901L0.783 10.901L0.783 0ZM0.783 13.866L0 13.866L0 14.69L0.783 14.69L0.783 13.866Z" fill="rgb(23,50,92)" fill-opacity="1.000" fill-rule="nonzero" transform="matrix(1 0 0 -1 62.4304 37.2332)"/><path d="M2.921 10.137L0 10.137L0 10.921L2.921 10.921M2.461 3.787C2.461 1.924 3.308 0.654 5.382 0.739L5.382 0.019C3.033 -0.192 1.657 1.353 1.657 3.787L1.657 14.688L2.461 14.688L2.461 10.921L5.382 10.921L5.382 10.137L2.461 10.137L2.461 3.787Z" fill="rgb(23,50,92)" fill-opacity="1.000" fill-rule="nonzero" transform="matrix(1 0 0 -1 64.4776 37.2525)"/><path d="M5.271 6.35L2.794 6.35L2.794 2.604L5.313 2.604C6.414 2.604 7.451 3.006 7.451 4.445C7.451 5.673 6.668 6.35 5.271 6.35ZM2.794 8.954L5.122 8.954C5.292 8.954 6.837 8.996 6.837 10.584C6.837 11.811 5.885 12.32 4.826 12.32C3.641 12.32 2.794 11.43 2.794 10.309L2.794 8.954ZM5.736 0L0 0L0 10.309C0 11.579 0.487 12.785 1.376 13.653C2.286 14.563 3.514 15.05 4.826 15.05C7.62 15.05 9.652 13.272 9.652 10.711C9.652 9.462 9.123 8.488 8.361 7.853C9.61 7.197 10.33 5.99 10.33 4.318C10.33 1.693 8.573 0 5.736 0Z" fill="rgb(23,50,92)" fill-opacity="1.000" fill-rule="nonzero" transform="matrix(1 0 0 -1 71.8929 37.2332)"/><path d="M5.609 8.785C4.064 8.785 2.815 7.451 2.815 5.652C2.815 3.916 4.064 2.582 5.609 2.582C7.155 2.582 8.404 3.958 8.404 5.652C8.404 7.387 7.155 8.785 5.609 8.785ZM11.198 0.233L8.552 0.233L8.552 1.376C7.726 0.466 6.541 0 5.228 0C2.35 0 0 2.54 0 5.673C0 8.827 2.307 11.409 5.609 11.409C8.89 11.409 11.198 8.827 11.198 5.673L11.198 0.233Z" fill="rgb(23,50,92)" fill-opacity="1.000" fill-rule="nonzero" transform="matrix(1 0 0 -1 83.4918 37.466)"/><path d="M4.911 11.176C7.959 11.176 9.758 9.166 9.758 6.308L9.758 0L6.964 0L6.964 6.371C6.964 6.985 6.752 8.446 4.911 8.446C3.683 8.446 2.794 7.599 2.794 6.371L2.794 0L0 0L0 6.308C0 9.081 1.947 11.176 4.911 11.176Z" fill="rgb(23,50,92)" fill-opacity="1.000" fill-rule="nonzero" transform="matrix(1 0 0 -1 96.1076 37.2332)"/><path d="M9.525 2.223L9.525 0L6.71 0L6.71 1.757C6.71 2.963 6.054 4.107 4.361 4.107L2.815 4.107L2.815 0L0 0L0 15.05L2.815 15.05L2.815 6.795L4.361 6.795C6.054 6.795 6.71 7.959 6.71 9.166L6.71 10.901L9.525 10.901L9.525 8.679C9.525 7.261 8.869 6.054 7.663 5.461C8.869 4.847 9.525 3.662 9.525 2.223Z" fill="rgb(23,50,92)" fill-opacity="1.000" fill-rule="nonzero" transform="matrix(1 0 0 -1 107.4753 37.2332)"/><path d="M3.785 22.389L0 22.389L0 3.784C0 1.694 1.694 0 3.785 0C5.875 0 7.569 1.694 7.569 3.784L7.569 26.174C7.569 24.084 5.875 22.389 3.785 22.389Z" fill="rgb(63,133,191)" fill-opacity="1.000" fill-rule="nonzero" transform="matrix(1 0 0 -1 35.3891 44.8883)"/><path d="M26.174 7.569L3.785 7.569C1.694 7.569 0 5.875 0 3.784C0 1.694 1.694 0 3.785 0L22.389 0L22.389 3.784C22.389 5.875 24.084 7.569 26.174 7.569Z" fill="rgb(23,50,92)" fill-opacity="1.000" fill-rule="nonzero" transform="matrix(1 0 0 -1 13 22.4987)"/><path d="M3.785 7.569C1.694 7.569 0 5.875 0 3.784L0 0L3.785 0C5.875 0 7.569 1.694 7.569 3.784C7.569 5.875 5.875 7.569 3.785 7.569Z" fill="rgb(13,25,61)" fill-opacity="1.000" fill-rule="nonzero" transform="matrix(1 0 0 -1 35.3891 22.4987)"/><path d="M0 14.163L0 3.784C0 1.694 1.694 0 3.785 0C5.875 0 7.569 1.694 7.569 3.784L7.569 10.378L3.785 10.378C1.694 10.378 0 12.072 0 14.163Z" fill="rgb(23,50,92)" fill-opacity="1.000" fill-rule="nonzero" transform="matrix(1 0 0 -1 13.0098 44.8883)"/><path d="M10.395 7.569L0 7.569C2.09 7.569 3.785 5.875 3.785 3.784L3.785 0L10.395 0C12.485 0 14.179 1.694 14.179 3.784C14.179 5.875 12.485 7.569 10.395 7.569Z" fill="rgb(23,50,92)" fill-opacity="1.000" fill-rule="nonzero" transform="matrix(1 0 0 -1 16.7945 34.5103)"/><path d="M3.785 7.569C1.694 7.569 0 5.875 0 3.784C0 1.694 1.694 0 3.785 0L7.569 0L7.569 3.784C7.569 5.875 5.875 7.569 3.785 7.569Z" fill="rgb(13,25,61)" fill-opacity="1.000" fill-rule="nonzero" transform="matrix(1 0 0 -1 13.0098 34.5103)"/></svg>