<svg xmlns="http://www.w3.org/2000/svg" viewBox="0 0 60 60" width="60" height="60"><path d="M0 0L60 0L60 60L0 60L0 0Z" fill="rgb(255,255,255)" fill-opacity="1.000" fill-rule="nonzero" transform="matrix(1 0 0 1 0 0)"/><path d="M4.571 27.041L0 27.041L0 4.571C0 2.046 2.046 0 4.571 0C7.095 0 9.142 2.046 9.142 4.571L9.142 31.612C9.142 29.088 7.095 27.041 4.571 27.041Z" fill="rgb(63,133,191)" fill-opacity="1.000" fill-rule="nonzero" transform="matrix(1 0 0 -1 38.8584 48.0007)"/><path d="M31.612 9.142L4.571 9.142C2.046 9.142 0 7.095 0 4.571C0 2.046 2.046 0 4.571 0L27.041 0L27.041 4.571C27.041 7.095 29.088 9.142 31.612 9.142Z" fill="rgb(23,50,92)" fill-opacity="1.000" fill-rule="nonzero" transform="matrix(1 0 0 -1 11.8175 20.9591)"/><path d="M4.571 9.142C2.046 9.142 0 7.095 0 4.571L0 0L4.571 0C7.095 0 9.142 2.046 9.142 4.571C9.142 7.095 7.095 9.142 4.571 9.142Z" fill="rgb(13,25,61)" fill-opacity="1.000" fill-rule="nonzero" transform="matrix(1 0 0 -1 38.8584 20.9591)"/><path d="M0 17.105L0 4.571C0 2.046 2.046 0 4.571 0C7.095 0 9.142 2.046 9.142 4.571L9.142 12.534L4.571 12.534C2.046 12.534 0 14.581 0 17.105Z" fill="rgb(23,50,92)" fill-opacity="1.000" fill-rule="nonzero" transform="matrix(1 0 0 -1 11.8294 48.0007)"/><path d="M12.554 9.142L0 9.142C2.525 9.142 4.571 7.095 4.571 4.571L4.571 0L12.554 0C15.079 0 17.125 2.046 17.125 4.571C17.125 7.095 15.079 9.142 12.554 9.142Z" fill="rgb(23,50,92)" fill-opacity="1.000" fill-rule="nonzero" transform="matrix(1 0 0 -1 16.4005 35.4664)"/><path d="M4.571 9.142C2.046 9.142 0 7.095 0 4.571C0 2.046 2.046 0 4.571 0L9.142 0L9.142 4.571C9.142 7.095 7.095 9.142 4.571 9.142Z" fill="rgb(13,25,61)" fill-opacity="1.000" fill-rule="nonzero" transform="matrix(1 0 0 -1 11.8294 35.4664)"/></svg>