<svg xmlns="http://www.w3.org/2000/svg" viewBox="0 0 60 60" width="60" height="60"><path d="M0 0L60 0L60 60L0 60L0 0Z" fill="rgb(21,67,96)" fill-opacity="1.000" fill-rule="nonzero" transform="matrix(1 0 0 1 0 0)"/><path d="M3.9 7.8C2.826 7.8 1.907 7.419 1.145 6.656C0.382 5.893 0 4.974 0 3.9C0 2.826 0.382 1.907 1.145 1.145C1.907 0.381 2.826 0 3.9 0C4.88 0 5.627 0.273 6.141 0.819C6.141 0.589 6.222 0.397 6.385 0.244C6.547 0.081 6.74 0 6.961 0L6.981 0C7.202 0 7.394 0.081 7.556 0.244C7.719 0.397 7.8 0.589 7.8 0.819L7.8 3.9C7.8 4.974 7.419 5.893 6.656 6.656C5.893 7.419 4.974 7.8 3.9 7.8ZM5.484 2.309C5.051 1.876 4.523 1.659 3.9 1.659C3.277 1.659 2.747 1.876 2.309 2.309C1.876 2.747 1.659 3.277 1.659 3.9C1.659 4.519 1.876 5.047 2.309 5.484C2.747 5.922 3.277 6.141 3.9 6.141C4.519 6.141 5.046 5.922 5.484 5.484C5.922 5.047 6.141 4.519 6.141 3.9C6.141 3.277 5.922 2.747 5.484 2.309Z" fill="rgb(255,255,255)" fill-opacity="1.000" fill-rule="nonzero" transform="matrix(1 0 0 -1 12.0365 34.4001)"/><path d="M6.618 4.6L6.618 0.845C6.618 0.616 6.538 0.422 6.377 0.262C6.212 0.098 6.014 0.015 5.785 0.015L5.771 0.015C5.536 0.015 5.341 0.098 5.185 0.262C5.02 0.418 4.937 0.612 4.937 0.845L4.937 4.6C4.937 5.048 4.779 5.429 4.461 5.745C4.144 6.06 3.759 6.218 3.304 6.218C2.853 6.218 2.469 6.06 2.152 5.745C1.883 5.477 1.729 5.162 1.688 4.799C1.681 4.734 1.678 4.668 1.678 4.6L1.678 0.83C1.678 0.597 1.594 0.402 1.43 0.247C1.273 0.082 1.078 0 0.843 0L0.831 0C0.607 0 0.412 0.083 0.248 0.247C0.083 0.402 0 0.596 0 0.829L0 8.862C0 9.094 0.083 9.289 0.248 9.444C0.413 9.608 0.609 9.691 0.834 9.691L0.854 9.691C1.079 9.691 1.275 9.608 1.44 9.444C1.491 9.397 1.533 9.345 1.568 9.291C1.649 9.167 1.688 9.023 1.688 8.862L1.688 7.539C2.137 7.778 2.676 7.897 3.304 7.897C4.218 7.897 4.999 7.574 5.647 6.93C6.295 6.281 6.618 5.504 6.618 4.6Z" fill="rgb(255,255,255)" fill-opacity="1.000" fill-rule="nonzero" transform="matrix(1 0 0 -1 38.0365 34.4001)"/><path d="M1.655 9.345L1.655 0.818C1.655 0.659 1.615 0.517 1.537 0.394C1.503 0.341 1.461 0.29 1.412 0.243C1.25 0.081 1.058 0 0.838 0L0.817 0C0.597 0 0.405 0.081 0.243 0.243C0.082 0.397 0 0.589 0 0.818L0 9.345C0 9.575 0.082 9.767 0.243 9.92C0.405 10.082 0.597 10.164 0.817 10.164L0.838 10.164C1.058 10.164 1.25 10.082 1.412 9.92C1.461 9.873 1.503 9.823 1.537 9.769C1.615 9.647 1.655 9.505 1.655 9.345Z" fill="rgb(255,255,255)" fill-opacity="1.000" fill-rule="nonzero" transform="matrix(1 0 0 -1 8.9635 34.4001)"/><path d="M6.857 9.23C6.071 10.01 5.125 10.4 4.018 10.4C3.147 10.4 2.375 10.158 1.702 9.675C1.688 9.793 1.65 9.9 1.587 9.996C1.553 10.051 1.509 10.102 1.458 10.151C1.291 10.316 1.093 10.4 0.865 10.4L0.844 10.4C0.616 10.4 0.418 10.316 0.251 10.151C0.084 9.993 0 9.798 0 9.562L0 0.838C0 0.602 0.084 0.407 0.251 0.249C0.418 0.083 0.616 0 0.844 0L0.865 0C1.093 0 1.291 0.083 1.458 0.249C1.509 0.297 1.553 0.348 1.587 0.403C1.669 0.529 1.709 0.674 1.709 0.838L1.709 3.264C2.24 2.706 3.009 2.427 4.018 2.427C5.125 2.427 6.071 2.817 6.857 3.597C7.643 4.376 8.036 5.315 8.036 6.413C8.036 7.511 7.643 8.45 6.857 9.23ZM5.657 4.787C5.206 4.344 4.66 4.122 4.018 4.122C3.376 4.122 2.832 4.344 2.386 4.787C1.942 5.227 1.716 5.76 1.709 6.384C1.709 6.394 1.709 6.403 1.709 6.413C1.709 6.423 1.709 6.433 1.709 6.443C1.716 7.062 1.942 7.593 2.386 8.033C2.837 8.48 3.381 8.705 4.018 8.705C4.66 8.705 5.206 8.48 5.657 8.033C6.104 7.585 6.327 7.045 6.327 6.413C6.327 5.776 6.104 5.234 5.657 4.787Z" fill="rgb(255,255,255)" fill-opacity="1.000" fill-rule="nonzero" transform="matrix(1 0 0 -1 48.9089 37)"/><path d="M6.618 2.421C6.618 1.971 6.488 1.564 6.228 1.2C5.967 0.835 5.576 0.545 5.056 0.326C4.535 0.109 3.902 0 3.158 0C2.526 0 1.912 0.075 1.317 0.225C1.153 0.266 0.997 0.311 0.85 0.361C0.85 0.361 0.849 0.361 0.848 0.361C0.771 0.386 0.695 0.413 0.622 0.442C0.344 0.586 0.154 0.877 0.154 1.212C0.154 1.692 0.544 2.082 1.026 2.082C1.098 2.082 1.167 2.073 1.234 2.056C1.305 2.026 1.378 1.998 1.452 1.97C1.567 1.929 1.685 1.889 1.808 1.853C2.269 1.717 2.723 1.65 3.17 1.65C4.018 1.65 4.442 1.853 4.442 2.26C4.442 2.475 4.321 2.634 4.079 2.737C3.837 2.841 3.449 2.95 2.913 3.064C2.325 3.186 1.834 3.316 1.439 3.455C1.045 3.595 0.706 3.818 0.424 4.125C0.141 4.432 0 4.846 0 5.368C0 5.825 0.13 6.237 0.39 6.605C0.651 6.973 1.039 7.265 1.556 7.478C2.074 7.693 2.708 7.8 3.46 7.8C3.973 7.8 4.479 7.744 4.978 7.634C5.051 7.618 5.123 7.6 5.193 7.582C5.325 7.547 5.453 7.509 5.576 7.466C5.837 7.316 6.012 7.035 6.012 6.714C6.012 6.234 5.621 5.845 5.14 5.845C5.079 5.845 5.02 5.851 4.964 5.862L4.962 5.862C4.96 5.863 4.959 5.863 4.957 5.864C4.889 5.889 4.823 5.912 4.756 5.933C4.312 6.078 3.876 6.15 3.449 6.15C3.009 6.15 2.689 6.087 2.489 5.962C2.288 5.837 2.187 5.675 2.187 5.475C2.187 5.275 2.306 5.125 2.544 5.025C2.783 4.925 3.166 4.821 3.694 4.714C4.289 4.593 4.782 4.462 5.173 4.323C5.563 4.184 5.902 3.963 6.188 3.659C6.475 3.355 6.618 2.943 6.618 2.421Z" fill="rgb(255,255,255)" fill-opacity="1.000" fill-rule="nonzero" transform="matrix(1 0 0 -1 30.2363 34.4001)"/><path d="M4.018 9.629C4.018 9.58 4.013 9.532 4.004 9.486C4.004 9.485 4.004 9.485 4.004 9.484L4.002 9.481C4.002 9.48 4.002 9.48 4.002 9.48L3.936 9.302L3.926 9.277C3.804 9.058 3.571 8.91 3.302 8.91C3.295 8.91 3.288 8.91 3.281 8.911C3.188 8.943 3.091 8.966 2.993 8.98C2.916 8.992 2.837 8.997 2.756 8.997C2.067 8.997 1.704 8.64 1.668 7.926C1.666 7.886 1.665 7.845 1.665 7.803L1.665 7.359L1.668 7.359L1.668 6.309L2.866 6.309C3.026 6.309 3.169 6.269 3.292 6.19C3.346 6.155 3.397 6.113 3.444 6.063C3.474 6.033 3.501 6.003 3.525 5.97C3.634 5.828 3.689 5.664 3.689 5.482L3.689 5.461C3.689 5.237 3.607 5.044 3.444 4.88C3.29 4.716 3.097 4.633 2.866 4.633L1.668 4.633L1.668 0.808C1.668 0.646 1.628 0.503 1.549 0.379C1.515 0.324 1.472 0.274 1.423 0.226C1.306 0.109 1.173 0.033 1.025 0L0.642 0C0.495 0.033 0.362 0.109 0.245 0.226C0.082 0.382 0 0.576 0 0.808L0 8.065C0.041 8.751 0.269 9.3 0.684 9.712C0.856 9.883 1.055 10.023 1.28 10.13C1.656 10.31 2.107 10.4 2.632 10.4C2.869 10.4 3.087 10.383 3.288 10.348C3.288 10.349 3.288 10.349 3.288 10.348C3.411 10.328 3.526 10.3 3.635 10.266C3.863 10.146 4.018 9.906 4.018 9.629Z" fill="rgb(255,255,255)" fill-opacity="1.000" fill-rule="nonzero" transform="matrix(1 0 0 -1 4 34.4001)"/><path d="M1.655 6.984L1.655 0.816C1.655 0.657 1.615 0.516 1.537 0.393C1.503 0.339 1.461 0.289 1.412 0.243C1.25 0.081 1.058 0 0.838 0L0.817 0C0.597 0 0.405 0.081 0.243 0.243C0.082 0.396 0 0.587 0 0.816L0 6.984C0 7.213 0.082 7.404 0.243 7.557C0.405 7.719 0.597 7.8 0.817 7.8L0.838 7.8C1.058 7.8 1.25 7.719 1.412 7.557C1.461 7.51 1.503 7.46 1.537 7.407C1.615 7.284 1.655 7.143 1.655 6.984Z" fill="rgb(255,255,255)" fill-opacity="1.000" fill-rule="nonzero" transform="matrix(1 0 0 -1 46.0729 34.4001)"/><path d="M1.655 0.827C1.655 0.37 1.284 0 0.827 0C0.37 0 0 0.37 0 0.827C0 1.284 0.37 1.655 0.827 1.655C1.284 1.655 1.655 1.284 1.655 0.827Z" fill="rgb(255,255,255)" fill-opacity="1.000" fill-rule="nonzero" transform="matrix(1 0 0 -1 46.0729 25.6546)"/><path d="M7.682 10C7.647 10.054 7.606 10.106 7.556 10.153C7.394 10.317 7.202 10.4 6.98 10.4L6.96 10.4C6.791 10.4 6.638 10.352 6.504 10.255C6.462 10.225 6.423 10.191 6.385 10.153C6.24 10.014 6.16 9.845 6.144 9.645C5.492 10.122 4.744 10.36 3.9 10.36C2.852 10.36 1.953 9.993 1.202 9.258C1.183 9.24 1.163 9.221 1.145 9.201C0.381 8.429 0 7.498 0 6.41C0 5.322 0.381 4.391 1.145 3.619C1.907 2.846 2.826 2.459 3.9 2.459C4.879 2.459 5.627 2.736 6.141 3.29C6.141 3.276 6.141 3.264 6.142 3.251C6.138 3.259 6.134 3.269 6.131 3.278L6.131 3.271C6.131 2.825 5.976 2.446 5.667 2.132C5.418 1.881 5.128 1.73 4.796 1.68C4.714 1.668 4.629 1.662 4.543 1.662L2.865 1.662C2.777 1.643 2.696 1.609 2.621 1.561C2.568 1.526 2.517 1.484 2.47 1.433C2.308 1.269 2.226 1.074 2.226 0.85L2.226 0.83C2.226 0.605 2.308 0.411 2.47 0.247C2.624 0.082 2.816 0 3.046 0L4.793 0C5.575 0.055 6.254 0.372 6.831 0.952C7.054 1.179 7.238 1.421 7.383 1.68C7.62 2.105 7.751 2.574 7.775 3.086C7.777 3.092 7.8 9.57 7.8 9.57C7.8 9.732 7.761 9.875 7.682 10ZM6.141 6.38C6.134 5.762 5.915 5.235 5.484 4.799C5.363 4.676 5.235 4.57 5.099 4.482C4.749 4.254 4.349 4.139 3.9 4.139C3.413 4.139 2.983 4.273 2.61 4.542C2.505 4.617 2.405 4.702 2.309 4.799C1.936 5.18 1.724 5.631 1.671 6.151C1.663 6.235 1.659 6.322 1.659 6.41C1.659 7.036 1.875 7.572 2.309 8.015C2.747 8.458 3.277 8.68 3.9 8.68C4.518 8.68 5.046 8.458 5.484 8.015C5.765 7.731 5.956 7.408 6.057 7.048C6.111 6.856 6.138 6.653 6.141 6.439L6.141 6.38Z" fill="rgb(255,255,255)" fill-opacity="1.000" fill-rule="nonzero" transform="matrix(1 0 0 -1 21.2546 37)"/></svg>