<svg xmlns="http://www.w3.org/2000/svg" viewBox="0 0 60 60" width="60" height="60"><path d="M0 0L60 0L60 60L0 60L0 0Z" fill="rgb(255,255,255)" fill-opacity="1.000" fill-rule="nonzero" transform="matrix(1 0 0 1 0 0)"/><path d="M33.371 13.749C33.371 14.414 33.852 14.889 34.494 14.889C35.136 14.889 35.618 14.414 35.618 13.749L35.618 9.124C35.618 7.27 36.677 6.257 38.315 6.257C39.775 6.257 40.61 7.128 40.61 8.648L40.61 13.749C40.61 14.414 41.092 14.889 41.734 14.889C42.376 14.889 42.857 14.414 42.857 13.749L42.857 8.427C42.857 5.892 41.348 4.197 38.844 4.197C37.416 4.197 36.453 4.688 35.859 5.512C35.746 5.655 35.602 5.623 35.602 5.433L35.602 1.14C35.602 0.475 35.12 0 34.478 0C33.836 0 33.355 0.475 33.355 1.14L33.355 13.749L33.371 13.749ZM24.013 7.35C24.013 8.965 25.136 9.82 26.565 10.232L28.443 10.771C29.262 10.993 29.679 11.262 29.679 11.816C29.679 12.577 29.005 12.973 27.817 12.973C26.998 12.973 26.372 12.656 25.907 12.181C25.506 11.785 24.88 11.705 24.382 12.07C23.9 12.434 23.804 13.147 24.254 13.638C25.088 14.541 26.469 14.984 27.817 14.984C29.823 14.984 31.894 14.034 31.894 11.705C31.894 10.058 30.835 9.25 29.197 8.775L27.319 8.237C26.485 7.983 26.228 7.698 26.228 7.223C26.228 6.589 26.854 6.193 27.833 6.193C28.652 6.193 29.262 6.51 29.807 6.89C30.353 7.286 31.043 7.223 31.38 6.763C31.717 6.336 31.734 5.718 31.22 5.259C30.417 4.578 29.342 4.166 27.833 4.166C25.795 4.197 24.013 5.322 24.013 7.35ZM13.74 9.599C13.74 7.635 15.072 6.257 17.031 6.257C18.957 6.257 20.321 7.666 20.321 9.599C20.321 11.563 18.989 12.941 17.031 12.941C15.104 12.941 13.74 11.547 13.74 9.599ZM11.445 9.599C11.445 12.656 13.708 15 16.661 15C18.266 15 19.342 14.398 20.048 13.448C20.177 13.289 20.305 13.337 20.305 13.527L20.305 13.733C20.305 14.398 20.787 14.873 21.429 14.873C22.071 14.873 22.552 14.398 22.552 13.733L22.552 5.449C22.552 4.784 22.071 4.308 21.429 4.308C20.787 4.308 20.305 4.784 20.305 5.449L20.305 5.607C20.305 5.797 20.177 5.861 20.048 5.686C19.342 4.752 18.266 4.182 16.677 4.182C13.74 4.197 11.445 6.589 11.445 9.599ZM7.721 13.749C7.721 14.414 8.202 14.889 8.844 14.889C9.486 14.889 9.968 14.414 9.968 13.749L9.968 1.14C9.968 0.475 9.486 0 8.844 0C8.202 0 7.721 0.475 7.721 1.14L7.721 13.749ZM2.713 14.889C3.355 14.889 3.836 14.414 3.836 13.749L3.836 6.748C3.836 6.621 3.917 6.542 4.045 6.542L5.297 6.542C5.923 6.542 6.405 6.082 6.405 5.496C6.405 4.91 5.939 4.435 5.313 4.435L4.061 4.435C3.933 4.435 3.852 4.356 3.852 4.229L3.852 3.706C3.852 2.756 4.382 2.202 5.313 2.122C6.067 2.059 6.485 1.663 6.485 1.03C6.485 0.459 6.116 0 5.265 0C3.146 0 1.589 1.616 1.589 3.786L1.589 4.245C1.589 4.372 1.509 4.451 1.38 4.451L1.108 4.451C0.482 4.435 0 4.894 0 5.496C0 6.098 0.482 6.542 1.108 6.542L1.38 6.542C1.509 6.542 1.589 6.621 1.589 6.748L1.589 13.749C1.589 14.414 2.071 14.889 2.713 14.889Z" fill="rgb(254,43,143)" fill-opacity="1.000" fill-rule="nonzero" transform="matrix(1 0 0 1 9 22)"/></svg>