<svg xmlns="http://www.w3.org/2000/svg" viewBox="0 0 130 60" width="130" height="60"><path d="M0 0L130 0L130 60L0 60L0 0Z" fill="rgb(255,255,255)" fill-opacity="1.000" fill-rule="nonzero" transform="matrix(1 0 0 1 0 0)"/><path d="M0.179 4.023C0.389 3.246 0.682 2.587 1.057 2.057C1.34 1.664 1.679 1.307 2.063 0.997C2.456 0.686 2.858 0.457 3.269 0.302C3.809 0.101 4.403 0 5.052 0C6.213 0 7.054 0.357 7.576 1.061C8.088 1.765 8.179 2.734 7.859 3.986C7.539 5.23 6.936 6.208 6.058 6.903C5.189 7.607 4.165 7.954 3.004 7.954C1.834 7.954 0.984 7.607 0.472 6.912C-0.04 6.217 -0.132 5.248 0.179 4.023ZM1.843 3.977C1.615 4.846 1.651 5.504 1.944 5.952C2.245 6.4 2.712 6.628 3.352 6.628C3.982 6.628 4.568 6.409 5.089 5.961C5.619 5.513 5.994 4.846 6.222 3.95C6.451 3.072 6.424 2.414 6.14 1.984C5.857 1.545 5.381 1.335 4.723 1.335C4.065 1.335 3.48 1.554 2.958 1.993C2.447 2.432 2.072 3.09 1.843 3.977Z" fill="rgb(0,0,0)" fill-opacity="1.000" fill-rule="nonzero" transform="matrix(1 0 0 1 22.0579 34.746)"/><path d="M0 7.908L2.633 0.018L4.48 0L2.35 6.363L6.062 6.363L5.568 7.908L0 7.908Z" fill="rgb(0,0,0)" fill-opacity="1.000" fill-rule="nonzero" transform="matrix(1 0 0 1 74.6975 34.7554)"/><path d="M0 7.945L2.642 0L4.516 0.018L1.81 7.936L0 7.945Z" fill="rgb(0,0,0)" fill-opacity="1.000" fill-rule="nonzero" transform="matrix(1 0 0 1 71.7809 34.7554)"/><path d="M0 7.049L0.667 5.43C0.814 5.686 2.752 7.094 4.178 6.235C4.498 6.043 4.69 5.796 4.782 5.522C4.846 5.339 4.846 5.193 4.782 5.065C4.718 4.946 4.571 4.836 4.352 4.745C4.197 4.681 3.831 4.571 3.255 4.416C0.631 3.702 1.49 1.088 3.483 0.338C5.403 -0.384 6.72 0.183 7.79 0.813L7.287 2.413C5.074 0.484 2.258 2.422 4.389 3.026C5.056 3.209 5.522 3.419 5.833 3.556C8.878 4.964 4.489 10.514 0 7.049Z" fill="rgb(0,0,0)" fill-opacity="1.000" fill-rule="nonzero" transform="matrix(1 0 0 1 65.1364 34.6823)"/><path d="M7.671 7.927L5.723 7.918L5.723 6.308L3.127 6.29L2.121 7.954L0 7.954L5.431 0L7.332 0.018L7.671 7.927ZM5.723 4.763L5.833 1.947L4.078 4.763L5.723 4.763Z" fill="rgb(0,0,0)" fill-opacity="1.000" fill-rule="nonzero" transform="matrix(1 0 0 1 57.5105 34.746)"/><path d="M2.615 0L5.769 0C6.363 0 6.848 0.037 7.122 0.082C8.832 0.393 8.649 3.301 6.034 3.666C8.969 4.251 7.25 7.854 3.977 7.835L0 7.817L2.615 0ZM3.886 1.417L3.41 3.035L4.91 3.045C6.363 3.054 6.656 1.554 5.55 1.417C5.403 1.399 5.458 1.417 4.754 1.417L3.886 1.417ZM2.926 4.379L2.322 6.382L4.242 6.372C5.934 6.372 5.988 4.416 4.8 4.398L2.926 4.379Z" fill="rgb(0,0,0)" fill-opacity="1.000" fill-rule="nonzero" transform="matrix(1 0 0 1 43.6121 34.8284)"/><path d="M0.137 7.936L2.286 1.609L0 1.609L0.603 0L6.958 0.009L6.473 1.618L4.151 1.664L2.011 7.936L0.137 7.936Z" fill="rgb(0,0,0)" fill-opacity="1.000" fill-rule="nonzero" transform="matrix(1 0 0 1 38.5931 34.7554)"/><path d="M0 7.89L2.615 0.009L5.86 0C9.673 -0.009 8.64 4.27 5.065 4.142C5.668 4.16 6.372 5.083 6.382 6.162L6.4 7.863L4.516 7.863L4.516 5.815C4.516 4.773 3.675 4.535 2.77 4.626L1.737 7.89L0 7.89ZM3.291 3.218L4.736 3.218C6.51 3.218 6.692 1.527 5.367 1.481C5.257 1.472 5.458 1.481 4.846 1.472L3.895 1.463L3.291 3.218Z" fill="rgb(0,0,0)" fill-opacity="1.000" fill-rule="nonzero" transform="matrix(1 0 0 1 29.7712 34.746)"/><path d="M0 7.899L2.615 0L8.292 0.009L7.716 1.582L3.904 1.573L3.365 3.291L6.939 3.291L6.519 4.754L2.862 4.727L1.829 7.899L0 7.899Z" fill="rgb(0,0,0)" fill-opacity="1.000" fill-rule="nonzero" transform="matrix(1 0 0 1 14.2372 34.746)"/><path d="M0 7.89L2.615 0.009L5.87 0C9.673 -0.009 8.64 4.27 5.065 4.142C5.668 4.16 6.372 5.083 6.391 6.162L6.4 7.863L4.516 7.863L4.516 5.806C4.516 4.773 3.675 4.535 2.77 4.626L1.746 7.89L0 7.89ZM3.291 3.218L4.736 3.218C6.519 3.218 6.702 1.518 5.376 1.481C5.257 1.472 5.458 1.481 4.855 1.472L3.895 1.454L3.291 3.218Z" fill="rgb(0,0,0)" fill-opacity="1.000" fill-rule="nonzero" transform="matrix(1 0 0 1 51.0457 34.7735)"/><path d="M1.984 3.346L0 3.346L0.466 0.686L2.386 0.686L2.331 1.006L0.759 1.006L0.622 1.819L2.094 1.819L2.039 2.13L0.558 2.13L0.402 3.035L2.039 3.035L1.984 3.346ZM1.993 0L1.509 0.512L1.234 0.512L1.563 0L1.993 0Z" fill="rgb(0,0,0)" fill-opacity="1.000" fill-rule="nonzero" transform="matrix(1 0 0 1 14 45.5799)"/><path d="M2.296 1.865C2.168 2.167 1.994 2.386 1.774 2.533C1.555 2.679 1.308 2.752 1.043 2.752C0.604 2.752 0.312 2.615 0.156 2.35C0.01 2.075 -0.036 1.746 0.028 1.362C0.101 0.933 0.284 0.603 0.559 0.366C0.833 0.119 1.153 0 1.528 0C1.784 0 1.994 0.064 2.158 0.201C2.314 0.329 2.414 0.521 2.442 0.777L2.076 0.859C2.058 0.677 1.994 0.539 1.884 0.439C1.784 0.347 1.646 0.302 1.464 0.302C1.18 0.302 0.943 0.402 0.76 0.585C0.577 0.777 0.458 1.033 0.394 1.353C0.33 1.728 0.367 2.002 0.485 2.185C0.613 2.359 0.805 2.45 1.061 2.45C1.272 2.45 1.445 2.395 1.601 2.286C1.747 2.176 1.866 2.002 1.957 1.774L2.296 1.865Z" fill="rgb(0,0,0)" fill-opacity="1.000" fill-rule="nonzero" transform="matrix(1 0 0 1 17.6107 46.2198)"/><path d="M2.35 2.661L1.911 2.661C1.719 2.24 1.591 1.984 1.545 1.893C1.499 1.792 1.445 1.71 1.39 1.646C1.326 1.582 1.271 1.536 1.207 1.518C1.152 1.499 1.07 1.49 0.969 1.49L0.558 1.49L0.357 2.661L0 2.661L0.466 0L1.646 0C1.81 0 1.938 0.009 2.048 0.027C2.149 0.055 2.24 0.091 2.313 0.165C2.386 0.229 2.432 0.311 2.459 0.411C2.487 0.512 2.487 0.622 2.469 0.731C2.432 0.933 2.341 1.088 2.194 1.216C2.048 1.335 1.847 1.417 1.6 1.445L1.591 1.454C1.755 1.536 1.902 1.691 2.011 1.938L2.35 2.661ZM0.613 1.17L1.371 1.17C1.527 1.17 1.646 1.161 1.737 1.134C1.838 1.106 1.911 1.061 1.984 0.978C2.048 0.905 2.085 0.823 2.103 0.731C2.121 0.613 2.103 0.503 2.03 0.421C1.957 0.338 1.81 0.293 1.609 0.293L0.768 0.293L0.613 1.17Z" fill="rgb(0,0,0)" fill-opacity="1.000" fill-rule="nonzero" transform="matrix(1 0 0 1 20.2001 46.266)"/><path d="M1.984 3.346L0 3.346L0.466 0.686L2.386 0.686L2.331 1.006L0.759 1.006L0.622 1.819L2.094 1.819L2.039 2.13L0.567 2.13L0.402 3.035L2.039 3.035L1.984 3.346ZM1.993 0L1.509 0.512L1.234 0.512L1.563 0L1.993 0Z" fill="rgb(0,0,0)" fill-opacity="1.000" fill-rule="nonzero" transform="matrix(1 0 0 1 22.8869 45.5799)"/><path d="M0.466 0L1.39 0C1.554 0 1.691 0.009 1.801 0.027C1.911 0.046 2.021 0.082 2.112 0.146C2.203 0.21 2.286 0.293 2.35 0.411C2.405 0.521 2.441 0.649 2.469 0.795C2.487 0.933 2.478 1.115 2.441 1.317C2.377 1.71 2.222 2.03 1.993 2.286C1.765 2.533 1.417 2.661 0.96 2.661L0 2.661L0.466 0ZM0.411 2.35L0.978 2.35C1.097 2.35 1.207 2.341 1.298 2.322C1.39 2.313 1.49 2.267 1.6 2.203C1.701 2.139 1.801 2.039 1.883 1.893C1.975 1.746 2.039 1.554 2.075 1.307C2.103 1.179 2.112 1.051 2.112 0.933C2.103 0.823 2.085 0.713 2.03 0.622C1.984 0.53 1.929 0.457 1.847 0.411C1.774 0.366 1.701 0.338 1.627 0.329C1.545 0.32 1.445 0.32 1.326 0.32L0.768 0.32L0.411 2.35Z" fill="rgb(0,0,0)" fill-opacity="1.000" fill-rule="nonzero" transform="matrix(1 0 0 1 25.3639 46.266)"/><path d="M0.357 2.661L0 2.661L0.466 0L0.823 0L0.357 2.661Z" fill="rgb(0,0,0)" fill-opacity="1.000" fill-rule="nonzero" transform="matrix(1 0 0 1 28.0982 46.266)"/><path d="M2.103 0.32L1.225 0.32L0.814 2.661L0.457 2.661L0.869 0.32L0 0.32L0.055 0L2.158 0L2.103 0.32Z" fill="rgb(0,0,0)" fill-opacity="1.000" fill-rule="nonzero" transform="matrix(1 0 0 1 29.2867 46.266)"/><path d="M1.552 0C1.918 0 2.201 0.128 2.393 0.384C2.585 0.631 2.649 0.969 2.576 1.381C2.503 1.792 2.329 2.13 2.046 2.377C1.763 2.633 1.433 2.752 1.068 2.752C0.684 2.752 0.4 2.624 0.208 2.368C0.016 2.103 -0.038 1.783 0.025 1.408C0.099 0.969 0.281 0.631 0.556 0.375C0.839 0.128 1.168 0 1.552 0ZM1.113 2.45C1.388 2.45 1.625 2.359 1.817 2.167C2.019 1.984 2.156 1.719 2.211 1.381C2.275 1.033 2.238 0.768 2.092 0.585C1.955 0.393 1.753 0.302 1.497 0.302C1.232 0.302 0.995 0.393 0.793 0.576C0.592 0.759 0.455 1.042 0.391 1.417C0.336 1.728 0.373 1.975 0.51 2.167C0.647 2.359 0.848 2.45 1.113 2.45Z" fill="rgb(0,0,0)" fill-opacity="1.000" fill-rule="nonzero" transform="matrix(1 0 0 1 31.3742 46.2198)"/><path d="M0.366 0.366L0 0.366L0.064 0L0.43 0L0.366 0.366Z" fill="rgb(0,0,0)" fill-opacity="1.000" fill-rule="nonzero" transform="matrix(1 0 0 1 34.2233 48.5607)"/><path d="M1.984 3.346L0 3.346L0.466 0.686L2.386 0.686L2.331 1.006L0.759 1.006L0.622 1.819L2.094 1.819L2.039 2.13L0.567 2.13L0.402 3.035L2.039 3.035L1.984 3.346ZM1.993 0L1.509 0.512L1.234 0.512L1.563 0L1.993 0Z" fill="rgb(0,0,0)" fill-opacity="1.000" fill-rule="nonzero" transform="matrix(1 0 0 1 36.2534 45.5799)"/><path d="M1.885 0.832C1.903 0.658 1.867 0.53 1.766 0.448C1.675 0.357 1.529 0.32 1.327 0.32C1.145 0.32 0.998 0.347 0.87 0.421C0.742 0.485 0.669 0.585 0.642 0.713C0.623 0.832 0.651 0.914 0.733 0.969C0.806 1.024 0.971 1.088 1.209 1.143C1.419 1.189 1.593 1.234 1.721 1.289C1.849 1.344 1.958 1.417 2.041 1.527C2.114 1.637 2.141 1.774 2.114 1.957C2.068 2.185 1.949 2.377 1.739 2.523C1.529 2.679 1.282 2.752 0.989 2.752C0.614 2.752 0.349 2.67 0.185 2.505C0.029 2.341 -0.026 2.121 0.011 1.856L0.349 1.829C0.322 2.039 0.377 2.194 0.514 2.295C0.642 2.386 0.815 2.432 1.026 2.432C1.227 2.432 1.391 2.395 1.529 2.313C1.666 2.231 1.739 2.121 1.766 1.984C1.794 1.838 1.748 1.737 1.629 1.664C1.519 1.6 1.318 1.536 1.026 1.472C0.733 1.408 0.541 1.317 0.422 1.198C0.313 1.079 0.276 0.923 0.303 0.741C0.349 0.53 0.459 0.347 0.651 0.21C0.843 0.073 1.081 0 1.373 0C1.666 0 1.894 0.073 2.05 0.21C2.205 0.347 2.26 0.549 2.233 0.805L1.885 0.832Z" fill="rgb(0,0,0)" fill-opacity="1.000" fill-rule="nonzero" transform="matrix(1 0 0 1 39.7817 46.2198)"/><path d="M0.347 2.661L0 2.661L0.466 0L0.814 0L0.347 2.661Z" fill="rgb(0,0,0)" fill-opacity="1.000" fill-rule="nonzero" transform="matrix(1 0 0 1 42.2962 46.266)"/><path d="M2.533 2.661L2.203 2.661L2.587 0.439L1.426 2.661L1.115 2.661L0.741 0.402L0.731 0.402L0.338 2.661L0 2.661L0.466 0L0.997 0L1.298 1.883C1.326 2.094 1.344 2.231 1.353 2.277C1.408 2.176 1.481 2.039 1.573 1.856L2.533 0L2.999 0L2.533 2.661Z" fill="rgb(0,0,0)" fill-opacity="1.000" fill-rule="nonzero" transform="matrix(1 0 0 1 43.265 46.266)"/><path d="M0.466 0L1.463 0C1.627 0 1.765 0.009 1.874 0.027C1.984 0.037 2.085 0.082 2.167 0.146C2.258 0.21 2.313 0.302 2.35 0.411C2.377 0.53 2.377 0.649 2.359 0.768C2.313 1.015 2.203 1.216 2.021 1.362C1.838 1.509 1.563 1.582 1.216 1.582L0.539 1.582L0.347 2.661L0 2.661L0.466 0ZM0.594 1.271L1.28 1.271C1.701 1.271 1.938 1.106 1.993 0.786C2.011 0.677 2.002 0.585 1.957 0.503C1.92 0.421 1.865 0.366 1.783 0.347C1.71 0.329 1.591 0.32 1.435 0.32L0.759 0.32L0.594 1.271Z" fill="rgb(0,0,0)" fill-opacity="1.000" fill-rule="nonzero" transform="matrix(1 0 0 1 46.3738 46.266)"/><path d="M1.664 2.661L0 2.661L0.466 0L0.823 0L0.411 2.35L1.728 2.35L1.664 2.661Z" fill="rgb(0,0,0)" fill-opacity="1.000" fill-rule="nonzero" transform="matrix(1 0 0 1 48.8434 46.266)"/><path d="M1.993 2.661L0 2.661L0.466 0L2.395 0L2.341 0.32L0.768 0.32L0.622 1.134L2.094 1.134L2.039 1.445L0.567 1.445L0.411 2.35L2.048 2.35L1.993 2.661Z" fill="rgb(0,0,0)" fill-opacity="1.000" fill-rule="nonzero" transform="matrix(1 0 0 1 50.9259 46.266)"/><path d="M1.893 0.832C1.903 0.658 1.866 0.53 1.775 0.448C1.683 0.357 1.537 0.32 1.336 0.32C1.153 0.32 0.997 0.347 0.869 0.421C0.741 0.485 0.668 0.585 0.65 0.713C0.632 0.832 0.659 0.914 0.732 0.969C0.815 1.024 0.97 1.088 1.208 1.143C1.418 1.189 1.592 1.234 1.72 1.289C1.857 1.344 1.957 1.417 2.04 1.527C2.122 1.637 2.14 1.774 2.113 1.957C2.076 2.185 1.948 2.377 1.738 2.523C1.528 2.679 1.281 2.752 0.988 2.752C0.613 2.752 0.348 2.67 0.193 2.505C0.037 2.341 -0.027 2.121 0.01 1.856L0.348 1.829C0.33 2.039 0.385 2.194 0.513 2.295C0.65 2.386 0.815 2.432 1.025 2.432C1.226 2.432 1.391 2.395 1.528 2.313C1.665 2.231 1.747 2.121 1.765 1.984C1.793 1.838 1.747 1.737 1.637 1.664C1.519 1.6 1.317 1.536 1.025 1.472C0.741 1.408 0.54 1.317 0.431 1.198C0.321 1.079 0.275 0.923 0.312 0.741C0.348 0.53 0.458 0.347 0.65 0.21C0.842 0.073 1.089 0 1.372 0C1.665 0 1.893 0.073 2.049 0.21C2.204 0.347 2.268 0.549 2.232 0.805L1.893 0.832Z" fill="rgb(0,0,0)" fill-opacity="1.000" fill-rule="nonzero" transform="matrix(1 0 0 1 53.4229 46.2198)"/><path d="M0.375 0.366L0 0.366L0.064 0L0.439 0L0.375 0.366Z" fill="rgb(0,0,0)" fill-opacity="1.000" fill-rule="nonzero" transform="matrix(1 0 0 1 55.9299 48.5607)"/><path d="M1.993 3.346L0 3.346L0.466 0.686L2.395 0.686L2.341 1.006L0.759 1.006L0.622 1.819L2.094 1.819L2.039 2.13L0.567 2.13L0.411 3.035L2.048 3.035L1.993 3.346ZM2.002 0L1.509 0.512L1.234 0.512L1.573 0L2.002 0Z" fill="rgb(0,0,0)" fill-opacity="1.000" fill-rule="nonzero" transform="matrix(1 0 0 1 57.9575 45.5799)"/><path d="M0.466 0L1.463 0C1.627 0 1.755 0.009 1.874 0.027C1.984 0.037 2.085 0.082 2.167 0.146C2.258 0.21 2.313 0.302 2.341 0.411C2.377 0.53 2.377 0.649 2.359 0.768C2.313 1.015 2.203 1.216 2.021 1.362C1.838 1.509 1.563 1.582 1.216 1.582L0.539 1.582L0.347 2.661L0 2.661L0.466 0ZM0.594 1.271L1.28 1.271C1.701 1.271 1.938 1.106 1.993 0.786C2.011 0.677 2.002 0.585 1.957 0.503C1.92 0.421 1.856 0.366 1.783 0.347C1.71 0.329 1.591 0.32 1.435 0.32L0.759 0.32L0.594 1.271Z" fill="rgb(0,0,0)" fill-opacity="1.000" fill-rule="nonzero" transform="matrix(1 0 0 1 61.4683 46.266)"/><path d="M2.35 2.661L1.902 2.661C1.71 2.24 1.591 1.984 1.545 1.893C1.499 1.792 1.445 1.71 1.39 1.646C1.326 1.582 1.271 1.536 1.207 1.518C1.152 1.499 1.07 1.49 0.969 1.49L0.558 1.49L0.357 2.661L0 2.661L0.466 0L1.646 0C1.81 0 1.938 0.009 2.048 0.027C2.149 0.055 2.24 0.091 2.313 0.165C2.377 0.229 2.432 0.311 2.459 0.411C2.487 0.512 2.487 0.622 2.469 0.731C2.432 0.933 2.341 1.088 2.194 1.216C2.039 1.335 1.847 1.417 1.591 1.445L1.591 1.454C1.755 1.536 1.893 1.691 2.011 1.938L2.35 2.661ZM0.613 1.17L1.371 1.17C1.527 1.17 1.646 1.161 1.737 1.134C1.838 1.106 1.911 1.061 1.975 0.978C2.048 0.905 2.085 0.823 2.103 0.731C2.121 0.613 2.103 0.503 2.021 0.421C1.947 0.338 1.81 0.293 1.609 0.293L0.768 0.293L0.613 1.17Z" fill="rgb(0,0,0)" fill-opacity="1.000" fill-rule="nonzero" transform="matrix(1 0 0 1 63.9553 46.266)"/><path d="M2.487 2.661L2.094 2.661L1.92 1.856L0.805 1.856L0.375 2.661L0 2.661L1.49 0L1.865 0L2.487 2.661ZM1.865 1.573C1.746 0.997 1.682 0.667 1.664 0.594C1.655 0.512 1.637 0.411 1.627 0.274L1.618 0.274C1.554 0.457 1.481 0.622 1.399 0.777L0.96 1.573L1.865 1.573Z" fill="rgb(0,0,0)" fill-opacity="1.000" fill-rule="nonzero" transform="matrix(1 0 0 1 66.3424 46.266)"/><path d="M2.432 0L0.923 2.661L0.567 2.661L0 0L0.375 0L0.731 1.938C0.759 2.057 0.786 2.203 0.795 2.368L0.805 2.368C0.859 2.231 0.933 2.085 1.015 1.938L2.075 0L2.432 0Z" fill="rgb(0,0,0)" fill-opacity="1.000" fill-rule="nonzero" transform="matrix(1 0 0 1 70.1454 46.266)"/><path d="M1.547 0C1.922 0 2.205 0.128 2.397 0.384C2.589 0.631 2.653 0.969 2.58 1.381C2.507 1.792 2.333 2.13 2.05 2.377C1.767 2.633 1.437 2.752 1.072 2.752C0.688 2.752 0.395 2.624 0.212 2.368C0.02 2.103 -0.044 1.783 0.029 1.408C0.103 0.969 0.285 0.631 0.56 0.375C0.843 0.128 1.172 0 1.547 0ZM1.117 2.45C1.392 2.45 1.62 2.359 1.821 2.167C2.023 1.984 2.151 1.719 2.215 1.381C2.279 1.033 2.233 0.768 2.096 0.585C1.959 0.393 1.757 0.302 1.501 0.302C1.236 0.302 0.999 0.393 0.797 0.576C0.587 0.759 0.459 1.042 0.386 1.417C0.34 1.728 0.377 1.975 0.514 2.167C0.651 2.359 0.852 2.45 1.117 2.45Z" fill="rgb(0,0,0)" fill-opacity="1.000" fill-rule="nonzero" transform="matrix(1 0 0 1 72.5126 46.2198)"/><path d="M2.292 1.865C2.164 2.167 1.991 2.386 1.771 2.533C1.552 2.679 1.305 2.752 1.04 2.752C0.601 2.752 0.308 2.615 0.162 2.35C0.007 2.075 -0.039 1.746 0.034 1.362C0.107 0.933 0.281 0.603 0.555 0.366C0.829 0.119 1.159 0 1.524 0C1.78 0 1.991 0.064 2.155 0.201C2.311 0.329 2.411 0.521 2.439 0.777L2.082 0.859C2.055 0.677 1.991 0.539 1.89 0.439C1.789 0.347 1.643 0.302 1.469 0.302C1.177 0.302 0.939 0.402 0.756 0.585C0.573 0.777 0.455 1.033 0.4 1.353C0.336 1.728 0.363 2.002 0.491 2.185C0.619 2.359 0.802 2.45 1.058 2.45C1.268 2.45 1.451 2.395 1.597 2.286C1.744 2.176 1.872 2.002 1.963 1.774L2.292 1.865Z" fill="rgb(0,0,0)" fill-opacity="1.000" fill-rule="nonzero" transform="matrix(1 0 0 1 75.4241 46.2198)"/><path d="M1.993 3.346L0 3.346L0.466 0.686L2.395 0.686L2.341 1.006L0.768 1.006L0.622 1.819L2.094 1.819L2.039 2.13L0.567 2.13L0.411 3.035L2.048 3.035L1.993 3.346ZM2.048 0.512L1.682 0.512L1.536 0.201L1.271 0.512L0.905 0.512L1.39 0L1.737 0L2.048 0.512Z" fill="rgb(0,0,0)" fill-opacity="1.000" fill-rule="nonzero" transform="matrix(1 0 0 1 78.0085 45.5799)"/><path d="M0.366 0.366L0 0.366L0.064 0L0.43 0L0.366 0.366Z" fill="rgb(0,0,0)" fill-opacity="1.000" fill-rule="nonzero" transform="matrix(1 0 0 1 80.533 48.5607)"/><path d="M0.741 2.379C0.311 2.361 0.064 2.041 0 1.419C0.009 0.642 0.457 0.222 1.335 0.13C4.946 -0.043 9.307 -0.043 14.418 0.13C19.291 0.277 22.948 0.469 25.371 0.697C35.638 1.392 45.759 2.754 55.743 4.784C62.189 6.128 67.491 7.746 71.642 9.639C76.579 11.559 80.108 13.744 82.23 16.203C83.784 18.269 84.086 20.519 83.126 22.932C81.151 26.269 78.362 28.701 74.778 30.219C66.129 34.333 61.156 35.577 59.866 33.949C59.318 33.501 58.943 32.605 58.742 31.279C58.047 28.902 56.621 26.653 54.491 24.55C48.575 17.968 35.529 11.76 15.36 5.945C9.636 4.4 4.763 3.211 0.741 2.379Z" fill="rgb(0,60,58)" fill-opacity="1.000" fill-rule="evenodd" transform="matrix(1 0 0 1 31.3268 11)"/></svg>