<svg xmlns="http://www.w3.org/2000/svg" viewBox="0 0 60 60" width="60" height="60"><path d="M0 0L60 0L60 60L0 60L0 0Z" fill="rgb(255,255,255)" fill-opacity="1.000" fill-rule="nonzero" transform="matrix(1 0 0 1 0 0)"/><path d="M0.407 1.305C0.171 1.295 0.035 1.12 0 0.779C0.005 0.352 0.251 0.122 0.734 0.071C2.719 -0.024 5.117 -0.024 7.926 0.071C10.605 0.152 12.616 0.257 13.948 0.382C19.592 0.763 25.156 1.511 30.645 2.624C34.188 3.361 37.104 4.249 39.386 5.287C42.1 6.34 44.04 7.538 45.206 8.887C46.06 10.02 46.226 11.254 45.699 12.578C44.613 14.408 43.08 15.742 41.11 16.575C36.355 18.831 33.621 19.513 32.912 18.621C32.61 18.375 32.404 17.883 32.294 17.156C31.912 15.852 31.127 14.619 29.956 13.465C26.704 9.855 19.532 6.45 8.444 3.261C5.298 2.413 2.619 1.761 0.407 1.305Z" fill="rgb(0,60,58)" fill-opacity="1.000" fill-rule="evenodd" transform="matrix(1 0 0 1 5 20)"/></svg>