<svg xmlns="http://www.w3.org/2000/svg" viewBox="0 0 130 60" width="130" height="60"><defs><linearGradient id="g127" gradientUnits="userSpaceOnUse" x1="0.55" y1="29.79" x2="130.95" y2="103.01"><stop offset="0.0%" stop-color="rgb(235,84,94)" stop-opacity="1.000"/><stop offset="50.0%" stop-color="rgb(255,85,85)" stop-opacity="1.000"/><stop offset="100.0%" stop-color="rgb(255,152,95)" stop-opacity="1.000"/></linearGradient></defs><path d="M0 0L130 0L130 60L0 60L0 0Z" fill="rgb(255,255,255)" fill-opacity="1.000" fill-rule="nonzero" transform="matrix(1 0 0 1 0 0)"/><path d="M8 4L24 4C26.209 4 28 5.791 28 8L28 24C28 26.209 26.209 28 24 28L8 28C5.791 28 4 26.209 4 24L4 8C4 5.791 5.791 4 8 4ZM0 8C0 3.582 3.582 0 8 0L24 0C28.418 0 32 3.582 32 8L32 24C32 28.418 28.418 32 24 32L8 32C3.582 32 0 28.418 0 24L0 8ZM23.624 11.628C24.125 11.113 24.125 10.278 23.624 9.763L22.715 8.831C22.213 8.316 21.4 8.316 20.898 8.831L13.333 16.357L13.333 12.401C13.333 11.672 12.758 11.082 12.048 11.082L10.618 11.082C9.909 11.082 9.333 11.672 9.333 12.401L9.333 21.133C9.333 21.933 9.803 22.654 10.523 22.961C11.243 23.267 12.072 23.097 12.624 22.532L23.624 11.628ZM43.717 12.118L43.717 11.632C43.717 10.069 44.631 9.199 46.284 9.194C46.945 9.222 47.596 9.376 48.201 9.648C48.286 9.68 48.381 9.678 48.465 9.641C48.549 9.605 48.616 9.538 48.652 9.453L49.554 7.324C49.587 7.242 49.589 7.149 49.559 7.065C49.528 6.981 49.468 6.912 49.389 6.87C48.258 6.299 47.01 6.001 45.745 6C44.098 6 42.727 6.493 41.685 7.433C40.643 8.374 40.133 9.762 40.133 11.554L40.133 12.118L38.352 12.118C38.258 12.118 38.169 12.155 38.103 12.222C38.037 12.288 38 12.378 38 12.472L38 14.782C38 14.876 38.037 14.967 38.103 15.033C38.169 15.099 38.258 15.137 38.352 15.137L40.133 15.137L40.133 25.709C40.133 25.804 40.171 25.895 40.237 25.962C40.304 26.028 40.394 26.066 40.487 26.066L43.363 26.066C43.457 26.066 43.547 26.028 43.613 25.962C43.68 25.895 43.717 25.804 43.717 25.709L43.717 15.137L47.657 15.137C47.703 15.137 47.749 15.128 47.792 15.111C47.835 15.093 47.874 15.067 47.907 15.034C47.94 15.001 47.966 14.962 47.984 14.919C48.002 14.875 48.011 14.829 48.011 14.782L48.011 12.472C48.011 12.425 48.002 12.379 47.984 12.336C47.966 12.293 47.94 12.254 47.907 12.221C47.874 12.188 47.835 12.162 47.792 12.144C47.749 12.126 47.703 12.117 47.657 12.118L43.717 12.118ZM49.89 12.472L49.89 25.709C49.888 25.757 49.896 25.805 49.913 25.849C49.931 25.894 49.956 25.935 49.989 25.969C50.022 26.003 50.062 26.031 50.106 26.049C50.149 26.068 50.196 26.077 50.244 26.077L53.115 26.077C53.209 26.077 53.299 26.04 53.365 25.973C53.431 25.906 53.469 25.815 53.469 25.721L53.469 19.449C53.469 16.557 54.822 15.226 56.852 15.226C57.276 15.232 57.699 15.289 58.11 15.396C58.159 15.408 58.21 15.409 58.26 15.399C58.309 15.389 58.356 15.369 58.397 15.339C58.438 15.309 58.472 15.271 58.497 15.227C58.522 15.182 58.537 15.133 58.541 15.082L58.785 12.333C58.792 12.253 58.772 12.173 58.728 12.105C58.684 12.037 58.619 11.987 58.543 11.961C58.086 11.815 57.611 11.738 57.131 11.734C55.429 11.734 54.159 12.474 53.32 13.985L53.32 12.472C53.32 12.378 53.283 12.288 53.217 12.222C53.151 12.155 53.062 12.118 52.968 12.118L50.244 12.118C50.197 12.117 50.151 12.126 50.109 12.144C50.066 12.162 50.027 12.188 49.993 12.221C49.961 12.254 49.934 12.293 49.917 12.336C49.899 12.379 49.89 12.425 49.89 12.472ZM60.866 9.916C60.463 9.493 60.237 8.929 60.237 8.342C60.237 7.755 60.463 7.191 60.866 6.768C61.292 6.359 61.857 6.131 62.445 6.131C63.033 6.131 63.599 6.359 64.024 6.768C64.428 7.191 64.653 7.755 64.653 8.342C64.653 8.929 64.428 9.493 64.024 9.916C63.599 10.325 63.033 10.553 62.445 10.553C61.857 10.553 61.292 10.325 60.866 9.916ZM63.866 26.066L60.99 26.066C60.896 26.066 60.807 26.028 60.74 25.962C60.674 25.895 60.636 25.804 60.636 25.709L60.636 12.472C60.636 12.425 60.645 12.379 60.663 12.336C60.681 12.293 60.707 12.254 60.74 12.221C60.773 12.188 60.812 12.162 60.855 12.144C60.898 12.126 60.944 12.117 60.99 12.118L63.866 12.118C63.913 12.117 63.96 12.125 64.003 12.142C64.047 12.159 64.087 12.185 64.121 12.218C64.154 12.251 64.181 12.291 64.199 12.334C64.218 12.378 64.227 12.425 64.227 12.472L64.227 25.709C64.227 25.757 64.218 25.804 64.199 25.847C64.181 25.891 64.154 25.931 64.121 25.964C64.087 25.997 64.047 26.023 64.003 26.041C63.96 26.058 63.913 26.067 63.866 26.066ZM80.992 6.613L78.114 6.613C78.022 6.616 77.935 6.654 77.871 6.721C77.806 6.788 77.771 6.877 77.771 6.97L77.771 13.717C76.628 12.413 75.229 11.748 73.552 11.748C72.633 11.726 71.721 11.902 70.875 12.264C70.029 12.625 69.27 13.165 68.649 13.847C67.352 15.257 66.691 16.972 66.691 19.071C66.691 21.17 67.352 22.911 68.649 24.319C69.275 24.994 70.035 25.527 70.88 25.884C71.725 26.242 72.635 26.414 73.552 26.391C74.375 26.407 75.189 26.23 75.933 25.875C76.676 25.521 77.328 24.997 77.837 24.346L77.837 25.709C77.837 25.804 77.874 25.895 77.941 25.962C78.007 26.028 78.097 26.066 78.191 26.066L80.992 26.066C81.038 26.066 81.084 26.057 81.127 26.039C81.17 26.021 81.209 25.995 81.242 25.962C81.274 25.928 81.3 25.889 81.318 25.846C81.335 25.802 81.344 25.756 81.343 25.709L81.343 6.97C81.344 6.923 81.335 6.877 81.318 6.834C81.3 6.79 81.274 6.751 81.242 6.718C81.209 6.685 81.17 6.659 81.127 6.641C81.084 6.623 81.038 6.613 80.992 6.613ZM75.617 15.337C76.096 15.541 76.524 15.849 76.871 16.239C77.584 17.007 77.968 18.027 77.938 19.078C77.968 20.145 77.585 21.181 76.871 21.97C76.519 22.351 76.089 22.651 75.611 22.849C75.133 23.048 74.619 23.141 74.102 23.122C73.582 23.139 73.065 23.045 72.583 22.847C72.101 22.648 71.667 22.349 71.308 21.97C70.594 21.181 70.211 20.145 70.241 19.078C70.212 18.027 70.595 17.007 71.308 16.239C71.661 15.851 72.094 15.544 72.577 15.341C73.059 15.137 73.579 15.041 74.102 15.06C74.621 15.039 75.139 15.134 75.617 15.337ZM96.335 17.774L96.335 25.709C96.335 25.804 96.298 25.895 96.231 25.962C96.165 26.028 96.074 26.066 95.98 26.066L93.434 26.066C93.388 26.066 93.342 26.057 93.3 26.039C93.257 26.021 93.218 25.995 93.185 25.962C93.152 25.928 93.127 25.889 93.109 25.846C93.091 25.802 93.082 25.756 93.083 25.709L93.083 24.53C92.041 25.784 90.566 26.425 88.66 26.425C87.111 26.425 85.891 25.989 85.002 25.144C84.567 24.732 84.224 24.232 83.996 23.676C83.768 23.12 83.661 22.521 83.68 21.92C83.68 19.078 86.044 17.518 89.88 17.493C91.863 17.415 92.904 17.39 92.979 17.39C92.803 15.725 91.761 14.907 89.822 14.907C88.44 14.908 87.078 15.243 85.852 15.884C85.811 15.906 85.765 15.92 85.718 15.924C85.67 15.928 85.623 15.923 85.578 15.908C85.533 15.894 85.491 15.87 85.456 15.839C85.42 15.808 85.391 15.77 85.37 15.727L84.398 13.683C84.361 13.603 84.355 13.513 84.38 13.429C84.406 13.346 84.461 13.274 84.535 13.229C86.192 12.253 88.08 11.745 90 11.759C93.184 11.759 96.335 13.192 96.335 17.774ZM91.811 22.545C92.496 21.897 92.906 21.007 92.954 20.062C92.135 20.138 91.312 20.172 90.489 20.164C88.234 20.191 87.136 20.548 87.136 21.854C87.136 22.879 87.975 23.517 89.271 23.517C90.212 23.533 91.123 23.181 91.811 22.534L91.811 22.545ZM111.656 12.118L108.499 12.118C108.425 12.118 108.352 12.143 108.293 12.187C108.233 12.232 108.188 12.294 108.166 12.365L105.11 21.205L101.616 12.345C101.59 12.278 101.545 12.221 101.486 12.181C101.427 12.14 101.358 12.118 101.287 12.118L97.927 12.118C97.868 12.118 97.81 12.132 97.759 12.16C97.707 12.188 97.663 12.229 97.631 12.278C97.599 12.328 97.58 12.385 97.575 12.443C97.571 12.502 97.58 12.561 97.604 12.615L103.421 25.918L103.141 26.559C102.453 28.017 101.573 28.76 100.446 28.76C99.968 28.75 99.496 28.651 99.054 28.47C99.007 28.451 98.955 28.443 98.904 28.446C98.854 28.449 98.804 28.464 98.759 28.488C98.714 28.512 98.675 28.546 98.644 28.587C98.613 28.629 98.591 28.676 98.581 28.726L98.109 31.066C98.093 31.14 98.101 31.217 98.132 31.286C98.163 31.354 98.215 31.411 98.281 31.448C99.04 31.835 99.884 32.024 100.735 31.997C103.472 31.997 105.245 30.307 106.598 26.75L111.979 12.592C111.998 12.54 112.004 12.483 111.997 12.427C111.99 12.372 111.97 12.318 111.938 12.272C111.907 12.226 111.865 12.187 111.816 12.16C111.767 12.134 111.712 12.119 111.656 12.118Z" fill="url(#g127)" fill-rule="evenodd" transform="matrix(1 0 0 1 9 14)"/></svg>