<svg xmlns="http://www.w3.org/2000/svg" viewBox="0 0 60 60" width="60" height="60"><defs><linearGradient id="g125" gradientUnits="userSpaceOnUse" x1="0.26" y1="29.79" x2="17.45" y2="50.71"><stop offset="0.0%" stop-color="rgb(235,84,94)" stop-opacity="1.000"/><stop offset="50.0%" stop-color="rgb(255,85,85)" stop-opacity="1.000"/><stop offset="100.0%" stop-color="rgb(255,152,95)" stop-opacity="1.000"/></linearGradient></defs><path d="M0 0L60 0L60 60L0 60L0 0Z" fill="rgb(0,37,224)" fill-opacity="1.000" fill-rule="nonzero" transform="matrix(1 0 0 1 0 0)"/><path d="M0 19C0 8.507 8.507 0 19 0L57 0C67.493 0 76 8.507 76 19L76 57C76 67.493 67.493 76 57 76L19 76C8.507 76 0 67.493 0 57L0 19Z" fill="url(#g125)" fill-rule="evenodd" transform="matrix(1 0 0 1 -8 -8)"/><path d="M8 4L24 4C26.209 4 28 5.791 28 8L28 24C28 26.209 26.209 28 24 28L8 28C5.791 28 4 26.209 4 24L4 8C4 5.791 5.791 4 8 4ZM0 8C0 3.582 3.582 0 8 0L24 0C28.418 0 32 3.582 32 8L32 24C32 28.418 28.418 32 24 32L8 32C3.582 32 0 28.418 0 24L0 8ZM23.624 11.628C24.125 11.113 24.125 10.278 23.624 9.763L22.715 8.831C22.213 8.316 21.4 8.316 20.898 8.831L13.333 16.357L13.333 12.401C13.333 11.672 12.758 11.082 12.048 11.082L10.618 11.082C9.909 11.082 9.333 11.672 9.333 12.401L9.333 21.133C9.333 21.933 9.803 22.654 10.523 22.961C11.243 23.267 12.072 23.097 12.624 22.532L23.624 11.628Z" fill="rgb(255,255,255)" fill-opacity="1.000" fill-rule="evenodd" transform="matrix(1 0 0 1 14 14)"/></svg>