<svg xmlns="http://www.w3.org/2000/svg" viewBox="0 0 130 60" width="130" height="60"><path d="M0 0L130 0L130 60L0 60L0 0Z" fill="rgb(255,255,255)" fill-opacity="1.000" fill-rule="nonzero" transform="matrix(1 0 0 1 0 0)"/><path d="M7.647 20.951C8.489 20.951 9.149 21.621 9.149 22.475C9.149 23.331 8.489 24 7.647 24C4.937 24 2.732 21.75 2.732 18.984L2.732 16.877L1.501 16.877C0.659 16.877 0 16.207 0 15.352C0 14.497 0.659 13.828 1.501 13.828L2.732 13.828L2.732 1.525C2.732 0.669 3.391 0 4.233 0C5.075 0 5.734 0.669 5.734 1.525L5.734 13.828L7.647 13.828C8.489 13.828 9.149 14.497 9.149 15.352C9.149 16.207 8.489 16.877 7.647 16.877L5.734 16.877L5.734 18.984C5.734 20.087 6.574 20.951 7.647 20.951Z" fill="rgb(0,60,114)" fill-opacity="1.000" fill-rule="nonzero" transform="matrix(1 0 0 -1 25.4147 44.0232)"/><path d="M8.33 23.853L4.915 23.853C2.205 23.853 0 21.603 0 18.837L0 12.132C0 9.367 2.205 7.116 4.915 7.116L6.829 7.116L6.829 5.01C6.829 4.195 6.368 3.477 5.655 3.179C4.926 2.875 4.132 3.036 3.583 3.597C3.287 3.9 2.919 4.055 2.491 4.055C2.099 4.055 1.738 3.902 1.448 3.612C1.152 3.352 0.99 2.981 0.99 2.565C0.99 2.135 1.14 1.764 1.442 1.454C2.425 0.501 3.668 0 4.932 0C5.561 0 6.196 0.124 6.806 0.378C8.644 1.146 9.831 2.963 9.831 5.01L9.831 22.328C9.831 23.184 9.172 23.853 8.33 23.853ZM6.829 20.804L6.829 10.165L4.915 10.165C3.843 10.165 3.002 11.029 3.002 12.132L3.002 18.837C3.002 19.94 3.843 20.804 4.915 20.804L6.829 20.804Z" fill="rgb(0,60,114)" fill-opacity="1.000" fill-rule="nonzero" transform="matrix(1 0 0 -1 34.9083 50.9997)"/><path d="M7.306 4.055C6.907 4.055 6.541 3.896 6.248 3.597C5.7 3.036 4.906 2.875 4.177 3.179C3.463 3.477 3.002 4.195 3.002 5.01L3.002 11.993C3.002 12.807 3.463 13.525 4.177 13.822C4.921 14.133 5.692 13.967 6.239 13.379C6.252 13.365 6.265 13.353 6.28 13.341C6.582 13.084 6.936 12.948 7.306 12.948C7.703 12.948 8.06 13.08 8.366 13.341C8.388 13.36 8.408 13.38 8.427 13.403C8.679 13.712 8.807 14.061 8.807 14.437C8.807 14.843 8.682 15.193 8.427 15.506C8.415 15.521 8.402 15.535 8.389 15.547C6.916 16.977 4.86 17.389 3.024 16.623C1.187 15.856 0 14.039 0 11.993L0 5.01C0 2.964 1.187 1.146 3.024 0.379C3.635 0.124 4.27 0 4.9 0C6.163 0 7.405 0.501 8.389 1.455C8.402 1.467 8.415 1.481 8.427 1.495C8.679 1.806 8.807 2.153 8.807 2.53C8.807 2.955 8.665 3.323 8.398 3.597C8.101 3.901 7.733 4.055 7.306 4.055Z" fill="rgb(0,60,114)" fill-opacity="1.000" fill-rule="nonzero" transform="matrix(1 0 0 -1 46.3139 44.0164)"/><path d="M0.939 0C0.896 0 0.852 0.003 0.808 0.009C0.295 0.081 -0.063 0.555 0.009 1.068C1.85 14.243 13.286 24.179 26.611 24.179C30.699 24.179 34.625 23.284 38.28 21.518C40.164 20.608 41.944 19.474 43.57 18.149C43.972 17.822 44.032 17.231 43.705 16.83C43.378 16.428 42.787 16.368 42.386 16.695C40.872 17.929 39.216 18.983 37.464 19.83C34.065 21.471 30.414 22.303 26.611 22.303C14.217 22.303 3.579 13.063 1.866 0.808C1.801 0.339 1.399 0 0.939 0Z" fill="rgb(186,158,22)" fill-opacity="1.000" fill-rule="nonzero" transform="matrix(1 0 0 -1 16 34.1791)"/><path d="M26.548 0C26.097 0 25.698 0.327 25.623 0.787C24.014 10.654 15.577 17.815 5.562 17.815C4.071 17.815 2.584 17.653 1.14 17.333C0.634 17.221 0.134 17.54 0.022 18.046C-0.09 18.551 0.229 19.052 0.734 19.164C2.31 19.513 3.934 19.691 5.562 19.691C16.501 19.691 25.716 11.867 27.475 1.089C27.558 0.578 27.212 0.096 26.7 0.012C26.649 0.004 26.598 0 26.548 0Z" fill="rgb(102,133,57)" fill-opacity="1.000" fill-rule="nonzero" transform="matrix(1 0 0 -1 37.0495 34.1791)"/><path d="M0 0.228L0 5.521C0 5.595 0.029 5.652 0.09 5.695C0.15 5.737 0.221 5.758 0.299 5.758L3.072 5.758C3.145 5.758 3.202 5.729 3.242 5.671C3.281 5.614 3.3 5.545 3.3 5.467C3.3 5.377 3.281 5.303 3.242 5.246C3.202 5.188 3.145 5.159 3.072 5.159L0.661 5.159L0.661 3.158L1.89 3.158C1.964 3.158 2.02 3.131 2.06 3.076C2.099 3.021 2.119 2.953 2.119 2.875C2.119 2.806 2.099 2.745 2.06 2.69C2.02 2.635 1.964 2.607 1.89 2.607L0.661 2.607L0.661 0.228C0.661 0.154 0.629 0.098 0.563 0.059C0.497 0.02 0.42 0 0.331 0C0.241 0 0.163 0.02 0.098 0.059C0.033 0.098 0 0.154 0 0.228Z" fill="rgb(0,60,114)" fill-opacity="1.000" fill-rule="nonzero" transform="matrix(1 0 0 -1 62.6794 43.8099)"/><path d="M0 1.513L0 3.561C0 3.623 0.033 3.679 0.098 3.726C0.164 3.773 0.242 3.797 0.331 3.797C0.415 3.797 0.49 3.772 0.555 3.723C0.621 3.673 0.654 3.619 0.654 3.561L0.654 1.518C0.654 1.282 0.743 1.071 0.922 0.882C1.1 0.693 1.313 0.599 1.56 0.599C1.801 0.599 2.011 0.692 2.19 0.878C2.369 1.064 2.458 1.278 2.458 1.518L2.458 3.569C2.458 3.627 2.49 3.679 2.556 3.726C2.622 3.773 2.699 3.797 2.788 3.797C2.883 3.797 2.96 3.774 3.021 3.73C3.081 3.685 3.111 3.632 3.111 3.569L3.111 1.513C3.111 1.108 2.958 0.755 2.651 0.453C2.343 0.151 1.98 0 1.56 0C1.135 0 0.768 0.151 0.46 0.453C0.154 0.755 0 1.108 0 1.513Z" fill="rgb(0,60,114)" fill-opacity="1.000" fill-rule="nonzero" transform="matrix(1 0 0 -1 65.6731 43.8734)"/><path d="M0 0.236L0 3.505C0 3.574 0.03 3.629 0.091 3.671C0.151 3.713 0.229 3.733 0.323 3.733C0.402 3.733 0.471 3.711 0.532 3.666C0.592 3.621 0.622 3.566 0.622 3.502L0.622 3.175C0.706 3.345 0.842 3.488 1.028 3.605C1.214 3.723 1.431 3.781 1.678 3.781C2.051 3.781 2.375 3.632 2.651 3.336C2.926 3.039 3.064 2.683 3.064 2.269L3.064 0.236C3.064 0.163 3.031 0.105 2.966 0.063C2.9 0.021 2.822 0 2.733 0C2.649 0 2.574 0.021 2.509 0.063C2.443 0.105 2.41 0.163 2.41 0.236L2.41 2.263C2.41 2.499 2.321 2.711 2.142 2.899C1.964 3.088 1.754 3.182 1.512 3.182C1.286 3.182 1.088 3.097 0.913 2.927C0.741 2.757 0.654 2.535 0.654 2.263L0.654 0.236C0.654 0.178 0.62 0.124 0.551 0.074C0.483 0.025 0.406 0 0.323 0C0.234 0 0.158 0.024 0.095 0.071C0.031 0.118 0 0.174 0 0.236Z" fill="rgb(0,60,114)" fill-opacity="1.000" fill-rule="nonzero" transform="matrix(1 0 0 -1 69.6844 43.8102)"/><path d="M0 1.528L0 2.332C0 2.746 0.139 3.102 0.418 3.399C0.696 3.695 1.027 3.844 1.411 3.844C1.646 3.844 1.854 3.785 2.032 3.668C2.211 3.551 2.348 3.408 2.442 3.237L2.442 5.813C2.442 5.881 2.474 5.936 2.537 5.978C2.6 6.021 2.679 6.041 2.773 6.041C2.867 6.041 2.945 6.021 3.005 5.978C3.066 5.937 3.096 5.881 3.096 5.813L3.096 0.299C3.096 0.236 3.065 0.181 3.002 0.134C2.939 0.086 2.862 0.063 2.773 0.063C2.694 0.063 2.625 0.087 2.565 0.135C2.504 0.182 2.474 0.238 2.474 0.303L2.474 0.622C2.384 0.452 2.24 0.305 2.041 0.183C1.841 0.061 1.623 0 1.387 0C1.019 0 0.696 0.155 0.418 0.465C0.139 0.775 0 1.129 0 1.528ZM0.654 1.53C0.654 1.29 0.743 1.075 0.922 0.884C1.101 0.694 1.308 0.598 1.545 0.598C1.776 0.598 1.983 0.686 2.166 0.861C2.35 1.036 2.442 1.189 2.442 1.319L2.442 2.329C2.442 2.601 2.353 2.821 2.175 2.991C1.996 3.16 1.789 3.245 1.552 3.245C1.311 3.245 1.101 3.151 0.922 2.964C0.743 2.776 0.654 2.564 0.654 2.329L0.654 1.53Z" fill="rgb(0,60,114)" fill-opacity="1.000" fill-rule="nonzero" transform="matrix(1 0 0 -1 73.5035 43.873)"/><path d="M0 1.528L0 2.332C0 2.736 0.154 3.089 0.461 3.391C0.768 3.692 1.132 3.844 1.552 3.844C1.972 3.844 2.337 3.695 2.647 3.395C2.956 3.095 3.112 2.742 3.112 2.332L3.112 1.528C3.112 1.129 2.955 0.775 2.642 0.465C2.33 0.155 1.967 0 1.552 0C1.137 0 0.775 0.154 0.465 0.46C0.155 0.768 0 1.123 0 1.528ZM0.654 1.53C0.654 1.285 0.743 1.068 0.922 0.881C1.1 0.693 1.31 0.598 1.552 0.598C1.799 0.598 2.011 0.694 2.19 0.884C2.369 1.075 2.458 1.29 2.458 1.53L2.458 2.329C2.458 2.564 2.369 2.776 2.19 2.964C2.011 3.151 1.799 3.245 1.552 3.245C1.305 3.245 1.094 3.151 0.918 2.964C0.742 2.776 0.654 2.564 0.654 2.329L0.654 1.53Z" fill="rgb(0,60,114)" fill-opacity="1.000" fill-rule="nonzero" transform="matrix(1 0 0 -1 77.3941 43.873)"/><path d="M0 1.717L0 4.088C0 4.682 0.154 5.116 0.46 5.392C0.768 5.668 1.174 5.806 1.678 5.806C2.192 5.806 2.608 5.676 2.923 5.415C3.237 5.156 3.395 4.816 3.395 4.395C3.395 4.275 3.367 4.191 3.312 4.143C3.257 4.096 3.174 4.073 3.065 4.073C2.849 4.073 2.738 4.149 2.733 4.301C2.665 4.905 2.319 5.207 1.694 5.207C1.006 5.207 0.661 4.834 0.661 4.088L0.661 1.717C0.661 0.971 1.006 0.599 1.694 0.599C2.024 0.599 2.28 0.692 2.461 0.879C2.642 1.065 2.733 1.344 2.733 1.717L2.733 2.521L1.796 2.521C1.722 2.521 1.666 2.548 1.627 2.604C1.588 2.659 1.568 2.723 1.568 2.797C1.568 2.87 1.588 2.934 1.631 2.99C1.672 3.045 1.728 3.072 1.796 3.072L3.166 3.072C3.24 3.072 3.297 3.048 3.336 3.001C3.375 2.954 3.395 2.896 3.395 2.828L3.395 1.717C3.395 1.124 3.24 0.689 2.931 0.414C2.621 0.138 2.208 0 1.694 0C1.178 0 0.768 0.138 0.46 0.414C0.154 0.689 0 1.124 0 1.717Z" fill="rgb(0,60,114)" fill-opacity="1.000" fill-rule="nonzero" transform="matrix(1 0 0 -1 82.9084 43.8576)"/><path d="M0 1.039C0 1.452 0.157 1.739 0.472 1.901C0.787 2.062 1.244 2.143 1.843 2.143L2.221 2.143L2.221 2.309C2.221 2.574 2.149 2.804 2.004 3C1.86 3.195 1.643 3.293 1.354 3.293C1.134 3.293 0.939 3.253 0.771 3.175C0.603 3.096 0.512 3.056 0.496 3.056C0.422 3.056 0.363 3.092 0.318 3.163C0.273 3.234 0.251 3.309 0.251 3.387C0.251 3.508 0.371 3.615 0.61 3.706C0.849 3.798 1.102 3.844 1.37 3.844C1.885 3.844 2.264 3.699 2.508 3.407C2.752 3.116 2.875 2.752 2.875 2.316L2.875 0.3C2.875 0.232 2.844 0.175 2.785 0.13C2.724 0.086 2.647 0.064 2.552 0.064C2.468 0.064 2.397 0.085 2.339 0.128C2.281 0.172 2.252 0.227 2.252 0.294L2.252 0.6C1.895 0.2 1.499 0 1.062 0C0.747 0 0.492 0.089 0.295 0.266C0.098 0.443 0 0.701 0 1.039ZM0.661 1.111C0.661 0.914 0.716 0.765 0.827 0.664C0.937 0.563 1.084 0.512 1.268 0.512C1.489 0.512 1.702 0.601 1.909 0.779C2.117 0.958 2.221 1.14 2.221 1.326L2.221 1.741L1.945 1.741C1.793 1.741 1.661 1.737 1.551 1.729C1.441 1.721 1.327 1.705 1.209 1.681C1.09 1.657 0.993 1.623 0.917 1.577C0.841 1.532 0.779 1.471 0.732 1.394C0.685 1.317 0.661 1.222 0.661 1.111Z" fill="rgb(0,60,114)" fill-opacity="1.000" fill-rule="nonzero" transform="matrix(1 0 0 -1 86.9418 43.8737)"/><path d="M0 0.236L0 3.505C0 3.574 0.03 3.629 0.091 3.671C0.151 3.713 0.229 3.733 0.323 3.733C0.407 3.733 0.478 3.712 0.536 3.67C0.594 3.628 0.622 3.572 0.622 3.503L0.622 3.128C0.717 3.308 0.856 3.462 1.039 3.59C1.224 3.717 1.428 3.781 1.655 3.781L1.922 3.781C1.991 3.781 2.049 3.751 2.099 3.689C2.149 3.628 2.175 3.557 2.175 3.478C2.175 3.398 2.149 3.328 2.099 3.27C2.049 3.212 1.991 3.182 1.922 3.182L1.655 3.182C1.387 3.182 1.152 3.075 0.953 2.86C0.754 2.645 0.654 2.368 0.654 2.028L0.654 0.236C0.654 0.178 0.621 0.124 0.555 0.074C0.49 0.025 0.413 0 0.323 0C0.234 0 0.156 0.024 0.094 0.071C0.031 0.118 0 0.174 0 0.236Z" fill="rgb(0,60,114)" fill-opacity="1.000" fill-rule="nonzero" transform="matrix(1 0 0 -1 90.7141 43.8102)"/><path d="M0 1.039C0 1.452 0.157 1.739 0.473 1.901C0.788 2.062 1.245 2.143 1.843 2.143L2.221 2.143L2.221 2.309C2.221 2.574 2.149 2.804 2.005 3C1.86 3.195 1.644 3.293 1.355 3.293C1.135 3.293 0.94 3.253 0.772 3.175C0.604 3.096 0.512 3.056 0.497 3.056C0.423 3.056 0.363 3.092 0.32 3.163C0.275 3.234 0.252 3.309 0.252 3.387C0.252 3.508 0.372 3.615 0.611 3.706C0.85 3.798 1.103 3.844 1.37 3.844C1.886 3.844 2.265 3.699 2.509 3.407C2.753 3.116 2.875 2.752 2.875 2.316L2.875 0.3C2.875 0.232 2.845 0.175 2.785 0.13C2.724 0.086 2.647 0.064 2.552 0.064C2.468 0.064 2.397 0.085 2.34 0.128C2.282 0.172 2.253 0.227 2.253 0.294L2.253 0.6C1.896 0.2 1.5 0 1.064 0C0.749 0 0.492 0.089 0.296 0.266C0.099 0.443 0 0.701 0 1.039ZM0.662 1.111C0.662 0.914 0.717 0.765 0.827 0.664C0.938 0.563 1.085 0.512 1.269 0.512C1.489 0.512 1.703 0.601 1.911 0.779C2.118 0.958 2.221 1.14 2.221 1.326L2.221 1.741L1.946 1.741C1.793 1.741 1.662 1.737 1.552 1.729C1.442 1.721 1.327 1.705 1.21 1.681C1.091 1.657 0.994 1.623 0.918 1.577C0.842 1.532 0.78 1.471 0.733 1.394C0.686 1.317 0.662 1.222 0.662 1.111Z" fill="rgb(0,60,114)" fill-opacity="1.000" fill-rule="nonzero" transform="matrix(1 0 0 -1 93.1805 43.8737)"/><path d="M0 0.236L0 3.505C0 3.574 0.031 3.629 0.09 3.671C0.151 3.713 0.228 3.733 0.323 3.733C0.402 3.733 0.471 3.711 0.532 3.666C0.592 3.621 0.622 3.566 0.622 3.502L0.622 3.175C0.706 3.345 0.842 3.488 1.028 3.605C1.214 3.723 1.431 3.781 1.678 3.781C2.051 3.781 2.375 3.632 2.651 3.336C2.926 3.039 3.064 2.683 3.064 2.269L3.064 0.236C3.064 0.163 3.031 0.105 2.966 0.063C2.9 0.021 2.822 0 2.733 0C2.649 0 2.575 0.021 2.509 0.063C2.443 0.105 2.411 0.163 2.411 0.236L2.411 2.263C2.411 2.499 2.321 2.711 2.142 2.899C1.964 3.088 1.754 3.182 1.513 3.182C1.287 3.182 1.087 3.097 0.914 2.927C0.74 2.757 0.654 2.535 0.654 2.263L0.654 0.236C0.654 0.178 0.619 0.124 0.551 0.074C0.483 0.025 0.407 0 0.323 0C0.234 0 0.158 0.024 0.095 0.071C0.032 0.118 0 0.174 0 0.236Z" fill="rgb(0,60,114)" fill-opacity="1.000" fill-rule="nonzero" transform="matrix(1 0 0 -1 96.9528 43.8102)"/><path d="M0 1.189L0 5.246C0 5.309 0.034 5.363 0.102 5.407C0.171 5.452 0.245 5.475 0.323 5.475C0.407 5.475 0.484 5.452 0.552 5.407C0.62 5.363 0.654 5.309 0.654 5.246L0.654 3.733L1.646 3.733C1.704 3.733 1.752 3.708 1.789 3.655C1.825 3.602 1.843 3.542 1.843 3.474C1.843 3.406 1.825 3.346 1.789 3.296C1.752 3.246 1.704 3.222 1.646 3.222L0.654 3.222L0.654 1.208C0.654 0.984 0.702 0.827 0.8 0.735C0.897 0.644 1.066 0.598 1.308 0.598L1.552 0.598C1.641 0.598 1.711 0.57 1.761 0.512C1.81 0.455 1.836 0.385 1.836 0.303C1.836 0.221 1.81 0.15 1.756 0.09C1.704 0.03 1.636 0 1.552 0L1.308 0C0.436 0 0 0.397 0 1.189Z" fill="rgb(0,60,114)" fill-opacity="1.000" fill-rule="nonzero" transform="matrix(1 0 0 -1 100.8976 43.8102)"/><path d="M0.122 4.872C0.041 4.948 0 5.036 0 5.136C0 5.236 0.039 5.323 0.118 5.396C0.197 5.469 0.294 5.506 0.41 5.506C0.52 5.506 0.614 5.469 0.693 5.396C0.772 5.323 0.812 5.236 0.812 5.136C0.812 5.036 0.772 4.948 0.693 4.872C0.614 4.796 0.52 4.758 0.41 4.758C0.299 4.758 0.204 4.796 0.122 4.872ZM0.087 0.236L0.087 3.505C0.087 3.574 0.118 3.629 0.182 3.671C0.245 3.713 0.32 3.734 0.41 3.734C0.505 3.734 0.583 3.713 0.646 3.671C0.709 3.629 0.741 3.574 0.741 3.505L0.741 0.236C0.741 0.178 0.708 0.125 0.642 0.075C0.577 0.025 0.499 0 0.41 0C0.32 0 0.245 0.024 0.182 0.071C0.118 0.118 0.087 0.174 0.087 0.236Z" fill="rgb(0,60,114)" fill-opacity="1.000" fill-rule="nonzero" transform="matrix(1 0 0 -1 103.2704 43.8104)"/><path d="M0 1.528L0 2.332C0 2.746 0.139 3.102 0.418 3.399C0.696 3.695 1.027 3.844 1.411 3.844C1.647 3.844 1.854 3.785 2.032 3.668C2.211 3.551 2.348 3.408 2.442 3.237L2.442 5.813C2.442 5.881 2.474 5.936 2.537 5.978C2.6 6.021 2.679 6.041 2.773 6.041C2.868 6.041 2.945 6.021 3.005 5.978C3.066 5.937 3.096 5.881 3.096 5.813L3.096 0.299C3.096 0.236 3.065 0.181 3.002 0.134C2.939 0.086 2.862 0.063 2.773 0.063C2.694 0.063 2.625 0.087 2.565 0.135C2.504 0.182 2.474 0.238 2.474 0.303L2.474 0.622C2.384 0.452 2.24 0.305 2.041 0.183C1.841 0.061 1.623 0 1.387 0C1.019 0 0.696 0.155 0.418 0.465C0.139 0.775 0 1.129 0 1.528ZM0.654 1.53C0.654 1.29 0.743 1.075 0.922 0.884C1.101 0.694 1.308 0.598 1.545 0.598C1.776 0.598 1.983 0.686 2.166 0.861C2.35 1.036 2.442 1.189 2.442 1.319L2.442 2.329C2.442 2.601 2.353 2.821 2.175 2.991C1.996 3.16 1.789 3.245 1.552 3.245C1.311 3.245 1.101 3.151 0.922 2.964C0.743 2.776 0.654 2.564 0.654 2.329L0.654 1.53Z" fill="rgb(0,60,114)" fill-opacity="1.000" fill-rule="nonzero" transform="matrix(1 0 0 -1 104.798 43.873)"/><path d="M0 1.528L0 2.332C0 2.736 0.154 3.089 0.46 3.391C0.768 3.692 1.131 3.844 1.552 3.844C1.972 3.844 2.336 3.695 2.647 3.395C2.956 3.095 3.111 2.742 3.111 2.332L3.111 1.528C3.111 1.129 2.955 0.775 2.643 0.465C2.33 0.155 1.967 0 1.552 0C1.137 0 0.775 0.154 0.465 0.46C0.155 0.768 0 1.123 0 1.528ZM0.654 1.53C0.654 1.285 0.743 1.068 0.922 0.881C1.1 0.693 1.31 0.598 1.552 0.598C1.799 0.598 2.011 0.694 2.19 0.884C2.368 1.075 2.457 1.29 2.457 1.53L2.457 2.329C2.457 2.564 2.368 2.776 2.19 2.964C2.011 3.151 1.799 3.245 1.552 3.245C1.305 3.245 1.093 3.151 0.917 2.964C0.742 2.776 0.654 2.564 0.654 2.329L0.654 1.53Z" fill="rgb(0,60,114)" fill-opacity="1.000" fill-rule="nonzero" transform="matrix(1 0 0 -1 108.6886 43.873)"/><path d="M0 0.236L0 3.505C0 3.574 0.03 3.629 0.09 3.671C0.151 3.713 0.229 3.733 0.323 3.733C0.406 3.733 0.478 3.712 0.536 3.67C0.594 3.628 0.622 3.572 0.622 3.503L0.622 3.128C0.717 3.308 0.856 3.462 1.04 3.59C1.224 3.717 1.428 3.781 1.654 3.781L1.922 3.781C1.99 3.781 2.049 3.751 2.099 3.689C2.149 3.628 2.174 3.557 2.174 3.478C2.174 3.398 2.149 3.328 2.099 3.27C2.049 3.212 1.99 3.182 1.922 3.182L1.654 3.182C1.386 3.182 1.152 3.075 0.953 2.86C0.753 2.645 0.654 2.368 0.654 2.028L0.654 0.236C0.654 0.178 0.621 0.124 0.555 0.074C0.489 0.025 0.412 0 0.323 0C0.234 0 0.158 0.024 0.094 0.071C0.031 0.118 0 0.174 0 0.236Z" fill="rgb(0,60,114)" fill-opacity="1.000" fill-rule="nonzero" transform="matrix(1 0 0 -1 112.589 43.8102)"/><path d="M0 1.528L0 2.332C0 2.746 0.139 3.102 0.418 3.399C0.696 3.696 1.027 3.844 1.41 3.844C1.646 3.844 1.854 3.785 2.032 3.668C2.211 3.551 2.347 3.408 2.442 3.237L2.442 5.813C2.442 5.881 2.474 5.937 2.537 5.979C2.599 6.021 2.678 6.042 2.773 6.042C2.867 6.042 2.944 6.021 3.005 5.979C3.065 5.937 3.095 5.882 3.095 5.814L3.095 0.299C3.095 0.236 3.064 0.181 3.001 0.134C2.938 0.086 2.862 0.063 2.773 0.063C2.694 0.063 2.625 0.087 2.564 0.135C2.504 0.182 2.474 0.238 2.474 0.303L2.474 0.622C2.384 0.452 2.239 0.306 2.04 0.183C1.84 0.061 1.623 0 1.386 0C1.019 0 0.696 0.155 0.418 0.465C0.139 0.774 0 1.129 0 1.528ZM0.654 1.53C0.654 1.29 0.743 1.075 0.922 0.884C1.101 0.693 1.308 0.598 1.544 0.598C1.775 0.598 1.983 0.686 2.166 0.861C2.35 1.036 2.442 1.189 2.442 1.319L2.442 2.329C2.442 2.601 2.353 2.821 2.175 2.991C1.996 3.16 1.789 3.245 1.552 3.245C1.31 3.245 1.101 3.151 0.922 2.964C0.743 2.776 0.654 2.564 0.654 2.329L0.654 1.53Z" fill="rgb(0,60,114)" fill-opacity="1.000" fill-rule="nonzero" transform="matrix(1 0 0 -1 62.6794 50.9998)"/><path d="M0 1.528L0 2.355C0 2.759 0.154 3.108 0.46 3.403C0.768 3.697 1.137 3.843 1.568 3.843C1.977 3.843 2.332 3.707 2.631 3.432C2.931 3.158 3.08 2.815 3.08 2.403C3.08 2.248 3.061 2.125 3.025 2.032C2.988 1.939 2.931 1.872 2.856 1.832C2.779 1.793 2.709 1.767 2.643 1.756C2.578 1.746 2.489 1.741 2.379 1.741L0.654 1.741L0.654 1.504C0.654 1.215 0.758 0.984 0.965 0.811C1.172 0.638 1.442 0.551 1.772 0.551C1.946 0.551 2.097 0.577 2.225 0.63C2.353 0.682 2.458 0.734 2.536 0.784C2.615 0.833 2.678 0.859 2.725 0.859C2.799 0.859 2.862 0.825 2.914 0.76C2.967 0.694 2.994 0.627 2.994 0.559C2.994 0.438 2.874 0.315 2.635 0.189C2.395 0.063 2.101 0 1.749 0C1.234 0 0.814 0.14 0.488 0.421C0.163 0.702 0 1.071 0 1.528ZM0.654 2.19L2.111 2.19C2.248 2.19 2.34 2.207 2.387 2.241C2.434 2.275 2.458 2.342 2.458 2.442C2.458 2.678 2.371 2.885 2.198 3.064C2.024 3.242 1.812 3.332 1.56 3.332C1.313 3.332 1.101 3.249 0.922 3.084C0.743 2.918 0.654 2.714 0.654 2.473L0.654 2.19Z" fill="rgb(0,60,114)" fill-opacity="1.000" fill-rule="nonzero" transform="matrix(1 0 0 -1 66.5724 50.9997)"/><path d="M0 1.717L0 4.089C0 4.676 0.156 5.11 0.469 5.388C0.781 5.666 1.189 5.806 1.694 5.806C2.208 5.806 2.62 5.676 2.93 5.415C3.24 5.156 3.395 4.829 3.395 4.435C3.395 4.293 3.369 4.197 3.316 4.147C3.263 4.097 3.179 4.073 3.064 4.073C2.854 4.073 2.744 4.149 2.733 4.301C2.701 4.905 2.36 5.207 1.709 5.207C1.01 5.207 0.661 4.834 0.661 4.089L0.661 1.717C0.661 0.971 1.019 0.599 1.733 0.599C1.937 0.599 2.108 0.628 2.245 0.686C2.381 0.743 2.483 0.827 2.548 0.937C2.614 1.048 2.657 1.142 2.678 1.221C2.699 1.3 2.718 1.405 2.733 1.536C2.749 1.688 2.859 1.765 3.064 1.765C3.179 1.765 3.263 1.739 3.316 1.686C3.369 1.633 3.395 1.536 3.395 1.394C3.395 0.995 3.239 0.663 2.927 0.398C2.614 0.133 2.2 0 1.685 0C1.187 0 0.781 0.139 0.469 0.418C0.156 0.696 0 1.129 0 1.717Z" fill="rgb(0,60,114)" fill-opacity="1.000" fill-rule="nonzero" transform="matrix(1 0 0 -1 71.9906 50.9844)"/><path d="M0 0.236L0 3.505C0 3.574 0.03 3.629 0.09 3.671C0.151 3.713 0.229 3.733 0.323 3.733C0.406 3.733 0.478 3.713 0.536 3.67C0.594 3.628 0.622 3.572 0.622 3.503L0.622 3.127C0.717 3.309 0.855 3.462 1.039 3.589C1.224 3.717 1.428 3.781 1.654 3.781L1.922 3.781C1.99 3.781 2.049 3.751 2.099 3.689C2.149 3.628 2.174 3.557 2.174 3.478C2.174 3.398 2.149 3.328 2.099 3.27C2.049 3.212 1.99 3.182 1.922 3.182L1.654 3.182C1.386 3.182 1.152 3.075 0.953 2.86C0.753 2.646 0.654 2.368 0.654 2.028L0.654 0.236C0.654 0.178 0.621 0.124 0.555 0.075C0.489 0.025 0.412 0 0.323 0C0.234 0 0.157 0.024 0.094 0.071C0.031 0.118 0 0.174 0 0.236Z" fill="rgb(0,60,114)" fill-opacity="1.000" fill-rule="nonzero" transform="matrix(1 0 0 -1 76.135 50.9372)"/><path d="M0 1.528L0 2.355C0 2.759 0.153 3.108 0.46 3.402C0.767 3.697 1.137 3.843 1.566 3.843C1.976 3.843 2.332 3.707 2.631 3.432C2.93 3.158 3.08 2.815 3.08 2.402C3.08 2.248 3.061 2.125 3.024 2.032C2.987 1.938 2.931 1.872 2.855 1.832C2.779 1.792 2.708 1.767 2.642 1.756C2.577 1.745 2.489 1.74 2.379 1.74L0.653 1.74L0.653 1.504C0.653 1.215 0.757 0.984 0.965 0.811C1.172 0.637 1.441 0.551 1.772 0.551C1.945 0.551 2.096 0.577 2.225 0.63C2.353 0.682 2.457 0.733 2.536 0.784C2.615 0.833 2.678 0.858 2.725 0.858C2.798 0.858 2.861 0.825 2.914 0.76C2.967 0.694 2.993 0.627 2.993 0.559C2.993 0.438 2.873 0.314 2.634 0.189C2.395 0.063 2.1 0 1.748 0C1.233 0 0.814 0.14 0.488 0.421C0.163 0.702 0 1.071 0 1.528ZM0.653 2.19L2.11 2.19C2.248 2.19 2.339 2.206 2.387 2.241C2.433 2.275 2.457 2.342 2.457 2.442C2.457 2.678 2.371 2.885 2.198 3.063C2.024 3.242 1.812 3.332 1.56 3.332C1.312 3.332 1.1 3.248 0.922 3.084C0.743 2.918 0.653 2.714 0.653 2.473L0.653 2.19ZM0.905 4.93C0.905 5.01 0.939 5.067 1.008 5.104L1.929 5.592C1.961 5.603 1.987 5.608 2.008 5.608C2.071 5.608 2.124 5.581 2.166 5.525C2.208 5.47 2.229 5.409 2.229 5.34C2.229 5.251 2.192 5.188 2.118 5.151L1.228 4.694C1.187 4.674 1.157 4.663 1.142 4.663C1.079 4.663 1.023 4.691 0.976 4.745C0.929 4.801 0.905 4.862 0.905 4.93Z" fill="rgb(0,60,114)" fill-opacity="1.000" fill-rule="nonzero" transform="matrix(1 0 0 -1 78.5841 50.9997)"/><path d="M0 1.528L0 2.332C0 2.746 0.139 3.102 0.417 3.399C0.695 3.696 1.027 3.844 1.41 3.844C1.646 3.844 1.853 3.785 2.032 3.668C2.211 3.551 2.347 3.408 2.442 3.237L2.442 5.813C2.442 5.881 2.473 5.937 2.537 5.979C2.599 6.021 2.678 6.042 2.772 6.042C2.867 6.042 2.945 6.021 3.005 5.979C3.065 5.937 3.095 5.882 3.095 5.814L3.095 0.299C3.095 0.236 3.064 0.181 3.001 0.134C2.938 0.086 2.862 0.063 2.772 0.063C2.694 0.063 2.624 0.087 2.564 0.135C2.503 0.182 2.473 0.238 2.473 0.303L2.473 0.622C2.384 0.452 2.239 0.306 2.04 0.183C1.84 0.061 1.623 0 1.387 0C1.019 0 0.695 0.155 0.417 0.465C0.139 0.774 0 1.129 0 1.528ZM0.654 1.53C0.654 1.29 0.743 1.075 0.922 0.884C1.1 0.693 1.308 0.598 1.544 0.598C1.775 0.598 1.982 0.686 2.166 0.861C2.35 1.036 2.442 1.189 2.442 1.319L2.442 2.329C2.442 2.601 2.352 2.821 2.174 2.991C1.996 3.16 1.788 3.245 1.551 3.245C1.31 3.245 1.1 3.151 0.922 2.964C0.743 2.776 0.654 2.564 0.654 2.329L0.654 1.53Z" fill="rgb(0,60,114)" fill-opacity="1.000" fill-rule="nonzero" transform="matrix(1 0 0 -1 82.2456 50.9998)"/><path d="M0.122 4.872C0.04 4.948 0 5.036 0 5.136C0 5.236 0.04 5.322 0.118 5.396C0.197 5.469 0.294 5.506 0.409 5.506C0.52 5.506 0.614 5.469 0.693 5.396C0.772 5.322 0.811 5.236 0.811 5.136C0.811 5.036 0.772 4.948 0.693 4.872C0.614 4.796 0.52 4.758 0.409 4.758C0.299 4.758 0.204 4.796 0.122 4.872ZM0.086 0.236L0.086 3.505C0.086 3.574 0.118 3.629 0.181 3.671C0.244 3.712 0.32 3.733 0.409 3.733C0.503 3.733 0.583 3.712 0.646 3.671C0.708 3.629 0.741 3.574 0.741 3.505L0.741 0.236C0.741 0.178 0.707 0.125 0.641 0.075C0.577 0.025 0.499 0 0.409 0C0.32 0 0.244 0.024 0.181 0.071C0.118 0.119 0.086 0.174 0.086 0.236Z" fill="rgb(0,60,114)" fill-opacity="1.000" fill-rule="nonzero" transform="matrix(1 0 0 -1 86.1928 50.937)"/><path d="M0 1.189L0 5.246C0 5.31 0.034 5.363 0.102 5.407C0.171 5.452 0.244 5.474 0.323 5.474C0.406 5.474 0.483 5.452 0.551 5.407C0.62 5.363 0.654 5.31 0.654 5.246L0.654 3.733L1.646 3.733C1.704 3.733 1.751 3.708 1.788 3.655C1.825 3.602 1.843 3.542 1.843 3.474C1.843 3.406 1.825 3.346 1.788 3.296C1.751 3.246 1.704 3.222 1.646 3.222L0.654 3.222L0.654 1.207C0.654 0.984 0.702 0.827 0.799 0.735C0.896 0.644 1.066 0.598 1.308 0.598L1.551 0.598C1.641 0.598 1.711 0.57 1.761 0.512C1.81 0.455 1.835 0.385 1.835 0.303C1.835 0.221 1.809 0.15 1.756 0.09C1.704 0.03 1.635 0 1.551 0L1.308 0C0.436 0 0 0.396 0 1.189Z" fill="rgb(0,60,114)" fill-opacity="1.000" fill-rule="nonzero" transform="matrix(1 0 0 -1 87.8461 50.937)"/><path d="M0 1.528L0 2.332C0 2.736 0.153 3.089 0.46 3.391C0.767 3.693 1.131 3.844 1.551 3.844C1.971 3.844 2.336 3.694 2.646 3.395C2.955 3.095 3.111 2.741 3.111 2.332L3.111 1.528C3.111 1.129 2.955 0.774 2.642 0.465C2.33 0.155 1.966 0 1.551 0C1.137 0 0.774 0.153 0.464 0.46C0.154 0.768 0 1.124 0 1.528ZM0.653 1.53C0.653 1.285 0.743 1.068 0.922 0.881C1.099 0.693 1.31 0.598 1.551 0.598C1.798 0.598 2.011 0.693 2.19 0.884C2.368 1.075 2.457 1.29 2.457 1.53L2.457 2.329C2.457 2.564 2.368 2.776 2.19 2.964C2.011 3.151 1.798 3.245 1.551 3.245C1.304 3.245 1.093 3.151 0.917 2.964C0.741 2.776 0.653 2.564 0.653 2.329L0.653 1.53Z" fill="rgb(0,60,114)" fill-opacity="1.000" fill-rule="nonzero" transform="matrix(1 0 0 -1 90.1006 50.9998)"/><path d="M0 0.598C0 0.667 0.023 0.734 0.068 0.799C0.111 0.866 0.165 0.898 0.229 0.898C0.271 0.898 0.331 0.866 0.41 0.799C0.488 0.734 0.601 0.669 0.749 0.606C0.895 0.543 1.069 0.512 1.269 0.512C1.531 0.512 1.721 0.56 1.84 0.655C1.957 0.751 2.017 0.87 2.017 1.014C2.017 1.189 1.951 1.328 1.82 1.432C1.689 1.536 1.528 1.614 1.339 1.667C1.15 1.72 0.961 1.778 0.772 1.842C0.583 1.906 0.423 2.012 0.292 2.161C0.161 2.31 0.095 2.506 0.095 2.75C0.095 3.047 0.201 3.304 0.414 3.52C0.626 3.736 0.95 3.844 1.387 3.844C1.665 3.844 1.92 3.802 2.151 3.718C2.381 3.634 2.498 3.538 2.498 3.431C2.498 3.368 2.472 3.298 2.422 3.218C2.372 3.14 2.31 3.101 2.237 3.101C2.216 3.101 2.115 3.139 1.934 3.216C1.753 3.294 1.573 3.332 1.394 3.332C1.153 3.332 0.973 3.274 0.855 3.16C0.736 3.047 0.678 2.918 0.678 2.774C0.678 2.625 0.743 2.509 0.875 2.424C1.006 2.338 1.167 2.272 1.359 2.224C1.551 2.177 1.741 2.118 1.93 2.049C2.119 1.98 2.279 1.862 2.411 1.695C2.542 1.528 2.608 1.311 2.608 1.046C2.608 0.723 2.492 0.468 2.261 0.281C2.03 0.094 1.707 0 1.293 0C0.935 0 0.631 0.064 0.378 0.193C0.126 0.322 0 0.457 0 0.598Z" fill="rgb(0,60,114)" fill-opacity="1.000" fill-rule="nonzero" transform="matrix(1 0 0 -1 93.7694 51)"/></svg>