<svg xmlns="http://www.w3.org/2000/svg" viewBox="0 0 60 60" width="60" height="60"><path d="M0 0L60 0L60 60L0 60L0 0Z" fill="rgb(0,60,114)" fill-opacity="1.000" fill-rule="nonzero" transform="matrix(1 0 0 1 0 0)"/><path d="M7.647 20.951C8.489 20.951 9.149 21.621 9.149 22.475C9.149 23.331 8.489 24 7.647 24C4.937 24 2.732 21.75 2.732 18.984L2.732 16.877L1.501 16.877C0.659 16.877 0 16.207 0 15.352C0 14.497 0.659 13.828 1.501 13.828L2.732 13.828L2.732 1.525C2.732 0.669 3.391 0 4.233 0C5.075 0 5.734 0.669 5.734 1.525L5.734 13.828L7.647 13.828C8.489 13.828 9.149 14.497 9.149 15.352C9.149 16.207 8.489 16.877 7.647 16.877L5.734 16.877L5.734 18.984C5.734 20.087 6.574 20.951 7.647 20.951Z" fill="rgb(255,255,255)" fill-opacity="1.000" fill-rule="nonzero" transform="matrix(1 0 0 -1 15.4141 44.0231)"/><path d="M8.33 23.853L4.915 23.853C2.205 23.853 0 21.603 0 18.837L0 12.132C0 9.367 2.205 7.116 4.915 7.116L6.829 7.116L6.829 5.01C6.829 4.195 6.368 3.477 5.655 3.179C4.926 2.875 4.132 3.036 3.583 3.597C3.287 3.9 2.919 4.055 2.491 4.055C2.099 4.055 1.738 3.902 1.448 3.612C1.152 3.352 0.99 2.981 0.99 2.565C0.99 2.135 1.14 1.764 1.442 1.454C2.425 0.501 3.668 0 4.932 0C5.561 0 6.196 0.124 6.806 0.378C8.644 1.146 9.831 2.963 9.831 5.01L9.831 22.328C9.831 23.184 9.172 23.853 8.33 23.853ZM6.829 20.804L6.829 10.165L4.915 10.165C3.843 10.165 3.002 11.029 3.002 12.132L3.002 18.837C3.002 19.94 3.843 20.804 4.915 20.804L6.829 20.804Z" fill="rgb(255,255,255)" fill-opacity="1.000" fill-rule="nonzero" transform="matrix(1 0 0 -1 24.9102 50.9997)"/><path d="M7.306 4.055C6.907 4.055 6.541 3.896 6.248 3.597C5.7 3.036 4.906 2.875 4.177 3.179C3.463 3.477 3.002 4.195 3.002 5.01L3.002 11.993C3.002 12.807 3.463 13.525 4.177 13.822C4.921 14.133 5.692 13.967 6.239 13.379C6.252 13.365 6.265 13.353 6.28 13.341C6.582 13.084 6.936 12.948 7.306 12.948C7.703 12.948 8.06 13.08 8.366 13.341C8.388 13.36 8.408 13.38 8.427 13.403C8.679 13.712 8.807 14.061 8.807 14.437C8.807 14.843 8.682 15.193 8.427 15.506C8.415 15.521 8.402 15.535 8.389 15.547C6.916 16.977 4.86 17.389 3.024 16.623C1.187 15.856 0 14.039 0 11.993L0 5.01C0 2.964 1.187 1.146 3.024 0.379C3.635 0.124 4.27 0 4.9 0C6.163 0 7.405 0.501 8.389 1.455C8.402 1.467 8.415 1.481 8.427 1.495C8.679 1.806 8.807 2.153 8.807 2.53C8.807 2.955 8.665 3.323 8.398 3.597C8.101 3.901 7.733 4.055 7.306 4.055Z" fill="rgb(255,255,255)" fill-opacity="1.000" fill-rule="nonzero" transform="matrix(1 0 0 -1 36.3125 44.0163)"/><path d="M0.939 0C0.896 0 0.852 0.003 0.808 0.009C0.295 0.081 -0.063 0.555 0.009 1.068C1.85 14.243 13.286 24.179 26.611 24.179C30.699 24.179 34.625 23.284 38.28 21.518C40.164 20.608 41.944 19.474 43.57 18.149C43.972 17.822 44.032 17.231 43.705 16.83C43.378 16.428 42.787 16.368 42.386 16.695C40.872 17.929 39.216 18.983 37.464 19.83C34.065 21.471 30.414 22.303 26.611 22.303C14.217 22.303 3.579 13.063 1.866 0.808C1.801 0.339 1.399 0 0.939 0Z" fill="rgb(186,158,22)" fill-opacity="1.000" fill-rule="nonzero" transform="matrix(1 0 0 -1 6 34.1791)"/><path d="M26.548 0C26.097 0 25.698 0.327 25.623 0.787C24.014 10.654 15.577 17.815 5.562 17.815C4.071 17.815 2.584 17.653 1.14 17.333C0.634 17.221 0.134 17.54 0.022 18.046C-0.09 18.551 0.229 19.052 0.734 19.164C2.31 19.513 3.934 19.691 5.562 19.691C16.501 19.691 25.716 11.867 27.475 1.089C27.558 0.578 27.212 0.096 26.7 0.012C26.649 0.004 26.598 0 26.548 0Z" fill="rgb(102,133,57)" fill-opacity="1.000" fill-rule="nonzero" transform="matrix(1 0 0 -1 27.0508 34.1791)"/></svg>