<svg xmlns="http://www.w3.org/2000/svg" viewBox="0 0 60 60" width="60" height="60"><path d="M0 0L60 0L60 60L0 60L0 0Z" fill="rgb(3,3,20)" fill-opacity="1.000" fill-rule="nonzero" transform="matrix(1 0 0 1 0 0)"/><path d="M0.801 0L4.405 0L3.604 1.369L0 1.369L0.801 0Z" fill="rgb(255,255,255)" fill-opacity="1.000" fill-rule="evenodd" transform="matrix(1 0 0 1 41.226 24)"/><path d="M7.251 0L3.604 6.349L0 6.349L3.636 0L7.251 0Z" fill="rgb(255,255,255)" fill-opacity="1.000" fill-rule="evenodd" transform="matrix(1 0 0 1 37.2497 25.9584)"/><path d="M9.053 4.759L8.136 6.349L0 6.349L6.355 1.527L2.824 1.527L3.668 0L11.804 0L5.501 4.759L9.053 4.759Z" fill="rgb(255,255,255)" fill-opacity="1.000" fill-rule="evenodd" transform="matrix(1 0 0 1 27.8233 25.8308)"/><path d="M2.392 1.59C2.656 1.453 4.173 0.663 6.26 0.337C6.471 0.305 7.535 0.126 9.759 0L32.713 0L31.922 1.379L8.948 1.379C8.948 1.379 8.326 1.379 7.999 1.432C7.672 1.485 6.534 1.579 5.459 2.222C5.175 2.39 4.131 3.043 3.541 4.033C3.541 4.033 3.109 4.685 3.278 5.465C3.373 5.896 3.647 6.423 4.679 6.686C4.827 6.728 5.522 6.791 5.596 6.781C5.681 6.77 6.756 6.791 6.756 6.791L8.252 4.254L6.914 4.264L7.715 2.896L12.162 2.896L9.032 8.308L3.246 8.308C3.246 8.308 3.088 8.329 2.825 8.234C1.95 7.918 0.021 6.981 0 4.949C0 4.664 -0.053 2.927 2.392 1.59Z" fill="rgb(255,255,255)" fill-opacity="1.000" fill-rule="evenodd" transform="matrix(1 0 0 1 7.8688 24)"/><path d="M0 1.411L0.811 0L14.565 0C14.807 0.674 15.281 1.032 15.882 1.411L0 1.411Z" fill="rgb(255,255,255)" fill-opacity="1.000" fill-rule="evenodd" transform="matrix(1 0 0 1 4 33.3185)"/><path d="M2.173 8.459C0.623 7.375 0.265 6.437 0.223 6.322C-0.22 5.279 0.117 4.447 0.212 4.247C0.771 3.152 1.435 2.647 1.572 2.531C3.469 0.889 6.072 0.204 8.517 0.036C9.202 -0.017 10.825 0.004 10.825 0.004L11.563 0.004L10.656 1.562L8.57 1.562C7.874 1.562 7.084 1.657 6.883 1.689C4.67 2.099 4.091 3.152 4.091 3.152L6.778 3.152L7.368 2.131L10.33 2.131L7.895 6.343L4.934 6.343L5.851 4.753L3.068 4.753C3.005 4.848 2.952 4.953 2.9 5.048C2.657 5.511 2.721 5.964 2.752 6.079C2.91 6.638 3.479 7.048 3.479 7.048L2.173 8.459Z" fill="rgb(255,255,255)" fill-opacity="1.000" fill-rule="evenodd" transform="matrix(1 0 0 1 18.8881 25.9543)"/><path d="M8.874 1.379L0 1.379L0.801 0L9.675 0L8.874 1.379Z" fill="rgb(255,255,255)" fill-opacity="1.000" fill-rule="evenodd" transform="matrix(1 0 0 1 46.3269 24)"/><path d="M12.552 0L9.169 0L7.946 2.116L7.251 0L3.667 0L0 6.349L3.141 6.349L5.586 2.116L6.503 4.612L5.47 6.349L8.842 6.349L12.552 0Z" fill="rgb(255,255,255)" fill-opacity="1.000" fill-rule="nonzero" transform="matrix(1 0 0 1 42.3199 25.9584)"/><path d="M0.811 0L0 1.4L10.528 1.4L11.34 0L0.811 0Z" fill="rgb(255,255,255)" fill-opacity="1.000" fill-rule="nonzero" transform="matrix(1 0 0 1 22.4345 33.3286)"/><path d="M2.434 1.653C2.656 1.516 2.803 1.285 2.803 0.937C2.803 0.168 2.034 0 1.401 0L0 0L0 3.432L1.433 3.432C2.16 3.432 2.909 3.253 2.909 2.432C2.898 2.032 2.708 1.79 2.434 1.653ZM0.653 0.642L1.391 0.642C1.865 0.642 2.129 0.695 2.129 1C2.129 1.306 1.865 1.379 1.391 1.379L0.653 1.379L0.653 0.642ZM1.423 2.79L0.653 2.79L0.653 1.979L1.423 1.979C1.981 1.979 2.234 2.064 2.234 2.369C2.234 2.674 1.992 2.79 1.423 2.79Z" fill="rgb(24,151,238)" fill-opacity="1.000" fill-rule="nonzero" transform="matrix(1 0 0 1 37.196 33.0234)"/><path d="M2.129 0.179C1.908 0.084 1.613 0 1.349 0C0.506 0 0 0.516 0 1.285C0 2.053 0.527 2.569 1.36 2.569C1.634 2.569 1.908 2.495 2.129 2.411L2.15 2.548L2.73 2.548L2.73 0.074L2.15 0.042L2.129 0.179ZM2.076 1.801C1.908 1.864 1.676 1.927 1.412 1.927C0.696 1.927 0.664 1.464 0.664 1.285C0.664 1.106 0.696 0.642 1.412 0.642C1.623 0.642 1.887 0.705 2.076 0.779L2.076 1.801Z" fill="rgb(24,151,238)" fill-opacity="1.000" fill-rule="nonzero" transform="matrix(1 0 0 1 40.3394 33.9079)"/><path d="M1.423 0C1.159 0 0.843 0.084 0.611 0.179L0.59 0.042L0 0.074L0 2.548L0.664 2.548L0.664 0.79C0.853 0.716 1.159 0.653 1.37 0.653C2.023 0.653 2.013 1.011 2.013 1.158L2.013 2.559L2.677 2.559L2.677 1.137C2.677 0.4 2.202 0 1.423 0Z" fill="rgb(24,151,238)" fill-opacity="1.000" fill-rule="nonzero" transform="matrix(1 0 0 1 43.6402 33.9184)"/><path d="M0 3.464L0.653 3.464L0.653 3.096L0.653 2.095L0.653 0L0 0.032L0 3.464Z" fill="rgb(24,151,238)" fill-opacity="1.000" fill-rule="nonzero" transform="matrix(1 0 0 1 46.8105 32.992)"/><path d="M0.632 1.822L2.023 0.411L1.602 0L0 1.611L0 2.022L1.602 3.675L2.023 3.264L0.632 1.822Z" fill="rgb(255,255,255)" fill-opacity="1.000" fill-rule="nonzero" transform="matrix(1 0 0 1 47.6395 32.8973)"/><path d="M0.422 0L0.011 0.411L1.402 1.822L0 3.264L0.432 3.675L2.024 2.022L2.024 1.611L0.422 0Z" fill="rgb(255,255,255)" fill-opacity="1.000" fill-rule="nonzero" transform="matrix(1 0 0 1 34.9852 32.8973)"/></svg>