<svg xmlns="http://www.w3.org/2000/svg" viewBox="0 0 60 60" width="60" height="60"><path d="M0 0L60 0L60 60L0 60L0 0Z" fill="rgb(255,255,255)" fill-opacity="1.000" fill-rule="nonzero" transform="matrix(1 0 0 1 0 0)"/><path d="M23.609 11.794C23.609 5.45 18.594 0.24 12.255 0L11.931 0L11.792 0C8.635 0 5.764 1.104 3.709 3.114C3.192 3.617 2.729 4.174 2.329 4.774C-1.554 10.012 -0.456 17.404 4.782 21.287C6.815 22.796 9.28 23.609 11.812 23.609C13.533 23.609 18.796 23.125 18.796 28.887C18.796 33.836 13.187 34.221 11.544 34.221C8.197 34.221 4.622 32.821 4.622 28.887L4.622 28.472C4.63 28.239 4.448 28.046 4.215 28.039C4.21 28.039 4.202 28.039 4.197 28.039L0.423 28.039C0.19 28.039 0 28.229 0 28.461L0 28.879C0 31.894 1.192 34.448 3.453 36.243C5.506 37.881 8.377 38.775 11.536 38.775C18.568 38.775 23.361 34.886 23.361 28.869C23.361 25.527 21.857 22.839 19.057 21.092C21.933 18.862 23.614 15.427 23.614 11.787M19.098 11.787C19.095 15.812 15.829 19.072 11.804 19.07C7.779 19.067 4.519 15.802 4.521 11.776C4.521 9.827 5.303 7.959 6.693 6.589C7.319 5.908 8.101 5.387 8.972 5.071C12.685 3.514 16.958 5.26 18.515 8.974C18.89 9.868 19.082 10.825 19.082 11.792" fill="rgb(0,33,158)" fill-opacity="1.000" fill-rule="nonzero" transform="matrix(1 0 0 1 16.5156 14.1755)"/><path d="M0 1.939C0 3.01 0.868 3.878 1.939 3.878L4.693 3.878C5.152 3.878 5.524 4.25 5.524 4.709L5.524 7.463C5.524 8.534 6.392 9.402 7.463 9.402C8.534 9.402 9.402 8.534 9.402 7.463L9.402 0.967C9.402 0.433 8.969 0 8.435 0L8.432 0L1.939 0C0.868 0 0 0.868 0 1.939Z" fill="rgb(0,221,255)" fill-opacity="1.000" fill-rule="nonzero" transform="matrix(1 0 0 1 34.5981 6.0547)"/></svg>