<svg xmlns="http://www.w3.org/2000/svg" viewBox="0 0 130 60" width="130" height="60"><path d="M0 0L130 0L130 60L0 60L0 0Z" fill="rgb(255,255,255)" fill-opacity="1.000" fill-rule="nonzero" transform="matrix(1 0 0 1 0 0)"/><path d="M17.623 8.804C17.623 4.068 13.879 0.18 9.148 0L8.906 0L8.802 0C6.445 0 4.303 0.824 2.768 2.324C2.383 2.7 2.037 3.116 1.738 3.564C-1.16 7.473 -0.34 12.991 3.569 15.89C5.087 17.016 6.927 17.623 8.817 17.623C10.102 17.623 14.03 17.262 14.03 21.562C14.03 25.257 9.843 25.544 8.617 25.544C6.119 25.544 3.45 24.499 3.45 21.562L3.45 21.252C3.456 21.079 3.32 20.935 3.146 20.929C3.142 20.929 3.137 20.929 3.133 20.929L0.316 20.929C0.142 20.929 0 21.071 0 21.245L0 21.557C0 23.807 0.89 25.714 2.577 27.054C4.11 28.276 6.253 28.943 8.611 28.943C13.86 28.943 17.437 26.041 17.437 21.549C17.437 19.055 16.315 17.048 14.225 15.744C16.372 14.079 17.626 11.515 17.626 8.798M14.255 8.798C14.253 11.803 11.816 14.236 8.811 14.234C5.807 14.233 3.373 11.795 3.375 8.79C3.375 7.335 3.959 5.941 4.996 4.919C5.463 4.41 6.047 4.021 6.697 3.785C9.469 2.623 12.659 3.927 13.821 6.699C14.1 7.366 14.244 8.08 14.244 8.802" fill="rgb(0,33,158)" fill-opacity="1.000" fill-rule="nonzero" transform="matrix(1 0 0 1 20 18.0618)"/><path d="M16.251 13.868C16.371 13.708 16.344 13.481 16.189 13.352L14.328 11.863C14.163 11.735 13.925 11.765 13.797 11.929L13.491 12.336C12.608 13.504 10.619 14.32 8.653 14.32C6.427 14.32 4.077 13.09 3.423 10.371L17.026 10.371L17.104 9.588C17.385 6.724 16.726 4.309 15.174 2.597C13.623 0.885 11.338 0 8.661 0C6.367 -0.02 4.162 0.875 2.531 2.489C0.879 4.165 -0.031 6.434 0.001 8.787C0.001 11.364 0.879 13.577 2.544 15.185C4.118 16.706 6.291 17.545 8.665 17.545C11.624 17.545 14.422 16.283 15.97 14.254L16.251 13.868ZM8.653 3.131C11.705 3.131 13.591 4.643 13.944 7.3L3.432 7.3C4.028 4.77 6.034 3.131 8.661 3.131" fill="rgb(0,33,158)" fill-opacity="1.000" fill-rule="nonzero" transform="matrix(1 0 0 1 40.5166 18.0539)"/><path d="M7.814 0C6.028 0.026 4.444 0.567 3.226 1.542L3.226 0.329C3.226 0.164 3.093 0.032 2.929 0.032L2.927 0.032L0.297 0.032C0.132 0.032 0 0.164 0 0.329L0 17.061C0 17.226 0.132 17.358 0.297 17.358L2.959 17.358C3.124 17.358 3.256 17.226 3.256 17.061L3.256 7.95C3.256 5.195 5.111 3.25 7.772 3.226L7.844 3.226C9.278 3.226 10.44 3.626 11.209 4.388C11.978 5.149 12.364 6.251 12.364 7.67L12.364 17.061C12.364 17.226 12.496 17.358 12.66 17.358L15.323 17.358C15.487 17.358 15.62 17.226 15.62 17.061L15.62 7.64C15.62 2.999 12.56 0 7.814 0Z" fill="rgb(0,33,158)" fill-opacity="1.000" fill-rule="nonzero" transform="matrix(1 0 0 1 61.1124 18.0221)"/><path d="M17.187 17.328C17.351 17.328 17.483 17.195 17.483 17.031L17.483 0.295C17.483 0.132 17.351 0 17.189 0L17.187 0L14.53 0C14.365 -0.002 14.233 0.13 14.231 0.295L14.231 1.534C12.739 0.37 10.858 0.023 8.818 0.023C7.181 0.021 5.575 0.474 4.182 1.336C3.846 1.54 3.525 1.769 3.221 2.02C-0.532 5.089 -1.086 10.62 1.985 14.371C5.021 18.082 10.475 18.669 14.231 15.691L14.231 17.029C14.231 17.194 14.364 17.326 14.528 17.326L14.53 17.326L17.187 17.328ZM3.411 8.751C3.411 5.559 5.679 3.241 8.819 3.241C12.627 3.241 14.36 6.105 14.36 8.766C14.382 10.166 13.891 11.525 12.977 12.585C11.983 13.702 10.545 14.285 8.819 14.285C5.686 14.285 3.411 11.956 3.411 8.745" fill="rgb(0,33,158)" fill-opacity="1.000" fill-rule="nonzero" transform="matrix(1 0 0 1 86.833 18.0543)"/><path d="M2.959 0L0.299 0C0.134 -0.002 0.002 0.13 0 0.295L0 0.297L0 23.084C0 23.248 0.132 23.38 0.297 23.38L0.299 23.38L2.959 23.38C3.122 23.378 3.254 23.246 3.254 23.084L3.254 0.297C3.254 0.134 3.122 0 2.959 0C2.957 0 2.955 0 2.955 0Z" fill="rgb(0,33,158)" fill-opacity="1.000" fill-rule="nonzero" transform="matrix(1 0 0 1 107.746 12)"/><path d="M0.293 17.333L2.963 17.333C3.124 17.332 3.252 17.199 3.25 17.039C3.25 17.037 3.25 17.037 3.25 17.035L3.25 0.293C3.252 0.132 3.122 0.002 2.961 0C2.959 0 2.959 0 2.957 0L0.293 0C0.13 0 0 0.13 0 0.293L0 17.035C0 17.197 0.13 17.328 0.293 17.328" fill="rgb(0,33,158)" fill-opacity="1.000" fill-rule="nonzero" transform="matrix(1 0 0 1 80.1616 18.0486)"/><path d="M0 1.447C0 2.247 0.648 2.895 1.447 2.895L3.503 2.895C3.845 2.895 4.123 3.173 4.123 3.515L4.123 5.571C4.123 6.37 4.771 7.018 5.571 7.018C6.37 7.018 7.018 6.37 7.018 5.571L7.018 0.722C7.018 0.323 6.695 0 6.296 0L6.294 0L1.447 0C0.648 0 0 0.648 0 1.447Z" fill="rgb(0,221,255)" fill-opacity="1.000" fill-rule="nonzero" transform="matrix(1 0 0 1 33.4975 12)"/></svg>