<svg xmlns="http://www.w3.org/2000/svg" viewBox="0 0 60 60" width="60" height="60"><path d="M0 0L60 0L60 60L0 60L0 0Z" fill="rgb(237,28,36)" fill-opacity="1.000" fill-rule="nonzero" transform="matrix(1 0 0 1 0 0)"/><path d="M19.727 26.583C18.432 26.847 16.998 27.011 15.752 27.011C9.172 27.011 5.02 23.195 5.02 15.451C5.02 8.349 8.87 4.319 15.966 4.319C18.998 4.319 21.376 4.836 23.489 5.529C23.917 4.181 24.269 2.582 24.357 1.159C22.106 0.39 19.287 0 15.966 0C5.838 0 0 5.629 0 15.627C0 24.808 5.322 31.343 15.4 31.343C18.646 31.343 22.106 30.738 24.572 29.744L24.572 14.33L19.727 14.33L19.727 26.583Z" fill="rgb(255,255,255)" fill-opacity="1.000" fill-rule="nonzero" transform="matrix(1 0 0 1 9.1157 13.8284)"/><path d="M4.864 12.153L7.285 12.153L7.285 9.722L4.864 9.722L4.864 12.153ZM0 2.431L2.432 2.431L2.432 0L0 0L0 2.431ZM0 7.291L2.432 7.291L2.432 4.861L0 4.861L0 7.291ZM9.716 2.431L12.148 2.431L12.148 0L9.716 0L9.716 2.431ZM4.864 7.291L7.285 7.291L7.285 4.861L4.864 4.861L4.864 7.291ZM0 12.153L2.432 12.153L2.432 9.722L0 9.722L0 12.153ZM4.864 2.431L7.285 2.431L7.285 0L4.864 0L4.864 2.431ZM9.716 7.291L12.148 7.291L12.148 4.861L9.716 4.861L9.716 7.291ZM9.716 12.153L12.148 12.153L12.148 9.722L9.716 9.722L9.716 12.153Z" fill="rgb(255,255,255)" fill-opacity="1.000" fill-rule="nonzero" transform="matrix(1 0 0 1 38.8518 13.8284)"/></svg>