<svg xmlns="http://www.w3.org/2000/svg" viewBox="0 0 130 60" width="130" height="60"><path d="M0 0L130 0L130 60L0 60L0 0Z" fill="rgb(255,255,255)" fill-opacity="1.000" fill-rule="nonzero" transform="matrix(1 0 0 1 0 0)"/><path d="M97.339 8.739L99.019 8.739L99.019 7.052L97.339 7.052L97.339 8.739ZM93.964 1.992L95.651 1.992L95.651 0.306L93.964 0.306L93.964 1.992ZM93.964 5.365L95.651 5.365L95.651 3.679L93.964 3.679L93.964 5.365ZM100.706 1.992L102.394 1.992L102.394 0.306L100.706 0.306L100.706 1.992ZM97.339 5.365L99.019 5.365L99.019 3.679L97.339 3.679L97.339 5.365ZM93.964 8.739L95.651 8.739L95.651 7.052L93.964 7.052L93.964 8.739ZM97.339 1.992L99.019 1.992L99.019 0.306L97.339 0.306L97.339 1.992ZM100.706 5.365L102.394 5.365L102.394 3.679L100.706 3.679L100.706 5.365ZM100.706 8.739L102.394 8.739L102.394 7.052L100.706 7.052L100.706 8.739ZM23.354 12.076C23.625 9.525 24.855 8.17 27.195 8.17C29.474 8.17 30.801 9.612 30.801 12.076L23.354 12.076ZM27.378 5.409C22.123 5.409 20.054 8.957 20.054 13.43C20.054 18.568 22.726 21.636 28.252 21.636C30.024 21.636 31.613 21.364 33.115 20.674C33.324 19.687 33.508 18.542 33.621 17.669C31.971 18.42 30.138 18.813 28.339 18.813C25.397 18.813 23.834 17.52 23.415 14.846L33.953 14.846C34.075 13.973 34.136 13.221 34.136 12.295C34.126 8.502 32.084 5.409 27.378 5.409ZM45.058 8.739C45.206 7.864 45.293 6.938 45.354 5.916L40.133 5.916L40.133 0.236C39.112 0.236 37.855 0.384 36.834 0.717L36.834 16.489C36.834 20.15 38.877 21.627 42.089 21.627C43.023 21.627 43.984 21.504 44.883 21.146C45.066 20.273 45.18 19.25 45.276 18.35C44.551 18.621 43.652 18.804 42.692 18.804C41.103 18.804 40.142 18.053 40.142 16.104L40.142 8.739L45.058 8.739ZM88.611 8.739C88.764 7.864 88.858 6.938 88.909 5.916L83.687 5.916L83.687 0.236C82.669 0.236 81.41 0.384 80.392 0.717L80.392 16.489C80.392 20.15 82.436 21.627 85.643 21.627C86.582 21.627 87.542 21.504 88.436 21.146C88.625 20.273 88.734 19.25 88.829 18.35C88.109 18.621 87.207 18.804 86.247 18.804C84.661 18.804 83.701 18.053 83.701 16.104L83.701 8.739L88.611 8.739ZM66.91 12.076C67.181 9.525 68.411 8.17 70.751 8.17C73.031 8.17 74.355 9.612 74.355 12.076L66.91 12.076ZM70.934 5.409C65.679 5.409 63.61 8.957 63.61 13.43C63.61 18.568 66.281 21.636 71.807 21.636C73.577 21.636 75.17 21.364 76.668 20.674C76.879 19.687 77.061 18.542 77.177 17.669C75.526 18.42 73.693 18.813 71.895 18.813C68.953 18.813 67.39 17.52 66.971 14.846L77.512 14.846C77.628 13.973 77.693 13.221 77.693 12.295C77.686 8.502 75.65 5.409 70.934 5.409ZM13.689 18.446C12.79 18.629 11.795 18.743 10.93 18.743C6.364 18.743 3.483 16.095 3.483 10.722C3.483 5.793 6.155 2.997 11.079 2.997C13.183 2.997 14.833 3.356 16.299 3.836C16.596 2.901 16.841 1.792 16.902 0.804C15.339 0.271 13.384 0 11.079 0C4.051 0 0 3.906 0 10.844C0 17.214 3.693 21.75 10.686 21.75C12.938 21.75 15.339 21.33 17.051 20.639L17.051 9.944L13.689 9.944L13.689 18.446ZM53.762 5.409C52.173 5.409 49.859 5.741 47.755 6.248L47.755 21.268L51.055 21.268L51.055 8.476C51.955 8.327 52.889 8.24 53.665 8.24C56.966 8.24 57.752 9.385 57.752 11.753L57.752 21.277L61.051 21.277L61.051 11.177C61.059 7.541 59.288 5.409 53.762 5.409Z" fill="rgb(237,28,36)" fill-opacity="1.000" fill-rule="nonzero" transform="matrix(1 0 0 1 14 18.6252)"/></svg>