<svg xmlns="http://www.w3.org/2000/svg" viewBox="0 0 60 60" width="60" height="60"><path d="M0 0L60 0L60 60L0 60L0 0Z" fill="rgb(0,0,0)" fill-opacity="1.000" fill-rule="nonzero" transform="matrix(1 0 0 1 0 0)"/><path d="M38.761 7.422L37.122 7.422L37.122 1.395L38.665 1.395L38.665 2.069C38.857 1.664 39.339 1.305 39.966 1.259C41.027 1.214 41.749 1.799 41.749 3.058L41.749 7.422L40.063 7.422L40.063 2.879C40.063 2.339 40.063 1.889 39.677 1.799C39.532 1.754 39.291 1.799 39.098 1.934C38.857 2.159 38.761 2.429 38.761 2.879L38.761 7.422ZM10.271 4.408C10.271 5.532 10.271 6.432 10.078 6.882C9.933 7.107 9.788 7.242 9.451 7.242C9.162 7.242 8.969 7.107 8.873 6.882C8.632 6.432 8.632 5.532 8.632 4.408C8.632 3.328 8.632 2.384 8.872 1.934C8.969 1.709 9.162 1.574 9.451 1.574C9.788 1.574 9.933 1.709 10.078 1.934C10.319 2.384 10.271 3.328 10.271 4.408ZM10.897 1.799C10.511 1.484 10.029 1.259 9.451 1.259C8.873 1.259 8.439 1.485 8.005 1.799C7.33 2.339 6.896 3.328 6.896 4.408C6.896 5.532 7.33 6.477 8.005 7.017C8.439 7.331 8.873 7.556 9.451 7.556C10.029 7.556 10.512 7.331 10.898 7.017C11.62 6.477 12.006 5.532 12.006 4.408C12.006 3.328 11.62 2.339 10.897 1.799ZM27.721 9.716L27.721 11.335L27.384 11.335C27.192 10.66 26.902 10.075 26.13 10.03C25.649 9.986 25.215 10.256 25.167 10.66C25.119 11.065 25.263 11.424 26.13 11.875C27.24 12.459 28.107 12.729 28.107 13.944C28.107 15.248 26.902 15.878 25.889 15.878L23.961 15.878L23.961 13.629L24.298 13.629C24.54 14.798 24.925 15.518 25.841 15.563C26.42 15.563 26.853 15.248 26.853 14.664C26.853 14.079 26.468 13.719 25.552 13.224C24.54 12.64 23.913 12.279 23.913 11.47C23.913 10.391 24.733 9.716 26.034 9.716L27.721 9.716ZM29.842 7.422L29.842 3.058C29.842 1.799 29.12 1.214 28.059 1.259C27.336 1.304 26.902 1.754 26.709 2.114C26.468 1.484 25.938 1.214 25.166 1.259C24.54 1.304 24.058 1.664 23.865 2.069L23.865 1.395L22.37 1.395L22.37 7.421L24.009 7.421L24.009 2.879C24.009 2.43 24.058 2.159 24.347 1.935C24.54 1.8 24.733 1.755 24.877 1.8C25.263 1.889 25.263 2.34 25.263 2.879L25.263 7.422L26.902 7.422L26.902 2.833C26.902 2.428 26.998 2.158 27.24 1.933C27.432 1.798 27.625 1.753 27.769 1.798C28.155 1.888 28.203 2.339 28.203 2.878L28.203 7.421L29.842 7.421L29.842 7.422ZM13.114 7.422L14.802 7.422L14.802 0.135L13.114 0.135L13.114 7.422ZM18.803 1.889C19.14 2.339 19.14 3.418 19.14 4.273C19.14 5.173 19.189 6.342 18.803 6.837C18.658 7.017 18.514 7.107 18.273 7.107C17.936 7.107 17.743 6.747 17.647 6.162C17.598 5.623 17.598 4.948 17.598 4.228C17.598 3.014 17.694 1.664 18.321 1.664C18.562 1.664 18.658 1.754 18.803 1.889ZM20.78 7.422L20.78 0.135L19.092 0.135L19.092 1.844C18.948 1.529 18.61 1.304 18.129 1.304C16.923 1.304 15.96 2.474 15.911 4.273C15.863 5.488 16.297 7.512 17.984 7.512C18.658 7.512 19.044 7.152 19.189 6.837L19.189 7.422L20.78 7.422ZM33.892 3.823L33.361 4.138C32.832 4.453 32.736 4.858 32.687 5.307C32.639 5.668 32.639 5.982 32.687 6.522C32.735 7.017 33.072 7.107 33.361 7.017C33.699 6.882 33.892 6.297 33.892 5.668L33.892 3.823ZM34.856 1.574C35.29 1.8 35.579 2.159 35.579 2.969L35.579 7.422L33.988 7.422L33.988 6.747C33.796 7.242 33.265 7.556 32.542 7.556C31.964 7.556 30.952 7.287 30.952 5.893C30.952 4.588 31.867 4.318 32.88 3.913C33.796 3.553 33.892 3.508 33.892 3.149L33.892 2.159C33.892 1.754 33.651 1.574 33.169 1.574C32.976 1.619 32.639 1.709 32.639 1.934C32.59 2.204 32.928 2.204 32.976 2.609C33.024 3.239 32.494 3.463 32.012 3.419C31.674 3.419 31.289 3.239 31.241 2.744C31.192 1.934 32.156 1.259 33.506 1.259C34.133 1.259 34.519 1.395 34.856 1.574ZM10.029 12.234L9.499 12.549C8.969 12.865 8.873 13.269 8.824 13.719C8.777 14.079 8.777 14.439 8.824 14.933C8.824 15.473 9.162 15.563 9.451 15.428C9.836 15.293 10.029 14.754 10.029 14.079L10.029 12.234ZM10.994 9.985C11.427 10.255 11.668 10.57 11.668 11.38L11.668 15.878L10.127 15.878L10.127 15.203C9.934 15.653 9.404 15.967 8.681 15.967C8.054 15.967 7.089 15.743 7.089 14.349C7.089 13.044 8.006 12.774 8.969 12.369C9.934 11.965 10.03 11.92 10.03 11.605L10.03 10.615C10.03 10.166 9.789 9.986 9.307 10.03C9.114 10.03 8.777 10.121 8.777 10.345C8.729 10.661 9.066 10.661 9.114 11.065C9.162 11.65 8.632 11.875 8.15 11.875C7.813 11.83 7.427 11.65 7.378 11.155C7.33 10.391 8.295 9.715 9.644 9.715C10.272 9.715 10.657 9.805 10.994 9.986L10.994 9.985ZM22.66 11.515C22.66 10.256 21.937 9.626 20.876 9.716C20.346 9.76 19.912 9.985 19.671 10.3L19.671 8.546L18.031 8.546L18.031 12.685C18.031 14.213 16.874 15.653 15.717 15.608C14.898 15.608 14.705 15.023 14.608 14.394C14.464 13.494 14.464 12.46 14.56 11.335C14.657 10.615 14.85 10.03 15.428 10.03C15.862 10.03 15.91 10.3 15.717 10.48C15.524 10.706 15.235 10.93 15.38 11.425C15.524 11.965 16.44 12.054 16.874 11.65C17.211 11.29 17.163 10.705 16.923 10.345C16.633 9.896 16.151 9.716 15.428 9.716C14.512 9.716 12.777 10.48 12.777 12.909C12.777 15.518 14.56 15.968 15.572 15.968C16.73 15.968 17.741 15.023 18.031 14.258L18.031 15.878L19.67 15.878L19.67 11.335C19.67 10.886 19.766 10.615 20.008 10.39C20.201 10.255 20.442 10.21 20.586 10.255C20.972 10.345 20.972 10.795 20.972 11.335L20.972 15.878L22.659 15.878L22.66 11.515ZM5.787 0L5.787 2.564L5.45 2.564C5.161 1.305 4.534 0.36 3.666 0.315C3.088 0.27 2.75 0.584 2.461 1.034C2.172 1.574 2.027 2.699 2.027 4.047C2.027 5.307 2.075 6.252 2.22 6.927C2.316 7.242 2.557 7.736 3.184 7.736C3.522 7.736 3.763 7.647 3.907 7.467C4.148 7.197 4.196 6.657 4.196 6.297L4.196 5.082C4.196 4.633 4.052 4.363 3.811 4.228C3.618 4.138 3.329 4.138 3.185 4.093L3.185 3.778L5.883 3.778L5.883 10.211L5.546 10.211C5.402 9.716 5.306 9.356 5.064 8.951C4.824 8.546 4.389 8.096 3.666 8.096C2.895 8.051 2.316 8.501 2.316 9.176C2.316 10.075 2.895 10.3 3.955 10.84C4.968 11.38 6.27 11.83 6.27 13.404C6.27 14.933 4.871 15.878 3.281 15.878L0.726 15.878L0.726 12.774L1.063 12.774C1.497 15.114 2.557 15.518 3.281 15.518C4.196 15.518 4.63 14.978 4.63 14.214C4.582 13.224 3.859 12.865 2.847 12.37C1.401 11.605 0.726 11.245 0.726 9.986C0.774 8.906 1.69 8.232 2.702 7.962C0.581 7.736 -0.046 5.938 0.003 4.003C0.003 2.069 1.208 0 3.57 0L5.787 0Z" fill="rgb(255,255,255)" fill-opacity="1.000" fill-rule="evenodd" transform="matrix(1 0 0 1 9 22)"/></svg>