<svg xmlns="http://www.w3.org/2000/svg" viewBox="0 0 60 60" width="60" height="60"><path d="M0 0L60 0L60 60L0 60L0 0Z" fill="rgb(255,255,255)" fill-opacity="1.000" fill-rule="nonzero" transform="matrix(1 0 0 1 0 0)"/><path d="M1.575 12.444L1.575 7.403L4.176 7.403C5.242 7.403 6.142 7.046 6.876 6.341L7.052 6.163C8.392 4.704 8.304 2.432 6.876 1.082C6.162 0.368 5.184 -0.019 4.176 0.001L0 0.001L0 12.444L1.575 12.444ZM1.575 5.875L1.575 1.529L4.216 1.529C4.783 1.529 5.321 1.747 5.722 2.144C6.573 2.977 6.593 4.367 5.771 5.23C5.37 5.657 4.803 5.895 4.216 5.875L1.575 5.875ZM14.397 4.595C13.722 3.97 12.802 3.652 11.638 3.652C10.142 3.652 9.017 4.208 8.274 5.309L9.663 6.192C10.171 5.438 10.866 5.061 11.746 5.061C12.303 5.061 12.841 5.27 13.262 5.647C13.673 6.004 13.907 6.52 13.907 7.066L13.907 7.433C13.301 7.095 12.538 6.917 11.599 6.917C10.504 6.917 9.624 7.175 8.968 7.701C8.313 8.227 7.98 8.921 7.98 9.804C7.961 10.608 8.303 11.372 8.91 11.888C9.526 12.444 10.308 12.722 11.228 12.722C12.313 12.722 13.174 12.235 13.829 11.263L13.898 11.263L13.898 12.444L15.404 12.444L15.404 7.195C15.404 6.093 15.071 5.22 14.397 4.595ZM10.123 10.876C9.8 10.638 9.605 10.251 9.605 9.834C9.605 9.368 9.82 8.981 10.241 8.673C10.671 8.366 11.209 8.207 11.845 8.207C12.725 8.197 13.41 8.395 13.899 8.792C13.899 9.467 13.635 10.052 13.117 10.549C12.647 11.025 12.011 11.293 11.346 11.293C10.906 11.303 10.475 11.154 10.123 10.876ZM18.788 16.185L24.05 3.93L22.339 3.93L19.903 10.042L19.874 10.042L17.38 3.93L15.668 3.93L19.121 11.898L17.165 16.185L18.788 16.185Z" fill="rgb(60,64,67)" fill-opacity="1.000" fill-rule="evenodd" transform="matrix(1 0 0 1 26.6644 22.8154)"/><path d="M6.758 1.449C6.758 0.963 6.719 0.476 6.641 0L0 0L0 2.749L3.805 2.749C3.648 3.632 3.14 4.426 2.396 4.922L2.396 6.708L4.665 6.708C5.995 5.467 6.758 3.632 6.758 1.449Z" fill="rgb(66,133,244)" fill-opacity="1.000" fill-rule="nonzero" transform="matrix(1 0 0 1 16.0443 27.6782)"/><path d="M6.289 5.775C8.186 5.775 9.79 5.14 10.954 4.048L8.685 2.262C8.049 2.699 7.238 2.947 6.289 2.947C4.45 2.947 2.895 1.687 2.338 0L0 0L0 1.846C1.193 4.257 3.629 5.775 6.289 5.775Z" fill="rgb(52,168,83)" fill-opacity="1.000" fill-rule="nonzero" transform="matrix(1 0 0 1 9.7557 30.3375)"/><path d="M3.094 4.574C2.8 3.691 2.8 2.729 3.094 1.836L3.094 0L0.756 0C-0.252 2.014 -0.252 4.396 0.756 6.41L3.094 4.574Z" fill="rgb(251,188,4)" fill-opacity="1.000" fill-rule="nonzero" transform="matrix(1 0 0 1 9 25.7631)"/><path d="M6.289 2.828C7.296 2.809 8.265 3.196 8.988 3.9L11.003 1.856C9.722 0.645 8.04 -0.019 6.289 0C3.629 0 1.193 1.529 0 3.94L2.338 5.785C2.895 4.089 4.45 2.828 6.289 2.828Z" fill="rgb(234,67,53)" fill-opacity="1.000" fill-rule="nonzero" transform="matrix(1 0 0 1 9.7557 21.8234)"/></svg>