<svg xmlns="http://www.w3.org/2000/svg" viewBox="0 0 130 60" width="130" height="60"><path d="M0 0L130 0L130 60L0 60L0 0Z" fill="rgb(255,255,255)" fill-opacity="1.000" fill-rule="nonzero" transform="matrix(1 0 0 1 0 0)"/><path d="M23.968 0L0 0L0 24L23.968 24L23.968 0Z" fill="rgb(0,200,141)" fill-opacity="1.000" fill-rule="nonzero" transform="matrix(1 0 0 1 9 18)"/><path d="M6.162 0L10.801 11.126L9.266 11.126L5.324 1.92L1.535 11.126L0 11.126L4.485 0L6.162 0Z" fill="rgb(23,84,89)" fill-opacity="1.000" fill-rule="evenodd" transform="matrix(1 0 0 1 15.583 24.437)"/><path d="M5.706 9.777C4.899 9.778 4.11 9.54 3.439 9.093C2.767 8.645 2.244 8.009 1.934 7.264C1.625 6.519 1.543 5.699 1.7 4.907C1.856 4.116 2.244 3.388 2.814 2.818C3.384 2.247 4.111 1.858 4.902 1.7C5.693 1.542 6.514 1.622 7.259 1.931C8.005 2.239 8.642 2.762 9.09 3.433C9.539 4.104 9.778 4.892 9.778 5.699C9.778 6.234 9.673 6.764 9.469 7.259C9.265 7.753 8.965 8.203 8.587 8.581C8.208 8.96 7.759 9.261 7.265 9.466C6.771 9.671 6.241 9.777 5.706 9.777ZM5.706 0C4.578 -0.001 3.476 0.332 2.538 0.958C1.599 1.583 0.868 2.473 0.436 3.515C0.003 4.556 -0.11 5.702 0.109 6.808C0.328 7.914 0.87 8.931 1.667 9.728C2.464 10.526 3.48 11.07 4.586 11.29C5.692 11.51 6.838 11.398 7.88 10.967C8.922 10.535 9.812 9.805 10.439 8.867C11.066 7.93 11.4 6.828 11.4 5.7C11.4 4.189 10.8 2.74 9.733 1.672C8.665 0.603 7.217 0.002 5.706 0Z" fill="rgb(23,84,89)" fill-opacity="1.000" fill-rule="nonzero" transform="matrix(1 0 0 1 76.968 26.1)"/><path d="M1.623 4.584L1.623 1.625L4.913 1.625C5.108 1.621 5.301 1.655 5.482 1.726C5.664 1.797 5.829 1.903 5.97 2.038C6.11 2.172 6.223 2.333 6.301 2.512C6.379 2.69 6.422 2.882 6.426 3.076C6.43 3.271 6.395 3.465 6.324 3.646C6.254 3.827 6.148 3.993 6.013 4.133C5.878 4.274 5.717 4.386 5.539 4.465C5.361 4.543 5.169 4.585 4.974 4.589L4.913 4.589L1.623 4.584ZM8.01 3.1C8.01 2.278 7.683 1.489 7.102 0.908C6.521 0.327 5.732 0 4.91 0L0 0L0 11.044L1.621 11.044L1.621 6.204L4.185 6.204L6.765 11.042L8.594 11.042L5.923 6.029C6.532 5.818 7.06 5.423 7.434 4.898C7.807 4.373 8.008 3.744 8.008 3.1L8.01 3.1Z" fill="rgb(23,84,89)" fill-opacity="1.000" fill-rule="nonzero" transform="matrix(1 0 0 1 94.868 26.278)"/><path d="M5.822 6.387L9.522 6.387L9.522 7.272C9.335 7.812 9.022 8.3 8.611 8.697C7.819 9.417 6.78 9.804 5.711 9.778C5.039 9.78 4.377 9.616 3.784 9.3C3.19 8.985 2.684 8.528 2.31 7.969C1.937 7.411 1.706 6.769 1.64 6.101C1.574 5.432 1.675 4.757 1.932 4.137C2.19 3.516 2.597 2.969 3.117 2.544C3.637 2.118 4.254 1.828 4.913 1.698C5.572 1.569 6.253 1.604 6.896 1.802C7.538 1.999 8.122 2.352 8.595 2.829L9.695 1.634C9.027 0.978 8.209 0.497 7.311 0.232C6.414 -0.032 5.465 -0.071 4.549 0.118C3.632 0.307 2.776 0.718 2.057 1.316C1.337 1.914 0.776 2.68 0.422 3.547C0.069 4.413 -0.066 5.353 0.03 6.284C0.126 7.214 0.449 8.107 0.972 8.883C1.494 9.659 2.2 10.295 3.026 10.734C3.852 11.173 4.774 11.402 5.71 11.4C6.915 11.447 8.102 11.093 9.085 10.393C10.068 9.694 10.792 8.688 11.143 7.534L11.143 4.765L5.823 4.765L5.822 6.387Z" fill="rgb(23,84,89)" fill-opacity="1.000" fill-rule="nonzero" transform="matrix(1 0 0 1 59.9813 26.096)"/><path d="M3.554 6.76L5.489 2.123L7.425 6.76L3.554 6.76ZM6.354 0L4.615 0L0 11.045L1.755 11.045L2.867 8.381L8.093 8.381L9.205 11.045L10.96 11.045L6.349 0.002L6.354 0Z" fill="rgb(23,84,89)" fill-opacity="1.000" fill-rule="nonzero" transform="matrix(1 0 0 1 109.036 26.276)"/><path d="M3.679 0L0.647 0L0 1.547L3.678 1.547L3.679 0Z" fill="rgb(23,84,89)" fill-opacity="1.000" fill-rule="nonzero" transform="matrix(1 0 0 1 49.412 22.497)"/><path d="M3.543 6.76L5.478 2.123L7.414 6.76L3.543 6.76ZM4.615 0L0 11.045L1.755 11.045L2.866 8.381L8.09 8.381L9.202 11.045L10.956 11.045L6.346 0L4.615 0Z" fill="rgb(23,84,89)" fill-opacity="1.000" fill-rule="nonzero" transform="matrix(1 0 0 1 43.876 26.276)"/></svg>