<svg xmlns="http://www.w3.org/2000/svg" viewBox="0 0 60 60" width="60" height="60"><path d="M0 0L60 0L60 60L0 60L0 0Z" fill="rgb(86,172,53)" fill-opacity="1.000" fill-rule="nonzero" transform="matrix(1 0 0 1 0 0)"/><path d="M0 0C2.424 2.954 4.679 5.975 6.604 8.68C8.557 11.675 10.096 14.391 11.347 16.4C19.061 28.812 -0.279 31.79 2.383 28.757C5.043 25.723 5.283 20.95 5.01 18.203C4.362 11.729 3.613 7.961 0 0Z" fill="rgb(255,255,255)" fill-opacity="1.000" fill-rule="evenodd" transform="matrix(0.9992 -0.0397 -0.0397 -0.9992 30.399 53.0649)"/><path d="M34.835 23.666C37.462 18.378 35.064 10.375 27.457 0C29.651 7.02 27.713 14.268 24.154 18.769C19.866 24.187 11.763 28.791 0 32.699C20.594 31.966 32.206 28.955 34.835 23.666Z" fill="rgb(255,255,255)" fill-opacity="1.000" fill-rule="evenodd" transform="matrix(0.9992 -0.0397 -0.0397 -0.9992 9.2974 45.0957)"/></svg>