<svg xmlns="http://www.w3.org/2000/svg" viewBox="0 0 130 60" width="130" height="60"><path d="M0 0L130 0L130 60L0 60L0 0Z" fill="rgb(255,255,255)" fill-opacity="1.000" fill-rule="nonzero" transform="matrix(1 0 0 1 0 0)"/><path d="M0 7.46L0 7.419C0 3.341 3.128 0 7.406 0C9.948 0 11.482 0.697 12.955 1.968L10.998 4.365C9.908 3.443 8.939 2.91 7.305 2.91C5.045 2.91 3.249 4.939 3.249 7.378L3.249 7.419C3.249 10.042 5.025 11.969 7.527 11.969C8.657 11.969 9.666 11.682 10.453 11.108L10.453 9.059L7.325 9.059L7.325 6.333L13.459 6.333L13.459 12.563C12.006 13.814 10.009 14.838 7.426 14.838C3.027 14.838 0 11.703 0 7.46Z" fill="rgb(19,119,61)" fill-opacity="1.000" fill-rule="evenodd" transform="matrix(1 0 0 1 9 25.1139)"/><path d="M0 0.21L3.068 0.21L3.068 2.423C3.693 0.907 4.702 -0.077 6.518 0.005L6.518 3.263L6.357 3.263C4.318 3.263 3.068 4.514 3.068 7.137L3.068 11.195L0 11.195L0 0.21Z" fill="rgb(19,119,61)" fill-opacity="1.000" fill-rule="evenodd" transform="matrix(1 0 0 1 24.1151 28.5113)"/><path d="M7.627 4.837C7.446 3.443 6.639 2.501 5.347 2.501C4.076 2.501 3.248 3.423 3.007 4.837L7.627 4.837ZM0 5.759L0 5.718C0 2.582 2.199 0 5.347 0C8.959 0 10.614 2.849 10.614 5.964C10.614 6.21 10.594 6.497 10.574 6.784L3.047 6.784C3.35 8.198 4.318 8.936 5.69 8.936C6.72 8.936 7.466 8.608 8.313 7.809L10.069 9.387C9.06 10.657 7.607 11.436 5.65 11.436C2.401 11.436 0 9.12 0 5.759Z" fill="rgb(19,119,61)" fill-opacity="1.000" fill-rule="evenodd" transform="matrix(1 0 0 1 31.2185 28.5162)"/><path d="M7.627 4.837C7.446 3.443 6.639 2.501 5.347 2.501C4.076 2.501 3.249 3.423 3.007 4.837L7.627 4.837ZM0 5.759L0 5.718C0 2.582 2.199 0 5.347 0C8.959 0 10.614 2.849 10.614 5.964C10.614 6.21 10.594 6.497 10.574 6.784L3.047 6.784C3.35 8.198 4.318 8.936 5.69 8.936C6.719 8.936 7.466 8.608 8.313 7.809L10.069 9.387C9.06 10.657 7.607 11.436 5.65 11.436C2.401 11.436 0 9.12 0 5.759Z" fill="rgb(19,119,61)" fill-opacity="1.000" fill-rule="evenodd" transform="matrix(1 0 0 1 42.782 28.5162)"/><path d="M0 0.205L3.067 0.205L3.067 1.762C3.773 0.84 4.681 0 6.235 0C8.556 0 9.908 1.558 9.908 4.079L9.908 11.19L6.84 11.19L6.84 5.062C6.84 3.587 6.154 2.828 4.984 2.828C3.813 2.828 3.067 3.587 3.067 5.062L3.067 11.19L0 11.19L0 0.205Z" fill="rgb(19,119,61)" fill-opacity="1.000" fill-rule="evenodd" transform="matrix(1 0 0 1 54.4655 28.5162)"/><path d="M8.293 5.718L8.293 5.677C8.293 3.853 7.083 2.644 5.65 2.644C4.217 2.644 3.027 3.853 3.027 5.677L3.027 5.718C3.027 7.542 4.217 8.751 5.65 8.751C7.083 8.751 8.293 7.563 8.293 5.718ZM0 0.205L3.067 0.205L3.067 1.783C3.814 0.758 4.843 0 6.437 0C8.959 0 11.36 2.009 11.36 5.677L11.36 5.718C11.36 9.386 8.999 11.395 6.437 11.395C4.802 11.395 3.794 10.637 3.067 9.755L3.067 14.469L0 14.469L0 0.205Z" fill="rgb(88,95,96)" fill-opacity="1.000" fill-rule="evenodd" transform="matrix(1 0 0 1 65.7454 28.5165)"/><path d="M7.042 7.235L7.042 6.681C6.517 6.435 5.832 6.271 5.085 6.271C3.773 6.271 2.966 6.804 2.966 7.788L2.966 7.829C2.966 8.669 3.652 9.161 4.641 9.161C6.074 9.161 7.042 8.362 7.042 7.235ZM0 7.952L0 7.911C0 5.513 1.796 4.406 4.358 4.406C5.448 4.406 6.235 4.591 7.002 4.857L7.002 4.673C7.002 3.382 6.215 2.664 4.681 2.664C3.511 2.664 2.684 2.89 1.695 3.259L0.928 0.881C2.118 0.348 3.289 0 5.125 0C6.8 0 8.011 0.451 8.778 1.23C9.584 2.049 9.948 3.259 9.948 4.734L9.948 11.108L6.982 11.108L6.982 9.919C6.235 10.76 5.206 11.313 3.713 11.313C1.675 11.313 0 10.124 0 7.952Z" fill="rgb(88,95,96)" fill-opacity="1.000" fill-rule="evenodd" transform="matrix(1 0 0 1 77.7121 28.5985)"/><path d="M0 9.694L1.311 7.645C2.482 8.505 3.713 8.956 4.722 8.956C5.61 8.956 6.013 8.628 6.013 8.137L6.013 8.095C6.013 7.419 4.964 7.194 3.773 6.825C2.26 6.374 0.544 5.657 0.544 3.525L0.544 3.484C0.544 1.25 2.32 0 4.499 0C5.872 0 7.365 0.471 8.536 1.271L7.365 3.423C6.296 2.787 5.226 2.398 4.439 2.398C3.693 2.398 3.309 2.726 3.309 3.156L3.309 3.197C3.309 3.812 4.338 4.099 5.509 4.509C7.022 5.021 8.778 5.759 8.778 7.767L8.778 7.809C8.778 10.247 6.982 11.354 4.641 11.354C3.127 11.354 1.432 10.842 0 9.694Z" fill="rgb(88,95,96)" fill-opacity="1.000" fill-rule="evenodd" transform="matrix(1 0 0 1 88.7504 28.5573)"/><path d="M0 9.694L1.312 7.645C2.482 8.505 3.713 8.956 4.722 8.956C5.61 8.956 6.013 8.628 6.013 8.137L6.013 8.095C6.013 7.419 4.964 7.194 3.773 6.825C2.26 6.374 0.545 5.657 0.545 3.525L0.545 3.484C0.545 1.25 2.32 0 4.5 0C5.872 0 7.366 0.471 8.536 1.271L7.366 3.423C6.296 2.787 5.226 2.398 4.44 2.398C3.692 2.398 3.31 2.726 3.31 3.156L3.31 3.197C3.31 3.812 4.339 4.099 5.509 4.509C7.022 5.021 8.778 5.759 8.778 7.767L8.778 7.809C8.778 10.247 6.982 11.354 4.641 11.354C3.128 11.354 1.433 10.842 0 9.694Z" fill="rgb(88,95,96)" fill-opacity="1.000" fill-rule="evenodd" transform="matrix(1 0 0 1 98.2754 28.5573)"/><path d="M0 0C1.489 1.815 2.874 3.67 4.057 5.332C5.257 7.172 6.202 8.84 6.971 10.075C11.709 17.699 -0.172 19.529 1.464 17.666C3.098 15.802 3.246 12.87 3.078 11.182C2.68 7.205 2.22 4.891 0 0Z" fill="rgb(19,119,61)" fill-opacity="1.000" fill-rule="evenodd" transform="matrix(0.9992 -0.0397 -0.0397 -0.9992 111.3636 42.8411)"/><path d="M21.4 14.538C23.014 11.29 21.54 6.374 16.867 0C18.215 4.312 17.025 8.765 14.838 11.53C12.204 14.859 7.226 17.687 0 20.087C12.651 19.637 19.785 17.788 21.4 14.538Z" fill="rgb(86,172,53)" fill-opacity="1.000" fill-rule="evenodd" transform="matrix(0.9992 -0.0397 -0.0397 -0.9992 98.4006 37.9454)"/></svg>