<svg xmlns="http://www.w3.org/2000/svg" viewBox="0 0 60 60" width="60" height="60"><path d="M0 0L60 0L60 60L0 60L0 0Z" fill="rgb(243,116,33)" fill-opacity="1.000" fill-rule="nonzero" transform="matrix(1 0 0 1 0 0)"/><path d="M0 0L0 13.507L3.064 13.507L3.064 7.857L8.097 7.857L8.097 13.507L11.145 13.507L11.145 0L8.097 0L8.097 5.195L3.064 5.195L3.064 0L0 0Z" fill="rgb(255,255,255)" fill-opacity="1.000" fill-rule="nonzero" transform="matrix(1 0 0 1 7.8232 21.6103)"/><path d="M9.216 6.098C9.254 5.874 9.316 5.418 9.316 4.893C9.316 2.47 8.112 0 4.948 0C1.544 0 0 2.748 0 5.233C0 8.297 1.906 10.227 5.233 10.227C6.553 10.227 7.78 10.026 8.784 9.625L8.382 7.564C7.564 7.827 6.715 7.965 5.673 7.965C4.253 7.965 3.01 7.363 2.91 6.105L9.216 6.105L9.216 6.098ZM2.879 4.014C2.956 3.195 3.481 2.03 4.762 2.03C6.167 2.03 6.483 3.273 6.483 4.014L2.879 4.014Z" fill="rgb(255,255,255)" fill-opacity="1.000" fill-rule="nonzero" transform="matrix(1 0 0 1 36.1345 25.0913)"/><path d="M0.077 10.019L3.126 10.019L3.126 5.048C3.126 4.809 3.149 4.569 3.188 4.369C3.388 3.427 4.153 2.825 5.272 2.825C5.611 2.825 5.874 2.864 6.09 2.902L6.09 0.039C5.866 0 5.727 0 5.449 0C4.508 0 3.303 0.602 2.802 2.022L2.725 2.022L2.624 0.216L0 0.216C0.039 1.057 0.077 1.999 0.077 3.442L0.077 10.019Z" fill="rgb(255,255,255)" fill-opacity="1.000" fill-rule="nonzero" transform="matrix(1 0 0 1 46.3458 25.0991)"/><path d="M1.567 0C2.431 0 3.134 0.702 3.134 1.567C3.134 2.431 2.431 3.134 1.567 3.134C0.702 3.134 0 2.431 0 1.567C0 0.702 0.702 0 1.567 0Z" fill="rgb(255,231,0)" fill-opacity="1.000" fill-rule="evenodd" transform="matrix(1 0 0 1 20.4968 21.07)"/><path d="M8.004 7.729L9.532 7.729C11.068 7.729 11.763 6.749 11.763 5.723C11.763 4.696 11.686 2.381 9.795 2.381C7.618 2.381 7.965 5.26 7.981 6.765C7.973 7.089 7.996 7.413 8.004 7.729ZM0 0.204L3.134 0.204L3.134 5.73C3.134 6.757 3.705 7.737 4.963 7.737C4.971 5.252 4.963 2.689 4.878 0.204L7.495 0.204C7.549 0.683 7.603 1.161 7.649 1.64C8.884 -0.83 12.782 -0.29 14.094 1.802C15.445 3.955 15.908 10.13 9.532 10.13L8.05 10.13C8.066 11.38 8.066 12.638 8.066 13.897L4.932 13.897C4.932 12.692 4.94 11.427 4.948 10.13C1.559 10.114 0 7.969 0 5.73L0 0.204Z" fill="rgb(255,255,255)" fill-opacity="1.000" fill-rule="evenodd" transform="matrix(1 0 0 1 20.4968 25.1034)"/></svg>