<svg xmlns="http://www.w3.org/2000/svg" viewBox="0 0 60 60" width="60" height="60"><path d="M0 0L60 0L60 60L0 60L0 0Z" fill="rgb(179,19,27)" fill-opacity="1.000" fill-rule="nonzero" transform="matrix(1 0 0 1 0 0)"/><path d="M22.139 22.992L0 23L0 22.947C0 22.918 0.035 22.728 0.078 22.526C0.122 22.324 0.189 22.002 0.228 21.811C0.266 21.62 0.333 21.295 0.375 21.09C0.417 20.884 0.488 20.541 0.531 20.328C0.575 20.115 0.643 19.779 0.683 19.58C0.723 19.382 0.79 19.058 0.831 18.859C0.873 18.661 0.944 18.318 0.989 18.098C1.034 17.877 1.102 17.541 1.141 17.35C1.179 17.159 1.241 16.864 1.277 16.695C1.313 16.527 1.36 16.298 1.38 16.188C1.4 16.078 1.466 15.753 1.526 15.467C1.586 15.18 1.652 14.856 1.673 14.745C1.694 14.635 1.761 14.311 1.821 14.024C1.882 13.738 1.948 13.413 1.969 13.303C1.989 13.193 2.056 12.868 2.117 12.582C2.178 12.295 2.243 11.977 2.263 11.874C2.282 11.771 2.335 11.507 2.381 11.286C2.426 11.066 2.513 10.651 2.572 10.365C2.632 10.078 2.735 9.579 2.8 9.256C2.865 8.933 2.943 8.548 2.973 8.401C3.003 8.254 3.057 7.99 3.094 7.814C3.13 7.637 3.196 7.319 3.24 7.106C3.285 6.893 3.357 6.544 3.401 6.331C3.445 6.118 3.512 5.788 3.551 5.597C3.589 5.406 3.656 5.087 3.698 4.889C3.74 4.69 3.812 4.342 3.858 4.114C3.905 3.886 3.982 3.538 4.031 3.339C4.079 3.141 4.148 2.901 4.183 2.805C4.219 2.71 4.316 2.503 4.4 2.345L4.553 2.059L4.691 1.878C4.768 1.778 4.904 1.621 4.994 1.528C5.084 1.435 5.236 1.296 5.332 1.218C5.428 1.14 5.567 1.035 5.64 0.984C5.714 0.934 5.859 0.845 5.962 0.788C6.065 0.73 6.21 0.655 6.283 0.62C6.357 0.586 6.508 0.522 6.618 0.48C6.729 0.437 6.94 0.366 7.087 0.321C7.235 0.277 7.511 0.209 7.702 0.172C7.893 0.134 8.194 0.084 8.372 0.06L8.695 0.017L30.847 0.008L53 0L53 0.053C53 0.082 52.964 0.272 52.921 0.474C52.878 0.676 52.805 1.022 52.76 1.242C52.714 1.463 52.648 1.781 52.613 1.95C52.577 2.119 52.51 2.444 52.464 2.672C52.417 2.899 52.345 3.248 52.304 3.446C52.263 3.645 52.197 3.969 52.156 4.167C52.116 4.366 52.049 4.69 52.008 4.889C51.966 5.087 51.902 5.4 51.865 5.583C51.827 5.767 51.76 6.097 51.715 6.318C51.67 6.538 51.598 6.887 51.554 7.092C51.511 7.298 51.444 7.617 51.407 7.8C51.37 7.984 51.302 8.315 51.257 8.535C51.212 8.755 51.14 9.104 51.097 9.31C51.053 9.515 50.989 9.828 50.953 10.004C50.917 10.18 50.85 10.511 50.804 10.739C50.757 10.966 50.69 11.297 50.654 11.473C50.617 11.65 50.553 11.962 50.51 12.168C50.467 12.373 50.394 12.728 50.347 12.956C50.3 13.184 50.233 13.508 50.198 13.677C50.163 13.846 50.098 14.165 50.053 14.385C50.008 14.605 49.936 14.954 49.893 15.16C49.851 15.365 49.784 15.69 49.745 15.881C49.706 16.072 49.638 16.402 49.594 16.615C49.55 16.828 49.479 17.177 49.435 17.39C49.391 17.603 49.326 17.922 49.289 18.098C49.253 18.274 49.186 18.599 49.141 18.819C49.097 19.039 49.023 19.387 48.979 19.591L48.898 19.962L48.802 20.219C48.749 20.36 48.67 20.547 48.626 20.636C48.581 20.724 48.491 20.879 48.425 20.981C48.359 21.083 48.268 21.214 48.221 21.271C48.175 21.329 48.035 21.478 47.911 21.602L47.685 21.829L47.467 21.983C47.348 22.067 47.219 22.154 47.181 22.174C47.143 22.195 46.999 22.268 46.861 22.337C46.723 22.406 46.527 22.494 46.427 22.532C46.326 22.571 46.127 22.636 45.985 22.677C45.842 22.719 45.689 22.76 45.645 22.768C45.601 22.776 45.447 22.808 45.304 22.838C45.16 22.869 44.871 22.914 44.661 22.939L44.278 22.984L22.139 22.992ZM14.262 17.283L14.839 17.283L14.855 17.241C14.864 17.218 14.871 17.163 14.871 17.119C14.871 17.076 14.89 16.918 14.913 16.768C14.936 16.618 14.991 16.273 15.034 16.001C15.078 15.729 15.143 15.32 15.179 15.093C15.215 14.865 15.259 14.574 15.276 14.445C15.294 14.316 15.316 14.211 15.324 14.211C15.333 14.211 15.37 14.268 15.407 14.337L15.474 14.464L15.623 14.613L15.771 14.762L15.954 14.835L16.137 14.908L16.355 14.936L16.573 14.964L16.849 14.947L17.126 14.931L17.425 14.853L17.725 14.776L17.885 14.703C17.974 14.663 18.131 14.575 18.234 14.508L18.421 14.386L18.596 14.212C18.692 14.116 18.828 13.962 18.898 13.87C18.967 13.778 19.024 13.696 19.024 13.688C19.024 13.68 19.058 13.623 19.1 13.562C19.142 13.5 19.228 13.33 19.29 13.183C19.353 13.036 19.451 12.771 19.508 12.595L19.612 12.275L19.666 11.997C19.695 11.844 19.733 11.592 19.75 11.436L19.781 11.153L19.763 10.912L19.745 10.672L19.69 10.431L19.634 10.191L19.543 10.011L19.453 9.831L19.278 9.646L19.103 9.462L18.896 9.355L18.689 9.248L18.462 9.194L18.234 9.14L18.006 9.123L17.778 9.106L17.525 9.135L17.271 9.164L17.064 9.217L16.857 9.27L16.677 9.353C16.578 9.399 16.434 9.476 16.357 9.525C16.28 9.574 16.2 9.631 16.18 9.651C16.16 9.671 16.112 9.708 16.073 9.733L16.003 9.779L16.052 9.544C16.079 9.415 16.102 9.295 16.103 9.276L16.104 9.243L15.612 9.243L15.121 9.243L15.035 9.784C14.988 10.081 14.913 10.541 14.869 10.805C14.825 11.07 14.758 11.467 14.721 11.687C14.684 11.907 14.618 12.298 14.574 12.555C14.53 12.812 14.458 13.221 14.413 13.463C14.368 13.706 14.303 14.06 14.267 14.251C14.232 14.442 14.166 14.803 14.12 15.053C14.074 15.302 14 15.699 13.956 15.934C13.911 16.169 13.839 16.542 13.795 16.762C13.751 16.983 13.709 17.19 13.701 17.223L13.686 17.283L14.262 17.283ZM16.743 14.195L16.519 14.208L16.373 14.182L16.227 14.157L16.078 14.089L15.929 14.021L15.826 13.923L15.722 13.824L15.662 13.69C15.629 13.617 15.587 13.492 15.568 13.413L15.534 13.269L15.548 13.039L15.561 12.809L15.63 12.448C15.668 12.25 15.736 11.877 15.782 11.62C15.827 11.363 15.896 10.986 15.934 10.783L16.005 10.413L16.158 10.286C16.243 10.216 16.376 10.122 16.456 10.077L16.599 9.996L16.787 9.938L16.974 9.88L17.216 9.866L17.457 9.852L17.653 9.894L17.849 9.935L17.988 9.999L18.127 10.063L18.243 10.179L18.359 10.295L18.422 10.419C18.456 10.487 18.505 10.619 18.529 10.714L18.574 10.886L18.561 11.393L18.547 11.901L18.478 12.201C18.44 12.366 18.368 12.618 18.318 12.762L18.227 13.023L18.115 13.234C18.053 13.35 17.958 13.507 17.904 13.583C17.85 13.658 17.763 13.757 17.711 13.801C17.66 13.845 17.573 13.914 17.519 13.954L17.421 14.027L17.194 14.104L16.966 14.181L16.743 14.195ZM22.307 14.929L22.601 14.932L22.896 14.906C23.058 14.891 23.323 14.86 23.486 14.837C23.648 14.815 23.928 14.764 24.108 14.724L24.435 14.652L24.452 14.532C24.461 14.466 24.498 14.269 24.534 14.094L24.599 13.776L24.585 13.762L24.57 13.748L24.47 13.796C24.415 13.822 24.243 13.886 24.089 13.936L23.808 14.029L23.513 14.086L23.218 14.143L22.749 14.144L22.28 14.144L22.119 14.093C22.031 14.065 21.901 14.014 21.83 13.979L21.702 13.916L21.596 13.82L21.49 13.725L21.408 13.581L21.325 13.437L21.273 13.257L21.221 13.076L21.221 12.742L21.221 12.408L21.267 12.11L21.313 11.812L21.716 11.793L22.119 11.775L23.61 11.784L25.1 11.794L25.145 11.603C25.17 11.499 25.208 11.282 25.229 11.123L25.268 10.832L25.269 10.588L25.27 10.343L25.227 10.161L25.185 9.979L25.115 9.858C25.076 9.791 25.008 9.695 24.964 9.644C24.919 9.593 24.84 9.52 24.787 9.483C24.734 9.446 24.631 9.384 24.557 9.345L24.423 9.274L24.189 9.218L23.955 9.161L23.667 9.134L23.378 9.106L23.11 9.124L22.843 9.141L22.521 9.203L22.199 9.264L21.998 9.344C21.888 9.388 21.719 9.469 21.623 9.523C21.528 9.577 21.395 9.665 21.329 9.719C21.262 9.772 21.147 9.876 21.073 9.95C20.999 10.024 20.89 10.156 20.83 10.244C20.77 10.333 20.679 10.489 20.626 10.592C20.574 10.695 20.506 10.839 20.475 10.912C20.444 10.986 20.388 11.136 20.35 11.246C20.312 11.356 20.253 11.567 20.218 11.714C20.183 11.861 20.135 12.102 20.112 12.251L20.069 12.521L20.07 12.919L20.07 13.316L20.111 13.49C20.133 13.586 20.176 13.73 20.206 13.811C20.236 13.891 20.291 14.012 20.329 14.078C20.367 14.144 20.447 14.25 20.508 14.314C20.569 14.378 20.679 14.475 20.753 14.53C20.826 14.585 20.957 14.662 21.044 14.701L21.202 14.772L21.421 14.825C21.542 14.854 21.724 14.889 21.826 14.902C21.928 14.915 22.145 14.927 22.307 14.929ZM22.811 11.166C22.07 11.166 21.463 11.161 21.463 11.154C21.463 11.148 21.494 11.055 21.533 10.947C21.572 10.84 21.64 10.68 21.684 10.592L21.765 10.432L21.942 10.256L22.119 10.081L22.293 9.998C22.389 9.952 22.516 9.902 22.575 9.887C22.634 9.872 22.802 9.852 22.95 9.843L23.218 9.826L23.423 9.852L23.629 9.878L23.779 9.946L23.928 10.015L24.01 10.103C24.055 10.151 24.109 10.223 24.13 10.262L24.167 10.332L24.192 10.489L24.217 10.645L24.188 10.906L24.16 11.166L22.811 11.166ZM30.828 14.929L31.122 14.932L31.457 14.893C31.641 14.871 31.886 14.835 32.002 14.813C32.117 14.791 32.304 14.746 32.417 14.714C32.53 14.683 32.632 14.648 32.644 14.638C32.656 14.628 32.688 14.507 32.715 14.369C32.742 14.231 32.776 14.046 32.791 13.957C32.806 13.869 32.813 13.792 32.808 13.787C32.802 13.781 32.783 13.788 32.764 13.803C32.745 13.818 32.614 13.873 32.472 13.926L32.214 14.021L31.846 14.092L31.479 14.163L31.167 14.153L30.854 14.142L30.677 14.081L30.499 14.019L30.362 13.9L30.225 13.78L30.134 13.615L30.043 13.45L30 13.229L29.957 13.008L29.957 12.722L29.957 12.435L30.01 12.088L30.062 11.74L30.118 11.553C30.149 11.451 30.183 11.33 30.195 11.286C30.207 11.242 30.256 11.116 30.304 11.006C30.353 10.896 30.439 10.725 30.496 10.627L30.6 10.449L30.727 10.318L30.854 10.186L30.989 10.103L31.124 10.019L31.297 9.966C31.393 9.937 31.561 9.899 31.672 9.882L31.873 9.85L32.167 9.865L32.462 9.88L32.81 9.949L33.159 10.019L33.3 10.072C33.378 10.101 33.445 10.124 33.45 10.124C33.454 10.124 33.472 10.025 33.491 9.904C33.51 9.783 33.543 9.583 33.565 9.461C33.587 9.338 33.6 9.233 33.593 9.226C33.587 9.22 33.482 9.203 33.361 9.189C33.239 9.176 32.909 9.151 32.627 9.135L32.114 9.106L31.752 9.133L31.39 9.161L31.122 9.217L30.854 9.273L30.682 9.342C30.587 9.38 30.448 9.448 30.373 9.494C30.298 9.539 30.202 9.601 30.161 9.63C30.119 9.66 29.993 9.774 29.88 9.885L29.674 10.086L29.56 10.254C29.497 10.346 29.388 10.537 29.318 10.68L29.19 10.939L29.092 11.219C29.038 11.374 28.963 11.626 28.925 11.78L28.856 12.061L28.831 12.315L28.806 12.568L28.806 12.902L28.806 13.236L28.832 13.431L28.857 13.625L28.937 13.825L29.018 14.024L29.11 14.169L29.203 14.313L29.35 14.458L29.498 14.603L29.654 14.685L29.81 14.767L30.014 14.824C30.127 14.855 30.29 14.891 30.376 14.903C30.462 14.916 30.666 14.927 30.828 14.929L30.828 14.929ZM35.235 14.919L35.597 14.909L35.825 14.851L36.052 14.793L36.2 14.723C36.281 14.685 36.413 14.61 36.494 14.556C36.575 14.502 36.701 14.399 36.773 14.328C36.846 14.256 36.953 14.134 37.011 14.057C37.07 13.979 37.122 13.92 37.126 13.924C37.13 13.928 37.117 14.052 37.096 14.198C37.075 14.345 37.058 14.54 37.058 14.632L37.057 14.799L37.549 14.799L38.041 14.799L38.056 14.418L38.071 14.038L38.141 13.543C38.18 13.272 38.242 12.869 38.279 12.649C38.317 12.428 38.382 12.056 38.425 11.821C38.467 11.585 38.534 11.219 38.573 11.006L38.645 10.618L38.648 10.284L38.65 9.949L38.574 9.795L38.498 9.64L38.396 9.542L38.293 9.443L38.124 9.358L37.955 9.272L37.703 9.217L37.451 9.161L37.105 9.134L36.758 9.108L36.311 9.136C36.066 9.151 35.72 9.181 35.543 9.202L35.222 9.241L35.003 9.242L34.783 9.243L34.752 9.396C34.734 9.481 34.685 9.682 34.643 9.842C34.601 10.003 34.571 10.139 34.576 10.143C34.58 10.148 34.697 10.122 34.836 10.085C34.974 10.047 35.269 9.986 35.49 9.949L35.892 9.88L36.253 9.866L36.615 9.851L36.848 9.891L37.081 9.932L37.237 10.009L37.392 10.085L37.479 10.215L37.566 10.344L37.565 10.548L37.564 10.752L37.518 10.976L37.471 11.2L36.507 11.203L35.543 11.207L35.228 11.293C35.054 11.34 34.862 11.403 34.801 11.433C34.739 11.462 34.678 11.487 34.664 11.487C34.651 11.487 34.547 11.544 34.435 11.613L34.23 11.74L34.069 11.901C33.981 11.989 33.867 12.121 33.818 12.194C33.768 12.268 33.687 12.421 33.638 12.535L33.549 12.743L33.508 12.976L33.467 13.21L33.467 13.454L33.467 13.699L33.506 13.903L33.545 14.107L33.618 14.239C33.658 14.313 33.731 14.42 33.78 14.477L33.871 14.582L34.031 14.679L34.191 14.777L34.374 14.828C34.475 14.857 34.629 14.891 34.716 14.905L34.874 14.93L35.235 14.919L35.235 14.919ZM35.57 14.172L35.356 14.184L35.214 14.148C35.136 14.128 35.017 14.083 34.95 14.049L34.829 13.987L34.763 13.909C34.726 13.865 34.671 13.781 34.639 13.72L34.582 13.61L34.571 13.353L34.559 13.097L34.605 12.941C34.63 12.855 34.688 12.707 34.735 12.611L34.82 12.436L34.982 12.275L35.145 12.114L35.317 12.032L35.49 11.949L35.704 11.898L35.918 11.847L36.588 11.847L37.258 11.847L37.3 11.865L37.343 11.882L37.307 12.092C37.288 12.207 37.241 12.416 37.203 12.555C37.166 12.695 37.099 12.9 37.056 13.011C37.012 13.122 36.977 13.221 36.977 13.229C36.977 13.238 36.933 13.319 36.879 13.41L36.781 13.573L36.62 13.732C36.532 13.819 36.45 13.891 36.438 13.891C36.426 13.891 36.372 13.921 36.318 13.958L36.219 14.024L36.002 14.093L35.784 14.161L35.57 14.172ZM44.292 14.929L44.546 14.932L44.787 14.893C44.92 14.872 45.089 14.837 45.163 14.816C45.236 14.795 45.369 14.742 45.457 14.696L45.618 14.614L45.756 14.493L45.895 14.372L46.04 14.178C46.12 14.071 46.193 13.966 46.202 13.944L46.217 13.904L46.204 14.038C46.196 14.111 46.179 14.231 46.166 14.305C46.154 14.378 46.135 14.519 46.125 14.619L46.108 14.799L46.633 14.799L47.159 14.799L47.159 14.619L47.159 14.438L47.239 13.757C47.283 13.383 47.348 12.884 47.384 12.649C47.419 12.414 47.474 12.077 47.506 11.901C47.537 11.724 47.593 11.406 47.63 11.193C47.666 10.98 47.733 10.607 47.777 10.365C47.821 10.122 47.892 9.738 47.935 9.51C47.977 9.282 48.043 8.928 48.081 8.722C48.119 8.516 48.188 8.156 48.233 7.921C48.278 7.685 48.345 7.355 48.38 7.186C48.416 7.017 48.445 6.87 48.445 6.859L48.445 6.839L47.871 6.839L47.298 6.839L47.281 7.006C47.272 7.097 47.228 7.401 47.183 7.68C47.139 7.959 47.067 8.404 47.023 8.668C46.979 8.933 46.936 9.189 46.929 9.238L46.914 9.327L46.869 9.308C46.844 9.298 46.709 9.26 46.569 9.225L46.315 9.162L45.966 9.135L45.618 9.107L45.323 9.135L45.029 9.162L44.761 9.23L44.493 9.297L44.238 9.421L43.984 9.545L43.796 9.683L43.608 9.822L43.446 9.995C43.357 10.09 43.229 10.248 43.16 10.345L43.036 10.522L42.891 10.824C42.811 10.99 42.713 11.21 42.674 11.313C42.635 11.416 42.566 11.644 42.521 11.82L42.439 12.139L42.399 12.554L42.358 12.969L42.389 13.303L42.419 13.637L42.455 13.757C42.475 13.823 42.516 13.941 42.547 14.019L42.604 14.16L42.707 14.3L42.81 14.439L42.928 14.535L43.046 14.631L43.206 14.711C43.295 14.755 43.443 14.811 43.536 14.836C43.629 14.862 43.78 14.892 43.871 14.904C43.962 14.916 44.152 14.927 44.292 14.929L44.292 14.929ZM44.749 14.171L44.546 14.182L44.41 14.157C44.335 14.144 44.214 14.108 44.143 14.077L44.012 14.021L43.902 13.931L43.792 13.842L43.711 13.686L43.629 13.53L43.592 13.356L43.555 13.183L43.558 12.836L43.561 12.488L43.604 12.181L43.648 11.874L43.715 11.66C43.752 11.543 43.782 11.432 43.782 11.414C43.782 11.396 43.819 11.3 43.863 11.2C43.908 11.101 43.982 10.947 44.028 10.859C44.074 10.771 44.16 10.633 44.22 10.553C44.279 10.474 44.385 10.353 44.455 10.286C44.525 10.219 44.636 10.131 44.702 10.091L44.822 10.017L45.032 9.945L45.243 9.872L45.685 9.872L46.127 9.872L46.382 9.942C46.522 9.981 46.67 10.026 46.712 10.042L46.788 10.071L46.773 10.144C46.765 10.185 46.733 10.362 46.702 10.538C46.671 10.715 46.611 11.051 46.567 11.286C46.524 11.521 46.458 11.876 46.419 12.074C46.381 12.273 46.326 12.525 46.297 12.635C46.268 12.745 46.226 12.898 46.205 12.974C46.184 13.051 46.133 13.183 46.093 13.268C46.052 13.353 45.981 13.477 45.935 13.543C45.889 13.61 45.811 13.701 45.761 13.747C45.712 13.793 45.605 13.874 45.524 13.928L45.377 14.026L45.164 14.093L44.951 14.16L44.749 14.171ZM5.313 14.799L5.964 14.799L6.011 14.512C6.037 14.354 6.087 14.05 6.123 13.837C6.158 13.624 6.225 13.228 6.27 12.956C6.315 12.684 6.383 12.281 6.421 12.061C6.459 11.841 6.519 11.499 6.555 11.301C6.59 11.104 6.626 10.936 6.635 10.927L6.65 10.912L8.4 10.912L10.151 10.912L10.17 10.932L10.19 10.951L10.159 11.105C10.143 11.19 10.093 11.452 10.05 11.687C10.006 11.922 9.932 12.319 9.886 12.568C9.84 12.818 9.774 13.173 9.738 13.356C9.703 13.54 9.632 13.925 9.58 14.211C9.527 14.498 9.485 14.747 9.485 14.766L9.485 14.799L10.139 14.799L10.793 14.799L10.822 14.632C10.838 14.54 10.863 14.375 10.879 14.265C10.894 14.154 10.931 13.92 10.961 13.744C10.991 13.567 11.051 13.219 11.094 12.969C11.137 12.719 11.209 12.293 11.254 12.021C11.3 11.749 11.366 11.352 11.403 11.139C11.44 10.926 11.505 10.566 11.548 10.338C11.592 10.11 11.664 9.726 11.708 9.483C11.753 9.241 11.82 8.874 11.858 8.668C11.895 8.463 11.963 8.09 12.008 7.84C12.054 7.591 12.112 7.299 12.137 7.193L12.182 6.999L11.52 6.999L10.858 6.999L10.84 7.126C10.83 7.196 10.798 7.391 10.769 7.56C10.74 7.729 10.687 8.029 10.651 8.228C10.615 8.426 10.55 8.805 10.506 9.069C10.462 9.334 10.406 9.684 10.381 9.847L10.337 10.144L9.365 10.164L8.393 10.183L7.58 10.164C7.132 10.154 6.763 10.143 6.76 10.14C6.757 10.138 6.772 10.034 6.794 9.91C6.816 9.785 6.857 9.569 6.885 9.43C6.914 9.29 6.967 9.014 7.005 8.815C7.042 8.617 7.085 8.371 7.099 8.268C7.114 8.165 7.144 7.994 7.166 7.887C7.189 7.781 7.231 7.556 7.261 7.389C7.291 7.221 7.322 7.065 7.331 7.041L7.348 6.999L6.691 6.999L6.034 6.999L5.992 7.233C5.969 7.361 5.938 7.545 5.924 7.64C5.909 7.736 5.86 8.042 5.815 8.321C5.77 8.6 5.703 9.015 5.667 9.243C5.63 9.471 5.564 9.885 5.52 10.164C5.475 10.444 5.402 10.876 5.356 11.126C5.311 11.376 5.245 11.73 5.211 11.914C5.176 12.098 5.109 12.446 5.063 12.689C5.017 12.931 4.949 13.274 4.913 13.45C4.876 13.626 4.836 13.831 4.823 13.904C4.811 13.978 4.769 14.189 4.731 14.375C4.693 14.56 4.662 14.732 4.662 14.756L4.662 14.799L5.313 14.799ZM12.521 14.799L13.097 14.799L13.113 14.757C13.122 14.733 13.129 14.672 13.129 14.621C13.129 14.57 13.166 14.303 13.21 14.029C13.254 13.755 13.327 13.308 13.373 13.036C13.418 12.764 13.484 12.367 13.521 12.154C13.557 11.941 13.622 11.587 13.664 11.366C13.707 11.146 13.773 10.803 13.81 10.605C13.847 10.407 13.921 10.029 13.973 9.767C14.026 9.504 14.075 9.278 14.083 9.265L14.098 9.242L13.515 9.249L12.932 9.256L12.884 9.603C12.857 9.794 12.799 10.173 12.754 10.445C12.709 10.717 12.642 11.131 12.604 11.366C12.566 11.601 12.5 11.98 12.457 12.208C12.414 12.436 12.348 12.784 12.311 12.982C12.274 13.181 12.206 13.529 12.162 13.757C12.117 13.985 12.057 14.285 12.029 14.425C12 14.565 11.969 14.706 11.96 14.739L11.944 14.799L12.521 14.799ZM26 14.799L26.572 14.799L26.59 14.558C26.599 14.425 26.631 14.157 26.661 13.963C26.692 13.769 26.753 13.382 26.799 13.103C26.844 12.824 26.928 12.359 26.985 12.07C27.043 11.781 27.108 11.494 27.13 11.432C27.152 11.37 27.17 11.303 27.17 11.283C27.17 11.263 27.213 11.153 27.265 11.039C27.318 10.925 27.416 10.751 27.483 10.652L27.605 10.471L27.769 10.32L27.932 10.169L28.134 10.073L28.335 9.977L28.644 9.979L28.952 9.981L29.103 10.026C29.187 10.051 29.262 10.071 29.271 10.071C29.279 10.071 29.287 10.042 29.287 10.008C29.287 9.973 29.317 9.797 29.354 9.617C29.39 9.436 29.421 9.281 29.421 9.272C29.421 9.263 29.333 9.229 29.226 9.196C29.12 9.164 28.972 9.13 28.898 9.121L28.764 9.104L28.59 9.135C28.494 9.152 28.352 9.189 28.273 9.218C28.195 9.247 28.066 9.312 27.986 9.362C27.906 9.413 27.782 9.512 27.711 9.583C27.639 9.653 27.518 9.794 27.442 9.897C27.366 10 27.287 10.108 27.266 10.138L27.228 10.191L27.251 10.084C27.264 10.025 27.299 9.833 27.33 9.657C27.361 9.481 27.393 9.315 27.4 9.29L27.415 9.243L26.904 9.243L26.393 9.243L26.393 9.307C26.393 9.343 26.363 9.556 26.326 9.781C26.289 10.007 26.228 10.383 26.191 10.618C26.153 10.854 26.087 11.262 26.043 11.527C25.999 11.791 25.933 12.17 25.896 12.368C25.858 12.566 25.792 12.915 25.748 13.143C25.704 13.37 25.631 13.743 25.586 13.971C25.541 14.199 25.487 14.467 25.466 14.568C25.445 14.669 25.428 14.763 25.428 14.775L25.428 14.799L26 14.799ZM39.58 14.799L40.165 14.799L40.165 14.62L40.165 14.442L40.233 13.999C40.27 13.756 40.331 13.37 40.369 13.143C40.406 12.915 40.453 12.627 40.473 12.502C40.493 12.377 40.545 12.106 40.589 11.901C40.633 11.695 40.688 11.473 40.712 11.406C40.735 11.34 40.754 11.271 40.754 11.252C40.755 11.234 40.804 11.114 40.865 10.986L40.976 10.753L41.121 10.56L41.267 10.367L41.426 10.247C41.514 10.182 41.655 10.095 41.74 10.054L41.894 9.979L42.229 9.982L42.563 9.984L42.695 10.026L42.827 10.068L42.849 10.055L42.872 10.041L42.873 9.956C42.873 9.909 42.902 9.734 42.936 9.568L42.999 9.266L42.929 9.238C42.89 9.223 42.798 9.192 42.724 9.169L42.59 9.127L42.349 9.127L42.108 9.128L41.911 9.197L41.715 9.266L41.567 9.354L41.42 9.443L41.228 9.643L41.036 9.844L40.933 9.999C40.876 10.085 40.826 10.151 40.822 10.146C40.818 10.141 40.849 9.963 40.891 9.75C40.933 9.537 40.967 9.336 40.968 9.303L40.969 9.243L40.473 9.243L39.978 9.243L39.978 9.26C39.978 9.269 39.953 9.44 39.923 9.64C39.893 9.84 39.832 10.226 39.788 10.498C39.744 10.77 39.672 11.209 39.628 11.473C39.584 11.738 39.517 12.116 39.48 12.315C39.443 12.513 39.377 12.862 39.333 13.089C39.29 13.317 39.218 13.684 39.174 13.904C39.13 14.124 39.072 14.416 39.045 14.552L38.995 14.799L39.58 14.799ZM13.654 8.281L13.817 8.281L13.946 8.237L14.075 8.193L14.19 8.078L14.304 7.962L14.364 7.808L14.425 7.653L14.427 7.426L14.429 7.199L14.375 7.111L14.322 7.022L14.228 6.964L14.135 6.907L13.934 6.907L13.732 6.907L13.595 6.968L13.458 7.029L13.378 7.114L13.299 7.199L13.236 7.346L13.174 7.493L13.162 7.722L13.15 7.951L13.208 8.065L13.267 8.178L13.379 8.229L13.491 8.28L13.654 8.281Z" fill="rgb(255,255,255)" fill-opacity="1.000" fill-rule="nonzero" transform="matrix(1 0 0 1 3 18)"/></svg>