<svg xmlns="http://www.w3.org/2000/svg" viewBox="0 0 130 60" width="130" height="60"><path d="M0 0L130 0L130 60L0 60L0 0Z" fill="rgb(255,255,255)" fill-opacity="1.000" fill-rule="nonzero" transform="matrix(1 0 0 1 0 0)"/><path d="M29 0L0 0L0 29L29 29L29 0Z" fill="rgb(255,255,255)" fill-opacity="1.000" fill-rule="nonzero" transform="matrix(1 0 0 1 23.1012 15)"/><path d="M14.5 14.534L0 0L0 29.034L14.5 14.534Z" fill="rgb(219,0,17)" fill-opacity="1.000" fill-rule="nonzero" transform="matrix(1 0 0 1 52.1012 15)"/><path d="M14.5 14.534L29 0L0 0L14.5 14.534Z" fill="rgb(219,0,17)" fill-opacity="1.000" fill-rule="nonzero" transform="matrix(1 0 0 1 23.1012 15)"/><path d="M0 14.534L14.534 29.034L14.534 0L0 14.534Z" fill="rgb(219,0,17)" fill-opacity="1.000" fill-rule="nonzero" transform="matrix(1 0 0 1 8.5671 15)"/><path d="M14.5 0L0 14.5L29 14.5L14.5 0Z" fill="rgb(219,0,17)" fill-opacity="1.000" fill-rule="nonzero" transform="matrix(1 0 0 1 23.1012 29.5341)"/><path d="M7.881 6.96L2.627 6.96L2.627 12.146L0 12.146L0 0L2.627 0L2.627 4.981L7.881 4.981L7.881 0L10.508 0L10.508 12.146L7.881 12.146L7.881 6.96Z" fill="rgb(0,0,0)" fill-opacity="1.000" fill-rule="nonzero" transform="matrix(1 0 0 1 71.4459 23.4271)"/><path d="M4.811 12.589C2.184 12.589 0.034 11.532 0 8.632L2.627 8.632C2.661 9.928 3.412 10.713 4.845 10.713C5.902 10.713 7.131 10.167 7.131 8.973C7.131 8.018 6.312 7.745 4.947 7.335L4.06 7.096C2.149 6.551 0.239 5.8 0.239 3.616C0.239 0.921 2.764 0 5.049 0C7.404 0 9.451 0.819 9.485 3.514L6.858 3.514C6.755 2.422 6.107 1.774 4.879 1.774C3.889 1.774 2.934 2.286 2.934 3.378C2.934 4.265 3.753 4.538 5.459 5.084L6.482 5.391C8.564 6.039 9.894 6.755 9.894 8.802C9.86 11.532 7.199 12.589 4.811 12.589Z" fill="rgb(0,0,0)" fill-opacity="1.000" fill-rule="nonzero" transform="matrix(1 0 0 1 83.4894 23.2224)"/><path d="M0 0.012L4.231 0.012C5.015 -0.022 5.834 0.012 6.619 0.149C8.086 0.49 9.212 1.445 9.212 3.083C9.212 4.652 8.222 5.437 6.789 5.812C8.427 6.119 9.655 6.938 9.655 8.746C9.655 11.51 6.926 12.124 4.811 12.124L0.034 12.124L0 0.012ZM4.231 5.062C5.391 5.062 6.585 4.823 6.585 3.424C6.585 2.162 5.493 1.821 4.401 1.821L2.559 1.821L2.559 5.062L4.231 5.062ZM4.469 10.316C5.698 10.316 6.892 10.043 6.892 8.542C6.892 7.041 5.868 6.768 4.606 6.768L2.525 6.768L2.525 10.316L4.469 10.316Z" fill="rgb(0,0,0)" fill-opacity="1.000" fill-rule="nonzero" transform="matrix(1 0 0 1 94.8506 23.4489)"/><path d="M5.664 12.624C1.74 12.624 0 10.133 0 6.414C0 2.695 1.945 0 5.8 0C8.222 0 10.576 1.092 10.645 3.821L7.915 3.821C7.779 2.593 6.96 1.979 5.8 1.979C3.412 1.979 2.695 4.538 2.695 6.482C2.695 8.427 3.412 10.679 5.698 10.679C6.892 10.679 7.779 10.031 7.949 8.802L10.679 8.802C10.406 11.6 8.188 12.624 5.664 12.624Z" fill="rgb(0,0,0)" fill-opacity="1.000" fill-rule="nonzero" transform="matrix(1 0 0 1 105.6659 23.1882)"/></svg>