<svg xmlns="http://www.w3.org/2000/svg" viewBox="0 0 60 60" width="60" height="60"><path d="M0 0L60 0L60 60L0 60L0 0Z" fill="rgb(219,0,17)" fill-opacity="1.000" fill-rule="nonzero" transform="matrix(1 0 0 1 0 0)"/><path d="M20.941 0L0 0L0 20.941L20.941 20.941L20.941 0Z" fill="rgb(219,0,17)" fill-opacity="1.000" fill-rule="nonzero" transform="matrix(1 0 0 1 19.4953 19)"/><path d="M10.471 10.495L0 0L0 20.966L10.471 10.495Z" fill="rgb(255,255,255)" fill-opacity="1.000" fill-rule="nonzero" transform="matrix(1 0 0 1 40.4364 19)"/><path d="M10.471 10.495L20.941 0L0 0L10.471 10.495Z" fill="rgb(255,255,255)" fill-opacity="1.000" fill-rule="nonzero" transform="matrix(1 0 0 1 19.4953 19)"/><path d="M0 10.495L10.495 20.966L10.495 0L0 10.495Z" fill="rgb(255,255,255)" fill-opacity="1.000" fill-rule="nonzero" transform="matrix(1 0 0 1 9 19)"/><path d="M10.471 0L0 10.471L20.941 10.471L10.471 0Z" fill="rgb(255,255,255)" fill-opacity="1.000" fill-rule="nonzero" transform="matrix(1 0 0 1 19.4953 29.4953)"/></svg>