<svg xmlns="http://www.w3.org/2000/svg" viewBox="0 0 60 60" width="60" height="60"><path d="M0 0L60 0L60 60L0 60L0 0Z" fill="rgb(255,255,255)" fill-opacity="1.000" fill-rule="nonzero" transform="matrix(1 0 0 1 0 0)"/><path d="M1.195 1.493L3.022 1.493L3.317 0L1.49 0L1.195 1.493L1.195 1.493ZM0 7.464L1.84 7.464L2.86 2.3L1.034 2.3L0 7.464L0 7.464ZM4.405 8.917L2.565 8.917L3.68 3.335L3.049 3.335L3.25 2.3L3.895 2.3C4.257 0.901 5.278 0 6.755 0C7.198 0 7.655 0.081 8.058 0.215L7.843 1.304C7.467 1.13 7.077 1.089 6.661 1.089C5.976 1.089 5.829 1.601 5.748 2.044L5.707 2.286L7.077 2.286L6.862 3.322L5.519 3.322L4.405 8.917ZM8.38 7.585C10.556 7.585 12.06 5.568 12.06 3.913C12.06 2.717 10.945 2.192 9.884 2.192C7.507 2.192 6.204 4.371 6.204 5.864C6.204 7.047 7.332 7.585 8.38 7.585ZM17.862 3.913C17.862 5.568 16.358 7.585 14.182 7.585C13.134 7.585 12.007 7.047 12.007 5.864C12.007 4.371 13.309 2.192 15.686 2.192C16.747 2.192 17.862 2.717 17.862 3.913ZM20.829 7.464L22.656 7.464L24.173 0L22.333 0L21.85 2.3C21.607 2.246 21.36 2.219 21.111 2.219C19.312 2.219 17.674 4.559 17.674 6.227C17.674 6.913 18.117 7.585 18.856 7.585C19.916 7.585 20.641 7.061 20.95 6.563L21.057 6.563L20.829 7.464ZM10.086 12.991C12.034 13.113 13.833 12.521 15.176 11.351L15.726 12.911L16.519 8.916L12.825 8.903L14.074 9.858C12.973 10.948 10.946 11.714 9.294 11.525C7.602 11.337 6.245 10.18 5.695 8.916L5.574 8.916C5.923 10.893 7.628 12.844 10.086 12.991Z" fill="rgb(234,29,44)" fill-opacity="1.000" fill-rule="evenodd" transform="matrix(1 0 0 1 6 18)"/><path d="M29.093 7.793C29.188 7.793 29.235 7.746 29.235 7.652L29.235 2.781C29.235 2.687 29.188 2.64 29.093 2.64L27.991 2.64C27.897 2.64 27.85 2.687 27.85 2.781L27.85 7.651C27.85 7.745 27.897 7.792 27.991 7.792L29.093 7.792L29.093 7.793ZM29.892 0.944C29.891 0.915 29.881 0.886 29.862 0.864L29.367 0.06C29.339 0.02 29.306 0 29.265 0C29.229 -0.001 29.194 0.009 29.164 0.03L27.546 1.245C27.498 1.292 27.475 1.329 27.475 1.356C27.475 1.376 27.485 1.403 27.505 1.436L27.849 1.979C27.86 1.998 27.877 2.013 27.896 2.024C27.916 2.034 27.938 2.04 27.96 2.039C27.989 2.04 28.017 2.033 28.041 2.019L29.811 1.054C29.865 1.021 29.892 0.984 29.892 0.944ZM25.504 7.652C25.504 7.746 25.457 7.793 25.362 7.793L24.271 7.793C24.176 7.793 24.128 7.746 24.128 7.652L24.128 3.866L23.228 3.866C23.134 3.866 23.087 3.819 23.087 3.726L23.087 2.782C23.087 2.688 23.134 2.642 23.228 2.642L24.128 2.642L24.128 2.49C24.128 1.901 24.334 1.409 24.745 1.014C25.156 0.612 25.82 0.355 26.738 0.241L26.899 0.23C26.94 0.23 26.967 0.241 26.98 0.261C27.001 0.281 27.014 0.317 27.021 0.371L27.112 1.305L27.112 1.325C27.112 1.399 27.068 1.442 26.98 1.456C26.576 1.502 26.266 1.573 26.05 1.667C25.834 1.754 25.689 1.864 25.615 1.998C25.541 2.132 25.504 2.303 25.504 2.511L25.504 2.641L26.92 2.641C27.014 2.641 27.061 2.687 27.061 2.781L27.061 3.725C27.061 3.819 27.014 3.866 26.92 3.866L25.504 3.866L25.504 7.652L25.504 7.652ZM0.141 7.793C0.047 7.793 0 7.746 0 7.652L0 0.682C0 0.589 0.047 0.542 0.141 0.542L2.801 0.542C3.61 0.542 4.23 0.716 4.662 1.064C5.094 1.412 5.309 1.888 5.309 2.49C5.309 2.832 5.211 3.132 5.016 3.394C4.82 3.655 4.551 3.856 4.207 3.997C4.638 4.123 4.972 4.341 5.208 4.649C5.443 4.957 5.562 5.322 5.562 5.744C5.562 6.159 5.457 6.52 5.249 6.828C5.039 7.136 4.733 7.374 4.328 7.541C3.93 7.709 3.448 7.792 2.882 7.792L0.141 7.792L0.141 7.793ZM2.801 3.505C3.118 3.505 3.368 3.421 3.55 3.254C3.738 3.087 3.833 2.879 3.833 2.631C3.833 2.377 3.745 2.176 3.57 2.028C3.395 1.881 3.138 1.808 2.801 1.808L1.445 1.808L1.445 3.505L2.8 3.505L2.801 3.505ZM2.882 6.528C3.266 6.528 3.556 6.451 3.752 6.297C3.954 6.136 4.055 5.918 4.055 5.644C4.055 5.369 3.954 5.155 3.752 5.001C3.556 4.84 3.266 4.76 2.882 4.76L1.445 4.76L1.445 6.527L2.88 6.527L2.882 6.528ZM7.453 7.582C7.851 7.809 8.306 7.923 8.818 7.923C9.351 7.923 9.803 7.816 10.174 7.602C10.532 7.394 10.823 7.087 11.013 6.718C11.04 6.665 11.01 6.615 10.922 6.568L10.092 6.176C10.018 6.136 9.954 6.153 9.901 6.226C9.658 6.581 9.314 6.759 8.869 6.759C8.518 6.759 8.225 6.651 7.989 6.437C7.754 6.223 7.611 5.925 7.564 5.544L10.911 5.544C11.006 5.544 11.056 5.5 11.063 5.413C11.077 5.226 11.084 5.088 11.084 5.001C11.084 4.519 10.986 4.09 10.79 3.716C10.602 3.349 10.315 3.043 9.961 2.832C9.611 2.617 9.199 2.511 8.728 2.511C8.228 2.511 7.783 2.628 7.392 2.862C7.01 3.095 6.698 3.428 6.493 3.826C6.283 4.234 6.179 4.693 6.179 5.202C6.179 5.738 6.29 6.213 6.513 6.628C6.742 7.036 7.055 7.354 7.453 7.582ZM9.425 3.866C9.614 4.033 9.725 4.275 9.759 4.589L7.584 4.589C7.658 4.288 7.793 4.05 7.988 3.876C8.191 3.695 8.433 3.605 8.717 3.605C9 3.605 9.236 3.692 9.425 3.866ZM13.389 7.652C13.389 7.746 13.342 7.793 13.248 7.793L12.155 7.793C12.061 7.793 12.014 7.746 12.014 7.652L12.014 2.781C12.014 2.687 12.061 2.64 12.155 2.64L13.198 2.64C13.292 2.64 13.339 2.687 13.339 2.781L13.339 3.324C13.602 3.042 13.871 2.838 14.148 2.711C14.431 2.577 14.734 2.51 15.058 2.51C15.645 2.51 16.097 2.697 16.413 3.072C16.737 3.441 16.899 3.947 16.899 4.589L16.899 7.652C16.899 7.745 16.852 7.792 16.757 7.792L15.665 7.792C15.571 7.792 15.523 7.745 15.523 7.652L15.523 4.709C15.523 4.415 15.456 4.185 15.321 4.017C15.186 3.85 14.988 3.766 14.724 3.766C14.502 3.766 14.276 3.826 14.047 3.947C13.824 4.067 13.605 4.248 13.389 4.489L13.389 7.652L13.389 7.652ZM19.093 7.582C19.491 7.809 19.946 7.923 20.458 7.923C20.99 7.923 21.442 7.816 21.813 7.602C22.172 7.394 22.463 7.087 22.653 6.718C22.68 6.665 22.649 6.615 22.561 6.568L21.732 6.176C21.658 6.136 21.594 6.153 21.54 6.226C21.297 6.581 20.954 6.759 20.509 6.759C20.158 6.759 19.865 6.651 19.629 6.437C19.393 6.223 19.251 5.925 19.204 5.544L22.551 5.544C22.646 5.544 22.696 5.5 22.703 5.413C22.716 5.226 22.723 5.088 22.723 5.001C22.723 4.519 22.625 4.09 22.43 3.716C22.242 3.349 21.955 3.043 21.601 2.832C21.25 2.617 20.839 2.511 20.367 2.511C19.868 2.511 19.423 2.628 19.032 2.862C18.649 3.095 18.338 3.428 18.132 3.826C17.923 4.234 17.818 4.693 17.818 5.202C17.818 5.738 17.93 6.213 18.152 6.628C18.382 7.036 18.695 7.354 19.093 7.582ZM21.065 3.866C21.253 4.033 21.365 4.275 21.399 4.589L19.223 4.589C19.298 4.288 19.433 4.05 19.628 3.876C19.83 3.695 20.073 3.605 20.356 3.605C20.639 3.605 20.876 3.692 21.065 3.866ZM32.776 7.923C32.264 7.923 31.808 7.809 31.411 7.582C31.023 7.352 30.708 7.018 30.5 6.618C30.285 6.203 30.177 5.734 30.177 5.212C30.177 4.696 30.285 4.234 30.5 3.826C30.71 3.424 31.029 3.09 31.421 2.862C31.819 2.628 32.27 2.511 32.776 2.511C33.309 2.511 33.747 2.631 34.09 2.873C34.435 3.113 34.697 3.438 34.879 3.846C34.887 3.866 34.891 3.886 34.889 3.907C34.889 3.953 34.859 3.994 34.798 4.027L33.888 4.398C33.865 4.407 33.842 4.414 33.818 4.419C33.777 4.419 33.74 4.389 33.706 4.328C33.498 3.953 33.187 3.766 32.776 3.766C32.419 3.766 32.129 3.9 31.906 4.167C31.684 4.435 31.573 4.78 31.573 5.202C31.573 5.644 31.684 5.998 31.906 6.267C32.129 6.534 32.419 6.668 32.776 6.668C33.221 6.668 33.558 6.474 33.787 6.086C33.827 6.005 33.888 5.982 33.969 6.015L34.87 6.387C34.917 6.407 34.947 6.431 34.96 6.457C34.974 6.477 34.974 6.504 34.96 6.537C34.78 6.941 34.494 7.289 34.131 7.542C33.767 7.796 33.315 7.923 32.776 7.923ZM36.983 7.793C37.077 7.793 37.124 7.746 37.124 7.652L37.124 2.782C37.124 2.688 37.077 2.641 36.983 2.641L35.88 2.641C35.786 2.641 35.739 2.688 35.739 2.782L35.739 7.652C35.739 7.746 35.786 7.793 35.88 7.793L36.983 7.793ZM35.799 1.546C35.961 1.694 36.17 1.768 36.427 1.768C36.682 1.768 36.889 1.694 37.043 1.546C37.199 1.399 37.276 1.205 37.276 0.964C37.276 0.723 37.199 0.533 37.043 0.391C36.889 0.244 36.682 0.171 36.427 0.171C36.17 0.171 35.961 0.244 35.799 0.392C35.644 0.533 35.567 0.72 35.567 0.954C35.567 1.201 35.644 1.399 35.799 1.546ZM40.673 7.923C40.161 7.923 39.706 7.809 39.308 7.582C38.915 7.36 38.596 7.028 38.388 6.628C38.172 6.213 38.064 5.741 38.064 5.212C38.064 4.703 38.172 4.245 38.388 3.836C38.601 3.431 38.923 3.094 39.318 2.862C39.716 2.628 40.168 2.511 40.673 2.511C41.186 2.511 41.637 2.625 42.028 2.852C42.426 3.08 42.733 3.401 42.948 3.816C43.164 4.225 43.272 4.69 43.272 5.212C43.272 5.727 43.161 6.193 42.938 6.608C42.729 7.01 42.41 7.344 42.018 7.572C41.627 7.806 41.179 7.923 40.673 7.923ZM40.673 6.668C41.037 6.668 41.327 6.537 41.543 6.276C41.765 6.015 41.877 5.664 41.877 5.222C41.877 4.787 41.765 4.435 41.543 4.167C41.32 3.9 41.031 3.766 40.673 3.766C40.316 3.766 40.022 3.9 39.793 4.167C39.57 4.428 39.46 4.773 39.46 5.202C39.46 5.644 39.57 5.998 39.793 6.267C40.022 6.534 40.316 6.668 40.673 6.668ZM43.879 6.839C44.284 7.562 44.975 7.923 45.952 7.923C46.384 7.923 46.758 7.853 47.075 7.712C47.398 7.572 47.644 7.377 47.813 7.13C47.988 6.876 48.076 6.587 48.076 6.266C48.076 5.911 47.982 5.624 47.793 5.403C47.615 5.178 47.386 4.999 47.126 4.881C46.863 4.76 46.543 4.646 46.165 4.539C45.861 4.465 45.642 4.395 45.508 4.328C45.379 4.255 45.315 4.151 45.315 4.017C45.315 3.89 45.379 3.786 45.508 3.705C45.642 3.625 45.814 3.585 46.023 3.585C46.455 3.585 46.782 3.746 47.004 4.067C47.031 4.114 47.068 4.137 47.115 4.137C47.143 4.134 47.17 4.127 47.196 4.117L47.924 3.746C47.978 3.713 48.006 3.675 48.006 3.635C48.001 3.611 47.994 3.588 47.985 3.565C47.587 2.862 46.923 2.511 45.993 2.511C45.595 2.511 45.241 2.581 44.931 2.722C44.621 2.856 44.382 3.046 44.213 3.294C44.045 3.535 43.96 3.806 43.96 4.107C43.96 4.583 44.132 4.944 44.476 5.192C44.82 5.433 45.265 5.62 45.811 5.754C46.148 5.834 46.384 5.918 46.519 6.005C46.66 6.086 46.731 6.199 46.731 6.347C46.731 6.494 46.664 6.611 46.529 6.698C46.401 6.785 46.212 6.829 45.962 6.829C45.497 6.829 45.13 6.648 44.86 6.286C44.827 6.233 44.789 6.206 44.749 6.206C44.72 6.209 44.692 6.22 44.668 6.236L43.94 6.648C43.886 6.682 43.859 6.721 43.859 6.768C43.859 6.775 43.866 6.799 43.879 6.839Z" fill="rgb(234,29,44)" fill-opacity="1.000" fill-rule="evenodd" transform="matrix(1 0 0 1 6 33.0768)"/></svg>