<svg xmlns="http://www.w3.org/2000/svg" viewBox="0 0 130 60" width="130" height="60"><path d="M0 0L130 0L130 60L0 60L0 0Z" fill="rgb(255,255,255)" fill-opacity="1.000" fill-rule="nonzero" transform="matrix(1 0 0 1 0 0)"/><path d="M7.834 13.667C7.834 10.377 10.533 7.709 13.861 7.709C17.189 7.709 19.887 10.377 19.887 13.667C19.887 16.957 17.189 19.626 13.861 19.626C10.533 19.626 7.834 16.957 7.834 13.667ZM6.932 13.701C6.932 17.583 9.616 20.177 13.102 20.55L1.826 20.55C0.664 18.547 0 16.175 0 13.701L6.932 13.701ZM6.953 12.862L6.953 1.819C8.985 0.662 11.342 0 13.856 0L13.863 6.849C10.295 6.849 7.356 9.443 6.953 12.862ZM14.659 6.836L25.853 6.836C27.032 8.845 27.711 11.206 27.715 13.697L20.787 13.697C20.787 10.162 18.124 7.227 14.659 6.836ZM20.778 14.387L20.778 25.572C18.742 26.735 16.378 27.4 13.857 27.4L13.852 20.544C17.457 20.544 20.414 17.847 20.778 14.387Z" fill="rgb(4,30,65)" fill-opacity="1.000" fill-rule="nonzero" transform="matrix(1 0 0 1 11.302 16.2999)"/><path d="M0 8.382L2.594 8.382L2.594 0L0 0L0 8.382Z" fill="rgb(4,30,65)" fill-opacity="1.000" fill-rule="nonzero" transform="matrix(1 0 0 1 42.4838 23.174)"/><path d="M9.164 0L9.164 6.284L4.089 0L0 0L0 8.382L2.431 8.382L2.431 2.087L7.505 8.382L11.592 8.382L11.592 0L9.164 0Z" fill="rgb(4,30,65)" fill-opacity="1.000" fill-rule="nonzero" transform="matrix(1 0 0 1 46.3511 23.1741)"/><path d="M8.088 8.37C10.087 8.37 10.909 7.767 10.909 5.971C10.909 4.487 10.214 4.274 9.088 4.111C10.124 3.848 10.581 3.521 10.581 2.163C10.581 0.616 9.746 0 7.96 0L0 0L0 8.37L8.088 8.37ZM2.545 1.836L7.253 1.836C7.733 1.836 7.999 2.074 7.999 2.54C7.999 3.181 7.62 3.294 6.949 3.294L2.545 3.294L2.545 1.836ZM2.545 4.952L7.228 4.952C7.987 4.952 8.328 5.09 8.328 5.668C8.328 6.41 7.873 6.486 7.189 6.486L2.545 6.486L2.545 4.952Z" fill="rgb(4,30,65)" fill-opacity="1.000" fill-rule="nonzero" transform="matrix(1 0 0 1 59.3246 23.1797)"/><path d="M8.278 4.436C8.278 5.177 8.278 5.667 7.998 6.007C7.618 6.459 6.911 6.409 5.556 6.409C2.848 6.409 2.595 6.485 2.595 4.399L2.595 0L0 0L0 5.153C0 8.582 1.797 8.47 5.999 8.47C7.329 8.47 8.366 8.458 9.088 8.218C10.352 7.803 10.871 6.899 10.871 5.277L10.871 0L8.278 0L8.278 4.436Z" fill="rgb(4,30,65)" fill-opacity="1.000" fill-rule="nonzero" transform="matrix(1 0 0 1 71.3755 23.1301)"/><path d="M6.86 6.22C7.757 6.22 7.972 6.547 7.972 7.277L7.972 8.382L10.567 8.382L10.567 6.875C10.567 5.341 9.807 5.353 8.845 5.165C9.997 4.826 10.669 4.675 10.669 2.653C10.669 0.718 9.933 0 7.848 0L0 0L0 8.382L2.595 8.382L2.595 6.22L6.86 6.22ZM2.595 2.037L6.645 2.037C7.757 2.037 8.086 2.125 8.086 3.03C8.086 3.972 7.985 4.198 6.782 4.198C6.657 4.198 6.581 4.184 6.453 4.184L2.595 4.184L2.595 2.037Z" fill="rgb(4,30,65)" fill-opacity="1.000" fill-rule="nonzero" transform="matrix(1 0 0 1 83.5086 23.1741)"/><path d="M10.238 2.651C10.226 1.672 10.187 1.031 9.441 0.49C8.758 0 7.669 0 5.733 0C3.923 0 2.681 0.087 2.152 0.152C0.53 0.339 0 1.043 0 2.702C0 5.467 1.442 5.165 6.416 5.202C7.378 5.216 8.023 5.202 8.023 5.955C8.023 6.711 7.53 6.724 5.151 6.724C4.251 6.724 3.619 6.698 3.405 6.685C2.506 6.61 2.62 6.171 2.608 5.794L0.064 5.794C0.075 6.799 -0.039 7.49 0.77 8.068C1.34 8.469 2.608 8.545 4.58 8.545C6.594 8.545 7.935 8.457 8.39 8.407C9.933 8.231 10.605 7.616 10.605 5.87C10.605 3.393 9.338 3.293 6.53 3.293C6.188 3.293 5.797 3.306 5.442 3.306C4.847 3.306 4.151 3.281 3.405 3.268C2.873 3.257 2.544 3.042 2.544 2.627C2.544 1.698 3.291 1.937 5.467 1.824C5.594 1.81 5.669 1.81 5.797 1.81C7.301 1.81 7.682 1.874 7.72 2.653L10.238 2.651Z" fill="rgb(4,30,65)" fill-opacity="1.000" fill-rule="nonzero" transform="matrix(1 0 0 1 94.9721 23.0925)"/><path d="M9.948 8.382L12.783 8.382L8.176 0L4.708 0L0 8.382L2.86 8.382L3.696 6.861L9.151 6.861L9.948 8.382ZM4.595 5.128L6.417 1.81L8.215 5.128L4.595 5.128Z" fill="rgb(4,30,65)" fill-opacity="1.000" fill-rule="nonzero" transform="matrix(1 0 0 1 105.9154 23.1741)"/></svg>