<svg xmlns="http://www.w3.org/2000/svg" viewBox="0 0 60 60" width="60" height="60"><path d="M0 0L60 0L60 60L0 60L0 0Z" fill="rgb(4,30,65)" fill-opacity="1.000" fill-rule="nonzero" transform="matrix(1 0 0 1 0 0)"/><path d="M10.464 18.255C10.464 13.86 14.069 10.297 18.514 10.297C22.96 10.297 26.564 13.86 26.564 18.255C26.564 22.651 22.96 26.215 18.514 26.215C14.069 26.215 10.464 22.651 10.464 18.255ZM9.259 18.3C9.259 23.487 12.845 26.952 17.501 27.449L2.439 27.449C0.886 24.774 0 21.606 0 18.3L9.259 18.3ZM9.287 17.18L9.287 2.43C12.002 0.884 15.15 0 18.509 0L18.518 9.148C13.751 9.148 9.826 12.614 9.287 17.18ZM19.58 9.131L34.532 9.131C36.108 11.815 37.014 14.968 37.02 18.295L27.766 18.295C27.766 13.574 24.209 9.653 19.58 9.131ZM27.754 19.217L27.754 34.157C25.034 35.711 21.877 36.599 18.509 36.599L18.503 27.441C23.318 27.441 27.268 23.838 27.754 19.217Z" fill="rgb(255,255,255)" fill-opacity="1.000" fill-rule="nonzero" transform="matrix(1 0 0 1 11.3472 11.4004)"/></svg>