<svg xmlns="http://www.w3.org/2000/svg" viewBox="0 0 60 60" width="60" height="60"><defs><linearGradient id="g52" gradientUnits="userSpaceOnUse" x1="30.00" y1="60.00" x2="30.00" y2="-0.00"><stop offset="0.0%" stop-color="rgb(0,238,38)" stop-opacity="1.000"/><stop offset="100.0%" stop-color="rgb(255,198,0)" stop-opacity="1.000"/></linearGradient></defs><path d="M0 0L60 0L60 60L0 60L0 0Z" fill="rgb(255,255,255)" fill-opacity="1.000" fill-rule="nonzero" transform="matrix(1 0 0 1 0 0)"/><path d="M19.065 38.135C29.588 38.135 38.129 29.593 38.129 19.067C38.129 8.542 29.588 0 19.065 0C8.541 0 0 8.542 0 19.067C0 29.593 8.541 38.135 19.065 38.135Z" fill="rgb(23,21,39)" fill-opacity="1.000" fill-rule="nonzero" transform="matrix(1 0 0 1 10.8707 10.8697)"/><path d="M12.831 22.671C18.264 22.671 22.668 18.266 22.668 12.832C22.668 7.398 18.264 2.994 12.831 2.994C7.397 2.994 2.993 7.398 2.993 12.832C2.993 18.266 7.397 22.671 12.831 22.671ZM25.661 12.832C25.661 19.925 19.923 25.665 12.831 25.665C5.738 25.665 0 19.925 0 12.832C0 5.739 5.738 0 12.831 0C19.923 0 25.661 5.739 25.661 12.832Z" fill="url(#g52)" fill-rule="evenodd" transform="matrix(1 0 0 1 17.1056 17.1046)"/></svg>