<svg xmlns="http://www.w3.org/2000/svg" viewBox="0 0 130 60" width="130" height="60"><defs><linearGradient id="g53" gradientUnits="userSpaceOnUse" x1="65.00" y1="60.00" x2="65.00" y2="-0.00"><stop offset="0.0%" stop-color="rgb(0,238,38)" stop-opacity="1.000"/><stop offset="100.0%" stop-color="rgb(255,198,0)" stop-opacity="1.000"/></linearGradient></defs><path d="M0 0L130 0L130 60L0 60L0 0Z" fill="rgb(255,255,255)" fill-opacity="1.000" fill-rule="nonzero" transform="matrix(1 0 0 1 0 0)"/><path d="M11.935 23.874C18.524 23.874 23.871 18.526 23.871 11.937C23.871 5.348 18.524 0 11.935 0C5.347 0 0 5.348 0 11.937C0 18.526 5.347 23.874 11.935 23.874Z" fill="rgb(23,21,39)" fill-opacity="1.000" fill-rule="nonzero" transform="matrix(1 0 0 1 7 18)"/><path d="M8.033 14.193C11.434 14.193 14.191 11.436 14.191 8.034C14.191 4.632 11.434 1.874 8.033 1.874C4.631 1.874 1.874 4.632 1.874 8.034C1.874 11.436 4.631 14.193 8.033 14.193ZM16.065 8.034C16.065 12.474 12.472 16.067 8.033 16.067C3.593 16.067 0 12.474 0 8.034C0 3.593 3.593 0 8.033 0C12.472 0 16.065 3.593 16.065 8.034Z" fill="url(#g53)" fill-rule="evenodd" transform="matrix(1 0 0 1 10.9031 21.9034)"/><path d="M4.273 0C3.223 0 1.85 0.501 1.289 1.683L1.289 0.191L0 0.191L0 9.239L1.289 9.239L1.289 4.297C1.289 2.089 2.853 1.277 4.273 1.277C5.657 1.277 6.445 2.304 6.445 3.963L6.445 9.239L7.734 9.239L7.734 3.975C7.758 1.516 6.469 0 4.273 0Z" fill="rgb(23,21,39)" fill-opacity="1.000" fill-rule="nonzero" transform="matrix(1 0 0 1 41.875 25.2219)"/><path d="M4.273 0C3.223 0 1.85 0.501 1.289 1.683L1.289 0.191L0 0.191L0 9.239L1.289 9.239L1.289 4.297C1.289 2.089 2.853 1.277 4.273 1.277C5.657 1.277 6.445 2.304 6.445 3.963L6.445 9.239L7.734 9.239L7.734 3.975C7.758 1.516 6.469 0 4.273 0Z" fill="rgb(23,21,39)" fill-opacity="1.000" fill-rule="nonzero" transform="matrix(1 0 0 1 62.1417 25.2219)"/><path d="M0 0L0 9.048L1.277 9.048L1.265 0L0 0Z" fill="rgb(23,21,39)" fill-opacity="1.000" fill-rule="nonzero" transform="matrix(1 0 0 1 72.2744 25.4248)"/><path d="M8.951 4.679C8.951 1.814 7.113 0 4.547 0C1.981 0 0 1.814 0 4.679C0 7.544 1.969 9.418 4.56 9.418C6.362 9.418 7.925 8.463 8.653 6.852C8.248 6.756 7.746 6.661 7.364 6.565C6.803 7.556 5.765 8.141 4.56 8.141C2.889 8.141 1.552 7.115 1.325 5.348L8.94 5.348C8.951 5.181 8.951 4.87 8.951 4.679ZM1.313 4.071C1.564 2.352 2.889 1.265 4.547 1.265C6.195 1.265 7.388 2.34 7.638 4.071L1.313 4.071Z" fill="rgb(23,21,39)" fill-opacity="1.000" fill-rule="nonzero" transform="matrix(1 0 0 1 81.0827 25.2339)"/><path d="M1.277 0L0 0L0 9.048L1.277 9.048L1.277 0Z" fill="rgb(23,21,39)" fill-opacity="1.000" fill-rule="nonzero" transform="matrix(1 0 0 1 58.1432 25.413)"/><path d="M1.289 0L0 0L0 9.048L1.289 9.048L1.289 0Z" fill="rgb(23,21,39)" fill-opacity="1.000" fill-rule="nonzero" transform="matrix(1 0 0 1 37.8171 25.413)"/><path d="M2.757 0L1.468 0L1.468 4.178L0 4.178L0 5.467L1.468 5.467L1.468 13.226L2.757 13.226L2.757 5.467L4.225 5.467L4.225 4.178L2.757 4.178L2.757 0Z" fill="rgb(23,21,39)" fill-opacity="1.000" fill-rule="nonzero" transform="matrix(1 0 0 1 75.676 21.2469)"/><path d="M4.607 0C2.244 0 1.468 1.683 1.468 3.856L1.468 4.166L0 4.166L0 5.443L1.468 5.443L1.468 13.226L2.757 13.226L2.757 5.443L5.132 5.443L5.132 4.178L2.757 4.178L2.757 3.868C2.733 2.674 2.888 1.241 4.595 1.241L5.55 1.241L5.55 0.012L4.607 0Z" fill="rgb(23,21,39)" fill-opacity="1.000" fill-rule="nonzero" transform="matrix(1 0 0 1 50.9817 21.2469)"/><path d="M0.943 0L0.907 0C0.394 0.012 0 0.43 0 0.943C0 1.468 0.418 1.886 0.943 1.886C1.468 1.886 1.886 1.468 1.886 0.943C1.874 0.418 1.456 0 0.943 0Z" fill="rgb(23,21,39)" fill-opacity="1.000" fill-rule="nonzero" transform="matrix(1 0 0 1 37.5187 21.2469)"/><path d="M0.943 0C0.43 0 0.012 0.418 0 0.943C0 1.468 0.418 1.886 0.943 1.886C1.456 1.886 1.886 1.468 1.886 0.943C1.886 0.418 1.468 0 0.943 0Z" fill="rgb(23,21,39)" fill-opacity="1.000" fill-rule="nonzero" transform="matrix(1 0 0 1 71.9645 21.2469)"/><path d="M0.931 0L0.907 0C0.394 0.012 0 0.43 0 0.943C0 1.468 0.418 1.886 0.931 1.886C1.444 1.886 1.874 1.468 1.874 0.943C1.862 0.43 1.444 0 0.931 0Z" fill="rgb(23,21,39)" fill-opacity="1.000" fill-rule="nonzero" transform="matrix(1 0 0 1 57.8563 21.235)"/><path d="M5.144 0C3.963 0 2.816 0.525 2.339 1.421L2.339 0.203L0 0.203L0 13.644L2.339 13.644L2.339 8.046C2.816 8.953 3.974 9.442 5.144 9.442C7.495 9.442 9.536 7.604 9.536 4.715C9.536 1.862 7.495 0 5.144 0ZM4.762 7.186C3.533 7.186 2.387 6.315 2.375 4.751C2.375 3.235 3.461 2.268 4.762 2.268C6.063 2.268 7.125 3.283 7.125 4.751C7.125 6.219 6.051 7.186 4.762 7.186Z" fill="rgb(23,21,39)" fill-opacity="1.000" fill-rule="nonzero" transform="matrix(1 0 0 1 92.0277 25.2219)"/><path d="M7.376 0.203L7.376 1.325C6.72 0.31 5.395 0 4.584 0C2.22 0 0 1.814 0 4.715C0 7.604 2.209 9.43 4.584 9.43C5.467 9.43 6.791 9.024 7.376 8.093L7.376 9.251L9.715 9.251L9.715 0.203L7.376 0.203ZM4.918 7.138L4.882 7.138C3.533 7.15 2.447 6.052 2.435 4.703C2.435 3.235 3.628 2.268 4.918 2.268C6.147 2.268 7.388 3.163 7.388 4.703C7.376 6.255 6.183 7.138 4.918 7.138Z" fill="rgb(23,21,39)" fill-opacity="1.000" fill-rule="nonzero" transform="matrix(1 0 0 1 102.59 25.2219)"/><path d="M6.994 0L4.75 5.622L2.518 0L0 0L3.461 8.463L1.468 13.429L3.939 13.429L9.476 0L6.994 0Z" fill="rgb(23,21,39)" fill-opacity="1.000" fill-rule="nonzero" transform="matrix(1 0 0 1 113.5235 25.401)"/></svg>