<svg xmlns="http://www.w3.org/2000/svg" viewBox="0 0 60 60" width="60" height="60"><path d="M0 0L60 0L60 60L0 60L0 0Z" fill="rgb(236,109,45)" fill-opacity="1.000" fill-rule="nonzero" transform="matrix(1 0 0 1 0 0)"/><path d="M0 34.814L34.427 34.814L34.427 0L0 0L0 34.814Z" fill="rgb(255,255,255)" fill-opacity="1.000" fill-rule="evenodd" transform="matrix(1 0 0 1 12.3426 12.2124)"/><path d="M0 0L38.887 0L38.887 39.325L0 39.325L0 0ZM2.229 37.07L36.656 37.07L36.656 2.256L2.229 2.256L2.229 37.07Z" fill="rgb(236,109,45)" fill-opacity="1.000" fill-rule="evenodd" transform="matrix(1 0 0 1 10.1128 9.957)"/><path d="M30.842 0.394L30.831 0.384L30.829 0.384C30.594 0.242 30.236 0.159 29.996 0.266C28.461 0.117 26.994 0.133 25.442 0.153L25.333 0.153C24.556 0.162 23.75 0.172 22.945 0.158L16.436 0.023C14.825 -0.017 13.213 -0.005 11.602 0.057C10.388 0.067 9.208 0.099 8.007 0.135C6.757 0.169 3.769 0.177 1.985 0.184C1.48 0.182 0.976 0.185 0.472 0.192C0.261 0.203 0.005 0.5 0 0.738C-0.001 0.874 0.075 1.026 0.301 1.049C0.469 1.065 1.548 1.071 3.51 1.065L5.514 1.057C6.047 1.055 6.294 1.063 6.41 1.05L6.424 1.05C7.897 0.9 9.376 0.908 10.806 0.918L10.916 0.918C11.842 0.922 12.8 0.927 13.763 0.889C13.962 0.935 14.174 0.892 14.377 0.85L14.407 0.845C14.498 0.827 14.593 0.809 14.682 0.801C14.901 0.866 15.152 0.863 15.416 0.856C15.672 0.85 15.931 0.846 16.168 0.901L16.169 0.908L16.209 0.907L16.21 0.902C16.418 0.83 16.607 0.868 16.809 0.907C16.911 0.929 17.014 0.945 17.119 0.953C18.979 0.902 21.035 0.968 23.602 1.167L24.816 1.299L24.816 1.301L24.828 1.301C25.908 1.194 27.022 1.277 28.1 1.357C28.109 1.358 28.118 1.358 28.127 1.359C28.938 1.419 29.704 1.475 30.465 1.459L30.47 1.467L30.515 1.451L30.514 1.441L30.917 1.116L30.918 1.118L30.936 1.097L30.934 1.095C31 0.985 31.026 0.855 31.009 0.728C30.993 0.6 30.934 0.483 30.842 0.394Z" fill="rgb(227,178,40)" fill-opacity="1.000" fill-rule="evenodd" transform="matrix(1 0 0 1 14.0461 20.6668)"/><path d="M8.962 10.702L8.995 10.681L8.995 10.6L8.967 8.038L8.967 8.032L8.965 8.025C8.925 7.606 8.903 7.184 8.901 6.762C8.89 6.256 8.879 5.731 8.812 5.265C8.799 4.602 8.668 3.889 8.541 3.202L8.458 2.734L8.45 2.689L8.418 2.657C8.317 2.555 8.282 2.424 8.244 2.275C8.21 2.149 8.177 2.021 8.1 1.898C7.93 1.585 7.662 1.281 7.424 1.012L7.411 0.999C7.352 0.917 7.283 0.875 7.222 0.834C7.187 0.812 7.153 0.791 7.117 0.758L7.062 0.711L7.029 0.719L6.985 0.684C6.771 0.511 6.571 0.445 6.339 0.367L6.335 0.366C6.267 0.268 6.139 0.254 6.053 0.252L6.053 0.189L5.933 0.17L5.369 0.084L5.285 0.071L5.234 0.141C5.214 0.168 5.209 0.175 5.09 0.131C5.033 0.108 4.973 0.092 4.911 0.084L4.846 0.078L4.812 0.11C4.792 0.095 4.771 0.082 4.748 0.071L4.515 0L4.495 0.11C4.402 0.106 4.31 0.127 4.227 0.17L3.856 0.17L3.51 0.171L3.55 0.304L3.544 0.31C3.392 0.271 3.277 0.365 3.211 0.419L3.179 0.446C3.056 0.467 2.987 0.519 2.938 0.556C2.901 0.584 2.89 0.593 2.856 0.595L2.799 0.601L2.762 0.647C2.671 0.721 2.569 0.78 2.46 0.821L2.269 0.907L2.311 0.947C2.278 0.962 2.248 0.982 2.221 1.007L2.038 1.007L2.038 1.153L2.017 1.149L1.914 1.106C1.906 1.103 1.839 1.195 1.839 1.195C1.727 1.353 1.582 1.508 1.428 1.673C1.249 1.866 1.062 2.066 0.921 2.283L0.878 2.348L0.905 2.412C0.872 2.433 0.785 2.488 0.769 2.594C0.714 2.664 0.68 2.75 0.672 2.839C0.669 2.86 0.665 2.889 0.659 2.902C0.601 2.975 0.565 3.063 0.555 3.156C0.546 3.21 0.541 3.24 0.518 3.268L0.427 3.384L0.467 3.415C0.44 3.485 0.44 3.557 0.438 3.601C0.438 3.62 0.438 3.643 0.435 3.659L0.376 3.696L0.389 3.789C0.414 3.97 0.39 4.136 0.368 4.313C0.338 4.49 0.329 4.67 0.341 4.849C0.272 4.956 0.288 5.084 0.299 5.162C0.304 5.189 0.309 5.226 0.307 5.244L0.216 5.315L0.282 5.423C0.331 5.506 0.291 5.639 0.254 5.763C0.219 5.884 0.178 6.033 0.221 6.162C0.201 6.179 0.185 6.2 0.174 6.225C0.164 6.249 0.16 6.275 0.162 6.302C0.162 6.4 0.154 6.431 0.149 6.437L0.082 6.578L0.072 6.633L0.194 6.719C0.183 6.794 0.185 6.87 0.198 6.945C0.213 7.039 0.216 7.078 0.189 7.115L0.112 7.252L0.187 7.343L0.187 7.369C0.184 7.43 0.176 7.542 0.254 7.624C0.256 7.641 0.259 7.655 0.264 7.67L0.127 7.705L0.216 7.898L0.206 7.946C0.194 8.003 0.168 8.116 0.226 8.215C0.183 8.328 0.21 8.438 0.227 8.511C0.232 8.532 0.24 8.559 0.241 8.578C0.11 8.718 0.174 8.9 0.21 8.999C0.149 9.093 0.163 9.204 0.176 9.272L0 9.332L0.179 9.516C0.173 9.54 0.172 9.564 0.176 9.588C0.179 9.612 0.188 9.635 0.2 9.655C0.221 9.689 0.248 9.709 0.275 9.722L0.221 9.74L0.227 9.757L0.227 9.759L0.291 9.924L0.288 9.943C0.274 10.036 0.294 10.131 0.344 10.21C0.325 10.232 0.315 10.26 0.315 10.289L0.245 10.36L0.312 10.459C0.365 10.537 0.345 10.637 0.307 10.795C0.272 10.934 0.229 11.111 0.308 11.263L0.209 11.361L0.334 11.453C0.331 11.46 0.328 11.467 0.324 11.473C0.292 11.533 0.235 11.643 0.307 11.764L0.3 11.749C0.326 11.806 0.315 11.901 0.302 12C0.286 12.144 0.265 12.319 0.34 12.492L0.316 12.665L0.321 12.644C0.305 12.7 0.311 12.76 0.339 12.812L0.284 12.838L0.323 12.957C0.357 13.103 0.371 13.253 0.363 13.402C0.363 13.709 0.364 14.06 0.639 14.327L0.698 14.384L0.777 14.359C0.983 14.298 0.993 14.091 0.999 13.979C0.999 13.955 1 13.932 1.004 13.915L1.007 13.884L0.999 13.853C0.916 13.57 0.951 13.2 0.983 12.873L1.005 12.624L1.009 12.585L0.991 12.55C0.935 12.437 0.95 12.323 0.964 12.192C0.987 12.064 0.983 11.932 0.951 11.806C0.998 11.208 0.97 10.496 0.945 9.872C0.937 9.607 0.926 9.356 0.921 9.123L0.921 9.11C0.893 8.804 0.887 8.497 0.903 8.19C0.911 7.914 0.919 7.629 0.895 7.367C0.961 7.068 0.958 6.795 0.951 6.505C0.95 6.374 0.946 6.238 0.951 6.098L0.953 6.062L0.943 6.044C1.007 5.965 1.021 5.884 0.989 5.807C1.013 5.706 1.026 5.603 1.026 5.499C1.025 5.428 1.031 5.357 1.045 5.287L1.053 5.253L1.044 5.22C1.026 5.156 1.044 5.084 1.061 5.006C1.093 4.904 1.095 4.794 1.066 4.691C1.178 4.466 1.201 4.191 1.225 3.923L1.233 3.83C1.242 3.772 1.221 3.717 1.175 3.669L1.175 3.661C1.175 3.543 1.236 3.447 1.311 3.326C1.415 3.182 1.484 3.015 1.512 2.839L1.516 2.805L1.514 2.797L1.546 2.768C1.597 2.726 1.676 2.658 1.674 2.551C1.674 2.532 1.671 2.513 1.665 2.495C1.749 2.412 1.821 2.317 1.877 2.212C1.957 2.077 2.015 1.979 2.171 1.934L2.248 1.911L2.269 1.832C2.291 1.744 2.367 1.694 2.488 1.618C2.589 1.562 2.68 1.487 2.755 1.398C2.856 1.406 2.918 1.379 2.953 1.338C3.063 1.306 3.164 1.249 3.249 1.172C3.379 1.067 3.42 1.044 3.51 1.083L3.6 1.125L3.656 1.068L3.667 1.065C3.707 1.054 3.779 1.034 3.82 0.968C3.854 0.96 3.888 0.95 3.921 0.937C3.995 0.91 4.012 0.908 4.036 0.921C4.056 0.933 4.078 0.941 4.1 0.945C4.123 0.948 4.147 0.947 4.169 0.941L4.174 0.952L4.276 0.939L4.412 0.921C4.818 0.868 5.17 0.822 5.487 0.994L5.6 1.057L5.667 0.953L5.71 1C5.792 1.093 5.934 1.251 6.141 1.215C6.185 1.254 6.237 1.287 6.281 1.312L6.34 1.35L6.34 1.356L6.368 1.393C6.432 1.481 6.568 1.521 6.678 1.526C6.916 1.78 7.158 2.126 7.158 2.278L7.158 2.42L7.262 2.42L7.265 2.428C7.303 2.616 7.358 2.849 7.502 3.001C7.46 3.096 7.497 3.213 7.511 3.261L7.526 3.313L7.49 3.42L7.583 3.515L7.604 3.526C7.599 3.625 7.642 3.715 7.673 3.78C7.682 3.798 7.69 3.816 7.697 3.835L7.674 3.887C7.548 4.131 7.717 4.267 7.799 4.332C7.81 4.339 7.82 4.348 7.829 4.357C7.765 4.406 7.769 4.458 7.757 4.545L7.767 4.652L7.81 4.723L7.814 4.723L7.818 4.737C7.823 4.758 7.834 4.788 7.852 4.82L7.804 4.867L7.77 4.995L7.841 5.098L7.895 5.126C7.896 5.176 7.909 5.225 7.932 5.269L7.94 5.29L7.927 5.354C7.881 5.588 7.822 5.89 7.966 6.133L7.953 6.146C7.886 6.235 7.903 6.338 7.914 6.414C7.918 6.439 7.926 6.477 7.921 6.49L7.886 6.638C7.886 6.644 7.932 6.657 7.973 6.665C7.969 6.681 7.962 6.694 7.959 6.71L7.929 6.878L7.985 6.878C7.975 6.937 7.973 6.99 7.972 7.04C7.97 7.126 7.967 7.181 7.937 7.226L7.925 7.246L7.919 7.268C7.878 7.423 7.934 7.569 7.978 7.685L8.004 7.748C7.988 7.765 7.976 7.784 7.969 7.805C7.961 7.826 7.958 7.849 7.959 7.871C7.959 7.884 7.965 7.894 7.969 7.905L7.937 7.938L7.964 8.02C7.98 8.069 8.007 8.098 8.042 8.116L8.018 8.122C8.013 8.123 8.013 8.234 8.013 8.234L8.013 8.272L7.925 8.298L7.97 8.392C7.955 8.418 7.944 8.447 7.941 8.477C7.937 8.507 7.939 8.538 7.948 8.567L7.887 8.677C7.89 8.673 7.897 8.741 7.951 8.767C7.895 8.963 8.036 9.105 8.117 9.191C8.144 9.216 8.169 9.243 8.191 9.272L8.121 9.272L8.173 9.456L8.175 9.461L8.138 9.5L8.023 9.558L8.06 9.716L8.048 9.754C8.021 9.838 8.042 9.893 8.066 9.927C8.071 9.935 8.077 9.938 8.084 9.943C8.028 9.995 7.993 10.065 7.984 10.142L7.972 10.276L8.079 10.292C8.07 10.32 8.062 10.348 8.055 10.376C8.04 10.426 8.029 10.47 8.005 10.504L8.007 10.505L7.997 10.522L8.186 10.628C8.163 10.672 8.144 10.719 8.131 10.767L8.112 10.826L8.098 10.826L7.939 10.827L7.949 11.011C7.958 11.044 7.963 11.077 7.965 11.11C7.969 11.148 7.975 11.186 7.984 11.223L7.984 11.408C7.984 11.432 7.984 11.471 7.992 11.511L7.971 11.522L7.986 11.624C7.994 11.676 7.989 11.726 7.986 11.778C7.984 11.809 7.981 11.841 7.981 11.875L7.853 11.943L8.01 12.116L8.008 12.122C7.984 12.174 7.971 12.231 7.968 12.289L7.857 12.289L8.047 12.523C8.063 12.544 8.077 12.596 8.088 12.635L8.092 12.649C8.013 12.724 8.001 12.837 7.996 12.898C7.992 12.926 7.989 12.966 7.983 12.976L7.986 12.973L8.034 13.037C8.004 13.06 7.979 13.09 7.962 13.125C7.945 13.167 7.939 13.214 7.946 13.259L7.762 13.259L7.914 13.413L7.772 13.46L7.89 13.56L7.89 13.941C7.89 14.011 7.924 14.069 7.98 14.098C7.983 14.1 7.987 14.101 7.991 14.102C8.024 14.122 8.061 14.136 8.1 14.141C8.138 14.147 8.177 14.144 8.215 14.134L8.215 14.292L8.397 14.237C8.506 14.2 8.622 14.191 8.735 14.213L8.885 14.245L8.904 14.092C8.978 13.521 8.963 12.97 8.949 12.436C8.936 11.917 8.923 11.422 8.989 10.94C9.003 10.901 9.008 10.859 9.003 10.817C8.999 10.776 8.984 10.736 8.962 10.701L8.962 10.702Z" fill="rgb(0,106,50)" fill-opacity="1.000" fill-rule="evenodd" transform="matrix(1 0 0 1 25.1591 24.3404)"/><path d="M8.96 10.702L8.994 10.681L8.965 8.038L8.965 8.032L8.963 8.025C8.923 7.606 8.901 7.184 8.899 6.762C8.888 6.256 8.877 5.731 8.808 5.265C8.797 4.602 8.666 3.889 8.54 3.202L8.456 2.734L8.448 2.689L8.416 2.657C8.314 2.555 8.281 2.424 8.242 2.275C8.209 2.149 8.175 2.021 8.097 1.898C7.929 1.585 7.658 1.281 7.42 1.012L7.409 0.999C7.35 0.917 7.279 0.875 7.219 0.834C7.183 0.812 7.15 0.791 7.113 0.758L7.059 0.711L7.025 0.719L6.982 0.684C6.768 0.511 6.568 0.445 6.336 0.367L6.331 0.366C6.264 0.268 6.138 0.254 6.05 0.252L6.05 0.189L5.93 0.17L5.365 0.084L5.282 0.071L5.231 0.141C5.21 0.168 5.205 0.175 5.087 0.131C5.033 0.112 4.975 0.091 4.909 0.084L4.842 0.078L4.81 0.11C4.79 0.095 4.768 0.082 4.745 0.071L4.511 0L4.492 0.11C4.399 0.106 4.306 0.127 4.223 0.17L3.852 0.17L3.505 0.171L3.547 0.304L3.541 0.31C3.389 0.271 3.274 0.365 3.21 0.419C3.198 0.428 3.186 0.441 3.176 0.446C3.087 0.461 3.004 0.499 2.934 0.556C2.898 0.584 2.887 0.593 2.853 0.595L2.795 0.601L2.759 0.647C2.668 0.721 2.566 0.78 2.456 0.821L2.266 0.907L2.308 0.947C2.274 0.962 2.243 0.982 2.216 1.007L2.034 1.007L2.034 1.153C2.027 1.153 2.02 1.152 2.013 1.149L1.909 1.106C1.882 1.133 1.857 1.163 1.836 1.195C1.724 1.353 1.578 1.508 1.425 1.673C1.246 1.866 1.059 2.066 0.918 2.283L0.875 2.348L0.904 2.412C0.87 2.433 0.782 2.488 0.768 2.594C0.699 2.67 0.683 2.771 0.672 2.839C0.669 2.861 0.665 2.882 0.659 2.902C0.602 2.976 0.566 3.064 0.555 3.156C0.545 3.21 0.541 3.24 0.518 3.268L0.427 3.384L0.469 3.415C0.44 3.485 0.44 3.557 0.44 3.601C0.44 3.62 0.439 3.64 0.437 3.659L0.376 3.696L0.389 3.789C0.414 3.97 0.392 4.136 0.368 4.313C0.338 4.49 0.329 4.67 0.341 4.849C0.272 4.956 0.288 5.084 0.301 5.162C0.305 5.189 0.31 5.226 0.309 5.244L0.217 5.315L0.281 5.423C0.331 5.506 0.291 5.639 0.254 5.763C0.221 5.884 0.179 6.033 0.222 6.162C0.202 6.179 0.185 6.2 0.175 6.224C0.165 6.249 0.162 6.275 0.165 6.302C0.165 6.4 0.155 6.431 0.15 6.437L0.083 6.578L0.072 6.633L0.194 6.719C0.184 6.794 0.186 6.87 0.2 6.945C0.214 7.039 0.217 7.078 0.19 7.115L0.114 7.252L0.19 7.343L0.189 7.369C0.186 7.43 0.181 7.542 0.256 7.624C0.257 7.641 0.261 7.655 0.266 7.67L0.128 7.705L0.218 7.898L0.208 7.946C0.194 8.003 0.168 8.116 0.226 8.215C0.196 8.311 0.197 8.414 0.227 8.511C0.232 8.532 0.24 8.559 0.241 8.578C0.112 8.718 0.174 8.9 0.21 8.999C0.149 9.093 0.163 9.204 0.176 9.272L0 9.332L0.181 9.516C0.175 9.54 0.174 9.564 0.177 9.588C0.181 9.612 0.189 9.635 0.201 9.655C0.219 9.685 0.245 9.708 0.277 9.722L0.221 9.74L0.229 9.757L0.229 9.759L0.293 9.924L0.291 9.943C0.277 10.036 0.297 10.13 0.346 10.21C0.328 10.232 0.318 10.26 0.317 10.289L0.246 10.36L0.315 10.459C0.368 10.537 0.347 10.637 0.309 10.795C0.274 10.934 0.23 11.111 0.312 11.263L0.213 11.361L0.338 11.453L0.328 11.473C0.296 11.533 0.239 11.643 0.312 11.764L0.304 11.749C0.33 11.806 0.32 11.901 0.307 12C0.274 12.164 0.287 12.335 0.346 12.492L0.32 12.665L0.325 12.644C0.31 12.7 0.316 12.76 0.341 12.812L0.287 12.838L0.325 12.957C0.36 13.103 0.374 13.253 0.367 13.402C0.368 13.709 0.368 14.06 0.645 14.327L0.704 14.384L0.782 14.359C0.989 14.298 0.998 14.091 1.005 13.979C1.005 13.955 1.005 13.932 1.008 13.915L1.011 13.884L1.003 13.853C0.92 13.57 0.955 13.2 0.986 12.873C0.994 12.784 1.002 12.703 1.006 12.624L1.01 12.585L0.992 12.55C0.936 12.437 0.95 12.323 0.965 12.192C0.989 12.064 0.985 11.932 0.952 11.806C0.998 11.208 0.971 10.496 0.946 9.872C0.936 9.607 0.925 9.356 0.922 9.123L0.922 9.11C0.887 8.813 0.896 8.497 0.904 8.19C0.912 7.914 0.92 7.629 0.896 7.367C0.96 7.068 0.957 6.795 0.952 6.505C0.951 6.374 0.947 6.238 0.952 6.098L0.953 6.062L0.944 6.044C1.006 5.965 1.022 5.884 0.989 5.807C1.019 5.698 1.022 5.591 1.025 5.499C1.029 5.425 1.03 5.354 1.046 5.287L1.054 5.253L1.045 5.22C1.033 5.148 1.038 5.075 1.061 5.006C1.094 4.904 1.096 4.794 1.067 4.691C1.177 4.466 1.201 4.191 1.224 3.923L1.232 3.83C1.236 3.801 1.233 3.771 1.223 3.743C1.213 3.715 1.197 3.689 1.176 3.669L1.176 3.661C1.176 3.543 1.235 3.447 1.312 3.326C1.415 3.182 1.484 3.015 1.512 2.839L1.516 2.805L1.513 2.797L1.545 2.768C1.596 2.726 1.675 2.658 1.673 2.551C1.672 2.532 1.669 2.513 1.663 2.495C1.763 2.406 1.822 2.304 1.876 2.212C1.954 2.077 2.012 1.979 2.17 1.934L2.247 1.911L2.268 1.832C2.29 1.744 2.367 1.694 2.489 1.618C2.59 1.562 2.68 1.487 2.754 1.398C2.855 1.406 2.917 1.379 2.954 1.338C3.064 1.306 3.165 1.249 3.25 1.172C3.379 1.067 3.421 1.044 3.51 1.083L3.6 1.125L3.656 1.068C3.66 1.068 3.665 1.067 3.669 1.065C3.709 1.054 3.778 1.034 3.821 0.968C3.859 0.96 3.894 0.947 3.923 0.937C3.995 0.91 4.013 0.908 4.037 0.921C4.056 0.933 4.078 0.941 4.101 0.945C4.124 0.948 4.147 0.947 4.169 0.941L4.173 0.952L4.277 0.939L4.414 0.921C4.819 0.868 5.17 0.822 5.487 0.994L5.601 1.057L5.668 0.953C5.683 0.968 5.696 0.984 5.709 1C5.791 1.093 5.933 1.251 6.141 1.215C6.186 1.254 6.237 1.287 6.282 1.312L6.341 1.35L6.341 1.356L6.37 1.393C6.434 1.481 6.57 1.521 6.678 1.526C6.917 1.78 7.158 2.126 7.158 2.278L7.158 2.42L7.264 2.42L7.265 2.428C7.305 2.616 7.36 2.849 7.502 3.001C7.462 3.096 7.497 3.213 7.511 3.261L7.526 3.313L7.491 3.42L7.583 3.515L7.604 3.526C7.599 3.625 7.643 3.715 7.673 3.78L7.699 3.835L7.675 3.887C7.548 4.131 7.718 4.267 7.799 4.332L7.83 4.357C7.766 4.406 7.769 4.458 7.756 4.545L7.767 4.652L7.81 4.723L7.814 4.723L7.819 4.737C7.825 4.758 7.835 4.788 7.852 4.82L7.804 4.867L7.771 4.995L7.841 5.098L7.9 5.121C7.899 5.179 7.922 5.229 7.937 5.265L7.945 5.286L7.932 5.349C7.886 5.583 7.826 5.886 7.97 6.128L7.959 6.141C7.892 6.23 7.91 6.333 7.922 6.409C7.926 6.434 7.932 6.473 7.929 6.485L7.892 6.633C7.892 6.639 7.938 6.652 7.98 6.66C7.975 6.676 7.969 6.689 7.966 6.705L7.935 6.874L7.993 6.874C7.983 6.932 7.982 6.985 7.98 7.035C7.979 7.121 7.975 7.176 7.945 7.221L7.934 7.241L7.927 7.263C7.886 7.419 7.942 7.564 7.988 7.681L8.012 7.744C7.997 7.76 7.985 7.779 7.977 7.8C7.97 7.822 7.966 7.844 7.967 7.867C7.967 7.879 7.974 7.889 7.975 7.901L7.945 7.933L7.972 8.015C7.987 8.064 8.015 8.093 8.05 8.111L8.026 8.117C8.022 8.119 8.022 8.229 8.022 8.229L8.022 8.268L7.932 8.29L7.977 8.384C7.961 8.41 7.951 8.439 7.947 8.469C7.943 8.499 7.946 8.53 7.955 8.559L7.894 8.669C7.895 8.665 7.905 8.733 7.959 8.759C7.903 8.955 8.042 9.097 8.126 9.183C8.153 9.207 8.177 9.234 8.199 9.264L8.129 9.264L8.182 9.448L8.183 9.453C8.17 9.465 8.157 9.478 8.146 9.492L8.03 9.55L8.066 9.708L8.055 9.746C8.028 9.83 8.05 9.885 8.073 9.919C8.077 9.927 8.084 9.93 8.09 9.935C8.034 9.986 7.998 10.057 7.991 10.134L7.978 10.268L8.087 10.284C8.077 10.313 8.068 10.341 8.061 10.368C8.047 10.418 8.036 10.462 8.013 10.496L8.015 10.497L8.005 10.513L8.194 10.62C8.168 10.67 8.152 10.72 8.14 10.759C8.135 10.779 8.129 10.799 8.12 10.818L8.106 10.818L7.948 10.819L7.957 11.003C7.966 11.036 7.971 11.069 7.973 11.102C7.977 11.14 7.982 11.178 7.991 11.215L7.991 11.399C7.991 11.424 7.991 11.463 7.999 11.503L7.976 11.514L7.991 11.616C7.997 11.668 7.994 11.718 7.991 11.77C7.989 11.8 7.986 11.833 7.986 11.867L7.858 11.935L8.015 12.108C7.989 12.162 7.974 12.221 7.972 12.281L7.86 12.281L8.05 12.515C8.066 12.536 8.08 12.588 8.092 12.627L8.095 12.641C8.018 12.716 8.005 12.829 7.999 12.89C7.996 12.918 7.993 12.958 7.984 12.968L7.988 12.965L8.036 13.029C8.005 13.052 7.981 13.082 7.964 13.117C7.946 13.159 7.94 13.206 7.948 13.251L7.764 13.251L7.916 13.405L7.773 13.451L7.892 13.552L7.892 13.933C7.892 14.003 7.925 14.061 7.98 14.09L7.991 14.094C8.024 14.114 8.061 14.128 8.1 14.133C8.138 14.139 8.177 14.136 8.215 14.126L8.215 14.284L8.396 14.229C8.505 14.192 8.621 14.183 8.735 14.205L8.885 14.237L8.904 14.084C8.978 13.513 8.963 12.962 8.949 12.428C8.934 11.909 8.922 11.414 8.987 10.932C9.03 10.835 8.987 10.748 8.96 10.701L8.96 10.702Z" fill="rgb(41,84,147)" fill-opacity="1.000" fill-rule="evenodd" transform="matrix(1 0 0 1 14.3605 24.3404)"/><path d="M8.952 10.705L8.986 10.682L8.986 10.603L8.957 8.042L8.957 8.024C8.915 7.605 8.893 7.184 8.891 6.763C8.88 6.256 8.869 5.731 8.802 5.268C8.789 4.602 8.658 3.891 8.533 3.202L8.448 2.733L8.442 2.691L8.41 2.657C8.319 2.548 8.259 2.416 8.236 2.275C8.202 2.149 8.169 2.02 8.092 1.897C7.922 1.585 7.654 1.279 7.415 1.011L7.403 0.996C7.351 0.93 7.286 0.874 7.214 0.833C7.179 0.808 7.145 0.789 7.108 0.757L7.054 0.71L7.02 0.718L6.979 0.682C6.786 0.535 6.566 0.427 6.333 0.365L6.328 0.364C6.261 0.267 6.133 0.252 6.046 0.249L6.046 0.188L5.927 0.168L5.362 0.084L5.279 0.071L5.229 0.139C5.208 0.168 5.204 0.173 5.084 0.131C5.029 0.112 4.97 0.089 4.906 0.084L4.839 0.078L4.807 0.11C4.787 0.094 4.765 0.081 4.742 0.071L4.508 0L4.489 0.11C4.396 0.107 4.303 0.128 4.22 0.17L3.849 0.17L3.504 0.171L3.545 0.305L3.539 0.312C3.387 0.273 3.27 0.367 3.206 0.42L3.174 0.446C3.086 0.461 3.002 0.5 2.933 0.558C2.898 0.585 2.886 0.593 2.851 0.597L2.794 0.601L2.755 0.648C2.704 0.711 2.541 0.782 2.455 0.823L2.264 0.907L2.306 0.949C2.273 0.963 2.243 0.983 2.216 1.007L2.033 1.007L2.033 1.154C2.025 1.154 2.017 1.153 2.013 1.15L1.909 1.108C1.881 1.134 1.856 1.163 1.834 1.195C1.709 1.364 1.571 1.524 1.423 1.673C1.244 1.868 1.059 2.066 0.916 2.282L0.873 2.346L0.902 2.412C0.868 2.434 0.782 2.489 0.766 2.594C0.711 2.665 0.677 2.751 0.67 2.841C0.667 2.863 0.663 2.884 0.656 2.904C0.598 2.976 0.562 3.064 0.552 3.156C0.544 3.211 0.537 3.24 0.515 3.27L0.424 3.384L0.464 3.415C0.437 3.485 0.437 3.557 0.435 3.601C0.435 3.62 0.435 3.645 0.432 3.659L0.373 3.696L0.385 3.79C0.412 3.968 0.389 4.136 0.365 4.313C0.334 4.49 0.325 4.67 0.337 4.849C0.269 4.956 0.285 5.082 0.296 5.162C0.299 5.189 0.305 5.226 0.304 5.242L0.213 5.315L0.278 5.422C0.328 5.506 0.288 5.637 0.251 5.765C0.217 5.884 0.174 6.033 0.217 6.161C0.208 6.171 0.195 6.182 0.185 6.195C0.165 6.226 0.155 6.263 0.158 6.3C0.158 6.4 0.149 6.429 0.144 6.437L0.078 6.578L0.067 6.633L0.189 6.719C0.179 6.794 0.182 6.871 0.195 6.945C0.209 7.039 0.213 7.078 0.185 7.115L0.11 7.252L0.185 7.343L0.185 7.367C0.182 7.429 0.176 7.542 0.253 7.624C0.254 7.641 0.257 7.657 0.262 7.668L0.125 7.704L0.214 7.898L0.205 7.945C0.19 8.003 0.166 8.114 0.222 8.215C0.181 8.326 0.208 8.438 0.225 8.511C0.232 8.532 0.238 8.559 0.24 8.578C0.11 8.716 0.173 8.9 0.208 8.997C0.147 9.091 0.162 9.203 0.174 9.271L0 9.332L0.179 9.516C0.168 9.563 0.176 9.612 0.2 9.654C0.217 9.683 0.244 9.707 0.275 9.72L0.221 9.738L0.227 9.757L0.291 9.924L0.29 9.942C0.276 10.034 0.295 10.129 0.344 10.209C0.326 10.232 0.316 10.26 0.315 10.289L0.245 10.359L0.312 10.459C0.366 10.537 0.346 10.637 0.306 10.796C0.272 10.933 0.23 11.111 0.31 11.263L0.211 11.363L0.334 11.454L0.325 11.473C0.293 11.531 0.235 11.643 0.309 11.764L0.302 11.75C0.328 11.806 0.317 11.9 0.304 11.999C0.288 12.144 0.267 12.319 0.342 12.492L0.318 12.667L0.323 12.642C0.315 12.67 0.312 12.699 0.315 12.728C0.318 12.757 0.327 12.785 0.341 12.81L0.285 12.835L0.323 12.956C0.358 13.101 0.372 13.25 0.365 13.399C0.366 13.708 0.366 14.059 0.641 14.324L0.7 14.381L0.78 14.358C0.985 14.295 0.996 14.088 1.003 13.976C1.003 13.955 1.004 13.934 1.006 13.913L1.009 13.881L1.001 13.852C0.918 13.569 0.953 13.199 0.984 12.87L1.006 12.621L1.009 12.582L0.992 12.548C0.936 12.434 0.95 12.32 0.964 12.191C0.988 12.063 0.983 11.931 0.95 11.805C0.996 11.205 0.969 10.495 0.945 9.869C0.934 9.62 0.926 9.371 0.92 9.122L0.92 9.107C0.891 8.801 0.885 8.494 0.902 8.187C0.91 7.911 0.918 7.628 0.894 7.366C0.96 7.066 0.955 6.793 0.95 6.502C0.948 6.366 0.948 6.23 0.95 6.095L0.951 6.059L0.942 6.041C1.006 5.964 1.022 5.883 0.988 5.805C1.013 5.704 1.025 5.6 1.025 5.496C1.025 5.426 1.031 5.355 1.044 5.286L1.052 5.251L1.043 5.217C1.032 5.145 1.038 5.072 1.06 5.003C1.092 4.901 1.094 4.791 1.065 4.688C1.175 4.465 1.199 4.188 1.223 3.92L1.23 3.827C1.234 3.798 1.231 3.768 1.221 3.74C1.212 3.711 1.195 3.686 1.174 3.666L1.174 3.658C1.174 3.538 1.234 3.443 1.31 3.321C1.415 3.178 1.484 3.011 1.511 2.835L1.516 2.801L1.513 2.794C1.523 2.784 1.534 2.774 1.545 2.765C1.597 2.72 1.674 2.653 1.673 2.545C1.673 2.526 1.669 2.508 1.663 2.49C1.762 2.4 1.821 2.299 1.877 2.207C1.957 2.071 2.015 1.974 2.171 1.929L2.248 1.905L2.269 1.827C2.291 1.74 2.368 1.688 2.49 1.612C2.59 1.556 2.68 1.482 2.755 1.394C2.858 1.402 2.92 1.374 2.955 1.334C3.065 1.301 3.167 1.244 3.253 1.167C3.38 1.061 3.424 1.038 3.513 1.078L3.601 1.12L3.657 1.062C3.662 1.062 3.666 1.061 3.67 1.059C3.7 1.054 3.73 1.043 3.756 1.026C3.782 1.009 3.804 0.987 3.822 0.962C3.857 0.954 3.891 0.944 3.924 0.931C3.996 0.904 4.014 0.902 4.039 0.917C4.065 0.933 4.113 0.951 4.17 0.936L4.175 0.946L4.278 0.933L4.415 0.915C4.821 0.863 5.173 0.816 5.49 0.989L5.603 1.051L5.671 0.949L5.714 0.994C5.795 1.086 5.938 1.245 6.144 1.211C6.189 1.25 6.24 1.282 6.285 1.31L6.344 1.345L6.344 1.352L6.373 1.39C6.437 1.476 6.572 1.518 6.681 1.521C6.919 1.774 7.161 2.121 7.161 2.273L7.161 2.416L7.267 2.416L7.268 2.424C7.306 2.611 7.361 2.843 7.503 2.996C7.465 3.092 7.498 3.206 7.514 3.255L7.529 3.307L7.493 3.413L7.586 3.509L7.607 3.522C7.609 3.611 7.633 3.697 7.677 3.774L7.701 3.827L7.679 3.881C7.551 4.125 7.722 4.261 7.802 4.325L7.834 4.351C7.772 4.401 7.773 4.452 7.762 4.539L7.772 4.647L7.815 4.717L7.818 4.717L7.823 4.733C7.831 4.762 7.842 4.789 7.857 4.815L7.807 4.862L7.775 4.99L7.845 5.092L7.901 5.119C7.9 5.178 7.922 5.228 7.936 5.263C7.94 5.27 7.943 5.276 7.945 5.286L7.932 5.349C7.884 5.583 7.826 5.886 7.97 6.13L7.957 6.141C7.892 6.23 7.908 6.332 7.921 6.408C7.924 6.432 7.93 6.473 7.927 6.486L7.892 6.631C7.89 6.638 7.938 6.651 7.978 6.66C7.973 6.675 7.967 6.688 7.965 6.704L7.933 6.872L7.991 6.872C7.981 6.929 7.98 6.984 7.978 7.034C7.977 7.12 7.973 7.176 7.944 7.22L7.924 7.241L7.917 7.265C7.876 7.419 7.932 7.564 7.978 7.681L8.002 7.746C7.987 7.762 7.975 7.781 7.967 7.801C7.959 7.822 7.956 7.845 7.957 7.867C7.959 7.88 7.964 7.891 7.967 7.901L7.937 7.932L7.964 8.016C7.976 8.057 8.005 8.091 8.042 8.111L8.018 8.118C8.013 8.118 8.013 8.227 8.013 8.227L8.013 8.268L7.924 8.292L7.968 8.384C7.946 8.428 7.922 8.491 7.946 8.561L7.885 8.669C7.887 8.666 7.895 8.734 7.949 8.761C7.893 8.955 8.032 9.098 8.116 9.183C8.143 9.208 8.168 9.237 8.189 9.267L8.119 9.267L8.172 9.448L8.173 9.453C8.16 9.465 8.149 9.479 8.138 9.492L8.023 9.552L8.059 9.71L8.048 9.748C8.021 9.83 8.043 9.887 8.066 9.919C8.071 9.927 8.077 9.93 8.083 9.935C8.028 9.987 7.992 10.058 7.984 10.134L7.971 10.268L8.08 10.284C8.071 10.312 8.063 10.34 8.055 10.369C8.042 10.419 8.031 10.464 8.007 10.498L8.008 10.498L7.997 10.516L8.186 10.622C8.164 10.667 8.146 10.714 8.133 10.762L8.112 10.818L8.099 10.818L7.939 10.82L7.949 11.004C7.958 11.033 7.962 11.065 7.966 11.103C7.97 11.141 7.975 11.178 7.982 11.216L7.982 11.402C7.983 11.436 7.985 11.47 7.99 11.504L7.97 11.515L7.984 11.617C7.989 11.668 7.989 11.72 7.984 11.772C7.981 11.804 7.979 11.836 7.979 11.867L7.85 11.935L8.006 12.108C7.981 12.163 7.966 12.222 7.965 12.283L7.853 12.283L8.043 12.517C8.059 12.537 8.074 12.59 8.083 12.627L8.088 12.642C8.01 12.718 7.997 12.831 7.99 12.891C7.987 12.919 7.984 12.959 7.978 12.97L7.979 12.967L8.029 13.03C7.998 13.053 7.973 13.084 7.957 13.119C7.938 13.161 7.933 13.208 7.941 13.253L7.757 13.253L7.909 13.407L7.766 13.454L7.885 13.554L7.885 13.936C7.885 14.005 7.918 14.062 7.973 14.091L7.984 14.096C8.057 14.144 8.141 14.143 8.208 14.128L8.208 14.285L8.388 14.232C8.497 14.194 8.614 14.185 8.727 14.206L8.878 14.238L8.897 14.084C8.955 13.534 8.97 12.981 8.942 12.428C8.914 11.929 8.927 11.428 8.98 10.931C9.022 10.837 8.979 10.75 8.951 10.705L8.952 10.705Z" fill="rgb(236,109,45)" fill-opacity="1.000" fill-rule="evenodd" transform="matrix(1 0 0 1 35.7817 24.5318)"/></svg>