<svg xmlns="http://www.w3.org/2000/svg" viewBox="0 0 60 60" width="60" height="60"><path d="M0 0L60 0L60 60L0 60L0 0Z" fill="rgb(234,113,0)" fill-opacity="1.000" fill-rule="nonzero" transform="matrix(1 0 0 1 0 0)"/><path d="M0.569 5.398L0.569 7.605L0 7.605L0 0.092L0.523 0.092L0.523 0.672L0.544 0.672C0.795 0.467 1.087 0.305 1.418 0.184C1.748 0.063 2.083 0 2.417 0C3.011 0 3.522 0.129 3.948 0.392C4.375 0.655 4.697 1.01 4.914 1.456C5.132 1.902 5.241 2.411 5.241 2.983C5.241 3.513 5.128 4.005 4.898 4.451C4.668 4.898 4.337 5.256 3.898 5.523C3.459 5.79 2.94 5.924 2.342 5.924C1.665 5.924 1.075 5.749 0.569 5.398ZM1.409 5.261C1.723 5.352 2.028 5.398 2.334 5.398C2.819 5.398 3.237 5.29 3.588 5.069C3.94 4.848 4.199 4.56 4.375 4.197C4.55 3.838 4.638 3.442 4.638 3.02C4.638 2.286 4.442 1.685 4.049 1.222C3.655 0.759 3.112 0.53 2.409 0.53C2.066 0.53 1.744 0.584 1.443 0.697C1.142 0.805 0.849 0.964 0.56 1.168L0.56 4.868C0.82 5.039 1.1 5.169 1.409 5.261Z" fill="rgb(255,255,255)" fill-opacity="1.000" fill-rule="nonzero" transform="matrix(1 0 0 1 36.8308 27.0492)"/><path d="M0.531 5.481C0.175 5.174 0 4.746 0 4.195C0 3.829 0.092 3.506 0.28 3.232C0.468 2.959 0.714 2.749 1.019 2.602C1.329 2.455 1.663 2.383 2.026 2.383C2.315 2.383 2.586 2.425 2.837 2.509C3.087 2.593 3.296 2.72 3.463 2.888L3.509 2.888L3.509 2.005C3.509 1.026 3.062 0.538 2.164 0.538C1.746 0.538 1.408 0.652 1.153 0.874C0.898 1.101 0.773 1.417 0.773 1.82L0.205 1.82C0.205 1.505 0.288 1.211 0.455 0.933C0.623 0.656 0.856 0.429 1.157 0.256C1.458 0.084 1.801 0 2.189 0C2.782 0 3.246 0.177 3.585 0.525C3.923 0.878 4.09 1.37 4.09 2.005L4.09 5.826L3.576 5.826L3.576 5.162L3.53 5.162C3.38 5.393 3.146 5.578 2.837 5.725C2.523 5.872 2.189 5.944 1.834 5.944C1.32 5.939 0.882 5.788 0.531 5.481ZM2.833 5.225C3.071 5.09 3.301 4.905 3.522 4.67L3.522 3.232C3.338 3.127 3.121 3.043 2.862 2.984C2.603 2.926 2.335 2.9 2.064 2.9C1.621 2.9 1.266 3.005 0.999 3.22C0.727 3.434 0.593 3.749 0.593 4.17C0.593 4.59 0.706 4.905 0.936 5.111C1.166 5.317 1.492 5.422 1.918 5.422C2.285 5.422 2.594 5.355 2.833 5.225Z" fill="rgb(255,255,255)" fill-opacity="1.000" fill-rule="nonzero" transform="matrix(1 0 0 1 42.7745 27.0492)"/><path d="M4.602 7.201C4.141 7.598 3.552 7.797 2.837 7.797C2.122 7.797 1.526 7.633 1.05 7.304C0.573 6.975 0.334 6.528 0.334 5.962L0.923 5.962C0.923 6.367 1.107 6.685 1.476 6.914C1.853 7.143 2.307 7.258 2.837 7.258C4.098 7.258 4.729 6.608 4.729 5.309L4.729 4.781C4.237 5.332 3.591 5.607 2.791 5.607C1.945 5.607 1.269 5.339 0.761 4.804C0.254 4.261 0 3.604 0 2.832C0 2.045 0.265 1.376 0.796 0.826C1.326 0.275 2.011 0 2.849 0C3.564 0 4.191 0.218 4.729 0.654L4.751 0.654L4.751 0.115L5.304 0.115L5.304 5.309C5.304 6.18 5.071 6.811 4.602 7.201ZM0.6 2.832C0.6 3.467 0.804 4.002 1.211 4.437C1.619 4.865 2.145 5.079 2.791 5.079C3.568 5.079 4.214 4.789 4.729 4.208L4.729 1.238C4.252 0.765 3.637 0.528 2.884 0.528C2.207 0.528 1.657 0.757 1.234 1.216C0.811 1.667 0.6 2.205 0.6 2.832Z" fill="rgb(255,255,255)" fill-opacity="1.000" fill-rule="nonzero" transform="matrix(1 0 0 1 47.6955 27.0492)"/><path d="M0 6.876L3.018 6.876L3.034 6.792L0.058 6.171L0.116 5.838L3.092 6.485L3.117 6.368L0.305 5.14L0.427 4.8L3.246 5.993L3.304 5.909L0.807 4.044L1.064 3.637L3.545 5.502L3.619 5.402L1.665 2.906L2.144 2.515L4.082 4.894L4.165 4.82L3.037 1.933L3.722 1.642L4.786 4.471L4.869 4.445L4.869 1.309L5.962 1.309L5.962 7.115L0 7.115L0 6.876ZM17.368 5.848L18.547 5.848L18.547 7.125L17.567 7.125C16.536 7.125 15.902 6.766 15.902 5.45L15.902 2.599L15.202 2.599C15.08 2.599 15.015 2.45 15.099 2.36L17.127 0.045C17.214 -0.048 17.371 0.013 17.371 0.142L17.371 1.322L18.541 1.322L18.541 2.599L17.371 2.599L17.371 5.848L17.368 5.848ZM13.164 1.228C12.46 1.228 11.933 1.636 11.676 2.276L11.628 2.276L11.628 1.319L10.23 1.319L10.23 7.125L11.699 7.125L11.699 2.625L12.679 2.625C13.106 2.625 13.264 2.715 13.264 3.174L13.264 7.125L14.733 7.125L14.733 2.887C14.729 1.72 14.173 1.228 13.164 1.228L13.164 1.228ZM7.691 7.125L9.16 7.125L9.16 1.319L7.691 1.319L7.691 7.125ZM26.907 2.347L26.846 2.347L26.846 1.319L25.387 1.319L25.387 7.125L26.942 7.125L26.942 2.706L28.312 2.706L28.312 1.228L28.122 1.228C27.402 1.228 27.084 1.548 26.907 2.347L26.907 2.347ZM24.706 4.073L24.706 4.513L20.302 4.513C20.383 5.376 20.919 5.948 21.749 5.948C22.491 5.948 23.028 5.55 23.137 5.059L24.702 5.059C24.374 6.284 23.256 7.222 21.726 7.222C19.942 7.222 18.731 5.945 18.731 4.27C18.731 2.596 19.901 1.228 21.765 1.228C23.526 1.228 24.706 2.447 24.706 4.073L24.706 4.073ZM20.347 3.443L23.189 3.443C22.967 2.861 22.498 2.444 21.771 2.444C21.135 2.447 20.576 2.783 20.347 3.443Z" fill="rgb(255,255,255)" fill-opacity="1.000" fill-rule="nonzero" transform="matrix(1 0 0 1 7.3052 25.835)"/></svg>