<svg xmlns="http://www.w3.org/2000/svg" viewBox="0 0 130 60" width="130" height="60"><path d="M0 0L130 0L130 60L0 60L0 0Z" fill="rgb(255,255,255)" fill-opacity="1.000" fill-rule="nonzero" transform="matrix(1 0 0 1 0 0)"/><path d="M23.642 8.262C23.183 8.195 22.634 8.024 22.578 7.931C22.564 7.909 22.536 7.935 22.504 7.999C22.408 8.193 22.451 8.189 20.779 8.16C19.944 8.146 18.758 8.135 18.144 8.135C17.531 8.135 17.011 8.123 16.99 8.109C16.928 8.068 16.945 7.996 17.021 7.98C17.059 7.973 17.176 7.959 17.281 7.949C17.625 7.919 17.699 7.849 17.779 7.482C17.821 7.288 17.83 6.841 17.841 4.238C17.855 0.98 17.848 0.759 17.712 0.579C17.634 0.476 17.417 0.376 17.271 0.376L17.199 0.376L17.199 0.964C17.198 1.636 17.19 1.693 17.09 1.693C17.009 1.693 16.982 1.64 16.982 1.481C16.982 1.288 16.872 1.106 16.692 1.003C16.414 0.842 16.171 0.805 15.142 0.768L14.682 0.752L14.697 3.91C14.712 7.094 14.725 7.448 14.828 7.65C14.927 7.844 15.027 7.881 15.556 7.925C15.779 7.943 15.82 7.955 15.83 8.005C15.836 8.038 15.826 8.074 15.807 8.085C15.76 8.115 12.325 8.107 12.278 8.077C12.222 8.041 12.231 7.969 12.293 7.951C12.323 7.943 12.496 7.926 12.677 7.915C13.071 7.89 13.175 7.84 13.265 7.634C13.382 7.366 13.392 7.12 13.408 3.895L13.424 0.753L13.025 0.77C12.304 0.801 11.791 0.843 11.681 0.881C11.492 0.945 11.38 1.055 11.277 1.278C11.223 1.394 11.169 1.51 11.156 1.536C11.143 1.562 11.106 1.583 11.073 1.583C10.995 1.583 10.974 1.429 10.971 0.842L10.968 0.382L10.837 0.399C10.591 0.431 10.443 0.554 10.379 0.779C10.331 0.944 10.321 1.33 10.268 4.869C10.242 6.625 10.208 8.095 10.192 8.137C10.157 8.232 10.074 8.234 9.961 8.145C9.883 8.082 7.63 5.608 5.719 3.487C5.296 3.018 4.945 2.633 4.94 2.633C4.934 2.633 4.935 2.933 4.943 3.299C4.95 3.666 4.97 4.664 4.986 5.517C5.003 6.37 5.031 7.16 5.049 7.272C5.066 7.385 5.116 7.549 5.158 7.638C5.258 7.846 5.371 7.903 5.733 7.924C6.043 7.941 6.103 7.965 6.052 8.047C6.019 8.1 5.864 8.103 3.052 8.097C1.421 8.093 0.072 8.081 0.055 8.07C0.037 8.059 0.027 8.027 0.032 7.999C0.04 7.96 0.106 7.94 0.313 7.912C0.462 7.892 0.62 7.852 0.664 7.822C0.884 7.676 0.899 7.403 0.888 3.793C0.878 0.835 0.878 0.83 0.812 0.684C0.721 0.486 0.632 0.436 0.296 0.394C0.076 0.366 0.009 0.347 0.001 0.307C-0.004 0.279 0.009 0.246 0.03 0.233C0.087 0.197 2.999 0.205 3.035 0.241C3.109 0.316 3.028 0.369 2.806 0.39C2.498 0.421 2.345 0.494 2.274 0.646C2.228 0.745 2.211 0.894 2.188 1.426C2.152 2.246 2.183 7.161 2.225 7.396C2.261 7.596 2.377 7.757 2.554 7.85C2.651 7.901 2.748 7.917 3.02 7.926C3.564 7.944 3.797 7.87 3.997 7.617C4.188 7.376 4.182 7.468 4.364 1.998C4.4 0.917 4.439 0.132 4.458 0.096C4.497 0.022 4.593 -0.012 4.692 0.013C4.766 0.032 5.581 0.925 8.069 3.715C8.714 4.439 9.326 5.123 9.427 5.235L9.612 5.439L9.595 3.197C9.584 1.708 9.566 0.91 9.544 0.818C9.469 0.522 9.318 0.417 8.921 0.386C8.746 0.372 8.664 0.353 8.652 0.322C8.611 0.213 8.687 0.205 9.839 0.205L10.972 0.204L11.029 0.127C11.085 0.052 11.092 0.051 11.238 0.089C11.56 0.172 12.02 0.187 14.274 0.188C16.255 0.188 16.641 0.181 16.858 0.139C17.093 0.094 17.117 0.094 17.169 0.142C17.221 0.19 17.421 0.194 19.477 0.191C21.349 0.189 21.766 0.18 21.951 0.141C22.074 0.115 22.19 0.094 22.21 0.094C22.267 0.094 22.279 0.167 22.247 0.332C22.231 0.416 22.199 0.738 22.176 1.046C22.133 1.619 22.105 1.718 21.998 1.677C21.965 1.664 21.945 1.595 21.931 1.452C21.91 1.219 21.818 1 21.713 0.93C21.519 0.801 21.335 0.779 20.268 0.75C19.314 0.724 19.226 0.726 19.191 0.775C19.132 0.854 19.135 3.507 19.194 3.588C19.234 3.643 19.286 3.645 20.426 3.616C21.714 3.584 21.745 3.579 21.912 3.399C21.951 3.357 22.01 3.323 22.043 3.323C22.096 3.323 22.101 3.34 22.087 3.456C22.079 3.529 22.047 3.907 22.017 4.295C21.961 5.025 21.935 5.132 21.835 5.048C21.808 5.026 21.787 4.961 21.787 4.903C21.787 4.719 21.721 4.483 21.645 4.391C21.492 4.207 21.406 4.193 20.268 4.165C19.302 4.141 19.227 4.143 19.189 4.193C19.157 4.236 19.151 4.52 19.158 5.564C19.166 6.752 19.173 6.893 19.223 7.006C19.303 7.186 19.442 7.318 19.65 7.412C19.968 7.556 20.246 7.595 20.981 7.598C21.763 7.601 21.943 7.566 22.17 7.363C22.375 7.181 22.447 6.963 22.545 6.233C22.579 5.982 22.743 5.933 22.787 6.16C22.908 6.777 23.012 7.012 23.287 7.291C23.603 7.611 23.973 7.76 24.531 7.795C25.627 7.863 26.381 7.218 26.223 6.348C26.126 5.818 25.749 5.391 24.824 4.766C24.062 4.25 23.811 4.056 23.465 3.717C22.856 3.119 22.614 2.621 22.612 1.959C22.61 1.45 22.749 1.118 23.12 0.747C23.32 0.548 23.417 0.478 23.682 0.348C24.256 0.067 24.73 -0.017 25.584 0.009C26.138 0.026 26.826 0.119 26.994 0.199L27.072 0.236L27.08 0.997C27.085 1.486 27.077 1.779 27.056 1.819C27.037 1.855 26.991 1.881 26.947 1.881C26.869 1.881 26.863 1.869 26.826 1.63C26.794 1.43 26.629 1.13 26.458 0.961C26.133 0.64 25.738 0.493 25.196 0.491C24.687 0.489 24.325 0.608 24.067 0.862C23.862 1.063 23.786 1.252 23.79 1.552C23.797 2.1 24.066 2.411 25.181 3.151C26.158 3.8 26.74 4.291 27.043 4.719C27.176 4.908 27.397 5.34 27.397 5.412C27.397 5.433 27.41 5.459 27.426 5.468C27.451 5.484 28.94 3.473 30.543 1.254C31.307 0.197 31.341 0.157 31.479 0.157C31.669 0.157 31.661 0.1 31.83 2.494C32.14 6.883 32.163 7.129 32.298 7.573C32.403 7.917 32.558 8.024 32.952 8.024C33.043 8.025 33.115 8.043 33.147 8.076C33.193 8.122 33.193 8.131 33.145 8.184C33.117 8.216 33.036 8.25 32.966 8.259C32.895 8.269 32.273 8.267 31.582 8.253L30.327 8.229L30.317 8.158C30.307 8.086 30.32 8.077 30.473 8.043C30.655 8.002 30.656 7.996 30.607 6.745C30.582 6.121 30.554 5.596 30.543 5.579C30.532 5.56 30.12 5.548 29.46 5.548C28.491 5.548 28.391 5.553 28.335 5.603C28.207 5.717 26.746 7.897 26.746 7.973C26.746 8.066 26.796 8.087 27.006 8.087C27.187 8.087 27.313 8.152 27.253 8.214C27.228 8.24 26.985 8.253 26.447 8.259C26.024 8.263 25.286 8.276 24.809 8.286C24.147 8.301 23.87 8.295 23.642 8.262ZM30.512 5.016C30.531 4.986 30.45 3.128 30.416 2.796C30.407 2.704 30.387 2.634 30.372 2.639C30.326 2.656 28.732 4.994 28.749 5.021C28.772 5.059 30.489 5.054 30.512 5.016ZM52.273 8.273C51.753 8.201 51.232 8.034 51.154 7.915C51.113 7.852 51.108 7.714 51.116 6.981C51.127 6.079 51.136 6.019 51.269 6.019C51.339 6.019 51.39 6.109 51.39 6.232C51.39 6.39 51.529 6.819 51.64 7.007C51.938 7.508 52.543 7.806 53.256 7.805C53.945 7.803 54.513 7.51 54.738 7.037C54.879 6.742 54.854 6.311 54.674 5.956C54.481 5.573 54.186 5.297 53.389 4.756C52.654 4.257 52.394 4.056 52.045 3.716C51.441 3.127 51.194 2.611 51.196 1.944C51.199 1.026 51.853 0.354 53 0.09C53.63 -0.054 54.819 -0.009 55.54 0.187L55.668 0.222L55.668 1.002C55.668 1.431 55.659 1.804 55.649 1.831C55.624 1.898 55.491 1.894 55.456 1.826C55.441 1.796 55.42 1.71 55.411 1.636C55.369 1.306 55.049 0.889 54.691 0.699C54.412 0.552 54.159 0.497 53.763 0.498C53.24 0.499 52.943 0.599 52.66 0.866C52.461 1.054 52.375 1.262 52.375 1.553C52.375 2.09 52.667 2.425 53.777 3.161C54.543 3.67 54.889 3.94 55.282 4.339C55.841 4.905 56.036 5.317 56.062 5.987C56.08 6.428 56.03 6.676 55.853 7.02C55.631 7.452 55.159 7.854 54.635 8.058C54.163 8.242 53.924 8.28 53.172 8.292C52.797 8.298 52.393 8.289 52.273 8.273ZM82.38 8.272C81.809 8.209 81.271 8.025 80.805 7.736C80.46 7.522 79.973 7.034 79.736 6.664C78.647 4.966 78.827 2.541 80.148 1.126C80.844 0.38 81.792 0 82.962 0C83.834 0.001 84.496 0.169 85.162 0.56C85.515 0.767 86.036 1.299 86.255 1.675C86.665 2.381 86.847 3.189 86.812 4.153C86.76 5.59 86.189 6.799 85.214 7.539C84.46 8.111 83.397 8.386 82.38 8.272ZM83.809 7.629C84.725 7.323 85.228 6.398 85.332 4.827C85.449 3.058 84.919 1.586 83.926 0.929C83.613 0.722 83.437 0.647 83.102 0.578C82.406 0.436 81.708 0.65 81.238 1.15C80.909 1.5 80.661 2.058 80.543 2.711C80.474 3.096 80.448 4.066 80.495 4.483C80.68 6.117 81.417 7.257 82.521 7.618C82.949 7.757 83.413 7.762 83.809 7.629ZM94.756 8.288C94.135 8.215 93.774 8.122 93.373 7.933C93.025 7.767 92.77 7.587 92.47 7.293C92.33 7.155 92.21 7.048 92.204 7.055C92.199 7.063 92.177 7.201 92.157 7.362C92.101 7.8 92.061 7.957 91.982 8.05L91.91 8.135L90.861 8.132C87.456 8.123 86.666 8.11 86.63 8.066C86.568 7.99 86.651 7.95 86.919 7.927C87.23 7.9 87.312 7.846 87.388 7.619C87.49 7.312 87.506 6.722 87.497 3.746L87.487 0.862L87.418 0.72C87.38 0.642 87.31 0.556 87.263 0.528C87.157 0.465 86.893 0.408 86.715 0.408C86.57 0.408 86.497 0.355 86.541 0.283C86.564 0.246 86.845 0.239 88.265 0.237C89.991 0.235 90.079 0.241 90.037 0.351C90.024 0.385 89.945 0.403 89.737 0.418C89.317 0.448 89.197 0.516 89.111 0.768C89.049 0.949 89.048 6.583 89.109 6.912C89.165 7.212 89.221 7.318 89.382 7.426C89.563 7.546 89.719 7.567 90.432 7.563C91.077 7.559 91.382 7.515 91.604 7.391C91.746 7.312 91.914 7.086 91.969 6.899C92.002 6.789 91.996 6.769 91.846 6.505C91.432 5.774 91.242 5.035 91.242 4.153C91.242 2.961 91.635 1.893 92.356 1.131C93.077 0.367 93.99 0 95.166 0C97.23 0 98.604 1.107 98.958 3.055C99 3.283 99.007 3.477 98.995 4.089C98.979 4.903 98.944 5.126 98.738 5.705C98.261 7.046 97.209 7.965 95.854 8.224C95.601 8.273 94.948 8.311 94.756 8.288ZM95.933 7.66C96.246 7.571 96.463 7.435 96.73 7.163C96.943 6.945 97.009 6.852 97.142 6.577C97.327 6.193 97.46 5.697 97.516 5.184C97.573 4.655 97.542 3.616 97.456 3.186C97.221 2.014 96.658 1.162 95.857 0.766C95.067 0.377 94.146 0.487 93.559 1.043C93.136 1.443 92.909 1.91 92.755 2.696C92.676 3.101 92.659 4.175 92.724 4.649C92.937 6.19 93.654 7.257 94.72 7.616C95.099 7.744 95.576 7.761 95.933 7.66ZM67.468 8.08C67.328 7.947 65.656 6.115 63.59 3.832C62.994 3.173 62.502 2.639 62.497 2.644C62.492 2.649 62.503 3.498 62.521 4.53L62.555 6.407L62.869 6.797C63.267 7.292 63.606 7.657 63.783 7.781C63.895 7.858 63.963 7.88 64.132 7.892C64.313 7.905 64.344 7.917 64.36 7.974C64.37 8.013 64.359 8.054 64.334 8.073C64.305 8.095 63.753 8.104 62.653 8.101C61.752 8.098 60.998 8.093 60.978 8.091C60.923 8.086 60.896 7.965 60.939 7.914C60.965 7.882 61.042 7.868 61.197 7.868C61.479 7.868 61.628 7.79 61.613 7.652C61.607 7.589 61.348 7.244 60.742 6.493L59.881 5.423L58.708 5.423L57.534 5.423L57.511 5.978C57.482 6.687 57.507 7.405 57.566 7.57C57.659 7.828 57.825 7.923 58.215 7.938C58.44 7.947 58.468 7.96 58.452 8.045C58.442 8.099 58.369 8.102 57.133 8.102C55.93 8.103 55.821 8.099 55.771 8.049C55.692 7.968 55.744 7.941 56.02 7.919C56.343 7.893 56.48 7.816 56.584 7.6C56.661 7.441 56.667 7.379 56.912 3.807C57.05 1.809 57.174 0.143 57.189 0.104C57.219 0.024 57.337 -0.018 57.442 0.014C57.497 0.031 59.881 3.009 61.706 5.338L61.799 5.457L61.819 4.978C61.83 4.714 61.871 3.512 61.91 2.307L61.98 0.116L62.054 0.056C62.096 0.021 62.158 0.001 62.198 0.009C62.342 0.037 62.231 -0.082 64.72 2.693C65.565 3.634 66.464 4.636 66.72 4.919L67.183 5.435L67.185 4.481C67.186 3.956 67.179 2.927 67.17 2.194L67.152 0.862L67.075 0.707C66.962 0.481 66.884 0.437 66.527 0.395C66.256 0.363 66.223 0.353 66.223 0.297C66.223 0.201 66.363 0.194 67.927 0.215C68.712 0.226 70.037 0.237 70.872 0.24C72.258 0.245 72.422 0.252 72.74 0.31C73.136 0.384 73.566 0.536 73.767 0.675C74.1 0.903 74.375 1.326 74.461 1.742C74.541 2.128 74.47 2.725 74.289 3.18C74.082 3.7 73.734 4.077 73.228 4.327C72.776 4.55 72.565 4.592 71.905 4.592C71.344 4.592 71.261 4.576 71.3 4.471C71.319 4.421 71.399 4.403 71.714 4.375C72.319 4.323 72.868 3.794 73.051 3.085C73.118 2.824 73.114 2.204 73.043 1.928C72.967 1.63 72.812 1.351 72.608 1.142C72.39 0.919 72.156 0.796 71.82 0.73C71.535 0.673 70.943 0.684 70.881 0.746C70.849 0.779 70.842 1.395 70.847 3.959C70.85 5.983 70.864 7.209 70.885 7.346C70.949 7.77 71.105 7.922 71.444 7.891C71.827 7.856 72.026 7.676 72.67 6.782C72.875 6.498 73.74 5.314 74.592 4.149C75.444 2.985 76.456 1.601 76.839 1.074C77.223 0.547 77.574 0.088 77.62 0.054C77.706 -0.011 77.835 -0.008 77.902 0.059C77.942 0.099 77.942 0.1 78.152 3.041C78.429 6.924 78.443 7.07 78.583 7.476C78.645 7.655 78.814 7.827 78.947 7.847C79.007 7.856 79.139 7.875 79.242 7.889C79.398 7.911 79.428 7.925 79.428 7.977C79.428 8.11 79.344 8.117 77.942 8.105C76.867 8.096 76.61 8.086 76.588 8.052C76.545 7.983 76.573 7.95 76.713 7.9C76.795 7.87 76.86 7.822 76.883 7.774C76.938 7.661 76.854 5.49 76.793 5.427C76.759 5.391 76.575 5.388 75.675 5.411L74.598 5.439L73.795 6.612C73.354 7.257 72.997 7.805 73.002 7.831C73.017 7.908 73.105 7.942 73.317 7.956C73.521 7.969 73.574 8.004 73.521 8.09C73.499 8.126 73.423 8.132 73.144 8.12C72.676 8.101 70.185 8.083 69.601 8.094C68.477 8.116 68.37 8.106 68.416 7.985C68.428 7.955 68.51 7.934 68.672 7.92C68.964 7.895 69.057 7.853 69.132 7.711C69.251 7.483 69.26 7.218 69.26 3.965C69.26 0.893 69.259 0.828 69.198 0.707C69.164 0.639 69.101 0.558 69.057 0.525C68.886 0.399 68.285 0.369 68.12 0.478C68.077 0.507 68.016 0.598 67.985 0.68C67.919 0.852 67.902 1.447 67.841 5.658C67.823 6.934 67.799 8.019 67.789 8.069C67.771 8.159 67.714 8.216 67.644 8.214C67.624 8.213 67.545 8.153 67.468 8.08ZM59.413 4.858C59.389 4.786 57.636 2.636 57.618 2.657C57.593 2.687 57.522 4.824 57.545 4.861C57.57 4.903 59.427 4.899 59.413 4.858ZM76.788 4.867C76.795 4.854 76.776 4.349 76.744 3.746C76.713 3.143 76.686 2.61 76.686 2.563C76.685 2.515 76.672 2.476 76.658 2.476C76.63 2.476 75.057 4.749 75.023 4.839C75.006 4.886 75.081 4.89 75.889 4.89C76.376 4.89 76.78 4.88 76.788 4.867Z" fill="rgb(0,106,51)" fill-opacity="1.000" fill-rule="nonzero" transform="matrix(1 0 0 1 15 28.4701)"/><path d="M0 9.949L9.838 9.949L9.838 0L0 0L0 9.949Z" fill="rgb(255,255,255)" fill-opacity="1.000" fill-rule="evenodd" transform="matrix(1 0 0 1 52.576 27.6447)"/><path d="M0 0L11.113 0L11.113 11.238L0 11.238L0 0ZM0.637 10.594L10.475 10.594L10.475 0.645L0.637 0.645L0.637 10.594Z" fill="rgb(236,109,45)" fill-opacity="1.000" fill-rule="evenodd" transform="matrix(1 0 0 1 51.9389 27)"/><path d="M8.814 0.113L8.81 0.11L8.81 0.11C8.743 0.069 8.641 0.046 8.572 0.076C8.133 0.033 7.714 0.038 7.27 0.044L7.239 0.044C7.017 0.046 6.787 0.049 6.557 0.045L4.697 0.007C4.237 -0.005 3.776 -0.002 3.316 0.016C2.969 0.019 2.631 0.028 2.288 0.039C1.931 0.048 1.077 0.051 0.567 0.052C0.423 0.052 0.279 0.053 0.135 0.055C0.074 0.058 0.001 0.143 0 0.211C0 0.25 0.021 0.293 0.086 0.3C0.134 0.304 0.442 0.306 1.003 0.304L1.576 0.302C1.728 0.302 1.799 0.304 1.832 0.3L1.836 0.3C2.257 0.257 2.679 0.259 3.088 0.262L3.119 0.262C3.384 0.264 3.658 0.265 3.933 0.254C3.99 0.267 4.05 0.255 4.108 0.243L4.117 0.241C4.143 0.236 4.17 0.231 4.196 0.229C4.258 0.247 4.33 0.247 4.405 0.245C4.479 0.243 4.553 0.242 4.62 0.258L4.621 0.259L4.632 0.259L4.632 0.258C4.692 0.237 4.746 0.248 4.803 0.259C4.833 0.266 4.862 0.27 4.892 0.272C5.424 0.258 6.011 0.277 6.745 0.333L7.092 0.371L7.092 0.372L7.095 0.372C7.404 0.341 7.722 0.365 8.03 0.388C8.033 0.388 8.035 0.388 8.038 0.388C8.27 0.405 8.489 0.422 8.706 0.417L8.708 0.419L8.72 0.415L8.72 0.412L8.835 0.319L8.835 0.319L8.841 0.313L8.84 0.313C8.859 0.281 8.866 0.244 8.862 0.208C8.857 0.172 8.84 0.138 8.814 0.113Z" fill="rgb(227,178,40)" fill-opacity="1.000" fill-rule="evenodd" transform="matrix(1 0 0 1 53.0631 30.0604)"/><path d="M2.561 3.058L2.571 3.052L2.571 3.029L2.562 2.297L2.562 2.295L2.562 2.293C2.55 2.173 2.544 2.053 2.544 1.933C2.541 1.788 2.537 1.638 2.518 1.505C2.514 1.315 2.477 1.111 2.441 0.915L2.417 0.781L2.415 0.768L2.406 0.759C2.377 0.73 2.367 0.693 2.356 0.65C2.346 0.614 2.337 0.578 2.315 0.542C2.266 0.453 2.19 0.366 2.121 0.289L2.118 0.286C2.101 0.262 2.081 0.25 2.064 0.238C2.054 0.232 2.044 0.226 2.034 0.217L2.018 0.203L2.009 0.206L1.996 0.195C1.935 0.146 1.878 0.127 1.812 0.105L1.81 0.104C1.791 0.077 1.754 0.073 1.73 0.072L1.73 0.054L1.696 0.049L1.534 0.024L1.51 0.02L1.496 0.04C1.49 0.048 1.489 0.05 1.455 0.037C1.438 0.031 1.421 0.026 1.404 0.024L1.385 0.022L1.375 0.031C1.369 0.027 1.363 0.023 1.357 0.02L1.29 0L1.285 0.031C1.258 0.03 1.232 0.036 1.208 0.049L1.102 0.049L1.003 0.049L1.015 0.087L1.013 0.089C0.969 0.078 0.936 0.104 0.918 0.12L0.909 0.127C0.873 0.133 0.854 0.148 0.84 0.159C0.829 0.167 0.826 0.17 0.816 0.17L0.8 0.172L0.789 0.185C0.763 0.206 0.734 0.223 0.703 0.235L0.649 0.259L0.66 0.271C0.651 0.275 0.642 0.281 0.635 0.288L0.582 0.288L0.582 0.329L0.576 0.328L0.547 0.316C0.545 0.315 0.526 0.341 0.526 0.341C0.494 0.387 0.452 0.431 0.408 0.478C0.357 0.533 0.304 0.591 0.263 0.652L0.251 0.671L0.259 0.689C0.249 0.695 0.224 0.711 0.22 0.741C0.204 0.761 0.194 0.786 0.192 0.811C0.191 0.817 0.19 0.826 0.188 0.829C0.172 0.85 0.161 0.875 0.159 0.902C0.156 0.917 0.155 0.926 0.148 0.934L0.122 0.967L0.134 0.976C0.126 0.996 0.126 1.017 0.125 1.029C0.125 1.035 0.125 1.041 0.124 1.046L0.107 1.056L0.111 1.083C0.118 1.134 0.111 1.182 0.105 1.232C0.096 1.283 0.094 1.335 0.097 1.386C0.078 1.416 0.082 1.453 0.086 1.475C0.087 1.483 0.088 1.493 0.088 1.499L0.062 1.519L0.08 1.55C0.095 1.573 0.083 1.611 0.073 1.647C0.063 1.682 0.051 1.724 0.063 1.761C0.057 1.766 0.053 1.772 0.05 1.779C0.047 1.786 0.046 1.793 0.046 1.801C0.046 1.829 0.044 1.838 0.043 1.84L0.023 1.88L0.021 1.896L0.055 1.92C0.052 1.942 0.053 1.963 0.057 1.985C0.061 2.012 0.062 2.023 0.054 2.033L0.032 2.073L0.054 2.098L0.054 2.106C0.053 2.123 0.05 2.155 0.073 2.179C0.073 2.183 0.074 2.188 0.075 2.192L0.036 2.202L0.062 2.257L0.059 2.271C0.055 2.287 0.048 2.319 0.064 2.347C0.052 2.38 0.06 2.411 0.065 2.432C0.066 2.438 0.069 2.446 0.069 2.451C0.032 2.491 0.05 2.543 0.06 2.572C0.043 2.598 0.047 2.63 0.05 2.65L0 2.667L0.051 2.72C0.05 2.726 0.049 2.733 0.05 2.74C0.051 2.747 0.054 2.753 0.057 2.759C0.063 2.769 0.071 2.774 0.079 2.778L0.063 2.783L0.065 2.788L0.065 2.789L0.083 2.836L0.082 2.841C0.078 2.868 0.084 2.895 0.098 2.918C0.093 2.924 0.09 2.932 0.09 2.94L0.07 2.961L0.089 2.989C0.104 3.011 0.099 3.04 0.088 3.085C0.078 3.125 0.065 3.175 0.088 3.219L0.06 3.247L0.095 3.273C0.095 3.275 0.094 3.277 0.093 3.279C0.084 3.296 0.067 3.327 0.088 3.362L0.086 3.358C0.093 3.374 0.09 3.401 0.086 3.429C0.082 3.47 0.076 3.52 0.097 3.57L0.09 3.619L0.092 3.613C0.087 3.629 0.089 3.647 0.097 3.661L0.081 3.669L0.092 3.703C0.102 3.744 0.106 3.787 0.104 3.83C0.104 3.918 0.104 4.018 0.183 4.094L0.2 4.11L0.222 4.103C0.281 4.086 0.284 4.027 0.285 3.995C0.285 3.988 0.286 3.981 0.287 3.976L0.288 3.968L0.286 3.959C0.262 3.878 0.272 3.772 0.281 3.679L0.287 3.608L0.288 3.597L0.283 3.586C0.267 3.554 0.271 3.522 0.275 3.484C0.282 3.448 0.281 3.41 0.272 3.374C0.285 3.203 0.277 2.999 0.27 2.821C0.268 2.745 0.265 2.674 0.263 2.607L0.263 2.603C0.255 2.516 0.253 2.428 0.258 2.341C0.26 2.261 0.263 2.18 0.256 2.105C0.275 2.02 0.274 1.942 0.272 1.859C0.271 1.822 0.27 1.783 0.272 1.743L0.272 1.732L0.269 1.727C0.288 1.705 0.292 1.682 0.283 1.659C0.29 1.631 0.293 1.601 0.293 1.572C0.293 1.551 0.295 1.531 0.299 1.511L0.301 1.501L0.298 1.492C0.293 1.474 0.298 1.453 0.303 1.431C0.312 1.401 0.313 1.37 0.305 1.34C0.337 1.276 0.343 1.198 0.35 1.121L0.352 1.095C0.355 1.078 0.349 1.062 0.336 1.048L0.336 1.046C0.336 1.012 0.353 0.985 0.375 0.95C0.404 0.909 0.424 0.862 0.432 0.811L0.433 0.802L0.433 0.799L0.442 0.791C0.456 0.779 0.479 0.76 0.478 0.729C0.478 0.724 0.477 0.718 0.476 0.713C0.5 0.689 0.52 0.662 0.536 0.632C0.559 0.594 0.576 0.565 0.621 0.553L0.642 0.546L0.648 0.523C0.655 0.498 0.676 0.484 0.711 0.462C0.74 0.446 0.766 0.425 0.787 0.4C0.816 0.402 0.834 0.394 0.844 0.382C0.875 0.373 0.904 0.357 0.929 0.335C0.966 0.305 0.977 0.298 1.003 0.309L1.029 0.321L1.045 0.305L1.048 0.304C1.059 0.301 1.08 0.296 1.092 0.277C1.101 0.274 1.111 0.271 1.121 0.268C1.142 0.26 1.147 0.26 1.153 0.263C1.159 0.267 1.165 0.269 1.172 0.27C1.178 0.271 1.185 0.271 1.191 0.269L1.193 0.272L1.222 0.268L1.261 0.263C1.377 0.248 1.477 0.235 1.568 0.284L1.6 0.302L1.62 0.272L1.632 0.286C1.655 0.312 1.696 0.358 1.755 0.347C1.768 0.358 1.782 0.368 1.795 0.375L1.812 0.386L1.812 0.388L1.82 0.398C1.838 0.423 1.877 0.435 1.908 0.436C1.976 0.509 2.045 0.608 2.045 0.651L2.045 0.692L2.075 0.692L2.076 0.694C2.087 0.748 2.103 0.814 2.144 0.858C2.132 0.885 2.142 0.918 2.146 0.932L2.151 0.947L2.141 0.977L2.167 1.004L2.173 1.008C2.172 1.036 2.184 1.062 2.193 1.08C2.195 1.085 2.197 1.091 2.199 1.096L2.193 1.111C2.157 1.181 2.205 1.219 2.229 1.238C2.232 1.24 2.235 1.243 2.237 1.245C2.219 1.259 2.22 1.274 2.217 1.299L2.22 1.329L2.232 1.35L2.233 1.35L2.234 1.354C2.236 1.36 2.239 1.368 2.244 1.377L2.23 1.391L2.221 1.427L2.241 1.457L2.256 1.465C2.256 1.479 2.26 1.493 2.267 1.506L2.269 1.512L2.265 1.53C2.252 1.597 2.235 1.683 2.276 1.753L2.273 1.756C2.253 1.782 2.258 1.811 2.262 1.833C2.263 1.84 2.265 1.851 2.264 1.855L2.253 1.897C2.253 1.899 2.267 1.902 2.279 1.905C2.277 1.909 2.275 1.913 2.274 1.918L2.266 1.966L2.282 1.966C2.279 1.982 2.279 1.998 2.278 2.012C2.278 2.036 2.277 2.052 2.268 2.065L2.265 2.071L2.263 2.077C2.251 2.121 2.267 2.163 2.28 2.196L2.287 2.214C2.283 2.219 2.279 2.224 2.277 2.23C2.275 2.237 2.274 2.243 2.274 2.249C2.274 2.253 2.276 2.256 2.277 2.259L2.268 2.268L2.276 2.292C2.28 2.306 2.288 2.314 2.298 2.319L2.291 2.321C2.29 2.321 2.29 2.353 2.29 2.353L2.29 2.364L2.265 2.371L2.278 2.398C2.273 2.406 2.27 2.414 2.269 2.422C2.268 2.431 2.269 2.44 2.271 2.448L2.254 2.48C2.255 2.479 2.257 2.498 2.272 2.505C2.256 2.561 2.296 2.602 2.32 2.626C2.327 2.634 2.334 2.641 2.341 2.65L2.321 2.65L2.336 2.702L2.336 2.704L2.326 2.715L2.293 2.731L2.303 2.777L2.3 2.787C2.292 2.811 2.298 2.827 2.305 2.837C2.306 2.839 2.308 2.84 2.31 2.841C2.294 2.856 2.284 2.876 2.282 2.898L2.278 2.937L2.309 2.941C2.306 2.949 2.304 2.957 2.302 2.965C2.298 2.98 2.295 2.992 2.288 3.002L2.288 3.002L2.285 3.007L2.339 3.037C2.333 3.05 2.327 3.063 2.324 3.077L2.318 3.094L2.314 3.094L2.269 3.094L2.272 3.147C2.274 3.156 2.276 3.165 2.276 3.175C2.277 3.186 2.279 3.197 2.282 3.207L2.282 3.26C2.282 3.267 2.282 3.278 2.284 3.29L2.278 3.293L2.282 3.322C2.284 3.337 2.283 3.351 2.282 3.366C2.282 3.375 2.281 3.384 2.281 3.393L2.244 3.413L2.289 3.462L2.289 3.464C2.282 3.479 2.278 3.495 2.277 3.512L2.245 3.512L2.3 3.579C2.304 3.585 2.308 3.6 2.311 3.611L2.312 3.615C2.29 3.636 2.286 3.668 2.285 3.686C2.284 3.694 2.283 3.705 2.281 3.708L2.282 3.707L2.296 3.726C2.287 3.732 2.28 3.741 2.275 3.751C2.27 3.763 2.269 3.776 2.271 3.789L2.218 3.789L2.262 3.833L2.221 3.846L2.255 3.875L2.255 3.984C2.255 4.004 2.264 4.021 2.28 4.029C2.281 4.029 2.282 4.03 2.284 4.03C2.293 4.036 2.304 4.04 2.315 4.041C2.326 4.043 2.337 4.042 2.348 4.039L2.348 4.084L2.4 4.069C2.431 4.058 2.464 4.055 2.496 4.062L2.539 4.071L2.545 4.027C2.566 3.864 2.561 3.706 2.557 3.554C2.554 3.405 2.55 3.264 2.569 3.126C2.573 3.115 2.574 3.103 2.573 3.091C2.572 3.079 2.567 3.068 2.561 3.058L2.561 3.058Z" fill="rgb(0,106,50)" fill-opacity="1.000" fill-rule="evenodd" transform="matrix(1 0 0 1 56.2388 31.1102)"/><path d="M2.561 3.058L2.57 3.052L2.562 2.297L2.562 2.295L2.561 2.293C2.55 2.173 2.544 2.053 2.543 1.933C2.54 1.788 2.537 1.638 2.517 1.505C2.514 1.315 2.476 1.111 2.44 0.915L2.417 0.781L2.414 0.768L2.405 0.759C2.376 0.73 2.366 0.693 2.355 0.65C2.346 0.614 2.336 0.578 2.314 0.542C2.266 0.453 2.189 0.366 2.12 0.289L2.117 0.286C2.1 0.262 2.08 0.25 2.063 0.238C2.053 0.232 2.043 0.226 2.033 0.217L2.017 0.203L2.008 0.206L1.995 0.195C1.934 0.146 1.877 0.127 1.811 0.105L1.809 0.104C1.79 0.077 1.754 0.073 1.729 0.072L1.729 0.054L1.695 0.049L1.533 0.024L1.509 0.02L1.495 0.04C1.489 0.048 1.488 0.05 1.454 0.037C1.438 0.032 1.422 0.026 1.403 0.024L1.384 0.022L1.375 0.031C1.369 0.027 1.363 0.023 1.356 0.02L1.289 0L1.284 0.031C1.257 0.03 1.231 0.036 1.207 0.049L1.101 0.049L1.002 0.049L1.014 0.087L1.012 0.089C0.968 0.078 0.935 0.104 0.917 0.12C0.914 0.122 0.91 0.126 0.908 0.127C0.882 0.132 0.859 0.143 0.839 0.159C0.828 0.167 0.825 0.17 0.815 0.17L0.799 0.172L0.788 0.185C0.762 0.206 0.733 0.223 0.702 0.235L0.648 0.259L0.659 0.271C0.65 0.275 0.641 0.281 0.633 0.288L0.581 0.288L0.581 0.329C0.579 0.329 0.577 0.329 0.575 0.328L0.546 0.316C0.538 0.324 0.531 0.332 0.525 0.341C0.493 0.387 0.451 0.431 0.407 0.478C0.356 0.533 0.303 0.591 0.262 0.652L0.25 0.671L0.258 0.689C0.249 0.695 0.223 0.711 0.219 0.741C0.2 0.763 0.195 0.792 0.192 0.811C0.191 0.817 0.19 0.824 0.188 0.829C0.172 0.85 0.162 0.876 0.159 0.902C0.156 0.917 0.154 0.926 0.148 0.934L0.122 0.967L0.134 0.976C0.126 0.996 0.126 1.017 0.126 1.029C0.126 1.035 0.125 1.04 0.125 1.046L0.107 1.056L0.111 1.083C0.118 1.134 0.112 1.182 0.105 1.232C0.097 1.283 0.094 1.335 0.097 1.386C0.078 1.416 0.082 1.453 0.086 1.475C0.087 1.483 0.089 1.493 0.088 1.499L0.062 1.519L0.08 1.55C0.095 1.573 0.083 1.611 0.073 1.647C0.063 1.682 0.051 1.724 0.064 1.761C0.058 1.766 0.053 1.772 0.05 1.779C0.047 1.786 0.046 1.793 0.047 1.801C0.047 1.829 0.044 1.838 0.043 1.84L0.024 1.88L0.021 1.896L0.055 1.92C0.053 1.942 0.053 1.963 0.057 1.985C0.061 2.012 0.062 2.023 0.054 2.033L0.032 2.073L0.054 2.098L0.054 2.106C0.053 2.123 0.052 2.155 0.073 2.179C0.074 2.183 0.075 2.188 0.076 2.192L0.037 2.202L0.062 2.257L0.059 2.271C0.055 2.287 0.048 2.319 0.064 2.347C0.056 2.375 0.056 2.405 0.065 2.432C0.066 2.438 0.069 2.446 0.069 2.451C0.032 2.491 0.05 2.543 0.06 2.572C0.043 2.598 0.047 2.63 0.05 2.65L0 2.667L0.052 2.72C0.05 2.726 0.05 2.733 0.051 2.74C0.052 2.747 0.054 2.753 0.058 2.759C0.063 2.768 0.07 2.774 0.079 2.778L0.063 2.783L0.065 2.788L0.065 2.789L0.084 2.836L0.083 2.841C0.079 2.868 0.085 2.895 0.099 2.918C0.094 2.924 0.091 2.932 0.091 2.94L0.07 2.961L0.09 2.989C0.105 3.011 0.099 3.04 0.088 3.085C0.078 3.125 0.066 3.175 0.089 3.219L0.061 3.247L0.097 3.273L0.094 3.279C0.085 3.296 0.068 3.327 0.089 3.362L0.087 3.358C0.094 3.374 0.091 3.401 0.088 3.429C0.078 3.476 0.082 3.525 0.099 3.57L0.092 3.619L0.093 3.613C0.089 3.629 0.09 3.646 0.097 3.661L0.082 3.669L0.093 3.703C0.103 3.744 0.107 3.787 0.105 3.83C0.105 3.918 0.105 4.018 0.184 4.094L0.201 4.11L0.224 4.103C0.283 4.086 0.285 4.027 0.287 3.995C0.287 3.988 0.287 3.981 0.288 3.976L0.289 3.968L0.287 3.959C0.263 3.878 0.273 3.772 0.282 3.679C0.284 3.653 0.286 3.63 0.288 3.608L0.289 3.597L0.284 3.586C0.268 3.554 0.272 3.522 0.276 3.484C0.283 3.448 0.281 3.41 0.272 3.374C0.285 3.203 0.278 2.999 0.27 2.821C0.268 2.745 0.264 2.674 0.263 2.607L0.263 2.603C0.253 2.518 0.256 2.428 0.258 2.341C0.261 2.261 0.263 2.18 0.256 2.105C0.274 2.02 0.273 1.942 0.272 1.859C0.272 1.822 0.271 1.783 0.272 1.743L0.272 1.732L0.27 1.727C0.288 1.705 0.292 1.682 0.283 1.659C0.291 1.628 0.292 1.598 0.293 1.572C0.294 1.55 0.294 1.53 0.299 1.511L0.301 1.501L0.299 1.492C0.295 1.471 0.297 1.45 0.303 1.431C0.313 1.401 0.313 1.37 0.305 1.34C0.336 1.276 0.343 1.198 0.35 1.121L0.352 1.095C0.353 1.086 0.352 1.078 0.35 1.07C0.347 1.062 0.342 1.054 0.336 1.048L0.336 1.046C0.336 1.012 0.353 0.985 0.375 0.95C0.405 0.909 0.424 0.862 0.432 0.811L0.433 0.802L0.432 0.799L0.442 0.791C0.456 0.779 0.479 0.76 0.478 0.729C0.478 0.724 0.477 0.718 0.475 0.713C0.504 0.687 0.521 0.658 0.536 0.632C0.559 0.594 0.575 0.565 0.62 0.553L0.642 0.546L0.648 0.523C0.654 0.498 0.676 0.484 0.711 0.462C0.74 0.446 0.766 0.425 0.787 0.4C0.816 0.402 0.834 0.394 0.844 0.382C0.876 0.373 0.904 0.357 0.929 0.335C0.966 0.305 0.978 0.298 1.003 0.309L1.029 0.321L1.045 0.305C1.046 0.305 1.047 0.305 1.048 0.304C1.06 0.301 1.08 0.296 1.092 0.277C1.103 0.274 1.113 0.271 1.121 0.268C1.142 0.26 1.147 0.26 1.154 0.263C1.159 0.267 1.165 0.269 1.172 0.27C1.178 0.271 1.185 0.271 1.191 0.269L1.192 0.272L1.222 0.268L1.261 0.263C1.377 0.248 1.478 0.235 1.568 0.284L1.6 0.302L1.62 0.272C1.624 0.277 1.628 0.281 1.632 0.286C1.655 0.312 1.696 0.358 1.755 0.347C1.768 0.358 1.782 0.368 1.795 0.375L1.812 0.386L1.812 0.388L1.82 0.398C1.839 0.423 1.877 0.435 1.909 0.436C1.977 0.509 2.046 0.608 2.046 0.651L2.046 0.692L2.076 0.692L2.076 0.694C2.088 0.748 2.103 0.814 2.144 0.858C2.132 0.885 2.142 0.918 2.147 0.932L2.151 0.947L2.141 0.977L2.167 1.004L2.173 1.008C2.172 1.036 2.184 1.062 2.193 1.08L2.2 1.096L2.193 1.111C2.157 1.181 2.206 1.219 2.229 1.238L2.237 1.245C2.219 1.259 2.22 1.274 2.216 1.299L2.22 1.329L2.232 1.35L2.233 1.35L2.234 1.354C2.236 1.36 2.239 1.368 2.244 1.377L2.23 1.391L2.221 1.427L2.241 1.457L2.258 1.463C2.257 1.48 2.264 1.494 2.268 1.504L2.27 1.51L2.267 1.529C2.254 1.596 2.237 1.682 2.278 1.751L2.275 1.755C2.255 1.78 2.26 1.81 2.264 1.832C2.265 1.839 2.267 1.85 2.266 1.853L2.255 1.895C2.255 1.897 2.269 1.901 2.28 1.903C2.279 1.908 2.277 1.912 2.276 1.916L2.268 1.964L2.284 1.964C2.281 1.981 2.281 1.996 2.28 2.01C2.28 2.035 2.279 2.051 2.27 2.064L2.267 2.069L2.265 2.076C2.254 2.12 2.27 2.162 2.283 2.195L2.29 2.213C2.285 2.218 2.282 2.223 2.28 2.229C2.277 2.235 2.277 2.242 2.277 2.248C2.277 2.252 2.279 2.254 2.279 2.258L2.27 2.267L2.278 2.291C2.282 2.304 2.291 2.313 2.301 2.318L2.294 2.32C2.292 2.32 2.292 2.352 2.292 2.352L2.292 2.363L2.267 2.369L2.28 2.396C2.275 2.403 2.272 2.412 2.271 2.42C2.27 2.429 2.271 2.438 2.273 2.446L2.256 2.477C2.256 2.476 2.259 2.496 2.275 2.503C2.259 2.559 2.298 2.6 2.322 2.624C2.33 2.631 2.337 2.639 2.343 2.647L2.323 2.647L2.338 2.7L2.338 2.701C2.335 2.705 2.331 2.708 2.328 2.712L2.295 2.729L2.305 2.774L2.302 2.785C2.294 2.809 2.301 2.825 2.307 2.834C2.308 2.837 2.31 2.838 2.312 2.839C2.296 2.854 2.286 2.874 2.284 2.896L2.28 2.934L2.311 2.939C2.308 2.947 2.306 2.955 2.304 2.963C2.3 2.977 2.296 2.99 2.29 2.999L2.29 3L2.288 3.004L2.342 3.035C2.334 3.049 2.33 3.064 2.326 3.075C2.325 3.08 2.323 3.086 2.321 3.091L2.316 3.091L2.271 3.092L2.274 3.144C2.276 3.154 2.278 3.163 2.279 3.173C2.279 3.183 2.281 3.194 2.284 3.205L2.284 3.258C2.284 3.265 2.284 3.276 2.286 3.287L2.279 3.29L2.284 3.32C2.285 3.334 2.284 3.349 2.284 3.363C2.283 3.372 2.282 3.381 2.282 3.391L2.246 3.411L2.29 3.46C2.283 3.475 2.279 3.492 2.278 3.509L2.246 3.509L2.3 3.576C2.305 3.583 2.309 3.597 2.312 3.608L2.313 3.613C2.291 3.634 2.288 3.666 2.286 3.684C2.285 3.692 2.284 3.703 2.282 3.706L2.283 3.705L2.296 3.723C2.288 3.73 2.281 3.739 2.276 3.748C2.271 3.76 2.269 3.774 2.271 3.787L2.219 3.787L2.262 3.831L2.221 3.844L2.255 3.873L2.255 3.982C2.255 4.002 2.265 4.018 2.28 4.027L2.284 4.028C2.293 4.033 2.304 4.037 2.315 4.039C2.326 4.04 2.337 4.04 2.348 4.037L2.348 4.082L2.399 4.066C2.43 4.056 2.464 4.053 2.496 4.059L2.539 4.069L2.545 4.025C2.566 3.862 2.561 3.704 2.557 3.552C2.553 3.403 2.55 3.262 2.568 3.124C2.581 3.096 2.568 3.071 2.561 3.058L2.561 3.058Z" fill="rgb(41,84,147)" fill-opacity="1.000" fill-rule="evenodd" transform="matrix(1 0 0 1 53.1528 31.1102)"/><path d="M2.558 3.059L2.568 3.053L2.568 3.03L2.56 2.298L2.56 2.293C2.548 2.173 2.541 2.053 2.541 1.933C2.538 1.788 2.535 1.638 2.515 1.506C2.512 1.315 2.474 1.112 2.439 0.915L2.414 0.781L2.412 0.769L2.403 0.759C2.377 0.728 2.36 0.69 2.354 0.65C2.344 0.614 2.334 0.577 2.312 0.542C2.264 0.453 2.187 0.365 2.119 0.289L2.115 0.285C2.101 0.266 2.082 0.25 2.062 0.238C2.051 0.231 2.042 0.225 2.031 0.216L2.016 0.203L2.006 0.205L1.994 0.195C1.939 0.153 1.876 0.122 1.81 0.104L1.808 0.104C1.789 0.076 1.753 0.072 1.728 0.071L1.728 0.054L1.694 0.048L1.532 0.024L1.509 0.02L1.494 0.04C1.488 0.048 1.487 0.049 1.453 0.037C1.437 0.032 1.42 0.025 1.402 0.024L1.383 0.022L1.374 0.031C1.368 0.027 1.362 0.023 1.355 0.02L1.288 0L1.283 0.031C1.256 0.031 1.23 0.037 1.206 0.049L1.1 0.049L1.001 0.049L1.013 0.087L1.011 0.089C0.968 0.078 0.935 0.105 0.916 0.12L0.907 0.127C0.882 0.132 0.858 0.143 0.838 0.159C0.828 0.167 0.825 0.17 0.815 0.17L0.798 0.172L0.787 0.185C0.773 0.203 0.726 0.224 0.701 0.235L0.647 0.259L0.659 0.271C0.65 0.275 0.641 0.281 0.633 0.288L0.581 0.288L0.581 0.33C0.579 0.33 0.576 0.329 0.575 0.329L0.546 0.316C0.538 0.324 0.53 0.332 0.524 0.341C0.488 0.39 0.449 0.435 0.407 0.478C0.356 0.534 0.303 0.591 0.262 0.652L0.25 0.67L0.258 0.689C0.248 0.695 0.223 0.711 0.219 0.741C0.203 0.761 0.193 0.786 0.191 0.812C0.191 0.818 0.189 0.824 0.187 0.83C0.171 0.851 0.16 0.876 0.158 0.902C0.155 0.918 0.154 0.926 0.147 0.934L0.121 0.967L0.133 0.976C0.125 0.996 0.125 1.017 0.124 1.029C0.124 1.035 0.124 1.042 0.123 1.046L0.106 1.056L0.11 1.083C0.118 1.134 0.111 1.182 0.104 1.232C0.095 1.283 0.093 1.335 0.096 1.386C0.077 1.416 0.081 1.452 0.085 1.475C0.085 1.483 0.087 1.494 0.087 1.498L0.061 1.519L0.079 1.549C0.094 1.573 0.082 1.611 0.072 1.647C0.062 1.682 0.05 1.724 0.062 1.761C0.059 1.763 0.056 1.767 0.053 1.77C0.047 1.779 0.044 1.79 0.045 1.8C0.045 1.829 0.042 1.837 0.041 1.84L0.022 1.88L0.019 1.896L0.054 1.92C0.051 1.942 0.052 1.963 0.056 1.985C0.06 2.012 0.061 2.023 0.053 2.033L0.032 2.073L0.053 2.098L0.053 2.105C0.052 2.123 0.05 2.155 0.072 2.179C0.073 2.183 0.074 2.188 0.075 2.191L0.036 2.201L0.061 2.257L0.058 2.27C0.054 2.287 0.048 2.319 0.064 2.348C0.052 2.379 0.059 2.411 0.064 2.432C0.066 2.438 0.068 2.446 0.069 2.451C0.032 2.491 0.049 2.543 0.059 2.571C0.042 2.598 0.046 2.63 0.05 2.649L0 2.667L0.051 2.72C0.048 2.733 0.05 2.747 0.057 2.759C0.062 2.767 0.07 2.774 0.079 2.778L0.063 2.783L0.065 2.788L0.083 2.836L0.083 2.841C0.079 2.868 0.084 2.895 0.098 2.917C0.093 2.924 0.09 2.932 0.09 2.94L0.07 2.96L0.089 2.989C0.105 3.011 0.099 3.04 0.087 3.085C0.078 3.124 0.066 3.175 0.089 3.219L0.06 3.247L0.096 3.273L0.093 3.279C0.084 3.295 0.067 3.327 0.088 3.362L0.086 3.358C0.094 3.374 0.091 3.401 0.087 3.429C0.082 3.47 0.076 3.52 0.098 3.57L0.091 3.62L0.092 3.613C0.09 3.621 0.089 3.629 0.09 3.637C0.091 3.646 0.093 3.654 0.097 3.661L0.081 3.668L0.092 3.702C0.102 3.744 0.106 3.787 0.104 3.829C0.105 3.917 0.105 4.018 0.183 4.093L0.2 4.11L0.223 4.103C0.282 4.085 0.285 4.026 0.287 3.994C0.287 3.988 0.287 3.982 0.287 3.976L0.288 3.967L0.286 3.958C0.262 3.878 0.272 3.772 0.281 3.678L0.287 3.607L0.288 3.596L0.283 3.586C0.267 3.553 0.272 3.521 0.276 3.484C0.282 3.447 0.281 3.409 0.272 3.373C0.285 3.202 0.277 2.999 0.27 2.82C0.267 2.749 0.265 2.678 0.263 2.607L0.263 2.603C0.255 2.515 0.253 2.427 0.258 2.34C0.26 2.261 0.262 2.18 0.255 2.105C0.274 2.019 0.273 1.941 0.271 1.858C0.271 1.819 0.271 1.78 0.271 1.742L0.272 1.731L0.269 1.726C0.287 1.704 0.292 1.681 0.282 1.659C0.289 1.63 0.293 1.6 0.293 1.571C0.293 1.551 0.295 1.53 0.298 1.511L0.301 1.5L0.298 1.491C0.295 1.47 0.297 1.449 0.303 1.43C0.312 1.4 0.313 1.369 0.304 1.34C0.336 1.276 0.343 1.197 0.35 1.12L0.351 1.094C0.353 1.085 0.352 1.077 0.349 1.069C0.346 1.061 0.342 1.053 0.335 1.048L0.335 1.045C0.335 1.011 0.353 0.984 0.374 0.949C0.404 0.908 0.424 0.86 0.432 0.81L0.433 0.8L0.432 0.798C0.435 0.796 0.438 0.793 0.441 0.79C0.456 0.777 0.478 0.758 0.478 0.727C0.478 0.722 0.477 0.717 0.475 0.712C0.504 0.686 0.52 0.657 0.536 0.631C0.559 0.592 0.576 0.564 0.621 0.551L0.642 0.544L0.648 0.522C0.655 0.497 0.677 0.482 0.711 0.461C0.74 0.445 0.766 0.424 0.787 0.398C0.817 0.401 0.834 0.393 0.844 0.381C0.876 0.372 0.905 0.356 0.929 0.334C0.966 0.303 0.978 0.297 1.004 0.308L1.029 0.32L1.045 0.304C1.046 0.303 1.048 0.303 1.049 0.303C1.057 0.301 1.066 0.298 1.073 0.293C1.081 0.288 1.087 0.282 1.092 0.275C1.102 0.273 1.112 0.27 1.121 0.266C1.142 0.258 1.147 0.258 1.154 0.262C1.162 0.267 1.175 0.272 1.192 0.267L1.193 0.27L1.222 0.267L1.262 0.261C1.378 0.247 1.478 0.233 1.569 0.283L1.601 0.3L1.62 0.271L1.633 0.284C1.656 0.31 1.697 0.356 1.756 0.346C1.769 0.357 1.783 0.366 1.796 0.374L1.813 0.384L1.813 0.386L1.821 0.397C1.839 0.422 1.878 0.434 1.909 0.435C1.977 0.507 2.046 0.606 2.046 0.65L2.046 0.69L2.077 0.69L2.077 0.693C2.088 0.746 2.103 0.812 2.144 0.856C2.133 0.883 2.143 0.916 2.147 0.93L2.151 0.945L2.141 0.975L2.168 1.003L2.174 1.006C2.174 1.032 2.181 1.057 2.194 1.079L2.201 1.094L2.194 1.109C2.158 1.179 2.207 1.218 2.23 1.236L2.239 1.243C2.221 1.258 2.221 1.272 2.218 1.297L2.221 1.328L2.233 1.348L2.234 1.348L2.236 1.353C2.238 1.361 2.241 1.369 2.245 1.376L2.231 1.39L2.222 1.426L2.242 1.455L2.258 1.463C2.258 1.48 2.264 1.494 2.268 1.504C2.269 1.506 2.27 1.508 2.27 1.511L2.267 1.529C2.253 1.596 2.236 1.682 2.278 1.752L2.274 1.755C2.255 1.78 2.26 1.81 2.263 1.831C2.264 1.838 2.266 1.85 2.265 1.853L2.255 1.895C2.255 1.897 2.268 1.901 2.28 1.903C2.279 1.908 2.277 1.911 2.276 1.916L2.267 1.964L2.284 1.964C2.281 1.98 2.28 1.996 2.28 2.01C2.28 2.035 2.279 2.051 2.27 2.063L2.264 2.069L2.263 2.076C2.251 2.12 2.267 2.162 2.28 2.195L2.287 2.213C2.282 2.218 2.279 2.223 2.277 2.229C2.275 2.235 2.274 2.242 2.274 2.248C2.274 2.252 2.276 2.255 2.277 2.258L2.268 2.267L2.276 2.291C2.279 2.302 2.287 2.312 2.298 2.318L2.291 2.32C2.29 2.32 2.29 2.351 2.29 2.351L2.29 2.363L2.264 2.37L2.277 2.396C2.271 2.408 2.264 2.427 2.271 2.446L2.253 2.477C2.254 2.476 2.256 2.496 2.272 2.504C2.256 2.559 2.295 2.6 2.319 2.624C2.327 2.632 2.334 2.64 2.34 2.648L2.32 2.648L2.335 2.7L2.336 2.701C2.332 2.705 2.329 2.709 2.326 2.713L2.293 2.73L2.303 2.775L2.3 2.786C2.292 2.809 2.299 2.825 2.305 2.835C2.306 2.837 2.308 2.838 2.31 2.839C2.294 2.854 2.284 2.874 2.282 2.896L2.278 2.934L2.309 2.939C2.307 2.947 2.304 2.955 2.302 2.963C2.298 2.977 2.295 2.99 2.288 3L2.288 3L2.285 3.005L2.339 3.036C2.333 3.048 2.328 3.062 2.324 3.075L2.318 3.092L2.315 3.092L2.269 3.092L2.272 3.145C2.274 3.153 2.275 3.162 2.277 3.173C2.278 3.184 2.279 3.194 2.281 3.205L2.281 3.258C2.281 3.268 2.282 3.278 2.283 3.287L2.278 3.291L2.282 3.32C2.283 3.334 2.283 3.349 2.282 3.364C2.281 3.373 2.28 3.382 2.28 3.391L2.243 3.411L2.288 3.46C2.281 3.476 2.277 3.493 2.276 3.51L2.244 3.51L2.299 3.577C2.303 3.583 2.307 3.598 2.31 3.609L2.311 3.613C2.289 3.634 2.285 3.667 2.283 3.684C2.283 3.692 2.282 3.703 2.28 3.707L2.28 3.706L2.294 3.724C2.286 3.73 2.279 3.739 2.274 3.749C2.269 3.761 2.267 3.774 2.269 3.787L2.217 3.787L2.26 3.831L2.219 3.845L2.253 3.873L2.253 3.982C2.253 4.002 2.263 4.018 2.278 4.027L2.282 4.028C2.303 4.042 2.326 4.042 2.346 4.037L2.346 4.082L2.397 4.067C2.428 4.056 2.462 4.054 2.494 4.06L2.537 4.069L2.543 4.025C2.559 3.868 2.563 3.71 2.555 3.552C2.547 3.409 2.551 3.266 2.566 3.124C2.578 3.097 2.566 3.072 2.558 3.059L2.558 3.059Z" fill="rgb(236,109,45)" fill-opacity="1.000" fill-rule="evenodd" transform="matrix(1 0 0 1 59.2742 31.1651)"/></svg>