<svg xmlns="http://www.w3.org/2000/svg" viewBox="0 0 130 60" width="130" height="60"><path d="M0 0L130 0L130 60L0 60L0 0Z" fill="rgb(255,255,255)" fill-opacity="1.000" fill-rule="nonzero" transform="matrix(1 0 0 1 0 0)"/><path d="M0 28.563L12.578 28.563L12.645 28.214L0.241 25.636L0.482 24.253L12.886 26.938L12.993 26.455L1.273 21.352L1.782 19.942L13.529 24.897L13.77 24.548L3.362 16.799L4.434 15.107L14.775 22.856L15.083 22.439L6.939 12.072L8.935 10.447L17.012 20.331L17.36 20.022L12.659 8.03L15.512 6.822L19.946 18.572L20.294 18.464L20.294 5.439L24.848 5.439L24.848 29.556L0 29.556L0 28.563ZM72.388 24.293L77.304 24.293L77.304 29.597L73.219 29.597C68.919 29.597 66.28 28.107 66.28 22.641L66.28 10.797L63.359 10.797C62.85 10.797 62.582 10.179 62.931 9.803L71.383 0.188C71.745 -0.201 72.401 0.054 72.401 0.591L72.401 5.492L77.277 5.492L77.277 10.797L72.401 10.797L72.401 24.293L72.388 24.293ZM54.867 5.103C51.933 5.103 49.737 6.795 48.665 9.454L48.464 9.454L48.464 5.479L42.637 5.479L42.637 29.597L48.759 29.597L48.759 10.904L52.844 10.904C54.626 10.904 55.282 11.28 55.282 13.187L55.282 29.597L61.404 29.597L61.404 11.992C61.391 7.144 59.073 5.103 54.867 5.103L54.867 5.103ZM32.055 29.597L38.176 29.597L38.176 5.479L32.055 5.479L32.055 29.597ZM112.146 9.749L111.892 9.749L111.892 5.479L105.81 5.479L105.81 29.597L112.293 29.597L112.293 11.239L118 11.239L118 5.103L117.209 5.103C114.209 5.103 112.882 6.432 112.146 9.749L112.146 9.749ZM102.97 16.92L102.97 18.746L84.619 18.746C84.953 22.332 87.19 24.709 90.646 24.709C93.741 24.709 95.978 23.057 96.433 21.016L102.957 21.016C101.59 26.106 96.929 30 90.552 30C83.118 30 78.068 24.696 78.068 17.739C78.068 10.783 82.944 5.103 90.713 5.103C98.054 5.103 102.971 10.166 102.971 16.92L102.97 16.92ZM84.806 14.302L96.648 14.302C95.723 11.884 93.768 10.152 90.74 10.152C88.088 10.165 85.757 11.562 84.806 14.302Z" fill="rgb(234,113,0)" fill-opacity="1.000" fill-rule="nonzero" transform="matrix(1 0 0 1 6 15)"/></svg>