<svg xmlns="http://www.w3.org/2000/svg" viewBox="0 0 60 60" width="60" height="60"><path d="M0 0L60 0L60 60L0 60L0 0Z" fill="rgb(234,113,0)" fill-opacity="1.000" fill-rule="nonzero" transform="matrix(1 0 0 1 0 0)"/><path d="M0 45.064L24.298 45.064L24.427 44.384L0.466 39.359L0.931 36.664L24.893 41.898L25.1 40.956L2.458 31.011L3.441 28.263L26.135 37.92L26.6 37.239L6.495 22.139L8.565 18.842L28.541 33.942L29.136 33.13L13.404 12.927L17.26 9.761L32.863 29.022L33.535 28.42L24.453 5.051L29.964 2.695L38.53 25.594L39.202 25.384L39.202 0L48 0L48 47L0 47L0 45.064Z" fill="rgb(255,255,255)" fill-opacity="1.000" fill-rule="nonzero" transform="matrix(1 0 0 1 6 6)"/></svg>