<svg xmlns="http://www.w3.org/2000/svg" viewBox="0 0 60 60" width="60" height="60"><path d="M0 0L60 0L60 60L0 60L0 0Z" fill="rgb(103,102,106)" fill-opacity="1.000" fill-rule="nonzero" transform="matrix(1 0 0 1 0 0)"/><path d="M7.486 0C3.345 0 0 3.357 0 7.486C0 11.615 0 7.621 0 7.694L0 21.257L4.043 21.257L4.043 14.972L7.486 14.972C11.627 14.972 14.972 11.615 14.972 7.486C14.972 3.357 11.615 0 7.486 0ZM7.4 10.708C5.697 10.708 4.313 9.324 4.313 7.621C4.313 5.918 5.697 4.533 7.4 4.533C9.103 4.533 10.488 5.918 10.488 7.621C10.488 9.324 9.103 10.708 7.4 10.708Z" fill="rgb(0,218,191)" fill-opacity="1.000" fill-rule="nonzero" transform="matrix(1 0 0 1 13.9313 19.73)"/><path d="M3.737 0L0 0L0 3.737L3.737 3.737L3.737 0Z" fill="rgb(255,255,255)" fill-opacity="1.000" fill-rule="nonzero" transform="matrix(1 0 0 1 8.4693 21.7272)"/><path d="M3.774 0L0 0L0 13.588L3.774 13.588L3.774 0Z" fill="rgb(255,255,255)" fill-opacity="1.000" fill-rule="nonzero" transform="matrix(1 0 0 1 8.4316 27.4123)"/><path d="M20.338 3.578L17.153 11.309L13.967 3.578L10.61 3.578L13.33 9.912L4.546 9.912L11.738 0L7.756 0L0 10.463L0 12.999L14.641 12.999L15.487 14.972C15.487 14.972 15.242 15.646 14.813 16.05C14.384 16.467 13.82 16.479 13.6 16.479C13.379 16.479 12.571 16.467 11.738 15.768L10.537 18.109C10.537 18.109 11.603 19.126 13.698 19.126C15.793 19.126 16.663 18.268 17.263 17.582C17.864 16.896 18.672 14.923 18.672 14.923L23.524 3.553L20.338 3.553L20.338 3.578Z" fill="rgb(255,255,255)" fill-opacity="1.000" fill-rule="nonzero" transform="matrix(1 0 0 1 27.9495 21.7643)"/></svg>