<svg xmlns="http://www.w3.org/2000/svg" viewBox="0 0 130 60" width="130" height="60"><path d="M0 0L130 0L130 60L0 60L0 0Z" fill="rgb(255,255,255)" fill-opacity="1.000" fill-rule="nonzero" transform="matrix(1 0 0 1 0 0)"/><path d="M0.593 6.128L0.637 6.128L0.637 6.085L0.637 0.043L0.637 0L0.593 0L0.032 0L0 0L0 0.043L0 6.085L0 6.128L0.032 6.128L0.593 6.128Z" fill="rgb(103,102,106)" fill-opacity="1.000" fill-rule="nonzero" transform="matrix(1 0 0 1 62.4999 24.8964)"/><path d="M3.043 1.241C3.15 1.457 3.204 1.726 3.215 2.039L3.215 4.618L3.215 4.661L3.83 4.661L3.83 2.05C3.83 2.007 3.884 1.381 3.604 0.874C3.453 0.593 3.269 0.388 3.053 0.248C2.805 0.097 2.503 0.011 2.125 0C2.104 0 2.082 0 2.072 0C1.316 0 0.863 0.453 0.777 0.55C0.712 0.615 0.658 0.691 0.604 0.766L0.604 0.065L0 0.065L0 4.672L0.637 4.672L0.637 2.125C0.637 2.018 0.658 1.435 1.003 1.079C1.349 0.723 1.726 0.647 1.985 0.647C2.244 0.647 2.007 0.647 2.028 0.647C2.028 0.647 2.028 0.647 2.05 0.647C2.136 0.647 2.428 0.658 2.697 0.842C2.848 0.949 2.978 1.09 3.064 1.262L3.043 1.241ZM2.061 0.043C2.082 0.043 2.093 0.043 2.115 0.043C2.093 0.043 2.072 0.043 2.05 0.043L2.061 0.043Z" fill="rgb(103,102,106)" fill-opacity="1.000" fill-rule="nonzero" transform="matrix(1 0 0 1 64.8846 26.3637)"/><path d="M6.053 0.237C5.815 0.086 5.524 0.011 5.146 0C5.125 0 5.103 0 5.093 0C4.305 0 3.841 0.486 3.787 0.539C3.679 0.658 3.593 0.777 3.517 0.896C3.517 0.885 3.506 0.874 3.496 0.852C3.345 0.561 3.172 0.367 2.967 0.237C2.73 0.086 2.438 0.011 2.061 0C2.039 0 2.018 0 2.007 0C1.694 0 1.403 0.076 1.154 0.227C0.949 0.345 0.831 0.486 0.777 0.539C0.712 0.615 0.658 0.68 0.604 0.755L0.604 0.054L0 0.054L0 4.661L0.637 4.661L0.637 2.115C0.637 2.007 0.658 1.424 1.003 1.068C1.349 0.712 1.726 0.637 1.985 0.637C2.244 0.637 2.007 0.637 2.028 0.637C2.028 0.637 2.028 0.637 2.05 0.637C2.125 0.637 2.384 0.647 2.633 0.831C2.773 0.939 2.881 1.079 2.967 1.252C3.064 1.467 3.118 1.737 3.118 2.05L3.118 4.661L3.733 4.661L3.733 2.406L3.733 2.136C3.733 2.136 3.733 1.467 4.1 1.068C4.359 0.777 4.672 0.637 5.06 0.637C5.449 0.637 5.093 0.637 5.114 0.637C5.114 0.637 5.114 0.637 5.136 0.637C5.233 0.637 5.567 0.658 5.837 0.928C6.074 1.176 6.204 1.543 6.193 2.05L6.193 2.093L6.193 4.672L6.808 4.672L6.808 2.061C6.808 2.007 6.851 1.349 6.603 0.874C6.452 0.583 6.279 0.388 6.074 0.259L6.053 0.237ZM1.985 0.032C2.007 0.032 2.018 0.032 2.039 0.032C2.018 0.032 1.996 0.032 1.974 0.032L1.985 0.032ZM5.082 0.032C5.103 0.032 5.114 0.032 5.136 0.032C5.114 0.032 5.093 0.032 5.071 0.032L5.082 0.032ZM6.754 1.899C6.754 1.92 6.754 1.942 6.754 1.953C6.754 1.931 6.754 1.92 6.754 1.899Z" fill="rgb(103,102,106)" fill-opacity="1.000" fill-rule="nonzero" transform="matrix(1 0 0 1 95.4073 35.2864)"/><path d="M3.053 0.248C2.805 0.097 2.503 0.011 2.125 0C2.104 0 2.082 0 2.072 0C1.316 0 0.863 0.453 0.777 0.55C0.712 0.615 0.658 0.691 0.604 0.766L0.604 0.065L0 0.065L0 4.672L0.637 4.672L0.637 2.125C0.637 2.018 0.658 1.435 1.003 1.079C1.349 0.723 1.726 0.647 1.985 0.647C2.244 0.647 2.007 0.647 2.028 0.647C2.028 0.647 2.028 0.647 2.05 0.647C2.136 0.647 2.428 0.658 2.697 0.842C2.848 0.949 2.978 1.09 3.064 1.262C3.172 1.478 3.226 1.748 3.237 2.061L3.237 4.672L3.852 4.672L3.852 2.061C3.852 2.018 3.906 1.392 3.625 0.885C3.474 0.604 3.291 0.399 3.075 0.259L3.053 0.248ZM2.061 0.043C2.082 0.043 2.093 0.043 2.115 0.043C2.093 0.043 2.072 0.043 2.05 0.043L2.061 0.043Z" fill="rgb(103,102,106)" fill-opacity="1.000" fill-rule="nonzero" transform="matrix(1 0 0 1 108.6125 35.2758)"/><path d="M3.076 4.132C3.141 4.068 3.195 3.992 3.249 3.916L3.249 4.618L3.853 4.618L3.853 0.011L3.216 0.011L3.216 2.557C3.216 2.665 3.195 3.248 2.85 3.604C2.504 3.96 2.127 4.035 1.868 4.035C1.609 4.035 1.846 4.035 1.825 4.035C1.825 4.035 1.825 4.035 1.803 4.035C1.717 4.035 1.425 4.024 1.156 3.841C1.005 3.733 0.875 3.593 0.789 3.42C0.681 3.204 0.627 2.935 0.616 2.622L0.616 0.043L0.616 0L0.001 0L0.001 2.611C0.001 2.654 -0.031 3.28 0.239 3.787C0.379 4.057 0.573 4.273 0.81 4.413C1.059 4.564 1.361 4.65 1.706 4.65C1.717 4.65 1.727 4.65 1.749 4.65C2.526 4.65 2.979 4.197 3.065 4.1L3.076 4.132ZM1.76 4.639C1.749 4.639 1.738 4.639 1.717 4.639C1.738 4.639 1.749 4.639 1.771 4.639C1.771 4.639 1.76 4.639 1.749 4.639L1.76 4.639Z" fill="rgb(103,102,106)" fill-opacity="1.000" fill-rule="nonzero" transform="matrix(1 0 0 1 82.9987 26.3853)"/><path d="M2.633 5.503C2.784 5.416 2.859 5.341 2.859 5.33L2.881 5.308L2.881 5.287C2.87 5.287 2.665 4.855 2.665 4.855L2.643 4.801L2.6 4.834C2.352 5.049 2.072 5.049 2.072 5.049C2.061 5.049 2.039 5.049 2.028 5.049C1.823 5.049 1.662 4.985 1.554 4.866C1.349 4.65 1.359 4.294 1.359 4.294L1.359 1.586L2.6 1.586L2.6 1.014L1.359 1.014L1.359 0L0.734 0L0.734 1.014L0 1.014L0 1.586L0.734 1.586L0.734 4.294C0.734 4.963 1.003 5.265 1.09 5.341C1.359 5.6 1.715 5.654 1.964 5.654C2.212 5.654 2.384 5.621 2.622 5.481L2.633 5.503Z" fill="rgb(103,102,106)" fill-opacity="1.000" fill-rule="nonzero" transform="matrix(1 0 0 1 73.5812 25.4036)"/><path d="M1.101 5.362C1.37 5.621 1.726 5.675 1.974 5.675C2.223 5.675 2.395 5.643 2.633 5.503C2.784 5.416 2.859 5.341 2.859 5.33L2.881 5.308L2.881 5.287C2.87 5.287 2.665 4.855 2.665 4.855L2.643 4.801L2.6 4.834C2.352 5.049 2.072 5.049 2.072 5.049C2.061 5.049 2.039 5.049 2.028 5.049C1.823 5.049 1.662 4.985 1.554 4.866C1.349 4.65 1.359 4.294 1.359 4.294L1.359 1.586L2.6 1.586L2.6 1.014L1.359 1.014L1.359 0L0.734 0L0.734 1.014L0 1.014L0 1.586L0.734 1.586L0.734 4.294C0.734 4.963 1.003 5.265 1.09 5.341L1.101 5.362Z" fill="rgb(103,102,106)" fill-opacity="1.000" fill-rule="nonzero" transform="matrix(1 0 0 1 79.1263 25.3925)"/><path d="M2.665 4.855L2.643 4.801L2.6 4.834C2.352 5.039 2.072 5.049 2.072 5.049C2.061 5.049 2.039 5.049 2.028 5.049C1.823 5.049 1.662 4.985 1.554 4.866C1.338 4.639 1.359 4.294 1.359 4.294L1.359 1.586L2.6 1.586L2.6 1.014L1.359 1.014L1.359 0L0.734 0L0.734 1.014L0 1.014L0 1.586L0.734 1.586L0.734 4.294C0.734 4.963 1.003 5.265 1.09 5.341C1.359 5.6 1.715 5.654 1.964 5.654C2.212 5.654 2.384 5.621 2.622 5.481C2.773 5.395 2.848 5.319 2.848 5.308L2.87 5.287L2.87 5.265C2.859 5.265 2.654 4.834 2.654 4.834L2.665 4.855Z" fill="rgb(103,102,106)" fill-opacity="1.000" fill-rule="nonzero" transform="matrix(1 0 0 1 113.3715 34.3046)"/><path d="M0.043 0L0 0L0 0.043L0 4.553L0 4.596L0.043 4.596L0.583 4.596L0.626 4.596L0.626 4.553L0.626 0.043L0.626 0L0.583 0L0.043 0Z" fill="rgb(103,102,106)" fill-opacity="1.000" fill-rule="nonzero" transform="matrix(1 0 0 1 77.5294 26.4285)"/><path d="M0.442 0.949C0.687 0.949 0.885 0.737 0.885 0.475C0.885 0.213 0.687 0 0.442 0C0.198 0 0 0.213 0 0.475C0 0.737 0.198 0.949 0.442 0.949Z" fill="rgb(103,102,106)" fill-opacity="1.000" fill-rule="nonzero" transform="matrix(1 0 0 1 77.3902 24.5403)"/><path d="M0.043 0L0 0L0 0.043L0 4.553L0 4.596L0.043 4.596L0.583 4.596L0.626 4.596L0.626 4.553L0.626 0.043L0.626 0L0.583 0L0.043 0Z" fill="rgb(103,102,106)" fill-opacity="1.000" fill-rule="nonzero" transform="matrix(1 0 0 1 88.4698 26.4285)"/><path d="M0.442 0.949C0.687 0.949 0.885 0.737 0.885 0.475C0.885 0.213 0.687 0 0.442 0C0.198 0 0 0.213 0 0.475C0 0.737 0.198 0.949 0.442 0.949Z" fill="rgb(103,102,106)" fill-opacity="1.000" fill-rule="nonzero" transform="matrix(1 0 0 1 88.3305 24.5403)"/><path d="M1.904 2.082C1.386 1.964 0.89 1.856 0.782 1.521C0.782 1.521 0.685 1.208 0.868 0.949C1.008 0.744 1.289 0.637 1.699 0.615C1.699 0.615 1.699 0.615 1.731 0.615C1.861 0.615 2.54 0.637 2.961 1.003L3.004 1.036L3.026 0.982L3.274 0.486L3.274 0.453C3.285 0.453 3.263 0.432 3.263 0.432C3.263 0.432 3.123 0.324 2.864 0.216C2.627 0.119 2.249 0 1.742 0C1.235 0 0.976 0.097 0.685 0.302C0.447 0.464 0.339 0.647 0.318 0.658C0.199 0.863 0.134 1.068 0.134 1.262C0.134 1.564 0.134 1.834 0.404 2.136C0.674 2.428 1.051 2.546 1.548 2.643L1.602 2.643C2.033 2.73 2.529 2.827 2.681 3.053C2.767 3.172 2.778 3.312 2.778 3.42C2.778 3.539 2.756 3.625 2.745 3.647C2.605 3.916 2.324 4.068 1.958 4.078C1.914 4.078 1.871 4.078 1.828 4.078C1.3 4.078 0.911 4.046 0.318 3.582L0.275 3.55L0.253 3.593L0.005 4.078L0.005 4.111C-0.006 4.111 0.005 4.132 0.005 4.132C0.005 4.132 0.156 4.283 0.436 4.424C0.695 4.553 1.138 4.715 1.731 4.715C2.324 4.715 2.583 4.618 2.875 4.424C3.026 4.326 3.144 4.197 3.22 4.068C3.22 4.068 3.673 3.355 3.22 2.687C2.983 2.33 2.432 2.201 1.904 2.082ZM2.972 0.971C2.961 0.971 2.95 0.949 2.939 0.939C2.95 0.939 2.961 0.96 2.972 0.971ZM0.836 0.928C0.836 0.939 0.814 0.96 0.803 0.971C0.803 0.96 0.825 0.939 0.836 0.928ZM2.314 4.057C2.292 4.057 2.271 4.068 2.249 4.078C2.271 4.078 2.292 4.068 2.314 4.057ZM1.936 4.121C2.044 4.121 2.141 4.111 2.217 4.089C2.13 4.111 2.044 4.121 1.936 4.121ZM1.72 4.672C1.526 4.672 1.353 4.65 1.192 4.629C1.353 4.661 1.526 4.672 1.72 4.672C1.914 4.672 2.13 4.65 2.303 4.607C2.141 4.65 1.947 4.672 1.72 4.672ZM2.627 4.499C2.659 4.488 2.691 4.467 2.724 4.445C2.691 4.467 2.659 4.478 2.627 4.499Z" fill="rgb(103,102,106)" fill-opacity="1.000" fill-rule="nonzero" transform="matrix(1 0 0 1 69.7353 26.3637)"/><path d="M2.136 0.626C2.633 0.626 3.053 0.852 3.323 1.262L3.345 1.295L3.377 1.273L3.787 0.971L3.819 0.949L3.798 0.917C3.625 0.626 3.409 0.399 3.129 0.248C2.838 0.086 2.503 0 2.125 0C1.532 0 0.982 0.237 0.593 0.669C0.205 1.09 0 1.683 0 2.32C0 2.956 0.043 2.902 0.119 3.172C0.194 3.442 0.313 3.679 0.464 3.884C0.777 4.316 1.219 4.585 1.737 4.672L1.564 5.351L1.564 5.405C1.554 5.405 1.608 5.405 1.608 5.405C1.662 5.405 1.715 5.405 1.759 5.405C1.931 5.405 2.233 5.449 2.233 5.761C2.233 6.074 2.125 6.128 1.813 6.128C1.5 6.128 1.305 5.966 1.305 5.966L1.262 5.923L1.241 5.977L1.111 6.301L1.111 6.333C1.101 6.333 1.122 6.355 1.122 6.355C1.327 6.495 1.532 6.56 1.759 6.56C1.985 6.56 2.028 6.538 2.136 6.506C2.147 6.506 2.169 6.506 2.179 6.506C2.341 6.474 2.503 6.355 2.6 6.182C2.676 6.053 2.762 5.848 2.687 5.567C2.633 5.362 2.503 5.2 2.298 5.103C2.201 5.06 2.115 5.039 2.061 5.028L2.136 4.704C2.859 4.693 3.42 4.38 3.755 3.798L3.776 3.765L3.744 3.744L3.334 3.442L3.302 3.42L3.28 3.453C3.01 3.863 2.589 4.089 2.104 4.089C1.618 4.089 1.327 3.927 1.057 3.625C0.777 3.312 0.626 2.87 0.626 2.363C0.626 1.856 0.777 1.424 1.057 1.101C1.327 0.798 1.694 0.637 2.104 0.637L2.136 0.626Z" fill="rgb(103,102,106)" fill-opacity="1.000" fill-rule="nonzero" transform="matrix(1 0 0 1 90.2835 26.3743)"/><path d="M0.011 1.047L0.432 1.047L0.432 1.003C0.432 0.712 0.583 0.583 0.626 0.55C0.669 0.518 0.712 0.496 0.766 0.496C0.885 0.496 1.025 0.583 1.165 0.734C1.295 0.874 1.424 0.971 1.554 1.025C1.662 1.068 1.748 1.079 1.78 1.079C1.813 1.079 1.802 1.079 1.802 1.079C2.115 1.068 2.341 0.885 2.46 0.572C2.546 0.334 2.546 0.119 2.546 0.108L2.546 0.065L2.125 0.065L2.125 0.108C2.136 0.345 1.996 0.572 1.823 0.593C1.813 0.593 1.791 0.593 1.78 0.593C1.64 0.593 1.575 0.529 1.457 0.41C1.457 0.41 1.435 0.388 1.424 0.378C1.262 0.227 1.1 0.076 0.96 0.032C0.896 0.011 0.82 0 0.744 0C0.55 0 0.378 0.076 0.248 0.227C0.14 0.345 0.065 0.507 0.032 0.712C0 0.863 0 0.982 0 0.982L0 1.025L0.011 1.047Z" fill="rgb(103,102,106)" fill-opacity="1.000" fill-rule="nonzero" transform="matrix(1 0 0 1 95.4284 24.6483)"/><path d="M2.212 4.575C2.492 4.478 2.73 4.294 2.892 4.046L2.892 4.65L3.496 4.65L3.496 1.737C3.496 1.715 3.507 1.543 3.474 1.316C3.442 1.101 3.345 0.777 3.107 0.507C2.665 0 1.985 0 1.726 0L1.705 0L1.683 0C1.381 0 0.658 0.129 0.108 0.626L0.086 0.647L0.086 0.68C0.097 0.68 0.356 1.144 0.356 1.144L0.389 1.198L0.432 1.154C0.432 1.154 0.561 1.025 0.777 0.885C0.982 0.766 1.327 0.626 1.77 0.626C1.77 0.626 1.791 0.626 1.824 0.626C2.061 0.626 2.859 0.712 2.87 1.802L2.87 2.028L1.446 2.028C1.349 2.028 0.453 2.05 0.13 2.751C-0.054 3.15 -0.011 3.517 0.065 3.765C0.151 4.035 0.302 4.251 0.41 4.337C0.529 4.434 0.906 4.726 1.5 4.726C2.093 4.726 1.975 4.683 2.223 4.596L2.212 4.575ZM1.716 0.032C1.716 0.032 1.716 0.032 1.726 0.032C1.726 0.032 1.716 0.032 1.705 0.032L1.716 0.032ZM0.745 3.755C0.658 3.625 0.615 3.474 0.615 3.323C0.615 2.945 0.831 2.762 0.993 2.665C1.036 2.633 1.209 2.546 1.608 2.546C2.007 2.546 1.629 2.546 1.629 2.546L2.859 2.546L2.859 3.248C2.762 3.507 2.622 3.722 2.439 3.863C2.277 3.992 2.082 4.078 1.845 4.111C1.759 4.121 1.673 4.132 1.586 4.132C1.316 4.132 1.144 4.068 0.982 3.992C0.896 3.949 0.799 3.863 0.734 3.765L0.745 3.755ZM1.5 4.661C1.5 4.661 1.5 4.661 1.511 4.661L1.5 4.661Z" fill="rgb(103,102,106)" fill-opacity="1.000" fill-rule="nonzero" transform="matrix(1 0 0 1 94.8785 26.3743)"/><path d="M3.107 0.507C2.665 0 1.985 0 1.726 0L1.705 0L1.683 0C1.381 0 0.658 0.129 0.108 0.626L0.086 0.647L0.086 0.68C0.097 0.68 0.356 1.144 0.356 1.144L0.389 1.198L0.432 1.154C0.432 1.154 0.561 1.025 0.777 0.885C0.982 0.766 1.327 0.626 1.77 0.626C1.77 0.626 1.791 0.626 1.824 0.626C2.061 0.626 2.859 0.712 2.87 1.802L2.87 2.028L1.446 2.028C1.349 2.028 0.453 2.05 0.13 2.751C-0.054 3.15 -0.011 3.517 0.065 3.765C0.151 4.035 0.302 4.251 0.41 4.337C0.529 4.434 0.906 4.726 1.5 4.726C2.093 4.726 1.975 4.683 2.223 4.596C2.503 4.499 2.741 4.316 2.902 4.068L2.902 4.672L3.507 4.672L3.507 1.759C3.507 1.737 3.517 1.564 3.485 1.338C3.453 1.122 3.356 0.798 3.118 0.529L3.107 0.507ZM1.705 0.043C1.705 0.043 1.705 0.043 1.716 0.043C1.716 0.043 1.705 0.043 1.694 0.043L1.705 0.043ZM2.859 3.248C2.762 3.506 2.622 3.722 2.439 3.863C2.277 3.992 2.082 4.078 1.845 4.111C1.759 4.121 1.673 4.132 1.586 4.132C1.316 4.132 1.144 4.068 0.982 3.992C0.896 3.949 0.799 3.863 0.734 3.765C0.648 3.636 0.604 3.485 0.604 3.334C0.604 2.956 0.82 2.773 0.982 2.676C1.025 2.643 1.198 2.557 1.597 2.557C1.996 2.557 1.619 2.557 1.619 2.557L2.849 2.557L2.849 3.258L2.859 3.248Z" fill="rgb(103,102,106)" fill-opacity="1.000" fill-rule="nonzero" transform="matrix(1 0 0 1 80.0975 35.2864)"/><path d="M3.107 0.507C2.665 0 1.985 0 1.726 0L1.705 0L1.683 0C1.381 0 0.658 0.129 0.108 0.626L0.086 0.647L0.086 0.68C0.097 0.68 0.356 1.144 0.356 1.144L0.389 1.198L0.432 1.154C0.432 1.154 0.561 1.025 0.777 0.885C0.982 0.766 1.327 0.626 1.77 0.626C1.77 0.626 1.791 0.626 1.824 0.626C2.061 0.626 2.859 0.712 2.87 1.802L2.87 2.028L1.446 2.028C1.349 2.028 0.453 2.05 0.13 2.751C-0.054 3.15 -0.011 3.517 0.065 3.765C0.151 4.035 0.302 4.251 0.41 4.337C0.529 4.434 0.906 4.726 1.5 4.726C2.093 4.726 1.975 4.683 2.223 4.596C2.503 4.499 2.741 4.316 2.902 4.068L2.902 4.672L3.507 4.672L3.507 1.759C3.507 1.737 3.517 1.564 3.485 1.338C3.453 1.122 3.356 0.798 3.118 0.529L3.107 0.507ZM1.716 0.043C1.716 0.043 1.716 0.043 1.726 0.043C1.726 0.043 1.716 0.043 1.705 0.043L1.716 0.043ZM2.87 3.248C2.773 3.506 2.633 3.722 2.449 3.863C2.287 3.992 2.093 4.078 1.856 4.111C1.77 4.121 1.683 4.132 1.597 4.132C1.327 4.132 1.155 4.068 0.993 3.992C0.906 3.949 0.809 3.863 0.745 3.765C0.658 3.636 0.615 3.485 0.615 3.334C0.615 2.956 0.831 2.773 0.993 2.676C1.036 2.643 1.209 2.557 1.608 2.557C2.007 2.557 1.629 2.557 1.629 2.557L2.859 2.557L2.859 3.258L2.87 3.248Z" fill="rgb(103,102,106)" fill-opacity="1.000" fill-rule="nonzero" transform="matrix(1 0 0 1 90.3046 35.2864)"/><path d="M4.229 2.352C4.229 2.007 4.175 1.672 4.068 1.381C3.96 1.101 3.809 0.852 3.614 0.637C3.226 0.227 2.697 0 2.115 0C1.532 0 1.003 0.227 0.615 0.647C0.421 0.852 0.27 1.111 0.162 1.392C0.054 1.683 0 2.018 0 2.363C0 2.708 0.054 3.032 0.162 3.323C0.27 3.604 0.421 3.852 0.615 4.068C1.003 4.488 1.532 4.715 2.115 4.715C2.697 4.715 3.226 4.488 3.614 4.068C3.809 3.863 3.96 3.604 4.068 3.323C4.175 3.032 4.229 2.697 4.229 2.352ZM3.204 3.571C2.935 3.895 2.568 4.068 2.125 4.068C1.683 4.068 1.705 4.024 1.521 3.938C1.349 3.852 1.187 3.733 1.057 3.571C0.798 3.258 0.658 2.827 0.658 2.352C0.658 1.877 0.798 1.446 1.057 1.133C1.187 0.971 1.349 0.852 1.521 0.766C1.705 0.68 1.91 0.637 2.125 0.637C2.557 0.637 2.935 0.809 3.204 1.133C3.463 1.446 3.604 1.877 3.604 2.352C3.604 2.827 3.463 3.258 3.215 3.571L3.204 3.571Z" fill="rgb(103,102,106)" fill-opacity="1.000" fill-rule="nonzero" transform="matrix(1 0 0 1 99.5511 26.3637)"/><path d="M4.068 1.381C3.96 1.101 3.809 0.852 3.614 0.637C3.226 0.227 2.697 0 2.115 0C1.532 0 1.003 0.227 0.615 0.647C0.421 0.852 0.27 1.111 0.162 1.392C0.054 1.683 0 2.018 0 2.363C0 2.708 0.054 3.032 0.162 3.323C0.27 3.604 0.421 3.852 0.615 4.068C1.003 4.488 1.532 4.715 2.115 4.715C2.697 4.715 3.226 4.488 3.614 4.068C3.809 3.863 3.96 3.604 4.068 3.323C4.175 3.032 4.229 2.697 4.229 2.352C4.229 2.007 4.175 1.672 4.068 1.381ZM3.204 3.571C2.935 3.895 2.568 4.068 2.125 4.068C1.683 4.068 1.705 4.024 1.521 3.938C1.349 3.852 1.187 3.733 1.057 3.571C0.798 3.258 0.658 2.827 0.658 2.352C0.658 1.877 0.798 1.446 1.057 1.133C1.187 0.971 1.349 0.852 1.521 0.766C1.705 0.68 1.91 0.637 2.125 0.637C2.557 0.637 2.935 0.809 3.204 1.133C3.463 1.446 3.604 1.877 3.604 2.352C3.604 2.827 3.463 3.258 3.215 3.571L3.204 3.571Z" fill="rgb(103,102,106)" fill-opacity="1.000" fill-rule="nonzero" transform="matrix(1 0 0 1 116.7698 35.2758)"/><path d="M3.539 0.41C3.161 0.14 2.665 0 2.061 0L0 0L0 6.139L0.647 6.139L0.647 4.24L2.136 4.24C2.136 4.24 2.158 4.24 2.179 4.24C2.395 4.24 3.129 4.197 3.744 3.658C4.143 3.302 4.273 2.794 4.316 2.438C4.37 1.964 4.283 1.521 4.186 1.262C4.057 0.906 3.83 0.626 3.539 0.41ZM3.571 2.74C3.571 2.74 3.571 2.751 3.56 2.762C3.258 3.431 2.622 3.571 2.136 3.571L0.647 3.571L0.647 0.637L2.061 0.637C2.061 0.637 2.082 0.637 2.115 0.637C2.223 0.637 2.503 0.637 2.784 0.744C3.129 0.863 3.377 1.068 3.496 1.349C3.841 2.158 3.604 2.676 3.571 2.73L3.571 2.74Z" fill="rgb(103,102,106)" fill-opacity="1.000" fill-rule="nonzero" transform="matrix(1 0 0 1 74.9402 33.8084)"/><path d="M3.701 0.032L3.658 0.032L3.658 0.798C3.485 0.572 3.28 0.378 3.043 0.248C2.751 0.086 2.417 0 2.05 0C1.683 0 1.457 0.054 1.198 0.173C0.949 0.281 0.734 0.442 0.55 0.658C0.194 1.068 0 1.629 0 2.233C0 2.838 0.194 3.409 0.539 3.809C0.723 4.014 0.939 4.175 1.187 4.294C1.446 4.413 1.737 4.467 2.05 4.467C2.363 4.467 2.73 4.391 3.021 4.229C3.258 4.1 3.463 3.916 3.636 3.701L3.636 4.326C3.636 4.326 3.658 4.963 3.248 5.373C3.01 5.621 2.676 5.74 2.255 5.74C1.834 5.74 2.233 5.74 2.223 5.74C1.888 5.74 1.597 5.686 1.338 5.6C1.047 5.503 0.809 5.341 0.583 5.125L0.55 5.093L0.518 5.136L0.237 5.6L0.237 5.621C0.227 5.621 0.237 5.643 0.237 5.643C0.237 5.643 0.388 5.826 0.712 6.01C1.003 6.171 1.5 6.366 2.212 6.366C2.924 6.366 2.805 6.322 3.043 6.236C3.248 6.171 3.42 6.074 3.571 5.956C3.809 5.761 3.916 5.556 3.949 5.481C4.035 5.33 4.24 4.888 4.24 4.175L4.24 0.043L3.679 0.043L3.701 0.032ZM3.237 3.377C3.107 3.528 2.945 3.647 2.762 3.722C2.568 3.809 2.363 3.852 2.136 3.852C1.683 3.852 1.305 3.69 1.025 3.377C0.766 3.086 0.626 2.676 0.626 2.223C0.626 1.769 0.766 1.37 1.036 1.068C1.316 0.755 1.694 0.593 2.136 0.593C2.579 0.593 2.568 0.637 2.751 0.723C2.935 0.798 3.097 0.917 3.226 1.068C3.496 1.37 3.636 1.769 3.636 2.223C3.636 2.676 3.485 3.075 3.226 3.377L3.237 3.377Z" fill="rgb(103,102,106)" fill-opacity="1.000" fill-rule="nonzero" transform="matrix(1 0 0 1 84.7701 35.2969)"/><path d="M4.078 2.352C4.078 1.705 3.884 1.111 3.539 0.691C3.172 0.237 2.654 0 2.039 0C1.424 0 0.971 0.237 0.593 0.658C0.205 1.09 0 1.694 0 2.352C0 3.01 0.205 3.582 0.593 4.014C0.982 4.456 1.521 4.704 2.115 4.704C2.708 4.704 2.848 4.639 3.14 4.499C3.42 4.37 3.647 4.175 3.819 3.938L3.841 3.916L3.819 3.895L3.507 3.507L3.474 3.463L3.442 3.507C3.302 3.701 3.107 3.841 2.881 3.949C2.676 4.035 2.438 4.078 2.201 4.078C1.78 4.078 1.413 3.938 1.144 3.668C0.885 3.409 0.723 3.032 0.68 2.579L4.1 2.579L4.1 2.535C4.1 2.46 4.1 2.406 4.1 2.352L4.078 2.352ZM0.669 2.039C0.712 1.618 0.852 1.262 1.079 1.014C1.327 0.744 1.662 0.604 2.072 0.604C2.482 0.604 2.773 0.755 3.032 1.025C3.269 1.284 3.42 1.64 3.474 2.039L0.68 2.039L0.669 2.039Z" fill="rgb(103,102,106)" fill-opacity="1.000" fill-rule="nonzero" transform="matrix(1 0 0 1 103.3477 35.2864)"/><path d="M4.078 2.352C4.078 1.705 3.884 1.111 3.539 0.691C3.172 0.237 2.654 0 2.039 0C1.424 0 0.971 0.237 0.593 0.658C0.205 1.09 0 1.694 0 2.352C0 3.01 0.205 3.582 0.593 4.014C0.982 4.456 1.521 4.704 2.115 4.704C2.708 4.704 2.848 4.639 3.14 4.499C3.42 4.37 3.647 4.175 3.819 3.938L3.841 3.916L3.819 3.895L3.507 3.507L3.474 3.463L3.442 3.507C3.302 3.701 3.107 3.841 2.881 3.949C2.676 4.035 2.438 4.078 2.201 4.078C1.78 4.078 1.413 3.938 1.144 3.668C0.885 3.409 0.723 3.032 0.68 2.579L4.1 2.579L4.1 2.535C4.1 2.46 4.1 2.406 4.1 2.352L4.078 2.352ZM0.669 2.039C0.712 1.618 0.852 1.262 1.079 1.014C1.327 0.744 1.662 0.604 2.072 0.604C2.482 0.604 2.773 0.755 3.032 1.025C3.269 1.284 3.42 1.64 3.474 2.039L0.68 2.039L0.669 2.039Z" fill="rgb(103,102,106)" fill-opacity="1.000" fill-rule="nonzero" transform="matrix(1 0 0 1 67.3434 35.2864)"/><path d="M4.154 0L3.582 0L3.582 2.6C3.42 2.374 3.226 2.201 3.01 2.072C2.73 1.91 2.406 1.834 2.05 1.834C1.694 1.834 1.467 1.899 1.208 2.018C0.96 2.136 0.744 2.309 0.561 2.525C0.205 2.956 0 3.539 0 4.186C0 4.834 0.194 5.416 0.561 5.848C0.744 6.064 0.96 6.236 1.208 6.355C1.467 6.474 1.748 6.538 2.05 6.538C2.352 6.538 2.751 6.452 3.032 6.279C3.258 6.139 3.453 5.956 3.614 5.729L3.614 6.495L4.229 6.495L4.229 0.011L4.165 0.011L4.154 0ZM3.204 5.373C2.945 5.708 2.568 5.88 2.115 5.88C1.662 5.88 1.305 5.708 1.036 5.373C0.788 5.06 0.647 4.629 0.647 4.143C0.647 3.658 0.691 3.658 0.766 3.431C0.842 3.226 0.949 3.043 1.079 2.892C1.349 2.589 1.715 2.417 2.115 2.417C2.514 2.417 2.881 2.579 3.15 2.881C3.291 3.032 3.388 3.215 3.463 3.42C3.539 3.636 3.582 3.873 3.582 4.132C3.582 4.618 3.442 5.049 3.204 5.362L3.204 5.373Z" fill="rgb(103,102,106)" fill-opacity="1.000" fill-rule="nonzero" transform="matrix(1 0 0 1 61.9605 33.4634)"/><path d="M0.291 18.385C0.129 18.385 0 18.255 0 18.094L0 0.291C0 0.129 0.129 0 0.291 0C0.453 0 0.583 0.129 0.583 0.291L0.583 18.094C0.583 18.255 0.453 18.385 0.291 18.385Z" fill="rgb(103,102,106)" fill-opacity="1.000" fill-rule="nonzero" transform="matrix(1 0 0 1 55.0214 23.6988)"/><path d="M6.592 0C2.945 0 0 2.956 0 6.592C0 10.228 0 6.711 0 6.776L0 18.719L3.56 18.719L3.56 13.184L6.592 13.184C10.239 13.184 13.184 10.228 13.184 6.592C13.184 2.956 10.228 0 6.592 0ZM6.517 9.43C5.017 9.43 3.798 8.211 3.798 6.711C3.798 5.211 5.017 3.992 6.517 3.992C8.016 3.992 9.236 5.211 9.236 6.711C9.236 8.211 8.016 9.43 6.517 9.43Z" fill="rgb(0,218,191)" fill-opacity="1.000" fill-rule="nonzero" transform="matrix(1 0 0 1 14.8438 23.0298)"/><path d="M3.291 0L0 0L0 3.291L3.291 3.291L3.291 0Z" fill="rgb(103,102,106)" fill-opacity="1.000" fill-rule="nonzero" transform="matrix(1 0 0 1 10.0333 24.7885)"/><path d="M3.323 0L0 0L0 11.965L3.323 11.965L3.323 0Z" fill="rgb(103,102,106)" fill-opacity="1.000" fill-rule="nonzero" transform="matrix(1 0 0 1 9.9998 29.7947)"/><path d="M17.91 3.15L15.105 9.958L12.3 3.15L9.343 3.15L11.739 8.728L4.003 8.728L10.336 0L6.83 0L0 9.214L0 11.447L12.893 11.447L13.638 13.184C13.638 13.184 13.422 13.778 13.044 14.134C12.667 14.501 12.17 14.512 11.976 14.512C11.782 14.512 11.07 14.501 10.336 13.886L9.279 15.946C9.279 15.946 10.217 16.842 12.062 16.842C13.907 16.842 14.673 16.087 15.202 15.483C15.731 14.878 16.443 13.141 16.443 13.141L20.715 3.129L17.91 3.129L17.91 3.15Z" fill="rgb(103,102,106)" fill-opacity="1.000" fill-rule="nonzero" transform="matrix(1 0 0 1 27.1867 24.8211)"/></svg>