<svg xmlns="http://www.w3.org/2000/svg" viewBox="0 0 60 60" width="60" height="60"><path d="M0 0L60 0L60 60L0 60L0 0Z" fill="rgb(255,98,0)" fill-opacity="1.000" fill-rule="nonzero" transform="matrix(1 0 0 1 0 0)"/><path d="M20.869 0.03C19.487 0.063 18.474 0.112 16.615 0.226C15.756 0.278 14.817 0.353 14.157 0.419C13.991 0.437 13.644 0.471 13.388 0.495C12.311 0.6 10.712 0.802 10.039 0.917C9.897 0.941 9.689 0.975 9.572 0.993C9.457 1.008 9.252 1.044 9.119 1.068C8.986 1.092 8.763 1.135 8.621 1.158C8.123 1.243 7.276 1.415 6.796 1.53C6.663 1.563 6.425 1.62 6.268 1.657C6.111 1.692 5.97 1.726 5.952 1.729C5.067 1.94 4.19 2.365 3.514 2.918C2.856 3.452 2.268 4.314 1.972 5.171C1.924 5.304 1.876 5.44 1.861 5.473C1.81 5.588 1.586 6.553 1.426 7.344C1.403 7.476 1.36 7.672 1.336 7.781C1.312 7.889 1.279 8.08 1.258 8.203C1.239 8.327 1.215 8.478 1.2 8.535C1.155 8.707 0.971 9.884 0.853 10.737C0.739 11.564 0.663 12.165 0.597 12.774C0.564 13.073 0.53 13.365 0.525 13.423C0.516 13.48 0.488 13.773 0.461 14.071C0.437 14.37 0.401 14.735 0.383 14.886C0.319 15.441 0.162 17.858 0.084 19.563C0.024 20.826 -0.015 23.533 0.006 25.008C0.027 26.848 0.072 28.493 0.114 29.066C0.129 29.298 0.16 29.787 0.178 30.152C0.196 30.517 0.22 30.985 0.235 31.193C0.304 32.237 0.359 32.922 0.386 33.139C0.401 33.272 0.437 33.625 0.461 33.92C0.485 34.216 0.521 34.569 0.537 34.705C0.555 34.84 0.588 35.133 0.612 35.357C0.687 36.071 0.745 36.539 0.793 36.85C0.817 37.016 0.859 37.3 0.883 37.483C0.971 38.147 1.073 38.793 1.185 39.384C1.209 39.517 1.248 39.74 1.276 39.882C1.327 40.184 1.445 40.784 1.529 41.164C1.819 42.495 1.945 42.893 2.286 43.548C2.38 43.729 2.5 43.94 2.555 44.015C2.606 44.091 2.681 44.199 2.721 44.257C2.893 44.513 3.384 45.014 3.656 45.207C3.701 45.24 3.789 45.303 3.846 45.349C3.906 45.397 3.963 45.433 3.979 45.433C3.991 45.433 4.021 45.454 4.045 45.479C4.163 45.593 4.992 45.989 5.348 46.094C5.414 46.115 5.496 46.142 5.529 46.158C5.608 46.194 6.051 46.305 6.585 46.426C6.817 46.48 7.056 46.537 7.113 46.553C7.252 46.589 8.126 46.764 8.787 46.885C9.167 46.954 9.907 47.072 10.371 47.138C10.546 47.162 10.769 47.195 10.869 47.213C11.234 47.277 12.742 47.452 13.689 47.542C14.03 47.575 14.449 47.615 14.624 47.633C14.908 47.663 15.197 47.687 16.585 47.786C16.793 47.802 17.267 47.829 17.641 47.847C18.015 47.865 18.537 47.892 18.803 47.907C20.95 48.031 27.092 48.031 29.21 47.907C29.475 47.889 29.997 47.865 30.371 47.847C31.014 47.817 31.249 47.802 32.257 47.726C33.548 47.627 35.446 47.442 36.088 47.352C36.272 47.325 36.589 47.283 36.797 47.255C37.566 47.156 38.622 46.996 39.225 46.885C39.886 46.764 40.761 46.589 40.9 46.553C40.957 46.537 41.195 46.48 41.427 46.426C41.949 46.308 42.402 46.194 42.483 46.158C42.583 46.121 42.684 46.086 42.785 46.052C43.032 45.971 43.853 45.581 43.922 45.515C43.943 45.494 44.004 45.449 44.055 45.418C44.29 45.27 44.399 45.186 44.613 44.993C44.854 44.772 45.189 44.411 45.271 44.287C45.298 44.245 45.37 44.142 45.43 44.061C45.494 43.976 45.545 43.901 45.545 43.889C45.545 43.876 45.593 43.792 45.651 43.701C45.708 43.611 45.777 43.478 45.805 43.406C45.835 43.336 45.865 43.261 45.877 43.246C45.934 43.171 46.146 42.57 46.236 42.229C46.378 41.701 46.643 40.455 46.74 39.867C46.764 39.716 46.791 39.574 46.8 39.55C46.827 39.484 46.993 38.449 47.144 37.393C47.177 37.161 47.21 36.928 47.219 36.88C47.244 36.741 47.352 35.815 47.401 35.326C47.424 35.085 47.458 34.807 47.476 34.708C47.494 34.608 47.527 34.282 47.551 33.984C47.575 33.685 47.609 33.317 47.624 33.169C47.642 33.018 47.669 32.674 47.687 32.4C47.705 32.125 47.732 31.787 47.747 31.645C47.766 31.504 47.798 30.982 47.823 30.484C47.85 29.986 47.88 29.374 47.898 29.126C48.034 26.933 48.034 21.176 47.898 18.914C47.883 18.657 47.856 18.154 47.838 17.798C47.82 17.441 47.793 16.971 47.777 16.756C47.759 16.539 47.72 16.005 47.687 15.565C47.654 15.124 47.62 14.711 47.611 14.645C47.602 14.578 47.575 14.286 47.551 13.996C47.527 13.706 47.5 13.435 47.491 13.393C47.482 13.35 47.449 13.073 47.415 12.774C47.337 12.053 47.241 11.257 47.219 11.163C47.21 11.121 47.177 10.88 47.144 10.632C46.996 9.504 46.722 7.932 46.486 6.861C46.453 6.71 46.399 6.466 46.366 6.318C46.281 5.931 46.181 5.542 46.149 5.473C46.133 5.44 46.106 5.358 46.085 5.292C46.019 5.069 45.684 4.323 45.599 4.206C45.587 4.188 45.491 4.046 45.388 3.889C45.174 3.566 44.625 2.993 44.296 2.752C43.645 2.272 42.921 1.946 41.986 1.717C41.825 1.677 41.664 1.637 41.503 1.596C41.391 1.563 41.168 1.514 40.688 1.415C40.552 1.387 40.417 1.357 40.281 1.327C39.699 1.186 37.804 0.878 36.571 0.721C36.323 0.691 36.079 0.658 36.028 0.646C35.937 0.627 35.5 0.582 34.61 0.495C34.362 0.471 34.021 0.435 33.856 0.419C33.69 0.401 33.391 0.374 33.192 0.356C32.993 0.341 32.667 0.314 32.468 0.299C31.792 0.241 29.916 0.133 28.878 0.087C26.872 0 23.168 -0.027 20.869 0.03ZM7.578 20.416C7.596 20.431 7.683 20.459 7.77 20.48C7.934 20.519 8.163 20.624 8.335 20.739C8.47 20.83 8.79 21.173 8.853 21.294C8.884 21.355 8.917 21.409 8.926 21.418C8.935 21.427 8.962 21.487 8.986 21.554C9.007 21.62 9.034 21.69 9.05 21.704C9.089 21.762 9.134 22.121 9.134 22.386C9.134 22.646 9.095 22.95 9.044 23.062C8.881 23.436 8.802 23.56 8.597 23.777C8.407 23.973 8.329 24.034 8.069 24.16C7.858 24.266 7.707 24.32 7.587 24.332C7.49 24.344 7.405 24.365 7.396 24.378C7.375 24.414 6.721 24.414 6.721 24.378C6.721 24.365 6.645 24.344 6.549 24.332C6.455 24.32 6.338 24.293 6.286 24.272C6.221 24.242 6.155 24.215 6.087 24.19C6.03 24.169 5.976 24.145 5.967 24.136C5.957 24.124 5.912 24.097 5.861 24.073C5.686 23.985 5.324 23.584 5.218 23.364C5.161 23.246 5.107 23.131 5.092 23.107C4.989 22.902 4.971 21.967 5.067 21.75C5.095 21.692 5.134 21.596 5.155 21.538C5.176 21.481 5.2 21.427 5.209 21.418C5.218 21.409 5.255 21.348 5.288 21.282C5.345 21.17 5.704 20.784 5.755 20.784C5.767 20.784 5.795 20.763 5.816 20.736C5.873 20.673 6.166 20.531 6.344 20.486C6.428 20.464 6.522 20.434 6.555 20.419C6.588 20.404 6.669 20.389 6.736 20.38C6.914 20.362 7.538 20.389 7.578 20.416ZM40.447 22.519L40.447 24.042L34.595 24.042L34.595 22.003L34.921 21.952C35.642 21.84 36.091 21.765 36.118 21.747C36.136 21.734 36.284 21.711 36.45 21.69C36.616 21.668 36.767 21.641 36.782 21.629C36.8 21.617 36.942 21.59 37.099 21.569C37.255 21.551 37.46 21.514 37.551 21.49C37.642 21.469 37.832 21.436 37.973 21.418C38.115 21.4 38.257 21.373 38.29 21.36C38.323 21.346 38.474 21.318 38.622 21.297C38.773 21.279 38.942 21.252 38.999 21.234C39.056 21.219 39.274 21.177 39.482 21.143C39.69 21.11 39.961 21.065 40.085 21.044C40.209 21.02 40.341 21.002 40.381 20.998L40.447 20.995L40.447 22.519ZM15.469 23.865L15.469 25.672L18.486 25.672L18.486 28.357L15.466 28.357L15.478 31.154C15.487 34.168 15.481 34.02 15.644 34.391C15.768 34.678 16.118 34.97 16.419 35.043C16.47 35.055 16.528 35.079 16.552 35.097C16.609 35.142 17.831 35.142 17.886 35.094C17.909 35.076 18.018 35.052 18.133 35.04L18.335 35.018L18.335 37.665L18.253 37.701C18.178 37.734 17.831 37.788 17.355 37.845C16.676 37.924 15.439 37.933 15.366 37.857C15.348 37.843 15.3 37.831 15.255 37.831C15.137 37.831 14.648 37.74 14.612 37.713C14.594 37.701 14.513 37.67 14.428 37.653C14.347 37.631 14.265 37.604 14.247 37.592C14.232 37.577 14.163 37.55 14.097 37.529C14.03 37.508 13.97 37.48 13.961 37.471C13.952 37.462 13.897 37.429 13.84 37.396C13.589 37.263 13.514 37.215 13.381 37.103C13.303 37.04 13.231 36.986 13.215 36.986C13.185 36.983 12.956 36.732 12.775 36.503C12.637 36.325 12.431 35.984 12.362 35.809C12.338 35.752 12.311 35.697 12.302 35.688C12.289 35.679 12.259 35.586 12.229 35.477C12.202 35.369 12.166 35.254 12.151 35.221C12.136 35.187 12.099 35.052 12.075 34.919C12.05 34.793 12.023 34.667 11.994 34.542C11.973 34.452 11.958 33.389 11.949 31.38L11.937 28.357L10.19 28.357L10.19 25.672L11.94 25.672L11.94 22.63L12.145 22.609C12.256 22.598 12.362 22.576 12.377 22.564C12.395 22.552 12.543 22.525 12.709 22.504C12.875 22.483 13.026 22.452 13.041 22.441C13.059 22.429 13.249 22.395 13.463 22.368C13.68 22.338 13.87 22.305 13.885 22.293C13.903 22.281 14.003 22.26 14.111 22.251C14.253 22.234 14.394 22.21 14.534 22.181C14.857 22.115 15.421 22.027 15.448 22.042C15.46 22.048 15.469 22.869 15.469 23.865ZM25.469 25.385C25.891 25.409 26.368 25.464 26.404 25.491C26.422 25.503 26.495 25.524 26.57 25.533C26.742 25.56 27.162 25.684 27.415 25.786C27.626 25.871 28.097 26.106 28.169 26.167C28.193 26.185 28.247 26.221 28.29 26.239C28.332 26.26 28.465 26.366 28.582 26.468C28.7 26.574 28.809 26.665 28.824 26.67C28.869 26.691 29.406 27.343 29.406 27.379C29.406 27.388 29.433 27.437 29.467 27.482C29.53 27.573 29.798 28.095 29.798 28.128C29.798 28.14 29.822 28.206 29.855 28.275C29.885 28.345 29.922 28.451 29.934 28.508C29.946 28.565 29.967 28.626 29.979 28.643C29.991 28.659 30.018 28.755 30.04 28.855C30.058 28.954 30.082 29.057 30.091 29.081C30.103 29.105 30.13 29.235 30.154 29.368C30.19 29.567 30.199 30.318 30.211 33.643L30.223 37.679L26.932 37.679L26.929 37.323C26.926 37.131 26.917 36.85 26.905 36.702L26.887 36.431L26.8 36.551C26.661 36.735 26.205 37.17 26.024 37.29C25.629 37.55 25.524 37.613 25.415 37.649C25.348 37.667 25.261 37.704 25.219 37.728C25.174 37.749 25.062 37.785 24.971 37.803C24.881 37.824 24.791 37.852 24.775 37.863C24.622 37.978 22.721 37.975 22.573 37.861C22.558 37.849 22.45 37.822 22.332 37.8C22.217 37.779 22.081 37.746 22.03 37.722C21.982 37.701 21.852 37.646 21.747 37.604C21.626 37.551 21.507 37.493 21.391 37.429C21.311 37.38 21.229 37.332 21.146 37.287C21.02 37.218 20.977 37.179 20.634 36.835C20.281 36.482 20.235 36.434 20.235 36.4C20.235 36.388 20.196 36.322 20.151 36.253C20.103 36.183 20.033 36.056 19.997 35.975C19.961 35.891 19.912 35.791 19.891 35.749C19.867 35.706 19.834 35.598 19.813 35.507C19.792 35.417 19.765 35.326 19.753 35.311C19.72 35.269 19.662 34.84 19.662 34.653C19.662 34.566 19.647 34.478 19.629 34.461C19.593 34.424 19.602 34.304 19.695 33.576C19.713 33.435 19.741 33.305 19.753 33.29C19.765 33.272 19.792 33.193 19.81 33.112C19.849 32.955 19.931 32.75 20.015 32.596C20.042 32.544 20.078 32.475 20.097 32.439C20.115 32.4 20.139 32.37 20.154 32.37C20.166 32.37 20.175 32.352 20.175 32.33C20.175 32.297 20.507 31.866 20.564 31.827C20.576 31.817 20.597 31.787 20.606 31.757C20.619 31.724 20.655 31.694 20.688 31.685C20.721 31.676 20.748 31.657 20.748 31.645C20.748 31.615 21.255 31.217 21.427 31.117C21.55 31.042 21.828 30.9 22.232 30.707C22.29 30.677 22.854 30.496 23.101 30.427C23.192 30.4 23.37 30.363 23.493 30.345C23.617 30.324 23.735 30.3 23.75 30.288C23.768 30.276 23.949 30.249 24.157 30.23C24.365 30.212 24.622 30.182 24.73 30.167C25.159 30.104 26.664 30.116 26.824 30.182C26.878 30.206 26.881 30.194 26.86 29.938C26.848 29.79 26.827 29.663 26.815 29.654C26.8 29.645 26.782 29.588 26.769 29.527C26.748 29.416 26.634 29.172 26.525 29.005C26.456 28.9 26.163 28.598 26.13 28.598C26.118 28.598 26.067 28.568 26.015 28.529C25.882 28.432 25.669 28.336 25.539 28.312C25.475 28.3 25.424 28.278 25.424 28.266C25.424 28.134 23.475 28.113 22.89 28.242C22.815 28.257 22.64 28.29 22.498 28.315C22.356 28.339 22.214 28.372 22.181 28.387C22.148 28.402 22.039 28.43 21.94 28.447C21.84 28.465 21.732 28.493 21.698 28.508C21.665 28.523 21.545 28.556 21.43 28.583C21.315 28.61 21.207 28.64 21.189 28.656C21.171 28.668 21.089 28.698 21.005 28.719C20.923 28.74 20.839 28.77 20.824 28.782C20.806 28.795 20.724 28.821 20.642 28.843C20.558 28.861 20.441 28.903 20.38 28.933C20.317 28.966 20.259 28.991 20.25 28.991C20.241 28.991 20.235 28.36 20.235 27.591C20.235 26.501 20.245 26.185 20.275 26.16C20.296 26.142 20.38 26.112 20.462 26.091C20.546 26.073 20.628 26.046 20.642 26.034C20.661 26.022 20.76 25.986 20.869 25.958C20.977 25.928 21.08 25.895 21.095 25.883C21.113 25.868 21.207 25.844 21.303 25.823C21.403 25.802 21.506 25.774 21.529 25.759C21.557 25.747 21.68 25.714 21.804 25.687C21.9 25.668 21.996 25.647 22.091 25.624C22.124 25.614 22.293 25.587 22.468 25.563C22.643 25.539 22.827 25.506 22.875 25.491C23.05 25.437 24.631 25.337 24.987 25.358C25.086 25.364 25.303 25.376 25.469 25.385L25.469 25.385ZM8.832 31.676L8.832 37.679L5.303 37.679L5.303 25.672L8.832 25.672L8.832 31.676ZM35.5 29.413C35.5 32.985 35.515 33.676 35.587 33.773C35.602 33.788 35.62 33.848 35.633 33.905C35.675 34.131 35.871 34.461 36.094 34.684C36.212 34.804 36.344 34.91 36.386 34.922C36.432 34.931 36.465 34.949 36.465 34.961C36.465 34.973 36.571 35.015 36.7 35.058C36.893 35.118 36.996 35.13 37.298 35.13C37.509 35.13 37.693 35.115 37.735 35.097C37.774 35.076 37.868 35.046 37.943 35.025C38.019 35.004 38.154 34.94 38.245 34.88C38.414 34.771 38.727 34.482 38.727 34.433C38.727 34.418 38.77 34.352 38.818 34.288C38.869 34.222 38.909 34.156 38.909 34.138C38.909 34.119 38.936 34.056 38.966 33.996C38.999 33.935 39.035 33.833 39.047 33.77C39.056 33.703 39.077 33.637 39.093 33.622C39.168 33.525 39.18 32.916 39.18 29.377L39.18 25.672L42.709 25.672L42.709 37.68L41.038 37.68C39.732 37.68 39.358 37.671 39.34 37.64C39.328 37.622 39.313 37.336 39.307 37.007C39.301 36.681 39.286 36.413 39.274 36.413C39.262 36.413 39.225 36.449 39.189 36.494C39.02 36.723 38.755 36.983 38.338 37.327C38.278 37.375 38.155 37.441 37.883 37.574C37.759 37.634 37.624 37.704 37.581 37.725C37.539 37.746 37.425 37.779 37.325 37.8C37.225 37.821 37.138 37.848 37.129 37.861C37.099 37.906 36.565 37.951 36.037 37.951C35.518 37.951 35.096 37.915 34.972 37.863C34.939 37.849 34.824 37.812 34.715 37.785C34.607 37.758 34.507 37.722 34.489 37.71C34.474 37.697 34.402 37.667 34.332 37.646C34.26 37.628 34.203 37.601 34.203 37.589C34.203 37.577 34.148 37.55 34.082 37.529C34.016 37.508 33.961 37.48 33.961 37.468C33.961 37.456 33.928 37.432 33.889 37.414C33.63 37.296 33.041 36.744 32.794 36.388C32.643 36.171 32.411 35.736 32.362 35.577C32.344 35.513 32.308 35.42 32.287 35.371C32.266 35.32 32.23 35.212 32.211 35.13C32.193 35.046 32.166 34.958 32.151 34.928C32.136 34.901 32.109 34.759 32.091 34.611C32.073 34.466 32.04 34.319 32.022 34.285C31.994 34.24 31.982 33.163 31.976 29.947L31.967 25.672L35.5 25.672L35.5 29.413Z" fill="rgb(255,255,255)" fill-opacity="1.000" fill-rule="nonzero" transform="matrix(1 0 0 1 6 6)"/><path d="M2.134 0.027C1.982 0.041 1.825 0.065 1.791 0.079C1.756 0.097 1.644 0.122 1.541 0.143C1.441 0.16 1.307 0.195 1.244 0.221C0.775 0.408 0.547 0.533 0.391 0.683C0.241 0.828 0.091 1.097 0.066 1.264C0.06 1.322 0.038 1.397 0.019 1.429C-0.015 1.496 -0.003 1.701 0.054 1.969C0.116 2.261 0.366 2.617 0.588 2.724C0.981 2.912 1.056 2.941 1.275 2.973C1.669 3.027 2.419 2.996 2.581 2.915C2.609 2.9 2.725 2.851 2.837 2.805C2.95 2.756 3.097 2.678 3.166 2.628C3.235 2.579 3.312 2.522 3.341 2.501C3.519 2.377 3.847 1.874 3.891 1.666C3.9 1.614 3.925 1.553 3.944 1.53C3.966 1.504 3.981 1.238 3.988 0.761L4 0.033L3.831 0.016C3.603 -0.011 2.478 -0.002 2.134 0.027Z" fill="rgb(255,255,255)" fill-opacity="1.000" fill-rule="nonzero" transform="matrix(1 0 0 1 29 38)"/></svg>