<svg xmlns="http://www.w3.org/2000/svg" viewBox="0 0 60 60" width="60" height="60"><path d="M0 0L60 0L60 60L0 60L0 0Z" fill="rgb(255,255,255)" fill-opacity="1.000" fill-rule="nonzero" transform="matrix(1 0 0 1 0 0)"/><path d="M0 0.843C0 1.33 0.338 1.573 0.881 1.573C1.5 1.573 1.932 1.124 1.932 0.487L1.932 0.019C1.857 0 1.632 0 1.482 0C0.525 0 0 0.281 0 0.843Z" fill="rgb(0,0,0)" fill-opacity="1.000" fill-rule="nonzero" transform="matrix(1 0 0 1 17.5902 33.714)"/><path d="M23.293 3.128C23.049 1.929 22.355 1.143 21.005 0.843C18.829 0.3 15.585 0 12.078 0C8.571 0 5.326 0.3 3.151 0.843C1.8 1.143 1.107 1.929 0.844 3.128C0.356 5.207 0 8.541 0 12.043C0 15.546 0.356 18.88 0.844 20.959C1.088 22.157 1.782 22.944 3.132 23.244C5.307 23.787 8.552 24.086 12.059 24.086C15.566 24.086 18.811 23.787 20.986 23.244C22.318 22.944 23.03 22.157 23.274 20.959C23.762 18.88 24.118 15.546 24.118 12.043C24.118 8.541 23.781 5.207 23.293 3.128ZM17.385 11.051L20.33 10.526L20.33 12.062L17.385 12.062L17.385 11.051ZM4.445 18.917L2.682 18.917L2.682 12.867L4.445 12.867L4.445 18.917ZM3.563 12.249C2.944 12.249 2.513 11.837 2.513 11.238C2.513 10.638 2.944 10.226 3.563 10.226C4.182 10.226 4.614 10.638 4.614 11.238C4.614 11.837 4.182 12.249 3.563 12.249ZM7.783 14.253L7.783 16.726C7.783 17.362 8.046 17.643 8.608 17.643C8.871 17.643 9.115 17.606 9.246 17.568L9.246 18.917C9.04 18.973 8.646 19.029 8.158 19.029C6.789 19.029 6.02 18.299 6.02 16.838L6.02 14.253L5.139 14.253L5.139 12.867L6.02 12.867L6.02 11.369L7.783 11.051L7.783 12.867L9.321 12.867L9.321 14.253L7.783 14.253ZM15.21 18.917L13.559 18.917L13.541 18.28C13.184 18.767 12.659 19.067 11.965 19.067C10.69 19.067 9.884 18.355 9.884 17.213C9.884 15.902 11.065 15.134 12.922 15.134C13.147 15.134 13.372 15.152 13.522 15.152C13.522 14.497 13.072 14.122 12.247 14.122C11.59 14.122 10.896 14.291 10.202 14.553L10.202 13.13C10.915 12.867 11.646 12.717 12.528 12.717C14.253 12.717 15.21 13.635 15.21 15.358L15.21 18.917ZM21.474 18.917L19.767 18.917L19.748 18.261C19.355 18.805 18.848 19.067 18.117 19.067C16.879 19.067 16.073 18.187 16.073 16.801L16.073 12.867L17.835 12.867L17.835 16.501C17.835 17.231 18.154 17.625 18.736 17.625C19.336 17.625 19.692 17.156 19.692 16.426L19.692 12.867L21.455 12.867L21.455 18.917L21.474 18.917Z" fill="rgb(0,0,0)" fill-opacity="1.000" fill-rule="nonzero" transform="matrix(1 0 0 1 6 17.4941)"/><path d="M4.764 0.075C4.501 0.019 4.164 0 3.807 0C3.451 0 3.151 0.019 2.888 0.075L0 6.068L1.238 6.068L1.894 4.701L5.701 4.701L6.358 6.068L7.633 6.068L4.764 0.075ZM2.326 3.69L3.545 1.011C3.62 0.993 3.713 0.974 3.826 0.974C3.938 0.974 4.013 0.993 4.107 1.011L5.326 3.69L2.326 3.69Z" fill="rgb(0,0,0)" fill-opacity="1.000" fill-rule="nonzero" transform="matrix(1 0 0 1 45.7968 30.3427)"/><path d="M4.876 2.922C5.57 2.66 5.87 2.229 5.87 1.611C5.87 0.506 4.839 0 2.794 0C1.913 0 0.788 0.094 0 0.206L0 6.125L2.982 6.125C5.176 6.125 6.208 5.581 6.208 4.401C6.208 3.652 5.795 3.128 4.876 2.922ZM1.125 1.049C1.669 0.974 2.288 0.955 2.832 0.955C4.107 0.955 4.689 1.18 4.689 1.761C4.689 2.304 4.22 2.547 3.169 2.547L1.107 2.547L1.107 1.049L1.125 1.049ZM2.944 5.188L1.144 5.188L1.144 3.502L3.207 3.502C4.52 3.502 5.045 3.765 5.045 4.345C5.026 4.926 4.445 5.188 2.944 5.188Z" fill="rgb(0,0,0)" fill-opacity="1.000" fill-rule="nonzero" transform="matrix(1 0 0 1 39.3641 30.2677)"/><path d="M4.876 2.922C5.57 2.66 5.87 2.229 5.87 1.611C5.87 0.506 4.839 0 2.794 0C1.913 0 0.788 0.094 0 0.206L0 6.125L2.982 6.125C5.176 6.125 6.208 5.581 6.208 4.401C6.226 3.652 5.814 3.128 4.876 2.922ZM1.144 1.049C1.688 0.974 2.307 0.955 2.851 0.955C4.126 0.955 4.707 1.18 4.707 1.761C4.707 2.304 4.238 2.547 3.188 2.547L1.125 2.547L1.125 1.049L1.144 1.049ZM2.944 5.188L1.144 5.188L1.144 3.502L3.207 3.502C4.52 3.502 5.045 3.765 5.045 4.345C5.026 4.926 4.445 5.188 2.944 5.188Z" fill="rgb(0,0,0)" fill-opacity="1.000" fill-rule="nonzero" transform="matrix(1 0 0 1 32.2186 30.2677)"/></svg>