<svg xmlns="http://www.w3.org/2000/svg" viewBox="0 0 60 60" width="60" height="60"><defs><linearGradient id="g59" gradientUnits="userSpaceOnUse" x1="0.99" y1="60.48" x2="58.64" y2="-0.48"><stop offset="0.0%" stop-color="rgb(235,114,36)" stop-opacity="1.000"/><stop offset="22.9%" stop-color="rgb(235,114,36)" stop-opacity="1.000"/><stop offset="33.5%" stop-color="rgb(236,109,67)" stop-opacity="1.000"/><stop offset="46.0%" stop-color="rgb(236,103,95)" stop-opacity="1.000"/><stop offset="58.4%" stop-color="rgb(237,98,114)" stop-opacity="1.000"/><stop offset="70.2%" stop-color="rgb(238,94,128)" stop-opacity="1.000"/><stop offset="81.3%" stop-color="rgb(239,90,137)" stop-opacity="1.000"/><stop offset="91.5%" stop-color="rgb(239,88,143)" stop-opacity="1.000"/><stop offset="100.0%" stop-color="rgb(239,87,145)" stop-opacity="1.000"/></linearGradient></defs><path d="M0 0L60 0L60 60L0 60L0 0Z" fill="rgb(255,255,255)" fill-opacity="1.000" fill-rule="nonzero" transform="matrix(1 0 0 1 0 0)"/><path d="M31.119 0L0 0L0 42.331L31.119 42.331L31.119 0Z" fill="rgb(255,255,255)" fill-opacity="1.000" fill-rule="nonzero" transform="matrix(1 0 0 1 14.0001 10)"/><path d="M0 0.531L0.969 0.531L0.969 5.646L0 5.646L0 0.531ZM3.478 5.721C3.054 5.721 2.733 5.609 2.515 5.384C2.299 5.159 2.189 4.825 2.189 4.381L2.189 2.442L1.567 2.442L1.567 1.714L2.189 1.714L2.189 0.667L3.129 0.667L3.129 1.713L4.007 1.713L4.007 2.441L3.129 2.441L3.129 4.297C3.129 4.524 3.175 4.691 3.265 4.8C3.355 4.909 3.497 4.963 3.689 4.963C3.834 4.963 3.976 4.933 4.112 4.872L4.112 5.607C3.906 5.682 3.695 5.721 3.478 5.721ZM5.789 5.744C5.405 5.744 5.097 5.64 4.864 5.433C4.632 5.227 4.515 4.948 4.515 4.6C4.515 4.155 4.692 3.81 5.046 3.565C5.4 3.32 5.902 3.198 6.553 3.198L6.72 3.198C6.776 3.198 6.829 3.201 6.88 3.206C6.864 2.923 6.784 2.713 6.636 2.577C6.489 2.441 6.271 2.372 5.978 2.372C5.604 2.372 5.23 2.478 4.856 2.69L4.856 1.932C5.264 1.721 5.687 1.614 6.122 1.614C6.653 1.614 7.061 1.759 7.349 2.05C7.637 2.341 7.781 2.756 7.781 3.296L7.781 5.646L7 5.646L6.946 5.191C6.826 5.363 6.663 5.497 6.457 5.597C6.254 5.693 6.032 5.744 5.789 5.744ZM6.046 5.077C6.278 5.077 6.477 4.994 6.642 4.827C6.805 4.66 6.887 4.458 6.887 4.221L6.887 3.834C6.838 3.834 6.785 3.833 6.732 3.83C6.679 3.828 6.625 3.826 6.57 3.826C6.195 3.826 5.908 3.883 5.71 3.997C5.509 4.111 5.411 4.276 5.411 4.493C5.411 4.67 5.469 4.811 5.585 4.917C5.7 5.024 5.855 5.077 6.046 5.077ZM9.819 5.744C9.415 5.744 9.092 5.604 8.852 5.323C8.612 5.043 8.492 4.668 8.492 4.198L8.492 1.713L9.432 1.713L9.432 4.047C9.432 4.345 9.493 4.573 9.618 4.733C9.742 4.892 9.917 4.972 10.144 4.972C10.371 4.972 10.555 4.888 10.694 4.721C10.833 4.554 10.902 4.333 10.902 4.054L10.902 1.713L11.842 1.713L11.842 5.646L11.023 5.646L10.97 5.184C10.844 5.365 10.681 5.505 10.481 5.601C10.281 5.696 10.062 5.744 9.819 5.744ZM10.501 1.183L9.676 1.183L10.486 0L11.509 0L10.501 1.183Z" fill="rgb(44,56,74)" fill-opacity="1.000" fill-rule="nonzero" transform="matrix(1 0 0 1 32.6649 46.5881)"/><path d="M25.88 10.678L25.88 31.832L30.476 31.832L30.476 15.228C30.476 12.715 28.438 10.678 25.926 10.678L25.88 10.678ZM5.268 10.678C2.778 10.678 0.76 12.696 0.76 15.186L0.76 31.833L5.314 31.833L5.314 10.678L5.268 10.678ZM13.519 2.939C11.403 2.939 9.689 4.655 9.689 6.769L9.689 6.808L9.689 10.726L9.699 23.471C9.709 24.375 9.77 25.292 9.931 26.18C10.366 28.565 11.504 30.521 13.776 31.575C16.657 32.911 19.265 32.738 22.197 31.782L22.197 27.437C22.197 27.437 20.63 28.099 18.321 28.099C18.001 28.099 17.679 28.091 17.364 28.032C15.833 27.75 14.85 26.761 14.538 25.125C14.448 24.654 14.395 24.166 14.393 23.685L14.393 14.633L22.199 14.633L22.199 10.678L14.393 10.678L14.393 2.939L13.519 2.939ZM25.168 2.851C25.155 4.493 26.438 5.757 28.13 5.771C29.804 5.783 31.119 4.51 31.118 2.878C31.118 1.261 29.848 0.015 28.183 0.001C28.173 0.001 28.163 0.001 28.154 0.001C26.46 0 25.18 1.22 25.168 2.851ZM2.964 0C1.265 0.004 -0.011 1.256 0 2.903C0.011 4.518 1.286 5.753 2.957 5.771C4.63 5.787 5.949 4.515 5.951 2.883C5.955 1.249 4.67 0.004 2.982 0L2.964 0Z" fill="rgb(255,255,255)" fill-opacity="1.000" fill-rule="nonzero" transform="matrix(1 0 0 1 14 10)"/><path d="M32.864 0L63.991 32.916L31.127 63.994L0 31.079L32.864 0Z" fill="url(#g59)" fill-rule="nonzero" transform="matrix(-1 0 0 -1 61.5495 58.452)"/></svg>