<svg xmlns="http://www.w3.org/2000/svg" viewBox="0 0 60 60" width="60" height="60"><path d="M0 0L60 0L60 60L0 60L0 0Z" fill="rgb(0,0,0)" fill-opacity="1.000" fill-rule="nonzero" transform="matrix(1 0 0 1 0 0)"/><path d="M30.697 25.296C31.828 25.157 32.3 24.792 32.272 23.491C32.241 22.308 32.131 21.128 31.941 19.96C31.268 16.168 29.6 12.925 26.947 10.527C24.017 7.882 19.988 6.362 14.889 6.386C13.41 6.401 11.945 6.095 10.596 5.489C9.239 4.867 8.033 3.96 7.059 2.829L5.462 1.006C4.905 0.407 4.136 0.047 3.319 0.004C2.501 -0.039 1.699 0.238 1.082 0.776C0.465 1.314 0.081 2.071 0.011 2.886C-0.058 3.702 0.193 4.513 0.71 5.147L2.307 6.97C3.876 8.782 5.816 10.237 7.995 11.235C10.169 12.211 12.529 12.703 14.912 12.676C18.347 12.661 20.941 13.582 22.716 15.187C24.433 16.737 25.477 19.019 25.824 21.778C26.187 24.652 28.02 25.614 30.697 25.288L30.697 25.296ZM3.631 17.628C6.31 17.302 8.139 18.272 8.506 21.138C8.853 23.897 9.896 26.179 11.613 27.729C13.391 29.334 15.988 30.255 19.415 30.24C21.799 30.213 24.16 30.704 26.335 31.68C28.514 32.679 30.454 34.134 32.023 35.946L33.62 37.769C34.171 38.398 34.449 39.221 34.393 40.056C34.337 40.891 33.952 41.669 33.323 42.22C32.693 42.771 31.87 43.049 31.036 42.993C30.201 42.937 29.423 42.552 28.872 41.923L27.275 40.098C26.301 38.967 25.094 38.06 23.738 37.438C22.389 36.832 20.924 36.525 19.445 36.541C14.346 36.564 10.315 35.038 7.387 32.398C4.73 30.002 3.071 26.758 2.389 22.965C2.199 21.796 2.089 20.615 2.058 19.431C2.03 18.128 2.502 17.763 3.631 17.626L3.631 17.628ZM15.468 18.09L18.862 18.09C19.305 18.091 19.731 18.268 20.045 18.581C20.359 18.895 20.536 19.32 20.538 19.764L20.538 23.16C20.536 23.604 20.359 24.029 20.045 24.343C19.731 24.657 19.305 24.834 18.862 24.835L15.468 24.835C15.024 24.834 14.599 24.657 14.285 24.343C13.971 24.029 13.794 23.604 13.792 23.16L13.792 19.764C13.794 19.32 13.971 18.895 14.285 18.581C14.599 18.268 15.024 18.091 15.468 18.09Z" fill="rgb(255,255,255)" fill-opacity="1.000" fill-rule="evenodd" transform="matrix(1 0 0 1 13 8)"/></svg>