<svg xmlns="http://www.w3.org/2000/svg" viewBox="0 0 130 60" width="130" height="60"><path d="M0 0L130 0L130 60L0 60L0 0Z" fill="rgb(255,255,255)" fill-opacity="1.000" fill-rule="nonzero" transform="matrix(1 0 0 1 0 0)"/><path d="M54.974 6.654L53.376 6.654C52.524 6.657 51.708 6.998 51.106 7.603C50.503 8.207 50.163 9.026 50.16 9.881L50.16 18.41C50.195 20.673 51.117 22.831 52.724 24.419C54.332 26.007 56.497 26.896 58.753 26.896C61.009 26.896 63.174 26.007 64.782 24.419C66.39 22.831 67.311 20.673 67.346 18.41L67.346 6.654L65.736 6.654C64.884 6.657 64.068 6.998 63.466 7.603C62.863 8.207 62.523 9.026 62.52 9.881L62.52 18.41C62.496 19.396 62.089 20.334 61.386 21.023C60.683 21.712 59.738 22.098 58.755 22.098C57.772 22.098 56.828 21.712 56.125 21.023C55.421 20.334 55.015 19.396 54.991 18.41L54.991 6.654L54.974 6.654ZM37.834 10.765C40.603 10.765 41.694 12.877 41.694 15.539C41.694 18.2 39.955 20.297 37.232 20.297C34.671 20.297 33.361 18.462 33.361 15.59C33.361 12.718 35.349 10.765 37.834 10.765ZM41.694 23.976C41.694 28.414 38.18 28.822 35.634 28.635C33.699 28.534 31.814 27.984 30.128 27.028L30.128 28.644C30.128 31.677 33.475 32.946 37.18 32.946C42.685 32.946 46.523 29.603 46.523 23.93L46.523 16.044C46.523 15.878 46.523 15.711 46.523 15.543C46.523 10.277 43.42 5.925 37.834 5.925C32.473 5.925 28.532 10.279 28.532 15.594C28.532 20.859 31.712 25.148 37.232 25.148C39.346 25.148 40.731 24.46 41.694 23.505L41.694 23.98L41.694 23.976ZM13.278 6.654L11.667 6.654C10.815 6.657 9.998 6.998 9.396 7.602C8.793 8.207 8.453 9.026 8.451 9.881L8.451 18.41C8.486 20.673 9.407 22.831 11.015 24.419C12.623 26.007 14.788 26.896 17.044 26.896C19.3 26.896 21.465 26.007 23.073 24.419C24.681 22.831 25.602 20.673 25.637 18.41L25.637 6.654L24.027 6.654C23.175 6.657 22.358 6.998 21.756 7.602C21.153 8.207 20.813 9.026 20.811 9.881L20.811 18.41C20.811 19.413 20.414 20.374 19.707 21.082C19.001 21.791 18.043 22.189 17.044 22.189C16.045 22.189 15.087 21.791 14.381 21.082C13.674 20.374 13.278 19.413 13.278 18.41L13.278 6.654ZM4.827 6.654L3.216 6.654C2.364 6.657 1.548 6.998 0.946 7.603C0.343 8.207 0.003 9.026 0 9.881L0 23.063C0.003 23.918 0.343 24.737 0.946 25.342C1.548 25.946 2.364 26.287 3.216 26.29L4.827 26.29L4.827 6.65L4.827 6.654ZM1.196 0L3.628 0C3.946 0.001 4.251 0.127 4.476 0.353C4.701 0.578 4.828 0.884 4.829 1.203L4.829 3.64C4.828 3.959 4.701 4.265 4.476 4.491C4.251 4.716 3.946 4.843 3.628 4.845L1.203 4.845C0.885 4.843 0.58 4.716 0.355 4.491C0.13 4.265 0.003 3.959 0.002 3.64L0.002 1.2C0.004 0.882 0.131 0.577 0.356 0.352C0.581 0.127 0.885 0.001 1.203 0L1.196 0Z" fill="rgb(0,0,0)" fill-opacity="1.000" fill-rule="evenodd" transform="matrix(1 0 0 1 52.2817 12.9662)"/><path d="M30.697 25.296C31.828 25.157 32.3 24.792 32.272 23.491C32.241 22.308 32.131 21.128 31.941 19.96C31.268 16.168 29.6 12.925 26.947 10.527C24.017 7.882 19.988 6.362 14.889 6.386C13.41 6.401 11.945 6.095 10.596 5.489C9.239 4.867 8.033 3.96 7.059 2.829L5.462 1.006C4.905 0.407 4.136 0.047 3.319 0.004C2.501 -0.039 1.699 0.238 1.082 0.776C0.465 1.314 0.081 2.071 0.011 2.886C-0.058 3.702 0.193 4.513 0.71 5.147L2.307 6.97C3.876 8.782 5.816 10.237 7.995 11.235C10.169 12.211 12.529 12.703 14.912 12.676C18.347 12.661 20.941 13.582 22.716 15.187C24.433 16.737 25.477 19.019 25.824 21.778C26.187 24.652 28.02 25.614 30.697 25.288L30.697 25.296ZM3.631 17.628C6.31 17.302 8.139 18.272 8.506 21.138C8.853 23.897 9.896 26.179 11.613 27.729C13.391 29.334 15.988 30.255 19.415 30.24C21.799 30.213 24.16 30.704 26.335 31.68C28.514 32.679 30.454 34.134 32.023 35.946L33.62 37.769C34.171 38.398 34.449 39.221 34.393 40.056C34.337 40.891 33.952 41.669 33.323 42.22C32.693 42.771 31.87 43.049 31.036 42.993C30.201 42.937 29.423 42.552 28.872 41.923L27.275 40.098C26.301 38.967 25.094 38.06 23.738 37.438C22.389 36.832 20.924 36.525 19.445 36.541C14.346 36.564 10.315 35.038 7.387 32.398C4.73 30.002 3.071 26.758 2.389 22.965C2.199 21.796 2.089 20.615 2.058 19.431C2.03 18.128 2.502 17.763 3.631 17.626L3.631 17.628ZM15.468 18.09L18.862 18.09C19.305 18.091 19.731 18.268 20.045 18.581C20.359 18.895 20.536 19.32 20.538 19.764L20.538 23.16C20.536 23.604 20.359 24.029 20.045 24.343C19.731 24.657 19.305 24.834 18.862 24.835L15.468 24.835C15.024 24.834 14.599 24.657 14.285 24.343C13.971 24.029 13.794 23.604 13.792 23.16L13.792 19.764C13.794 19.32 13.971 18.895 14.285 18.581C14.599 18.268 15.024 18.091 15.468 18.09Z" fill="rgb(0,0,0)" fill-opacity="1.000" fill-rule="evenodd" transform="matrix(1 0 0 1 10.3718 8)"/></svg>