<svg xmlns="http://www.w3.org/2000/svg" viewBox="0 0 60 60" width="60" height="60"><path d="M0 0L60 0L60 60L0 60L0 0Z" fill="rgb(255,255,255)" fill-opacity="1.000" fill-rule="nonzero" transform="matrix(1 0 0 1 0 0)"/><path d="M5.071 0L2.117 0L2.117 0.253L3.056 0.253L3.056 5.17C3.056 6.637 2.648 7.066 1.734 7.066C1.573 7.083 1.411 7.035 1.285 6.933C1.158 6.83 1.077 6.682 1.06 6.519C1.055 6.479 1.055 6.438 1.06 6.398C1.06 5.863 1.031 5.533 0.543 5.533C0.055 5.533 0 6.032 0 6.182C0 6.86 0.299 7.377 1.643 7.377C3.246 7.377 4.113 6.835 4.113 5.038L4.113 0.249L5.1 0.249L5.071 0Z" fill="rgb(80,54,41)" fill-opacity="1.000" fill-rule="nonzero" transform="matrix(1 0 0 1 5.3643 25.3667)"/><path d="M0.579 0C0.503 -0.002 0.427 0.011 0.356 0.039C0.285 0.068 0.221 0.111 0.168 0.165C0.113 0.219 0.07 0.284 0.041 0.355C0.013 0.426 -0.001 0.503 0 0.58C-0.001 0.655 0.013 0.73 0.042 0.799C0.071 0.868 0.114 0.931 0.168 0.983C0.277 1.092 0.425 1.152 0.579 1.152C0.736 1.153 0.886 1.092 0.998 0.983C1.052 0.931 1.095 0.868 1.124 0.799C1.153 0.73 1.167 0.655 1.166 0.58C1.167 0.505 1.153 0.43 1.125 0.36C1.098 0.29 1.057 0.227 1.005 0.173C0.952 0.119 0.89 0.076 0.822 0.047C0.753 0.017 0.679 0.001 0.605 0L0.579 0Z" fill="rgb(80,54,41)" fill-opacity="1.000" fill-rule="nonzero" transform="matrix(1 0 0 1 10.2492 31.5997)"/><path d="M0.579 0C0.505 -0.002 0.431 0.011 0.361 0.038C0.292 0.065 0.228 0.106 0.174 0.158C0.121 0.209 0.077 0.271 0.047 0.34C0.018 0.409 0.001 0.483 0 0.558L0 0.58C0 0.656 0.016 0.731 0.048 0.801C0.079 0.871 0.125 0.933 0.182 0.983C0.292 1.091 0.44 1.151 0.594 1.152C0.671 1.153 0.747 1.139 0.819 1.11C0.89 1.081 0.955 1.038 1.009 0.983C1.065 0.932 1.109 0.87 1.14 0.8C1.17 0.731 1.185 0.655 1.184 0.58C1.186 0.502 1.172 0.425 1.142 0.354C1.113 0.283 1.069 0.218 1.013 0.165C0.96 0.112 0.897 0.07 0.827 0.042C0.758 0.013 0.683 -0.001 0.608 0" fill="rgb(80,54,41)" fill-opacity="1.000" fill-rule="nonzero" transform="matrix(1 0 0 1 16.8065 31.5998)"/><path d="M3.056 0L0.142 0L0.142 0.253L0.991 0.253L0.991 5.867C1.013 6.096 0.987 6.327 0.914 6.545C0.881 6.623 0.831 6.693 0.768 6.75C0.705 6.807 0.631 6.85 0.55 6.875C0.373 6.935 0.187 6.966 0 6.967L0 7.201L3.096 7.201L3.096 6.967C2.895 6.968 2.695 6.94 2.503 6.882C2.422 6.857 2.348 6.814 2.285 6.757C2.222 6.7 2.172 6.63 2.138 6.552C2.078 6.407 2.052 6.251 2.062 6.094L2.062 4.173L2.834 4.173C5.071 4.173 5.701 3.285 5.701 2.079C5.701 0.873 5.322 0 3.056 0ZM2.656 3.887L2.069 3.887L2.069 0.286L2.601 0.286C4.328 0.279 4.736 0.986 4.736 2.145C4.736 3.304 4.058 3.912 2.685 3.912" fill="rgb(80,54,41)" fill-opacity="1.000" fill-rule="nonzero" transform="matrix(1 0 0 1 12.2857 25.3667)"/><path d="M7.814 6.508C7.766 6.349 7.745 6.183 7.752 6.017L7.752 0.235L8.521 0.235L8.521 0L6.674 0L4.473 5.482C4.47 5.491 4.464 5.499 4.456 5.505C4.449 5.51 4.439 5.514 4.43 5.515C4.418 5.515 4.407 5.512 4.398 5.506C4.388 5.5 4.38 5.492 4.375 5.482C4.375 5.482 2.062 0.066 2.036 0L0 0L0 0.227L0.893 0.227L0.893 6.307C0.884 6.437 0.843 6.564 0.772 6.673C0.689 6.783 0.575 6.865 0.444 6.908C0.305 6.941 0.161 6.954 0.018 6.948L0.018 7.183L2.036 7.183L2.036 6.948C1.913 6.95 1.79 6.931 1.672 6.893C1.528 6.86 1.4 6.779 1.308 6.662C1.236 6.553 1.194 6.427 1.184 6.296L1.162 5.79L1.162 0.99L1.282 0.99C1.282 0.99 3.916 7.11 3.916 7.179L4.171 7.179L6.655 1.041L6.721 1.041L6.721 5.988C6.724 6.158 6.703 6.329 6.659 6.494C6.632 6.567 6.591 6.634 6.537 6.692C6.484 6.749 6.42 6.795 6.349 6.827C6.185 6.886 6.011 6.916 5.836 6.915L5.836 7.15L8.659 7.15L8.659 6.915C8.48 6.915 8.302 6.883 8.134 6.82C8.059 6.786 7.991 6.735 7.937 6.672C7.883 6.609 7.843 6.534 7.821 6.453" fill="rgb(80,54,41)" fill-opacity="1.000" fill-rule="nonzero" transform="matrix(1 0 0 1 19.4075 25.385)"/><path d="M2.47 0C0.962 0 0 1.001 0 2.75C0 5.317 1.993 5.482 2.419 5.482C3.271 5.482 4.889 4.95 4.889 2.702C4.889 0.935 3.854 0 2.459 0M2.459 5.163C1.322 5.163 1.148 4.598 1.148 2.776C1.148 1.364 1.235 0.304 2.459 0.304C3.774 0.304 3.781 1.404 3.781 2.677C3.781 4.51 3.468 5.148 2.459 5.148" fill="rgb(80,54,41)" fill-opacity="1.000" fill-rule="nonzero" transform="matrix(1 0 0 1 28.5584 27.2917)"/><path d="M3.443 0C2.539 0 2.262 0.535 2.007 1.078L1.938 1.078C1.938 1.078 1.807 0.29 1.76 0.055L0 0.055L0 0.323L0.947 0.323L0.947 3.89C0.96 4.14 0.92 4.39 0.831 4.624C0.736 4.803 0.517 4.891 0.16 4.891L0.004 4.891L0.004 5.207L2.918 5.207L2.918 4.891L2.78 4.891C2.393 4.891 2.229 4.807 2.127 4.638C2.024 4.403 1.983 4.146 2.007 3.89L2.007 2.031C2.007 1.412 2.474 0.7 3.035 0.7C3.596 0.7 3.606 1.606 4.273 1.243C4.637 1.045 4.572 0.007 3.45 0.007" fill="rgb(80,54,41)" fill-opacity="1.000" fill-rule="nonzero" transform="matrix(1 0 0 1 33.9571 27.3687)"/><path d="M4.59 4.759C4.276 4.759 4.174 4.583 4.156 4.294L4.156 1.481C4.175 1.289 4.152 1.094 4.089 0.911C4.026 0.728 3.925 0.561 3.792 0.422C3.519 0.15 3.001 0.007 2.247 0.007C1.684 -0.035 1.121 0.104 0.641 0.403C0.499 0.489 0.382 0.611 0.301 0.756C0.22 0.902 0.177 1.065 0.178 1.232C0.169 1.299 0.176 1.367 0.198 1.431C0.22 1.495 0.257 1.552 0.306 1.599C0.395 1.675 0.509 1.716 0.626 1.712C0.918 1.712 1.078 1.562 1.143 1.181C1.151 0.959 1.232 0.746 1.373 0.576C1.467 0.49 1.579 0.424 1.7 0.384C1.821 0.343 1.949 0.329 2.076 0.341C2.219 0.324 2.364 0.343 2.498 0.395C2.633 0.446 2.753 0.53 2.848 0.638C2.994 0.86 3.066 1.124 3.052 1.39L3.052 2.251C2.116 2.336 -0.095 2.512 0.003 4.202C0.037 4.544 0.198 4.86 0.455 5.086C0.711 5.313 1.043 5.433 1.384 5.423C1.713 5.413 2.036 5.332 2.332 5.185C2.627 5.038 2.888 4.829 3.096 4.572C3.141 4.802 3.266 5.007 3.448 5.152C3.631 5.296 3.859 5.37 4.09 5.361C4.772 5.361 5.183 5.023 5.227 4.191L5.049 4.191C5.005 4.558 4.783 4.748 4.597 4.748M3.063 4.206C3.067 4.211 3.069 4.217 3.069 4.224C3.069 4.231 3.067 4.237 3.063 4.242L3.063 4.264C2.761 4.605 2.347 4.825 1.897 4.884C1.792 4.888 1.687 4.871 1.588 4.834C1.49 4.797 1.399 4.741 1.322 4.669C1.245 4.596 1.183 4.51 1.139 4.413C1.095 4.317 1.071 4.213 1.067 4.107C1.063 4.066 1.063 4.026 1.067 3.986C1.067 3.029 2.378 2.548 3.092 2.548L3.063 4.206Z" fill="rgb(80,54,41)" fill-opacity="1.000" fill-rule="nonzero" transform="matrix(1 0 0 1 44.4599 27.277)"/><path d="M5.177 4.646C5.042 4.414 4.979 4.148 4.994 3.88L4.994 1.552C5.009 1.253 4.95 0.956 4.823 0.686C4.705 0.468 4.526 0.288 4.31 0.169C4.069 0.051 3.804 -0.007 3.537 0.001C3.195 -0.008 2.857 0.081 2.563 0.256C2.268 0.432 2.029 0.688 1.872 0.994L1.76 0.994L1.577 0.063L0 0.063L0 0.331L0.798 0.331L0.798 3.88C0.804 4.082 0.784 4.284 0.739 4.481C0.721 4.557 0.684 4.627 0.632 4.684C0.579 4.742 0.514 4.786 0.441 4.811C0.3 4.863 0.15 4.888 0 4.885L0 5.211L2.528 5.211L2.528 4.881C2.431 4.886 2.335 4.869 2.245 4.832C2.156 4.794 2.076 4.737 2.011 4.665C1.896 4.438 1.847 4.184 1.869 3.931L1.869 2.578C1.82 2.081 1.886 1.579 2.062 1.112C2.164 0.933 2.313 0.785 2.492 0.685C2.671 0.584 2.873 0.534 3.078 0.54C3.219 0.525 3.36 0.552 3.486 0.617C3.611 0.682 3.715 0.783 3.785 0.906C3.909 1.295 3.967 1.701 3.956 2.109L3.956 3.788C3.975 3.996 3.975 4.204 3.956 4.412C3.949 4.486 3.925 4.557 3.887 4.62C3.848 4.684 3.796 4.738 3.734 4.778C3.61 4.848 3.471 4.885 3.33 4.885L3.33 5.215L5.767 5.215L5.767 4.888C5.461 4.866 5.26 4.793 5.169 4.65" fill="rgb(80,54,41)" fill-opacity="1.000" fill-rule="nonzero" transform="matrix(1 0 0 1 49.8691 27.3534)"/><path d="M4.854 0.013C4.772 0.047 4.701 0.102 4.648 0.173C4.595 0.244 4.562 0.328 4.552 0.416C4.512 0.625 4.431 0.75 4.326 0.783C4.205 0.815 4.077 0.807 3.961 0.761C3.501 0.367 2.907 0.168 2.304 0.203C1.8 0.164 1.302 0.327 0.917 0.657C0.533 0.987 0.294 1.457 0.253 1.963C0.253 2.04 0.253 2.117 0.253 2.194C0.253 3.294 0.672 3.804 1.586 3.998C1.645 3.998 1.645 4.072 1.586 4.079C0.818 4.222 0.129 4.446 0.129 5.197C0.128 5.373 0.182 5.544 0.283 5.687C0.383 5.831 0.526 5.939 0.69 5.997C1.177 6.166 1.69 6.246 2.206 6.235C2.612 6.231 3.018 6.25 3.422 6.29C3.659 6.312 3.886 6.391 4.085 6.521C4.171 6.593 4.239 6.684 4.283 6.787C4.327 6.891 4.345 7.003 4.337 7.115C4.333 7.291 4.279 7.463 4.182 7.609C4.084 7.755 3.947 7.87 3.787 7.94C3.357 8.152 2.881 8.252 2.402 8.23C1.96 8.262 1.518 8.164 1.131 7.947C1.017 7.868 0.93 7.754 0.883 7.623C0.835 7.492 0.829 7.349 0.865 7.214C0.9 7.109 0.892 6.994 0.844 6.895C0.796 6.795 0.71 6.719 0.606 6.682L0.552 6.682C0.468 6.672 0.383 6.685 0.305 6.719C0.228 6.754 0.162 6.81 0.115 6.88C0.031 7.023 -0.009 7.188 0.002 7.353C0.011 7.591 0.099 7.819 0.253 7.999C0.406 8.18 0.615 8.304 0.847 8.351C1.302 8.497 1.778 8.568 2.257 8.56C2.808 8.586 3.358 8.483 3.863 8.259C4.163 8.132 4.419 7.92 4.6 7.648C4.782 7.377 4.88 7.057 4.883 6.73C4.897 6.414 4.813 6.101 4.643 5.835C4.133 5.131 3.411 5.227 1.787 5.146C1.007 5.146 0.854 5.007 0.854 4.779C0.854 4.413 1.142 4.284 2.264 4.112C3.386 3.94 4.417 3.529 4.417 2.169C4.42 1.836 4.351 1.507 4.213 1.204C4.423 1.263 4.644 1.263 4.854 1.204C4.951 1.178 5.041 1.132 5.12 1.069C5.198 1.006 5.263 0.927 5.309 0.838C5.359 0.77 5.393 0.691 5.408 0.608C5.423 0.525 5.419 0.439 5.397 0.357C5.302 0.053 5.12 -0.057 4.843 0.027M2.329 3.778C1.666 3.778 1.269 3.536 1.269 2.18C1.269 1.223 1.601 0.511 2.329 0.511C3.16 0.511 3.386 1.16 3.386 2.158C3.386 3.573 2.938 3.778 2.329 3.778Z" fill="rgb(80,54,41)" fill-opacity="1.000" fill-rule="nonzero" transform="matrix(1 0 0 1 38.7603 27.0699)"/></svg>