<svg xmlns="http://www.w3.org/2000/svg" viewBox="0 0 60 60" width="60" height="60"><path d="M0 0L60 0L60 60L0 60L0 0Z" fill="rgb(255,255,255)" fill-opacity="1.000" fill-rule="nonzero" transform="matrix(1 0 0 1 0 0)"/><path d="M43.185 11.336C43.51 10.76 43.695 10.093 43.695 9.384C43.695 7.187 41.917 5.407 39.723 5.407L39.717 5.404L31.773 5.404L31.773 5.407L31.773 8.056L31.773 10.685C30.873 10.668 30.006 10.682 29.174 10.726C29.227 9.324 29.194 7.846 29.022 6.443C28.7 3.81 27.746 0.565 25.032 0.056C23.875 -0.161 22.534 0.256 21.153 1.26C18.968 2.85 16.767 5.801 14.956 9.571C13.807 11.962 12.838 14.64 12.072 17.509L6.72 11.959L13.274 5.396L13.23 5.352L13.23 5.381L9.567 5.381L2.631 12.328L2.631 5.404L0 5.404L0 18.663L2.631 18.663L2.631 16.055L4.86 13.823L9.515 18.65L11.782 18.65C11.284 20.693 10.888 22.824 10.604 25.012L10.433 26.325L13.055 26.667L13.226 25.354C13.934 19.907 15.356 14.846 17.339 10.719C18.94 7.386 20.897 4.72 22.707 3.403C23.811 2.6 24.393 2.631 24.546 2.659C25.952 2.922 26.738 6.677 26.526 10.989C24.126 11.349 22.087 12.02 20.431 12.997C17.401 14.786 16.374 17.144 16.047 18.808C15.418 22.003 16.882 25.265 19.38 26.233C20.657 26.729 21.983 26.627 23.213 25.938C25.738 24.525 27.685 20.711 28.698 15.198C28.797 14.662 28.889 14.051 28.967 13.39C29.844 13.333 30.772 13.314 31.747 13.333L31.773 13.333L31.773 13.359L31.773 16.011L31.773 18.571L31.773 18.663L41.04 18.663C43.234 18.663 45.012 16.882 45.012 14.685C45.013 13.279 44.284 12.044 43.185 11.336ZM26.098 14.719C25.256 19.304 23.695 22.634 21.924 23.626C21.381 23.929 20.877 23.973 20.336 23.763C19.208 23.326 18.235 21.393 18.642 19.32C18.865 18.188 19.589 16.569 21.775 15.279C22.995 14.559 24.496 14.036 26.264 13.714C26.215 14.05 26.16 14.386 26.098 14.719ZM34.421 8.056L39.723 8.056L39.723 8.059C40.454 8.059 41.047 8.652 41.047 9.384C41.047 10.116 40.454 10.709 39.723 10.709L39.717 10.708L34.422 10.708L34.422 8.056L34.421 8.056ZM41.041 16.01L41.047 16.011L34.422 16.011L34.422 13.359L41.041 13.359L41.041 13.36C41.772 13.36 42.364 13.953 42.364 14.685C42.364 15.417 41.772 16.01 41.041 16.01Z" fill="rgb(0,0,0)" fill-opacity="1.000" fill-rule="nonzero" transform="matrix(1 0 0 1 7 17)"/></svg>