<svg xmlns="http://www.w3.org/2000/svg" viewBox="0 0 130 60" width="130" height="60"><path d="M0 0L130 0L130 60L0 60L0 0Z" fill="rgb(255,255,255)" fill-opacity="1.000" fill-rule="nonzero" transform="matrix(1 0 0 1 0 0)"/><path d="M11.697 5.802L7.728 5.802C7.471 5.802 7.225 5.702 7.043 5.523C6.861 5.344 6.759 5.101 6.759 4.848L6.759 0.954C6.76 0.701 6.862 0.459 7.044 0.28C7.226 0.101 7.472 0.001 7.728 0L11.677 0C11.939 0 12.191 0.103 12.376 0.285C12.562 0.468 12.666 0.715 12.666 0.974L12.666 4.848C12.666 5.101 12.564 5.344 12.382 5.523C12.201 5.702 11.954 5.802 11.697 5.802ZM5.006 6.041L12.384 12.884L12.373 12.884C12.461 12.962 12.533 13.057 12.582 13.164C12.631 13.271 12.657 13.386 12.658 13.504L12.658 16.422C12.658 16.68 12.554 16.928 12.368 17.111C12.183 17.294 11.931 17.397 11.669 17.398L8.248 17.398C8.026 17.398 7.813 17.314 7.652 17.165L0.285 10.325C0.196 10.247 0.125 10.151 0.076 10.044C0.027 9.938 0.001 9.822 0 9.705L0 6.781C0 6.653 0.026 6.527 0.075 6.409C0.125 6.291 0.198 6.183 0.29 6.093C0.382 6.002 0.491 5.931 0.611 5.882C0.731 5.833 0.859 5.808 0.989 5.808L4.41 5.808C4.632 5.806 4.846 5.89 5.006 6.041Z" fill="rgb(0,0,0)" fill-opacity="1.000" fill-rule="evenodd" transform="matrix(1 0 0 1 14 21)"/><path d="M2.284 10.014L2.284 12.326L0 12.326L0 0L2.284 0L2.315 6.732L6.395 2.188L9.322 2.188L5.504 6.423L9.149 12.326L6.573 12.326L3.934 8.197L2.284 10.014Z" fill="rgb(0,0,0)" fill-opacity="1.000" fill-rule="nonzero" transform="matrix(1 0 0 1 36.7982 23.7613)"/><path d="M3.126 7.681C3.749 8.273 4.576 8.603 5.437 8.603C6.298 8.603 7.126 8.273 7.748 7.681C8.338 7.048 8.666 6.216 8.666 5.352C8.666 4.488 8.338 3.656 7.748 3.023C7.127 2.428 6.299 2.096 5.437 2.096C4.575 2.096 3.747 2.428 3.126 3.023C2.534 3.655 2.204 4.487 2.204 5.352C2.204 6.217 2.534 7.049 3.126 7.681ZM8.666 0.266L10.883 0.266L10.883 10.434L8.666 10.434L8.666 8.969C8.263 9.533 7.724 9.987 7.099 10.29C6.473 10.592 5.781 10.733 5.087 10.699C4.411 10.706 3.741 10.571 3.121 10.303C2.501 10.034 1.945 9.639 1.49 9.142C0.532 8.107 0 6.752 0 5.345C0 3.939 0.532 2.584 1.49 1.549C1.947 1.055 2.503 0.662 3.123 0.396C3.743 0.13 4.412 -0.003 5.087 0.005C5.779 -0.03 6.469 0.108 7.094 0.406C7.719 0.705 8.26 1.154 8.666 1.713L8.666 0.266Z" fill="rgb(0,0,0)" fill-opacity="1.000" fill-rule="nonzero" transform="matrix(1 0 0 1 45.9912 25.6794)"/><path d="M5.397 0.003C5.923 -0.018 6.447 0.071 6.937 0.264C7.425 0.457 7.868 0.75 8.236 1.124C8.614 1.541 8.904 2.029 9.09 2.559C9.277 3.089 9.356 3.651 9.322 4.212L9.322 10.454L7.105 10.454L7.105 4.419C7.128 4.099 7.086 3.778 6.981 3.474C6.876 3.171 6.71 2.892 6.493 2.654C6.269 2.445 6.005 2.284 5.718 2.179C5.429 2.074 5.123 2.029 4.817 2.046C4.47 2.03 4.123 2.086 3.8 2.211C3.476 2.335 3.182 2.526 2.936 2.769C2.676 3.071 2.478 3.422 2.355 3.801C2.231 4.179 2.185 4.578 2.218 4.975L2.218 10.423L0 10.423L0 0.268L2.218 0.268L2.218 1.591C2.887 0.55 3.943 0.025 5.389 0.025" fill="rgb(0,0,0)" fill-opacity="1.000" fill-rule="nonzero" transform="matrix(1 0 0 1 58.823 25.6774)"/><path d="M3.127 7.681C3.748 8.273 4.576 8.603 5.437 8.603C6.298 8.603 7.126 8.273 7.747 7.681C8.338 7.048 8.666 6.216 8.666 5.352C8.666 4.488 8.338 3.656 7.747 3.023C7.127 2.428 6.299 2.096 5.437 2.096C4.575 2.096 3.747 2.428 3.127 3.023C2.537 3.656 2.208 4.488 2.208 5.352C2.208 6.216 2.537 7.048 3.127 7.681ZM8.666 0.266L10.883 0.266L10.883 10.434L8.666 10.434L8.666 8.97C8.264 9.533 7.726 9.987 7.101 10.29C6.476 10.592 5.785 10.733 5.091 10.699C4.414 10.706 3.744 10.571 3.123 10.303C2.502 10.035 1.946 9.639 1.49 9.142C0.532 8.107 0 6.752 0 5.345C0 3.939 0.532 2.584 1.49 1.549C1.947 1.055 2.505 0.662 3.125 0.395C3.746 0.129 4.416 -0.003 5.091 0.005C5.783 -0.03 6.473 0.108 7.097 0.406C7.722 0.705 8.261 1.154 8.666 1.713L8.666 0.266Z" fill="rgb(0,0,0)" fill-opacity="1.000" fill-rule="nonzero" transform="matrix(1 0 0 1 69.5302 25.6794)"/><path d="M2.656 3.077C2.662 3.25 2.719 3.418 2.82 3.559C2.921 3.7 3.061 3.809 3.224 3.871C3.66 4.088 4.114 4.266 4.581 4.405L6.209 4.903C6.757 5.071 7.242 5.4 7.597 5.847C8.045 6.464 8.235 7.229 8.127 7.981C8.02 8.734 7.623 9.416 7.021 9.884C6.186 10.463 5.185 10.756 4.169 10.718C3.263 10.742 2.367 10.524 1.574 10.087C0.869 9.687 0.315 9.067 0 8.322L1.898 7.224C2.253 8.197 3.01 8.685 4.169 8.688C5.328 8.691 5.907 8.31 5.907 7.546C5.901 7.374 5.844 7.208 5.744 7.067C5.644 6.927 5.505 6.819 5.344 6.756C4.912 6.528 4.457 6.344 3.987 6.209L2.364 5.706C1.819 5.545 1.334 5.228 0.971 4.793C0.584 4.321 0.384 3.725 0.408 3.117C0.395 2.683 0.485 2.252 0.672 1.859C0.859 1.467 1.136 1.124 1.481 0.858C2.242 0.274 3.182 -0.029 4.142 0.002C4.933 -0.011 5.712 0.183 6.404 0.562C7.052 0.924 7.581 1.465 7.925 2.12L6.067 3.156C5.932 2.901 5.747 2.675 5.523 2.491C5.299 2.308 5.04 2.171 4.762 2.089C4.484 2.007 4.191 1.981 3.903 2.012C3.615 2.044 3.336 2.133 3.082 2.274C2.943 2.354 2.829 2.469 2.751 2.608C2.673 2.747 2.634 2.905 2.639 3.064" fill="rgb(0,0,0)" fill-opacity="1.000" fill-rule="nonzero" transform="matrix(1 0 0 1 82.0051 25.6605)"/><path d="M6.626 4.976L4.089 4.976L4.089 9.855C4.073 10.017 4.09 10.181 4.139 10.336C4.188 10.492 4.267 10.636 4.373 10.76C4.61 10.96 4.913 11.068 5.224 11.064C5.691 11.088 6.159 11.088 6.626 11.064L6.626 13.036C4.932 13.239 3.721 13.093 2.985 12.595C2.249 12.096 1.88 11.188 1.88 9.86L1.88 4.976L0 4.976L0 2.859L1.88 2.859L1.88 0.653L4.098 0L4.098 2.845L6.635 2.845L6.626 4.976Z" fill="rgb(0,0,0)" fill-opacity="1.000" fill-rule="nonzero" transform="matrix(1 0 0 1 90.7732 23.0867)"/><path d="M2.226 1.893C2.785 0.631 3.832 0 5.375 0L5.375 2.378C4.588 2.305 3.8 2.518 3.158 2.978C2.528 3.419 2.218 4.182 2.218 5.223L2.218 10.349L0 10.349L0 0.181L2.218 0.181L2.226 1.893Z" fill="rgb(0,0,0)" fill-opacity="1.000" fill-rule="nonzero" transform="matrix(1 0 0 1 99.323 25.7642)"/><path d="M3.127 7.681C3.749 8.273 4.577 8.603 5.437 8.603C6.298 8.603 7.126 8.273 7.748 7.681C8.337 7.048 8.666 6.216 8.666 5.352C8.666 4.488 8.337 3.656 7.748 3.023C7.127 2.428 6.299 2.096 5.437 2.096C4.576 2.096 3.747 2.428 3.127 3.023C2.537 3.656 2.208 4.488 2.208 5.352C2.208 6.216 2.537 7.048 3.127 7.681ZM8.666 0.266L10.883 0.266L10.883 10.434L8.666 10.434L8.666 8.97C8.264 9.533 7.726 9.987 7.101 10.29C6.476 10.592 5.785 10.733 5.091 10.699C4.414 10.706 3.744 10.571 3.123 10.303C2.502 10.035 1.946 9.639 1.49 9.142C0.532 8.107 0 6.752 0 5.345C0 3.939 0.532 2.584 1.49 1.549C1.947 1.055 2.505 0.662 3.125 0.395C3.746 0.129 4.416 -0.003 5.091 0.005C5.783 -0.03 6.473 0.108 7.097 0.406C7.722 0.705 8.261 1.154 8.666 1.713L8.666 0.266Z" fill="rgb(0,0,0)" fill-opacity="1.000" fill-rule="nonzero" transform="matrix(1 0 0 1 105.1145 25.6794)"/></svg>