<svg xmlns="http://www.w3.org/2000/svg" viewBox="0 0 60 60" width="60" height="60"><path d="M0 0L60 0L60 60L0 60L0 0Z" fill="rgb(0,0,0)" fill-opacity="1.000" fill-rule="nonzero" transform="matrix(1 0 0 1 0 0)"/><path d="M19.463 9.655L12.86 9.655C12.432 9.655 12.022 9.487 11.719 9.19C11.417 8.892 11.247 8.488 11.247 8.067L11.247 1.587C11.248 1.167 11.419 0.764 11.721 0.466C12.023 0.169 12.433 0.001 12.86 0L19.43 0C19.867 0 20.285 0.171 20.594 0.474C20.903 0.778 21.076 1.19 21.076 1.62L21.076 8.067C21.076 8.488 20.906 8.892 20.604 9.19C20.301 9.487 19.891 9.655 19.463 9.655ZM8.33 10.051L20.607 21.438L20.588 21.438C20.735 21.568 20.854 21.727 20.936 21.904C21.017 22.082 21.06 22.275 21.062 22.47L21.062 27.325C21.062 27.755 20.889 28.168 20.58 28.472C20.272 28.777 19.853 28.948 19.416 28.95L13.724 28.95C13.355 28.949 13.001 28.81 12.732 28.562L0.474 17.18C0.327 17.05 0.208 16.891 0.127 16.714C0.045 16.536 0.002 16.343 0 16.148L0 11.284C0 11.071 0.043 10.86 0.125 10.664C0.208 10.467 0.329 10.289 0.482 10.138C0.635 9.988 0.816 9.868 1.016 9.787C1.216 9.706 1.43 9.664 1.646 9.664L7.339 9.664C7.708 9.661 8.063 9.8 8.33 10.051Z" fill="rgb(255,255,255)" fill-opacity="1.000" fill-rule="evenodd" transform="matrix(1 0 0 1 19 16)"/></svg>