<svg xmlns="http://www.w3.org/2000/svg" viewBox="0 0 130 60" width="130" height="60"><path d="M0 0L130 0L130 60L0 60L0 0Z" fill="rgb(255,255,255)" fill-opacity="1.000" fill-rule="nonzero" transform="matrix(1 0 0 1 0 0)"/><path d="M13.148 31.067L13.148 23.026C13.148 22.147 13.495 21.305 14.113 20.683C14.731 20.062 15.569 19.713 16.443 19.713L30.881 19.713C31.126 19.714 31.369 19.666 31.595 19.572C31.822 19.478 32.027 19.34 32.201 19.165C32.374 18.991 32.511 18.784 32.605 18.556C32.699 18.329 32.747 18.085 32.746 17.838L32.746 1.872C32.746 1.375 32.55 0.899 32.201 0.548C31.852 0.197 31.379 0 30.885 0L15.01 0C14.516 0 14.043 0.197 13.694 0.548C13.345 0.899 13.149 1.375 13.149 1.872L13.149 16.396C13.15 16.831 13.065 17.263 12.9 17.665C12.735 18.068 12.493 18.434 12.187 18.742C11.569 19.364 10.731 19.713 9.857 19.713L1.861 19.713C1.367 19.713 0.894 19.91 0.545 20.261C0.196 20.612 0 21.088 0 21.585L0 31.067C0 31.563 0.196 32.039 0.545 32.39C0.894 32.741 1.367 32.938 1.861 32.938L11.288 32.938C11.532 32.938 11.774 32.89 12 32.796C12.226 32.702 12.431 32.564 12.603 32.39C12.776 32.216 12.913 32.01 13.007 31.783C13.1 31.556 13.148 31.312 13.148 31.067Z" fill="rgb(0,71,187)" fill-opacity="1.000" fill-rule="nonzero" transform="matrix(1 0 0 1 15 12.9521)"/><path d="M4.143 13.633L8.247 18.812C8.278 18.851 8.317 18.882 8.361 18.903C8.405 18.925 8.453 18.936 8.502 18.936L12.25 18.936C12.313 18.936 12.374 18.917 12.427 18.883C12.48 18.849 12.522 18.8 12.548 18.742C12.573 18.684 12.582 18.62 12.572 18.558C12.562 18.495 12.535 18.437 12.493 18.39L6.907 12.092C6.853 12.032 6.824 11.954 6.824 11.873C6.824 11.793 6.853 11.715 6.907 11.655L12.451 5.301C12.493 5.253 12.52 5.195 12.53 5.132C12.539 5.07 12.531 5.006 12.505 4.948C12.479 4.89 12.437 4.841 12.384 4.807C12.331 4.772 12.269 4.754 12.207 4.755L8.453 4.755C8.403 4.755 8.355 4.766 8.311 4.788C8.267 4.809 8.228 4.84 8.197 4.879L4.143 10.031C4.101 10.085 4.043 10.123 3.978 10.142C3.913 10.161 3.844 10.159 3.781 10.137C3.717 10.115 3.661 10.073 3.622 10.018C3.583 9.962 3.562 9.896 3.562 9.828L3.562 0.328C3.562 0.241 3.528 0.157 3.466 0.096C3.405 0.035 3.322 0 3.236 0L0.326 0C0.239 0 0.156 0.035 0.095 0.096C0.034 0.157 0 0.241 0 0.328L0 18.612C0 18.699 0.034 18.783 0.095 18.844C0.156 18.905 0.239 18.94 0.326 18.94L3.236 18.94C3.322 18.94 3.405 18.905 3.466 18.844C3.528 18.783 3.562 18.699 3.562 18.612L3.562 13.837C3.562 13.769 3.583 13.703 3.622 13.647C3.661 13.591 3.716 13.55 3.78 13.527C3.844 13.505 3.913 13.503 3.978 13.522C4.043 13.541 4.101 13.579 4.143 13.633Z" fill="rgb(0,0,0)" fill-opacity="1.000" fill-rule="nonzero" transform="matrix(1 0 0 1 57.5168 26.8296)"/><path d="M3.236 0L0.326 0C0.146 0 0 0.147 0 0.328L0 18.612C0 18.793 0.146 18.94 0.326 18.94L3.236 18.94C3.416 18.94 3.562 18.793 3.562 18.612L3.562 0.328C3.562 0.147 3.416 0 3.236 0Z" fill="rgb(0,0,0)" fill-opacity="1.000" fill-rule="nonzero" transform="matrix(1 0 0 1 72.3756 26.8296)"/><path d="M11.094 12.668L11.094 14.083C11.094 14.17 11.128 14.253 11.189 14.314C11.25 14.376 11.333 14.41 11.419 14.41L14.356 14.41C14.442 14.41 14.525 14.376 14.586 14.314C14.647 14.253 14.682 14.17 14.682 14.083L14.682 0.558C14.682 0.471 14.647 0.388 14.586 0.326C14.525 0.265 14.442 0.23 14.356 0.23L11.419 0.23C11.333 0.23 11.25 0.265 11.189 0.326C11.128 0.388 11.094 0.471 11.094 0.558L11.094 1.639C11.094 1.683 11.081 1.725 11.056 1.761C11.032 1.797 10.997 1.825 10.957 1.841C10.917 1.857 10.872 1.861 10.83 1.852C10.788 1.842 10.749 1.82 10.719 1.789C9.827 0.806 8.399 0 6.438 0C2.855 0 0 2.839 0 7.27C0 11.7 2.85 14.641 6.413 14.641C8.491 14.641 10.021 13.715 10.902 12.599C10.916 12.581 10.935 12.569 10.957 12.563C10.978 12.557 11.001 12.558 11.022 12.566C11.043 12.573 11.061 12.587 11.074 12.606C11.087 12.624 11.094 12.646 11.094 12.668ZM3.639 7.27C3.639 4.582 5.445 3.148 7.354 3.148C9.308 3.148 11.094 4.633 11.094 7.321C11.094 10.008 9.314 11.492 7.354 11.492C5.445 11.492 3.639 9.957 3.639 7.27Z" fill="rgb(0,0,0)" fill-opacity="1.000" fill-rule="nonzero" transform="matrix(1 0 0 1 78.5332 31.3591)"/><path d="M9.453 13.966L14.428 0.442C14.446 0.393 14.452 0.339 14.446 0.287C14.439 0.234 14.42 0.184 14.39 0.141C14.36 0.097 14.32 0.062 14.274 0.037C14.227 0.013 14.175 0 14.123 0L11.034 0C10.966 0 10.899 0.022 10.843 0.063C10.787 0.103 10.746 0.16 10.725 0.226L7.443 10.249C7.429 10.292 7.401 10.33 7.364 10.357C7.327 10.384 7.283 10.399 7.237 10.399C7.191 10.399 7.147 10.384 7.109 10.357C7.072 10.33 7.045 10.292 7.031 10.249L3.748 0.226C3.726 0.16 3.685 0.103 3.629 0.063C3.574 0.022 3.507 0 3.438 0L0.325 0C0.273 0 0.222 0.013 0.175 0.037C0.129 0.061 0.09 0.096 0.06 0.139C0.03 0.182 0.01 0.231 0.003 0.283C-0.004 0.335 0.001 0.387 0.019 0.437L4.97 13.961C4.992 14.025 5.034 14.08 5.088 14.119C5.143 14.158 5.208 14.179 5.275 14.18L9.147 14.18C9.214 14.18 9.279 14.159 9.333 14.121C9.388 14.083 9.43 14.028 9.453 13.966Z" fill="rgb(0,0,0)" fill-opacity="1.000" fill-rule="nonzero" transform="matrix(1 0 0 1 95.3407 31.5895)"/><path d="M3.236 0L0.326 0C0.146 0 0 0.147 0 0.328L0 13.852C0 14.033 0.146 14.18 0.326 14.18L3.236 14.18C3.416 14.18 3.562 14.033 3.562 13.852L3.562 0.328C3.562 0.147 3.416 0 3.236 0Z" fill="rgb(0,0,0)" fill-opacity="1.000" fill-rule="nonzero" transform="matrix(1 0 0 1 111.9395 31.5907)"/><path d="M2.189 4.198C3.397 4.198 4.377 3.258 4.377 2.099C4.377 0.94 3.397 0 2.189 0C0.98 0 0 0.94 0 2.099C0 3.258 0.98 4.198 2.189 4.198Z" fill="rgb(0,0,0)" fill-opacity="1.000" fill-rule="nonzero" transform="matrix(1 0 0 1 111.5583 25.7036)"/></svg>