<svg xmlns="http://www.w3.org/2000/svg" viewBox="0 0 60 60" width="60" height="60"><path d="M0 0L60 0L60 60L0 60L0 0Z" fill="rgb(255,255,255)" fill-opacity="1.000" fill-rule="nonzero" transform="matrix(1 0 0 1 0 0)"/><path d="M15.497 36.618L15.497 27.14C15.497 26.105 15.906 25.111 16.635 24.379C17.363 23.647 18.351 23.235 19.38 23.235L36.399 23.235C36.687 23.236 36.973 23.179 37.24 23.068C37.507 22.958 37.75 22.795 37.954 22.589C38.158 22.384 38.32 22.14 38.431 21.872C38.541 21.603 38.597 21.316 38.597 21.025L38.597 2.206C38.597 1.621 38.366 1.06 37.955 0.646C37.543 0.232 36.985 0 36.404 0L17.691 0C17.11 0 16.552 0.232 16.14 0.646C15.729 1.06 15.498 1.621 15.498 2.206L15.498 19.325C15.499 19.838 15.4 20.347 15.205 20.822C15.011 21.296 14.725 21.728 14.364 22.091C13.636 22.824 12.648 23.235 11.618 23.235L2.193 23.235C1.612 23.235 1.054 23.468 0.642 23.881C0.231 24.295 0 24.856 0 25.441L0 36.618C0 37.203 0.231 37.764 0.642 38.178C1.054 38.591 1.612 38.824 2.193 38.824L13.305 38.824C13.593 38.824 13.878 38.767 14.144 38.656C14.41 38.545 14.652 38.382 14.855 38.177C15.059 37.972 15.22 37.729 15.33 37.462C15.44 37.194 15.497 36.907 15.497 36.618Z" fill="rgb(0,71,187)" fill-opacity="1.000" fill-rule="nonzero" transform="matrix(1 0 0 1 11 11)"/></svg>