<svg xmlns="http://www.w3.org/2000/svg" viewBox="0 0 60 60" width="60" height="60"><path d="M0 0L60 0L60 60L0 60L0 0Z" fill="rgb(255,255,255)" fill-opacity="1.000" fill-rule="nonzero" transform="matrix(1 0 0 1 0 0)"/><path d="M46.489 0L0 0L0 23L46.489 23L46.489 0Z" fill="rgb(0,0,0)" fill-opacity="1.000" fill-rule="nonzero" transform="matrix(1 0 0 1 7.0213 20)"/><path d="M2.648 0.112C2.521 -0.037 2.318 -0.037 2.167 0.112L0.095 2.159C-0.032 2.259 -0.032 2.483 0.095 2.608L2.166 4.679C2.317 4.805 2.519 4.805 2.646 4.679L4.717 2.608C4.844 2.483 4.844 2.259 4.717 2.159L2.646 0.112L2.648 0.112Z" fill="rgb(0,69,181)" fill-opacity="1.000" fill-rule="nonzero" transform="matrix(1 0 0 1 7.02 29.2465)"/><path d="M12.834 0C11.164 0 9.835 0.543 8.969 1.518C8.055 0.573 6.731 0 5.205 0C1.997 0 0 1.847 0 4.842L0 13.277C0 13.477 0.177 13.651 0.379 13.651L2.779 13.651C2.981 13.651 3.158 13.477 3.158 13.277L3.158 4.842C3.158 3.644 3.992 2.82 5.205 2.82C6.342 2.82 7.125 3.644 7.125 4.842L7.125 13.277C7.125 13.477 7.301 13.651 7.503 13.651L9.904 13.651C10.106 13.651 10.283 13.477 10.283 13.277L10.283 4.842C10.283 3.644 11.116 2.82 12.329 2.82C13.467 2.82 14.249 3.644 14.249 4.842L14.249 13.277C14.249 13.477 14.426 13.651 14.628 13.651L17.028 13.651C17.23 13.651 17.407 13.477 17.407 13.277L17.407 4.842C17.407 2.072 15.436 0 12.835 0" fill="rgb(0,69,181)" fill-opacity="1.000" fill-rule="nonzero" transform="matrix(1 0 0 1 21.414 20)"/><path d="M6.42 6.075L11.83 0.456C11.999 0.286 11.876 0 11.635 0L8.6 0C8.376 0 8.162 0.086 8.001 0.238L3.158 5.37L3.158 0.375C3.158 0.175 2.981 0 2.779 0L0.379 0C0.177 0 0 0.175 0 0.375L0 7.637C0 7.986 0.278 8.26 0.631 8.26L4.315 8.26L4.331 8.243L8.253 13.144C8.379 13.318 8.578 13.416 8.778 13.416L11.632 13.416C11.932 13.416 12.057 13.12 11.882 12.898L6.42 6.074L6.42 6.075Z" fill="rgb(0,69,181)" fill-opacity="1.000" fill-rule="nonzero" transform="matrix(1 0 0 1 7.8477 20.2493)"/><path d="M13.049 0L10.724 0C10.446 0 10.168 0.175 10.067 0.449L6.732 9.15L3.397 0.449C3.296 0.175 3.018 0 2.74 0L0.442 0C0.114 0 -0.089 0.3 0.038 0.598L4.989 12.502C5.293 13.201 5.948 13.65 6.732 13.65C7.516 13.65 8.148 13.201 8.45 12.502L13.454 0.6C13.58 0.3 13.378 0.001 13.049 0.001" fill="rgb(0,69,181)" fill-opacity="1.000" fill-rule="nonzero" transform="matrix(1 0 0 1 40.0187 20.2493)"/><path d="M1.276 2.05L0.735 2.627L0.735 3.817L0 3.817L0 0L0.735 0L0.735 1.663L2.286 0L3.197 0L1.779 1.515L3.341 3.817L2.436 3.817L1.276 2.05Z" fill="rgb(0,69,181)" fill-opacity="1.000" fill-rule="nonzero" transform="matrix(1 0 0 1 7.8477 38.0709)"/><path d="M0 0L0.844 0L2.014 2.819L3.184 0L4.023 0L4.023 3.817L3.339 3.817L3.339 1.287L2.29 3.817L1.739 3.817L0.684 1.287L0.684 3.817L0 3.817L0 0Z" fill="rgb(0,69,181)" fill-opacity="1.000" fill-rule="nonzero" transform="matrix(1 0 0 1 11.5976 38.0709)"/><path d="M0 2.553C0 1.713 0.492 1.135 1.314 1.135C1.679 1.135 1.971 1.287 2.131 1.511L2.131 0L2.805 0L2.805 3.927L2.131 3.927L2.131 3.583C1.971 3.823 1.662 3.97 1.325 3.97C0.492 3.97 0 3.393 0 2.553ZM2.175 2.553C2.175 2.046 1.877 1.713 1.424 1.713C0.971 1.713 0.673 2.046 0.673 2.553C0.673 3.059 0.971 3.393 1.424 3.393C1.877 3.393 2.175 3.061 2.175 2.553Z" fill="rgb(0,69,181)" fill-opacity="1.000" fill-rule="nonzero" transform="matrix(1 0 0 1 17.3552 37.9609)"/><path d="M2.726 1.875C2.621 2.458 2.102 2.836 1.418 2.836C0.507 2.836 0 2.127 0 1.407C0 0.686 0.453 0 1.364 0C2.275 0 2.716 0.67 2.716 1.325C2.716 1.418 2.711 1.499 2.705 1.554L0.651 1.554C0.701 1.996 0.988 2.28 1.418 2.28C1.766 2.28 1.992 2.137 2.064 1.875L2.726 1.875ZM0.668 1.112L2.037 1.112C2.009 0.763 1.766 0.501 1.362 0.501C0.982 0.501 0.738 0.697 0.667 1.112" fill="rgb(0,69,181)" fill-opacity="1.000" fill-rule="nonzero" transform="matrix(1 0 0 1 20.6558 39.0959)"/><path d="M0 0L0.735 0L1.762 2.929L2.799 0L3.527 0L2.121 3.817L1.408 3.817L0 0Z" fill="rgb(0,69,181)" fill-opacity="1.000" fill-rule="nonzero" transform="matrix(1 0 0 1 24.779 38.0709)"/><path d="M2.431 1.024L2.431 2.791L1.763 2.791L1.763 2.382C1.648 2.655 1.327 2.836 0.929 2.836C0.378 2.836 0.001 2.486 0.001 2.012C0.001 1.477 0.42 1.145 1.045 1.145L1.558 1.145C1.696 1.145 1.762 1.069 1.762 0.959C1.762 0.691 1.552 0.501 1.193 0.501C0.834 0.501 0.619 0.725 0.607 0.97L0 0.97C0.033 0.425 0.502 0 1.226 0C1.95 0 2.428 0.404 2.428 1.025M1.764 1.629L1.764 1.585L1.14 1.585C0.852 1.585 0.66 1.743 0.66 1.984C0.66 2.196 0.836 2.339 1.09 2.339C1.515 2.339 1.764 2.044 1.764 1.629Z" fill="rgb(0,69,181)" fill-opacity="1.000" fill-rule="nonzero" transform="matrix(1 0 0 1 28.1993 39.0971)"/><path d="M0 0.044L0.678 0.044L0.678 0.469C0.834 0.169 1.147 0 1.545 0C2.173 0 2.582 0.448 2.582 1.091L2.582 2.792L1.904 2.792L1.904 1.232C1.904 0.856 1.672 0.594 1.324 0.594C0.943 0.594 0.678 0.888 0.678 1.292L0.678 2.792L0 2.792L0 0.044Z" fill="rgb(0,69,181)" fill-opacity="1.000" fill-rule="nonzero" transform="matrix(1 0 0 1 31.1936 39.0959)"/><path d="M1.226 0L1.226 0.829L1.998 0.829L1.998 1.391L1.226 1.391L1.226 2.591C1.226 2.869 1.375 3.01 1.629 3.01L1.998 3.01L1.998 3.578L1.551 3.578C0.943 3.578 0.546 3.228 0.546 2.617L0.546 1.391L0 1.391L0 0.829L0.546 0.829L0.546 0L1.224 0L1.226 0Z" fill="rgb(0,69,181)" fill-opacity="1.000" fill-rule="nonzero" transform="matrix(1 0 0 1 34.087 38.31)"/><path d="M2.431 1.024L2.431 2.791L1.763 2.791L1.763 2.382C1.648 2.655 1.327 2.836 0.929 2.836C0.378 2.836 0.002 2.486 0.002 2.012C0.002 1.477 0.421 1.145 1.045 1.145L1.558 1.145C1.696 1.145 1.762 1.069 1.762 0.959C1.762 0.691 1.552 0.501 1.193 0.501C0.834 0.501 0.619 0.725 0.607 0.97L0 0.97C0.033 0.425 0.502 0 1.226 0C1.95 0 2.429 0.404 2.429 1.025M1.764 1.629L1.764 1.585L1.14 1.585C0.852 1.585 0.66 1.743 0.66 1.984C0.66 2.196 0.837 2.339 1.09 2.339C1.515 2.339 1.764 2.044 1.764 1.629Z" fill="rgb(0,69,181)" fill-opacity="1.000" fill-rule="nonzero" transform="matrix(1 0 0 1 36.3586 39.0971)"/><path d="M2.803 0.045L2.803 2.945C2.803 3.519 2.384 3.906 1.76 3.906L0.386 3.906L0.386 3.371L1.666 3.371C1.937 3.371 2.129 3.169 2.129 2.879L2.129 2.486C1.991 2.699 1.672 2.835 1.324 2.835C0.485 2.835 0 2.258 0 1.418C0 0.577 0.486 0 1.314 0C1.662 0 1.965 0.142 2.125 0.355L2.125 0.044L2.805 0.044L2.803 0.045ZM2.173 1.419C2.173 0.912 1.876 0.58 1.417 0.58C0.958 0.58 0.671 0.912 0.671 1.419C0.671 1.926 0.963 2.26 1.417 2.26C1.87 2.26 2.173 1.927 2.173 1.419Z" fill="rgb(0,69,181)" fill-opacity="1.000" fill-rule="nonzero" transform="matrix(1 0 0 1 39.2446 39.0942)"/><path d="M2.726 1.875C2.621 2.458 2.102 2.836 1.418 2.836C0.508 2.836 0 2.127 0 1.407C0 0.686 0.453 0 1.364 0C2.275 0 2.717 0.67 2.717 1.325C2.717 1.418 2.711 1.499 2.705 1.554L0.651 1.554C0.701 1.996 0.988 2.28 1.418 2.28C1.766 2.28 1.992 2.137 2.064 1.875L2.726 1.875ZM0.667 1.112L2.035 1.112C2.008 0.763 1.764 0.501 1.361 0.501C0.981 0.501 0.737 0.697 0.666 1.112" fill="rgb(0,69,181)" fill-opacity="1.000" fill-rule="nonzero" transform="matrix(1 0 0 1 42.5451 39.0959)"/><path d="M0 0.044L0.678 0.044L0.678 0.469C0.834 0.169 1.147 0 1.545 0C2.173 0 2.582 0.448 2.582 1.091L2.582 2.792L1.904 2.792L1.904 1.232C1.904 0.856 1.672 0.594 1.324 0.594C0.943 0.594 0.678 0.888 0.678 1.292L0.678 2.792L0 2.792L0 0.044Z" fill="rgb(0,69,181)" fill-opacity="1.000" fill-rule="nonzero" transform="matrix(1 0 0 1 45.7291 39.0959)"/><path d="M0 1.875L0.619 1.875C0.645 2.137 0.851 2.301 1.154 2.301C1.42 2.301 1.596 2.17 1.596 2.006C1.596 1.395 0.073 1.98 0.073 0.818C0.073 0.338 0.497 0 1.072 0C1.723 0 2.17 0.355 2.198 0.888L1.579 0.888C1.541 0.632 1.303 0.501 1.087 0.501C0.845 0.501 0.684 0.61 0.684 0.795C0.684 1.39 2.229 0.735 2.229 1.978C2.229 2.496 1.804 2.834 1.153 2.834C0.502 2.834 0.033 2.464 0 1.874" fill="rgb(0,69,181)" fill-opacity="1.000" fill-rule="nonzero" transform="matrix(1 0 0 1 48.7719 39.0955)"/></svg>