<svg xmlns="http://www.w3.org/2000/svg" viewBox="0 0 60 60" width="60" height="60"><path d="M0 0L60 0L60 60L0 60L0 0Z" fill="rgb(255,255,255)" fill-opacity="1.000" fill-rule="nonzero" transform="matrix(1 0 0 1 0 0)"/><path d="M6.063 10.702C6.063 9.069 6.16 7.973 6.941 6.633C7.405 5.838 8.387 4.936 9.418 4.936C10.024 4.936 10.504 5.011 10.791 5.011L10.791 13.904C10.791 14.136 9.823 14.695 9.19 14.695C8.21 14.695 7.731 14.549 7.102 13.932C6.391 13.235 6.063 11.87 6.063 10.7L6.063 10.702ZM0.001 10.401C0.001 12.36 0.274 13.98 0.797 15.417C1.188 16.494 1.526 16.898 2.152 17.695C2.241 17.808 2.401 17.966 2.508 18.059L2.904 18.384C4.376 19.471 6.37 19.804 8.154 19.361C9.116 19.122 10.292 18.534 10.992 17.833L11.543 17.284C11.639 17.166 11.587 17.149 11.745 17.107C11.755 17.537 12.31 18.404 12.72 18.707C12.86 18.81 12.943 18.887 13.104 18.967C13.598 19.212 14.034 19.368 14.643 19.368C15.533 19.368 16.436 19.142 17.089 18.62C17.71 18.124 18.113 17.269 18.113 16.467C18.113 16.239 18.054 16.029 18.037 15.826C16.745 15.826 16.817 14.364 16.817 13.076L16.817 1.169L13.693 0.337C11.112 -0.172 8.085 -0.165 5.704 0.776C5.068 1.027 3.837 1.705 3.308 2.214C2.654 2.842 2.634 2.816 2.076 3.521C1.882 3.766 1.719 4.021 1.556 4.289C1.243 4.806 0.932 5.434 0.729 6.034C0.256 7.435 0 8.839 0 10.401L0.001 10.401Z" fill="rgb(55,52,53)" fill-opacity="1.000" fill-rule="evenodd" transform="matrix(1 0 0 1 21.3297 30.1957)"/><path d="M12.086 4.106C12.072 3.939 11.983 3.868 11.907 3.717C11.832 3.568 11.782 3.486 11.702 3.355C11.273 2.648 10.751 1.99 10.114 1.458C9.222 0.712 8.116 0.075 6.862 0.075C5.512 0.075 4.764 0.258 3.622 0.906C2.915 1.308 2.268 1.912 1.769 2.54C0.065 4.681 -0.433 7.831 0.384 10.583C0.503 10.982 0.637 11.358 0.8 11.717C1.407 13.064 2.397 14.261 3.588 15.142C3.76 15.268 4.36 15.75 4.575 15.75C4.678 15.75 4.68 15.732 4.765 15.712C4.857 15.321 4.625 15.303 4.335 15.006C3.112 13.751 2.324 11.695 2.324 9.871C2.324 7.775 2.978 5.549 4.838 4.443C6.064 3.714 7.544 3.536 8.799 4.34C9.031 4.488 9.234 4.622 9.443 4.797C10.046 5.3 10.564 5.882 11.004 6.533C11.085 6.654 11.145 6.735 11.212 6.857L11.283 6.994C11.58 7.518 11.608 7.799 11.934 7.799C12.133 7.799 12.683 6.913 12.815 6.749C13.7 5.653 14.719 4.734 16.078 4.208C17.46 3.675 19.458 3.578 20.688 4.537C21.253 4.977 21.668 5.603 21.891 6.325C22.773 9.187 21.221 11.875 18.827 13.444C16.367 15.058 15.015 15.027 12.375 15.772C11.526 16.011 10.758 16.27 9.975 16.641C9.833 16.709 9.762 16.751 9.612 16.81C9.48 16.863 9.351 16.925 9.227 16.995C8.772 17.257 8.272 17.508 7.83 17.8C6.944 18.385 6.19 19.035 5.441 19.772C4.856 20.347 4.185 21.251 3.811 21.967C3.569 22.431 2.972 23.439 2.972 23.927C2.972 24.174 3.212 24.304 3.43 24.304C3.59 24.304 3.961 23.499 4.094 23.302C4.219 23.115 4.293 22.977 4.427 22.802C4.558 22.629 4.673 22.48 4.808 22.312C5.574 21.358 6.526 20.629 7.579 20.001L8.725 19.438C9.546 19.106 10.414 18.812 11.301 18.592C13.146 18.135 15.219 17.949 17.058 17.536C18.498 17.214 20.118 16.661 21.388 15.938C22.277 15.431 23.096 14.834 23.82 14.121L24.411 13.461C25.316 12.373 25.854 11.092 26.202 9.729C26.386 9.012 26.577 7.551 26.506 6.703C26.461 6.16 26.473 5.687 26.369 5.178C26.029 3.507 25.119 1.99 23.662 1.109C22.452 0.377 21.123 0.022 19.789 0L19.537 0C17.98 0.024 16.429 0.501 15.068 1.364C14.649 1.63 14.204 1.922 13.85 2.27C13.464 2.649 13.157 2.907 12.764 3.345C12.695 3.421 12.683 3.452 12.61 3.532C12.536 3.615 12.508 3.655 12.438 3.738C12.337 3.861 12.251 4.064 12.086 4.106L12.086 4.106Z" fill="rgb(255,0,0)" fill-opacity="1.000" fill-rule="evenodd" transform="matrix(1 0 0 1 16.527 10)"/><path d="M0 0.263C0.166 0.604 0.229 1.966 0.229 2.449L0.229 24.077L9.113 24.077C10.117 24.077 10.904 23.894 11.549 23.283L11.588 23.245C12.677 22.123 12.698 20.179 12.698 18.463L6.711 18.463L6.711 2.11C6.711 1.281 6.48 0.683 5.742 0.354C4.626 -0.144 2.738 0.008 1.488 0.076C1.257 0.089 0.984 0.129 0.735 0.162C0.541 0.187 0.21 0.263 0 0.263ZM39.502 7.573C39.439 7.443 39.394 7.152 39.358 7L38.999 5.509C38.978 5.397 38.989 5.275 38.854 5.275L34.393 5.275L34.393 24.077L40.57 24.077L40.57 11.341C40.57 11.088 41.445 10.647 41.703 10.539C43.444 9.808 45.499 10.474 46.061 10.474C46.11 10.262 46.201 10.038 46.275 9.82C46.496 9.17 46.699 8.345 46.709 7.554L46.709 7.436C46.695 6.43 46.349 5.498 45.299 5.085C44.091 4.61 42.229 5.099 41.296 5.653C40.673 6.024 40.054 6.632 39.705 7.284C39.672 7.347 39.665 7.376 39.632 7.438C39.553 7.586 39.612 7.534 39.502 7.573Z" fill="rgb(55,52,53)" fill-opacity="1.000" fill-rule="evenodd" transform="matrix(1 0 0 1 7.1457 25.2984)"/></svg>