<svg xmlns="http://www.w3.org/2000/svg" viewBox="0 0 60 60" width="60" height="60"><path d="M0 0L60 0L60 60L0 60L0 0Z" fill="rgb(21,0,103)" fill-opacity="1.000" fill-rule="nonzero" transform="matrix(1 0 0 1 0 0)"/><path d="M0 1.303L3.425 0.063C4.142 -0.196 4.142 0.373 4.142 1.228L4.142 2.795C4.142 4.06 3.712 4.211 3.146 4.42L0 5.559L0 1.303Z" fill="rgb(255,255,255)" fill-opacity="1.000" fill-rule="nonzero" transform="matrix(1 0 0 1 23.4585 43.8439)"/><path d="M0 3.205L8.697 0.063C9.414 -0.196 9.414 0.373 9.414 1.228L9.414 2.786C9.414 4.06 8.984 4.211 8.419 4.42L0 7.461L0 3.205Z" fill="rgb(255,255,255)" fill-opacity="1.000" fill-rule="nonzero" transform="matrix(1 0 0 1 23.4585 35.0046)"/><path d="M4.994 11.428L0.574 9.828C0 9.618 0 8.847 0 8.571C0 8.571 0 9.501 0.852 9.191L22.532 1.357C24.244 0.737 24.244 0.26 23.527 0C24.244 0.26 24.244 0.26 24.244 2.338C24.244 4.323 24.244 4.985 23.392 5.295L6.42 11.428C5.711 11.688 5.711 11.688 4.994 11.428Z" fill="rgb(255,255,255)" fill-opacity="1.000" fill-rule="nonzero" transform="matrix(1 0 0 1 17.7476 16.8865)"/><path d="M17.824 0C18.541 0.26 18.541 0.737 16.829 1.357L0 7.44L0 11.688L17.689 5.295C18.541 4.985 18.541 4.323 18.541 2.338C18.541 0.251 18.541 0.251 17.824 0Z" fill="rgb(255,255,255)" fill-opacity="1.000" fill-rule="nonzero" transform="matrix(1 0 0 1 23.4585 23.8323)"/><path d="M1.847 4.765L9.423 7.505L15.302 5.377L1.139 0.258C0.143 -0.103 0 -0.153 0 0.551L0 2.394C-0.008 4.095 1.282 4.564 1.847 4.765Z" fill="rgb(237,22,80)" fill-opacity="1.000" fill-rule="nonzero" transform="matrix(1 0 0 1 17.756 15.473)"/><path d="M8.225 0.855L5.88 0L0 2.128L3.72 3.477L7.229 2.212C8.942 1.584 8.942 1.106 8.225 0.855Z" fill="rgb(237,22,80)" fill-opacity="1.000" fill-rule="nonzero" transform="matrix(1 0 0 1 33.0584 22.9779)"/><path d="M17.824 6.29C17.824 6.29 2.134 0.618 1.139 0.258C0.143 -0.103 0 -0.153 0 0.551L0 2.394C0 4.095 1.282 4.556 1.856 4.765L13.328 8.912L16.837 7.647C18.541 7.027 18.541 6.55 17.824 6.29Z" fill="rgb(237,22,80)" fill-opacity="1.000" fill-rule="nonzero" transform="matrix(1 0 0 1 23.4585 10.5966)"/><path d="M0.853 3.659L5.704 1.908L1.14 0.258C0.145 -0.103 0.001 -0.153 0.001 0.551L0.001 3.039C-0.007 3.039 -0.007 3.969 0.853 3.659Z" fill="rgb(237,22,80)" fill-opacity="1.000" fill-rule="nonzero" transform="matrix(1 0 0 1 17.7542 22.4188)"/></svg>