<svg xmlns="http://www.w3.org/2000/svg" viewBox="0 0 130 60" width="130" height="60"><path d="M0 0L130 0L130 60L0 60L0 0Z" fill="rgb(255,255,255)" fill-opacity="1.000" fill-rule="nonzero" transform="matrix(1 0 0 1 0 0)"/><path d="M0 1.108L2.912 0.054C3.522 -0.167 3.522 0.317 3.522 1.044L3.522 2.376C3.522 3.452 3.156 3.581 2.676 3.759L0 4.728L0 1.108Z" fill="rgb(21,0,103)" fill-opacity="1.000" fill-rule="nonzero" transform="matrix(1 0 0 1 17.8562 41.2725)"/><path d="M0 2.726L7.396 0.054C8.005 -0.167 8.005 0.317 8.005 1.044L8.005 2.369C8.005 3.452 7.64 3.581 7.159 3.759L0 6.345L0 2.726Z" fill="rgb(21,0,103)" fill-opacity="1.000" fill-rule="nonzero" transform="matrix(1 0 0 1 17.8562 33.7559)"/><path d="M4.247 9.718L0.488 8.357C0 8.179 0 7.524 0 7.289C0 7.289 0 8.079 0.725 7.816L19.16 1.154C20.616 0.627 20.616 0.221 20.007 0C20.616 0.221 20.616 0.221 20.616 1.988C20.616 3.676 20.616 4.239 19.892 4.503L5.459 9.718C4.856 9.939 4.856 9.939 4.247 9.718Z" fill="rgb(21,0,103)" fill-opacity="1.000" fill-rule="nonzero" transform="matrix(1 0 0 1 12.9998 18.3488)"/><path d="M15.157 0C15.767 0.221 15.767 0.627 14.311 1.154L0 6.327L0 9.939L15.043 4.503C15.767 4.239 15.767 3.676 15.767 1.988C15.767 0.214 15.767 0.214 15.157 0Z" fill="rgb(21,0,103)" fill-opacity="1.000" fill-rule="nonzero" transform="matrix(1 0 0 1 17.8562 24.2553)"/><path d="M1.571 4.052L8.013 6.382L13.013 4.572L0.968 0.219C0.122 -0.087 0 -0.13 0 0.468L0 2.036C-0.007 3.482 1.09 3.881 1.571 4.052Z" fill="rgb(237,22,80)" fill-opacity="1.000" fill-rule="nonzero" transform="matrix(1 0 0 1 13.007 17.1468)"/><path d="M6.994 0.727L5 0L0 1.81L3.163 2.957L6.148 1.881C7.604 1.347 7.604 0.94 6.994 0.727Z" fill="rgb(237,22,80)" fill-opacity="1.000" fill-rule="nonzero" transform="matrix(1 0 0 1 26.0197 23.5287)"/><path d="M15.157 5.349C15.157 5.349 1.815 0.525 0.968 0.219C0.122 -0.087 0 -0.13 0 0.468L0 2.036C0 3.482 1.09 3.874 1.578 4.052L11.334 7.579L14.318 6.503C15.767 5.976 15.767 5.57 15.157 5.349Z" fill="rgb(237,22,80)" fill-opacity="1.000" fill-rule="nonzero" transform="matrix(1 0 0 1 17.8562 13.0001)"/><path d="M0.726 3.112L4.85 1.623L0.97 0.219C0.123 -0.087 0.001 -0.13 0.001 0.469L0.001 2.585C-0.006 2.585 -0.006 3.375 0.726 3.112Z" fill="rgb(237,22,80)" fill-opacity="1.000" fill-rule="nonzero" transform="matrix(1 0 0 1 13.0055 23.0533)"/><path d="M20.062 7.026L22.015 7.026L22.015 1.622L25.426 1.398L25.426 0.004L16.651 0.004L16.651 1.398L20.062 1.622L20.062 7.026ZM5.97 7.026L6.771 5.408L2.03 5.408L2.03 0.004L0 0.004L0 7.026L5.97 7.026ZM13.517 4.311L10.886 4.311L12.216 1.499L13.517 4.311ZM31.17 4.311L28.534 4.311L29.865 1.499L31.17 4.311ZM40.094 5.311C40.171 5.561 40.469 5.734 40.797 5.734L42.827 5.734L44.332 1.601L45.761 7.03L47.667 7.03L46.089 0.805C45.94 0.182 45.586 0.008 45.01 0.008L43.027 0.008L41.599 4.116L40.469 0.627C40.32 0.182 40.043 0.004 39.591 0.004L37.361 0.004L35.531 7.026L37.463 7.026L38.866 1.597L40.094 5.311ZM32.5 7.026L34.632 7.026L31.272 0.449C31.097 0.127 30.922 0 30.521 0L28.667 0L25.132 7.022L27.289 7.022L27.916 5.726L31.877 5.726L32.5 7.026ZM14.822 7.026L16.979 7.026L13.619 0.449C13.444 0.127 13.269 0 12.864 0L11.01 0L7.475 7.022L9.628 7.022L10.255 5.726L14.216 5.726L14.822 7.026Z" fill="rgb(21,0,103)" fill-opacity="1.000" fill-rule="nonzero" transform="matrix(1 0 0 1 40.2712 13)"/><path d="M8.735 0C3.572 0 0.182 2.183 0.182 5.53C0.182 8.695 2.765 9.878 6.94 10.66L8.937 11.06C11.922 11.661 13.515 12.643 13.515 14.226C13.515 15.808 11.922 16.991 7.948 16.991C4.377 16.991 1.574 15.808 0.787 15.208L0 17.973C0.787 18.373 3.57 19.556 7.747 19.556C13.314 19.556 16.5 17.391 16.5 14.025C16.5 10.86 13.716 9.277 9.339 8.495L7.343 8.095C4.157 7.495 3.168 6.913 3.168 5.33C3.168 3.747 4.962 2.565 8.534 2.565C11.518 2.565 13.698 3.165 14.705 3.547L15.31 1.182C14.101 0.782 11.904 0 8.735 0Z" fill="rgb(21,0,103)" fill-opacity="1.000" fill-rule="nonzero" transform="matrix(1 0 0 1 80.6045 26.4445)"/><path d="M15.398 11.436L6.583 11.436L10.991 2.545L15.398 11.436ZM19.013 18.944L22 18.944L13.001 0.782C12.595 0.182 12.208 0 11.599 0L9.405 0L0 18.944L3.006 18.944L5.403 14.017L16.615 14.017L19.013 18.944Z" fill="rgb(21,0,103)" fill-opacity="1.000" fill-rule="nonzero" transform="matrix(1 0 0 1 56.7712 26.4445)"/><path d="M8.775 11.087C6.59 11.087 4.387 10.474 2.992 9.676L2.992 2.414L10.776 2.414C14.558 2.414 15.953 4.439 15.953 6.24C15.953 8.859 13.952 11.087 8.775 11.087ZM2.992 19.556L2.992 12.499C4.387 13.297 6.388 13.706 8.573 13.706C9.766 13.706 10.574 13.706 11.565 13.501L12.077 13.415L14.356 12.703C17.146 11.496 18.944 9.081 18.944 6.258C18.944 2.637 15.953 0 10.574 0L0 0L0 19.556L2.992 19.556Z" fill="rgb(21,0,103)" fill-opacity="1.000" fill-rule="nonzero" transform="matrix(1 0 0 1 40.2712 26.4445)"/><path d="M8.735 0C3.572 0 0.182 2.183 0.182 5.53C0.182 8.695 2.765 9.878 6.94 10.66L8.937 11.06C11.922 11.661 13.515 12.643 13.515 14.226C13.515 15.808 11.922 16.991 7.948 16.991C4.377 16.991 1.574 15.808 0.787 15.208L0 17.973C0.787 18.373 3.57 19.556 7.747 19.556C13.314 19.556 16.5 17.391 16.5 14.025C16.5 10.86 13.716 9.277 9.339 8.495L7.343 8.095C4.157 7.495 3.168 6.913 3.168 5.33C3.168 3.747 4.962 2.565 8.534 2.565C11.518 2.565 13.698 3.165 14.705 3.547L15.31 1.182C14.101 0.782 11.904 0 8.735 0Z" fill="rgb(21,0,103)" fill-opacity="1.000" fill-rule="nonzero" transform="matrix(1 0 0 1 99.549 26.4445)"/></svg>