<svg xmlns="http://www.w3.org/2000/svg" viewBox="0 0 60 60" width="60" height="60"><path d="M0 0L60 0L60 60L0 60L0 0Z" fill="rgb(41,42,96)" fill-opacity="1.000" fill-rule="nonzero" transform="matrix(1 0 0 1 0 0)"/><path d="M0 0L0 16.407C0 28.645 10.062 38.597 22.571 38.597L39.16 38.597L39.16 0L0 0ZM26.922 26.493L12.509 26.493L12.509 12.238L27.058 12.238L27.058 26.493L26.922 26.493Z" fill="rgb(255,255,255)" fill-opacity="1.000" fill-rule="nonzero" transform="matrix(1 0 0 1 10 11)"/><path d="M17.812 38.328C12.917 37.924 0 31.603 0 17.214C0 9.548 0 0 0 0L12.509 0C12.509 0 12.509 18.021 12.509 23.266C12.509 33.89 17.812 38.328 17.812 38.328Z" fill="rgb(204,22,63)" fill-opacity="1.000" fill-rule="nonzero" transform="matrix(1 0 0 1 10 11)"/><path d="M0 0C0 0 5.031 12.238 19.58 12.238C27.466 12.238 37.12 12.372 37.12 12.372L37.12 0L0 0Z" fill="rgb(132,0,41)" fill-opacity="1.000" fill-rule="nonzero" transform="matrix(1 0 0 1 12.0391 37.3586)"/></svg>