<svg xmlns="http://www.w3.org/2000/svg" viewBox="0 0 130 60" width="130" height="60"><path d="M0 0L130 0L130 60L0 60L0 0Z" fill="rgb(255,255,255)" fill-opacity="1.000" fill-rule="nonzero" transform="matrix(1 0 0 1 0 0)"/><path d="M106.615 0L0 0L0 22L106.615 22L106.615 0Z" fill="rgb(0,0,0)" fill-opacity="1.000" fill-rule="nonzero" transform="matrix(1 0 0 1 12 19)"/><path d="M0 0L0 9.255C0 16.159 5.676 21.772 12.732 21.772L22.09 21.772L22.09 0L0 0ZM15.187 14.945L7.057 14.945L7.057 6.903L15.264 6.903L15.264 14.945L15.187 14.945Z" fill="rgb(41,42,96)" fill-opacity="1.000" fill-rule="nonzero" transform="matrix(1 0 0 1 12 19)"/><path d="M10.048 21.621C7.287 21.393 0 17.828 0 9.71C0 5.386 0 0 0 0L7.057 0C7.057 0 7.057 10.166 7.057 13.124C7.057 19.117 10.048 21.621 10.048 21.621Z" fill="rgb(204,22,63)" fill-opacity="1.000" fill-rule="nonzero" transform="matrix(1 0 0 1 12 19)"/><path d="M0 0C0 0 2.838 6.903 11.045 6.903C15.494 6.903 20.94 6.979 20.94 6.979L20.94 0L0 0Z" fill="rgb(132,0,41)" fill-opacity="1.000" fill-rule="nonzero" transform="matrix(1 0 0 1 13.1502 33.869)"/><path d="M13.269 15.703C12.042 16.386 10.431 16.69 8.437 16.69C5.906 16.69 3.835 15.931 2.301 14.414C0.767 12.897 0 10.924 0 8.421C0 5.841 0.69 3.793 2.071 2.276C3.452 0.759 5.216 0 7.363 0C9.434 0 11.122 0.683 12.349 1.972C13.576 3.262 14.19 5.159 14.19 7.586C14.19 8.269 14.113 8.952 13.96 9.634L3.221 9.634C3.452 11.076 4.065 12.138 5.062 12.897C6.059 13.655 7.363 14.034 8.821 14.034C10.585 14.034 12.042 13.655 13.193 12.821L13.193 15.628L13.269 15.628L13.269 15.703ZM7.517 2.731C6.443 2.731 5.523 3.11 4.679 3.945C3.912 4.703 3.375 5.841 3.221 7.359L11.198 7.359L11.198 6.752C11.122 5.538 10.815 4.552 10.201 3.869C9.588 3.11 8.744 2.731 7.517 2.731Z" fill="rgb(41,42,96)" fill-opacity="1.000" fill-rule="nonzero" transform="matrix(1 0 0 1 57.9435 24.0827)"/><path d="M12.579 15.931C11.505 16.614 10.125 16.917 8.514 16.917C5.906 16.917 3.912 16.083 2.301 14.49C0.767 12.897 0 10.848 0 8.497C0 6.145 0.767 4.172 2.301 2.503C3.835 0.834 5.906 0 8.591 0C10.048 0 11.352 0.303 12.502 0.91L12.502 3.793C11.429 3.11 10.201 2.807 8.897 2.807C7.133 2.807 5.829 3.338 4.756 4.4C3.758 5.462 3.221 6.828 3.221 8.497C3.298 10.09 3.758 11.531 4.756 12.593C5.753 13.655 7.133 14.186 8.821 14.186C10.125 14.186 11.352 13.807 12.426 13.124L12.579 15.931Z" fill="rgb(41,42,96)" fill-opacity="1.000" fill-rule="nonzero" transform="matrix(1 0 0 1 75.1266 24.1586)"/><path d="M12.579 15.931C11.505 16.614 10.125 16.917 8.514 16.917C5.906 16.917 3.912 16.083 2.301 14.49C0.767 12.897 0 10.848 0 8.497C0 6.145 0.767 4.172 2.301 2.503C3.835 0.834 5.906 0 8.591 0C10.048 0 11.352 0.303 12.502 0.91L12.502 3.793C11.429 3.11 10.201 2.807 8.897 2.807C7.133 2.807 5.829 3.338 4.756 4.4C3.682 5.462 3.221 6.828 3.221 8.497C3.298 10.09 3.758 11.531 4.756 12.593C5.753 13.655 7.133 14.186 8.821 14.186C10.125 14.186 11.352 13.807 12.426 13.124L12.579 15.931Z" fill="rgb(41,42,96)" fill-opacity="1.000" fill-rule="nonzero" transform="matrix(1 0 0 1 90.3882 24.1586)"/><path d="M5.139 16.614C3.605 16.614 2.301 16.159 1.381 15.248C0.46 14.338 0 13.2 0 11.834C0 10.317 0.614 9.028 1.764 8.193C2.991 7.359 4.602 6.903 6.75 6.903L9.511 6.903L9.511 5.993C9.511 4.855 9.204 4.021 8.667 3.49C8.13 2.883 7.21 2.655 5.983 2.655C4.219 2.655 2.608 3.11 1.227 4.097L1.227 1.062C2.531 0.303 4.219 0 6.29 0C10.662 0 12.809 2.048 12.809 6.221L12.809 16.538C12.732 16.538 7.21 16.614 5.139 16.614ZM6.136 14.186C7.133 14.186 9.511 14.186 9.511 14.186L9.434 9.255L6.98 9.255C5.753 9.255 4.832 9.483 4.219 9.938C3.605 10.393 3.298 11 3.298 11.759C3.298 12.517 3.528 13.124 3.988 13.503C4.525 13.959 5.216 14.186 6.136 14.186Z" fill="rgb(41,42,96)" fill-opacity="1.000" fill-rule="nonzero" transform="matrix(1 0 0 1 105.8834 24.1586)"/><path d="M3.298 18.434L3.298 0L0 0L0 19.117C0 20.483 1.151 21.621 2.531 21.621L12.196 21.697L12.196 18.51L3.298 18.434Z" fill="rgb(41,42,96)" fill-opacity="1.000" fill-rule="nonzero" transform="matrix(1 0 0 1 43.2945 19.0759)"/></svg>