<svg xmlns="http://www.w3.org/2000/svg" viewBox="0 0 60 60" width="60" height="60"><path d="M0 0L60 0L60 60L0 60L0 0Z" fill="rgb(255,255,255)" fill-opacity="1.000" fill-rule="nonzero" transform="matrix(1 0 0 1 0 0)"/><path d="M50.894 0L0 0L0 13L50.894 13L50.894 0Z" fill="rgb(0,0,0)" fill-opacity="1.000" fill-rule="nonzero" transform="matrix(1 0 0 1 5 23)"/><path d="M10.668 12.513L1.8 2.544L1.8 12.513L0 12.513L0 0L1.781 0L10.358 9.63L10.358 0L12.158 0L12.158 12.513L10.668 12.513Z" fill="rgb(0,0,0)" fill-opacity="1.000" fill-rule="nonzero" transform="matrix(1 0 0 1 29.4635 23.2436)"/><path d="M0 12.513L0 0L1.873 0L1.873 10.718L9.546 10.718L9.546 12.513L0 12.513Z" fill="rgb(0,0,0)" fill-opacity="1.000" fill-rule="nonzero" transform="matrix(1 0 0 1 5 23.2436)"/><path d="M0 12.539L0 0.025L5.839 0C9.293 0 12.103 2.818 12.103 6.282C12.103 9.745 9.293 12.563 5.839 12.564L0 12.539L0 12.539ZM1.873 10.743L5.839 10.743C8.292 10.743 10.288 8.742 10.288 6.282C10.288 3.822 8.292 1.821 5.839 1.821L1.873 1.821L1.873 10.743Z" fill="rgb(0,0,0)" fill-opacity="1.000" fill-rule="nonzero" transform="matrix(1 0 0 1 43.79 23.2181)"/><path d="M6.482 13C2.908 13 0 10.084 0 6.5C0 2.916 2.908 0 6.482 0C10.056 0 12.964 2.916 12.964 6.5C12.964 6.683 12.955 6.872 12.938 7.062L1.919 7.062L1.961 7.3C2.346 9.505 4.248 11.104 6.482 11.104C7.823 11.104 9.085 10.523 9.96 9.506L12.228 9.506C11.116 11.639 8.895 13 6.482 13ZM6.482 1.895C4.49 1.895 2.736 3.171 2.118 5.069L2.031 5.334L10.933 5.334L10.847 5.069C10.228 3.171 8.474 1.895 6.482 1.895L6.482 1.895Z" fill="rgb(0,0,0)" fill-opacity="1.000" fill-rule="nonzero" transform="matrix(1 0 0 1 14.9509 23)"/></svg>