<svg xmlns="http://www.w3.org/2000/svg" viewBox="0 0 130 60" width="130" height="60"><path d="M0 0L130 0L130 60L0 60L0 0Z" fill="rgb(255,255,255)" fill-opacity="1.000" fill-rule="nonzero" transform="matrix(1 0 0 1 0 0)"/><path d="M102.84 0L0 0L0 15L102.84 15L102.84 0Z" fill="rgb(0,0,0)" fill-opacity="1.000" fill-rule="nonzero" transform="matrix(1 0 0 1 14 22)"/><path d="M10.57 8.081C10.036 9.514 8.456 11.521 5.563 11.521C2.336 11.521 0 9.196 0 5.763C0 2.329 2.336 0 5.563 0C8.568 0 10.904 2.325 10.904 5.426C10.899 5.693 10.877 5.959 10.838 6.223L10.793 6.534L2.231 6.534C2.476 8.416 3.788 9.634 5.569 9.634C6.904 9.634 7.884 8.859 8.24 8.083L10.57 8.081ZM8.79 4.874C8.545 3.102 7.349 1.884 5.563 1.884C3.672 1.884 2.558 3.102 2.226 4.874L8.79 4.874Z" fill="rgb(0,0,0)" fill-opacity="1.000" fill-rule="nonzero" transform="matrix(1 0 0 1 37.5474 25.4862)"/><path d="M2.226 7.967C2.226 8.631 3.005 9.629 4.785 9.629C6.453 9.629 7.122 8.875 7.122 8.188C7.122 7.414 6.698 6.948 5.452 6.755L3.45 6.422C1.314 6.068 0.223 5.095 0.223 3.211C0.223 1.439 1.664 0 4.674 0C7.901 0 9.236 2.215 9.236 3.433L7.005 3.433C7.005 2.768 6.337 1.882 4.669 1.882C3.084 1.882 2.443 2.524 2.443 3.211C2.443 3.898 3.11 4.341 4.111 4.54L6.121 4.871C8.281 5.225 9.347 6.333 9.347 8.192C9.347 9.964 7.907 11.515 4.785 11.515C1.224 11.515 0 9.19 0 7.972L2.226 7.967Z" fill="rgb(0,0,0)" fill-opacity="1.000" fill-rule="nonzero" transform="matrix(1 0 0 1 57.1178 25.4891)"/><path d="M8.679 10.083L8.568 10.083C8.346 10.414 7.233 11.517 5.119 11.517C2.204 11.517 0 9.302 0 5.758C0 2.215 2.204 0 5.119 0C7.28 0 8.191 1.13 8.568 1.551L8.679 1.551L8.679 0.222L10.904 0.222L10.904 11.294L8.679 11.294L8.679 10.083ZM8.679 5.764C8.679 3.46 7.239 2 5.452 2C3.666 2 2.226 3.46 2.226 5.764C2.226 8.068 3.666 9.528 5.452 9.528C7.239 9.528 8.679 8.068 8.679 5.764Z" fill="rgb(0,0,0)" fill-opacity="1.000" fill-rule="nonzero" transform="matrix(1 0 0 1 80.8656 25.4777)"/><path d="M0 0.222L2.226 0.222L2.226 1.329L2.338 1.329C2.587 1.079 2.863 0.856 3.16 0.665C3.882 0.222 4.716 -0.009 5.565 0C8.235 0 10.016 1.751 10.016 4.65L10.016 11.295L7.79 11.295L7.79 4.65C7.793 4.301 7.725 3.954 7.592 3.63C7.459 3.307 7.262 3.013 7.014 2.766C6.765 2.519 6.47 2.323 6.144 2.191C5.819 2.058 5.471 1.991 5.119 1.994C3.45 1.994 2.226 3.211 2.226 4.65L2.226 11.295L0 11.295L0 0.222Z" fill="rgb(0,0,0)" fill-opacity="1.000" fill-rule="nonzero" transform="matrix(1 0 0 1 94.347 25.4832)"/><path d="M0 0L2.227 0L2.227 8.234L3.812 8.234L7.1 4.011L9.646 4.011L5.722 8.972L9.964 14.778L7.207 14.778L3.926 10.239L2.229 10.239L2.229 14.778L0.002 14.778L0 0Z" fill="rgb(0,0,0)" fill-opacity="1.000" fill-rule="nonzero" transform="matrix(1 0 0 1 106.8688 22)"/><path d="M7.797 3.46C5.636 3.46 4.726 4.59 4.349 5.011L4.237 5.011L4.237 0L0 0L0 1.994L2.017 1.994L2.017 14.752L4.242 14.752L4.242 13.423L4.355 13.423C4.687 13.866 5.667 14.974 7.803 14.974C10.719 14.974 12.922 12.759 12.922 9.216C12.922 5.672 10.713 3.46 7.797 3.46ZM7.465 12.983C5.684 12.983 4.237 11.522 4.237 9.219C4.237 6.915 5.684 5.454 7.465 5.454C9.245 5.454 10.691 6.915 10.691 9.219C10.691 11.522 9.243 12.98 7.465 12.98L7.465 12.983Z" fill="rgb(0,0,0)" fill-opacity="1.000" fill-rule="nonzero" transform="matrix(1 0 0 1 66.4652 22.0258)"/><path d="M4.228 12.758L4.228 0L0 0L0 1.994L2.002 1.994L2.002 12.427C2.002 13.86 2.892 14.752 4.339 14.752L6.564 14.752L6.564 12.759L4.228 12.758Z" fill="rgb(0,0,0)" fill-opacity="1.000" fill-rule="nonzero" transform="matrix(1 0 0 1 30.3062 22.0272)"/><path d="M4.006 12.759L4.006 5.783L6.564 5.783L6.564 3.68L4.006 3.68L4.006 0L1.78 0L1.78 3.68L0 3.68L0 5.783L1.78 5.783L1.78 12.427C1.78 13.86 2.645 14.752 4.229 14.752L6.566 14.752L6.566 12.759L4.006 12.759Z" fill="rgb(0,0,0)" fill-opacity="1.000" fill-rule="nonzero" transform="matrix(1 0 0 1 49.3248 22.0258)"/><path d="M5.929 0L5.929 2.95L0 2.95L0 5.9L8.895 5.9L8.895 0L5.929 0Z" fill="rgb(255,113,64)" fill-opacity="1.000" fill-rule="nonzero" transform="matrix(1 0 0 1 16.9646 30.8776)"/><path d="M2.964 0L0 0L0 5.9L2.964 5.9L2.964 0Z" fill="rgb(178,244,74)" fill-opacity="1.000" fill-rule="nonzero" transform="matrix(1 0 0 1 19.9292 24.976)"/><path d="M0 0L0 8.852L2.965 8.852L2.965 2.95L5.929 2.95L5.929 0L0 0Z" fill="rgb(255,133,232)" fill-opacity="1.000" fill-rule="nonzero" transform="matrix(1 0 0 1 14 22.0262)"/></svg>