<svg xmlns="http://www.w3.org/2000/svg" viewBox="0 0 60 60" width="60" height="60"><path d="M0 0L60 0L60 60L0 60L0 0Z" fill="rgb(255,255,255)" fill-opacity="1.000" fill-rule="nonzero" transform="matrix(1 0 0 1 0 0)"/><path d="M12.56 0L12.56 6.249L0 6.249L0 12.499L18.843 12.499L18.843 0L12.56 0Z" fill="rgb(255,113,64)" fill-opacity="1.000" fill-rule="nonzero" transform="matrix(1 0 0 1 23.6481 33.5011)"/><path d="M6.28 0L0 0L0 12.499L6.28 12.499L6.28 0Z" fill="rgb(178,244,74)" fill-opacity="1.000" fill-rule="nonzero" transform="matrix(1 0 0 1 29.9287 20.9999)"/><path d="M0 0L0 18.751L6.28 18.751L6.28 6.249L12.56 6.249L12.56 0L0 0Z" fill="rgb(255,133,232)" fill-opacity="1.000" fill-rule="nonzero" transform="matrix(1 0 0 1 17.3685 14.7513)"/></svg>