<svg xmlns="http://www.w3.org/2000/svg" viewBox="0 0 60 60" width="60" height="60"><path d="M0 0L60 0L60 60L0 60L0 0Z" fill="rgb(255,255,255)" fill-opacity="1.000" fill-rule="nonzero" transform="matrix(1 0 0 1 0 0)"/><path d="M0.898 0.015C0.789 -0.007 0.677 -0.005 0.569 0.022C0.462 0.048 0.361 0.098 0.275 0.168C0.189 0.238 0.12 0.326 0.073 0.427C0.025 0.527 0 0.636 0 0.747L0 14.222C-0.002 14.321 0.015 14.42 0.052 14.513C0.088 14.606 0.143 14.691 0.212 14.762C0.282 14.833 0.365 14.89 0.457 14.929C0.549 14.967 0.648 14.987 0.747 14.987C0.847 14.987 0.946 14.967 1.037 14.929C1.129 14.89 1.213 14.833 1.282 14.762C1.352 14.691 1.406 14.606 1.443 14.513C1.479 14.42 1.497 14.321 1.494 14.222L1.494 0.748C1.494 0.576 1.435 0.409 1.326 0.276C1.218 0.142 1.066 0.05 0.898 0.016" fill="rgb(0,144,143)" fill-opacity="1.000" fill-rule="nonzero" transform="matrix(1 0 0 1 20.1359 23.0029)"/><path d="M6.035 1.488C6.612 1.488 7.368 1.731 7.692 2.888L9.862 11.252L10.677 14.407C10.714 14.55 10.79 14.68 10.897 14.781C11.003 14.882 11.138 14.945 11.283 14.963C11.398 14.977 11.514 14.963 11.622 14.922C11.73 14.881 11.827 14.814 11.903 14.727C11.979 14.64 12.033 14.536 12.06 14.424C12.086 14.311 12.085 14.194 12.056 14.082L11.343 11.331L9.207 3.085C8.698 1.008 7.662 0 6.036 0C4.411 0 3.373 1.008 2.865 3.081L0.024 14.05C-0.021 14.225 -0.003 14.412 0.076 14.575C0.119 14.666 0.18 14.746 0.257 14.811C0.334 14.875 0.424 14.921 0.521 14.946C0.703 14.993 0.896 14.966 1.058 14.871C1.22 14.776 1.338 14.62 1.385 14.438L2.026 11.959L4.377 2.895C4.703 1.73 5.458 1.485 6.035 1.485" fill="rgb(0,144,143)" fill-opacity="1.000" fill-rule="nonzero" transform="matrix(1 0 0 1 40.9904 23.0314)"/><path d="M3.887 14.968L8.928 14.968C9.031 14.968 9.134 14.945 9.228 14.901C9.322 14.857 9.405 14.793 9.471 14.713C9.538 14.633 9.586 14.54 9.612 14.44C9.638 14.339 9.642 14.234 9.624 14.132C9.597 13.985 9.522 13.852 9.41 13.753C9.266 13.624 9.079 13.553 8.886 13.554L3.886 13.554C3.088 13.554 2.546 13.401 2.233 13.087C1.792 12.693 1.526 12.139 1.493 11.549L1.493 0.746C1.493 0.548 1.414 0.359 1.274 0.219C1.134 0.079 0.944 0 0.746 0C0.548 0 0.359 0.079 0.219 0.219C0.079 0.359 0 0.548 0 0.746L0 11.292C0 11.295 0 11.299 0 11.302C0.011 13.565 1.5 14.969 3.886 14.969" fill="rgb(0,144,143)" fill-opacity="1.000" fill-rule="nonzero" transform="matrix(1 0 0 1 5.9993 23.0318)"/><path d="M10.711 0.01C10.611 0.007 10.511 0.023 10.418 0.059C10.325 0.095 10.239 0.149 10.167 0.219C10.095 0.288 10.038 0.371 9.998 0.463C9.959 0.555 9.939 0.654 9.938 0.754C9.938 0.754 9.958 12.038 9.958 12.153C9.963 12.422 9.946 12.692 9.908 12.958L9.907 12.955C9.881 13.101 9.811 13.236 9.708 13.342C9.604 13.448 9.471 13.521 9.326 13.551C9.18 13.581 9.029 13.567 8.892 13.51C8.755 13.453 8.638 13.356 8.556 13.233C8.487 13.1 8.426 12.964 8.374 12.823L7.489 9.818L5.516 3.738C5.469 3.596 5.401 3.38 5.313 3.09C5.114 2.358 4.798 1.664 4.377 1.033C4.149 0.774 3.892 0.542 3.61 0.344C3.246 0.118 2.826 -0.001 2.398 0C1.855 -0.009 1.328 0.177 0.911 0.524C0.494 0.871 0.215 1.357 0.125 1.892C0.034 2.39 -0.008 2.897 0.001 3.404L0.001 14.185C0.001 14.297 0.024 14.408 0.069 14.511C0.114 14.614 0.179 14.706 0.262 14.783C0.359 14.872 0.48 14.932 0.61 14.956C0.718 14.976 0.829 14.973 0.935 14.945C1.041 14.918 1.14 14.868 1.225 14.798C1.31 14.728 1.378 14.64 1.425 14.541C1.472 14.442 1.496 14.334 1.497 14.224L1.497 3.353C1.497 2.898 1.52 2.554 1.542 2.281C1.558 2.136 1.604 1.997 1.678 1.872C1.747 1.757 1.842 1.66 1.954 1.588C2.067 1.515 2.195 1.47 2.328 1.456C2.46 1.441 2.595 1.457 2.721 1.503C2.846 1.549 2.96 1.623 3.052 1.72C3.104 1.767 3.152 1.818 3.195 1.874C3.5 2.375 3.729 2.917 3.877 3.485C3.965 3.768 4.039 3.995 4.1 4.163L6.953 13.237C7.105 13.726 7.399 14.16 7.797 14.483C8.072 14.709 8.401 14.861 8.751 14.923C8.889 14.945 9.028 14.956 9.168 14.957C9.238 14.957 9.308 14.953 9.377 14.947C9.443 14.94 9.51 14.931 9.576 14.919L9.595 14.916C10.051 14.828 10.469 14.6 10.79 14.265C11.111 13.93 11.32 13.503 11.389 13.043C11.431 12.712 11.45 12.378 11.448 12.043L11.437 0.788C11.44 0.589 11.366 0.397 11.231 0.253C11.096 0.108 10.909 0.021 10.711 0.01Z" fill="rgb(0,144,143)" fill-opacity="1.000" fill-rule="nonzero" transform="matrix(1 0 0 1 26.4563 23.0001)"/></svg>