<svg xmlns="http://www.w3.org/2000/svg" viewBox="0 0 60 60" width="60" height="60"><path d="M0 0L60 0L60 60L0 60L0 0Z" fill="rgb(255,10,140)" fill-opacity="1.000" fill-rule="nonzero" transform="matrix(1 0 0 1 0 0)"/><path d="M0 18.512C0.02 15.52 1.282 13.592 4.079 12.505C5.471 11.964 6.91 11.528 8.355 11.142C9.77 10.764 10.651 9.988 11.039 8.533C11.455 6.963 11.943 5.398 12.564 3.898C14.176 0.001 19.372 -1.251 22.647 1.416C23.796 2.353 24.389 3.647 24.847 5.007C25.283 6.299 25.688 7.601 26.059 8.911C26.367 10.003 27.061 10.644 28.125 10.977C29.787 11.496 31.482 11.951 33.087 12.612C37.201 14.31 38.327 19.98 35.23 23.1C34.206 24.132 32.882 24.618 31.547 25.063C30.451 25.429 29.342 25.757 28.227 26.065C27.066 26.388 26.34 27.092 25.994 28.256C25.526 29.834 25.058 31.417 24.477 32.954C23.345 35.947 20.944 37.281 17.544 36.951C14.552 36.66 12.994 34.79 12.113 32.153C11.675 30.843 11.264 29.521 10.889 28.191C10.573 27.082 9.872 26.428 8.783 26.095C7.153 25.594 5.518 25.106 3.926 24.502C1.75 23.678 0.421 22.098 0.08 19.759C0.02 19.349 0.025 18.928 0.003 18.51L0 18.512Z" fill="rgb(255,255,255)" fill-opacity="1.000" fill-rule="nonzero" transform="matrix(1 0 0 1 12 12)"/></svg>