<svg xmlns="http://www.w3.org/2000/svg" viewBox="0 0 130 60" width="130" height="60"><path d="M0 0L130 0L130 60L0 60L0 0Z" fill="rgb(255,255,255)" fill-opacity="1.000" fill-rule="nonzero" transform="matrix(1 0 0 1 0 0)"/><path d="M4.402 11.421C4.552 11.996 4.815 12.498 5.175 12.952C5.861 13.815 6.772 14.297 7.845 14.492C9.054 14.71 10.245 14.663 11.392 14.191C12.382 13.784 13.104 13.089 13.562 12.116C13.606 12.02 13.75 11.934 13.861 11.914C15.025 11.698 16.192 11.498 17.358 11.293C17.471 11.273 17.583 11.257 17.798 11.224C17.569 11.851 17.406 12.438 17.15 12.979C15.935 15.54 13.885 17.028 11.114 17.519C8.818 17.926 6.573 17.744 4.47 16.668C2.109 15.461 0.741 13.485 0.222 10.918C-0.193 8.87 -0.047 6.856 0.838 4.942C2.027 2.373 4.063 0.83 6.811 0.24C8.879 -0.204 10.914 -0.05 12.843 0.858C15.407 2.065 16.903 4.137 17.515 6.862C17.66 7.505 17.677 8.176 17.753 8.834C17.776 9.028 17.737 9.132 17.497 9.172C15.611 9.478 13.728 9.805 11.844 10.126C9.881 10.46 7.918 10.798 5.955 11.133C5.495 11.211 5.034 11.287 4.575 11.365C4.524 11.375 4.476 11.395 4.404 11.418L4.402 11.421ZM13.623 6.739C13.54 6.469 13.48 6.238 13.397 6.013C12.937 4.764 12.151 3.816 10.875 3.34C10.027 3.022 9.147 2.95 8.249 3.058C7.005 3.207 5.967 3.724 5.215 4.752C4.61 5.578 4.328 6.525 4.185 7.522C4.148 7.781 4.146 8.045 4.125 8.348C7.309 7.809 10.436 7.279 13.622 6.739L13.623 6.739Z" fill="rgb(255,10,140)" fill-opacity="1.000" fill-rule="nonzero" transform="matrix(1 0 0 1 73.4094 23.6366)"/><path d="M9.242 17.695C7.057 17.687 5.045 17.132 3.307 15.766C1.598 14.422 0.547 12.666 0.163 10.528C-0.314 7.876 0.252 5.459 1.916 3.332C3.221 1.664 4.963 0.67 7.022 0.241C9.006 -0.172 10.971 -0.064 12.886 0.643C14.307 1.169 15.516 2.009 16.484 3.176C16.838 3.605 17.21 4.039 17.459 4.531C17.873 5.344 18.187 6.202 18.356 7.112C18.71 9.043 18.501 10.898 17.668 12.678C16.651 14.852 14.979 16.309 12.736 17.129C11.611 17.541 10.441 17.702 9.243 17.698L9.242 17.695ZM4.107 9.099C4.147 9.366 4.18 9.882 4.308 10.371C4.724 11.965 5.651 13.158 7.199 13.802C8.076 14.168 8.997 14.263 9.947 14.149C11.32 13.986 12.458 13.4 13.292 12.298C14.326 10.929 14.612 9.372 14.296 7.707C14.055 6.42 13.444 5.331 12.388 4.522C11.287 3.677 10.021 3.427 8.672 3.548C7.616 3.642 6.663 4.021 5.87 4.742C4.658 5.843 4.147 7.246 4.107 9.097L4.107 9.099Z" fill="rgb(255,10,140)" fill-opacity="1.000" fill-rule="nonzero" transform="matrix(1 0 0 1 101.398 23.648)"/><path d="M0 1.051C0.796 0.916 1.554 0.785 2.313 0.655C2.782 0.575 3.257 0.523 3.718 0.413C3.969 0.355 4.046 0.442 4.123 0.651C5.334 3.876 6.551 7.097 7.767 10.319C7.992 10.916 8.217 11.511 8.443 12.106C8.473 12.188 8.512 12.266 8.574 12.402C8.638 12.257 8.685 12.165 8.722 12.069C9.889 8.981 11.073 5.9 12.214 2.803C12.756 1.332 13.776 0.535 15.309 0.327C15.878 0.25 16.441 0.133 17.007 0.035C17.101 0.02 17.197 0.014 17.318 0C17.326 0.114 17.335 0.202 17.335 0.288C17.335 1.377 17.326 2.463 17.343 3.552C17.348 3.806 17.24 3.876 17.027 3.906C16.743 3.948 16.463 4.022 16.179 4.048C15.974 4.067 15.889 4.17 15.817 4.343C14.814 6.763 13.806 9.182 12.8 11.602C12.088 13.318 11.372 15.03 10.668 16.749C10.586 16.948 10.469 17.039 10.264 17.073C9.227 17.243 8.193 17.418 7.16 17.599C6.953 17.634 6.842 17.597 6.753 17.38C4.538 12.023 2.316 6.669 0.096 1.315C0.065 1.243 0.043 1.165 0.002 1.047L0 1.051Z" fill="rgb(255,10,140)" fill-opacity="1.000" fill-rule="nonzero" transform="matrix(1 0 0 1 55.2883 23.7022)"/><path d="M4.361 0.002L4.361 19.322C4.817 19.247 5.24 19.179 5.661 19.106C6.279 18.998 6.901 18.9 7.514 18.772C7.756 18.721 7.746 18.846 7.746 19.001C7.746 19.945 7.746 20.89 7.744 21.833C7.744 22.075 7.813 22.384 7.693 22.538C7.578 22.686 7.258 22.689 7.024 22.729C5.866 22.928 4.711 23.161 3.545 23.301C1.921 23.495 0.298 22.197 0.063 20.579C0.029 20.34 0.009 20.096 0.009 19.856C0.006 13.578 0.009 7.302 0 1.025C0 0.766 0.068 0.672 0.325 0.634C1.621 0.436 2.913 0.219 4.207 0.009C4.241 0.003 4.278 0.005 4.361 0L4.361 0.002Z" fill="rgb(255,10,140)" fill-opacity="1.000" fill-rule="nonzero" transform="matrix(1 0 0 1 93.0703 18.02)"/><path d="M4.365 0L4.365 19.348C5.505 19.15 6.603 18.958 7.729 18.763C7.736 18.864 7.747 18.941 7.747 19.018C7.747 20.133 7.742 21.249 7.752 22.364C7.753 22.566 7.692 22.641 7.488 22.677C6.311 22.874 5.135 23.074 3.963 23.299C2.116 23.654 0.253 22.304 0.054 20.441C0.025 20.175 0.008 19.905 0.008 19.637C0.005 13.441 0.008 7.245 0 1.05C0 0.794 0.062 0.698 0.322 0.658C1.651 0.455 2.978 0.228 4.364 0.002L4.365 0Z" fill="rgb(255,10,140)" fill-opacity="1.000" fill-rule="nonzero" transform="matrix(1 0 0 1 39.0914 18)"/><path d="M4.234 0L4.234 0.313C4.234 5.617 4.233 10.922 4.239 16.227C4.239 16.476 4.167 16.557 3.917 16.595C2.703 16.786 1.493 17.005 0.282 17.212C0.205 17.226 0.125 17.221 0.006 17.227L0.006 16.919C0.006 11.614 0.008 6.31 0 1.005C0 0.745 0.096 0.677 0.328 0.64C1.551 0.442 2.771 0.23 3.992 0.025C4.06 0.014 4.13 0.011 4.236 0L4.234 0Z" fill="rgb(255,10,140)" fill-opacity="1.000" fill-rule="nonzero" transform="matrix(1 0 0 1 49.2499 24.088)"/><path d="M2.153 4.304C3.341 4.304 4.305 3.341 4.305 2.152C4.305 0.964 3.341 0 2.153 0C0.964 0 0 0.964 0 2.152C0 3.341 0.964 4.304 2.153 4.304Z" fill="rgb(255,10,140)" fill-opacity="1.000" fill-rule="nonzero" transform="matrix(1 0 0 1 49.2157 18.077)"/><path d="M0 11.396C0.012 9.554 0.79 8.367 2.512 7.698C3.369 7.365 4.256 7.097 5.146 6.859C6.017 6.626 6.56 6.149 6.799 5.253C7.055 4.286 7.355 3.323 7.738 2.399C8.731 0.001 11.931 -0.77 13.948 0.872C14.655 1.448 15.021 2.245 15.303 3.082C15.571 3.878 15.821 4.679 16.049 5.486C16.239 6.158 16.666 6.552 17.321 6.757C18.345 7.077 19.389 7.357 20.378 7.764C22.911 8.809 23.605 12.299 21.698 14.22C21.067 14.855 20.251 15.154 19.429 15.429C18.754 15.654 18.071 15.856 17.385 16.046C16.669 16.244 16.222 16.678 16.009 17.394C15.721 18.366 15.433 19.34 15.075 20.286C14.378 22.129 12.899 22.95 10.805 22.747C8.962 22.568 8.003 21.416 7.46 19.793C7.19 18.987 6.938 18.173 6.706 17.354C6.512 16.671 6.08 16.269 5.409 16.064C4.406 15.756 3.399 15.455 2.418 15.084C1.078 14.576 0.259 13.604 0.049 12.164C0.012 11.911 0.015 11.652 0.002 11.395L0 11.396Z" fill="rgb(255,10,140)" fill-opacity="1.000" fill-rule="nonzero" transform="matrix(1 0 0 1 10 18.4913)"/></svg>