<svg xmlns="http://www.w3.org/2000/svg" viewBox="0 0 60 60" width="60" height="60"><defs><linearGradient id="g354" gradientUnits="userSpaceOnUse" x1="-0.00" y1="30.00" x2="60.00" y2="30.00"><stop offset="0.0%" stop-color="rgb(0,179,224)" stop-opacity="1.000"/><stop offset="100.0%" stop-color="rgb(0,100,175)" stop-opacity="1.000"/></linearGradient></defs><path d="M0 0L60 0L60 60L0 60L0 0Z" fill="rgb(255,255,255)" fill-opacity="1.000" fill-rule="nonzero" transform="matrix(1 0 0 1 0 0)"/><path d="M32.032 10.47L24.574 12.908C24.555 12.914 24.537 12.925 24.522 12.939C24.507 12.953 24.496 12.971 24.488 12.99L23.227 16.165C23.217 16.191 23.215 16.219 23.22 16.246C23.225 16.273 23.237 16.298 23.256 16.318C23.274 16.338 23.298 16.353 23.324 16.359C23.35 16.366 23.377 16.365 23.403 16.356L29.978 14.177L30.723 16.254C30.733 16.281 30.751 16.304 30.775 16.321C30.798 16.337 30.826 16.346 30.855 16.346L34.201 16.346C34.223 16.346 34.245 16.34 34.265 16.329C34.284 16.318 34.301 16.302 34.313 16.283C34.326 16.264 34.334 16.242 34.337 16.219C34.339 16.196 34.337 16.173 34.329 16.151L32.208 10.549C32.197 10.523 32.179 10.5 32.155 10.484C32.132 10.467 32.104 10.459 32.076 10.459L32.032 10.459L32.032 10.47ZM12.403 0.293C12.375 0.293 12.347 0.302 12.324 0.318C12.301 0.335 12.283 0.358 12.273 0.385L8.496 8.859L4.719 0.385C4.709 0.358 4.691 0.335 4.668 0.318C4.645 0.302 4.617 0.293 4.589 0.293L0.141 0.293C0.122 0.293 0.104 0.296 0.087 0.303C0.07 0.311 0.054 0.321 0.041 0.335C0.028 0.348 0.018 0.364 0.011 0.381C0.004 0.399 0 0.418 0 0.436L0 16.218C0 16.237 0.004 16.256 0.011 16.274C0.018 16.291 0.028 16.307 0.041 16.32C0.054 16.334 0.07 16.344 0.087 16.351C0.104 16.359 0.122 16.362 0.141 16.362L3.201 16.362C3.22 16.362 3.238 16.359 3.255 16.351C3.272 16.344 3.288 16.334 3.301 16.32C3.314 16.307 3.324 16.291 3.331 16.274C3.339 16.256 3.342 16.237 3.342 16.218L3.342 4.798L7.238 14.311C7.247 14.338 7.265 14.361 7.288 14.377C7.312 14.393 7.339 14.402 7.367 14.401L9.622 14.401C9.651 14.401 9.678 14.392 9.701 14.376C9.724 14.36 9.742 14.337 9.752 14.311L13.648 4.798L13.648 16.215C13.648 16.253 13.662 16.29 13.689 16.317C13.715 16.344 13.751 16.36 13.789 16.361L16.873 16.361C16.91 16.36 16.946 16.345 16.972 16.318C16.998 16.291 17.012 16.255 17.012 16.217L17.012 0.437C17.012 0.418 17.008 0.399 17.001 0.382C16.994 0.365 16.984 0.349 16.971 0.335C16.958 0.322 16.942 0.311 16.925 0.304C16.908 0.297 16.889 0.293 16.871 0.293L12.403 0.293ZM24.307 0.293C24.279 0.293 24.251 0.302 24.227 0.318C24.204 0.335 24.185 0.358 24.175 0.385L18.224 16.167C18.216 16.189 18.213 16.212 18.216 16.235C18.219 16.258 18.227 16.28 18.239 16.299C18.252 16.318 18.268 16.334 18.288 16.345C18.308 16.356 18.33 16.362 18.352 16.362L21.468 16.362L23.416 11.489L26.306 3.764L28.635 10.016C28.64 10.034 28.649 10.05 28.661 10.064C28.673 10.078 28.688 10.089 28.704 10.098C28.72 10.106 28.738 10.111 28.756 10.112C28.774 10.113 28.793 10.111 28.81 10.105L31.546 9.197C31.564 9.191 31.581 9.181 31.595 9.168C31.61 9.155 31.622 9.14 31.63 9.122C31.638 9.104 31.643 9.085 31.644 9.065C31.645 9.046 31.642 9.026 31.635 9.008L28.436 0.386C28.426 0.359 28.408 0.335 28.385 0.319C28.362 0.302 28.334 0.293 28.306 0.293L24.307 0.293ZM33.891 8.317C33.891 13.373 37.655 16.651 42.244 16.651C43.497 16.669 44.74 16.411 45.887 15.894C47.033 15.377 48.056 14.614 48.885 13.657C48.908 13.63 48.921 13.595 48.921 13.559L48.921 7.111C48.922 7.093 48.918 7.074 48.911 7.056C48.905 7.039 48.894 7.023 48.881 7.01C48.869 6.996 48.853 6.986 48.836 6.978C48.819 6.971 48.801 6.967 48.783 6.967L43.56 6.967C43.482 6.967 42.499 9.762 42.499 9.762C42.499 9.78 42.503 9.799 42.51 9.817C42.517 9.834 42.527 9.85 42.541 9.863C42.554 9.877 42.569 9.887 42.586 9.894C42.604 9.902 42.622 9.905 42.64 9.905L45.634 9.905L45.634 12.363C44.681 13.16 43.485 13.595 42.251 13.591C39.403 13.591 37.334 11.35 37.334 8.315C37.334 5.28 39.398 3.04 42.251 3.04C43.364 3.037 44.437 3.458 45.259 4.221C45.277 4.238 45.299 4.249 45.322 4.254C45.346 4.259 45.37 4.258 45.393 4.25L48.35 3.268C48.371 3.261 48.39 3.249 48.405 3.233C48.421 3.217 48.432 3.197 48.439 3.176C48.446 3.154 48.448 3.132 48.445 3.109C48.442 3.087 48.434 3.066 48.421 3.047C47.714 2.067 46.782 1.277 45.706 0.747C44.63 0.216 43.443 -0.038 42.249 0.005C37.66 0.005 33.896 3.233 33.896 8.319" fill="url(#g354)" fill-rule="nonzero" transform="matrix(1 0 0 1 6 22)"/></svg>