<svg xmlns="http://www.w3.org/2000/svg" viewBox="0 0 130 60" width="130" height="60"><path d="M0 0L130 0L130 60L0 60L0 0Z" fill="rgb(255,255,255)" fill-opacity="1.000" fill-rule="nonzero" transform="matrix(1 0 0 1 0 0)"/><path d="M9.929 0L8.305 0C7.841 0 7.563 0.276 7.563 0.736L7.563 5.493C7.563 7.241 6.611 8.228 5.29 8.228C3.899 8.228 3.109 7.332 3.109 5.608L3.109 0.736C3.109 0.276 2.83 0 2.366 0L0.743 0C0.279 0 0 0.276 0 0.736L0 5.837C0 9.078 1.694 10.916 4.245 10.916C5.776 10.916 6.96 10.41 7.795 9.377L7.933 10.02C8.027 10.433 8.304 10.663 8.746 10.663L9.929 10.663C10.393 10.663 10.672 10.387 10.672 9.927L10.672 0.736C10.67 0.276 10.393 0 9.929 0Z" fill="rgb(0,134,255)" fill-opacity="1.000" fill-rule="nonzero" transform="matrix(1 0 0 1 72.0597 22.2529)"/><path d="M7.634 7.859L4.71 7.859C3.69 7.859 3.155 7.33 3.155 6.32L3.155 0.736C3.155 0.276 2.877 0 2.413 0L0.743 0C0.279 0 0 0.276 0 0.736L0 6.71C0 9.17 1.509 10.663 3.99 10.663L7.633 10.663C8.096 10.663 8.375 10.387 8.375 9.927L8.375 8.595C8.377 8.135 8.098 7.859 7.634 7.859Z" fill="rgb(0,134,255)" fill-opacity="1.000" fill-rule="nonzero" transform="matrix(1 0 0 1 63.0337 22.2529)"/><path d="M12.392 0.713C12.346 0.23 12.09 0 11.626 0L10.396 0C10.003 0 9.724 0.16 9.515 0.506L6.523 5.515L3.74 0.506C3.555 0.16 3.253 0 2.859 0L1.537 0C1.073 0 0.818 0.23 0.771 0.713L0.005 9.904C-0.041 10.41 0.214 10.663 0.701 10.663L2.186 10.663C2.65 10.663 2.929 10.433 2.952 9.95L3.278 4.802L5.063 7.996C5.249 8.34 5.551 8.502 5.944 8.502L6.966 8.502C7.359 8.502 7.638 8.365 7.847 7.996L9.864 4.573L10.096 9.95C10.119 10.433 10.375 10.663 10.839 10.663L12.439 10.663C12.926 10.663 13.182 10.41 13.135 9.904L12.392 0.713Z" fill="rgb(0,134,255)" fill-opacity="1.000" fill-rule="nonzero" transform="matrix(1 0 0 1 11 22.2529)"/><path d="M5.754 8.481C4.107 8.481 3.064 7.355 3.064 5.608C3.064 3.839 4.153 2.688 5.754 2.688C7.401 2.688 8.445 3.814 8.445 5.561C8.444 7.332 7.354 8.481 5.754 8.481ZM10.74 0.253L9.463 0.253C9.023 0.253 8.721 0.483 8.652 0.919L8.582 1.448C7.863 0.689 6.82 0 5.08 0C2.156 0 0 2.275 0 5.561C0 8.778 2.017 11.169 4.894 11.169C6.703 11.169 7.886 10.41 8.606 9.63L8.722 10.273C8.792 10.686 9.071 10.916 9.512 10.916L10.741 10.916C11.205 10.916 11.484 10.64 11.484 10.18L11.484 0.989C11.482 0.529 11.205 0.253 10.74 0.253Z" fill="rgb(0,134,255)" fill-opacity="1.000" fill-rule="nonzero" transform="matrix(1 0 0 1 50.1384 22)"/><path d="M5.752 8.135C4.152 8.135 3.062 7.079 3.062 5.447C3.062 3.723 4.198 2.69 5.752 2.69C7.352 2.69 8.444 3.632 8.444 5.401C8.444 6.986 7.307 8.135 5.752 8.135ZM10.74 0.253L9.463 0.253C9.023 0.253 8.721 0.483 8.652 0.919L8.582 1.448C7.863 0.689 6.818 0 5.08 0C2.156 0 0 2.138 0 5.424C0 8.549 1.994 10.755 4.871 10.755C6.656 10.755 7.724 10.02 8.444 9.24L8.444 9.769C8.444 11.607 7.399 12.779 5.196 12.779C4.269 12.779 3.433 12.595 2.575 12.227C2.134 12.02 1.785 12.111 1.577 12.549L1.066 13.561C0.858 13.974 0.928 14.32 1.322 14.549C2.551 15.239 4.058 15.515 5.52 15.515C9.163 15.515 11.482 13.24 11.482 10.068L11.482 0.99C11.482 0.529 11.204 0.253 10.74 0.253Z" fill="rgb(0,134,255)" fill-opacity="1.000" fill-rule="nonzero" transform="matrix(1 0 0 1 37.5429 22)"/><path d="M5.752 8.481C4.105 8.481 3.062 7.355 3.062 5.608C3.062 3.839 4.152 2.688 5.752 2.688C7.399 2.688 8.444 3.814 8.444 5.561C8.442 7.332 7.352 8.481 5.752 8.481ZM10.74 0.253L9.463 0.253C9.023 0.253 8.721 0.483 8.652 0.919L8.582 1.448C7.863 0.689 6.818 0 5.08 0C2.156 0 0 2.275 0 5.561C0 8.778 2.017 11.169 4.894 11.169C6.703 11.169 7.886 10.41 8.605 9.63L8.722 10.273C8.792 10.686 9.071 10.916 9.512 10.916L10.741 10.916C11.205 10.916 11.484 10.64 11.484 10.18L11.484 0.989C11.481 0.529 11.204 0.253 10.74 0.253Z" fill="rgb(0,134,255)" fill-opacity="1.000" fill-rule="nonzero" transform="matrix(1 0 0 1 24.9475 22)"/><path d="M7.882 8.808C8.586 8.049 8.938 6.973 8.938 5.576C8.938 4.164 8.592 3.057 7.903 2.253C7.214 1.45 6.294 1.046 5.146 1.046C4.366 1.046 3.671 1.202 3.067 1.513C2.462 1.823 1.994 2.242 1.665 2.764C1.337 3.286 1.172 3.86 1.172 4.483L1.172 6.373C1.172 7.041 1.337 7.648 1.665 8.195C1.994 8.74 2.455 9.17 3.044 9.481C3.633 9.792 4.297 9.947 5.031 9.947C6.228 9.947 7.177 9.567 7.882 8.808ZM0 14.796L0 0.615C0 0.372 0.122 0.251 0.367 0.251L0.574 0.251C0.805 0.251 0.941 0.35 0.988 0.547C1.065 0.942 1.118 1.488 1.148 2.185C1.547 1.503 2.101 0.967 2.814 0.58C3.526 0.193 4.333 0 5.238 0C6.218 0 7.077 0.231 7.811 0.694C8.547 1.157 9.113 1.802 9.512 2.629C9.91 3.455 10.109 4.416 10.109 5.508C10.109 6.586 9.902 7.542 9.488 8.377C9.075 9.211 8.489 9.856 7.731 10.311C6.974 10.765 6.111 10.994 5.146 10.994C4.289 10.994 3.508 10.807 2.803 10.436C2.099 10.064 1.555 9.56 1.172 8.922L1.172 14.794C1.172 15.037 1.05 15.158 0.805 15.158L0.367 15.158C0.124 15.159 0 15.037 0 14.796Z" fill="rgb(110,114,118)" fill-opacity="1.000" fill-rule="nonzero" transform="matrix(1 0 0 1 85.5213 22.0875)"/><path d="M7.032 9.504C7.63 9.193 8.093 8.772 8.422 8.241C8.751 7.71 8.916 7.133 8.916 6.51L8.916 4.621C8.916 3.953 8.756 3.346 8.434 2.799C8.112 2.253 7.66 1.823 7.079 1.513C6.496 1.202 5.839 1.046 5.103 1.046C3.908 1.046 2.955 1.427 2.243 2.185C1.53 2.944 1.175 4.022 1.175 5.417C1.175 6.844 1.515 7.96 2.198 8.763C2.879 9.568 3.802 9.97 4.966 9.97C5.745 9.972 6.434 9.816 7.032 9.504ZM2.298 10.301C1.562 9.838 0.996 9.19 0.598 8.355C0.198 7.52 0 6.565 0 5.487C0 4.394 0.21 3.435 0.632 2.607C1.053 1.78 1.644 1.139 2.402 0.683C3.159 0.228 4.022 0 4.986 0C5.829 0 6.598 0.185 7.296 0.557C7.993 0.929 8.532 1.433 8.916 2.071C8.946 1.404 9.008 0.903 9.1 0.569C9.146 0.355 9.275 0.25 9.49 0.25L9.72 0.25C9.966 0.25 10.087 0.372 10.087 0.613L10.087 10.379C10.087 10.622 9.964 10.742 9.72 10.742L9.537 10.742C9.322 10.742 9.191 10.636 9.146 10.423C9.039 9.893 8.986 9.354 8.986 8.806C8.587 9.489 8.028 10.025 7.309 10.412C6.588 10.798 5.769 10.992 4.851 10.992C3.883 10.995 3.034 10.764 2.298 10.301Z" fill="rgb(110,114,118)" fill-opacity="1.000" fill-rule="nonzero" transform="matrix(1 0 0 1 96.8722 22.0859)"/><path d="M2.897 14.784C2.85 14.7 2.85 14.597 2.897 14.477L4.643 10.22L0.047 0.431L0 0.25C0 0.083 0.107 0 0.322 0L0.828 0C1.027 0 1.165 0.091 1.242 0.273L5.217 8.968L8.733 0.273C8.793 0.091 8.931 0 9.146 0L9.675 0C9.814 0 9.905 0.041 9.951 0.126C9.997 0.21 9.997 0.311 9.951 0.433L4.024 14.637C3.962 14.819 3.825 14.91 3.61 14.91L3.173 14.91C3.036 14.91 2.944 14.867 2.897 14.784Z" fill="rgb(110,114,118)" fill-opacity="1.000" fill-rule="nonzero" transform="matrix(1 0 0 1 108.0142 22.3372)"/></svg>