<svg xmlns="http://www.w3.org/2000/svg" viewBox="0 0 60 60" width="60" height="60"><path d="M0 0L60 0L60 60L0 60L0 0Z" fill="rgb(0,134,255)" fill-opacity="1.000" fill-rule="nonzero" transform="matrix(1 0 0 1 0 0)"/><path d="M6.81 0L5.696 0C5.378 0 5.187 0.189 5.187 0.505L5.187 3.768C5.187 4.966 4.534 5.643 3.628 5.643C2.674 5.643 2.132 5.028 2.132 3.846L2.132 0.505C2.132 0.189 1.941 0 1.623 0L0.509 0C0.191 0 0 0.189 0 0.505L0 4.003C0 6.226 1.162 7.487 2.912 7.487C3.961 7.487 4.774 7.14 5.346 6.431L5.441 6.872C5.505 7.155 5.695 7.313 5.998 7.313L6.81 7.313C7.128 7.313 7.319 7.124 7.319 6.809L7.319 0.505C7.318 0.189 7.128 0 6.81 0Z" fill="rgb(255,255,255)" fill-opacity="1.000" fill-rule="nonzero" transform="matrix(1 0 0 1 46.8779 21.1735)"/><path d="M5.236 5.39L3.231 5.39C2.531 5.39 2.164 5.027 2.164 4.335L2.164 0.505C2.164 0.189 1.973 0 1.655 0L0.509 0C0.191 0 0 0.189 0 0.505L0 4.602C0 6.289 1.035 7.313 2.736 7.313L5.235 7.313C5.553 7.313 5.744 7.124 5.744 6.809L5.744 5.895C5.745 5.579 5.554 5.39 5.236 5.39Z" fill="rgb(255,255,255)" fill-opacity="1.000" fill-rule="nonzero" transform="matrix(1 0 0 1 40.6866 21.1735)"/><path d="M8.499 0.489C8.467 0.158 8.292 0 7.974 0L7.13 0C6.86 0 6.669 0.11 6.526 0.347L4.474 3.782L2.565 0.347C2.438 0.11 2.231 0 1.961 0L1.054 0C0.736 0 0.561 0.158 0.529 0.489L0.004 6.793C-0.028 7.14 0.147 7.313 0.481 7.313L1.5 7.313C1.818 7.313 2.009 7.155 2.025 6.824L2.248 3.294L3.473 5.484C3.6 5.72 3.807 5.831 4.077 5.831L4.777 5.831C5.047 5.831 5.239 5.737 5.382 5.484L6.765 3.136L6.924 6.824C6.94 7.155 7.115 7.313 7.434 7.313L8.531 7.313C8.865 7.313 9.04 7.14 9.008 6.793L8.499 0.489Z" fill="rgb(255,255,255)" fill-opacity="1.000" fill-rule="nonzero" transform="matrix(1 0 0 1 5.0001 21.1735)"/><path d="M3.946 5.816C2.817 5.816 2.101 5.044 2.101 3.846C2.101 2.633 2.849 1.844 3.946 1.844C5.076 1.844 5.792 2.616 5.792 3.814C5.791 5.028 5.044 5.816 3.946 5.816ZM7.366 0.173L6.49 0.173C6.188 0.173 5.981 0.331 5.934 0.63L5.886 0.993C5.393 0.473 4.677 0 3.484 0C1.479 0 0 1.56 0 3.814C0 6.02 1.384 7.66 3.357 7.66C4.597 7.66 5.409 7.14 5.902 6.604L5.982 7.045C6.03 7.329 6.221 7.487 6.523 7.487L7.367 7.487C7.685 7.487 7.876 7.297 7.876 6.982L7.876 0.678C7.875 0.363 7.685 0.173 7.366 0.173Z" fill="rgb(255,255,255)" fill-opacity="1.000" fill-rule="nonzero" transform="matrix(1 0 0 1 31.843 21)"/><path d="M3.945 5.579C2.847 5.579 2.1 4.855 2.1 3.736C2.1 2.553 2.879 1.845 3.945 1.845C5.043 1.845 5.791 2.491 5.791 3.704C5.791 4.791 5.012 5.579 3.945 5.579ZM7.366 0.173L6.49 0.173C6.188 0.173 5.981 0.331 5.934 0.63L5.886 0.993C5.393 0.473 4.676 0 3.484 0C1.479 0 0 1.466 0 3.72C0 5.863 1.368 7.377 3.341 7.377C4.565 7.377 5.298 6.872 5.791 6.337L5.791 6.7C5.791 7.96 5.075 8.764 3.564 8.764C2.928 8.764 2.354 8.638 1.766 8.386C1.464 8.244 1.225 8.306 1.082 8.607L0.731 9.301C0.588 9.584 0.636 9.821 0.906 9.979C1.75 10.451 2.783 10.641 3.786 10.641C6.284 10.641 7.875 9.081 7.875 6.905L7.875 0.679C7.875 0.363 7.684 0.173 7.366 0.173Z" fill="rgb(255,255,255)" fill-opacity="1.000" fill-rule="nonzero" transform="matrix(1 0 0 1 23.2044 21)"/><path d="M3.945 5.816C2.815 5.816 2.1 5.044 2.1 3.846C2.1 2.633 2.847 1.844 3.945 1.844C5.075 1.844 5.791 2.616 5.791 3.814C5.79 5.028 5.043 5.816 3.945 5.816ZM7.366 0.173L6.49 0.173C6.188 0.173 5.981 0.331 5.934 0.63L5.886 0.993C5.393 0.473 4.676 0 3.484 0C1.479 0 0 1.56 0 3.814C0 6.02 1.384 7.66 3.357 7.66C4.597 7.66 5.409 7.14 5.902 6.604L5.982 7.045C6.03 7.329 6.221 7.487 6.523 7.487L7.367 7.487C7.685 7.487 7.876 7.297 7.876 6.982L7.876 0.678C7.874 0.363 7.684 0.173 7.366 0.173Z" fill="rgb(255,255,255)" fill-opacity="1.000" fill-rule="nonzero" transform="matrix(1 0 0 1 14.5657 21)"/><path d="M5.405 6.041C5.888 5.52 6.13 4.782 6.13 3.824C6.13 2.856 5.893 2.096 5.42 1.545C4.948 0.994 4.317 0.718 3.529 0.718C2.994 0.718 2.518 0.824 2.104 1.037C1.688 1.251 1.368 1.537 1.142 1.896C0.917 2.254 0.804 2.647 0.804 3.075L0.804 4.371C0.804 4.829 0.917 5.245 1.142 5.62C1.368 5.994 1.683 6.289 2.087 6.502C2.491 6.716 2.947 6.822 3.451 6.822C4.271 6.822 4.922 6.561 5.405 6.041ZM0 10.148L0 0.422C0 0.255 0.084 0.172 0.252 0.172L0.394 0.172C0.552 0.172 0.645 0.24 0.678 0.375C0.73 0.646 0.767 1.02 0.787 1.499C1.061 1.031 1.441 0.663 1.93 0.398C2.418 0.133 2.972 0 3.593 0C4.264 0 4.854 0.159 5.357 0.476C5.862 0.794 6.25 1.236 6.524 1.803C6.797 2.37 6.933 3.028 6.933 3.778C6.933 4.517 6.791 5.172 6.507 5.745C6.224 6.318 5.822 6.76 5.302 7.072C4.783 7.383 4.191 7.54 3.529 7.54C2.941 7.54 2.406 7.412 1.923 7.158C1.44 6.903 1.067 6.557 0.804 6.119L0.804 10.146C0.804 10.313 0.72 10.396 0.552 10.396L0.252 10.396C0.085 10.397 0 10.313 0 10.148Z" fill="rgb(255,255,255)" fill-opacity="1.000" fill-rule="nonzero" transform="matrix(1 0 0 1 32.4336 30.6028)"/><path d="M4.823 6.518C5.233 6.305 5.551 6.016 5.776 5.652C6.002 5.288 6.115 4.892 6.115 4.465L6.115 3.169C6.115 2.711 6.005 2.295 5.784 1.92C5.563 1.545 5.253 1.251 4.855 1.037C4.456 0.824 4.005 0.718 3.5 0.718C2.68 0.718 2.027 0.978 1.538 1.499C1.049 2.019 0.806 2.759 0.806 3.715C0.806 4.694 1.039 5.459 1.507 6.01C1.974 6.562 2.607 6.838 3.406 6.838C3.94 6.839 4.413 6.733 4.823 6.518ZM1.576 7.065C1.071 6.747 0.683 6.303 0.41 5.73C0.136 5.158 0 4.502 0 3.763C0 3.014 0.144 2.356 0.434 1.788C0.722 1.221 1.128 0.781 1.647 0.468C2.167 0.156 2.758 0 3.42 0C3.998 0 4.525 0.127 5.004 0.382C5.482 0.637 5.852 0.983 6.115 1.421C6.136 0.963 6.178 0.619 6.241 0.39C6.273 0.244 6.361 0.171 6.509 0.171L6.667 0.171C6.835 0.171 6.918 0.255 6.918 0.421L6.918 7.118C6.918 7.285 6.834 7.367 6.667 7.367L6.541 7.367C6.393 7.367 6.304 7.295 6.273 7.149C6.2 6.785 6.163 6.415 6.163 6.04C5.889 6.508 5.506 6.875 5.013 7.141C4.518 7.406 3.957 7.539 3.327 7.539C2.663 7.541 2.081 7.382 1.576 7.065Z" fill="rgb(255,255,255)" fill-opacity="1.000" fill-rule="nonzero" transform="matrix(1 0 0 1 40.219 30.6018)"/><path d="M1.987 10.14C1.955 10.082 1.955 10.011 1.987 9.929L3.184 7.009L0.032 0.296L0 0.171C0 0.057 0.073 0 0.221 0L0.568 0C0.704 0 0.799 0.062 0.852 0.187L3.578 6.151L5.989 0.187C6.03 0.062 6.125 0 6.273 0L6.636 0C6.731 0 6.794 0.028 6.825 0.086C6.857 0.144 6.857 0.213 6.825 0.297L2.76 10.039C2.717 10.163 2.623 10.226 2.476 10.226L2.176 10.226C2.082 10.226 2.019 10.196 1.987 10.14Z" fill="rgb(255,255,255)" fill-opacity="1.000" fill-rule="nonzero" transform="matrix(1 0 0 1 47.8597 30.7742)"/></svg>