<svg xmlns="http://www.w3.org/2000/svg" viewBox="0 0 130 60" width="130" height="60"><path d="M0 0L130 0L130 60L0 60L0 0Z" fill="rgb(255,255,255)" fill-opacity="1.000" fill-rule="nonzero" transform="matrix(1 0 0 1 0 0)"/><path d="M10.042 8.88L10.042 4.911C10.042 3.413 9.087 2.405 7.549 2.392C7.111 2.364 6.674 2.453 6.283 2.652C5.891 2.85 5.56 3.15 5.324 3.519C5.109 3.161 4.801 2.866 4.432 2.668C4.064 2.47 3.649 2.374 3.231 2.392C2.867 2.374 2.505 2.452 2.18 2.617C1.855 2.783 1.579 3.03 1.379 3.334L1.379 2.54L0 2.54L0 8.88L1.392 8.88L1.392 5.369C1.392 4.268 2 3.686 2.942 3.686C3.884 3.686 4.321 4.281 4.321 5.356L4.321 8.88L5.705 8.88L5.705 5.369C5.705 4.268 6.34 3.686 7.256 3.686C8.171 3.686 8.647 4.281 8.647 5.356L8.647 8.88L10.042 8.88ZM30.637 2.546L28.385 2.546L28.385 0.624L26.993 0.624L26.993 2.546L25.707 2.546L25.707 3.805L26.993 3.805L26.993 6.692C26.993 8.163 27.562 9.039 29.192 9.039C29.801 9.041 30.398 8.871 30.914 8.55L30.517 7.369C30.148 7.59 29.728 7.713 29.298 7.727C28.61 7.727 28.382 7.303 28.382 6.668L28.382 3.805L30.634 3.805L30.637 2.546ZM42.393 2.387C42.057 2.377 41.724 2.458 41.431 2.622C41.137 2.785 40.892 3.025 40.723 3.316L40.723 2.546L39.358 2.546L39.358 8.88L40.737 8.88L40.737 5.329C40.737 4.271 41.187 3.699 42.089 3.699C42.384 3.695 42.677 3.749 42.951 3.858L43.375 2.559C43.06 2.446 42.728 2.388 42.393 2.387ZM24.619 3.048C23.839 2.585 22.941 2.355 22.034 2.387C20.431 2.387 19.388 3.157 19.388 4.414C19.388 5.448 20.155 6.083 21.574 6.282L22.222 6.374C22.976 6.48 23.336 6.679 23.336 7.036C23.336 7.526 22.833 7.806 21.891 7.806C21.131 7.83 20.385 7.597 19.774 7.144L19.147 8.216C19.95 8.777 20.912 9.066 21.891 9.039C23.72 9.039 24.781 8.176 24.781 6.972C24.781 5.858 23.945 5.276 22.569 5.078L21.92 4.985C21.325 4.906 20.846 4.787 20.846 4.363C20.846 3.9 21.296 3.623 22.053 3.623C22.746 3.633 23.425 3.819 24.027 4.165L24.619 3.048ZM61.538 2.387C61.202 2.377 60.869 2.458 60.575 2.622C60.281 2.785 60.037 3.025 59.868 3.316L59.868 2.546L58.503 2.546L58.503 8.88L59.881 8.88L59.881 5.329C59.881 4.271 60.331 3.699 61.233 3.699C61.529 3.695 61.822 3.749 62.096 3.858L62.519 2.559C62.204 2.446 61.872 2.388 61.538 2.387ZM43.785 5.713C43.785 7.634 45.124 9.039 47.164 9.039C47.991 9.08 48.804 8.81 49.442 8.282L48.781 7.168C48.304 7.531 47.723 7.731 47.124 7.737C46.024 7.737 45.217 6.927 45.217 5.71C45.217 4.493 46.026 3.697 47.124 3.683C47.723 3.69 48.304 3.889 48.781 4.252L49.442 3.138C48.804 2.611 47.991 2.341 47.164 2.381C45.124 2.381 43.785 3.787 43.785 5.708L43.785 5.713ZM56.693 5.713L56.693 2.538L55.314 2.538L55.314 3.308C55.079 3.004 54.775 2.762 54.427 2.6C54.079 2.439 53.697 2.363 53.314 2.379C51.538 2.379 50.138 3.771 50.138 5.705C50.138 7.639 51.53 9.031 53.314 9.031C53.697 9.047 54.079 8.971 54.427 8.81C54.775 8.648 55.079 8.406 55.314 8.102L55.314 8.87L56.693 8.87L56.693 5.713ZM51.565 5.713C51.565 4.599 52.292 3.686 53.486 3.686C54.626 3.686 55.393 4.562 55.393 5.713C55.393 6.864 54.626 7.74 53.486 7.74C52.292 7.74 51.565 6.824 51.565 5.713ZM34.931 2.387C33.079 2.387 31.777 3.739 31.777 5.713C31.777 7.727 33.129 9.039 35.024 9.039C35.97 9.072 36.895 8.756 37.622 8.15L36.947 7.129C36.421 7.55 35.769 7.783 35.095 7.79C34.206 7.79 33.399 7.38 33.201 6.24L37.905 6.24C37.919 6.068 37.932 5.896 37.932 5.71C37.932 3.736 36.699 2.384 34.923 2.384L34.931 2.387ZM34.905 3.62C35.794 3.62 36.363 4.176 36.508 5.157L33.224 5.157C33.37 4.242 33.926 3.62 34.907 3.62L34.905 3.62ZM69.476 5.713L69.476 0L68.097 0L68.097 3.313C67.862 3.01 67.558 2.767 67.21 2.605C66.862 2.444 66.48 2.368 66.097 2.384C64.321 2.384 62.922 3.776 62.922 5.71C62.922 7.645 64.313 9.036 66.097 9.036C66.48 9.053 66.862 8.977 67.21 8.815C67.558 8.654 67.862 8.411 68.097 8.108L68.097 8.875L69.476 8.875L69.476 5.713ZM71.087 8.296C71.142 8.295 71.196 8.306 71.246 8.327C71.295 8.348 71.339 8.378 71.376 8.415C71.413 8.451 71.442 8.494 71.463 8.542C71.484 8.591 71.495 8.644 71.495 8.698C71.495 8.751 71.484 8.805 71.463 8.854C71.442 8.901 71.413 8.944 71.376 8.981C71.338 9.018 71.294 9.047 71.246 9.068C71.196 9.09 71.142 9.1 71.087 9.1C71.007 9.101 70.928 9.078 70.86 9.034C70.792 8.991 70.739 8.928 70.706 8.854C70.685 8.805 70.674 8.751 70.674 8.698C70.674 8.644 70.685 8.591 70.706 8.542C70.748 8.444 70.826 8.367 70.923 8.327C70.977 8.305 71.035 8.294 71.093 8.296L71.087 8.296ZM71.087 9.01C71.129 9.011 71.171 9.003 71.209 8.986C71.246 8.97 71.279 8.948 71.307 8.92C71.366 8.861 71.399 8.781 71.399 8.698C71.399 8.614 71.366 8.534 71.307 8.475C71.279 8.447 71.246 8.425 71.209 8.409C71.171 8.393 71.129 8.385 71.087 8.385C71.045 8.385 71.002 8.393 70.963 8.409C70.916 8.429 70.874 8.461 70.842 8.501C70.81 8.541 70.788 8.588 70.778 8.638C70.768 8.688 70.77 8.74 70.785 8.79C70.8 8.839 70.826 8.883 70.863 8.92C70.891 8.948 70.926 8.971 70.963 8.986C71.004 9.003 71.048 9.011 71.093 9.01L71.087 9.01ZM71.111 8.507C71.151 8.504 71.19 8.516 71.222 8.539C71.235 8.549 71.246 8.563 71.253 8.578C71.26 8.593 71.263 8.61 71.262 8.626C71.263 8.641 71.26 8.655 71.255 8.668C71.249 8.681 71.241 8.693 71.23 8.703C71.206 8.725 71.175 8.738 71.143 8.74L71.265 8.88L71.169 8.88L71.056 8.74L71.019 8.74L71.019 8.88L70.939 8.88L70.939 8.51L71.111 8.507ZM71.019 8.576L71.019 8.677L71.111 8.677C71.128 8.681 71.145 8.681 71.162 8.677C71.168 8.672 71.172 8.667 71.176 8.66C71.179 8.654 71.18 8.647 71.18 8.64C71.18 8.632 71.179 8.625 71.176 8.619C71.172 8.612 71.168 8.607 71.162 8.602C71.145 8.598 71.128 8.598 71.111 8.602L71.019 8.576ZM64.353 5.713C64.353 4.599 65.081 3.686 66.274 3.686C67.415 3.686 68.182 4.562 68.182 5.713C68.182 6.864 67.415 7.74 66.274 7.74C65.081 7.74 64.353 6.824 64.353 5.713ZM17.808 5.713L17.808 2.538L16.43 2.538L16.43 3.308C16.195 3.007 15.891 2.767 15.545 2.606C15.198 2.446 14.819 2.371 14.437 2.387C12.662 2.387 11.262 3.779 11.262 5.713C11.262 7.647 12.654 9.039 14.437 9.039C14.82 9.055 15.202 8.979 15.55 8.818C15.898 8.656 16.203 8.414 16.438 8.11L16.438 8.878L17.816 8.878L17.808 5.713ZM12.68 5.713C12.68 4.599 13.408 3.686 14.601 3.686C15.742 3.686 16.509 4.562 16.509 5.713C16.509 6.864 15.742 7.74 14.601 7.74C13.408 7.74 12.68 6.827 12.68 5.713Z" fill="rgb(35,31,32)" fill-opacity="1.000" fill-rule="nonzero" transform="matrix(1 0 0 1 47.671 23.8526)"/><path d="M8.335 0L0 0L0 14.98L8.335 14.98L8.335 0Z" fill="rgb(255,95,0)" fill-opacity="1.000" fill-rule="nonzero" transform="matrix(1 0 0 1 21.7444 22.0347)"/><path d="M11.774 9.525C11.773 8.082 12.1 6.658 12.73 5.361C13.36 4.064 14.277 2.927 15.412 2.036C14.007 0.932 12.319 0.245 10.542 0.054C8.765 -0.136 6.97 0.177 5.362 0.958C3.755 1.739 2.399 2.957 1.451 4.472C0.503 5.987 0 7.739 0 9.526C0 11.313 0.503 13.065 1.451 14.58C2.399 16.095 3.755 17.313 5.362 18.094C6.97 18.875 8.765 19.188 10.542 18.998C12.319 18.807 14.007 18.12 15.412 17.016C14.277 16.125 13.36 14.987 12.729 13.69C12.099 12.392 11.772 10.967 11.774 9.525Z" fill="rgb(235,0,27)" fill-opacity="1.000" fill-rule="nonzero" transform="matrix(1 0 0 1 10.5 20.004)"/><path d="M15.414 9.528C15.413 11.316 14.911 13.067 13.962 14.582C13.014 16.098 11.658 17.315 10.05 18.096C8.443 18.878 6.647 19.191 4.87 19C3.093 18.809 1.405 18.122 0 17.017C1.134 16.125 2.051 14.988 2.682 13.691C3.312 12.393 3.64 10.97 3.64 9.527C3.64 8.085 3.312 6.661 2.682 5.363C2.051 4.066 1.134 2.929 0 2.037C1.405 0.932 3.093 0.245 4.871 0.054C6.648 -0.136 8.444 0.177 10.052 0.958C11.659 1.74 13.015 2.958 13.963 4.473C14.911 5.989 15.414 7.741 15.414 9.528Z" fill="rgb(247,158,27)" fill-opacity="1.000" fill-rule="nonzero" transform="matrix(1 0 0 1 25.9119 20)"/><path d="M0.185 0.37L0.185 0.064L0.31 0.064L0.31 0.003L0 0.003L0 0.066L0.124 0.066L0.124 0.373L0.185 0.37ZM0.796 0.37L0.796 0L0.714 0L0.603 0.265L0.492 0L0.394 0L0.394 0.37L0.45 0.37L0.45 0.093L0.553 0.333L0.624 0.333L0.728 0.093L0.728 0.373L0.796 0.37Z" fill="rgb(247,158,27)" fill-opacity="1.000" fill-rule="nonzero" transform="matrix(1 0 0 1 40.2247 35.0561)"/></svg>