<svg xmlns="http://www.w3.org/2000/svg" viewBox="0 0 60 60" width="60" height="60"><path d="M0 0L60 0L60 60L0 60L0 0Z" fill="rgb(255,255,255)" fill-opacity="1.000" fill-rule="nonzero" transform="matrix(1 0 0 1 0 0)"/><path d="M49.744 0L0 0L0 32.9L49.744 32.9L49.744 0Z" fill="rgb(255,255,255)" fill-opacity="1.000" fill-rule="nonzero" transform="matrix(1 0 0 1 5.5 14)"/><path d="M13.122 0L0 0L0 21.432L13.122 21.432L13.122 0Z" fill="rgb(255,95,0)" fill-opacity="1.000" fill-rule="nonzero" transform="matrix(1 0 0 1 23.8129 19.7319)"/><path d="M16.846 13.628C16.844 11.564 17.312 9.527 18.214 7.671C19.115 5.814 20.428 4.187 22.051 2.913C20.041 1.333 17.626 0.351 15.083 0.078C12.54 -0.195 9.972 0.253 7.672 1.371C5.372 2.489 3.433 4.231 2.076 6.399C0.719 8.566 0 11.072 0 13.629C0 16.187 0.719 18.692 2.076 20.86C3.433 23.028 5.372 24.77 7.672 25.888C9.972 27.006 12.54 27.454 15.083 27.181C17.626 26.908 20.041 25.926 22.051 24.346C20.427 23.071 19.115 21.444 18.213 19.587C17.311 17.73 16.843 15.692 16.846 13.628Z" fill="rgb(235,0,27)" fill-opacity="1.000" fill-rule="nonzero" transform="matrix(1 0 0 1 8.3187 16.8224)"/><path d="M0.261 0.53L0.261 0.091L0.451 0.091L0.451 0L0 0L0 0.091L0.178 0.091L0.178 0.53L0.261 0.53ZM1.136 0.53L1.136 0L0.999 0L0.84 0.379L0.681 0L0.545 0L0.545 0.53L0.644 0.53L0.644 0.129L0.791 0.473L0.893 0.473L1.041 0.129L1.041 0.53L1.136 0.53Z" fill="rgb(247,158,27)" fill-opacity="1.000" fill-rule="nonzero" transform="matrix(1 0 0 1 50.8599 38.3664)"/><path d="M22.053 13.633C22.053 16.19 21.334 18.696 19.977 20.864C18.62 23.032 16.68 24.774 14.38 25.892C12.079 27.009 9.511 27.457 6.968 27.184C4.425 26.911 2.011 25.928 0 24.347C1.623 23.072 2.935 21.445 3.837 19.588C4.739 17.732 5.208 15.695 5.208 13.631C5.208 11.567 4.739 9.53 3.837 7.674C2.935 5.817 1.623 4.19 0 2.915C2.011 1.334 4.425 0.351 6.968 0.078C9.511 -0.195 12.079 0.253 14.38 1.37C16.68 2.488 18.62 4.23 19.977 6.398C21.334 8.566 22.053 11.072 22.053 13.629L22.053 13.633Z" fill="rgb(247,158,27)" fill-opacity="1.000" fill-rule="nonzero" transform="matrix(1 0 0 1 30.3697 16.8171)"/></svg>