<svg xmlns="http://www.w3.org/2000/svg" viewBox="0 0 60 60" width="60" height="60"><path d="M0 0L60 0L60 60L0 60L0 0Z" fill="rgb(43,117,180)" fill-opacity="1.000" fill-rule="nonzero" transform="matrix(1 0 0 1 0 0)"/><path d="M30.648 2.554C27.207 7.544 21.537 10.523 15.481 10.523C9.425 10.523 3.722 7.526 0.281 2.509C0.039 2.155 -0.052 1.729 0.028 1.308C0.106 0.887 0.344 0.522 0.698 0.281C0.965 0.097 1.278 0 1.602 0C2.131 0 2.626 0.261 2.926 0.697C5.767 4.843 10.461 7.319 15.481 7.319C20.501 7.319 25.166 4.858 28.01 0.736C28.308 0.302 28.802 0.043 29.331 0.043C29.657 0.043 29.973 0.14 30.24 0.326C30.592 0.57 30.83 0.935 30.907 1.356C30.985 1.777 30.892 2.202 30.651 2.556L30.648 2.554Z" fill="rgb(255,255,255)" fill-opacity="1.000" fill-rule="nonzero" transform="matrix(1 0 0 -1 15 23.5232)"/><path d="M22.603 12.482C22.12 18.67 17.281 23.338 11.348 23.338C5.091 23.338 0 18.082 0 11.622C0 5.162 5.091 0 11.348 0C15.187 0 18.719 1.98 20.803 5.307C21.23 6.039 21.023 6.946 20.278 7.486C20.043 7.626 19.771 7.701 19.488 7.701C18.942 7.701 18.454 7.423 18.184 6.963C16.759 4.588 14.14 3.113 11.346 3.113C7.097 3.113 3.578 6.453 3.144 10.8L21.047 10.8C21.919 10.8 22.603 11.443 22.603 12.264L22.603 12.482ZM11.348 20.224C15.092 20.224 18.316 17.581 19.205 13.863L3.362 13.863C4.329 17.635 7.542 20.224 11.346 20.224L11.348 20.224Z" fill="rgb(255,255,255)" fill-opacity="1.000" fill-rule="nonzero" transform="matrix(1 0 0 -1 19.1621 46.8518)"/></svg>