<svg xmlns="http://www.w3.org/2000/svg" viewBox="0 0 130 60" width="130" height="60"><path d="M0 0L130 0L130 60L0 60L0 0Z" fill="rgb(255,255,255)" fill-opacity="1.000" fill-rule="nonzero" transform="matrix(1 0 0 1 0 0)"/><path d="M18.582 1.549C16.495 4.574 13.058 6.38 9.386 6.38C5.714 6.38 2.257 4.563 0.17 1.521C0.024 1.306 -0.031 1.049 0.017 0.793C0.064 0.538 0.208 0.317 0.423 0.17C0.585 0.059 0.775 0 0.971 0C1.292 0 1.592 0.158 1.774 0.423C3.497 2.936 6.342 4.438 9.386 4.438C12.429 4.438 15.258 2.945 16.982 0.446C17.163 0.183 17.463 0.026 17.783 0.026C17.981 0.026 18.172 0.085 18.334 0.198C18.548 0.346 18.692 0.567 18.739 0.822C18.786 1.077 18.73 1.335 18.583 1.55L18.582 1.549Z" fill="rgb(43,117,180)" fill-opacity="1.000" fill-rule="nonzero" transform="matrix(1 0 0 -1 31.8897 20.3801)"/><path d="M15.509 14.123C13.556 14.123 11.726 13.127 10.629 11.493C9.557 13.126 7.736 14.123 5.772 14.123C4.061 14.123 2.456 13.379 1.381 12.094C1.323 12.035 -0.009 10.603 0 8.545L0 0.733L0.014 0.69C0.137 0.323 0.461 0.041 0.802 0.003L0.999 0.003C1.054 0.001 1.135 0.001 1.217 0.044C1.308 0.071 1.389 0.122 1.44 0.164C1.703 0.326 1.859 0.605 1.859 0.916L1.859 8.324C1.859 10.496 3.613 12.263 5.77 12.263C7.927 12.263 9.682 10.496 9.682 8.324L9.682 0.664L9.709 0.636L9.709 0.581L9.746 0.543L9.748 0.516L9.764 0.499L9.764 0.305L9.926 0.305L9.985 0.246C10.017 0.215 10.074 0.157 10.157 0.128C10.159 0.127 10.162 0.124 10.165 0.123C10.2 0.099 10.252 0.064 10.319 0.044C10.362 0.02 10.419 0 10.485 0L10.624 0C10.779 0 10.932 0.038 11.101 0.123C11.188 0.175 11.454 0.335 11.553 0.634L11.568 0.677L11.568 0.7C11.584 0.738 11.595 0.783 11.595 0.833L11.595 8.324C11.595 10.496 13.349 12.263 15.507 12.263C17.664 12.263 19.393 10.53 19.446 8.324L19.446 0.916C19.446 0.42 19.864 0 20.362 0C20.859 0 21.306 0.411 21.306 0.916L21.306 8.324C21.306 11.521 18.705 14.123 15.507 14.123L15.509 14.123Z" fill="rgb(135,135,135)" fill-opacity="1.000" fill-rule="nonzero" transform="matrix(1 0 0 -1 9 34.5266)"/><path d="M13.704 7.567C13.411 11.319 10.477 14.149 6.88 14.149C3.087 14.149 0 10.963 0 7.046C0 3.13 3.087 0 6.88 0C9.208 0 11.349 1.2 12.612 3.218C12.872 3.661 12.746 4.211 12.294 4.538C12.152 4.623 11.987 4.669 11.815 4.669C11.484 4.669 11.188 4.5 11.025 4.222C10.161 2.782 8.573 1.888 6.879 1.888C4.303 1.888 2.169 3.913 1.906 6.548L12.76 6.548C13.289 6.548 13.704 6.938 13.704 7.435L13.704 7.567ZM6.88 12.262C9.15 12.262 11.104 10.659 11.644 8.405L2.038 8.405C2.625 10.692 4.572 12.262 6.879 12.262L6.88 12.262Z" fill="rgb(43,117,180)" fill-opacity="1.000" fill-rule="nonzero" transform="matrix(1 0 0 -1 34.4131 34.5239)"/><path d="M5.799 14.12C4.084 14.12 2.47 13.366 1.372 12.055C1.316 11.989 -0.019 10.428 0 8.541C0 8.486 0 8.323 0 8.323L0 0.665L0.036 0.628C0.045 0.585 0.063 0.533 0.101 0.482C0.224 0.258 0.445 0.082 0.701 0.01L0.944 0C1.236 0 1.502 0.131 1.659 0.352C1.78 0.484 1.818 0.639 1.851 0.766L1.859 0.798L1.859 8.317C1.911 10.477 3.679 12.235 5.798 12.235C7.917 12.235 9.709 10.481 9.709 8.324L9.709 0.944C9.709 0.415 10.124 0 10.653 0C11.182 0 11.597 0.415 11.597 0.944L11.597 8.324C11.597 11.521 8.996 14.123 5.798 14.123L5.799 14.12Z" fill="rgb(135,135,135)" fill-opacity="1.000" fill-rule="nonzero" transform="matrix(1 0 0 -1 52.5567 34.5239)"/><path d="M5.771 12.263C6.257 12.263 6.715 12.721 6.715 13.207C6.715 13.692 6.257 14.151 5.771 14.151L4.301 14.151L4.301 18.922C4.301 19.407 3.816 19.866 3.303 19.866C2.818 19.866 2.359 19.407 2.359 18.922L2.359 14.151L0.944 14.151C0 14.151 0 13.537 0 13.207C0 12.877 0 12.263 0.944 12.263L2.359 12.263L2.359 2.636C2.359 1.134 3.504 0 5.023 0C5.512 0 5.994 0.467 5.994 0.944C5.994 1.42 5.514 1.915 5.023 1.915C4.849 1.915 4.301 2.132 4.301 2.636L4.301 12.263L5.771 12.263Z" fill="rgb(135,135,135)" fill-opacity="1.000" fill-rule="nonzero" transform="matrix(1 0 0 -1 68.1473 34.5251)"/><path d="M6.714 14.149C3.012 14.149 0 10.976 0 7.075C0 3.174 3.012 0 6.714 0C10.416 0 13.428 3.174 13.428 7.075C13.428 10.976 10.416 14.149 6.714 14.149ZM6.714 1.886C4.053 1.886 1.888 4.214 1.888 7.074C1.888 9.934 4.099 12.289 6.714 12.289C9.329 12.289 11.542 9.901 11.542 7.074C11.542 4.246 9.377 1.886 6.714 1.886Z" fill="rgb(135,135,135)" fill-opacity="1.000" fill-rule="nonzero" transform="matrix(1 0 0 -1 79.6063 34.5239)"/><path d="M7.241 14.122C4.558 14.122 2.812 12.407 1.888 11.131L1.888 13.178C1.888 13.699 1.477 14.122 0.971 14.122C0.418 14.122 0 13.716 0 13.178L0 0.944C0 0.406 0.418 0 0.971 0C1.477 0 1.888 0.423 1.888 0.944L1.888 6.909C1.888 6.944 1.888 6.954 1.914 7.006L1.928 7.039C2.162 7.71 2.682 9.003 3.523 10.123C4.637 11.563 5.819 12.234 7.243 12.234C7.755 12.234 8.187 12.666 8.187 13.178C8.187 13.69 7.772 14.122 7.243 14.122L7.241 14.122Z" fill="rgb(135,135,135)" fill-opacity="1.000" fill-rule="nonzero" transform="matrix(1 0 0 -1 97.0288 34.5251)"/><path d="M13.704 7.567C13.411 11.319 10.477 14.149 6.88 14.149C3.087 14.149 0 10.963 0 7.046C0 3.13 3.087 0 6.88 0C9.208 0 11.349 1.2 12.614 3.218C12.873 3.661 12.747 4.211 12.296 4.538C12.153 4.623 11.988 4.669 11.817 4.669C11.485 4.669 11.19 4.5 11.026 4.222C10.162 2.782 8.574 1.888 6.88 1.888C4.304 1.888 2.172 3.913 1.907 6.548L12.762 6.548C13.291 6.548 13.706 6.938 13.706 7.435L13.706 7.567L13.704 7.567ZM6.88 12.262C9.15 12.262 11.106 10.659 11.645 8.405L2.039 8.405C2.626 10.692 4.574 12.262 6.88 12.262Z" fill="rgb(135,135,135)" fill-opacity="1.000" fill-rule="nonzero" transform="matrix(1 0 0 -1 106.8513 34.5239)"/><path d="M0 0L0 6.426L2.202 6.426C2.928 6.426 3.482 6.281 3.862 5.989C4.241 5.697 4.431 5.264 4.431 4.686C4.431 4.392 4.351 4.127 4.193 3.892C4.034 3.656 3.801 3.474 3.495 3.345C3.842 3.25 4.11 3.074 4.3 2.813C4.49 2.553 4.584 2.24 4.584 1.876C4.584 1.272 4.39 0.809 4.004 0.486C3.617 0.162 3.063 0 2.343 0L0 0ZM1.117 3.72L2.211 3.72C2.558 3.72 2.83 3.799 3.025 3.956C3.22 4.113 3.318 4.336 3.318 4.625C3.318 4.943 3.228 5.172 3.047 5.313C2.867 5.455 2.585 5.525 2.202 5.525L1.117 5.525L1.117 3.72ZM1.117 2.9L1.117 0.901L2.356 0.901C2.707 0.901 2.981 0.987 3.177 1.16C3.375 1.333 3.473 1.574 3.473 1.88C3.473 2.545 3.131 2.885 2.449 2.9L1.117 2.9Z" fill="rgb(135,135,135)" fill-opacity="1.000" fill-rule="nonzero" transform="matrix(1 0 0 -1 87.0168 44.9986)"/><path d="M4.172 1.496L1.682 1.496L1.161 0L0 0L2.427 6.426L3.428 6.426L5.861 0L4.696 0L4.171 1.496L4.172 1.496ZM1.996 2.397L3.859 2.397L2.928 5.062L1.998 2.397L1.996 2.397Z" fill="rgb(135,135,135)" fill-opacity="1.000" fill-rule="nonzero" transform="matrix(1 0 0 -1 95.5782 44.9986)"/><path d="M5.097 0L3.981 0L1.117 4.559L1.117 0L0 0L0 6.426L1.117 6.426L3.99 1.85L3.99 6.426L5.097 6.426L5.097 0Z" fill="rgb(135,135,135)" fill-opacity="1.000" fill-rule="nonzero" transform="matrix(1 0 0 -1 105.6032 44.9986)"/><path d="M1.844 2.778L1.117 2.005L1.117 0.001L0 0.001L0 6.427L1.117 6.427L1.117 3.413L1.734 4.176L3.614 6.426L4.965 6.426L2.577 3.579L5.101 0L3.778 0L1.844 2.776L1.844 2.778Z" fill="rgb(135,135,135)" fill-opacity="1.000" fill-rule="nonzero" transform="matrix(1 0 0 -1 115.4554 45.0001)"/></svg>