<svg xmlns="http://www.w3.org/2000/svg" viewBox="0 0 130 60" width="130" height="60"><path d="M0 0L130 0L130 60L0 60L0 0Z" fill="rgb(255,255,255)" fill-opacity="1.000" fill-rule="nonzero" transform="matrix(1 0 0 1 0 0)"/><path d="M11.998 5.77C11.998 6.618 11.998 7.47 11.998 8.318C11.998 8.598 11.908 8.677 11.638 8.677C11.207 8.677 10.776 8.655 10.345 8.677C10.043 8.695 9.964 8.583 9.986 8.296C9.986 6.902 9.986 5.508 9.986 4.118C9.986 3.949 9.986 3.78 9.986 3.615C9.95 2.652 9.45 2.142 8.549 2.138C8.35 2.126 8.15 2.155 7.964 2.225C7.777 2.294 7.606 2.401 7.463 2.539C7.32 2.678 7.207 2.845 7.131 3.029C7.056 3.214 7.02 3.412 7.025 3.611C7.004 5.127 7.004 6.646 7.025 8.167C7.025 8.551 6.925 8.684 6.537 8.648C6.161 8.618 5.784 8.618 5.409 8.648C5.049 8.677 4.992 8.53 4.995 8.217C4.995 6.78 4.995 5.318 4.995 3.87C5.006 3.615 4.98 3.359 4.916 3.112C4.842 2.781 4.643 2.491 4.361 2.303C4.078 2.115 3.734 2.043 3.4 2.102C3.029 2.117 2.678 2.275 2.421 2.543C2.164 2.811 2.02 3.168 2.021 3.539C2.021 4.958 2.021 6.381 2.021 7.8C2.013 7.94 2.013 8.081 2.021 8.221C2.056 8.512 1.938 8.609 1.661 8.58C1.216 8.558 0.77 8.58 0.325 8.58C0.109 8.58 0.023 8.522 0.027 8.296C0.048 6.586 -0.067 4.868 0.063 3.158C0.075 2.503 0.292 1.868 0.685 1.343C1.078 0.818 1.625 0.43 2.251 0.234C3.565 -0.219 4.809 -0.039 5.843 0.992C6.055 1.204 6.131 1.064 6.26 0.934C6.616 0.606 7.038 0.357 7.497 0.203C7.956 0.049 8.442 -0.006 8.924 0.041C9.406 0.088 9.873 0.237 10.294 0.477C10.714 0.717 11.08 1.043 11.365 1.434C11.717 1.922 11.918 2.503 11.944 3.104C11.969 3.981 11.944 4.861 11.944 5.738L11.998 5.77Z" fill="rgb(40,48,123)" fill-opacity="1.000" fill-rule="nonzero" transform="matrix(1 0 0 1 57.598 19.2014)"/><path d="M5.925 3.746C5.925 3.056 5.925 2.366 5.925 1.677C5.927 1.428 5.984 1.184 6.091 0.96C6.199 0.736 6.354 0.538 6.547 0.381C6.739 0.224 6.964 0.112 7.205 0.051C7.445 -0.009 7.697 -0.016 7.94 0.031C8.203 0.078 8.142 0.261 8.142 0.416C8.142 1.752 8.142 3.089 8.163 4.425C8.163 5.503 8.163 6.599 8.163 7.687C8.205 8.567 7.909 9.43 7.335 10.098C6.761 10.766 5.953 11.189 5.077 11.28C4.289 11.398 3.485 11.364 2.709 11.18C2.083 11.048 1.51 10.734 1.062 10.277C0.614 9.82 0.312 9.24 0.194 8.611C-0.189 7.159 0 5.615 0.723 4.299C1.135 3.578 1.809 3.044 2.605 2.806C3.401 2.569 4.258 2.647 4.998 3.024C5.331 3.232 5.642 3.474 5.925 3.746ZM5.986 7.145C5.991 6.699 5.927 6.256 5.795 5.83C5.693 5.457 5.47 5.128 5.16 4.896C4.851 4.663 4.472 4.541 4.085 4.547C3.259 4.547 2.716 4.971 2.44 5.819C2.203 6.611 2.203 7.456 2.44 8.248C2.501 8.607 2.683 8.935 2.956 9.177C3.23 9.419 3.577 9.56 3.942 9.577C4.919 9.617 5.479 9.254 5.795 8.37C5.937 7.978 6.002 7.562 5.986 7.145Z" fill="rgb(40,48,123)" fill-opacity="1.000" fill-rule="nonzero" transform="matrix(1 0 0 1 101.6858 16.5803)"/><path d="M5.907 3.758C5.907 3.022 5.936 2.382 5.907 1.75C5.828 0.334 6.917 0.011 7.887 0C8.142 0 8.135 0.158 8.135 0.338C8.135 1.02 8.135 1.703 8.135 2.386C8.135 4.124 8.135 5.866 8.135 7.609C8.135 9.611 7.039 10.922 5.059 11.242C4.049 11.417 3.01 11.307 2.059 10.926C0.938 10.462 0.371 9.539 0.144 8.411C-0.14 7.12 -0.002 5.772 0.539 4.566C1.373 2.734 3.73 2.03 5.242 3.154C5.451 3.309 5.627 3.492 5.907 3.758ZM5.968 7.153C6.006 6.531 5.876 5.911 5.591 5.357C4.984 4.243 3.27 4.186 2.681 5.238C2.388 5.755 2.227 6.336 2.212 6.93C2.197 7.524 2.328 8.113 2.594 8.644C2.725 8.931 2.941 9.172 3.213 9.332C3.485 9.492 3.8 9.564 4.114 9.539C4.434 9.555 4.752 9.476 5.027 9.312C5.302 9.148 5.522 8.905 5.659 8.615C5.891 8.164 5.998 7.659 5.968 7.153Z" fill="rgb(0,182,150)" fill-opacity="1.000" fill-rule="nonzero" transform="matrix(1 0 0 1 80.884 29.2399)"/><path d="M5.266 4.947C4.361 4.947 3.47 4.947 2.55 4.947C2.259 4.947 2.191 5.044 2.238 5.306C2.289 5.777 2.521 6.21 2.885 6.513C3.249 6.816 3.716 6.966 4.189 6.93C4.735 6.93 5.284 6.873 5.672 6.399C5.718 6.351 5.775 6.315 5.837 6.292C5.899 6.27 5.966 6.262 6.032 6.269C6.603 6.269 7.174 6.269 7.745 6.269C8.054 6.269 8.072 6.373 7.95 6.61C7.724 7.101 7.39 7.533 6.972 7.875C6.555 8.216 6.065 8.459 5.539 8.583C4.875 8.767 4.178 8.807 3.497 8.7C2.815 8.593 2.164 8.343 1.587 7.965C1.164 7.686 0.809 7.314 0.548 6.879C0.287 6.444 0.128 5.955 0.082 5.45C-0.105 3.991 -0.037 2.576 0.973 1.379C2.051 0.108 3.995 -0.334 5.73 0.262C7.239 0.779 8.148 2.098 8.263 3.937C8.324 4.961 8.324 4.961 7.307 4.961L5.266 4.947ZM4.149 3.51C4.652 3.51 5.151 3.51 5.654 3.51C5.917 3.51 6.014 3.467 5.953 3.151C5.865 2.744 5.637 2.381 5.308 2.126C4.98 1.872 4.572 1.741 4.156 1.757C3.726 1.721 3.298 1.846 2.955 2.107C2.612 2.369 2.378 2.748 2.299 3.172C2.256 3.384 2.277 3.51 2.55 3.499C3.093 3.503 3.621 3.514 4.149 3.514L4.149 3.51Z" fill="rgb(40,48,123)" fill-opacity="1.000" fill-rule="nonzero" transform="matrix(1 0 0 1 70.4762 19.2775)"/><path d="M5.261 4.941C4.384 4.941 3.504 4.941 2.627 4.941C2.268 4.941 2.229 5.06 2.268 5.362C2.317 5.76 2.5 6.129 2.787 6.41C3.073 6.691 3.446 6.866 3.845 6.907C4.517 6.971 5.193 6.975 5.703 6.404C5.76 6.353 5.829 6.316 5.903 6.295C5.977 6.275 6.055 6.271 6.13 6.285L7.675 6.285C8.103 6.285 8.149 6.357 7.93 6.738C7.506 7.55 6.788 8.169 5.922 8.469C5.296 8.692 4.632 8.785 3.969 8.743C3.307 8.701 2.659 8.525 2.067 8.225C1.603 8.013 1.195 7.696 0.873 7.301C0.551 6.905 0.324 6.441 0.209 5.944C-0.146 4.683 -0.047 3.338 0.49 2.143C1.273 0.504 3.04 -0.236 5.006 0.066C7.161 0.397 8.239 2.042 8.293 4.068C8.322 4.945 8.293 4.949 7.424 4.949L5.261 4.941ZM4.183 3.504C4.682 3.504 5.185 3.504 5.685 3.504C5.983 3.504 6.08 3.443 6.012 3.123C5.821 2.258 5.135 1.744 4.133 1.758C3.704 1.747 3.286 1.891 2.955 2.165C2.625 2.438 2.405 2.822 2.336 3.246C2.297 3.472 2.405 3.508 2.591 3.504C3.112 3.508 3.64 3.511 4.172 3.511L4.183 3.504Z" fill="rgb(0,182,150)" fill-opacity="1.000" fill-rule="nonzero" transform="matrix(1 0 0 1 71.6631 31.9008)"/><path d="M4.199 0.003C7.602 -0.101 8.683 2.773 8.489 4.857C8.367 6.182 7.871 7.343 6.74 8.13C5.838 8.755 4.799 8.848 3.74 8.762C1.128 8.593 0.053 6.441 0.007 4.659C-0.042 3.696 0.18 2.738 0.65 1.896C1.447 0.506 2.701 -0.026 4.199 0.003ZM6.229 4.397C6.239 3.969 6.182 3.542 6.06 3.132C5.957 2.746 5.726 2.407 5.405 2.17C5.084 1.933 4.692 1.813 4.293 1.828C3.887 1.803 3.485 1.917 3.152 2.151C2.819 2.384 2.575 2.724 2.461 3.114C2.209 3.94 2.212 4.822 2.468 5.647C2.59 6.028 2.829 6.36 3.152 6.595C3.475 6.831 3.864 6.958 4.264 6.958C4.664 6.958 5.053 6.831 5.376 6.595C5.699 6.36 5.939 6.028 6.06 5.647C6.177 5.241 6.234 4.819 6.229 4.397Z" fill="rgb(40,48,123)" fill-opacity="1.000" fill-rule="nonzero" transform="matrix(1 0 0 1 110.4888 19.181)"/><path d="M7.391 4.132C7.391 4.678 7.391 5.21 7.391 5.763C7.396 6.375 7.198 6.971 6.828 7.458C6.458 7.946 5.937 8.297 5.347 8.457C4.261 8.78 3.117 8.856 1.999 8.68C1.489 8.617 1.015 8.381 0.657 8.013C0.298 7.645 0.076 7.165 0.026 6.654C-0.128 5.357 0.407 4.362 1.514 3.909C2.223 3.662 2.963 3.511 3.712 3.46C4.079 3.435 4.442 3.363 4.79 3.244C4.926 3.205 5.043 3.121 5.124 3.005C5.204 2.889 5.243 2.749 5.232 2.608C5.24 2.46 5.2 2.314 5.117 2.191C5.034 2.068 4.913 1.976 4.772 1.929C4.243 1.742 3.669 1.721 3.127 1.868C2.953 1.927 2.799 2.032 2.681 2.172C2.562 2.312 2.484 2.481 2.455 2.662C2.45 2.704 2.437 2.744 2.416 2.78C2.395 2.815 2.366 2.846 2.332 2.871C2.299 2.895 2.26 2.911 2.219 2.919C2.178 2.927 2.136 2.927 2.096 2.917C1.593 2.917 1.09 2.917 0.59 2.917C0.31 2.917 0.267 2.81 0.296 2.558C0.45 1.243 1.287 0.359 2.71 0.108C3.825 -0.106 4.979 0 6.037 0.413C6.437 0.547 6.783 0.806 7.026 1.151C7.268 1.496 7.394 1.91 7.384 2.332C7.384 2.932 7.384 3.532 7.384 4.128L7.391 4.132ZM5.207 5.102C5.207 4.538 5.207 4.541 4.69 4.696C4.585 4.728 4.474 4.746 4.366 4.771C3.844 4.846 3.33 4.966 2.828 5.131C2.593 5.224 2.4 5.4 2.285 5.625C2.17 5.851 2.141 6.11 2.203 6.356C2.238 6.593 2.362 6.808 2.549 6.957C2.737 7.107 2.974 7.179 3.213 7.16C4.517 7.121 5.243 6.507 5.207 5.102Z" fill="rgb(40,48,123)" fill-opacity="1.000" fill-rule="nonzero" transform="matrix(1 0 0 1 93.6754 19.2125)"/><path d="M4.278 8.842C1.181 8.946 -0.205 6.445 0.024 4.013C0.147 2.684 0.621 1.498 1.767 0.737C2.437 0.298 3.212 0.046 4.012 0.006C4.812 -0.035 5.608 0.138 6.319 0.507C7.835 1.225 8.37 2.616 8.475 4.196C8.564 5.29 8.27 6.381 7.645 7.283C6.93 8.328 5.841 8.82 4.278 8.842ZM6.215 4.444C6.22 4.136 6.192 3.827 6.132 3.525C6.079 3.114 5.893 2.732 5.602 2.438C5.311 2.143 4.932 1.952 4.523 1.893C4.092 1.813 3.647 1.889 3.268 2.11C2.89 2.33 2.603 2.679 2.46 3.093C2.132 3.979 2.138 4.954 2.478 5.835C2.812 6.715 3.434 7.063 4.454 7.02C4.833 7.002 5.195 6.861 5.487 6.618C5.779 6.376 5.984 6.045 6.071 5.677C6.184 5.271 6.233 4.85 6.215 4.43L6.215 4.444Z" fill="rgb(0,182,150)" fill-opacity="1.000" fill-rule="nonzero" transform="matrix(1 0 0 1 99.1682 31.7943)"/><path d="M6.918 3.145C6.822 3.139 6.724 3.139 6.627 3.145C6.092 3.217 5.711 3.145 5.517 2.505C5.352 1.963 4.799 1.815 4.249 1.815C3.942 1.785 3.633 1.849 3.365 2C3.096 2.151 2.88 2.382 2.747 2.66C2.507 3.188 2.379 3.76 2.371 4.34C2.363 4.92 2.475 5.495 2.701 6.03C2.959 6.687 3.556 6.939 4.4 6.863C4.704 6.872 5.001 6.766 5.23 6.567C5.46 6.367 5.606 6.088 5.639 5.785C5.715 5.451 5.869 5.408 6.146 5.426C6.689 5.426 7.224 5.426 7.777 5.426C8.007 5.426 8.093 5.458 8.043 5.728C7.891 6.475 7.509 7.156 6.951 7.677C6.394 8.197 5.688 8.53 4.932 8.631C4.145 8.744 3.343 8.698 2.575 8.494C1.989 8.33 1.46 8.009 1.043 7.565C0.627 7.122 0.339 6.574 0.211 5.979C-0.14 4.721 -0.051 3.38 0.462 2.178C0.632 1.757 0.889 1.376 1.215 1.06C1.541 0.744 1.929 0.499 2.356 0.342C3.034 0.084 3.759 -0.03 4.484 0.007C5.209 0.044 5.918 0.232 6.566 0.558C7.569 1.029 7.91 1.945 8.083 2.954C8.111 3.12 8.039 3.181 7.878 3.177C7.558 3.177 7.238 3.177 6.918 3.177L6.918 3.145Z" fill="rgb(40,48,123)" fill-opacity="1.000" fill-rule="nonzero" transform="matrix(1 0 0 1 84.9158 19.2941)"/><path d="M6.883 3.164C6.801 3.164 6.714 3.164 6.632 3.164C6.121 3.2 5.687 3.228 5.521 2.531C5.403 2.046 4.889 1.863 4.383 1.813C3.743 1.773 3.147 1.928 2.834 2.531C2.549 3.076 2.391 3.678 2.371 4.293C2.351 4.908 2.47 5.519 2.719 6.081C2.861 6.381 3.098 6.625 3.395 6.773C3.691 6.922 4.029 6.966 4.354 6.9C5.151 6.8 5.493 6.512 5.672 5.729C5.726 5.485 5.827 5.413 6.06 5.42C6.616 5.434 7.173 5.434 7.731 5.42C8.029 5.42 8.09 5.51 8.022 5.779C7.909 6.392 7.632 6.963 7.221 7.432C6.81 7.901 6.28 8.25 5.687 8.441C4.621 8.804 3.465 8.804 2.399 8.441C1.893 8.275 1.436 7.985 1.069 7.599C0.702 7.213 0.435 6.742 0.294 6.228C-0.112 5.013 -0.097 3.697 0.337 2.492C0.952 0.767 2.59 -0.163 4.569 0.024C5.057 0.061 5.539 0.154 6.007 0.3C7.336 0.742 7.868 1.619 8.076 2.916C8.105 3.106 8.026 3.164 7.853 3.16L6.883 3.164Z" fill="rgb(0,182,150)" fill-opacity="1.000" fill-rule="nonzero" transform="matrix(1 0 0 1 57.602 31.9396)"/><path d="M2.396 11.217C2.062 11.191 1.728 11.155 1.398 11.141C0.377 11.098 0.022 10.487 0.022 9.575C0.022 8.335 0.022 7.096 0.022 5.856C0.022 4.06 0.022 2.235 0 0.424C0 0.097 0.086 0 0.42 0C1.987 0 2.217 0.234 2.217 1.818C2.217 2.536 2.08 2.49 2.824 2.536C3.065 2.536 3.377 2.382 3.542 2.666C3.708 2.95 3.449 3.607 3.183 3.833C2.998 3.984 2.768 4.069 2.529 4.074C2.296 4.074 2.22 4.182 2.224 4.412C2.224 5.889 2.224 7.365 2.245 8.842C2.245 9.32 2.425 9.474 2.917 9.485C3.596 9.485 3.596 9.485 3.596 10.182C3.596 11.213 3.596 11.213 2.54 11.213L2.414 11.213L2.396 11.217Z" fill="rgb(0,182,150)" fill-opacity="1.000" fill-rule="nonzero" transform="matrix(1 0 0 1 94.882 29.3154)"/><path d="M0 5.903C0.036 5.184 -0.043 4.365 0.047 3.532C0.109 2.685 0.459 1.885 1.039 1.264C1.619 0.643 2.393 0.239 3.233 0.119C3.657 0.038 4.088 -0.002 4.52 0C4.746 0 4.847 0.076 4.839 0.316C4.839 0.873 4.839 1.43 4.839 1.987C4.839 2.246 4.75 2.278 4.512 2.242C4.266 2.206 4.015 2.206 3.769 2.242C2.723 2.4 2.245 2.907 2.217 3.97C2.181 5.317 2.181 6.668 2.217 8.019C2.217 8.443 2.105 8.59 1.678 8.554C1.234 8.531 0.789 8.531 0.345 8.554C0.083 8.554 0.007 8.461 0.011 8.195C0.007 7.48 0 6.758 0 5.903Z" fill="rgb(0,182,150)" fill-opacity="1.000" fill-rule="nonzero" transform="matrix(1 0 0 1 66.5272 32.0207)"/><path d="M0.011 5.856C0.054 5.137 -0.068 4.232 0.083 3.341C0.503 0.826 2.508 -0.061 4.563 0.003C4.771 0.003 4.858 0.093 4.854 0.305C4.854 0.848 4.854 1.383 4.854 1.936C4.854 2.163 4.8 2.27 4.541 2.22C4.349 2.189 4.154 2.182 3.959 2.198C3.543 2.178 3.134 2.32 2.82 2.594C2.505 2.868 2.308 3.252 2.271 3.668C2.213 3.996 2.188 4.33 2.195 4.663C2.195 5.834 2.195 7.002 2.195 8.173C2.195 8.428 2.149 8.554 1.854 8.532C1.34 8.511 0.823 8.532 0.309 8.532C0.065 8.532 -0.003 8.45 0 8.22C0.015 7.487 0.011 6.75 0.011 5.856Z" fill="rgb(40,48,123)" fill-opacity="1.000" fill-rule="nonzero" transform="matrix(1 0 0 1 79.7346 19.2775)"/><path d="M2.217 4.17C2.217 5.435 2.217 6.703 2.217 7.971C2.217 8.248 2.138 8.33 1.857 8.33C1.369 8.33 0.88 8.33 0.392 8.33C0.119 8.33 0 8.259 0 7.95C0 5.442 0 2.934 0 0.426C0 0.099 0.093 -0.019 0.428 0.002C0.916 0.028 1.405 0.002 1.893 0.002C2.131 0.002 2.199 0.085 2.195 0.322C2.195 1.605 2.195 2.887 2.195 4.17L2.217 4.17Z" fill="rgb(0,182,150)" fill-opacity="1.000" fill-rule="nonzero" transform="matrix(1 0 0 1 90.7536 32.1799)"/><path d="M2.199 1.067L2.199 1.621C2.199 2.188 2.199 2.192 1.649 2.192C1.222 2.192 0.79 2.192 0.359 2.192C0.122 2.192 0 2.142 0 1.869C0.018 1.355 0 0.841 0 0.327C0 0.108 0.043 -0.007 0.295 0C0.837 0 1.372 0 1.922 0C2.131 0 2.217 0.043 2.184 0.284C2.166 0.547 2.166 0.811 2.184 1.075L2.199 1.067Z" fill="rgb(0,182,150)" fill-opacity="1.000" fill-rule="nonzero" transform="matrix(1 0 0 1 90.7457 29.315)"/><path d="M0.867 1.606C-0.146 1.606 -0.11 1.606 0.17 0.636C0.314 0.14 0.529 -0.039 1.043 0.036C1.435 0.097 1.977 -0.14 2.186 0.14C2.394 0.42 1.999 0.859 1.927 1.218C1.926 1.28 1.911 1.342 1.882 1.397C1.854 1.453 1.813 1.501 1.763 1.539C1.713 1.576 1.656 1.602 1.594 1.613C1.533 1.625 1.47 1.622 1.41 1.606C1.229 1.595 1.048 1.595 0.867 1.606Z" fill="rgb(0,182,150)" fill-opacity="1.000" fill-rule="nonzero" transform="matrix(1 0 0 1 75.0167 29.5667)"/><path d="M19.223 0C8.609 0 0 5.52 0 12.312C0 19.104 8.609 25.162 19.223 25.162C29.836 25.162 38.445 19.122 38.445 12.312C38.445 5.502 29.836 0 19.223 0Z" fill="rgb(0,182,150)" fill-opacity="1.000" fill-rule="nonzero" transform="matrix(1 0 0 1 12.3569 16.5016)"/><path d="M0.116 4.338C0.098 4.356 -0.081 4.553 0.044 4.714C0.348 5.091 1.261 5.306 2.192 5.109C2.747 4.983 3.445 4.428 4.143 3.872C4.895 3.281 5.628 2.689 6.362 2.456C7.15 2.205 7.651 2.313 7.991 2.42C8.349 2.528 8.778 2.779 9.476 3.281C10.765 4.248 15.938 8.783 16.85 9.553C17.566 9.231 21.003 7.833 25.352 6.883C24.976 4.553 23.58 2.349 21.432 0.61C18.443 1.865 14.56 2.618 10.98 0.879C10.962 0.879 9.029 -0.035 7.132 0.001C4.304 0.073 3.069 1.291 1.78 2.6L0.116 4.338Z" fill="rgb(255,255,255)" fill-opacity="1.000" fill-rule="nonzero" transform="matrix(1 0 0 1 25.2015 20.6764)"/><path d="M29.299 9.785C29.245 9.731 23.214 4.445 21.836 3.423C21.048 2.832 20.601 2.67 20.135 2.617C19.903 2.581 19.563 2.634 19.33 2.688C18.686 2.867 17.862 3.423 17.128 3.996C16.359 4.606 15.643 5.179 14.981 5.323C14.122 5.52 13.083 5.287 12.6 4.964C12.403 4.839 12.278 4.678 12.206 4.534C12.028 4.122 12.35 3.799 12.403 3.746L14.068 1.936C14.265 1.738 14.462 1.541 14.659 1.362C14.122 1.434 13.62 1.577 13.137 1.703C12.529 1.864 11.956 2.025 11.365 2.025C11.115 2.025 9.808 1.81 9.558 1.738C8.054 1.326 6.336 0.932 4.367 0C2.005 1.756 0.465 3.925 0 6.362C0.34 6.452 1.235 6.649 1.468 6.703C6.819 7.903 8.484 9.122 8.788 9.373C9.11 9.015 9.593 8.782 10.112 8.782C10.703 8.782 11.24 9.086 11.562 9.534C11.866 9.283 12.296 9.086 12.833 9.086C13.083 9.086 13.334 9.14 13.603 9.212C14.211 9.427 14.515 9.821 14.676 10.179C14.873 10.09 15.124 10.018 15.428 10.018C15.715 10.018 16.019 10.09 16.323 10.215C17.307 10.645 17.469 11.613 17.379 12.348C17.451 12.348 17.522 12.33 17.594 12.33C18.757 12.33 19.724 13.28 19.724 14.463C19.724 14.821 19.634 15.162 19.473 15.466C19.795 15.645 20.601 16.058 21.317 15.968C21.889 15.896 22.104 15.699 22.176 15.592C22.229 15.52 22.283 15.43 22.229 15.359L20.726 13.674C20.726 13.674 20.475 13.441 20.565 13.352C20.654 13.262 20.798 13.387 20.905 13.477C21.675 14.122 22.605 15.09 22.605 15.09C22.623 15.108 22.677 15.215 23.035 15.287C23.339 15.341 23.858 15.305 24.234 15C24.323 14.929 24.413 14.821 24.502 14.731L24.485 14.749C24.878 14.248 24.449 13.746 24.449 13.746L22.677 11.756C22.677 11.756 22.426 11.524 22.516 11.434C22.587 11.344 22.748 11.47 22.874 11.559C23.429 12.025 24.216 12.814 24.986 13.567C25.129 13.674 25.791 14.086 26.686 13.513C27.223 13.154 27.33 12.724 27.312 12.402C27.277 11.972 26.937 11.667 26.937 11.667L24.52 9.247C24.52 9.247 24.27 9.032 24.359 8.925C24.431 8.835 24.592 8.961 24.699 9.05C25.469 9.696 27.545 11.595 27.545 11.595C27.581 11.613 28.297 12.133 29.174 11.559C29.496 11.362 29.693 11.058 29.711 10.699C29.729 10.144 29.299 9.785 29.299 9.785Z" fill="rgb(255,255,255)" fill-opacity="1.000" fill-rule="nonzero" transform="matrix(1 0 0 1 12.5185 20.9283)"/><path d="M8.77 3.566C8.394 3.566 7.983 3.781 7.929 3.746C7.893 3.728 7.947 3.584 7.983 3.495C8.018 3.405 8.502 1.936 7.32 1.416C6.408 1.022 5.835 1.47 5.656 1.667C5.602 1.72 5.584 1.72 5.584 1.649C5.566 1.38 5.441 0.663 4.654 0.412C3.526 0.072 2.792 0.86 2.613 1.147C2.524 0.502 1.987 0 1.324 0C0.591 0 0.018 0.591 0 1.308C0 2.043 0.591 2.617 1.307 2.617C1.665 2.617 1.987 2.473 2.219 2.258C2.219 2.258 2.237 2.276 2.219 2.294C2.166 2.617 2.058 3.799 3.293 4.283C3.794 4.48 4.206 4.337 4.564 4.086C4.671 4.014 4.689 4.05 4.671 4.14C4.618 4.445 4.689 5.09 5.602 5.466C6.3 5.753 6.712 5.466 6.98 5.215C7.106 5.108 7.123 5.126 7.141 5.287C7.177 6.165 7.911 6.864 8.788 6.864C9.701 6.864 10.435 6.129 10.435 5.215C10.417 4.319 9.683 3.584 8.77 3.566Z" fill="rgb(255,255,255)" fill-opacity="1.000" fill-rule="nonzero" transform="matrix(1 0 0 1 21.3609 30.2119)"/><path d="M19.58 0C8.77 0 0 5.753 0 12.832C0 13.011 0 13.513 0 13.584C0 21.076 7.66 27.151 19.58 27.151C31.501 27.151 39.161 21.076 39.161 13.584L39.161 12.832C39.161 5.753 30.391 0 19.58 0ZM38.266 11.398C34.006 12.348 30.838 13.728 30.033 14.068C28.172 12.438 23.876 8.71 22.713 7.832C22.05 7.33 21.603 7.061 21.191 6.954C21.012 6.9 20.762 6.846 20.44 6.846C20.135 6.846 19.831 6.9 19.491 7.007C18.739 7.24 17.988 7.85 17.272 8.423L17.272 8.441C16.592 8.979 15.893 9.534 15.374 9.66C15.142 9.713 14.909 9.731 14.676 9.731C14.086 9.731 13.549 9.552 13.352 9.301C13.316 9.265 13.334 9.194 13.424 9.086L13.441 9.068L15.07 7.312C16.359 6.022 17.558 4.821 20.35 4.749C20.404 4.749 20.44 4.749 20.493 4.749C22.229 4.749 23.966 5.52 24.145 5.609C25.773 6.398 27.438 6.81 29.138 6.81C30.892 6.81 32.7 6.38 34.597 5.502C36.548 7.187 37.872 9.212 38.266 11.398ZM19.58 0.753C25.326 0.753 30.463 2.401 33.917 5C32.252 5.717 30.659 6.093 29.12 6.093C27.545 6.093 25.97 5.717 24.449 4.964C24.377 4.928 22.462 4.014 20.458 4.014C20.404 4.014 20.35 4.014 20.296 4.014C17.952 4.068 16.645 4.893 15.75 5.627C14.891 5.645 14.139 5.86 13.477 6.04C12.887 6.201 12.385 6.344 11.884 6.344C11.687 6.344 11.312 6.326 11.276 6.326C10.703 6.308 7.839 5.609 5.548 4.749C9.021 2.294 14.014 0.753 19.58 0.753ZM4.904 5.251C7.285 6.237 10.184 6.989 11.115 7.043C11.365 7.061 11.634 7.097 11.92 7.097C12.529 7.097 13.137 6.918 13.728 6.756C14.068 6.667 14.462 6.559 14.855 6.47C14.748 6.577 14.641 6.685 14.533 6.792L12.869 8.584C12.743 8.71 12.457 9.068 12.636 9.498C12.708 9.678 12.869 9.839 13.066 9.982C13.459 10.251 14.175 10.43 14.82 10.43C15.07 10.43 15.303 10.412 15.518 10.359C16.216 10.197 16.949 9.624 17.719 8.997C18.328 8.513 19.205 7.885 19.885 7.706C20.082 7.652 20.296 7.617 20.493 7.617C20.547 7.617 20.601 7.617 20.654 7.635C21.102 7.688 21.531 7.85 22.283 8.423C23.643 9.445 29.675 14.731 29.729 14.785C29.729 14.785 30.122 15.126 30.087 15.681C30.069 15.986 29.908 16.255 29.603 16.452C29.353 16.613 29.084 16.703 28.816 16.703C28.404 16.703 28.136 16.506 28.118 16.506C28.1 16.488 26.024 14.588 25.272 13.943C25.147 13.835 25.039 13.746 24.914 13.746C24.843 13.746 24.789 13.782 24.753 13.817C24.628 13.961 24.771 14.176 24.932 14.301L27.348 16.739C27.348 16.739 27.653 17.025 27.688 17.402C27.706 17.796 27.509 18.137 27.116 18.405C26.829 18.603 26.543 18.692 26.256 18.692C25.881 18.692 25.63 18.531 25.576 18.477L25.236 18.137C24.61 17.509 23.948 16.864 23.464 16.47C23.339 16.38 23.232 16.291 23.106 16.291C23.053 16.291 22.999 16.309 22.945 16.362C22.892 16.416 22.856 16.524 22.981 16.721C23.035 16.792 23.106 16.864 23.106 16.864L24.86 18.853C24.878 18.871 25.218 19.284 24.896 19.696L24.825 19.767C24.771 19.821 24.717 19.875 24.664 19.929C24.359 20.18 23.966 20.198 23.804 20.198C23.715 20.198 23.643 20.198 23.572 20.18C23.393 20.144 23.285 20.108 23.232 20.036L23.214 20.018C23.124 19.911 22.229 19.015 21.496 18.405C21.406 18.316 21.281 18.226 21.156 18.226C21.102 18.226 21.048 18.244 20.994 18.298C20.851 18.459 21.066 18.692 21.156 18.782L22.659 20.448C22.659 20.466 22.641 20.502 22.605 20.556C22.552 20.628 22.373 20.807 21.818 20.879C21.746 20.879 21.692 20.896 21.621 20.896C21.066 20.896 20.458 20.628 20.153 20.466C20.296 20.162 20.368 19.839 20.368 19.516C20.368 18.28 19.366 17.276 18.131 17.276C18.113 17.276 18.077 17.276 18.059 17.276C18.095 16.703 18.023 15.645 16.914 15.162C16.592 15.018 16.287 14.947 15.983 14.947C15.75 14.947 15.518 14.982 15.303 15.072C15.07 14.624 14.694 14.301 14.211 14.14C13.943 14.05 13.674 13.997 13.406 13.997C12.94 13.997 12.529 14.14 12.153 14.391C11.795 13.943 11.258 13.674 10.685 13.674C10.184 13.674 9.701 13.871 9.343 14.23C8.877 13.871 7.016 12.688 2.058 11.559C1.826 11.506 1.289 11.344 0.949 11.255C1.378 8.979 2.792 6.936 4.904 5.251ZM14.104 18.208L14.05 18.154L13.996 18.154C13.961 18.154 13.907 18.172 13.853 18.208C13.603 18.387 13.352 18.477 13.119 18.477C12.976 18.477 12.851 18.441 12.708 18.405C11.562 17.957 11.652 16.864 11.705 16.542C11.705 16.47 11.705 16.416 11.652 16.38L11.562 16.309L11.491 16.38C11.258 16.595 10.972 16.721 10.667 16.721C10.005 16.721 9.468 16.183 9.468 15.52C9.468 14.857 10.005 14.319 10.667 14.319C11.258 14.319 11.777 14.767 11.849 15.359L11.884 15.681L12.063 15.412C12.081 15.377 12.564 14.642 13.459 14.642C13.62 14.642 13.799 14.678 13.978 14.731C14.694 14.947 14.802 15.592 14.82 15.861C14.838 16.022 14.945 16.022 14.963 16.022C15.016 16.022 15.07 15.986 15.106 15.95C15.231 15.807 15.536 15.574 15.983 15.574C16.198 15.574 16.413 15.628 16.645 15.717C17.773 16.201 17.254 17.635 17.254 17.653C17.164 17.886 17.146 17.993 17.236 18.047L17.272 18.065L17.307 18.065C17.361 18.065 17.415 18.047 17.522 18.011C17.683 17.957 17.898 17.886 18.131 17.886C18.972 17.904 19.67 18.585 19.67 19.427C19.67 20.269 18.972 20.968 18.131 20.968C17.307 20.968 16.627 20.323 16.592 19.499C16.592 19.427 16.574 19.248 16.43 19.248C16.359 19.248 16.305 19.284 16.251 19.337C16.072 19.499 15.84 19.678 15.5 19.678C15.339 19.678 15.178 19.642 14.999 19.57C14.122 19.212 14.104 18.62 14.139 18.37C14.139 18.316 14.157 18.262 14.104 18.208ZM19.58 24.875C9.182 24.875 0.752 19.481 0.752 12.814C0.752 12.545 0.77 12.276 0.805 12.007C0.895 12.025 1.718 12.222 1.879 12.258C6.944 13.387 8.627 14.552 8.913 14.785C8.824 15.018 8.77 15.269 8.77 15.52C8.77 16.577 9.629 17.42 10.667 17.42C10.793 17.42 10.9 17.402 11.025 17.384C11.186 18.154 11.687 18.746 12.457 19.051C12.69 19.14 12.905 19.176 13.137 19.176C13.28 19.176 13.424 19.158 13.567 19.122C13.71 19.481 14.032 19.929 14.748 20.233C14.999 20.341 15.249 20.395 15.5 20.395C15.697 20.395 15.893 20.359 16.072 20.287C16.413 21.129 17.236 21.685 18.149 21.685C18.757 21.685 19.33 21.434 19.759 21.004C20.117 21.201 20.887 21.577 21.657 21.577C21.764 21.577 21.854 21.577 21.943 21.56C22.713 21.47 23.071 21.165 23.232 20.932C23.268 20.896 23.285 20.843 23.303 20.807C23.482 20.861 23.679 20.896 23.912 20.896C24.323 20.896 24.735 20.753 25.147 20.466C25.541 20.18 25.827 19.767 25.863 19.409L25.863 19.391C26.006 19.427 26.131 19.427 26.274 19.427C26.704 19.427 27.133 19.301 27.527 19.033C28.315 18.513 28.44 17.85 28.44 17.42C28.583 17.456 28.709 17.456 28.852 17.456C29.263 17.456 29.657 17.33 30.033 17.097C30.516 16.792 30.803 16.309 30.856 15.753C30.892 15.377 30.785 15 30.588 14.678C31.894 14.122 34.883 13.029 38.391 12.222C38.409 12.42 38.409 12.617 38.409 12.832C38.409 19.481 29.979 24.875 19.58 24.875Z" fill="rgb(10,0,128)" fill-opacity="1.000" fill-rule="nonzero" transform="matrix(1 0 0 1 12 16)"/></svg>