<svg xmlns="http://www.w3.org/2000/svg" viewBox="0 0 130 60" width="130" height="60"><path d="M0 0L130 0L130 60L0 60L0 0Z" fill="rgb(255,255,255)" fill-opacity="1.000" fill-rule="nonzero" transform="matrix(1 0 0 1 0 0)"/><path d="M19.155 0C8.579 0 0 5.5 0 12.269C0 19.037 8.579 25.073 19.155 25.073C29.731 25.073 38.31 19.055 38.31 12.269C38.31 5.483 29.731 0 19.155 0Z" fill="rgb(0,188,255)" fill-opacity="1.000" fill-rule="nonzero" transform="matrix(1 0 0 1 12.3567 16.5099)"/><path d="M0.115 4.323C0.098 4.341 -0.081 4.537 0.044 4.698C0.347 5.073 1.257 5.287 2.184 5.091C2.737 4.966 3.433 4.412 4.128 3.858C4.877 3.269 5.609 2.68 6.34 2.448C7.125 2.198 7.624 2.305 7.963 2.412C8.32 2.519 8.748 2.769 9.443 3.269C10.727 4.233 15.882 8.752 16.791 9.52C17.505 9.198 20.929 7.805 25.263 6.859C24.888 4.537 23.497 2.34 21.357 0.608C18.379 1.858 14.508 2.608 10.941 0.876C10.923 0.876 8.997 -0.035 7.107 0.001C4.289 0.072 3.058 1.287 1.774 2.59L0.115 4.323Z" fill="rgb(255,255,255)" fill-opacity="1.000" fill-rule="nonzero" transform="matrix(1 0 0 1 25.154 20.6699)"/><path d="M29.196 9.751C29.143 9.697 23.132 4.429 21.759 3.411C20.974 2.822 20.528 2.661 20.065 2.607C19.833 2.572 19.494 2.625 19.262 2.679C18.62 2.857 17.799 3.411 17.068 3.982C16.301 4.59 15.588 5.161 14.928 5.304C14.072 5.5 13.037 5.268 12.556 4.947C12.36 4.822 12.235 4.661 12.164 4.518C11.985 4.107 12.306 3.786 12.36 3.732L14.018 1.929C14.215 1.732 14.411 1.536 14.607 1.357C14.072 1.429 13.573 1.572 13.091 1.697C12.485 1.857 11.914 2.018 11.325 2.018C11.076 2.018 9.774 1.804 9.524 1.732C8.026 1.322 6.314 0.929 4.352 0C1.998 1.75 0.464 3.911 0 6.34C0.339 6.429 1.231 6.625 1.462 6.679C6.795 7.876 8.454 9.09 8.757 9.34C9.078 8.983 9.56 8.751 10.077 8.751C10.665 8.751 11.2 9.054 11.521 9.501C11.825 9.251 12.253 9.054 12.788 9.054C13.037 9.054 13.287 9.108 13.555 9.179C14.161 9.394 14.464 9.786 14.625 10.144C14.821 10.054 15.071 9.983 15.374 9.983C15.659 9.983 15.962 10.054 16.266 10.179C17.247 10.608 17.407 11.572 17.318 12.304C17.389 12.304 17.461 12.287 17.532 12.287C18.691 12.287 19.654 13.233 19.654 14.412C19.654 14.769 19.565 15.108 19.405 15.412C19.726 15.59 20.528 16.001 21.242 15.912C21.812 15.84 22.026 15.644 22.098 15.537C22.151 15.465 22.205 15.376 22.151 15.305L20.653 13.626C20.653 13.626 20.403 13.394 20.493 13.305C20.582 13.215 20.724 13.34 20.831 13.43C21.598 14.072 22.526 15.037 22.526 15.037C22.544 15.055 22.597 15.162 22.954 15.233C23.257 15.287 23.774 15.251 24.149 14.948C24.238 14.876 24.327 14.769 24.416 14.68L24.398 14.698C24.791 14.197 24.363 13.697 24.363 13.697L22.597 11.715C22.597 11.715 22.347 11.483 22.437 11.394C22.508 11.304 22.668 11.429 22.793 11.519C23.346 11.983 24.131 12.769 24.898 13.519C25.041 13.626 25.7 14.037 26.592 13.465C27.127 13.108 27.234 12.68 27.216 12.358C27.181 11.929 26.842 11.626 26.842 11.626L24.434 9.215C24.434 9.215 24.184 9.001 24.274 8.894C24.345 8.804 24.505 8.929 24.612 9.019C25.379 9.661 27.448 11.554 27.448 11.554C27.484 11.572 28.197 12.09 29.071 11.519C29.392 11.322 29.588 11.019 29.606 10.661C29.624 10.108 29.196 9.751 29.196 9.751Z" fill="rgb(255,255,255)" fill-opacity="1.000" fill-rule="nonzero" transform="matrix(1 0 0 1 12.5172 20.921)"/><path d="M8.739 3.554C8.365 3.554 7.954 3.768 7.901 3.732C7.865 3.715 7.919 3.572 7.954 3.482C7.99 3.393 8.472 1.929 7.295 1.411C6.385 1.018 5.814 1.464 5.636 1.661C5.582 1.714 5.565 1.714 5.565 1.643C5.547 1.375 5.422 0.661 4.637 0.411C3.514 0.071 2.782 0.857 2.604 1.143C2.515 0.5 1.98 0 1.32 0C0.589 0 0.018 0.589 0 1.304C0 2.036 0.589 2.607 1.302 2.607C1.659 2.607 1.98 2.464 2.212 2.25C2.212 2.25 2.229 2.268 2.212 2.286C2.158 2.607 2.051 3.786 3.282 4.268C3.781 4.465 4.191 4.322 4.548 4.072C4.655 4 4.673 4.036 4.655 4.125C4.601 4.429 4.673 5.072 5.582 5.447C6.278 5.733 6.688 5.447 6.956 5.197C7.081 5.09 7.098 5.108 7.116 5.268C7.152 6.143 7.883 6.84 8.757 6.84C9.667 6.84 10.398 6.108 10.398 5.197C10.38 4.304 9.649 3.572 8.739 3.554Z" fill="rgb(255,255,255)" fill-opacity="1.000" fill-rule="nonzero" transform="matrix(1 0 0 1 21.3278 30.1717)"/><path d="M19.512 0C8.739 0 0 5.733 0 12.787C0 12.965 0 13.465 0 13.537C0 21.002 7.633 27.056 19.512 27.056C31.39 27.056 39.023 21.002 39.023 13.537L39.023 12.787C39.023 5.733 30.284 0 19.512 0ZM38.132 11.358C33.887 12.304 30.73 13.68 29.927 14.019C28.072 12.394 23.792 8.679 22.633 7.804C21.973 7.304 21.527 7.036 21.117 6.929C20.938 6.876 20.689 6.822 20.368 6.822C20.065 6.822 19.761 6.876 19.422 6.983C18.673 7.215 17.924 7.822 17.211 8.393L17.211 8.411C16.533 8.947 15.838 9.501 15.32 9.626C15.089 9.679 14.857 9.697 14.625 9.697C14.036 9.697 13.501 9.519 13.305 9.269C13.269 9.233 13.287 9.161 13.376 9.054L13.394 9.036L15.017 7.286C16.301 6 17.496 4.804 20.279 4.732C20.332 4.732 20.368 4.732 20.421 4.732C22.151 4.732 23.881 5.5 24.06 5.59C25.683 6.375 27.341 6.786 29.036 6.786C30.783 6.786 32.585 6.358 34.475 5.483C36.419 7.161 37.739 9.179 38.132 11.358ZM19.512 0.75C25.237 0.75 30.355 2.393 33.798 4.983C32.139 5.697 30.552 6.072 29.018 6.072C27.448 6.072 25.879 5.697 24.363 4.947C24.291 4.911 22.383 4 20.386 4C20.332 4 20.279 4 20.225 4C17.889 4.054 16.587 4.875 15.695 5.608C14.839 5.625 14.09 5.84 13.43 6.018C12.841 6.179 12.342 6.322 11.843 6.322C11.646 6.322 11.272 6.304 11.236 6.304C10.665 6.286 7.812 5.59 5.529 4.732C8.989 2.286 13.965 0.75 19.512 0.75ZM4.887 5.233C7.259 6.215 10.148 6.965 11.076 7.018C11.325 7.036 11.593 7.072 11.878 7.072C12.485 7.072 13.091 6.893 13.68 6.733C14.018 6.643 14.411 6.536 14.803 6.447C14.696 6.554 14.589 6.661 14.482 6.768L12.823 8.554C12.699 8.679 12.413 9.036 12.592 9.465C12.663 9.644 12.823 9.804 13.02 9.947C13.412 10.215 14.125 10.394 14.767 10.394C15.017 10.394 15.249 10.376 15.463 10.322C16.159 10.161 16.89 9.59 17.657 8.965C18.263 8.483 19.137 7.858 19.815 7.679C20.011 7.626 20.225 7.59 20.421 7.59C20.475 7.59 20.528 7.59 20.582 7.608C21.028 7.661 21.456 7.822 22.205 8.393C23.56 9.411 29.571 14.68 29.624 14.733C29.624 14.733 30.017 15.073 29.981 15.626C29.963 15.93 29.802 16.198 29.499 16.394C29.25 16.555 28.982 16.644 28.715 16.644C28.304 16.644 28.037 16.448 28.019 16.448C28.001 16.43 25.932 14.537 25.183 13.894C25.058 13.787 24.951 13.697 24.826 13.697C24.755 13.697 24.702 13.733 24.666 13.769C24.541 13.912 24.684 14.126 24.844 14.251L27.252 16.68C27.252 16.68 27.555 16.966 27.591 17.341C27.609 17.733 27.413 18.073 27.02 18.341C26.735 18.537 26.449 18.626 26.164 18.626C25.79 18.626 25.54 18.466 25.486 18.412L25.148 18.073C24.523 17.448 23.863 16.805 23.382 16.412C23.257 16.323 23.15 16.233 23.025 16.233C22.972 16.233 22.918 16.251 22.865 16.305C22.811 16.358 22.775 16.465 22.9 16.662C22.954 16.733 23.025 16.805 23.025 16.805L24.773 18.787C24.791 18.805 25.13 19.216 24.809 19.626L24.737 19.698C24.684 19.751 24.63 19.805 24.577 19.859C24.274 20.109 23.881 20.126 23.721 20.126C23.632 20.126 23.56 20.126 23.489 20.109C23.311 20.073 23.203 20.037 23.15 19.966L23.132 19.948C23.043 19.841 22.151 18.948 21.42 18.341C21.331 18.251 21.206 18.162 21.081 18.162C21.028 18.162 20.974 18.18 20.921 18.233C20.778 18.394 20.992 18.626 21.081 18.716L22.579 20.376C22.579 20.394 22.561 20.43 22.526 20.484C22.472 20.555 22.294 20.734 21.741 20.805C21.67 20.805 21.616 20.823 21.545 20.823C20.992 20.823 20.386 20.555 20.082 20.394C20.225 20.091 20.296 19.769 20.296 19.448C20.296 18.216 19.298 17.216 18.067 17.216C18.049 17.216 18.013 17.216 17.996 17.216C18.031 16.644 17.96 15.59 16.854 15.108C16.533 14.965 16.23 14.894 15.927 14.894C15.695 14.894 15.463 14.93 15.249 15.019C15.017 14.572 14.643 14.251 14.161 14.09C13.894 14.001 13.626 13.947 13.359 13.947C12.895 13.947 12.485 14.09 12.11 14.34C11.753 13.894 11.218 13.626 10.648 13.626C10.148 13.626 9.667 13.822 9.31 14.18C8.846 13.822 6.991 12.644 2.051 11.519C1.819 11.465 1.284 11.304 0.945 11.215C1.373 8.947 2.782 6.911 4.887 5.233ZM14.054 18.144L14.001 18.091L13.947 18.091C13.911 18.091 13.858 18.108 13.804 18.144C13.555 18.323 13.305 18.412 13.073 18.412C12.93 18.412 12.806 18.376 12.663 18.341C11.521 17.894 11.611 16.805 11.664 16.483C11.664 16.412 11.664 16.358 11.611 16.323L11.521 16.251L11.45 16.323C11.218 16.537 10.933 16.662 10.63 16.662C9.97 16.662 9.435 16.126 9.435 15.465C9.435 14.805 9.97 14.269 10.63 14.269C11.218 14.269 11.736 14.715 11.807 15.305L11.843 15.626L12.021 15.358C12.039 15.323 12.52 14.59 13.412 14.59C13.573 14.59 13.751 14.626 13.929 14.68C14.643 14.894 14.75 15.537 14.767 15.805C14.785 15.965 14.892 15.965 14.91 15.965C14.964 15.965 15.017 15.93 15.053 15.894C15.178 15.751 15.481 15.519 15.927 15.519C16.141 15.519 16.355 15.573 16.587 15.662C17.71 16.144 17.193 17.573 17.193 17.591C17.104 17.823 17.086 17.93 17.175 17.983L17.211 18.001L17.247 18.001C17.3 18.001 17.354 17.983 17.461 17.948C17.621 17.894 17.835 17.823 18.067 17.823C18.905 17.841 19.601 18.519 19.601 19.359C19.601 20.198 18.905 20.894 18.067 20.894C17.247 20.894 16.569 20.251 16.533 19.43C16.533 19.359 16.515 19.18 16.373 19.18C16.301 19.18 16.248 19.216 16.194 19.269C16.016 19.43 15.784 19.609 15.445 19.609C15.285 19.609 15.124 19.573 14.946 19.501C14.072 19.144 14.054 18.555 14.09 18.305C14.09 18.251 14.108 18.198 14.054 18.144ZM19.512 24.788C9.149 24.788 0.749 19.412 0.749 12.769C0.749 12.501 0.767 12.233 0.803 11.965C0.892 11.983 1.712 12.179 1.873 12.215C6.92 13.34 8.597 14.501 8.882 14.733C8.793 14.965 8.739 15.215 8.739 15.465C8.739 16.519 9.595 17.358 10.63 17.358C10.755 17.358 10.862 17.341 10.986 17.323C11.147 18.091 11.646 18.68 12.413 18.984C12.645 19.073 12.859 19.109 13.091 19.109C13.234 19.109 13.376 19.091 13.519 19.055C13.662 19.412 13.983 19.859 14.696 20.162C14.946 20.269 15.196 20.323 15.445 20.323C15.641 20.323 15.838 20.287 16.016 20.216C16.355 21.055 17.175 21.609 18.085 21.609C18.691 21.609 19.262 21.359 19.69 20.93C20.047 21.127 20.814 21.502 21.581 21.502C21.688 21.502 21.777 21.502 21.866 21.484C22.633 21.394 22.989 21.091 23.15 20.859C23.186 20.823 23.203 20.769 23.221 20.734C23.4 20.787 23.596 20.823 23.828 20.823C24.238 20.823 24.648 20.68 25.058 20.394C25.451 20.109 25.736 19.698 25.772 19.341L25.772 19.323C25.914 19.359 26.039 19.359 26.182 19.359C26.61 19.359 27.038 19.234 27.43 18.966C28.215 18.448 28.34 17.787 28.34 17.358C28.483 17.394 28.608 17.394 28.75 17.394C29.16 17.394 29.553 17.269 29.927 17.037C30.409 16.733 30.694 16.251 30.748 15.698C30.783 15.323 30.676 14.948 30.48 14.626C31.782 14.072 34.761 12.983 38.256 12.179C38.274 12.376 38.274 12.572 38.274 12.787C38.274 19.412 29.874 24.788 19.512 24.788Z" fill="rgb(10,0,128)" fill-opacity="1.000" fill-rule="nonzero" transform="matrix(1 0 0 1 12 16.0099)"/><path d="M60.871 3.939C60.158 3.046 59.088 2.599 57.643 2.599C56.198 2.599 55.128 3.046 54.415 3.939C53.702 4.832 53.345 5.885 53.345 7.082C53.345 8.296 53.702 9.368 54.415 10.243C55.128 11.118 56.198 11.564 57.643 11.564C59.088 11.564 60.158 11.118 60.871 10.243C61.585 9.368 61.941 8.314 61.941 7.082C61.941 5.85 61.585 4.832 60.871 3.939ZM59.123 9.046C58.785 9.511 58.285 9.725 57.643 9.725C57.001 9.725 56.502 9.493 56.163 9.046C55.824 8.582 55.646 7.939 55.646 7.1C55.646 6.26 55.824 5.617 56.163 5.153C56.502 4.707 57.001 4.474 57.643 4.474C58.285 4.474 58.785 4.707 59.123 5.153C59.462 5.6 59.641 6.26 59.641 7.1C59.641 7.939 59.462 8.582 59.123 9.046ZM42.769 3.189C42.055 2.832 41.235 2.635 40.307 2.635C38.881 2.635 37.882 3.01 37.293 3.742C36.919 4.224 36.723 4.832 36.669 5.564L38.791 5.564C38.845 5.242 38.952 4.975 39.112 4.796C39.326 4.546 39.701 4.403 40.236 4.403C40.7 4.403 41.056 4.474 41.306 4.6C41.556 4.725 41.663 4.975 41.663 5.314C41.663 5.6 41.502 5.814 41.181 5.939C41.003 6.01 40.718 6.082 40.307 6.135L39.558 6.225C38.702 6.332 38.06 6.51 37.614 6.76C36.812 7.225 36.401 7.975 36.401 9.011C36.401 9.814 36.651 10.421 37.151 10.868C37.65 11.296 38.292 11.493 39.059 11.529C43.874 11.743 43.821 8.993 43.857 8.421L43.857 5.26C43.839 4.26 43.482 3.564 42.769 3.189ZM41.645 7.993C41.627 8.725 41.413 9.243 41.021 9.511C40.611 9.796 40.165 9.921 39.683 9.921C39.38 9.921 39.112 9.832 38.916 9.671C38.702 9.511 38.595 9.225 38.595 8.85C38.595 8.421 38.774 8.118 39.112 7.921C39.326 7.796 39.647 7.707 40.129 7.618L40.628 7.528C40.878 7.475 41.074 7.421 41.217 7.368C41.36 7.314 41.502 7.243 41.645 7.153L41.645 7.993ZM31.8 4.528C32.353 4.528 32.745 4.707 33.013 5.046C33.191 5.296 33.298 5.582 33.352 5.903L35.724 5.903C35.599 4.707 35.171 3.867 34.475 3.403C33.762 2.939 32.852 2.689 31.747 2.689C30.445 2.689 29.41 3.082 28.679 3.885C27.93 4.689 27.573 5.814 27.573 7.26C27.573 8.528 27.912 9.582 28.59 10.386C29.267 11.189 30.302 11.582 31.729 11.582C33.155 11.582 34.226 11.1 34.957 10.136C35.421 9.546 35.67 8.903 35.724 8.243L33.334 8.243C33.28 8.689 33.155 9.046 32.924 9.332C32.692 9.6 32.317 9.743 31.764 9.743C30.997 9.743 30.48 9.386 30.195 8.689C30.034 8.314 29.963 7.814 29.963 7.207C29.963 6.6 30.034 6.046 30.195 5.653C30.48 4.903 31.015 4.528 31.8 4.528ZM26.913 2.671C22.044 2.671 22.33 6.993 22.33 6.993L22.33 11.386L24.541 11.386L24.541 7.278C24.541 6.6 24.63 6.1 24.791 5.778C25.094 5.207 25.683 4.921 26.574 4.921C26.646 4.921 26.735 4.921 26.842 4.939C26.949 4.939 27.074 4.957 27.216 4.975L27.216 2.724C27.127 2.724 27.056 2.707 27.02 2.707C26.985 2.671 26.949 2.671 26.913 2.671ZM20.564 4.314C20.189 3.742 19.69 3.332 19.119 3.064C18.531 2.796 17.871 2.671 17.14 2.671C15.909 2.671 14.91 3.064 14.143 3.832C13.376 4.617 12.984 5.725 12.984 7.189C12.984 8.743 13.412 9.868 14.268 10.564C15.124 11.261 16.105 11.6 17.229 11.6C18.584 11.6 19.636 11.189 20.386 10.368C20.796 9.939 21.045 9.511 21.152 9.1L18.798 9.1C18.709 9.225 18.602 9.35 18.495 9.439C18.174 9.689 17.764 9.778 17.264 9.778C16.801 9.778 16.426 9.707 16.087 9.493C15.534 9.153 15.231 8.582 15.196 7.743L21.313 7.743C21.313 7.01 21.295 6.457 21.242 6.064C21.135 5.385 20.903 4.814 20.564 4.314ZM15.231 6.26C15.303 5.707 15.499 5.278 15.82 4.957C16.123 4.635 16.569 4.474 17.14 4.474C17.657 4.474 18.085 4.617 18.442 4.921C18.798 5.225 18.977 5.671 19.03 6.242L15.231 6.242L15.231 6.26ZM8.579 2.635C7.544 2.635 6.67 3.082 6.064 3.814C5.493 3.099 4.619 2.635 3.549 2.635C1.391 2.635 0 4.224 0 6.332L0 11.368L2.015 11.368L2.015 6.278C2.015 5.35 2.64 4.707 3.549 4.707C4.887 4.707 5.012 5.814 5.012 6.278L5.012 11.368L7.027 11.368L7.027 6.278C7.027 5.35 7.669 4.707 8.561 4.707C9.898 4.707 10.041 5.814 10.041 6.278L10.041 11.368L12.057 11.368L12.057 6.332C12.092 4.171 10.79 2.635 8.579 2.635ZM50.473 1.564L50.473 3.939C50.224 3.546 49.903 3.224 49.51 3.01C49.118 2.796 48.672 2.671 48.155 2.671C47.049 2.671 46.175 3.082 45.515 3.903C44.855 4.725 44.516 5.921 44.516 7.35C44.516 8.6 44.855 9.618 45.515 10.404C46.193 11.189 47.495 11.546 48.672 11.546C52.738 11.546 52.703 8.046 52.703 8.046L52.703 0.01C52.703 0.01 50.473 -0.222 50.473 1.564ZM50.045 9.064C49.724 9.528 49.243 9.761 48.636 9.761C48.03 9.761 47.548 9.528 47.245 9.064C46.942 8.6 46.782 7.921 46.782 7.135C46.782 6.421 46.924 5.814 47.227 5.332C47.531 4.85 47.994 4.6 48.636 4.6C49.064 4.6 49.421 4.725 49.742 4.992C50.259 5.439 50.527 6.225 50.527 7.26C50.545 7.993 50.366 8.6 50.045 9.064ZM4.673 14.761C2.854 14.672 1.926 15.118 1.338 15.565C0.517 16.19 0 17.136 0 18.636L0 26.333L1.07 26.333C1.355 26.333 1.641 26.226 1.855 26.048C2.087 25.833 2.212 25.565 2.212 25.244L2.212 22.351C2.479 22.797 2.818 23.137 3.246 23.351C3.656 23.547 4.138 23.637 4.673 23.637C5.689 23.637 6.528 23.226 7.17 22.422C7.812 21.583 8.151 20.494 8.151 19.154C8.151 17.797 7.847 16.85 7.098 15.94C6.528 15.207 5.618 14.797 4.673 14.761ZM5.44 21.065C5.119 21.511 4.673 21.744 4.102 21.744C3.496 21.744 3.032 21.529 2.711 21.065C2.39 20.654 2.229 20.047 2.229 19.243C2.229 18.368 2.372 17.725 2.675 17.315C2.996 16.868 3.46 16.636 4.049 16.636C4.637 16.636 5.119 16.868 5.44 17.315C5.761 17.761 5.921 18.404 5.921 19.243C5.921 20.011 5.761 20.619 5.44 21.065ZM23.667 15.547C22.918 14.975 22.151 14.672 20.831 14.707C19.494 14.743 18.513 15.118 17.906 15.94C17.3 16.761 16.997 17.833 16.997 19.154C16.997 20.279 17.229 21.208 17.675 21.904C18.138 22.601 18.673 23.083 19.315 23.333C19.958 23.583 20.6 23.637 21.242 23.494C21.884 23.351 22.401 22.976 22.793 22.369L22.793 22.904C22.758 23.583 22.579 24.101 22.294 24.44C22.009 24.78 21.688 24.994 21.331 25.065C20.974 25.137 20.635 25.101 20.279 24.94C19.922 24.78 19.672 24.547 19.494 24.244L17.157 24.244C17.764 26.065 18.852 26.869 20.796 26.994C23.935 27.226 24.951 24.547 24.951 23.119L24.951 18.601C24.987 17.136 24.488 16.172 23.667 15.547ZM22.74 19.993C22.651 20.494 22.526 20.869 22.33 21.101C21.919 21.654 21.295 21.851 20.457 21.69C19.601 21.529 19.173 20.708 19.173 19.243C19.173 18.565 19.298 17.958 19.547 17.422C19.797 16.886 20.296 16.618 21.01 16.618C21.545 16.618 21.955 16.815 22.223 17.19C22.508 17.583 22.668 18.011 22.758 18.511C22.829 18.993 22.829 19.493 22.74 19.993ZM15.106 15.332C14.393 14.975 13.573 14.779 12.645 14.779C11.218 14.779 10.22 15.154 9.631 15.886C9.256 16.368 9.06 16.975 9.007 17.708L11.129 17.708C11.183 17.386 11.29 17.118 11.45 16.94C11.664 16.69 12.039 16.547 12.574 16.547C13.037 16.547 13.394 16.618 13.644 16.743C13.894 16.868 14.001 17.118 14.001 17.458C14.001 17.743 13.84 17.958 13.519 18.083C13.341 18.154 13.055 18.226 12.645 18.279L11.896 18.368C11.04 18.476 10.38 18.654 9.952 18.904C9.149 19.368 8.739 20.118 8.739 21.154C8.739 21.958 8.989 22.565 9.488 23.012C9.988 23.44 10.63 23.637 11.397 23.672C16.194 23.887 16.141 21.136 16.194 20.565L16.194 17.404C16.194 16.386 15.838 15.69 15.106 15.332ZM13.983 20.136C13.965 20.869 13.751 21.386 13.359 21.654C12.948 21.94 12.502 22.065 12.021 22.065C11.718 22.065 11.468 21.976 11.254 21.815C11.04 21.654 10.933 21.369 10.933 20.994C10.933 20.565 11.111 20.261 11.45 20.065C11.664 19.94 11.985 19.851 12.467 19.761L12.966 19.672C13.216 19.618 13.412 19.583 13.555 19.511C13.697 19.458 13.84 19.386 13.983 19.297L13.983 20.136ZM33.334 16.029C32.62 15.136 31.55 14.69 30.106 14.69C28.661 14.69 27.591 15.136 26.878 16.029C26.164 16.922 25.807 17.975 25.807 19.172C25.807 20.369 26.164 21.458 26.878 22.333C27.591 23.208 28.661 23.637 30.106 23.637C31.55 23.637 32.62 23.19 33.334 22.333C34.047 21.458 34.404 20.404 34.404 19.172C34.404 17.94 34.047 16.922 33.334 16.029ZM31.586 21.119C31.247 21.583 30.748 21.797 30.106 21.797C29.464 21.797 28.964 21.565 28.625 21.119C28.269 20.654 28.108 20.011 28.108 19.172C28.108 18.333 28.287 17.69 28.625 17.225C28.964 16.779 29.464 16.547 30.106 16.547C30.748 16.547 31.247 16.779 31.586 17.225C31.925 17.672 32.103 18.333 32.103 19.172C32.103 20.029 31.925 20.672 31.586 21.119Z" fill="rgb(10,0,128)" fill-opacity="1.000" fill-rule="nonzero" transform="matrix(1 0 0 1 57.0515 16)"/></svg>