<svg xmlns="http://www.w3.org/2000/svg" viewBox="0 0 60 60" width="60" height="60"><path d="M0 0L60 0L60 60L0 60L0 0Z" fill="rgb(255,255,255)" fill-opacity="1.000" fill-rule="nonzero" transform="matrix(1 0 0 1 0 0)"/><path d="M24.602 0C11.018 0 0 7.064 0 15.757C0 24.45 11.018 32.203 24.602 32.203C38.185 32.203 49.203 24.473 49.203 15.757C49.203 7.041 38.185 0 24.602 0Z" fill="rgb(0,188,255)" fill-opacity="1.000" fill-rule="nonzero" transform="matrix(1 0 0 1 5.4581 13.6422)"/><path d="M0.148 5.552C0.125 5.575 -0.104 5.827 0.057 6.034C0.446 6.515 1.614 6.79 2.805 6.538C3.515 6.378 4.409 5.667 5.302 4.956C6.264 4.199 7.203 3.442 8.143 3.144C9.15 2.822 9.792 2.96 10.227 3.098C10.685 3.235 11.235 3.556 12.128 4.199C13.778 5.437 20.398 11.24 21.566 12.226C22.482 11.814 26.88 10.025 32.446 8.809C31.965 5.827 30.179 3.006 27.43 0.781C23.604 2.387 18.634 3.35 14.052 1.125C14.03 1.125 11.556 -0.045 9.128 0.001C5.508 0.093 3.928 1.653 2.279 3.327L0.148 5.552Z" fill="rgb(255,255,255)" fill-opacity="1.000" fill-rule="nonzero" transform="matrix(1 0 0 1 21.8942 18.9851)"/><path d="M37.498 12.523C37.429 12.454 29.71 5.688 27.946 4.381C26.938 3.624 26.365 3.418 25.77 3.349C25.472 3.303 25.037 3.372 24.739 3.44C23.914 3.67 22.861 4.381 21.921 5.115C20.937 5.895 20.02 6.629 19.173 6.812C18.073 7.064 16.745 6.766 16.126 6.353C15.874 6.193 15.714 5.986 15.622 5.803C15.393 5.275 15.805 4.863 15.874 4.794L18.004 2.477C18.256 2.225 18.508 1.973 18.76 1.743C18.073 1.835 17.432 2.018 16.813 2.179C16.035 2.385 15.302 2.592 14.546 2.592C14.225 2.592 12.553 2.317 12.232 2.225C10.308 1.697 8.109 1.193 5.589 0C2.566 2.248 0.596 5.023 0 8.142C0.435 8.257 1.581 8.509 1.878 8.578C8.727 10.115 10.858 11.675 11.247 11.996C11.659 11.537 12.278 11.239 12.942 11.239C13.698 11.239 14.385 11.629 14.798 12.202C15.187 11.881 15.737 11.629 16.424 11.629C16.745 11.629 17.065 11.698 17.409 11.789C18.188 12.065 18.577 12.569 18.783 13.028C19.035 12.913 19.356 12.821 19.745 12.821C20.112 12.821 20.501 12.913 20.891 13.074C22.151 13.624 22.357 14.863 22.242 15.803C22.334 15.803 22.425 15.78 22.517 15.78C24.006 15.78 25.243 16.996 25.243 18.51C25.243 18.968 25.128 19.404 24.922 19.794C25.335 20.024 26.365 20.551 27.282 20.436C28.015 20.345 28.289 20.092 28.381 19.955C28.45 19.863 28.519 19.748 28.45 19.657L26.526 17.5C26.526 17.5 26.205 17.202 26.32 17.088C26.434 16.973 26.617 17.134 26.755 17.248C27.74 18.074 28.931 19.312 28.931 19.312C28.954 19.335 29.023 19.473 29.481 19.565C29.87 19.634 30.534 19.588 31.015 19.198C31.13 19.106 31.244 18.968 31.359 18.854L31.336 18.877C31.84 18.234 31.29 17.592 31.29 17.592L29.023 15.046C29.023 15.046 28.702 14.748 28.816 14.633C28.908 14.519 29.114 14.679 29.274 14.794C29.985 15.39 30.992 16.4 31.977 17.363C32.161 17.5 33.008 18.028 34.154 17.294C34.841 16.835 34.978 16.285 34.955 15.872C34.909 15.322 34.474 14.932 34.474 14.932L31.382 11.835C31.382 11.835 31.061 11.56 31.176 11.422C31.267 11.308 31.473 11.468 31.611 11.583C32.596 12.409 35.253 14.84 35.253 14.84C35.299 14.863 36.215 15.528 37.338 14.794C37.75 14.542 38.002 14.152 38.025 13.693C38.048 12.982 37.498 12.523 37.498 12.523Z" fill="rgb(255,255,255)" fill-opacity="1.000" fill-rule="nonzero" transform="matrix(1 0 0 1 5.6643 19.3075)"/><path d="M11.224 4.564C10.743 4.564 10.216 4.84 10.148 4.794C10.102 4.771 10.17 4.587 10.216 4.473C10.262 4.358 10.881 2.477 9.369 1.812C8.201 1.307 7.468 1.881 7.238 2.133C7.17 2.202 7.147 2.202 7.147 2.11C7.124 1.766 6.964 0.849 5.956 0.528C4.513 0.092 3.573 1.101 3.344 1.468C3.23 0.642 2.543 0 1.695 0C0.756 0 0.023 0.757 0 1.674C0 2.615 0.756 3.349 1.672 3.349C2.13 3.349 2.543 3.165 2.84 2.89C2.84 2.89 2.863 2.913 2.84 2.936C2.772 3.349 2.634 4.863 4.215 5.482C4.856 5.734 5.383 5.551 5.841 5.23C5.979 5.138 6.001 5.184 5.979 5.298C5.91 5.688 6.001 6.514 7.17 6.996C8.063 7.363 8.59 6.996 8.934 6.674C9.094 6.537 9.117 6.56 9.14 6.766C9.185 7.89 10.125 8.785 11.247 8.785C12.415 8.785 13.354 7.844 13.354 6.674C13.332 5.528 12.392 4.587 11.224 4.564Z" fill="rgb(255,255,255)" fill-opacity="1.000" fill-rule="nonzero" transform="matrix(1 0 0 1 16.9801 31.1887)"/><path d="M25.06 0C11.224 0 0 7.363 0 16.422C0 16.652 0 17.294 0 17.386C0 26.973 9.804 34.749 25.06 34.749C40.315 34.749 50.119 26.973 50.119 17.386L50.119 16.422C50.119 7.363 38.895 0 25.06 0ZM48.974 14.588C43.522 15.803 39.468 17.569 38.437 18.005C36.055 15.918 30.557 11.147 29.068 10.023C28.221 9.381 27.648 9.037 27.121 8.899C26.892 8.831 26.572 8.762 26.159 8.762C25.77 8.762 25.38 8.831 24.945 8.968C23.983 9.266 23.021 10.046 22.105 10.78L22.105 10.803C21.234 11.491 20.341 12.202 19.677 12.363C19.379 12.432 19.081 12.454 18.783 12.454C18.027 12.454 17.34 12.225 17.088 11.904C17.042 11.858 17.065 11.766 17.18 11.629L17.203 11.606L19.287 9.358C20.937 7.707 22.471 6.17 26.045 6.078C26.113 6.078 26.159 6.078 26.228 6.078C28.45 6.078 30.672 7.064 30.901 7.179C32.985 8.188 35.116 8.716 37.292 8.716C39.537 8.716 41.85 8.165 44.278 7.041C46.775 9.198 48.47 11.789 48.974 14.588ZM25.06 0.963C32.413 0.963 38.987 3.073 43.408 6.399C41.277 7.317 39.239 7.798 37.269 7.798C35.253 7.798 33.237 7.317 31.29 6.353C31.199 6.308 28.748 5.138 26.182 5.138C26.113 5.138 26.045 5.138 25.976 5.138C22.975 5.207 21.303 6.262 20.158 7.202C19.058 7.225 18.096 7.5 17.249 7.73C16.493 7.936 15.851 8.119 15.21 8.119C14.958 8.119 14.477 8.097 14.431 8.097C13.698 8.074 10.033 7.179 7.101 6.078C11.545 2.936 17.936 0.963 25.06 0.963ZM6.276 6.72C9.323 7.982 13.034 8.945 14.225 9.014C14.546 9.037 14.889 9.083 15.256 9.083C16.035 9.083 16.813 8.853 17.569 8.647C18.004 8.532 18.508 8.395 19.012 8.28C18.875 8.418 18.737 8.555 18.6 8.693L16.47 10.987C16.309 11.147 15.943 11.606 16.172 12.156C16.264 12.386 16.47 12.592 16.722 12.776C17.226 13.12 18.142 13.349 18.967 13.349C19.287 13.349 19.585 13.326 19.86 13.257C20.753 13.051 21.692 12.317 22.677 11.514C23.456 10.895 24.579 10.092 25.449 9.863C25.701 9.794 25.976 9.748 26.228 9.748C26.297 9.748 26.365 9.748 26.434 9.771C27.007 9.84 27.556 10.046 28.519 10.78C30.259 12.087 37.979 18.854 38.048 18.923C38.048 18.923 38.552 19.358 38.506 20.069C38.483 20.459 38.277 20.803 37.887 21.056C37.567 21.262 37.223 21.377 36.879 21.377C36.353 21.377 36.009 21.124 35.986 21.124C35.963 21.102 33.306 18.67 32.344 17.845C32.184 17.707 32.046 17.592 31.886 17.592C31.794 17.592 31.725 17.638 31.68 17.684C31.519 17.867 31.703 18.143 31.909 18.303L35.001 21.423C35.001 21.423 35.39 21.79 35.436 22.271C35.459 22.776 35.207 23.212 34.703 23.556C34.337 23.808 33.97 23.923 33.604 23.923C33.123 23.923 32.802 23.716 32.733 23.647L32.298 23.212C31.496 22.409 30.649 21.583 30.03 21.079C29.87 20.964 29.733 20.849 29.572 20.849C29.504 20.849 29.435 20.872 29.366 20.941C29.297 21.01 29.252 21.147 29.412 21.4C29.481 21.491 29.572 21.583 29.572 21.583L31.817 24.129C31.84 24.152 32.275 24.68 31.863 25.207L31.771 25.299C31.703 25.368 31.634 25.437 31.565 25.505C31.176 25.826 30.672 25.849 30.466 25.849C30.351 25.849 30.259 25.849 30.168 25.826C29.939 25.781 29.801 25.735 29.733 25.643L29.71 25.62C29.595 25.482 28.45 24.336 27.511 23.556C27.396 23.441 27.236 23.326 27.075 23.326C27.007 23.326 26.938 23.349 26.869 23.418C26.686 23.625 26.961 23.923 27.075 24.037L29 26.17C29 26.193 28.977 26.239 28.931 26.308C28.862 26.4 28.633 26.629 27.923 26.721C27.831 26.721 27.763 26.744 27.671 26.744C26.961 26.744 26.182 26.4 25.793 26.193C25.976 25.803 26.068 25.391 26.068 24.978C26.068 23.395 24.785 22.111 23.204 22.111C23.181 22.111 23.136 22.111 23.113 22.111C23.158 21.377 23.067 20.024 21.647 19.404C21.234 19.221 20.845 19.129 20.455 19.129C20.158 19.129 19.86 19.175 19.585 19.29C19.287 18.716 18.806 18.303 18.188 18.097C17.844 17.982 17.501 17.913 17.157 17.913C16.561 17.913 16.035 18.097 15.553 18.418C15.095 17.845 14.408 17.5 13.675 17.5C13.034 17.5 12.415 17.753 11.957 18.212C11.362 17.753 8.979 16.239 2.634 14.794C2.336 14.725 1.649 14.519 1.214 14.404C1.764 11.491 3.573 8.876 6.276 6.72ZM18.05 23.303L17.982 23.235L17.913 23.235C17.867 23.235 17.798 23.258 17.73 23.303C17.409 23.533 17.088 23.647 16.79 23.647C16.607 23.647 16.447 23.602 16.264 23.556C14.798 22.982 14.912 21.583 14.981 21.17C14.981 21.079 14.981 21.01 14.912 20.964L14.798 20.872L14.706 20.964C14.408 21.239 14.042 21.4 13.652 21.4C12.805 21.4 12.118 20.712 12.118 19.863C12.118 19.014 12.805 18.326 13.652 18.326C14.408 18.326 15.072 18.9 15.164 19.657L15.21 20.069L15.439 19.725C15.462 19.679 16.08 18.739 17.226 18.739C17.432 18.739 17.661 18.785 17.89 18.854C18.806 19.129 18.944 19.955 18.967 20.299C18.989 20.505 19.127 20.505 19.15 20.505C19.219 20.505 19.287 20.459 19.333 20.413C19.493 20.23 19.883 19.932 20.455 19.932C20.73 19.932 21.005 20.001 21.303 20.115C22.746 20.735 22.082 22.569 22.082 22.592C21.967 22.891 21.944 23.028 22.059 23.097L22.105 23.12L22.151 23.12C22.219 23.12 22.288 23.097 22.425 23.051C22.632 22.982 22.906 22.891 23.204 22.891C24.281 22.913 25.174 23.785 25.174 24.863C25.174 25.941 24.281 26.836 23.204 26.836C22.151 26.836 21.28 26.01 21.234 24.955C21.234 24.863 21.211 24.634 21.028 24.634C20.937 24.634 20.868 24.68 20.799 24.748C20.57 24.955 20.272 25.184 19.837 25.184C19.631 25.184 19.425 25.138 19.196 25.047C18.073 24.588 18.05 23.831 18.096 23.51C18.096 23.441 18.119 23.372 18.05 23.303ZM25.06 31.836C11.751 31.836 0.962 24.932 0.962 16.4C0.962 16.056 0.985 15.711 1.031 15.367C1.145 15.39 2.199 15.643 2.405 15.689C8.888 17.134 11.041 18.624 11.407 18.923C11.293 19.221 11.224 19.542 11.224 19.863C11.224 21.216 12.324 22.294 13.652 22.294C13.813 22.294 13.95 22.271 14.11 22.248C14.317 23.235 14.958 23.992 15.943 24.381C16.241 24.496 16.516 24.542 16.813 24.542C16.997 24.542 17.18 24.519 17.363 24.473C17.546 24.932 17.959 25.505 18.875 25.895C19.196 26.033 19.516 26.102 19.837 26.102C20.089 26.102 20.341 26.056 20.57 25.964C21.005 27.042 22.059 27.753 23.227 27.753C24.006 27.753 24.739 27.432 25.289 26.881C25.747 27.134 26.732 27.615 27.717 27.615C27.854 27.615 27.969 27.615 28.083 27.593C29.068 27.478 29.526 27.088 29.733 26.79C29.778 26.744 29.801 26.675 29.824 26.629C30.053 26.698 30.305 26.744 30.603 26.744C31.13 26.744 31.657 26.56 32.184 26.193C32.688 25.826 33.054 25.299 33.1 24.84L33.1 24.817C33.283 24.863 33.443 24.863 33.627 24.863C34.176 24.863 34.726 24.703 35.23 24.358C36.238 23.693 36.398 22.845 36.398 22.294C36.582 22.34 36.742 22.34 36.925 22.34C37.452 22.34 37.956 22.18 38.437 21.881C39.056 21.491 39.422 20.872 39.491 20.161C39.537 19.679 39.399 19.198 39.147 18.785C40.819 18.074 44.645 16.675 49.134 15.643C49.157 15.895 49.157 16.147 49.157 16.422C49.157 24.932 38.368 31.836 25.06 31.836Z" fill="rgb(10,0,128)" fill-opacity="1.000" fill-rule="nonzero" transform="matrix(1 0 0 1 5 13)"/></svg>