<svg xmlns="http://www.w3.org/2000/svg" viewBox="0 0 60 60" width="60" height="60"><path d="M0 0L60 0L60 60L0 60L0 0Z" fill="rgb(239,71,35)" fill-opacity="1.000" fill-rule="nonzero" transform="matrix(1 0 0 1 0 0)"/><path d="M16.211 1.097C18.754 -0.366 21.742 -0.366 24.221 1.097L36.427 8.089C38.906 9.552 40.432 12.158 40.432 15.019L40.432 29.131C40.432 31.992 38.906 34.599 36.427 36.061L24.221 43.054C23.006 43.763 21.623 44.137 20.216 44.137C18.809 44.137 17.427 43.763 16.211 43.054L4.006 36.061C2.775 35.358 1.755 34.339 1.051 33.11C0.347 31.88 -0.016 30.485 0.001 29.068L0.001 15.019C0.001 12.158 1.526 9.552 4.006 8.089L16.211 1.097Z" fill="rgb(255,255,255)" fill-opacity="1.000" fill-rule="nonzero" transform="matrix(1 0 0 1 9.5684 7.9233)"/><path d="M0 15.193L0 0L3.242 0L8.328 11.824L8.391 11.824L13.477 0L16.656 0L16.656 15.257L14.113 15.257L14.303 3.624L9.281 15.193L7.374 15.193L2.416 3.814L2.352 3.814L2.543 15.257L0 15.257L0 15.193ZM19.071 15.193L19.071 0L25.81 0C26.636 0 27.336 0.127 27.971 0.254C28.607 0.445 29.116 0.699 29.497 1.081C29.942 1.399 30.196 1.844 30.387 2.352C30.736 3.199 30.803 4.135 30.578 5.022L30.133 5.912C29.942 6.23 29.688 6.421 29.37 6.675L28.353 7.12L28.353 7.247C28.798 7.311 29.179 7.438 29.624 7.692L30.514 8.391L31.15 9.472C31.434 10.477 31.389 11.546 31.023 12.524C30.77 13.072 30.409 13.563 29.961 13.967C29.513 14.372 28.988 14.681 28.416 14.876C27.781 15.066 27.018 15.193 26.255 15.193L19.071 15.193ZM26.064 8.328L21.614 8.328L21.614 13.223L26.064 13.223C26.509 13.223 26.891 13.159 27.272 13.032L28.162 12.524L28.671 11.761C28.904 11.124 28.904 10.426 28.671 9.79L28.098 9.027C27.908 8.836 27.59 8.709 27.272 8.582C26.862 8.447 26.432 8.383 26.001 8.391L26.064 8.328ZM25.619 2.034L21.551 2.034L21.551 6.357L25.619 6.357C26.001 6.357 26.382 6.294 26.7 6.166C27.081 6.103 27.336 5.912 27.59 5.721C27.781 5.467 27.971 5.276 28.035 4.959C28.258 4.408 28.258 3.793 28.035 3.242C28.035 2.988 27.844 2.797 27.59 2.606C27.399 2.416 27.145 2.289 26.763 2.225C26.446 2.098 26.128 2.034 25.619 2.034Z" fill="rgb(239,71,35)" fill-opacity="1.000" fill-rule="nonzero" transform="matrix(1 0 0 1 14.5284 22.4971)"/></svg>