<svg xmlns="http://www.w3.org/2000/svg" viewBox="0 0 60 60" width="60" height="60"><path d="M0 0L60 0L60 60L0 60L0 0Z" fill="rgb(255,255,255)" fill-opacity="1.000" fill-rule="nonzero" transform="matrix(1 0 0 1 0 0)"/><path d="M23.364 0C10.464 0 0 6.709 0 14.964C0 23.22 10.464 30.582 23.364 30.582C36.263 30.582 46.727 23.242 46.727 14.964C46.727 6.687 36.263 0 23.364 0Z" fill="rgb(0,182,150)" fill-opacity="1.000" fill-rule="nonzero" transform="matrix(1 0 0 1 6.4337 13.6097)"/><path d="M0.141 5.273C0.119 5.294 -0.099 5.534 0.054 5.73C0.424 6.187 1.533 6.449 2.664 6.209C3.339 6.057 4.187 5.381 5.035 4.706C5.949 3.987 6.841 3.269 7.733 2.985C8.69 2.68 9.299 2.811 9.712 2.942C10.147 3.073 10.67 3.377 11.518 3.987C13.084 5.164 19.371 10.675 20.48 11.611C21.351 11.219 25.527 9.52 30.814 8.366C30.357 5.534 28.66 2.855 26.049 0.742C22.417 2.267 17.696 3.181 13.345 1.069C13.324 1.069 10.974 -0.042 8.668 0.001C5.231 0.088 3.73 1.57 2.164 3.16L0.141 5.273Z" fill="rgb(255,255,255)" fill-opacity="1.000" fill-rule="nonzero" transform="matrix(1 0 0 1 22.0454 18.6838)"/><path d="M35.611 11.893C35.546 11.828 28.215 5.402 26.54 4.16C25.582 3.442 25.039 3.246 24.473 3.18C24.19 3.137 23.777 3.202 23.494 3.267C22.711 3.485 21.71 4.16 20.818 4.857C19.883 5.598 19.013 6.295 18.208 6.469C17.164 6.709 15.902 6.426 15.315 6.034C15.075 5.881 14.923 5.685 14.836 5.511C14.619 5.01 15.01 4.618 15.075 4.552L17.098 2.352C17.338 2.113 17.577 1.873 17.816 1.655C17.164 1.743 16.555 1.917 15.967 2.069C15.228 2.265 14.531 2.461 13.814 2.461C13.509 2.461 11.921 2.2 11.616 2.113C9.789 1.612 7.701 1.133 5.308 0C2.436 2.135 0.566 4.77 0 7.733C0.413 7.842 1.501 8.081 1.784 8.147C8.288 9.606 10.311 11.087 10.681 11.392C11.073 10.956 11.66 10.673 12.291 10.673C13.009 10.673 13.661 11.044 14.053 11.588C14.423 11.283 14.945 11.044 15.597 11.044C15.902 11.044 16.207 11.109 16.533 11.196C17.272 11.457 17.642 11.937 17.838 12.372C18.077 12.263 18.382 12.176 18.752 12.176C19.1 12.176 19.47 12.263 19.839 12.416C21.036 12.939 21.232 14.115 21.123 15.008C21.21 15.008 21.297 14.986 21.384 14.986C22.798 14.986 23.973 16.141 23.973 17.578C23.973 18.014 23.864 18.428 23.668 18.798C24.06 19.016 25.039 19.517 25.909 19.408C26.605 19.321 26.866 19.081 26.953 18.95C27.018 18.863 27.083 18.754 27.018 18.667L25.191 16.62C25.191 16.62 24.886 16.337 24.995 16.228C25.104 16.119 25.278 16.271 25.408 16.38C26.344 17.164 27.475 18.341 27.475 18.341C27.497 18.362 27.562 18.493 27.997 18.58C28.367 18.646 28.998 18.602 29.455 18.232C29.563 18.145 29.672 18.014 29.781 17.905L29.759 17.927C30.238 17.317 29.716 16.707 29.716 16.707L27.562 14.289C27.562 14.289 27.257 14.006 27.366 13.897C27.453 13.788 27.649 13.941 27.801 14.05C28.476 14.616 29.433 15.574 30.368 16.489C30.542 16.62 31.347 17.121 32.435 16.424C33.087 15.988 33.218 15.465 33.196 15.073C33.153 14.55 32.739 14.18 32.739 14.18L29.803 11.24C29.803 11.24 29.498 10.978 29.607 10.848C29.694 10.739 29.89 10.891 30.02 11C30.956 11.784 33.479 14.093 33.479 14.093C33.523 14.115 34.393 14.747 35.459 14.05C35.85 13.81 36.089 13.44 36.111 13.004C36.133 12.329 35.611 11.893 35.611 11.893Z" fill="rgb(255,255,255)" fill-opacity="1.000" fill-rule="nonzero" transform="matrix(1 0 0 1 6.6302 18.9899)"/><path d="M10.659 4.335C10.203 4.335 9.702 4.596 9.637 4.552C9.593 4.531 9.659 4.356 9.702 4.248C9.746 4.139 10.333 2.352 8.897 1.721C7.788 1.242 7.092 1.786 6.874 2.026C6.809 2.091 6.787 2.091 6.787 2.004C6.765 1.677 6.613 0.806 5.656 0.501C4.285 0.087 3.394 1.046 3.176 1.394C3.067 0.61 2.415 0 1.61 0C0.718 0 0.022 0.719 0 1.59C0 2.483 0.718 3.18 1.588 3.18C2.023 3.18 2.415 3.006 2.697 2.745C2.697 2.745 2.719 2.766 2.697 2.788C2.632 3.18 2.502 4.618 4.003 5.206C4.612 5.446 5.112 5.271 5.547 4.966C5.678 4.879 5.699 4.923 5.678 5.032C5.612 5.402 5.699 6.186 6.809 6.644C7.657 6.992 8.158 6.644 8.484 6.339C8.636 6.208 8.658 6.23 8.68 6.426C8.723 7.493 9.615 8.343 10.681 8.343C11.791 8.343 12.682 7.449 12.682 6.339C12.661 5.249 11.769 4.356 10.659 4.335Z" fill="rgb(255,255,255)" fill-opacity="1.000" fill-rule="nonzero" transform="matrix(1 0 0 1 17.3775 30.2735)"/><path d="M23.799 0C10.659 0 0 6.992 0 15.596C0 15.814 0 16.424 0 16.511C0 25.616 9.311 33 23.799 33C38.287 33 47.597 25.616 47.597 16.511L47.597 15.596C47.597 6.992 36.938 0 23.799 0ZM46.509 13.853C41.332 15.008 37.482 16.685 36.503 17.099C34.24 15.117 29.019 10.586 27.605 9.519C26.801 8.909 26.257 8.582 25.756 8.451C25.539 8.386 25.234 8.321 24.843 8.321C24.473 8.321 24.103 8.386 23.69 8.517C22.776 8.8 21.863 9.541 20.992 10.238L20.992 10.259C20.166 10.913 19.317 11.588 18.686 11.741C18.404 11.806 18.121 11.828 17.838 11.828C17.12 11.828 16.468 11.61 16.228 11.305C16.185 11.261 16.207 11.174 16.315 11.044L16.337 11.022L18.317 8.887C19.883 7.319 21.34 5.859 24.734 5.772C24.799 5.772 24.843 5.772 24.908 5.772C27.018 5.772 29.128 6.709 29.346 6.818C31.325 7.776 33.348 8.277 35.415 8.277C37.547 8.277 39.744 7.754 42.05 6.687C44.421 8.735 46.031 11.196 46.509 13.853ZM23.799 0.915C30.782 0.915 37.025 2.919 41.223 6.077C39.2 6.949 37.264 7.406 35.393 7.406C33.479 7.406 31.565 6.949 29.716 6.034C29.629 5.99 27.301 4.879 24.865 4.879C24.799 4.879 24.734 4.879 24.669 4.879C21.819 4.945 20.231 5.947 19.143 6.84C18.099 6.861 17.185 7.123 16.381 7.341C15.663 7.537 15.054 7.711 14.444 7.711C14.205 7.711 13.748 7.689 13.705 7.689C13.009 7.667 9.528 6.818 6.744 5.772C10.964 2.788 17.033 0.915 23.799 0.915ZM5.961 6.382C8.854 7.58 12.378 8.495 13.509 8.56C13.814 8.582 14.14 8.626 14.488 8.626C15.228 8.626 15.967 8.408 16.685 8.212C17.098 8.103 17.577 7.972 18.056 7.863C17.925 7.994 17.795 8.125 17.664 8.255L15.641 10.434C15.489 10.586 15.141 11.022 15.358 11.545C15.445 11.762 15.641 11.958 15.88 12.133C16.359 12.459 17.229 12.677 18.012 12.677C18.317 12.677 18.599 12.655 18.86 12.59C19.709 12.394 20.601 11.697 21.536 10.935C22.276 10.347 23.342 9.584 24.168 9.366C24.408 9.301 24.669 9.257 24.908 9.257C24.973 9.257 25.039 9.257 25.104 9.279C25.648 9.345 26.17 9.541 27.083 10.238C28.737 11.479 36.068 17.905 36.133 17.97C36.133 17.97 36.612 18.384 36.568 19.059C36.546 19.43 36.35 19.756 35.981 19.996C35.676 20.192 35.35 20.301 35.024 20.301C34.523 20.301 34.197 20.061 34.175 20.061C34.153 20.04 31.63 17.731 30.716 16.947C30.564 16.816 30.433 16.707 30.281 16.707C30.194 16.707 30.129 16.75 30.085 16.794C29.933 16.968 30.107 17.23 30.303 17.382L33.24 20.345C33.24 20.345 33.61 20.693 33.653 21.15C33.675 21.63 33.435 22.044 32.957 22.37C32.609 22.61 32.261 22.719 31.913 22.719C31.456 22.719 31.151 22.523 31.086 22.457L30.673 22.044C29.911 21.281 29.106 20.497 28.519 20.018C28.367 19.909 28.236 19.8 28.084 19.8C28.019 19.8 27.954 19.822 27.888 19.887C27.823 19.952 27.78 20.083 27.932 20.323C27.997 20.41 28.084 20.497 28.084 20.497L30.216 22.915C30.238 22.937 30.651 23.438 30.259 23.939L30.172 24.026C30.107 24.091 30.042 24.156 29.977 24.222C29.607 24.527 29.128 24.549 28.932 24.549C28.824 24.549 28.737 24.549 28.65 24.527C28.432 24.483 28.302 24.44 28.236 24.352L28.215 24.331C28.106 24.2 27.018 23.111 26.126 22.37C26.017 22.261 25.865 22.152 25.713 22.152C25.648 22.152 25.582 22.174 25.517 22.24C25.343 22.436 25.604 22.719 25.713 22.828L27.54 24.853C27.54 24.875 27.518 24.919 27.475 24.984C27.41 25.071 27.192 25.289 26.518 25.376C26.431 25.376 26.366 25.398 26.279 25.398C25.604 25.398 24.865 25.071 24.495 24.875C24.669 24.505 24.756 24.113 24.756 23.721C24.756 22.218 23.538 20.998 22.037 20.998C22.015 20.998 21.971 20.998 21.95 20.998C21.993 20.301 21.906 19.016 20.557 18.428C20.166 18.253 19.796 18.166 19.426 18.166C19.143 18.166 18.86 18.21 18.599 18.319C18.317 17.774 17.86 17.382 17.272 17.186C16.946 17.077 16.62 17.012 16.294 17.012C15.728 17.012 15.228 17.186 14.771 17.491C14.336 16.947 13.683 16.62 12.987 16.62C12.378 16.62 11.791 16.859 11.355 17.295C10.79 16.859 8.527 15.422 2.502 14.05C2.219 13.984 1.566 13.788 1.153 13.679C1.675 10.913 3.394 8.43 5.961 6.382ZM17.142 22.131L17.077 22.065L17.011 22.065C16.968 22.065 16.903 22.087 16.837 22.131C16.533 22.349 16.228 22.457 15.945 22.457C15.771 22.457 15.619 22.414 15.445 22.37C14.053 21.826 14.162 20.497 14.227 20.105C14.227 20.018 14.227 19.952 14.162 19.909L14.053 19.822L13.966 19.909C13.683 20.17 13.335 20.323 12.965 20.323C12.16 20.323 11.508 19.669 11.508 18.863C11.508 18.057 12.16 17.404 12.965 17.404C13.683 17.404 14.314 17.949 14.401 18.667L14.444 19.059L14.662 18.733C14.684 18.689 15.271 17.796 16.359 17.796C16.555 17.796 16.772 17.84 16.99 17.905C17.86 18.166 17.99 18.95 18.012 19.277C18.034 19.473 18.164 19.473 18.186 19.473C18.251 19.473 18.317 19.43 18.36 19.386C18.512 19.212 18.882 18.929 19.426 18.929C19.687 18.929 19.948 18.994 20.231 19.103C21.601 19.691 20.971 21.434 20.971 21.455C20.862 21.739 20.84 21.869 20.949 21.935L20.992 21.956L21.036 21.956C21.101 21.956 21.166 21.935 21.297 21.891C21.493 21.826 21.754 21.739 22.037 21.739C23.059 21.76 23.907 22.588 23.907 23.612C23.907 24.636 23.059 25.485 22.037 25.485C21.036 25.485 20.209 24.701 20.166 23.699C20.166 23.612 20.144 23.394 19.97 23.394C19.883 23.394 19.818 23.438 19.752 23.503C19.535 23.699 19.252 23.917 18.839 23.917C18.643 23.917 18.447 23.873 18.23 23.786C17.164 23.35 17.142 22.632 17.185 22.327C17.185 22.261 17.207 22.196 17.142 22.131ZM23.799 30.234C11.16 30.234 0.914 23.677 0.914 15.574C0.914 15.248 0.935 14.921 0.979 14.594C1.088 14.616 2.088 14.855 2.284 14.899C8.44 16.271 10.485 17.687 10.833 17.97C10.725 18.253 10.659 18.558 10.659 18.863C10.659 20.149 11.704 21.172 12.965 21.172C13.118 21.172 13.248 21.15 13.4 21.129C13.596 22.065 14.205 22.784 15.141 23.154C15.423 23.263 15.684 23.307 15.967 23.307C16.141 23.307 16.315 23.285 16.489 23.242C16.663 23.677 17.055 24.222 17.925 24.592C18.23 24.723 18.534 24.788 18.839 24.788C19.078 24.788 19.317 24.745 19.535 24.657C19.948 25.681 20.949 26.356 22.058 26.356C22.798 26.356 23.494 26.051 24.016 25.529C24.451 25.768 25.387 26.226 26.322 26.226C26.453 26.226 26.561 26.226 26.67 26.204C27.605 26.095 28.041 25.725 28.236 25.442C28.28 25.398 28.302 25.333 28.323 25.289C28.541 25.354 28.78 25.398 29.063 25.398C29.563 25.398 30.064 25.224 30.564 24.875C31.043 24.527 31.391 24.026 31.434 23.59L31.434 23.568C31.608 23.612 31.76 23.612 31.934 23.612C32.457 23.612 32.979 23.459 33.457 23.133C34.414 22.501 34.567 21.695 34.567 21.172C34.741 21.216 34.893 21.216 35.067 21.216C35.567 21.216 36.046 21.063 36.503 20.78C37.09 20.41 37.438 19.822 37.503 19.147C37.547 18.689 37.416 18.232 37.177 17.84C38.765 17.164 42.398 15.836 46.662 14.855C46.684 15.095 46.684 15.335 46.684 15.596C46.684 23.677 36.438 30.234 23.799 30.234Z" fill="rgb(10,0,128)" fill-opacity="1.000" fill-rule="nonzero" transform="matrix(1 0 0 1 6 13)"/></svg>