<svg xmlns="http://www.w3.org/2000/svg" viewBox="0 0 130 60" width="130" height="60"><path d="M0 0L130 0L130 60L0 60L0 0Z" fill="rgb(255,255,255)" fill-opacity="1.000" fill-rule="nonzero" transform="matrix(1 0 0 1 0 0)"/><path d="M98.607 0L0 0L0 32.918L98.607 32.918L98.607 0Z" fill="rgb(0,0,0)" fill-opacity="1.000" fill-rule="nonzero" transform="matrix(1 0 0 1 16.4844 16)"/><path d="M98.517 0L0 0L0 27.004L98.517 27.004L98.517 0Z" fill="rgb(8,102,102)" fill-opacity="1.000" fill-rule="nonzero" transform="matrix(1 0 0 1 16.4844 21.9136)"/><path d="M19.39 0L22.256 0L22.256 20.772L17.805 20.772L17.805 6.914L11.128 15.431L4.451 6.974L4.451 20.772L0 20.772L0 0L4.006 0L11.128 9.051L17.638 0.847C18.062 0.312 18.708 0 19.39 0Z" fill="rgb(8,102,102)" fill-opacity="1.000" fill-rule="nonzero" transform="matrix(1 0 0 1 16.4844 21.9136)"/><path d="M4.178 16.163L0 16.163L0 1.067L4.178 0L4.178 16.163Z" fill="rgb(8,102,102)" fill-opacity="1.000" fill-rule="nonzero" transform="matrix(1 0 0 1 41.8554 26.5233)"/><path d="M11.199 8.012L11.199 1.061L15.177 0L15.177 20.772L12.224 20.772C11.658 20.772 11.199 20.31 11.199 19.74L11.199 18.992C11.199 18.992 9.725 21.069 6.925 21.069C3.242 21.069 0 17.805 0 13.502C0 9.199 3.242 5.935 6.925 5.935C9.725 5.935 11.199 8.012 11.199 8.012ZM11.198 13.502C11.198 11.128 9.578 9.496 7.662 9.496C5.747 9.496 4.126 11.128 4.126 13.502C4.126 15.876 5.747 17.508 7.662 17.508C9.578 17.508 11.198 15.876 11.198 13.502Z" fill="rgb(8,102,102)" fill-opacity="1.000" fill-rule="evenodd" transform="matrix(1 0 0 1 48.0862 21.9136)"/><path d="M12.76 0L15.579 8.754L18.398 0L22.553 0L17.597 14.541L14.836 14.541C14.393 14.541 14 14.259 13.858 13.84L11.277 6.232L8.457 14.541L4.956 14.541L0 0L4.154 0L6.974 8.754L9.793 0L12.76 0Z" fill="rgb(8,102,102)" fill-opacity="1.000" fill-rule="nonzero" transform="matrix(1 0 0 1 65.1217 28.1454)"/><path d="M8.841 13.354C8.841 13.354 7.367 15.134 4.863 15.134C1.915 15.134 0 13.205 0 10.98C0 8.606 1.621 6.944 4.274 6.469L8.841 5.638C8.841 4.451 7.956 3.561 6.336 3.561C4.126 3.561 3.094 5.045 3.094 5.045L0.884 2.819C0.884 2.819 2.799 0 6.63 0C10.315 0 12.819 2.522 12.819 5.786L12.819 14.837L9.866 14.837C9.3 14.837 8.841 14.375 8.841 13.805L8.841 13.354ZM8.841 8.606L8.841 8.161L5.599 8.754C4.568 8.932 3.979 9.496 3.979 10.386C3.979 11.277 4.568 11.87 5.894 11.87C7.662 11.87 8.841 10.683 8.841 8.606Z" fill="rgb(8,102,102)" fill-opacity="1.000" fill-rule="evenodd" transform="matrix(1 0 0 1 87.0332 27.8486)"/><path d="M5.638 14.392L0 0L4.155 0L7.567 9.644L10.98 0L15.134 0L9.348 15.431C8.012 18.992 6.232 20.773 3.709 20.773C2.225 20.773 1.187 20.327 1.187 20.327L1.187 17.021C1.187 16.902 1.303 16.819 1.415 16.858C1.666 16.945 2.109 17.063 2.671 17.063C4.006 17.063 4.807 16.321 5.193 15.431L5.638 14.392Z" fill="rgb(8,102,102)" fill-opacity="1.000" fill-rule="nonzero" transform="matrix(1 0 0 1 99.8674 28.1454)"/><path d="M2.957 5.913C4.59 5.913 5.913 4.59 5.913 2.957C5.913 1.324 4.59 0 2.957 0C1.324 0 0 1.324 0 2.957C0 4.59 1.324 5.913 2.957 5.913Z" fill="rgb(115,197,208)" fill-opacity="1.000" fill-rule="nonzero" transform="matrix(1 0 0 1 48.3018 16)"/></svg>