<svg xmlns="http://www.w3.org/2000/svg" viewBox="0 0 60 60" width="60" height="60"><path d="M0 0L60 0L60 60L0 60L0 0Z" fill="rgb(115,197,208)" fill-opacity="1.000" fill-rule="nonzero" transform="matrix(1 0 0 1 0 0)"/><path d="M24.206 0L27.784 0L27.784 25.932L22.227 25.932L22.227 8.632L13.892 19.264L5.557 8.706L5.557 25.932L0 25.932L0 0L5.001 0L13.892 11.299L22.018 1.057C22.548 0.389 23.354 0 24.206 0Z" fill="rgb(8,102,102)" fill-opacity="1.000" fill-rule="nonzero" transform="matrix(1 0 0 1 15 18.3823)"/><path d="M3.691 7.382C5.73 7.382 7.382 5.73 7.382 3.691C7.382 1.653 5.73 0 3.691 0C1.653 0 0 1.653 0 3.691C0 5.73 1.653 7.382 3.691 7.382Z" fill="rgb(255,255,255)" fill-opacity="1.000" fill-rule="nonzero" transform="matrix(1 0 0 1 44.9609 11)"/></svg>