<svg xmlns="http://www.w3.org/2000/svg" viewBox="0 0 60 60" width="60" height="60"><path d="M0 0L60 0L60 60L0 60L0 0Z" fill="rgb(255,255,255)" fill-opacity="1.000" fill-rule="nonzero" transform="matrix(1 0 0 1 0 0)"/><path d="M0 15.103L51.599 15.103L51.599 0L0 0L0 15.103Z" fill="rgb(0,0,0)" fill-opacity="1.000" fill-rule="nonzero" transform="matrix(1 0 0 -1 4.2005 37.0515)"/><path d="M7.539 8.554C7.12 7.503 6.672 6.448 6.211 5.385L5.587 3.977L4.956 5.385C4.48 6.448 4.023 7.503 3.596 8.554L0.104 8.554L0.104 8.278C0.491 8.278 0.809 7.96 0.809 7.568C0.752 6.842 0.69 6.115 0.615 5.385L0.383 3.169C0.272 2.107 0.147 1.05 0 0L1.116 0C1.185 1.05 1.271 2.107 1.38 3.169L1.724 6.511C2.219 5.495 2.694 4.472 3.154 3.448L3.281 3.169C3.758 2.107 4.212 1.05 4.642 0L4.98 0C5.402 1.05 5.848 2.107 6.312 3.169L6.513 3.624C6.963 4.648 7.432 5.671 7.915 6.686L8.279 3.169C8.387 2.107 8.477 1.05 8.543 0L11.11 0C10.962 1.05 10.835 2.107 10.726 3.169L10.497 5.385C10.39 6.448 10.297 7.503 10.234 8.554L7.539 8.554Z" fill="rgb(24,49,129)" fill-opacity="1.000" fill-rule="nonzero" transform="matrix(1 0 0 -1 4.7165 30.6535)"/><path d="M3.07 0.85C3.35 1.374 3.652 1.905 3.973 2.435L7.091 7.545L7.091 7.761L0.229 7.761L0.229 6.189L0.501 6.189C0.501 6.568 0.797 6.877 1.166 6.901C1.381 6.908 1.594 6.911 1.805 6.911L4.02 6.911C3.745 6.398 3.451 5.88 3.134 5.361L0 0.215L0 0L7.401 0L7.401 0.913C6.881 0.872 6.353 0.85 5.827 0.85L3.07 0.85Z" fill="rgb(24,49,129)" fill-opacity="1.000" fill-rule="nonzero" transform="matrix(1 0 0 -1 20.7006 30.6532)"/><path d="M8.247 0.107C8.269 0.108 8.291 0.11 8.312 0.112C8.271 0.636 8.247 1.162 8.247 1.691L8.247 3.614L11.311 3.614L11.311 1.691C11.311 1.162 11.292 0.631 11.252 0.107L13.612 0.107C13.569 0.631 13.549 1.162 13.549 1.691L13.549 6.282C13.549 6.815 13.569 7.342 13.612 7.869L10.603 7.869L10.603 7.624L10.671 7.624C11.006 7.624 11.276 7.363 11.3 7.033C11.307 6.784 11.311 6.534 11.311 6.282L11.311 4.465L8.247 4.465L8.247 6.282C8.247 6.815 8.266 7.342 8.31 7.869L5.302 7.869L5.302 7.624L5.368 7.624C5.702 7.624 5.973 7.365 5.996 7.036C6.005 6.785 6.01 6.535 6.01 6.282L6.01 0.908C5.7 0.869 5.382 0.851 5.061 0.851C4.714 0.851 4.373 0.878 4.04 0.931C3.095 1.108 2.945 1.981 2.945 2.525L2.945 6.327C2.945 6.843 2.968 7.357 3.008 7.869L0 7.869L0 7.624L0.064 7.624C0.399 7.624 0.668 7.365 0.692 7.038C0.7 6.785 0.705 6.535 0.705 6.282L0.705 2.893C0.705 2.131 0.951 0.446 3.052 0.14C3.708 0.051 4.379 0 5.061 0C6.131 0 7.194 0.038 8.247 0.107Z" fill="rgb(24,49,129)" fill-opacity="1.000" fill-rule="nonzero" transform="matrix(1 0 0 -1 28.2101 30.7602)"/><path d="M9.214 3.987C9.214 1.343 6.892 0 4.604 0C2.317 0 0 1.343 0 3.987C0 6.632 2.317 7.975 4.604 7.975C6.892 7.975 9.214 6.632 9.214 3.987ZM6.967 3.987C6.964 5.428 6.353 7.124 4.604 7.124C2.858 7.124 2.244 5.428 2.244 3.987C2.244 2.547 2.858 0.851 4.604 0.851C6.353 0.851 6.964 2.547 6.967 3.987Z" fill="rgb(24,49,129)" fill-opacity="1.000" fill-rule="nonzero" transform="matrix(1 0 0 -1 42.7106 30.7599)"/><path d="M3.022 6.176C3.022 6.709 3.042 7.236 3.088 7.762L0 7.762L0 7.487L0.064 7.487C0.464 7.487 0.776 7.169 0.776 6.773C0.782 6.576 0.784 6.377 0.784 6.176L0.784 1.584C0.784 1.055 0.763 0.524 0.728 0L3.088 0C3.042 0.524 3.022 1.055 3.022 1.584L3.022 6.176Z" fill="rgb(24,49,129)" fill-opacity="1.000" fill-rule="nonzero" transform="matrix(1 0 0 -1 16.6111 30.6535)"/><path d="M0.1 1.984C6.317 3.356 12.778 4.08 19.412 4.08C28.777 4.08 37.814 2.698 46.327 0.126C46.359 0.117 46.378 0.087 46.372 0.052C46.364 0.019 46.328 -0.006 46.295 0.001C37.547 1.423 28.586 2.234 19.457 2.39C12.937 2.503 6.494 2.276 0.141 1.735C0.077 1.729 0.021 1.769 0.003 1.831C-0.013 1.899 0.03 1.968 0.1 1.984Z" fill="rgb(237,26,58)" fill-opacity="1.000" fill-rule="nonzero" transform="matrix(1 0 0 -1 8.9107 36.9004)"/></svg>