<svg xmlns="http://www.w3.org/2000/svg" viewBox="0 0 60 60" width="60" height="60"><defs><linearGradient id="g39" gradientUnits="userSpaceOnUse" x1="0.00" y1="30.01" x2="60.00" y2="30.01"><stop offset="0.0%" stop-color="rgb(0,106,105)" stop-opacity="1.000"/><stop offset="25.0%" stop-color="rgb(0,127,132)" stop-opacity="1.000"/><stop offset="57.4%" stop-color="rgb(0,151,168)" stop-opacity="1.000"/><stop offset="83.5%" stop-color="rgb(0,168,193)" stop-opacity="1.000"/><stop offset="100.0%" stop-color="rgb(0,177,205)" stop-opacity="1.000"/></linearGradient><linearGradient id="g40" gradientUnits="userSpaceOnUse" x1="0.00" y1="30.03" x2="60.01" y2="30.03"><stop offset="0.0%" stop-color="rgb(63,158,113)" stop-opacity="1.000"/><stop offset="100.0%" stop-color="rgb(22,110,85)" stop-opacity="1.000"/></linearGradient><linearGradient id="g41" gradientUnits="userSpaceOnUse" x1="0.00" y1="30.03" x2="60.00" y2="30.03"><stop offset="0.0%" stop-color="rgb(140,173,52)" stop-opacity="1.000"/><stop offset="71.7%" stop-color="rgb(99,132,42)" stop-opacity="1.000"/><stop offset="100.0%" stop-color="rgb(84,116,36)" stop-opacity="1.000"/></linearGradient><linearGradient id="g42" gradientUnits="userSpaceOnUse" x1="0.00" y1="30.01" x2="60.00" y2="30.01"><stop offset="0.0%" stop-color="rgb(43,158,143)" stop-opacity="1.000"/><stop offset="100.0%" stop-color="rgb(4,102,102)" stop-opacity="1.000"/></linearGradient></defs><path d="M0 0L60 0L60 60L0 60L0 0Z" fill="rgb(43,49,76)" fill-opacity="1.000" fill-rule="nonzero" transform="matrix(1 0 0 1 0 0)"/><path d="M0 18.433L0 28.536L18.711 10.119L18.711 0L0 18.433Z" fill="url(#g39)" fill-rule="nonzero" transform="matrix(1 0 0 1 25.7334 11)"/><path d="M0 10.086L11.852 17.655L11.852 7.618L0 0L0 10.086Z" fill="url(#g40)" fill-rule="nonzero" transform="matrix(1 0 0 1 25.7334 29.4333)"/><path d="M0 10.119L8.843 15.701L9.734 15.701L9.734 6.161L0 0L0 10.119Z" fill="url(#g41)" fill-rule="nonzero" transform="matrix(1 0 0 1 16 23.2725)"/><path d="M0 9.54L0 19.659L9.734 10.119L9.734 0L0 9.54Z" fill="url(#g42)" fill-rule="nonzero" transform="matrix(1 0 0 1 16 29.4333)"/></svg>