<svg xmlns="http://www.w3.org/2000/svg" viewBox="0 0 130 60" width="130" height="60"><defs><linearGradient id="g47" gradientUnits="userSpaceOnUse" x1="0.00" y1="30.01" x2="130.00" y2="30.01"><stop offset="0.0%" stop-color="rgb(0,106,105)" stop-opacity="1.000"/><stop offset="25.0%" stop-color="rgb(0,127,132)" stop-opacity="1.000"/><stop offset="57.4%" stop-color="rgb(0,151,168)" stop-opacity="1.000"/><stop offset="83.5%" stop-color="rgb(0,168,193)" stop-opacity="1.000"/><stop offset="100.0%" stop-color="rgb(0,177,205)" stop-opacity="1.000"/></linearGradient><linearGradient id="g48" gradientUnits="userSpaceOnUse" x1="0.00" y1="30.03" x2="130.02" y2="30.03"><stop offset="0.0%" stop-color="rgb(63,158,113)" stop-opacity="1.000"/><stop offset="100.0%" stop-color="rgb(22,110,85)" stop-opacity="1.000"/></linearGradient><linearGradient id="g49" gradientUnits="userSpaceOnUse" x1="0.00" y1="30.03" x2="130.00" y2="30.03"><stop offset="0.0%" stop-color="rgb(140,173,52)" stop-opacity="1.000"/><stop offset="71.7%" stop-color="rgb(99,132,42)" stop-opacity="1.000"/><stop offset="100.0%" stop-color="rgb(84,116,36)" stop-opacity="1.000"/></linearGradient><linearGradient id="g50" gradientUnits="userSpaceOnUse" x1="0.00" y1="30.01" x2="130.00" y2="30.01"><stop offset="0.0%" stop-color="rgb(43,158,143)" stop-opacity="1.000"/><stop offset="100.0%" stop-color="rgb(4,102,102)" stop-opacity="1.000"/></linearGradient></defs><path d="M0 0L130 0L130 60L0 60L0 0Z" fill="rgb(255,255,255)" fill-opacity="1.000" fill-rule="nonzero" transform="matrix(1 0 0 1 0 0)"/><path d="M10.255 8.231L10.255 3.196C10.255 2.484 9.969 1.822 8.792 1.822C7.666 1.822 7.262 2.501 7.262 3.23L7.262 8.231L5.127 8.231L5.127 3.196C5.127 2.484 4.842 1.822 3.665 1.822C2.539 1.822 2.135 2.501 2.135 3.23L2.135 8.231L0 8.231L0 0.215L1.916 0.215L1.95 1.292L1.967 1.292C2.303 0.513 3.06 0 4.371 0C5.464 0 6.388 0.447 6.775 1.242C7.162 0.53 8.153 0 9.364 0C11.23 0 12.356 1.06 12.356 2.799L12.356 8.231L10.255 8.231Z" fill="rgb(31,25,26)" fill-opacity="1.000" fill-rule="nonzero" transform="matrix(1 0 0 1 39.4406 32.5735)"/><path d="M4.388 8.463C1.95 8.463 0 6.741 0 4.24C0 1.706 1.933 0 4.388 0C6.809 0 8.759 1.722 8.759 4.24C8.742 6.757 6.825 8.463 4.388 8.463ZM4.388 1.855C3.177 1.855 2.135 2.849 2.135 4.273C2.135 5.681 3.177 6.674 4.388 6.674C5.598 6.674 6.64 5.681 6.64 4.273C6.624 2.832 5.581 1.855 4.388 1.855Z" fill="rgb(31,25,26)" fill-opacity="1.000" fill-rule="nonzero" transform="matrix(1 0 0 1 53.2598 32.5735)"/><path d="M6.422 12.604L6.422 11.66L6.405 11.66C5.985 12.322 5.144 12.802 3.917 12.802C2.034 12.802 0 11.345 0 8.596C0 6.062 1.833 4.372 4.136 4.372C4.993 4.372 5.951 4.67 6.271 4.969L6.271 0L8.355 0L8.355 12.604L6.422 12.604ZM6.254 7.006C6.002 6.708 5.379 6.244 4.422 6.244C3.127 6.244 2.118 7.254 2.118 8.645C2.118 10.053 3.127 11.047 4.422 11.047C5.329 11.047 5.951 10.583 6.254 10.119L6.254 7.006Z" fill="rgb(31,25,26)" fill-opacity="1.000" fill-rule="nonzero" transform="matrix(1 0 0 1 63.1279 28.2012)"/><path d="M6.103 8.513C5.581 8.413 5.01 7.999 4.825 7.37C4.455 8.165 3.614 8.48 2.673 8.48C1.143 8.48 0 7.387 0 5.913C0 4.405 1.244 3.478 2.723 3.329L4.505 3.163L4.505 2.782C4.505 2.186 4.068 1.722 3.076 1.722C2.286 1.722 1.412 1.987 0.807 2.352L0.42 0.696C1.126 0.248 2.152 0 3.177 0C5.178 0 6.573 0.994 6.573 2.898L6.573 5.83C6.573 6.658 6.96 7.105 7.548 7.271L6.103 8.513ZM4.505 4.654L3.228 4.753C2.37 4.82 2 5.366 2 5.896C2 6.393 2.387 6.84 3.009 6.84C3.816 6.84 4.505 6.244 4.505 5.35L4.505 4.654Z" fill="rgb(31,25,26)" fill-opacity="1.000" fill-rule="nonzero" transform="matrix(1 0 0 1 72.9794 32.557)"/><path d="M2.202 12.902C1.109 12.802 0 12.107 0 10.368L0 0L2.118 0L2.118 10.119C2.118 10.815 2.606 11.245 3.211 11.328L2.202 12.902Z" fill="rgb(31,25,26)" fill-opacity="1.000" fill-rule="nonzero" transform="matrix(1 0 0 1 81.5369 28.2177)"/><path d="M10.255 8.231L10.255 3.196C10.255 2.484 9.969 1.822 8.793 1.822C7.666 1.822 7.263 2.501 7.263 3.23L7.263 8.231L5.128 8.231L5.128 3.196C5.128 2.484 4.842 1.822 3.665 1.822C2.539 1.822 2.135 2.501 2.135 3.23L2.135 8.231L0 8.231L0 0.215L1.917 0.215L1.95 1.292L1.967 1.292C2.304 0.513 3.06 0 4.371 0C5.464 0 6.389 0.447 6.775 1.242C7.162 0.53 8.154 0 9.364 0C11.23 0 12.357 1.06 12.357 2.799L12.357 8.231L10.255 8.231Z" fill="rgb(1,176,204)" fill-opacity="1.000" fill-rule="nonzero" transform="matrix(1 0 0 1 85.941 32.5735)"/><path d="M6.103 8.513C5.582 8.413 5.01 7.999 4.825 7.37C4.455 8.165 3.614 8.48 2.673 8.48C1.143 8.48 0 7.387 0 5.913C0 4.405 1.244 3.478 2.724 3.329L4.506 3.163L4.506 2.782C4.506 2.186 4.068 1.722 3.077 1.722C2.286 1.722 1.412 1.987 0.807 2.352L0.404 0.696C1.11 0.248 2.135 0 3.178 0C5.178 0 6.573 0.994 6.573 2.898L6.573 5.83C6.573 6.658 6.977 7.105 7.548 7.271L6.103 8.513ZM4.506 4.654L3.228 4.753C2.371 4.82 2.001 5.366 2.001 5.896C2.001 6.393 2.404 6.84 3.009 6.84C3.816 6.84 4.506 6.244 4.506 5.35L4.506 4.654Z" fill="rgb(1,176,204)" fill-opacity="1.000" fill-rule="nonzero" transform="matrix(1 0 0 1 99.7597 32.557)"/><path d="M1.21 2.385C0.824 2.385 0 1.59 0 1.192C0 0.812 0.807 0 1.21 0C1.631 0 2.387 0.795 2.387 1.192C2.387 1.59 1.614 2.385 1.21 2.385ZM0.118 11.726L0.118 3.71L2.286 3.71L2.286 11.726L0.118 11.726Z" fill="rgb(1,176,204)" fill-opacity="1.000" fill-rule="nonzero" transform="matrix(1 0 0 1 108.3172 29.079)"/><path d="M2.639 8.297C1.614 8.297 0.841 8.066 0.236 7.734L0 5.73C0.639 6.227 1.597 6.608 2.539 6.608C3.144 6.608 3.564 6.293 3.564 5.879C3.564 5.432 3.245 5.184 2.623 5.002C1.043 4.488 0.135 3.743 0.135 2.418C0.135 0.961 1.311 0 3.009 0C3.968 0 4.909 0.282 5.279 0.497L4.909 2.12C4.539 1.888 3.9 1.64 3.144 1.64C2.589 1.64 2.253 1.921 2.253 2.335C2.253 2.716 2.539 2.931 3.194 3.13C4.892 3.66 5.75 4.472 5.75 5.83C5.716 7.155 4.707 8.297 2.639 8.297Z" fill="rgb(1,176,204)" fill-opacity="1.000" fill-rule="nonzero" transform="matrix(1 0 0 1 112.2507 32.6563)"/><path d="M0 18.433L0 28.536L18.711 10.119L18.711 0L0 18.433Z" fill="url(#g47)" fill-rule="nonzero" transform="matrix(1 0 0 1 22.5118 10.8278)"/><path d="M0 10.086L11.852 17.655L11.852 7.618L0 0L0 10.086Z" fill="url(#g48)" fill-rule="nonzero" transform="matrix(1 0 0 1 22.5118 29.2612)"/><path d="M0 10.119L8.843 15.701L9.734 15.701L9.734 6.161L0 0L0 10.119Z" fill="url(#g49)" fill-rule="nonzero" transform="matrix(1 0 0 1 12.7782 23.1003)"/><path d="M0 9.54L0 19.659L9.734 10.119L9.734 0L0 9.54Z" fill="url(#g50)" fill-rule="nonzero" transform="matrix(1 0 0 1 12.7782 29.2612)"/></svg>