<svg xmlns="http://www.w3.org/2000/svg" viewBox="0 0 130 60" width="130" height="60"><defs><linearGradient id="g30" gradientUnits="userSpaceOnUse" x1="-6.89" y1="33.07" x2="123.11" y2="33.07"><stop offset="0.0%" stop-color="rgb(84,117,36)" stop-opacity="1.000"/><stop offset="100.0%" stop-color="rgb(140,173,52)" stop-opacity="1.000"/></linearGradient><linearGradient id="g31" gradientUnits="userSpaceOnUse" x1="9.32" y1="25.36" x2="139.32" y2="25.36"><stop offset="0.0%" stop-color="rgb(0,110,105)" stop-opacity="1.000"/><stop offset="100.0%" stop-color="rgb(43,158,143)" stop-opacity="1.000"/></linearGradient><linearGradient id="g32" gradientUnits="userSpaceOnUse" x1="2.59" y1="28.89" x2="132.59" y2="28.89"><stop offset="0.0%" stop-color="rgb(21,110,85)" stop-opacity="1.000"/><stop offset="100.0%" stop-color="rgb(63,158,113)" stop-opacity="1.000"/></linearGradient></defs><path d="M0 0L130 0L130 60L0 60L0 0Z" fill="rgb(255,255,255)" fill-opacity="1.000" fill-rule="nonzero" transform="matrix(1 0 0 1 0 0)"/><path d="M11.726 0L8.478 6.355C8.037 7.206 7.557 8.159 7.199 9.004C6.886 8.313 6.451 7.436 5.889 6.355L2.589 0L1.081 0L0 12.575L2.11 12.575L2.602 6.899C2.641 6.483 2.705 5.798 2.756 5.075C3.075 5.753 3.395 6.47 3.721 7.046L6.63 12.671L7.609 12.671L10.479 7.046C10.793 6.406 11.157 5.702 11.47 5.043C11.47 5.593 11.553 6.207 11.605 6.892L12.129 12.575L14.354 12.575L13.235 0L11.726 0Z" fill="rgb(29,29,27)" fill-opacity="1.000" fill-rule="nonzero" transform="matrix(1 0 0 1 52.1985 33.1746)"/><path d="M10.703 6.529C10.723 7.107 10.626 7.684 10.42 8.224C10.213 8.765 9.9 9.259 9.5 9.676C9.099 10.094 8.619 10.427 8.088 10.656C7.557 10.884 6.985 11.004 6.407 11.008C5.826 11.011 5.251 10.896 4.716 10.67C4.181 10.444 3.697 10.111 3.295 9.692C2.893 9.273 2.579 8.777 2.375 8.233C2.17 7.689 2.078 7.109 2.104 6.529C2.082 5.951 2.177 5.375 2.384 4.835C2.591 4.295 2.905 3.803 3.307 3.388C3.709 2.973 4.191 2.644 4.724 2.42C5.257 2.197 5.829 2.084 6.407 2.087C6.982 2.091 7.55 2.21 8.079 2.437C8.607 2.663 9.086 2.992 9.486 3.406C9.886 3.819 10.199 4.308 10.408 4.845C10.617 5.381 10.718 5.953 10.703 6.529ZM6.407 0.001C5.122 0.024 3.872 0.426 2.815 1.157C1.758 1.888 0.94 2.915 0.464 4.109C-0.012 5.304 -0.125 6.613 0.14 7.871C0.404 9.13 1.034 10.282 1.951 11.183C2.867 12.085 4.029 12.695 5.291 12.938C6.553 13.181 7.858 13.045 9.043 12.547C10.228 12.05 11.24 11.214 11.952 10.143C12.663 9.072 13.043 7.815 13.043 6.529C13.044 5.661 12.872 4.803 12.538 4.003C12.203 3.203 11.712 2.478 11.094 1.87C10.476 1.262 9.744 0.784 8.939 0.463C8.134 0.142 7.273 -0.015 6.407 0.001Z" fill="rgb(29,29,27)" fill-opacity="1.000" fill-rule="nonzero" transform="matrix(1 0 0 1 68.6559 32.9175)"/><path d="M0 12.575L7.641 12.575L7.641 10.521L2.321 10.521L2.321 0L0 0L0 12.575Z" fill="rgb(29,29,27)" fill-opacity="1.000" fill-rule="nonzero" transform="matrix(1 0 0 1 108.1116 33.1746)"/><path d="M2.302 2.041L3.651 2.041C5.94 2.041 8.382 3.155 8.382 6.291C8.382 9.426 5.94 10.54 3.651 10.54L2.321 10.54L2.302 2.041ZM3.945 0L0 0L0 12.575L3.945 12.575C7.314 12.575 10.729 10.412 10.729 6.291C10.729 2.169 7.314 0 3.945 0Z" fill="rgb(29,29,27)" fill-opacity="1.000" fill-rule="nonzero" transform="matrix(1 0 0 1 83.598 33.1746)"/><path d="M7.711 9.004L3.875 9.004C3.875 9.004 5.697 4.576 5.793 4.249C5.895 4.55 7.711 9.004 7.711 9.004ZM5.358 0L0 12.748L2.321 12.748L3.088 10.93L8.548 10.93L9.309 12.748L11.701 12.748L6.343 0L5.358 0Z" fill="rgb(29,29,27)" fill-opacity="1.000" fill-rule="nonzero" transform="matrix(1 0 0 1 94.6787 33.0018)"/><path d="M0 10.521L10.562 0L10.562 10.514L0 21.035L0 10.521Z" fill="rgb(0,0,0)" fill-opacity="1.000" fill-rule="nonzero" transform="matrix(1 0 0 1 14.9998 24.7272)"/><path d="M10.562 0L0 0L0 21.035L10.562 21.035L10.562 0Z" fill="url(#g30)" fill-rule="nonzero" transform="matrix(1 0 0 1 14.9998 24.7272)"/><path d="M0 15.167L15.211 0L15.211 10.514L0 25.681L0 15.167Z" fill="rgb(0,0,0)" fill-opacity="1.000" fill-rule="nonzero" transform="matrix(1 0 0 1 25.5686 20.0812)"/><path d="M15.211 0L0 0L0 25.688L15.211 25.688L15.211 0Z" fill="url(#g31)" fill-rule="nonzero" transform="matrix(1 0 0 1 25.5686 20.0812)"/><path d="M0 20.248L20.23 0L20.23 10.514L0 30.762L0 20.248Z" fill="rgb(0,0,0)" fill-opacity="1.000" fill-rule="nonzero" transform="matrix(1 0 0 1 36.1119 15)"/><path d="M20.23 0L0 0L0 30.762L20.23 30.762L20.23 0Z" fill="url(#g32)" fill-rule="nonzero" transform="matrix(1 0 0 1 36.1119 15)"/></svg>