<svg xmlns="http://www.w3.org/2000/svg" viewBox="0 0 60 60" width="60" height="60"><defs><linearGradient id="g26" gradientUnits="userSpaceOnUse" x1="4.30" y1="25.36" x2="64.30" y2="25.36"><stop offset="0.0%" stop-color="rgb(0,110,105)" stop-opacity="1.000"/><stop offset="100.0%" stop-color="rgb(43,158,143)" stop-opacity="1.000"/></linearGradient></defs><path d="M0 0L60 0L60 60L0 60L0 0Z" fill="url(#g26)" fill-rule="nonzero" transform="matrix(1 0 0 1 0 0)"/><path d="M0 10.521L10.562 0L10.562 10.514L0 21.035L0 10.521Z" fill="rgb(0,0,0)" fill-opacity="1.000" fill-rule="nonzero" transform="matrix(1 0 0 1 8.9998 24.7272)"/><path d="M10.562 0L0 0L0 21.035L10.562 21.035L10.562 0Z" fill="rgb(255,255,255)" fill-opacity="1.000" fill-rule="nonzero" transform="matrix(1 0 0 1 8.9998 24.7272)"/><path d="M0 15.167L15.211 0L15.211 10.514L0 25.681L0 15.167Z" fill="rgb(0,0,0)" fill-opacity="1.000" fill-rule="nonzero" transform="matrix(1 0 0 1 19.5686 20.0812)"/><path d="M15.211 0L0 0L0 25.688L15.211 25.688L15.211 0Z" fill="rgb(255,255,255)" fill-opacity="1.000" fill-rule="nonzero" transform="matrix(1 0 0 1 19.5686 20.0812)"/><path d="M0 20.248L20.23 0L20.23 10.514L0 30.762L0 20.248Z" fill="rgb(0,0,0)" fill-opacity="1.000" fill-rule="nonzero" transform="matrix(1 0 0 1 30.1119 15)"/><path d="M20.23 0L0 0L0 30.762L20.23 30.762L20.23 0Z" fill="rgb(255,255,255)" fill-opacity="1.000" fill-rule="nonzero" transform="matrix(1 0 0 1 30.1119 15)"/></svg>