<svg xmlns="http://www.w3.org/2000/svg" viewBox="0 0 130 60" width="130" height="60"><path d="M0 0L130 0L130 60L0 60L0 0Z" fill="rgb(255,255,255)" fill-opacity="1.000" fill-rule="nonzero" transform="matrix(1 0 0 1 0 0)"/><path d="M14.561 0.001C13.563 0.001 12.587 0.297 11.757 0.851C10.927 1.404 10.28 2.191 9.898 3.111C9.516 4.032 9.417 5.045 9.612 6.021C9.808 6.998 10.289 7.895 10.996 8.599C11.703 9.303 12.603 9.782 13.582 9.975C14.562 10.168 15.577 10.067 16.499 9.685C17.421 9.302 18.208 8.656 18.762 7.827C19.315 6.998 19.61 6.023 19.608 5.027C19.606 3.693 19.073 2.415 18.127 1.472C17.181 0.53 15.898 0.001 14.561 0.001ZM14.561 8.079C12.931 8.079 11.611 6.717 11.611 5.035C11.611 3.352 12.931 1.991 14.561 1.991C16.191 1.991 17.511 3.354 17.511 5.035C17.511 6.715 16.191 8.079 14.561 8.079ZM32.341 0.001C31.046 0.001 29.898 0.5 29.185 1.271L29.185 0.2L28.508 0.2C28.33 0.191 28.151 0.22 27.985 0.285C27.818 0.35 27.667 0.449 27.542 0.576C27.415 0.703 27.316 0.856 27.252 1.023C27.187 1.191 27.159 1.37 27.169 1.549L27.169 13.141L29.286 13.141L29.286 8.91C29.919 9.623 31.064 10.069 32.337 10.069C35.217 10.069 37.265 7.815 37.265 5.035C37.265 2.254 35.217 0.001 32.337 0.001L32.341 0.001ZM32.223 8.079C30.593 8.079 29.273 6.717 29.273 5.035C29.273 3.352 30.593 1.991 32.223 1.991C33.853 1.991 35.173 3.354 35.173 5.035C35.173 6.715 33.848 8.079 32.218 8.079L32.223 8.079ZM2.01 5.035C1.997 5.682 2.196 6.317 2.576 6.842C2.956 7.367 3.497 7.754 4.118 7.946C4.738 8.137 5.404 8.122 6.015 7.902C6.626 7.682 7.149 7.271 7.504 6.728L9.156 7.833C8.183 9.281 6.831 10.069 4.96 10.069C3.637 10.046 2.375 9.506 1.448 8.565C0.52 7.623 0 6.356 0 5.035C0 3.715 0.52 2.448 1.448 1.506C2.375 0.564 3.637 0.024 4.96 0.001C6.851 0.001 8.22 0.81 9.187 2.285L7.485 3.385C7.22 2.961 6.852 2.611 6.414 2.367C5.977 2.124 5.485 1.995 4.984 1.993C4.185 2.002 3.422 2.328 2.864 2.899C2.305 3.469 1.997 4.237 2.006 5.035L2.01 5.035ZM25.124 0C25.671 0.003 26.205 0.171 26.655 0.482L25.834 2.457C25.509 2.186 25.101 2.034 24.678 2.025C24.435 2.018 24.192 2.06 23.966 2.149C23.739 2.238 23.534 2.372 23.361 2.544C22.986 2.916 22.791 3.419 22.791 4.155L22.791 9.804L20.673 9.804L20.673 1.543C20.664 1.364 20.692 1.185 20.756 1.017C20.82 0.85 20.919 0.697 21.047 0.571C21.172 0.445 21.322 0.347 21.487 0.283C21.652 0.219 21.83 0.191 22.007 0.2L22.684 0.2L22.684 1.279C23.269 0.392 24.121 0 25.124 0Z" fill="rgb(88,118,144)" fill-opacity="1.000" fill-rule="nonzero" transform="matrix(1 0 0 1 68.7024 29.0202)"/><path d="M56.053 12.314C56.053 12.314 53.167 18.805 52.069 21.285C51.543 22.468 51.202 23.117 50.509 23.798C49.604 24.685 48.399 25.114 47.082 25.168L47.082 23.165C48.049 23.165 49.356 22.574 49.841 20.939L46.02 12.314L48.458 12.314L51.093 18.523L53.723 12.314L56.053 12.314ZM25.47 17.055C25.472 18.051 25.178 19.025 24.624 19.854C24.071 20.683 23.283 21.33 22.361 21.712C21.439 22.095 20.424 22.196 19.445 22.002C18.465 21.809 17.565 21.33 16.858 20.627C16.152 19.923 15.67 19.026 15.475 18.049C15.279 17.072 15.379 16.059 15.76 15.139C16.142 14.219 16.789 13.432 17.619 12.878C18.449 12.325 19.425 12.029 20.424 12.029C21.761 12.029 23.043 12.558 23.989 13.501C24.935 14.443 25.468 15.721 25.47 17.055ZM23.374 17.055C23.374 15.374 22.054 14.011 20.424 14.011C18.794 14.011 17.474 15.374 17.474 17.055C17.474 18.735 18.794 20.1 20.424 20.1C22.054 20.1 23.374 18.737 23.374 17.055ZM46.384 17.055C46.384 17.302 46.366 17.549 46.329 17.794L38.444 17.794C38.731 19.191 39.925 20.116 41.383 20.116C41.907 20.127 42.424 20.008 42.89 19.769C43.356 19.531 43.754 19.181 44.05 18.75L45.828 19.739C44.883 21.205 43.173 22.095 41.335 22.095C38.451 22.095 36.288 19.937 36.288 17.061C36.288 14.184 38.451 12.035 41.335 12.035C44.218 12.035 46.384 14.18 46.384 17.055ZM44.116 16.039C43.704 14.775 42.671 13.999 41.324 13.999C40.698 13.989 40.086 14.182 39.58 14.551C39.075 14.919 38.703 15.441 38.522 16.039L44.116 16.039ZM10.425 12.02C9.804 12.016 9.191 12.161 8.637 12.441C8.083 12.721 7.604 13.129 7.24 13.631C6.954 13.146 6.547 12.743 6.059 12.461C5.57 12.179 5.017 12.029 4.453 12.025C3.972 12.023 3.499 12.139 3.073 12.361C2.648 12.584 2.284 12.908 2.012 13.303L2.012 12.224L1.335 12.224C1.158 12.215 0.981 12.244 0.815 12.308C0.65 12.372 0.5 12.471 0.375 12.597C0.248 12.724 0.149 12.876 0.085 13.043C0.02 13.211 -0.008 13.39 0.002 13.569L0.002 21.831L2.119 21.831L2.119 16.094C2.119 14.911 2.885 14.025 4.075 14.025C5.265 14.025 6.123 14.911 6.123 16.094L6.123 21.825L8.24 21.825L8.24 16.094C8.24 14.911 9.007 14.025 10.197 14.025C11.387 14.025 12.155 14.911 12.155 16.094L12.155 21.825L14.273 21.825L14.273 15.745C14.273 13.654 12.549 12.02 10.425 12.02ZM31.449 12.02C30.907 12.017 30.371 12.131 29.877 12.352C29.383 12.574 28.942 12.899 28.585 13.305L28.585 12.22L27.908 12.22C27.73 12.211 27.553 12.239 27.388 12.303C27.222 12.367 27.072 12.465 26.947 12.591C26.82 12.718 26.721 12.87 26.657 13.037C26.593 13.205 26.564 13.384 26.574 13.563L26.574 21.825L28.691 21.825L28.691 16.218C28.691 14.962 29.546 14.017 30.872 14.017C32.199 14.017 33.156 14.962 33.156 16.218L33.156 21.825L35.27 21.825L35.27 15.745C35.27 13.685 33.548 12.02 31.449 12.02ZM104.91 7.719C102.996 7.405 101.229 6.5 99.858 5.132C98.487 3.764 97.58 2.001 97.266 0.092C97.257 0.031 97.245 0 97.233 0C97.222 0 97.21 0.031 97.199 0.092C96.885 2.001 95.979 3.763 94.608 5.132C93.237 6.5 91.47 7.405 89.557 7.719C89.496 7.729 89.465 7.741 89.465 7.753C89.465 7.765 89.496 7.776 89.557 7.787C91.469 8.101 93.234 9.005 94.605 10.371C95.976 11.737 96.883 13.498 97.199 15.405C97.21 15.466 97.222 15.497 97.233 15.497C97.245 15.497 97.257 15.466 97.266 15.405C97.581 13.497 98.488 11.735 99.859 10.367C101.231 9 102.997 8.095 104.91 7.781C104.971 7.771 105.002 7.759 105.002 7.747C105.002 7.735 104.971 7.726 104.91 7.719Z" fill="rgb(205,0,28)" fill-opacity="1.000" fill-rule="nonzero" transform="matrix(1 0 0 1 12.998 17)"/><path d="M5.325 2.692C4.676 2.82 4.08 3.138 3.613 3.605C3.145 4.072 2.827 4.667 2.698 5.314C2.698 5.333 2.686 5.344 2.679 5.345C2.672 5.347 2.663 5.333 2.66 5.314C2.531 4.667 2.212 4.072 1.744 3.605C1.276 3.138 0.68 2.821 0.031 2.692C0.012 2.692 0.002 2.68 0 2.673C-0.001 2.665 0.012 2.658 0.031 2.653C0.68 2.525 1.276 2.207 1.744 1.74C2.212 1.273 2.53 0.679 2.658 0.031C2.658 0.012 2.67 0.002 2.677 0C2.685 -0.001 2.692 0.012 2.697 0.031C2.825 0.679 3.143 1.274 3.611 1.741C4.079 2.208 4.676 2.526 5.325 2.653C5.346 2.653 5.356 2.665 5.356 2.673C5.356 2.68 5.34 2.689 5.325 2.692Z" fill="rgb(255,255,255)" fill-opacity="1.000" fill-rule="nonzero" transform="matrix(1 0 0 1 107.5586 22.0773)"/></svg>