<svg xmlns="http://www.w3.org/2000/svg" viewBox="0 0 60 60" width="60" height="60"><path d="M0 0L60 0L60 60L0 60L0 0Z" fill="rgb(255,255,255)" fill-opacity="1.000" fill-rule="nonzero" transform="matrix(1 0 0 1 0 0)"/><path d="M34.388 17.186C30.127 16.487 26.193 14.473 23.14 11.427C20.086 8.38 18.068 4.455 17.369 0.204C17.349 0.069 17.323 0 17.296 0C17.27 0 17.243 0.069 17.22 0.204C16.521 4.455 14.503 8.379 11.451 11.426C8.398 14.472 4.465 16.487 0.205 17.186C0.069 17.209 0 17.235 0 17.261C0 17.288 0.069 17.314 0.205 17.337C4.462 18.037 8.392 20.049 11.444 23.091C14.496 26.133 16.516 30.053 17.22 34.299C17.243 34.434 17.27 34.503 17.296 34.503C17.323 34.503 17.349 34.434 17.369 34.299C18.071 30.05 20.09 26.127 23.143 23.082C26.196 20.037 30.128 18.024 34.388 17.324C34.523 17.301 34.592 17.275 34.592 17.248C34.592 17.222 34.523 17.202 34.388 17.186Z" fill="rgb(205,0,28)" fill-opacity="1.000" fill-rule="nonzero" transform="matrix(1 0 0 1 12.4723 12.4968)"/><path d="M11.856 5.993C10.412 6.279 9.085 6.987 8.043 8.026C7.002 9.066 6.294 10.39 6.008 11.832C6.008 11.874 5.981 11.897 5.965 11.901C5.948 11.904 5.928 11.874 5.922 11.832C5.634 10.39 4.925 9.066 3.883 8.027C2.842 6.988 1.514 6.28 0.07 5.993C0.027 5.993 0.004 5.967 0 5.95C-0.003 5.934 0.027 5.918 0.07 5.908C1.514 5.622 2.841 4.914 3.883 3.875C4.924 2.835 5.632 1.511 5.918 0.069C5.918 0.027 5.945 0.004 5.961 0C5.978 -0.003 5.994 0.027 6.004 0.069C6.289 1.512 6.998 2.837 8.04 3.877C9.082 4.916 10.411 5.623 11.856 5.908C11.903 5.908 11.926 5.934 11.926 5.95C11.926 5.967 11.889 5.987 11.856 5.993Z" fill="rgb(255,255,255)" fill-opacity="1.000" fill-rule="nonzero" transform="matrix(1 0 0 1 23.8177 23.8012)"/></svg>