<svg xmlns="http://www.w3.org/2000/svg" viewBox="0 0 60 60" width="60" height="60"><path d="M0 0L60 0L60 60L0 60L0 0Z" fill="rgb(0,0,0)" fill-opacity="1.000" fill-rule="nonzero" transform="matrix(1 0 0 1 0 0)"/><path d="M38.908 0C38.908 0 38.908 4.861 38.908 4.861C38.908 5.102 39.033 5.242 39.163 5.33C39.302 5.423 39.506 5.47 39.78 5.47C39.954 5.47 40.184 5.412 40.184 5.412C40.184 5.412 40.184 4.977 40.184 4.976C40.115 4.981 40.054 4.985 39.986 4.985C39.577 4.985 39.517 4.825 39.517 4.647C39.517 4.647 39.517 0 39.517 0L38.908 0ZM26.04 0.049C25.581 0.049 25.166 0.193 24.871 0.452C24.585 0.705 24.426 1.054 24.426 1.431C24.426 1.847 24.595 2.171 24.945 2.427C25.254 2.652 25.663 2.798 26.057 2.937C26.741 3.18 27.382 3.402 27.382 4.022C27.382 4.298 27.288 4.535 27.11 4.697C26.915 4.875 26.634 4.96 26.262 4.96C25.611 4.96 25.137 4.6 24.871 3.899C24.871 3.899 24.286 4.055 24.286 4.055C24.412 4.339 24.627 4.75 24.937 5.026C25.277 5.331 25.7 5.478 26.229 5.478C26.857 5.478 27.333 5.317 27.645 4.993C27.969 4.656 28.041 4.225 28.041 3.924C28.041 3.492 27.858 3.158 27.489 2.895C27.167 2.665 26.75 2.516 26.345 2.377C25.684 2.151 25.053 1.937 25.06 1.382C25.063 1.123 25.152 0.922 25.316 0.781C25.482 0.639 25.719 0.568 26.024 0.568C26.344 0.568 26.629 0.657 26.847 0.831C27.047 0.989 27.192 1.224 27.258 1.489C27.258 1.489 27.827 1.415 27.827 1.415C27.577 0.566 26.968 0.049 26.04 0.049ZM0 0.123L0 5.404L0.609 5.404L0.609 0.576L0.626 0.592L2.075 5.404L2.544 5.404L4.001 0.592L4.009 0.576L4.009 5.404L4.619 5.404L4.619 0.123L3.606 0.123L2.313 4.368L2.313 4.384L2.305 4.368L1.013 0.123L0 0.123ZM29.004 0.23L29.004 1.497L28.419 1.497L28.419 1.982C28.419 1.982 29.004 1.982 29.004 1.982C29.004 1.982 29.004 4.697 29.004 4.861C29.004 5.102 29.113 5.242 29.243 5.33C29.382 5.423 29.585 5.47 29.86 5.47C30.034 5.47 30.272 5.412 30.272 5.412C30.272 5.412 30.272 4.977 30.272 4.976C30.204 4.981 30.133 4.985 30.066 4.985C29.656 4.985 29.613 4.825 29.613 4.647C29.613 4.647 29.613 1.982 29.613 1.982L30.272 1.982L30.272 1.497L29.613 1.497L29.613 0.23L29.004 0.23ZM7.088 1.423C6.575 1.423 6.141 1.63 5.837 2.015C5.555 2.375 5.401 2.884 5.401 3.447C5.401 4.01 5.555 4.517 5.837 4.878C6.141 5.265 6.575 5.47 7.088 5.47C7.603 5.47 8.037 5.265 8.34 4.878C8.622 4.517 8.776 4.01 8.776 3.447C8.776 2.884 8.622 2.375 8.34 2.015C8.037 1.63 7.603 1.423 7.088 1.423ZM42.234 1.431C41.973 1.431 41.731 1.479 41.526 1.571C41.325 1.662 41.146 1.798 41.007 1.974C40.731 2.32 40.571 2.833 40.571 3.455C40.571 4.147 40.77 4.675 41.131 5.026C41.511 5.397 41.996 5.47 42.333 5.47C43.207 5.47 43.636 4.997 43.814 4.565C43.814 4.565 43.329 4.327 43.329 4.327C43.211 4.59 42.939 4.993 42.333 4.993C41.986 4.993 41.702 4.851 41.501 4.59C41.307 4.337 41.198 3.987 41.196 3.57C41.196 3.57 43.864 3.57 43.864 3.57C43.864 3.57 43.864 3.2 43.864 3.2C43.864 2.56 43.693 2.084 43.378 1.793C43.11 1.547 42.733 1.431 42.234 1.431ZM13.329 1.439C12.641 1.439 11.666 1.902 11.666 3.455C11.666 4.963 12.638 5.47 13.296 5.47C13.68 5.47 14.028 5.258 14.267 4.952C14.267 4.952 14.3 4.935 14.3 4.935C14.3 4.935 14.3 5.676 14.3 5.676C14.3 6.195 13.85 6.515 13.37 6.515C12.903 6.515 12.489 6.426 12.151 6.268C12.151 6.268 12.151 6.794 12.151 6.794C12.436 6.916 12.899 6.992 13.296 6.992C14.377 6.992 14.893 6.397 14.893 5.536C14.893 5.536 14.893 1.514 14.893 1.514L14.44 1.514L14.308 1.925C14.085 1.634 13.792 1.439 13.329 1.439ZM17.264 1.439C16.399 1.439 15.989 1.957 15.815 2.278L16.301 2.533C16.369 2.35 16.614 1.925 17.272 1.925C17.791 1.925 18.054 2.154 18.054 2.608L18.054 2.747C18.054 2.747 18.059 2.79 18.046 2.805C18.027 2.829 17.972 2.849 17.84 2.863C17.114 2.943 16.631 3.063 16.276 3.29C15.891 3.538 15.65 3.884 15.65 4.36C15.65 4.697 15.814 4.985 16.029 5.19C16.229 5.379 16.502 5.478 16.803 5.486C17.444 5.507 17.866 5.24 18.071 4.927C18.087 5.142 18.164 5.265 18.334 5.355C18.494 5.44 18.757 5.423 18.869 5.396C18.869 5.396 18.869 4.985 18.869 4.985C18.734 4.978 18.647 4.913 18.647 4.746C18.647 4.746 18.647 2.863 18.647 2.863C18.647 2.863 18.647 2.616 18.647 2.616C18.647 2.227 18.494 1.908 18.203 1.703C17.962 1.532 17.626 1.439 17.264 1.439ZM21.454 1.439C21.058 1.439 20.652 1.645 20.31 2.032L20.31 1.514L19.701 1.514L19.701 5.412L20.31 5.412C20.31 5.412 20.31 2.517 20.31 2.517C20.517 2.296 20.982 1.925 21.405 1.925C21.829 1.925 22.014 2.133 22.014 2.599C22.014 2.599 22.014 5.412 22.014 5.412L22.623 5.412L22.623 2.583C22.623 1.74 22.024 1.439 21.454 1.439ZM32.478 1.439C31.613 1.439 31.204 1.957 31.029 2.278C31.029 2.278 31.515 2.533 31.515 2.533C31.583 2.35 31.828 1.925 32.486 1.925C33.005 1.925 33.268 2.154 33.268 2.608C33.268 2.608 33.268 2.747 33.268 2.747C33.268 2.747 33.264 2.79 33.252 2.805C33.233 2.829 33.187 2.849 33.054 2.863C32.328 2.943 31.845 3.063 31.49 3.29C31.105 3.538 30.864 3.884 30.864 4.36C30.864 4.697 31.028 4.985 31.243 5.19C31.443 5.379 31.716 5.478 32.017 5.486C32.658 5.507 33.08 5.24 33.285 4.927C33.301 5.142 33.378 5.265 33.548 5.355C33.708 5.44 33.971 5.423 34.083 5.396C34.083 5.396 34.083 4.985 34.083 4.985C33.948 4.978 33.861 4.913 33.861 4.746C33.861 4.746 33.861 2.863 33.861 2.863C33.861 2.863 33.861 2.616 33.861 2.616C33.861 2.227 33.7 1.908 33.408 1.703C33.167 1.532 32.839 1.439 32.478 1.439ZM36.668 1.439C36.271 1.439 35.866 1.645 35.524 2.032L35.524 1.514L34.915 1.514L34.915 5.412L35.524 5.412C35.524 5.412 35.524 2.517 35.524 2.517C35.732 2.296 36.196 1.925 36.619 1.925C37.042 1.925 37.228 2.133 37.228 2.599L37.228 5.412L37.838 5.412L37.838 2.583C37.838 1.74 37.238 1.439 36.668 1.439ZM11.435 1.456C10.817 1.456 10.451 1.695 10.134 2.262L10.134 2.221L10.134 1.514L9.525 1.514L9.525 5.404L10.134 5.404C10.134 5.404 10.134 3.2 10.134 3.2C10.285 2.399 10.709 2.024 11.435 2.024L11.435 1.456ZM44.276 1.505L45.634 5.371C45.634 5.371 45.634 5.404 45.634 5.404C45.553 5.775 45.318 6.232 45.107 6.375C44.921 6.501 44.719 6.515 44.564 6.515C44.489 6.515 44.334 6.489 44.267 6.474C44.267 6.474 44.267 6.942 44.267 6.942C44.352 6.963 44.546 7 44.671 7C44.961 7 45.206 6.927 45.412 6.778C45.658 6.599 45.931 6.133 46.062 5.733C46.062 5.733 47.42 1.505 47.42 1.505L46.828 1.505L45.939 4.499L45.93 4.565L45.914 4.499L44.868 1.505L44.276 1.505ZM7.088 1.908C7.744 1.908 8.134 2.484 8.134 3.447C8.134 4.41 7.744 4.985 7.088 4.985C6.434 4.985 6.043 4.41 6.043 3.447C6.043 2.484 6.434 1.908 7.088 1.908ZM13.37 1.917C13.714 1.917 14.015 2.065 14.3 2.418C14.3 2.418 14.3 4.277 14.3 4.277C14.143 4.726 13.691 4.985 13.37 4.985C12.742 4.985 12.308 4.594 12.308 3.422C12.308 2.436 12.697 1.917 13.37 1.917ZM42.25 1.917C42.948 1.917 43.26 2.285 43.263 3.085C43.263 3.085 41.213 3.085 41.213 3.085C41.266 2.286 41.601 1.917 42.25 1.917ZM18.071 3.29C18.071 3.29 18.071 4.277 18.071 4.277C18.043 4.618 17.405 5.031 16.885 5.001C16.598 4.985 16.322 4.755 16.293 4.376C16.245 3.743 16.721 3.481 17.783 3.364C17.857 3.358 17.999 3.331 18.071 3.29ZM33.285 3.29C33.285 3.29 33.285 4.277 33.285 4.277C33.257 4.618 32.619 5.031 32.099 5.001C31.813 4.985 31.535 4.754 31.507 4.376C31.458 3.743 31.935 3.481 32.997 3.364C33.07 3.358 33.214 3.331 33.285 3.29Z" fill="rgb(255,255,255)" fill-opacity="1.000" fill-rule="nonzero" transform="matrix(1 0 0 1 6 27)"/></svg>