<svg xmlns="http://www.w3.org/2000/svg" viewBox="0 0 60 60" width="60" height="60"><path d="M0 0L60 0L60 60L0 60L0 0Z" fill="rgb(0,0,0)" fill-opacity="1.000" fill-rule="nonzero" transform="matrix(1 0 0 1 0 0)"/><path d="M13.883 0L0 0L0 13.883L13.883 13.883L13.883 0Z" fill="rgb(255,162,0)" fill-opacity="1.000" fill-rule="nonzero" transform="matrix(1 0 0 1 22.2331 8.5116)"/><path d="M13.883 0L0 0L0 13.883L13.883 13.883L13.883 0Z" fill="rgb(240,75,36)" fill-opacity="1.000" fill-rule="nonzero" transform="matrix(1 0 0 1 36.1172 22.3997)"/><path d="M21.12 0L0 0L0 13.883L21.12 13.883L21.12 0Z" fill="rgb(99,168,68)" fill-opacity="1.000" fill-rule="nonzero" transform="matrix(1 0 0 1 9.6182 22.3997)"/><path d="M5.378 0L0 0L0 5.378L5.378 5.378L5.378 0Z" fill="rgb(87,48,148)" fill-opacity="1.000" fill-rule="nonzero" transform="matrix(-1 0 0 -1 36.1137 27.7729)"/><path d="M5.378 0L0 0L0 8.504L5.378 8.504L5.378 0Z" fill="rgb(255,255,255)" fill-opacity="1.000" fill-rule="nonzero" transform="matrix(-1 0 0 -1 36.1137 36.2784)"/><path d="M13.883 0L0 0L0 13.883L13.883 13.883L13.883 0Z" fill="rgb(0,118,188)" fill-opacity="1.000" fill-rule="nonzero" transform="matrix(1 0 0 1 22.2331 36.2826)"/></svg>