<svg xmlns="http://www.w3.org/2000/svg" viewBox="0 0 130 60" width="130" height="60"><path d="M0 0L130 0L130 60L0 60L0 0Z" fill="rgb(255,255,255)" fill-opacity="1.000" fill-rule="nonzero" transform="matrix(1 0 0 1 0 0)"/><path d="M11.558 0L0 0L0 11.558L11.558 11.558L11.558 0Z" fill="rgb(255,162,0)" fill-opacity="1.000" fill-rule="nonzero" transform="matrix(1 0 0 1 84.884 8.3253)"/><path d="M11.558 0L0 0L0 11.558L11.558 11.558L11.558 0Z" fill="rgb(240,75,36)" fill-opacity="1.000" fill-rule="nonzero" transform="matrix(1 0 0 1 96.4424 19.8873)"/><path d="M17.582 0L0 0L0 11.558L17.582 11.558L17.582 0Z" fill="rgb(99,168,68)" fill-opacity="1.000" fill-rule="nonzero" transform="matrix(1 0 0 1 74.3825 19.8873)"/><path d="M4.478 0L0 0L0 4.478L4.478 4.478L4.478 0Z" fill="rgb(87,48,148)" fill-opacity="1.000" fill-rule="nonzero" transform="matrix(-1 0 0 -1 96.4396 24.3605)"/><path d="M4.478 0L0 0L0 7.08L4.478 7.08L4.478 0Z" fill="rgb(255,255,255)" fill-opacity="1.000" fill-rule="nonzero" transform="matrix(-1 0 0 -1 96.4396 31.4413)"/><path d="M11.558 0L0 0L0 11.558L11.558 11.558L11.558 0Z" fill="rgb(0,118,188)" fill-opacity="1.000" fill-rule="nonzero" transform="matrix(1 0 0 1 84.884 31.4448)"/><path d="M17.183 4.212C17.181 3.767 17.134 3.324 17.042 2.889C16.942 2.285 16.676 1.72 16.274 1.258C15.872 0.796 15.349 0.454 14.765 0.271C13.95 0.018 13.089 -0.055 12.243 0.059C11.569 0.113 10.919 0.336 10.354 0.707C10.123 0.863 9.913 1.054 9.716 1.204C9.415 0.981 9.103 0.773 8.781 0.581C8.033 0.201 7.203 0.01 6.364 0.023C5.521 -0.028 4.679 0.123 3.907 0.464C3.6 0.611 3.324 0.811 3.025 0.987C2.904 0.705 2.774 0.409 2.648 0.105C2.608 0.009 2.568 -0.01 2.472 0.004C1.648 0.155 0.856 0.298 0 0.445L0 0.475C0 0.491 0.03 0.5 0.035 0.521C0.521 1.451 0.794 2.477 0.834 3.526C0.854 6.171 0.854 8.827 0.854 11.475L0.854 11.727L3.617 11.727L3.617 11.48C3.617 8.877 3.614 6.274 3.607 3.671C3.602 3.538 3.647 3.407 3.733 3.304C4.014 2.906 4.405 2.597 4.858 2.415C5.31 2.232 5.806 2.184 6.285 2.275C6.478 2.283 6.667 2.331 6.841 2.414C7.015 2.498 7.169 2.617 7.296 2.763C7.422 2.909 7.517 3.079 7.575 3.263C7.632 3.447 7.652 3.641 7.632 3.833C7.607 6.38 7.637 8.929 7.637 11.474L7.637 11.715L10.416 11.715L10.416 11.484C10.411 8.866 10.4 6.238 10.4 3.622C10.399 3.505 10.434 3.391 10.501 3.295C10.748 2.936 11.087 2.649 11.481 2.464C11.876 2.279 12.313 2.201 12.747 2.24C13.112 2.257 13.46 2.396 13.736 2.635C14.012 2.874 14.2 3.199 14.27 3.557C14.344 3.858 14.386 4.167 14.395 4.477C14.405 6.808 14.412 9.142 14.415 11.477L14.415 11.718L17.188 11.718L17.188 11.521C17.197 9.096 17.197 6.644 17.183 4.212Z" fill="rgb(0,0,0)" fill-opacity="1.000" fill-rule="nonzero" transform="matrix(1 0 0 1 21.7143 27.1834)"/><path d="M10.328 6.917C10.364 4.86 10.339 2.807 10.348 0.752C10.348 0.586 10.298 0.511 10.142 0.475C9.962 0.435 9.781 0.37 9.599 0.328C8.234 0.053 6.84 -0.05 5.449 0.022C4.643 0.041 3.851 0.24 3.132 0.605C2.485 0.944 1.912 1.407 1.444 1.969C0.977 2.53 0.625 3.178 0.408 3.876C-0.148 5.519 -0.136 7.301 0.444 8.936C0.657 9.652 1.053 10.3 1.592 10.816C2.132 11.333 2.797 11.7 3.522 11.881C3.816 11.958 4.115 12.02 4.416 12.067L5.637 12.067C5.682 12.067 5.727 12.031 5.773 12.026C6.643 11.933 7.457 11.551 8.084 10.941C8.164 10.861 8.24 10.78 8.3 10.71C8.481 10.951 8.637 11.197 8.833 11.418C8.95 11.558 9.098 11.669 9.266 11.742C9.433 11.815 9.615 11.849 9.798 11.84C10.239 11.824 10.688 11.835 11.129 11.835L11.411 11.835C11.31 11.608 11.2 11.403 11.124 11.192C10.606 9.825 10.337 8.378 10.328 6.917ZM7.444 7.364C7.373 7.869 7.211 8.356 6.966 8.802C6.771 9.215 6.433 9.543 6.014 9.726C5.595 9.909 5.124 9.934 4.688 9.796C4.322 9.736 3.983 9.567 3.713 9.312C3.443 9.056 3.256 8.727 3.175 8.364C2.752 6.94 2.826 5.414 3.386 4.038C3.529 3.635 3.765 3.27 4.075 2.975C4.385 2.68 4.76 2.462 5.17 2.339C5.764 2.187 6.385 2.175 6.984 2.304C7.145 2.329 7.306 2.378 7.472 2.405C7.572 2.42 7.612 2.47 7.612 2.576C7.607 3.154 7.612 3.732 7.612 4.309C7.654 5.331 7.597 6.354 7.444 7.364Z" fill="rgb(0,0,0)" fill-opacity="1.000" fill-rule="nonzero" transform="matrix(1 0 0 1 58.6275 39.6079)"/><path d="M8.261 7.264C7.912 6.486 7.277 5.873 6.488 5.55C5.769 5.203 5.04 4.882 4.327 4.54C3.908 4.371 3.537 4.102 3.247 3.756C3.168 3.665 3.111 3.558 3.08 3.441C3.049 3.325 3.044 3.204 3.067 3.085C3.09 2.967 3.139 2.856 3.211 2.76C3.283 2.663 3.376 2.585 3.483 2.53C3.908 2.283 4.406 2.194 4.89 2.278C5.488 2.379 6.058 2.604 6.563 2.94C6.789 3.076 7.004 3.226 7.236 3.377C7.507 2.548 7.774 1.734 8.04 0.91C7.999 0.894 7.974 0.879 7.954 0.874C7.351 0.678 6.753 0.462 6.14 0.286C5.04 -0.054 3.869 -0.092 2.749 0.176C1.974 0.343 1.272 0.751 0.744 1.342C0.436 1.714 0.234 2.161 0.158 2.638C0.082 3.114 0.135 3.602 0.312 4.051C0.446 4.462 0.66 4.843 0.942 5.172C1.224 5.5 1.568 5.77 1.954 5.965C2.616 6.333 3.312 6.643 3.995 6.976C4.453 7.166 4.886 7.414 5.281 7.714C5.413 7.832 5.515 7.98 5.579 8.144C5.643 8.309 5.668 8.487 5.651 8.663C5.634 8.839 5.575 9.008 5.481 9.158C5.386 9.307 5.258 9.432 5.106 9.523C4.783 9.707 4.417 9.802 4.046 9.799C3.42 9.807 2.804 9.647 2.262 9.337C1.824 9.101 1.407 8.823 0.975 8.553C0.653 9.347 0.327 10.156 0 10.97C0.018 10.988 0.039 11.003 0.06 11.016C0.889 11.451 1.778 11.761 2.698 11.936C2.979 11.986 3.266 12.016 3.552 12.067L4.547 12.067C4.588 12.067 4.627 12.037 4.673 12.031C5.07 11.966 5.472 11.921 5.859 11.83C6.634 11.663 7.335 11.254 7.861 10.66C8.252 10.195 8.498 9.626 8.57 9.022C8.641 8.418 8.534 7.807 8.261 7.264Z" fill="rgb(0,0,0)" fill-opacity="1.000" fill-rule="nonzero" transform="matrix(1 0 0 1 74.7142 39.6081)"/><path d="M17.211 2.704C17.087 2.183 16.841 1.699 16.492 1.293C16.143 0.886 15.702 0.569 15.206 0.367C14.663 0.152 14.087 0.035 13.503 0.02C12.677 -0.041 11.848 0.087 11.079 0.392C10.602 0.594 10.173 0.891 9.817 1.267C9.386 0.835 8.859 0.512 8.279 0.322C7.403 0.046 6.479 -0.046 5.566 0.051C4.869 0.096 4.192 0.304 3.591 0.659C3.41 0.769 3.244 0.9 3.068 1.026C2.943 0.732 2.812 0.433 2.691 0.137C2.687 0.112 2.677 0.09 2.662 0.07C2.648 0.05 2.629 0.033 2.607 0.021C2.586 0.009 2.562 0.002 2.537 0C2.513 -0.001 2.488 0.002 2.465 0.011C2.245 0.061 2.024 0.091 1.804 0.131C1.211 0.237 0.613 0.342 0 0.453C0.046 0.549 0.08 0.629 0.115 0.705C0.583 1.723 0.824 2.83 0.824 3.951C0.808 6.508 0.808 9.066 0.808 11.629L0.808 11.86L3.667 11.86L3.667 11.659C3.662 9.014 3.657 6.363 3.662 3.719C3.662 3.598 3.701 3.48 3.772 3.383C4.055 2.969 4.454 2.647 4.918 2.457C5.383 2.268 5.893 2.219 6.385 2.317C6.577 2.326 6.764 2.374 6.936 2.459C7.109 2.543 7.262 2.662 7.386 2.808C7.51 2.954 7.603 3.124 7.659 3.308C7.715 3.491 7.733 3.684 7.711 3.875C7.691 6.468 7.691 9.056 7.691 11.649L7.691 11.865L10.553 11.865L10.553 11.629C10.548 8.984 10.543 6.322 10.543 3.674C10.54 3.571 10.568 3.468 10.623 3.38C10.873 3.007 11.219 2.709 11.626 2.517C12.032 2.325 12.482 2.246 12.929 2.29C13.294 2.307 13.642 2.446 13.918 2.685C14.194 2.924 14.382 3.248 14.452 3.607C14.527 3.944 14.566 4.289 14.567 4.635C14.577 6.967 14.567 9.308 14.567 11.645L14.567 11.861L17.401 11.861C17.406 11.811 17.411 11.751 17.411 11.7C17.411 9.188 17.41 6.675 17.406 4.163C17.417 3.669 17.351 3.177 17.211 2.704Z" fill="rgb(0,0,0)" fill-opacity="1.000" fill-rule="nonzero" transform="matrix(1 0 0 1 40.8108 39.6153)"/><path d="M4.304 11.749C5.073 11.929 5.866 11.977 6.651 11.89C7.436 11.845 8.209 11.672 8.937 11.375C8.983 11.363 9.021 11.334 9.045 11.293C9.068 11.253 9.075 11.205 9.063 11.159C9.018 10.637 8.978 10.114 8.937 9.591C8.907 9.239 8.877 8.893 8.847 8.511C8.428 8.907 7.932 9.212 7.39 9.408C6.851 9.645 6.261 9.744 5.674 9.695C5.086 9.646 4.521 9.45 4.029 9.126C3.644 8.856 3.328 8.498 3.108 8.083C2.888 7.667 2.769 7.205 2.761 6.735C2.827 6.75 2.871 6.765 2.917 6.775C3.64 6.991 4.389 7.106 5.143 7.117C6.292 7.166 7.436 6.947 8.485 6.478C9.151 6.207 9.714 5.732 10.092 5.121C10.363 4.636 10.498 4.088 10.485 3.533C10.472 2.978 10.311 2.437 10.019 1.965C9.571 1.202 8.846 0.642 7.994 0.403C6.547 -0.101 4.978 -0.133 3.512 0.312C1.532 0.89 0 3.171 0 5.96C-0.005 10.257 2.165 11.177 4.304 11.749ZM4.721 2.433C5.463 2.131 6.29 2.113 7.043 2.384C7.226 2.439 7.388 2.548 7.51 2.695C7.631 2.842 7.707 3.022 7.727 3.212C7.765 3.4 7.748 3.595 7.678 3.774C7.607 3.952 7.486 4.106 7.33 4.217C6.92 4.511 6.446 4.702 5.948 4.775C4.974 4.974 3.97 4.958 3.003 4.73C2.973 4.724 2.943 4.71 2.893 4.694C3.003 4.203 3.225 3.743 3.542 3.351C3.858 2.959 4.261 2.645 4.718 2.433L4.721 2.433Z" fill="rgb(0,0,0)" fill-opacity="1.000" fill-rule="nonzero" transform="matrix(1 0 0 1 60.3434 27.1473)"/><path d="M3.735 11.615C4.847 11.95 6.025 12.002 7.162 11.765C8.373 11.555 9.458 10.887 10.192 9.901C11.007 8.792 11.426 7.442 11.383 6.067C11.368 5.291 11.255 4.519 11.046 3.771C10.881 3.14 10.592 2.548 10.197 2.03C9.801 1.511 9.306 1.076 8.741 0.751C7.952 0.314 7.072 0.066 6.17 0.027C5.201 -0.062 4.225 0.07 3.315 0.414C2.539 0.728 1.852 1.227 1.312 1.867C0.773 2.508 0.398 3.27 0.22 4.088C-0.143 5.538 -0.055 7.065 0.471 8.465C0.714 9.218 1.139 9.899 1.709 10.448C2.278 10.998 2.974 11.398 3.735 11.615ZM3.503 3.414C3.703 3.057 3.992 2.757 4.341 2.544C4.691 2.331 5.089 2.212 5.498 2.198C5.942 2.157 6.39 2.214 6.81 2.364C7.125 2.481 7.409 2.669 7.641 2.912C7.873 3.156 8.046 3.45 8.146 3.77C8.604 5.033 8.638 6.411 8.242 7.695C8.133 8.024 7.985 8.34 7.801 8.634C7.619 8.93 7.371 9.18 7.076 9.363C6.781 9.546 6.448 9.658 6.102 9.689C5.741 9.758 5.37 9.75 5.012 9.667C4.653 9.584 4.317 9.427 4.022 9.207C3.537 8.792 3.207 8.225 3.084 7.599C2.944 7.049 2.873 6.484 2.873 5.916C2.853 5.04 3.071 4.176 3.503 3.414Z" fill="rgb(0,0,0)" fill-opacity="1.000" fill-rule="nonzero" transform="matrix(1 0 0 1 39.2276 27.1822)"/><path d="M3.387 6.775C4.186 8.368 4.98 9.956 5.774 11.551C5.789 11.598 5.821 11.638 5.864 11.664C5.906 11.69 5.957 11.7 6.006 11.691C6.226 11.678 6.447 11.678 6.667 11.691C6.721 11.699 6.777 11.686 6.822 11.656C6.868 11.625 6.9 11.578 6.913 11.525C8.642 7.731 10.37 3.935 12.099 0.136C12.119 0.096 12.129 0.051 12.149 0C11.114 0 10.092 0 9.079 0.006C9.048 0.011 9.019 0.024 8.995 0.044C8.971 0.063 8.951 0.088 8.938 0.116C8.195 1.955 7.453 3.794 6.712 5.633C6.536 6.065 6.365 6.492 6.179 6.95C6.134 6.859 6.099 6.794 6.069 6.729C5.024 4.533 3.977 2.337 2.929 0.142C2.914 0.097 2.885 0.058 2.846 0.033C2.806 0.007 2.759 -0.004 2.713 0.001C2.125 0.011 1.537 0.006 0.944 0.006L0 0.006C0.05 0.102 0.08 0.172 0.115 0.238C1.206 2.422 2.297 4.601 3.387 6.775Z" fill="rgb(0,0,0)" fill-opacity="1.000" fill-rule="nonzero" transform="matrix(1 0 0 1 49.2182 27.3834)"/><path d="M0 2.112L1.407 2.112L1.407 11.609L4.273 11.609L4.273 0L0 0L0 2.112Z" fill="rgb(0,0,0)" fill-opacity="1.000" fill-rule="nonzero" transform="matrix(1 0 0 1 69.7598 39.8702)"/><path d="M1.628 0C1.198 0 0.786 0.17 0.481 0.473C0.176 0.776 0.003 1.187 0 1.616C0.009 2.04 0.184 2.444 0.487 2.74C0.79 3.037 1.197 3.203 1.62 3.203C2.044 3.203 2.451 3.037 2.754 2.74C3.057 2.444 3.232 2.04 3.241 1.616C3.238 1.189 3.067 0.781 2.765 0.478C2.464 0.176 2.055 0.004 1.628 0Z" fill="rgb(0,0,0)" fill-opacity="1.000" fill-rule="nonzero" transform="matrix(1 0 0 1 70.7955 35.5197)"/><path d="M1.337 1.071L0 1.071L0 0L3.975 0L3.975 1.071L2.628 1.071L2.628 4.593L1.337 4.593L1.337 1.071Z" fill="rgb(0,0,0)" fill-opacity="1.000" fill-rule="nonzero" transform="matrix(1 0 0 1 21.7171 19.9931)"/><path d="M3.734 3.839L1.677 3.839L1.375 4.593L0 4.593L2.057 0L3.369 0L5.426 4.593L4.035 4.593L3.734 3.839ZM2.714 1.292L2.126 2.754L3.302 2.754L2.714 1.292Z" fill="rgb(0,0,0)" fill-opacity="1.000" fill-rule="nonzero" transform="matrix(1 0 0 1 25.1136 19.9931)"/><path d="M3.575 1.488C3.29 1.224 2.914 1.08 2.525 1.086C1.777 1.086 1.294 1.533 1.294 2.432C1.278 2.602 1.298 2.773 1.353 2.935C1.408 3.096 1.496 3.244 1.613 3.368C1.729 3.493 1.871 3.591 2.028 3.657C2.185 3.723 2.355 3.754 2.525 3.749C2.836 3.759 3.143 3.677 3.407 3.513L3.407 2.926L2.246 2.926L2.246 1.91L4.487 1.91L4.487 3.95C4.268 4.263 3.969 4.51 3.622 4.669C3.275 4.827 2.891 4.889 2.512 4.85C2.183 4.883 1.85 4.844 1.537 4.736C1.224 4.628 0.939 4.453 0.7 4.224C0.462 3.994 0.276 3.716 0.156 3.407C0.036 3.099 -0.016 2.768 0.004 2.438C-0.008 2.108 0.05 1.78 0.173 1.474C0.296 1.168 0.482 0.891 0.719 0.662C0.955 0.433 1.238 0.256 1.548 0.143C1.857 0.029 2.188 -0.017 2.516 0.006C2.853 -0.011 3.189 0.046 3.501 0.174C3.812 0.301 4.092 0.496 4.32 0.744L3.575 1.488Z" fill="rgb(0,0,0)" fill-opacity="1.000" fill-rule="nonzero" transform="matrix(1 0 0 1 30.3376 19.867)"/><path d="M2.483 0L3.689 0L3.689 4.593L2.614 4.593L2.564 4.246C2.427 4.389 2.26 4.5 2.075 4.571C1.89 4.641 1.691 4.669 1.494 4.653C1.282 4.653 1.072 4.608 0.879 4.521C0.686 4.434 0.514 4.307 0.374 4.149C0.234 3.99 0.129 3.803 0.066 3.601C0.004 3.398 -0.015 3.185 0.012 2.975C-0.007 2.758 0.021 2.54 0.092 2.335C0.163 2.129 0.276 1.941 0.424 1.782C0.572 1.623 0.752 1.496 0.952 1.411C1.152 1.325 1.367 1.282 1.585 1.285C1.751 1.272 1.918 1.297 2.073 1.357C2.229 1.417 2.369 1.511 2.484 1.632L2.483 0ZM1.212 2.97C1.203 3.06 1.213 3.151 1.241 3.237C1.27 3.323 1.316 3.402 1.377 3.469C1.439 3.536 1.513 3.589 1.596 3.625C1.68 3.661 1.77 3.679 1.86 3.678C1.947 3.678 2.034 3.66 2.114 3.626C2.194 3.591 2.266 3.541 2.327 3.479C2.387 3.416 2.434 3.342 2.465 3.26C2.497 3.179 2.511 3.092 2.508 3.005C2.519 2.913 2.51 2.819 2.483 2.73C2.455 2.641 2.409 2.559 2.348 2.489C2.288 2.418 2.213 2.361 2.129 2.321C2.045 2.281 1.953 2.259 1.86 2.256C1.769 2.256 1.679 2.274 1.596 2.311C1.513 2.347 1.438 2.401 1.377 2.468C1.316 2.536 1.27 2.615 1.241 2.702C1.213 2.788 1.203 2.879 1.212 2.97Z" fill="rgb(0,0,0)" fill-opacity="1.000" fill-rule="nonzero" transform="matrix(1 0 0 1 36.459 19.9982)"/><path d="M3.483 2.048L1.221 2.048C1.287 2.18 1.392 2.291 1.52 2.364C1.649 2.437 1.797 2.471 1.945 2.46C2.244 2.466 2.537 2.374 2.779 2.198L3.367 2.859C2.96 3.22 2.432 3.412 1.889 3.397C0.861 3.397 0 2.89 0 1.714C-0.004 1.481 0.041 1.249 0.131 1.034C0.222 0.818 0.356 0.624 0.526 0.464C0.696 0.304 0.897 0.181 1.117 0.103C1.337 0.025 1.571 -0.007 1.804 0.011C2.065 -0.02 2.329 0.015 2.573 0.113C2.817 0.211 3.032 0.368 3.199 0.571C3.366 0.774 3.48 1.015 3.529 1.273C3.579 1.531 3.563 1.797 3.483 2.048ZM2.403 1.274C2.368 0.76 1.307 0.741 1.227 1.274L2.403 1.274Z" fill="rgb(0,0,0)" fill-opacity="1.000" fill-rule="nonzero" transform="matrix(1 0 0 1 40.5286 21.2622)"/><path d="M1.207 4.658L0 4.658L0 0.065L1.076 0.065L1.126 0.411C1.263 0.268 1.43 0.157 1.615 0.087C1.8 0.016 1.999 -0.012 2.196 0.004C2.408 0.004 2.617 0.049 2.811 0.136C3.004 0.223 3.176 0.35 3.317 0.509C3.457 0.667 3.562 0.854 3.624 1.057C3.687 1.259 3.705 1.472 3.679 1.683C3.697 1.899 3.67 2.117 3.599 2.323C3.528 2.528 3.415 2.717 3.266 2.876C3.118 3.035 2.939 3.161 2.739 3.247C2.539 3.332 2.323 3.375 2.106 3.372C1.94 3.385 1.773 3.361 1.617 3.301C1.461 3.241 1.321 3.147 1.206 3.026L1.207 4.658ZM2.478 1.688C2.488 1.598 2.478 1.506 2.449 1.42C2.421 1.334 2.374 1.255 2.313 1.188C2.252 1.121 2.177 1.068 2.094 1.032C2.011 0.996 1.921 0.978 1.83 0.979C1.743 0.98 1.657 0.998 1.577 1.032C1.497 1.066 1.424 1.116 1.364 1.179C1.303 1.242 1.256 1.316 1.225 1.397C1.194 1.479 1.179 1.565 1.182 1.652C1.172 1.745 1.18 1.839 1.208 1.927C1.236 2.016 1.281 2.099 1.342 2.169C1.403 2.239 1.478 2.296 1.562 2.336C1.646 2.376 1.737 2.398 1.83 2.401C1.921 2.401 2.011 2.383 2.094 2.346C2.177 2.309 2.252 2.256 2.313 2.188C2.374 2.121 2.42 2.042 2.449 1.956C2.477 1.869 2.487 1.778 2.478 1.688Z" fill="rgb(0,0,0)" fill-opacity="1.000" fill-rule="nonzero" transform="matrix(1 0 0 1 45.7652 21.2804)"/><path d="M3.483 2.048L1.221 2.048C1.287 2.181 1.392 2.291 1.52 2.364C1.649 2.438 1.797 2.471 1.945 2.46C2.244 2.467 2.537 2.375 2.779 2.198L3.367 2.86C2.96 3.22 2.432 3.412 1.889 3.398C0.861 3.398 0 2.89 0 1.714C-0.004 1.481 0.041 1.249 0.131 1.034C0.222 0.819 0.356 0.625 0.526 0.464C0.696 0.304 0.897 0.181 1.117 0.103C1.337 0.025 1.571 -0.006 1.804 0.011C2.065 -0.02 2.33 0.015 2.574 0.113C2.818 0.21 3.033 0.368 3.2 0.571C3.367 0.773 3.481 1.015 3.53 1.273C3.58 1.531 3.563 1.798 3.483 2.048ZM2.403 1.274C2.368 0.76 1.307 0.741 1.227 1.274L2.403 1.274Z" fill="rgb(0,0,0)" fill-opacity="1.000" fill-rule="nonzero" transform="matrix(1 0 0 1 49.65 21.2619)"/><path d="M2.485 0L3.69 0L3.69 4.593L2.615 4.593L2.565 4.246C2.428 4.389 2.261 4.5 2.076 4.571C1.89 4.641 1.692 4.669 1.494 4.653C1.283 4.653 1.073 4.609 0.88 4.522C0.687 4.435 0.514 4.308 0.374 4.149C0.234 3.99 0.129 3.803 0.066 3.601C0.004 3.399 -0.015 3.185 0.012 2.975C-0.007 2.758 0.021 2.54 0.092 2.335C0.163 2.129 0.276 1.941 0.424 1.782C0.572 1.623 0.752 1.496 0.952 1.411C1.152 1.325 1.367 1.282 1.585 1.285C1.751 1.272 1.918 1.297 2.073 1.357C2.229 1.417 2.369 1.511 2.484 1.632L2.485 0ZM1.215 2.97C1.206 3.06 1.216 3.151 1.244 3.237C1.273 3.323 1.319 3.402 1.38 3.469C1.442 3.536 1.516 3.589 1.599 3.625C1.683 3.661 1.773 3.679 1.863 3.678C1.95 3.678 2.036 3.66 2.117 3.626C2.197 3.591 2.269 3.541 2.33 3.479C2.39 3.416 2.437 3.342 2.468 3.26C2.5 3.179 2.514 3.092 2.511 3.005C2.522 2.913 2.513 2.819 2.485 2.73C2.458 2.641 2.412 2.559 2.351 2.489C2.29 2.418 2.216 2.361 2.132 2.321C2.048 2.281 1.956 2.259 1.863 2.256C1.772 2.256 1.682 2.274 1.599 2.311C1.516 2.347 1.441 2.401 1.38 2.468C1.319 2.536 1.272 2.615 1.244 2.702C1.216 2.788 1.206 2.879 1.215 2.97Z" fill="rgb(0,0,0)" fill-opacity="1.000" fill-rule="nonzero" transform="matrix(1 0 0 1 53.3669 19.9982)"/><path d="M2.588 1.447L3.726 1.447L3.726 4.688L2.61 4.688L2.56 4.341C2.423 4.484 2.256 4.595 2.071 4.665C1.886 4.736 1.687 4.764 1.49 4.748C1.28 4.742 1.073 4.693 0.883 4.605C0.693 4.516 0.523 4.389 0.384 4.231C0.245 4.074 0.139 3.889 0.075 3.69C0.01 3.49 -0.013 3.279 0.007 3.07C-0.009 2.854 0.02 2.637 0.092 2.432C0.164 2.228 0.278 2.04 0.425 1.882C0.573 1.723 0.752 1.597 0.95 1.51C1.149 1.424 1.364 1.38 1.58 1.38C1.761 1.362 1.944 1.392 2.111 1.466C2.277 1.54 2.422 1.655 2.53 1.802L2.588 1.447ZM1.853 2.351C1.676 2.368 1.512 2.451 1.393 2.582C1.273 2.713 1.207 2.885 1.207 3.062C1.207 3.24 1.273 3.411 1.393 3.542C1.512 3.674 1.676 3.756 1.853 3.773C1.944 3.773 2.034 3.754 2.118 3.718C2.201 3.681 2.277 3.629 2.339 3.562C2.402 3.496 2.45 3.418 2.482 3.332C2.513 3.247 2.526 3.156 2.521 3.065C2.532 2.973 2.523 2.879 2.494 2.791C2.465 2.703 2.417 2.622 2.354 2.554C2.29 2.487 2.213 2.433 2.127 2.398C2.042 2.363 1.949 2.347 1.856 2.351L1.853 2.351ZM3.089 0L1.853 0L1.361 1.029L1.361 1.069L2.389 1.069L3.092 0.054L3.089 0Z" fill="rgb(0,0,0)" fill-opacity="1.000" fill-rule="nonzero" transform="matrix(1 0 0 1 57.4309 19.9035)"/><path d="M1.18 3.895C1.165 4.403 1.467 4.513 1.789 4.513C2.111 4.513 2.387 4.362 2.387 4.046C2.387 3.81 2.24 3.613 1.804 3.613C1.575 3.641 1.343 3.619 1.123 3.549C0.903 3.479 0.701 3.363 0.53 3.208C0.359 3.053 0.223 2.863 0.132 2.652C0.04 2.44 -0.004 2.211 0 1.98C0.001 1.75 0.049 1.523 0.142 1.312C0.235 1.102 0.37 0.913 0.54 0.757C0.709 0.601 0.909 0.482 1.127 0.407C1.344 0.332 1.575 0.303 1.804 0.322C2.033 0.324 2.259 0.367 2.473 0.447C2.583 0.301 2.714 0.141 2.82 0L3.694 0.623L3.272 1.12C3.379 1.239 3.46 1.377 3.513 1.527C3.566 1.677 3.588 1.836 3.579 1.995C3.572 2.208 3.515 2.416 3.413 2.603C3.311 2.79 3.166 2.95 2.991 3.071C3.177 3.157 3.336 3.293 3.448 3.465C3.561 3.637 3.623 3.837 3.627 4.042C3.627 5.092 2.717 5.484 1.79 5.484C0.629 5.484 -0.019 4.881 0.047 3.891L1.18 3.891L1.18 3.895ZM1.175 1.98C1.171 2.064 1.185 2.148 1.215 2.227C1.245 2.305 1.291 2.377 1.35 2.437C1.409 2.497 1.479 2.544 1.558 2.575C1.636 2.606 1.719 2.621 1.803 2.619C1.887 2.623 1.97 2.609 2.048 2.578C2.126 2.547 2.196 2.499 2.254 2.439C2.311 2.378 2.355 2.306 2.383 2.227C2.41 2.147 2.42 2.063 2.412 1.98C2.417 1.896 2.405 1.812 2.377 1.732C2.349 1.653 2.305 1.58 2.249 1.518C2.192 1.455 2.123 1.405 2.047 1.37C1.97 1.334 1.888 1.314 1.803 1.312C1.717 1.308 1.63 1.324 1.55 1.357C1.47 1.39 1.397 1.44 1.338 1.503C1.278 1.567 1.233 1.642 1.205 1.724C1.177 1.806 1.167 1.894 1.175 1.98Z" fill="rgb(0,0,0)" fill-opacity="1.000" fill-rule="nonzero" transform="matrix(1 0 0 1 61.5344 20.9225)"/><path d="M0.683 0.003C0.8 0.017 0.91 0.064 1 0.139C1.09 0.214 1.157 0.314 1.192 0.426C1.227 0.538 1.229 0.657 1.198 0.771C1.166 0.884 1.103 0.985 1.015 1.063C0.928 1.141 0.819 1.193 0.703 1.211C0.587 1.229 0.469 1.213 0.362 1.165C0.254 1.117 0.163 1.039 0.099 0.941C0.035 0.843 0.001 0.728 0 0.611C0.002 0.525 0.022 0.441 0.058 0.363C0.094 0.285 0.146 0.216 0.21 0.159C0.274 0.102 0.349 0.059 0.43 0.032C0.512 0.005 0.598 -0.005 0.683 0.003ZM1.287 4.686L1.287 1.5L0.079 1.5L0.079 4.686L1.287 4.686Z" fill="rgb(0,0,0)" fill-opacity="1.000" fill-rule="nonzero" transform="matrix(1 0 0 1 65.5236 19.9002)"/><path d="M3.699 1.699C3.657 2.161 3.445 2.591 3.103 2.904C2.76 3.217 2.313 3.391 1.849 3.391C1.385 3.391 0.938 3.217 0.596 2.904C0.254 2.591 0.041 2.161 0 1.699C0.039 1.236 0.251 0.804 0.594 0.489C0.936 0.175 1.384 0 1.849 0C2.314 0 2.763 0.175 3.105 0.489C3.448 0.804 3.659 1.236 3.699 1.699ZM2.518 1.699C2.511 1.569 2.467 1.443 2.389 1.337C2.312 1.232 2.205 1.151 2.082 1.106C1.959 1.06 1.826 1.052 1.698 1.081C1.571 1.111 1.455 1.177 1.364 1.272C1.274 1.367 1.214 1.486 1.191 1.615C1.168 1.744 1.183 1.877 1.234 1.997C1.286 2.117 1.372 2.22 1.481 2.292C1.59 2.364 1.718 2.403 1.849 2.403C1.94 2.403 2.03 2.386 2.114 2.35C2.198 2.315 2.273 2.262 2.336 2.196C2.398 2.13 2.447 2.052 2.478 1.967C2.509 1.881 2.522 1.79 2.516 1.699L2.518 1.699Z" fill="rgb(0,0,0)" fill-opacity="1.000" fill-rule="nonzero" transform="matrix(1 0 0 1 67.1944 21.2739)"/></svg>