<svg xmlns="http://www.w3.org/2000/svg" viewBox="0 0 60 60" width="60" height="60"><path d="M0 0L60 0L60 60L0 60L0 0Z" fill="rgb(255,255,255)" fill-opacity="1.000" fill-rule="nonzero" transform="matrix(1 0 0 1 0 0)"/><path d="M49.5 0L0 0L0 18L49.5 18L49.5 0Z" fill="rgb(0,0,0)" fill-opacity="1.000" fill-rule="nonzero" transform="matrix(1 0 0 1 7 21)"/><path d="M1.895 4.989C1.895 5.861 2.969 6.32 3.931 6.32C4.365 6.32 5.085 6.114 5.887 5.607L6.687 7.144C5.679 7.766 4.653 8.037 3.883 8.037C1.462 8.037 0 6.548 0 4.17C0.003 1.869 1.238 0 3.787 0C5.843 0 6.87 1.315 6.87 2.63C6.87 3.945 5.796 5.293 3.664 5.293C3.062 5.281 2.465 5.178 1.895 4.989ZM1.975 3.388C2.527 3.516 3.092 3.586 3.659 3.594C4.605 3.594 5.117 3.072 5.117 2.611C5.117 2.15 4.637 1.692 3.755 1.692C2.773 1.696 2.216 2.409 1.973 3.391L1.975 3.388Z" fill="rgb(178,54,96)" fill-opacity="1.000" fill-rule="nonzero" transform="matrix(1 0 0 1 27.0672 25.4536)"/><path d="M5.169 0L5.169 4.357C5.169 5.171 4.453 5.834 3.57 5.834C2.687 5.834 1.971 5.171 1.971 4.357L1.971 0L0 0L0 4.357C0 6.239 1.668 7.891 3.571 7.891C5.474 7.891 7.143 6.239 7.143 4.357L7.143 0L5.169 0Z" fill="rgb(178,54,96)" fill-opacity="1.000" fill-rule="nonzero" transform="matrix(1 0 0 1 18.7692 25.6716)"/><path d="M5.172 0L5.172 1.587C5.172 2.066 5.172 2.545 5.172 3.024C5.172 3.415 5.216 3.839 5.081 4.214C4.956 4.56 4.769 4.881 4.529 5.162C4.307 5.423 3.95 5.834 3.576 5.834C3.2 5.834 2.844 5.423 2.621 5.162C2.381 4.881 2.194 4.56 2.069 4.214C1.935 3.839 1.978 3.415 1.978 3.024L1.978 0L0.002 0L0.002 3.233C-0.014 3.749 0.055 4.263 0.207 4.757C0.389 5.287 0.74 5.749 1.078 6.192C1.455 6.7 1.915 7.143 2.439 7.502C2.762 7.755 3.162 7.893 3.574 7.893C3.986 7.893 4.386 7.755 4.709 7.502C5.233 7.143 5.693 6.7 6.07 6.191C6.412 5.748 6.755 5.287 6.941 4.756C7.092 4.263 7.162 3.748 7.146 3.233L7.146 0L5.172 0Z" fill="rgb(178,54,96)" fill-opacity="1.000" fill-rule="nonzero" transform="matrix(1 0 0 1 35.0368 25.7993)"/><path d="M13.092 8.508L7.268 8.508C7.268 8.383 7.261 8.08 7.261 8.08L7.261 0L5.284 0L5.266 4.362C5.266 5.176 4.558 5.838 3.686 5.838C2.815 5.838 2.088 5.176 2.088 4.362L2.088 0L0.114 0L0.114 4.362C0.114 6.244 1.783 7.895 3.686 7.895C4.252 7.885 4.805 7.724 5.285 7.43L5.285 8.149L5.285 8.157C5.285 8.27 5.285 8.39 5.285 8.496L5.285 8.515C4.573 8.495 4.029 8.484 3.572 8.484C1.718 8.484 0 8.765 0 10.805C0 12.386 1.079 13.264 3.039 13.264C5.279 13.264 6.632 12.071 7.025 10.374L13.1 10.374L13.092 8.508ZM3.117 11.493C2.343 11.493 1.967 11.282 1.967 10.85C1.967 10.419 2.388 10.259 3.372 10.259L5.059 10.323C4.91 10.917 4.215 11.493 3.117 11.493Z" fill="rgb(178,54,96)" fill-opacity="1.000" fill-rule="nonzero" transform="matrix(1 0 0 1 43.4077 25.7427)"/><path d="M7.564 0C6.607 0 5.825 0.306 5.305 0.887C4.783 0.306 4.004 0 3.046 0C2.645 -0.004 2.247 0.071 1.875 0.221C1.504 0.371 1.166 0.592 0.883 0.872C0.599 1.153 0.375 1.486 0.223 1.854C0.072 2.221 -0.004 2.614 0 3.011L0 8.098L1.875 8.098L1.875 3.011C1.872 2.856 1.899 2.703 1.956 2.559C2.014 2.415 2.099 2.284 2.208 2.173C2.317 2.063 2.447 1.975 2.591 1.914C2.735 1.854 2.89 1.823 3.046 1.822C4.249 1.822 4.411 3.23 4.411 4.608L4.427 8.098L6.183 8.098L6.2 4.608C6.2 3.23 6.362 1.822 7.564 1.822C7.72 1.823 7.875 1.854 8.019 1.914C8.163 1.974 8.293 2.062 8.402 2.173C8.511 2.284 8.597 2.415 8.654 2.559C8.711 2.703 8.738 2.856 8.734 3.011L8.734 8.098L10.61 8.098L10.61 3.011C10.614 2.614 10.538 2.221 10.386 1.854C10.235 1.486 10.011 1.153 9.727 0.872C9.443 0.592 9.106 0.371 8.734 0.221C8.363 0.071 7.965 -0.004 7.564 0Z" fill="rgb(178,54,96)" fill-opacity="1.000" fill-rule="nonzero" transform="matrix(1 0 0 1 7 25.3633)"/></svg>