<svg xmlns="http://www.w3.org/2000/svg" viewBox="0 0 60 60" width="60" height="60"><path d="M0 0L60 0L60 60L0 60L0 0Z" fill="rgb(20,25,35)" fill-opacity="1.000" fill-rule="nonzero" transform="matrix(1 0 0 1 0 0)"/><path d="M0 9.405L0 0L2.298 0L2.298 7.38L6.775 7.38L6.775 9.403L0 9.405Z" fill="rgb(255,255,255)" fill-opacity="1.000" fill-rule="nonzero" transform="matrix(1 0 0 1 33.4309 25.3985)"/><path d="M7.304 0L9.779 0L5.91 9.17L3.829 9.17L0 0L2.455 0L4.889 6.283L7.304 0Z" fill="rgb(255,255,255)" fill-opacity="1.000" fill-rule="nonzero" transform="matrix(1 0 0 1 39.2956 25.6336)"/><path d="M0 1.394C0 0.59 0.687 0 1.492 0C2.317 0 2.966 0.59 2.966 1.394C2.966 2.181 2.317 2.788 1.492 2.788C0.687 2.788 0 2.18 0 1.394ZM0.354 13.804L0.354 4.634L2.631 4.634L2.631 13.804L0.354 13.804Z" fill="rgb(255,255,255)" fill-opacity="1.000" fill-rule="nonzero" transform="matrix(1 0 0 1 50.1042 21)"/><path d="M10.611 0C9.263 0 8 0.413 7.273 1.846C6.546 0.413 5.329 0 3.936 0C1.639 0 0 1.591 0 4.261L0 9.575L2.258 9.575L2.258 4.379C2.258 2.906 3.024 2.141 4.084 2.141C5.36 2.141 6.144 2.974 6.144 4.71L6.144 9.575L8.402 9.575L8.402 4.705C8.402 2.989 9.186 2.141 10.462 2.141C11.522 2.141 12.287 2.907 12.287 4.379L12.287 9.575L14.546 9.575L14.546 4.262C14.546 1.591 12.908 0 10.611 0Z" fill="rgb(255,255,255)" fill-opacity="1.000" fill-rule="nonzero" transform="matrix(1 0 0 1 7 25.2286)"/><path d="M0 5.4L0 0L2.298 0L2.298 5.243C2.298 6.755 2.964 7.383 4.103 7.383C5.242 7.383 5.89 6.755 5.89 5.243L5.89 0L8.187 0L8.187 5.4C8.187 7.972 6.479 9.563 4.103 9.563C1.71 9.563 0 7.972 0 5.4Z" fill="rgb(255,255,255)" fill-opacity="1.000" fill-rule="nonzero" transform="matrix(1 0 0 1 23.2855 25.4375)"/></svg>