<svg xmlns="http://www.w3.org/2000/svg" viewBox="0 0 130 60" width="130" height="60"><path d="M0 0L130 0L130 60L0 60L0 0Z" fill="rgb(255,255,255)" fill-opacity="1.000" fill-rule="nonzero" transform="matrix(1 0 0 1 0 0)"/><path d="M78.831 0L79.991 0L79.991 11.092L86.468 4.952L87.962 4.952L83.491 9.171L88.586 15.622L87.215 15.622L82.722 9.86L79.991 12.402L79.991 15.622L78.831 15.622L78.831 0ZM66.1 4.953L67.204 4.953L67.204 7.151L67.226 7.151C67.323 6.767 67.579 6.374 67.996 5.975C68.412 5.575 68.943 5.245 69.59 4.986C70.237 4.727 70.931 4.598 71.675 4.598C72.152 4.594 72.629 4.654 73.091 4.775C73.544 4.901 73.973 5.1 74.361 5.364C74.792 5.645 75.127 6.074 75.365 6.652C75.61 7.229 75.733 7.913 75.733 8.705L75.733 15.623L74.596 15.623L74.596 8.905C74.596 6.567 73.548 5.397 71.451 5.397C70.73 5.397 70.043 5.567 69.389 5.908C68.743 6.248 68.218 6.707 67.817 7.284C67.433 7.823 67.226 8.467 67.226 9.127L67.226 15.623L66.1 15.623L66.1 4.953ZM56.991 16C56.1 16 55.319 15.878 54.65 15.633C53.988 15.389 53.479 15.049 53.123 14.612C52.773 14.195 52.583 13.668 52.588 13.124C52.588 12.155 53.015 11.374 53.869 10.782C54.724 10.183 56.07 9.764 57.905 9.527C59.763 9.297 61.079 9.046 61.852 8.772L61.852 8.217C61.852 7.663 61.7 7.17 61.395 6.741C61.089 6.312 60.648 5.979 60.069 5.742C59.496 5.497 58.816 5.375 58.028 5.375C57.233 5.375 56.468 5.531 55.731 5.841C55.003 6.152 54.39 6.575 53.892 7.107L53.134 6.641C53.684 6.026 54.39 5.534 55.252 5.164C56.121 4.787 57.058 4.594 58.006 4.598C59.106 4.598 60.028 4.757 60.771 5.075C61.514 5.385 62.068 5.833 62.432 6.418C62.803 6.996 62.99 7.68 62.99 8.472L62.99 15.623L61.885 15.623L61.885 13.502C61.677 13.946 61.336 14.361 60.86 14.745C60.384 15.123 59.808 15.426 59.132 15.656C58.463 15.885 57.749 16 56.991 16ZM53.747 13.08C53.747 13.472 53.881 13.831 54.148 14.157C54.416 14.476 54.803 14.731 55.308 14.923C55.813 15.108 56.408 15.201 57.092 15.201C57.946 15.201 58.738 15.041 59.466 14.724C60.195 14.398 60.775 13.95 61.206 13.38C61.63 12.83 61.857 12.154 61.852 11.46L61.852 9.539C61.027 9.791 59.719 10.031 57.928 10.26C55.141 10.623 53.747 11.562 53.747 13.08ZM38.34 0.622L44.717 0.622C45.802 0.622 46.731 0.781 47.504 1.099C48.277 1.409 48.865 1.85 49.266 2.42C49.667 2.991 49.867 3.653 49.867 4.408C49.867 5.244 49.597 5.955 49.053 6.54C48.518 7.117 47.804 7.532 46.913 7.783C47.596 7.916 48.217 8.164 48.774 8.527C49.331 8.883 49.77 9.323 50.09 9.849C50.406 10.36 50.571 10.948 50.569 11.548C50.578 12.295 50.356 13.028 49.934 13.646C49.51 14.26 48.912 14.745 48.139 15.1C47.374 15.448 46.489 15.623 45.486 15.623L38.34 15.623L38.34 0.622ZM45.207 14.8C46.01 14.8 46.727 14.66 47.359 14.378C47.998 14.097 48.496 13.712 48.853 13.223C49.213 12.747 49.405 12.165 49.399 11.569C49.403 10.964 49.207 10.375 48.842 9.892C48.47 9.389 47.954 8.993 47.293 8.705C46.638 8.416 45.899 8.272 45.074 8.272L39.488 8.272L39.488 14.801L45.208 14.801L45.207 14.8ZM44.449 7.472C45.267 7.472 45.995 7.357 46.634 7.128C47.281 6.898 47.786 6.558 48.15 6.106C48.514 5.647 48.696 5.092 48.696 4.441C48.696 3.849 48.544 3.33 48.239 2.887C47.934 2.435 47.474 2.084 46.857 1.832C46.24 1.573 45.474 1.444 44.56 1.444L39.488 1.444L39.488 7.473L44.449 7.472ZM20.825 15.621L16.934 0.465L19.61 0.465L22.252 13.178L22.352 13.178L25.374 0.465L27.96 0.465L31.015 13.178L31.127 13.178L33.769 0.465L36.434 0.465L32.554 15.621L29.688 15.621L26.733 3.208L26.622 3.208L23.69 15.621L20.825 15.621ZM2.486 15.621L0 15.621L0 0.465L3.099 0.465L7.837 11.735L7.904 11.735L12.664 0.465L15.797 0.465L15.797 15.621L13.311 15.621L13.311 4.052L8.863 14.667L6.934 14.667L2.486 4.108L2.486 15.621Z" fill="rgb(25,25,25)" fill-opacity="1.000" fill-rule="nonzero" transform="matrix(1 0 0 1 32.0649 22)"/><path d="M6.182 7.553C6.956 7.558 7.703 7.273 8.276 6.755L8.126 6.515L8.057 6.395L6.97 4.52L6.807 4.802C6.745 4.912 6.654 5.004 6.544 5.067C6.434 5.131 6.309 5.164 6.182 5.162C6.056 5.163 5.931 5.131 5.822 5.069C5.713 5.006 5.622 4.916 5.559 4.807L5.557 4.802L3.339 0.975L2.774 0L0 0L1.259 2.17L3.478 5.999C3.749 6.473 4.142 6.868 4.617 7.141C5.093 7.414 5.632 7.557 6.181 7.553L6.182 7.553ZM16.651 2.169L14.432 5.999C14.161 6.474 13.767 6.868 13.292 7.141C12.817 7.415 12.277 7.557 11.729 7.553C11.18 7.557 10.64 7.414 10.165 7.141C9.69 6.868 9.297 6.473 9.025 5.999L8.956 5.879L7.57 3.487L6.808 2.171L5.549 0.001L8.322 0.001L8.888 0.975L8.957 1.095L10.343 3.487L11.105 4.803L11.107 4.807C11.17 4.916 11.26 5.007 11.37 5.069C11.479 5.132 11.603 5.164 11.729 5.163C11.857 5.164 11.982 5.132 12.092 5.068C12.202 5.005 12.292 4.913 12.355 4.803L14.572 0.975L15.137 0.001L17.91 0.001L16.652 2.17L16.651 2.169Z" fill="rgb(213,182,103)" fill-opacity="1.000" fill-rule="nonzero" transform="matrix(1 0 0 1 10 30.0094)"/><path d="M11.727 0C10.933 0 10.196 0.288 9.633 0.799L9.783 1.039L9.853 1.159L10.939 3.034L11.103 2.751C11.165 2.641 11.256 2.549 11.366 2.486C11.476 2.423 11.601 2.39 11.728 2.391C11.854 2.39 11.978 2.422 12.088 2.485C12.197 2.547 12.288 2.638 12.35 2.747L12.352 2.751L14.57 6.579L15.135 7.554L17.909 7.554L16.65 5.383L14.431 1.555C14.16 1.08 13.767 0.686 13.291 0.412C12.816 0.139 12.276 -0.003 11.727 0ZM1.258 5.384L3.477 1.554C3.748 1.079 4.142 0.685 4.617 0.412C5.092 0.139 5.632 -0.003 6.18 0C6.729 -0.003 7.269 0.139 7.744 0.412C8.22 0.686 8.613 1.08 8.884 1.555L8.954 1.675L10.34 4.067L11.102 5.383L12.361 7.553L9.588 7.553L9.022 6.578L8.954 6.459L7.568 4.067L6.805 2.751L6.803 2.746C6.741 2.637 6.65 2.547 6.541 2.484C6.431 2.422 6.307 2.389 6.181 2.391C6.057 2.391 5.745 2.426 5.556 2.751L3.337 6.58L2.773 7.554L0 7.554L1.258 5.384Z" fill="rgb(213,182,103)" fill-opacity="1.000" fill-rule="nonzero" transform="matrix(1 0 0 1 10 22.4552)"/></svg>