<svg xmlns="http://www.w3.org/2000/svg" viewBox="0 0 60 60" width="60" height="60"><path d="M0 0L60 0L60 60L0 60L0 0Z" fill="rgb(255,255,255)" fill-opacity="1.000" fill-rule="nonzero" transform="matrix(1 0 0 1 0 0)"/><path d="M11.528 14.163C12.971 14.171 14.365 13.637 15.434 12.665L15.155 12.215L15.025 11.99L12.999 8.475L12.694 9.004C12.578 9.211 12.408 9.383 12.203 9.501C11.998 9.62 11.765 9.682 11.528 9.679C11.293 9.681 11.061 9.621 10.857 9.504C10.653 9.386 10.484 9.217 10.368 9.012L10.364 9.004L6.228 1.827L5.174 0L0 0L2.348 4.069L6.485 11.247C6.991 12.138 7.725 12.877 8.611 13.39C9.497 13.902 10.503 14.169 11.527 14.163L11.528 14.163ZM31.053 4.068L26.914 11.249C26.408 12.139 25.674 12.878 24.788 13.39C23.902 13.902 22.896 14.169 21.873 14.163C20.849 14.169 19.843 13.902 18.957 13.39C18.071 12.877 17.337 12.138 16.831 11.247L16.702 11.022L14.117 6.537L12.695 4.07L10.347 0.001L15.52 0.001L16.575 1.829L16.703 2.052L19.288 6.537L20.71 9.005L20.714 9.014C20.83 9.218 20.999 9.388 21.203 9.505C21.407 9.622 21.639 9.683 21.874 9.68C22.111 9.683 22.344 9.622 22.549 9.503C22.754 9.384 22.924 9.212 23.04 9.005L27.176 1.829L28.228 0.001L33.399 0.001L31.054 4.069L31.053 4.068Z" fill="rgb(213,182,103)" fill-opacity="1.000" fill-rule="nonzero" transform="matrix(1 0 0 1 13 30.0177)"/><path d="M21.87 0C20.388 0 19.014 0.54 17.964 1.497L18.245 1.947L18.374 2.172L20.4 5.688L20.705 5.159C20.821 4.952 20.991 4.78 21.196 4.661C21.401 4.543 21.634 4.481 21.871 4.484C22.106 4.481 22.338 4.542 22.542 4.659C22.746 4.776 22.915 4.946 23.031 5.151L23.036 5.159L27.171 12.336L28.226 14.163L33.398 14.163L31.05 10.094L26.913 2.916C26.407 2.025 25.673 1.286 24.787 0.773C23.901 0.261 22.893 -0.006 21.87 0ZM2.345 10.095L6.484 2.914C6.99 2.024 7.724 1.285 8.61 0.773C9.496 0.26 10.502 -0.006 11.525 0C12.548 -0.006 13.556 0.261 14.442 0.773C15.328 1.286 16.062 2.025 16.568 2.916L16.698 3.141L19.282 7.626L20.704 10.092L23.052 14.161L17.881 14.161L16.826 12.334L16.698 12.111L14.113 7.626L12.691 5.157L12.687 5.149C12.57 4.945 12.401 4.775 12.197 4.658C11.993 4.541 11.762 4.48 11.527 4.482C11.295 4.482 10.714 4.548 10.361 5.157L6.224 12.337L5.171 14.164L0 14.164L2.345 10.095Z" fill="rgb(213,182,103)" fill-opacity="1.000" fill-rule="nonzero" transform="matrix(1 0 0 1 13 15.8535)"/></svg>