<svg xmlns="http://www.w3.org/2000/svg" viewBox="0 0 130 60" width="130" height="60"><path d="M0 0L130 0L130 60L0 60L0 0Z" fill="rgb(255,255,255)" fill-opacity="1.000" fill-rule="nonzero" transform="matrix(1 0 0 1 0 0)"/><path d="M100 0L0 0L0 27L100 27L100 0Z" fill="rgb(0,0,0)" fill-opacity="1.000" fill-rule="nonzero" transform="matrix(1 0 0 1 11 16)"/><path d="M8.739 3.795L8.739 9.819L6.391 9.819L6.391 3.795C6.217 2.168 5.043 1.772 3.957 2.124C3.261 2.343 2.696 2.827 2.348 3.443L2.348 9.863L0 9.863L0 0.277L2.13 0.277L2.13 0.233L2.174 0.497L2.348 1.376C3.652 0.057 5.304 -0.471 7.043 0.497C8.783 1.464 8.739 3.795 8.739 3.795Z" fill="rgb(29,67,137)" fill-opacity="1.000" fill-rule="nonzero" transform="matrix(1 0 0 1 11 26.453)"/><path d="M9.478 8.883C9.478 12.005 7.348 14.072 4.522 14.072C3 14.028 1.478 13.72 0 13.192L0 0L2.565 0L2.565 4.969C3.261 4.221 4.217 3.782 5.217 3.738C7.783 3.738 9.478 5.849 9.478 8.883ZM7.043 8.927C7.043 7.212 6.13 5.936 4.522 5.936C3.783 5.98 3.043 6.332 2.565 6.904L2.565 11.653C3.13 11.873 3.739 12.005 4.348 12.005C5.957 11.961 7.043 10.686 7.043 8.927Z" fill="rgb(29,67,137)" fill-opacity="1.000" fill-rule="nonzero" transform="matrix(1 0 0 1 21.5652 22.5081)"/><path d="M7.305 7.607L7.74 9.542C6.957 9.982 6.088 10.246 5.175 10.246C2.392 10.29 0.044 8.047 0.001 5.233C-0.043 2.419 2.175 0.044 4.957 0C5.001 0 5.088 0 5.131 0C6.044 0 6.914 0.264 7.696 0.704L7.261 2.638C6.609 2.287 5.87 2.155 5.131 2.155C3.522 2.199 2.305 3.562 2.348 5.145C2.305 6.772 3.566 8.091 5.131 8.135C5.957 8.091 6.653 7.915 7.305 7.607Z" fill="rgb(29,67,137)" fill-opacity="1.000" fill-rule="nonzero" transform="matrix(1 0 0 1 32.0863 26.3779)"/><path d="M8.913 8.883C8.913 12.005 6.826 14.072 4.043 14.072C2.652 14.028 1.304 13.764 0 13.28L0 0L1.609 0L1.609 5.277C2.348 4.353 3.435 3.826 4.609 3.738C7.217 3.738 8.913 5.849 8.913 8.883ZM7.348 8.883C7.348 6.684 6.174 5.101 4.217 5.101C3.261 5.101 2.348 5.717 1.609 6.596L1.609 12.181C2.348 12.445 3.174 12.621 3.957 12.664C5.913 12.708 7.348 11.125 7.348 8.883Z" fill="rgb(29,67,137)" fill-opacity="1.000" fill-rule="nonzero" transform="matrix(1 0 0 1 41.4348 22.5081)"/><path d="M7.87 3.826L7.87 9.894L6.478 9.894L6.261 8.663C5.478 9.586 4.348 10.114 3.13 10.158C1.261 10.158 0 9.015 0 7.344C0 5.541 1.13 4.485 3.217 4.485C4.261 4.529 5.261 4.705 6.261 5.013L6.261 3.87C6.261 2.55 5.043 1.451 3.435 1.451C2.609 1.407 1.783 1.627 1.043 2.023L0.739 0.748C1.609 0.22 2.652 0 3.652 0C5.696 0.044 7.87 1.451 7.87 3.826ZM6.217 6.288C5.348 5.936 4.391 5.761 3.478 5.717C1.913 5.717 1.565 6.508 1.565 7.212C1.565 8.267 2.261 8.839 3.478 8.839C4.565 8.751 5.565 8.179 6.217 7.3L6.217 6.288Z" fill="rgb(29,67,137)" fill-opacity="1.000" fill-rule="nonzero" transform="matrix(1 0 0 1 51.5217 26.3339)"/><path d="M8.261 4.265L8.261 9.894L6.652 9.894L6.652 4.265C6.652 2.375 5.783 1.451 4.174 1.451C3.174 1.451 2.304 1.979 1.609 2.99L1.609 9.894L0 9.894L0 0.22L1.391 0.22L1.609 1.495C2.348 0.572 3.478 0.044 4.652 0C6.826 0 8.261 1.187 8.261 4.265Z" fill="rgb(29,67,137)" fill-opacity="1.000" fill-rule="nonzero" transform="matrix(1 0 0 1 61.2609 26.4218)"/><path d="M8.348 13.72L6.174 13.72L1.739 9.454L1.609 9.454L1.609 13.72L0 13.72L0 0L1.609 0L1.609 8.135L1.783 8.135L5.435 4.09L7.478 4.09L3 8.795L8.348 13.72Z" fill="rgb(29,67,137)" fill-opacity="1.000" fill-rule="nonzero" transform="matrix(1 0 0 1 71.3478 22.5081)"/><path d="M13.348 0C5.957 0 0 6.024 0 13.5C0 20.976 5.957 27 13.348 27C20.739 27 26.696 20.976 26.696 13.5C26.696 6.024 20.739 0 13.348 0Z" fill="rgb(29,67,137)" fill-opacity="1.000" fill-rule="nonzero" transform="matrix(1 0 0 1 84.3043 16)"/><path d="M13.348 0C5.957 0 0 6.024 0 13.5C0 20.976 5.957 27 13.348 27C20.739 27 26.696 20.976 26.696 13.5C26.696 6.024 20.739 0 13.348 0ZM20.348 16.578L21.304 18.645L24.261 18.645C21.435 24.757 14.261 27.396 8.217 24.537C5.652 23.306 3.609 21.239 2.391 18.645L5.348 18.645L6.304 16.578L1.609 16.578C1.435 15.875 1.304 15.215 1.261 14.511L7.261 14.511L7.304 14.379L8.174 12.401L1.261 12.401C1.304 11.697 1.435 10.993 1.609 10.334L9.13 10.334L9.304 9.894L10.043 8.223L2.348 8.223C4.348 4.002 8.565 1.275 13.217 1.275L13.261 1.275C17.913 1.275 22.13 3.958 24.13 8.223L16.435 8.223L17.174 9.894L17.391 10.334L24.957 10.334C25.13 11.037 25.261 11.697 25.304 12.401L18.435 12.401L19.304 14.379L19.348 14.511L25.348 14.511C25.304 15.215 25.174 15.919 25 16.578L20.348 16.578Z" fill="rgb(255,255,255)" fill-opacity="1.000" fill-rule="nonzero" transform="matrix(1 0 0 1 84.3043 16)"/><path d="M15.13 13.236L15.087 13.104L14.217 11.125L14.087 10.862L13.261 9.059L13.087 8.619L12.348 6.948L12.087 6.376L9.13 0L6.217 6.376L5.957 6.948L5.217 8.619L5.043 9.059L4.87 9.454L4.174 10.906L4.043 11.169L3.174 13.148L3.13 13.28L2.652 14.204L2.13 15.347L1.174 17.414L1.087 17.59L0 19.964L18.261 19.964L17.174 17.59L17.087 17.414L16.13 15.347L15.565 14.204L15.13 13.236Z" fill="rgb(204,214,25)" fill-opacity="1.000" fill-rule="nonzero" transform="matrix(1 0 0 1 88.5217 17.2313)"/></svg>