<svg xmlns="http://www.w3.org/2000/svg" viewBox="0 0 60 60" width="60" height="60"><path d="M0 0L60 0L60 60L0 60L0 0Z" fill="rgb(255,255,255)" fill-opacity="1.000" fill-rule="nonzero" transform="matrix(1 0 0 1 0 0)"/><path d="M18.652 0C8.324 0 0 8.419 0 18.865C0 29.311 8.324 37.73 18.652 37.73C28.981 37.73 37.304 29.311 37.304 18.865C37.304 8.419 28.981 0 18.652 0Z" fill="rgb(29,67,137)" fill-opacity="1.000" fill-rule="nonzero" transform="matrix(1 0 0 1 11 11.0003)"/><path d="M18.652 0C8.324 0 0 8.419 0 18.865C0 29.311 8.324 37.73 18.652 37.73C28.981 37.73 37.304 29.311 37.304 18.865C37.304 8.419 28.981 0 18.652 0ZM28.434 23.166L29.771 26.054L33.902 26.054C29.953 34.596 19.928 38.283 11.483 34.289C7.898 32.568 5.043 29.68 3.342 26.054L7.473 26.054L8.81 23.166L2.248 23.166C2.005 22.183 1.823 21.261 1.762 20.278L10.146 20.278L10.207 20.094L11.422 17.329L1.762 17.329C1.823 16.345 2.005 15.362 2.248 14.441L12.759 14.441L13.002 13.826L14.035 11.491L3.281 11.491C6.076 5.592 11.969 1.782 18.47 1.782L18.531 1.782C25.032 1.782 30.925 5.53 33.72 11.491L22.966 11.491L23.999 13.826L24.303 14.441L34.874 14.441C35.117 15.424 35.299 16.345 35.36 17.329L25.761 17.329L26.976 20.094L27.037 20.278L35.421 20.278C35.36 21.261 35.178 22.245 34.935 23.166L28.434 23.166Z" fill="rgb(255,255,255)" fill-opacity="1.000" fill-rule="nonzero" transform="matrix(1 0 0 1 11 11.0003)"/><path d="M21.143 18.496L21.082 18.312L19.867 15.547L19.685 15.178L18.531 12.658L18.288 12.044L17.255 9.709L16.89 8.91L12.759 0L8.688 8.91L8.324 9.709L7.291 12.044L7.048 12.658L6.805 13.212L5.833 15.239L5.65 15.608L4.435 18.373L4.374 18.558L3.706 19.848L2.977 21.446L1.64 24.334L1.519 24.58L0 27.898L25.518 27.898L23.999 24.58L23.877 24.334L22.541 21.446L21.751 19.848L21.143 18.496Z" fill="rgb(204,214,25)" fill-opacity="1.000" fill-rule="nonzero" transform="matrix(1 0 0 1 16.8932 12.7211)"/></svg>