<svg xmlns="http://www.w3.org/2000/svg" viewBox="0 0 60 60" width="60" height="60"><defs><linearGradient id="g2" gradientUnits="userSpaceOnUse" x1="-0.12" y1="69.23" x2="15.05" y2="69.23"><stop offset="0.0%" stop-color="rgb(0,165,240)" stop-opacity="1.000"/><stop offset="100.0%" stop-color="rgb(0,215,215)" stop-opacity="1.000"/></linearGradient></defs><path d="M0 0L60 0L60 60L0 60L0 0Z" fill="rgb(255,255,255)" fill-opacity="1.000" fill-rule="nonzero" transform="matrix(1 0 0 1 0 0)"/><path d="M23.5 0C17.305 -0.027 11.352 2.46 6.947 6.916C2.542 11.371 0.044 17.431 0 23.767C-0.004 26.892 0.602 29.986 1.782 32.868C2.962 35.751 4.693 38.363 6.874 40.552C7.797 41.48 9.041 42 10.336 42C11.63 42 12.874 41.48 13.797 40.552C14.252 40.094 14.613 39.549 14.859 38.947C15.106 38.346 15.232 37.7 15.232 37.048C15.232 36.395 15.106 35.75 14.859 35.148C14.613 34.547 14.252 34.001 13.797 33.544C12.526 32.265 11.517 30.741 10.828 29.059C10.138 27.377 9.784 25.572 9.784 23.749C9.784 21.925 10.138 20.12 10.828 18.438C11.517 16.757 12.526 15.232 13.797 13.954C16.381 11.354 19.86 9.897 23.484 9.897C27.108 9.897 30.587 11.354 33.171 13.954C34.442 15.232 35.451 16.757 36.141 18.438C36.83 20.12 37.185 21.925 37.185 23.749C37.185 25.572 36.83 27.377 36.141 29.059C35.451 30.741 34.442 32.265 33.171 33.544C32.716 34.001 32.355 34.547 32.109 35.148C31.863 35.75 31.736 36.395 31.736 37.048C31.736 37.7 31.863 38.346 32.109 38.947C32.355 39.549 32.716 40.094 33.171 40.552C34.095 41.48 35.338 42 36.633 42C37.928 42 39.171 41.48 40.094 40.552C42.281 38.365 44.018 35.755 45.203 32.872C46.389 29.99 47 26.894 47 23.767C46.956 17.431 44.458 11.371 40.053 6.916C35.648 2.46 29.695 -0.027 23.5 0Z" fill="url(#g2)" fill-rule="nonzero" transform="matrix(1 0 0 1 6 9)"/></svg>