<svg xmlns="http://www.w3.org/2000/svg" viewBox="0 0 130 60" width="130" height="60"><defs><linearGradient id="g61" gradientUnits="userSpaceOnUse" x1="64.62" y1="64.68" x2="93.68" y2="64.68"><stop offset="0.0%" stop-color="rgb(0,165,240)" stop-opacity="1.000"/><stop offset="100.0%" stop-color="rgb(0,215,215)" stop-opacity="1.000"/></linearGradient><linearGradient id="g62" gradientUnits="userSpaceOnUse" x1="97.13" y1="69.23" x2="130.00" y2="69.23"><stop offset="0.0%" stop-color="rgb(0,165,240)" stop-opacity="1.000"/><stop offset="100.0%" stop-color="rgb(0,215,215)" stop-opacity="1.000"/></linearGradient><linearGradient id="g63" gradientUnits="userSpaceOnUse" x1="-0.26" y1="69.23" x2="32.61" y2="69.23"><stop offset="0.0%" stop-color="rgb(0,165,240)" stop-opacity="1.000"/><stop offset="100.0%" stop-color="rgb(0,215,215)" stop-opacity="1.000"/></linearGradient><linearGradient id="g64" gradientUnits="userSpaceOnUse" x1="36.19" y1="60.59" x2="61.82" y2="60.59"><stop offset="0.0%" stop-color="rgb(0,165,240)" stop-opacity="1.000"/><stop offset="100.0%" stop-color="rgb(0,215,215)" stop-opacity="1.000"/></linearGradient><linearGradient id="g65" gradientUnits="userSpaceOnUse" x1="47.30" y1="64.68" x2="54.15" y2="64.68"><stop offset="0.0%" stop-color="rgb(0,165,240)" stop-opacity="1.000"/><stop offset="100.0%" stop-color="rgb(0,215,215)" stop-opacity="1.000"/></linearGradient></defs><path d="M0 0L130 0L130 60L0 60L0 0Z" fill="rgb(255,255,255)" fill-opacity="1.000" fill-rule="nonzero" transform="matrix(1 0 0 1 0 0)"/><path d="M12.935 0C9.525 -0.016 6.248 1.336 3.823 3.76C1.398 6.183 0.023 9.48 0 12.927C0.001 16.394 1.364 19.718 3.79 22.17C6.216 24.621 9.505 25.998 12.935 25.998C16.364 25.998 19.654 24.621 22.079 22.17C24.505 19.718 25.868 16.394 25.869 12.927C25.846 9.48 24.471 6.183 22.046 3.76C19.621 1.336 16.344 -0.016 12.935 0ZM12.935 19.754C11.602 19.738 10.304 19.325 9.203 18.565C8.102 17.806 7.249 16.734 6.749 15.485C6.25 14.236 6.127 12.866 6.396 11.546C6.666 10.227 7.315 9.018 8.263 8.071C9.21 7.123 10.414 6.481 11.722 6.224C13.03 5.967 14.384 6.106 15.614 6.625C16.844 7.145 17.894 8.02 18.633 9.141C19.372 10.262 19.766 11.579 19.766 12.927C19.761 13.828 19.58 14.72 19.234 15.551C18.888 16.382 18.383 17.136 17.749 17.77C17.115 18.404 16.363 18.906 15.537 19.246C14.711 19.586 13.827 19.759 12.935 19.754Z" fill="url(#g61)" fill-rule="nonzero" transform="matrix(1 0 0 1 64.7841 17.002)"/><path d="M14.633 0C10.776 -0.016 7.069 1.515 4.326 4.257C1.583 6.999 0.027 10.728 0 14.628C-0.003 16.552 0.375 18.457 1.11 20.231C1.845 22.005 2.923 23.613 4.281 24.96C4.857 25.532 5.631 25.852 6.437 25.852C7.244 25.852 8.018 25.532 8.593 24.96C8.876 24.679 9.101 24.343 9.254 23.973C9.408 23.603 9.487 23.205 9.487 22.804C9.487 22.402 9.408 22.005 9.254 21.635C9.101 21.265 8.876 20.929 8.593 20.647C7.801 19.86 7.173 18.922 6.744 17.887C6.315 16.852 6.094 15.741 6.094 14.619C6.094 13.497 6.315 12.386 6.744 11.351C7.173 10.316 7.801 9.378 8.593 8.591C10.202 6.991 12.368 6.094 14.625 6.094C16.881 6.094 19.048 6.991 20.657 8.591C21.448 9.378 22.077 10.316 22.506 11.351C22.935 12.386 23.156 13.497 23.156 14.619C23.156 15.741 22.935 16.852 22.506 17.887C22.077 18.922 21.448 19.86 20.657 20.647C20.374 20.929 20.149 21.264 19.995 21.635C19.842 22.005 19.763 22.402 19.763 22.803C19.763 23.205 19.842 23.602 19.995 23.972C20.149 24.342 20.374 24.678 20.657 24.96C21.232 25.531 22.006 25.851 22.812 25.851C23.619 25.851 24.393 25.531 24.968 24.96C26.33 23.614 27.411 22.007 28.15 20.233C28.888 18.458 29.269 16.553 29.268 14.628C29.241 10.728 27.685 6.998 24.942 4.256C22.199 1.514 18.491 -0.017 14.633 0Z" fill="url(#g62)" fill-rule="nonzero" transform="matrix(1 0 0 1 93.7316 17.002)"/><path d="M14.634 0C10.776 -0.016 7.069 1.514 4.326 4.256C1.583 6.998 0.027 10.728 0 14.628C-0.003 16.551 0.375 18.456 1.11 20.23C1.845 22.004 2.923 23.612 4.281 24.959C4.856 25.53 5.63 25.85 6.436 25.85C7.243 25.85 8.017 25.53 8.592 24.959C8.875 24.677 9.1 24.341 9.253 23.971C9.407 23.601 9.486 23.204 9.486 22.802C9.486 22.401 9.407 22.003 9.253 21.633C9.1 21.263 8.875 20.927 8.592 20.646C7.8 19.859 7.172 18.92 6.743 17.885C6.314 16.85 6.093 15.739 6.093 14.617C6.093 13.495 6.314 12.384 6.743 11.348C7.172 10.313 7.8 9.375 8.592 8.588C10.201 6.988 12.367 6.091 14.624 6.091C16.881 6.091 19.048 6.988 20.657 8.588C21.448 9.375 22.077 10.313 22.506 11.348C22.935 12.384 23.156 13.495 23.156 14.617C23.156 15.739 22.935 16.85 22.506 17.885C22.077 18.92 21.448 19.859 20.657 20.646C20.374 20.927 20.149 21.263 19.995 21.633C19.842 22.003 19.763 22.401 19.763 22.802C19.763 23.204 19.842 23.601 19.995 23.971C20.149 24.341 20.374 24.677 20.657 24.959C21.232 25.53 22.006 25.85 22.812 25.85C23.619 25.85 24.393 25.53 24.968 24.959C26.329 23.613 27.411 22.006 28.15 20.232C28.888 18.458 29.268 16.553 29.268 14.628C29.241 10.728 27.686 6.998 24.942 4.256C22.199 1.514 18.492 -0.016 14.634 0Z" fill="url(#g63)" fill-rule="nonzero" transform="matrix(1 0 0 1 7 17.0021)"/><path d="M21.972 7.905C22.248 7.617 22.466 7.277 22.611 6.903C22.757 6.53 22.827 6.131 22.819 5.73C22.81 5.328 22.722 4.933 22.561 4.566C22.399 4.199 22.167 3.869 21.878 3.594C20.05 1.842 17.756 0.666 15.277 0.211C12.799 -0.244 10.242 0.041 7.921 1.031C5.6 2.021 3.615 3.674 2.208 5.786C0.801 7.899 0.034 10.38 0 12.927C0.034 15.473 0.801 17.955 2.208 20.068C3.615 22.18 5.6 23.833 7.921 24.823C10.242 25.813 12.799 26.098 15.277 25.643C17.756 25.188 20.05 24.012 21.878 22.26C22.167 21.985 22.399 21.654 22.561 21.288C22.722 20.921 22.81 20.526 22.819 20.124C22.827 19.723 22.757 19.324 22.611 18.95C22.466 18.577 22.248 18.236 21.972 17.949C21.408 17.365 20.641 17.028 19.834 17.011C19.028 16.994 18.247 17.297 17.66 17.856C16.358 19.099 14.628 19.78 12.837 19.754C11.047 19.729 9.336 19 8.069 17.721C7.445 17.092 6.95 16.345 6.612 15.522C6.275 14.7 6.101 13.818 6.101 12.927C6.101 12.036 6.275 11.154 6.612 10.332C6.95 9.509 7.445 8.762 8.069 8.133C9.336 6.854 11.047 6.125 12.837 6.1C14.628 6.074 16.358 6.755 17.66 7.997C18.247 8.557 19.028 8.86 19.835 8.843C20.641 8.825 21.409 8.488 21.972 7.904L21.972 7.905Z" fill="url(#g64)" fill-rule="nonzero" transform="matrix(1 0 0 1 39.4753 17)"/><path d="M3.049 6.095C4.733 6.095 6.098 4.731 6.098 3.047C6.098 1.364 4.733 0 3.049 0C1.365 0 0 1.364 0 3.047C0 4.731 1.365 6.095 3.049 6.095Z" fill="url(#g65)" fill-rule="nonzero" transform="matrix(1 -0.0056 0.0055 1 49.3427 26.8978)"/></svg>