<svg xmlns="http://www.w3.org/2000/svg" viewBox="0 0 60 60" width="60" height="60"><path d="M0 0L60 0L60 60L0 60L0 0Z" fill="rgb(255,255,255)" fill-opacity="1.000" fill-rule="nonzero" transform="matrix(1 0 0 1 0 0)"/><path d="M10.152 0L8.734 3.97C7.985 6.091 7.143 8.594 5.933 12.295L8.657 0.801L6.465 0.004L0 17.806L1.574 18.406L2.995 14.438C3.737 12.395 4.536 9.996 5.784 6.154L3.068 17.604L5.259 18.402L11.726 0.599L10.152 0Z" fill="rgb(0,0,0)" fill-opacity="1.000" fill-rule="nonzero" transform="matrix(1 0 0 1 4.9995 15.9498)"/><path d="M5.991 8.074L3.012 16.313C2.211 16.62 1.975 16.696 1.833 16.709C1.845 16.564 1.879 16.422 1.933 16.287L6.793 2.861C7.241 1.657 7.459 1.657 7.635 1.657C7.796 1.657 7.981 1.708 7.981 2.109C7.981 2.539 7.757 3.208 7.516 3.867L7.35 4.309L8.987 4.904L9.119 4.509C9.476 3.431 9.639 2.813 9.639 2.003C9.639 1.401 9.46 0.896 9.121 0.542C8.781 0.188 8.295 0 7.715 0C7.071 0 6.569 0.21 6.136 0.663C5.713 1.104 5.336 1.801 4.951 2.855L0.271 15.723C-0.077 16.698 -0.09 17.454 0.233 17.912C0.443 18.21 0.785 18.369 1.219 18.369C1.977 18.369 2.4 17.896 3.297 16.862L4.489 17.287L7.618 8.666L5.991 8.074Z" fill="rgb(0,0,0)" fill-opacity="1.000" fill-rule="nonzero" transform="matrix(1 0 0 1 13.0865 15.9688)"/><path d="M0 3.657L1.79 4.301L3.131 0.644L1.342 0L0 3.657Z" fill="rgb(0,0,0)" fill-opacity="1.000" fill-rule="nonzero" transform="matrix(1 0 0 1 19.6066 30.0502)"/><path d="M2.842 15.507C2.394 16.711 2.176 16.711 2 16.711C1.839 16.711 1.654 16.659 1.654 16.259C1.654 15.883 1.818 15.35 2.12 14.499L6.34 2.861C6.788 1.657 7.006 1.657 7.182 1.657C7.342 1.657 7.528 1.708 7.528 2.109C7.528 2.539 7.304 3.208 7.062 3.867L6.896 4.309L8.534 4.904L8.666 4.509C9.023 3.431 9.186 2.813 9.186 2.003C9.186 1.401 9.007 0.896 8.668 0.542C8.329 0.188 7.842 0 7.261 0C6.617 0 6.116 0.21 5.683 0.663C5.26 1.104 4.883 1.801 4.498 2.856L0.894 12.786C0.079 15.039 0 15.582 0 16.365C0 16.967 0.179 17.473 0.518 17.826C0.858 18.179 1.344 18.369 1.924 18.369C2.568 18.369 3.07 18.158 3.503 17.706C3.926 17.264 4.303 16.567 4.689 15.512L5.252 13.947L3.622 13.391L2.842 15.507Z" fill="rgb(0,0,0)" fill-opacity="1.000" fill-rule="nonzero" transform="matrix(1 0 0 1 24.379 15.9688)"/><path d="M6.558 4.83C7.007 3.626 7.225 3.626 7.4 3.626C7.562 3.626 7.746 3.677 7.746 4.078C7.746 4.508 7.523 5.177 7.281 5.836L7.115 6.278L8.753 6.873L8.885 6.478C9.242 5.4 9.405 4.782 9.405 3.972C9.405 3.37 9.226 2.865 8.887 2.511C8.855 2.478 8.822 2.446 8.787 2.417L9.45 0.592L7.821 0L7.099 1.996C6.677 2.053 6.282 2.237 5.967 2.524C5.557 2.892 5.218 3.452 4.93 4.237C4.304 5.964 4.106 8.629 3.917 11.208C3.734 13.691 3.56 16.036 3.037 17.477C2.589 18.681 2.371 18.681 2.195 18.681C2.034 18.681 1.849 18.629 1.849 18.228C1.849 17.799 2.073 17.129 2.314 16.471L2.48 16.029L0.842 15.433L0.711 15.829C0.353 16.907 0.191 17.525 0.191 18.335C0.191 18.904 0.351 19.386 0.655 19.736L0 21.519L1.629 22.115L2.276 20.333C2.777 20.314 3.254 20.119 3.625 19.783C4.035 19.416 4.375 18.855 4.663 18.071C5.289 16.344 5.486 13.679 5.675 11.103L5.577 11.095L5.676 11.1C5.862 8.614 6.036 6.27 6.558 4.83Z" fill="rgb(0,0,0)" fill-opacity="1.000" fill-rule="nonzero" transform="matrix(1 0 0 1 37.4861 14)"/><path d="M9.406 0L6.363 8.398L5.274 8.398L8.097 0.592L6.468 0L0 17.806L1.629 18.398L4.672 10.055L5.76 10.055L2.938 17.806L4.567 18.398L11.035 0.593L9.406 0Z" fill="rgb(0,0,0)" fill-opacity="1.000" fill-rule="nonzero" transform="matrix(1 0 0 1 43.4526 15.9537)"/><path d="M7.834 0L0 17.796L1.633 18.392L5.159 10.054L5.77 10.054L3.473 17.812L5.133 18.402L10.153 0.853L7.834 0ZM6.411 8.393L5.716 8.393L8.296 2.096L8.407 2.139L6.448 8.392L6.411 8.393Z" fill="rgb(0,0,0)" fill-opacity="1.000" fill-rule="nonzero" transform="matrix(1 0 0 1 29.9794 15.9581)"/><path d="M5.108 4.501L10.346 4.226L42.286 1.237L42.214 0L0.076 0L0.076 1.235L19.14 1.235L37.611 0.897L23.648 1.738L0 3.951L0.033 5.189L33.596 6.857L33.673 5.624L10.348 4.465L5.108 4.501Z" fill="rgb(0,0,0)" fill-opacity="1.000" fill-rule="nonzero" transform="matrix(1 0 0 1 8.4281 39.1429)"/></svg>