<svg xmlns="http://www.w3.org/2000/svg" viewBox="0 0 130 60" width="130" height="60"><path d="M0 0L130 0L130 60L0 60L0 0Z" fill="rgb(255,255,255)" fill-opacity="1.000" fill-rule="nonzero" transform="matrix(1 0 0 1 0 0)"/><path d="M103.318 0L3.229 0C1.446 0 0 1.446 0 3.229L0 34.771C0 36.554 1.446 38 3.229 38L103.318 38C105.102 38 106.548 36.554 106.548 34.771L106.548 3.229C106.548 1.446 105.102 0 103.318 0Z" fill="rgb(255,206,0)" fill-opacity="1.000" fill-rule="nonzero" transform="matrix(1 0 0 1 12 11)"/><path d="M23.131 10.281L23.131 10.24C23.131 6.274 26.157 2.995 30.377 2.995C34.637 2.995 37.583 6.274 37.583 10.2L37.583 10.24C37.583 14.207 34.557 17.485 30.337 17.485C26.117 17.485 23.131 14.207 23.131 10.281ZM35.075 10.281L35.075 10.24C35.075 7.528 33.124 5.262 30.377 5.262C27.63 5.262 25.719 7.488 25.719 10.2L25.719 10.24C25.719 12.952 27.67 15.218 30.417 15.218C33.164 15.218 35.075 12.992 35.075 10.281ZM41.166 4.371L41.166 16.149C41.166 16.837 41.684 17.364 42.361 17.364C43.037 17.364 43.555 16.837 43.555 16.149L43.555 7.731L46.899 12.83C47.178 13.235 47.456 13.478 47.895 13.478C48.332 13.478 48.651 13.235 48.929 12.83L52.314 7.69L52.314 16.109C52.314 16.756 52.871 17.323 53.508 17.323C54.185 17.323 54.742 16.797 54.742 16.109L54.742 4.371C54.742 3.683 54.225 3.117 53.508 3.117L53.269 3.117C52.791 3.117 52.433 3.319 52.154 3.764L47.934 10.442L43.794 3.805C43.555 3.44 43.197 3.157 42.679 3.157L42.44 3.157C41.723 3.117 41.166 3.683 41.166 4.371ZM58.246 15.664L63.381 4.047C63.66 3.44 64.138 3.036 64.855 3.036L64.974 3.036C65.651 3.036 66.128 3.4 66.407 4.047L71.543 15.664C71.623 15.826 71.662 16.028 71.662 16.19C71.662 16.837 71.185 17.364 70.508 17.364C69.951 17.364 69.552 17.04 69.314 16.514L68.199 13.883L61.471 13.883L60.316 16.595C60.117 17.08 59.719 17.364 59.201 17.364C58.564 17.364 58.086 16.878 58.086 16.23C58.086 16.028 58.166 15.826 58.246 15.664ZM67.323 11.657L64.894 5.99L62.466 11.657L67.323 11.657ZM75.007 4.452C75.007 3.764 75.524 3.197 76.241 3.197L80.182 3.197C84.522 3.197 87.548 6.233 87.548 10.159L87.548 10.2C87.548 14.166 84.522 17.202 80.182 17.202L76.241 17.202C75.564 17.202 75.007 16.676 75.007 15.947L75.007 4.452ZM80.182 15.016C83.089 15.016 85 13.033 85 10.281L85 10.24C85 7.488 83.089 5.464 80.182 5.464L77.435 5.464L77.435 15.016L80.182 15.016ZM0 16.878C0 17.526 0.518 18.092 1.194 18.092C1.831 18.092 2.389 17.566 2.389 16.878L2.389 5.059L17 17.404C17.438 17.768 17.717 18.052 18.314 18.052L18.393 18.052C19.07 18.052 19.588 17.526 19.588 16.837L19.588 2.752C19.588 2.105 19.07 1.538 18.393 1.538C17.756 1.538 17.199 2.064 17.199 2.752L17.199 14.409L2.787 2.226C2.389 1.862 2.07 1.538 1.473 1.538L1.234 1.538C0.518 1.538 0 2.105 0 2.793L0 16.878ZM6.927 10.24C6.251 10.24 5.733 10.766 5.733 11.454L5.733 18.699C5.733 19.347 6.251 19.914 6.927 19.914C7.564 19.914 8.122 19.387 8.122 18.699L8.122 11.414C8.122 10.766 7.604 10.24 6.927 10.24ZM12.7 15.057C12.023 15.057 11.506 15.583 11.506 16.271L11.506 18.699C11.506 19.347 12.023 19.914 12.7 19.914C13.337 19.914 13.895 19.387 13.895 18.699L13.895 16.271C13.855 15.583 13.337 15.057 12.7 15.057ZM12.7 0C12.023 0 11.506 0.526 11.506 1.214L11.506 8.054C11.506 8.702 12.023 9.269 12.7 9.269C13.337 9.269 13.895 8.743 13.895 8.054L13.895 1.214C13.855 0.526 13.337 0 12.7 0ZM6.927 0C6.251 0 5.733 0.526 5.733 1.214L5.733 3.238C5.733 3.886 6.251 4.452 6.927 4.452C7.564 4.452 8.122 3.926 8.122 3.238L8.122 1.214C8.122 0.526 7.604 0 6.927 0Z" fill="rgb(26,26,19)" fill-opacity="1.000" fill-rule="nonzero" transform="matrix(1 0 0 1 21.5 20.0432)"/></svg>