<svg xmlns="http://www.w3.org/2000/svg" viewBox="0 0 60 60" width="60" height="60"><path d="M0 0L60 0L60 60L0 60L0 0Z" fill="rgb(255,206,0)" fill-opacity="1.000" fill-rule="nonzero" transform="matrix(1 0 0 1 0 0)"/><path d="M2.195 32.707C0.951 32.707 0 31.683 0 30.512L0 5.049C0 3.805 0.951 2.78 2.268 2.78L2.707 2.78C3.805 2.78 4.39 3.366 5.122 4.024L31.61 26.049L31.61 4.976C31.61 3.732 32.634 2.78 33.805 2.78C35.049 2.78 36 3.805 36 4.976L36 30.439C36 31.683 35.049 32.634 33.805 32.634L33.659 32.634C32.561 32.634 32.049 32.122 31.244 31.463L4.39 9.146L4.39 30.512C4.39 31.756 3.366 32.707 2.195 32.707ZM10.537 20.707C10.537 19.463 11.488 18.512 12.732 18.512C13.976 18.512 14.927 19.463 14.927 20.634L14.927 33.805C14.927 35.049 13.902 36 12.732 36C11.488 36 10.537 34.975 10.537 33.805L10.537 20.707ZM21.146 29.415C21.146 28.171 22.097 27.22 23.341 27.22C24.512 27.22 25.464 28.171 25.537 29.415L25.537 33.805C25.537 35.049 24.512 36 23.341 36C22.097 36 21.146 34.975 21.146 33.805L21.146 29.415ZM21.146 2.195C21.146 0.951 22.097 0 23.341 0C24.512 0 25.464 0.951 25.537 2.195L25.537 14.561C25.537 15.805 24.512 16.756 23.341 16.756C22.097 16.756 21.146 15.732 21.146 14.561L21.146 2.195ZM10.537 2.195C10.537 0.951 11.488 0 12.732 0C13.976 0 14.927 0.951 14.927 2.195L14.927 5.854C14.927 7.098 13.902 8.049 12.732 8.049C11.488 8.049 10.537 7.024 10.537 5.854L10.537 2.195Z" fill="rgb(26,26,19)" fill-opacity="1.000" fill-rule="nonzero" transform="matrix(1 0 0 1 12 12)"/></svg>