<svg xmlns="http://www.w3.org/2000/svg" viewBox="0 0 60 60" width="60" height="60"><path d="M0 0L60 0L60 60L0 60L0 0Z" fill="rgb(255,255,255)" fill-opacity="1.000" fill-rule="nonzero" transform="matrix(1 0 0 1 0 0)"/><path d="M0 4C0 1.791 1.791 0 4 0L34 0C36.209 0 38 1.791 38 4L38 34C38 36.209 36.209 38 34 38L4 38C1.791 38 0 36.209 0 34L0 4Z" fill="rgb(255,206,0)" fill-opacity="1.000" fill-rule="nonzero" transform="matrix(1 0 0 1 13 11)"/><path d="M0 18.801C0 19.523 0.577 20.154 1.33 20.154C2.04 20.154 2.661 19.568 2.661 18.801L2.661 5.636L18.937 19.387C19.425 19.793 19.736 20.109 20.401 20.109L20.489 20.109C21.243 20.109 21.82 19.523 21.82 18.756L21.82 3.066C21.82 2.345 21.243 1.713 20.489 1.713C19.78 1.713 19.159 2.299 19.159 3.066L19.159 16.051L3.104 2.48C2.661 2.074 2.306 1.713 1.641 1.713L1.375 1.713C0.577 1.713 0 2.345 0 3.111L0 18.801ZM7.717 11.407C6.963 11.407 6.386 11.993 6.386 12.76L6.386 20.83C6.386 21.552 6.963 22.183 7.717 22.183C8.426 22.183 9.047 21.597 9.047 20.83L9.047 12.715C9.047 11.993 8.471 11.407 7.717 11.407ZM14.147 16.772C13.393 16.772 12.817 17.359 12.817 18.125L12.817 20.83C12.817 21.552 13.393 22.183 14.147 22.183C14.857 22.183 15.478 21.597 15.478 20.83L15.478 18.125C15.434 17.359 14.857 16.772 14.147 16.772ZM14.147 0C13.393 0 12.817 0.586 12.817 1.353L12.817 8.972C12.817 9.694 13.393 10.325 14.147 10.325C14.857 10.325 15.478 9.739 15.478 8.972L15.478 1.353C15.434 0.586 14.857 0 14.147 0ZM7.717 0C6.963 0 6.386 0.586 6.386 1.353L6.386 3.607C6.386 4.328 6.963 4.96 7.717 4.96C8.426 4.96 9.047 4.373 9.047 3.607L9.047 1.353C9.047 0.586 8.471 0 7.717 0Z" fill="rgb(26,26,19)" fill-opacity="1.000" fill-rule="nonzero" transform="matrix(1 0 0 1 20.8364 18.8171)"/></svg>