<svg xmlns="http://www.w3.org/2000/svg" viewBox="0 0 60 60" width="60" height="60"><path d="M0 0L60 0L60 60L0 60L0 0Z" fill="rgb(130,10,209)" fill-opacity="1.000" fill-rule="nonzero" transform="matrix(1 0 0 1 0 0)"/><path d="M18.379 9.758C21.599 3.598 25.87 0 30.887 0C40.662 0 47.143 12.996 48.383 32.466C48.785 38.788 48.781 47.702 48.777 58.027C48.777 59.086 48.777 60.159 48.777 61.247L48.777 99.925L35.335 99.925L35.335 71.317C35.335 71.317 35.308 46.833 35.225 42.257C34.865 22.328 28.386 9.805 18.379 9.792C15.359 15.601 13.742 22.703 13.503 33.562C13.47 35.077 13.479 40.446 13.489 47.521C13.495 51.187 13.501 55.312 13.503 59.596C13.513 78.242 13.503 99.929 13.503 99.929L0.061 99.929L0.061 55.902C0.061 54.394 0.046 52.872 0.031 51.345C0 48.273 -0.031 45.176 0.061 42.111C0.213 37 0.698 31.976 2.008 27.309C5.005 16.616 11.148 9.732 17.696 9.732C17.925 9.732 18.153 9.741 18.38 9.757L18.379 9.758Z" fill="rgb(255,255,255)" fill-opacity="1.000" fill-rule="nonzero" transform="matrix(1 0 0 1 8.5887 317.7607)"/><path d="M48.714 57.837C48.806 54.771 48.775 51.675 48.745 48.603C48.729 47.075 48.714 45.554 48.714 44.045L48.714 0.019L35.272 0.019C35.272 0.019 35.262 21.705 35.272 40.351C35.275 44.635 35.28 48.76 35.286 52.426C35.297 59.502 35.305 64.871 35.272 66.385C35.034 77.245 33.416 84.347 30.397 90.156C20.39 90.143 13.911 77.619 13.55 57.69C13.468 53.114 13.433 41.759 13.433 28.607L13.433 0L0.001 0.022L0.001 38.7C0.001 39.788 0.001 40.861 0.001 41.92C-0.003 52.245 -0.007 61.159 0.395 67.481C1.632 86.951 8.113 99.947 17.888 99.947C22.906 99.947 27.177 96.349 30.397 90.189C30.623 90.205 30.852 90.214 31.08 90.214C37.628 90.214 43.771 83.33 46.768 72.638C48.078 67.97 48.563 62.946 48.715 57.836L48.714 57.837Z" fill="rgb(255,255,255)" fill-opacity="1.000" fill-rule="nonzero" transform="matrix(1 0 0 1 61.6318 320.1104)"/><path d="M8.666 2.539C10.185 0.936 12.198 0 14.564 0C19.173 0 22.229 3.381 22.814 8.447C23.003 10.092 23.002 12.411 23 15.098C22.999 15.373 22.999 15.653 22.999 15.935L22.999 25.999L16.661 25.999L16.661 18.556C16.661 18.556 16.648 12.185 16.609 10.995C16.439 5.809 13.384 2.551 8.666 2.548C7.242 4.059 6.479 5.907 6.367 8.732C6.351 9.126 6.355 10.523 6.361 12.364C6.363 13.318 6.366 14.391 6.367 15.506C6.372 20.358 6.367 26 6.367 26L0.029 26L0.029 14.545C0.029 14.152 0.022 13.757 0.014 13.359C0 12.56 -0.014 11.754 0.029 10.957C0.1 9.627 0.329 8.32 0.947 7.105C2.36 4.323 5.256 2.532 8.344 2.532C8.452 2.532 8.56 2.535 8.666 2.539Z" fill="rgb(255,255,255)" fill-opacity="1.000" fill-rule="nonzero" transform="matrix(1 0 0 1 6 16)"/><path d="M22.971 15.046C23.014 14.248 23 13.443 22.986 12.643C22.978 12.246 22.971 11.85 22.971 11.458L22.971 0.005L16.633 0.005C16.633 0.005 16.628 5.646 16.633 10.497C16.634 11.611 16.637 12.684 16.639 13.638C16.644 15.479 16.648 16.875 16.633 17.269C16.52 20.094 15.757 21.942 14.334 23.453C9.615 23.45 6.56 20.192 6.39 15.007C6.351 13.817 6.335 10.863 6.335 7.442L6.335 0L0.001 0.006L0.001 10.067C0.001 10.35 0 10.63 0 10.905C-0.002 13.591 -0.003 15.91 0.186 17.554C0.77 22.619 3.826 26 8.435 26C10.801 26 12.815 25.064 14.333 23.462C14.44 23.466 14.548 23.468 14.656 23.468C17.743 23.468 20.64 21.677 22.053 18.896C22.671 17.682 22.9 16.375 22.971 15.045L22.971 15.046Z" fill="rgb(255,255,255)" fill-opacity="1.000" fill-rule="nonzero" transform="matrix(1 0 0 1 31 17)"/></svg>