<svg xmlns="http://www.w3.org/2000/svg" viewBox="0 0 60 60" width="60" height="60"><path d="M0 0L60 0L60 60L0 60L0 0Z" fill="rgb(74,10,115)" fill-opacity="1.000" fill-rule="nonzero" transform="matrix(1 0 0 1 0 0)"/><path d="M6.206 0C5.198 0 4.34 0.405 3.693 1.1C3.647 1.098 3.601 1.097 3.556 1.097C2.24 1.097 1.006 1.873 0.404 3.078C0.14 3.604 0.042 4.17 0.012 4.746C-0.015 5.263 0.012 5.788 0.012 6.3L0.012 11.262L2.713 11.262C2.713 11.262 2.716 8.818 2.713 6.716C2.712 5.302 2.704 4.041 2.713 3.783C2.761 2.558 3.087 1.758 3.693 1.103C5.703 1.106 7.005 2.516 7.077 4.763C7.094 5.278 7.099 8.038 7.099 8.038L7.099 11.262L9.799 11.262L9.799 6.903C9.799 5.586 9.809 4.445 9.721 3.66C9.473 1.464 8.17 0 6.206 0ZM20.446 5.229L20.446 0.267L17.745 0.267C17.745 0.267 17.743 2.711 17.745 4.812C17.747 6.227 17.755 7.487 17.745 7.746C17.697 8.97 17.372 9.77 16.766 10.425C14.755 10.423 13.454 9.012 13.382 6.766C13.365 6.251 13.358 4.97 13.358 3.488L13.358 0.265L10.659 0.267L10.659 4.626C10.659 5.944 10.649 7.084 10.737 7.869C10.987 10.064 12.289 11.528 14.253 11.528C15.261 11.528 16.119 11.123 16.766 10.429C16.812 10.431 16.857 10.432 16.903 10.432C18.219 10.432 19.453 9.655 20.055 8.451C20.318 7.925 20.415 7.358 20.446 6.783C20.474 6.266 20.446 5.74 20.446 5.228M26.816 5.195L24.493 5.195L24.493 1.93L26.816 1.93C27.755 1.93 28.447 2.628 28.447 3.547C28.447 4.466 27.755 5.195 26.816 5.195L26.816 5.194L26.816 5.195ZM26.816 0.156L22.692 0.156L22.692 11.249L24.493 11.249L24.493 6.97L26.816 6.97C28.801 6.97 30.263 5.528 30.263 3.547C30.263 1.566 28.801 0.155 26.816 0.155M35.326 8.127C35.326 9.094 34.511 10.012 33.326 10.012C32.572 10.012 32.079 9.585 32.079 8.982C32.079 8.174 32.833 7.794 34.172 7.794L35.326 7.794L35.326 8.127ZM33.726 3.341C32.11 3.341 30.755 4.56 30.632 6.114L32.171 6.114C32.217 5.322 32.894 4.783 33.725 4.783C34.695 4.783 35.325 5.401 35.325 6.335L35.325 6.478L34.218 6.478C31.971 6.478 30.571 7.492 30.571 9.124C30.571 10.424 31.571 11.406 33.033 11.406C34.033 11.406 34.802 11.009 35.325 10.281L35.325 11.247L36.942 11.247L36.942 6.447C36.942 4.593 35.818 3.341 33.726 3.341ZM43.154 3.525L41.138 8.803L39.122 3.525L37.275 3.525L40.26 10.863L38.906 14L40.753 14L45 3.525L43.154 3.525Z" fill="rgb(255,255,255)" fill-opacity="1.000" fill-rule="nonzero" transform="matrix(1 0 0 1 7 23)"/></svg>