<svg xmlns="http://www.w3.org/2000/svg" viewBox="0 0 60 60" width="60" height="60"><path d="M0 0L60 0L60 60L0 60L0 0Z" fill="rgb(255,255,255)" fill-opacity="1.000" fill-rule="nonzero" transform="matrix(1 0 0 1 0 0)"/><path d="M7.312 4.76C7.312 3.463 6.618 3 5.547 3C5.14 3.003 4.738 3.098 4.374 3.277C4.009 3.456 3.691 3.716 3.444 4.034L3.444 10.901L0 10.901L0 0.268L3.442 0.268L3.442 1.203L3.021 1.975C3.668 1.228 5.374 0 7.177 0C9.637 0 10.755 1.407 10.755 3.367L10.755 10.895L7.312 10.895L7.312 4.76Z" fill="rgb(0,0,0)" fill-opacity="1.000" fill-rule="nonzero" transform="matrix(1 0 0 1 5 24.9507)"/><path d="M7.634 9.061C6.963 9.81 5.367 10.895 3.554 10.895C1.095 10.895 0 9.532 0 7.573L0 0L3.436 0L3.436 6.177C3.436 7.453 4.107 7.893 5.225 7.893C5.626 7.89 6.021 7.795 6.378 7.615C6.736 7.436 7.045 7.177 7.283 6.859L7.283 0L10.733 0L10.733 10.632L7.289 10.632L7.289 9.845L7.634 9.061Z" fill="rgb(0,0,0)" fill-opacity="1.000" fill-rule="nonzero" transform="matrix(1 0 0 1 16.4715 25.2175)"/><path d="M5.741 0C8.938 0 11.265 2.316 11.265 5.919L11.265 6.644L3.829 6.644L3.533 6.258C3.535 6.418 3.556 6.576 3.593 6.731C3.841 7.685 4.761 8.54 6.324 8.54C7.287 8.54 8.36 8.165 8.962 7.636L10.415 9.76C9.343 10.706 7.554 11.167 5.904 11.167C2.57 11.167 0 9.044 0 5.579C-0.004 2.486 2.368 0 5.741 0ZM3.527 4.44L7.977 4.44C7.887 3.691 7.328 2.612 5.741 2.612C4.245 2.618 3.664 3.675 3.529 4.446L3.527 4.44Z" fill="rgb(0,0,0)" fill-opacity="1.000" fill-rule="nonzero" transform="matrix(1 0 0 1 38.4873 24.9568)"/><path d="M0 0L3.444 0L3.444 10.632L0 10.632L0 0Z" fill="rgb(0,0,0)" fill-opacity="1.000" fill-rule="nonzero" transform="matrix(1 0 0 1 50.4522 25.2175)"/><path d="M7.832 0L5.506 6.33L5.59 7.316L2.934 0L0 0L0 1.718L3.562 10.629L7.228 10.629L11.477 0L7.832 0Z" fill="rgb(0,0,0)" fill-opacity="1.000" fill-rule="nonzero" transform="matrix(1 0 0 1 27.8923 25.2214)"/><path d="M0 1.936C0 1.423 0.207 0.93 0.576 0.567C0.945 0.204 1.446 0 1.967 0C2.489 0 2.99 0.204 3.359 0.567C3.727 0.93 3.935 1.423 3.935 1.936C3.935 2.45 3.727 2.942 3.359 3.305C2.99 3.668 2.489 3.872 1.967 3.872C1.446 3.872 0.945 3.668 0.576 3.305C0.207 2.942 0 2.45 0 1.936Z" fill="rgb(228,0,70)" fill-opacity="1.000" fill-rule="nonzero" transform="matrix(1 0 0 1 50.2055 20)"/></svg>