<svg xmlns="http://www.w3.org/2000/svg" viewBox="0 0 130 60" width="130" height="60"><path d="M0 0L130 0L130 60L0 60L0 0Z" fill="rgb(255,255,255)" fill-opacity="1.000" fill-rule="nonzero" transform="matrix(1 0 0 1 0 0)"/><path d="M1.66 1.164C3.346 0.422 5.162 0.027 7.003 0C11.687 0 13.631 1.94 13.631 6.478L13.631 8.45C13.631 10.002 13.657 11.171 13.689 12.303C13.721 13.435 13.78 14.546 13.87 15.736L10.349 15.736C10.243 14.975 10.182 14.209 10.168 13.44L10.126 13.44C9.632 14.257 8.935 14.932 8.103 15.397C7.271 15.863 6.332 16.105 5.378 16.098C2.664 16.098 0.009 14.456 0.009 11.527C-0.048 10.616 0.172 9.709 0.641 8.926C1.109 8.142 1.803 7.519 2.632 7.137C4.156 6.393 6.127 6.239 7.794 6.239L10.004 6.239C10.004 3.763 8.899 2.928 6.541 2.928C4.823 2.963 3.16 3.548 1.798 4.597L1.66 1.164ZM6.35 13.169C6.893 13.182 7.431 13.064 7.918 12.825C8.406 12.586 8.83 12.234 9.154 11.798C9.775 10.856 10.068 9.735 9.988 8.61L8.256 8.61C6.467 8.61 3.811 8.907 3.811 11.267C3.811 12.58 4.916 13.148 6.35 13.148" fill="rgb(76,59,95)" fill-opacity="1.000" fill-rule="nonzero" transform="matrix(1 0 0 1 69.6037 18)"/><path d="M10.951 3.654C10.103 3.255 9.174 3.06 8.237 3.086C5.762 3.086 4.18 5.057 4.18 7.954C4.18 10.85 5.523 12.971 8.327 12.971C9.388 12.929 10.432 12.685 11.402 12.253L11.578 15.57C10.281 15.955 8.931 16.135 7.578 16.101C2.539 16.101 0 12.668 0 7.975C0 3.527 2.629 0.003 7.435 0.003C8.755 -0.026 10.071 0.146 11.339 0.513L10.951 3.654Z" fill="rgb(76,59,95)" fill-opacity="1.000" fill-rule="nonzero" transform="matrix(1 0 0 1 85.9165 18.018)"/><path d="M15.104 0.356L15.104 14.243C15.104 18.425 13.431 22.369 6.984 22.369C5.16 22.377 3.353 22.015 1.673 21.306L2.002 17.899C3.387 18.65 4.911 19.107 6.479 19.244C10.892 19.26 11.105 15.944 11.105 13.286L11.046 13.286C10.298 14.604 8.508 15.736 6.267 15.736C1.731 15.736 0 12.096 0 7.972C0 4.252 1.912 0 6.506 0C8.54 0 10.117 0.686 11.222 2.45L11.28 2.45L11.28 0.356L15.104 0.356ZM11.105 7.881C11.105 5.256 10.09 3.098 7.759 3.098C5.045 3.098 4.18 5.607 4.18 7.966C4.18 10.06 5.284 12.627 7.584 12.627C10.09 12.627 11.105 10.448 11.105 7.876" fill="rgb(76,59,95)" fill-opacity="1.000" fill-rule="nonzero" transform="matrix(1 0 0 1 98.8961 18)"/><path d="M7.717 0C5.67 0 3.707 0.814 2.26 2.262C0.813 3.71 0 5.674 0 7.722C0 9.77 0.813 11.734 2.26 13.182C3.707 14.63 5.67 15.444 7.717 15.444L7.717 0Z" fill="rgb(76,59,95)" fill-opacity="1.000" fill-rule="nonzero" transform="matrix(1 0 0 1 37.3706 18.3614)"/><path d="M0.003 0C-0.024 1.031 0.155 2.058 0.531 3.019C0.907 3.98 1.471 4.855 2.191 5.595C2.91 6.334 3.77 6.921 4.72 7.322C5.67 7.723 6.691 7.93 7.722 7.93C8.753 7.93 9.774 7.723 10.724 7.322C11.674 6.921 12.534 6.334 13.253 5.595C13.973 4.855 14.537 3.98 14.913 3.019C15.288 2.058 15.468 1.031 15.441 0L0.003 0Z" fill="rgb(76,59,95)" fill-opacity="1.000" fill-rule="nonzero" transform="matrix(1 0 0 1 46.0511 34.7727)"/><path d="M7.717 15.444C9.243 15.444 10.735 14.991 12.004 14.143C13.273 13.294 14.262 12.088 14.846 10.677C15.43 9.266 15.583 7.713 15.285 6.216C14.987 4.718 14.252 3.342 13.173 2.262C12.094 1.182 10.719 0.446 9.222 0.148C7.725 -0.15 6.174 0.003 4.764 0.588C3.354 1.172 2.148 2.162 1.3 3.432C0.453 4.702 0 6.195 0 7.722C0 9.77 0.813 11.734 2.26 13.182C3.707 14.63 5.67 15.444 7.717 15.444Z" fill="rgb(76,59,95)" fill-opacity="1.000" fill-rule="nonzero" transform="matrix(1 0 0 1 16 18.3614)"/><path d="M0 7.722C-0.001 9.251 0.451 10.745 1.299 12.017C2.147 13.288 3.352 14.279 4.763 14.865C6.174 15.451 7.727 15.604 9.225 15.307C10.723 15.009 12.1 14.274 13.18 13.193C14.261 12.113 14.997 10.736 15.295 9.237C15.593 7.738 15.441 6.184 14.856 4.771C14.272 3.359 13.282 2.152 12.012 1.303C10.743 0.453 9.249 0 7.722 0C6.708 -0.001 5.704 0.199 4.767 0.586C3.83 0.974 2.979 1.543 2.262 2.26C1.545 2.977 0.976 3.828 0.588 4.766C0.2 5.703 0 6.708 0 7.722Z" fill="rgb(76,59,95)" fill-opacity="1.000" fill-rule="nonzero" transform="matrix(1 0 0 1 46.0538 18.3614)"/><path d="M4.004 0L0 0L0 15.327L4.004 15.327L4.004 0Z" fill="rgb(76,59,95)" fill-opacity="1.000" fill-rule="nonzero" transform="matrix(1 0 0 1 32.405 18.3614)"/></svg>