<svg xmlns="http://www.w3.org/2000/svg" viewBox="0 0 60 60" width="60" height="60"><path d="M0 0L60 0L60 60L0 60L0 0Z" fill="rgb(255,255,255)" fill-opacity="1.000" fill-rule="nonzero" transform="matrix(1 0 0 1 0 0)"/><path d="M0.001 16.993C0.088 6.703 7.926 -0.093 17.631 0.001C27.435 0.19 35.086 7.081 34.999 17.37C34.999 22.28 33.133 26.716 30.421 29.454C22.11 37.761 15.018 32.947 13.338 28.699C12.965 27.943 13.251 27.188 14.271 26.622L28.654 17.748C29.301 17.465 29.301 16.521 28.654 16.144L11.385 7.364C10.825 7.081 10.079 7.458 10.079 8.213L9.892 23.129C9.892 28.793 10.452 30.869 10.912 32.192C11.285 33.23 10.726 33.607 10.079 33.23C8.772 32.569 -0.099 26.527 0.001 16.993Z" fill="rgb(52,187,218)" fill-opacity="1.000" fill-rule="nonzero" transform="matrix(1 0 0 -1 12 47)"/></svg>