<svg xmlns="http://www.w3.org/2000/svg" viewBox="0 0 130 60" width="130" height="60"><path d="M0 0L130 0L130 60L0 60L0 0Z" fill="rgb(255,255,255)" fill-opacity="1.000" fill-rule="nonzero" transform="matrix(1 0 0 1 0 0)"/><path d="M5.16 24.119L5.298 24.119C5.637 24.188 5.985 23.842 5.985 23.426L6.26 0.772C6.26 0.356 5.912 0.009 5.572 0.009L0.962 0.009C0.55 -0.06 0.275 0.287 0.275 0.702L0 21.001C0 21.278 0.211 21.555 0.412 21.625L4.812 24.049C4.885 24.119 5.023 24.119 5.16 24.119Z" fill="rgb(52,187,218)" fill-opacity="1.000" fill-rule="nonzero" transform="matrix(1 0 0 -1 83.772 44.8994)"/><path d="M0 4.393L0 0.721C0.064 0.167 0.614 -0.18 1.1 0.098L5.637 2.523C5.838 2.661 5.976 2.869 5.976 3.146L5.976 4.462C5.976 4.878 5.637 5.155 5.288 5.155L0.687 5.086C0.275 5.086 0 4.808 0 4.393Z" fill="rgb(52,187,218)" fill-opacity="1.000" fill-rule="nonzero" transform="matrix(1 0 0 -1 83.7077 18.1763)"/><path d="M12.099 20.855C15.811 20.855 18.148 18.707 18.221 15.174L5.986 15.034C6.398 18.499 8.524 20.785 12.099 20.855ZM18.835 7.275C18.56 7.414 18.221 7.344 18.01 7.137C16.636 5.821 14.922 4.85 12.511 4.85C9.148 4.781 6.462 6.929 6.05 10.532L23.583 10.671C23.922 10.671 24.27 11.017 24.27 11.432L24.27 12.333C24.206 20.785 19.596 25.427 12.924 25.358C5.637 25.289 -0.073 20.162 0.001 12.54C0.065 4.989 5.912 -0.069 13.199 0.001C16.709 0.07 20.009 1.248 22.621 4.227C22.96 4.573 22.896 5.127 22.41 5.335L18.835 7.275Z" fill="rgb(52,187,218)" fill-opacity="1.000" fill-rule="nonzero" transform="matrix(1 0 0 -1 93.7428 45.307)"/><path d="M0.001 12.471C0.065 4.92 5.839 -0.069 12.988 0.001C20.21 0.139 25.847 5.197 25.783 12.748C25.783 16.351 24.408 19.607 22.41 21.616C16.287 27.713 11.063 24.18 9.826 21.062C9.551 20.507 9.762 19.953 10.513 19.538L21.108 13.025C21.585 12.817 21.585 12.125 21.108 11.848L8.387 5.404C7.974 5.197 7.425 5.474 7.425 6.028L7.287 16.975C7.287 21.132 7.699 22.655 8.039 23.626C8.314 24.388 7.901 24.665 7.425 24.388C6.462 23.903 -0.073 19.469 0.001 12.471Z" fill="rgb(52,187,218)" fill-opacity="1.000" fill-rule="nonzero" transform="matrix(1 0 0 -1 12.2734 45.9998)"/><path d="M28.475 25.011C24.415 25.011 21.464 23.21 19.878 21.823C18.439 23.902 16.166 24.873 13.078 24.873C10.328 24.802 7.643 23.971 5.782 21.685L5.718 21.685C5.718 21.685 2.345 23.417 1.181 24.041C0.97 24.179 0.695 24.11 0.695 24.11C0.283 24.11 -0.056 23.764 0.008 23.417L0.219 0.693C0.219 0.277 0.558 0 0.97 0L5.507 0.069C5.919 0.069 6.194 0.346 6.194 0.763L6.057 13.233C6.057 16.42 7.569 19.399 11.492 19.399C14.379 19.468 15.616 17.528 15.616 14.549L15.754 0.901C15.827 0.485 16.102 0.139 16.515 0.139L21.051 0.208C21.464 0.208 21.803 0.554 21.803 0.901L21.665 13.302C21.601 16.42 22.976 19.537 26.688 19.606C30.262 19.606 31.151 17.043 31.225 13.995L31.362 1.04C31.362 0.623 31.711 0.346 32.05 0.346L36.66 0.416C36.999 0.416 37.347 0.693 37.347 1.109L37.21 14.757C37.136 20.577 34.799 25.08 28.475 25.011Z" fill="rgb(52,187,218)" fill-opacity="1.000" fill-rule="nonzero" transform="matrix(1 0 0 -1 41.8241 45.3757)"/></svg>