<svg xmlns="http://www.w3.org/2000/svg" viewBox="0 0 60 60" width="60" height="60"><path d="M0 0L60 0L60 60L0 60L0 0Z" fill="rgb(19,48,52)" fill-opacity="1.000" fill-rule="nonzero" transform="matrix(1 0 0 1 0 0)"/><path d="M7.601 0C3.268 0 0 3.215 0 7.477C0 11.81 3.185 14.955 7.572 14.955C11.905 14.955 15.173 11.741 15.173 7.477C15.173 3.145 11.988 0 7.601 0ZM12.468 7.477C12.468 10.412 10.408 12.541 7.573 12.541C4.753 12.541 2.707 10.412 2.707 7.477C2.707 4.543 4.753 2.414 7.573 2.414C10.41 2.414 12.468 4.543 12.468 7.477Z" fill="rgb(255,255,255)" fill-opacity="1.000" fill-rule="nonzero" transform="matrix(1 0 0 1 17.209 21.4894)"/><path d="M2.651 0L0 0L0 14.268L2.651 14.268L2.651 0Z" fill="rgb(255,255,255)" fill-opacity="1.000" fill-rule="nonzero" transform="matrix(1 0 0 1 11.9058 21.8328)"/><path d="M1.126 0L0 0L0 5.823L1.126 5.823L1.126 0Z" fill="rgb(255,255,255)" fill-opacity="1.000" fill-rule="nonzero" transform="matrix(1 0 0 1 35.04 39.3044)"/><path d="M2.217 5.902C1.724 5.902 1.352 5.774 1.1 5.518C0.848 5.262 0.722 4.881 0.721 4.375L0.721 2.166L0 2.166L0 1.338L0.721 1.338L0.721 0L1.812 0L1.812 1.338L2.833 1.338L2.833 2.166L1.812 2.166L1.812 4.28C1.812 4.539 1.865 4.73 1.971 4.853C2.076 4.977 2.241 5.04 2.464 5.042C2.634 5.042 2.802 5.007 2.957 4.939L2.957 5.775C2.721 5.861 2.471 5.905 2.218 5.905" fill="rgb(255,255,255)" fill-opacity="1.000" fill-rule="nonzero" transform="matrix(1 0 0 1 36.6738 39.3121)"/><path d="M1.478 4.702C1.032 4.702 0.674 4.584 0.405 4.348C0.135 4.112 0 3.795 0 3.398C0 2.892 0.205 2.5 0.616 2.221C1.027 1.941 1.61 1.802 2.367 1.803L2.56 1.803C2.625 1.803 2.686 1.803 2.745 1.811C2.727 1.489 2.633 1.25 2.461 1.095C2.289 0.939 2.034 0.862 1.695 0.862C1.236 0.869 0.787 0.994 0.393 1.224L0.393 0.362C0.845 0.127 1.35 0.002 1.862 0C2.478 0 2.953 0.165 3.288 0.496C3.622 0.827 3.79 1.3 3.789 1.915L3.789 4.589L2.886 4.589L2.824 4.072C2.678 4.271 2.482 4.43 2.255 4.533C2.011 4.647 1.744 4.704 1.474 4.702L1.478 4.702ZM1.773 3.942C1.902 3.944 2.03 3.92 2.149 3.871C2.268 3.822 2.375 3.749 2.464 3.657C2.556 3.567 2.629 3.46 2.678 3.341C2.726 3.223 2.75 3.096 2.748 2.968L2.748 2.528C2.689 2.528 2.629 2.528 2.568 2.523C2.507 2.519 2.443 2.519 2.378 2.519C1.945 2.519 1.612 2.583 1.38 2.713C1.288 2.763 1.21 2.833 1.151 2.918C1.092 3.003 1.054 3.1 1.04 3.202C1.026 3.304 1.037 3.407 1.071 3.505C1.105 3.602 1.162 3.69 1.237 3.761C1.386 3.887 1.578 3.952 1.774 3.942" fill="rgb(255,255,255)" fill-opacity="1.000" fill-rule="nonzero" transform="matrix(1 0 0 1 40.0791 40.5381)"/><path d="M1.54 6.539C1.07 6.539 0.696 6.38 0.418 6.061C0.14 5.742 0.001 5.314 0 4.779L0 1.95L1.091 1.95L1.091 4.609C1.091 4.948 1.162 5.208 1.304 5.389C1.377 5.479 1.47 5.551 1.576 5.598C1.683 5.646 1.799 5.667 1.916 5.661C2.038 5.666 2.159 5.642 2.27 5.592C2.381 5.543 2.478 5.469 2.555 5.377C2.716 5.186 2.797 4.933 2.797 4.617L2.797 1.95L3.888 1.95L3.888 6.427L2.939 6.427L2.877 5.9C2.734 6.105 2.538 6.269 2.309 6.375C2.068 6.486 1.805 6.542 1.539 6.539L1.54 6.539ZM2.331 1.346L1.372 1.346L2.313 0L3.501 0L2.331 1.346Z" fill="rgb(255,255,255)" fill-opacity="1.000" fill-rule="nonzero" transform="matrix(1 0 0 1 44.6743 38.7007)"/><path d="M7.433 0C6.013 0 3.844 0.645 2.638 2.357L2.638 0.343L0 0.343L0 14.611L2.651 14.611L2.651 6.462C2.644 5.928 2.745 5.398 2.948 4.903C3.152 4.408 3.453 3.957 3.836 3.577C4.218 3.197 4.674 2.896 5.176 2.69C5.678 2.484 6.217 2.378 6.762 2.378C7.306 2.378 7.845 2.484 8.347 2.69C8.85 2.896 9.305 3.197 9.688 3.577C10.07 3.957 10.372 4.408 10.575 4.903C10.778 5.398 10.88 5.928 10.872 6.462L10.872 14.611L13.524 14.611L13.524 5.705C13.524 2.452 10.906 0 7.433 0Z" fill="rgb(255,255,255)" fill-opacity="1.000" fill-rule="nonzero" transform="matrix(1 0 0 1 35.04 21.4894)"/><path d="M13.329 0L0 3.748L0.466 5.34L13.795 1.592L13.329 0Z" fill="rgb(167,206,46)" fill-opacity="1.000" fill-rule="nonzero" transform="matrix(1 0 0 1 11.4365 14.7603)"/></svg>