<svg xmlns="http://www.w3.org/2000/svg" viewBox="0 0 60 60" width="60" height="60"><path d="M0 0L60 0L60 60L0 60L0 0Z" fill="rgb(36,87,91)" fill-opacity="1.000" fill-rule="nonzero" transform="matrix(1 0 0 1 0 0)"/><path d="M0.024 20.947L4.947 5.288C5.091 4.831 5.459 4.479 5.923 4.35L21.725 0.019C22.106 -0.086 22.452 0.27 22.332 0.644L17.505 15.712C17.364 16.151 17.019 16.492 16.577 16.63L0.647 21.567C0.264 21.687 -0.097 21.329 0.024 20.949L0.024 20.947ZM7.596 7.34L4.673 16.639C4.614 16.83 4.793 17.008 4.984 16.947L14.56 13.979C14.697 13.937 14.804 13.831 14.848 13.695L17.712 4.754C17.771 4.567 17.599 4.389 17.409 4.442L7.897 7.049C7.753 7.089 7.638 7.197 7.594 7.34L7.596 7.34Z" fill="rgb(255,255,255)" fill-opacity="1.000" fill-rule="nonzero" transform="matrix(1 0 0 1 24.1944 14)"/><path d="M25.233 15.846C24.385 21.498 19.158 25.749 13.098 25.073C8.397 24.55 3.983 20.18 3.443 15.514C2.751 9.539 6.957 4.38 12.581 3.468C12.658 3.455 12.723 3.4 12.747 3.324L13.707 0.274C13.751 0.134 13.64 -0.007 13.494 0C5.554 0.472 -0.669 7.374 0.058 15.521C0.67 22.383 6.051 27.766 12.958 28.421C20.643 29.15 27.252 23.825 28.509 16.696C28.611 16.122 28.676 15.536 28.703 14.941C28.711 14.796 28.568 14.69 28.428 14.732L25.376 15.677C25.298 15.701 25.242 15.767 25.231 15.846L25.233 15.846Z" fill="rgb(255,255,255)" fill-opacity="1.000" fill-rule="nonzero" transform="matrix(1 0 0 1 13 18.3243)"/></svg>