<svg xmlns="http://www.w3.org/2000/svg" viewBox="0 0 130 60" width="130" height="60"><path d="M0 0L130 0L130 60L0 60L0 0Z" fill="rgb(255,255,255)" fill-opacity="1.000" fill-rule="nonzero" transform="matrix(1 0 0 1 0 0)"/><path d="M114 0L0 0L0 20L114 20L114 0Z" fill="rgb(0,0,0)" fill-opacity="1.000" fill-rule="nonzero" transform="matrix(1 0 0 1 7.6 20)"/><path d="M0.014 12.768L3.015 3.223C3.103 2.945 3.327 2.73 3.61 2.652L13.242 0.011C13.474 -0.052 13.685 0.165 13.612 0.393L10.67 9.577C10.584 9.844 10.373 10.052 10.104 10.136L0.394 13.146C0.161 13.219 -0.059 13 0.014 12.769L0.014 12.768ZM4.63 4.474L2.848 10.142C2.812 10.258 2.922 10.367 3.038 10.33L8.875 8.521C8.958 8.495 9.023 8.43 9.05 8.347L10.796 2.898C10.832 2.784 10.727 2.675 10.611 2.708L4.813 4.296C4.726 4.321 4.656 4.387 4.629 4.474L4.63 4.474Z" fill="rgb(36,87,91)" fill-opacity="1.000" fill-rule="nonzero" transform="matrix(1 0 0 1 14.4235 19.9442)"/><path d="M15.38 9.659C14.863 13.103 11.678 15.695 7.984 15.283C5.118 14.964 2.427 12.3 2.098 9.456C1.677 5.814 4.24 2.67 7.668 2.114C7.716 2.106 7.755 2.072 7.77 2.026L8.354 0.167C8.382 0.082 8.314 -0.004 8.225 0C3.385 0.288 -0.408 4.494 0.035 9.461C0.408 13.643 3.688 16.924 7.898 17.323C12.582 17.768 16.611 14.522 17.377 10.177C17.439 9.826 17.478 9.47 17.495 9.107C17.5 9.019 17.413 8.954 17.327 8.98L15.467 9.556C15.42 9.57 15.386 9.611 15.379 9.659L15.38 9.659Z" fill="rgb(36,87,91)" fill-opacity="1.000" fill-rule="nonzero" transform="matrix(1 0 0 1 7.6 22.58)"/><path d="M9.77 0.261C9.678 0.261 9.605 0.334 9.604 0.425L9.585 2.239C9.498 2.093 9.407 1.952 9.307 1.819C8.829 1.187 8.249 0.726 7.566 0.436C6.883 0.145 6.145 0 5.353 0C4.325 0 3.404 0.247 2.589 0.741C1.773 1.235 1.138 1.91 0.683 2.767C0.228 3.624 0 4.584 0 5.643C0 6.702 0.227 7.684 0.683 8.541C1.138 9.398 1.773 10.074 2.589 10.568C3.404 11.062 4.324 11.309 5.353 11.309C6.145 11.309 6.883 11.159 7.566 10.862C8.249 10.565 8.829 10.103 9.307 9.479C9.334 9.443 9.359 9.407 9.386 9.37C9.466 9.256 9.644 9.29 9.68 9.424L10.085 10.925C10.104 10.997 10.17 11.047 10.245 11.047L10.824 11.047C10.915 11.047 10.99 10.973 10.99 10.883L10.99 0.426C10.99 0.335 10.915 0.261 10.824 0.261L9.768 0.261L9.77 0.261ZM8.965 8.018C8.598 8.686 8.106 9.195 7.49 9.543C6.873 9.892 6.219 10.066 5.529 10.066C4.839 10.066 4.189 9.892 3.58 9.543C2.97 9.195 2.482 8.686 2.115 8.018C1.748 7.35 1.564 6.558 1.564 5.643C1.564 4.728 1.747 3.936 2.115 3.268C2.482 2.6 2.97 2.095 3.58 1.754C4.189 1.413 4.839 1.242 5.529 1.242C6.219 1.242 6.873 1.413 7.49 1.754C8.106 2.096 8.597 2.601 8.965 3.268C9.332 3.936 9.517 4.728 9.517 5.643C9.517 6.558 9.332 7.35 8.965 8.018Z" fill="rgb(36,87,91)" fill-opacity="1.000" fill-rule="nonzero" transform="matrix(1 0 0 1 87.7278 25.8422)"/><path d="M2.851 10.7C1.933 10.191 1.229 9.505 0.737 8.641C0.245 7.777 0 6.807 0 5.731C0 4.655 0.246 3.705 0.737 2.833C1.229 1.962 1.935 1.271 2.851 0.763C3.769 0.255 4.845 0 6.078 0C7.311 0 8.386 0.255 9.305 0.763C10.222 1.271 10.927 1.962 11.419 2.833C11.91 3.705 12.156 4.671 12.156 5.731C12.156 6.792 11.91 7.776 11.419 8.641C10.926 9.505 10.222 10.191 9.305 10.7C8.386 11.208 7.311 11.463 6.078 11.463C4.845 11.463 3.769 11.208 2.851 10.7ZM7.609 8.771C8.086 8.503 8.469 8.107 8.755 7.584C9.041 7.061 9.184 6.443 9.184 5.731C9.184 5.02 9.04 4.406 8.755 3.89C8.468 3.375 8.086 2.983 7.609 2.714C7.132 2.446 6.621 2.31 6.079 2.31C5.537 2.31 5.003 2.444 4.526 2.714C4.049 2.983 3.667 3.375 3.381 3.89C3.094 4.406 2.952 5.02 2.952 5.731C2.952 6.443 3.095 7.061 3.381 7.584C3.668 8.107 4.049 8.502 4.526 8.771C5.003 9.041 5.521 9.175 6.079 9.175C6.637 9.175 7.133 9.041 7.609 8.771Z" fill="rgb(36,87,91)" fill-opacity="1.000" fill-rule="nonzero" transform="matrix(1 0 0 1 31.7784 25.688)"/><path d="M7.898 0C7.807 0 7.732 0.074 7.732 0.164L7.732 5.512C7.732 6.21 7.607 6.813 7.358 7.321C7.108 7.83 6.77 8.212 6.345 8.465C5.919 8.72 5.456 8.846 4.957 8.846C4.252 8.846 3.73 8.614 3.392 8.149C3.055 7.684 2.885 6.921 2.885 5.861L2.885 0.164C2.885 0.074 2.811 0 2.719 0L0.166 0C0.075 0 0 0.074 0 0.164L0 6.558C0 8.083 0.341 9.238 1.024 10.023C1.708 10.807 2.695 11.199 3.987 11.199C5.088 11.199 6.013 10.931 6.761 10.393C7.105 10.146 7.412 9.832 7.684 9.453C7.758 9.349 7.919 9.365 7.971 9.482L8.32 10.815C8.339 10.887 8.404 10.938 8.48 10.938L10.451 10.938C10.542 10.938 10.617 10.864 10.617 10.773L10.617 0.164C10.617 0.074 10.542 0 10.451 0L7.897 0L7.898 0Z" fill="rgb(36,87,91)" fill-opacity="1.000" fill-rule="nonzero" transform="matrix(1 0 0 1 46.0712 25.9506)"/><path d="M6.629 0.044C6.468 0.015 6.262 0 6.013 0C4.97 0 4.119 0.356 3.458 1.068C3.19 1.356 2.958 1.726 2.759 2.175C2.697 2.317 2.487 2.3 2.447 2.151L1.942 0.275C1.923 0.203 1.857 0.153 1.782 0.153L0.166 0.153C0.075 0.153 0 0.227 0 0.317L0 10.927C0 11.017 0.075 11.091 0.166 11.091L2.719 11.091C2.811 11.091 2.885 11.017 2.885 10.927L2.885 7.06C2.885 6.043 3.021 5.193 3.293 4.51C3.564 3.828 3.939 3.326 4.417 3.006C4.893 2.687 5.426 2.527 6.014 2.527C6.298 2.527 6.584 2.561 6.868 2.627C6.972 2.651 7.071 2.572 7.071 2.466L7.071 0.285C7.071 0.215 7.024 0.153 6.958 0.128C6.856 0.093 6.748 0.064 6.63 0.042L6.629 0.044Z" fill="rgb(36,87,91)" fill-opacity="1.000" fill-rule="nonzero" transform="matrix(1 0 0 1 59.7507 25.7986)"/><path d="M10.296 5.771C9.833 4.907 9.195 4.228 8.38 3.733C7.564 3.239 6.65 2.992 5.638 2.992C4.405 2.992 3.343 3.319 2.455 3.973C2.209 4.154 1.988 4.363 1.79 4.599C1.691 4.717 1.497 4.647 1.497 4.494L1.497 0.164C1.497 0.074 1.423 0 1.331 0L0.166 0C0.075 0 0 0.074 0 0.164L0 13.875C0 13.965 0.075 14.039 0.166 14.039L0.724 14.039C0.8 14.039 0.865 13.989 0.884 13.917L1.289 12.416C1.325 12.282 1.503 12.248 1.583 12.362C1.609 12.399 1.635 12.435 1.662 12.471C2.139 13.095 2.723 13.556 3.414 13.854C4.104 14.151 4.846 14.301 5.639 14.301C6.652 14.301 7.565 14.054 8.381 13.56C9.196 13.066 9.835 12.391 10.297 11.533C10.76 10.676 10.991 9.71 10.991 8.635C10.991 7.56 10.759 6.634 10.297 5.769L10.296 5.771ZM8.854 11.01C8.487 11.678 8.003 12.187 7.401 12.535C6.799 12.884 6.152 13.058 5.463 13.058C4.772 13.058 4.1 12.884 3.492 12.535C2.882 12.187 2.391 11.678 2.016 11.01C1.641 10.342 1.455 9.543 1.455 8.614C1.455 7.684 1.642 6.889 2.016 6.227C2.391 5.567 2.882 5.069 3.492 4.735C4.1 4.401 4.758 4.233 5.463 4.233C6.167 4.233 6.799 4.404 7.401 4.745C8.003 5.087 8.487 5.592 8.854 6.259C9.221 6.927 9.405 7.719 9.405 8.634C9.405 9.549 9.221 10.341 8.854 11.009L8.854 11.01Z" fill="rgb(36,87,91)" fill-opacity="1.000" fill-rule="nonzero" transform="matrix(1 0 0 1 75.1886 22.8491)"/><path d="M8.579 1.112C7.91 0.371 6.923 0 5.617 0C4.501 0 3.557 0.273 2.787 0.817C2.347 1.127 1.981 1.528 1.687 2.018C1.612 2.144 1.421 2.122 1.383 1.979L0.953 0.383C0.933 0.312 0.866 0.261 0.792 0.261L0.166 0.261C0.075 0.261 0 0.335 0 0.426L0 10.883C0 10.973 0.075 11.047 0.166 11.047L1.332 11.047C1.424 11.047 1.498 10.973 1.498 10.883L1.498 5.425C1.498 4.583 1.666 3.842 2.004 3.203C2.341 2.564 2.793 2.077 3.358 1.743C3.922 1.409 4.55 1.241 5.242 1.241C6.225 1.241 6.941 1.525 7.389 2.091C7.835 2.658 8.061 3.581 8.061 4.859L8.061 10.883C8.061 10.973 8.135 11.047 8.227 11.047L9.414 11.047C9.505 11.047 9.58 10.973 9.58 10.883L9.58 4.467C9.58 2.971 9.245 1.852 8.578 1.112L8.579 1.112Z" fill="rgb(36,87,91)" fill-opacity="1.000" fill-rule="nonzero" transform="matrix(1 0 0 1 101.1797 25.8411)"/><path d="M8.212 13.839C8.353 13.839 8.43 13.676 8.34 13.57L3.904 8.316C3.851 8.253 3.853 8.16 3.909 8.1L8.293 3.329C8.39 3.223 8.314 3.055 8.17 3.055L6.857 3.055C6.81 3.055 6.766 3.075 6.734 3.109L2.585 7.663C2.554 7.698 2.508 7.718 2.462 7.718L1.664 7.718C1.572 7.718 1.498 7.644 1.498 7.554L1.498 0.164C1.498 0.074 1.423 0 1.332 0L0.166 0C0.075 0 0 0.074 0 0.164L0 13.675C0 13.765 0.075 13.839 0.166 13.839L1.332 13.839C1.423 13.839 1.498 13.765 1.498 13.675L1.498 9.123C1.498 9.033 1.572 8.959 1.664 8.959L2.475 8.959C2.524 8.959 2.57 8.98 2.602 9.018L6.601 13.78C6.633 13.818 6.679 13.839 6.728 13.839L8.212 13.839Z" fill="rgb(36,87,91)" fill-opacity="1.000" fill-rule="nonzero" transform="matrix(1 0 0 1 113.221 23.0502)"/><path d="M2.525 0L0.166 0C0.074 0 0 0.074 0 0.164L0 10.775C0 10.865 0.074 10.939 0.166 10.939L2.525 10.939C2.617 10.939 2.691 10.865 2.691 10.775L2.691 0.164C2.691 0.074 2.617 0 2.525 0Z" fill="rgb(36,87,91)" fill-opacity="1.000" fill-rule="nonzero" transform="matrix(1 0 0 1 69.6583 25.9506)"/><path d="M2.525 0L0.166 0C0.074 0 0 0.074 0 0.164L0 2.041C0 2.132 0.074 2.205 0.166 2.205L2.525 2.205C2.617 2.205 2.691 2.132 2.691 2.041L2.691 0.164C2.691 0.074 2.617 0 2.525 0Z" fill="rgb(36,87,91)" fill-opacity="1.000" fill-rule="nonzero" transform="matrix(1 0 0 1 69.6583 22.8491)"/></svg>