<svg xmlns="http://www.w3.org/2000/svg" viewBox="0 0 130 60" width="130" height="60"><path d="M0 0L130 0L130 60L0 60L0 0Z" fill="rgb(255,255,255)" fill-opacity="1.000" fill-rule="nonzero" transform="matrix(1 0 0 1 0 0)"/><path d="M11.876 0C5.309 0 0 5.257 0 11.69C0 18.161 5.309 23.379 11.876 23.379C18.443 23.379 23.752 18.161 23.752 11.69C23.752 5.257 18.44 0 11.876 0ZM11.876 19.402C7.58 19.402 4.157 15.944 4.157 11.69C4.157 9.663 4.97 7.719 6.418 6.286C7.865 4.852 9.829 4.047 11.876 4.047C13.923 4.047 15.887 4.852 17.334 6.286C18.782 7.719 19.595 9.663 19.595 11.69C19.595 15.944 16.172 19.402 11.876 19.402Z" fill="rgb(109,107,146)" fill-opacity="1.000" fill-rule="nonzero" transform="matrix(1 0 0 1 17 18)"/><path d="M17.983 11.517C17.983 15.875 15.363 18.988 11.067 18.988C6.771 18.988 4.12 15.875 4.12 11.517L4.12 0L0 0L0 11.654C0 17.915 4.54 22.964 11.073 22.964C17.569 22.964 22.145 17.914 22.145 11.654L22.145 0L17.983 0L17.983 11.517Z" fill="rgb(109,107,146)" fill-opacity="1.000" fill-rule="nonzero" transform="matrix(1 0 0 1 44.5615 18.4147)"/><path d="M0.14 0L0.14 3.978L11.457 3.978L0 16.705L0 22.654L3.575 18.677L20.364 0L0.14 0Z" fill="rgb(109,107,146)" fill-opacity="1.000" fill-rule="nonzero" transform="matrix(1 0 0 1 70.4029 18.4147)"/><path d="M0 3.977L18.862 3.977L18.862 0L3.575 0L0 3.977Z" fill="rgb(255,0,255)" fill-opacity="1.000" fill-rule="nonzero" transform="matrix(1 0 0 1 70.4029 37.0917)"/><path d="M11.597 0C5.379 0 0 5.257 0 11.69C0 18.399 5.591 23.277 12.225 23.277L12.434 23.277L12.434 19.295L12.224 19.295C8.347 19.295 5.064 16.839 4.365 13.176L23.368 13.176C23.473 5.222 19.104 0 11.597 0ZM4.436 9.477C5.274 6.052 8.173 3.908 11.771 3.908C15.4 3.908 18.198 6.052 18.757 9.477L4.436 9.477Z" fill="rgb(255,0,255)" fill-opacity="1.000" fill-rule="nonzero" transform="matrix(1 0 0 1 90.4875 18)"/></svg>