<svg xmlns="http://www.w3.org/2000/svg" viewBox="0 0 130 60" width="130" height="60"><path d="M0 0L130 0L130 60L0 60L0 0Z" fill="rgb(255,255,255)" fill-opacity="1.000" fill-rule="nonzero" transform="matrix(1 0 0 1 0 0)"/><path d="M6.007 8.666L3.649 8.666L2.691 13.181L0 13.181L2.618 0.988L7.683 0.988C9.747 0.988 11.146 2.432 11.146 4.077C11.146 7.35 8.531 8.666 6.007 8.666ZM6.338 2.778L4.901 2.778L4.017 6.874L4.938 6.874C6.744 6.874 8.401 6.472 8.401 4.333C8.401 3.364 7.388 2.78 6.339 2.78L6.338 2.778ZM20.1 9.927C19.768 11.408 19.675 12.486 19.658 13.18L17.06 13.18C17.097 12.724 17.263 11.864 17.41 11.024C16.747 12.213 15.661 13.381 13.854 13.381C12.048 13.381 11.054 12.157 11.054 10.456C11.054 6.344 14.757 3.803 18.276 3.803C19.344 3.803 20.726 3.985 21.371 4.223L20.098 9.928L20.1 9.927ZM17.797 5.504C15.678 5.504 13.744 7.733 13.744 10.183C13.744 11.006 14.039 11.682 14.996 11.682C16.286 11.682 17.52 9.927 18.036 7.734L18.534 5.613C18.297 5.532 18.047 5.495 17.797 5.504ZM30.323 11.956C29.495 15.649 28.131 17.33 24.042 17.33C22.807 17.33 21.629 17.094 20.837 16.819L21.334 15.009C22.218 15.484 23.157 15.631 23.987 15.631C26.289 15.631 27.173 14.424 27.598 12.705L27.892 11.499C27.007 12.669 26.086 13.181 24.557 13.181C22.661 13.181 21.739 12.011 21.739 10.457C21.739 6.325 25.534 3.821 29.071 3.821C30.085 3.821 31.356 4.003 32.055 4.223L30.324 11.955L30.323 11.956ZM28.518 5.522C26.4 5.522 24.429 7.679 24.429 10.238C24.429 11.061 24.723 11.664 25.627 11.664C27.358 11.664 28.316 9.47 28.703 7.843L29.237 5.631C29.004 5.559 28.762 5.522 28.518 5.522ZM40.143 6.874C41.469 7.166 42.317 8.008 42.317 9.287C42.317 12.431 39.295 13.181 36.753 13.181L32.203 13.181L34.819 0.988L39.738 0.988C41.377 0.988 43.146 1.737 43.146 3.547C43.146 5.357 41.93 6.546 40.143 6.874ZM37.122 7.715L35.96 7.715L35.133 11.554L36.403 11.554C37.951 11.554 39.554 11.079 39.554 9.195C39.554 7.916 38.116 7.715 37.122 7.715ZM38.558 2.614L37.029 2.614L36.292 6.106L37.601 6.106C39.037 6.106 40.438 5.557 40.438 3.931C40.438 2.907 39.404 2.614 38.558 2.614ZM52.467 9.927C52.136 11.408 52.044 12.486 52.025 13.18L49.427 13.18C49.464 12.724 49.63 11.864 49.777 11.024C49.114 12.213 48.028 13.381 46.222 13.381C44.417 13.381 43.421 12.157 43.421 10.456C43.421 6.344 47.125 3.803 50.643 3.803C51.712 3.803 53.093 3.985 53.738 4.223L52.467 9.927ZM50.165 5.504C48.046 5.504 46.112 7.733 46.112 10.183C46.112 11.006 46.406 11.682 47.365 11.682C48.654 11.682 49.888 9.927 50.404 7.734L50.901 5.613C50.664 5.532 50.415 5.495 50.165 5.504ZM63.558 7.112L62.267 13.181L59.725 13.181L60.887 7.661C60.961 7.332 61.034 7.021 61.034 6.709C61.034 6.015 60.701 5.522 59.817 5.522C58.435 5.522 57.773 6.746 57.515 7.935L56.391 13.181L53.831 13.181L55.341 6.051C55.488 5.375 55.618 4.699 55.691 4.003L58.086 4.003L57.81 5.63C58.694 4.406 59.615 3.821 61.144 3.821C62.673 3.821 63.668 4.552 63.668 6.069C63.668 6.398 63.631 6.747 63.558 7.112ZM70.227 8.172L73.138 13.181L70.227 13.181L67.721 8.373L66.726 13.18L64.165 13.18L66.967 0L69.508 0L67.869 7.788L71.829 4.005L74.832 4.005L70.227 8.172Z" fill="rgb(0,0,0)" fill-opacity="1.000" fill-rule="nonzero" transform="matrix(1 0 0 1 46.0498 22.3618)"/><path d="M15.613 30.986C7.004 30.986 0 24.037 0 15.494C0 6.95 7.004 0 15.613 0C24.222 0 31.226 6.95 31.226 15.494C31.226 24.037 24.222 30.986 15.613 30.986Z" fill="rgb(0,0,0)" fill-opacity="1.000" fill-rule="nonzero" transform="matrix(1 0 0 1 9.563 14.57)"/><path d="M25.964 12.883C25.964 19.998 20.151 25.765 12.982 25.765C5.811 25.765 0 19.999 0 12.883C0 5.768 5.811 0 12.982 0C20.152 0 25.964 5.768 25.964 12.883Z" fill="rgb(221,224,91)" fill-opacity="1.000" fill-rule="nonzero" transform="matrix(1 0 0 1 12.194 15.081)"/><path d="M13.471 26.735C6.044 26.735 0 20.739 0 13.368C0 5.998 6.044 0 13.471 0C20.898 0 26.942 5.997 26.942 13.368C26.942 20.739 20.898 26.735 13.471 26.735ZM13.471 0.969C6.582 0.969 0.977 6.531 0.977 13.368C0.977 20.205 6.582 25.765 13.471 25.765C20.36 25.765 25.965 20.205 25.965 13.368C25.965 6.531 20.36 0.969 13.471 0.969L13.471 0.969Z" fill="rgb(0,0,0)" fill-opacity="1.000" fill-rule="nonzero" transform="matrix(1 0 0 1 11.7048 14.4413)"/><path d="M21.312 12.897C20.866 14.965 19.811 16.855 18.282 18.328C16.753 19.802 14.819 20.792 12.723 21.174C10.627 21.556 8.463 21.313 6.507 20.475C4.55 19.638 2.887 18.243 1.729 16.467C0.177 14.086 -0.359 11.191 0.239 8.418C0.846 5.653 2.532 3.239 4.929 1.706C7.326 0.172 10.237 -0.356 13.026 0.237C15.814 0.83 18.252 2.496 19.805 4.869C21.358 7.243 21.899 10.13 21.311 12.899L21.312 12.897Z" fill="rgb(158,213,214)" fill-opacity="1.000" fill-rule="nonzero" transform="matrix(1 0 0 1 12.2254 23.2069)"/><path d="M11.291 22.36C10.49 22.359 9.691 22.275 8.908 22.108C7.461 21.804 6.088 21.219 4.87 20.385C3.652 19.552 2.612 18.487 1.811 17.252C1.004 16.021 0.451 14.643 0.184 13.199C-0.083 11.754 -0.059 10.271 0.256 8.836C1.556 2.811 7.555 -1.042 13.629 0.249C19.701 1.541 23.583 7.495 22.282 13.521C21.976 14.958 21.385 16.32 20.545 17.529C19.705 18.738 18.631 19.769 17.386 20.563C15.572 21.735 13.455 22.359 11.291 22.36L11.291 22.36ZM11.267 0.969C6.52 0.969 2.243 4.254 1.209 9.04C0.923 10.351 0.901 11.705 1.145 13.023C1.39 14.342 1.895 15.6 2.632 16.724C3.363 17.852 4.312 18.825 5.424 19.586C6.537 20.348 7.79 20.883 9.112 21.161C10.433 21.445 11.798 21.467 13.127 21.225C14.456 20.983 15.724 20.482 16.857 19.75C17.993 19.025 18.974 18.083 19.742 16.979C20.509 15.874 21.048 14.63 21.328 13.318C22.516 7.814 18.971 2.377 13.423 1.197C12.715 1.046 11.992 0.97 11.267 0.969Z" fill="rgb(0,0,0)" fill-opacity="1.000" fill-rule="nonzero" transform="matrix(1 0 0 1 11.7332 22.6853)"/><path d="M13.373 6.635C13.373 8.395 12.668 10.083 11.414 11.327C10.16 12.571 8.46 13.271 6.686 13.271C4.913 13.271 3.212 12.571 1.958 11.327C0.704 10.083 0 8.395 0 6.635C0 4.875 0.704 3.188 1.958 1.943C3.212 0.699 4.913 0 6.686 0C8.46 0 10.16 0.699 11.414 1.943C12.668 3.188 13.373 4.875 13.373 6.635Z" fill="rgb(255,231,45)" fill-opacity="1.000" fill-rule="nonzero" transform="matrix(1 0 0 1 25.7271 27.6792)"/><path d="M7.174 14.239C5.272 14.236 3.449 13.486 2.104 12.151C0.759 10.816 0.002 9.007 0 7.119C0.002 5.232 0.759 3.422 2.104 2.088C3.449 0.753 5.272 0.002 7.174 0C9.076 0.002 10.899 0.753 12.244 2.088C13.589 3.422 14.346 5.232 14.348 7.119C14.346 9.007 13.589 10.816 12.244 12.151C10.899 13.485 9.076 14.236 7.174 14.239ZM7.174 0.97C5.531 0.972 3.956 1.62 2.794 2.773C1.632 3.926 0.978 5.489 0.976 7.119C0.978 8.75 1.632 10.313 2.794 11.466C3.956 12.619 5.531 13.268 7.174 13.27C8.817 13.268 10.393 12.62 11.555 11.467C12.717 10.314 13.37 8.75 13.372 7.119C13.37 5.489 12.716 3.926 11.554 2.773C10.392 1.62 8.817 0.971 7.174 0.97Z" fill="rgb(0,0,0)" fill-opacity="1.000" fill-rule="nonzero" transform="matrix(1 0 0 1 25.2396 27.1954)"/></svg>