<svg xmlns="http://www.w3.org/2000/svg" viewBox="0 0 130 60" width="130" height="60"><path d="M0 0L130 0L130 60L0 60L0 0Z" fill="rgb(255,255,255)" fill-opacity="1.000" fill-rule="nonzero" transform="matrix(1 0 0 1 0 0)"/><path d="M4.607 0C4.607 2.51 2.546 4.542 0 4.542L0 9.083C5.092 9.083 9.214 5.02 9.214 0L4.607 0Z" fill="rgb(84,202,48)" fill-opacity="1.000" fill-rule="nonzero" transform="matrix(1 0 0 1 21.215 29.083)"/><path d="M4.607 9.083C4.607 6.573 6.668 4.542 9.214 4.542L17.193 4.542C15.602 1.83 12.624 0 9.214 0C4.122 0 0 4.064 0 9.083C0 12.445 1.856 15.38 4.607 16.949L4.607 9.083Z" fill="rgb(0,88,181)" fill-opacity="1.000" fill-rule="nonzero" transform="matrix(1 0 0 1 12 19.9998)"/><path d="M2.235 0L0 0L0 9.352L2.235 9.352L2.235 0Z" fill="rgb(84,202,48)" fill-opacity="1.000" fill-rule="nonzero" transform="matrix(1 0 0 1 107.802 26.3119)"/><path d="M10.078 0.291L7.843 0.291L7.843 0.844C7.04 0.314 6.077 0 5.039 0C2.259 0 0 2.226 0 4.967C0 7.709 2.259 9.935 5.039 9.935C6.077 9.935 7.04 9.621 7.843 9.091L7.843 9.643L10.078 9.643L10.078 0.291ZM5.039 7.731C3.493 7.731 2.235 6.491 2.235 4.967C2.235 3.444 3.493 2.204 5.039 2.204C6.585 2.204 7.836 3.436 7.843 4.945L7.843 4.99C7.828 6.506 6.578 7.731 5.039 7.731Z" fill="rgb(84,202,48)" fill-opacity="1.000" fill-rule="nonzero" transform="matrix(1 0 0 1 85.7061 26.0204)"/><path d="M10.078 0.291L7.843 0.291L7.843 0.844C7.039 0.314 6.077 0 5.039 0C2.258 0 0 2.226 0 4.967C0 7.709 2.258 9.935 5.039 9.935C6.077 9.935 7.039 9.621 7.843 9.091L7.843 9.643L10.078 9.643L10.078 0.291ZM5.039 7.731C3.493 7.731 2.235 6.491 2.235 4.967C2.235 3.444 3.493 2.204 5.039 2.204C6.585 2.204 7.835 3.436 7.843 4.945L7.843 4.99C7.827 6.506 6.577 7.731 5.039 7.731Z" fill="rgb(0,88,181)" fill-opacity="1.000" fill-rule="nonzero" transform="matrix(1 0 0 1 45.2498 26.0204)"/><path d="M5.039 13.811C2.259 13.811 0 11.586 0 8.844L0 0L2.236 0L2.236 8.844C2.236 10.368 3.493 11.608 5.039 11.608L5.039 13.811Z" fill="rgb(84,202,48)" fill-opacity="1.000" fill-rule="nonzero" transform="matrix(1 0 0 1 111.9612 22.1438)"/><path d="M2.235 9.643L0 9.643L0 4.967C0 2.226 2.258 0 5.039 0L5.039 2.204C3.493 2.204 2.235 3.444 2.235 4.967L2.235 9.643Z" fill="rgb(84,202,48)" fill-opacity="1.000" fill-rule="nonzero" transform="matrix(1 0 0 1 80.0537 26.0204)"/><path d="M1.318 2.599C2.046 2.599 2.637 2.018 2.637 1.3C2.637 0.582 2.046 0 1.318 0C0.59 0 0 0.582 0 1.3C0 2.018 0.59 2.599 1.318 2.599Z" fill="rgb(84,202,48)" fill-opacity="1.000" fill-rule="nonzero" transform="matrix(1 0 0 1 107.6054 22.1663)"/><path d="M3.122 3.738C2.061 3.327 2.182 2.057 4.645 2.049C6.236 2.049 7.471 2.49 8.229 2.864L8.229 0.563C5.895 -0.274 2.879 -0.154 1.462 0.765C0.614 1.31 0.166 2.079 0.136 3.058C0.015 6.457 4.417 5.702 5.971 6.247C7.047 6.621 6.888 8.033 4.425 8.04C1.689 8.048 0 6.725 0 6.725L0 6.912L0 9.161C2.387 10.386 6.016 10.356 7.607 9.325C8.456 8.78 8.903 8.01 8.933 7.032C9.062 3.364 4.031 4.096 3.114 3.738L3.122 3.738Z" fill="rgb(84,202,48)" fill-opacity="1.000" fill-rule="evenodd" transform="matrix(1 0 0 1 97.4362 25.9433)"/><path d="M7.843 0.291L7.843 0.844C7.039 0.314 6.077 0 5.039 0C2.258 0 0 2.226 0 4.967C0 7.709 2.258 9.935 5.039 9.935C6.077 9.935 7.039 9.621 7.843 9.091L7.843 9.434C7.843 10.958 6.585 12.198 5.039 12.198L2.948 12.198L2.948 14.402L5.039 14.402C7.82 14.402 10.078 12.176 10.078 9.434L10.078 0.299L7.843 0.299L7.843 0.291ZM5.039 7.731C3.493 7.731 2.235 6.491 2.235 4.967C2.235 3.444 3.493 2.204 5.039 2.204C6.585 2.204 7.843 3.444 7.843 4.967C7.843 6.491 6.585 7.731 5.039 7.731Z" fill="rgb(0,88,181)" fill-opacity="1.000" fill-rule="nonzero" transform="matrix(1 0 0 1 56.6918 26.0204)"/><path d="M7.683 5.617C8.085 5.042 8.32 4.347 8.32 3.593C8.32 1.613 6.683 0 4.675 0L0 0L0 13.52L5.418 13.52C7.805 13.52 9.752 11.608 9.752 9.247C9.752 7.709 8.926 6.364 7.683 5.61L7.683 5.617ZM4.675 2.211C5.456 2.211 6.085 2.831 6.085 3.6C6.085 4.37 5.456 4.99 4.675 4.99L2.235 4.99L2.235 2.211L4.675 2.211ZM5.418 11.324L2.235 11.324L2.235 7.186L5.418 7.186C6.577 7.186 7.517 8.112 7.517 9.255C7.517 10.398 6.577 11.324 5.418 11.324Z" fill="rgb(84,202,48)" fill-opacity="1.000" fill-rule="nonzero" transform="matrix(1 0 0 1 68.8694 22.1362)"/><path d="M5.418 0L0 0L0 13.52L2.235 13.52L2.235 8.545L5.418 8.545C7.805 8.545 9.752 6.633 9.752 4.273C9.752 1.912 7.812 0 5.418 0ZM5.418 6.342L2.235 6.342L2.235 2.204L5.418 2.204C6.577 2.204 7.517 3.13 7.517 4.273C7.517 5.416 6.577 6.342 5.418 6.342Z" fill="rgb(0,88,181)" fill-opacity="1.000" fill-rule="nonzero" transform="matrix(1 0 0 1 35.467 22.1438)"/></svg>