<svg xmlns="http://www.w3.org/2000/svg" viewBox="0 0 60 60" width="60" height="60"><path d="M0 0L60 0L60 60L0 60L0 0Z" fill="rgb(255,255,255)" fill-opacity="1.000" fill-rule="nonzero" transform="matrix(1 0 0 1 0 0)"/><path d="M23.225 45.734C10.419 45.734 0 35.477 0 22.868C0 10.258 10.419 0 23.225 0C36.031 0 46.45 10.258 46.45 22.868C46.45 35.477 36.031 45.734 23.225 45.734Z" fill="rgb(0,0,0)" fill-opacity="1.000" fill-rule="nonzero" transform="matrix(1 0 0 1 6.2361 7.2263)"/><path d="M38.622 19.014C38.622 29.516 29.975 38.028 19.311 38.028C8.645 38.028 0 29.517 0 19.014C0 8.514 8.645 0 19.311 0C29.977 0 38.622 8.514 38.622 19.014Z" fill="rgb(221,224,91)" fill-opacity="1.000" fill-rule="nonzero" transform="matrix(1 0 0 1 10.15 7.9804)"/><path d="M20.039 39.459C8.99 39.459 0 30.609 0 19.731C0 8.852 8.991 0 20.039 0C31.087 0 40.078 8.85 40.078 19.731C40.078 30.609 31.087 39.459 20.039 39.459ZM20.039 1.429C9.791 1.429 1.454 9.639 1.454 19.731C1.454 29.821 9.791 38.028 20.039 38.028C30.287 38.028 38.624 29.821 38.624 19.73C38.624 9.64 30.286 1.43 20.039 1.43L20.039 1.429Z" fill="rgb(0,0,0)" fill-opacity="1.000" fill-rule="nonzero" transform="matrix(1 0 0 1 9.4221 7.0364)"/><path d="M31.703 19.035C31.039 22.087 29.47 24.877 27.196 27.051C24.921 29.226 22.043 30.687 18.925 31.252C15.808 31.816 12.59 31.457 9.679 30.22C6.768 28.984 4.295 26.925 2.572 24.305C0.263 20.791 -0.535 16.517 0.355 12.424C1.258 8.343 3.767 4.781 7.332 2.518C10.897 0.255 15.228 -0.525 19.376 0.35C23.524 1.226 27.15 3.684 29.46 7.187C31.77 10.69 32.576 14.952 31.701 19.039L31.703 19.035Z" fill="rgb(158,213,214)" fill-opacity="1.000" fill-rule="nonzero" transform="matrix(1 0 0 1 10.1965 19.9739)"/><path d="M16.796 33.002C15.605 33.001 14.417 32.876 13.252 32.629C11.098 32.181 9.056 31.317 7.244 30.087C5.432 28.857 3.885 27.285 2.694 25.463C1.493 23.646 0.67 21.613 0.273 19.481C-0.124 17.348 -0.088 15.16 0.38 13.042C2.314 4.149 11.239 -1.538 20.273 0.368C29.305 2.274 35.081 11.062 33.145 19.956C32.69 22.076 31.812 24.087 30.562 25.871C29.312 27.656 27.715 29.178 25.863 30.35C23.165 32.079 20.015 33 16.796 33.002L16.796 33.002ZM16.76 1.43C9.699 1.43 3.337 6.279 1.799 13.343C1.373 15.277 1.34 17.275 1.704 19.222C2.067 21.168 2.819 23.025 3.915 24.683C5.003 26.348 6.414 27.784 8.069 28.908C9.724 30.032 11.588 30.822 13.555 31.232C15.52 31.652 17.549 31.684 19.527 31.327C21.504 30.97 23.39 30.23 25.075 29.15C26.766 28.079 28.225 26.689 29.366 25.059C30.508 23.43 31.31 21.593 31.726 19.656C33.493 11.533 28.22 3.509 19.968 1.767C18.914 1.544 17.838 1.431 16.76 1.43Z" fill="rgb(0,0,0)" fill-opacity="1.000" fill-rule="nonzero" transform="matrix(1 0 0 1 9.4644 19.2039)"/><path d="M19.892 9.793C19.892 12.391 18.844 14.881 16.979 16.718C15.114 18.555 12.584 19.586 9.946 19.586C7.308 19.586 4.778 18.555 2.913 16.718C1.048 14.881 0 12.391 0 9.793C0 7.196 1.048 4.705 2.913 2.868C4.778 1.032 7.308 0 9.946 0C12.584 0 15.114 1.032 16.979 2.868C18.844 4.705 19.892 7.196 19.892 9.793Z" fill="rgb(255,231,45)" fill-opacity="1.000" fill-rule="nonzero" transform="matrix(1 0 0 1 30.2809 26.5747)"/><path d="M10.672 21.015C7.843 21.012 5.13 19.904 3.129 17.934C1.129 15.964 0.003 13.294 0 10.508C0.003 7.722 1.129 5.051 3.129 3.081C5.13 1.111 7.842 0.003 10.672 0C13.501 0.003 16.213 1.112 18.214 3.081C20.214 5.051 21.34 7.722 21.343 10.507C21.34 13.293 20.214 15.964 18.214 17.933C16.213 19.903 13.501 21.011 10.672 21.015ZM10.672 1.431C8.228 1.434 5.885 2.391 4.156 4.093C2.428 5.794 1.455 8.101 1.452 10.508C1.455 12.914 2.427 15.222 4.156 16.923C5.884 18.625 8.227 19.583 10.672 19.586C13.116 19.583 15.459 18.626 17.188 16.924C18.916 15.222 19.889 12.915 19.891 10.508C19.888 8.101 18.916 5.794 17.188 4.092C15.459 2.391 13.116 1.434 10.672 1.431Z" fill="rgb(0,0,0)" fill-opacity="1.000" fill-rule="nonzero" transform="matrix(1 0 0 1 29.5557 25.8606)"/></svg>