<svg xmlns="http://www.w3.org/2000/svg" viewBox="0 0 60 60" width="60" height="60"><path d="M0 0L60 0L60 60L0 60L0 0Z" fill="rgb(0,88,181)" fill-opacity="1.000" fill-rule="nonzero" transform="matrix(1 0 0 1 0 0)"/><path d="M9.382 0C9.382 5.111 5.185 9.249 0 9.249L0 18.497C10.369 18.497 18.764 10.222 18.764 0L9.382 0Z" fill="rgb(84,202,48)" fill-opacity="1.000" fill-rule="nonzero" transform="matrix(1 0 0 1 29.7638 30.4971)"/><path d="M9.382 18.497C9.382 13.386 13.579 9.249 18.764 9.249L35.012 9.249C31.772 3.727 25.708 0 18.764 0C8.394 0 0 8.275 0 18.497C0 25.342 3.781 31.32 9.382 34.515L9.382 18.497Z" fill="rgb(255,255,255)" fill-opacity="1.000" fill-rule="nonzero" transform="matrix(1 0 0 1 11 12)"/></svg>