<svg xmlns="http://www.w3.org/2000/svg" viewBox="0 0 130 60" width="130" height="60"><path d="M0 0L130 0L130 60L0 60L0 0Z" fill="rgb(255,255,255)" fill-opacity="1.000" fill-rule="nonzero" transform="matrix(1 0 0 1 0 0)"/><path d="M5.192 6.851L3.155 6.851L2.327 10.784L0 10.784L2.263 0.16L6.647 0.16C8.431 0.16 9.649 1.41 9.649 2.851C9.645 5.7 7.375 6.848 5.193 6.848L5.192 6.851ZM5.479 1.721L4.238 1.721L3.471 5.292L4.266 5.292C5.827 5.292 7.271 4.938 7.271 3.075C7.274 2.226 6.388 1.718 5.48 1.718L5.479 1.721ZM17.062 7.945C16.845 8.876 16.717 9.826 16.68 10.781L14.433 10.781C14.465 10.384 14.61 9.633 14.737 8.903C14.163 9.937 13.228 10.958 11.662 10.958C10.053 10.958 9.24 9.879 9.24 8.409C9.24 4.823 12.443 2.608 15.495 2.608C16.419 2.608 17.615 2.768 18.171 2.975L17.062 7.945ZM15.068 4.09C13.236 4.09 11.561 6.03 11.561 8.17C11.561 8.886 11.815 9.477 12.639 9.477C13.754 9.477 14.821 7.942 15.27 6.026L15.701 4.178C15.497 4.111 15.282 4.081 15.067 4.09L15.068 4.09ZM25.592 9.713C24.876 12.933 23.695 14.397 20.16 14.397C19.218 14.399 18.282 14.251 17.387 13.959L17.809 12.374C18.516 12.745 19.305 12.933 20.103 12.922C22.094 12.922 22.859 11.871 23.226 10.372L23.481 9.322C22.713 10.343 21.92 10.787 20.598 10.787C18.953 10.787 18.159 9.768 18.159 8.414C18.159 4.813 21.441 2.631 24.501 2.631C25.376 2.634 26.247 2.751 27.091 2.979L25.592 9.713ZM24.031 4.107C22.198 4.107 20.493 5.987 20.493 8.217C20.493 8.933 20.748 9.459 21.529 9.459C23.028 9.459 23.855 7.548 24.19 6.13L24.651 4.211C24.451 4.146 24.242 4.111 24.031 4.107ZM34.939 2.103C34.254 1.765 33.503 1.585 32.739 1.576C31.769 1.576 30.318 2.022 30.318 3.122C30.318 4.667 34.525 4.43 34.525 7.36C34.525 9.687 32.325 10.961 29.634 10.961C28.579 10.979 27.529 10.823 26.526 10.497L27.085 8.773C27.893 9.188 28.792 9.393 29.7 9.368C30.833 9.353 32.09 8.842 32.09 7.661C32.09 5.991 27.918 6.165 27.918 3.472C27.918 0.941 30.449 0 32.877 0C33.77 -0.001 34.656 0.16 35.491 0.477L34.939 2.103ZM37.46 7.407C37.384 7.649 37.347 7.902 37.351 8.156C37.351 9.234 38.178 9.665 39.151 9.665C40.02 9.65 40.868 9.396 41.603 8.932L41.525 10.351C40.571 10.787 39.53 11 38.481 10.972C36.745 10.972 35.104 10.222 35.104 8.263C35.104 5.092 37.515 2.64 40.346 2.64C41.639 2.64 43.101 3.101 43.101 4.567C43.11 7.074 39.461 7.407 37.463 7.407L37.46 7.407ZM40.152 3.919C38.946 3.919 38.069 5.177 37.668 6.212C39.101 6.212 41.107 5.958 41.107 4.703C41.126 4.111 40.695 3.918 40.16 3.918L40.152 3.919ZM50.456 9.717C49.739 12.936 48.562 14.401 45.022 14.401C44.081 14.402 43.146 14.254 42.251 13.962L42.683 12.383C43.39 12.754 44.179 12.942 44.977 12.931C46.969 12.931 47.733 11.88 48.099 10.381L48.356 9.331C47.588 10.351 46.795 10.795 45.47 10.795C43.826 10.795 43.035 9.777 43.035 8.423C43.035 4.822 46.316 2.64 49.374 2.64C50.248 2.64 51.118 2.754 51.962 2.979L50.456 9.717ZM48.895 4.111C47.062 4.111 45.359 5.991 45.359 8.22C45.359 8.936 45.613 9.462 46.393 9.462C47.891 9.462 48.718 7.552 49.055 6.133L49.516 4.214C49.315 4.148 49.105 4.114 48.894 4.111L48.895 4.111ZM59.282 8.986C59.151 9.58 59.049 10.18 58.979 10.784L56.923 10.784L57.143 9.353C56.458 10.291 55.608 10.961 54.293 10.961C52.977 10.961 52.1 10.314 52.1 8.988C52.095 8.683 52.122 8.378 52.179 8.078L53.309 2.773L55.509 2.773L54.511 7.597C54.439 7.868 54.397 8.145 54.384 8.425C54.384 9.032 54.671 9.478 55.436 9.478C56.631 9.478 57.19 8.382 57.409 7.358L58.396 2.769L60.588 2.769L59.282 8.986ZM66.468 4.698C66.261 4.623 66.042 4.586 65.821 4.589C64.37 4.589 63.559 5.993 63.287 7.268L62.539 10.787L60.323 10.787L61.638 4.573C61.775 3.99 61.882 3.4 61.958 2.805L64.028 2.805L63.726 4.449C64.22 3.463 65.193 2.617 66.34 2.617C66.555 2.611 66.769 2.638 66.976 2.697L66.468 4.698ZM69.685 10.961C67.917 10.961 66.287 9.989 66.287 8.06C66.287 4.97 68.279 2.629 71.449 2.629C73.217 2.629 74.827 3.569 74.827 5.512C74.827 8.57 72.803 10.961 69.681 10.961L69.685 10.961ZM71.072 4.111C69.428 4.111 68.603 6.435 68.603 7.821C68.603 8.777 68.97 9.48 70.004 9.48C71.614 9.48 72.539 7.138 72.539 5.766C72.539 4.808 72.107 4.107 71.072 4.107L71.072 4.111Z" fill="rgb(0,0,0)" fill-opacity="1.000" fill-rule="nonzero" transform="matrix(1 0 0 1 43.4092 23.4344)"/><path d="M25.937 8.356C23.087 1.455 15.194 -1.825 8.32 1.031C1.445 3.887 -1.82 11.795 1.031 18.696C3.882 25.598 11.774 28.876 18.647 26.02C25.52 23.164 28.789 15.256 25.937 8.356Z" fill="rgb(0,0,0)" fill-opacity="1.000" fill-rule="nonzero" transform="matrix(1 0 0 1 11.9997 16.116)"/><path d="M17.483 0.966C11.036 -1.71 3.641 1.364 0.967 7.834C-1.707 14.304 1.354 21.717 7.801 24.393C14.248 27.069 21.642 23.996 24.316 17.527C26.99 11.057 23.93 3.641 17.483 0.966Z" fill="rgb(0,0,0)" fill-opacity="1.000" fill-rule="nonzero" transform="matrix(1 0 0 1 12.8423 16.9633)"/><path d="M22.41 11.248C22.41 5.03 17.393 0 11.202 0C5.011 0 0 5.03 0 11.248C0 17.466 5.016 22.496 11.202 22.496C17.388 22.496 22.41 17.46 22.41 11.248Z" fill="rgb(221,228,96)" fill-opacity="1.000" fill-rule="nonzero" transform="matrix(1 0 0 1 14.2792 16.5606)"/><path d="M11.631 23.349C5.207 23.349 0 18.126 0 11.676C0 5.226 5.207 0 11.631 0C18.054 0 23.262 5.228 23.262 11.676C23.262 18.123 18.055 23.349 11.631 23.349ZM11.631 0.864C9.485 0.854 7.385 1.482 5.596 2.668C3.808 3.853 2.412 5.543 1.585 7.523C0.758 9.503 0.538 11.684 0.953 13.789C1.367 15.895 2.397 17.83 3.913 19.349C5.428 20.868 7.36 21.903 9.465 22.322C11.569 22.742 13.75 22.527 15.732 21.705C17.714 20.883 19.408 19.491 20.598 17.705C21.788 15.92 22.42 13.821 22.416 11.676C22.413 5.7 17.586 0.852 11.631 0.845L11.631 0.864Z" fill="rgb(0,0,0)" fill-opacity="1.000" fill-rule="nonzero" transform="matrix(1 0 0 1 13.8504 16.0003)"/><path d="M18.608 9.337C18.608 4.185 14.442 0 9.306 0C4.169 0 0 4.181 0 9.337C0 14.494 4.166 18.674 9.301 18.674C14.437 18.674 18.604 14.493 18.604 9.337L18.608 9.337Z" fill="rgb(167,220,218)" fill-opacity="1.000" fill-rule="nonzero" transform="matrix(1 0 0 1 14.3025 23.6218)"/><path d="M9.743 19.517C9.051 19.517 8.362 19.444 7.685 19.298C2.436 18.171 -0.908 12.983 0.218 7.712C0.482 6.462 0.991 5.275 1.714 4.221C2.438 3.167 3.362 2.266 4.434 1.569C5.506 0.873 6.706 0.394 7.963 0.162C9.22 -0.07 10.511 -0.053 11.761 0.214C17.013 1.344 20.356 6.531 19.234 11.801C18.772 13.976 17.58 15.928 15.856 17.331C14.132 18.735 11.979 19.507 9.756 19.517L9.743 19.517ZM9.721 0.84C7.699 0.835 5.735 1.517 4.152 2.775C2.569 4.033 1.461 5.791 1.01 7.762C0.559 9.733 0.792 11.799 1.67 13.62C2.548 15.442 4.02 16.91 5.843 17.784C7.666 18.658 9.733 18.887 11.703 18.431C13.672 17.976 15.429 16.864 16.683 15.278C17.938 13.692 18.616 11.727 18.605 9.705C18.595 7.683 17.898 5.725 16.627 4.152C15.795 3.12 14.744 2.288 13.549 1.715C12.354 1.142 11.046 0.843 9.721 0.84Z" fill="rgb(0,0,0)" fill-opacity="1.000" fill-rule="nonzero" transform="matrix(1 0 0 1 13.8823 23.2037)"/><path d="M11.541 5.747C11.536 4.607 11.194 3.494 10.557 2.548C9.92 1.602 9.018 0.866 7.963 0.433C6.908 0 5.749 -0.112 4.631 0.114C3.513 0.339 2.487 0.89 1.682 1.698C0.878 2.506 0.33 3.534 0.109 4.652C-0.112 5.771 0.004 6.93 0.441 7.983C0.878 9.036 1.618 9.936 2.566 10.569C3.514 11.203 4.629 11.541 5.769 11.541C6.529 11.539 7.28 11.389 7.981 11.097C8.682 10.805 9.319 10.378 9.855 9.84C10.391 9.302 10.815 8.663 11.104 7.961C11.393 7.259 11.541 6.507 11.54 5.747L11.541 5.747Z" fill="rgb(246,223,63)" fill-opacity="1.000" fill-rule="nonzero" transform="matrix(1 0 0 1 25.9608 27.605)"/><path d="M6.241 12.433C5.01 12.438 3.806 12.077 2.78 11.397C1.755 10.717 0.954 9.748 0.48 8.612C0.006 7.477 -0.121 6.226 0.117 5.019C0.354 3.811 0.944 2.701 1.812 1.829C2.681 0.958 3.788 0.363 4.995 0.121C6.201 -0.121 7.453 0.001 8.59 0.471C9.727 0.941 10.7 1.737 11.384 2.76C12.068 3.783 12.433 4.986 12.433 6.217C12.435 7.031 12.276 7.838 11.965 8.592C11.655 9.345 11.199 10.03 10.624 10.607C10.049 11.185 9.366 11.643 8.614 11.956C7.862 12.269 7.055 12.431 6.241 12.433ZM6.241 0.848C5.177 0.844 4.137 1.155 3.25 1.742C2.364 2.33 1.672 3.167 1.262 4.148C0.852 5.129 0.742 6.21 0.947 7.254C1.151 8.297 1.661 9.256 2.411 10.01C3.162 10.763 4.119 11.277 5.161 11.486C6.204 11.695 7.285 11.59 8.268 11.184C9.251 10.779 10.091 10.09 10.682 9.206C11.273 8.323 11.589 7.283 11.589 6.22C11.592 5.516 11.456 4.818 11.188 4.166C10.921 3.515 10.527 2.922 10.03 2.423C9.533 1.924 8.943 1.528 8.293 1.258C7.642 0.988 6.945 0.849 6.241 0.848Z" fill="rgb(0,0,0)" fill-opacity="1.000" fill-rule="nonzero" transform="matrix(1 0 0 1 25.4897 27.1355)"/></svg>