<svg xmlns="http://www.w3.org/2000/svg" viewBox="0 0 60 60" width="60" height="60"><path d="M0 0L60 0L60 60L0 60L0 0Z" fill="rgb(25,169,141)" fill-opacity="1.000" fill-rule="nonzero" transform="matrix(1 0 0 1 0 0)"/><path d="M41.26 13.292C36.726 2.315 24.17 -2.903 13.235 1.64C2.299 6.183 -2.896 18.763 1.64 29.742C6.176 40.721 18.73 45.935 29.664 41.392C40.597 36.85 45.797 24.27 41.26 13.292Z" fill="rgb(0,0,0)" fill-opacity="1.000" fill-rule="nonzero" transform="matrix(1 0 0 1 9 8.1836)"/><path d="M27.813 1.537C17.555 -2.721 5.792 2.17 1.538 12.463C-2.715 22.755 2.154 34.548 12.409 38.805C22.665 43.061 34.429 38.174 38.682 27.881C42.935 17.589 38.068 5.792 27.813 1.537Z" fill="rgb(0,0,0)" fill-opacity="1.000" fill-rule="nonzero" transform="matrix(1 0 0 1 10.3418 9.5317)"/><path d="M35.649 17.893C35.649 8.002 27.669 0 17.82 0C7.971 0 0 8.002 0 17.893C0 27.784 7.98 35.787 17.82 35.787C27.661 35.787 35.649 27.776 35.649 17.893Z" fill="rgb(221,228,96)" fill-opacity="1.000" fill-rule="nonzero" transform="matrix(1 0 0 1 12.627 8.8911)"/><path d="M18.502 37.144C8.283 37.144 0 28.834 0 18.574C0 8.313 8.283 0 18.502 0C28.721 0 37.006 8.316 37.006 18.574C37.006 28.831 28.723 37.144 18.502 37.144ZM18.502 1.374C15.089 1.359 11.748 2.358 8.903 4.244C6.058 6.13 3.837 8.818 2.522 11.968C1.207 15.118 0.856 18.587 1.515 21.936C2.175 25.285 3.813 28.363 6.224 30.78C8.635 33.196 11.709 34.843 15.056 35.51C18.404 36.177 21.874 35.835 25.027 34.528C28.18 33.221 30.874 31.006 32.767 28.166C34.66 25.325 35.666 21.987 35.66 18.574C35.654 9.068 27.976 1.355 18.502 1.344L18.502 1.374Z" fill="rgb(0,0,0)" fill-opacity="1.000" fill-rule="nonzero" transform="matrix(1 0 0 1 11.9453 8)"/><path d="M29.602 14.854C29.602 6.658 22.975 0 14.803 0C6.632 0 0 6.651 0 14.854C0 23.057 6.627 29.706 14.796 29.706C22.966 29.706 29.595 23.055 29.595 14.854L29.602 14.854Z" fill="rgb(167,220,218)" fill-opacity="1.000" fill-rule="nonzero" transform="matrix(1 0 0 1 12.6621 20.1245)"/><path d="M15.499 31.048C14.399 31.048 13.302 30.931 12.226 30.699C3.875 28.907 -1.444 20.653 0.347 12.269C0.767 10.279 1.576 8.391 2.727 6.715C3.878 5.038 5.348 3.604 7.054 2.496C8.76 1.388 10.667 0.628 12.667 0.258C14.667 -0.112 16.72 -0.084 18.709 0.341C27.064 2.137 32.383 10.389 30.597 18.773C29.863 22.233 27.967 25.338 25.224 27.571C22.481 29.804 19.057 31.031 15.52 31.048L15.499 31.048ZM15.464 1.337C12.248 1.328 9.124 2.413 6.606 4.414C4.087 6.415 2.325 9.213 1.607 12.348C0.89 15.484 1.26 18.77 2.657 21.667C4.054 24.565 6.395 26.9 9.295 28.291C12.195 29.682 15.483 30.045 18.616 29.32C21.75 28.596 24.544 26.827 26.54 24.304C28.535 21.782 29.614 18.655 29.597 15.439C29.581 12.223 28.471 9.107 26.45 6.605C25.127 4.964 23.454 3.64 21.553 2.728C19.653 1.817 17.572 1.341 15.464 1.337Z" fill="rgb(0,0,0)" fill-opacity="1.000" fill-rule="nonzero" transform="matrix(1 0 0 1 11.9961 19.4595)"/><path d="M18.359 9.143C18.352 7.329 17.807 5.558 16.794 4.053C15.781 2.549 14.345 1.378 12.667 0.688C10.99 -0.001 9.145 -0.177 7.367 0.181C5.589 0.539 3.957 1.416 2.676 2.701C1.396 3.986 0.525 5.622 0.174 7.401C-0.177 9.181 0.006 11.024 0.702 12.7C1.397 14.375 2.574 15.806 4.082 16.814C5.591 17.821 7.364 18.359 9.178 18.359C10.386 18.357 11.581 18.117 12.697 17.653C13.812 17.188 14.824 16.509 15.677 15.653C16.529 14.797 17.205 13.782 17.665 12.665C18.125 11.548 18.36 10.351 18.357 9.143L18.359 9.143Z" fill="rgb(246,223,63)" fill-opacity="1.000" fill-rule="nonzero" transform="matrix(1 0 0 1 31.2109 26.4604)"/><path d="M9.928 19.778C7.97 19.786 6.054 19.213 4.423 18.13C2.792 17.048 1.518 15.507 0.764 13.7C0.009 11.894 -0.192 9.904 0.185 7.984C0.563 6.063 1.501 4.297 2.883 2.91C4.264 1.523 6.026 0.578 7.946 0.193C9.865 -0.192 11.856 0.002 13.665 0.749C15.474 1.496 17.021 2.764 18.109 4.391C19.198 6.018 19.779 7.932 19.779 9.889C19.781 11.185 19.528 12.469 19.035 13.668C18.541 14.866 17.816 15.956 16.901 16.874C15.986 17.792 14.9 18.521 13.703 19.02C12.507 19.518 11.224 19.776 9.928 19.778ZM9.928 1.35C8.236 1.342 6.58 1.837 5.17 2.772C3.76 3.706 2.66 5.038 2.007 6.599C1.355 8.16 1.18 9.879 1.506 11.539C1.832 13.199 2.642 14.725 3.836 15.923C5.03 17.122 6.552 17.94 8.21 18.272C9.869 18.605 11.589 18.438 13.152 17.792C14.716 17.147 16.053 16.051 16.993 14.645C17.934 13.239 18.436 11.586 18.436 9.894C18.44 8.774 18.224 7.664 17.798 6.628C17.373 5.591 16.747 4.649 15.956 3.855C15.166 3.061 14.226 2.431 13.192 2.001C12.157 1.571 11.048 1.35 9.928 1.35Z" fill="rgb(0,0,0)" fill-opacity="1.000" fill-rule="nonzero" transform="matrix(1 0 0 1 30.4609 25.7139)"/></svg>