<svg xmlns="http://www.w3.org/2000/svg" viewBox="0 0 60 60" width="60" height="60"><path d="M0 0L60 0L60 60L0 60L0 0Z" fill="rgb(255,255,255)" fill-opacity="1.000" fill-rule="nonzero" transform="matrix(1 0 0 1 0 0)"/><path d="M16.765 20.525C15.735 21.564 14.073 21.559 13.048 20.517L7.172 14.534C6.388 13.732 6.392 12.44 7.176 11.643L11.281 7.495C11.368 7.405 11.514 7.405 11.6 7.495L15.012 10.971L25.453 0.418C25.591 0.276 25.492 0.039 25.294 0.034L7.969 0C3.601 -0.009 0.056 3.58 0.043 8.012L0 28.826C0 29.119 0.28 29.334 0.564 29.261L6.733 27.616C7.586 27.387 8.469 27.271 9.352 27.267L20.577 27.202C22.309 27.202 23.976 26.509 25.195 25.264L31.88 18.479C33.215 17.122 33.969 15.283 33.974 13.366L33.991 5.738C33.991 5.087 33.883 4.463 33.685 3.881C33.633 3.726 33.431 3.687 33.315 3.804L16.752 20.543L16.765 20.525Z" fill="rgb(255,132,0)" fill-opacity="1.000" fill-rule="nonzero" transform="matrix(1 0 0 1 13 15)"/></svg>