<svg xmlns="http://www.w3.org/2000/svg" viewBox="0 0 130 60" width="130" height="60"><path d="M0 0L130 0L130 60L0 60L0 0Z" fill="rgb(255,255,255)" fill-opacity="1.000" fill-rule="nonzero" transform="matrix(1 0 0 1 0 0)"/><path d="M4.485 6.092C3.543 6.092 2.685 5.145 2.69 4.074C2.69 2.958 3.576 2.11 4.485 2.11C5.587 2.11 6.274 3.002 6.279 4.08C6.283 5.146 5.612 6.092 4.485 6.092ZM7.1 0.121C6.646 0.121 6.279 0.489 6.279 0.944C5.616 0.353 4.772 0 3.851 0C1.725 0 0 1.887 0 4.213C0 6.539 1.725 8.425 3.851 8.425C4.779 8.425 5.628 8.066 6.293 7.471L6.293 7.496C6.275 8.323 5.624 8.946 4.918 9.279C4.622 9.419 4.319 9.538 4.014 9.656C3.808 9.736 3.743 9.995 3.887 10.162L4.811 11.236C5.013 11.47 5.328 11.579 5.628 11.506C6.527 11.29 7.447 10.887 8.111 10.227C8.484 9.857 8.764 9.417 8.878 8.899C8.971 8.475 9.001 8.034 9.012 7.601C9.021 7.276 9.015 6.952 9.006 6.627C8.976 5.592 8.98 4.558 8.987 3.523L8.987 2.708C8.987 2.455 8.989 2.201 8.989 1.948L8.989 1.279C8.989 1.097 8.99 0.915 8.99 0.731L8.99 0.439C8.99 0.262 8.848 0.118 8.669 0.118L7.101 0.118L7.1 0.121Z" fill="rgb(255,132,0)" fill-opacity="1.000" fill-rule="nonzero" transform="matrix(1 0 0 1 51.4464 24.0281)"/><path d="M6.943 8.5C6.516 8.93 5.828 8.928 5.403 8.496L2.97 6.019C2.645 5.687 2.647 5.152 2.972 4.822L4.672 3.104C4.707 3.066 4.768 3.066 4.804 3.104L6.217 4.543L10.541 0.173C10.598 0.114 10.557 0.016 10.475 0.014L3.3 0C1.491 -0.004 0.023 1.482 0.018 3.318L0 11.937C0 12.059 0.116 12.148 0.234 12.117L2.788 11.436C3.141 11.341 3.507 11.293 3.873 11.292L8.521 11.265C9.238 11.265 9.929 10.978 10.434 10.462L13.202 7.653C13.755 7.091 14.067 6.329 14.069 5.535L14.076 2.376C14.076 2.107 14.031 1.848 13.949 1.607C13.928 1.543 13.844 1.527 13.796 1.575L6.937 8.507L6.943 8.5Z" fill="rgb(255,132,0)" fill-opacity="1.000" fill-rule="nonzero" transform="matrix(1 0 0 1 13 24.2082)"/><path d="M4.483 6.092C3.541 6.092 2.683 5.145 2.688 4.074C2.688 2.958 3.575 2.11 4.483 2.11C5.585 2.11 6.272 3.002 6.277 4.08C6.281 5.148 5.61 6.092 4.483 6.092ZM6.277 0.942C5.615 0.353 4.77 0 3.851 0C1.725 0 0 1.885 0 4.212C0 6.538 1.725 8.423 3.851 8.423C4.777 8.423 5.644 8.063 6.309 7.465L6.309 7.531C6.309 7.991 6.682 8.364 7.142 8.364L8.66 8.364C8.835 8.364 8.978 8.223 8.978 8.049C8.98 6.7 8.987 1.456 8.989 0.437C8.989 0.262 8.846 0.12 8.671 0.12L7.099 0.12C6.646 0.12 6.279 0.487 6.279 0.94L6.277 0.942Z" fill="rgb(255,132,0)" fill-opacity="1.000" fill-rule="nonzero" transform="matrix(1 0 0 1 41.8296 24.0209)"/><path d="M2.711 4.08C2.715 3.002 3.404 2.11 4.506 2.11C5.414 2.11 6.3 2.958 6.3 4.074C6.308 5.145 5.448 6.092 4.506 6.092C3.379 6.092 2.708 5.146 2.711 4.08ZM1.889 0.121L0.318 0.121C0.143 0.121 0 0.264 0 0.439C0 1.484 0.009 9.506 0.011 11.218C0.011 11.395 0.155 11.538 0.332 11.538L1.878 11.538C2.337 11.538 2.708 11.167 2.708 10.708L2.708 7.49C3.373 8.086 4.21 8.423 5.136 8.423C7.262 8.423 8.987 6.538 8.987 4.212C8.987 1.885 7.262 0 5.136 0C4.215 0 3.371 0.353 2.71 0.942C2.71 0.489 2.342 0.121 1.889 0.121Z" fill="rgb(255,132,0)" fill-opacity="1.000" fill-rule="nonzero" transform="matrix(1 0 0 1 32.2025 24.0209)"/><path d="M6.112 8.248C5.771 8.248 5.575 8.075 5.464 7.902C5.366 7.749 5.166 7.701 5.013 7.801C4.608 8.065 4.101 8.266 3.591 8.323C1.939 8.509 0.168 7.494 0.056 5.753C-0.042 4.046 0.016 2.542 0.029 0.799C0.029 0.275 0.473 0.005 0.819 0.005L2.378 0.005C2.555 0.005 2.699 0.148 2.699 0.326L2.699 1.256C2.699 2.306 2.685 3.223 2.701 4.274C2.71 4.873 2.89 5.416 3.484 5.69C4.387 6.11 5.371 5.508 5.402 4.415C5.437 3.107 5.402 0.817 5.402 0.792C5.402 0.271 5.803 0 6.14 0L7.763 0C7.94 0 8.085 0.143 8.085 0.321L8.085 7.929C8.085 8.106 7.942 8.25 7.763 8.25L6.112 8.25L6.112 8.248Z" fill="rgb(255,132,0)" fill-opacity="1.000" fill-rule="nonzero" transform="matrix(1 0 0 1 61.4437 24.1315)"/><path d="M5.815 3.339C5.585 2.645 5.039 2.279 4.285 2.277C3.535 2.277 2.949 2.659 2.693 3.339L5.817 3.339L5.815 3.339ZM7.776 5.338L2.784 5.338C3.33 6.425 4.827 6.612 6.491 5.858C6.798 5.718 7.253 6.395 7.403 6.676C7.544 6.94 7.604 7.24 7.388 7.449C6.118 8.678 3.767 8.926 2.048 7.945C0.198 6.89 -0.526 4.432 0.407 2.377C1.288 0.435 3.571 -0.477 5.744 0.247C7.587 0.861 8.621 2.718 8.327 4.859C8.289 5.133 8.054 5.338 7.777 5.338L7.776 5.338Z" fill="rgb(255,132,0)" fill-opacity="1.000" fill-rule="nonzero" transform="matrix(1 0 0 1 70.1625 24)"/><path d="M6.231 4.276C6.238 3.248 5.657 2.192 4.424 2.192C3.191 2.192 2.558 3.227 2.562 4.265C2.562 5.241 3.418 6.168 4.386 6.168C5.564 6.168 6.231 5.159 6.231 4.276ZM4.406 0C6.943 0.004 8.793 1.8 8.793 4.26C8.793 6.72 6.925 8.532 4.404 8.536C1.853 8.539 -0.011 6.718 0 4.231C0.009 1.766 1.852 -0.004 4.406 0Z" fill="rgb(255,132,0)" fill-opacity="1.000" fill-rule="nonzero" transform="matrix(1 0 0 1 100.7261 24.0067)"/><path d="M0.124 0.319C0.124 0.143 0.266 0 0.445 0L7.428 0C7.603 0 7.744 0.139 7.75 0.314C7.76 0.715 7.755 1.124 7.48 1.502C6.601 2.724 4.747 4.661 3.866 5.931L7.016 5.931C7.193 5.931 7.337 6.074 7.337 6.252L7.337 7.892C7.337 8.068 7.193 8.213 7.016 8.213C4.721 8.213 2.737 8.222 0.348 8.223C0.183 8.223 0.042 8.099 0.027 7.933C-0.023 7.394 -0.033 6.745 0.257 6.293C1.155 4.905 3.322 2.81 3.64 2.296L0.447 2.287C0.27 2.287 0.127 2.142 0.127 1.966L0.127 0.321L0.124 0.319Z" fill="rgb(255,132,0)" fill-opacity="1.000" fill-rule="nonzero" transform="matrix(1 0 0 1 109.5 24.1619)"/><path d="M2.093 0.007C2.326 0.007 2.676 0.184 2.819 0.535C3.325 1.782 3.794 3.043 4.278 4.299C4.362 4.519 4.453 4.734 4.574 5.034C5.161 3.487 5.728 2.034 6.261 0.566C6.413 0.15 6.597 0 7.075 0.005C7.785 0.013 8.245 0.005 8.789 0.004C9.017 0.004 9.173 0.234 9.087 0.446C8.775 1.211 8.475 1.946 8.17 2.678C7.449 4.41 6.716 6.135 6.006 7.872C5.885 8.168 5.742 8.307 5.403 8.291C4.815 8.263 4.222 8.302 3.634 8.27C3.475 8.261 3.241 8.133 3.184 7.997C2.118 5.487 1.065 2.972 0.023 0.451C-0.048 0.278 0.043 0 0.311 0C0.856 0 1.525 -0.002 2.091 0.007L2.093 0.007Z" fill="rgb(255,132,0)" fill-opacity="1.000" fill-rule="nonzero" transform="matrix(1 0 0 1 78.5301 24.1314)"/><path d="M0.321 0.005L2.223 0.005C2.676 0.005 3.043 0.373 3.043 0.826L3.043 5.869L3.76 5.872C3.935 5.872 4.076 6.015 4.076 6.19L4.076 8.065C4.076 8.172 3.989 8.257 3.883 8.257L3.045 8.252L0.587 8.252C0.48 8.252 0.394 8.166 0.394 8.059L0.394 2.519L0.195 2.519C0.087 2.519 0 2.431 0 2.324L0 0.321C0 0.144 0.143 0 0.321 0L0.321 0.005Z" fill="rgb(255,132,0)" fill-opacity="1.000" fill-rule="nonzero" transform="matrix(1 0 0 1 96.2544 24.1261)"/><path d="M5.815 3.339C5.585 2.645 5.039 2.279 4.285 2.277C3.535 2.277 2.949 2.659 2.694 3.339L5.817 3.339L5.815 3.339ZM7.776 5.338L2.784 5.338C3.33 6.425 4.827 6.612 6.491 5.858C6.798 5.718 7.253 6.395 7.403 6.676C7.544 6.94 7.604 7.24 7.389 7.449C6.118 8.678 3.767 8.926 2.048 7.945C0.198 6.89 -0.526 4.432 0.407 2.377C1.288 0.435 3.571 -0.477 5.744 0.247C7.586 0.861 8.621 2.718 8.327 4.859C8.289 5.133 8.054 5.338 7.777 5.338L7.776 5.338Z" fill="rgb(255,132,0)" fill-opacity="1.000" fill-rule="nonzero" transform="matrix(1 0 0 1 87.2471 24)"/></svg>