<svg xmlns="http://www.w3.org/2000/svg" viewBox="0 0 130 60" width="130" height="60"><path d="M0 0L130 0L130 60L0 60L0 0Z" fill="rgb(255,255,255)" fill-opacity="1.000" fill-rule="nonzero" transform="matrix(1 0 0 1 0 0)"/><path d="M10.681 0L6.408 0C2.869 0 0 2.869 0 6.408L0 10.679C0 14.217 2.869 17.085 6.408 17.085L10.68 17.085C14.219 17.085 17.088 14.217 17.088 10.678C17.088 10.678 17.088 10.678 17.088 10.678L17.088 6.406C17.088 2.869 14.219 0.001 10.681 0ZM13.562 10.373C12.551 13.144 9.485 14.571 6.713 13.56C5.232 13.02 4.066 11.854 3.526 10.373C3.443 10.151 3.556 9.905 3.778 9.822C3.79 9.818 3.803 9.814 3.815 9.811L5.578 9.336C5.783 9.281 5.998 9.385 6.081 9.58C6.654 10.939 8.22 11.576 9.579 11.003C10.221 10.732 10.731 10.222 11.002 9.58C11.085 9.385 11.3 9.28 11.505 9.336L13.268 9.811C13.497 9.87 13.634 10.104 13.575 10.333C13.571 10.347 13.567 10.36 13.562 10.373Z" fill="rgb(51,102,255)" fill-opacity="1.000" fill-rule="nonzero" transform="matrix(1 0 0 1 10 21)"/><path d="M5.039 1.886C3.967 1.886 2.999 1.246 2.581 0.259C2.498 0.064 2.284 -0.041 2.079 0.015L0.316 0.489C0.088 0.551 -0.047 0.786 0.015 1.014C0.018 1.027 0.022 1.039 0.027 1.051C1.036 3.818 4.098 5.243 6.866 4.234C8.345 3.695 9.51 2.53 10.05 1.051C10.132 0.829 10.018 0.583 9.797 0.501C9.785 0.497 9.772 0.493 9.76 0.489L7.997 0.015C7.792 -0.04 7.578 0.064 7.494 0.259C7.077 1.246 6.109 1.886 5.037 1.886" fill="rgb(0,0,0)" fill-opacity="1.000" fill-rule="evenodd" transform="matrix(1 0 0 1 13.501 30.334)"/><path d="M302.159 0L0 0L0 182.808L302.159 182.808L302.159 0Z" fill="rgb(0,0,0)" fill-opacity="1.000" fill-rule="nonzero" transform="matrix(1 0 0 1 -162.0687 -76.3375)"/><path d="M10.761 0L0 0L0 5.24L10.761 5.24L10.761 0Z" fill="rgb(255,255,255)" fill-opacity="1.000" fill-rule="nonzero" transform="matrix(1 0 0 1 13.1589 29.9889)"/><path d="M3.701 0C4.458 0 5.116 0.126 5.673 0.378C6.198 0.604 6.646 0.977 6.962 1.453C7.263 1.918 7.413 2.467 7.413 3.101C7.413 3.728 7.263 4.276 6.962 4.744C6.648 5.222 6.2 5.596 5.673 5.819C5.115 6.067 4.457 6.191 3.701 6.191L1.979 6.191L1.979 8.547L0 8.547L0 0L3.701 0ZM3.459 1.615L1.974 1.615L1.974 4.579L3.353 4.579C3.387 4.579 3.421 4.579 3.458 4.579L3.933 4.579C4.752 4.562 5.402 3.883 5.385 3.064C5.368 2.269 4.728 1.629 3.933 1.612L3.459 1.615Z" fill="rgb(0,0,0)" fill-opacity="1.000" fill-rule="nonzero" transform="matrix(1 0 0 1 31.3334 25.2259)"/><path d="M7.157 0.099L7.157 6.668L5.337 6.668L5.337 5.91C4.865 6.48 4.181 6.765 3.286 6.765C2.699 6.773 2.121 6.631 1.606 6.35C1.108 6.076 0.699 5.665 0.427 5.166C0.142 4.653 0 4.058 0 3.383C0 2.708 0.142 2.113 0.427 1.6C0.699 1.101 1.108 0.69 1.606 0.416C2.121 0.136 2.699 -0.008 3.286 0C4.124 0 4.779 0.265 5.252 0.794L5.252 0.099L7.157 0.099ZM3.522 1.56C2.513 1.56 1.696 2.377 1.696 3.386C1.696 4.394 2.513 5.211 3.522 5.211C4.53 5.211 5.347 4.394 5.347 3.386C5.347 2.377 4.53 1.56 3.522 1.56Z" fill="rgb(0,0,0)" fill-opacity="1.000" fill-rule="nonzero" transform="matrix(1 0 0 1 39.5993 27.1057)"/><path d="M1.821 0.965C2.054 0.644 2.374 0.394 2.742 0.245C3.168 0.075 3.622 -0.008 4.08 0.001L4.08 1.759C3.868 1.743 3.725 1.735 3.652 1.735C3.107 1.735 2.68 1.887 2.37 2.193C2.06 2.498 1.906 2.956 1.906 3.566L1.906 6.668L0 6.668L0 0.099L1.82 0.099L1.821 0.965Z" fill="rgb(0,0,0)" fill-opacity="1.000" fill-rule="nonzero" transform="matrix(1 0 0 1 48.3479 27.1054)"/><path d="M4.812 3.819C4.812 3.798 4.812 3.777 4.812 3.756L4.812 3.015C4.795 2.211 4.129 1.574 3.326 1.591C2.547 1.608 1.919 2.236 1.902 3.015L1.902 3.756C1.902 3.779 1.902 3.801 1.902 3.824L1.902 6.668L0 6.668L0 0.098L1.819 0.098L1.819 0.867C2.08 0.585 2.402 0.366 2.76 0.227C3.153 0.073 3.572 -0.004 3.994 0C4.807 0 5.465 0.244 5.966 0.733C6.467 1.222 6.717 1.946 6.717 2.907L6.717 6.668L4.812 6.668L4.812 3.819Z" fill="rgb(0,0,0)" fill-opacity="1.000" fill-rule="nonzero" transform="matrix(1 0 0 1 62.0131 27.1058)"/><path d="M1.196 0L4.513 0L2.496 1.234L0 1.234L1.196 0Z" fill="rgb(0,0,0)" fill-opacity="1.000" fill-rule="nonzero" transform="matrix(1 0 0 1 72.3818 24.6638)"/><path d="M6.278 4.103C6.732 4.234 7.134 4.505 7.426 4.878C7.702 5.24 7.841 5.685 7.841 6.215C7.841 6.965 7.55 7.54 6.968 7.943C6.386 8.345 5.537 8.547 4.421 8.547L0 8.547L0 0L4.177 0C5.217 0 6.017 0.199 6.577 0.598C7.136 0.997 7.415 1.539 7.413 2.225C7.43 3.019 6.988 3.751 6.278 4.105L6.278 4.103ZM3.09 4.941L2.015 4.941L2.015 7.09L4.773 7.09C5.367 7.09 5.848 6.609 5.848 6.016C5.848 5.422 5.367 4.941 4.773 4.941L3.09 4.941ZM2.961 1.615L2.012 1.615L2.012 3.507L4.479 3.507C5.001 3.462 5.389 3.003 5.345 2.481C5.306 2.02 4.94 1.654 4.479 1.615L2.961 1.615Z" fill="rgb(0,0,0)" fill-opacity="1.000" fill-rule="nonzero" transform="matrix(1 0 0 1 79.4887 25.2259)"/><path d="M3.784 1.57C3.739 1.566 3.692 1.564 3.644 1.564C3.454 1.564 3.266 1.596 3.087 1.658C2.846 1.738 2.627 1.875 2.449 2.056C2.365 2.14 2.29 2.233 2.228 2.334C2.05 2.607 1.956 2.926 1.957 3.251L1.957 3.525C1.957 4.457 2.712 5.212 3.644 5.212C3.739 5.212 3.834 5.204 3.928 5.189C4.458 5.12 4.868 4.824 5.159 4.3L6.636 5.106C6.402 5.625 6.006 6.053 5.507 6.327C4.99 6.62 4.386 6.766 3.693 6.766C3.038 6.777 2.391 6.628 1.806 6.333C0.177 5.501 -0.469 3.506 0.364 1.877C0.68 1.256 1.185 0.751 1.806 0.434C2.391 0.139 3.038 -0.01 3.693 0.001C4.385 0.001 4.989 0.145 5.507 0.434C6.011 0.709 6.409 1.146 6.636 1.674L5.159 2.467C4.836 1.9 4.377 1.601 3.784 1.57Z" fill="rgb(0,0,0)" fill-opacity="1.000" fill-rule="nonzero" transform="matrix(1 0 0 1 105.1194 27.1021)"/><path d="M3.615 6.765C2.968 6.776 2.329 6.627 1.753 6.332C1.22 6.058 0.774 5.642 0.464 5.129C-0.155 4.047 -0.155 2.718 0.464 1.637C0.774 1.124 1.22 0.707 1.753 0.434C2.925 -0.145 4.3 -0.145 5.472 0.434C6.002 0.709 6.446 1.125 6.754 1.637C7.373 2.719 7.373 4.047 6.754 5.129C6.446 5.64 6.002 6.057 5.472 6.332C4.898 6.627 4.26 6.776 3.615 6.765ZM3.609 5.206C4.616 5.206 5.432 4.39 5.433 3.383C5.434 2.376 4.617 1.56 3.61 1.559C2.603 1.559 1.787 2.375 1.786 3.382C1.786 3.383 1.786 3.385 1.786 3.386C1.787 4.392 2.603 5.207 3.609 5.208L3.609 5.206Z" fill="rgb(0,0,0)" fill-opacity="1.000" fill-rule="nonzero" transform="matrix(1 0 0 1 112.782 27.106)"/><path d="M7.156 0.099L7.156 6.668L5.337 6.668L5.337 5.91C4.864 6.48 4.18 6.765 3.285 6.765C2.699 6.773 2.121 6.631 1.606 6.35C1.108 6.076 0.699 5.665 0.427 5.166C0.142 4.653 0 4.058 0 3.383C0 2.708 0.142 2.113 0.427 1.6C0.698 1.101 1.108 0.69 1.606 0.416C2.121 0.136 2.699 -0.008 3.285 0C4.124 0 4.779 0.265 5.252 0.794L5.252 0.099L7.156 0.099ZM3.521 1.56C2.513 1.56 1.695 2.377 1.695 3.386C1.695 4.394 2.513 5.211 3.521 5.211C4.529 5.211 5.346 4.394 5.346 3.386C5.346 2.377 4.529 1.56 3.521 1.56Z" fill="rgb(0,0,0)" fill-opacity="1.000" fill-rule="nonzero" transform="matrix(1 0 0 1 53.2637 27.1057)"/><path d="M7.156 0.099L7.156 6.668L5.337 6.668L5.337 5.91C4.865 6.48 4.181 6.765 3.286 6.765C2.699 6.773 2.121 6.631 1.606 6.35C1.108 6.076 0.699 5.665 0.427 5.166C0.142 4.653 0 4.058 0 3.383C0 2.708 0.142 2.113 0.427 1.6C0.699 1.101 1.109 0.69 1.607 0.416C2.122 0.136 2.7 -0.008 3.287 0C4.125 0 4.781 0.265 5.254 0.794L5.254 0.099L7.156 0.099ZM3.52 1.56C2.512 1.56 1.695 2.377 1.695 3.386C1.695 4.394 2.512 5.211 3.52 5.211C4.529 5.211 5.346 4.394 5.346 3.386C5.346 2.377 4.529 1.56 3.52 1.56Z" fill="rgb(0,0,0)" fill-opacity="1.000" fill-rule="nonzero" transform="matrix(1 0 0 1 69.872 27.1057)"/><path d="M7.156 0.099L7.156 6.668L5.337 6.668L5.337 5.91C4.865 6.48 4.181 6.765 3.285 6.765C2.699 6.773 2.121 6.631 1.606 6.35C1.108 6.076 0.699 5.665 0.427 5.166C0.142 4.653 0 4.058 0 3.383C0 2.708 0.142 2.113 0.427 1.6C0.698 1.101 1.107 0.69 1.606 0.416C2.121 0.136 2.699 -0.008 3.285 0C4.124 0 4.78 0.265 5.251 0.794L5.251 0.099L7.156 0.099ZM3.521 1.56C2.513 1.56 1.695 2.377 1.695 3.386C1.695 4.394 2.513 5.211 3.521 5.211C4.529 5.211 5.346 4.394 5.346 3.386C5.346 2.377 4.529 1.56 3.521 1.56Z" fill="rgb(0,0,0)" fill-opacity="1.000" fill-rule="nonzero" transform="matrix(1 0 0 1 88.4584 27.1057)"/><path d="M4.812 3.819C4.812 3.798 4.812 3.777 4.812 3.756L4.812 3.015C4.794 2.211 4.129 1.574 3.326 1.591C2.546 1.608 1.919 2.236 1.902 3.015L1.902 3.756C1.902 3.779 1.902 3.801 1.902 3.824L1.902 6.668L0 6.668L0 0.098L1.819 0.098L1.819 0.867C2.081 0.585 2.402 0.366 2.76 0.227C3.153 0.073 3.572 -0.004 3.994 0C4.807 0 5.465 0.244 5.966 0.733C6.467 1.222 6.718 1.946 6.717 2.907L6.717 6.668L4.812 6.668L4.812 3.819Z" fill="rgb(0,0,0)" fill-opacity="1.000" fill-rule="nonzero" transform="matrix(1 0 0 1 97.2078 27.1058)"/></svg>