<svg xmlns="http://www.w3.org/2000/svg" viewBox="0 0 60 60" width="60" height="60"><path d="M0 0L60 0L60 60L0 60L0 0Z" fill="rgb(255,255,255)" fill-opacity="1.000" fill-rule="nonzero" transform="matrix(1 0 0 1 0 0)"/><path d="M26.876 0L16.126 0C7.219 0.001 0 7.221 0 16.127L0 26.877C0.001 35.781 7.219 42.999 16.124 43L26.874 43C35.78 43 43 35.781 43 26.875C43 26.874 43 26.874 43 26.873L43 16.123C42.998 7.219 35.78 0.002 26.876 0ZM34.127 26.107C31.583 33.081 23.867 36.672 16.893 34.128C13.167 32.769 10.231 29.833 8.872 26.107C8.664 25.549 8.949 24.928 9.507 24.721C9.538 24.709 9.569 24.699 9.6 24.691L14.037 23.496C14.553 23.358 15.092 23.619 15.301 24.111C16.744 27.53 20.685 29.133 24.105 27.691C25.719 27.01 27.004 25.725 27.685 24.111C27.894 23.619 28.434 23.357 28.949 23.496L33.386 24.691C33.962 24.841 34.308 25.43 34.158 26.006C34.149 26.04 34.139 26.074 34.127 26.107Z" fill="rgb(51,102,255)" fill-opacity="1.000" fill-rule="nonzero" transform="matrix(1 0 0 1 8 8)"/></svg>