<svg xmlns="http://www.w3.org/2000/svg" viewBox="0 0 60 60" width="60" height="60"><path d="M0 0L60 0L60 60L0 60L0 0Z" fill="rgb(0,156,59)" fill-opacity="1.000" fill-rule="nonzero" transform="matrix(1 0 0 1 0 0)"/><path d="M1.576 32.359L0 28.67C6.41 26.175 11.331 22.438 15.043 17.245C18.216 12.783 20.502 6.98 21.835 0L25.943 0.715C24.504 8.243 21.999 14.557 18.494 19.485C14.361 25.267 8.669 29.598 1.576 32.359Z" fill="rgb(255,255,255)" fill-opacity="1.000" fill-rule="evenodd" transform="matrix(1 0 0 1 20.4375 13.7275)"/><path d="M7.185 13.35C6.18 11.499 0.971 3.597 0 2.191L3.485 0C4.543 1.532 9.784 9.478 10.892 11.517L7.185 13.35Z" fill="rgb(255,255,255)" fill-opacity="1.000" fill-rule="evenodd" transform="matrix(1 0 0 1 13 17.373)"/><path d="M7.186 13.35C6.18 11.499 0.971 3.597 0 2.191L3.486 0C4.543 1.532 9.785 9.478 10.892 11.517L7.186 13.35Z" fill="rgb(255,255,255)" fill-opacity="1.000" fill-rule="evenodd" transform="matrix(1 0 0 1 21.7813 13)"/></svg>