<svg xmlns="http://www.w3.org/2000/svg" viewBox="0 0 130 60" width="130" height="60"><path d="M0 0L130 0L130 60L0 60L0 0Z" fill="rgb(255,255,255)" fill-opacity="1.000" fill-rule="nonzero" transform="matrix(1 0 0 1 0 0)"/><path d="M8.633 6.445C8.633 5.241 8.385 4.263 7.89 3.51C7.394 2.756 6.643 2.379 5.636 2.379C4.441 2.379 3.582 2.852 3.058 3.797L3.058 9.363C3.59 10.324 4.457 10.804 5.661 10.804C6.66 10.804 7.405 10.421 7.896 9.656C8.387 8.89 8.633 7.902 8.633 6.691L8.633 6.445ZM9.314 0.797C10.095 1.328 10.687 2.078 11.088 3.047C11.49 4.016 11.69 5.148 11.69 6.445L11.69 6.691C11.69 7.933 11.488 9.042 11.082 10.019C10.678 10.995 10.086 11.761 9.308 12.315C8.53 12.871 7.602 13.147 6.52 13.147C5.097 13.147 3.942 12.69 3.058 11.776L3.058 17.788L0 17.788L0 0.234L2.812 0.234L2.935 1.511C3.827 0.504 5.01 0 6.484 0C7.589 0 8.532 0.266 9.314 0.797Z" fill="rgb(38,50,56)" fill-opacity="1.000" fill-rule="evenodd" transform="matrix(1 0 0 1 9 23.8621)"/><path d="M6.809 10.382C7.305 10.093 7.666 9.746 7.896 9.339L7.896 6.972L6.3 6.972C5.236 6.972 4.429 7.156 3.88 7.523C3.332 7.89 3.058 8.405 3.058 9.07C3.058 9.586 3.238 10.005 3.598 10.329C3.958 10.654 4.462 10.815 5.109 10.815C5.747 10.815 6.314 10.671 6.809 10.382ZM11.457 12.714L11.457 12.913L8.339 12.913C8.207 12.64 8.092 12.245 7.994 11.729C7.577 12.159 7.077 12.503 6.496 12.761C5.915 13.018 5.256 13.147 4.52 13.147C3.651 13.147 2.873 12.983 2.186 12.655C1.498 12.327 0.962 11.874 0.577 11.296C0.193 10.718 0 10.07 0 9.35C0 8 0.526 6.964 1.579 6.246C2.63 5.527 4.123 5.168 6.054 5.168L7.896 5.168L7.896 4.347C7.896 3.676 7.704 3.151 7.319 2.772C6.934 2.392 6.365 2.203 5.612 2.203C5.161 2.203 4.764 2.277 4.421 2.426C4.077 2.575 3.811 2.778 3.623 3.035C3.434 3.293 3.341 3.582 3.341 3.902L0.283 3.902C0.283 3.222 0.509 2.584 0.964 1.986C1.419 1.388 2.066 0.908 2.905 0.545C3.744 0.182 4.703 0 5.784 0C6.799 0 7.695 0.164 8.473 0.493C9.251 0.82 9.858 1.312 10.297 1.969C10.735 2.625 10.954 3.426 10.954 4.371L10.954 9.96C10.954 11.117 11.121 12.034 11.457 12.714Z" fill="rgb(38,50,56)" fill-opacity="1.000" fill-rule="evenodd" transform="matrix(1 0 0 1 22.2268 23.8621)"/><path d="M11.998 0L6.705 14.6C6.369 15.475 5.889 16.227 5.262 16.856C4.636 17.485 3.741 17.799 2.579 17.799C2.177 17.799 1.69 17.729 1.118 17.589L1.118 15.35L1.682 15.373C2.411 15.373 2.966 15.25 3.347 15.004C3.727 14.758 4.028 14.327 4.249 13.71L4.667 12.631L0 0L3.303 0L6.066 8.508L8.743 0L11.998 0Z" fill="rgb(38,50,56)" fill-opacity="1.000" fill-rule="evenodd" transform="matrix(1 0 0 1 34.3698 24.0948)"/><path d="M9.049 2.906C8.68 3.25 8.496 3.738 8.496 4.371L8.496 5.567L11.185 5.567L11.185 7.723L8.496 7.723L8.496 18.245L5.438 18.245L5.438 7.723L0 7.723L0 5.567L5.438 5.567L5.438 4.371C5.438 3.441 5.627 2.649 6.003 1.993C6.38 1.336 6.92 0.84 7.624 0.504C8.328 0.168 9.163 0 10.129 0C10.67 0 11.235 0.071 11.824 0.211L11.75 2.496C11.431 2.426 11.05 2.39 10.608 2.39C9.937 2.39 9.417 2.563 9.049 2.906Z" fill="rgb(38,50,56)" fill-opacity="1.000" fill-rule="evenodd" transform="matrix(1 0 0 1 43.1372 18.5313)"/><path d="M6.809 10.382C7.305 10.093 7.666 9.746 7.896 9.339L7.896 6.972L6.3 6.972C5.236 6.972 4.43 7.156 3.88 7.523C3.332 7.89 3.058 8.405 3.058 9.07C3.058 9.586 3.238 10.005 3.598 10.329C3.958 10.654 4.462 10.815 5.109 10.815C5.747 10.815 6.314 10.671 6.809 10.382ZM11.458 12.714L11.458 12.913L8.339 12.913C8.207 12.64 8.093 12.245 7.994 11.729C7.577 12.159 7.077 12.503 6.496 12.761C5.915 13.018 5.256 13.147 4.52 13.147C3.651 13.147 2.874 12.983 2.186 12.655C1.498 12.327 0.962 11.874 0.577 11.296C0.193 10.718 0 10.07 0 9.35C0 8 0.526 6.964 1.579 6.246C2.63 5.527 4.123 5.168 6.054 5.168L7.896 5.168L7.896 4.347C7.896 3.676 7.704 3.151 7.319 2.772C6.935 2.392 6.366 2.203 5.612 2.203C5.161 2.203 4.765 2.277 4.421 2.426C4.077 2.575 3.811 2.778 3.623 3.035C3.434 3.293 3.341 3.582 3.341 3.902L0.283 3.902C0.283 3.222 0.51 2.584 0.964 1.986C1.419 1.388 2.066 0.908 2.905 0.545C3.744 0.182 4.703 0 5.784 0C6.799 0 7.695 0.164 8.474 0.493C9.251 0.82 9.858 1.312 10.297 1.969C10.735 2.625 10.954 3.426 10.954 4.371L10.954 9.96C10.954 11.117 11.121 12.034 11.458 12.714Z" fill="rgb(38,50,56)" fill-opacity="1.000" fill-rule="evenodd" transform="matrix(1 0 0 1 55.5288 23.8621)"/><path d="M11.494 8.694C11.469 9.507 11.211 10.252 10.72 10.933C10.229 11.612 9.574 12.151 8.756 12.55C7.937 12.947 7.041 13.147 6.066 13.147C4.748 13.147 3.633 12.866 2.72 12.304C1.807 11.741 1.126 10.977 0.676 10.012C0.226 9.047 0 7.968 0 6.773L0 6.374C0 5.179 0.227 4.099 0.682 3.134C1.136 2.17 1.817 1.406 2.726 0.844C3.636 0.281 4.745 0 6.054 0C7.111 0 8.045 0.201 8.86 0.603C9.674 1.005 10.311 1.57 10.769 2.296C11.228 3.023 11.469 3.855 11.494 4.792L8.609 4.792C8.583 4.339 8.465 3.927 8.252 3.556C8.039 3.185 7.743 2.89 7.362 2.671C6.981 2.452 6.533 2.343 6.017 2.343C4.929 2.343 4.163 2.722 3.721 3.48C3.278 4.238 3.058 5.203 3.058 6.374L3.058 6.773C3.058 9.46 4.048 10.803 6.03 10.803C6.496 10.803 6.922 10.714 7.307 10.534C7.692 10.354 7.998 10.104 8.228 9.784C8.457 9.464 8.583 9.1 8.609 8.694L11.494 8.694Z" fill="rgb(38,50,56)" fill-opacity="1.000" fill-rule="evenodd" transform="matrix(1 0 0 1 68.4971 23.8649)"/><path d="M8.718 5.156C8.677 4.335 8.444 3.662 8.019 3.134C7.593 2.607 6.929 2.343 6.029 2.343C5.226 2.343 4.58 2.609 4.089 3.14C3.599 3.671 3.282 4.418 3.144 5.378L8.718 5.378L8.718 5.156ZM11.74 7.487L3.082 7.487C3.139 8.136 3.315 8.711 3.611 9.21C3.905 9.71 4.303 10.101 4.808 10.382C5.311 10.663 5.898 10.803 6.57 10.803C7.945 10.803 9.05 10.288 9.885 9.257L11.518 10.768C11.034 11.449 10.364 12.015 9.505 12.467C8.645 12.92 7.605 13.147 6.385 13.147C5.092 13.147 3.961 12.879 2.996 12.344C2.03 11.809 1.29 11.077 0.773 10.147C0.258 9.217 0 8.175 0 7.019L0 6.538C0 5.234 0.262 4.087 0.786 3.099C1.31 2.111 2.03 1.347 2.947 0.808C3.864 0.269 4.895 0 6.041 0C7.295 0 8.345 0.262 9.197 0.785C10.049 1.308 10.685 2.04 11.106 2.982C11.529 3.923 11.74 5.015 11.74 6.257L11.74 7.487Z" fill="rgb(38,50,56)" fill-opacity="1.000" fill-rule="evenodd" transform="matrix(1 0 0 1 81.2044 23.8649)"/><path d="M1.003 20.592L0 18.244C4.079 16.657 7.211 14.279 9.573 10.974C11.592 8.134 13.047 4.442 13.895 0L16.509 0.455C15.593 5.246 13.999 9.264 11.769 12.399C9.139 16.079 5.517 18.835 1.003 20.592Z" fill="rgb(0,156,59)" fill-opacity="1.000" fill-rule="evenodd" transform="matrix(1 0 0 1 104.4885 18.463)"/><path d="M4.572 8.495C3.933 7.317 0.618 2.289 0 1.394L2.218 0C2.891 0.975 6.226 6.031 6.931 7.329L4.572 8.495Z" fill="rgb(0,156,59)" fill-opacity="1.000" fill-rule="evenodd" transform="matrix(1 0 0 1 99.7556 20.7828)"/><path d="M4.573 8.495C3.933 7.317 0.618 2.289 0 1.394L2.218 0C2.891 0.975 6.227 6.031 6.931 7.329L4.573 8.495Z" fill="rgb(0,156,59)" fill-opacity="1.000" fill-rule="evenodd" transform="matrix(1 0 0 1 105.3436 18)"/></svg>