<svg xmlns="http://www.w3.org/2000/svg" viewBox="0 0 60 60" width="60" height="60"><path d="M0 0L60 0L60 60L0 60L0 0Z" fill="rgb(255,255,255)" fill-opacity="1.000" fill-rule="nonzero" transform="matrix(1 0 0 1 0 0)"/><path d="M27.488 0L0 0L0 13.781L27.488 13.781L27.488 0Z" fill="rgb(0,0,0)" fill-opacity="1.000" fill-rule="nonzero" transform="matrix(1 0 0 1 18.5139 11.6606)"/><path d="M25.506 3.778L25.506 11.61L15.971 11.61C15.316 11.615 14.674 11.431 14.12 11.08L9.656 8.278C9.288 8.046 8.881 7.884 8.454 7.802C8.361 7.782 8.275 7.735 8.207 7.668C8.139 7.601 8.091 7.516 8.069 7.423C7.667 5.572 6.649 3.914 5.183 2.721C3.716 1.527 1.889 0.869 0 0.855L0 0L7.342 0C7.931 0.003 8.51 0.154 9.025 0.44L14.234 3.32C14.75 3.604 15.328 3.753 15.916 3.753L25.506 3.778Z" fill="rgb(241,144,33)" fill-opacity="1.000" fill-rule="nonzero" transform="matrix(1 0 0 1 19.0992 12.4265)"/><path d="M24.052 0L0 0L0 12.059L24.052 12.059L24.052 0Z" fill="rgb(0,0,0)" fill-opacity="1.000" fill-rule="nonzero" transform="matrix(1 0 0 1 20.2031 24.2311)"/><path d="M22.339 2.95L22.339 9.83L13.995 9.83C13.423 9.832 12.861 9.671 12.376 9.366L8.47 6.92C7.981 6.609 7.413 6.445 6.835 6.445L0 6.445L0 5.581C1.568 5.568 3.09 5.048 4.339 4.098C5.588 3.148 6.499 1.819 6.935 0.309C6.967 0.201 7.041 0.111 7.138 0.056C7.236 0.001 7.352 -0.014 7.46 0.014L7.539 0.045L12.103 2.576C12.554 2.823 13.06 2.951 13.575 2.95L22.339 2.95Z" fill="rgb(254,71,27)" fill-opacity="1.000" fill-rule="nonzero" transform="matrix(1 0 0 1 20.6937 25.3138)"/><path d="M32.069 0L0 0L0 13.781L32.069 13.781L32.069 0Z" fill="rgb(0,0,0)" fill-opacity="1.000" fill-rule="nonzero" transform="matrix(1 0 0 1 13 35.832)"/><path d="M14.823 8.242L19.281 11.043C19.836 11.393 20.477 11.579 21.132 11.58L30.673 11.58L30.673 3.747L20.675 3.747C20.087 3.747 19.508 3.598 18.993 3.314L13.783 0.434C13.268 0.15 12.689 0.001 12.101 0L0 0L0 7.742L12.93 7.742C13.596 7.724 14.253 7.897 14.823 8.242Z" fill="rgb(232,90,39)" fill-opacity="1.000" fill-rule="nonzero" transform="matrix(1 0 0 1 13 36.6691)"/></svg>