<svg xmlns="http://www.w3.org/2000/svg" viewBox="0 0 130 60" width="130" height="60"><path d="M0 0L130 0L130 60L0 60L0 0Z" fill="rgb(255,255,255)" fill-opacity="1.000" fill-rule="nonzero" transform="matrix(1 0 0 1 0 0)"/><path d="M10.496 0L0 0L0 14.735L10.496 14.735L10.496 0Z" fill="rgb(0,0,0)" fill-opacity="1.000" fill-rule="nonzero" transform="matrix(1 0 0 1 37.5601 20.8902)"/><path d="M0 13.448L0 0.003L5.295 0.003C6.196 -0.026 7.09 0.174 7.894 0.582C8.589 0.946 9.164 1.505 9.546 2.192C9.932 2.919 10.126 3.734 10.11 4.558C10.127 5.383 9.929 6.197 9.535 6.921C9.152 7.604 8.577 8.159 7.883 8.517C7.063 8.917 6.159 9.113 5.248 9.088L1.867 9.088L1.867 6.816L4.782 6.816C5.249 6.836 5.713 6.741 6.134 6.54C6.475 6.364 6.754 6.088 6.933 5.748C7.107 5.382 7.197 4.981 7.197 4.576C7.197 4.17 7.107 3.77 6.933 3.404C6.754 3.065 6.472 2.792 6.129 2.623C5.699 2.421 5.227 2.326 4.752 2.347L2.825 2.347L2.825 13.464L0 13.448Z" fill="rgb(38,58,117)" fill-opacity="1.000" fill-rule="nonzero" transform="matrix(1 0 0 1 37.7904 21.5525)"/><path d="M10.054 0L0 0L0 11.522L10.054 11.522L10.054 0Z" fill="rgb(0,0,0)" fill-opacity="1.000" fill-rule="nonzero" transform="matrix(1 0 0 1 49.6969 24.5086)"/><path d="M3.428 10.686C2.823 10.697 2.223 10.578 1.667 10.338C1.169 10.12 0.745 9.762 0.447 9.306C0.178 8.828 0.026 8.292 0.003 7.744C-0.02 7.195 0.088 6.649 0.316 6.15C0.516 5.77 0.807 5.446 1.164 5.209C1.545 4.963 1.963 4.781 2.402 4.671C2.881 4.547 3.37 4.461 3.863 4.413C4.465 4.351 4.948 4.291 5.315 4.234C5.596 4.206 5.869 4.12 6.115 3.982C6.196 3.928 6.261 3.853 6.305 3.766C6.348 3.678 6.369 3.581 6.364 3.483L6.364 3.441C6.374 3.257 6.344 3.073 6.275 2.902C6.207 2.731 6.101 2.577 5.965 2.452C5.644 2.201 5.242 2.076 4.835 2.101C4.398 2.078 3.966 2.197 3.603 2.441C3.313 2.649 3.101 2.948 2.998 3.291L0.353 3.075C0.473 2.473 0.742 1.911 1.136 1.441C1.553 0.967 2.079 0.602 2.668 0.378C3.361 0.114 4.099 -0.014 4.841 0.001C5.402 -0.002 5.961 0.067 6.505 0.205C7.009 0.329 7.487 0.541 7.918 0.831C8.324 1.11 8.658 1.484 8.89 1.919C9.139 2.41 9.262 2.956 9.249 3.506L9.249 10.488L6.525 10.488L6.525 9.048L6.446 9.048C6.279 9.372 6.053 9.66 5.779 9.898C5.485 10.15 5.145 10.343 4.778 10.465C4.344 10.615 3.887 10.69 3.428 10.686ZM4.247 8.703C4.639 8.713 5.028 8.626 5.377 8.448C5.687 8.291 5.949 8.056 6.138 7.765C6.325 7.474 6.423 7.134 6.42 6.787L6.42 5.682C6.309 5.751 6.19 5.803 6.064 5.838C5.893 5.891 5.72 5.934 5.544 5.968C5.352 6.008 5.157 6.039 4.979 6.068L4.456 6.147C4.154 6.187 3.857 6.266 3.575 6.382C3.34 6.47 3.133 6.62 2.976 6.816C2.83 7.012 2.755 7.251 2.764 7.496C2.754 7.669 2.788 7.842 2.863 7.999C2.938 8.156 3.052 8.29 3.193 8.391C3.515 8.606 3.897 8.712 4.284 8.694L4.247 8.703Z" fill="rgb(38,58,117)" fill-opacity="1.000" fill-rule="nonzero" transform="matrix(1 0 0 1 49.8717 24.8983)"/><path d="M11.601 0L0 0L0 15.268L11.601 15.268L11.601 0Z" fill="rgb(0,0,0)" fill-opacity="1.000" fill-rule="nonzero" transform="matrix(1 0 0 1 60.7793 24.7321)"/><path d="M2.61 14.367C2.265 14.367 1.921 14.338 1.58 14.281C1.31 14.237 1.045 14.166 0.79 14.066L1.444 11.903C1.741 12.001 2.05 12.057 2.362 12.072C2.613 12.088 2.861 12.021 3.07 11.881C3.3 11.706 3.472 11.464 3.56 11.188L3.732 10.745L0 0L3.038 0L5.198 7.675L5.306 7.675L7.48 0L10.539 0L6.476 11.566C6.297 12.099 6.03 12.598 5.686 13.042C5.347 13.463 4.913 13.796 4.419 14.015C3.847 14.256 3.231 14.376 2.61 14.367Z" fill="rgb(38,58,117)" fill-opacity="1.000" fill-rule="nonzero" transform="matrix(1 0 0 1 61.1899 25.2697)"/><path d="M15.395 0L0 0L0 14.735L15.395 14.735L15.395 0Z" fill="rgb(0,0,0)" fill-opacity="1.000" fill-rule="nonzero" transform="matrix(1 0 0 1 73.8679 20.8902)"/><path d="M0.005 0L3.502 0L7.197 9.033L7.354 9.033L11.046 0L14.543 0L14.543 13.445L11.79 13.445L11.79 4.693L11.679 4.693L8.208 13.379L6.335 13.379L2.866 4.66L2.753 4.66L2.753 13.445L0 13.445L0.005 0Z" fill="rgb(38,58,117)" fill-opacity="1.000" fill-rule="nonzero" transform="matrix(1 0 0 1 74.5261 21.5549)"/><path d="M10.828 0L0 0L0 11.581L10.828 11.581L10.828 0Z" fill="rgb(0,0,0)" fill-opacity="1.000" fill-rule="nonzero" transform="matrix(1 0 0 1 91.5813 24.4787)"/><path d="M5.147 10.744C4.188 10.77 3.239 10.545 2.394 10.092C1.634 9.662 1.017 9.016 0.622 8.235C0.212 7.347 0 6.381 0 5.402C0 4.424 0.212 3.458 0.622 2.57C1.016 1.785 1.626 1.13 2.38 0.682C3.187 0.217 4.105 -0.019 5.035 0.001C5.688 -0.004 6.336 0.108 6.95 0.332C7.533 0.543 8.063 0.879 8.503 1.317C8.966 1.784 9.321 2.347 9.543 2.966C9.803 3.711 9.93 4.497 9.915 5.287L9.915 6.079L1.153 6.079L1.153 4.287L7.206 4.287C7.208 3.901 7.11 3.522 6.922 3.185C6.746 2.869 6.488 2.608 6.175 2.428C5.837 2.237 5.457 2.139 5.07 2.143C4.663 2.136 4.263 2.241 3.911 2.445C3.583 2.64 3.311 2.918 3.124 3.251C2.935 3.594 2.838 3.981 2.84 4.373L2.84 6.082C2.827 6.543 2.925 7.001 3.124 7.417C3.308 7.777 3.594 8.074 3.945 8.272C4.328 8.482 4.758 8.587 5.195 8.576C5.493 8.579 5.791 8.534 6.076 8.443C6.33 8.359 6.563 8.22 6.757 8.035C6.946 7.849 7.092 7.622 7.183 7.372L9.844 7.551C9.717 8.172 9.432 8.75 9.018 9.229C8.574 9.719 8.025 10.099 7.41 10.339C6.688 10.616 5.919 10.753 5.147 10.744Z" fill="rgb(38,58,117)" fill-opacity="1.000" fill-rule="nonzero" transform="matrix(1 0 0 1 91.8699 24.8734)"/><path d="M10.151 0L0 0L0 11.633L10.151 11.633L10.151 0Z" fill="rgb(0,0,0)" fill-opacity="1.000" fill-rule="nonzero" transform="matrix(1 0 0 1 104.1014 24.4651)"/><path d="M5.17 10.789C4.207 10.815 3.255 10.589 2.405 10.134C1.641 9.702 1.022 9.053 0.625 8.269C0.213 7.377 0 6.406 0 5.424C0 4.441 0.213 3.471 0.625 2.579C1.019 1.791 1.63 1.133 2.385 0.682C3.197 0.215 4.12 -0.021 5.055 0.001C5.711 -0.005 6.362 0.108 6.979 0.333C7.563 0.547 8.095 0.885 8.539 1.323C9.003 1.792 9.357 2.357 9.577 2.979C9.842 3.726 9.969 4.516 9.951 5.308L9.951 6.103L1.152 6.103L1.152 4.304L7.232 4.304C7.236 3.916 7.138 3.534 6.947 3.197C6.771 2.88 6.511 2.617 6.197 2.436C5.844 2.249 5.45 2.153 5.052 2.158C4.653 2.163 4.262 2.269 3.914 2.464C3.583 2.659 3.309 2.939 3.122 3.274C2.932 3.619 2.834 4.007 2.836 4.401L2.836 6.118C2.824 6.581 2.922 7.041 3.122 7.459C3.306 7.819 3.59 8.117 3.94 8.318C4.323 8.53 4.757 8.635 5.195 8.624C5.494 8.626 5.792 8.581 6.077 8.489C6.332 8.404 6.566 8.263 6.761 8.077C6.955 7.892 7.103 7.665 7.195 7.414L9.868 7.594C9.743 8.218 9.457 8.799 9.038 9.279C8.595 9.772 8.042 10.154 7.423 10.392C6.704 10.666 5.939 10.801 5.17 10.789Z" fill="rgb(38,58,117)" fill-opacity="1.000" fill-rule="nonzero" transform="matrix(1 0 0 1 104.2087 24.8636)"/><path d="M12.375 0L0 0L0 6.204L12.375 6.204L12.375 0Z" fill="rgb(0,0,0)" fill-opacity="1.000" fill-rule="nonzero" transform="matrix(1 0 0 1 18.4802 19)"/><path d="M11.483 1.701L11.483 5.227L7.19 5.227C6.895 5.229 6.606 5.146 6.357 4.988L4.347 3.727C4.182 3.622 3.998 3.549 3.806 3.513C3.764 3.503 3.725 3.482 3.695 3.452C3.664 3.422 3.643 3.384 3.633 3.342C3.452 2.509 2.993 1.762 2.333 1.225C1.673 0.688 0.85 0.391 0 0.385L0 0L3.305 0C3.571 0.001 3.831 0.069 4.063 0.198L6.408 1.495C6.64 1.622 6.901 1.69 7.166 1.69L11.483 1.701Z" fill="rgb(241,144,33)" fill-opacity="1.000" fill-rule="nonzero" transform="matrix(1 0 0 1 18.7438 19.3448)"/><path d="M10.828 0L0 0L0 5.429L10.828 5.429L10.828 0Z" fill="rgb(0,0,0)" fill-opacity="1.000" fill-rule="nonzero" transform="matrix(1 0 0 1 19.244 24.6591)"/><path d="M10.057 1.328L10.057 4.425L6.301 4.425C6.043 4.426 5.79 4.354 5.572 4.216L3.813 3.115C3.593 2.976 3.338 2.901 3.077 2.902L0 2.902L0 2.512C0.706 2.507 1.391 2.272 1.953 1.845C2.516 1.417 2.926 0.819 3.122 0.139C3.137 0.091 3.17 0.05 3.214 0.025C3.258 0 3.31 -0.006 3.359 0.006L3.394 0.02L5.449 1.16C5.652 1.271 5.88 1.329 6.111 1.328L10.057 1.328Z" fill="rgb(254,71,27)" fill-opacity="1.000" fill-rule="nonzero" transform="matrix(1 0 0 1 19.4638 25.1467)"/><path d="M14.437 0L0 0L0 6.204L14.437 6.204L14.437 0Z" fill="rgb(0,0,0)" fill-opacity="1.000" fill-rule="nonzero" transform="matrix(1 0 0 1 16 29.8819)"/><path d="M6.673 3.711L8.68 4.972C8.93 5.129 9.219 5.213 9.513 5.213L13.809 5.213L13.809 1.687L9.308 1.687C9.043 1.687 8.783 1.62 8.55 1.492L6.205 0.195C5.973 0.067 5.713 0 5.448 0L0 0L0 3.485L5.821 3.485C6.121 3.477 6.417 3.555 6.673 3.711Z" fill="rgb(232,90,39)" fill-opacity="1.000" fill-rule="nonzero" transform="matrix(1 0 0 1 16 30.2587)"/></svg>