<svg xmlns="http://www.w3.org/2000/svg" viewBox="0 0 60 60" width="60" height="60"><path d="M0 0L60 0L60 60L0 60L0 0Z" fill="rgb(255,255,255)" fill-opacity="1.000" fill-rule="nonzero" transform="matrix(1 0 0 1 0 0)"/><path d="M2.089 0C1.9 0 1.717 0.066 1.573 0.187C1.429 0.307 1.334 0.474 1.304 0.657L0 8.757C0.061 8.379 0.394 8.1 0.785 8.1L4.607 8.1C8.453 8.1 11.717 5.352 12.313 1.629C12.357 1.351 12.382 1.07 12.388 0.789C11.411 0.287 10.263 0 9.004 0L2.089 0Z" fill="rgb(0,28,100)" fill-opacity="1.000" fill-rule="nonzero" transform="matrix(1 0 0 1 25.6719 21.3992)"/><path d="M14.346 0C14.341 0.281 14.316 0.562 14.271 0.84C13.675 4.563 10.411 7.311 6.565 7.311L2.743 7.311C2.352 7.311 2.019 7.59 1.958 7.968L0.759 15.411L0.008 20.081C-0.007 20.171 -0.001 20.264 0.024 20.351C0.049 20.439 0.094 20.521 0.154 20.59C0.215 20.66 0.29 20.716 0.375 20.754C0.46 20.792 0.552 20.812 0.645 20.812L4.793 20.812C4.983 20.812 5.166 20.745 5.309 20.625C5.453 20.505 5.549 20.338 5.578 20.155L6.671 13.368C6.7 13.185 6.796 13.018 6.94 12.898C7.084 12.778 7.267 12.711 7.456 12.711L9.899 12.711C13.745 12.711 17.009 9.964 17.605 6.24C18.028 3.597 16.669 1.193 14.346 0Z" fill="rgb(0,112,224)" fill-opacity="1.000" fill-rule="nonzero" transform="matrix(1 0 0 1 23.7134 22.1885)"/><path d="M4.048 0C3.657 0 3.324 0.278 3.263 0.656L0.008 20.87C-0.054 21.253 0.249 21.6 0.646 21.6L5.473 21.6L6.671 14.157L7.976 6.057C8.005 5.874 8.101 5.707 8.244 5.587C8.388 5.466 8.571 5.4 8.761 5.4L15.676 5.4C16.934 5.4 18.082 5.687 19.06 6.189C19.127 2.799 16.27 0 12.343 0L4.048 0Z" fill="rgb(0,48,135)" fill-opacity="1.000" fill-rule="nonzero" transform="matrix(1 0 0 1 19 16)"/></svg>