<svg xmlns="http://www.w3.org/2000/svg" viewBox="0 0 130 60" width="130" height="60"><path d="M0 0L130 0L130 60L0 60L0 0Z" fill="rgb(255,255,255)" fill-opacity="1.000" fill-rule="nonzero" transform="matrix(1 0 0 1 0 0)"/><path d="M2.912 0C2.698 0 2.516 0.152 2.482 0.359L0.005 15.746C-0.004 15.802 -0.001 15.859 0.015 15.914C0.031 15.969 0.059 16.019 0.097 16.063C0.134 16.106 0.181 16.141 0.234 16.164C0.287 16.188 0.344 16.201 0.402 16.201L3.34 16.201C3.554 16.201 3.736 16.048 3.77 15.841L4.498 11.323C4.531 11.116 4.713 10.964 4.927 10.964L7.598 10.964C10.719 10.964 13.369 8.733 13.853 5.712C14.341 2.664 11.91 0.007 8.464 0L2.912 0ZM5.768 3.435L7.905 3.435C9.665 3.435 10.238 4.452 10.057 5.576C9.876 6.703 8.986 7.533 7.283 7.533L5.108 7.533L5.768 3.435ZM19.829 4.481C19.087 4.483 18.233 4.632 17.275 5.023C15.076 5.921 14.021 7.775 13.572 9.127C13.572 9.127 12.145 13.252 15.369 15.518C15.369 15.518 18.359 17.7 21.725 15.384L21.667 15.746C21.658 15.802 21.662 15.859 21.678 15.914C21.693 15.969 21.721 16.019 21.759 16.062C21.797 16.106 21.843 16.14 21.896 16.164C21.949 16.188 22.006 16.2 22.064 16.201L24.853 16.201C25.067 16.201 25.249 16.048 25.283 15.841L26.979 5.305C26.988 5.248 26.985 5.191 26.969 5.136C26.953 5.081 26.926 5.031 26.888 4.987C26.85 4.944 26.804 4.909 26.751 4.885C26.698 4.862 26.641 4.849 26.583 4.849L23.793 4.849C23.579 4.849 23.397 5.002 23.364 5.208L23.273 5.776C23.273 5.776 22.055 4.473 19.829 4.481ZM19.92 7.809C20.24 7.809 20.533 7.852 20.796 7.935C22 8.313 22.682 9.445 22.484 10.672C22.241 12.184 20.975 13.296 19.353 13.296C19.033 13.296 18.74 13.253 18.476 13.171C17.273 12.792 16.587 11.66 16.784 10.433C17.028 8.922 18.297 7.809 19.92 7.809Z" fill="rgb(0,48,135)" fill-opacity="1.000" fill-rule="nonzero" transform="matrix(1 0 0 1 43.3441 21.3992)"/><path d="M2.912 0C2.698 0 2.516 0.152 2.482 0.359L0.005 15.746C-0.004 15.802 -0.001 15.859 0.015 15.914C0.031 15.969 0.059 16.019 0.097 16.063C0.134 16.106 0.181 16.141 0.234 16.164C0.287 16.188 0.344 16.201 0.402 16.201L3.34 16.201C3.554 16.201 3.736 16.048 3.77 15.841L4.498 11.323C4.531 11.116 4.713 10.964 4.927 10.964L7.598 10.964C10.719 10.964 13.369 8.733 13.852 5.712C14.341 2.664 11.91 0.007 8.464 0L2.912 0ZM5.768 3.435L7.905 3.435C9.665 3.435 10.238 4.452 10.057 5.576C9.876 6.703 8.986 7.533 7.283 7.533L5.108 7.533L5.768 3.435ZM19.829 4.481C19.087 4.483 18.233 4.632 17.274 5.023C15.076 5.921 14.02 7.775 13.572 9.127C13.572 9.127 12.146 13.252 15.37 15.518C15.37 15.518 18.359 17.7 21.725 15.384L21.667 15.746C21.658 15.802 21.662 15.859 21.678 15.914C21.694 15.969 21.721 16.019 21.759 16.063C21.797 16.106 21.844 16.141 21.896 16.164C21.949 16.188 22.007 16.201 22.065 16.201L24.854 16.201C25.068 16.201 25.25 16.048 25.283 15.841L26.98 5.305C26.989 5.248 26.986 5.191 26.97 5.136C26.954 5.081 26.927 5.03 26.889 4.987C26.851 4.944 26.804 4.909 26.751 4.885C26.699 4.861 26.641 4.849 26.583 4.849L23.794 4.849C23.58 4.849 23.397 5.002 23.364 5.208L23.273 5.776C23.273 5.776 22.055 4.473 19.829 4.481ZM19.92 7.809C20.24 7.809 20.533 7.852 20.796 7.935C21.999 8.313 22.682 9.445 22.484 10.672C22.241 12.184 20.975 13.296 19.352 13.296C19.032 13.296 18.739 13.253 18.476 13.171C17.273 12.792 16.586 11.66 16.784 10.433C17.027 8.922 18.297 7.809 19.92 7.809Z" fill="rgb(0,112,224)" fill-opacity="1.000" fill-rule="nonzero" transform="matrix(1 0 0 1 83.511 21.3992)"/><path d="M0.327 0C0.106 0 -0.052 0.212 0.016 0.418L3.074 9.71L0.309 14.089C0.175 14.302 0.331 14.576 0.586 14.576L3.854 14.576C3.947 14.576 4.039 14.553 4.12 14.508C4.202 14.463 4.27 14.398 4.318 14.32L12.859 0.484C12.99 0.272 12.833 0 12.58 0L9.312 0C9.218 0 9.125 0.024 9.043 0.07C8.961 0.116 8.893 0.182 8.845 0.261L5.483 5.819L3.776 0.303C3.721 0.123 3.552 0 3.36 0L0.327 0Z" fill="rgb(0,48,135)" fill-opacity="1.000" fill-rule="nonzero" transform="matrix(1 0 0 1 71.3204 26.248)"/><path d="M2.912 0C2.699 0 2.517 0.152 2.483 0.359L0.005 15.745C-0.004 15.801 -0.001 15.859 0.015 15.914C0.031 15.968 0.059 16.019 0.096 16.062C0.134 16.106 0.181 16.141 0.234 16.164C0.287 16.188 0.344 16.201 0.402 16.201L3.341 16.201C3.554 16.201 3.736 16.048 3.77 15.841L6.247 0.455C6.256 0.399 6.253 0.341 6.237 0.287C6.221 0.232 6.194 0.181 6.156 0.138C6.118 0.095 6.071 0.06 6.019 0.036C5.966 0.012 5.909 0 5.851 0L2.912 0Z" fill="rgb(0,112,224)" fill-opacity="1.000" fill-rule="nonzero" transform="matrix(1 0 0 1 110.7479 21.3992)"/><path d="M2.089 0C1.9 0 1.717 0.066 1.573 0.187C1.429 0.307 1.334 0.474 1.304 0.657L0 8.757C0.061 8.379 0.394 8.1 0.785 8.1L4.607 8.1C8.453 8.1 11.717 5.352 12.313 1.629C12.357 1.351 12.382 1.07 12.388 0.789C11.411 0.287 10.263 0 9.004 0L2.089 0Z" fill="rgb(0,28,100)" fill-opacity="1.000" fill-rule="nonzero" transform="matrix(1 0 0 1 19.6717 21.3992)"/><path d="M14.346 0C14.341 0.281 14.316 0.562 14.271 0.84C13.675 4.563 10.411 7.311 6.565 7.311L2.743 7.311C2.352 7.311 2.019 7.59 1.958 7.968L0.759 15.411L0.008 20.081C-0.007 20.171 -0.001 20.264 0.024 20.351C0.049 20.439 0.094 20.521 0.154 20.59C0.215 20.66 0.29 20.716 0.375 20.754C0.46 20.792 0.552 20.812 0.645 20.812L4.793 20.812C4.983 20.812 5.166 20.745 5.309 20.625C5.453 20.505 5.549 20.338 5.578 20.155L6.671 13.368C6.7 13.185 6.796 13.018 6.94 12.898C7.084 12.778 7.267 12.711 7.456 12.711L9.899 12.711C13.745 12.711 17.009 9.964 17.605 6.24C18.028 3.597 16.669 1.193 14.346 0Z" fill="rgb(0,112,224)" fill-opacity="1.000" fill-rule="nonzero" transform="matrix(1 0 0 1 17.7134 22.1886)"/><path d="M4.048 0C3.657 0 3.324 0.278 3.263 0.656L0.008 20.87C-0.054 21.253 0.249 21.6 0.646 21.6L5.473 21.6L6.671 14.157L7.976 6.057C8.005 5.874 8.101 5.707 8.244 5.587C8.388 5.466 8.571 5.4 8.761 5.4L15.676 5.4C16.934 5.4 18.082 5.687 19.06 6.189C19.127 2.799 16.27 0 12.343 0L4.048 0Z" fill="rgb(0,48,135)" fill-opacity="1.000" fill-rule="nonzero" transform="matrix(1 0 0 1 13 16)"/></svg>