<svg xmlns="http://www.w3.org/2000/svg" viewBox="0 0 60 60" width="60" height="60"><path d="M0 0L60 0L60 60L0 60L0 0Z" fill="rgb(1,102,58)" fill-opacity="1.000" fill-rule="nonzero" transform="matrix(1 0 0 1 0 0)"/><path d="M24.966 0.012C24.966 0.012 24.507 -0.029 24.484 0.042C24.473 0.073 24.473 0.104 24.495 0.127C24.945 0.583 25.07 0.92 25.156 1.422C25.242 1.912 24.863 2.826 24.604 3.288C24.591 3.313 24.591 3.341 24.605 3.364C24.619 3.386 24.644 3.399 24.672 3.398C25.624 3.35 26.128 2.55 26.204 1.778C26.28 1.005 25.926 0.122 24.966 0.011L24.966 0.012ZM24.108 1.114C20.708 4.576 17.195 6.672 14.693 7.853C12.191 9.034 6.757 10.679 3.687 8.525C0.617 6.371 0.226 3.243 0.203 3.32C-0.72 6.443 1.798 9.665 1.798 9.665C4.589 13.052 9.923 13.103 15.807 9.475C21.514 5.955 24.016 1.578 24.221 1.253C24.425 0.93 24.357 0.86 24.107 1.115L24.108 1.114Z" fill="rgb(253,200,47)" fill-opacity="1.000" fill-rule="nonzero" transform="matrix(1 0 0 1 27.5321 27.7992)"/><path d="M40.164 4.206C39.488 4.206 38.678 4.367 37.932 4.678L38.049 5.747C38.617 5.511 39.232 5.325 39.786 5.325C40.487 5.325 40.771 5.686 40.741 6.157C40.736 6.244 40.717 6.357 40.686 6.456L40.069 6.469C38.297 6.493 36.783 7.09 36.677 8.756C36.616 9.7 37.178 10.346 38.199 10.346C38.984 10.346 39.744 9.778 40.093 9.356C40.093 9.359 40.093 9.364 40.093 9.37C40.142 9.731 40.624 10.23 41.444 10.185C41.395 9.6 41.457 8.829 41.735 7.948L41.953 7.227C42.077 6.817 42.194 6.345 42.215 6.022C42.31 4.53 41.15 4.207 40.165 4.207L40.164 4.206ZM40.092 9.354C40.092 9.354 40.094 9.352 40.095 9.351C40.094 9.38 40.093 9.363 40.092 9.354ZM40.326 7.848C40.079 8.631 39.257 9.165 38.716 9.165C38.31 9.165 38.057 8.891 38.083 8.493C38.119 7.909 38.786 7.487 40.065 7.487L40.422 7.487C40.39 7.611 40.371 7.723 40.326 7.848ZM36.779 4.313C35.765 4.398 35.27 5.514 35.114 5.952L33.934 10.178L35.394 10.178L37.032 4.313L36.779 4.313ZM36.549 3.482C37.084 3.319 37.549 2.896 37.518 2.5C37.496 2.21 37.135 2.063 36.636 2.215C36.125 2.372 35.648 2.79 35.678 3.185C35.703 3.501 36.074 3.627 36.549 3.482ZM11.931 4.474C11.698 4.276 11.385 4.177 11.042 4.177C10.256 4.177 9.816 4.735 9.389 5.466L9.377 5.466L9.548 4.313L8.407 4.313L6.769 10.178L8.242 10.178L8.817 8.095C9.405 5.987 10.033 5.579 10.572 5.579C10.732 5.579 10.986 5.64 11.175 5.752L11.932 4.475L11.931 4.474ZM16.107 7.623C16.312 7.102 16.456 6.581 16.485 6.135C16.557 4.994 15.91 4.177 14.511 4.177C12.658 4.177 11.182 5.777 11.052 7.809C10.963 9.21 11.716 10.302 13.237 10.302C14.133 10.302 14.924 10.016 15.622 9.644L15.341 8.678C14.733 8.963 14.281 9.124 13.668 9.124C13.017 9.124 12.357 8.715 12.509 7.673L16.108 7.624L16.107 7.623ZM14.281 5.293C14.918 5.293 15.124 5.714 15.099 6.11C15.091 6.247 15.043 6.42 14.972 6.569L12.785 6.594C12.989 5.899 13.58 5.292 14.28 5.292L14.281 5.293ZM4.448 4.177C3.797 4.177 3.091 4.276 2.442 4.449L0 13.115C0 13.115 1.34 13.005 1.925 11.546L2.326 10.115C2.65 10.239 2.989 10.301 3.455 10.301C5.087 10.301 6.984 9.036 7.125 6.817C7.222 5.304 6.435 4.176 4.447 4.176L4.448 4.177ZM5.6 6.892C5.521 8.132 4.562 9.124 3.482 9.124C3.163 9.124 2.909 9.062 2.669 8.975L3.645 5.417C3.819 5.38 4.004 5.355 4.262 5.355C5.097 5.355 5.664 5.888 5.6 6.893L5.6 6.892ZM32.932 4.177C32.067 4.177 31.501 4.747 30.928 5.466C30.996 4.586 30.506 4.177 29.749 4.177C29.16 4.177 28.696 4.474 28.201 4.91L27.685 5.466L27.673 5.466L27.694 5.313C27.722 4.399 26.956 4.318 26.759 4.313L26.714 4.313L25.104 10.178L26.544 10.178L27.154 7.946C27.69 5.95 28.61 5.467 29.066 5.467C29.402 5.467 29.508 5.69 29.491 5.951C29.478 6.149 29.395 6.509 29.318 6.781L28.357 10.178L29.81 10.178L30.418 7.983C30.979 5.95 31.755 5.467 32.176 5.467C32.524 5.467 32.7 5.705 32.683 5.965C32.668 6.201 32.589 6.499 32.511 6.771L32.18 7.974C31.983 8.681 31.854 10.138 32.956 10.178L33.927 6.62C34.022 6.261 34.135 5.814 34.16 5.417C34.198 4.636 33.747 4.177 32.931 4.177L32.932 4.177ZM23.996 4.177C23.131 4.177 22.566 4.747 21.991 5.466C22.06 4.586 21.569 4.177 20.813 4.177C20.224 4.177 19.76 4.474 19.265 4.91L18.75 5.466L18.737 5.466L18.758 5.313C18.785 4.399 18.019 4.318 17.823 4.313L17.778 4.313L16.168 10.178L17.608 10.178L18.219 7.946C18.754 5.95 19.673 5.467 20.13 5.467C20.466 5.467 20.571 5.69 20.555 5.951C20.542 6.149 20.46 6.509 20.382 6.781L19.422 10.178L20.874 10.178L21.482 7.983C22.044 5.95 22.82 5.467 23.241 5.467C23.589 5.467 23.765 5.705 23.748 5.965C23.733 6.201 23.654 6.499 23.576 6.771L23.244 7.974C23.046 8.642 22.919 10.138 24.02 10.178L24.991 6.62C25.087 6.261 25.199 5.814 25.224 5.417C25.262 4.636 24.811 4.177 23.995 4.177L23.996 4.177ZM20.042 2.134L20.194 1.86L20.854 1.86L20.857 2.134L21.517 2.134L21.373 0.056L20.699 0.056L19.393 2.134L20.043 2.134L20.042 2.134ZM20.854 0.682L20.86 1.427L20.442 1.427L20.854 0.682ZM18.006 1.41L18.209 1.41C18.518 1.41 18.537 1.499 18.462 1.77C18.41 1.955 18.39 2.088 18.394 2.134L19.065 2.134L19.083 2.071C19.004 2.071 19.039 1.978 19.114 1.708C19.231 1.289 19.116 1.237 18.925 1.156C19.18 1.09 19.34 0.888 19.407 0.648C19.52 0.244 19.351 0.057 18.676 0.057L17.72 0.057L17.141 2.135L17.804 2.135L18.006 1.41L18.006 1.41ZM18.249 0.54L18.558 0.54C18.713 0.54 18.805 0.61 18.765 0.757C18.724 0.901 18.601 0.953 18.396 0.953L18.135 0.953L18.25 0.54L18.249 0.54ZM22.615 2.189C23.171 2.189 23.627 1.955 23.762 1.473C23.973 0.717 22.755 0.91 22.842 0.598C22.864 0.523 22.94 0.48 23.087 0.48C23.151 0.48 23.207 0.492 23.247 0.518C23.287 0.543 23.312 0.587 23.303 0.659L23.933 0.659C23.986 0.296 23.812 0.002 23.251 0.002C22.745 0.002 22.312 0.224 22.189 0.665C21.967 1.459 23.191 1.242 23.103 1.557C23.076 1.655 22.951 1.709 22.785 1.709C22.72 1.709 22.656 1.692 22.611 1.658C22.565 1.622 22.54 1.568 22.547 1.494L21.912 1.494C21.822 1.869 22.08 2.19 22.614 2.19L22.615 2.189ZM3.942 1.488L4.277 1.488C4.859 1.488 5.196 1.205 5.321 0.758C5.44 0.331 5.236 0.056 4.654 0.056L3.679 0.056L3.099 2.135L3.763 2.135L3.943 1.488L3.942 1.488ZM4.207 0.54L4.395 0.54C4.535 0.54 4.742 0.566 4.688 0.76C4.638 0.939 4.508 1.002 4.354 1.002L4.078 1.002L4.207 0.54L4.207 0.54ZM8.087 2.134L8.75 2.134L9.178 0.601L9.774 0.601L9.927 0.055L8.072 0.055L7.92 0.601L8.516 0.601L8.089 2.134L8.087 2.134ZM16.813 1.507C16.875 1.282 16.811 1.088 16.608 1.03C16.761 0.947 16.939 0.791 16.999 0.577C17.114 0.165 16.782 0.055 16.327 0.055L15.36 0.055L14.78 2.133L15.767 2.133C16.291 2.133 16.683 1.972 16.813 1.507ZM15.888 0.54L16.121 0.54C16.262 0.54 16.39 0.543 16.345 0.704C16.311 0.825 16.198 0.886 16.066 0.886L15.791 0.886L15.888 0.54ZM15.686 1.264L15.896 1.264C16.108 1.264 16.259 1.276 16.208 1.457C16.164 1.613 16.031 1.648 15.868 1.648L15.579 1.648L15.686 1.265L15.686 1.264ZM7.211 1.648L6.186 1.648L6.277 1.322L7.112 1.322L7.247 0.837L6.414 0.837L6.496 0.54L7.482 0.54L7.618 0.055L5.969 0.055L5.389 2.133L7.078 2.133L7.213 1.648L7.211 1.648ZM10.474 2.133L10.676 1.408L10.878 1.408C11.187 1.408 11.208 1.498 11.131 1.769C11.079 1.954 11.06 2.086 11.063 2.133L11.736 2.133L11.754 2.069C11.675 2.069 11.709 1.977 11.785 1.706C11.903 1.288 11.787 1.235 11.596 1.155C11.851 1.088 12.011 0.886 12.078 0.647C12.191 0.243 12.022 0.055 11.347 0.055L10.392 0.055L9.812 2.133L10.474 2.133L10.474 2.133ZM10.918 0.54L11.227 0.54C11.382 0.54 11.475 0.609 11.434 0.756C11.394 0.9 11.27 0.953 11.065 0.953L10.803 0.953L10.918 0.54ZM13.184 2.188C13.783 2.188 14.358 1.79 14.556 1.082C14.709 0.534 14.518 0 13.795 0C13.166 0 12.617 0.424 12.435 1.077C12.238 1.783 12.549 2.188 13.183 2.188L13.184 2.188ZM13.097 1.082C13.171 0.82 13.348 0.512 13.648 0.508C13.943 0.503 13.972 0.799 13.893 1.082C13.797 1.426 13.614 1.679 13.327 1.679C13.01 1.679 13.023 1.348 13.097 1.082Z" fill="rgb(255,255,255)" fill-opacity="1.000" fill-rule="nonzero" transform="matrix(1 0 0 1 5.4585 21)"/></svg>