<svg xmlns="http://www.w3.org/2000/svg" viewBox="0 0 60 60" width="60" height="60"><defs><linearGradient id="g8" gradientUnits="userSpaceOnUse" x1="15.00" y1="45.00" x2="45.00" y2="15.00"><stop offset="0.0%" stop-color="rgb(33,194,94)" stop-opacity="1.000"/><stop offset="60.0%" stop-color="rgb(37,174,94)" stop-opacity="1.000"/><stop offset="100.0%" stop-color="rgb(40,154,94)" stop-opacity="1.000"/></linearGradient></defs><path d="M0 0L60 0L60 60L0 60L0 0Z" fill="url(#g8)" fill-rule="nonzero" transform="matrix(1 0 0 1 0 0)"/><path d="M35.807 4.105L31.613 4.105L31.613 8.211L35.807 8.211L35.807 4.105ZM12.258 6.105L6.237 6.105L6.237 11.263L11.828 11.263C15.376 11.263 17.419 12.947 17.419 16.105C17.419 19.263 15.376 21.053 11.828 21.053L6.237 21.053L6.237 11.368L0 11.368L0 34L6.237 34L6.237 26.211L12.15 26.211C19.355 26.211 23.549 22.421 23.549 15.895C23.549 9.789 19.462 6.105 12.258 6.105ZM40 0L27.42 0L27.42 12.316L40 12.316L40 0ZM37.957 10.211L29.57 10.211L29.57 2L37.957 2L37.957 10.211Z" fill="rgb(255,255,255)" fill-opacity="1.000" fill-rule="nonzero" transform="matrix(1 0 0 1 10 13)"/></svg>