<svg xmlns="http://www.w3.org/2000/svg" viewBox="0 0 130 60" width="130" height="60"><path d="M0 0L130 0L130 60L0 60L0 0Z" fill="rgb(255,255,255)" fill-opacity="1.000" fill-rule="nonzero" transform="matrix(1 0 0 1 0 0)"/><path d="M0 0L108.213 0L108.213 35.029L0 35.029L0 0Z" fill="rgb(0,0,0)" fill-opacity="1.000" fill-rule="nonzero" transform="matrix(1 0 0 1 10.7865 12.2784)"/><path d="M22.148 28.286L27.186 28.286L27.186 13.486L22.148 13.486L22.148 28.286ZM28.923 3.415L25.536 3.415L25.536 6.831L28.923 6.831L28.923 3.415ZM9.901 5.079L5.038 5.079L5.038 9.37L9.554 9.37C12.42 9.37 14.07 10.771 14.07 13.399C14.07 16.026 12.42 17.515 9.554 17.515L5.038 17.515L5.038 9.458L0 9.458L0 28.286L5.038 28.286L5.038 21.806L9.814 21.806C15.634 21.806 19.022 18.653 19.022 13.224C19.022 8.144 15.721 5.079 9.901 5.079ZM32.31 0L22.148 0L22.148 10.246L32.31 10.246L32.31 0ZM30.66 8.495L23.886 8.495L23.886 1.664L30.66 1.664L30.66 8.495ZM60.191 5.079L55.587 5.079L55.587 9.37L59.93 9.37C62.796 9.37 64.447 10.771 64.447 13.399C64.447 16.026 62.796 17.515 59.931 17.515L55.588 17.515L55.588 9.458L50.55 9.458L50.55 28.286L55.588 28.286L55.588 21.806L60.191 21.806C66.01 21.806 69.397 18.653 69.397 13.224C69.397 8.144 66.01 5.079 60.191 5.079ZM102.489 10.509L98.146 21.543L93.804 10.509L88.593 10.509L95.541 28.286L92.848 35.029L98.146 35.029L107.701 10.509L102.489 10.509ZM79.907 10.421C76.867 10.421 74.522 11.122 71.916 12.435L73.479 15.938C75.303 14.887 77.128 14.362 78.778 14.362C81.21 14.362 82.426 15.413 82.426 17.339L82.426 17.69L77.562 17.69C73.219 17.69 70.874 19.704 70.874 23.032C70.874 26.272 73.132 28.549 76.954 28.549C79.386 28.549 81.123 27.673 82.513 26.184L82.513 28.111L87.464 28.111L87.464 16.551C87.29 12.786 84.597 10.421 79.907 10.421ZM82.86 22.331C82.339 23.82 80.863 25.046 78.778 25.046C77.041 25.046 75.998 24.17 75.998 22.769C75.998 21.368 76.954 20.755 78.865 20.755L82.86 20.755L82.86 22.331ZM40.04 24.433C37.608 24.433 35.871 22.506 35.871 19.616C35.871 16.814 37.608 14.887 40.04 14.887C41.777 14.887 43.08 15.588 44.036 16.814L47.423 14.362C45.86 11.998 43.167 10.596 39.779 10.596C34.481 10.509 30.834 14.187 30.834 19.616C30.834 25.046 34.482 28.636 39.78 28.636C43.428 28.636 46.12 27.148 47.597 24.696L44.122 22.331C43.254 23.732 41.864 24.433 40.04 24.433Z" fill="rgb(17,199,111)" fill-opacity="1.000" fill-rule="nonzero" transform="matrix(1 0 0 1 11.043 12.2784)"/></svg>