<svg xmlns="http://www.w3.org/2000/svg" viewBox="0 0 60 60" width="60" height="60"><path d="M0 0L60 0L60 60L0 60L0 0Z" fill="rgb(255,255,255)" fill-opacity="1.000" fill-rule="nonzero" transform="matrix(1 0 0 1 0 0)"/><path d="M1.379 10.121L0 10.121L0 3.75C0 1.338 1.881 0.038 3.739 0.001C5.638 -0.038 7.616 1.228 7.716 3.722C7.776 5.191 7.146 6.44 5.989 7.15C4.763 7.901 3.161 7.933 1.906 7.232C1.718 7.127 1.542 7.008 1.379 6.875L1.379 10.122L1.379 10.121ZM1.379 3.75C1.379 5.081 2.032 5.725 2.579 6.03C3.393 6.485 4.473 6.463 5.267 5.976C5.783 5.66 6.389 5.021 6.338 3.778C6.289 2.559 5.476 1.344 3.766 1.378C2.578 1.402 1.379 2.144 1.379 3.75L1.379 3.75Z" fill="rgb(243,163,24)" fill-opacity="1.000" fill-rule="nonzero" transform="matrix(1 0 0 1 5 25.5638)"/><path d="M3.822 10.225C3.794 10.225 3.766 10.225 3.738 10.224C1.88 10.186 0 8.887 0 6.475L0 0L1.379 0L1.379 3.35C1.542 3.218 1.718 3.098 1.906 2.993C3.161 2.292 4.763 2.324 5.989 3.075C7.146 3.784 7.776 5.034 7.716 6.503C7.617 8.96 5.697 10.225 3.822 10.225L3.822 10.225ZM1.379 6.475C1.379 8.08 2.578 8.823 3.766 8.847C5.473 8.882 6.289 7.667 6.339 6.447C6.389 5.203 5.784 4.565 5.267 4.249C4.473 3.762 3.393 3.74 2.58 4.195C2.032 4.501 1.38 5.145 1.38 6.475L1.379 6.475Z" fill="rgb(243,163,24)" fill-opacity="1.000" fill-rule="nonzero" transform="matrix(1 0 0 1 24.1762 23)"/><path d="M7.72 7.868L6.341 7.868L6.341 6.875C6.178 7.008 6.003 7.127 5.814 7.232C4.56 7.933 2.957 7.901 1.732 7.15C0.574 6.441 -0.055 5.192 0.004 3.722C0.103 1.265 2.024 0 3.898 0C3.926 0 3.954 0 3.982 0.001C5.84 0.039 7.721 1.338 7.721 3.75L7.721 7.868L7.72 7.868ZM3.883 1.378C2.223 1.378 1.43 2.576 1.382 3.778C1.331 5.022 1.936 5.66 2.453 5.976C3.247 6.463 4.327 6.485 5.14 6.031C5.688 5.725 6.341 5.081 6.341 3.751C6.341 2.145 5.142 1.402 3.953 1.378C3.93 1.378 3.906 1.377 3.883 1.377L3.883 1.378Z" fill="rgb(243,163,24)" fill-opacity="1.000" fill-rule="nonzero" transform="matrix(1 0 0 1 32.7336 25.3606)"/><path d="M6.575 7.635L5.195 7.635L5.195 3.751C5.195 2.979 4.983 2.346 4.581 1.922C4.248 1.571 3.797 1.377 3.312 1.377C1.984 1.377 1.379 2.608 1.379 3.751L1.379 7.629L0 7.629L0 3.751C0 1.288 1.666 0 3.312 0C4.18 0 4.987 0.347 5.583 0.976C6.232 1.661 6.575 2.62 6.575 3.751L6.575 7.635Z" fill="rgb(243,163,24)" fill-opacity="1.000" fill-rule="nonzero" transform="matrix(1 0 0 1 16.458 25.5631)"/><path d="M6.575 7.635L5.196 7.635L5.196 3.751C5.196 2.979 4.983 2.346 4.581 1.922C4.248 1.571 3.797 1.377 3.312 1.377C1.984 1.377 1.379 2.608 1.379 3.751L1.379 7.629L0 7.629L0 3.751C0 1.288 1.666 0 3.312 0C4.18 0 4.987 0.347 5.583 0.976C6.232 1.661 6.575 2.62 6.575 3.751L6.575 7.635Z" fill="rgb(243,163,24)" fill-opacity="1.000" fill-rule="nonzero" transform="matrix(1 0 0 1 41.5379 25.5631)"/><path d="M1.379 0L0 0L0 7.391L1.379 7.391L1.379 0Z" fill="rgb(243,163,24)" fill-opacity="1.000" fill-rule="nonzero" transform="matrix(1 0 0 1 13.8348 25.8003)"/><path d="M4.717 10.186L6.389 10.192L3.527 6.366C4.226 5.766 5.013 4.869 5.846 3.523L4.673 2.799C3.482 4.723 2.596 5.293 1.897 5.722C1.705 5.839 1.531 5.927 1.379 5.993L1.379 0L0 0L0 10.229L1.379 10.229L1.379 7.509C1.654 7.455 1.998 7.349 2.396 7.143L4.717 10.186L4.717 10.186Z" fill="rgb(243,163,24)" fill-opacity="1.000" fill-rule="nonzero" transform="matrix(1 0 0 1 49.4003 23)"/><path d="M31.607 1.39L31.607 0L0 0L0 1.39L31.607 1.39Z" fill="rgb(0,255,255)" fill-opacity="1.000" fill-rule="nonzero" transform="matrix(1 0 0 1 24.1997 34.6099)"/></svg>