<svg xmlns="http://www.w3.org/2000/svg" viewBox="0 0 60 60" width="60" height="60"><path d="M0 0L60 0L60 60L0 60L0 0Z" fill="rgb(50,188,173)" fill-opacity="1.000" fill-rule="nonzero" transform="matrix(1 0 0 1 0 0)"/><path d="M21.81 7.591C20.327 7.591 18.933 7.014 17.885 5.966L12.218 0.299C11.82 -0.1 11.127 -0.099 10.729 0.299L5.041 5.987C3.993 7.034 2.599 7.611 1.117 7.611L0 7.611L7.177 14.789C9.419 17.03 13.053 17.03 15.295 14.789L22.492 7.591L21.81 7.591Z" fill="rgb(255,255,255)" fill-opacity="1.000" fill-rule="nonzero" transform="matrix(1 0 0 1 18.8729 32.5301)"/><path d="M1.116 8.858C2.599 8.858 3.993 9.435 5.041 10.483L10.729 16.172C11.138 16.581 11.807 16.583 12.218 16.171L17.885 10.504C18.933 9.456 20.327 8.879 21.809 8.879L22.492 8.879L15.294 1.681C13.053 -0.56 9.418 -0.56 7.177 1.681L0 8.858L1.116 8.858Z" fill="rgb(255,255,255)" fill-opacity="1.000" fill-rule="nonzero" transform="matrix(1 0 0 1 18.8729 11.2178)"/><path d="M36.101 4.367L31.751 0.017C31.656 0.056 31.552 0.08 31.443 0.08L29.465 0.08C28.442 0.08 27.442 0.494 26.719 1.217L21.052 6.884C20.522 7.414 19.825 7.68 19.129 7.68C18.432 7.68 17.736 7.414 17.206 6.885L11.518 1.197C10.795 0.473 9.794 0.059 8.772 0.059L6.34 0.059C6.237 0.059 6.14 0.034 6.048 0L1.681 4.367C-0.56 6.609 -0.56 10.243 1.681 12.484L6.048 16.851C6.14 16.816 6.237 16.792 6.34 16.792L8.772 16.792C9.794 16.792 10.795 16.377 11.518 15.654L17.205 9.967C18.233 8.94 20.025 8.939 21.052 9.967L26.719 15.634C27.442 16.357 28.442 16.771 29.465 16.771L31.443 16.771C31.552 16.771 31.656 16.795 31.751 16.834L36.101 12.484C38.343 10.243 38.343 6.609 36.101 4.367Z" fill="rgb(255,255,255)" fill-opacity="1.000" fill-rule="nonzero" transform="matrix(1 0 0 1 11.2178 21.6832)"/></svg>