<svg xmlns="http://www.w3.org/2000/svg" viewBox="0 0 130 60" width="130" height="60"><path d="M0 0L130 0L130 60L0 60L0 0Z" fill="rgb(255,255,255)" fill-opacity="1.000" fill-rule="nonzero" transform="matrix(1 0 0 1 0 0)"/><path d="M6.32 1.07C3.42 1.07 1.07 3.421 1.07 6.321L1.07 23.688C1.07 23.983 0.83 24.222 0.535 24.222C0.239 24.222 0 23.983 0 23.688L0 6.321C0 2.83 2.83 0 6.321 0L6.321 0L11.449 0.008C14.93 0.015 17.749 2.839 17.749 6.32L17.749 10.016C17.749 13.507 14.919 16.337 11.428 16.337L4.182 16.337C3.887 16.337 3.648 16.098 3.648 15.802C3.648 15.507 3.887 15.268 4.182 15.268L11.428 15.268C14.328 15.268 16.679 12.917 16.679 10.016L16.679 6.32C16.679 3.429 14.339 1.083 11.447 1.077C11.447 1.077 11.447 1.077 11.447 1.077L6.321 1.07C6.32 1.07 6.32 1.07 6.32 1.07Z" fill="rgb(147,149,152)" fill-opacity="1.000" fill-rule="evenodd" transform="matrix(1 0 0 1 57.1817 19.015)"/><path d="M0 0.535C0 0.239 0.239 0 0.535 0L2.759 0C4.366 0 5.668 1.303 5.668 2.909L5.668 15.882C5.668 16.178 5.429 16.417 5.133 16.417C4.838 16.417 4.599 16.178 4.599 15.882L4.599 2.909C4.599 1.893 3.775 1.07 2.759 1.07L0.535 1.07C0.239 1.07 0 0.83 0 0.535Z" fill="rgb(147,149,152)" fill-opacity="1.000" fill-rule="evenodd" transform="matrix(1 0 0 1 75.2938 19.0125)"/><path d="M1.196 3.111L0.188 2.103C-0.063 1.852 -0.063 1.446 0.188 1.196L1.196 0.188C1.447 -0.063 1.853 -0.063 2.103 0.188L3.112 1.196C3.362 1.446 3.362 1.852 3.112 2.103L2.103 3.111C1.853 3.362 1.447 3.362 1.196 3.111Z" fill="rgb(50,188,173)" fill-opacity="1.000" fill-rule="nonzero" transform="matrix(1 0 0 1 78.7541 14.4262)"/><path d="M0 0.535C0 0.239 0.239 0 0.535 0L2.741 0C4.017 0 5.242 0.507 6.144 1.41L11.304 6.569L11.304 6.569C11.763 7.029 12.508 7.029 12.968 6.569L18.108 1.429L18.108 1.429C19.011 0.526 20.235 0.019 21.512 0.019L23.305 0.019C23.601 0.019 23.84 0.258 23.84 0.554C23.84 0.849 23.601 1.089 23.305 1.089L21.512 1.089C20.519 1.089 19.567 1.483 18.865 2.185L13.724 7.326C12.847 8.203 11.425 8.203 10.547 7.326C10.547 7.326 10.547 7.326 10.547 7.326L5.388 2.166C4.686 1.464 3.734 1.07 2.741 1.07L0.535 1.07C0.239 1.07 0 0.83 0 0.535Z" fill="rgb(147,149,152)" fill-opacity="1.000" fill-rule="evenodd" transform="matrix(1 0 0 1 84.1597 19.0011)"/><path d="M12.968 1.414C12.508 0.955 11.763 0.955 11.304 1.414L11.304 1.414L6.144 6.574C5.242 7.476 4.017 7.984 2.741 7.984L0.535 7.984C0.239 7.984 0 7.744 0 7.449C0 7.153 0.239 6.914 0.535 6.914L2.741 6.914C3.734 6.914 4.686 6.519 5.388 5.817L10.547 0.658C10.547 0.658 10.547 0.658 10.547 0.658C11.425 -0.219 12.847 -0.219 13.724 0.658L18.865 5.799C19.567 6.501 20.519 6.895 21.512 6.895L23.305 6.895C23.601 6.895 23.84 7.134 23.84 7.43C23.84 7.725 23.601 7.965 23.305 7.965L21.512 7.965C20.235 7.965 19.011 7.457 18.108 6.555L18.108 6.555L12.968 1.414Z" fill="rgb(147,149,152)" fill-opacity="1.000" fill-rule="evenodd" transform="matrix(1 0 0 1 84.1597 27.3326)"/><path d="M16.289 5.669C15.182 5.669 14.14 5.238 13.358 4.456L9.125 0.223C8.828 -0.075 8.31 -0.074 8.013 0.223L3.765 4.471C2.982 5.254 1.941 5.685 0.834 5.685L0 5.685L5.36 11.045C7.034 12.719 9.749 12.719 11.423 11.045L16.799 5.669L16.289 5.669Z" fill="rgb(50,188,173)" fill-opacity="1.000" fill-rule="nonzero" transform="matrix(1 0 0 1 28.2769 32.4083)"/><path d="M0.834 6.616C1.941 6.616 2.982 7.047 3.765 7.829L8.013 12.078C8.319 12.384 8.818 12.385 9.125 12.078L13.357 7.845C14.14 7.062 15.181 6.631 16.288 6.631L16.798 6.631L11.423 1.256C9.748 -0.419 7.034 -0.419 5.36 1.256L0 6.616L0.834 6.616Z" fill="rgb(50,188,173)" fill-opacity="1.000" fill-rule="nonzero" transform="matrix(1 0 0 1 28.2769 16.4912)"/><path d="M26.962 3.261L23.714 0.013C23.642 0.042 23.565 0.059 23.483 0.059L22.006 0.059C21.242 0.059 20.495 0.369 19.955 0.909L15.723 5.141C15.327 5.538 14.807 5.736 14.287 5.736C13.766 5.736 13.246 5.538 12.85 5.142L8.602 0.894C8.062 0.354 7.315 0.044 6.551 0.044L4.735 0.044C4.658 0.044 4.585 0.026 4.517 0L1.256 3.261C-0.419 4.936 -0.419 7.65 1.256 9.324L4.517 12.585C4.585 12.559 4.658 12.541 4.735 12.541L6.551 12.541C7.315 12.541 8.062 12.232 8.602 11.692L12.85 7.444C13.618 6.677 14.956 6.676 15.723 7.444L19.955 11.676C20.495 12.216 21.242 12.526 22.006 12.526L23.483 12.526C23.565 12.526 23.642 12.544 23.714 12.572L26.962 9.324C28.636 7.65 28.636 4.936 26.962 3.261Z" fill="rgb(50,188,173)" fill-opacity="1.000" fill-rule="nonzero" transform="matrix(1 0 0 1 22.5596 24.3072)"/><path d="M0.974 0.17C0.734 0.17 0.455 0.228 0.179 0.291L0.179 1.349C0.37 1.419 0.589 1.453 0.798 1.453C1.329 1.453 1.58 1.274 1.58 0.806C1.58 0.367 1.374 0.17 0.974 0.17ZM0 2.135L0 0.042L0.146 0.042L0.161 0.133C0.406 0.076 0.746 0 0.989 0C1.186 0 1.374 0.03 1.532 0.158C1.714 0.306 1.771 0.546 1.771 0.806C1.771 1.08 1.68 1.338 1.432 1.48C1.259 1.577 1.025 1.616 0.816 1.616C0.601 1.616 0.394 1.583 0.179 1.519L0.179 2.135L0 2.135Z" fill="rgb(147,149,152)" fill-opacity="1.000" fill-rule="nonzero" transform="matrix(1 0 0 1 61.1525 41.0562)"/><path d="M0.959 0.164C0.428 0.164 0.191 0.331 0.191 0.798C0.191 1.25 0.425 1.453 0.959 1.453C1.486 1.453 1.723 1.289 1.723 0.822C1.723 0.37 1.489 0.164 0.959 0.164ZM1.641 1.453C1.465 1.58 1.229 1.617 0.959 1.617C0.683 1.617 0.446 1.577 0.273 1.453C0.079 1.317 0 1.092 0 0.81C0 0.531 0.079 0.304 0.273 0.164C0.446 0.04 0.683 0 0.959 0C1.231 0 1.465 0.04 1.641 0.164C1.838 0.304 1.914 0.531 1.914 0.807C1.914 1.089 1.835 1.317 1.641 1.453Z" fill="rgb(147,149,152)" fill-opacity="1.000" fill-rule="nonzero" transform="matrix(1 0 0 1 63.2979 41.0562)"/><path d="M1.978 1.532L1.386 0.261L1.374 0.261L0.792 1.532L0.631 1.532L0 0L0.197 0L0.722 1.286L0.734 1.286L1.304 0L1.468 0L2.053 1.286L2.066 1.286L2.578 0L2.769 0L2.138 1.532L1.978 1.532Z" fill="rgb(147,149,152)" fill-opacity="1.000" fill-rule="nonzero" transform="matrix(1 0 0 1 65.4738 41.0985)"/><path d="M0.883 0.161C0.391 0.161 0.225 0.379 0.194 0.695L1.571 0.695C1.556 0.346 1.377 0.161 0.883 0.161ZM0.877 1.616C0.582 1.616 0.391 1.574 0.24 1.447C0.061 1.292 0 1.068 0 0.81C0 0.564 0.082 0.303 0.285 0.155C0.455 0.037 0.664 0 0.883 0C1.08 0 1.307 0.021 1.495 0.149C1.717 0.297 1.759 0.558 1.759 0.855L0.188 0.855C0.194 1.171 0.297 1.45 0.892 1.45C1.174 1.45 1.438 1.404 1.683 1.362L1.683 1.522C1.429 1.568 1.146 1.616 0.877 1.616Z" fill="rgb(147,149,152)" fill-opacity="1.000" fill-rule="nonzero" transform="matrix(1 0 0 1 68.5041 41.0562)"/><path d="M0 1.574L0 0.042L0.146 0.042L0.161 0.134C0.485 0.052 0.637 0 0.922 0L0.943 0L0.943 0.17L0.901 0.17C0.661 0.17 0.516 0.203 0.179 0.291L0.179 1.574L0 1.574Z" fill="rgb(147,149,152)" fill-opacity="1.000" fill-rule="nonzero" transform="matrix(1 0 0 1 70.777 41.0562)"/><path d="M0.883 0.161C0.391 0.161 0.225 0.379 0.194 0.695L1.571 0.695C1.556 0.346 1.377 0.161 0.883 0.161ZM0.877 1.616C0.582 1.616 0.391 1.574 0.24 1.447C0.061 1.292 0 1.068 0 0.81C0 0.564 0.082 0.303 0.285 0.155C0.455 0.037 0.664 0 0.883 0C1.08 0 1.307 0.021 1.495 0.149C1.717 0.297 1.759 0.558 1.759 0.855L0.188 0.855C0.194 1.171 0.297 1.45 0.892 1.45C1.174 1.45 1.438 1.404 1.683 1.362L1.683 1.522C1.429 1.568 1.146 1.616 0.877 1.616Z" fill="rgb(147,149,152)" fill-opacity="1.000" fill-rule="nonzero" transform="matrix(1 0 0 1 71.8772 41.0562)"/><path d="M1.592 0.87C1.401 0.801 1.183 0.767 0.974 0.767C0.443 0.767 0.191 0.946 0.191 1.413C0.191 1.856 0.397 2.05 0.798 2.05C1.037 2.05 1.316 1.992 1.592 1.932L1.592 0.87ZM1.626 2.178L1.611 2.086C1.365 2.144 1.025 2.22 0.783 2.22C0.586 2.22 0.397 2.193 0.24 2.062C0.058 1.914 0 1.674 0 1.413C0 1.14 0.091 0.882 0.34 0.743C0.513 0.643 0.746 0.603 0.958 0.603C1.171 0.603 1.377 0.64 1.592 0.701L1.592 0L1.771 0L1.771 2.178L1.626 2.178Z" fill="rgb(147,149,152)" fill-opacity="1.000" fill-rule="nonzero" transform="matrix(1 0 0 1 74.004 40.4527)"/><path d="M0.974 0.773C0.734 0.773 0.455 0.831 0.179 0.895L0.179 1.95C0.373 2.023 0.589 2.057 0.798 2.057C1.329 2.057 1.58 1.878 1.58 1.41C1.58 0.971 1.374 0.773 0.974 0.773ZM1.432 2.084C1.259 2.181 1.025 2.22 0.816 2.22C0.589 2.22 0.361 2.181 0.131 2.105L0.121 2.178L0 2.178L0 0L0.179 0L0.179 0.731C0.425 0.677 0.755 0.604 0.989 0.604C1.186 0.604 1.374 0.634 1.532 0.761C1.714 0.91 1.771 1.149 1.771 1.41C1.771 1.684 1.68 1.941 1.432 2.084Z" fill="rgb(147,149,152)" fill-opacity="1.000" fill-rule="nonzero" transform="matrix(1 0 0 1 77.4255 40.4527)"/><path d="M0.036 2.12L0.036 1.953C0.124 1.962 0.206 1.969 0.264 1.969C0.485 1.969 0.619 1.905 0.743 1.653L0.801 1.532L0 0L0.206 0L0.892 1.322L0.904 1.322L1.556 0L1.759 0L0.898 1.72C0.74 2.032 0.57 2.135 0.258 2.135C0.188 2.135 0.112 2.129 0.036 2.12Z" fill="rgb(147,149,152)" fill-opacity="1.000" fill-rule="nonzero" transform="matrix(1 0 0 1 79.3982 41.0985)"/><path d="M1.058 1.204L0.464 1.204L0.464 1.741L1.061 1.741C1.471 1.741 1.626 1.695 1.626 1.471C1.626 1.231 1.413 1.204 1.058 1.204ZM0.949 0.334L0.464 0.334L0.464 0.879L0.952 0.879C1.356 0.879 1.516 0.831 1.516 0.603C1.516 0.361 1.313 0.334 0.949 0.334ZM1.871 1.932C1.653 2.072 1.389 2.078 0.907 2.078L0 2.078L0 0L0.886 0C1.301 0 1.556 0.006 1.768 0.133C1.92 0.225 1.98 0.364 1.98 0.546C1.98 0.764 1.89 0.91 1.653 1.007L1.653 1.019C1.92 1.08 2.093 1.216 2.093 1.51C2.093 1.711 2.02 1.841 1.871 1.932Z" fill="rgb(147,149,152)" fill-opacity="1.000" fill-rule="nonzero" transform="matrix(1 0 0 1 82.5653 40.5527)"/><path d="M1.386 0.931C1.207 0.916 1.025 0.907 0.834 0.907C0.522 0.907 0.412 0.971 0.412 1.113C0.412 1.247 0.504 1.319 0.743 1.319C0.943 1.319 1.183 1.274 1.386 1.228L1.386 0.931ZM1.477 1.574L1.465 1.483C1.204 1.547 0.901 1.617 0.634 1.617C0.47 1.617 0.294 1.595 0.17 1.504C0.055 1.422 0 1.289 0 1.134C0 0.961 0.076 0.801 0.258 0.719C0.418 0.643 0.634 0.637 0.831 0.637C0.992 0.637 1.207 0.646 1.386 0.658L1.386 0.631C1.386 0.391 1.228 0.312 0.798 0.312C0.631 0.312 0.428 0.321 0.234 0.34L0.234 0.03C0.449 0.012 0.692 0 0.892 0C1.159 0 1.435 0.021 1.605 0.142C1.78 0.267 1.814 0.44 1.814 0.667L1.814 1.574L1.477 1.574Z" fill="rgb(147,149,152)" fill-opacity="1.000" fill-rule="nonzero" transform="matrix(1 0 0 1 85.0861 41.0562)"/><path d="M1.45 1.574L1.45 0.728C1.45 0.449 1.307 0.349 1.052 0.349C0.865 0.349 0.628 0.397 0.428 0.446L0.428 1.574L0 1.574L0 0.042L0.349 0.042L0.364 0.139C0.634 0.07 0.934 0 1.183 0C1.371 0 1.562 0.027 1.708 0.158C1.829 0.267 1.874 0.418 1.874 0.637L1.874 1.574L1.45 1.574Z" fill="rgb(147,149,152)" fill-opacity="1.000" fill-rule="nonzero" transform="matrix(1 0 0 1 87.4499 41.0562)"/><path d="M0.813 1.616C0.616 1.616 0.4 1.589 0.243 1.456C0.055 1.304 0 1.065 0 0.806C0 0.564 0.079 0.3 0.312 0.152C0.504 0.027 0.74 0 0.986 0C1.162 0 1.335 0.012 1.526 0.03L1.526 0.358C1.371 0.343 1.186 0.331 1.037 0.331C0.631 0.331 0.44 0.458 0.44 0.81C0.44 1.141 0.582 1.283 0.916 1.283C1.11 1.283 1.338 1.247 1.559 1.204L1.559 1.519C1.319 1.568 1.059 1.616 0.813 1.616Z" fill="rgb(147,149,152)" fill-opacity="1.000" fill-rule="nonzero" transform="matrix(1 0 0 1 89.7195 41.0562)"/><path d="M1.025 0.321C0.619 0.321 0.44 0.449 0.44 0.798C0.44 1.146 0.616 1.295 1.025 1.295C1.429 1.295 1.604 1.171 1.604 0.822C1.604 0.473 1.432 0.321 1.025 0.321ZM1.759 1.456C1.571 1.583 1.326 1.616 1.025 1.616C0.719 1.616 0.473 1.58 0.288 1.456C0.076 1.316 0 1.086 0 0.81C0 0.534 0.076 0.3 0.288 0.161C0.473 0.036 0.719 0 1.025 0C1.329 0 1.571 0.036 1.759 0.161C1.972 0.3 2.044 0.534 2.044 0.807C2.044 1.083 1.969 1.316 1.759 1.456Z" fill="rgb(147,149,152)" fill-opacity="1.000" fill-rule="nonzero" transform="matrix(1 0 0 1 91.5167 41.0562)"/><path d="M1.071 2.162C0.813 2.162 0.534 2.12 0.324 1.947C0.076 1.741 0 1.422 0 1.079C0 0.773 0.097 0.409 0.422 0.197C0.673 0.033 0.986 0 1.301 0C1.532 0 1.768 0.015 2.026 0.036L2.026 0.409C1.805 0.391 1.532 0.376 1.319 0.376C0.728 0.376 0.476 0.601 0.476 1.079C0.476 1.568 0.71 1.786 1.146 1.786C1.431 1.786 1.75 1.729 2.071 1.662L2.071 2.032C1.75 2.096 1.413 2.162 1.071 2.162Z" fill="rgb(147,149,152)" fill-opacity="1.000" fill-rule="nonzero" transform="matrix(1 0 0 1 94.9595 40.5102)"/><path d="M0.959 0.273C0.604 0.273 0.467 0.4 0.44 0.634L1.471 0.634C1.459 0.385 1.313 0.273 0.959 0.273ZM0.895 1.617C0.643 1.617 0.416 1.586 0.246 1.447C0.064 1.295 0 1.068 0 0.807C0 0.573 0.076 0.312 0.288 0.161C0.476 0.027 0.716 0 0.959 0C1.177 0 1.435 0.024 1.623 0.155C1.869 0.328 1.89 0.595 1.893 0.91L0.437 0.91C0.446 1.144 0.57 1.295 1.001 1.295C1.268 1.295 1.565 1.256 1.817 1.216L1.817 1.517C1.523 1.565 1.201 1.617 0.895 1.617Z" fill="rgb(147,149,152)" fill-opacity="1.000" fill-rule="nonzero" transform="matrix(1 0 0 1 97.3294 41.0562)"/><path d="M1.45 1.574L1.45 0.728C1.45 0.449 1.307 0.349 1.052 0.349C0.864 0.349 0.628 0.397 0.428 0.446L0.428 1.574L0 1.574L0 0.042L0.349 0.042L0.364 0.139C0.634 0.07 0.934 0 1.183 0C1.371 0 1.562 0.027 1.708 0.158C1.829 0.267 1.874 0.418 1.874 0.637L1.874 1.574L1.45 1.574Z" fill="rgb(147,149,152)" fill-opacity="1.000" fill-rule="nonzero" transform="matrix(1 0 0 1 99.6747 41.0562)"/><path d="M0.919 2.038C0.713 2.038 0.525 1.981 0.422 1.82C0.346 1.711 0.309 1.562 0.309 1.356L0.309 0.782L0 0.782L0 0.464L0.309 0.464L0.355 0L0.734 0L0.734 0.464L1.338 0.464L1.338 0.782L0.734 0.782L0.734 1.274C0.734 1.392 0.743 1.492 0.776 1.565C0.822 1.668 0.922 1.708 1.055 1.708C1.155 1.708 1.277 1.692 1.362 1.678L1.362 1.984C1.222 2.011 1.061 2.038 0.919 2.038Z" fill="rgb(147,149,152)" fill-opacity="1.000" fill-rule="nonzero" transform="matrix(1 0 0 1 101.8473 40.6345)"/><path d="M0 1.574L0 0.042L0.349 0.042L0.364 0.139C0.646 0.061 0.855 0 1.122 0C1.134 0 1.153 0 1.177 0.003L1.177 0.367C1.128 0.364 1.071 0.364 1.028 0.364C0.819 0.364 0.661 0.388 0.428 0.443L0.428 1.574L0 1.574Z" fill="rgb(147,149,152)" fill-opacity="1.000" fill-rule="nonzero" transform="matrix(1 0 0 1 103.602 41.0562)"/><path d="M1.386 0.931C1.207 0.916 1.025 0.907 0.834 0.907C0.522 0.907 0.412 0.971 0.412 1.113C0.412 1.247 0.504 1.319 0.743 1.319C0.943 1.319 1.183 1.274 1.386 1.228L1.386 0.931ZM1.477 1.574L1.465 1.483C1.204 1.547 0.901 1.617 0.634 1.617C0.47 1.617 0.294 1.595 0.17 1.504C0.055 1.422 0 1.289 0 1.134C0 0.961 0.076 0.801 0.258 0.719C0.419 0.643 0.634 0.637 0.831 0.637C0.992 0.637 1.207 0.646 1.386 0.658L1.386 0.631C1.386 0.391 1.228 0.312 0.798 0.312C0.631 0.312 0.428 0.321 0.234 0.34L0.234 0.03C0.449 0.012 0.692 0 0.892 0C1.159 0 1.435 0.021 1.605 0.142C1.78 0.267 1.814 0.44 1.814 0.667L1.814 1.574L1.477 1.574Z" fill="rgb(147,149,152)" fill-opacity="1.000" fill-rule="nonzero" transform="matrix(1 0 0 1 104.9474 41.0562)"/><path d="M0 0L0.428 0L0.428 2.178L0 2.178L0 0Z" fill="rgb(147,149,152)" fill-opacity="1.000" fill-rule="nonzero" transform="matrix(1 0 0 1 107.3118 40.4527)"/></svg>