<svg xmlns="http://www.w3.org/2000/svg" viewBox="0 0 60 60" width="60" height="60"><path d="M0 0L60 0L60 60L0 60L0 0Z" fill="rgb(255,60,0)" fill-opacity="1.000" fill-rule="nonzero" transform="matrix(1 0 0 1 0 0)"/><path d="M0 0L0 12.818L21.404 12.818L21.404 0L0 0ZM17.124 8.549L4.281 8.549L4.281 4.272L17.124 4.272L17.124 8.549Z" fill="rgb(255,255,255)" fill-opacity="1.000" fill-rule="nonzero" transform="matrix(1 0 0 1 8 23.4084)"/><path d="M0 0L0 12.817L21.462 12.817L21.462 0L0 0ZM17.17 8.548L4.292 8.548L4.292 4.272L17.17 4.272L17.17 8.548Z" fill="rgb(255,255,255)" fill-opacity="1.000" fill-rule="nonzero" transform="matrix(1 0 0 1 31.4845 23.4084)"/><path d="M4.281 0L0 0L0 4.272L4.281 4.272L4.281 0Z" fill="rgb(255,255,255)" fill-opacity="1.000" fill-rule="nonzero" transform="matrix(1 0 0 1 8 38.3625)"/><path d="M4.281 0L0 0L0 4.272L4.281 4.272L4.281 0Z" fill="rgb(255,255,255)" fill-opacity="1.000" fill-rule="nonzero" transform="matrix(1 0 0 1 31.5448 17)"/></svg>