<svg xmlns="http://www.w3.org/2000/svg" viewBox="0 0 130 60" width="130" height="60"><path d="M0 0L130 0L130 60L0 60L0 0Z" fill="rgb(255,255,255)" fill-opacity="1.000" fill-rule="nonzero" transform="matrix(1 0 0 1 0 0)"/><path d="M0 19.731L3.036 19.731L3.036 0L0 0L0 19.731Z" fill="rgb(239,41,75)" fill-opacity="1.000" fill-rule="evenodd" transform="matrix(1 0 0 1 54.8639 16)"/><path d="M3.415 7.034C3.415 9.079 4.563 10.633 6.746 10.633C8.846 10.633 10.273 8.916 10.273 6.871L10.273 0L13.661 0L13.661 13.469L10.609 13.469L10.386 11.642C8.958 13.005 7.643 13.66 5.711 13.66C2.407 13.66 0 11.233 0 7.062L0 0L3.415 0L3.415 7.034Z" fill="rgb(239,41,75)" fill-opacity="1.000" fill-rule="evenodd" transform="matrix(1 0 0 1 60.1763 22.071)"/><path d="M3.292 7.851C3.292 10.228 4.871 11.638 6.803 11.638C8.708 11.638 10.286 10.201 10.286 7.851C10.286 5.501 8.708 4.008 6.803 4.008C4.871 4.008 3.292 5.474 3.292 7.851ZM13.66 1.88L12.164 3.815C13.198 5.004 13.579 6.358 13.579 7.851C13.579 9.537 12.953 11.914 10.749 12.937C12.98 14.071 13.524 15.702 13.524 17.443C13.524 21.203 10.694 23.525 6.803 23.525C2.912 23.525 0 21.12 0 17.443L3.292 17.443C3.292 19.212 4.898 20.373 6.803 20.373C8.708 20.373 10.205 19.323 10.205 17.443C10.205 15.563 8.463 14.707 6.803 14.707C2.612 14.707 0 12.108 0 7.851C0 3.594 3.048 0.94 6.803 0.94C7.864 0.94 8.952 1.078 9.878 1.714L11.212 0L13.66 1.88Z" fill="rgb(239,41,75)" fill-opacity="1.000" fill-rule="evenodd" transform="matrix(1 0 0 1 76.1145 20.553)"/><path d="M3.292 7.851C3.292 10.228 4.871 11.638 6.803 11.638C8.708 11.638 10.286 10.201 10.286 7.851C10.286 5.501 8.708 4.008 6.803 4.008C4.871 4.008 3.292 5.474 3.292 7.851ZM13.661 1.88L12.164 3.815C13.198 5.004 13.58 6.358 13.58 7.851C13.58 9.537 12.954 11.914 10.75 12.937C12.981 14.071 13.525 15.702 13.525 17.443C13.525 21.203 10.694 23.525 6.803 23.525C2.912 23.525 0 21.12 0 17.443L3.292 17.443C3.292 19.212 4.898 20.373 6.803 20.373C8.708 20.373 10.205 19.323 10.205 17.443C10.205 15.563 8.464 14.707 6.803 14.707C2.612 14.707 0 12.108 0 7.851C0 3.594 3.049 0.94 6.803 0.94C7.865 0.94 8.953 1.078 9.878 1.714L11.212 0L13.661 1.88Z" fill="rgb(239,41,75)" fill-opacity="1.000" fill-rule="evenodd" transform="matrix(1 0 0 1 91.293 20.553)"/><path d="M6.718 19.731L2.951 19.731L5.538 13.69L0 0L3.992 0L6.1 6.013L7.421 9.936L8.855 6.097L11.384 0L15.179 0L6.718 19.731Z" fill="rgb(239,41,75)" fill-opacity="1.000" fill-rule="evenodd" transform="matrix(1 0 0 1 106.4706 22.071)"/><path d="M7.21 11.155C4.931 11.143 3.368 9.383 3.368 7.232C3.368 5.08 4.795 3.319 7.21 3.309C9.625 3.319 11.052 5.08 11.052 7.232C11.052 9.383 9.489 11.143 7.21 11.155ZM7.437 0L6.983 0C2.788 0 0 3.168 0 7.232C0 7.28 0.002 7.328 0.003 7.376L0 7.376L0 22.766L3.34 22.766L3.34 13.595C4.323 14.149 5.507 14.463 6.873 14.463L7.547 14.463C11.908 14.463 14.42 11.268 14.42 7.232C14.42 3.168 11.632 0 7.437 0Z" fill="rgb(239,41,75)" fill-opacity="1.000" fill-rule="evenodd" transform="matrix(1 0 0 1 37.4084 21.3121)"/><path d="M7.121 14.243C11.054 14.243 14.243 11.054 14.243 7.121C14.243 3.188 11.054 0 7.121 0C3.188 0 0 3.188 0 7.121C0 11.054 3.188 14.243 7.121 14.243ZM7.121 11.31C9.434 11.31 11.31 9.435 11.31 7.121C11.31 4.808 9.434 2.932 7.121 2.932C4.807 2.932 2.932 4.808 2.932 7.121C2.932 9.435 4.807 11.31 7.121 11.31Z" fill="rgb(239,41,75)" fill-opacity="1.000" fill-rule="evenodd" transform="matrix(1 0 0 1 15.8419 21.4935)"/><path d="M6.124 2.178C4.292 2.625 2.932 4.277 2.932 6.247C2.932 8.217 4.292 9.87 6.124 10.317C5.496 11.216 4.666 11.964 3.7 12.495C1.495 11.284 0 8.94 0 6.247C0 3.554 1.495 1.21 3.701 0C4.667 0.53 5.497 1.278 6.124 2.178Z" fill="rgb(77,226,199)" fill-opacity="1.000" fill-rule="evenodd" transform="matrix(1 0 0 1 15.841 22.3675)"/><path d="M7.121 14.243C11.054 14.243 14.243 11.054 14.243 7.121C14.243 3.188 11.054 0 7.121 0C3.188 0 0 3.188 0 7.121C0 11.054 3.188 14.243 7.121 14.243ZM7.121 11.31C9.434 11.31 11.31 9.435 11.31 7.121C11.31 4.808 9.434 2.932 7.121 2.932C4.807 2.932 2.932 4.808 2.932 7.121C2.932 9.435 4.807 11.31 7.121 11.31Z" fill="rgb(239,41,75)" fill-opacity="1.000" fill-rule="evenodd" transform="matrix(1 0 0 1 9 21.4932)"/></svg>