<svg xmlns="http://www.w3.org/2000/svg" viewBox="0 0 60 60" width="60" height="60"><path d="M0 0L60 0L60 60L0 60L0 0Z" fill="rgb(239,41,75)" fill-opacity="1.000" fill-rule="nonzero" transform="matrix(1 0 0 1 0 0)"/><path d="M13.696 27.391C21.259 27.391 27.391 21.259 27.391 13.696C27.391 6.132 21.259 0 13.696 0C6.132 0 0 6.132 0 13.696C0 21.259 6.132 27.391 13.696 27.391ZM13.696 21.752C18.145 21.752 21.752 18.145 21.752 13.696C21.752 9.246 18.145 5.639 13.696 5.639C9.246 5.639 5.639 9.246 5.639 13.696C5.639 18.145 9.246 21.752 13.696 21.752Z" fill="rgb(255,255,255)" fill-opacity="1.000" fill-rule="evenodd" transform="matrix(1 0 0 1 23.16 16.0005)"/><path d="M11.776 4.188C8.254 5.049 5.639 8.226 5.639 12.014C5.639 15.802 8.254 18.979 11.776 19.841C10.569 21.57 8.974 23.009 7.115 24.029C2.875 21.701 0 17.193 0 12.014C0 6.835 2.875 2.328 7.116 0C8.974 1.02 10.57 2.458 11.776 4.188Z" fill="rgb(77,226,199)" fill-opacity="1.000" fill-rule="evenodd" transform="matrix(1 0 0 1 23.1608 17.6817)"/><path d="M13.696 27.391C21.259 27.391 27.391 21.259 27.391 13.696C27.391 6.132 21.259 0 13.696 0C6.132 0 0 6.132 0 13.696C0 21.259 6.132 27.391 13.696 27.391ZM13.696 21.752C18.145 21.752 21.752 18.145 21.752 13.696C21.752 9.246 18.145 5.64 13.696 5.64C9.246 5.64 5.639 9.246 5.639 13.696C5.639 18.145 9.246 21.752 13.696 21.752Z" fill="rgb(255,255,255)" fill-opacity="1.000" fill-rule="evenodd" transform="matrix(1 0 0 1 10 16.0001)"/></svg>