<svg xmlns="http://www.w3.org/2000/svg" viewBox="0 0 130 60" width="130" height="60"><path d="M0 0L130 0L130 60L0 60L0 0Z" fill="rgb(255,255,255)" fill-opacity="1.000" fill-rule="nonzero" transform="matrix(1 0 0 1 0 0)"/><path d="M8.816 3.806C11.071 3.806 11.982 5.361 11.982 6.429L5.649 6.429C5.649 5.348 6.57 3.806 8.816 3.806ZM11.472 11.227C11.051 12.038 10.085 12.587 8.839 12.587C6.485 12.587 5.554 10.925 5.529 9.444L17.223 9.444C17.256 9.236 17.342 8.644 17.342 8.182C17.342 2.952 13.708 0 8.797 0C3.62 0 0 2.952 0 8.182C0 13.45 3.62 16.364 8.828 16.364C13.948 16.364 16.354 13.571 16.997 11.227L11.472 11.227Z" fill="rgb(34,28,70)" fill-opacity="1.000" fill-rule="nonzero" transform="matrix(1 0 0 1 96.6586 21.7066)"/><path d="M8.993 11.507C6.893 11.507 5.402 10.017 5.402 8.037C5.402 6.151 6.802 4.568 8.993 4.568C11.184 4.568 12.584 6.16 12.584 8.037C12.584 9.945 11.165 11.507 8.993 11.507ZM10.564 0C8.26 0 6.283 1.007 5.264 2.189L5.261 0.309L0 0.309L0 21.913L5.423 21.913L5.423 14.178C6.695 15.534 8.467 16.049 10.258 16.049C15.631 16.049 18.123 12.028 18.123 8.024C18.123 3.083 14.922 0 10.564 0Z" fill="rgb(34,28,70)" fill-opacity="1.000" fill-rule="nonzero" transform="matrix(1 0 0 1 15 21.8641)"/><path d="M5.445 0L0 0L0 21.604L5.445 21.604L5.445 0Z" fill="rgb(34,28,70)" fill-opacity="1.000" fill-rule="nonzero" transform="matrix(1 0 0 1 34.909 16)"/><path d="M10.959 0L10.959 8.025C10.959 9.241 10.79 9.832 10.286 10.421C9.8 10.991 9.037 11.26 8.192 11.26C7.347 11.26 6.583 10.991 6.096 10.421C5.593 9.832 5.425 9.241 5.425 8.025L5.425 0L0 0L0.001 8.501C0.001 10.891 0.37 12.451 1.528 13.777C2.754 15.179 4.626 15.737 6.458 15.737C8.605 15.737 10.092 14.938 11.12 13.762L11.123 15.432L16.384 15.432L16.384 0L10.959 0Z" fill="rgb(34,28,70)" fill-opacity="1.000" fill-rule="nonzero" transform="matrix(1 0 0 1 42.5349 22.1725)"/><path d="M15.585 0L11.878 0L7.792 4.118L3.707 0L0 0L0 3.671L4.158 7.716L0 11.761L0 15.432L3.707 15.432L7.792 11.314L11.877 15.432L15.584 15.432L15.584 11.761L11.426 7.716L15.585 3.671L15.585 0Z" fill="rgb(34,28,70)" fill-opacity="1.000" fill-rule="nonzero" transform="matrix(1 0 0 1 61.0199 22.1726)"/><path d="M8.815 3.806C11.071 3.806 11.982 5.361 11.982 6.429L5.649 6.429C5.649 5.348 6.569 3.806 8.815 3.806ZM11.472 11.227C11.05 12.038 10.085 12.587 8.839 12.587C6.485 12.587 5.554 10.925 5.529 9.444L17.223 9.444C17.256 9.236 17.342 8.644 17.342 8.182C17.342 2.952 13.708 0 8.797 0C3.62 0 0 2.952 0 8.182C0 13.45 3.62 16.364 8.828 16.364C13.948 16.364 16.354 13.571 16.997 11.227L11.472 11.227Z" fill="rgb(34,28,70)" fill-opacity="1.000" fill-rule="nonzero" transform="matrix(1 0 0 1 77.8078 21.7066)"/></svg>