<svg xmlns="http://www.w3.org/2000/svg" viewBox="0 0 60 60" width="60" height="60"><path d="M0 0L60 0L60 60L0 60L0 0Z" fill="rgb(22,1,27)" fill-opacity="1.000" fill-rule="nonzero" transform="matrix(1 0 0 1 0 0)"/><path d="M0.486 14.798L12.845 7.691C13.061 7.567 13.061 7.256 12.845 7.132L0.486 0.044C0.27 -0.08 0 0.075 0 0.323L0 14.518C0 14.767 0.27 14.922 0.486 14.798Z" fill="rgb(232,53,124)" fill-opacity="1.000" fill-rule="nonzero" transform="matrix(1 0 0 1 30.9746 28.8271)"/><path d="M12.825 7.123L0.486 0.044C0.27 -0.08 0 0.075 0 0.323L0 14.507C0 14.756 0.271 14.911 0.487 14.787L12.825 7.683C13.042 7.558 13.042 7.247 12.825 7.123Z" fill="rgb(206,26,85)" fill-opacity="1.000" fill-rule="nonzero" transform="matrix(1 0 0 1 30.9883 11.6279)"/><path d="M12.825 7.123L0.487 0.044C0.27 -0.08 0 0.075 0 0.323L0 14.507C0 14.756 0.271 14.911 0.487 14.787L12.825 7.683C13.042 7.558 13.042 7.247 12.825 7.123Z" fill="rgb(237,113,167)" fill-opacity="1.000" fill-rule="nonzero" transform="matrix(1 0 0 1 16 37.4468)"/><path d="M12.514 0.044L0.162 7.147C-0.054 7.272 -0.054 7.582 0.162 7.706L12.514 14.791C12.73 14.915 13.001 14.76 13.001 14.511L13.001 0.324C13.001 0.075 12.73 -0.081 12.514 0.044Z" fill="rgb(185,22,73)" fill-opacity="1.000" fill-rule="nonzero" transform="matrix(1 0 0 1 16.8828 11.6196)"/><path d="M0.163 7.704L12.496 14.781C12.712 14.905 12.982 14.75 12.982 14.501L12.982 0.324C12.982 0.075 12.711 -0.081 12.495 0.044L0.162 7.145C-0.054 7.269 -0.054 7.58 0.163 7.704Z" fill="rgb(233,69,135)" fill-opacity="1.000" fill-rule="nonzero" transform="matrix(1 0 0 1 16.8887 28.8369)"/><path d="M12.995 14.509L12.989 0.323C12.989 0.075 12.718 -0.08 12.502 0.044L0.162 7.149C-0.054 7.273 -0.054 7.584 0.163 7.708L12.508 14.789C12.725 14.913 12.995 14.758 12.995 14.509Z" fill="rgb(230,30,102)" fill-opacity="1.000" fill-rule="nonzero" transform="matrix(1 0 0 1 31.8457 20.2144)"/></svg>