<svg xmlns="http://www.w3.org/2000/svg" viewBox="0 0 130 60" width="130" height="60"><path d="M0 0L130 0L130 60L0 60L0 0Z" fill="rgb(255,255,255)" fill-opacity="1.000" fill-rule="nonzero" transform="matrix(1 0 0 1 0 0)"/><path d="M6.123 0C5.001 0 4.045 0.302 3.203 0.923C2.888 1.158 2.632 1.403 2.426 1.669L2.426 0.43C2.426 0.318 2.335 0.228 2.223 0.228L0.203 0.228C0.091 0.228 0 0.318 0 0.43L0 15.865C0 15.97 0.115 16.035 0.206 15.98L2.296 14.722C2.377 14.674 2.427 14.586 2.427 14.492L2.427 9.836C2.633 10.101 2.888 10.346 3.204 10.581C4.046 11.202 5.001 11.504 6.124 11.504C7.497 11.504 8.793 10.926 9.774 9.877C10.78 8.799 11.335 7.335 11.335 5.752C11.335 4.17 10.78 2.705 9.774 1.627C8.792 0.578 7.496 0 6.123 0ZM8.906 5.752C8.906 7.72 7.513 9.204 5.666 9.204C3.819 9.204 2.426 7.72 2.426 5.752C2.426 3.784 3.819 2.301 5.666 2.301C7.513 2.301 8.906 3.785 8.906 5.752Z" fill="rgb(22,1,27)" fill-opacity="1.000" fill-rule="nonzero" transform="matrix(1 0 0 1 40.7953 23.0649)"/><path d="M5.782 0C2.54 0 0 2.527 0 5.752C0 8.978 2.54 11.504 5.782 11.504C9.023 11.504 11.563 8.978 11.563 5.752C11.563 2.527 9.023 0 5.782 0ZM5.782 9.204C3.838 9.204 2.427 7.752 2.427 5.752C2.427 3.752 3.838 2.301 5.782 2.301C7.725 2.301 9.136 3.752 9.136 5.752C9.136 7.752 7.725 9.204 5.782 9.204Z" fill="rgb(22,1,27)" fill-opacity="1.000" fill-rule="nonzero" transform="matrix(1 0 0 1 53.813 23.0649)"/><path d="M12.747 0C11.61 0 10.612 0.311 9.779 0.925C9.427 1.205 9.163 1.48 8.976 1.76C8.766 1.464 8.512 1.19 8.202 0.926C7.693 0.504 6.82 0.001 5.553 0.001C4.582 0.001 3.76 0.303 3.037 0.928C2.786 1.159 2.584 1.391 2.426 1.631L2.426 0.43C2.426 0.319 2.335 0.228 2.223 0.228L0.203 0.228C0.091 0.228 0 0.319 0 0.43L0 11.076C0 11.187 0.091 11.278 0.203 11.278L2.223 11.278C2.335 11.278 2.426 11.187 2.426 11.076L2.426 5.184C2.426 3.486 3.477 2.301 4.981 2.301C6.325 2.301 7.194 3.254 7.194 4.73L7.194 11.076C7.194 11.187 7.284 11.278 7.397 11.278L9.417 11.278C9.529 11.278 9.62 11.187 9.62 11.076L9.62 5.184C9.62 3.486 10.671 2.301 12.175 2.301C13.52 2.301 14.388 3.254 14.388 4.73L14.388 11.076C14.388 11.187 14.479 11.278 14.591 11.278L16.612 11.278C16.724 11.278 16.815 11.187 16.815 11.076L16.815 4.73C16.815 3.353 16.399 2.163 15.612 1.288C14.866 0.458 13.848 0 12.747 0Z" fill="rgb(22,1,27)" fill-opacity="1.000" fill-rule="nonzero" transform="matrix(1 0 0 1 67.7474 23.0649)"/><path d="M9.19 7.922C9.11 7.832 8.972 7.831 8.89 7.917C8.685 8.128 8.45 8.32 8.186 8.488C7.695 8.814 6.898 9.204 5.896 9.204C5.033 9.204 4.249 8.929 3.63 8.411C3.072 7.945 2.694 7.31 2.556 6.619L10.865 6.619C10.932 6.619 10.989 6.57 10.999 6.503L11.038 6.237C11.042 6.195 11.048 6.15 11.054 6.103C11.077 5.917 11.106 5.686 11.106 5.411C11.106 2.276 8.819 0 5.667 0C4.151 0 2.729 0.593 1.662 1.669C0.591 2.75 0 4.2 0 5.752C0 8.978 2.54 11.504 5.782 11.504C7.126 11.504 8.296 11.166 9.361 10.47C9.78 10.199 10.132 9.896 10.41 9.567C10.476 9.491 10.474 9.379 10.407 9.304L9.19 7.922ZM2.568 4.545C2.93 3.447 3.761 2.187 5.668 2.187C7.123 2.187 8.167 3.045 8.546 4.545L2.568 4.545Z" fill="rgb(22,1,27)" fill-opacity="1.000" fill-rule="nonzero" transform="matrix(1 0 0 1 86.9339 23.0649)"/><path d="M0.203 16.001L2.224 16.001C2.336 16.001 2.427 15.91 2.427 15.799L2.427 0.135C2.427 0.03 2.312 -0.034 2.222 0.019L0.132 1.26C0.05 1.308 0 1.396 0 1.491L0 15.799C0 15.91 0.091 16.001 0.203 16.001Z" fill="rgb(22,1,27)" fill-opacity="1.000" fill-rule="nonzero" transform="matrix(1 0 0 1 100.5257 18.3413)"/><path d="M5.782 0C2.54 0 0 2.527 0 5.752C0 8.978 2.54 11.504 5.782 11.504C9.023 11.504 11.563 8.978 11.563 5.752C11.562 2.527 9.023 0 5.782 0ZM9.136 5.752C9.136 7.752 7.725 9.204 5.781 9.204C3.837 9.204 2.426 7.752 2.426 5.752C2.426 3.752 3.837 2.301 5.781 2.301C7.726 2.301 9.136 3.752 9.136 5.752Z" fill="rgb(22,1,27)" fill-opacity="1.000" fill-rule="nonzero" transform="matrix(1 0 0 1 105.437 23.0649)"/><path d="M0.406 12.358L10.727 6.423C10.908 6.319 10.908 6.06 10.727 5.956L0.406 0.036C0.226 -0.067 0 0.062 0 0.27L0 12.124C0 12.332 0.226 12.462 0.406 12.358Z" fill="rgb(232,53,124)" fill-opacity="1.000" fill-rule="nonzero" transform="matrix(1 0 0 1 24.5056 29.3703)"/><path d="M10.711 5.949L0.406 0.036C0.226 -0.067 0 0.062 0 0.27L0 12.115C0 12.323 0.226 12.453 0.407 12.349L10.711 6.416C10.891 6.312 10.891 6.052 10.711 5.949Z" fill="rgb(206,26,85)" fill-opacity="1.000" fill-rule="nonzero" transform="matrix(1 0 0 1 24.517 15.0069)"/><path d="M10.71 5.949L0.406 0.036C0.226 -0.067 0 0.062 0 0.27L0 12.115C0 12.323 0.226 12.453 0.407 12.349L10.711 6.416C10.891 6.312 10.891 6.052 10.71 5.949Z" fill="rgb(237,113,167)" fill-opacity="1.000" fill-rule="nonzero" transform="matrix(1 0 0 1 12 36.5687)"/><path d="M10.451 0.037L0.135 5.969C-0.045 6.073 -0.045 6.332 0.135 6.436L10.451 12.352C10.631 12.456 10.857 12.326 10.857 12.119L10.857 0.27C10.858 0.063 10.631 -0.067 10.451 0.037Z" fill="rgb(185,22,73)" fill-opacity="1.000" fill-rule="nonzero" transform="matrix(1 0 0 1 12.7373 15)"/><path d="M0.136 6.434L10.435 12.344C10.616 12.447 10.842 12.318 10.842 12.11L10.842 0.27C10.842 0.063 10.615 -0.067 10.435 0.037L0.135 5.967C-0.045 6.07 -0.045 6.33 0.136 6.434Z" fill="rgb(233,69,135)" fill-opacity="1.000" fill-rule="nonzero" transform="matrix(1 0 0 1 12.7421 29.3785)"/><path d="M10.852 12.117L10.847 0.27C10.847 0.062 10.621 -0.067 10.44 0.036L0.135 5.97C-0.045 6.074 -0.045 6.333 0.136 6.437L10.446 12.35C10.627 12.454 10.852 12.324 10.852 12.117Z" fill="rgb(230,30,102)" fill-opacity="1.000" fill-rule="nonzero" transform="matrix(1 0 0 1 25.233 22.1776)"/></svg>