<svg xmlns="http://www.w3.org/2000/svg" viewBox="0 0 60 60" width="60" height="60"><path d="M0 0L60 0L60 60L0 60L0 0Z" fill="rgb(43,86,192)" fill-opacity="1.000" fill-rule="nonzero" transform="matrix(1 0 0 1 0 0)"/><path d="M33.893 20.811C30.484 16.633 19.242 18.819 10.484 21.616C10.46 21.626 10.434 21.63 10.408 21.628C10.382 21.625 10.357 21.617 10.336 21.602C10.314 21.588 10.296 21.569 10.283 21.546C10.271 21.524 10.264 21.498 10.263 21.472C10.276 21.03 10.284 20.584 10.284 20.132C10.291 17.906 10.104 15.684 9.725 13.491C9.719 13.454 9.728 13.417 9.749 13.386C9.771 13.356 9.803 13.335 9.839 13.327C17.088 10.683 31.69 9.865 34.19 20.691L34.19 20.694C34.232 20.853 33.996 20.946 33.891 20.812M26.554 32.957C26.314 33.134 26.001 32.842 26.206 32.632C29.735 29.024 32.633 23.302 7.068 34.942C6.911 35.013 6.754 34.85 6.858 34.722C8.266 32.709 9.524 29.464 10.092 24.863C10.095 24.835 10.106 24.808 10.123 24.785C10.141 24.763 10.164 24.745 10.191 24.735C26.212 18.297 44.307 18.535 26.553 32.956M5.166 4.168C5.135 4.153 5.111 4.127 5.097 4.096C5.084 4.064 5.082 4.029 5.091 3.996C5.101 3.963 5.122 3.935 5.151 3.916C5.179 3.897 5.214 3.889 5.248 3.893C9.682 3.907 23.033 3.575 29.916 12.347C30.01 12.497 29.796 12.65 29.658 12.531C27.581 10.723 21.959 7.662 9.002 10.342C8.96 10.353 8.915 10.348 8.877 10.327C8.839 10.307 8.81 10.272 8.797 10.23C7.766 6.932 6.455 5.15 5.168 4.168M33.643 0L4.529 0C3.319 0.009 2.162 0.499 1.312 1.361C0.463 2.224 -0.009 3.388 0 4.599L0 34.15C-0.009 35.361 0.463 36.525 1.312 37.388C2.162 38.25 3.319 38.74 4.529 38.749L33.642 38.749C34.853 38.74 36.01 38.25 36.86 37.388C37.709 36.526 38.182 35.361 38.173 34.15L38.173 4.599C38.181 3.389 37.709 2.224 36.859 1.362C36.01 0.499 34.853 0.01 33.642 0" fill="rgb(255,255,255)" fill-opacity="1.000" fill-rule="nonzero" transform="matrix(1 0 0 1 11 11)"/></svg>