<svg xmlns="http://www.w3.org/2000/svg" viewBox="0 0 130 60" width="130" height="60"><path d="M0 0L130 0L130 60L0 60L0 0Z" fill="rgb(255,255,255)" fill-opacity="1.000" fill-rule="nonzero" transform="matrix(1 0 0 1 0 0)"/><path d="M28.752 17.655C25.861 14.11 16.324 15.965 8.894 18.338C8.874 18.346 8.852 18.349 8.83 18.347C8.808 18.345 8.787 18.338 8.768 18.326C8.75 18.314 8.734 18.298 8.724 18.278C8.713 18.259 8.707 18.238 8.706 18.216C8.718 17.84 8.724 17.462 8.724 17.079C8.731 15.191 8.572 13.305 8.25 11.445C8.245 11.414 8.253 11.382 8.271 11.356C8.289 11.33 8.316 11.312 8.347 11.306C14.497 9.063 26.884 8.369 29.005 17.553L29.005 17.555C29.04 17.69 28.84 17.769 28.751 17.655M22.526 27.958C22.323 28.108 22.057 27.861 22.231 27.683C25.225 24.622 27.684 19.768 5.996 29.642C5.863 29.703 5.73 29.564 5.818 29.456C7.012 27.748 8.08 24.995 8.561 21.092C8.564 21.068 8.573 21.045 8.588 21.026C8.603 21.007 8.623 20.992 8.646 20.984C22.236 15.522 37.587 15.724 22.526 27.957M4.383 3.536C4.357 3.523 4.336 3.501 4.324 3.475C4.313 3.448 4.311 3.418 4.319 3.39C4.328 3.362 4.345 3.338 4.37 3.322C4.394 3.306 4.423 3.299 4.452 3.303C8.213 3.314 19.54 3.033 25.379 10.474C25.458 10.601 25.277 10.731 25.16 10.63C23.398 9.097 18.628 6.5 7.637 8.773C7.601 8.783 7.563 8.779 7.531 8.761C7.498 8.743 7.474 8.714 7.463 8.678C6.588 5.881 5.476 4.369 4.384 3.536M28.54 0L3.842 0C2.815 0.008 1.834 0.423 1.113 1.155C0.393 1.887 -0.008 2.874 0 3.901L0 28.971C-0.008 29.998 0.393 30.986 1.113 31.717C1.834 32.449 2.815 32.864 3.842 32.872L28.54 32.872C29.567 32.864 30.549 32.449 31.269 31.717C31.99 30.986 32.391 29.998 32.383 28.971L32.383 3.902C32.391 2.875 31.99 1.887 31.269 1.155C30.548 0.424 29.567 0.008 28.54 0" fill="rgb(43,86,192)" fill-opacity="1.000" fill-rule="nonzero" transform="matrix(1 0 0 1 23.8934 12.9575)"/><path d="M0 0L5.651 0C8.587 0 10.336 1.81 10.336 4.364C10.336 6.918 8.587 8.729 5.651 8.729L2.674 8.729L2.674 14.078L0 14.078L0 0ZM5.531 6.495C7.099 6.495 7.742 5.489 7.742 4.362C7.742 3.236 7.098 2.23 5.531 2.23L2.675 2.23L2.675 6.493L5.531 6.493L5.531 6.495ZM15.686 3.78C18.763 3.78 20.975 5.992 20.975 9.009C20.975 12.025 18.763 14.236 15.686 14.236C12.589 14.236 10.377 12.024 10.377 9.008C10.377 5.991 12.589 3.78 15.686 3.78ZM15.686 12.106C17.356 12.106 18.481 10.84 18.481 9.009C18.481 7.178 17.354 5.911 15.686 5.911C13.997 5.911 12.871 7.178 12.871 9.009C12.871 10.84 13.996 12.106 15.686 12.106ZM22.1 7.561C22.1 5.249 23.407 3.942 25.719 3.942L27.991 3.942L27.991 6.013L26.101 6.013C25.116 6.013 24.573 6.576 24.573 7.562L24.573 14.077L22.099 14.077L22.099 7.561L22.1 7.561ZM29.239 0.885L31.712 0.885L31.712 3.942L34.528 3.942L34.528 6.014L31.713 6.014L31.713 10.438C31.713 11.464 32.256 11.987 33.181 11.987L34.528 11.987L34.528 14.079L32.898 14.079C30.687 14.079 29.239 12.792 29.239 10.539L29.239 0.885ZM40.581 3.78C43.658 3.78 45.87 5.992 45.87 9.009C45.87 12.025 43.659 14.236 40.581 14.236C37.484 14.236 35.273 12.024 35.273 9.008C35.273 5.991 37.484 3.78 40.581 3.78L40.581 3.78ZM40.581 12.106C42.251 12.106 43.376 10.84 43.376 9.009C43.376 7.178 42.25 5.911 40.581 5.911C38.892 5.911 37.766 7.178 37.766 9.009C37.766 10.84 38.892 12.106 40.581 12.106L40.581 12.106Z" fill="rgb(43,86,192)" fill-opacity="1.000" fill-rule="nonzero" transform="matrix(1 0 0 1 61.1299 13.0221)"/><path d="M0 0L5.585 0C8.222 0 10.099 1.319 10.099 3.71C10.092 4.298 9.926 4.874 9.617 5.375C9.308 5.876 8.869 6.283 8.347 6.554C9.092 6.809 9.736 7.297 10.181 7.947C10.627 8.597 10.851 9.373 10.82 10.16C10.82 12.839 8.822 14.426 5.792 14.426L0.001 14.426L0.001 0L0 0ZM5.399 5.647C6.842 5.647 7.563 5.028 7.563 3.915C7.563 2.803 6.842 2.184 5.358 2.184L2.679 2.184L2.679 5.647L5.399 5.647ZM5.503 12.055C7.338 12.055 8.202 11.354 8.202 10.015C8.202 8.695 7.336 7.955 5.503 7.955L2.679 7.955L2.679 12.055L5.503 12.055Z" fill="rgb(0,0,0)" fill-opacity="1.000" fill-rule="nonzero" transform="matrix(1 0 0 1 61.1147 31.4528)"/><path d="M4.452 1.896C3.113 1.896 2.308 2.742 2.267 3.668L0 3.668C0.123 1.608 1.875 0 4.576 0C7.213 0 9.068 1.525 9.068 3.875L9.068 10.552L6.574 10.552L6.574 9.006C6.142 10.037 4.947 10.716 3.463 10.716C1.403 10.716 0.002 9.397 0.002 7.605C0.002 5.585 1.568 4.328 3.897 4.328L6.575 4.328L6.575 3.898C6.574 2.619 5.791 1.896 4.452 1.896ZM4.06 8.842C5.647 8.842 6.574 7.73 6.574 6.164L6.574 6.041L4.369 6.041C3.173 6.041 2.452 6.598 2.452 7.503C2.452 8.307 3.111 8.842 4.06 8.842Z" fill="rgb(0,0,0)" fill-opacity="1.000" fill-rule="nonzero" transform="matrix(1 0 0 1 73.1288 35.3264)"/><path d="M0 0.164L2.535 0.164L2.535 1.772C3.113 0.639 4.288 0 5.771 0C8.12 0 9.646 1.69 9.646 4.122L9.646 10.552L7.111 10.552L7.111 4.658C7.111 3.236 6.245 2.247 4.947 2.247C3.526 2.247 2.537 3.36 2.537 4.884L2.537 10.551L0.001 10.551L0.001 0.164L0 0.164Z" fill="rgb(0,0,0)" fill-opacity="1.000" fill-rule="nonzero" transform="matrix(1 0 0 1 83.9898 35.3277)"/><path d="M0 14.839L0 0L2.536 0L2.536 8.244L6.513 4.452L9.727 4.452L5.502 8.533L10.078 14.838L7.007 14.838L3.771 10.201L2.535 11.397L2.535 14.839L0 14.839Z" fill="rgb(0,0,0)" fill-opacity="1.000" fill-rule="nonzero" transform="matrix(1 0 0 1 95.736 31.0405)"/></svg>