<svg xmlns="http://www.w3.org/2000/svg" viewBox="0 0 60 60" width="60" height="60"><path d="M0 0L60 0L60 60L0 60L0 0Z" fill="rgb(2,63,136)" fill-opacity="1.000" fill-rule="nonzero" transform="matrix(1 0 0 1 0 0)"/><path d="M0 0L8.571 0L8.571 1.429L0 1.429L0 0Z" fill="rgb(255,255,255)" fill-opacity="1.000" fill-rule="nonzero" transform="matrix(1 0 0 1 12.8574 41.4286)"/><path d="M0 0L8.571 0L8.571 1.429L0 1.429L0 0Z" fill="rgb(255,255,255)" fill-opacity="1.000" fill-rule="nonzero" transform="matrix(0 1 -1 0 21.4289 41.4286)"/><path d="M0 0L27.143 0L27.143 1.429L0 1.429L0 0Z" fill="rgb(255,255,255)" fill-opacity="1.000" fill-rule="nonzero" transform="matrix(-1 0 0 1 47.1431 48.5714)"/><path d="M0 0L1.429 0L1.429 8.571L0 8.571L0 0Z" fill="rgb(255,255,255)" fill-opacity="1.000" fill-rule="nonzero" transform="matrix(1 0 0 1 37.1431 10)"/><path d="M0 0L32.857 0L32.857 8.571L0 8.571L0 0Z" fill="rgb(255,255,255)" fill-opacity="1.000" fill-rule="nonzero" transform="matrix(0 1 -1 0 47.1431 15.7143)"/><path d="M0 0L0 31.224L0 38.571L31.429 38.571L31.429 7.319L22.982 7.319L22.982 0L0 0Z" fill="rgb(255,255,255)" fill-opacity="1.000" fill-rule="nonzero" transform="matrix(1 0 0 1 14.2866 10)"/><path d="M0 0L32.857 0L32.857 40L0 40L0 0Z" fill="rgb(217,217,217)" fill-opacity="1.000" fill-rule="nonzero" transform="matrix(1 0 0 1 12.8577 10)"/><path d="M0 0L0 31.686L7.321 31.686L7.321 39.142L148.571 39.142L148.571 7.427L141.251 7.427L141.251 0L0 0Z" fill="rgb(255,255,255)" fill-opacity="1.000" fill-rule="nonzero" transform="matrix(1 0 0 1 12.8571 10)"/><path d="M1.958 0L0 0L0 4.97L1.674 4.97C3.008 4.97 3.944 4.744 4.455 4.293C4.994 3.813 5.25 3.219 5.25 2.513C5.25 1.807 5.023 1.214 4.569 0.734C4.086 0.254 3.235 0 1.93 0" fill="rgb(2,63,136)" fill-opacity="1.000" fill-rule="nonzero" transform="matrix(1 0 0 1 94.9749 22.9343)"/><path d="M4.597 0.028C3.206 0.028 2.1 0.537 1.249 1.497C0.397 2.485 0 4.095 0 6.382C0 8.67 0.426 10.251 1.249 11.24C2.1 12.228 3.235 12.708 4.653 12.708C6.072 12.708 7.264 12.228 8.087 11.268C8.91 10.308 9.307 8.585 9.307 6.072C9.307 3.954 8.882 2.429 8.03 1.469C7.208 0.48 6.044 0 4.597 0" fill="rgb(2,63,136)" fill-opacity="1.000" fill-rule="nonzero" transform="matrix(1 0 0 1 47.4163 23.2166)"/><path d="M1.958 0L0 0L0 4.97L1.674 4.97C3.008 4.97 3.944 4.744 4.483 4.293C5.022 3.841 5.278 3.219 5.278 2.513C5.278 1.807 5.051 1.214 4.597 0.734C4.114 0.254 3.263 0 1.958 0Z" fill="rgb(2,63,136)" fill-opacity="1.000" fill-rule="nonzero" transform="matrix(1 0 0 1 28.0357 22.9343)"/><path d="M0 0L0 30L7.321 30L7.321 7.456L18.756 7.456C21.253 7.456 23.097 8.049 24.346 9.235C25.595 10.421 26.218 12.115 26.218 14.29C26.218 14.77 26.19 15.25 26.105 15.674C26.105 15.702 26.105 15.758 26.105 15.815C26.105 15.871 26.105 15.928 26.076 15.984L26.956 15.984C26.956 15.984 31.925 16.041 31.925 15.984C32.322 13.669 41.115 10.169 36.925 9.754C38.94 7.721 34.617 7.06 38.221 7.06C41.825 7.06 44.776 8.049 46.79 10.054C48.322 11.551 49.259 13.527 49.628 15.984L51.019 15.984L51.019 7.456L57.885 7.456L57.885 21.068C57.885 22.282 58.225 23.242 58.906 23.92C59.588 24.598 60.524 24.937 61.715 24.937C62.908 24.937 63.815 24.598 64.496 23.948C65.177 23.271 65.518 22.31 65.518 21.068L65.518 7.456L72.385 7.456L72.385 15.984L74.257 15.984L74.257 7.456L85.693 7.456C88.19 7.456 90.034 8.049 91.283 9.235C92.531 10.421 93.155 12.115 93.155 14.29C93.155 14.911 93.099 15.448 92.985 15.984L94.12 15.984L94.12 7.456L121.303 7.456L126.07 13.33L130.837 7.456L139.35 7.456L139.35 0L0 0Z" fill="rgb(2,63,136)" fill-opacity="1.000" fill-rule="nonzero" transform="matrix(1 0 0 1 13.7891 11.4286)"/><path d="M132.001 0L123.006 11.155L132.029 22.31L123.488 22.31L118.749 16.436L114.011 22.31L105.47 22.31L114.464 11.155L105.442 0L105.242 0L105.242 5.45L93.694 5.45L93.694 8.585L105.214 8.585L105.214 13.725L93.694 13.725L93.694 16.803L105.214 16.803L105.214 22.31L86.799 22.31L86.799 8.529L85.664 8.529C85.664 8.698 85.522 9.178 85.466 9.404C85.154 10.477 84.586 11.381 83.791 12.115C82.429 13.386 80.386 14.007 77.606 14.007L73.832 14.007L73.832 22.282L66.936 22.282L66.936 13.273L66.936 9.404L66.936 8.529L65.064 8.529L65.064 13.301C65.064 14.629 64.865 15.871 64.439 17.029C64.042 18.215 63.39 19.232 62.51 20.107C61.63 20.983 60.723 21.576 59.758 21.943C58.424 22.452 56.807 22.706 54.934 22.706C53.856 22.706 52.664 22.621 51.387 22.48C50.11 22.31 49.032 22.028 48.181 21.576C47.33 21.124 46.535 20.475 45.825 19.656C45.116 18.837 44.634 17.961 44.379 17.086C43.953 15.674 43.726 14.403 43.726 13.301L43.726 10.986L43.726 10.619L43.726 9.404L43.726 8.529L42.335 8.529C42.392 8.811 42.421 9.094 42.449 9.404C42.477 9.8 42.505 10.195 42.505 10.619L42.505 10.986C42.505 13.584 42.052 15.73 41.172 17.396C40.292 19.063 39.044 20.362 37.37 21.294C35.724 22.226 33.653 22.677 31.184 22.677C28.716 22.677 26.216 22.403 24.57 21.584C25.592 23.335 26.135 22.677 24.57 21.584C24.57 19.441 24.57 18.916 24.57 16.289C24.57 15.301 24.57 8.5 24.57 8.557L18.727 8.5C18.585 9.235 18.387 9.884 18.074 10.477C18.074 10.506 18.046 10.534 18.018 10.562C17.876 10.816 17.734 11.07 17.536 11.325C17.337 11.579 17.11 11.833 16.855 12.087C16.684 12.228 16.542 12.37 16.344 12.511C16.287 12.567 16.202 12.595 16.146 12.652C16.032 12.737 15.918 12.793 15.805 12.878C15.72 12.934 15.634 12.991 15.521 13.019C15.407 13.076 15.323 13.132 15.209 13.16C15.095 13.217 14.982 13.273 14.868 13.301C14.783 13.33 14.67 13.358 14.584 13.414C14.442 13.471 14.3 13.499 14.159 13.556C14.102 13.556 14.017 13.584 13.96 13.612C13.336 13.782 12.655 13.894 11.889 13.951L11.861 13.951C11.491 13.951 11.094 14.007 10.668 14.007L6.895 14.007L6.895 22.282L0 22.282L0 30.602L139.35 30.156L139.35 0L132.029 0L132.001 0Z" fill="rgb(196,22,28)" fill-opacity="1.000" fill-rule="nonzero" transform="matrix(1 0 0 1 21.144 18.4158)"/><path d="M0 0L1.429 0L1.429 31.429L0 31.429L0 0Z" fill="rgb(255,255,255)" fill-opacity="1.000" fill-rule="nonzero" transform="matrix(1 0 0 1 12.8574 10)"/></svg>