<svg xmlns="http://www.w3.org/2000/svg" viewBox="0 0 130 60" width="130" height="60"><path d="M0 0L130 0L130 60L0 60L0 0Z" fill="rgb(255,255,255)" fill-opacity="1.000" fill-rule="nonzero" transform="matrix(1 0 0 1 0 0)"/><path d="M0 0L0 22.18L5.125 22.18L5.125 27.399L104 27.399L104 5.199L98.876 5.199L98.876 0L0 0Z" fill="rgb(255,255,255)" fill-opacity="1.000" fill-rule="nonzero" transform="matrix(1 0 0 1 13 16.0482)"/><path d="M1.371 0L0 0L0 3.479L1.172 3.479C2.105 3.479 2.761 3.321 3.118 3.005C3.496 2.669 3.675 2.254 3.675 1.759C3.675 1.265 3.516 0.85 3.198 0.514C2.86 0.178 2.265 0 1.351 0" fill="rgb(2,63,136)" fill-opacity="1.000" fill-rule="nonzero" transform="matrix(1 0 0 1 70.4816 25.1022)"/><path d="M3.218 0.02C2.244 0.02 1.47 0.376 0.874 1.048C0.278 1.74 0 2.866 0 4.468C0 6.069 0.298 7.176 0.874 7.868C1.47 8.56 2.265 8.896 3.257 8.896C4.251 8.896 5.085 8.56 5.661 7.888C6.237 7.216 6.515 6.01 6.515 4.25C6.515 2.768 6.217 1.7 5.621 1.028C5.045 0.336 4.231 0 3.218 0" fill="rgb(2,63,136)" fill-opacity="1.000" fill-rule="nonzero" transform="matrix(1 0 0 1 37.1911 25.2998)"/><path d="M1.371 0L0 0L0 3.479L1.172 3.479C2.105 3.479 2.761 3.321 3.138 3.005C3.515 2.689 3.694 2.254 3.694 1.759C3.694 1.265 3.536 0.85 3.218 0.514C2.88 0.178 2.284 0 1.371 0Z" fill="rgb(2,63,136)" fill-opacity="1.000" fill-rule="nonzero" transform="matrix(1 0 0 1 23.6256 25.1022)"/><path d="M0 0L0 20.816L5.125 20.816L5.125 5.219L13.129 5.219C14.877 5.219 16.168 5.634 17.042 6.464C17.916 7.295 18.353 8.481 18.353 10.003C18.353 10.339 18.333 10.675 18.274 10.972C18.274 10.991 18.274 11.031 18.274 11.07C18.274 11.11 18.274 11.149 18.253 11.189L18.87 11.189C18.87 11.189 18.87 11.11 18.87 11.07C19.147 9.449 19.803 8.125 20.836 7.077C22.246 5.654 24.232 4.942 26.755 4.942C29.277 4.942 31.343 5.634 32.753 7.038C33.826 8.085 34.481 9.469 34.739 11.189L35.713 11.189L35.713 5.219L40.519 5.219L40.519 14.747C40.519 15.597 40.758 16.27 41.234 16.744C41.712 17.218 42.367 17.456 43.201 17.456C44.035 17.456 44.671 17.218 45.147 16.764C45.624 16.289 45.862 15.617 45.862 14.747L45.862 5.219L50.669 5.219L50.669 11.189L51.98 11.189L51.98 5.219L59.985 5.219C61.733 5.219 63.024 5.634 63.898 6.464C64.772 7.295 65.209 8.481 65.209 10.003C65.209 10.438 65.169 10.813 65.09 11.189L65.884 11.189L65.884 5.219L84.912 5.219L88.249 9.331L91.586 5.219L97.545 5.219L97.545 0L0 0Z" fill="rgb(2,63,136)" fill-opacity="1.000" fill-rule="nonzero" transform="matrix(1 0 0 1 13.6533 16.7203)"/><path d="M92.401 0L86.104 7.809L92.42 15.617L86.442 15.617L83.124 11.505L79.808 15.617L73.829 15.617L80.125 7.809L73.809 0L73.67 0L73.67 3.815L65.586 3.815L65.586 6.01L73.65 6.01L73.65 9.608L65.586 9.608L65.586 11.762L73.65 11.762L73.65 15.617L60.76 15.617L60.76 5.97L59.965 5.97C59.965 6.089 59.866 6.425 59.826 6.583C59.608 7.334 59.21 7.967 58.654 8.481C57.7 9.37 56.271 9.805 54.324 9.805L51.682 9.805L51.682 15.597L46.855 15.597L46.855 9.291L46.855 6.583L46.855 5.97L45.545 5.97L45.545 9.311C45.545 10.24 45.406 11.11 45.108 11.921C44.83 12.751 44.373 13.462 43.757 14.075C43.141 14.688 42.506 15.103 41.83 15.36C40.897 15.716 39.765 15.894 38.454 15.894C37.699 15.894 36.865 15.835 35.971 15.736C35.077 15.617 34.322 15.42 33.727 15.103C33.131 14.787 32.575 14.332 32.078 13.759C31.581 13.186 31.244 12.573 31.065 11.96C30.767 10.972 30.608 10.082 30.608 9.311L30.608 7.69L30.608 7.433L30.608 6.583L30.608 5.97L29.635 5.97C29.675 6.168 29.694 6.366 29.714 6.583C29.734 6.86 29.754 7.136 29.754 7.433L29.754 7.69C29.754 9.509 29.436 11.011 28.82 12.177C28.205 13.344 27.33 14.253 26.159 14.906C25.007 15.558 23.557 15.874 21.829 15.874C20.101 15.874 18.611 15.597 17.459 15.024C16.307 14.471 15.374 13.581 14.659 12.355C13.943 11.15 13.586 9.627 13.586 7.789C13.586 7.097 13.745 5.911 13.745 5.95L13.109 5.95C13.01 6.464 12.871 6.919 12.652 7.334C12.652 7.354 12.632 7.374 12.613 7.393C12.513 7.571 12.414 7.749 12.275 7.927C12.136 8.105 11.977 8.283 11.798 8.461C11.679 8.56 11.58 8.659 11.441 8.757C11.401 8.797 11.341 8.817 11.302 8.856C11.222 8.916 11.143 8.955 11.064 9.014C11.004 9.054 10.944 9.094 10.865 9.113C10.785 9.153 10.726 9.192 10.646 9.212C10.567 9.252 10.488 9.291 10.408 9.311C10.348 9.331 10.269 9.351 10.209 9.39C10.11 9.43 10.01 9.449 9.912 9.489C9.871 9.489 9.812 9.509 9.772 9.528C9.336 9.647 8.858 9.726 8.322 9.766L8.303 9.766C8.044 9.766 7.766 9.805 7.468 9.805L4.827 9.805L4.827 15.597L0 15.597L0 20.797L97.545 20.797L97.545 0L92.42 0L92.401 0Z" fill="rgb(196,22,28)" fill-opacity="1.000" fill-rule="nonzero" transform="matrix(1 0 0 1 18.8 21.9392)"/></svg>