<svg xmlns="http://www.w3.org/2000/svg" viewBox="0 0 60 60" width="60" height="60"><path d="M0 0L60 0L60 60L0 60L0 0Z" fill="rgb(255,255,255)" fill-opacity="1.000" fill-rule="nonzero" transform="matrix(1 0 0 1 0 0)"/><path d="M38.31 36L26.478 36C26.096 36 25.787 35.714 25.787 35.363L25.787 24.438C25.787 24.18 25.956 23.946 26.214 23.848C26.472 23.749 26.769 23.804 26.967 23.987L29.643 26.459C29.97 25.99 30.151 25.431 30.151 24.846L30.151 11.193C30.151 9.549 28.702 8.213 26.923 8.213L8.963 8.213L8.963 24.943C8.963 25.946 9.127 26.913 9.432 27.825L20.074 27.825C20.456 27.825 20.764 28.111 20.764 28.462L20.764 35.363C20.764 35.715 20.454 36 20.074 36L19.558 36C14.546 36 10.244 33.143 8.461 29.1L4.61 29.1C2.068 29.1 0 27.19 0 24.844L0 11.193C0 8.845 2.068 6.937 4.61 6.937L7.604 6.937C7.909 3.064 11.421 0 15.692 0L30.89 0C35.362 0 39 3.36 39 7.488L39 24.942C39 27.682 37.928 30.27 35.967 32.297L38.797 34.911C38.995 35.093 39.054 35.368 38.948 35.606C38.84 35.844 38.589 36 38.31 36ZM27.17 34.724L36.642 34.724L34.517 32.762C34.388 32.643 34.315 32.48 34.315 32.311C34.315 32.141 34.388 31.98 34.517 31.861C36.518 30.013 37.619 27.557 37.619 24.943L37.619 7.488C37.619 4.063 34.601 1.275 30.89 1.275L15.692 1.275C12.183 1.275 9.293 3.767 8.991 6.936L26.926 6.936C29.468 6.936 31.536 8.845 31.536 11.191L31.536 24.843C31.536 25.98 31.056 27.049 30.186 27.852C30.175 27.862 30.16 27.874 30.149 27.883C29.876 28.104 29.462 28.091 29.206 27.853L27.173 25.976L27.173 34.724L27.17 34.724ZM9.968 29.1C11.64 32.375 15.223 34.66 19.382 34.722L19.382 29.1L9.968 29.1ZM4.61 8.213C2.831 8.213 1.382 9.551 1.382 11.193L1.382 24.844C1.382 26.488 2.831 27.823 4.61 27.823L7.993 27.823C7.725 26.904 7.581 25.939 7.581 24.942L7.581 8.213L4.61 8.213Z" fill="rgb(0,187,194)" fill-opacity="1.000" fill-rule="nonzero" transform="matrix(1 0 0 1 11 12)"/></svg>