<svg xmlns="http://www.w3.org/2000/svg" viewBox="0 0 130 60" width="130" height="60"><path d="M0 0L130 0L130 60L0 60L0 0Z" fill="rgb(255,255,255)" fill-opacity="1.000" fill-rule="nonzero" transform="matrix(1 0 0 1 0 0)"/><path d="M36.378 33.935L25.142 33.935C24.78 33.935 24.487 33.665 24.487 33.334L24.487 23.036C24.487 22.793 24.647 22.572 24.892 22.48C25.137 22.387 25.419 22.439 25.607 22.611L28.148 24.941C28.458 24.499 28.63 23.972 28.63 23.42L28.63 10.55C28.63 9.001 27.255 7.742 25.565 7.742L8.511 7.742L8.511 23.512C8.511 24.458 8.667 25.369 8.957 26.228L19.061 26.228C19.424 26.228 19.717 26.498 19.717 26.829L19.717 33.334C19.717 33.666 19.423 33.935 19.061 33.935L18.572 33.935C13.812 33.935 9.727 31.241 8.035 27.43L4.378 27.43C1.964 27.43 0 25.63 0 23.419L0 10.55C0 8.338 1.964 6.539 4.378 6.539L7.22 6.539C7.51 2.888 10.845 0 14.901 0L29.332 0C33.579 0 37.033 3.167 37.033 7.059L37.033 23.511C37.033 26.094 36.015 28.533 34.153 30.444L36.841 32.908C37.029 33.08 37.084 33.339 36.984 33.563C36.882 33.788 36.643 33.935 36.378 33.935ZM25.799 32.732L34.794 32.732L32.776 30.882C32.654 30.77 32.584 30.616 32.584 30.457C32.584 30.297 32.654 30.145 32.776 30.033C34.676 28.292 35.722 25.976 35.722 23.512L35.722 7.059C35.722 3.83 32.856 1.202 29.332 1.202L14.901 1.202C11.569 1.202 8.824 3.551 8.537 6.538L25.568 6.538C27.982 6.538 29.946 8.338 29.946 10.549L29.946 23.418C29.946 24.49 29.49 25.497 28.664 26.254C28.653 26.263 28.639 26.275 28.629 26.283C28.369 26.492 27.976 26.479 27.733 26.255L25.802 24.486L25.802 32.732L25.799 32.732ZM9.465 27.43C11.053 30.517 14.455 32.671 18.404 32.73L18.404 27.43L9.465 27.43ZM4.378 7.742C2.688 7.742 1.313 9.003 1.313 10.55L1.313 23.419C1.313 24.968 2.688 26.227 4.378 26.227L7.59 26.227C7.335 25.361 7.198 24.451 7.198 23.511L7.198 7.742L4.378 7.742Z" fill="rgb(0,187,194)" fill-opacity="1.000" fill-rule="nonzero" transform="matrix(1 0 0 1 15 13.0319)"/><path d="M1.602 9.529C2.536 10.812 4.138 11.355 5.552 11.306C6.806 11.281 8.139 10.714 8.114 9.405C8.114 8.023 6.618 7.677 5.365 7.455L5.392 7.455C3.123 7.085 0.534 6.444 0.534 3.702C0.534 1.012 3.282 0 5.552 0C6.993 0 8.568 0.494 9.716 1.531L8.328 3.036C7.474 2.221 6.513 1.925 5.552 1.925C4.35 1.925 2.642 2.27 2.642 3.702C2.67 5.011 4.564 5.356 5.764 5.554C7.926 5.925 10.195 6.813 10.222 9.405C10.222 11.947 7.927 13.058 5.552 13.108C3.39 13.157 1.335 12.416 0 10.442L1.602 9.529Z" fill="rgb(38,38,38)" fill-opacity="1.000" fill-rule="nonzero" transform="matrix(1 0 0 1 91.621 26.5749)"/><path d="M14.408 18.427L13.091 17.208C13.713 16.361 14.078 15.338 14.078 14.237L14.078 5.294C14.078 2.371 11.516 0 8.354 0L5.724 0C2.564 0 0 2.37 0 5.294L0 14.236C0 17.159 2.562 19.53 5.724 19.53L8.354 19.53C9.545 19.53 10.65 19.193 11.566 18.617L12.884 19.835L14.408 18.427ZM8.354 17.537L5.724 17.537C3.756 17.537 2.156 16.057 2.156 14.237L2.156 5.294C2.156 3.474 3.756 1.994 5.724 1.994L8.354 1.994C10.322 1.994 11.922 3.474 11.922 5.294L11.922 14.236C11.922 14.783 11.776 15.299 11.519 15.755L9.526 13.912L8.002 15.322L9.994 17.164C9.502 17.401 8.945 17.537 8.354 17.537Z" fill="rgb(38,38,38)" fill-opacity="1.000" fill-rule="nonzero" transform="matrix(1 0 0 1 59.3452 19.9042)"/><path d="M6.528 13.048L4.663 13.048C2.093 13.048 0 11.114 0 8.735L0 4.313C0 1.935 2.091 0 4.663 0L6.528 0C9.098 0 11.191 1.934 11.191 4.313L11.191 7.522L2.156 7.522L2.156 8.736C2.156 10.015 3.281 11.055 4.663 11.055L6.528 11.055C7.412 11.055 8.216 10.636 8.675 9.935L10.518 10.968C9.664 12.27 8.173 13.048 6.528 13.048ZM2.156 5.528L9.036 5.528L9.036 4.313C9.036 3.035 7.91 1.994 6.528 1.994L4.663 1.994C3.281 1.994 2.156 3.035 2.156 4.313L2.156 5.528Z" fill="rgb(38,38,38)" fill-opacity="1.000" fill-rule="nonzero" transform="matrix(1 0 0 1 76.9113 26.6373)"/><path d="M6.138 4.201L2.156 4.201L2.156 0L0 0L0 16.389L2.156 16.389L2.156 6.194L6.138 6.194C7.43 6.194 8.482 7.167 8.482 8.362L8.482 16.36L10.638 16.36L10.638 8.362C10.636 6.068 8.618 4.201 6.138 4.201Z" fill="rgb(38,38,38)" fill-opacity="1.000" fill-rule="nonzero" transform="matrix(1 0 0 1 105.3617 23.296)"/></svg>