<svg xmlns="http://www.w3.org/2000/svg" viewBox="0 0 60 60" width="60" height="60"><path d="M0 0L60 0L60 60L0 60L0 0Z" fill="rgb(48,103,173)" fill-opacity="1.000" fill-rule="nonzero" transform="matrix(1 0 0 1 0 0)"/><path d="M0 32.608C0 27.136 7.167 22.686 16.077 22.574C16.077 22.574 16.05 22.142 16.022 21.9C15.997 21.654 15.807 21.36 15.807 20.874C15.807 20.389 16.212 18.232 16.212 18.232C16.212 18.232 15.889 17.907 15.7 17.235C15.51 16.559 15.456 16.044 15.456 16.044C15.456 16.044 15.133 14.503 15.133 13.968C15.133 13.712 15.231 12.829 15.213 11.99C15.191 10.923 15.065 10.129 15.065 10.129C14.559 11.354 14.102 11.929 13.747 12.358C13.553 12.722 13.433 13.177 13.324 13.551C13.213 13.929 12.562 15.016 12.562 15.505C12.562 16.115 12.916 16.607 12.916 16.798C12.916 16.987 12.757 17.175 12.757 17.175C12.851 17.486 12.926 17.689 12.452 17.689C12.111 17.689 11.919 17.341 11.919 16.747C11.919 16.424 11.974 16.131 12.002 15.863C12.024 15.636 12.016 15.43 12.084 15.187C12.397 14.074 12.508 13.283 12.701 12.076C12.809 11.41 13.193 11.134 13.375 10.485C13.666 9.453 14.149 6.929 14.347 6.603C14.572 6.246 15.087 6.077 15.619 5.791C16.125 5.515 16.487 5.323 16.487 4.774C16.487 4.372 16.165 4.395 15.995 4.195C15.852 4.026 15.888 2.9 15.888 2.387C15.888 1.875 15.777 1.815 15.777 1.362C15.777 0.905 15.977 0 16.939 0C17.353 0 17.49 0.388 17.667 0.781C17.855 1.206 18.017 1.415 18.017 2.2C18.017 2.687 17.311 3.169 17.311 4.128C17.311 4.398 17.559 4.978 18.96 4.978C19.541 4.978 19.866 5.681 19.92 5.948C19.973 6.22 19.934 6.519 19.987 6.881C20.043 7.25 20.287 7.534 20.383 7.855C20.475 8.177 20.678 9.404 20.733 9.634C20.787 9.865 21.188 10.874 21.269 11.35C21.352 11.821 21.499 13.51 21.634 14.251C21.77 14.99 21.84 14.96 21.89 15.287C21.957 15.724 22.133 15.712 22.133 16.018C22.133 16.328 21.62 17.258 21.269 17.258C20.985 17.258 20.881 16.407 20.881 16.14C20.881 15.465 21.114 15.275 21.114 14.345C21.114 13.645 20.917 13.456 20.543 12.63C20.165 11.809 19.975 11.485 19.923 11.228C19.867 10.971 19.475 10.445 19.382 10.095C19.238 9.56 19.018 8.906 19.018 8.906C19.018 8.906 18.533 10.175 18.451 10.986C18.441 11.121 18.165 11.622 18.198 12.05C18.223 12.411 18.562 12.445 18.802 13.047C19.045 13.656 18.977 13.885 18.977 14.818C18.977 15.747 18.385 16.999 18.385 16.999C18.657 17.323 19.045 18.867 19.396 19.457C19.599 19.797 20.24 20.114 20.851 20.639C21.729 21.401 21.8 22.427 22.341 23.25C28.485 24.696 32.836 28.337 32.836 32.602C32.836 39.545 25.421 44.4 16.404 44.4C7.391 44.397 0 40.224 0 32.608ZM17.645 22.597C18.456 22.637 19.253 22.712 20.028 22.815C20.028 22.815 19.665 22.276 19.355 21.991C19.045 21.714 18.533 21.45 18.229 21.184C17.924 20.912 17.844 20.484 17.58 20.349C17.49 20.578 17.439 20.819 17.427 21.064C17.427 21.285 17.645 22.597 17.645 22.597Z" fill="rgb(255,255,255)" fill-opacity="1.000" fill-rule="evenodd" transform="matrix(1 0 0 1 13.1636 8.0518)"/><path d="M10.322 6.671C10.688 6.767 11.294 6.929 11.294 6.929L10.592 7.032L9.055 12.348L7.516 7.042L0 6.143L7.516 5.249L8.798 1.888C8.798 1.888 8.824 2.474 8.733 2.876C8.637 3.281 8.633 3.496 8.505 3.772C8.41 4.097 8.258 4.592 8.258 4.592C8.258 4.592 7.609 5.263 7.407 5.374C7.205 5.481 6.705 5.402 6.705 5.67C6.705 5.697 6.719 5.765 6.719 5.765L4.844 5.776L4.844 5.874L6.746 5.843C6.91 6.101 7.553 6.088 7.553 6.088L7.609 6.225C7.609 6.225 7.433 6.523 7.433 6.655C7.433 6.791 7.554 6.859 7.665 6.859C7.772 6.859 8.069 6.79 8.069 6.79C8.69 7.261 9.863 7.118 10.322 6.671ZM10.48 0C12.04 0.098 13.513 0.399 14.824 0.838C14.824 0.838 14.972 1.293 14.994 1.477C15.137 1.783 15.17 2.278 15.17 2.278L10.337 4.249L9.757 2.586C9.757 2.586 9.976 1.647 10.178 1.114C10.377 0.589 10.48 0 10.48 0Z" fill="rgb(227,170,57)" fill-opacity="1.000" fill-rule="evenodd" transform="matrix(1 0 0 1 20.3198 32.5646)"/><path d="M4.261 2.376C2.88 1.931 1.449 1.66 0 1.569C0 1.569 0.17 0.978 0.02 0C0.913 0.045 1.779 0.131 2.618 0.263C2.794 0.489 3.911 1.433 4.261 2.376ZM5.731 3.075C8.511 4.359 10.302 6.374 10.302 8.566C10.302 8.885 10.261 9.208 10.177 9.524C9.857 9.441 9.075 9.027 8.974 8.614C8.872 8.193 8.919 8.178 8.908 8.1C8.83 7.741 8.723 7.389 8.588 7.047C8.338 6.419 7.383 5.805 7.321 5.549C7.261 5.291 7.314 5.024 7.314 4.846C7.314 4.67 7.12 4.503 6.795 4.503C6.471 4.503 6.314 4.651 6.038 4.651C5.76 4.651 5.558 4.553 5.558 4.553C5.696 4.237 5.579 4.188 5.579 3.701C5.579 3.289 5.731 3.075 5.731 3.075Z" fill="rgb(227,170,57)" fill-opacity="1.000" fill-rule="evenodd" transform="matrix(1 0 0 1 30.8194 30.8908)"/><path d="M10.095 8.219C10.145 8.732 10.126 9.249 10.039 9.757L7.981 9.265L6.022 8.869C6.096 8.567 6.135 8.257 6.136 7.945C6.136 5.656 4.256 3.552 1.361 2.227C1.414 2.076 1.786 1.748 1.786 1.39C1.786 1.155 1.247 0.993 0.932 0.687C0.721 0.488 0.478 0 0.478 0C5.379 1.279 9.015 4.028 9.908 7.239C9.908 7.239 8.918 6.915 8.506 6.918C8.344 6.611 8.256 6.346 8.256 6.346L8.194 6.508C7.583 6.535 6.715 6.519 6.715 6.519L6.571 6.383L6.719 6.782L6.78 6.654L8.244 6.656L8.399 6.774L8.37 6.896C8.242 6.889 8.114 6.904 7.991 6.941L6.887 6.941L6.745 6.84L6.832 7.205L6.903 7.077L7.662 7.094C7.541 7.192 7.662 7.362 7.662 7.362L6.962 7.37L6.848 7.259L6.907 7.63L6.989 7.508L7.773 7.53C8.335 8.144 10.095 8.219 10.095 8.219ZM0 7.498L1.989 7.205C2.003 7.504 2.09 7.756 1.996 8.179C0.865 8.035 0 7.498 0 7.498Z" fill="rgb(227,170,57)" fill-opacity="1.000" fill-rule="evenodd" transform="matrix(1 0 0 1 35.2255 31.6225)"/><path d="M0.071 1.851C0.071 1.851 0 1.441 0 0.997C0 0.556 0.165 0 0.165 0L1.031 2.413L7.353 3.052L7.357 3.32L5.212 3.624C5.212 3.624 4.663 3.27 3.621 3.166L6.764 3.206L6.812 3.08L1.418 3.069L1.108 3.005C1.108 3.005 0.99 2.383 0.119 2.176L0.071 1.851Z" fill="rgb(227,170,57)" fill-opacity="1.000" fill-rule="evenodd" transform="matrix(1 0 0 1 29.8593 35.4015)"/><path d="M0 1.929L4.715 0L1.693 2.861L1.072 2.794L2.706 1.744L2.665 1.68L0.858 2.781L0.357 2.73L3.966 0.49L3.924 0.421L0.234 2.635L0 1.929Z" fill="rgb(227,170,57)" fill-opacity="1.000" fill-rule="evenodd" transform="matrix(1 0 0 1 30.7063 34.9902)"/><path d="M0 2.68C0.533 2.872 0.627 3.21 0.627 3.21L0.014 2.891L0 2.68ZM2.569 2.802L5.493 0C5.527 0.098 5.553 0.173 5.52 0.266C5.46 0.439 5.012 0.606 5.012 0.864C5.012 0.995 5.12 1.007 5.223 1.007C5.325 1.007 5.479 0.895 5.595 0.924C5.825 0.982 6.289 1.118 6.489 1.421C6.831 1.935 7.113 2.708 7.193 3.278C6.396 3.222 2.569 2.802 2.569 2.802ZM7.603 9.592C8.434 9.106 9.156 8.557 9.742 7.959C10.103 8.121 10.509 8.55 11.519 9.036C12.246 9.388 13.238 9.656 13.514 9.79C13.311 10.027 13.092 10.253 12.856 10.471C11.991 10.198 8.955 10.494 7.603 9.592Z" fill="rgb(227,170,57)" fill-opacity="1.000" fill-rule="evenodd" transform="matrix(1 0 0 1 30.0021 35.0684)"/><path d="M11.171 1.608L10.173 4.249L5.208 2.323L5.128 2.392L8.245 5.373L1.967 6.139L1.967 6.261L8.132 7.001L4.098 10.644L4.181 10.728L10.079 8.216L11.361 12.722L11.509 12.713L12.776 8.166L18.686 10.704L18.78 10.592L15.151 7.34C15.151 7.34 16.984 7.771 17.42 8.002C17.849 8.229 18.793 8.878 19.332 9.107C19.875 9.339 19.984 9.258 20.146 9.322C20.306 9.389 21.566 10.31 21.566 10.31C20.896 10.967 20.138 11.528 19.314 11.976C19.314 11.976 18.698 11.604 18.134 11.926C17.66 12.197 17.983 12.623 17.983 12.623C16.123 13.397 13.911 13.866 11.589 13.866C5.192 13.866 0 11.088 0 6.932C0 3.177 4.981 0.123 11.196 0C11.106 0.744 11.171 1.608 11.171 1.608Z" fill="rgb(227,170,57)" fill-opacity="1.000" fill-rule="evenodd" transform="matrix(1 0 0 1 17.9481 32.5265)"/><path d="M0 0.148C0.582 -0.15 1.567 0.095 1.567 0.095C1.339 0.258 1.065 0.344 0.785 0.337C0.47 0.341 0.277 0.307 0 0.148Z" fill="rgb(227,170,57)" fill-opacity="1.000" fill-rule="evenodd" transform="matrix(1 0 0 1 28.7121 39.0716)"/><path d="M0.014 0L5.385 0.109L5.385 0.203L0 0.123L0.014 0Z" fill="rgb(255,255,255)" fill-opacity="1.000" fill-rule="evenodd" transform="matrix(1 0 0 1 22.0465 38.6783)"/><path d="M3.898 4.534L4.545 4.612L2.658 5.829L2.794 5.87L4.748 4.643L5.195 4.67L0.689 7.515L0.742 7.568L5.381 4.746L5.599 5.595L0 8.015L3.898 4.534ZM3.994 2.87L0.958 0L5.693 1.86L5.546 2.253L3.873 1.248L3.778 1.277L5.502 2.373L5.396 2.629L1.605 0.375L1.524 0.399L5.276 2.708L3.994 2.87Z" fill="rgb(227,170,57)" fill-opacity="1.000" fill-rule="evenodd" transform="matrix(1 0 0 1 22.3722 35.0124)"/><path d="M0.057 0L0.165 0.012L0.097 2.349L0 2.331L0.057 0ZM0.61 0.065L0.732 0.079L0.718 4.406L0.583 4.355L0.61 0.065Z" fill="rgb(255,255,255)" fill-opacity="1.000" fill-rule="evenodd" transform="matrix(1 0 0 1 28.7269 39.8023)"/><path d="M0 1.041L0.124 0.633L2.12 1.783L2.158 1.687L0.159 0.525L0.253 0.202L4.75 2.943L4.872 2.926L0.364 0.125L1.068 0L2.009 0.213L5.587 3.372L0 1.041Z" fill="rgb(227,170,57)" fill-opacity="1.000" fill-rule="evenodd" transform="matrix(1 0 0 1 30.7666 39.557)"/><path d="M15.339 1.55C8.982 1.673 3.895 4.825 3.895 8.703C3.895 12.982 9.186 15.849 15.717 15.849C18.138 15.849 20.443 15.341 22.367 14.514C22.758 14.858 23.733 15.02 24.029 15.078C24.326 15.131 25.243 15.469 25.243 15.469L25.688 15.52C26.027 15.618 26.687 15.977 27.191 16.097C24.322 17.926 20.261 19.067 15.764 19.067C7.058 19.067 0 15.238 0 9.534C0 4.335 6.88 0.104 15.437 0L15.437 0.489L15.096 0.813L14.799 0.515L14.435 0.531L14.651 0.624L14.978 0.892L14.664 1.188L14.491 1.271L14.869 1.271L14.761 1.202L15.044 0.945L15.381 1.244L15.339 1.55Z" fill="rgb(227,170,57)" fill-opacity="1.000" fill-rule="evenodd" transform="matrix(1 0 0 1 13.8234 30.8654)"/><path d="M0 11.583L1.676 12.484L1.971 12.456L1.257 12.783L1.326 12.576L0.272 11.972C0.313 12.347 0.567 12.93 0.567 12.93L0.797 12.972L0.271 13.185L0.406 12.986L0 11.583ZM2.565 0.424L2.796 0.474L3.756 0.136L3.779 0L4.129 0.245L3.914 0.229L2.877 0.583L2.862 0.703L2.565 0.424ZM2.97 0.774L3.201 0.824L4.156 0.492L4.199 0.312L4.537 0.598L4.293 0.569L3.281 0.932L3.268 1.053L2.97 0.774Z" fill="rgb(255,255,255)" fill-opacity="1.000" fill-rule="evenodd" transform="matrix(1 0 0 1 36.6476 34.3875)"/><path d="M0 0.242L0.259 0L0.217 0.463L0 0.242Z" fill="rgb(227,170,57)" fill-opacity="1.000" fill-rule="evenodd" transform="matrix(1 0 0 1 28.9986 31.4734)"/><path d="M8.674 0.123L9.001 0L8.987 0.095L9.489 0.609L9.634 0.636L9.233 0.757L9.298 0.676L8.825 0.162L8.674 0.123ZM9.054 0.798L8.622 0.944L8.664 0.838L8.272 0.732L8.151 1.041L8.286 1.041L7.936 1.189L8.07 1.041L8.175 0.712L7.585 0.524L7.369 0.524L7.76 0.388L7.76 0.447L8.2 0.58L8.297 0.285L8.124 0.271L8.419 0.162L8.297 0.58L8.825 0.785L9.054 0.798ZM3.17 2.685L3.456 2.485L3.415 2.647L3.644 2.979L4.411 2.956L4.693 2.89L4.357 3.214L4.357 3.088L3.74 3.105L3.911 3.398L4.114 3.373L3.858 3.616L3.858 3.437L3.657 3.088L2.9 3.105L2.565 3.197L2.915 2.876L2.982 3.009L3.548 2.979L3.346 2.685L3.17 2.685ZM0.257 6.466L0.365 6.098L0.486 6.299L1.015 6.515L1.808 6.261L1.971 6.069L1.891 6.447L1.797 6.38L1.23 6.598L1.702 6.81L1.85 6.704L1.726 7.475L1.618 7.35L0.162 7.363L0 7.528L0.188 6.677L0.326 6.76C0.515 6.741 0.879 6.55 0.879 6.55L0.433 6.351L0.257 6.466Z" fill="rgb(255,255,255)" fill-opacity="1.000" fill-rule="evenodd" transform="matrix(1 0 0 1 15.18 32.0137)"/><path d="M0 0.436L0.203 0.244L0.905 0L1.538 0.244L1.603 0.42L1.473 0.539L0.052 0.539L0 0.436Z" fill="rgb(227,170,57)" fill-opacity="1.000" fill-rule="evenodd" transform="matrix(1 0 0 1 15.3153 38.6667)"/><path d="M0 0.647L0.297 0.7L1.588 0.226L1.714 0L1.902 0.416L1.726 0.351L0.297 0.82L0.189 1.049C0.115 0.921 0.052 0.786 0 0.647ZM0.221 1.148L0.523 1.191L1.8 0.674L1.911 0.44L2.114 0.853L1.937 0.792L0.526 1.313L0.435 1.526C0.334 1.38 0.221 1.148 0.221 1.148ZM0.473 1.609L0.729 1.62L2.105 1.05L2.132 0.864L2.351 1.241L2.173 1.183L0.781 1.763L0.703 1.93L0.473 1.609ZM0.729 1.984L0.988 2.009L2.819 1.794L1.511 2.766L1.524 2.939L1.214 2.603L1.414 2.62L2.334 1.93L0.945 2.106L0.945 2.221L0.729 1.984ZM5.519 3.846L5.975 4.075L5.772 4.088L4.817 5.141L4.938 5.328L5.184 5.344L6.178 4.315L6.111 4.139L6.639 4.346L6.423 4.373L5.467 5.422L5.666 5.614L5.884 5.631L7.573 4.684L7.125 6.032L7.263 6.211L6.601 5.979L6.843 5.951L7.264 4.926L5.963 5.669L6.113 5.814C5.494 5.625 4.9 5.364 4.343 5.035L4.591 4.996L5.605 4.011L5.519 3.846ZM12.603 5.652L13.318 5.666L13.115 5.746L13.103 6.983L13.359 7.081L13.588 7.045L14.345 5.64L14.426 5.64L15.167 6.983L15.356 7.068L14.559 7.095L14.803 6.959L14.277 6.022L13.753 7.03L13.965 7.094C13.318 7.15 12.509 7.107 12.509 7.107L12.792 7.015L12.792 5.735L12.603 5.652Z" fill="rgb(255,255,255)" fill-opacity="1.000" fill-rule="evenodd" transform="matrix(1 0 0 1 15.5046 41.6632)"/><path d="M14.938 0.035L15.401 0.011L15.431 0.134L14.986 0.153L14.938 0.035ZM14.318 0.064L14.783 0.038L14.834 0.153L14.394 0.189L14.318 0.064ZM13.701 0.128L14.166 0.083L14.254 0.189L13.756 0.245L13.701 0.128ZM13.084 0.189L13.547 0.142L13.606 0.253L13.166 0.309L13.084 0.189ZM12.441 0.274L12.953 0.208L13.013 0.326L12.516 0.388L12.441 0.274ZM15.547 0.005L15.939 0L15.946 0.123L15.573 0.128L15.547 0.005ZM11.835 0.379L12.328 0.296L12.38 0.399L11.918 0.474L11.835 0.379ZM11.241 0.488L11.705 0.399L11.78 0.505L11.307 0.599L11.241 0.488ZM10.626 0.617L11.11 0.511L11.167 0.628L10.708 0.719L10.626 0.617ZM10.031 0.77L10.491 0.644L10.573 0.748L10.114 0.86L10.031 0.77ZM9.445 0.913L9.892 0.793L9.983 0.895L9.525 1.024L9.445 0.913ZM8.773 1.121L9.252 0.96L9.352 1.065L8.885 1.227L8.773 1.121ZM8.135 1.334L8.629 1.169L8.743 1.275L8.248 1.445L8.135 1.334ZM7.483 1.58L7.981 1.381L8.077 1.488L7.584 1.674L7.483 1.58ZM6.922 1.82L7.342 1.627L7.429 1.741L7.028 1.914L6.922 1.82ZM6.302 2.097L6.76 1.881L6.869 1.988L6.425 2.191L6.302 2.097ZM5.742 2.379L6.167 2.15L6.289 2.252L5.873 2.475L5.742 2.379ZM5.197 2.677L5.592 2.454L5.734 2.542L5.344 2.763L5.197 2.677ZM4.616 3.007L5.026 2.76L5.201 2.845L4.77 3.106L4.616 3.007ZM4.116 3.361L4.503 3.079L4.655 3.177L4.271 3.43L4.116 3.361ZM3.621 3.704L3.994 3.454L4.15 3.526L3.791 3.797L3.621 3.704ZM3.132 4.095L3.505 3.797L3.67 3.885L3.3 4.191L3.132 4.095ZM2.685 4.481L3.03 4.191L3.206 4.265L2.902 4.553L2.685 4.481ZM2.268 4.904L2.598 4.572L2.781 4.639L2.477 4.971L2.268 4.904ZM1.868 5.332L2.193 4.989L2.394 5.058L2.083 5.388L1.868 5.332ZM1.494 5.772L1.793 5.437L2.023 5.487L1.767 5.823L1.494 5.772ZM1.207 6.205L1.437 5.876L1.692 5.921L1.47 6.245L1.207 6.205ZM0.884 6.692L1.121 6.323L1.383 6.351L1.176 6.711L0.884 6.692ZM0.627 7.163L0.836 6.809L1.121 6.825L0.951 7.182L0.627 7.163ZM0.411 7.682L0.587 7.289L0.884 7.305L0.744 7.682L0.411 7.682ZM0.256 8.148L0.384 7.799L0.715 7.802L0.601 8.162L0.256 8.148ZM0.121 8.685L0.223 8.286L0.56 8.291L0.465 8.688L0.121 8.685ZM0.048 9.188L0.116 8.805L0.436 8.799L0.391 9.188L0.048 9.188ZM0.007 9.707L0.034 9.316L0.383 9.307L0.368 9.662L0.007 9.707ZM0.015 10.248L0 9.846L0.368 9.782L0.383 10.162L0.015 10.248ZM0.02 10.362L0.395 10.279L0.432 10.708L0.054 10.795L0.02 10.362ZM0.08 10.918L0.443 10.82L0.537 11.211L0.151 11.317L0.08 10.918ZM0.187 11.46L0.56 11.346L0.684 11.753L0.311 11.87L0.187 11.46ZM0.338 11.974L0.696 11.87L0.85 12.264L0.486 12.414L0.338 11.974ZM0.527 12.517L0.871 12.381L1.082 12.783L0.729 12.934L0.527 12.517ZM0.782 13.042L1.102 12.908L1.349 13.28L1.001 13.442L0.782 13.042ZM1.068 13.565L1.402 13.397L1.678 13.773L1.335 13.975L1.068 13.565ZM1.407 14.053L1.726 13.882L2.056 14.26L1.706 14.469L1.407 14.053ZM1.805 14.566L2.147 14.374L2.511 14.776L2.159 14.991L1.805 14.566ZM2.272 15.085L2.598 14.882L2.984 15.234L2.652 15.463L2.272 15.085ZM2.787 15.561L3.091 15.343L3.519 15.691L3.233 15.946L2.787 15.561ZM3.334 16.024L3.594 15.792L4.109 16.133L3.825 16.378L3.334 16.024ZM3.979 16.49L4.21 16.253L4.719 16.562L4.479 16.822L3.979 16.49ZM4.628 16.915L4.859 16.665L5.392 16.945L5.147 17.224L4.628 16.915ZM5.329 17.306L5.52 17.056L6.133 17.347L5.952 17.623L5.329 17.306ZM6.105 17.679L6.275 17.417L6.896 17.679L6.707 17.958L6.105 17.679ZM6.876 18.022L7.051 17.749L7.679 18.022L7.496 18.291L6.876 18.022ZM7.727 18.349L7.873 18.051L8.547 18.293L8.381 18.6L7.727 18.349ZM8.568 18.645L8.699 18.344L9.418 18.551L9.265 18.879L8.568 18.645ZM9.468 18.911L9.577 18.6L10.31 18.759L10.179 19.092L9.468 18.911ZM10.391 19.139L10.483 18.799L11.261 18.949L11.126 19.318L10.391 19.139ZM11.358 19.363L11.437 19.009L12.19 19.123L12.084 19.488L11.358 19.363ZM12.313 19.499L12.375 19.159L13.142 19.248L13.084 19.614L12.313 19.499ZM13.347 19.624L13.374 19.284L14.115 19.347L14.088 19.69L13.347 19.624ZM14.364 19.379L15.118 19.404L15.107 19.748L14.332 19.723L14.364 19.379ZM15.343 19.757L15.343 19.411L16.141 19.424L16.141 19.77L15.343 19.757ZM17.991 0.184L17.531 0.158L17.51 0.038L18.046 0.053L17.991 0.184ZM18.642 0.237L18.129 0.189L18.184 0.064L18.697 0.114L18.642 0.237ZM19.253 0.301L18.759 0.245L18.821 0.134L19.338 0.187L19.253 0.301ZM20.013 0.388L19.406 0.309L19.468 0.195L19.905 0.245L20.013 0.388ZM22.357 0.857L22.254 0.706L22.454 0.767L22.357 0.857ZM22.965 1.016L22.502 0.892L22.598 0.79L23.044 0.913L22.965 1.016ZM23.609 1.217L23.141 1.057L23.24 0.96L23.724 1.118L23.609 1.217ZM24.255 1.435L23.751 1.272L23.867 1.161L24.361 1.328L24.255 1.435ZM24.92 1.674L24.425 1.479L24.519 1.379L25.019 1.573L24.92 1.674ZM25.474 1.906L25.072 1.733L25.161 1.616L25.582 1.815L25.474 1.906ZM26.085 2.18L25.636 1.979L25.744 1.87L26.209 2.087L26.085 2.18ZM26.636 2.464L26.222 2.238L26.344 2.146L26.771 2.372L26.636 2.464ZM27.172 2.752L26.775 2.531L26.923 2.445L27.319 2.663L27.172 2.752ZM27.745 3.095L27.314 2.831L27.491 2.744L27.903 2.994L27.745 3.095ZM28.251 3.417L27.861 3.162L28.019 3.068L28.406 3.345L28.251 3.417ZM28.733 3.779L28.372 3.512L28.53 3.439L28.903 3.685L28.733 3.779ZM29.226 4.17L28.854 3.866L29.019 3.779L29.397 4.077L29.226 4.17ZM29.624 4.534L29.323 4.252L29.495 4.17L29.845 4.458L29.624 4.534ZM30.055 4.949L29.749 4.617L29.932 4.553L30.263 4.877L30.055 4.949ZM30.448 5.368L30.138 5.041L30.341 4.968L30.665 5.312L30.448 5.368ZM30.768 5.798L30.51 5.468L30.738 5.415L31.038 5.753L30.768 5.798ZM31.067 6.222L30.841 5.896L31.099 5.849L31.331 6.178L31.067 6.222ZM31.365 6.685L31.154 6.331L31.417 6.293L31.655 6.666L31.365 6.685ZM31.59 7.155L31.417 6.799L31.703 6.783L31.914 7.135L31.59 7.155ZM31.797 7.651L31.655 7.272L31.955 7.259L32.132 7.651L31.797 7.651ZM31.986 8.174L31.838 7.772L32.17 7.767L32.327 8.257L31.986 8.174ZM32.184 9.707L32.191 9.271L32.511 9.355L32.541 9.748L32.184 9.707ZM32.184 10.212L32.197 9.84L32.545 9.88L32.534 10.282L32.184 10.212ZM32.49 10.831L32.11 10.745L32.17 10.343L32.527 10.399L32.49 10.831ZM27.367 17.152L27.123 16.873L27.658 16.593L27.887 16.844L27.367 17.152ZM26.56 17.548L26.378 17.272L26.995 16.982L27.188 17.232L26.56 17.548ZM25.799 17.881L25.611 17.607L26.236 17.347L26.405 17.607L25.799 17.881ZM25.008 18.213L24.825 17.942L25.454 17.679L25.63 17.942L25.008 18.213ZM24.186 18.55L24.014 18.246L24.695 18.006L24.844 18.299L24.186 18.55ZM23.255 18.834L23.098 18.514L23.826 18.31L23.954 18.608L23.255 18.834ZM22.315 19.105L22.22 18.768L22.942 18.575L23.051 18.885L22.315 19.105ZM21.357 19.347L21.217 18.977L22.002 18.832L22.096 19.167L21.357 19.347ZM20.408 19.513L20.3 19.153L21.058 19.039L21.137 19.379L20.408 19.513ZM19.39 19.637L19.326 19.278L20.101 19.187L20.163 19.52L19.39 19.637ZM18.379 19.72L18.351 19.379L19.097 19.307L19.122 19.648L18.379 19.72ZM18.133 19.746L17.353 19.77L17.338 19.43L18.1 19.404L18.133 19.746ZM16.317 19.797L16.317 19.451L17.112 19.435L17.112 19.778L16.317 19.797ZM28.045 16.747L27.786 16.503L27.974 16.364L28.271 16.556L28.045 16.747ZM30.405 14.77L30.738 14.329L30.432 14.212L30.183 14.491L30.405 14.77ZM30.326 14.854L30.087 14.587L29.767 14.899L30.196 15.005L30.326 14.854Z" fill="rgb(227,170,57)" fill-opacity="1.000" fill-rule="evenodd" transform="matrix(1 0 0 1 13.3116 30.6804)"/></svg>