<svg xmlns="http://www.w3.org/2000/svg" viewBox="0 0 130 60" width="130" height="60"><path d="M0 0L130 0L130 60L0 60L0 0Z" fill="rgb(255,255,255)" fill-opacity="1.000" fill-rule="nonzero" transform="matrix(1 0 0 1 0 0)"/><path d="M73.098 12.437C72.772 14.746 71.731 15.939 70.308 15.939C69.402 15.939 68.883 15.306 69.037 14.322L69.537 11.203C69.73 10.048 70.423 9.144 71.654 9.144C73.021 9.143 73.427 10.066 73.098 12.437ZM68.401 17.019C68.593 17.019 69.056 17.826 70.557 17.826C73.751 17.826 75.582 15.517 76.082 12.534C76.718 8.854 74.927 7.179 72.675 7.179C71.617 7.179 70.904 7.276 70.326 7.585L71.193 2.504L68.459 2.542L65.822 17.674L67.824 17.615C67.824 17.615 68.113 17.019 68.421 17.019L68.401 17.019ZM96.047 10.57C96.45 8.279 95.605 7.162 93.12 7.162C91.273 7.162 90.598 7.893 89.905 8.587L90.002 7.374L87.479 7.413L87.229 9.3L85.804 17.674L88.539 17.615L89.405 12.225C89.712 10.357 91.003 8.932 92.215 8.932C93.563 8.932 93.487 9.702 93.276 10.876L92.101 17.674L94.834 17.615L96.047 10.57ZM107 7.2L104.133 7.162L100.243 11.127L100.186 11.127L101.647 2.52L99.03 2.541L96.393 17.673L99.05 17.614L99.319 16.132L99.857 12.819C101.264 12.819 102.053 12.974 102.669 15.765L103.091 17.673L105.807 17.634C105.807 17.634 105.133 14.784 104.69 13.668C104.229 12.494 103.63 11.798 102.553 11.588L107 7.2ZM31.536 10.935C33.479 10.511 34.404 8.893 34.674 7.873C35.366 5.064 34.114 2.868 30.534 2.907L26.413 2.985L23.852 17.651L26.605 17.634L27.664 11.724C28.223 11.724 28.454 11.703 28.723 11.742C29.011 11.761 29.417 11.819 29.667 12.029C30.109 12.453 30.494 13.36 30.783 15.131L31.207 17.651L34.017 17.634C33.689 16.113 33.478 14.689 33.209 13.532C32.919 12.321 32.516 11.473 31.516 10.935L31.536 10.935ZM31.901 7.468C31.67 8.778 30.744 9.607 29.494 9.607L27.914 9.607L28.724 5.006L30.169 4.948C31.593 4.909 32.113 6.159 31.901 7.468ZM44.088 10.165C44.473 7.93 43.279 7.162 40.872 7.162C38.197 7.162 36.56 8.587 36.56 8.587L37.485 10.145C37.485 10.145 38.735 9.009 40.679 9.009C41.316 9.009 41.49 9.432 41.393 10.145L41.182 11.473C37.312 11.378 35.329 12.204 34.885 14.745C34.52 16.824 36.097 17.747 37.849 17.747C38.754 17.747 39.467 17.689 40.351 16.921C40.526 17.423 40.814 17.651 41.162 17.71C41.718 17.826 42.701 17.73 42.991 17.518C42.97 17.21 42.991 16.419 43.318 14.572L44.088 10.165ZM40.91 12.881L40.641 14.382C40.569 14.876 40.325 15.329 39.951 15.66C39.578 15.991 39.099 16.179 38.6 16.191C37.598 16.191 37.196 15.613 37.368 14.823C37.598 13.513 38.33 13.168 38.966 12.994C39.293 12.897 40.351 12.881 40.91 12.881ZM49.189 17.826C52.385 17.826 54.215 15.517 54.715 12.534C55.35 8.854 53.558 7.179 51.306 7.179C50.247 7.179 49.535 7.276 48.938 7.585L49.805 2.504L47.09 2.542L44.453 17.674L46.456 17.615C46.456 17.615 46.744 17.019 47.034 17.019C47.225 17.019 47.687 17.826 49.189 17.826ZM50.305 9.143C51.672 9.143 52.076 10.066 51.748 12.436C51.423 14.745 50.381 15.938 48.937 15.938C48.033 15.938 47.513 15.305 47.687 14.321L48.188 11.203C48.381 10.048 49.074 9.143 50.285 9.143L50.305 9.143ZM59.355 17.883C56.812 17.747 55.311 15.861 55.502 13.4C55.733 9.876 57.773 6.911 61.836 7.123C65.052 7.295 65.86 9.395 65.745 11.703C65.552 15.343 63.415 18.115 59.373 17.903L59.355 17.883ZM59.699 15.998C61.758 16.114 62.683 13.686 62.819 11.629C62.895 10.551 63.088 9.105 61.526 9.047C59.506 8.932 58.468 11.511 58.334 13.477C58.237 14.902 58.602 15.959 59.68 16.018L59.699 15.998ZM85.477 10.127C85.862 7.893 84.668 7.123 82.28 7.123C79.605 7.123 77.968 8.548 77.968 8.548L78.891 10.108C78.891 10.108 80.146 8.971 82.088 8.971C82.724 8.971 82.897 9.394 82.783 10.108L82.57 11.434C78.7 11.337 76.718 12.166 76.275 14.708C75.909 16.785 77.488 17.71 79.24 17.71C80.146 17.71 80.857 17.65 81.742 16.883C81.917 17.382 82.204 17.614 82.551 17.673C83.11 17.786 84.091 17.689 84.38 17.479C84.362 17.17 84.38 16.38 84.706 14.533L85.477 10.127ZM80.376 12.957C80.702 12.861 81.762 12.838 82.302 12.838L82.032 14.343C81.839 15.575 80.782 16.151 80.011 16.151C79.009 16.151 78.605 15.575 78.759 14.784C78.99 13.476 79.721 13.128 80.356 12.957L80.376 12.957ZM0 15.058C0 12.531 3.31 10.476 7.424 10.424C7.424 10.424 7.412 10.225 7.399 10.113C7.387 10 7.3 9.864 7.3 9.639C7.3 9.415 7.486 8.419 7.486 8.419C7.486 8.419 7.337 8.269 7.25 7.959C7.162 7.647 7.137 7.409 7.137 7.409C7.137 7.409 6.988 6.698 6.988 6.45C6.988 6.332 7.034 5.924 7.025 5.537C7.015 5.044 6.957 4.677 6.957 4.677C6.723 5.243 6.512 5.509 6.348 5.707C6.258 5.875 6.203 6.085 6.153 6.258C6.102 6.432 5.801 6.934 5.801 7.16C5.801 7.442 5.965 7.669 5.965 7.757C5.965 7.844 5.891 7.931 5.891 7.931C5.934 8.075 5.969 8.168 5.75 8.168C5.593 8.168 5.504 8.008 5.504 7.734C5.504 7.585 5.529 7.449 5.543 7.325C5.553 7.22 5.549 7.125 5.58 7.013C5.725 6.499 5.776 6.134 5.865 5.576C5.915 5.269 6.092 5.142 6.177 4.842C6.311 4.365 6.534 3.2 6.625 3.049C6.729 2.884 6.967 2.806 7.213 2.674C7.446 2.547 7.614 2.458 7.614 2.204C7.614 2.019 7.465 2.03 7.386 1.937C7.32 1.859 7.337 1.339 7.337 1.102C7.337 0.866 7.286 0.838 7.286 0.629C7.286 0.418 7.378 0 7.822 0C8.014 0 8.077 0.179 8.158 0.36C8.245 0.557 8.32 0.654 8.32 1.016C8.32 1.241 7.994 1.463 7.994 1.906C7.994 2.031 8.109 2.299 8.755 2.299C9.024 2.299 9.174 2.623 9.199 2.747C9.223 2.873 9.205 3.01 9.23 3.178C9.256 3.348 9.368 3.479 9.413 3.627C9.455 3.776 9.549 4.343 9.575 4.449C9.599 4.555 9.785 5.022 9.822 5.241C9.86 5.459 9.928 6.239 9.99 6.581C10.053 6.922 10.085 6.908 10.109 7.059C10.139 7.261 10.221 7.256 10.221 7.397C10.221 7.54 9.984 7.97 9.822 7.97C9.691 7.97 9.642 7.576 9.642 7.453C9.642 7.142 9.75 7.054 9.75 6.625C9.75 6.301 9.659 6.214 9.486 5.833C9.312 5.453 9.224 5.303 9.2 5.185C9.174 5.066 8.993 4.823 8.95 4.662C8.884 4.415 8.782 4.113 8.782 4.113C8.782 4.113 8.558 4.699 8.521 5.073C8.516 5.135 8.389 5.367 8.404 5.565C8.415 5.731 8.572 5.747 8.682 6.025C8.795 6.306 8.764 6.412 8.764 6.843C8.764 7.272 8.49 7.85 8.49 7.85C8.616 8 8.795 8.713 8.957 8.985C9.05 9.142 9.347 9.288 9.629 9.531C10.034 9.883 10.067 10.357 10.317 10.736C13.154 11.405 15.164 13.086 15.164 15.055C15.164 18.261 11.739 20.504 7.575 20.504C3.413 20.502 0 18.575 0 15.058ZM8.148 10.435C8.523 10.453 8.891 10.488 9.249 10.536C9.249 10.536 9.081 10.287 8.938 10.155C8.795 10.027 8.558 9.905 8.418 9.783C8.277 9.657 8.24 9.459 8.118 9.397C8.077 9.503 8.053 9.614 8.048 9.727C8.048 9.829 8.148 10.435 8.148 10.435Z" fill="rgb(48,103,173)" fill-opacity="1.000" fill-rule="evenodd" transform="matrix(1 0 0 1 11 20)"/><path d="M4.767 3.081C4.935 3.125 5.215 3.2 5.215 3.2L4.891 3.247L4.182 5.702L3.471 3.252L0 2.837L3.471 2.424L4.063 0.872C4.063 0.872 4.075 1.142 4.033 1.328C3.989 1.515 3.987 1.614 3.928 1.742C3.884 1.892 3.814 2.121 3.814 2.121C3.814 2.121 3.514 2.43 3.421 2.482C3.327 2.531 3.097 2.494 3.097 2.618C3.097 2.631 3.103 2.662 3.103 2.662L2.237 2.667L2.237 2.713L3.115 2.698C3.191 2.817 3.488 2.812 3.488 2.812L3.514 2.874C3.514 2.874 3.432 3.012 3.432 3.073C3.432 3.136 3.488 3.168 3.539 3.168C3.589 3.168 3.726 3.136 3.726 3.136C4.013 3.353 4.555 3.287 4.767 3.081ZM4.84 0C5.56 0.045 6.24 0.184 6.845 0.387C6.845 0.387 6.914 0.597 6.924 0.682C6.99 0.824 7.005 1.052 7.005 1.052L4.774 1.962L4.506 1.194C4.506 1.194 4.607 0.761 4.7 0.515C4.792 0.272 4.84 0 4.84 0Z" fill="rgb(227,170,57)" fill-opacity="1.000" fill-rule="evenodd" transform="matrix(1 0 0 1 14.3046 31.3197)"/><path d="M1.968 1.097C1.33 0.892 0.669 0.766 0 0.725C0 0.725 0.079 0.452 0.009 0C0.422 0.021 0.822 0.06 1.209 0.121C1.29 0.226 1.806 0.662 1.968 1.097ZM2.647 1.42C3.93 2.013 4.757 2.944 4.757 3.956C4.757 4.103 4.738 4.252 4.699 4.398C4.552 4.36 4.191 4.169 4.144 3.978C4.097 3.784 4.119 3.777 4.114 3.741C4.078 3.575 4.028 3.412 3.966 3.254C3.85 2.964 3.409 2.681 3.381 2.562C3.353 2.443 3.378 2.32 3.378 2.238C3.378 2.157 3.288 2.079 3.138 2.079C2.988 2.079 2.916 2.148 2.788 2.148C2.66 2.148 2.567 2.103 2.567 2.103C2.63 1.957 2.576 1.934 2.576 1.709C2.576 1.519 2.647 1.42 2.647 1.42Z" fill="rgb(227,170,57)" fill-opacity="1.000" fill-rule="evenodd" transform="matrix(1 0 0 1 19.1533 30.547)"/><path d="M4.662 3.795C4.685 4.032 4.676 4.271 4.636 4.506L3.685 4.279L2.781 4.096C2.815 3.956 2.833 3.813 2.834 3.669C2.834 2.612 1.965 1.64 0.628 1.029C0.653 0.959 0.825 0.807 0.825 0.642C0.825 0.533 0.576 0.459 0.43 0.317C0.333 0.225 0.221 0 0.221 0C2.484 0.591 4.163 1.86 4.576 3.343C4.576 3.343 4.118 3.193 3.928 3.195C3.853 3.053 3.812 2.93 3.812 2.93L3.784 3.005C3.502 3.018 3.101 3.01 3.101 3.01L3.034 2.947L3.103 3.132L3.131 3.073L3.807 3.074L3.878 3.128L3.865 3.185C3.806 3.181 3.747 3.188 3.69 3.205L3.18 3.205L3.115 3.159L3.155 3.327L3.188 3.268L3.538 3.276C3.482 3.321 3.538 3.4 3.538 3.4L3.215 3.404L3.163 3.352L3.19 3.524L3.227 3.467L3.59 3.477C3.849 3.761 4.662 3.795 4.662 3.795ZM0 3.463L0.919 3.327C0.925 3.465 0.965 3.582 0.922 3.777C0.399 3.711 0 3.463 0 3.463Z" fill="rgb(227,170,57)" fill-opacity="1.000" fill-rule="evenodd" transform="matrix(1 0 0 1 21.188 30.8849)"/><path d="M0.033 0.855C0.033 0.855 0 0.666 0 0.461C0 0.257 0.076 0 0.076 0L0.476 1.114L3.395 1.409L3.397 1.533L2.407 1.673C2.407 1.673 2.153 1.51 1.672 1.462L3.124 1.48L3.146 1.422L0.655 1.417L0.511 1.388C0.511 1.388 0.457 1.1 0.055 1.005L0.033 0.855Z" fill="rgb(227,170,57)" fill-opacity="1.000" fill-rule="evenodd" transform="matrix(1 0 0 1 18.7101 32.6301)"/><path d="M0 0.891L2.177 0L0.782 1.321L0.495 1.29L1.249 0.805L1.231 0.776L0.396 1.284L0.165 1.261L1.831 0.226L1.812 0.194L0.108 1.217L0 0.891Z" fill="rgb(227,170,57)" fill-opacity="1.000" fill-rule="evenodd" transform="matrix(1 0 0 1 19.1011 32.44)"/><path d="M0 1.237C0.246 1.326 0.289 1.482 0.289 1.482L0.006 1.335L0 1.237ZM1.187 1.294L2.537 0C2.552 0.045 2.564 0.08 2.549 0.123C2.521 0.203 2.315 0.28 2.315 0.399C2.315 0.459 2.364 0.465 2.412 0.465C2.459 0.465 2.53 0.413 2.584 0.427C2.69 0.454 2.904 0.517 2.996 0.656C3.154 0.893 3.285 1.251 3.322 1.514C2.954 1.488 1.187 1.294 1.187 1.294ZM3.511 4.43C3.895 4.205 4.228 3.951 4.499 3.675C4.666 3.75 4.853 3.948 5.319 4.173C5.655 4.335 6.113 4.459 6.241 4.521C6.147 4.63 6.046 4.735 5.937 4.835C5.537 4.71 4.135 4.846 3.511 4.43Z" fill="rgb(227,170,57)" fill-opacity="1.000" fill-rule="evenodd" transform="matrix(1 0 0 1 18.7758 32.4759)"/><path d="M5.159 0.742L4.698 1.962L2.405 1.073L2.368 1.105L3.807 2.481L0.908 2.835L0.908 2.891L3.755 3.233L1.892 4.915L1.931 4.954L4.654 3.794L5.246 5.875L5.315 5.871L5.9 3.771L8.629 4.943L8.672 4.891L6.996 3.39C6.996 3.39 7.843 3.588 8.045 3.695C8.243 3.8 8.679 4.1 8.927 4.206C9.178 4.313 9.228 4.275 9.303 4.305C9.377 4.336 9.959 4.761 9.959 4.761C9.65 5.065 9.3 5.324 8.919 5.531C8.919 5.531 8.635 5.359 8.374 5.507C8.155 5.632 8.304 5.829 8.304 5.829C7.446 6.187 6.424 6.403 5.352 6.403C2.398 6.403 0 5.12 0 3.201C0 1.467 2.3 0.057 5.17 0C5.129 0.343 5.159 0.742 5.159 0.742Z" fill="rgb(227,170,57)" fill-opacity="1.000" fill-rule="evenodd" transform="matrix(1 0 0 1 13.2095 31.302)"/><path d="M0 0.068C0.269 -0.069 0.723 0.044 0.723 0.044C0.618 0.119 0.492 0.159 0.362 0.156C0.217 0.158 0.128 0.142 0 0.068Z" fill="rgb(227,170,57)" fill-opacity="1.000" fill-rule="evenodd" transform="matrix(1 0 0 1 18.18 34.3247)"/><path d="M0.006 0L2.487 0.05L2.487 0.094L0 0.057L0.006 0Z" fill="rgb(48,103,173)" fill-opacity="1.000" fill-rule="evenodd" transform="matrix(1 0 0 1 15.1022 34.1431)"/><path d="M1.8 2.094L2.099 2.13L1.227 2.692L1.29 2.711L2.192 2.144L2.399 2.157L0.318 3.47L0.343 3.495L2.485 2.192L2.586 2.584L0 3.701L1.8 2.094ZM1.845 1.326L0.442 0L2.629 0.859L2.561 1.041L1.789 0.576L1.745 0.589L2.541 1.096L2.492 1.214L0.741 0.173L0.704 0.184L2.437 1.251L1.845 1.326Z" fill="rgb(227,170,57)" fill-opacity="1.000" fill-rule="evenodd" transform="matrix(1 0 0 1 15.2526 32.4502)"/><path d="M0.026 0L0.076 0.006L0.045 1.085L0 1.076L0.026 0ZM0.282 0.03L0.338 0.036L0.332 2.035L0.269 2.011L0.282 0.03Z" fill="rgb(48,103,173)" fill-opacity="1.000" fill-rule="evenodd" transform="matrix(1 0 0 1 18.1872 34.6622)"/><path d="M0 0.481L0.057 0.293L0.979 0.824L0.997 0.779L0.074 0.242L0.117 0.093L2.194 1.359L2.25 1.351L0.168 0.058L0.493 0L0.928 0.098L2.58 1.557L0 0.481Z" fill="rgb(227,170,57)" fill-opacity="1.000" fill-rule="evenodd" transform="matrix(1 0 0 1 19.1289 34.5489)"/><path d="M7.083 0.716C4.148 0.773 1.799 2.228 1.799 4.019C1.799 5.995 4.242 7.319 7.258 7.319C8.376 7.319 9.441 7.084 10.329 6.703C10.509 6.861 10.96 6.936 11.096 6.963C11.233 6.988 11.657 7.144 11.657 7.144L11.863 7.167C12.019 7.212 12.324 7.378 12.557 7.434C11.232 8.278 9.356 8.805 7.279 8.805C3.259 8.805 0 7.037 0 4.403C0 2.002 3.177 0.048 7.129 0L7.129 0.226L6.971 0.376L6.834 0.238L6.666 0.245L6.766 0.288L6.916 0.412L6.772 0.549L6.692 0.587L6.866 0.587L6.816 0.555L6.947 0.437L7.103 0.574L7.083 0.716Z" fill="rgb(227,170,57)" fill-opacity="1.000" fill-rule="evenodd" transform="matrix(1 0 0 1 11.3046 30.5352)"/><path d="M0 5.349L0.774 5.765L0.91 5.752L0.581 5.903L0.612 5.807L0.126 5.529C0.145 5.702 0.262 5.971 0.262 5.971L0.368 5.99L0.125 6.089L0.187 5.997L0 5.349ZM1.185 0.196L1.291 0.219L1.734 0.063L1.745 0L1.907 0.113L1.807 0.106L1.329 0.269L1.322 0.325L1.185 0.196ZM1.371 0.357L1.478 0.381L1.919 0.227L1.939 0.144L2.095 0.276L1.982 0.263L1.515 0.43L1.509 0.486L1.371 0.357Z" fill="rgb(48,103,173)" fill-opacity="1.000" fill-rule="evenodd" transform="matrix(1 0 0 1 21.8449 32.1615)"/><path d="M0 0.112L0.12 0L0.1 0.214L0 0.112Z" fill="rgb(227,170,57)" fill-opacity="1.000" fill-rule="evenodd" transform="matrix(1 0 0 1 18.3123 30.8158)"/><path d="M4.006 0.057L4.157 0L4.15 0.044L4.382 0.281L4.449 0.294L4.264 0.35L4.294 0.312L4.075 0.075L4.006 0.057ZM4.181 0.369L3.982 0.436L4.001 0.387L3.82 0.338L3.764 0.481L3.826 0.481L3.665 0.549L3.727 0.481L3.775 0.329L3.503 0.242L3.403 0.242L3.583 0.179L3.583 0.206L3.787 0.268L3.831 0.131L3.751 0.125L3.888 0.075L3.831 0.268L4.075 0.362L4.181 0.369ZM1.464 1.24L1.596 1.148L1.577 1.222L1.683 1.376L2.037 1.365L2.167 1.334L2.012 1.484L2.012 1.426L1.727 1.434L1.806 1.569L1.9 1.558L1.782 1.67L1.782 1.587L1.689 1.426L1.339 1.434L1.185 1.477L1.346 1.328L1.377 1.39L1.638 1.376L1.545 1.24L1.464 1.24ZM0.119 2.986L0.169 2.816L0.225 2.909L0.469 3.008L0.835 2.891L0.91 2.803L0.873 2.977L0.83 2.946L0.568 3.047L0.786 3.145L0.854 3.096L0.797 3.452L0.747 3.394L0.075 3.4L0 3.476L0.087 3.083L0.15 3.122C0.238 3.113 0.406 3.025 0.406 3.025L0.2 2.933L0.119 2.986Z" fill="rgb(48,103,173)" fill-opacity="1.000" fill-rule="evenodd" transform="matrix(1 0 0 1 11.9312 31.0656)"/><path d="M0 0.201L0.094 0.113L0.418 0L0.71 0.113L0.74 0.194L0.68 0.249L0.024 0.249L0 0.201Z" fill="rgb(227,170,57)" fill-opacity="1.000" fill-rule="evenodd" transform="matrix(1 0 0 1 11.9935 34.1376)"/><path d="M0 0.299L0.137 0.323L0.734 0.104L0.791 0L0.878 0.192L0.797 0.162L0.137 0.379L0.087 0.484C0.053 0.425 0.024 0.363 0 0.299ZM0.102 0.53L0.242 0.55L0.831 0.311L0.883 0.203L0.976 0.394L0.895 0.366L0.243 0.606L0.201 0.705C0.154 0.637 0.102 0.53 0.102 0.53ZM0.218 0.743L0.337 0.748L0.972 0.485L0.985 0.399L1.086 0.573L1.003 0.546L0.36 0.814L0.325 0.891L0.218 0.743ZM0.337 0.916L0.456 0.928L1.302 0.829L0.698 1.277L0.704 1.357L0.561 1.202L0.653 1.21L1.078 0.891L0.437 0.973L0.437 1.025L0.337 0.916ZM2.549 1.776L2.759 1.882L2.666 1.888L2.225 2.374L2.281 2.46L2.394 2.468L2.853 1.992L2.822 1.911L3.066 2.007L2.966 2.019L2.525 2.504L2.616 2.593L2.717 2.6L3.497 2.163L3.29 2.786L3.354 2.868L3.048 2.761L3.16 2.748L3.354 2.275L2.754 2.618L2.823 2.685C2.537 2.598 2.263 2.477 2.006 2.325L2.12 2.307L2.588 1.852L2.549 1.776ZM5.82 2.61L6.15 2.616L6.056 2.654L6.051 3.225L6.169 3.27L6.275 3.253L6.625 2.605L6.662 2.605L7.004 3.225L7.091 3.264L6.723 3.276L6.836 3.214L6.593 2.781L6.351 3.246L6.449 3.276C6.15 3.302 5.777 3.282 5.777 3.282L5.907 3.239L5.907 2.649L5.82 2.61Z" fill="rgb(48,103,173)" fill-opacity="1.000" fill-rule="evenodd" transform="matrix(1 0 0 1 12.0812 35.5217)"/><path d="M6.898 0.016L7.112 0.005L7.126 0.062L6.92 0.07L6.898 0.016ZM6.612 0.03L6.827 0.018L6.85 0.07L6.647 0.087L6.612 0.03ZM6.327 0.059L6.542 0.038L6.582 0.087L6.352 0.113L6.327 0.059ZM6.042 0.087L6.256 0.065L6.283 0.117L6.08 0.143L6.042 0.087ZM5.745 0.126L5.982 0.096L6.009 0.15L5.78 0.179L5.745 0.126ZM7.179 0.003L7.361 0L7.364 0.057L7.191 0.059L7.179 0.003ZM5.465 0.175L5.693 0.137L5.717 0.184L5.504 0.219L5.465 0.175ZM5.191 0.225L5.405 0.184L5.44 0.233L5.222 0.277L5.191 0.225ZM4.907 0.285L5.13 0.236L5.157 0.29L4.945 0.332L4.907 0.285ZM4.632 0.355L4.845 0.298L4.883 0.345L4.671 0.397L4.632 0.355ZM4.362 0.422L4.568 0.366L4.61 0.413L4.399 0.473L4.362 0.422ZM4.052 0.518L4.272 0.444L4.319 0.492L4.103 0.567L4.052 0.518ZM3.756 0.616L3.985 0.54L4.038 0.589L3.809 0.667L3.756 0.616ZM3.456 0.73L3.685 0.638L3.73 0.687L3.502 0.773L3.456 0.73ZM3.197 0.84L3.39 0.751L3.431 0.804L3.246 0.884L3.197 0.84ZM2.91 0.968L3.122 0.869L3.172 0.918L2.967 1.012L2.91 0.968ZM2.652 1.098L2.848 0.993L2.904 1.04L2.712 1.143L2.652 1.098ZM2.4 1.236L2.583 1.133L2.648 1.174L2.468 1.276L2.4 1.236ZM2.131 1.388L2.321 1.275L2.402 1.314L2.203 1.434L2.131 1.388ZM1.901 1.552L2.079 1.422L2.15 1.467L1.972 1.584L1.901 1.552ZM1.672 1.711L1.845 1.595L1.916 1.628L1.751 1.753L1.672 1.711ZM1.446 1.891L1.619 1.753L1.695 1.794L1.524 1.935L1.446 1.891ZM1.24 2.069L1.399 1.935L1.48 1.97L1.34 2.103L1.24 2.069ZM1.047 2.265L1.2 2.111L1.284 2.142L1.144 2.296L1.047 2.265ZM0.863 2.462L1.013 2.304L1.105 2.336L0.962 2.488L0.863 2.462ZM0.69 2.666L0.828 2.511L0.934 2.534L0.816 2.689L0.69 2.666ZM0.557 2.866L0.664 2.713L0.781 2.734L0.679 2.884L0.557 2.866ZM0.408 3.09L0.518 2.92L0.639 2.933L0.543 3.099L0.408 3.09ZM0.289 3.308L0.386 3.144L0.518 3.152L0.439 3.317L0.289 3.308ZM0.19 3.548L0.271 3.366L0.408 3.373L0.343 3.548L0.19 3.548ZM0.118 3.763L0.177 3.602L0.33 3.603L0.277 3.769L0.118 3.763ZM0.056 4.011L0.103 3.826L0.259 3.829L0.215 4.012L0.056 4.011ZM0.022 4.243L0.053 4.066L0.201 4.063L0.181 4.243L0.022 4.243ZM0.003 4.482L0.016 4.302L0.177 4.298L0.17 4.462L0.003 4.482ZM0.007 4.732L0 4.547L0.17 4.517L0.177 4.693L0.007 4.732ZM0.009 4.785L0.182 4.747L0.199 4.945L0.025 4.985L0.009 4.785ZM0.037 5.042L0.204 4.996L0.248 5.177L0.07 5.226L0.037 5.042ZM0.086 5.292L0.259 5.239L0.316 5.427L0.143 5.481L0.086 5.292ZM0.156 5.529L0.321 5.481L0.393 5.663L0.225 5.733L0.156 5.529ZM0.243 5.78L0.402 5.717L0.5 5.903L0.337 5.973L0.243 5.78ZM0.361 6.023L0.509 5.961L0.623 6.133L0.462 6.207L0.361 6.023ZM0.493 6.264L0.647 6.187L0.775 6.36L0.617 6.453L0.493 6.264ZM0.65 6.489L0.797 6.411L0.949 6.585L0.788 6.682L0.65 6.489ZM0.834 6.727L0.991 6.638L1.159 6.823L0.997 6.923L0.834 6.727ZM1.049 6.966L1.2 6.872L1.378 7.035L1.225 7.14L1.049 6.966ZM1.287 7.186L1.427 7.085L1.625 7.246L1.493 7.364L1.287 7.186ZM1.539 7.4L1.66 7.293L1.897 7.45L1.767 7.563L1.539 7.4ZM1.838 7.615L1.944 7.505L2.179 7.648L2.069 7.768L1.838 7.615ZM2.137 7.811L2.244 7.696L2.49 7.825L2.377 7.954L2.137 7.811ZM2.461 7.992L2.549 7.877L2.832 8.011L2.749 8.138L2.461 7.992ZM2.819 8.164L2.898 8.043L3.185 8.164L3.097 8.293L2.819 8.164ZM3.175 8.323L3.256 8.196L3.546 8.323L3.461 8.447L3.175 8.323ZM3.568 8.474L3.636 8.336L3.947 8.448L3.87 8.589L3.568 8.474ZM3.957 8.61L4.017 8.471L4.349 8.567L4.279 8.718L3.957 8.61ZM4.372 8.733L4.423 8.589L4.761 8.663L4.701 8.816L4.372 8.733ZM4.798 8.838L4.841 8.681L5.2 8.75L5.138 8.921L4.798 8.838ZM5.245 8.942L5.281 8.778L5.629 8.831L5.58 8.999L5.245 8.942ZM5.686 9.005L5.715 8.847L6.069 8.889L6.042 9.057L5.686 9.005ZM6.163 9.062L6.176 8.905L6.518 8.934L6.506 9.093L6.163 9.062ZM6.633 8.949L6.981 8.96L6.976 9.12L6.618 9.108L6.633 8.949ZM7.085 9.123L7.085 8.964L7.454 8.97L7.454 9.13L7.085 9.123ZM8.308 0.085L8.095 0.073L8.086 0.018L8.333 0.025L8.308 0.085ZM8.609 0.109L8.372 0.087L8.397 0.03L8.634 0.053L8.609 0.109ZM8.891 0.139L8.663 0.113L8.691 0.062L8.93 0.086L8.891 0.139ZM9.242 0.179L8.962 0.143L8.99 0.09L9.192 0.113L9.242 0.179ZM10.324 0.396L10.277 0.326L10.369 0.354L10.324 0.396ZM10.605 0.469L10.391 0.412L10.436 0.365L10.641 0.422L10.605 0.469ZM10.903 0.562L10.686 0.488L10.732 0.444L10.955 0.517L10.903 0.562ZM11.201 0.662L10.968 0.588L11.021 0.536L11.25 0.613L11.201 0.662ZM11.508 0.773L11.279 0.683L11.323 0.637L11.554 0.727L11.508 0.773ZM11.764 0.88L11.578 0.8L11.619 0.746L11.814 0.838L11.764 0.88ZM12.046 1.007L11.839 0.914L11.888 0.864L12.103 0.964L12.046 1.007ZM12.3 1.138L12.109 1.034L12.165 0.991L12.363 1.095L12.3 1.138ZM12.548 1.271L12.365 1.169L12.433 1.129L12.616 1.23L12.548 1.271ZM12.813 1.429L12.613 1.307L12.695 1.267L12.886 1.383L12.813 1.429ZM13.046 1.578L12.866 1.46L12.939 1.417L13.118 1.544L13.046 1.578ZM13.269 1.745L13.102 1.622L13.175 1.588L13.347 1.702L13.269 1.745ZM13.496 1.926L13.325 1.785L13.401 1.745L13.575 1.883L13.496 1.926ZM13.68 2.094L13.541 1.963L13.62 1.926L13.782 2.058L13.68 2.094ZM13.879 2.286L13.738 2.132L13.822 2.103L13.975 2.252L13.879 2.286ZM14.061 2.479L13.917 2.328L14.011 2.294L14.161 2.453L14.061 2.479ZM14.209 2.678L14.089 2.525L14.195 2.501L14.333 2.657L14.209 2.678ZM14.346 2.873L14.242 2.723L14.361 2.701L14.468 2.853L14.346 2.873ZM14.484 3.087L14.387 2.924L14.508 2.906L14.618 3.078L14.484 3.087ZM14.588 3.304L14.508 3.14L14.64 3.132L14.738 3.295L14.588 3.304ZM14.684 3.533L14.618 3.358L14.757 3.352L14.838 3.533L14.684 3.533ZM14.771 3.775L14.702 3.589L14.856 3.587L14.928 3.813L14.771 3.775ZM14.862 4.482L14.865 4.281L15.013 4.32L15.027 4.501L14.862 4.482ZM14.862 4.716L14.869 4.544L15.029 4.562L15.024 4.748L14.862 4.716ZM15.004 5.001L14.828 4.962L14.856 4.776L15.021 4.802L15.004 5.001ZM12.638 7.921L12.525 7.792L12.772 7.663L12.878 7.778L12.638 7.921ZM12.265 8.104L12.181 7.976L12.466 7.842L12.555 7.958L12.265 8.104ZM11.914 8.257L11.827 8.131L12.116 8.011L12.194 8.131L11.914 8.257ZM11.549 8.411L11.464 8.285L11.754 8.164L11.836 8.285L11.549 8.411ZM11.169 8.566L11.089 8.426L11.404 8.315L11.473 8.45L11.169 8.566ZM10.739 8.698L10.667 8.55L11.003 8.455L11.062 8.593L10.739 8.698ZM10.305 8.823L10.261 8.667L10.594 8.578L10.645 8.721L10.305 8.823ZM9.863 8.934L9.798 8.764L10.16 8.696L10.204 8.851L9.863 8.934ZM9.424 9.011L9.374 8.845L9.724 8.792L9.761 8.949L9.424 9.011ZM8.954 9.068L8.925 8.903L9.283 8.86L9.311 9.014L8.954 9.068ZM8.487 9.106L8.474 8.949L8.819 8.916L8.83 9.073L8.487 9.106ZM8.374 9.118L8.014 9.13L8.007 8.972L8.358 8.96L8.374 9.118ZM7.535 9.142L7.535 8.983L7.902 8.975L7.902 9.133L7.535 9.142ZM12.951 7.734L12.831 7.621L12.918 7.557L13.055 7.646L12.951 7.734ZM14.041 6.821L14.195 6.617L14.053 6.563L13.938 6.692L14.041 6.821ZM14.004 6.859L13.894 6.736L13.746 6.88L13.944 6.929L14.004 6.859Z" fill="rgb(227,170,57)" fill-opacity="1.000" fill-rule="evenodd" transform="matrix(1 0 0 1 11.0683 30.4496)"/></svg>