<svg xmlns="http://www.w3.org/2000/svg" viewBox="0 0 60 60" width="60" height="60"><path d="M0 0L60 0L60 60L0 60L0 0Z" fill="rgb(30,30,28)" fill-opacity="1.000" fill-rule="nonzero" transform="matrix(1 0 0 1 0 0)"/><path d="M4.788 4.385L4.788 3.965C4.132 3.949 3.557 4.018 3.056 4.173C2.571 4.328 2.152 4.539 1.793 4.808C1.438 5.073 1.153 5.391 0.941 5.758C0.729 6.108 0.57 6.491 0.469 6.895L0.424 6.895L0.424 4.213L0 4.213L0 15.057L0.428 15.057L0.428 8.92C0.428 8.329 0.518 7.751 0.685 7.188C0.856 6.626 1.117 6.133 1.475 5.709C1.834 5.277 2.282 4.939 2.82 4.698C3.374 4.446 4.03 4.34 4.788 4.381M12.938 9.295L4.177 9.295C4.222 8.537 4.364 7.857 4.605 7.249C4.849 6.642 5.159 6.133 5.546 5.705C5.945 5.273 6.398 4.943 6.911 4.715C7.437 4.491 7.999 4.376 8.598 4.376C9.311 4.376 9.939 4.511 10.477 4.776C11.015 5.028 11.467 5.383 11.821 5.831C12.192 6.284 12.469 6.805 12.657 7.412C12.84 7.999 12.934 8.631 12.934 9.287M13.362 9.707C13.39 8.965 13.313 8.248 13.129 7.555C12.958 6.866 12.673 6.255 12.274 5.721C11.891 5.187 11.385 4.755 10.758 4.434C10.147 4.108 9.413 3.949 8.561 3.949C7.95 3.949 7.351 4.071 6.768 4.328C6.186 4.58 5.672 4.951 5.232 5.444C4.792 5.921 4.438 6.516 4.165 7.217C3.896 7.922 3.761 8.72 3.761 9.621C3.761 10.424 3.851 11.174 4.038 11.878C4.222 12.567 4.507 13.174 4.894 13.692C5.277 14.197 5.77 14.592 6.365 14.874C6.976 15.155 7.71 15.285 8.561 15.273C9.812 15.273 10.868 14.931 11.72 14.242C12.575 13.541 13.077 12.555 13.235 11.288L12.808 11.288C12.624 12.482 12.147 13.382 11.377 13.985C10.619 14.576 9.666 14.874 8.513 14.874C7.73 14.874 7.07 14.743 6.528 14.474C5.986 14.209 5.546 13.843 5.204 13.378C4.865 12.909 4.605 12.372 4.438 11.752C4.279 11.121 4.193 10.436 4.181 9.707L13.362 9.707ZM21.94 10.685C21.94 11.218 21.842 11.74 21.642 12.245C21.455 12.751 21.173 13.203 20.786 13.598C20.416 13.977 19.951 14.287 19.401 14.523C18.847 14.764 18.211 14.882 17.502 14.882C16.903 14.882 16.398 14.812 15.986 14.67C15.587 14.515 15.265 14.323 15.004 14.099C14.751 13.863 14.564 13.594 14.45 13.297C14.352 12.987 14.299 12.677 14.299 12.367C14.299 11.789 14.389 11.324 14.576 10.974C14.764 10.607 15.016 10.326 15.326 10.13C15.64 9.918 15.994 9.78 16.394 9.707C16.805 9.621 17.225 9.568 17.653 9.539C18.081 9.511 18.512 9.491 18.957 9.474C19.409 9.462 19.833 9.425 20.216 9.372C20.603 9.315 20.941 9.238 21.243 9.14C21.54 9.026 21.764 8.875 21.903 8.676L21.948 8.676L21.948 10.68L21.94 10.685ZM23.117 15.053L23.757 15.053L23.757 14.633C23.618 14.649 23.459 14.658 23.288 14.678C23.129 14.678 22.983 14.662 22.84 14.633C22.697 14.592 22.583 14.523 22.498 14.421C22.412 14.323 22.371 14.169 22.371 13.961L22.371 7.066C22.355 6.475 22.249 5.982 22.05 5.587C21.846 5.196 21.589 4.878 21.259 4.641C20.933 4.389 20.546 4.209 20.106 4.112C19.674 4.014 19.222 3.965 18.741 3.965C18.056 3.965 17.457 4.055 16.948 4.238C16.451 4.421 16.023 4.674 15.664 4.996C15.322 5.322 15.057 5.709 14.874 6.157C14.69 6.593 14.58 7.066 14.552 7.571L14.98 7.571C15.049 6.557 15.407 5.778 16.047 5.232C16.687 4.67 17.587 4.385 18.741 4.385C19.462 4.385 20.045 4.482 20.473 4.682C20.9 4.865 21.218 5.106 21.434 5.399C21.662 5.697 21.805 6.019 21.862 6.369C21.919 6.72 21.948 7.058 21.948 7.384C21.948 7.791 21.862 8.105 21.695 8.333C21.536 8.545 21.283 8.704 20.925 8.818C20.583 8.916 20.138 8.989 19.601 9.03C19.059 9.059 18.411 9.095 17.657 9.14C17.2 9.165 16.748 9.23 16.292 9.332C15.835 9.413 15.432 9.576 15.073 9.817C14.715 10.041 14.425 10.354 14.193 10.766C13.981 11.174 13.875 11.715 13.875 12.392C13.875 13.362 14.209 14.091 14.878 14.584C15.546 15.061 16.434 15.297 17.547 15.297C18.113 15.297 18.643 15.22 19.128 15.065C19.613 14.927 20.037 14.727 20.407 14.478C20.794 14.226 21.108 13.936 21.349 13.614C21.601 13.288 21.789 12.95 21.903 12.6L21.948 12.6L21.948 14.014C21.948 14.421 22.062 14.702 22.29 14.857C22.53 14.996 22.812 15.069 23.125 15.069M24.356 15.069L24.784 15.069L24.784 0L24.356 0L24.356 15.065L24.356 15.069ZM25.994 2.143L26.422 2.143L26.422 0L25.994 0L25.994 2.139L25.994 2.143ZM25.994 15.069L26.422 15.069L26.422 4.213L25.994 4.213L25.994 15.065L25.994 15.069ZM27.653 14.649L35.342 4.76L35.342 4.234L27.783 4.234L27.783 4.658L34.898 4.658L27.208 14.548L27.208 15.073L35.684 15.073L35.684 14.654L27.657 14.654L27.653 14.649ZM44.58 9.311L35.823 9.311C35.864 8.553 36.006 7.873 36.251 7.266C36.491 6.658 36.805 6.149 37.188 5.721C37.587 5.289 38.044 4.959 38.553 4.731C39.079 4.507 39.641 4.393 40.24 4.393C40.953 4.393 41.577 4.527 42.115 4.792C42.657 5.045 43.105 5.399 43.459 5.848C43.83 6.3 44.107 6.821 44.291 7.429C44.478 8.015 44.568 8.647 44.568 9.303M44.759 7.571C44.588 6.883 44.303 6.271 43.904 5.738C43.52 5.204 43.015 4.772 42.388 4.45C41.776 4.124 41.043 3.965 40.191 3.965C39.58 3.965 38.981 4.087 38.398 4.344C37.816 4.597 37.302 4.967 36.862 5.46C36.422 5.937 36.063 6.532 35.794 7.233C35.525 7.938 35.391 8.737 35.391 9.637C35.391 10.44 35.481 11.19 35.668 11.895C35.851 12.583 36.137 13.191 36.524 13.708C36.907 14.213 37.4 14.609 37.995 14.89C38.606 15.171 39.34 15.301 40.195 15.289C41.446 15.289 42.502 14.947 43.353 14.258C44.209 13.557 44.714 12.571 44.873 11.304L44.445 11.304C44.262 12.498 43.785 13.398 43.015 14.002C42.261 14.592 41.304 14.89 40.15 14.89C39.368 14.89 38.704 14.759 38.162 14.491C37.624 14.226 37.18 13.859 36.838 13.394C36.495 12.926 36.243 12.388 36.067 11.768C35.913 11.137 35.827 10.452 35.815 9.723L44.996 9.723C45.02 8.981 44.943 8.264 44.763 7.571" fill="rgb(255,255,255)" fill-opacity="1.000" fill-rule="nonzero" transform="matrix(1 0 0 1 7 22)"/></svg>