<svg xmlns="http://www.w3.org/2000/svg" viewBox="0 0 60 60" width="60" height="60"><path d="M0 0L60 0L60 60L0 60L0 0Z" fill="rgb(5,62,110)" fill-opacity="1.000" fill-rule="nonzero" transform="matrix(1 0 0 1 0 0)"/><path d="M12.25 3.293C11.627 2.673 10.869 2.268 9.947 2.025C9.785 1.944 9.677 1.809 9.731 1.566L9.866 0.81C9.947 0.351 9.65 0 9.189 0L8.16 0C7.699 0 7.265 0.378 7.184 0.81L7.049 1.485C6.995 1.782 6.805 1.89 6.561 1.971C5.477 2.16 4.502 2.592 3.689 3.212C2.47 4.13 1.766 5.291 1.549 6.695C1.333 7.964 1.631 8.989 2.443 9.745C3.256 10.501 4.529 11.068 6.263 11.473C7.401 11.743 8.16 12.067 8.512 12.418C8.864 12.769 8.999 13.255 8.918 13.795C8.81 14.388 8.512 14.874 7.997 15.225C7.482 15.576 6.805 15.765 6.019 15.765C5.207 15.765 4.556 15.549 4.042 15.117C3.689 14.82 3.5 14.388 3.446 13.848C3.391 13.659 3.31 13.12 2.741 13.12C2.145 13.12 1.36 13.12 0.737 13.12C0.113 13.12 0.005 13.633 0.005 13.848C-0.049 14.955 0.33 15.954 1.17 16.872C1.712 17.466 2.389 17.898 3.202 18.168L3.148 18.168C3.581 18.303 3.96 18.357 3.852 18.789L3.717 19.544C3.635 20.003 3.933 20.354 4.394 20.354L5.423 20.354C5.884 20.354 6.317 19.976 6.399 19.544L6.534 18.87C6.588 18.546 6.805 18.438 7.076 18.384C8.241 18.195 9.27 17.817 10.137 17.196C11.383 16.332 12.142 15.144 12.359 13.633C12.575 12.337 12.277 11.284 11.492 10.528C10.706 9.772 9.379 9.178 7.536 8.773C6.371 8.503 5.64 8.234 5.315 7.91C4.99 7.586 4.854 7.127 4.963 6.56C5.044 5.993 5.342 5.534 5.83 5.129C6.317 4.724 6.913 4.535 7.672 4.535C8.458 4.535 9.027 4.778 9.406 5.237C9.65 5.534 9.731 5.831 9.785 6.128C9.92 6.722 10.273 6.965 10.652 6.965L12.467 6.965C13.198 6.965 13.334 6.506 13.307 6.047C13.334 5.048 12.928 3.968 12.25 3.293Z" fill="rgb(255,255,255)" fill-opacity="1.000" fill-rule="evenodd" transform="matrix(1 0 0 1 22.5628 19.6022)"/><path d="M30.983 5.129C31.416 4.697 31.823 5.048 31.714 5.453L28.518 21.434C28.409 22.028 28.192 23 28.084 23.594C28.084 23.594 27.573 26.151 27.041 28.853L26.969 29.217L26.921 29.46C26.699 30.592 26.478 31.719 26.296 32.664C25.836 34.959 24.779 36.579 22.991 37.604C22.016 38.171 20.797 38.468 19.632 38.468L2.293 38.468C1.697 38.468 1.562 38.036 1.995 37.604L6.682 32.961C7.116 32.529 7.983 32.178 8.579 32.178L11.775 32.178C12.398 32.178 12.534 32.529 12.1 32.961L11.017 34.041C10.309 34.772 10.262 34.82 10.457 34.824L10.486 34.824L10.502 34.824L18.44 34.824C19.036 34.824 20.011 34.662 20.58 34.446C20.58 34.446 22.422 33.771 22.747 32.07C23.181 29.857 27.299 9.664 27.299 9.664C27.407 9.07 27.867 8.234 28.301 7.802L30.983 5.129ZM29.439 0C30.035 0 30.17 0.432 29.737 0.864L25.05 5.48C24.617 5.912 23.75 6.263 23.154 6.263L19.957 6.263C19.334 6.263 19.198 5.912 19.632 5.48L20.715 4.4C21.423 3.67 21.471 3.621 21.276 3.618L21.246 3.617L21.23 3.617L13.319 3.617C12.723 3.617 11.748 3.779 11.179 3.995C11.179 3.995 9.337 4.67 9.012 6.371C8.579 8.584 4.461 28.777 4.461 28.777C4.352 29.371 3.892 30.208 3.458 30.64L0.749 33.312C0.316 33.744 -0.091 33.393 0.018 32.988L3.214 17.034C3.323 16.44 3.54 15.468 3.648 14.874C3.648 14.874 4.174 12.241 4.715 9.494L4.763 9.251L4.811 9.008L4.882 8.645C5.08 7.636 5.273 6.648 5.436 5.804C5.897 3.509 6.953 1.89 8.741 0.864C9.716 0.297 10.935 0 12.1 0L29.439 0Z" fill="rgb(255,255,255)" fill-opacity="1.000" fill-rule="evenodd" transform="matrix(1 0 0 1 13.6641 10.5319)"/><path d="M0 0L2 0L2 30L0 30L0 0Z" fill="rgb(6,126,204)" fill-opacity="1.000" fill-rule="nonzero" transform="matrix(1 0 0 1 0 0)"/><path d="M0 0L2 0L2 30L0 30L0 0Z" fill="rgb(220,179,73)" fill-opacity="1.000" fill-rule="nonzero" transform="matrix(1 0 0 1 0 30)"/><path d="M0 0L2 0L2 30L0 30L0 0Z" fill="rgb(8,167,251)" fill-opacity="1.000" fill-rule="nonzero" transform="matrix(1 0 0 1 58 0)"/><path d="M0 0L2 0L2 30L0 30L0 0Z" fill="rgb(8,167,251)" fill-opacity="1.000" fill-rule="nonzero" transform="matrix(0 1 -1 0 60 0)"/><path d="M0 0L2 0L2 30L0 30L0 0Z" fill="rgb(6,126,204)" fill-opacity="1.000" fill-rule="nonzero" transform="matrix(0 1 -1 0 30 0)"/><path d="M0 0L2 0L2 30L0 30L0 0Z" fill="rgb(255,128,3)" fill-opacity="1.000" fill-rule="nonzero" transform="matrix(1 0 0 1 58 30)"/><path d="M0 0L2 0L2 30L0 30L0 0Z" fill="rgb(255,128,3)" fill-opacity="1.000" fill-rule="nonzero" transform="matrix(0 1 -1 0 60 58)"/><path d="M0 0L2 0L2 30L0 30L0 0Z" fill="rgb(220,179,73)" fill-opacity="1.000" fill-rule="nonzero" transform="matrix(0 1 -1 0 30 58)"/></svg>