<svg xmlns="http://www.w3.org/2000/svg" viewBox="0 0 130 60" width="130" height="60"><path d="M0 0L130 0L130 60L0 60L0 0Z" fill="rgb(255,255,255)" fill-opacity="1.000" fill-rule="nonzero" transform="matrix(1 0 0 1 0 0)"/><path d="M6.374 2.311C4.576 2.311 3.893 3.171 3.677 4.193L2.4 10.338C2.346 10.643 2.041 10.876 1.735 10.876L0.458 10.876C0.153 10.876 -0.045 10.643 0.009 10.338L1.951 0.663C2.005 0.358 2.31 0.125 2.616 0.125L3.875 0.125C4.18 0.125 4.378 0.358 4.306 0.663L4.234 1.021C4.162 1.308 4.288 1.38 4.486 1.147C4.486 1.147 5.727 0 7.273 0C7.579 0 7.453 0.251 7.453 0.251L6.86 2.043C6.86 2.043 6.77 2.311 6.374 2.311Z" fill="rgb(5,62,110)" fill-opacity="1.000" fill-rule="evenodd" transform="matrix(1 0 0 1 30.0011 24.2743)"/><path d="M3.953 11.162C-0.309 11.162 -0.201 6.862 0.158 5.25C0.446 3.978 1.651 0 5.445 0C10.318 0 8.807 5.751 8.807 5.751C8.717 6.038 8.573 6.271 8.142 6.271L2.496 6.271C2.208 6.271 2.172 6.432 2.154 6.54C2.1 6.97 2.046 7.866 2.586 8.618C3.107 9.353 4.438 9.926 7.009 8.457C7.207 8.349 7.315 8.385 7.387 8.546C7.423 8.654 7.639 9.353 7.639 9.353C7.728 9.639 7.603 10.016 7.351 10.177C7.351 10.177 6.829 10.535 6.164 10.768C5.535 11.055 4.78 11.162 3.953 11.162ZM5.139 1.953C4.636 1.953 4.168 2.186 3.755 2.67C3.359 3.1 3.071 3.691 2.874 4.354C2.856 4.408 2.82 4.533 2.999 4.533C3.161 4.533 6.416 4.533 6.416 4.533C6.596 4.533 6.614 4.408 6.632 4.336C6.65 4.264 6.65 4.031 6.668 3.727C6.668 3.727 6.686 3.01 6.452 2.58C6.2 2.168 5.769 1.953 5.139 1.953Z" fill="rgb(5,62,110)" fill-opacity="1.000" fill-rule="nonzero" transform="matrix(1 0 0 1 37.151 24.1847)"/><path d="M4.162 9.209C4.665 9.209 5.133 9.03 5.564 8.69C5.942 8.385 6.122 8.081 6.266 7.651C6.356 7.382 6.607 7.4 6.607 7.4C6.607 7.4 8.118 7.4 8.208 7.4C8.369 7.4 8.459 7.543 8.405 7.704C8.387 7.794 8.351 7.883 8.315 7.973C8.315 7.973 7.83 9.389 6.931 10.087C6.032 10.786 5.007 11.144 3.856 11.144C2.418 11.144 1.375 10.625 0.71 9.604C-0.549 7.633 -0.136 3.816 1.968 1.487C2.885 0.466 4.054 0 5.636 0C6.859 0 7.722 0.376 8.387 1.129C8.999 1.828 9.232 2.705 9.089 3.727C9.071 3.816 9.035 4.031 8.729 4.031L7.255 4.031C7.021 4.031 6.841 3.96 6.841 3.655C6.841 3.655 6.841 2.903 6.571 2.508C6.302 2.114 5.87 1.917 5.313 1.917C4.521 1.917 3.928 2.258 3.443 2.92C2.562 4.157 2.058 6.862 2.544 8.242C2.813 8.905 3.335 9.209 4.162 9.209Z" fill="rgb(5,62,110)" fill-opacity="1.000" fill-rule="evenodd" transform="matrix(1 0 0 1 46.8492 24.2027)"/><path d="M6.074 10.947C5.768 10.947 5.57 10.714 5.624 10.428L5.696 9.908C5.696 9.908 5.678 9.693 5.498 9.854C5.228 10.087 4.725 10.517 4.311 10.732C3.772 11.019 3.215 11.162 2.657 11.162C1.704 11.162 0.985 10.858 0.517 10.267C0.032 9.675 -0.112 8.887 0.086 7.919C0.302 6.809 0.841 5.984 1.704 5.447C2.567 4.909 3.7 4.623 5.12 4.623L6.145 4.623C6.631 4.623 6.703 4.533 6.793 4.157C6.847 3.906 6.901 3.44 6.919 3.135C6.919 3.135 6.955 2.634 6.721 2.329C6.487 2.025 6.091 1.881 5.534 1.881C4.096 1.881 3.88 2.705 3.682 3.046C3.574 3.243 3.502 3.297 3.215 3.297C3.017 3.297 3.161 3.297 1.866 3.297C1.56 3.297 1.434 3.028 1.56 2.67C1.56 2.67 1.974 1.577 2.855 0.95C3.736 0.323 4.797 0 6.056 0C7.152 0 8.033 0.323 8.663 0.968C9.292 1.613 9.508 2.526 9.274 3.691L8.051 10.338C7.997 10.643 7.71 10.912 7.404 10.929L6.074 10.929L6.074 10.947ZM3.574 9.227C4.006 9.227 4.455 9.102 4.923 8.869C5.372 8.636 5.804 8.511 6.002 7.812L6.271 6.665C6.343 6.307 6.433 6.128 6.127 6.128L5.318 6.128C5.013 6.128 4.527 6.163 4.221 6.217C4.221 6.217 3.7 6.307 3.268 6.647C2.837 7.006 2.567 7.4 2.477 7.866C2.387 8.296 2.423 8.636 2.603 8.869C2.801 9.12 3.107 9.227 3.574 9.227Z" fill="rgb(5,62,110)" fill-opacity="1.000" fill-rule="nonzero" transform="matrix(1 0 0 1 56.3191 24.1847)"/><path d="M2.344 1.398C3.136 0.466 4.196 0 5.473 0C6.03 0 6.516 0.125 6.966 0.376C7.325 0.573 7.613 0.86 7.883 1.2C8.062 1.415 8.116 1.165 8.116 1.165L8.206 0.735C8.278 0.448 8.584 0.197 8.871 0.197L9.95 0.197C10.256 0.197 10.454 0.448 10.4 0.735L8.512 10.177C7.469 14.728 4.88 15.409 2.83 15.283C2.38 15.247 1.859 15.212 1.302 15.068C0.834 14.943 0.582 14.871 0.223 14.674C0.151 14.638 -0.137 14.477 0.079 14.011C0.205 13.76 0.528 13.079 0.528 13.079C0.654 12.811 0.96 12.703 1.23 12.847C1.23 12.847 1.535 12.972 1.967 13.097C2.398 13.205 2.758 13.241 3.226 13.241C3.945 13.241 4.556 13.008 5.042 12.56C5.527 12.112 5.851 11.485 6.013 10.714L6.03 10.661C6.085 10.374 5.941 10.267 5.707 10.464C5.707 10.464 5.365 10.714 4.952 10.894C4.52 11.073 4.071 11.162 3.603 11.162C2.452 11.162 1.571 10.643 0.978 9.586C0.385 8.546 0.277 7.041 0.582 5.518C0.582 5.536 1.086 2.867 2.344 1.398ZM2.956 5.536C2.938 5.644 2.884 5.984 2.866 6.289C2.866 6.289 2.74 7.633 2.992 8.26C3.244 8.887 3.765 9.192 4.52 9.192C4.934 9.192 5.347 9.084 5.689 8.851C6.031 8.618 6.444 8.331 6.642 7.561L7.433 3.601C7.577 2.849 7.163 2.437 6.876 2.24C6.57 2.043 6.21 1.953 5.761 1.953C5.06 1.953 4.484 2.275 3.999 2.92C3.531 3.601 3.172 4.461 2.956 5.536Z" fill="rgb(5,62,110)" fill-opacity="1.000" fill-rule="nonzero" transform="matrix(1 0 0 1 72.5269 24.1847)"/><path d="M8.873 9.872C8.118 10.732 7.075 11.127 5.835 11.127C5.295 11.127 4.81 11.019 4.378 10.822C4.055 10.661 3.767 10.464 3.533 10.213C3.461 10.123 3.263 10.141 3.227 10.374C3.174 10.607 2.4 14.531 2.4 14.531C2.346 14.835 2.041 15.068 1.735 15.068L0.458 15.068C0.153 15.068 -0.045 14.817 0.009 14.531L2.778 0.735C2.832 0.43 3.138 0.197 3.443 0.197L4.576 0.197C4.882 0.197 5.079 0.43 5.043 0.717C4.99 1.003 5.133 1.075 5.367 0.878C5.367 0.878 5.763 0.538 6.212 0.323C6.68 0.108 7.165 0 7.687 0C8.855 0 9.719 0.573 10.276 1.702C10.833 2.849 10.905 4.461 10.582 6.128C10.564 6.11 10.114 8.457 8.873 9.872ZM8.19 6.11C8.208 6.002 8.262 5.662 8.28 5.357C8.28 5.357 8.442 3.798 8.19 3.064C7.938 2.329 7.435 1.971 6.662 1.971C5.529 1.971 4.756 2.795 4.576 3.512L3.767 7.543C3.641 8.385 3.983 8.797 4.288 8.959C4.594 9.138 4.972 9.209 5.457 9.209C6.158 9.209 6.734 8.941 7.201 8.385C7.669 7.812 7.992 7.059 8.19 6.11Z" fill="rgb(240,90,2)" fill-opacity="1.000" fill-rule="nonzero" transform="matrix(1 0 0 1 92.609 24.2206)"/><path d="M5.354 6.271C5.39 6.576 5.515 6.593 5.659 6.325L8.626 0.484C8.77 0.215 9.129 0 9.435 0L10.945 0C11.251 0 11.377 0.215 11.233 0.484L5.138 11.897C4.994 12.166 4.742 12.596 4.58 12.847C4.58 12.847 3.969 13.778 3.358 14.298C2.315 15.212 1.02 15.14 0.283 14.997C-0.131 14.907 0.031 14.567 0.031 14.567L0.373 13.545C0.463 13.259 0.804 13.044 1.093 13.079C1.093 13.079 1.128 13.079 1.218 13.079C1.578 13.079 1.937 12.918 2.26 12.596C2.585 12.273 2.854 11.933 3.034 11.592L3.322 11.109C3.591 10.535 3.556 10.392 3.52 10.087L2.171 0.555C2.135 0.251 2.351 0.018 2.638 0.018L4.13 0.018C4.437 0.018 4.706 0.269 4.742 0.555L5.354 6.271Z" fill="rgb(240,90,2)" fill-opacity="1.000" fill-rule="evenodd" transform="matrix(1 0 0 1 112.7069 24.3998)"/><path d="M6.374 2.311C4.576 2.311 3.893 3.171 3.677 4.193L2.4 10.338C2.346 10.643 2.041 10.876 1.735 10.876L0.458 10.876C0.153 10.876 -0.045 10.643 0.009 10.338L1.951 0.663C2.005 0.358 2.31 0.125 2.616 0.125L3.875 0.125C4.18 0.125 4.378 0.358 4.306 0.663L4.234 1.021C4.162 1.308 4.288 1.38 4.486 1.147C4.486 1.147 5.727 0 7.273 0C7.579 0 7.453 0.251 7.453 0.251L6.86 2.043C6.86 2.043 6.788 2.311 6.374 2.311Z" fill="rgb(5,62,110)" fill-opacity="1.000" fill-rule="evenodd" transform="matrix(1 0 0 1 66.2326 24.2743)"/><path d="M6.091 10.947C5.786 10.947 5.588 10.714 5.624 10.428L5.696 9.908C5.696 9.908 5.678 9.693 5.498 9.854C5.228 10.087 4.725 10.517 4.311 10.732C3.772 11.019 3.215 11.162 2.657 11.162C1.704 11.162 0.985 10.858 0.517 10.267C0.032 9.675 -0.112 8.887 0.086 7.919C0.302 6.809 0.841 5.984 1.704 5.447C2.567 4.909 3.7 4.623 5.12 4.623L6.145 4.623C6.631 4.623 6.703 4.533 6.793 4.157C6.847 3.906 6.901 3.44 6.919 3.135C6.919 3.135 6.955 2.634 6.721 2.329C6.487 2.025 6.091 1.881 5.534 1.881C4.096 1.881 3.88 2.705 3.682 3.046C3.574 3.243 3.502 3.297 3.215 3.297C3.017 3.297 3.161 3.297 1.866 3.297C1.56 3.297 1.434 3.028 1.56 2.67C1.56 2.67 1.974 1.577 2.855 0.95C3.736 0.323 4.797 0 6.056 0C7.152 0 8.033 0.323 8.663 0.968C9.292 1.613 9.508 2.526 9.274 3.691L8.051 10.338C7.997 10.643 7.71 10.912 7.404 10.929L6.091 10.929L6.091 10.947ZM3.592 9.227C4.024 9.227 4.473 9.102 4.941 8.869C5.39 8.636 5.822 8.511 6.02 7.812L6.289 6.665C6.361 6.307 6.451 6.128 6.145 6.128L5.336 6.128C5.031 6.128 4.545 6.163 4.239 6.217C4.239 6.217 3.718 6.307 3.286 6.647C2.855 7.006 2.585 7.4 2.495 7.866C2.405 8.296 2.441 8.636 2.621 8.869C2.819 9.12 3.125 9.227 3.592 9.227Z" fill="rgb(5,62,110)" fill-opacity="1.000" fill-rule="nonzero" transform="matrix(1 0 0 1 83.1106 24.1847)"/><path d="M6.074 10.947C5.768 10.947 5.57 10.714 5.624 10.428L5.696 9.908C5.696 9.908 5.678 9.693 5.498 9.854C5.228 10.087 4.725 10.517 4.311 10.732C3.772 11.019 3.215 11.162 2.657 11.162C1.704 11.162 0.985 10.858 0.517 10.267C0.032 9.675 -0.112 8.887 0.086 7.919C0.302 6.809 0.841 5.984 1.704 5.447C2.567 4.909 3.7 4.623 5.12 4.623L6.145 4.623C6.631 4.623 6.703 4.533 6.793 4.157C6.847 3.906 6.901 3.44 6.919 3.135C6.919 3.135 6.955 2.634 6.721 2.329C6.487 2.025 6.091 1.881 5.534 1.881C4.096 1.881 3.88 2.705 3.682 3.046C3.574 3.243 3.502 3.297 3.215 3.297C3.017 3.297 3.161 3.297 1.866 3.297C1.56 3.297 1.434 3.028 1.56 2.67C1.56 2.67 1.974 1.577 2.855 0.95C3.736 0.323 4.797 0 6.056 0C7.152 0 8.033 0.323 8.663 0.968C9.292 1.613 9.508 2.526 9.274 3.691L8.051 10.338C7.997 10.643 7.71 10.912 7.404 10.929L6.074 10.929L6.074 10.947ZM3.574 9.227C4.006 9.227 4.455 9.102 4.923 8.869C5.39 8.636 5.804 8.511 6.002 7.812L6.271 6.665C6.343 6.307 6.433 6.128 6.127 6.128L5.318 6.128C5.013 6.128 4.527 6.163 4.221 6.217C4.221 6.217 3.7 6.307 3.268 6.647C2.837 7.006 2.567 7.4 2.477 7.866C2.387 8.296 2.423 8.636 2.621 8.869C2.783 9.12 3.107 9.227 3.574 9.227Z" fill="rgb(240,90,2)" fill-opacity="1.000" fill-rule="nonzero" transform="matrix(1 0 0 1 104.0583 24.1847)"/><path d="M8.131 2.186C7.717 1.774 7.214 1.505 6.602 1.344C6.494 1.29 6.423 1.2 6.458 1.039L6.548 0.538C6.602 0.233 6.405 0 6.099 0L5.416 0C5.11 0 4.822 0.251 4.768 0.538L4.678 0.985C4.642 1.183 4.517 1.254 4.355 1.308C3.635 1.433 2.988 1.72 2.449 2.132C1.64 2.741 1.172 3.512 1.028 4.443C0.884 5.286 1.082 5.966 1.622 6.468C2.161 6.97 3.006 7.346 4.157 7.615C4.912 7.794 5.416 8.009 5.649 8.242C5.883 8.475 5.973 8.797 5.919 9.156C5.847 9.55 5.649 9.872 5.308 10.105C4.966 10.338 4.517 10.464 3.995 10.464C3.456 10.464 3.024 10.32 2.683 10.034C2.449 9.837 2.323 9.55 2.287 9.191C2.251 9.066 2.197 8.708 1.819 8.708C1.424 8.708 0.902 8.708 0.489 8.708C0.075 8.708 0.003 9.048 0.003 9.191C-0.033 9.926 0.219 10.589 0.777 11.198C1.136 11.592 1.586 11.879 2.125 12.058L2.089 12.058C2.377 12.148 2.629 12.184 2.557 12.47L2.467 12.972C2.413 13.277 2.611 13.51 2.916 13.51L3.6 13.51C3.905 13.51 4.193 13.259 4.247 12.972L4.337 12.524C4.373 12.309 4.517 12.237 4.696 12.202C5.47 12.076 6.153 11.825 6.728 11.413C7.555 10.84 8.059 10.052 8.203 9.048C8.346 8.188 8.149 7.489 7.627 6.988C7.106 6.486 6.225 6.092 5.002 5.823C4.229 5.644 3.743 5.465 3.528 5.25C3.312 5.035 3.222 4.73 3.294 4.354C3.348 3.978 3.546 3.673 3.869 3.404C4.193 3.135 4.588 3.01 5.092 3.01C5.613 3.01 5.991 3.171 6.243 3.476C6.405 3.673 6.458 3.87 6.494 4.067C6.584 4.461 6.818 4.623 7.07 4.623L8.275 4.623C8.76 4.623 8.85 4.318 8.832 4.013C8.85 3.35 8.58 2.634 8.131 2.186Z" fill="rgb(240,90,2)" fill-opacity="1.000" fill-rule="evenodd" transform="matrix(1 0 0 1 12.9064 23.0201)"/><path d="M20.564 3.404C20.851 3.118 21.121 3.35 21.049 3.619L18.928 14.226C18.856 14.62 18.712 15.265 18.64 15.66C18.64 15.66 18.301 17.357 17.947 19.15L17.9 19.392L17.868 19.553C17.72 20.305 17.574 21.053 17.453 21.68C17.147 23.203 16.446 24.278 15.26 24.959C14.612 25.335 13.803 25.532 13.03 25.532L1.522 25.532C1.127 25.532 1.037 25.245 1.324 24.959L4.435 21.877C4.723 21.59 5.298 21.357 5.694 21.357L7.815 21.357C8.229 21.357 8.319 21.59 8.031 21.877L7.312 22.593C6.842 23.078 6.811 23.111 6.94 23.113L6.96 23.113L6.97 23.113L12.239 23.113C12.634 23.113 13.282 23.006 13.659 22.862C13.659 22.862 14.882 22.414 15.098 21.285C15.385 19.816 18.118 6.414 18.118 6.414C18.19 6.02 18.496 5.465 18.784 5.178L20.564 3.404ZM19.539 0C19.935 0 20.024 0.287 19.737 0.573L16.626 3.637C16.338 3.924 15.763 4.157 15.367 4.157L13.246 4.157C12.832 4.157 12.742 3.924 13.03 3.637L13.749 2.92C14.219 2.436 14.25 2.403 14.121 2.401L14.101 2.401L14.091 2.401L8.84 2.401C8.445 2.401 7.797 2.508 7.42 2.652C7.42 2.652 6.197 3.1 5.981 4.228C5.694 5.698 2.961 19.1 2.961 19.1C2.889 19.494 2.583 20.049 2.295 20.336L0.497 22.11C0.21 22.396 -0.06 22.163 0.012 21.895L2.134 11.306C2.205 10.911 2.349 10.267 2.421 9.872C2.421 9.872 2.77 8.124 3.13 6.301L3.161 6.14L3.193 5.979L3.24 5.738C3.372 5.068 3.5 4.412 3.608 3.852C3.914 2.329 4.615 1.254 5.802 0.573C6.449 0.197 7.258 0 8.031 0L19.539 0Z" fill="rgb(5,62,110)" fill-opacity="1.000" fill-rule="evenodd" transform="matrix(1 0 0 1 7 17)"/></svg>