<svg xmlns="http://www.w3.org/2000/svg" viewBox="0 0 60 60" width="60" height="60"><path d="M0 0L60 0L60 60L0 60L0 0Z" fill="rgb(255,255,255)" fill-opacity="1.000" fill-rule="nonzero" transform="matrix(1 0 0 1 0 0)"/><path d="M0 4.5L0 0L0.858 0L0.858 4.5L0 4.5Z" fill="rgb(236,112,0)" fill-opacity="1.000" fill-rule="nonzero" transform="matrix(1 0 0 1 43.1551 34.4125)"/><path d="M1.689 4.447C1.314 4.447 1.029 4.348 0.838 4.151C0.645 3.953 0.55 3.658 0.55 3.267L0.55 1.56L0 1.56L0 0.92L0.55 0.92L0.55 0L1.38 0L1.38 0.92L2.158 0.92L2.158 1.56L1.38 1.56L1.38 3.194C1.38 3.394 1.421 3.542 1.501 3.637C1.581 3.733 1.706 3.781 1.876 3.781C2.005 3.781 2.131 3.754 2.251 3.701L2.251 4.348C2.068 4.414 1.88 4.447 1.689 4.447Z" fill="rgb(236,112,0)" fill-opacity="1.000" fill-rule="nonzero" transform="matrix(1 0 0 1 44.542 34.5325)"/><path d="M1.126 3.634C0.786 3.634 0.514 3.543 0.308 3.36C0.103 3.178 0 2.934 0 2.627C0 2.236 0.156 1.932 0.469 1.717C0.782 1.501 1.227 1.394 1.803 1.394C1.852 1.394 1.901 1.394 1.951 1.394C2 1.394 2.047 1.396 2.092 1.4C2.078 1.152 2.007 0.967 1.877 0.847C1.747 0.727 1.553 0.667 1.294 0.667C0.963 0.667 0.633 0.76 0.302 0.947L0.302 0.28C0.664 0.093 1.037 0 1.421 0C1.891 0 2.252 0.128 2.507 0.383C2.762 0.639 2.889 1.004 2.889 1.48L2.889 3.547L2.199 3.547L2.152 3.147C2.044 3.298 1.9 3.417 1.719 3.504C1.538 3.59 1.34 3.634 1.126 3.634ZM1.354 3.047C1.559 3.047 1.734 2.973 1.88 2.827C2.025 2.68 2.097 2.502 2.097 2.293L2.097 1.953C2.053 1.953 2.007 1.952 1.96 1.95C1.913 1.947 1.865 1.946 1.816 1.946C1.485 1.946 1.232 1.996 1.055 2.096C0.878 2.196 0.79 2.342 0.79 2.533C0.79 2.689 0.842 2.813 0.945 2.906C1.047 3 1.183 3.047 1.354 3.047Z" fill="rgb(236,112,0)" fill-opacity="1.000" fill-rule="nonzero" transform="matrix(1 0 0 1 47.149 35.3664)"/><path d="M1.173 5.054C0.816 5.054 0.53 4.931 0.318 4.684C0.106 4.437 0 4.107 0 3.693L0 1.507L0.831 1.507L0.831 3.56C0.831 3.823 0.886 4.024 0.995 4.164C1.104 4.304 1.259 4.374 1.461 4.374C1.662 4.374 1.824 4.301 1.947 4.154C2.069 4.007 2.131 3.812 2.131 3.567L2.131 1.507L2.962 1.507L2.962 4.967L2.238 4.967L2.191 4.56C2.079 4.72 1.935 4.843 1.759 4.927C1.583 5.011 1.387 5.054 1.173 5.054ZM1.776 1.04L1.046 1.04L1.763 0L2.668 0L1.776 1.04Z" fill="rgb(236,112,0)" fill-opacity="1.000" fill-rule="nonzero" transform="matrix(1 0 0 1 50.6667 33.9459)"/><path d="M46.129 9.527L35.843 9.527C34.344 9.527 33.709 8.944 33.45 8.17L36.691 8.17C38.857 8.17 40.19 7.22 40.19 5.17C40.19 3.12 38.857 2.065 36.691 2.065L35.661 2.065C33.72 2.065 31.36 3.188 30.864 5.878L27.965 5.878L27.965 0L25.511 0L25.511 5.879L22.481 5.879C19.577 5.893 17.96 7.356 17.749 9.527L12.68 9.527C11.182 9.527 10.546 8.944 10.287 8.17L13.528 8.17C15.694 8.17 17.027 7.22 17.027 5.17C17.027 3.12 15.694 2.065 13.528 2.065L12.498 2.065C10.557 2.065 8.198 3.188 7.701 5.878L5.575 5.878C4.242 5.878 3.06 6.285 2.409 7.084L2.409 6.059L0 6.059L0 14.516C0 14.998 0.151 15.149 0.621 15.149L1.833 15.149C2.288 15.149 2.455 14.998 2.455 14.516L2.455 11.184C2.455 8.667 4.045 8.17 5.681 8.17L7.724 8.17C8.234 10.667 10.336 11.862 12.771 11.862L18.056 11.862C18.663 13.307 20.113 14.064 22.437 14.064L23.845 14.064C26.148 14.064 28.087 12.436 28.087 10.039L28.087 8.17L30.887 8.17C31.397 10.667 33.499 11.862 35.934 11.862L46.129 11.862C46.402 11.862 46.629 11.637 46.629 11.35L46.629 10.008C46.628 9.738 46.402 9.527 46.129 9.527ZM12.407 4.356L13.604 4.356C14.15 4.356 14.528 4.582 14.528 5.125C14.528 5.637 14.15 5.878 13.604 5.878L10.219 5.878C10.42 5.029 10.983 4.356 12.407 4.356ZM25.511 10.114C25.511 11.064 24.784 11.742 23.845 11.742L22.269 11.742C20.996 11.742 20.163 11.245 20.163 9.994C20.163 8.773 20.996 8.17 22.269 8.17L25.511 8.17L25.511 10.114L25.511 10.114ZM35.57 4.356L36.767 4.356C37.312 4.356 37.691 4.582 37.691 5.125C37.691 5.637 37.312 5.878 36.767 5.878L33.382 5.878C33.583 5.029 34.146 4.356 35.57 4.356Z" fill="rgb(236,112,0)" fill-opacity="1.000" fill-rule="nonzero" transform="matrix(1 0 0 1 7 20)"/></svg>