<svg xmlns="http://www.w3.org/2000/svg" viewBox="0 0 60 60" width="60" height="60"><path d="M0 0L60 0L60 60L0 60L0 0Z" fill="rgb(1,0,68)" fill-opacity="1.000" fill-rule="nonzero" transform="matrix(1 0 0 1 0 0)"/><path d="M0.002 9.755C0.022 9.263 0.066 8.772 0.152 8.286C0.322 7.32 0.63 6.384 1.066 5.505C1.641 4.345 2.435 3.306 3.404 2.445C4.357 1.592 5.473 0.94 6.686 0.528C7.418 0.277 8.169 0.11 8.944 0.048C9.157 0.031 9.371 0.016 9.584 0.014C9.904 0.011 10.224 0.01 10.542 0.026C11.262 0.063 11.963 0.196 12.652 0.396C13.547 0.656 14.401 1.042 15.187 1.543C15.804 1.935 16.376 2.393 16.893 2.909C16.905 2.921 16.914 2.938 16.936 2.97L13.302 6.627C13.174 6.516 13.056 6.41 12.934 6.309C12.161 5.672 11.267 5.3 10.248 5.232C8.983 5.148 7.857 5.504 6.895 6.294C5.922 7.092 5.369 8.115 5.185 9.324C5.166 9.455 5.16 9.587 5.144 9.741C5.134 9.773 5.133 9.783 5.135 9.794C5.094 10.29 5.159 10.778 5.279 11.259C5.474 12.048 5.85 12.752 6.415 13.355C7.174 14.162 8.112 14.677 9.243 14.826C10.667 15.013 11.924 14.636 13.001 13.73C13.294 13.484 13.552 13.201 13.822 12.93C14.092 12.661 14.356 12.385 14.623 12.114C15.15 11.579 15.677 11.044 16.205 10.51C16.569 10.143 16.935 9.778 17.299 9.41C17.809 8.894 18.317 8.375 18.827 7.858C19.07 7.613 19.314 7.369 19.556 7.124C20.084 6.591 20.611 6.056 21.139 5.522C21.403 5.255 21.671 4.992 21.935 4.724C22.436 4.216 22.937 3.708 23.436 3.198C24.374 2.24 25.418 1.416 26.672 0.857C27.458 0.507 28.275 0.254 29.132 0.121C29.523 0.062 29.917 0.025 30.313 0.009C31.793 -0.055 33.201 0.219 34.548 0.8C35.463 1.194 36.31 1.73 37.058 2.387C38.089 3.287 38.921 4.329 39.53 5.531C39.994 6.447 40.317 7.407 40.474 8.414C40.533 8.788 40.567 9.166 40.593 9.543C40.616 9.867 40.612 10.192 40.611 10.54C40.595 10.573 40.593 10.584 40.596 10.596C40.588 11.304 40.465 11.997 40.286 12.681C39.863 14.293 39.087 15.734 37.928 16.973C36.664 18.325 35.114 19.26 33.288 19.764C32.677 19.933 32.053 20.051 31.415 20.077C30.995 20.094 30.571 20.119 30.152 20.097C29.261 20.049 28.38 19.879 27.535 19.59C26.426 19.211 25.413 18.664 24.536 17.914C23.973 17.433 23.458 16.901 22.928 16.386C22.61 16.077 22.303 15.757 21.993 15.441C21.545 14.984 21.102 14.523 20.65 14.069C20.529 13.948 20.387 13.845 20.237 13.718C20.214 13.739 20.16 13.786 20.11 13.837C19.761 14.193 19.413 14.549 19.065 14.906C18.632 15.35 18.211 15.808 17.76 16.236C17.379 16.598 17.079 17.027 16.697 17.385C15.415 18.587 13.91 19.418 12.166 19.842C11.648 19.967 11.121 20.06 10.585 20.078C10.176 20.091 9.766 20.119 9.359 20.098C8.209 20.04 7.079 19.778 6.022 19.325C5.14 18.947 4.319 18.44 3.587 17.82C2.726 17.095 1.995 16.229 1.423 15.26C0.792 14.191 0.369 13.051 0.157 11.839C0.04 11.172 -0.007 10.502 0.001 9.801C0.003 9.786 0.003 9.771 0.002 9.755ZM35.494 10.328C35.499 10.319 35.501 10.308 35.508 10.265C35.52 9.946 35.499 9.627 35.446 9.312C35.262 8.168 34.768 7.172 33.849 6.4C32.765 5.491 31.506 5.085 30.063 5.263C29.325 5.354 28.66 5.63 28.051 6.038C27.619 6.329 27.27 6.702 26.911 7.064C26.321 7.658 25.738 8.257 25.15 8.853C24.774 9.234 24.394 9.612 24.017 9.992C23.984 10.025 23.961 10.066 23.935 10.102C24.051 10.222 24.154 10.336 24.263 10.444C24.724 10.898 25.185 11.352 25.648 11.804C26.032 12.179 26.418 12.552 26.803 12.926L26.869 12.99C27.124 13.24 27.364 13.507 27.638 13.737C28.718 14.64 29.976 15.009 31.4 14.826C32.117 14.734 32.773 14.476 33.365 14.079C34.215 13.508 34.815 12.748 35.175 11.819C35.36 11.343 35.482 10.852 35.494 10.328Z" fill="rgb(255,82,0)" fill-opacity="1.000" fill-rule="nonzero" transform="matrix(1 0 0 1 9.388 20.1264)"/><path d="M0.008 0.002C0.013 0.005 0.014 0.012 0.01 0.027C-0.002 0.027 -0.003 0.017 0.008 0.002ZM5.152 0.031C5.143 0.026 5.145 0.016 5.155 0C5.165 0.005 5.165 0.016 5.152 0.031ZM40.614 0.834C40.603 0.827 40.605 0.816 40.619 0.8C40.624 0.805 40.623 0.817 40.614 0.834ZM35.498 0.577C35.488 0.572 35.489 0.562 35.502 0.546C35.511 0.551 35.51 0.562 35.498 0.577Z" fill="rgb(255,82,0)" fill-opacity="1.000" fill-rule="nonzero" transform="matrix(1 0 0 1 9.3774 29.8833)"/></svg>