<svg xmlns="http://www.w3.org/2000/svg" viewBox="0 0 130 60" width="130" height="60"><path d="M0 0L130 0L130 60L0 60L0 0Z" fill="rgb(255,255,255)" fill-opacity="1.000" fill-rule="nonzero" transform="matrix(1 0 0 1 0 0)"/><path d="M32.372 20.793C32.397 20.153 32.455 19.515 32.567 18.883C32.787 17.629 33.187 16.412 33.754 15.271C34.501 13.764 35.532 12.414 36.791 11.295C38.029 10.187 39.48 9.339 41.055 8.805C42.006 8.479 42.982 8.262 43.989 8.182C44.266 8.16 44.543 8.14 44.82 8.137C45.235 8.133 45.651 8.131 46.066 8.152C47 8.2 47.912 8.374 48.806 8.633C49.97 8.97 51.079 9.472 52.1 10.123C52.901 10.632 53.644 11.228 54.316 11.898C54.332 11.914 54.343 11.935 54.373 11.977L49.651 16.728C49.484 16.585 49.332 16.447 49.173 16.316C48.169 15.487 47.006 15.005 45.683 14.917C44.039 14.807 42.577 15.27 41.327 16.296C40.063 17.333 39.344 18.662 39.106 20.233C39.08 20.402 39.073 20.574 39.052 20.774C39.039 20.815 39.038 20.828 39.041 20.842C38.987 21.487 39.072 22.121 39.227 22.747C39.48 23.771 39.969 24.686 40.704 25.469C41.689 26.518 42.907 27.187 44.377 27.38C46.227 27.624 47.861 27.133 49.26 25.957C49.64 25.637 49.976 25.269 50.327 24.918C50.677 24.567 51.02 24.21 51.367 23.857C52.052 23.162 52.736 22.467 53.422 21.774C53.895 21.296 54.371 20.822 54.843 20.344C55.506 19.673 56.167 19 56.829 18.328C57.144 18.01 57.461 17.693 57.776 17.375C58.462 16.681 59.146 15.986 59.832 15.293C60.176 14.946 60.523 14.604 60.866 14.256C61.517 13.596 62.168 12.936 62.817 12.274C64.036 11.029 65.391 9.958 67.02 9.232C68.041 8.777 69.103 8.449 70.216 8.276C70.725 8.199 71.237 8.151 71.751 8.131C73.674 8.048 75.503 8.403 77.253 9.158C78.442 9.671 79.542 10.367 80.515 11.22C81.853 12.389 82.934 13.744 83.725 15.305C84.328 16.495 84.748 17.742 84.952 19.05C85.028 19.536 85.073 20.027 85.107 20.517C85.137 20.938 85.132 21.361 85.13 21.812C85.109 21.855 85.106 21.87 85.11 21.885C85.1 22.805 84.941 23.705 84.708 24.593C84.158 26.689 83.149 28.56 81.644 30.169C80.003 31.926 77.988 33.14 75.616 33.796C74.822 34.015 74.012 34.169 73.183 34.202C72.637 34.224 72.087 34.257 71.542 34.228C70.384 34.167 69.24 33.945 68.143 33.57C66.7 33.077 65.385 32.367 64.245 31.393C63.514 30.768 62.845 30.077 62.156 29.408C61.743 29.006 61.345 28.59 60.942 28.179C60.36 27.585 59.784 26.987 59.197 26.397C59.04 26.239 58.856 26.106 58.661 25.941C58.631 25.969 58.56 26.029 58.495 26.095C58.042 26.558 57.59 27.021 57.138 27.484C56.575 28.062 56.028 28.656 55.442 29.212C54.947 29.683 54.558 30.24 54.061 30.705C52.396 32.267 50.44 33.347 48.175 33.897C47.501 34.06 46.817 34.18 46.12 34.203C45.59 34.221 45.057 34.257 44.528 34.229C43.034 34.154 41.566 33.814 40.193 33.225C39.046 32.735 37.98 32.076 37.029 31.271C35.911 30.328 34.96 29.203 34.218 27.944C33.399 26.555 32.849 25.075 32.573 23.5C32.421 22.634 32.36 21.763 32.37 20.852C32.373 20.832 32.373 20.813 32.372 20.793ZM78.482 21.537C78.489 21.525 78.491 21.511 78.5 21.455C78.516 21.041 78.489 20.626 78.42 20.217C78.18 18.73 77.539 17.437 76.345 16.434C74.937 15.252 73.301 14.725 71.426 14.957C70.467 15.075 69.603 15.433 68.813 15.964C68.251 16.341 67.798 16.826 67.331 17.296C66.565 18.068 65.807 18.847 65.043 19.621C64.555 20.116 64.061 20.606 63.571 21.1C63.529 21.143 63.499 21.197 63.465 21.243C63.615 21.399 63.749 21.547 63.891 21.687C64.49 22.277 65.089 22.867 65.69 23.455C66.189 23.942 66.69 24.426 67.19 24.911L67.276 24.995C67.608 25.32 67.92 25.667 68.276 25.965C69.679 27.138 71.313 27.618 73.163 27.381C74.095 27.262 74.947 26.926 75.716 26.41C76.82 25.668 77.6 24.681 78.068 23.474C78.308 22.856 78.466 22.218 78.482 21.537ZM18.758 15.197L18.758 16.239L18.46 16.239C16.28 16.239 14.099 16.223 11.92 16.245C10.624 16.258 9.499 16.719 8.554 17.573C7.915 18.151 7.465 18.839 7.22 19.647C7.099 20.036 7.037 20.441 7.035 20.848C7.036 25.182 7.035 29.515 7.035 33.848L7.035 34.146C6.845 34.198 0.313 34.209 0.013 34.16C0.009 34.088 0.002 34.012 0.002 33.936C0.002 29.438 -0.005 24.94 0.007 20.442C0.01 19.371 0.25 18.332 0.618 17.322C1.098 15.998 1.82 14.804 2.776 13.744C4.22 12.143 5.998 11.01 8.095 10.339C8.911 10.079 9.747 9.894 10.606 9.831C11.168 9.789 11.731 9.755 12.294 9.753C14.344 9.744 16.392 9.749 18.441 9.749L18.758 9.749L18.758 15.197ZM26.091 9.749L28.928 9.749C28.947 9.768 28.953 9.773 28.959 9.779C28.964 9.785 28.973 9.791 28.973 9.797L28.985 33.942L28.985 34.146C28.797 34.197 22.428 34.212 22.083 34.165L22.083 9.749L26.091 9.749ZM22.257 6.714C21.777 6.16 21.47 5.548 21.339 4.853C21.181 4.012 21.289 3.199 21.66 2.429C22.281 1.138 23.339 0.35 24.794 0.078C26.558 -0.253 28.264 0.489 29.197 1.936C29.563 2.506 29.765 3.124 29.825 3.792C29.94 5.059 29.506 6.132 28.581 7.023C27.877 7.701 27.007 8.103 26.012 8.172C24.53 8.276 23.26 7.814 22.257 6.714Z" fill="rgb(255,82,0)" fill-opacity="1.000" fill-rule="nonzero" transform="matrix(1 0 0 1 21.9453 12.7604)"/><path d="M0.01 0.002C0.017 0.006 0.018 0.015 0.013 0.035C-0.003 0.035 -0.004 0.022 0.01 0.002ZM6.693 0.041C6.682 0.034 6.684 0.021 6.698 0C6.711 0.006 6.71 0.02 6.693 0.041ZM52.764 1.083C52.751 1.075 52.753 1.06 52.771 1.039C52.778 1.046 52.776 1.061 52.764 1.083ZM46.119 0.75C46.105 0.743 46.107 0.73 46.123 0.709C46.136 0.716 46.133 0.73 46.119 0.75Z" fill="rgb(255,82,0)" fill-opacity="1.000" fill-rule="nonzero" transform="matrix(1 0 0 1 54.3008 33.5552)"/></svg>