<svg xmlns="http://www.w3.org/2000/svg" viewBox="0 0 130 60" width="130" height="60"><path d="M0 0L130 0L130 60L0 60L0 0Z" fill="rgb(255,255,255)" fill-opacity="1.000" fill-rule="nonzero" transform="matrix(1 0 0 1 0 0)"/><path d="M4.09 25.985L2.326 25.985L2.326 21.446L4.09 21.446C5.463 21.446 6.395 22.459 6.395 23.707C6.395 24.973 5.463 25.985 4.09 25.985ZM4.259 19.321L0.021 19.321L0.021 31.636L2.326 31.636L2.326 28.11L4.242 28.11C6.819 28.11 8.718 26.154 8.718 23.707C8.718 21.278 6.819 19.321 4.259 19.321ZM14.585 29.747C12.89 29.747 11.585 28.397 11.585 26.676C11.585 24.973 12.89 23.64 14.585 23.64C16.28 23.64 17.552 25.006 17.552 26.676C17.552 28.38 16.28 29.747 14.585 29.747ZM17.434 22.948C16.721 22.105 15.551 21.564 14.247 21.564C11.737 21.564 9.33 23.437 9.33 26.71C9.33 29.933 11.822 31.839 14.212 31.839C15.518 31.839 16.704 31.265 17.434 30.354L17.434 31.636L19.722 31.636L19.722 21.767L17.434 21.767L17.434 22.948ZM25.844 28.414L23.081 21.767L20.639 21.767L24.708 31.147L22.623 36.191L24.946 36.191L30.862 21.767L28.455 21.767L25.844 28.414ZM67.044 9.41L66.981 9.41L64.32 0.367L60.023 0.367L60.023 11.768L62.87 11.768L62.711 2.413L62.774 2.413L65.632 11.768L69.754 11.768L69.754 0.367L66.887 0.367L67.044 9.41ZM14.96 1.434L15.025 1.433L16.568 11.886L19.678 11.886L17.544 0.367L12.394 0.367L10.248 11.886L13.377 11.886L14.96 1.434ZM29.886 0.367L28.458 9.175L28.392 9.175L26.966 0.367L22.245 0.367L21.99 11.886L24.887 11.886L24.959 1.531L25.023 1.531L26.957 11.886L29.894 11.886L31.829 1.532L31.893 1.531L31.965 11.886L34.861 11.886L34.605 0.367L29.886 0.367ZM4.207 12.337C6.302 12.337 8.024 11.626 8.299 9.703C8.44 8.709 8.336 8.058 8.287 7.815C7.798 5.403 3.406 4.683 3.078 3.334C3.023 3.1 3.037 2.858 3.066 2.729C3.148 2.359 3.4 1.955 4.123 1.955C4.802 1.955 5.199 2.371 5.199 2.999L5.199 3.713L8.088 3.713L8.088 2.901C8.088 0.392 5.823 0 4.184 0C2.127 0 0.444 0.678 0.137 2.557C0.053 3.071 0.042 3.531 0.164 4.111C0.666 6.465 4.78 7.146 5.376 8.637C5.489 8.915 5.453 9.273 5.399 9.489C5.305 9.873 5.043 10.264 4.271 10.264C3.547 10.264 3.108 9.847 3.108 9.22L3.105 8.103L0.001 8.103L0 8.991C0 11.561 2.032 12.337 4.207 12.337ZM40.737 3.364C40.681 3.134 40.695 2.894 40.723 2.766C40.805 2.4 41.055 2 41.77 2C42.443 2 42.836 2.41 42.836 3.033L42.836 3.738L45.696 3.738L45.696 2.936C45.696 0.452 43.453 0.064 41.831 0.064C39.796 0.064 38.129 0.734 37.826 2.595C37.742 3.104 37.73 3.559 37.852 4.133C38.348 6.465 42.422 7.138 43.012 8.615C43.123 8.892 43.088 9.243 43.034 9.459C42.941 9.838 42.682 10.224 41.918 10.224C41.2 10.224 40.765 9.813 40.765 9.19L40.763 8.086L37.689 8.086L37.689 8.966C37.689 11.51 39.701 12.277 41.855 12.277C43.928 12.277 45.633 11.574 45.906 9.67C46.045 8.686 45.943 8.041 45.893 7.8C45.409 5.411 41.061 4.699 40.737 3.364ZM56.798 0.365L53.868 0.365L53.868 8.887C53.869 9.035 53.865 9.203 53.84 9.327C53.783 9.61 53.535 10.162 52.73 10.162C51.925 10.162 51.676 9.61 51.62 9.327C51.595 9.203 51.589 9.035 51.592 8.887L51.592 0.365L48.664 0.365L48.664 8.624C48.658 8.837 48.681 9.27 48.691 9.383C48.894 11.533 50.602 12.229 52.73 12.229C54.858 12.229 56.566 11.533 56.768 9.383C56.78 9.27 56.802 8.837 56.798 8.624L56.798 0.365ZM76.899 5.417L76.899 7.096L78.086 7.096L78.086 8.769C78.088 8.915 78.082 9.076 78.059 9.206C78.006 9.514 77.714 10.042 76.875 10.042C76.038 10.042 75.746 9.514 75.692 9.206C75.67 9.076 75.664 8.915 75.665 8.769L75.665 3.503C75.665 3.315 75.678 3.109 75.712 2.958C75.775 2.674 76.023 2.122 76.865 2.122C77.75 2.122 77.97 2.704 78.022 2.958C78.057 3.124 78.06 3.398 78.059 3.397L78.059 4.042L80.978 4.042L80.978 3.658C80.976 3.658 80.988 3.267 80.951 2.9C80.738 0.74 78.941 0.054 76.888 0.054C74.834 0.054 73.083 0.746 72.825 2.9C72.801 3.092 72.776 3.454 72.776 3.658L72.775 8.505C72.776 8.722 72.782 8.88 72.815 9.263C73.009 11.362 74.834 12.11 76.887 12.11C78.939 12.11 80.767 11.361 80.958 9.263C80.993 8.88 80.998 8.722 81 8.505L81 5.417L76.899 5.417Z" fill="rgb(0,0,8)" fill-opacity="1.000" fill-rule="nonzero" transform="matrix(1 0 0 1 24 11.4043)"/></svg>