<svg xmlns="http://www.w3.org/2000/svg" viewBox="0 0 60 60" width="60" height="60"><path d="M0 0L60 0L60 60L0 60L0 0Z" fill="rgb(255,255,255)" fill-opacity="1.000" fill-rule="nonzero" transform="matrix(1 0 0 1 0 0)"/><path d="M19.895 42.001C18.196 42.001 16.491 41.879 14.812 41.638C10.715 41.114 7.233 39.602 4.752 37.266C4.743 37.257 4.733 37.247 4.723 37.237C2.388 34.758 0.877 31.275 0.35 27.164C0.088 25.127 -0.028 23.054 0.006 21C-0.024 18.942 0.109 16.865 0.399 14.827C0.924 10.729 2.435 7.246 4.77 4.763C4.78 4.753 4.79 4.744 4.799 4.734C7.278 2.4 10.76 0.887 14.869 0.362C16.904 0.099 18.975 -0.016 21.027 0.017C23.086 -0.047 25.165 0.07 27.204 0.364C31.305 0.888 34.788 2.4 37.266 4.736C37.276 4.746 37.285 4.753 37.293 4.763C39.624 7.238 41.136 10.717 41.666 14.827L41.668 14.827C41.962 16.867 42.061 18.946 41.964 21.006C42.024 23.062 41.909 25.137 41.617 27.173C41.365 29.151 40.879 30.999 40.178 32.659C39.433 34.422 38.446 35.961 37.244 37.237C37.234 37.247 37.227 37.257 37.217 37.265C36.494 37.946 35.678 38.565 34.793 39.101C32.636 40.411 30.064 41.265 27.15 41.638C25.114 41.901 23.041 42.014 20.989 41.983C20.625 41.995 20.261 42.001 19.895 42.001ZM5.686 36.301C7.959 38.433 11.175 39.818 14.992 40.307C16.971 40.591 18.975 40.705 20.962 40.642C20.972 40.642 20.984 40.642 20.993 40.642C22.988 40.673 25 40.562 26.977 40.307C29.706 39.959 32.1 39.166 34.097 37.956C34.895 37.47 35.631 36.914 36.281 36.303C37.368 35.146 38.262 33.746 38.941 32.139C39.595 30.592 40.047 28.861 40.286 26.995C40.568 25.018 40.681 23.011 40.621 21.022C40.621 21.004 40.621 20.986 40.621 20.969C40.715 18.985 40.621 16.983 40.337 15.019L41.026 14.919L40.333 15.009C39.842 11.187 38.456 7.968 36.326 5.701C34.057 3.569 30.841 2.185 27.02 1.697C25.043 1.413 23.037 1.302 21.05 1.362C21.04 1.362 21.029 1.362 21.019 1.362C19.028 1.331 17.014 1.443 15.039 1.697C11.222 2.185 8.004 3.571 5.733 5.701C3.601 7.974 2.218 11.193 1.728 15.009C1.446 16.99 1.317 19.001 1.346 20.992L1.346 21.014C1.313 23.007 1.427 25.02 1.681 26.995C2.171 30.817 3.554 34.034 5.684 36.303L5.686 36.301Z" fill="rgb(20,70,205)" fill-opacity="1.000" fill-rule="nonzero" transform="matrix(1 0 0 1 9 9)"/><path d="M0 0L3.666 0C4.195 -0.006 4.719 0.092 5.211 0.29C6.117 0.687 6.839 1.41 7.237 2.316C7.622 3.276 7.622 4.349 7.237 5.308C7.049 5.762 6.769 6.174 6.415 6.514C6.066 6.857 5.659 7.135 5.211 7.335C4.721 7.536 4.195 7.634 3.666 7.624L2.026 7.624L2.026 10.665L0.049 10.665L0.049 0.002L0 0.002L0 0ZM1.981 1.833L1.981 5.743L3.521 5.743C3.801 5.747 4.081 5.696 4.344 5.596C4.58 5.498 4.794 5.351 4.968 5.163C5.142 4.985 5.273 4.772 5.356 4.537C5.549 4.039 5.549 3.489 5.356 2.992C5.256 2.767 5.125 2.555 4.968 2.365C4.792 2.179 4.58 2.033 4.344 1.933C4.081 1.833 3.801 1.784 3.521 1.786L1.981 1.786L1.981 1.833ZM12.109 10.663C11.58 10.661 11.058 10.563 10.564 10.373C10.073 10.176 9.617 9.897 9.216 9.553C8.814 9.165 8.488 8.707 8.251 8.2C7.752 7.033 7.734 5.715 8.202 4.533C8.439 4.028 8.765 3.57 9.167 3.18C9.558 2.82 10.016 2.542 10.515 2.36C11.024 2.168 11.565 2.07 12.109 2.07C12.637 2.06 13.164 2.158 13.653 2.36C14.105 2.547 14.516 2.827 14.857 3.18L14.857 2.07L16.838 2.07L16.838 10.659L14.857 10.659L14.857 9.457C14.53 9.85 14.119 10.164 13.653 10.373C13.162 10.571 12.637 10.669 12.109 10.663ZM12.447 8.877C12.794 8.893 13.14 8.827 13.459 8.686C13.759 8.554 14.037 8.376 14.28 8.155C14.499 7.93 14.679 7.667 14.812 7.382C15.213 6.457 15.002 5.383 14.28 4.682C14.047 4.449 13.767 4.268 13.459 4.149C13.15 3.979 12.8 3.896 12.447 3.908C12.099 3.902 11.755 3.967 11.433 4.1C11.126 4.22 10.848 4.402 10.613 4.633C10.378 4.844 10.196 5.108 10.083 5.404C9.823 6.021 9.823 6.716 10.083 7.333C10.232 7.624 10.408 7.9 10.613 8.155C10.856 8.374 11.132 8.554 11.433 8.686C11.758 8.803 12.101 8.87 12.447 8.877ZM19.584 2.123L21.996 7.961L24.214 2.123L26.289 2.123L21.225 14.569L19.197 14.569L20.98 10.275L17.507 2.123L19.582 2.123L19.584 2.123Z" fill="rgb(20,70,205)" fill-opacity="1.000" fill-rule="nonzero" transform="matrix(1 0 0 1 17.1526 24.0634)"/></svg>