<svg xmlns="http://www.w3.org/2000/svg" viewBox="0 0 130 60" width="130" height="60"><path d="M0 0L130 0L130 60L0 60L0 0Z" fill="rgb(255,255,255)" fill-opacity="1.000" fill-rule="nonzero" transform="matrix(1 0 0 1 0 0)"/><path d="M81.161 4.84C81.473 4.84 81.851 4.897 82.21 5.057C82.248 4.869 82.276 4.68 82.286 4.482C81.917 4.322 81.549 4.256 81.161 4.256C79.478 4.256 78.666 5.274 78.666 6.821C78.666 8.444 79.582 9.35 80.972 9.35C81.426 9.35 81.851 9.255 82.191 9.019C82.23 8.812 82.258 8.576 82.276 8.387C81.908 8.633 81.464 8.765 81.028 8.765C80.055 8.765 79.336 8.152 79.336 6.803C79.336 5.567 79.951 4.84 81.161 4.84ZM75.594 4.256C75.064 4.256 74.45 4.35 73.816 4.52L73.816 9.236L74.478 9.236L74.478 4.973C74.837 4.888 75.234 4.84 75.574 4.84C76.737 4.84 77.068 5.293 77.068 6.171L77.068 9.236L77.73 9.236L77.73 6.048C77.73 4.907 77.191 4.256 75.594 4.256ZM61.934 2.727C61.679 2.727 61.49 2.916 61.49 3.171C61.49 3.425 61.679 3.605 61.934 3.605C62.189 3.605 62.369 3.425 62.369 3.171C62.369 2.916 62.189 2.727 61.934 2.727ZM83.222 9.236L83.884 9.236L83.884 4.369L83.222 4.369L83.222 9.236ZM71.869 8.321C71.557 8.623 71.16 8.802 70.669 8.802C69.638 8.802 69.109 8.057 69.109 6.84C69.109 5.576 69.685 4.84 70.952 4.84C71.292 4.84 71.586 4.878 71.869 4.954L71.869 8.321ZM68.438 6.84C68.438 8.453 69.269 9.35 70.612 9.35C71.141 9.35 71.576 9.151 71.897 8.869L71.917 9.236L72.531 9.236L72.531 4.52C72.03 4.331 71.538 4.256 70.952 4.256C69.26 4.256 68.438 5.18 68.438 6.84ZM65.328 4.256C64.798 4.256 64.184 4.35 63.55 4.52L63.55 9.236L64.212 9.236L64.212 4.973C64.571 4.888 64.969 4.84 65.309 4.84C66.472 4.84 66.803 5.293 66.803 6.171L66.803 9.236L67.464 9.236L67.464 6.048C67.464 4.907 66.925 4.256 65.328 4.256ZM118.821 6.557L118.377 6.406C117.79 6.208 117.421 6.048 117.421 5.52C117.421 5.057 117.79 4.822 118.518 4.822C118.982 4.822 119.464 4.897 119.899 5.057C119.955 4.869 119.984 4.661 119.993 4.501C119.558 4.331 119.048 4.256 118.499 4.256C117.431 4.256 116.788 4.699 116.788 5.539C116.788 6.293 117.251 6.718 118.093 6.972L118.527 7.104C118.982 7.246 119.501 7.444 119.501 8.01C119.501 8.548 119.057 8.774 118.329 8.774C117.847 8.774 117.232 8.661 116.788 8.406C116.741 8.538 116.703 8.718 116.694 8.982C117.138 9.236 117.687 9.35 118.348 9.35C119.483 9.35 120.144 8.85 120.144 7.991C120.144 7.171 119.568 6.812 118.821 6.557ZM113.631 8.755C112.553 8.755 111.987 8.048 111.987 6.784C111.987 5.623 112.525 4.85 113.631 4.85C114.7 4.85 115.266 5.567 115.266 6.803C115.266 7.991 114.728 8.755 113.631 8.755ZM113.65 4.256C112.185 4.256 111.315 5.237 111.315 6.831C111.315 8.284 112.081 9.35 113.594 9.35C115.087 9.35 115.938 8.368 115.938 6.755C115.938 5.322 115.181 4.256 113.65 4.256ZM83.553 2.727C83.297 2.727 83.108 2.916 83.108 3.171C83.108 3.425 83.297 3.605 83.553 3.605C83.808 3.605 83.987 3.425 83.987 3.171C83.987 2.916 83.808 2.727 83.553 2.727ZM109.217 7.765L109.217 4.991L110.861 4.991C110.899 4.812 110.918 4.623 110.927 4.397L109.217 4.397L109.217 2.652C109.018 2.652 108.754 2.69 108.555 2.756L108.555 7.84C108.555 8.897 109.113 9.35 110.02 9.35C110.313 9.35 110.587 9.302 110.871 9.199C110.909 9.019 110.937 8.812 110.956 8.633C110.701 8.727 110.398 8.784 110.134 8.784C109.548 8.784 109.217 8.482 109.217 7.765ZM61.603 9.236L62.265 9.236L62.265 4.369L61.603 4.369L61.603 9.236ZM88.345 8.321C88.033 8.623 87.636 8.802 87.145 8.802C86.114 8.802 85.585 8.057 85.585 6.84C85.585 5.576 86.162 4.84 87.428 4.84C87.768 4.84 88.062 4.878 88.345 4.954L88.345 8.321ZM84.914 6.84C84.914 8.453 85.746 9.35 87.088 9.35C87.617 9.35 88.052 9.151 88.374 8.869L88.393 9.236L89.007 9.236L89.007 4.52C88.506 4.331 88.014 4.256 87.428 4.256C85.736 4.256 84.914 5.18 84.914 6.84ZM105.247 4.256C104.717 4.256 104.103 4.35 103.47 4.52L103.47 9.236L104.131 9.236L104.131 4.973C104.491 4.888 104.887 4.84 105.227 4.84C106.39 4.84 106.721 5.293 106.721 6.171L106.721 9.236L107.383 9.236L107.383 6.048C107.383 4.907 106.844 4.256 105.247 4.256ZM101.768 6.435L98.894 6.435C98.97 5.454 99.433 4.831 100.379 4.831C101.315 4.831 101.768 5.463 101.768 6.397L101.768 6.435ZM100.407 4.256C98.857 4.256 98.223 5.369 98.223 6.774C98.223 8.397 99.055 9.35 100.634 9.35C101.173 9.35 101.664 9.265 102.137 8.991C102.184 8.784 102.222 8.529 102.24 8.359C101.73 8.652 101.163 8.765 100.653 8.765C99.575 8.765 98.979 8.161 98.894 7.029L102.392 7.029C102.421 6.84 102.43 6.642 102.43 6.444C102.43 5.227 101.825 4.256 100.407 4.256ZM95.293 4.256C94.716 4.256 94.159 4.407 93.638 4.652C93.307 4.378 92.816 4.256 92.155 4.256C91.55 4.256 90.925 4.35 90.292 4.52L90.292 9.236L90.954 9.236L90.954 4.973C91.323 4.888 91.729 4.84 92.088 4.84C93.1 4.84 93.478 5.218 93.478 6.133L93.478 9.236L94.139 9.236L94.139 6.048C94.139 5.671 94.083 5.359 93.979 5.114C94.376 4.944 94.801 4.84 95.236 4.84C96.21 4.84 96.626 5.293 96.626 6.152L96.626 9.236L97.287 9.236L97.287 6.048C97.287 4.907 96.721 4.256 95.293 4.256ZM30.362 5.302C30.41 5.028 30.438 4.736 30.457 4.415L28.812 4.415L28.812 2.632C28.491 2.632 28.094 2.679 27.772 2.783L27.772 7.736C27.772 8.887 28.415 9.349 29.427 9.349C29.72 9.349 30.022 9.311 30.306 9.198C30.362 8.924 30.4 8.604 30.429 8.321C30.202 8.405 29.918 8.462 29.616 8.462C29.115 8.462 28.812 8.226 28.812 7.613L28.812 5.302L30.362 5.302ZM24.435 4.255C23.934 4.255 23.206 4.358 22.544 4.519L22.544 9.236L23.584 9.236L23.584 5.217C23.868 5.17 24.161 5.141 24.407 5.141C25.446 5.141 25.692 5.5 25.692 6.245L25.692 9.236L26.732 9.236L26.732 6.066C26.732 4.924 26.174 4.255 24.435 4.255ZM14.631 5.594L14.121 5.377C13.459 5.094 13.091 4.811 13.091 4.321C13.091 3.821 13.469 3.5 14.291 3.5C14.726 3.5 15.331 3.585 15.841 3.773C15.936 3.5 16.002 3.207 16.031 2.83C15.492 2.642 14.915 2.557 14.301 2.557C12.769 2.557 12.022 3.245 12.022 4.321C12.022 5.321 12.627 5.821 13.516 6.207L13.998 6.415C14.887 6.802 15.246 7.056 15.246 7.604C15.246 8.16 14.754 8.443 13.875 8.443C13.355 8.443 12.675 8.321 12.145 8.075C12.041 8.377 11.985 8.641 11.966 9.028C12.495 9.273 13.128 9.387 13.904 9.387C15.511 9.387 16.333 8.641 16.333 7.556C16.333 6.641 15.832 6.104 14.631 5.594ZM7.214 4.377C7.199 4.033 7.102 3.691 6.924 3.382L5.348 0.659C5.228 0.451 5.145 0.228 5.099 0L5.033 0.114C4.643 0.788 4.643 1.619 5.033 2.293L6.293 4.472C6.684 5.146 6.684 5.977 6.293 6.651L6.228 6.765C6.182 6.536 6.098 6.314 5.978 6.106L4.087 2.838C3.967 2.63 3.884 2.407 3.838 2.179L3.772 2.293C3.383 2.965 3.382 3.792 3.768 4.465L5.033 6.651C5.423 7.325 5.423 8.156 5.033 8.83L4.967 8.944C4.921 8.716 4.838 8.493 4.718 8.285L3.142 5.561C2.93 5.196 2.834 4.785 2.851 4.377C1.164 4.817 0 5.751 0 6.833C0 8.337 2.253 9.556 5.033 9.556C7.812 9.556 10.065 8.337 10.065 6.833C10.065 5.751 8.901 4.817 7.214 4.377ZM20.37 8.16C20.096 8.368 19.765 8.5 19.358 8.5C18.432 8.5 18.044 7.821 18.044 6.858C18.044 5.802 18.545 5.141 19.623 5.141C19.916 5.141 20.152 5.16 20.37 5.198L20.37 8.16ZM16.985 6.858C16.985 8.443 17.817 9.349 19.065 9.349C19.727 9.349 20.133 9.085 20.398 8.67L20.455 9.236L21.41 9.236L21.41 4.519C20.861 4.33 20.304 4.255 19.623 4.255C17.874 4.255 16.985 5.198 16.985 6.858ZM34.153 8.16C33.879 8.368 33.548 8.5 33.142 8.5C32.215 8.5 31.828 7.821 31.828 6.858C31.828 5.802 32.329 5.141 33.407 5.141C33.7 5.141 33.936 5.16 34.153 5.198L34.153 8.16ZM30.769 6.858C30.769 8.443 31.601 9.349 32.849 9.349C33.511 9.349 33.917 9.085 34.182 8.67L34.239 9.236L35.193 9.236L35.193 4.519C34.645 4.33 34.087 4.255 33.407 4.255C31.658 4.255 30.769 5.198 30.769 6.858ZM47.682 6.349C47.767 5.547 48.154 5.123 48.892 5.123C49.61 5.123 50.026 5.575 50.026 6.349L47.682 6.349ZM48.949 4.255C47.294 4.255 46.642 5.368 46.642 6.773C46.642 8.387 47.483 9.349 49.223 9.349C49.78 9.349 50.281 9.264 50.754 9.047C50.82 8.736 50.877 8.377 50.915 8.104C50.395 8.339 49.818 8.462 49.251 8.462C48.325 8.462 47.833 8.056 47.701 7.217L51.019 7.217C51.057 6.943 51.076 6.707 51.076 6.415C51.076 5.226 50.433 4.255 48.949 4.255ZM38.219 4.255C37.718 4.255 36.99 4.358 36.328 4.519L36.328 9.236L37.368 9.236L37.368 5.217C37.651 5.17 37.944 5.141 38.19 5.141C39.23 5.141 39.476 5.5 39.476 6.245L39.476 9.236L40.516 9.236L40.516 6.066C40.516 4.924 39.958 4.255 38.219 4.255ZM56.981 9.236L57.643 9.236L57.643 6.265L60.365 6.265C60.393 6.086 60.422 5.803 60.431 5.633L57.643 5.633L57.643 3.341L60.62 3.341C60.658 3.161 60.687 2.878 60.696 2.709L56.981 2.709L56.981 9.236ZM44.761 8.141C44.477 8.358 44.137 8.5 43.721 8.5C42.794 8.5 42.407 7.821 42.407 6.858C42.407 5.783 42.898 5.141 43.929 5.141C44.203 5.141 44.486 5.179 44.761 5.236L44.761 8.141ZM44.761 4.33C44.515 4.283 44.259 4.255 43.985 4.255C42.237 4.255 41.348 5.198 41.348 6.858C41.348 8.443 42.18 9.349 43.428 9.349C44.108 9.349 44.515 9.075 44.779 8.632L44.836 9.236L45.791 9.236L45.791 2.632C45.451 2.632 45.082 2.66 44.761 2.774L44.761 4.33ZM51.974 4.519L51.974 9.236L53.014 9.236L53.014 5.198C53.269 5.16 53.524 5.141 53.779 5.141C54.072 5.141 54.318 5.151 54.564 5.179C54.621 4.981 54.659 4.604 54.659 4.292C54.432 4.264 54.072 4.255 53.751 4.255C53.165 4.255 52.418 4.368 51.974 4.519Z" fill="rgb(236,0,0)" fill-opacity="1.000" fill-rule="evenodd" transform="matrix(1 0 0 1 4.4258 25)"/></svg>