<svg xmlns="http://www.w3.org/2000/svg" viewBox="0 0 60 60" width="60" height="60"><path d="M0 0L60 0L60 60L0 60L0 0Z" fill="rgb(236,0,0)" fill-opacity="1.000" fill-rule="nonzero" transform="matrix(1 0 0 1 0 0)"/><path d="M19.141 11.471C19.388 11.471 19.687 11.516 19.971 11.643C20.002 11.493 20.024 11.344 20.031 11.187C19.74 11.06 19.448 11.008 19.141 11.008C17.809 11.008 17.166 11.814 17.166 13.039C17.166 14.323 17.891 15.04 18.991 15.04C19.35 15.04 19.687 14.966 19.957 14.779C19.987 14.615 20.009 14.428 20.024 14.279C19.732 14.473 19.381 14.577 19.036 14.577C18.265 14.577 17.696 14.092 17.696 13.024C17.696 12.046 18.183 11.471 19.141 11.471ZM14.734 11.008C14.314 11.008 13.828 11.083 13.327 11.217L13.327 14.951L13.85 14.951L13.85 11.575C14.135 11.508 14.449 11.471 14.718 11.471C15.639 11.471 15.901 11.829 15.901 12.524L15.901 14.951L16.425 14.951L16.425 12.427C16.425 11.523 15.998 11.008 14.734 11.008ZM3.921 9.798C3.719 9.798 3.569 9.948 3.569 10.149C3.569 10.351 3.719 10.493 3.921 10.493C4.123 10.493 4.265 10.351 4.265 10.149C4.265 9.948 4.123 9.798 3.921 9.798ZM20.772 14.951L21.296 14.951L21.296 11.098L20.772 11.098L20.772 14.951ZM11.785 14.226C11.538 14.465 11.224 14.607 10.835 14.607C10.02 14.607 9.6 14.017 9.6 13.054C9.6 12.053 10.057 11.471 11.059 11.471C11.329 11.471 11.561 11.501 11.785 11.561L11.785 14.226ZM9.069 13.054C9.069 14.331 9.727 15.04 10.79 15.04C11.209 15.04 11.554 14.883 11.808 14.66L11.823 14.951L12.309 14.951L12.309 11.217C11.913 11.068 11.523 11.008 11.059 11.008C9.72 11.008 9.069 11.74 9.069 13.054ZM6.607 11.008C6.188 11.008 5.702 11.083 5.2 11.217L5.2 14.951L5.724 14.951L5.724 11.575C6.009 11.508 6.323 11.471 6.592 11.471C7.513 11.471 7.775 11.829 7.775 12.524L7.775 14.951L8.298 14.951L8.298 12.427C8.298 11.523 7.872 11.008 6.607 11.008ZM48.952 12.83L48.601 12.711C48.137 12.554 47.844 12.427 47.844 12.009C47.844 11.643 48.137 11.456 48.712 11.456C49.079 11.456 49.461 11.516 49.805 11.643C49.85 11.493 49.873 11.329 49.88 11.202C49.536 11.068 49.132 11.008 48.698 11.008C47.852 11.008 47.343 11.359 47.343 12.024C47.343 12.621 47.71 12.957 48.376 13.159L48.72 13.263C49.079 13.375 49.491 13.532 49.491 13.98C49.491 14.406 49.139 14.585 48.563 14.585C48.181 14.585 47.695 14.495 47.343 14.294C47.306 14.398 47.276 14.54 47.269 14.749C47.62 14.951 48.054 15.04 48.578 15.04C49.476 15.04 50 14.645 50 13.965C50 13.315 49.543 13.032 48.952 12.83ZM44.844 14.57C43.991 14.57 43.542 14.01 43.542 13.009C43.542 12.091 43.969 11.478 44.844 11.478C45.69 11.478 46.139 12.046 46.139 13.024C46.139 13.965 45.712 14.57 44.844 14.57ZM44.859 11.008C43.699 11.008 43.011 11.785 43.011 13.047C43.011 14.196 43.617 15.04 44.814 15.04C45.996 15.04 46.67 14.264 46.67 12.987C46.67 11.852 46.071 11.008 44.859 11.008ZM21.034 9.798C20.832 9.798 20.682 9.948 20.682 10.149C20.682 10.351 20.832 10.493 21.034 10.493C21.236 10.493 21.378 10.351 21.378 10.149C21.378 9.948 21.236 9.798 21.034 9.798ZM41.35 13.786L41.35 11.59L42.651 11.59C42.682 11.448 42.696 11.299 42.704 11.12L41.35 11.12L41.35 9.739C41.193 9.739 40.983 9.768 40.826 9.821L40.826 13.846C40.826 14.682 41.267 15.04 41.986 15.04C42.218 15.04 42.435 15.003 42.659 14.921C42.689 14.779 42.711 14.615 42.727 14.473C42.525 14.547 42.285 14.592 42.076 14.592C41.612 14.592 41.35 14.353 41.35 13.786ZM3.659 14.951L4.183 14.951L4.183 11.098L3.659 11.098L3.659 14.951ZM24.828 14.226C24.581 14.465 24.267 14.607 23.877 14.607C23.062 14.607 22.643 14.017 22.643 13.054C22.643 12.053 23.099 11.471 24.102 11.471C24.371 11.471 24.603 11.501 24.828 11.561L24.828 14.226ZM22.112 13.054C22.112 14.331 22.77 15.04 23.832 15.04C24.252 15.04 24.596 14.883 24.85 14.66L24.865 14.951L25.352 14.951L25.352 11.217C24.955 11.068 24.566 11.008 24.102 11.008C22.763 11.008 22.112 11.74 22.112 13.054ZM38.207 11.008C37.788 11.008 37.301 11.083 36.8 11.217L36.8 14.951L37.324 14.951L37.324 11.575C37.608 11.508 37.922 11.471 38.192 11.471C39.112 11.471 39.374 11.829 39.374 12.524L39.374 14.951L39.898 14.951L39.898 12.427C39.898 11.523 39.471 11.008 38.207 11.008ZM35.453 12.733L33.178 12.733C33.238 11.956 33.605 11.464 34.354 11.464C35.094 11.464 35.453 11.964 35.453 12.703L35.453 12.733ZM34.376 11.008C33.149 11.008 32.647 11.889 32.647 13.002C32.647 14.286 33.306 15.04 34.556 15.04C34.982 15.04 35.371 14.973 35.745 14.757C35.783 14.592 35.812 14.391 35.827 14.256C35.423 14.488 34.975 14.577 34.57 14.577C33.717 14.577 33.246 14.099 33.178 13.203L35.947 13.203C35.97 13.054 35.977 12.897 35.977 12.74C35.977 11.777 35.498 11.008 34.376 11.008ZM30.328 11.008C29.871 11.008 29.43 11.127 29.018 11.322C28.756 11.105 28.367 11.008 27.843 11.008C27.365 11.008 26.87 11.083 26.369 11.217L26.369 14.951L26.893 14.951L26.893 11.575C27.185 11.508 27.507 11.471 27.791 11.471C28.592 11.471 28.891 11.77 28.891 12.494L28.891 14.951L29.415 14.951L29.415 12.427C29.415 12.128 29.37 11.882 29.287 11.687C29.602 11.553 29.938 11.471 30.283 11.471C31.054 11.471 31.383 11.829 31.383 12.509L31.383 14.951L31.906 14.951L31.906 12.427C31.906 11.523 31.458 11.008 30.328 11.008ZM27.035 4.197C27.072 3.98 27.095 3.749 27.11 3.495L25.808 3.495L25.808 2.084C25.553 2.084 25.239 2.121 24.984 2.203L24.984 6.123C24.984 7.035 25.493 7.4 26.294 7.4C26.526 7.4 26.765 7.371 26.99 7.281C27.035 7.064 27.065 6.811 27.087 6.587C26.908 6.654 26.683 6.698 26.444 6.698C26.047 6.698 25.808 6.512 25.808 6.026L25.808 4.197L27.035 4.197ZM22.343 3.368C21.946 3.368 21.37 3.45 20.846 3.577L20.846 7.311L21.669 7.311L21.669 4.13C21.894 4.092 22.126 4.07 22.32 4.07C23.143 4.07 23.338 4.354 23.338 4.944L23.338 7.311L24.161 7.311L24.161 4.802C24.161 3.898 23.719 3.368 22.343 3.368ZM14.582 4.428L14.178 4.257C13.654 4.033 13.362 3.809 13.362 3.42C13.362 3.024 13.662 2.771 14.313 2.771C14.657 2.771 15.136 2.838 15.54 2.987C15.615 2.771 15.667 2.539 15.69 2.24C15.263 2.091 14.807 2.024 14.32 2.024C13.108 2.024 12.517 2.569 12.517 3.42C12.517 4.212 12.996 4.608 13.699 4.914L14.081 5.078C14.784 5.384 15.069 5.586 15.069 6.019C15.069 6.46 14.679 6.684 13.984 6.684C13.572 6.684 13.033 6.587 12.614 6.392C12.532 6.631 12.487 6.84 12.472 7.147C12.891 7.341 13.392 7.43 14.006 7.43C15.278 7.43 15.929 6.84 15.929 5.982C15.929 5.257 15.533 4.832 14.582 4.428ZM8.711 3.465C8.699 3.192 8.622 2.922 8.481 2.678L7.233 0.521C7.138 0.357 7.073 0.181 7.036 0L6.984 0.09C6.675 0.624 6.675 1.281 6.984 1.815L7.982 3.54C8.291 4.074 8.291 4.731 7.982 5.265L7.93 5.355C7.893 5.174 7.827 4.998 7.732 4.834L6.235 2.246C6.14 2.082 6.075 1.906 6.038 1.725L5.986 1.815C5.678 2.347 5.677 3.002 5.983 3.535L6.984 5.265C7.293 5.799 7.293 6.456 6.984 6.99L6.932 7.08C6.895 6.899 6.83 6.723 6.734 6.559L5.487 4.402C5.32 4.113 5.243 3.788 5.257 3.465C3.922 3.813 3 4.553 3 5.409C3 6.599 4.784 7.565 6.984 7.565C9.184 7.565 10.968 6.599 10.968 5.409C10.968 4.553 10.046 3.813 8.711 3.465ZM19.125 6.46C18.908 6.624 18.646 6.728 18.324 6.728C17.591 6.728 17.284 6.191 17.284 5.429C17.284 4.593 17.68 4.07 18.533 4.07C18.765 4.07 18.953 4.085 19.125 4.115L19.125 6.46ZM16.446 5.429C16.446 6.684 17.104 7.4 18.092 7.4C18.616 7.4 18.938 7.191 19.147 6.863L19.192 7.311L19.948 7.311L19.948 3.577C19.514 3.428 19.072 3.368 18.533 3.368C17.149 3.368 16.446 4.115 16.446 5.429ZM30.036 6.46C29.819 6.624 29.557 6.728 29.235 6.728C28.502 6.728 28.195 6.191 28.195 5.429C28.195 4.593 28.591 4.07 29.445 4.07C29.676 4.07 29.864 4.085 30.036 4.115L30.036 6.46ZM27.357 5.429C27.357 6.684 28.015 7.4 29.003 7.4C29.527 7.4 29.849 7.191 30.058 6.863L30.103 7.311L30.859 7.311L30.859 3.577C30.425 3.428 29.983 3.368 29.445 3.368C28.06 3.368 27.357 4.115 27.357 5.429ZM40.745 5.026C40.812 4.391 41.119 4.055 41.703 4.055C42.271 4.055 42.601 4.413 42.601 5.026L40.745 5.026ZM41.747 3.368C40.438 3.368 39.922 4.249 39.922 5.362C39.922 6.639 40.588 7.4 41.964 7.4C42.406 7.4 42.803 7.333 43.177 7.161C43.229 6.915 43.274 6.631 43.304 6.415C42.892 6.601 42.436 6.698 41.987 6.698C41.254 6.698 40.864 6.377 40.76 5.713L43.386 5.713C43.416 5.496 43.431 5.31 43.431 5.078C43.431 4.137 42.922 3.368 41.747 3.368ZM33.254 3.368C32.857 3.368 32.281 3.45 31.757 3.577L31.757 7.311L32.58 7.311L32.58 4.13C32.805 4.092 33.037 4.07 33.231 4.07C34.054 4.07 34.249 4.354 34.249 4.944L34.249 7.311L35.072 7.311L35.072 4.802C35.072 3.898 34.631 3.368 33.254 3.368ZM0 14.951L0.524 14.951L0.524 12.599L2.679 12.599C2.701 12.457 2.724 12.233 2.731 12.098L0.524 12.098L0.524 10.284L2.881 10.284C2.911 10.142 2.934 9.918 2.941 9.783L0 9.783L0 14.951ZM38.432 6.445C38.208 6.616 37.938 6.728 37.609 6.728C36.876 6.728 36.569 6.191 36.569 5.429C36.569 4.578 36.958 4.07 37.774 4.07C37.991 4.07 38.215 4.1 38.432 4.145L38.432 6.445ZM38.432 3.428C38.238 3.39 38.036 3.368 37.819 3.368C36.434 3.368 35.731 4.115 35.731 5.429C35.731 6.684 36.389 7.4 37.377 7.4C37.916 7.4 38.238 7.184 38.447 6.833L38.492 7.311L39.248 7.311L39.248 2.084C38.978 2.084 38.687 2.106 38.432 2.196L38.432 3.428ZM44.142 3.577L44.142 7.311L44.965 7.311L44.965 4.115C45.167 4.085 45.369 4.07 45.572 4.07C45.804 4.07 45.998 4.077 46.193 4.1C46.238 3.943 46.267 3.644 46.267 3.398C46.088 3.375 45.804 3.368 45.549 3.368C45.085 3.368 44.494 3.458 44.142 3.577Z" fill="rgb(255,255,255)" fill-opacity="1.000" fill-rule="evenodd" transform="matrix(1 0 0 1 5 22)"/></svg>