<svg xmlns="http://www.w3.org/2000/svg" viewBox="0 0 60 60" width="60" height="60"><path d="M0 0L60 0L60 60L0 60L0 0Z" fill="rgb(234,29,37)" fill-opacity="1.000" fill-rule="nonzero" transform="matrix(1 0 0 1 0 0)"/><path d="M34.519 21.631C34.41 19.933 33.971 18.234 33.095 16.761L25.643 3.284C25.095 2.265 24.657 1.133 24.438 0L24.109 0.566C22.246 3.851 22.246 8.041 24.109 11.325L30.136 22.084C31.999 25.369 31.999 29.559 30.136 32.843L29.807 33.41C29.588 32.277 29.15 31.145 28.602 30.125L23.123 20.272L19.616 13.93C19.068 12.911 18.63 11.778 18.41 10.646L18.082 11.212C16.219 14.496 16.219 18.573 18.082 21.971L24.109 32.73C25.972 36.014 25.972 40.205 24.109 43.489L23.78 44.055C23.561 42.923 23.123 41.79 22.575 40.771L15.013 27.294C14.027 25.482 13.589 23.443 13.589 21.405C5.589 23.557 0 28.2 0 33.523C0 40.998 10.739 47 23.999 47C37.259 47 47.998 40.998 47.998 33.523C48.108 28.427 42.629 23.783 34.519 21.631Z" fill="rgb(255,255,255)" fill-opacity="1.000" fill-rule="nonzero" transform="matrix(1 0 0 1 6 7)"/></svg>