<svg xmlns="http://www.w3.org/2000/svg" viewBox="0 0 130 60" width="130" height="60"><path d="M0 0L130 0L130 60L0 60L0 0Z" fill="rgb(255,255,255)" fill-opacity="1.000" fill-rule="nonzero" transform="matrix(1 0 0 1 0 0)"/><path d="M14.406 8.745C14.36 8.058 14.177 7.371 13.811 6.776L10.701 1.328C10.473 0.916 10.29 0.458 10.198 0L10.061 0.229C9.284 1.557 9.284 3.251 10.061 4.578L12.576 8.928C13.354 10.255 13.354 11.949 12.576 13.277L12.439 13.506C12.348 13.048 12.165 12.59 11.936 12.178L9.649 8.195L8.186 5.631C7.957 5.219 7.774 4.761 7.683 4.304L7.546 4.533C6.768 5.86 6.768 7.508 7.546 8.882L10.061 13.231C10.838 14.559 10.838 16.253 10.061 17.581L9.924 17.81C9.832 17.352 9.649 16.894 9.421 16.482L6.265 11.034C5.854 10.301 5.671 9.477 5.671 8.653C2.332 9.523 0 11.4 0 13.552C0 16.573 4.482 19 10.015 19C15.549 19 20.031 16.573 20.031 13.552C20.076 11.492 17.79 9.614 14.406 8.745ZM23.872 18.039C23.918 17.26 24.009 16.757 24.238 16.116C25.29 16.619 26.662 16.848 27.668 16.848C29.406 16.848 30.412 16.299 30.412 15.154C30.412 14.055 29.68 13.552 27.942 12.773L26.982 12.407C25.198 11.629 24.009 10.622 24.009 8.653C24.009 6.501 25.518 5.128 28.537 5.128C29.771 5.128 30.915 5.311 31.967 5.677C31.921 6.41 31.784 7.005 31.601 7.554C30.595 7.188 29.36 7.005 28.491 7.005C26.845 7.005 26.113 7.646 26.113 8.653C26.113 9.614 26.845 10.21 28.171 10.759L29.177 11.171C31.555 12.178 32.561 13.277 32.561 15.108C32.561 17.26 30.915 18.771 27.714 18.771C26.204 18.771 24.924 18.542 23.872 18.039ZM42.668 9.019L42.668 18.451L40.747 18.451L40.656 17.306C40.107 18.13 39.329 18.68 38.003 18.68C35.534 18.68 33.842 16.848 33.842 13.689C33.842 10.393 35.625 8.47 39.101 8.47C40.473 8.516 41.616 8.653 42.668 9.019ZM40.61 16.299L40.61 10.393C40.198 10.301 39.695 10.301 39.101 10.301C36.951 10.301 35.945 11.629 35.945 13.735C35.945 15.658 36.723 17.031 38.552 17.031C39.421 16.986 40.061 16.711 40.61 16.299ZM53.278 12.133L53.278 18.451L51.22 18.451L51.22 12.499C51.22 10.988 50.717 10.301 48.659 10.301C48.156 10.301 47.607 10.347 47.012 10.439L47.012 18.451L44.954 18.451L44.954 9.019C46.281 8.699 47.744 8.47 48.704 8.47C52.18 8.516 53.278 9.843 53.278 12.133ZM59.04 16.94C59.634 16.94 60.229 16.848 60.64 16.665C60.595 17.214 60.503 17.855 60.412 18.405C59.863 18.634 59.223 18.725 58.674 18.725C56.662 18.725 55.381 17.81 55.381 15.52L55.381 5.586C56.022 5.357 56.799 5.265 57.439 5.265L57.439 8.836L60.732 8.836C60.686 9.477 60.64 10.072 60.549 10.622L57.439 10.622L57.439 15.246C57.439 16.436 58.034 16.94 59.04 16.94ZM70.153 9.019L70.153 18.451L68.232 18.451L68.14 17.306C67.592 18.13 66.814 18.68 65.488 18.68C63.019 18.68 61.326 16.848 61.326 13.689C61.326 10.393 63.11 8.47 66.586 8.47C67.958 8.516 69.055 8.653 70.153 9.019ZM68.049 16.299L68.049 10.393C67.637 10.301 67.134 10.301 66.54 10.301C64.39 10.301 63.384 11.629 63.384 13.735C63.384 15.658 64.162 17.031 65.991 17.031C66.86 16.986 67.546 16.711 68.049 16.299ZM80.762 12.133L80.762 18.451L78.659 18.451L78.659 12.499C78.659 10.988 78.156 10.301 76.098 10.301C75.595 10.301 75.046 10.347 74.451 10.439L74.451 18.451L72.394 18.451L72.394 9.019C73.72 8.699 75.183 8.47 76.144 8.47C79.619 8.516 80.762 9.843 80.762 12.133ZM91.235 5.265L91.235 18.451L89.314 18.451L89.223 17.26C88.674 18.13 87.897 18.68 86.525 18.68C84.055 18.68 82.363 16.848 82.363 13.689C82.363 10.393 84.147 8.47 87.622 8.47C88.171 8.47 88.674 8.516 89.177 8.607L89.177 5.494C89.817 5.311 90.549 5.265 91.235 5.265ZM89.177 16.299L89.177 10.484C88.628 10.393 88.08 10.301 87.531 10.301C85.473 10.301 84.513 11.583 84.513 13.735C84.513 15.658 85.29 17.031 87.119 17.031C87.942 16.986 88.628 16.711 89.177 16.299ZM101.662 14.422L95.031 14.422C95.305 16.116 96.266 16.894 98.141 16.894C99.284 16.894 100.427 16.665 101.433 16.161C101.342 16.711 101.25 17.443 101.113 18.039C100.153 18.451 99.192 18.634 98.049 18.634C94.574 18.634 92.927 16.711 92.927 13.506C92.927 10.713 94.208 8.47 97.5 8.47C100.473 8.47 101.753 10.393 101.753 12.773C101.753 13.414 101.753 13.872 101.662 14.422ZM95.031 12.682L99.695 12.682C99.695 11.125 98.872 10.21 97.455 10.21C95.945 10.255 95.168 11.08 95.031 12.682ZM108.933 8.607C108.933 9.248 108.842 9.981 108.75 10.393C108.247 10.347 107.79 10.301 107.196 10.301C106.692 10.301 106.189 10.347 105.686 10.393L105.686 18.451L103.628 18.451L103.628 9.019C104.497 8.699 106.006 8.47 107.15 8.47C107.744 8.516 108.476 8.516 108.933 8.607Z" fill="rgb(234,29,37)" fill-opacity="1.000" fill-rule="nonzero" transform="matrix(1 0 0 1 11 21)"/></svg>