<svg xmlns="http://www.w3.org/2000/svg" viewBox="0 0 60 60" width="60" height="60"><path d="M0 0L60 0L60 60L0 60L0 0Z" fill="rgb(236,17,26)" fill-opacity="1.000" fill-rule="nonzero" transform="matrix(1 0 0 1 0 0)"/><path d="M2.57 0C1.152 -0.002 0.001 1.154 0 2.581C-0.001 4.008 1.149 5.165 2.567 5.166C3.985 5.166 5.135 4.009 5.135 2.583C5.135 1.157 3.987 0.001 2.57 0ZM2.57 3.72C1.945 3.716 1.442 3.204 1.445 2.575C1.448 1.947 1.956 1.439 2.581 1.44C3.205 1.442 3.712 1.952 3.712 2.581C3.712 2.884 3.591 3.176 3.376 3.389C3.163 3.603 2.872 3.722 2.57 3.72Z" fill="rgb(255,255,255)" fill-opacity="1.000" fill-rule="nonzero" transform="matrix(1 0 0 1 14.4505 28.2596)"/><path d="M2.936 1.523L2.236 1.523L2.236 0L0.7 0L0.7 1.523L0 1.523L0 2.922L0.7 2.922L0.7 6.441L2.236 6.441L2.236 2.922L2.936 2.922L2.936 1.523Z" fill="rgb(255,255,255)" fill-opacity="1.000" fill-rule="nonzero" transform="matrix(1 0 0 1 19.9205 26.8589)"/><path d="M0 0L1.534 0L1.534 4.916L0 4.916L0 0Z" fill="rgb(255,255,255)" fill-opacity="1.000" fill-rule="nonzero" transform="matrix(1 0 0 1 23.5585 28.3816)"/><path d="M0.859 0C0.512 -0.001 0.199 0.208 0.066 0.53C-0.067 0.851 0.005 1.222 0.25 1.469C0.495 1.716 0.864 1.79 1.183 1.657C1.503 1.524 1.712 1.21 1.712 0.861C1.712 0.387 1.331 0.001 0.859 0Z" fill="rgb(255,255,255)" fill-opacity="1.000" fill-rule="nonzero" transform="matrix(1 0 0 1 23.4677 26)"/><path d="M2.449 1.427C2.952 1.429 3.36 1.839 3.361 2.346L3.361 5.025L4.894 5.025L4.894 2.155C4.894 0.85 4.144 0 2.959 0C2.471 0 1.958 0.214 1.536 0.903L1.536 0.12L0 0.12L0 5.025L1.523 5.025L1.523 2.346C1.523 2.1 1.621 1.865 1.795 1.692C1.969 1.52 2.204 1.424 2.449 1.427Z" fill="rgb(255,255,255)" fill-opacity="1.000" fill-rule="nonzero" transform="matrix(1 0 0 1 43.8708 28.2806)"/><path d="M4.865 7.177L2.983 4.719L4.733 2.259L2.941 2.259L1.533 4.25L1.533 0L0 0L0 7.177L1.533 7.177L1.533 5.15L3.078 7.177L4.865 7.177Z" fill="rgb(255,255,255)" fill-opacity="1.000" fill-rule="nonzero" transform="matrix(1 0 0 1 49.4879 26.123)"/><path d="M4.762 5.976C4.879 5.689 4.936 5.38 4.928 5.07C4.939 4.614 4.783 4.169 4.489 3.82C4.162 3.458 3.602 3.157 2.826 2.928C2.676 2.889 2.53 2.836 2.389 2.771C2.267 2.711 2.157 2.629 2.065 2.529C1.968 2.419 1.917 2.276 1.924 2.129C1.927 1.915 2.047 1.719 2.236 1.62C2.623 1.449 3.063 1.449 3.449 1.62C3.621 1.683 3.786 1.761 3.944 1.853L4.596 0.548C4.304 0.367 3.991 0.228 3.662 0.133C3.323 0.045 2.975 0 2.625 0C2.291 -0.006 1.96 0.049 1.647 0.162C1.368 0.271 1.115 0.438 0.903 0.65C0.69 0.864 0.521 1.119 0.408 1.399C0.295 1.687 0.24 1.995 0.242 2.304C0.26 2.798 0.467 3.265 0.819 3.609C1.156 3.905 1.549 4.127 1.976 4.259C2.179 4.337 2.404 4.407 2.547 4.462C2.694 4.518 2.835 4.589 2.967 4.676C3.061 4.744 3.138 4.833 3.19 4.937C3.236 5.036 3.253 5.145 3.239 5.253C3.224 5.417 3.146 5.569 3.021 5.676C2.818 5.825 2.567 5.894 2.316 5.871C2.02 5.863 1.728 5.793 1.46 5.665C1.225 5.552 0.998 5.425 0.778 5.284L0 6.627C0.614 7.134 1.38 7.415 2.173 7.423C2.566 7.423 2.957 7.361 3.33 7.238C3.651 7.13 3.948 6.963 4.207 6.745C4.444 6.53 4.633 6.268 4.762 5.976Z" fill="rgb(255,255,255)" fill-opacity="1.000" fill-rule="nonzero" transform="matrix(1 0 0 1 4.4167 25.9996)"/><path d="M0.862 0C0.514 -0.002 0.201 0.206 0.067 0.527C-0.067 0.848 0.004 1.219 0.248 1.467C0.492 1.715 0.86 1.79 1.181 1.658C1.501 1.525 1.711 1.212 1.712 0.863C1.713 0.389 1.333 0.003 0.862 0ZM0.862 1.547C0.584 1.548 0.333 1.381 0.227 1.124C0.12 0.866 0.178 0.57 0.373 0.372C0.569 0.174 0.864 0.115 1.12 0.222C1.376 0.328 1.543 0.579 1.543 0.858C1.544 1.041 1.472 1.216 1.344 1.345C1.217 1.474 1.043 1.547 0.862 1.547Z" fill="rgb(255,255,255)" fill-opacity="1.000" fill-rule="nonzero" transform="matrix(1 0 0 1 54.5737 31.5811)"/><path d="M0.303 0.613L0.166 0.613L0.166 0.939L0 0.939L0 0L0.355 0C0.527 0 0.666 0.14 0.666 0.313C0.663 0.431 0.594 0.537 0.487 0.587L0.684 0.939L0.482 0.939L0.303 0.613ZM0.166 0.456L0.363 0.456C0.442 0.456 0.505 0.392 0.505 0.313C0.505 0.233 0.442 0.169 0.363 0.169L0.166 0.169L0.166 0.456Z" fill="rgb(255,255,255)" fill-opacity="1.000" fill-rule="nonzero" transform="matrix(1 0 0 1 55.1289 31.9701)"/><path d="M3.515 3.291C3.124 3.78 2.413 3.859 1.925 3.467C1.438 3.075 1.359 2.359 1.748 1.869C2.139 1.378 2.85 1.299 3.338 1.691C3.402 1.743 3.462 1.802 3.515 1.866L4.528 0.843C4.044 0.305 3.355 -0.001 2.633 0C1.219 -0.005 0 1.01 0 2.576C0 4.14 1.232 5.158 2.645 5.158C3.368 5.158 4.058 4.851 4.544 4.313L3.515 3.291Z" fill="rgb(255,255,255)" fill-opacity="1.000" fill-rule="nonzero" transform="matrix(1 0 0 1 9.8628 28.2646)"/><path d="M5.366 5.046L5.366 0.122L3.872 0.122L3.872 0.644L3.731 0.522C3.383 0.186 2.918 -0.002 2.436 0C1.115 0 0 1.182 0 2.581C0 3.978 1.118 5.163 2.436 5.163C2.918 5.164 3.383 4.977 3.731 4.641L3.872 4.518L3.872 5.04L5.366 5.046ZM2.684 3.741C2.046 3.737 1.532 3.214 1.536 2.572C1.539 1.93 2.058 1.412 2.696 1.414C3.335 1.417 3.85 1.939 3.849 2.581C3.848 2.89 3.725 3.187 3.506 3.404C3.288 3.622 2.992 3.743 2.684 3.741Z" fill="rgb(255,255,255)" fill-opacity="1.000" fill-rule="nonzero" transform="matrix(1 0 0 1 25.7246 28.2596)"/><path d="M5.366 5.046L5.366 0.122L3.872 0.122L3.872 0.644L3.731 0.522C3.382 0.186 2.918 -0.001 2.435 0C1.115 0 0 1.182 0 2.581C0 3.978 1.118 5.163 2.435 5.163C2.918 5.164 3.382 4.977 3.731 4.641L3.872 4.518L3.872 5.04L5.366 5.046ZM2.694 3.741C2.055 3.742 1.536 3.223 1.535 2.58C1.534 1.937 2.052 1.415 2.691 1.414C3.33 1.414 3.848 1.935 3.848 2.578C3.848 3.22 3.332 3.739 2.694 3.741Z" fill="rgb(255,255,255)" fill-opacity="1.000" fill-rule="nonzero" transform="matrix(1 0 0 1 37.7713 28.2596)"/><path d="M1.497 7.183L1.497 6.661L1.634 6.783C1.983 7.119 2.448 7.306 2.931 7.305C4.251 7.305 5.366 6.123 5.366 4.722C5.366 3.321 4.251 2.142 2.931 2.142C2.448 2.141 1.983 2.328 1.634 2.664L1.497 2.787L1.497 0L0 0L0 7.183L1.497 7.183ZM1.528 4.722C1.525 4.25 1.804 3.824 2.237 3.641C2.668 3.458 3.167 3.556 3.5 3.888C3.832 4.22 3.932 4.722 3.753 5.158C3.575 5.593 3.153 5.878 2.684 5.878C2.047 5.878 1.53 5.358 1.528 4.717L1.528 4.722Z" fill="rgb(255,255,255)" fill-opacity="1.000" fill-rule="nonzero" transform="matrix(1 0 0 1 31.8837 26.123)"/></svg>