<svg xmlns="http://www.w3.org/2000/svg" viewBox="0 0 60 60" width="60" height="60"><path d="M0 0L60 0L60 60L0 60L0 0Z" fill="rgb(215,11,84)" fill-opacity="1.000" fill-rule="nonzero" transform="matrix(1 0 0 1 0 0)"/><path d="M4.69 17.664L0.479 17.664C0.315 17.664 0.182 17.799 0.182 17.964L0.182 32.689C0.182 32.854 0.315 32.988 0.479 32.988L1.963 32.988C2.127 32.988 2.26 32.854 2.26 32.689L2.26 26.897L4.69 26.897C5.847 26.897 6.792 25.95 6.792 24.776L6.792 19.778C6.792 18.611 5.853 17.664 4.69 17.664ZM4.666 23.469C4.666 24.049 4.199 24.514 3.63 24.514L2.496 24.514L2.496 19.852L3.63 19.852C4.205 19.852 4.666 20.322 4.666 20.897L4.666 23.469ZM12.355 17.915C12.331 17.768 12.209 17.664 12.064 17.664L9.689 17.664C9.543 17.664 9.422 17.768 9.398 17.915L7.041 32.64C7.011 32.823 7.15 32.982 7.332 32.982L8.804 32.982C8.95 32.982 9.077 32.872 9.095 32.726L9.434 30.269L12.318 30.269L12.658 32.726C12.676 32.872 12.803 32.982 12.949 32.982L14.421 32.982C14.603 32.982 14.742 32.817 14.712 32.64L12.355 17.915ZM10.876 27.942L9.81 27.942L10.87 20.591L11.931 27.942L10.876 27.942ZM28.963 17.915C28.939 17.768 28.818 17.664 28.672 17.664L26.297 17.664C26.152 17.664 26.031 17.768 26.006 17.915L23.649 32.64C23.619 32.823 23.758 32.982 23.94 32.982L25.413 32.982C25.558 32.982 25.685 32.872 25.703 32.726L26.043 30.269L28.927 30.269L29.266 32.726C29.284 32.872 29.412 32.982 29.557 32.982L31.03 32.982C31.211 32.982 31.351 32.817 31.32 32.64L28.963 17.915ZM27.485 27.942L26.424 27.942L27.485 20.591L28.545 27.942L27.485 27.942ZM22.692 23.322L22.692 19.668C22.692 18.563 21.801 17.664 20.705 17.664L16.112 17.664C15.948 17.664 15.815 17.799 15.815 17.964L15.815 32.689C15.815 32.854 15.948 32.988 16.112 32.988L17.596 32.988C17.76 32.988 17.893 32.854 17.893 32.689L17.893 26.897L19.438 26.897C19.929 26.897 20.329 27.3 20.329 27.795L20.329 32.689C20.329 32.854 20.462 32.988 20.626 32.988L22.395 32.988C22.559 32.988 22.692 32.854 22.692 32.689L22.692 26.897C22.692 26.029 21.995 25.326 21.135 25.326L20.705 25.326C21.801 25.326 22.692 24.428 22.692 23.322ZM20.335 23.383C20.335 24.007 19.832 24.514 19.214 24.514L18.032 24.514L18.032 19.577L19.214 19.577C19.832 19.577 20.335 20.084 20.335 20.707L20.335 23.383ZM39.325 23.322L39.325 19.668C39.325 18.563 38.434 17.664 37.337 17.664L32.744 17.664C32.581 17.664 32.447 17.799 32.447 17.964L32.447 32.689C32.447 32.854 32.581 32.988 32.744 32.988L34.229 32.988C34.392 32.988 34.526 32.854 34.526 32.689L34.526 26.897L36.071 26.897C36.562 26.897 36.962 27.3 36.962 27.795L36.962 32.689C36.962 32.854 37.095 32.988 37.258 32.988L39.028 32.988C39.191 32.988 39.325 32.854 39.325 32.689L39.325 26.897C39.325 26.029 38.628 25.326 37.767 25.326L37.337 25.326C38.434 25.326 39.325 24.428 39.325 23.322ZM36.962 23.383C36.962 24.007 36.459 24.514 35.841 24.514L34.659 24.514L34.659 19.577L35.841 19.577C36.459 19.577 36.962 20.084 36.962 20.707L36.962 23.383ZM0 10.485L0 13.07C0 14.609 1.236 15.856 2.763 15.856L4.235 15.856C5.829 15.856 7.126 14.548 7.126 12.941L7.126 11.45C7.126 9.837 6.429 8.304 5.217 7.253L3.775 5.994C3.419 5.684 3.134 5.3 2.938 4.869C2.743 4.438 2.642 3.969 2.642 3.495L2.642 3.073C2.642 2.523 3.084 2.071 3.636 2.071C4.181 2.071 4.629 2.517 4.629 3.073L4.629 4.711C4.629 4.876 4.763 5.01 4.926 5.01L6.835 5.01C6.998 5.01 7.132 4.876 7.132 4.711L7.132 3.031C7.132 1.363 5.793 0.006 4.132 0.006L2.999 0.006C1.345 0.006 0 1.356 0 3.031L0 3.996C0 5.505 0.673 6.941 1.836 7.894L3.454 9.226C4.193 9.837 4.629 10.754 4.629 11.719L4.629 12.581C4.629 13.161 4.163 13.638 3.581 13.638L3.442 13.638C2.854 13.638 2.381 13.161 2.381 12.568L2.381 10.491C2.381 10.326 2.248 10.198 2.09 10.198L0.297 10.198C0.127 10.192 0 10.326 0 10.485ZM8.374 0.306L8.374 15.556C8.374 15.721 8.507 15.856 8.671 15.856L14.167 15.856C14.33 15.856 14.463 15.721 14.463 15.556L14.463 13.558C14.463 13.393 14.33 13.259 14.167 13.259L10.567 13.259L10.567 8.835L13.385 8.835C13.549 8.835 13.682 8.701 13.682 8.536L13.682 6.562C13.682 6.397 13.549 6.263 13.385 6.263L10.567 6.263L10.567 2.407L14.167 2.407C14.33 2.407 14.463 2.273 14.463 2.108L14.463 0.299C14.463 0.134 14.33 0 14.167 0L8.671 0C8.507 0.012 8.374 0.147 8.374 0.306ZM25.182 0.012L22.365 0.012C22.207 0.012 22.068 0.128 22.044 0.287L20.559 9.721L19.081 0.287C19.056 0.128 18.917 0.012 18.76 0.012L15.942 0.012C15.76 0.012 15.615 0.159 15.615 0.342L15.615 15.599C15.615 15.74 15.73 15.862 15.875 15.862L17.481 15.862C17.62 15.862 17.742 15.746 17.742 15.599L17.742 3.721L19.868 15.355C19.893 15.477 19.996 15.569 20.123 15.569L20.995 15.569C21.123 15.569 21.226 15.477 21.25 15.355L23.383 3.721L23.383 15.593C23.383 15.734 23.498 15.856 23.643 15.856L25.249 15.856C25.388 15.856 25.51 15.74 25.51 15.593L25.51 0.336C25.51 0.159 25.364 0.012 25.182 0.012Z" fill="rgb(255,255,255)" fill-opacity="1.000" fill-rule="nonzero" transform="matrix(1 0 0 1 10.0332 15.4866)"/><path d="M14.008 7.172L7.815 0.298C7.458 -0.099 6.833 -0.099 6.47 0.298L0.277 7.172C-0.098 7.587 -0.092 8.229 0.295 8.638L1.55 9.958C1.98 10.404 2.695 10.398 3.107 9.934L5.355 7.434L5.355 19.82C5.367 20.437 6.137 20.712 6.555 20.266L8.209 18.53C8.657 18.06 8.912 17.431 8.912 16.771L8.912 7.434L11.16 9.934C11.572 10.392 12.287 10.404 12.717 9.958L13.971 8.638C14.371 8.235 14.383 7.593 14.008 7.172Z" fill="rgb(255,255,255)" fill-opacity="1.000" fill-rule="nonzero" transform="matrix(1 0 0 1 35.7188 10.6854)"/></svg>