<svg xmlns="http://www.w3.org/2000/svg" viewBox="0 0 60 60" width="60" height="60"><path d="M0 0L60 0L60 60L0 60L0 0Z" fill="rgb(25,37,95)" fill-opacity="1.000" fill-rule="nonzero" transform="matrix(1 0 0 1 0 0)"/><path d="M38.301 18.932C38.301 18.932 41.256 18.483 41.256 12.469C41.256 9.604 38.276 5.724 38.276 5.724C38.276 5.724 30.44 -0.135 24.18 0.002C17.124 0.157 12.397 0.665 6.888 2.417C2.974 3.661 1.223 5.844 1.223 5.844L1.762 7.749L0 15.692L4.408 19.946L16.101 23.09L29.464 22.259L34.302 20.628L38.301 18.932Z" fill="rgb(25,37,95)" fill-opacity="1.000" fill-rule="nonzero" transform="matrix(1 0 0 -1 9.3559 41.459)"/><path d="M4.086 6.84C5.531 8.928 6.113 9.495 6.717 9.495C7.349 9.495 7.57 9.067 7.455 7.712C7.404 7.125 7.129 5.704 7.014 4.35C6.949 3.6 6.951 2.895 6.963 2.487C6.969 2.385 6.997 2.128 7.021 1.862C7.045 1.595 7.062 1.327 7.05 1.19C7.018 0.809 6.108 0.248 5.683 0.248C4.888 0.248 4.367 1.545 4.534 3.499C4.57 3.925 4.616 4.284 4.758 5.046L4.637 5.118C2.977 2.95 2.587 1.979 1.467 0.376C1.252 0.117 1.06 0 0.857 0C0.297 0 -0.081 0.687 0.015 1.806C0.159 3.493 1.425 8.617 2.609 10.223C2.858 10.548 3.114 10.692 3.412 10.692C3.846 10.692 4.081 10.26 3.998 9.292C3.929 8.483 3.754 7.517 3.423 6.146L3.545 6.073L4.086 6.84Z" fill="rgb(255,255,255)" fill-opacity="1.000" fill-rule="nonzero" transform="matrix(1 0 0 -1 27.8375 36.067)"/><path d="M6.783 7.994C6.919 9.483 6.414 10.381 5.448 10.381C4.323 10.381 2.722 9.33 1.554 7.293C0.76 5.869 0.137 4.074 0.021 2.803C-0.136 1.073 0.59 0 1.873 0C3.632 0 6.176 2.705 6.161 3.234C6.154 3.476 5.975 3.811 5.674 3.811C5.547 3.811 5.276 3.614 4.895 3.263C4.222 2.65 3.679 2.251 3.305 2.321C2.748 2.427 2.785 3.155 2.912 3.696C3.028 3.543 3.189 3.532 3.331 3.532C4.393 3.532 6.56 5.541 6.783 7.994ZM4.777 8.235C4.736 7.775 4.604 6.155 3.54 4.556C3.41 4.343 3.237 4.222 3.141 4.254C3.02 4.295 3.001 4.435 3.039 4.81C3.219 6.581 4.308 8.826 4.657 8.826C4.768 8.826 4.811 8.607 4.777 8.235Z" fill="rgb(255,255,255)" fill-opacity="1.000" fill-rule="nonzero" transform="matrix(1 0 0 -1 21.4625 36.067)"/><path d="M8.296 10.859C8.103 10.111 8.513 9.18 9.249 8.596C9.988 8.009 11.125 7.284 11.803 6.731C13.32 5.494 13.863 4.303 13.745 3.14C13.627 1.991 13.014 1.084 10.843 0.327C8.37 -0.536 4.15 0.352 1.574 2.484C0.97 2.983 -0.119 4.067 0.011 4.791C0.09 5.232 0.349 5.622 0.901 4.836C1.375 4.162 1.882 3.367 2.619 2.879C4.161 1.856 4.854 1.644 6.247 1.663C7.549 1.68 9.801 2.221 9.899 3.81C9.933 4.37 9.752 5.061 8.262 6.189C7.868 6.487 7.334 6.722 6.351 7.592C5.195 8.614 4.909 9.335 4.909 10.404C4.909 11.18 5.473 12.536 6.764 13.318C8.625 14.444 11.523 14.736 13.951 13.739C14.762 13.406 15.117 12.799 15.003 12.547C14.837 12.183 14.366 12.33 13.805 12.444C10.526 13.114 8.671 12.318 8.296 10.859Z" fill="rgb(255,255,255)" fill-opacity="1.000" fill-rule="nonzero" transform="matrix(1 0 0 -1 7.5058 36.9954)"/><path d="M5.074 6.899C4.061 7.111 2.468 8.023 1.565 9.245C0.113 11.212 -0.547 13.372 0.542 15.684C3.564 22.091 16.001 25.309 29.408 23.501C33.513 22.917 38.287 21.604 41.577 19.232C44.876 16.833 46.487 14.188 46.021 11.148C45.242 6.072 38.024 2.903 36.183 2.205C32.545 0.826 27.728 -0.546 18.494 0.22C14.03 0.59 8.9 2.557 5.734 4.414C4.399 5.202 3.031 6.204 2.55 6.785C2.174 7.24 2.049 7.424 2.523 7.163C3.28 6.657 4.026 6.191 4.764 5.762C12.485 1.277 19.223 0.885 25.86 1.316C29.348 1.543 33.475 2.584 35.575 3.614C37.152 4.388 41.563 6.804 42.688 10.484C43.424 12.769 42.963 17.699 36.065 20.516C31.753 22.277 29.245 22.884 24.283 23.021C16.12 23.247 9.936 21.676 6.994 19.762C4.565 18.182 3.549 16.431 3.844 14.533C4.324 11.447 8.869 10.543 8.352 8.207C8.165 7.36 6.648 6.569 5.074 6.899Z" fill="rgb(150,160,165)" fill-opacity="1.000" fill-rule="nonzero" transform="matrix(1 0 0 -1 7 42)"/><path d="M2.85 4.393C2.482 2.086 2.155 0.727 1.875 0.383C1.673 0.143 1.324 0 0.994 0C-0.087 0 -0.024 0.69 0.019 1.122C0.651 7.401 2.849 13.458 4.592 14.14C5.494 14.493 6.232 14.256 6.582 13.877C6.89 13.543 6.896 13.148 6.554 13.016C6.47 12.984 6.39 12.979 6.31 12.985C6.234 12.991 6.155 13.008 6.069 13.025C5.904 13.058 5.716 13.089 5.463 13.035C4.771 12.819 4.5 11.981 4.444 11.793C4.008 10.301 3.615 8.631 3.436 7.205C3.523 7.204 3.664 7.211 3.812 7.219C4.009 7.229 4.206 7.242 4.275 7.242C4.837 7.242 5.128 7.083 5.085 6.649C5.047 6.271 4.747 5.677 4.433 5.344C4.236 5.126 4.083 5.006 3.852 4.93C3.742 4.894 3.613 4.868 3.45 4.845C3.303 4.824 3.128 4.805 2.914 4.782L2.85 4.393Z" fill="rgb(255,255,255)" fill-opacity="1.000" fill-rule="nonzero" transform="matrix(1 0 0 -1 35.2669 38.1765)"/><path d="M2.851 4.393C2.483 2.086 2.155 0.727 1.875 0.383C1.673 0.143 1.324 0 0.994 0C-0.087 0 -0.024 0.69 0.019 1.122C0.651 7.401 2.849 13.458 4.592 14.14C5.494 14.493 6.232 14.256 6.582 13.877C6.89 13.543 6.896 13.148 6.554 13.016C6.47 12.984 6.39 12.979 6.31 12.985C6.234 12.991 6.155 13.008 6.069 13.025C5.904 13.058 5.716 13.089 5.463 13.035C4.771 12.819 4.5 11.981 4.444 11.793C4.008 10.301 3.615 8.631 3.436 7.205C3.523 7.204 3.664 7.211 3.812 7.219C4.009 7.229 4.206 7.242 4.275 7.242C4.837 7.242 5.128 7.083 5.085 6.649C5.047 6.271 4.747 5.677 4.433 5.344C4.236 5.126 4.083 5.006 3.852 4.93C3.742 4.894 3.613 4.868 3.45 4.845C3.303 4.824 3.128 4.805 2.914 4.782L2.851 4.393Z" fill="rgb(255,255,255)" fill-opacity="1.000" fill-rule="nonzero" transform="matrix(1 0 0 -1 39.544 38.1765)"/></svg>