<svg xmlns="http://www.w3.org/2000/svg" viewBox="0 0 130 60" width="130" height="60"><path d="M0 0L130 0L130 60L0 60L0 0Z" fill="rgb(255,255,255)" fill-opacity="1.000" fill-rule="nonzero" transform="matrix(1 0 0 1 0 0)"/><path d="M4.724 6.394L1.653 6.394C0.739 6.394 0 5.651 0 4.737L0 1.657C0 0.742 0.739 0 1.653 0L4.724 0C5.636 0 6.376 0.742 6.376 1.657L6.376 4.737C6.376 5.651 5.636 6.394 4.724 6.394Z" fill="rgb(64,110,179)" fill-opacity="1.000" fill-rule="nonzero" transform="matrix(1 0 0 1 28.5336 10.7348)"/><path d="M5.313 7.193L1.859 7.193C0.833 7.193 0 6.36 0 5.329L0 1.864C0 0.835 0.832 0 1.859 0L5.313 0C6.34 0 7.173 0.835 7.173 1.864L7.173 5.329C7.173 6.36 6.34 7.193 5.313 7.193Z" fill="rgb(99,38,120)" fill-opacity="1.000" fill-rule="nonzero" transform="matrix(1 0 0 1 20 16.8388)"/><path d="M3.247 4.396L1.137 4.396C0.51 4.396 0 3.886 0 3.256L0 1.141C0 0.51 0.51 0 1.137 0L3.247 0C3.874 0 4.383 0.51 4.383 1.141L4.383 3.256C4.383 3.886 3.874 4.396 3.247 4.396Z" fill="rgb(152,40,129)" fill-opacity="1.000" fill-rule="nonzero" transform="matrix(1 0 0 1 21.7377 26.827)"/><path d="M3.838 5.195L1.343 5.195C0.601 5.195 0 4.594 0 3.849L0 1.347C0 0.602 0.601 0 1.343 0L3.838 0C4.579 0 5.18 0.602 5.18 1.347L5.18 3.849C5.18 4.594 4.579 5.195 3.838 5.195Z" fill="rgb(186,47,125)" fill-opacity="1.000" fill-rule="nonzero" transform="matrix(1 0 0 1 26.8126 32.7136)"/><path d="M2.658 3.597L0.929 3.597C0.416 3.597 0 3.178 0 2.665L0 0.934C0 0.418 0.416 0 0.929 0L2.658 0C3.171 0 3.586 0.418 3.586 0.934L3.586 2.665C3.586 3.178 3.171 3.597 2.658 3.597Z" fill="rgb(186,47,125)" fill-opacity="1.000" fill-rule="nonzero" transform="matrix(1 0 0 1 37.134 14.7918)"/><path d="M0.998 1.998C1.548 1.998 1.993 1.552 1.993 1C1.993 0.448 1.548 0 0.998 0C0.449 0 0 0.448 0 1C0 1.552 0.449 1.998 0.998 1.998Z" fill="rgb(38,71,141)" fill-opacity="1.000" fill-rule="nonzero" transform="matrix(1 0 0 1 83.7915 32.2148)"/><path d="M1.502 9.385C1.348 9.616 1.098 9.732 0.828 9.732C0.674 9.732 0.501 9.693 0.366 9.616C0.154 9.481 0 9.191 0 8.902C0 8.766 0.039 8.631 0.116 8.516L2.427 4.866L0.116 1.217C0.039 1.101 0 0.946 0 0.811C0 0.541 0.135 0.251 0.385 0.116C0.52 0.039 0.655 0 0.809 0C1.078 0 1.348 0.116 1.502 0.348L3.389 3.341L5.295 0.348C5.45 0.116 5.719 0 5.989 0C6.143 0 6.278 0.039 6.412 0.116C6.663 0.251 6.797 0.541 6.797 0.811C6.797 0.946 6.759 1.101 6.682 1.217L4.371 4.866L6.682 8.516C6.759 8.631 6.797 8.766 6.797 8.902C6.797 9.191 6.643 9.481 6.431 9.616C6.297 9.693 6.123 9.732 5.969 9.732C5.7 9.732 5.449 9.616 5.295 9.385L3.389 6.411L1.502 9.385Z" fill="rgb(38,71,141)" fill-opacity="1.000" fill-rule="nonzero" transform="matrix(1 0 0 1 46.9285 35.4843)"/><path d="M1.636 1.274C2.503 0.483 3.677 0 4.948 0C7.721 0 9.936 2.221 9.936 5.001C9.936 7.744 7.721 9.964 4.948 9.964C3.677 9.964 2.503 9.481 1.636 8.69L1.636 12.957C1.636 13.382 1.251 13.749 0.809 13.749C0.404 13.749 0 13.382 0 12.957L0 0.869C0 0.444 0.404 0.077 0.809 0.077C1.251 0.077 1.636 0.444 1.636 0.869L1.636 1.274ZM4.948 1.662C3.1 1.662 1.636 3.129 1.636 5.002C1.636 6.856 3.1 8.323 4.948 8.323C6.816 8.323 8.279 6.856 8.279 5.002C8.279 3.129 6.816 1.662 4.948 1.662Z" fill="rgb(38,71,141)" fill-opacity="1.000" fill-rule="nonzero" transform="matrix(1 0 0 1 55.0334 35.3487)"/><path d="M1.637 4.094L1.637 9.095C1.637 9.52 1.232 9.887 0.828 9.887C0.385 9.887 0 9.52 0 9.095L0 0.869C0 0.444 0.385 0.077 0.828 0.077C1.213 0.077 1.617 0.424 1.637 0.83C2.31 0.309 3.177 0.019 4.12 0C4.64 0 5.025 0.405 5.025 0.811C5.025 1.255 4.621 1.661 4.12 1.661C2.831 1.699 1.637 2.163 1.637 4.094Z" fill="rgb(38,71,141)" fill-opacity="1.000" fill-rule="nonzero" transform="matrix(1 0 0 1 77.4284 35.3487)"/><path d="M0.827 0C0.385 0 0 0.367 0 0.792L0 9.018C0 9.443 0.385 9.81 0.827 9.81C1.232 9.81 1.636 9.443 1.636 9.018L1.636 0.792C1.636 0.367 1.232 0 0.827 0Z" fill="rgb(38,71,141)" fill-opacity="1.000" fill-rule="nonzero" transform="matrix(1 0 0 1 83.9755 35.426)"/><path d="M8.299 0.868C8.299 0.444 8.684 0.077 9.127 0.077C9.531 0.077 9.936 0.444 9.936 0.868L9.936 9.095C9.936 9.52 9.531 9.886 9.127 9.886C8.684 9.886 8.299 9.52 8.299 9.095L8.299 8.689C7.414 9.481 6.258 9.964 4.986 9.964C2.214 9.964 0 7.744 0 4.963C0 2.221 2.214 0 4.986 0C6.258 0 7.414 0.483 8.299 1.275L8.299 0.868ZM4.986 8.303C6.835 8.303 8.299 6.835 8.299 4.962C8.299 3.109 6.835 1.641 4.986 1.641C3.119 1.641 1.656 3.109 1.656 4.962C1.656 6.835 3.119 8.303 4.986 8.303Z" fill="rgb(38,71,141)" fill-opacity="1.000" fill-rule="nonzero" transform="matrix(1 0 0 1 86.9594 35.3493)"/><path d="M6.759 4.19C6.759 2.82 5.565 1.622 4.198 1.622C2.869 1.622 1.637 2.163 1.637 4.094L1.637 9.095C1.637 9.52 1.233 9.887 0.827 9.887C0.384 9.887 0 9.52 0 9.095L0 0.869C0 0.444 0.384 0.077 0.827 0.077C1.213 0.077 1.618 0.424 1.637 0.83C2.33 0.289 3.216 0 4.178 0C6.412 0 8.395 1.757 8.395 3.958L8.395 9.095C8.395 9.52 7.992 9.887 7.587 9.887C7.144 9.887 6.759 9.52 6.759 9.095L6.759 4.19L6.759 4.19Z" fill="rgb(38,71,141)" fill-opacity="1.000" fill-rule="nonzero" transform="matrix(1 0 0 1 98.4748 35.349)"/><path d="M9.935 4.693C9.897 2.163 7.644 0 4.987 0C2.214 0 0 2.221 0 4.963C0 7.744 2.214 9.964 4.987 9.964C6.315 9.964 7.548 9.442 8.434 8.554C8.607 8.4 8.722 8.168 8.722 7.936C8.722 7.493 8.337 7.106 7.894 7.106C7.644 7.106 7.413 7.261 7.24 7.435C6.681 8.033 5.854 8.304 4.987 8.304C3.331 8.304 1.984 7.166 1.694 5.583L9.127 5.583C9.133 5.583 9.137 5.581 9.143 5.581L9.166 5.581C9.179 5.579 9.193 5.575 9.207 5.573C9.236 5.568 9.264 5.564 9.291 5.556C9.642 5.461 9.935 5.125 9.935 4.693ZM4.987 1.642C6.48 1.642 7.721 2.603 8.144 3.942L1.81 3.942C2.234 2.603 3.476 1.642 4.987 1.642Z" fill="rgb(38,71,141)" fill-opacity="1.000" fill-rule="nonzero" transform="matrix(1 0 0 1 36.5381 35.3487)"/><path d="M9.937 4.693C9.898 2.163 7.645 0 4.988 0C2.215 0 0 2.221 0 4.963C0 7.744 2.215 9.964 4.988 9.964C6.317 9.964 7.549 9.442 8.434 8.554C8.608 8.4 8.723 8.168 8.723 7.936C8.723 7.493 8.338 7.106 7.896 7.106C7.645 7.106 7.413 7.261 7.24 7.435C6.682 8.033 5.854 8.304 4.988 8.304C3.332 8.304 1.985 7.166 1.695 5.583L9.115 5.583C9.12 5.583 9.126 5.581 9.131 5.581L9.166 5.581C9.188 5.579 9.21 5.572 9.232 5.567C9.243 5.565 9.255 5.564 9.266 5.561C9.628 5.477 9.937 5.135 9.937 4.693ZM4.988 1.642C6.481 1.642 7.722 2.603 8.145 3.942L1.811 3.942C2.234 2.603 3.476 1.642 4.988 1.642Z" fill="rgb(38,71,141)" fill-opacity="1.000" fill-rule="nonzero" transform="matrix(1 0 0 1 66.1054 35.3487)"/><path d="M4.988 0C2.215 0 0 2.221 0 4.963C0 7.744 2.215 9.964 4.988 9.964C6.317 9.964 7.549 9.443 8.435 8.555C8.608 8.401 8.723 8.169 8.723 7.937C8.723 7.493 8.338 7.107 7.896 7.107C7.645 7.107 7.414 7.261 7.24 7.436C6.682 8.034 5.854 8.304 4.988 8.304C3.332 8.304 1.985 7.166 1.695 5.583L9.115 5.583C9.12 5.583 9.126 5.581 9.131 5.581L9.166 5.581C9.188 5.579 9.21 5.572 9.232 5.567C9.243 5.565 9.255 5.564 9.266 5.561C9.628 5.477 9.937 5.135 9.937 4.693C9.898 2.163 7.645 0 4.988 0ZM1.811 3.942C2.234 2.602 3.476 1.642 4.988 1.642C6.481 1.642 7.722 2.602 8.146 3.942L1.811 3.942Z" fill="rgb(38,71,141)" fill-opacity="1.000" fill-rule="nonzero" transform="matrix(1 0 0 1 36.5363 20.681)"/><path d="M9.127 0.077C8.684 0.077 8.299 0.444 8.299 0.869L8.299 1.275C7.414 0.483 6.258 0 4.986 0C2.214 0 0 2.221 0 4.963C0 7.744 2.214 9.964 4.986 9.964C6.258 9.964 7.414 9.482 8.299 8.69L8.299 9.096C8.299 9.52 8.684 9.887 9.127 9.887C9.531 9.887 9.936 9.52 9.936 9.096L9.936 0.869C9.936 0.444 9.531 0.077 9.127 0.077ZM4.986 8.304C3.119 8.304 1.656 6.836 1.656 4.963C1.656 3.109 3.119 1.642 4.986 1.642C6.835 1.642 8.299 3.109 8.299 4.963C8.299 6.836 6.835 8.304 4.986 8.304Z" fill="rgb(38,71,141)" fill-opacity="1.000" fill-rule="nonzero" transform="matrix(1 0 0 1 52.4471 20.681)"/><path d="M9.126 0.077C8.683 0.077 8.299 0.444 8.299 0.869L8.299 1.275C7.414 0.483 6.258 0 4.986 0C2.214 0 0 2.221 0 4.963C0 7.744 2.214 9.964 4.986 9.964C6.258 9.964 7.414 9.482 8.299 8.69L8.299 9.096C8.299 9.52 8.683 9.887 9.126 9.887C9.531 9.887 9.935 9.52 9.935 9.096L9.935 0.869C9.935 0.444 9.531 0.077 9.126 0.077ZM4.986 8.304C3.119 8.304 1.656 6.836 1.656 4.963C1.656 3.109 3.119 1.642 4.986 1.642C6.835 1.642 8.299 3.109 8.299 4.963C8.299 6.836 6.835 8.304 4.986 8.304Z" fill="rgb(38,71,141)" fill-opacity="1.000" fill-rule="nonzero" transform="matrix(1 0 0 1 70.6412 20.681)"/><path d="M4.121 0C3.177 0.019 2.31 0.309 1.637 0.83C1.617 0.425 1.213 0.077 0.828 0.077C0.385 0.077 0 0.444 0 0.869L0 9.096C0 9.52 0.385 9.887 0.828 9.887C1.232 9.887 1.637 9.52 1.637 9.096L1.637 4.094C1.637 2.163 2.831 1.699 4.121 1.661C4.621 1.661 5.026 1.255 5.026 0.811C5.026 0.405 4.641 0 4.121 0Z" fill="rgb(38,71,141)" fill-opacity="1.000" fill-rule="nonzero" transform="matrix(1 0 0 1 47.7798 20.681)"/><path d="M4.67 4.812C4.061 4.477 3.434 4.169 2.829 3.828C2.583 3.69 2.344 3.522 2.148 3.321C1.683 2.847 1.759 2.152 2.302 1.845C2.468 1.752 2.667 1.697 2.856 1.671C3.42 1.595 3.934 1.745 4.427 2.027C4.673 2.168 4.952 2.273 5.23 2.332C5.519 2.393 5.774 2.259 5.954 2.017C6.129 1.778 6.129 1.509 5.982 1.27C5.865 1.079 5.709 0.895 5.53 0.759C4.843 0.241 4.048 0.025 3.197 0C2.572 0.011 1.977 0.14 1.426 0.447C0.238 1.111 -0.225 2.398 0.285 3.651C0.534 4.26 0.989 4.695 1.55 5.01C2.044 5.288 2.559 5.529 3.065 5.786C3.488 6.001 3.901 6.234 4.233 6.584C4.644 7.014 4.731 7.506 4.46 7.909C4.258 8.211 3.95 8.341 3.606 8.398C2.925 8.508 2.308 8.336 1.729 7.978C1.528 7.854 1.323 7.726 1.105 7.643C0.478 7.405 -0.103 7.865 0.016 8.494C0.069 8.774 0.245 8.982 0.454 9.162C1.541 10.104 3.514 10.34 4.82 9.685C6.226 8.979 6.716 7.472 5.992 6.069C5.698 5.498 5.217 5.115 4.67 4.812Z" fill="rgb(38,71,141)" fill-opacity="1.000" fill-rule="evenodd" transform="matrix(1 0 0 1 29.3494 20.6319)"/><path d="M4.67 4.812C4.061 4.477 3.434 4.169 2.829 3.828C2.583 3.69 2.344 3.522 2.148 3.321C1.683 2.847 1.759 2.152 2.302 1.845C2.468 1.752 2.667 1.697 2.856 1.671C3.42 1.595 3.934 1.745 4.427 2.027C4.673 2.168 4.952 2.273 5.23 2.332C5.519 2.393 5.774 2.259 5.954 2.017C6.129 1.778 6.129 1.509 5.982 1.27C5.865 1.079 5.709 0.895 5.53 0.759C4.843 0.241 4.048 0.025 3.197 0C2.572 0.011 1.977 0.14 1.426 0.447C0.238 1.111 -0.225 2.398 0.285 3.651C0.534 4.26 0.989 4.695 1.55 5.01C2.044 5.288 2.559 5.529 3.065 5.786C3.488 6.001 3.901 6.234 4.233 6.584C4.644 7.014 4.731 7.506 4.46 7.909C4.258 8.211 3.95 8.341 3.606 8.398C2.925 8.508 2.308 8.336 1.729 7.978C1.528 7.854 1.323 7.726 1.105 7.643C0.478 7.405 -0.103 7.865 0.016 8.494C0.069 8.774 0.245 8.982 0.454 9.162C1.541 10.104 3.514 10.34 4.82 9.685C6.226 8.979 6.716 7.472 5.992 6.069C5.698 5.498 5.217 5.115 4.67 4.812Z" fill="rgb(38,71,141)" fill-opacity="1.000" fill-rule="evenodd" transform="matrix(1 0 0 1 63.5777 20.6319)"/><path d="M0.578 1.798C0.503 1.798 0.442 1.739 0.442 1.666L0.442 0.273L0.131 0.273C0.059 0.273 0 0.212 0 0.136C0 0.059 0.056 0 0.131 0L1.029 0C1.104 0 1.161 0.059 1.161 0.136C1.161 0.212 1.102 0.273 1.029 0.273L0.714 0.273L0.714 1.666C0.714 1.741 0.655 1.798 0.578 1.798Z" fill="rgb(38,71,141)" fill-opacity="1.000" fill-rule="nonzero" transform="matrix(1 0 0 1 108.0261 43.443)"/><path d="M0.793 1.81C0.719 1.81 0.675 1.755 0.659 1.704L0.272 0.564L0.272 1.676C0.272 1.751 0.213 1.808 0.136 1.808C0.061 1.808 0 1.749 0 1.676L0 0.206C0 0.096 0.096 0 0.205 0C0.292 0 0.373 0.062 0.401 0.152L0.794 1.301L1.182 0.151C1.211 0.062 1.292 0 1.38 0C1.49 0 1.585 0.096 1.585 0.206L1.585 1.676C1.585 1.751 1.527 1.808 1.449 1.808C1.374 1.808 1.313 1.749 1.313 1.676L1.313 0.568C1.253 0.745 1.161 1.019 1.086 1.241C0.932 1.699 0.931 1.7 0.929 1.705C0.898 1.774 0.853 1.81 0.793 1.81Z" fill="rgb(38,71,141)" fill-opacity="1.000" fill-rule="nonzero" transform="matrix(1 0 0 1 109.4145 43.4333)"/></svg>