<svg xmlns="http://www.w3.org/2000/svg" viewBox="0 0 60 60" width="60" height="60"><path d="M0 0L60 0L60 60L0 60L0 0Z" fill="rgb(38,71,141)" fill-opacity="1.000" fill-rule="nonzero" transform="matrix(1 0 0 1 0 0)"/><path d="M6.749 9.135L2.362 9.135C1.056 9.135 0 8.075 0 6.767L0 2.367C0 1.06 1.056 0 2.362 0L6.749 0C8.053 0 9.109 1.061 9.109 2.367L9.109 6.767C9.109 8.075 8.053 9.135 6.749 9.135Z" fill="rgb(255,255,255)" fill-opacity="1.000" fill-rule="nonzero" transform="matrix(1 0 0 1 27.7487 10.1742)"/><path d="M7.592 10.277L2.656 10.277C1.19 10.277 0 9.087 0 7.614L0 2.663C0 1.194 1.189 0 2.656 0L7.592 0C9.059 0 10.248 1.194 10.248 2.663L10.248 7.615C10.248 9.087 9.059 10.277 7.592 10.277Z" fill="rgb(255,255,255)" fill-opacity="1.000" fill-rule="nonzero" transform="matrix(1 0 0 1 15.5566 18.8955)"/><path d="M4.639 6.28L1.624 6.28C0.728 6.28 0 5.553 0 4.652L0 1.63C0 0.729 0.728 0 1.624 0L4.639 0C5.535 0 6.263 0.729 6.263 1.63L6.263 4.652C6.263 5.553 5.535 6.28 4.639 6.28Z" fill="rgb(255,255,255)" fill-opacity="1.000" fill-rule="nonzero" transform="matrix(1 0 0 1 18.0403 33.1664)"/><path d="M5.483 7.423L1.919 7.423C0.859 7.423 0 6.564 0 5.499L0 1.924C0 0.86 0.859 0 1.919 0L5.483 0C6.543 0 7.402 0.86 7.402 1.924L7.402 5.499C7.402 6.564 6.543 7.423 5.483 7.423Z" fill="rgb(255,255,255)" fill-opacity="1.000" fill-rule="nonzero" transform="matrix(1 0 0 1 25.2902 41.5772)"/><path d="M3.798 5.139L1.328 5.139C0.594 5.139 0 4.541 0 3.808L0 1.334C0 0.598 0.594 0 1.328 0L3.798 0C4.531 0 5.124 0.598 5.124 1.334L5.124 3.808C5.124 4.541 4.531 5.139 3.798 5.139Z" fill="rgb(255,255,255)" fill-opacity="1.000" fill-rule="nonzero" transform="matrix(1 0 0 1 40.0385 15.9708)"/><path d="M6.673 6.876C5.802 6.397 4.907 5.957 4.042 5.47C3.691 5.272 3.349 5.032 3.069 4.746C2.404 4.068 2.514 3.074 3.289 2.636C3.526 2.504 3.81 2.425 4.081 2.388C4.886 2.279 5.621 2.494 6.325 2.896C6.677 3.098 7.075 3.247 7.472 3.332C7.886 3.419 8.25 3.228 8.507 2.881C8.757 2.541 8.757 2.156 8.548 1.815C8.38 1.542 8.157 1.278 7.902 1.085C6.919 0.345 5.784 0.035 4.568 0C3.675 0.015 2.824 0.199 2.037 0.639C0.34 1.587 -0.322 3.426 0.407 5.216C0.763 6.087 1.413 6.707 2.214 7.158C2.92 7.556 3.656 7.9 4.379 8.267C4.984 8.575 5.574 8.907 6.049 9.407C6.635 10.021 6.759 10.724 6.373 11.3C6.083 11.732 5.644 11.918 5.152 11.999C4.18 12.156 3.298 11.91 2.47 11.399C2.183 11.222 1.891 11.038 1.579 10.921C0.683 10.58 -0.148 11.237 0.022 12.137C0.099 12.536 0.35 12.833 0.648 13.09C2.201 14.437 5.02 14.774 6.887 13.837C8.895 12.83 9.595 10.676 8.561 8.672C8.141 7.856 7.454 7.308 6.673 6.876Z" fill="rgb(255,255,255)" fill-opacity="1.000" fill-rule="evenodd" transform="matrix(1 0 0 1 28.9155 24.315)"/></svg>