<svg xmlns="http://www.w3.org/2000/svg" viewBox="0 0 60 60" width="60" height="60"><path d="M0 0L60 0L60 60L0 60L0 0Z" fill="rgb(0,75,143)" fill-opacity="1.000" fill-rule="nonzero" transform="matrix(1 0 0 1 0 0)"/><path d="M26.535 7.703L22.979 7.703C22.492 7.711 22.026 7.91 21.684 8.256C21.342 8.603 21.15 9.07 21.15 9.556C21.15 10.043 21.342 10.51 21.684 10.856C22.026 11.203 22.492 11.402 22.979 11.409L26.535 11.409C27.023 11.402 27.489 11.203 27.831 10.856C28.173 10.51 28.365 10.043 28.365 9.556C28.365 9.07 28.173 8.603 27.831 8.256C27.489 7.91 27.023 7.711 26.535 7.703ZM26.535 0.722L21.686 0.722C20.251 0.723 18.875 1.293 17.86 2.305C16.845 3.316 16.274 4.688 16.272 6.119L16.272 16.539C16.28 17.025 16.479 17.489 16.827 17.831C17.175 18.172 17.643 18.363 18.131 18.363C18.619 18.363 19.087 18.172 19.435 17.831C19.783 17.489 19.982 17.025 19.99 16.539L19.99 6.119C19.99 5.671 20.168 5.241 20.487 4.923C20.805 4.606 21.236 4.428 21.686 4.428L26.535 4.428C27.023 4.42 27.489 4.222 27.831 3.875C28.173 3.528 28.365 3.061 28.365 2.575C28.365 2.088 28.173 1.621 27.831 1.275C27.489 0.928 27.023 0.73 26.535 0.722ZM5.444 4.428L12.232 4.428C12.72 4.42 13.185 4.222 13.527 3.875C13.87 3.528 14.062 3.061 14.062 2.575C14.062 2.088 13.87 1.621 13.527 1.275C13.185 0.928 12.72 0.73 12.232 0.722L5.444 0.722C4.737 0.715 4.037 0.849 3.382 1.114C2.728 1.379 2.133 1.77 1.631 2.266C1.129 2.761 0.731 3.351 0.459 4.001C0.187 4.651 0.047 5.348 0.047 6.053C0.047 6.757 0.187 7.454 0.459 8.104C0.731 8.754 1.129 9.344 1.631 9.839C2.133 10.335 2.728 10.727 3.382 10.992C4.037 11.257 4.737 11.39 5.444 11.383L8.676 11.383C8.898 11.376 9.119 11.413 9.327 11.493C9.534 11.573 9.724 11.693 9.883 11.847C10.043 12.001 10.17 12.186 10.257 12.39C10.344 12.594 10.388 12.813 10.388 13.035C10.388 13.256 10.344 13.476 10.257 13.68C10.17 13.884 10.043 14.068 9.883 14.222C9.724 14.376 9.534 14.497 9.327 14.577C9.119 14.656 8.898 14.694 8.676 14.686L1.888 14.686C1.641 14.682 1.396 14.728 1.168 14.819C0.939 14.91 0.73 15.046 0.555 15.219C0.379 15.391 0.24 15.597 0.144 15.823C0.049 16.05 0 16.293 0 16.539C0 16.785 0.049 17.028 0.144 17.255C0.24 17.482 0.379 17.687 0.555 17.86C0.73 18.032 0.939 18.168 1.168 18.259C1.396 18.351 1.641 18.396 1.888 18.392L8.676 18.392C9.388 18.401 10.094 18.27 10.754 18.004C11.414 17.739 12.015 17.346 12.521 16.848C13.028 16.349 13.43 15.756 13.704 15.101C13.979 14.447 14.12 13.744 14.12 13.035C14.12 12.325 13.979 11.623 13.704 10.968C13.43 10.314 13.028 9.72 12.521 9.222C12.015 8.723 11.414 8.33 10.754 8.065C10.094 7.8 9.388 7.668 8.676 7.677L5.444 7.677C5.224 7.686 5.005 7.651 4.799 7.573C4.594 7.496 4.406 7.377 4.248 7.226C4.089 7.074 3.963 6.892 3.877 6.69C3.791 6.489 3.746 6.272 3.746 6.053C3.746 5.834 3.791 5.617 3.877 5.415C3.963 5.214 4.089 5.032 4.248 4.88C4.406 4.728 4.594 4.61 4.799 4.532C5.005 4.455 5.224 4.419 5.444 4.428ZM41.995 5.884C41.995 2.42 39.404 0.002 35.692 0.002C34.159 -0.037 32.655 0.424 31.409 1.316C31.213 1.462 31.048 1.644 30.923 1.853C30.799 2.063 30.716 2.294 30.681 2.535C30.646 2.776 30.659 3.021 30.719 3.257C30.779 3.493 30.885 3.715 31.031 3.91C31.326 4.304 31.766 4.565 32.254 4.635C32.495 4.67 32.741 4.658 32.978 4.598C33.215 4.538 33.437 4.432 33.633 4.287C34.238 3.876 34.962 3.672 35.693 3.708C36.663 3.708 38.279 3.991 38.279 5.883C38.279 6.469 38.279 7.533 36.154 7.645C36.028 7.64 35.901 7.638 35.772 7.638L34.337 7.638C33.844 7.638 33.371 7.833 33.023 8.181C32.674 8.528 32.478 9 32.478 9.491L32.478 9.509C32.478 10 32.674 10.472 33.023 10.819C33.371 11.167 33.844 11.362 34.337 11.362L35.772 11.362C35.901 11.362 36.028 11.362 36.154 11.355C38.28 11.467 38.28 12.53 38.28 13.117C38.28 15.011 36.663 15.292 35.694 15.292C34.962 15.328 34.239 15.124 33.633 14.713C33.438 14.568 33.215 14.462 32.978 14.402C32.742 14.343 32.496 14.33 32.254 14.365C32.013 14.4 31.781 14.482 31.571 14.607C31.361 14.731 31.178 14.896 31.032 15.091C30.886 15.286 30.78 15.508 30.72 15.743C30.66 15.979 30.648 16.225 30.683 16.465C30.718 16.706 30.8 16.938 30.925 17.147C31.05 17.356 31.215 17.538 31.411 17.684C32.657 18.576 34.161 19.037 35.694 18.998C39.406 18.998 41.997 16.581 41.997 13.116C42.041 11.794 41.585 10.502 40.718 9.5C41.584 8.497 42.04 7.206 41.995 5.884Z" fill="rgb(255,255,255)" fill-opacity="1.000" fill-rule="nonzero" transform="matrix(1 0 0 1 9 20)"/></svg>