<svg xmlns="http://www.w3.org/2000/svg" viewBox="0 0 60 60" width="60" height="60"><path d="M0 0L60 0L60 60L0 60L0 0Z" fill="rgb(237,76,47)" fill-opacity="1.000" fill-rule="nonzero" transform="matrix(1 0 0 1 0 0)"/><path d="M17.752 24.703C15.656 25.111 12.95 24.402 11.485 22.823C10.822 22.114 11.892 21.03 12.555 21.749C13.539 22.813 15.303 23.317 16.736 23.285C18.565 23.242 20.19 21.577 19.153 19.709C17.709 17.12 14.17 17.85 12.341 15.81C10.865 14.167 11.571 11.589 13.293 10.45C15.1 9.258 18.212 9.301 19.698 11.009C20.34 11.739 19.271 12.824 18.629 12.083C17.431 10.697 14.597 10.891 13.517 12.308C11.977 14.338 14.276 15.434 15.891 15.917C18.105 16.594 20.554 17.818 20.96 20.364C21.292 22.415 19.709 24.316 17.752 24.703ZM3.754 5.478L28.713 5.478C30.382 5.478 31.729 6.842 31.729 8.506L31.729 26.056C31.729 27.732 30.371 29.085 28.713 29.085L3.026 29.085C1.358 29.085 0.011 27.732 0 26.056L0 4.382C0 3.598 0.652 3.05 1.422 2.954L24.436 0C25.227 0 25.858 0.644 25.858 1.428L25.858 3.877L2.31 3.877C2.31 4.919 2.62 5.478 3.754 5.478Z" fill="rgb(255,255,255)" fill-opacity="1.000" fill-rule="evenodd" transform="matrix(1 0 0 1 14 15)"/></svg>