<svg xmlns="http://www.w3.org/2000/svg" viewBox="0 0 130 60" width="130" height="60"><path d="M0 0L130 0L130 60L0 60L0 0Z" fill="rgb(255,255,255)" fill-opacity="1.000" fill-rule="nonzero" transform="matrix(1 0 0 1 0 0)"/><path d="M17.752 24.703C15.656 25.111 12.95 24.402 11.485 22.823C10.822 22.114 11.892 21.03 12.555 21.749C13.539 22.813 15.303 23.317 16.736 23.285C18.565 23.242 20.19 21.577 19.153 19.709C17.709 17.12 14.17 17.85 12.341 15.81C10.865 14.167 11.571 11.589 13.293 10.45C15.1 9.258 18.212 9.301 19.698 11.009C20.34 11.739 19.271 12.824 18.629 12.083C17.431 10.697 14.597 10.891 13.517 12.308C11.977 14.338 14.276 15.434 15.891 15.917C18.105 16.594 20.554 17.818 20.96 20.364C21.292 22.415 19.709 24.316 17.752 24.703ZM3.754 5.478L28.713 5.478C30.382 5.478 31.729 6.842 31.729 8.506L31.729 26.056C31.729 27.732 30.371 29.085 28.713 29.085L3.026 29.085C1.358 29.085 0.011 27.732 0 26.056L0 4.382C0 3.598 0.652 3.05 1.422 2.954L24.436 0C25.227 0 25.858 0.644 25.858 1.428L25.858 3.877L2.31 3.877C2.31 4.919 2.62 5.478 3.754 5.478Z" fill="rgb(237,76,47)" fill-opacity="1.000" fill-rule="evenodd" transform="matrix(1 0 0 1 25.9998 13.0338)"/><path d="M5.712 0.861C4.704 -0.202 2.6 -0.233 1.375 0.506C0.204 1.215 -0.273 2.829 0.724 3.85C1.96 5.11 4.357 4.662 5.332 6.276C6.037 7.443 4.931 8.484 3.695 8.505C2.719 8.526 1.527 8.214 0.865 7.547C0.421 7.099 -0.306 7.766 0.139 8.214C1.126 9.203 2.958 9.641 4.378 9.38C5.701 9.141 6.775 7.953 6.558 6.683C6.287 5.1 4.628 4.329 3.131 3.912C2.047 3.61 0.486 2.923 1.527 1.662C2.264 0.777 4.172 0.663 4.985 1.517C5.419 1.985 6.146 1.319 5.712 0.861ZM12.911 5.672L12.911 8.995C12.911 9.62 11.881 9.62 11.881 8.995L11.881 5.745C11.849 5.349 11.61 4.995 11.253 4.797C10.526 4.495 9.192 4.631 8.412 5.589L8.412 8.995C8.412 9.62 7.382 9.62 7.382 8.995L7.382 0.475C7.382 -0.15 8.412 -0.15 8.412 0.475L8.412 4.308C9.669 3.506 11.263 3.589 12.022 4.089C12.597 4.412 12.933 5.027 12.911 5.672ZM30.086 6.11C30.097 6.068 30.108 6.037 30.119 6.006C30.368 5.224 31.203 4.777 32.049 4.756C33.024 4.735 33.567 5.36 33.74 6.11L30.086 6.11ZM34.813 6.589C34.792 5.287 34.076 4.1 32.591 3.839C31.311 3.61 29.815 4.245 29.273 5.36C28.709 6.516 28.948 8.109 30.064 8.922C31.268 9.797 33.155 9.526 34.391 8.88C34.965 8.578 34.445 7.755 33.87 8.057C33.089 8.464 32.059 8.672 31.181 8.391C30.52 8.182 30.151 7.662 30.043 7.068L34.304 7.068C34.586 7.068 34.813 6.86 34.813 6.589ZM36.906 6.11C36.917 6.079 36.928 6.037 36.939 6.006C37.188 5.224 38.023 4.777 38.869 4.756C39.844 4.735 40.387 5.36 40.56 6.11L36.906 6.11ZM41.644 6.578C41.623 5.277 40.907 4.089 39.422 3.829C38.142 3.6 36.646 4.235 36.104 5.349C35.54 6.506 35.778 8.099 36.895 8.911C38.099 9.786 39.985 9.516 41.221 8.87C41.796 8.568 41.276 7.745 40.701 8.047C39.92 8.464 38.89 8.662 38.012 8.38C37.351 8.172 36.982 7.651 36.874 7.058L41.135 7.058C41.406 7.058 41.633 6.849 41.644 6.578ZM17.162 4.829C16.088 4.829 15.21 5.641 15.21 6.641C15.21 7.641 16.077 8.453 17.162 8.453C18.246 8.453 19.103 7.641 19.103 6.641C19.103 5.641 18.224 4.829 17.162 4.829ZM17.162 9.474C15.481 9.474 14.115 8.203 14.115 6.631C14.115 5.058 15.481 3.787 17.162 3.787C18.842 3.787 20.208 5.058 20.208 6.631C20.208 8.203 18.842 9.474 17.162 9.474ZM24.719 8.453C23.646 8.453 22.778 7.641 22.778 6.641C22.789 5.735 23.483 4.985 24.415 4.85L24.437 4.85C24.535 4.839 24.632 4.829 24.73 4.829C25.489 4.829 26.183 5.245 26.508 5.912C26.508 5.912 26.508 5.912 26.508 5.922C26.616 6.151 26.671 6.391 26.671 6.641C26.66 7.641 25.792 8.453 24.719 8.453ZM24.719 3.798C23.852 3.798 23.028 4.141 22.442 4.745L22.442 4.068C22.442 3.454 21.412 3.454 21.412 4.068L21.412 12.099C21.412 12.713 22.442 12.713 22.442 12.099L22.442 8.526C23.028 9.141 23.852 9.484 24.719 9.474C26.4 9.474 27.766 8.203 27.766 6.631C27.766 5.058 26.4 3.798 24.719 3.798Z" fill="rgb(237,76,47)" fill-opacity="1.000" fill-rule="evenodd" transform="matrix(1 0 0 1 62.3556 13.6946)"/><path d="M19.576 7.186C21.527 7.186 23.12 8.749 23.12 10.687C23.12 12.626 21.538 14.189 19.576 14.189C17.614 14.189 16.031 12.626 16.031 10.687C16.031 8.749 17.625 7.186 19.576 7.186ZM23.543 4.744L25.938 4.744L25.938 16.62L23.543 16.62L23.543 15.281C20.974 17.445 17.104 17.134 14.915 14.596C12.725 12.058 13.04 8.235 15.608 6.072C17.896 4.155 21.245 4.155 23.532 6.072L23.532 4.744L23.543 4.744ZM2.731 9.102L2.731 2.688L6.417 2.688C8.487 2.688 10.167 4.123 10.167 5.901C10.167 7.678 8.487 9.113 6.417 9.113L2.731 9.102ZM0.011 16.727L2.731 16.727L2.731 11.801L6.417 11.801C10.232 11.801 13.321 9.156 13.321 5.901C13.321 2.645 10.221 0 6.417 0L0 0L0.011 16.727ZM32.442 21.814L29.19 21.814L32.669 15.313L26.946 4.637L30.48 4.637L34.436 12.015L38.393 4.637L41.644 4.637L32.442 21.814Z" fill="rgb(237,76,47)" fill-opacity="1.000" fill-rule="evenodd" transform="matrix(1 0 0 1 62.3556 25.5933)"/></svg>