<svg xmlns="http://www.w3.org/2000/svg" viewBox="0 0 60 60" width="60" height="60"><path d="M0 0L60 0L60 60L0 60L0 0Z" fill="rgb(255,255,255)" fill-opacity="1.000" fill-rule="nonzero" transform="matrix(1 0 0 1 0 0)"/><path d="M0.203 1.23L0 5.539L17 9L2.171 0.185C1.326 -0.316 0.249 0.256 0.203 1.23Z" fill="rgb(0,71,187)" fill-opacity="1.000" fill-rule="nonzero" transform="matrix(1 0 0 1 31 11)"/><path d="M0.002 26.594C-0.064 27.985 1.777 28.539 2.499 27.349L19 0L0.597 13.74L0.002 26.594Z" fill="rgb(0,71,187)" fill-opacity="1.000" fill-rule="nonzero" transform="matrix(1 0 0 1 29 20)"/><path d="M1.616 0.028C0.525 -0.187 -0.352 0.882 0.141 1.83L10.774 22.29C11.144 23.004 12.109 23.222 12.782 22.748L17.2 19.625L18 3.212L1.616 0.028Z" fill="rgb(0,71,187)" fill-opacity="1.000" fill-rule="nonzero" transform="matrix(1 0 0 1 13 14)"/></svg>