<svg xmlns="http://www.w3.org/2000/svg" viewBox="0 0 130 60" width="130" height="60"><path d="M0 0L130 0L130 60L0 60L0 0Z" fill="rgb(255,255,255)" fill-opacity="1.000" fill-rule="nonzero" transform="matrix(1 0 0 1 0 0)"/><path d="M98 0L0 0L0 29.859L98 29.859L98 0Z" fill="rgb(0,0,0)" fill-opacity="1.000" fill-rule="nonzero" transform="matrix(1 0 0 1 16 15)"/><path d="M2.543 1.688L2.543 0.417C2.543 0.079 2.159 -0.113 1.888 0.089L0 1.498L0 11.412L2.543 11.412L2.543 4.7C2.796 3.895 3.121 3.311 3.518 2.942C3.913 2.576 4.372 2.393 4.896 2.393C5.249 2.393 5.616 2.462 5.998 2.604L6.443 0.318C6.061 0.107 5.609 0 5.088 0C3.946 0 3.101 0.567 2.545 1.688L2.543 1.688Z" fill="rgb(11,52,113)" fill-opacity="1.000" fill-rule="nonzero" transform="matrix(1 0 0 1 56.0228 27.0571)"/><path d="M6.779 5.407C6.299 5.189 5.677 4.966 4.915 4.74C4.154 4.5 3.599 4.284 3.252 4.094C2.905 3.904 2.733 3.618 2.733 3.237C2.733 2.883 2.894 2.596 3.219 2.369C3.545 2.144 3.981 2.031 4.533 2.031C5.013 2.031 5.518 2.105 6.048 2.253C6.578 2.401 7.041 2.596 7.436 2.835L8.22 1.058C7.753 0.733 7.192 0.476 6.535 0.286C5.878 0.096 5.19 0 4.468 0C3.198 0 2.18 0.301 1.417 0.901C0.655 1.501 0.273 2.316 0.273 3.346C0.273 4.024 0.439 4.574 0.77 4.997C1.102 5.42 1.502 5.741 1.969 5.961C2.436 6.179 3.036 6.402 3.769 6.628C4.531 6.868 5.09 7.095 5.443 7.307C5.797 7.518 5.974 7.815 5.974 8.197C5.974 8.578 5.784 8.916 5.402 9.172C5.02 9.425 4.498 9.553 3.835 9.553C3.27 9.553 2.711 9.468 2.161 9.298C1.611 9.128 1.115 8.881 0.679 8.557L0 10.526C0.48 10.892 1.069 11.187 1.77 11.405C2.469 11.623 3.213 11.732 4.005 11.732C5.361 11.732 6.456 11.412 7.29 10.768C8.124 10.127 8.541 9.239 8.541 8.112C8.541 7.392 8.368 6.816 8.021 6.386C7.674 5.957 7.262 5.632 6.781 5.411L6.779 5.407Z" fill="rgb(11,52,113)" fill-opacity="1.000" fill-rule="nonzero" transform="matrix(1 0 0 1 16 27.0591)"/><path d="M1.888 0.081L0 1.49L0 11.409L2.543 11.409L2.543 0.41C2.543 0.072 2.159 -0.12 1.888 0.083L1.888 0.081Z" fill="rgb(11,52,113)" fill-opacity="1.000" fill-rule="nonzero" transform="matrix(1 0 0 1 27.0791 27.0592)"/><path d="M1.888 0.083L0 1.492L0 11.407L2.543 11.407L2.543 0.41C2.543 0.072 2.159 -0.12 1.888 0.083Z" fill="rgb(11,52,113)" fill-opacity="1.000" fill-rule="nonzero" transform="matrix(1 0 0 1 64.3299 27.0614)"/><path d="M6.779 5.407C6.299 5.189 5.677 4.966 4.915 4.74C4.154 4.5 3.597 4.284 3.252 4.094C2.905 3.904 2.733 3.618 2.733 3.237C2.733 2.883 2.894 2.595 3.219 2.369C3.545 2.144 3.981 2.031 4.533 2.031C5.014 2.031 5.518 2.105 6.048 2.253C6.578 2.401 7.041 2.595 7.436 2.835L8.22 1.058C7.753 0.733 7.192 0.475 6.535 0.286C5.878 0.096 5.19 0 4.468 0C3.198 0 2.18 0.301 1.417 0.901C0.653 1.501 0.273 2.316 0.273 3.346C0.273 4.024 0.439 4.574 0.771 4.997C1.102 5.42 1.502 5.741 1.969 5.961C2.436 6.179 3.036 6.402 3.769 6.628C4.533 6.868 5.09 7.095 5.444 7.307C5.797 7.518 5.974 7.815 5.974 8.197C5.974 8.578 5.784 8.916 5.402 9.171C5.02 9.425 4.498 9.553 3.835 9.553C3.27 9.553 2.711 9.468 2.161 9.298C1.611 9.128 1.115 8.881 0.679 8.556L0 10.526C0.48 10.892 1.07 11.187 1.77 11.405C2.469 11.623 3.213 11.732 4.005 11.732C5.361 11.732 6.456 11.411 7.29 10.768C8.124 10.127 8.541 9.239 8.541 8.111C8.541 7.392 8.368 6.816 8.021 6.386C7.674 5.957 7.262 5.632 6.781 5.411L6.779 5.407Z" fill="rgb(11,52,113)" fill-opacity="1.000" fill-rule="nonzero" transform="matrix(1 0 0 1 32.1647 27.0592)"/><path d="M10.295 5.187C10.295 4.255 10.112 3.394 9.746 2.604C9.379 1.815 8.825 1.182 8.082 0.709C7.34 0.236 6.432 0 5.36 0C4.289 0 3.366 0.244 2.554 0.731C1.742 1.217 1.113 1.906 0.668 2.794C0.223 3.684 0 4.72 0 5.906C0 7.176 0.242 8.249 0.731 9.126C1.218 10 1.879 10.655 2.713 11.084C3.547 11.514 4.485 11.73 5.531 11.73C7.381 11.73 8.933 11.228 10.193 10.227L9.176 8.576C8.228 9.324 7.129 9.697 5.872 9.697C3.922 9.697 2.82 8.681 2.567 6.648L10.173 6.648C10.259 6.295 10.3 5.808 10.3 5.187L10.295 5.187ZM2.541 4.934C2.639 3.946 2.94 3.202 3.442 2.7C3.944 2.199 4.603 1.948 5.424 1.948C6.245 1.948 6.825 2.21 7.257 2.731C7.687 3.254 7.917 3.987 7.945 4.934L2.543 4.934L2.541 4.934Z" fill="rgb(11,52,113)" fill-opacity="1.000" fill-rule="nonzero" transform="matrix(1 0 0 1 88.2734 27.0571)"/><path d="M7.956 0.635C7.264 0.212 6.502 0 5.67 0C4.95 0 0 0.316 0 0.316L0 14.472L2.538 14.472L2.538 10.792C3.23 11.2 4.068 11.414 5.055 11.414C6.041 11.414 6.867 11.156 7.657 10.657C8.447 10.157 9.073 9.442 9.54 8.511C10.005 7.582 10.239 6.495 10.239 5.254C10.239 4.013 10.029 3.368 9.614 2.528C9.198 1.69 8.645 1.058 7.953 0.637L7.956 0.635ZM7.227 7.525C6.952 8.109 6.581 8.554 6.116 8.858C5.651 9.161 5.142 9.313 4.592 9.313C4.156 9.313 3.78 9.261 3.47 9.154C3.16 9.047 2.85 8.875 2.541 8.635L2.541 2.242L5.079 2.242C5.825 2.242 6.441 2.539 6.919 3.13C7.399 3.721 7.639 4.295 7.639 5.464C7.639 6.253 7.502 6.94 7.227 7.525Z" fill="rgb(11,52,113)" fill-opacity="1.000" fill-rule="nonzero" transform="matrix(1 0 0 1 43.2416 27.0571)"/><path d="M0 0.12C0.24 0.063 0.495 0.017 0.744 0C0.489 0.015 0.24 0.055 0 0.12Z" fill="rgb(11,52,113)" fill-opacity="1.000" fill-rule="nonzero" transform="matrix(1 0 0 1 79.9686 29.2492)"/><path d="M15.654 3.139C15.529 2.486 15.302 1.922 14.975 1.461C14.65 1.003 14.196 0.641 13.624 0.386C13.048 0.129 12.306 0 11.413 0C11.413 0 9.503 -0.022 7.628 0.94C7.331 0.687 6.98 0.475 6.574 0.31C6.072 0.105 5.419 0 4.629 0C3.778 0 0 0.332 0 0.332L0 11.414L2.543 11.414L2.543 2.242C2.543 2.242 4.108 2.183 4.407 2.183C5.267 2.183 5.863 2.473 6.181 3.045C6.491 3.601 6.648 4.251 6.648 5.488L6.648 11.416L9.191 11.416L9.191 5.433C9.191 4.958 9.169 4.506 9.123 4.092C9.08 3.68 8.999 3.285 8.881 2.916L8.82 2.74C8.82 2.74 9.39 2.48 10.077 2.314C10.317 2.249 10.566 2.209 10.821 2.194C10.9 2.188 10.979 2.186 11.055 2.186C11.93 2.186 12.53 2.476 12.843 3.047C13.146 3.603 13.299 4.513 13.299 5.747L13.299 11.416L15.841 11.416L15.841 5.32C15.841 4.535 15.778 3.804 15.654 3.143L15.654 3.139Z" fill="rgb(11,52,113)" fill-opacity="1.000" fill-rule="nonzero" transform="matrix(1 0 0 1 69.8893 27.057)"/><path d="M0.105 0.642L0 2.891L8.785 4.697L1.122 0.097C0.685 -0.165 0.129 0.134 0.105 0.642Z" fill="rgb(0,71,187)" fill-opacity="1.000" fill-rule="nonzero" transform="matrix(1 0 0 1 105.2129 14.9992)"/><path d="M0.001 13.303C-0.032 13.998 0.887 14.275 1.247 13.68L9.482 0L0.298 6.873L0.001 13.303Z" fill="rgb(0,71,187)" fill-opacity="1.000" fill-rule="nonzero" transform="matrix(1 0 0 1 104.5175 19.6959)"/><path d="M0.808 0.015C0.263 -0.099 -0.176 0.466 0.07 0.968L5.385 11.786C5.571 12.163 6.053 12.279 6.389 12.028L8.598 10.377L8.998 1.698L0.808 0.015Z" fill="rgb(0,71,187)" fill-opacity="1.000" fill-rule="nonzero" transform="matrix(1 0 0 1 96.2177 16.1936)"/></svg>