<svg xmlns="http://www.w3.org/2000/svg" viewBox="0 0 60 60" width="60" height="60"><path d="M0 0L60 0L60 60L0 60L0 0Z" fill="rgb(255,255,255)" fill-opacity="1.000" fill-rule="nonzero" transform="matrix(1 0 0 1 0 0)"/><path d="M23.386 11.712C23.377 13.275 22.962 14.063 22.447 14.122C22.11 14.161 21.72 13.889 21.369 13.321C20.213 11.468 18.948 9.7 17.603 7.966C17.603 7.962 17.605 7.958 17.607 7.955C18.127 5.218 18.962 2.427 20.39 0C22.176 3.513 23.408 7.803 23.386 11.712ZM16.683 11.621C17.945 12.724 18.291 13.606 18.009 14.087C17.825 14.402 17.364 14.55 16.688 14.473C14.425 14.213 12.169 14.111 9.886 14.096C9.884 14.093 9.881 14.09 9.878 14.087C7.723 11.582 5.772 8.76 4.519 5.713C8.791 6.701 13.415 8.765 16.683 11.622M12.375 17.335C14.061 16.987 14.983 17.273 15.19 17.817C15.326 18.175 15.157 18.651 14.68 19.161C13.102 20.843 11.654 22.61 10.266 24.45L10.253 24.45C6.853 24.696 3.317 24.558 0 23.751C3.381 20.828 7.962 18.246 12.376 17.337M14.303 24.382C15.041 22.85 15.828 22.273 16.37 22.434C16.726 22.539 16.987 22.96 17.082 23.635C17.386 25.767 17.825 27.859 18.36 29.953C18.359 29.956 18.355 29.959 18.352 29.962C16.503 32.526 14.519 34.993 12.03 37C11.735 32.858 12.505 28.119 14.303 24.382ZM20.69 26.896C20.034 25.494 20.083 24.543 20.526 24.215C20.818 24 21.283 24.04 21.825 24.353C23.478 25.305 25.182 26.196 26.968 26.902C26.968 26.905 26.968 26.91 26.97 26.913C27.612 29.534 27.986 32.284 27.821 34.981C24.848 33.079 22.149 30.018 20.69 26.896ZM26.314 23.442C24.954 23.148 24.303 22.553 24.346 22.012C24.373 21.656 24.689 21.315 25.247 21.074C26.957 20.333 28.645 19.518 30.235 18.543C30.238 18.544 30.241 18.546 30.243 18.547C32.349 19.597 34.372 20.93 36 22.617C33.041 23.742 29.378 24.104 26.314 23.442ZM27.429 16.927C26.352 17.847 25.522 18.001 25.16 17.629C24.922 17.384 24.875 16.911 25.054 16.299C25.625 14.359 26.069 12.398 26.437 10.407C26.441 10.407 26.444 10.405 26.447 10.404C28.618 9.411 30.797 8.502 33.207 8.256C32.068 11.432 30.005 14.728 27.429 16.928" fill="rgb(0,110,67)" fill-opacity="1.000" fill-rule="nonzero" transform="matrix(1 0 0 1 12 11)"/><path d="M20.324 0.177C18.915 2.594 18.091 5.375 17.576 8.103C17.576 8.106 17.574 8.11 17.573 8.113C17.219 7.66 16.75 7.115 16.344 6.617C14.805 4.728 13.103 2.963 11.382 1.228C14.208 0.111 17.31 -0.256 20.324 0.177ZM0 14.973C2.634 14.656 5.28 14.366 7.901 14.278C8.578 14.255 9.346 14.221 9.952 14.221C9.949 14.218 9.948 14.213 9.944 14.212C7.816 11.716 5.889 8.904 4.652 5.868C2.304 8.425 0.701 11.599 0 14.975M5.189 32.717C6.427 30.492 7.733 28.29 9.161 26.213C9.539 25.661 9.966 25.028 10.324 24.54C10.32 24.54 10.317 24.54 10.312 24.54C6.956 24.785 3.464 24.649 0.188 23.843C1.026 27.171 2.743 30.27 5.189 32.717ZM20.996 37.737C20.199 35.757 19.434 33.764 18.826 31.754C18.657 31.196 18.458 30.547 18.319 30.022C18.317 30.025 18.314 30.028 18.313 30.031C16.486 32.584 14.527 35.043 12.068 37.045C15.036 37.901 17.919 38.304 20.996 37.737ZM33.318 29.087C31.605 28.66 29.899 28.174 28.262 27.538C27.796 27.356 27.253 27.165 26.821 26.983C26.821 26.986 26.821 26.991 26.823 26.994C27.458 29.606 27.827 32.345 27.664 35.034C29.971 33.499 31.906 31.45 33.318 29.088M35.613 14.7C34.239 15.814 32.825 16.893 31.332 17.836C30.914 18.099 30.44 18.418 30.045 18.654C30.048 18.654 30.049 18.657 30.052 18.659C32.132 19.705 34.131 21.031 35.739 22.712C36.12 19.934 36.089 17.464 35.613 14.7ZM27.114 2.639C26.989 4.721 26.836 6.807 26.549 8.842C26.471 9.394 26.384 10.038 26.296 10.546C26.299 10.546 26.302 10.543 26.305 10.543C28.449 9.554 30.601 8.648 32.981 8.403C31.486 6.084 29.483 4.093 27.115 2.641" fill="rgb(61,174,43)" fill-opacity="1.000" fill-rule="nonzero" transform="matrix(1 0 0 1 12 11)"/></svg>