<svg xmlns="http://www.w3.org/2000/svg" viewBox="0 0 130 60" width="130" height="60"><path d="M0 0L130 0L130 60L0 60L0 0Z" fill="rgb(255,255,255)" fill-opacity="1.000" fill-rule="nonzero" transform="matrix(1 0 0 1 0 0)"/><path d="M1.396 0C1.176 0.018 0.955 0.074 0.753 0.202C0.276 0.478 0 0.993 0 1.508C0 1.728 0.055 1.967 0.165 2.188L7.569 15.078L9.976 10.922L13.889 4.156L11.482 0L1.396 0Z" fill="rgb(110,187,73)" fill-opacity="1.000" fill-rule="nonzero" transform="matrix(1 0 0 1 9.4987 18.0184)"/><path d="M1.396 0C1.176 0.018 0.955 0.074 0.753 0.202C0.276 0.478 0 0.993 0 1.508C0 1.728 0.055 1.967 0.165 2.188L7.569 15.078L9.976 10.922L13.889 4.156L11.482 0L1.396 0Z" fill="rgb(110,187,73)" fill-opacity="1.000" fill-rule="nonzero" transform="matrix(1 0 0 1 9.4987 18.0184)"/><path d="M0 0L6.301 10.904L10.729 10.904L11.078 10.904L16.13 2.151C16.222 1.949 16.277 1.747 16.277 1.508C16.277 0.699 15.653 0.055 14.863 0L0 0Z" fill="rgb(0,174,156)" fill-opacity="1.000" fill-rule="nonzero" transform="matrix(1 0 0 1 20.9994 18.0184)"/><path d="M14.66 0L2.407 0L0 4.156L5.071 12.908C5.181 13.092 5.364 13.239 5.548 13.368C5.787 13.497 6.044 13.57 6.301 13.57C6.797 13.57 7.275 13.313 7.569 12.89L15.009 0L14.66 0Z" fill="rgb(184,211,53)" fill-opacity="1.000" fill-rule="nonzero" transform="matrix(1 0 0 1 17.0861 28.9223)"/><path d="M42.071 0L41.979 0C37.019 0.055 33.95 3.825 33.95 8.55C33.95 13.092 36.743 16.898 41.813 16.898L41.997 16.898C46.939 16.843 50.026 13.497 50.026 8.275C50.007 3.917 47.343 0 42.071 0ZM42.034 13.441L41.979 13.423C39.866 13.423 38.543 11.382 38.58 8.458C38.58 5.608 39.866 3.475 41.979 3.475C44.11 3.475 45.378 5.608 45.378 8.44C45.378 11.4 44.147 13.441 42.034 13.441ZM78.52 7.796L78.52 7.76C80.449 7.024 81.184 5.7 81.184 4.34C81.184 2.74 80.265 1.563 78.979 0.956C77.895 0.423 76.719 0.221 74.974 0.165C74.662 0.147 74.331 0.147 73.964 0.147C71.961 0.147 69.793 0.313 68.801 0.515L68.801 16.549C69.683 16.715 71.134 16.843 73.118 16.843C73.78 16.843 74.386 16.825 74.974 16.788C77.362 16.623 78.887 16.126 79.879 15.391C80.981 14.563 81.716 13.35 81.716 11.805C81.716 9.837 80.504 8.348 78.52 7.796ZM73.137 3.402C73.431 3.347 73.853 3.31 74.57 3.31C74.698 3.31 74.845 3.328 74.956 3.328C76.168 3.42 76.774 4.009 76.774 4.854C76.774 5.7 76.187 6.307 74.956 6.491C74.662 6.528 74.349 6.564 74 6.564L73.137 6.564L73.137 3.402ZM74.974 13.589C74.79 13.607 74.607 13.625 74.423 13.625C73.872 13.625 73.468 13.625 73.155 13.57L73.155 9.672L74.202 9.672C74.478 9.672 74.735 9.672 74.974 9.709C76.223 9.874 77.105 10.426 77.105 11.584C77.105 12.853 76.168 13.46 74.974 13.589ZM67.478 8.293C67.478 3.917 64.815 0 59.542 0L59.45 0C54.49 0.055 51.422 3.825 51.422 8.55C51.422 13.092 54.214 16.898 59.285 16.898L59.45 16.898C64.392 16.843 67.478 13.497 67.478 8.293ZM59.505 13.441L59.45 13.423C57.337 13.423 56.033 11.382 56.051 8.458C56.051 5.608 57.337 3.475 59.45 3.475C61.581 3.475 62.849 5.608 62.849 8.44C62.849 11.4 61.618 13.441 59.505 13.441ZM32.683 12.78C32.003 13.055 30.809 13.239 29.762 13.239C26.749 13.239 24.985 11.382 24.985 8.44C24.985 5.112 27.153 3.622 29.67 3.622C30.974 3.622 32.334 4.009 32.701 4.211C33.473 2.446 33.289 0.037 29.468 0.037C24.581 0.037 20.356 2.979 20.356 8.716C20.356 13.074 23.056 16.88 29.174 16.88C31.121 16.88 32.664 16.512 33.271 16.2L32.683 12.78ZM13.907 0.276L13.907 16.641L18.298 16.641L18.298 2.96C18.28 0.883 17.177 0.276 13.907 0.276ZM7.514 6.73C5.438 5.958 4.574 5.645 4.574 4.818C4.574 4.082 5.309 3.604 6.65 3.604C8.286 3.604 9.884 4.211 10.196 4.376C10.821 2.703 11.17 0.018 6.706 0.018C2.572 0.018 0.129 2.262 0.129 5.149C0.129 7.576 1.984 9.084 4.74 10.077C6.595 10.702 7.312 11.143 7.312 11.952C7.312 12.78 6.577 13.276 5.071 13.276C3.435 13.276 1.837 12.78 0.827 12.246L0 15.869C0.919 16.365 2.829 16.862 4.795 16.862C9.572 16.862 11.758 14.453 11.758 11.639C11.758 9.378 10.453 7.815 7.514 6.73Z" fill="rgb(0,59,67)" fill-opacity="1.000" fill-rule="nonzero" transform="matrix(1 0 0 1 38.0297 21.935)"/><path d="M16.13 2.151C16.222 1.949 16.277 1.728 16.277 1.489C16.277 0.938 15.965 0.441 15.524 0.184C15.322 0.074 15.101 0 14.863 0L0 0.037L2.407 4.192L6.32 10.941L11.115 10.904L16.13 2.151Z" fill="rgb(0,174,156)" fill-opacity="1.000" fill-rule="nonzero" transform="matrix(1 0 0 1 20.981 18)"/><path d="M5.052 12.908C5.181 13.092 5.346 13.239 5.548 13.368C6.026 13.644 6.595 13.625 7.055 13.368C7.257 13.258 7.422 13.092 7.551 12.89L14.991 0.018L10.196 0.018L2.388 0L0 4.156L5.052 12.908Z" fill="rgb(184,211,53)" fill-opacity="1.000" fill-rule="nonzero" transform="matrix(1 0 0 1 17.0861 28.9223)"/></svg>