<svg xmlns="http://www.w3.org/2000/svg" viewBox="0 0 60 60" width="60" height="60"><path d="M0 0L60 0L60 60L0 60L0 0Z" fill="rgb(0,59,67)" fill-opacity="1.000" fill-rule="nonzero" transform="matrix(1 0 0 1 0 0)"/><path d="M2.651 0C2.232 0.035 1.814 0.14 1.43 0.384C0.523 0.908 0 1.885 0 2.862C0 3.281 0.105 3.735 0.314 4.154L14.369 28.624L18.938 20.735L26.367 7.889L21.798 0L2.651 0Z" fill="rgb(110,187,73)" fill-opacity="1.000" fill-rule="nonzero" transform="matrix(1 0 0 1 4 7.0349)"/><path d="M30.622 4.084C30.796 3.7 30.901 3.281 30.901 2.828C30.901 1.78 30.308 0.838 29.471 0.349C29.087 0.14 28.669 0 28.215 0L0 0.07L4.569 7.959L11.998 20.77L21.1 20.7L30.622 4.084Z" fill="rgb(0,174,156)" fill-opacity="1.000" fill-rule="nonzero" transform="matrix(1 0 0 1 25.7978 7)"/><path d="M9.591 24.505C9.835 24.854 10.149 25.133 10.533 25.378C11.439 25.901 12.521 25.866 13.393 25.378C13.776 25.168 14.09 24.854 14.334 24.47L28.459 0.035L19.356 0.035L4.534 0L0 7.889L9.591 24.505Z" fill="rgb(184,211,53)" fill-opacity="1.000" fill-rule="nonzero" transform="matrix(1 0 0 1 18.4039 27.7351)"/></svg>