<svg xmlns="http://www.w3.org/2000/svg" viewBox="0 0 130 60" width="130" height="60"><path d="M0 0L130 0L130 60L0 60L0 0Z" fill="rgb(255,255,255)" fill-opacity="1.000" fill-rule="nonzero" transform="matrix(1 0 0 1 0 0)"/><path d="M15.36 7.856C15.354 8.904 15.081 9.433 14.743 9.473C14.522 9.499 14.266 9.316 14.035 8.935C13.276 7.692 12.445 6.507 11.562 5.343C11.562 5.341 11.563 5.338 11.564 5.336C11.906 3.5 12.454 1.628 13.392 0C14.565 2.356 15.374 5.234 15.36 7.856ZM10.958 7.795C11.786 8.535 12.013 9.126 11.828 9.449C11.707 9.66 11.405 9.76 10.961 9.708C9.474 9.534 7.992 9.465 6.493 9.455C6.492 9.453 6.49 9.451 6.488 9.449C5.072 7.769 3.791 5.876 2.968 3.832C5.774 4.495 8.811 5.879 10.958 7.796M8.128 11.628C9.235 11.394 9.841 11.586 9.977 11.951C10.066 12.191 9.955 12.51 9.642 12.853C8.605 13.981 7.654 15.166 6.742 16.4L6.734 16.4C4.501 16.565 2.179 16.473 0 15.932C2.22 13.971 5.229 12.239 8.129 11.629M9.394 16.355C9.879 15.327 10.396 14.94 10.752 15.048C10.986 15.119 11.157 15.401 11.22 15.854C11.419 17.284 11.707 18.687 12.059 20.091C12.058 20.093 12.056 20.096 12.054 20.098C10.839 21.817 9.536 23.472 7.901 24.818C7.708 22.04 8.213 18.861 9.394 16.355ZM13.589 18.041C13.158 17.1 13.19 16.463 13.482 16.243C13.673 16.099 13.979 16.126 14.334 16.335C15.42 16.974 16.539 17.571 17.712 18.045C17.712 18.047 17.712 18.05 17.713 18.052C18.136 19.81 18.381 21.655 18.273 23.464C16.32 22.188 14.548 20.135 13.589 18.041ZM17.283 15.724C16.39 15.527 15.962 15.128 15.99 14.765C16.008 14.526 16.216 14.297 16.582 14.135C17.705 13.639 18.814 13.092 19.858 12.438C19.86 12.439 19.862 12.44 19.863 12.441C21.246 13.145 22.576 14.039 23.645 15.17C21.701 15.925 19.295 16.168 17.283 15.724ZM18.015 11.354C17.308 11.971 16.763 12.075 16.525 11.825C16.369 11.661 16.338 11.344 16.455 10.933C16.83 9.631 17.122 8.316 17.364 6.981C17.366 6.981 17.368 6.98 17.37 6.979C18.796 6.313 20.227 5.703 21.81 5.538C21.062 7.668 19.707 9.879 18.015 11.355" fill="rgb(0,110,67)" fill-opacity="1.000" fill-rule="nonzero" transform="matrix(1 0 0 1 13.1237 16.8395)"/><path d="M13.516 0.119C12.579 1.746 12.031 3.618 11.689 5.454C11.689 5.456 11.688 5.459 11.687 5.461C11.452 5.156 11.14 4.789 10.869 4.454C9.846 3.183 8.714 1.994 7.569 0.826C9.448 0.074 11.512 -0.172 13.516 0.119ZM0 10.078C1.751 9.864 3.511 9.669 5.254 9.61C5.704 9.595 6.215 9.572 6.619 9.572C6.617 9.57 6.616 9.567 6.613 9.566C5.198 7.886 3.917 5.993 3.094 3.95C1.532 5.67 0.466 7.807 0 10.079M3.451 22.021C4.274 20.524 5.143 19.042 6.092 17.644C6.344 17.272 6.628 16.846 6.866 16.517C6.863 16.517 6.861 16.517 6.858 16.517C4.626 16.682 2.304 16.591 0.125 16.049C0.682 18.289 1.824 20.374 3.451 22.021ZM13.963 25.4C13.433 24.067 12.924 22.726 12.52 21.373C12.407 20.998 12.275 20.561 12.183 20.207C12.182 20.209 12.18 20.211 12.179 20.213C10.964 21.932 9.661 23.587 8.026 24.934C10 25.511 11.916 25.782 13.963 25.4ZM22.157 19.578C21.019 19.29 19.884 18.964 18.795 18.535C18.485 18.413 18.124 18.285 17.837 18.162C17.837 18.164 17.837 18.167 17.838 18.169C18.261 19.927 18.506 21.771 18.398 23.581C19.932 22.548 21.218 21.169 22.157 19.579M23.684 9.895C22.77 10.644 21.83 11.37 20.837 12.005C20.559 12.182 20.244 12.397 19.981 12.556C19.983 12.556 19.984 12.558 19.986 12.559C21.369 13.263 22.698 14.156 23.767 15.287C24.021 13.417 24 11.755 23.684 9.895ZM18.032 1.776C17.949 3.177 17.847 4.582 17.656 5.952C17.604 6.323 17.546 6.756 17.488 7.099C17.49 7.099 17.492 7.096 17.494 7.096C18.92 6.431 20.351 5.821 21.934 5.656C20.94 4.095 19.607 2.755 18.033 1.777" fill="rgb(61,174,43)" fill-opacity="1.000" fill-rule="nonzero" transform="matrix(1 0 0 1 13 16.7215)"/><path d="M68.734 0.022L66.306 17.12L63.217 17.12L63.217 15.209C61.686 16.668 60.096 17.406 58.485 17.406C57.353 17.406 56.517 17.081 55.929 16.411C55.02 15.377 54.752 13.549 55.113 10.826C55.825 5.721 57.735 4.695 60.588 4.695C61.716 4.695 63.007 4.796 64.156 4.966L64.858 0.022L68.734 0.022ZM62.071 7.512C59.919 7.512 59.459 7.784 59.034 10.918C58.816 12.525 58.752 13.527 59.072 13.891C59.204 14.042 59.427 14.104 59.768 14.09C60.944 14.067 61.879 13.448 63.084 12.385L63.765 7.512L62.07 7.512L62.071 7.512ZM27.167 4.695C24.975 4.695 23.474 5.149 22.444 6.124C21.427 7.087 20.827 8.559 20.497 10.896C20.166 13.218 20.449 14.856 21.361 15.905C22.241 16.915 23.733 17.406 25.923 17.406C27 17.406 28.583 17.309 30.006 16.842L30.106 16.81L30.508 13.954L30.251 13.996C29.261 14.137 28.013 14.209 26.544 14.209C25.528 14.209 25.023 14.085 24.74 13.765C24.39 13.37 24.324 12.599 24.512 11.107C24.85 8.34 25.712 7.894 27.645 7.894C28.428 7.894 31.351 7.944 31.351 7.944L31.731 5.234C31.731 5.234 30.093 4.696 27.166 4.696M53.457 6.039C54.045 6.716 54.243 7.665 54.061 8.942C53.684 11.516 51.874 12.155 49.075 12.353L45.748 12.603C45.837 13.997 46.566 14.258 47.939 14.258C49.123 14.258 51.975 14.119 52.44 14.001L52.628 13.953L52.649 14.145C52.765 15.155 53.102 16.271 53.105 16.282L53.149 16.427L53.008 16.486C51.495 17.12 49.109 17.408 47.533 17.408C45.298 17.408 43.761 16.903 42.834 15.863C41.89 14.803 41.564 13.149 41.841 10.806C42.396 6.238 44.164 4.697 48.847 4.697C51.162 4.697 52.669 5.137 53.456 6.04M48.521 9.944C49.65 9.853 50.174 9.633 50.306 8.565C50.339 8.193 50.3 7.966 50.181 7.836C50.005 7.644 49.588 7.606 48.974 7.606C48.861 7.606 48.739 7.607 48.611 7.609C46.796 7.609 46.348 8.226 45.992 10.184L48.522 9.944L48.521 9.944ZM42.269 5.032L41.521 5.032C40.102 5.032 38.712 5.733 36.921 7.364L36.921 5.032L33.855 5.032L32.158 17.123L36.039 17.123L36.98 10.169C37.468 9.547 38.828 8.816 39.839 8.816L40.666 8.816L40.696 8.683C40.699 8.668 41.049 7.113 42.119 5.285L42.268 5.032L42.269 5.032ZM1.534 4.484C1.21 6.98 2.084 8.454 4.46 9.418L7.596 10.662C8.593 11.025 8.812 11.211 8.684 12.193C8.491 13.46 7.996 13.799 5.803 13.799L0.474 13.799L0 17.12L5.958 17.12C10.6 17.12 12.159 16.029 12.63 12.45C12.92 10.191 12.528 8.57 9.677 7.468L6.712 6.343C5.563 5.914 5.352 5.743 5.504 4.74C5.679 3.623 6.092 3.381 6.952 3.321L13.311 3.321L13.785 0L8.11 0C4.247 0 2.055 0.715 1.535 4.483M13.814 17.122L17.67 17.122L19.367 5.031L15.512 5.031L13.814 17.122ZM19.607 3.321L20.073 0L16.218 0L15.752 3.321L19.607 3.321ZM68.669 17.122L72.524 17.122L74.221 5.031L70.366 5.031L68.669 17.122ZM74.462 3.321L74.928 0L71.072 0L70.606 3.321L74.462 3.321Z" fill="rgb(61,174,43)" fill-opacity="1.000" fill-rule="nonzero" transform="matrix(1 0 0 1 42.0725 20.7348)"/></svg>