<svg xmlns="http://www.w3.org/2000/svg" viewBox="0 0 60 60" width="60" height="60"><path d="M0 0L60 0L60 60L0 60L0 0Z" fill="rgb(235,127,2)" fill-opacity="1.000" fill-rule="nonzero" transform="matrix(1 0 0 1 0 0)"/><path d="M24.201 2.249C24.81 2.249 25.306 1.754 25.306 1.144C25.306 0.535 24.81 0.042 24.201 0.042C23.592 0.042 23.098 0.535 23.096 1.144C23.096 1.754 23.592 2.249 24.201 2.249ZM28.608 11.989L28.616 11.989C29.041 11.989 29.418 11.881 29.711 11.742C30.005 11.601 30.212 11.44 30.318 11.295C30.382 11.199 30.424 11.085 30.424 10.963C30.424 10.872 30.403 10.778 30.359 10.685C30.252 10.472 30.023 10.368 29.822 10.364C29.785 10.364 29.748 10.368 29.713 10.376C29.603 10.407 29.526 10.445 29.449 10.47C29.371 10.496 29.288 10.515 29.145 10.515C28.91 10.515 28.769 10.424 28.676 10.331C28.66 10.312 28.517 10.134 28.463 9.91C28.376 9.541 28.369 9.014 28.365 8.645C28.372 8.511 28.372 1.067 28.372 0.866C28.372 0.591 28.231 0.369 28.034 0.238C27.837 0.104 27.588 0.044 27.341 0.044C27.091 0.044 26.838 0.106 26.639 0.238C26.438 0.367 26.289 0.582 26.291 0.854L26.291 9.665C26.291 10.157 26.43 10.733 26.794 11.193C27.157 11.653 27.75 11.989 28.608 11.989M32.867 4.732C33.39 3.986 33.937 3.897 34.194 3.895C34.615 3.899 35.042 4.172 35.164 4.827C35.185 4.937 35.193 5.045 35.193 5.149C35.193 5.601 35.019 5.992 34.758 6.291C34.134 6.983 33.266 7.18 32.347 7.277C32.347 7.197 32.347 7.114 32.347 7.031C32.347 6.222 32.457 5.31 32.867 4.732ZM31.489 10.934C32.173 11.583 33.106 11.978 34.273 11.978L34.278 11.978C34.912 11.978 35.501 11.869 35.943 11.686C36.162 11.593 36.347 11.483 36.484 11.352C36.618 11.222 36.71 11.062 36.71 10.884C36.71 10.857 36.71 10.828 36.701 10.799C36.658 10.496 36.409 10.291 36.127 10.297C36.056 10.297 35.986 10.308 35.915 10.331C35.569 10.44 35.236 10.501 34.827 10.501C34.711 10.501 34.593 10.496 34.465 10.486C33.602 10.418 33.094 9.9 32.788 9.369C32.636 9.106 32.537 8.84 32.479 8.637C32.452 8.548 32.433 8.469 32.421 8.409C33.6 8.359 34.62 8.223 35.584 7.713C36.077 7.437 36.687 6.991 37.002 6.372C37.199 5.97 37.302 5.507 37.302 5.089C37.302 4.956 37.292 4.827 37.271 4.707C37.07 3.571 36.015 2.709 34.381 2.713C33.246 2.713 31.784 3.161 30.893 4.539C30.551 5.076 30.091 6.106 30.091 7.408C30.091 7.719 30.118 8.044 30.178 8.382C30.375 9.385 30.808 10.283 31.49 10.934M11.281 11.657C11.477 11.792 11.726 11.852 11.973 11.852C12.224 11.852 12.477 11.79 12.678 11.657C12.877 11.529 13.026 11.311 13.024 11.042C13.024 11.042 13.024 6.222 13.024 6.2C13.036 5.827 13.136 5.327 13.357 4.935C13.581 4.541 13.903 4.264 14.408 4.262C14.641 4.264 14.8 4.336 14.931 4.452C15.126 4.628 15.24 4.923 15.3 5.221C15.358 5.52 15.364 5.816 15.364 5.984C15.364 6.023 15.364 10.899 15.364 11.029C15.364 11.309 15.515 11.531 15.722 11.659C15.932 11.792 16.193 11.852 16.454 11.852C16.719 11.852 16.987 11.79 17.2 11.659C17.41 11.531 17.571 11.315 17.569 11.042L17.569 6.195C17.584 5.824 17.683 5.325 17.903 4.935C18.129 4.541 18.45 4.264 18.954 4.262C19.186 4.264 19.348 4.336 19.478 4.452C19.671 4.628 19.787 4.925 19.845 5.223C19.905 5.522 19.912 5.816 19.912 5.984C19.912 6.023 19.912 10.718 19.912 11.029C19.912 11.309 20.065 11.531 20.272 11.659C20.479 11.792 20.743 11.852 21.004 11.852C21.269 11.852 21.537 11.79 21.748 11.659C21.959 11.531 22.121 11.315 22.119 11.042L22.119 6.287C22.119 5.082 21.883 4.185 21.441 3.578C20.998 2.97 20.343 2.674 19.572 2.676C18.827 2.676 18.26 3.035 17.862 3.445C17.588 3.727 17.391 4.032 17.26 4.272C17.076 3.789 16.815 3.412 16.481 3.146C16.081 2.829 15.582 2.676 15.022 2.676C14.068 2.678 13.416 3.258 13.015 3.793L13.015 3.745C13.015 3.468 12.877 3.248 12.68 3.117C12.483 2.983 12.236 2.923 11.989 2.923C11.737 2.923 11.484 2.985 11.285 3.117C11.084 3.246 10.936 3.462 10.936 3.733C10.936 3.733 10.936 10.828 10.936 11.029C10.936 11.305 11.075 11.527 11.272 11.657M24.896 3.117C24.7 2.983 24.453 2.923 24.204 2.923C23.953 2.923 23.701 2.985 23.502 3.117C23.3 3.246 23.153 3.462 23.153 3.733C23.153 3.733 23.153 10.828 23.153 11.029C23.153 11.305 23.292 11.527 23.489 11.657C23.686 11.792 23.935 11.852 24.181 11.852C24.432 11.852 24.685 11.79 24.884 11.657C25.085 11.529 25.234 11.311 25.232 11.042C25.232 11.042 25.232 3.947 25.232 3.745C25.232 3.468 25.093 3.248 24.896 3.117ZM46.49 6.879C46.482 6.83 46.449 6.788 46.401 6.774C46.354 6.759 46.302 6.772 46.267 6.809C46.267 6.809 46.237 6.842 46.175 6.904C46.115 6.967 46.022 7.06 45.9 7.176C45.653 7.412 45.282 7.75 44.791 8.154C44.443 8.442 44.032 8.764 43.562 9.108C43.551 8.971 43.53 8.842 43.502 8.722C43.377 8.216 43.081 7.833 42.72 7.526C42.175 7.066 41.476 6.763 40.904 6.434C40.616 6.268 40.363 6.098 40.175 5.907C39.986 5.715 39.866 5.507 39.829 5.25C39.82 5.203 39.818 5.153 39.818 5.103C39.818 4.838 39.92 4.56 40.135 4.351C40.251 4.239 40.597 4.013 41.086 4.013C41.694 4.013 42.208 4.278 42.496 4.278C42.821 4.284 43.103 4.094 43.188 3.779C43.205 3.716 43.213 3.652 43.213 3.59C43.213 3.231 42.915 2.898 42.508 2.796C42.508 2.796 42.142 2.672 41.366 2.672C40.286 2.674 39.401 2.939 38.78 3.406C38.158 3.872 37.807 4.543 37.807 5.315C37.807 5.526 37.834 5.746 37.886 5.97C38.12 6.921 39.057 7.437 39.922 7.899C40.357 8.129 40.782 8.347 41.099 8.581C41.42 8.817 41.623 9.062 41.667 9.348C41.673 9.398 41.677 9.446 41.677 9.493C41.677 9.754 41.571 9.997 41.347 10.186C41.122 10.374 40.765 10.507 40.261 10.515L40.214 10.515C39.664 10.517 39.194 10.358 38.885 10.223C38.75 10.159 38.611 10.127 38.481 10.127C38.153 10.123 37.88 10.347 37.836 10.673C37.831 10.704 37.83 10.735 37.83 10.766C37.83 11 37.954 11.193 38.124 11.342C38.381 11.566 38.746 11.717 39.092 11.819C35.274 13.728 29.972 15.452 23.267 15.452C16.497 15.452 11.156 13.695 7.331 11.763C8.119 11.614 8.755 11.297 9.23 10.865C9.901 10.258 10.243 9.431 10.241 8.573C10.241 8.378 10.225 8.179 10.189 7.98C10.069 7.321 9.711 6.799 9.248 6.372C8.556 5.729 7.63 5.279 6.856 4.827C6.471 4.602 6.123 4.376 5.866 4.135C5.607 3.895 5.441 3.642 5.391 3.358C5.377 3.281 5.368 3.2 5.368 3.119C5.368 2.755 5.509 2.365 5.82 2.067C6.129 1.768 6.612 1.552 7.323 1.55C7.708 1.55 8.16 1.615 8.682 1.766C8.834 1.809 8.973 1.832 9.101 1.832C9.46 1.839 9.727 1.64 9.835 1.356C9.874 1.254 9.895 1.152 9.895 1.055C9.895 0.81 9.767 0.605 9.586 0.46C9.406 0.315 9.174 0.218 8.929 0.166C8.442 0.068 7.914 0.002 7.358 0C7.353 0 7.348 0 7.344 0C5.86 0 4.782 0.417 4.077 1.038C3.37 1.658 3.043 2.479 3.043 3.263C3.043 3.437 3.059 3.609 3.09 3.777C3.308 4.921 4.255 5.652 5.221 6.245C6.191 6.836 7.203 7.315 7.586 7.856C7.796 8.144 7.895 8.492 7.895 8.828C7.895 9.17 7.789 9.495 7.597 9.727C7.232 10.167 6.544 10.463 5.804 10.463C5.335 10.463 4.85 10.347 4.407 10.084C4.382 10.067 4.315 10.032 4.309 10.028C3.246 9.338 2.39 8.687 1.743 8.154C1.252 7.75 0.883 7.412 0.636 7.176C0.512 7.06 0.419 6.967 0.359 6.904C0.296 6.842 0.267 6.809 0.267 6.809C0.232 6.772 0.18 6.759 0.133 6.774C0.087 6.788 0.052 6.83 0.046 6.879C0.019 7.064 0 7.296 0 7.566C0 7.586 0 7.607 0 7.628L0 7.646C0.013 8.345 0.249 8.884 0.885 9.473C1.038 9.628 9.574 18.307 23.267 18.309C36.961 18.307 45.495 9.628 45.648 9.473C46.285 8.884 46.521 8.345 46.533 7.646L46.533 7.566C46.533 7.296 46.515 7.064 46.49 6.879" fill="rgb(255,255,255)" fill-opacity="1.000" fill-rule="nonzero" transform="matrix(1 0 0 1 7 21)"/></svg>