<svg xmlns="http://www.w3.org/2000/svg" viewBox="0 0 130 60" width="130" height="60"><path d="M0 0L130 0L130 60L0 60L0 0Z" fill="rgb(255,255,255)" fill-opacity="1.000" fill-rule="nonzero" transform="matrix(1 0 0 1 0 0)"/><path d="M49.65 4.614C50.9 4.614 51.917 3.598 51.917 2.347C51.917 1.097 50.9 0.085 49.65 0.085C48.4 0.085 47.388 1.097 47.383 2.347C47.383 3.598 48.4 4.614 49.65 4.614ZM58.691 24.596L58.708 24.596C59.58 24.596 60.354 24.375 60.953 24.09C61.557 23.801 61.983 23.469 62.199 23.172C62.331 22.976 62.416 22.742 62.416 22.491C62.416 22.304 62.374 22.113 62.284 21.921C62.063 21.483 61.596 21.271 61.183 21.262C61.107 21.262 61.03 21.271 60.958 21.288C60.732 21.351 60.575 21.428 60.418 21.479C60.256 21.534 60.086 21.573 59.793 21.573C59.312 21.573 59.023 21.385 58.831 21.194C58.798 21.156 58.504 20.79 58.393 20.331C58.215 19.574 58.202 18.494 58.194 17.737C58.207 17.46 58.207 2.19 58.207 1.778C58.207 1.212 57.917 0.757 57.513 0.489C57.11 0.213 56.599 0.089 56.093 0.089C55.579 0.089 55.06 0.217 54.652 0.489C54.239 0.753 53.933 1.195 53.937 1.752L53.937 19.829C53.937 20.837 54.222 22.019 54.971 22.963C55.715 23.907 56.931 24.596 58.691 24.596M67.43 9.708C68.502 8.177 69.624 7.995 70.152 7.99C71.015 7.999 71.891 8.56 72.142 9.904C72.184 10.129 72.202 10.35 72.202 10.563C72.202 11.49 71.844 12.294 71.309 12.906C70.029 14.326 68.247 14.73 66.363 14.93C66.363 14.764 66.363 14.594 66.363 14.424C66.363 12.766 66.588 10.895 67.43 9.708ZM64.603 22.432C66.006 23.763 67.919 24.575 70.314 24.575L70.324 24.575C71.626 24.575 72.833 24.349 73.739 23.975C74.19 23.784 74.568 23.558 74.849 23.291C75.125 23.023 75.312 22.695 75.312 22.329C75.312 22.274 75.312 22.215 75.295 22.155C75.206 21.534 74.695 21.113 74.117 21.126C73.972 21.126 73.828 21.147 73.683 21.194C72.973 21.419 72.288 21.543 71.451 21.543C71.213 21.543 70.97 21.534 70.707 21.513C68.938 21.373 67.896 20.31 67.266 19.221C66.956 18.681 66.752 18.137 66.633 17.72C66.577 17.537 66.539 17.375 66.514 17.252C68.933 17.15 71.026 16.869 73.003 15.823C74.015 15.258 75.265 14.343 75.912 13.072C76.316 12.247 76.528 11.299 76.528 10.44C76.528 10.168 76.506 9.904 76.464 9.657C76.051 7.327 73.887 5.558 70.536 5.566C68.206 5.566 65.208 6.485 63.379 9.313C62.678 10.414 61.734 12.528 61.734 15.198C61.734 15.836 61.789 16.504 61.912 17.197C62.316 19.255 63.205 21.096 64.604 22.432M23.143 23.916C23.547 24.192 24.057 24.315 24.563 24.315C25.078 24.315 25.597 24.188 26.009 23.916C26.417 23.652 26.723 23.205 26.719 22.653C26.719 22.653 26.719 12.766 26.719 12.719C26.744 11.954 26.949 10.929 27.404 10.125C27.863 9.317 28.522 8.747 29.56 8.743C30.036 8.747 30.363 8.896 30.631 9.134C31.031 9.496 31.265 10.1 31.388 10.712C31.507 11.324 31.52 11.932 31.52 12.277C31.52 12.358 31.52 22.359 31.52 22.627C31.52 23.201 31.831 23.656 32.256 23.92C32.685 24.192 33.221 24.315 33.757 24.315C34.301 24.315 34.85 24.188 35.288 23.92C35.717 23.656 36.049 23.214 36.045 22.653L36.045 12.711C36.074 11.949 36.279 10.925 36.729 10.125C37.193 9.317 37.852 8.747 38.885 8.743C39.362 8.747 39.693 8.896 39.961 9.134C40.357 9.496 40.595 10.104 40.714 10.716C40.837 11.328 40.85 11.932 40.85 12.277C40.85 12.358 40.85 21.989 40.85 22.627C40.85 23.201 41.165 23.656 41.59 23.92C42.015 24.192 42.555 24.315 43.091 24.315C43.635 24.315 44.184 24.188 44.618 23.92C45.051 23.656 45.383 23.214 45.379 22.653L45.379 12.898C45.379 10.427 44.894 8.586 43.988 7.34C43.078 6.094 41.735 5.486 40.153 5.49C38.626 5.49 37.461 6.226 36.644 7.068C36.083 7.646 35.679 8.271 35.411 8.764C35.033 7.773 34.497 7 33.812 6.455C32.992 5.805 31.967 5.49 30.819 5.49C28.862 5.494 27.523 6.685 26.702 7.782L26.702 7.684C26.702 7.114 26.417 6.664 26.013 6.396C25.609 6.119 25.103 5.996 24.597 5.996C24.078 5.996 23.56 6.123 23.151 6.396C22.739 6.659 22.437 7.102 22.437 7.659C22.437 7.659 22.437 22.215 22.437 22.627C22.437 23.193 22.722 23.648 23.126 23.916M51.077 6.396C50.673 6.119 50.167 5.996 49.657 5.996C49.142 5.996 48.623 6.123 48.215 6.396C47.803 6.659 47.501 7.102 47.501 7.659C47.501 7.659 47.501 22.215 47.501 22.627C47.501 23.193 47.786 23.648 48.19 23.916C48.594 24.192 49.104 24.315 49.61 24.315C50.125 24.315 50.643 24.188 51.052 23.916C51.464 23.652 51.77 23.205 51.766 22.653C51.766 22.653 51.766 8.097 51.766 7.684C51.766 7.114 51.481 6.664 51.077 6.396ZM95.379 14.114C95.361 14.012 95.294 13.927 95.196 13.897C95.098 13.867 94.992 13.893 94.919 13.969C94.919 13.969 94.86 14.037 94.732 14.165C94.609 14.292 94.418 14.484 94.167 14.722C93.661 15.207 92.9 15.9 91.892 16.729C91.177 17.32 90.335 17.979 89.37 18.685C89.348 18.404 89.306 18.141 89.247 17.894C88.992 16.857 88.383 16.07 87.644 15.441C86.525 14.496 85.092 13.876 83.918 13.199C83.327 12.859 82.809 12.511 82.422 12.119C82.035 11.724 81.788 11.299 81.711 10.771C81.694 10.674 81.69 10.571 81.69 10.469C81.69 9.925 81.898 9.355 82.34 8.926C82.578 8.696 83.288 8.233 84.292 8.233C85.538 8.233 86.593 8.777 87.184 8.777C87.851 8.79 88.43 8.399 88.604 7.752C88.638 7.625 88.655 7.493 88.655 7.365C88.655 6.63 88.043 5.945 87.209 5.737C87.209 5.737 86.457 5.481 84.866 5.481C82.651 5.486 80.835 6.03 79.559 6.987C78.284 7.944 77.565 9.321 77.565 10.903C77.565 11.337 77.62 11.788 77.727 12.247C78.207 14.199 80.129 15.258 81.902 16.206C82.795 16.678 83.667 17.124 84.318 17.605C84.977 18.09 85.394 18.592 85.483 19.178C85.496 19.28 85.504 19.378 85.504 19.476C85.504 20.012 85.287 20.509 84.828 20.896C84.364 21.283 83.633 21.555 82.599 21.572L82.501 21.572C81.374 21.577 80.409 21.249 79.775 20.973C79.499 20.841 79.214 20.777 78.946 20.777C78.274 20.769 77.713 21.228 77.624 21.896C77.613 21.96 77.611 22.023 77.611 22.087C77.611 22.568 77.866 22.963 78.215 23.269C78.742 23.728 79.49 24.039 80.2 24.247C72.367 28.164 61.49 31.702 47.733 31.702C33.845 31.702 22.886 28.096 15.041 24.132C16.657 23.826 17.962 23.176 18.936 22.291C20.314 21.045 21.015 19.348 21.011 17.588C21.011 17.188 20.977 16.78 20.904 16.372C20.658 15.02 19.922 13.948 18.974 13.072C17.553 11.754 15.653 10.831 14.067 9.904C13.276 9.44 12.561 8.977 12.034 8.484C11.502 7.99 11.162 7.471 11.06 6.889C11.031 6.732 11.013 6.566 11.013 6.4C11.013 5.651 11.302 4.852 11.94 4.24C12.574 3.627 13.565 3.185 15.023 3.181C15.814 3.181 16.741 3.313 17.813 3.623C18.123 3.712 18.408 3.759 18.672 3.759C19.407 3.772 19.956 3.364 20.177 2.781C20.258 2.573 20.3 2.364 20.3 2.164C20.3 1.663 20.037 1.242 19.667 0.944C19.297 0.646 18.821 0.446 18.319 0.34C17.32 0.14 16.235 0.004 15.095 0C15.085 0 15.075 0 15.066 0C12.021 0 9.81 0.855 8.364 2.13C6.914 3.402 6.242 5.086 6.242 6.693C6.242 7.051 6.276 7.403 6.34 7.748C6.787 10.095 8.73 11.596 10.712 12.813C12.702 14.024 14.777 15.007 15.564 16.117C15.993 16.708 16.197 17.422 16.197 18.111C16.197 18.813 15.981 19.48 15.585 19.957C14.837 20.858 13.425 21.466 11.907 21.466C10.946 21.466 9.951 21.228 9.041 20.688C8.989 20.654 8.854 20.582 8.841 20.573C6.659 19.157 4.903 17.822 3.576 16.729C2.568 15.9 1.812 15.207 1.305 14.722C1.05 14.484 0.859 14.292 0.736 14.165C0.608 14.037 0.549 13.969 0.549 13.969C0.477 13.893 0.37 13.867 0.272 13.897C0.179 13.927 0.106 14.012 0.094 14.114C0.038 14.492 0 14.969 0 15.521C0 15.564 0 15.606 0 15.649L0 15.687C0.026 17.12 0.51 18.226 1.816 19.434C2.131 19.753 19.642 37.557 47.733 37.562C75.829 37.557 93.336 19.753 93.651 19.434C94.956 18.226 95.441 17.12 95.467 15.687L95.467 15.521C95.467 14.969 95.429 14.492 95.377 14.114" fill="rgb(235,127,2)" fill-opacity="1.000" fill-rule="nonzero" transform="matrix(1 0 0 1 17.5332 10.9313)"/></svg>