<svg xmlns="http://www.w3.org/2000/svg" viewBox="0 0 130 60" width="130" height="60"><path d="M0 0L130 0L130 60L0 60L0 0Z" fill="rgb(255,255,255)" fill-opacity="1.000" fill-rule="nonzero" transform="matrix(1 0 0 1 0 0)"/><path d="M7.735 2.355C6.618 1.89 5.443 1.57 4.383 1.57C2.836 1.57 2.062 1.919 2.062 2.5C2.062 4.245 8.967 2.849 8.967 6.541C8.967 8.082 7.563 9.245 4.698 9.245C3.008 9.245 1.69 8.896 0.172 8.053L0.802 6.687C2.12 7.442 3.352 7.762 4.698 7.762C6.389 7.762 7.277 7.268 7.277 6.541C7.277 4.652 0.372 6.047 0.372 2.587C0.372 1.105 1.776 0.058 4.326 0.058C5.844 0.058 7.134 0.407 8.337 1.018L7.735 2.355ZM15.413 9.303C12.662 9.303 10.371 7.442 10.371 4.652C10.371 1.89 12.662 0 15.413 0C18.192 0 20.426 1.89 20.426 4.652C20.455 7.442 18.192 9.303 15.413 9.303ZM15.413 1.512C13.408 1.512 12.032 2.878 12.032 4.652C12.032 6.454 13.35 7.82 15.413 7.82C17.476 7.82 18.765 6.454 18.765 4.652C18.794 2.878 17.476 1.512 15.413 1.512ZM27.016 9.303C24.122 9.303 21.945 7.442 21.945 4.652C21.945 1.919 24.151 0 27.016 0C28.735 0 29.938 0.494 31.055 1.308L30.196 2.587C29.394 1.977 28.391 1.512 27.073 1.512C24.953 1.512 23.635 2.878 23.635 4.622C23.635 6.425 24.953 7.762 27.073 7.762C28.391 7.762 29.451 7.326 30.253 6.716L31.113 7.995C30.024 8.838 28.735 9.303 27.016 9.303ZM32.745 0.32L34.464 0.32L34.464 9.041L32.745 9.041L32.745 0.32ZM36.756 9.041L36.756 0.32L44.778 0.32L44.778 1.773L38.475 1.773L38.475 3.808L43.345 3.808L43.345 5.262L38.475 5.262L38.475 7.588L45.064 7.588L45.064 9.041L36.756 9.041ZM51.081 1.773L51.081 9.041L49.362 9.041L49.362 1.773L45.924 1.773L45.924 0.32L54.518 0.32L54.518 1.773L51.081 1.773ZM55.951 9.041L55.951 0.32L63.686 0.32L63.686 1.773L57.383 1.773L57.383 3.808L62.254 3.808L62.254 5.262L57.383 5.262L57.383 7.588L63.972 7.588L63.972 9.041L55.951 9.041ZM5.099 19.449C5.988 19.449 6.962 19.246 7.535 18.926L7.535 16.309L9.254 16.309L9.254 19.769C8.108 20.525 6.589 20.961 5.099 20.961C2.206 20.961 0 19.1 0 16.309C0 13.577 2.206 11.687 5.071 11.687C6.732 11.687 7.993 12.152 9.081 12.995L8.222 14.274C7.42 13.664 6.417 13.228 5.099 13.228C2.979 13.17 1.662 14.565 1.662 16.309C1.662 18.17 2.979 19.449 5.099 19.449ZM11.259 20.67L11.259 11.949L19.281 11.949L19.281 13.402L12.978 13.402L12.978 15.437L17.848 15.437L17.848 16.891L12.978 16.891L12.978 19.217L19.567 19.217L19.567 20.67L11.259 20.67ZM22.432 20.67L20.999 20.67L20.999 11.949L22.632 11.949L28.276 18.577C28.19 16.92 28.133 15.583 28.133 14.274L28.133 11.949L29.852 11.949L29.852 20.67L28.133 20.67L22.518 14.1L22.432 14.129C22.489 15.437 22.432 17.734 22.432 18.461L22.432 20.67ZM32.172 20.67L32.172 11.949L39.908 11.949L39.908 13.402L33.605 13.402L33.605 15.437L38.475 15.437L38.475 16.891L33.605 16.891L33.605 19.217L40.194 19.217L40.194 20.67L32.172 20.67ZM46.096 17.472L43.632 17.472L43.632 20.67L41.913 20.67L41.913 11.949L47.471 11.949C49.304 11.949 50.45 13.112 50.45 14.769C50.45 16.338 49.333 17.24 47.958 17.443L50.536 20.699L48.531 20.699L46.096 17.472ZM47.299 16.019C48.302 16.019 48.875 15.495 48.875 14.74C48.875 13.897 48.388 13.402 47.471 13.402L43.632 13.402L43.632 16.019L47.299 16.019ZM53.831 18.635L52.828 20.67L51.081 20.67L55.292 11.949L56.982 11.949L61.193 20.67L59.474 20.67L58.472 18.635L53.831 18.635ZM54.49 17.182L57.813 17.182L56.151 13.635L54.49 17.182ZM62.54 20.67L62.54 11.949L63.972 11.949L63.972 19.217L69.702 19.217L69.702 20.67L62.54 20.67ZM70.848 20.67L70.848 11.949L78.87 11.949L78.87 13.402L72.567 13.402L72.567 15.437L77.437 15.437L77.437 16.891L72.567 16.891L72.567 19.217L79.156 19.217L79.156 20.67L70.848 20.67Z" fill="rgb(35,31,32)" fill-opacity="1.000" fill-rule="nonzero" transform="matrix(1 0 0 1 38.8438 19.0195)"/><path d="M0 0L20.914 0L20.914 10.757L0 10.757L0 0Z" fill="rgb(233,0,49)" fill-opacity="1.000" fill-rule="nonzero" transform="matrix(1 0 0 1 12 19.0483)"/><path d="M0 0L20.914 0L20.914 10.466L0 10.466L0 0Z" fill="rgb(35,31,32)" fill-opacity="1.000" fill-rule="nonzero" transform="matrix(1 0 0 1 12 29.5146)"/><path d="M0 0L13.465 0L13.465 1.163L0 1.163L0 0Z" fill="rgb(255,255,255)" fill-opacity="1.000" fill-rule="nonzero" transform="matrix(1 0 0 1 15.7241 28.9331)"/></svg>