<svg xmlns="http://www.w3.org/2000/svg" viewBox="0 0 60 60" width="60" height="60"><path d="M0 0L60 0L60 60L0 60L0 0Z" fill="rgb(35,31,32)" fill-opacity="1.000" fill-rule="nonzero" transform="matrix(1 0 0 1 0 0)"/><path d="M0 0L41 0L41 41L0 41L0 0Z" fill="rgb(217,217,217)" fill-opacity="1.000" fill-rule="nonzero" transform="matrix(1 0 0 1 10 10)"/><path d="M0 0L39.033 0L39.033 20.076L0 20.076L0 0Z" fill="rgb(233,0,49)" fill-opacity="1.000" fill-rule="nonzero" transform="matrix(1 0 0 1 10.9404 10.9321)"/><path d="M0 0L39.033 0L39.033 19.534L0 19.534L0 0Z" fill="rgb(35,31,32)" fill-opacity="1.000" fill-rule="nonzero" transform="matrix(1 0 0 1 10.9404 30.4663)"/><path d="M0 0L25.131 0L25.131 2.17L0 2.17L0 0Z" fill="rgb(255,255,255)" fill-opacity="1.000" fill-rule="nonzero" transform="matrix(1 0 0 1 17.8911 29.3809)"/></svg>