<svg xmlns="http://www.w3.org/2000/svg" viewBox="0 0 60 60" width="60" height="60"><path d="M0 0L60 0L60 60L0 60L0 0Z" fill="rgb(43,55,151)" fill-opacity="1.000" fill-rule="nonzero" transform="matrix(1 0 0 1 0 0)"/><path d="M5.634 3.472L5.148 5.9C4.934 6.884 4.341 7.541 3.13 7.541C1.739 7.541 1.372 6.679 1.677 5.465C2.109 3.744 3.513 3.231 5.634 3.472ZM7.824 0L6.346 0.094L5.878 2.472C5.313 2.452 5.135 2.434 4.471 2.434C2.39 2.434 0.575 3.308 0.095 5.359C-0.337 7.209 0.714 8.644 3.005 8.644C5.351 8.644 6.372 7.42 6.739 5.698L7.824 0Z" fill="rgb(255,255,255)" fill-opacity="1.000" fill-rule="nonzero" transform="matrix(1 0 0 1 23.5766 27.7032)"/><path d="M6.94 1.016C4.772 0.819 2.908 0.999 2.877 1.735C2.83 2.84 6.45 1.875 6.38 3.908C6.278 6.895 1.245 6.208 0 5.828L0.226 4.941C2.373 5.282 4.638 5.31 4.688 4.126C4.741 2.867 1.107 3.999 1.192 1.961C1.256 0.442 3.527 -0.376 7.245 0.17L6.94 1.016Z" fill="rgb(255,255,255)" fill-opacity="1.000" fill-rule="nonzero" transform="matrix(1 0 0 1 8.4243 30.2623)"/><path d="M5.656 3.104C5.343 4.351 4.354 5.134 3.177 5.134C1.946 5.134 1.392 4.42 1.722 3.104C2.035 1.858 3.036 1.021 4.213 1.021C5.389 1.021 5.969 1.858 5.656 3.104ZM4.402 0C2.247 0 0.514 1.247 0.088 3.104C-0.339 4.963 0.821 6.209 2.976 6.209C5.13 6.209 6.864 4.963 7.29 3.104C7.717 1.247 6.557 0 4.402 0Z" fill="rgb(255,255,255)" fill-opacity="1.000" fill-rule="nonzero" transform="matrix(1 0 0 1 15.5527 30.2058)"/><path d="M6.784 6.121L4.91 6.121C3.774 5.052 1.6 2.598 0 0L1.375 0C2.895 2.097 6.784 6.121 6.784 6.121Z" fill="rgb(255,255,255)" fill-opacity="1.000" fill-rule="nonzero" transform="matrix(1 0 0 1 38.0759 30.2628)"/><path d="M2.517 1.797L3.379 0L3.625 1.827L5.383 1.212L4.155 2.787L5.487 3.819L3.709 3.957L3.611 5.857L2.622 4.453L1.169 5.792L1.714 3.905L0 3.672L1.668 2.722L0.984 1.096L2.517 1.797Z" fill="rgb(255,255,255)" fill-opacity="1.000" fill-rule="nonzero" transform="matrix(1 0 0 1 44.306 22.4291)"/><path d="M5.745 3.154C5.427 4.42 4.423 5.216 3.228 5.216C1.978 5.216 1.414 4.491 1.75 3.154C2.068 1.888 3.083 1.038 4.279 1.038C5.475 1.038 6.063 1.888 5.745 3.154ZM4.471 0C2.283 0 0.523 1.267 0.089 3.154C-0.345 5.042 0.834 6.308 3.023 6.308C5.212 6.308 6.973 5.042 7.406 3.154C7.839 1.267 6.66 0 4.471 0Z" fill="rgb(255,255,255)" fill-opacity="1.000" fill-rule="nonzero" transform="matrix(1 0 0 1 44.7323 30.1748)"/><path d="M0 7.598C3.539 5.632 6.613 2.611 8.793 0C7.226 4.906 3.452 7.546 0 7.598Z" fill="rgb(237,28,36)" fill-opacity="1.000" fill-rule="nonzero" transform="matrix(1 0 0 1 36.6559 28.2642)"/><path d="M4.23 0.922C4.908 0.922 5.277 1.168 5.277 1.638C5.277 2.885 2.844 2.803 1.772 2.584C2.149 1.651 3.001 0.922 4.23 0.922ZM6.734 1.57C6.734 0.665 6.014 0 4.377 0C1.724 0 0 1.722 0 3.855C0 5.232 1.143 6.376 3.231 6.376C4.67 6.376 5.631 5.667 5.631 5.667C3.8 5.863 1.551 5.667 1.551 3.708C1.551 3.631 1.555 3.553 1.562 3.475C4.06 3.994 6.734 3.366 6.734 1.57Z" fill="rgb(255,255,255)" fill-opacity="1.000" fill-rule="nonzero" transform="matrix(1 0 0 1 31.0252 30.1946)"/></svg>