<svg xmlns="http://www.w3.org/2000/svg" viewBox="0 0 60 60" width="60" height="60"><path d="M0 0L60 0L60 60L0 60L0 0Z" fill="rgb(255,255,255)" fill-opacity="1.000" fill-rule="nonzero" transform="matrix(1 0 0 1 0 0)"/><path d="M12.738 24.34L15.365 24.34L21.275 13.559L18.648 13.559L12.738 24.34ZM21.686 13.545L27.596 24.326L30.223 24.326L24.312 13.545L21.686 13.545ZM10.248 24.805C9.619 24.805 9.126 25.311 9.126 25.927C9.126 26.542 9.633 27.049 10.248 27.049C10.877 27.049 11.37 26.542 11.37 25.927C11.37 25.311 10.864 24.805 10.248 24.805ZM13.231 28.157C12.601 28.157 12.109 28.663 12.109 29.279C12.109 29.908 12.615 30.4 13.231 30.4C13.86 30.4 14.352 29.894 14.352 29.279C14.366 28.649 13.86 28.157 13.231 28.157ZM33.889 25.94C33.889 25.311 33.383 24.819 32.767 24.819C32.138 24.819 31.645 25.325 31.645 25.94C31.645 26.57 32.152 27.062 32.767 27.062C33.383 27.062 33.889 26.556 33.889 25.94ZM29.785 28.239C29.155 28.239 28.663 28.745 28.663 29.361C28.663 29.99 29.169 30.483 29.785 30.483C30.414 30.483 30.907 29.976 30.907 29.361C30.92 28.745 30.414 28.239 29.785 28.239ZM25.927 30.483C25.297 30.483 24.805 30.989 24.805 31.604C24.805 32.234 25.311 32.726 25.927 32.726C26.556 32.726 27.049 32.22 27.049 31.604C27.049 30.989 26.542 30.483 25.927 30.483ZM18.142 31.604C18.142 30.975 17.636 30.483 17.02 30.483C16.391 30.483 15.898 30.989 15.898 31.604C15.898 32.234 16.405 32.726 17.02 32.726C17.636 32.74 18.142 32.234 18.142 31.604ZM1.793 16.446C1.479 16.473 1.246 16.747 1.273 17.061C1.301 17.376 1.574 17.609 1.889 17.581C2.204 17.554 2.436 17.28 2.409 16.966C2.395 16.665 2.108 16.418 1.793 16.446ZM4.297 27.432C3.982 27.459 3.75 27.733 3.777 28.047C3.804 28.362 4.078 28.595 4.393 28.567C4.707 28.54 4.94 28.266 4.913 27.952C4.885 27.637 4.612 27.404 4.297 27.432ZM8.757 32.165C8.442 32.193 8.21 32.466 8.237 32.781C8.264 33.096 8.538 33.328 8.853 33.301C9.167 33.273 9.4 33 9.373 32.685C9.359 32.37 9.085 32.138 8.757 32.165ZM14.79 35.202C14.476 35.23 14.243 35.503 14.27 35.818C14.298 36.133 14.571 36.365 14.886 36.338C15.201 36.311 15.433 36.037 15.406 35.722C15.379 35.408 15.105 35.175 14.79 35.202ZM21.467 35.969C21.152 35.996 20.919 36.27 20.947 36.584C20.974 36.899 21.248 37.132 21.562 37.104C21.877 37.077 22.11 36.803 22.082 36.489C22.055 36.174 21.781 35.941 21.467 35.969ZM28.389 35.025C28.075 35.052 27.842 35.326 27.869 35.64C27.897 35.955 28.17 36.188 28.485 36.16C28.8 36.133 29.032 35.859 29.005 35.545C28.991 35.23 28.704 34.997 28.389 35.025ZM34.272 32.165C33.957 32.193 33.725 32.466 33.752 32.781C33.78 33.096 34.053 33.328 34.368 33.301C34.683 33.273 34.915 33 34.888 32.685C34.86 32.37 34.587 32.138 34.272 32.165ZM38.732 27.432C38.417 27.459 38.185 27.733 38.212 28.047C38.24 28.362 38.513 28.595 38.828 28.567C39.143 28.54 39.375 28.266 39.348 27.952C39.334 27.651 39.047 27.404 38.732 27.432ZM41.003 21.877C40.689 21.904 40.456 22.178 40.483 22.493C40.511 22.807 40.784 23.04 41.099 23.013C41.414 22.985 41.646 22.712 41.619 22.397C41.591 22.082 41.318 21.85 41.003 21.877ZM3.777 10.987C3.804 11.302 4.078 11.534 4.393 11.507C4.707 11.479 4.94 11.206 4.913 10.891C4.885 10.577 4.612 10.344 4.297 10.371C3.982 10.385 3.75 10.672 3.777 10.987ZM8.866 6.787C9.181 6.759 9.414 6.486 9.386 6.171C9.359 5.857 9.085 5.624 8.771 5.651C8.456 5.679 8.223 5.952 8.251 6.267C8.264 6.582 8.552 6.814 8.866 6.787ZM14.626 3.914C14.941 3.886 15.173 3.613 15.146 3.298C15.119 2.984 14.845 2.751 14.53 2.778C14.216 2.806 13.983 3.079 14.01 3.394C14.038 3.709 14.311 3.941 14.626 3.914ZM4.064 7.594C4.228 7.58 4.352 7.43 4.338 7.266C4.324 7.102 4.174 6.978 4.01 6.992C3.845 7.006 3.722 7.156 3.736 7.32C3.75 7.485 3.9 7.608 4.064 7.594ZM0.329 26.98C0.494 26.966 0.617 26.816 0.603 26.652C0.589 26.488 0.439 26.365 0.275 26.378C0.11 26.392 -0.013 26.542 0.001 26.707C0.015 26.871 0.165 26.994 0.329 26.98ZM4.064 31.946C4.228 31.933 4.352 31.782 4.338 31.618C4.324 31.454 4.174 31.331 4.01 31.344C3.845 31.358 3.722 31.509 3.736 31.673C3.75 31.837 3.9 31.96 4.064 31.946ZM10.002 36.188C10.166 36.174 10.289 36.023 10.276 35.859C10.262 35.695 10.111 35.572 9.947 35.586C9.783 35.599 9.66 35.75 9.674 35.914C9.687 36.078 9.838 36.201 10.002 36.188ZM17.554 38.924C17.718 38.91 17.841 38.76 17.827 38.595C17.814 38.431 17.663 38.308 17.499 38.322C17.335 38.335 17.212 38.486 17.226 38.65C17.239 38.814 17.39 38.937 17.554 38.924ZM25.516 38.924C25.68 38.91 25.804 38.76 25.79 38.595C25.776 38.431 25.626 38.308 25.462 38.322C25.297 38.335 25.174 38.486 25.188 38.65C25.202 38.814 25.352 38.937 25.516 38.924ZM33.068 36.201C33.232 36.188 33.355 36.037 33.342 35.873C33.328 35.709 33.178 35.586 33.013 35.599C32.849 35.613 32.726 35.763 32.74 35.928C32.754 36.092 32.904 36.215 33.068 36.201ZM39.115 32.001C39.279 31.987 39.403 31.837 39.389 31.673C39.375 31.509 39.225 31.385 39.06 31.399C38.896 31.413 38.773 31.563 38.787 31.727C38.801 31.892 38.951 32.015 39.115 32.001ZM42.741 26.98C42.905 26.966 43.028 26.816 43.014 26.652C43.001 26.488 42.85 26.365 42.686 26.378C42.522 26.392 42.399 26.542 42.412 26.707C42.426 26.871 42.577 26.994 42.741 26.98ZM10.002 3.353C10.166 3.339 10.289 3.189 10.276 3.025C10.262 2.86 10.111 2.737 9.947 2.751C9.783 2.765 9.66 2.915 9.674 3.079C9.687 3.243 9.838 3.367 10.002 3.353ZM17.554 0.603C17.718 0.589 17.841 0.439 17.827 0.275C17.814 0.11 17.663 -0.013 17.499 0.001C17.335 0.015 17.212 0.165 17.226 0.329C17.239 0.507 17.39 0.63 17.554 0.603ZM9.017 18.334C9.646 18.334 10.139 17.828 10.139 17.212C10.139 16.583 9.633 16.09 9.017 16.09C8.388 16.09 7.895 16.596 7.895 17.212C7.881 17.828 8.388 18.334 9.017 18.334ZM10.248 14.134C10.877 14.134 11.37 13.627 11.37 13.012C11.37 12.382 10.864 11.89 10.248 11.89C9.633 11.89 9.126 12.396 9.126 13.012C9.113 13.627 9.619 14.134 10.248 14.134ZM13.231 10.782C13.86 10.782 14.352 10.276 14.352 9.66C14.352 9.031 13.846 8.538 13.231 8.538C12.601 8.538 12.109 9.044 12.109 9.66C12.109 10.276 12.615 10.782 13.231 10.782ZM17.007 8.456C17.636 8.456 18.128 7.95 18.128 7.334C18.128 6.705 17.622 6.212 17.007 6.212C16.377 6.212 15.885 6.718 15.885 7.334C15.885 7.95 16.391 8.456 17.007 8.456ZM21.508 7.786C22.137 7.786 22.63 7.279 22.63 6.664C22.63 6.034 22.123 5.542 21.508 5.542C20.878 5.542 20.386 6.048 20.386 6.664C20.386 7.279 20.892 7.786 21.508 7.786ZM21.508 33.451C22.137 33.451 22.63 32.945 22.63 32.329C22.63 31.7 22.123 31.208 21.508 31.208C20.878 31.208 20.386 31.714 20.386 32.329C20.386 32.959 20.892 33.451 21.508 33.451ZM8.784 8.771C8.292 8.771 7.895 9.167 7.895 9.66C7.895 10.152 8.292 10.549 8.784 10.549C9.277 10.549 9.674 10.152 9.674 9.66C9.674 9.167 9.277 8.771 8.784 8.771ZM5.966 13.408C5.473 13.408 5.077 13.805 5.077 14.298C5.077 14.79 5.473 15.187 5.966 15.187C6.459 15.187 6.855 14.79 6.855 14.298C6.855 13.805 6.459 13.408 5.966 13.408ZM4.885 18.621C4.393 18.621 3.996 19.018 3.996 19.51C3.996 20.003 4.393 20.4 4.885 20.4C5.378 20.4 5.774 20.003 5.774 19.51C5.774 19.018 5.378 18.621 4.885 18.621ZM13.094 5.282C12.601 5.282 12.205 5.679 12.205 6.171C12.205 6.664 12.601 7.06 13.094 7.06C13.586 7.06 13.983 6.664 13.983 6.171C13.983 5.679 13.586 5.282 13.094 5.282ZM18.717 3.394C18.224 3.394 17.827 3.791 17.827 4.283C17.827 4.776 18.224 5.172 18.717 5.172C19.209 5.172 19.606 4.762 19.606 4.27C19.606 3.777 19.209 3.394 18.717 3.394ZM21.508 1.821C21.193 1.821 20.933 2.081 20.933 2.395C20.933 2.71 21.193 2.97 21.508 2.97C21.822 2.97 22.082 2.71 22.082 2.395C22.082 2.081 21.822 1.821 21.508 1.821ZM38.718 10.358C38.404 10.33 38.13 10.563 38.103 10.877C38.075 11.192 38.308 11.466 38.623 11.493C38.937 11.52 39.211 11.288 39.238 10.973C39.279 10.672 39.047 10.385 38.718 10.358ZM34.778 6.267C34.806 5.952 34.573 5.679 34.258 5.651C33.944 5.624 33.67 5.857 33.643 6.171C33.615 6.486 33.848 6.759 34.163 6.787C34.477 6.814 34.751 6.582 34.778 6.267ZM29.019 3.394C29.046 3.079 28.813 2.792 28.499 2.765C28.184 2.737 27.91 2.97 27.883 3.284C27.856 3.599 28.088 3.873 28.403 3.9C28.704 3.941 28.991 3.709 29.019 3.394ZM39.279 7.32C39.293 7.156 39.17 7.006 39.006 6.992C38.842 6.978 38.691 7.102 38.677 7.266C38.664 7.43 38.787 7.58 38.951 7.594C39.129 7.608 39.266 7.485 39.279 7.32ZM33.342 3.079C33.355 2.915 33.232 2.765 33.068 2.751C32.904 2.737 32.754 2.86 32.74 3.025C32.726 3.189 32.849 3.339 33.013 3.353C33.191 3.367 33.328 3.243 33.342 3.079ZM25.79 0.329C25.804 0.165 25.68 0.015 25.516 0.001C25.352 -0.013 25.202 0.11 25.188 0.275C25.174 0.439 25.297 0.589 25.462 0.603C25.626 0.617 25.776 0.507 25.79 0.329ZM33.903 12.998C33.903 12.369 33.397 11.876 32.781 11.876C32.152 11.876 31.659 12.382 31.659 12.998C31.659 13.627 32.165 14.12 32.781 14.12C33.397 14.134 33.903 13.627 33.903 12.998ZM30.92 9.66C30.92 9.031 30.414 8.538 29.798 8.538C29.169 8.538 28.677 9.044 28.677 9.66C28.677 10.289 29.183 10.782 29.798 10.782C30.414 10.782 30.92 10.276 30.92 9.66ZM27.144 7.334C27.144 6.705 26.638 6.212 26.022 6.212C25.393 6.212 24.901 6.718 24.901 7.334C24.901 7.963 25.407 8.456 26.022 8.456C26.638 8.456 27.144 7.95 27.144 7.334ZM33.342 9.66C33.342 10.152 33.739 10.549 34.231 10.549C34.724 10.549 35.12 10.152 35.12 9.66C35.12 9.167 34.724 8.771 34.231 8.771C33.739 8.771 33.342 9.167 33.342 9.66ZM33.41 29.279C33.41 29.771 33.807 30.168 34.299 30.168C34.792 30.168 35.189 29.771 35.189 29.279C35.189 28.786 34.792 28.389 34.299 28.389C33.807 28.389 33.41 28.786 33.41 29.279ZM29.046 32.781C29.046 33.273 29.443 33.67 29.935 33.67C30.428 33.67 30.824 33.273 30.824 32.781C30.824 32.288 30.414 31.905 29.922 31.905C29.429 31.905 29.046 32.302 29.046 32.781ZM23.546 34.518C23.546 35.011 23.943 35.408 24.435 35.408C24.928 35.408 25.325 35.011 25.325 34.518C25.325 34.026 24.928 33.629 24.435 33.629C23.943 33.629 23.546 34.026 23.546 34.518ZM17.841 34.587C17.841 35.079 18.238 35.476 18.73 35.476C19.223 35.476 19.62 35.079 19.62 34.587C19.62 34.094 19.223 33.698 18.73 33.698C18.238 33.698 17.841 34.094 17.841 34.587ZM12.273 32.904C12.273 33.397 12.67 33.793 13.162 33.793C13.655 33.793 14.052 33.397 14.052 32.904C14.052 32.412 13.655 32.015 13.162 32.015C12.67 32.015 12.273 32.412 12.273 32.904ZM7.909 29.238C7.909 29.73 8.305 30.127 8.798 30.127C9.29 30.127 9.687 29.73 9.687 29.238C9.687 28.745 9.29 28.348 8.798 28.348C8.305 28.348 7.909 28.759 7.909 29.238ZM29.032 6.158C29.032 6.65 29.429 7.047 29.922 7.047C30.414 7.047 30.811 6.65 30.811 6.158C30.811 5.665 30.414 5.282 29.922 5.282C29.429 5.282 29.032 5.679 29.032 6.158ZM23.423 4.27C23.423 4.762 23.82 5.159 24.312 5.159C24.805 5.159 25.202 4.762 25.202 4.27C25.202 3.777 24.805 3.38 24.312 3.38C23.82 3.38 23.423 3.791 23.423 4.27ZM42.741 14.093C42.905 14.079 43.028 13.928 43.014 13.764C43.001 13.6 42.85 13.477 42.686 13.491C42.522 13.504 42.399 13.655 42.412 13.819C42.426 13.983 42.577 14.106 42.741 14.093ZM6.773 21.965C6.773 21.349 7.266 20.843 7.895 20.843C8.511 20.843 9.017 21.349 9.017 21.965C9.017 22.581 8.524 23.087 7.895 23.087C7.279 23.087 6.773 22.581 6.773 21.965ZM35.025 15.844C35.64 15.844 36.146 16.336 36.146 16.966C36.146 17.595 35.64 18.101 35.025 18.088C34.409 18.088 33.903 17.595 33.903 16.966C33.903 16.35 34.395 15.844 35.025 15.844ZM35.554 20.4C36.169 20.4 36.676 20.892 36.676 21.521C36.676 22.151 36.169 22.657 35.554 22.643C34.938 22.643 34.432 22.151 34.432 21.521C34.432 20.906 34.924 20.4 35.554 20.4ZM5.774 27.062C5.282 27.062 4.885 26.665 4.885 26.173C4.885 25.694 5.282 25.284 5.774 25.284C6.267 25.284 6.664 25.68 6.664 26.173C6.664 26.665 6.267 27.062 5.774 27.062ZM2.778 23.976C2.286 23.976 1.889 23.579 1.889 23.087C1.889 22.608 2.286 22.198 2.778 22.198C3.271 22.198 3.668 22.594 3.668 23.087C3.668 23.579 3.271 23.976 2.778 23.976ZM37.249 26.816C36.757 26.816 36.36 26.419 36.36 25.927C36.36 25.448 36.757 25.037 37.249 25.037C37.742 25.037 38.139 25.434 38.139 25.927C38.139 26.419 37.742 26.816 37.249 26.816ZM37.733 14.982C37.241 14.982 36.844 14.585 36.844 14.093C36.844 13.614 37.241 13.203 37.733 13.203C38.226 13.203 38.623 13.6 38.623 14.093C38.623 14.585 38.226 14.982 37.733 14.982ZM39.676 19.223C39.184 19.223 38.787 18.826 38.787 18.334C38.787 17.855 39.184 17.444 39.676 17.444C40.169 17.444 40.565 17.841 40.565 18.334C40.565 18.826 40.169 19.223 39.676 19.223Z" fill="rgb(35,57,127)" fill-opacity="1.000" fill-rule="nonzero" transform="matrix(1 0 0 1 8.3873 10.0752)"/></svg>