<svg xmlns="http://www.w3.org/2000/svg" viewBox="0 0 130 60" width="130" height="60"><path d="M0 0L130 0L130 60L0 60L0 0Z" fill="rgb(255,255,255)" fill-opacity="1.000" fill-rule="nonzero" transform="matrix(1 0 0 1 0 0)"/><path d="M34.667 12.364L39.726 12.364L39.4 13.238L33.333 13.238L33.333 7.341L34.659 7.341L34.659 12.364L34.667 12.364ZM29.015 8.201L29.341 7.334L22.615 7.334L22.615 13.23L29.022 13.23L29.348 12.364L23.948 12.364L23.948 10.689L27.726 10.689L28.044 9.83L23.948 9.83L23.948 8.201L29.015 8.201ZM10.815 8.201L14.6 8.201L14.6 13.23L15.926 13.23L15.926 8.201L19.378 8.201L19.704 7.334L11.141 7.334L10.815 8.201ZM86.948 13.178L88.274 13.178L88.274 7.341L86.948 7.341L86.948 13.178ZM6.185 9.801L2.111 9.801C1.615 9.801 1.304 9.475 1.304 9.075L1.304 8.912C1.304 8.489 1.644 8.201 2.096 8.201L7.6 8.201L7.926 7.334L1.711 7.334C0.585 7.349 0.022 8.089 0.007 8.838L0.007 9.223C0.022 9.978 0.6 10.764 1.741 10.764L5.815 10.764C6.311 10.764 6.622 11.089 6.622 11.489L6.622 11.652C6.622 12.075 6.281 12.364 5.83 12.364L0.326 12.364L0 13.23L6.215 13.23C7.333 13.215 7.904 12.475 7.919 11.734L7.919 11.349C7.904 10.586 7.326 9.801 6.185 9.801ZM98.081 9.801L94.007 9.801C93.511 9.801 93.2 9.475 93.2 9.075L93.2 8.912C93.2 8.489 93.541 8.201 93.993 8.201L99.496 8.201L99.822 7.334L93.607 7.334C92.489 7.349 91.919 8.089 91.904 8.83L91.904 9.215C91.919 9.971 92.496 10.756 93.637 10.756L97.711 10.756C98.207 10.756 98.519 11.082 98.519 11.482L98.519 11.645C98.519 12.067 98.178 12.356 97.726 12.356L92.222 12.356L91.896 13.223L98.111 13.223C99.23 13.208 99.8 12.467 99.815 11.727L99.815 11.341C99.807 10.586 99.23 9.801 98.081 9.801ZM71.207 11.704L65.63 7.334L64.304 7.334L64.304 13.171L65.63 13.171L65.63 8.793L71.207 13.171L72.533 13.171L72.533 7.334L71.207 7.334L71.207 11.704ZM52.089 13.178L53.511 13.178L56.711 7.341L55.289 7.341L52.089 13.178ZM56.933 7.334L60.133 13.171L61.556 13.171L58.356 7.334L56.933 7.334ZM44.57 7.334L43.244 7.334L43.244 13.23L49.311 13.23L49.637 12.356L44.578 12.356L44.578 7.334L44.57 7.334ZM75.252 8.201L79.037 8.201L79.037 13.23L80.363 13.23L80.363 8.201L83.815 8.201L84.141 7.334L75.578 7.334L75.252 8.201ZM50.741 13.43C50.4 13.43 50.133 13.704 50.133 14.038C50.133 14.371 50.407 14.645 50.741 14.645C51.081 14.645 51.348 14.371 51.348 14.038C51.348 13.704 51.074 13.43 50.741 13.43ZM52.356 15.245C52.015 15.245 51.748 15.519 51.748 15.852C51.748 16.193 52.022 16.46 52.356 16.46C52.696 16.46 52.963 16.186 52.963 15.852C52.97 15.512 52.696 15.245 52.356 15.245ZM63.541 14.045C63.541 13.704 63.267 13.438 62.933 13.438C62.593 13.438 62.326 13.712 62.326 14.045C62.326 14.386 62.6 14.652 62.933 14.652C63.267 14.652 63.541 14.378 63.541 14.045ZM61.319 15.289C60.978 15.289 60.711 15.564 60.711 15.897C60.711 16.238 60.985 16.504 61.319 16.504C61.659 16.504 61.926 16.23 61.926 15.897C61.933 15.564 61.659 15.289 61.319 15.289ZM59.23 16.504C58.889 16.504 58.622 16.778 58.622 17.112C58.622 17.452 58.896 17.719 59.23 17.719C59.57 17.719 59.837 17.445 59.837 17.112C59.837 16.778 59.563 16.504 59.23 16.504ZM55.015 17.112C55.015 16.771 54.741 16.504 54.407 16.504C54.067 16.504 53.8 16.778 53.8 17.112C53.8 17.452 54.074 17.719 54.407 17.719C54.741 17.727 55.015 17.452 55.015 17.112ZM46.163 8.904C45.993 8.919 45.867 9.067 45.881 9.238C45.896 9.408 46.044 9.534 46.215 9.519C46.385 9.504 46.511 9.356 46.496 9.186C46.489 9.023 46.333 8.889 46.163 8.904ZM47.519 14.852C47.348 14.867 47.222 15.015 47.237 15.186C47.252 15.356 47.4 15.482 47.57 15.467C47.741 15.452 47.867 15.304 47.852 15.134C47.837 14.964 47.689 14.838 47.519 14.852ZM49.933 17.415C49.763 17.43 49.637 17.578 49.652 17.749C49.667 17.919 49.815 18.045 49.985 18.03C50.156 18.015 50.281 17.867 50.267 17.697C50.259 17.527 50.111 17.401 49.933 17.415ZM53.2 19.06C53.03 19.075 52.904 19.223 52.919 19.393C52.933 19.564 53.081 19.689 53.252 19.675C53.422 19.66 53.548 19.512 53.533 19.341C53.519 19.171 53.37 19.045 53.2 19.06ZM56.815 19.475C56.644 19.489 56.519 19.638 56.533 19.808C56.548 19.978 56.696 20.104 56.867 20.089C57.037 20.075 57.163 19.927 57.148 19.756C57.133 19.586 56.985 19.46 56.815 19.475ZM60.563 18.964C60.393 18.978 60.267 19.127 60.281 19.297C60.296 19.467 60.444 19.593 60.615 19.578C60.785 19.564 60.911 19.415 60.896 19.245C60.889 19.075 60.733 18.949 60.563 18.964ZM63.748 17.415C63.578 17.43 63.452 17.578 63.467 17.749C63.481 17.919 63.63 18.045 63.8 18.03C63.97 18.015 64.096 17.867 64.081 17.697C64.067 17.527 63.919 17.401 63.748 17.415ZM66.163 14.852C65.993 14.867 65.867 15.015 65.881 15.186C65.896 15.356 66.044 15.482 66.215 15.467C66.385 15.452 66.511 15.304 66.496 15.134C66.489 14.971 66.333 14.838 66.163 14.852ZM67.393 11.845C67.222 11.86 67.096 12.008 67.111 12.178C67.126 12.349 67.274 12.475 67.444 12.46C67.615 12.445 67.741 12.297 67.726 12.127C67.711 11.956 67.563 11.83 67.393 11.845ZM47.237 5.949C47.252 6.119 47.4 6.245 47.57 6.23C47.741 6.215 47.867 6.067 47.852 5.897C47.837 5.726 47.689 5.601 47.519 5.615C47.348 5.623 47.222 5.778 47.237 5.949ZM49.993 3.675C50.163 3.66 50.289 3.512 50.274 3.341C50.259 3.171 50.111 3.045 49.941 3.06C49.77 3.075 49.644 3.223 49.659 3.393C49.667 3.564 49.822 3.689 49.993 3.675ZM53.111 2.119C53.281 2.104 53.407 1.956 53.393 1.786C53.378 1.615 53.23 1.489 53.059 1.504C52.889 1.519 52.763 1.667 52.778 1.838C52.793 2.008 52.941 2.134 53.111 2.119ZM47.393 4.112C47.481 4.104 47.548 4.023 47.541 3.934C47.533 3.845 47.452 3.778 47.363 3.786C47.274 3.793 47.207 3.875 47.215 3.964C47.222 4.052 47.304 4.119 47.393 4.112ZM45.37 14.608C45.459 14.601 45.526 14.519 45.519 14.43C45.511 14.341 45.43 14.275 45.341 14.282C45.252 14.289 45.185 14.371 45.193 14.46C45.2 14.549 45.281 14.615 45.37 14.608ZM47.393 17.297C47.481 17.289 47.548 17.208 47.541 17.119C47.533 17.03 47.452 16.964 47.363 16.971C47.274 16.978 47.207 17.06 47.215 17.149C47.222 17.238 47.304 17.304 47.393 17.297ZM50.607 19.593C50.696 19.586 50.763 19.504 50.756 19.415C50.748 19.327 50.667 19.26 50.578 19.267C50.489 19.275 50.422 19.356 50.43 19.445C50.437 19.534 50.519 19.601 50.607 19.593ZM54.696 21.075C54.785 21.067 54.852 20.986 54.844 20.897C54.837 20.808 54.756 20.741 54.667 20.749C54.578 20.756 54.511 20.838 54.519 20.927C54.526 21.015 54.607 21.082 54.696 21.075ZM59.007 21.075C59.096 21.067 59.163 20.986 59.156 20.897C59.148 20.808 59.067 20.741 58.978 20.749C58.889 20.756 58.822 20.838 58.83 20.927C58.837 21.015 58.919 21.082 59.007 21.075ZM63.096 19.601C63.185 19.593 63.252 19.512 63.244 19.423C63.237 19.334 63.156 19.267 63.067 19.275C62.978 19.282 62.911 19.364 62.919 19.452C62.926 19.541 63.007 19.608 63.096 19.601ZM66.37 17.327C66.459 17.319 66.526 17.238 66.519 17.149C66.511 17.06 66.43 16.993 66.341 17.001C66.252 17.008 66.185 17.089 66.193 17.178C66.2 17.267 66.281 17.334 66.37 17.327ZM68.333 14.608C68.422 14.601 68.489 14.519 68.481 14.43C68.474 14.341 68.393 14.275 68.304 14.282C68.215 14.289 68.148 14.371 68.156 14.46C68.163 14.549 68.244 14.615 68.333 14.608ZM50.607 1.815C50.696 1.808 50.763 1.726 50.756 1.638C50.748 1.549 50.667 1.482 50.578 1.489C50.489 1.497 50.422 1.578 50.43 1.667C50.437 1.756 50.519 1.823 50.607 1.815ZM54.696 0.326C54.785 0.319 54.852 0.238 54.844 0.149C54.837 0.06 54.756 -0.007 54.667 0.001C54.578 0.008 54.511 0.089 54.519 0.178C54.526 0.275 54.607 0.341 54.696 0.326ZM50.074 9.927C50.415 9.927 50.681 9.652 50.681 9.319C50.681 8.978 50.407 8.712 50.074 8.712C49.733 8.712 49.467 8.986 49.467 9.319C49.459 9.652 49.733 9.927 50.074 9.927ZM50.741 7.652C51.081 7.652 51.348 7.378 51.348 7.045C51.348 6.704 51.074 6.438 50.741 6.438C50.407 6.438 50.133 6.712 50.133 7.045C50.126 7.378 50.4 7.652 50.741 7.652ZM52.356 5.838C52.696 5.838 52.963 5.564 52.963 5.23C52.963 4.889 52.689 4.623 52.356 4.623C52.015 4.623 51.748 4.897 51.748 5.23C51.748 5.564 52.022 5.838 52.356 5.838ZM54.4 4.578C54.741 4.578 55.007 4.304 55.007 3.971C55.007 3.63 54.733 3.364 54.4 3.364C54.059 3.364 53.793 3.638 53.793 3.971C53.793 4.304 54.067 4.578 54.4 4.578ZM56.837 4.215C57.178 4.215 57.444 3.941 57.444 3.608C57.444 3.267 57.17 3.001 56.837 3.001C56.496 3.001 56.23 3.275 56.23 3.608C56.23 3.941 56.504 4.215 56.837 4.215ZM56.837 18.112C57.178 18.112 57.444 17.838 57.444 17.504C57.444 17.164 57.17 16.897 56.837 16.897C56.496 16.897 56.23 17.171 56.23 17.504C56.23 17.845 56.504 18.112 56.837 18.112ZM49.948 4.749C49.681 4.749 49.467 4.964 49.467 5.23C49.467 5.497 49.681 5.712 49.948 5.712C50.215 5.712 50.43 5.497 50.43 5.23C50.43 4.964 50.215 4.749 49.948 4.749ZM48.422 7.26C48.156 7.26 47.941 7.475 47.941 7.741C47.941 8.008 48.156 8.223 48.422 8.223C48.689 8.223 48.904 8.008 48.904 7.741C48.904 7.475 48.689 7.26 48.422 7.26ZM47.837 10.082C47.57 10.082 47.356 10.297 47.356 10.564C47.356 10.83 47.57 11.045 47.837 11.045C48.104 11.045 48.319 10.83 48.319 10.564C48.319 10.297 48.104 10.082 47.837 10.082ZM52.281 2.86C52.015 2.86 51.8 3.075 51.8 3.341C51.8 3.608 52.015 3.823 52.281 3.823C52.548 3.823 52.763 3.608 52.763 3.341C52.763 3.075 52.548 2.86 52.281 2.86ZM55.326 1.838C55.059 1.838 54.844 2.052 54.844 2.319C54.844 2.586 55.059 2.801 55.326 2.801C55.593 2.801 55.807 2.578 55.807 2.312C55.807 2.045 55.593 1.838 55.326 1.838ZM56.837 0.986C56.667 0.986 56.526 1.126 56.526 1.297C56.526 1.467 56.667 1.608 56.837 1.608C57.007 1.608 57.148 1.467 57.148 1.297C57.148 1.126 57.007 0.986 56.837 0.986ZM66.156 5.608C65.985 5.593 65.837 5.719 65.822 5.889C65.807 6.06 65.933 6.208 66.104 6.223C66.274 6.238 66.422 6.112 66.437 5.941C66.459 5.778 66.333 5.623 66.156 5.608ZM64.022 3.393C64.037 3.223 63.911 3.075 63.741 3.06C63.57 3.045 63.422 3.171 63.407 3.341C63.393 3.512 63.519 3.66 63.689 3.675C63.859 3.689 64.007 3.564 64.022 3.393ZM60.904 1.838C60.919 1.667 60.793 1.512 60.622 1.497C60.452 1.482 60.304 1.608 60.289 1.778C60.274 1.949 60.4 2.097 60.57 2.112C60.733 2.134 60.889 2.008 60.904 1.838ZM66.459 3.964C66.467 3.875 66.4 3.793 66.311 3.786C66.222 3.778 66.141 3.845 66.133 3.934C66.126 4.023 66.193 4.104 66.281 4.112C66.378 4.119 66.452 4.052 66.459 3.964ZM63.244 1.667C63.252 1.578 63.185 1.497 63.096 1.489C63.007 1.482 62.926 1.549 62.919 1.638C62.911 1.726 62.978 1.808 63.067 1.815C63.163 1.823 63.237 1.756 63.244 1.667ZM59.156 0.178C59.163 0.089 59.096 0.008 59.007 0.001C58.919 -0.007 58.837 0.06 58.83 0.149C58.822 0.238 58.889 0.319 58.978 0.326C59.067 0.334 59.148 0.275 59.156 0.178ZM63.548 7.038C63.548 6.697 63.274 6.43 62.941 6.43C62.6 6.43 62.333 6.704 62.333 7.038C62.333 7.378 62.607 7.645 62.941 7.645C63.274 7.652 63.548 7.378 63.548 7.038ZM61.933 5.23C61.933 4.889 61.659 4.623 61.326 4.623C60.985 4.623 60.719 4.897 60.719 5.23C60.719 5.571 60.993 5.838 61.326 5.838C61.659 5.838 61.933 5.564 61.933 5.23ZM59.889 3.971C59.889 3.63 59.615 3.364 59.281 3.364C58.941 3.364 58.674 3.638 58.674 3.971C58.674 4.312 58.948 4.578 59.281 4.578C59.615 4.578 59.889 4.304 59.889 3.971ZM63.244 5.23C63.244 5.497 63.459 5.712 63.726 5.712C63.993 5.712 64.207 5.497 64.207 5.23C64.207 4.964 63.993 4.749 63.726 4.749C63.459 4.749 63.244 4.964 63.244 5.23ZM63.281 15.852C63.281 16.119 63.496 16.334 63.763 16.334C64.03 16.334 64.244 16.119 64.244 15.852C64.244 15.586 64.03 15.371 63.763 15.371C63.496 15.371 63.281 15.586 63.281 15.852ZM60.919 17.749C60.919 18.015 61.133 18.23 61.4 18.23C61.667 18.23 61.881 18.015 61.881 17.749C61.881 17.482 61.659 17.275 61.393 17.275C61.126 17.275 60.919 17.489 60.919 17.749ZM57.941 18.689C57.941 18.956 58.156 19.171 58.422 19.171C58.689 19.171 58.904 18.956 58.904 18.689C58.904 18.423 58.689 18.208 58.422 18.208C58.156 18.208 57.941 18.423 57.941 18.689ZM54.852 18.727C54.852 18.993 55.067 19.208 55.333 19.208C55.6 19.208 55.815 18.993 55.815 18.727C55.815 18.46 55.6 18.245 55.333 18.245C55.067 18.245 54.852 18.46 54.852 18.727ZM51.837 17.815C51.837 18.082 52.052 18.297 52.319 18.297C52.585 18.297 52.8 18.082 52.8 17.815C52.8 17.549 52.585 17.334 52.319 17.334C52.052 17.334 51.837 17.549 51.837 17.815ZM49.474 15.83C49.474 16.097 49.689 16.312 49.956 16.312C50.222 16.312 50.437 16.097 50.437 15.83C50.437 15.564 50.222 15.349 49.956 15.349C49.689 15.349 49.474 15.571 49.474 15.83ZM60.911 3.334C60.911 3.601 61.126 3.815 61.393 3.815C61.659 3.815 61.874 3.601 61.874 3.334C61.874 3.067 61.659 2.86 61.393 2.86C61.126 2.86 60.911 3.075 60.911 3.334ZM57.874 2.312C57.874 2.578 58.089 2.793 58.356 2.793C58.622 2.793 58.837 2.578 58.837 2.312C58.837 2.045 58.622 1.83 58.356 1.83C58.089 1.83 57.874 2.052 57.874 2.312ZM68.333 7.63C68.422 7.623 68.489 7.541 68.481 7.452C68.474 7.364 68.393 7.297 68.304 7.304C68.215 7.312 68.148 7.393 68.156 7.482C68.163 7.571 68.244 7.638 68.333 7.63Z" fill="rgb(35,57,127)" fill-opacity="1.000" fill-rule="nonzero" transform="matrix(1 0 0 1 15.0586 14)"/><path d="M0 4.03L0 0L2.474 0L2.474 0.378L0.444 0.378L0.444 4.03L0 4.03ZM0.311 2.185L0.311 1.807L2.207 1.807L2.207 2.185L0.311 2.185Z" fill="rgb(35,57,127)" fill-opacity="1.000" fill-rule="nonzero" transform="matrix(1 0 0 1 15 40.9117)"/><path d="M0 4.03L0 0L0.444 0L0.444 4.03L0 4.03Z" fill="rgb(35,57,127)" fill-opacity="1.000" fill-rule="nonzero" transform="matrix(1 0 0 1 22.2148 40.9117)"/><path d="M0 4.03L0 0L0.452 0L2.77 3.519L2.659 3.519L2.659 0L3.074 0L3.074 4.03L2.622 4.03L0.311 0.511L0.422 0.511L0.422 4.03L0 4.03Z" fill="rgb(35,57,127)" fill-opacity="1.000" fill-rule="nonzero" transform="matrix(1 0 0 1 27.7259 40.9117)"/><path d="M0 4.03L1.444 0L2.067 0L3.511 4.03L3.059 4.03L1.711 0.207L1.785 0.207L0.437 4.03L0 4.03ZM0.756 2.726L0.859 2.356L2.652 2.356L2.756 2.726L0.756 2.726Z" fill="rgb(35,57,127)" fill-opacity="1.000" fill-rule="nonzero" transform="matrix(1 0 0 1 35.4889 40.9117)"/><path d="M0 4.03L0 0L0.452 0L2.77 3.519L2.659 3.519L2.659 0L3.074 0L3.074 4.03L2.622 4.03L0.311 0.511L0.422 0.511L0.422 4.03L0 4.03Z" fill="rgb(35,57,127)" fill-opacity="1.000" fill-rule="nonzero" transform="matrix(1 0 0 1 43.6889 40.9117)"/><path d="M1.83 4.133C1.556 4.133 1.304 4.096 1.074 4.022C0.852 3.948 0.659 3.83 0.496 3.667C0.333 3.504 0.215 3.296 0.126 3.03C0.037 2.77 0 2.444 0 2.074C0 1.585 0.074 1.193 0.222 0.889C0.37 0.585 0.585 0.363 0.867 0.215C1.148 0.074 1.481 0 1.867 0C2.022 0 2.17 0.007 2.311 0.03C2.452 0.052 2.593 0.081 2.733 0.119L2.733 0.504C2.593 0.459 2.452 0.43 2.311 0.415C2.17 0.4 2.03 0.385 1.881 0.385C1.578 0.385 1.319 0.437 1.104 0.548C0.889 0.659 0.733 0.83 0.622 1.081C0.511 1.326 0.459 1.659 0.459 2.067C0.459 2.489 0.511 2.83 0.622 3.074C0.733 3.319 0.889 3.496 1.096 3.6C1.304 3.704 1.556 3.756 1.844 3.756C1.993 3.756 2.141 3.741 2.274 3.719C2.415 3.696 2.563 3.659 2.726 3.607L2.726 3.993C2.593 4.037 2.444 4.074 2.296 4.104C2.156 4.119 2 4.133 1.83 4.133Z" fill="rgb(35,57,127)" fill-opacity="1.000" fill-rule="nonzero" transform="matrix(1 0 0 1 51.6593 40.8598)"/><path d="M0 4.03L0 0L0.444 0L0.444 4.03L0 4.03Z" fill="rgb(35,57,127)" fill-opacity="1.000" fill-rule="nonzero" transform="matrix(1 0 0 1 59.1185 40.9117)"/><path d="M0 4.03L1.444 0L2.067 0L3.511 4.03L3.059 4.03L1.711 0.207L1.785 0.207L0.437 4.03L0 4.03ZM0.756 2.726L0.859 2.356L2.652 2.356L2.756 2.726L0.756 2.726Z" fill="rgb(35,57,127)" fill-opacity="1.000" fill-rule="nonzero" transform="matrix(1 0 0 1 64.2519 40.9117)"/><path d="M0 4.03L0 0L0.526 0L1.985 3.126L1.881 3.126L3.319 0L3.844 0L3.844 4.03L3.43 4.03L3.43 0.385L3.556 0.385L2.119 3.474L1.719 3.474L0.267 0.385L0.407 0.385L0.407 4.03L0 4.03Z" fill="rgb(35,57,127)" fill-opacity="1.000" fill-rule="nonzero" transform="matrix(1 0 0 1 72.4667 40.9117)"/><path d="M0 4.03L0 0L2.496 0L2.496 0.37L0.437 0.37L0.437 3.652L2.519 3.652L2.519 4.022L0 4.022L0 4.03ZM0.281 2.148L0.281 1.778L2.23 1.778L2.23 2.148L0.281 2.148Z" fill="rgb(35,57,127)" fill-opacity="1.000" fill-rule="nonzero" transform="matrix(1 0 0 1 81.3926 40.9117)"/><path d="M0 4.03L0 0L0.452 0L2.77 3.519L2.659 3.519L2.659 0L3.074 0L3.074 4.03L2.622 4.03L0.311 0.511L0.422 0.511L0.422 4.03L0 4.03Z" fill="rgb(35,57,127)" fill-opacity="1.000" fill-rule="nonzero" transform="matrix(1 0 0 1 88.7185 40.9117)"/><path d="M1.341 4.03L1.341 0.385L0 0.385L0 0L3.126 0L3.126 0.385L1.785 0.385L1.785 4.03L1.341 4.03Z" fill="rgb(35,57,127)" fill-opacity="1.000" fill-rule="nonzero" transform="matrix(1 0 0 1 96.4444 40.9117)"/><path d="M1.674 4.133C1.341 4.133 1.044 4.059 0.793 3.919C0.541 3.778 0.348 3.556 0.207 3.252C0.067 2.948 0 2.556 0 2.067C0 1.585 0.067 1.185 0.207 0.881C0.348 0.578 0.541 0.356 0.793 0.215C1.044 0.074 1.333 0 1.674 0C2.007 0 2.304 0.074 2.548 0.215C2.8 0.356 2.993 0.578 3.133 0.881C3.274 1.185 3.341 1.578 3.341 2.067C3.341 2.548 3.274 2.948 3.133 3.252C2.993 3.556 2.8 3.778 2.548 3.919C2.296 4.059 2.007 4.133 1.674 4.133ZM1.674 3.756C1.919 3.756 2.133 3.704 2.311 3.593C2.496 3.481 2.637 3.311 2.733 3.067C2.837 2.822 2.881 2.496 2.881 2.081C2.881 1.659 2.83 1.326 2.733 1.081C2.63 0.83 2.489 0.652 2.311 0.548C2.126 0.437 1.919 0.385 1.674 0.385C1.43 0.385 1.215 0.437 1.03 0.548C0.844 0.652 0.704 0.83 0.607 1.074C0.504 1.319 0.459 1.644 0.459 2.059C0.459 2.481 0.511 2.815 0.607 3.059C0.711 3.304 0.852 3.489 1.03 3.593C1.215 3.696 1.43 3.756 1.674 3.756Z" fill="rgb(35,57,127)" fill-opacity="1.000" fill-rule="nonzero" transform="matrix(1 0 0 1 103.8296 40.8598)"/><path d="M1.052 4.119C0.889 4.119 0.726 4.104 0.556 4.074C0.385 4.044 0.215 4.007 0.059 3.948L0.059 3.57C0.17 3.607 0.289 3.637 0.4 3.667C0.519 3.689 0.63 3.711 0.741 3.726C0.852 3.741 0.956 3.748 1.059 3.748C1.393 3.748 1.637 3.681 1.8 3.556C1.963 3.43 2.037 3.244 2.037 3.007C2.037 2.8 1.978 2.644 1.859 2.541C1.741 2.43 1.533 2.341 1.244 2.267L1.03 2.207C0.689 2.119 0.43 1.985 0.259 1.815C0.089 1.637 0 1.407 0 1.111C0 0.763 0.119 0.489 0.363 0.296C0.6 0.096 0.963 0 1.437 0C1.593 0 1.748 0.007 1.896 0.03C2.052 0.052 2.185 0.081 2.311 0.119L2.311 0.496C2.17 0.452 2.03 0.422 1.881 0.4C1.733 0.378 1.585 0.37 1.437 0.37C1.207 0.37 1.015 0.4 0.874 0.452C0.726 0.511 0.615 0.593 0.548 0.696C0.474 0.8 0.444 0.933 0.444 1.081C0.444 1.281 0.496 1.43 0.607 1.541C0.719 1.652 0.911 1.741 1.185 1.815L1.407 1.867C1.652 1.933 1.859 2.015 2.015 2.111C2.178 2.207 2.296 2.333 2.37 2.474C2.452 2.615 2.489 2.785 2.489 2.978C2.489 3.222 2.43 3.43 2.319 3.6C2.207 3.77 2.044 3.896 1.83 3.993C1.615 4.074 1.356 4.119 1.052 4.119Z" fill="rgb(35,57,127)" fill-opacity="1.000" fill-rule="nonzero" transform="matrix(1 0 0 1 111.8148 40.8747)"/></svg>