<svg xmlns="http://www.w3.org/2000/svg" viewBox="0 0 60 60" width="60" height="60"><path d="M0 0L60 0L60 60L0 60L0 0Z" fill="rgb(255,255,255)" fill-opacity="1.000" fill-rule="nonzero" transform="matrix(1 0 0 1 0 0)"/><path d="M2.985 10.075C1.754 10.075 0.933 9.888 0.336 9.59L0 7.5L0.261 7.5L0.522 8.023C1.157 9.217 1.903 9.739 3.134 9.739C4.515 9.739 5.336 9.03 5.336 7.911C5.336 6.903 4.776 6.381 3.097 5.821C1.194 5.187 0.261 4.44 0.261 2.836C0.261 1.231 1.754 0 3.582 0C4.739 0 5.411 0.149 6.045 0.41L6.381 2.612L6.12 2.612L5.858 2.09C5.299 0.896 4.59 0.373 3.47 0.373C2.314 0.373 1.642 1.082 1.642 2.052C1.642 3.022 2.202 3.545 3.769 4.067C5.858 4.776 6.717 5.56 6.717 7.164C6.679 8.881 5 10.075 2.985 10.075Z" fill="rgb(4,12,23)" fill-opacity="1.000" fill-rule="nonzero" transform="matrix(1 0 0 1 8 25)"/><path d="M4.627 8.321C4.067 8.844 3.433 9.142 2.687 9.142C1.567 9.142 1.007 8.62 1.007 7.463L1.007 2.836L0 2.836L0 2.575L1.082 2.164L2.164 0L2.612 0L2.612 2.202L4.478 2.202L4.478 2.836L2.612 2.836L2.612 7.388C2.612 8.06 2.948 8.396 3.508 8.396C3.881 8.396 4.142 8.284 4.478 8.06L4.627 8.321Z" fill="rgb(4,12,23)" fill-opacity="1.000" fill-rule="nonzero" transform="matrix(1 0 0 1 15.0524 25.9329)"/><path d="M3.47 7.202C1.455 7.202 0 5.933 0 3.545C0 1.53 1.455 0 3.508 0C5.56 0 6.978 1.269 6.978 3.657C6.978 5.672 5.523 7.202 3.47 7.202ZM3.284 0.373C2.314 0.373 1.754 1.119 1.754 3.172C1.754 5.411 2.463 6.866 3.657 6.866C4.664 6.866 5.187 6.12 5.187 4.067C5.224 1.828 4.515 0.373 3.284 0.373Z" fill="rgb(4,12,23)" fill-opacity="1.000" fill-rule="nonzero" transform="matrix(1 0 0 1 20.0898 27.9106)"/><path d="M7.799 7.015C7.463 7.015 6.679 7.015 6.045 7.015C5.411 7.015 4.627 7.015 4.291 7.015L4.291 6.791L4.515 6.754C5.149 6.642 5.261 6.455 5.261 5.187L5.261 2.463C5.261 1.418 4.814 0.896 3.993 0.896C3.433 0.896 2.948 1.119 2.537 1.418L2.537 5.187C2.537 6.455 2.649 6.642 3.284 6.754L3.508 6.791L3.508 7.015C3.172 7.015 2.351 7.015 1.754 7.015C1.119 7.015 0.299 7.015 0 7.015L0 6.791L0.261 6.754C0.821 6.679 0.97 6.455 0.97 5.075L0.97 2.052C0.97 1.306 0.858 1.119 0.336 0.858L0 0.672L0 0.522L2.388 0L2.575 0.112L2.575 1.082C3.321 0.448 4.03 0 4.926 0C6.194 0 6.903 0.709 6.903 2.127L6.903 5.037C6.903 6.455 7.015 6.605 7.612 6.717L7.873 6.754L7.799 7.015Z" fill="rgb(4,12,23)" fill-opacity="1.000" fill-rule="nonzero" transform="matrix(1 0 0 1 27.8142 27.9479)"/><path d="M1.53 2.985L1.53 3.097C1.567 5.075 2.649 6.269 4.067 6.269C4.851 6.269 5.411 5.97 6.008 5.373L6.194 5.523C5.448 6.567 4.478 7.202 3.209 7.202C1.381 7.202 0 5.933 0 3.806C0 1.493 1.754 0 3.433 0C5.299 0 6.194 1.045 6.232 2.948L1.53 2.985ZM4.552 2.575C4.515 1.119 3.993 0.373 3.172 0.373C2.239 0.373 1.642 1.194 1.53 2.575L4.552 2.575Z" fill="rgb(4,12,23)" fill-opacity="1.000" fill-rule="nonzero" transform="matrix(1 0 0 1 36.0981 27.9106)"/><path d="M9.627 9.067C9.366 9.067 8.135 9.03 7.65 9.03C7.164 9.03 5.597 9.067 5.336 9.067L5.336 8.881L5.784 8.806C6.194 8.732 6.381 8.62 6.381 8.359C6.381 8.135 6.232 7.873 5.933 7.388L4.403 5L2.873 7.127C2.5 7.612 2.351 8.023 2.351 8.284C2.351 8.545 2.5 8.732 2.948 8.806L3.396 8.881L3.396 9.067C3.134 9.067 2.052 9.03 1.53 9.03C1.008 9.03 0.224 9.067 0 9.067L0 8.881L0.224 8.844C0.858 8.732 1.418 8.209 1.903 7.612L4.142 4.664L1.903 1.418C1.381 0.672 1.008 0.299 0.485 0.224L0.187 0.187L0.187 0C0.448 0 1.679 0.037 2.164 0.037C2.649 0.037 4.217 0 4.478 0L4.478 0.187L4.03 0.261C3.657 0.299 3.433 0.448 3.433 0.709C3.433 0.933 3.582 1.194 3.881 1.679L5.224 3.731L6.53 1.903C6.866 1.418 7.052 1.007 7.052 0.784C7.052 0.522 6.866 0.336 6.455 0.261L6.008 0.187L6.008 0C6.269 0 7.351 0.037 7.873 0.037C8.396 0.037 9.179 0 9.403 0L9.403 0.187L9.179 0.224C8.545 0.336 7.985 0.821 7.5 1.455L5.485 4.105L7.911 7.687C8.433 8.433 8.806 8.806 9.329 8.881L9.627 8.918L9.627 9.067Z" fill="rgb(4,12,23)" fill-opacity="1.000" fill-rule="nonzero" transform="matrix(1 0 0 1 42.8145 25.8956)"/></svg>