<svg xmlns="http://www.w3.org/2000/svg" viewBox="0 0 130 60" width="130" height="60"><path d="M0 0L130 0L130 60L0 60L0 0Z" fill="rgb(255,255,255)" fill-opacity="1.000" fill-rule="nonzero" transform="matrix(1 0 0 1 0 0)"/><path d="M0.344 22.488L4.815 22.488C4.859 22.491 4.902 22.485 4.944 22.471C4.985 22.457 5.023 22.434 5.055 22.405C5.087 22.376 5.113 22.34 5.131 22.301C5.149 22.261 5.159 22.218 5.159 22.175L5.159 9.856C5.159 6.363 6.88 4.523 9.85 4.523C12.82 4.523 14.509 6.363 14.509 9.856L14.509 22.176C14.509 22.22 14.519 22.263 14.537 22.302C14.555 22.342 14.581 22.377 14.613 22.407C14.645 22.436 14.683 22.459 14.724 22.473C14.766 22.487 14.809 22.493 14.853 22.49L19.324 22.49C19.367 22.493 19.411 22.487 19.452 22.473C19.493 22.459 19.531 22.436 19.563 22.407C19.596 22.377 19.621 22.342 19.639 22.302C19.657 22.263 19.667 22.22 19.668 22.176L19.668 9.888C19.668 4.616 16.729 0 9.849 0C2.969 0 0 4.616 0 9.888L0 22.176C0.001 22.22 0.011 22.262 0.029 22.302C0.047 22.341 0.073 22.377 0.105 22.406C0.137 22.435 0.175 22.457 0.216 22.471C0.257 22.485 0.301 22.491 0.344 22.488Z" fill="rgb(0,168,104)" fill-opacity="1.000" fill-rule="nonzero" transform="matrix(1 0 0 1 70.5892 19.8254)"/><path d="M6.41 26.138C8.036 26.138 9.099 25.951 9.568 25.763C9.638 25.736 9.698 25.689 9.743 25.628C9.787 25.567 9.813 25.495 9.818 25.42L9.818 21.738C9.818 21.519 9.724 21.394 9.443 21.394C9.224 21.394 8.598 21.519 8.098 21.519C6.159 21.519 5.316 20.802 5.316 19.117L5.316 8.734L9.443 8.734C9.534 8.733 9.621 8.696 9.685 8.632C9.749 8.568 9.786 8.481 9.787 8.39L9.787 4.367C9.786 4.276 9.749 4.189 9.685 4.125C9.621 4.061 9.534 4.024 9.443 4.024L5.159 4.024L5.159 0.53C5.159 0.156 5.002 0 4.721 0L0.5 0C0.156 0 0 0.157 0 0.53L0 19.649C0 24.297 2.595 26.138 6.41 26.138Z" fill="rgb(0,168,104)" fill-opacity="1.000" fill-rule="nonzero" transform="matrix(1 0 0 1 33.7551 16.4569)"/><path d="M7.818 22.987C12.853 22.987 16.449 19.899 16.449 15.876C16.449 11.353 13.447 10.044 9.351 9.17L7.318 8.734C5.786 8.39 4.942 7.673 4.942 6.457C4.942 4.897 6.505 4.055 8.663 4.055C11.696 4.055 13.759 5.427 14.072 5.427C14.159 5.421 14.242 5.392 14.314 5.343C14.386 5.293 14.443 5.225 14.479 5.146L15.292 2.121C15.449 1.715 15.417 1.622 15.135 1.466C13.321 0.53 11.382 0 8.631 0C3.534 0 0 2.932 0 6.831C0 10.514 2.846 12.538 6.913 13.413L8.976 13.849C10.634 14.193 11.568 14.848 11.568 16.251C11.568 17.686 10.443 18.933 7.785 18.933C4.032 18.933 1.468 17.437 1.062 17.437C0.811 17.437 0.718 17.561 0.624 17.966L0.093 20.493C-0.064 21.023 0.093 21.366 0.437 21.522C1.72 22.239 5.221 22.987 7.818 22.987Z" fill="rgb(0,168,104)" fill-opacity="1.000" fill-rule="nonzero" transform="matrix(1 0 0 1 14.3999 19.8567)"/><path d="M11.351 18.683C8.067 18.683 5.067 16.219 5.067 11.572C5.067 6.924 8.068 4.52 11.351 4.52C14.665 4.52 17.604 6.921 17.604 11.572C17.604 16.25 14.665 18.683 11.351 18.683ZM11.351 23.175C17.917 23.175 22.701 18.278 22.701 11.572C22.701 4.865 17.917 0 11.351 0C4.815 0 0 4.866 0 11.572C0 18.277 4.815 23.175 11.351 23.175Z" fill="rgb(0,168,104)" fill-opacity="1.000" fill-rule="nonzero" transform="matrix(1 0 0 1 44.9804 19.8254)"/><path d="M21.359 11.322C21.359 4.427 17.387 0 11.069 0C5.128 0 0 4.554 0 11.478C0 18.87 5.253 23.175 10.881 23.175C15.603 23.175 18.327 21.318 20.012 19.058C20.338 18.62 20.405 18.431 20.405 18.309C20.405 18.186 20.326 18.091 20.043 17.839L18.073 16.123C17.601 15.718 17.444 15.593 17.287 15.593C17.13 15.593 17.036 15.687 16.912 15.843C15.567 17.652 13.691 18.681 11.158 18.681C7.964 18.681 5.835 16.516 5.294 13.004L19.724 13.004C20.73 13.006 21.359 12.691 21.359 11.322ZM10.883 4.335C14.296 4.335 16.102 6.632 16.2 9.17L5.371 9.17C5.964 6.445 7.818 4.335 10.883 4.335Z" fill="rgb(0,168,104)" fill-opacity="1.000" fill-rule="nonzero" transform="matrix(1 0 0 1 93.2411 19.8254)"/></svg>