<svg xmlns="http://www.w3.org/2000/svg" viewBox="0 0 60 60" width="60" height="60"><path d="M0 0L60 0L60 60L0 60L0 0Z" fill="rgb(255,255,255)" fill-opacity="1.000" fill-rule="nonzero" transform="matrix(1 0 0 1 0 0)"/><path d="M10.835 11.663C10.571 11.4 10.214 11.252 9.841 11.252C9.469 11.252 9.111 11.4 8.848 11.663L0.747 20.593C0.267 21.111 0 21.792 0 22.498C0 23.205 0.267 23.885 0.747 24.403L0.747 24.409L8.849 33.339C9.046 33.535 9.297 33.669 9.57 33.722C9.842 33.776 10.125 33.748 10.381 33.641C10.638 33.534 10.857 33.354 11.011 33.123C11.166 32.891 11.248 32.62 11.248 32.342L11.248 12.655C11.247 12.282 11.099 11.925 10.835 11.661L10.835 11.663ZM22.498 43.653C22.498 43.837 22.536 44.018 22.609 44.187C22.682 44.355 22.788 44.507 22.922 44.633C23.056 44.758 23.213 44.856 23.386 44.918C23.558 44.981 23.742 45.008 23.925 44.998C35.687 44.255 45 34.468 45 22.5C44.998 10.532 35.683 0.741 23.923 0.003C23.739 -0.009 23.556 0.017 23.383 0.08C23.21 0.142 23.052 0.239 22.918 0.365C22.785 0.492 22.679 0.644 22.606 0.813C22.534 0.981 22.497 1.163 22.498 1.347L22.498 9.788C22.501 10.166 22.643 10.53 22.896 10.81C23.149 11.091 23.497 11.269 23.872 11.311C26.596 11.65 29.102 12.975 30.917 15.034C32.734 17.095 33.737 19.749 33.737 22.496C33.737 25.244 32.734 27.898 30.917 29.959C29.102 32.018 26.596 33.343 23.872 33.682C23.496 33.723 23.147 33.901 22.893 34.182C22.639 34.463 22.498 34.828 22.496 35.207L22.496 43.653L22.498 43.653Z" fill="rgb(0,168,104)" fill-opacity="1.000" fill-rule="nonzero" transform="matrix(1 0 0 1 7 6)"/></svg>