<svg xmlns="http://www.w3.org/2000/svg" viewBox="0 0 130 60" width="130" height="60"><defs><linearGradient id="g148" gradientUnits="userSpaceOnUse" x1="29.94" y1="30.00" x2="152.95" y2="30.00"><stop offset="0.0%" stop-color="rgb(117,17,20)" stop-opacity="1.000"/><stop offset="100.0%" stop-color="rgb(229,84,37)" stop-opacity="1.000"/></linearGradient><linearGradient id="g149" gradientUnits="userSpaceOnUse" x1="15.44" y1="30.00" x2="28.12" y2="30.00"><stop offset="0.0%" stop-color="rgb(117,17,20)" stop-opacity="1.000"/><stop offset="100.0%" stop-color="rgb(229,84,37)" stop-opacity="1.000"/></linearGradient><linearGradient id="g150" gradientUnits="userSpaceOnUse" x1="15.96" y1="30.00" x2="28.65" y2="30.00"><stop offset="0.0%" stop-color="rgb(117,17,20)" stop-opacity="1.000"/><stop offset="100.0%" stop-color="rgb(229,84,37)" stop-opacity="1.000"/></linearGradient><linearGradient id="g151" gradientUnits="userSpaceOnUse" x1="15.96" y1="30.00" x2="28.65" y2="30.00"><stop offset="0.0%" stop-color="rgb(117,17,20)" stop-opacity="1.000"/><stop offset="100.0%" stop-color="rgb(229,84,37)" stop-opacity="1.000"/></linearGradient><linearGradient id="g152" gradientUnits="userSpaceOnUse" x1="15.96" y1="30.00" x2="28.65" y2="30.00"><stop offset="0.0%" stop-color="rgb(117,17,20)" stop-opacity="1.000"/><stop offset="100.0%" stop-color="rgb(229,84,37)" stop-opacity="1.000"/></linearGradient><linearGradient id="g153" gradientUnits="userSpaceOnUse" x1="15.96" y1="30.00" x2="28.65" y2="30.00"><stop offset="0.0%" stop-color="rgb(117,17,20)" stop-opacity="1.000"/><stop offset="100.0%" stop-color="rgb(229,84,37)" stop-opacity="1.000"/></linearGradient><linearGradient id="g154" gradientUnits="userSpaceOnUse" x1="15.96" y1="30.00" x2="28.65" y2="30.00"><stop offset="0.0%" stop-color="rgb(117,17,20)" stop-opacity="1.000"/><stop offset="100.0%" stop-color="rgb(229,84,37)" stop-opacity="1.000"/></linearGradient><linearGradient id="g155" gradientUnits="userSpaceOnUse" x1="15.96" y1="30.00" x2="28.65" y2="30.00"><stop offset="0.0%" stop-color="rgb(117,17,20)" stop-opacity="1.000"/><stop offset="100.0%" stop-color="rgb(229,84,37)" stop-opacity="1.000"/></linearGradient><linearGradient id="g156" gradientUnits="userSpaceOnUse" x1="15.96" y1="30.00" x2="28.65" y2="30.00"><stop offset="0.0%" stop-color="rgb(117,17,20)" stop-opacity="1.000"/><stop offset="100.0%" stop-color="rgb(229,84,37)" stop-opacity="1.000"/></linearGradient><linearGradient id="g157" gradientUnits="userSpaceOnUse" x1="15.96" y1="30.00" x2="28.65" y2="30.00"><stop offset="0.0%" stop-color="rgb(117,17,20)" stop-opacity="1.000"/><stop offset="100.0%" stop-color="rgb(229,84,37)" stop-opacity="1.000"/></linearGradient><linearGradient id="g158" gradientUnits="userSpaceOnUse" x1="1.98" y1="30.00" x2="13.10" y2="30.00"><stop offset="1.0%" stop-color="rgb(117,17,20)" stop-opacity="1.000"/><stop offset="100.0%" stop-color="rgb(229,84,37)" stop-opacity="1.000"/></linearGradient><linearGradient id="g159" gradientUnits="userSpaceOnUse" x1="1.98" y1="30.00" x2="13.10" y2="30.00"><stop offset="0.0%" stop-color="rgb(117,17,20)" stop-opacity="1.000"/><stop offset="100.0%" stop-color="rgb(229,84,37)" stop-opacity="1.000"/></linearGradient><linearGradient id="g160" gradientUnits="userSpaceOnUse" x1="1.98" y1="30.00" x2="13.10" y2="30.00"><stop offset="0.0%" stop-color="rgb(117,17,20)" stop-opacity="1.000"/><stop offset="100.0%" stop-color="rgb(229,84,37)" stop-opacity="1.000"/></linearGradient><linearGradient id="g161" gradientUnits="userSpaceOnUse" x1="1.98" y1="30.00" x2="13.10" y2="30.00"><stop offset="0.0%" stop-color="rgb(117,17,20)" stop-opacity="1.000"/><stop offset="100.0%" stop-color="rgb(229,84,37)" stop-opacity="1.000"/></linearGradient><linearGradient id="g162" gradientUnits="userSpaceOnUse" x1="1.98" y1="30.00" x2="13.10" y2="30.00"><stop offset="0.0%" stop-color="rgb(117,17,20)" stop-opacity="1.000"/><stop offset="100.0%" stop-color="rgb(229,84,37)" stop-opacity="1.000"/></linearGradient><linearGradient id="g163" gradientUnits="userSpaceOnUse" x1="1.98" y1="30.00" x2="13.10" y2="30.00"><stop offset="0.0%" stop-color="rgb(117,17,20)" stop-opacity="1.000"/><stop offset="100.0%" stop-color="rgb(229,84,37)" stop-opacity="1.000"/></linearGradient><linearGradient id="g164" gradientUnits="userSpaceOnUse" x1="1.98" y1="30.00" x2="13.10" y2="30.00"><stop offset="0.0%" stop-color="rgb(117,17,20)" stop-opacity="1.000"/><stop offset="100.0%" stop-color="rgb(229,84,37)" stop-opacity="1.000"/></linearGradient><linearGradient id="g165" gradientUnits="userSpaceOnUse" x1="1.98" y1="30.00" x2="13.10" y2="30.00"><stop offset="0.0%" stop-color="rgb(117,17,20)" stop-opacity="1.000"/><stop offset="100.0%" stop-color="rgb(229,84,37)" stop-opacity="1.000"/></linearGradient><linearGradient id="g166" gradientUnits="userSpaceOnUse" x1="1.98" y1="30.00" x2="13.10" y2="30.00"><stop offset="0.0%" stop-color="rgb(117,17,20)" stop-opacity="1.000"/><stop offset="100.0%" stop-color="rgb(229,84,37)" stop-opacity="1.000"/></linearGradient><linearGradient id="g167" gradientUnits="userSpaceOnUse" x1="1.98" y1="30.00" x2="13.10" y2="30.00"><stop offset="0.0%" stop-color="rgb(117,17,20)" stop-opacity="1.000"/><stop offset="100.0%" stop-color="rgb(229,84,37)" stop-opacity="1.000"/></linearGradient></defs><path d="M0 0L130 0L130 60L0 60L0 0Z" fill="rgb(255,255,255)" fill-opacity="1.000" fill-rule="nonzero" transform="matrix(1 0 0 1 0 0)"/><path d="M26.254 15.157L0.002 0L0.002 3.503L2.986 1.784L2.986 5.55L0.002 3.83L0.002 7.333L2.986 5.614L2.986 9.38L0.002 7.66L0.002 11.162L2.986 9.443L2.986 13.209L0.002 11.489L0.002 14.991L2.986 13.271L2.986 17.038L0 15.32L0 18.822L2.984 17.102L2.984 20.869L0 19.149L0 22.652L2.984 20.932L2.984 24.699L0 22.979L0 26.481L2.984 24.761L2.984 28.528L0 26.808L0 30.31L26.254 15.153L26.254 15.157ZM20.887 15.892L19.616 15.159L19.619 15.157L19.616 15.155L20.887 14.422L20.887 15.892ZM17.905 14.169L16.303 13.246L16.306 13.244L16.303 13.242L17.905 12.319L17.905 14.169ZM12.986 15.159L12.989 15.157L12.986 15.155L14.921 14.04L14.921 16.275L12.986 15.158L12.986 15.159ZM9.668 17.074L9.671 17.072L9.668 17.07L11.937 15.763L11.937 18.38L9.668 17.073L9.668 17.074ZM6.353 18.989L6.356 18.987L6.353 18.985L8.953 17.487L8.953 20.488L6.353 18.989ZM6.353 15.156L8.953 13.658L8.953 16.659L6.353 15.16L6.356 15.158L6.353 15.156ZM6.353 11.326L8.953 9.828L8.953 12.829L6.353 11.33L6.356 11.328L6.353 11.326ZM9.668 13.244L9.671 13.242L9.668 13.24L11.937 11.933L11.937 14.551L9.668 13.243L9.668 13.244ZM14.921 12.444L12.986 11.329L12.989 11.327L12.986 11.325L14.921 10.21L14.921 12.443L14.921 12.444ZM11.937 10.722L9.668 9.414L9.671 9.412L9.668 9.41L11.937 8.103L11.937 10.721L11.937 10.722ZM8.953 8.999L6.353 7.5L6.356 7.498L6.353 7.496L8.953 5.998L8.953 8.999ZM3.037 5.581L5.969 3.891L5.969 7.274L3.037 5.583L3.04 5.581L3.037 5.581ZM3.037 9.411L5.969 7.721L5.969 11.104L3.037 9.413L3.04 9.411L3.037 9.411ZM3.037 13.241L5.969 11.551L5.969 14.934L3.037 13.243L3.04 13.241L3.037 13.241ZM3.037 17.071L5.969 15.381L5.969 18.764L3.037 17.073L3.04 17.071L3.037 17.071ZM3.037 20.901L5.969 19.211L5.969 22.594L3.037 20.903L3.04 20.901L3.037 20.901ZM3.037 24.734L3.04 24.732L3.037 24.73L5.969 23.04L5.969 26.423L3.037 24.734ZM6.354 22.819L6.357 22.817L6.354 22.815L8.954 21.317L8.954 24.318L6.354 22.819ZM9.669 20.904L9.672 20.902L9.669 20.9L11.938 19.593L11.938 22.21L9.669 20.903L9.669 20.904ZM12.987 18.989L12.99 18.987L12.987 18.985L14.922 17.87L14.922 20.105L12.987 18.989ZM16.302 17.074L16.305 17.072L16.302 17.07L17.904 16.147L17.904 17.998L16.302 17.073L16.302 17.074Z" fill="url(#g148)" fill-rule="nonzero" transform="matrix(1 0 0 1 21.8832 14.83)"/><path d="M0 3.12L2.707 1.56L0 0L0 3.121L0 3.12Z" fill="url(#g149)" fill-rule="nonzero" transform="matrix(1 0 0 1 18.9018 13.1067)"/><path d="M0 3.12L2.707 1.56L0 0L0 3.121L0 3.12Z" fill="url(#g150)" fill-rule="nonzero" transform="matrix(1 0 0 1 18.9018 16.937)"/><path d="M0 3.12L2.707 1.56L0 0L0 3.121L0 3.12Z" fill="url(#g151)" fill-rule="nonzero" transform="matrix(1 0 0 1 18.9018 20.767)"/><path d="M0 3.12L2.707 1.56L0 0L0 3.121L0 3.12Z" fill="url(#g152)" fill-rule="nonzero" transform="matrix(1 0 0 1 18.9018 24.5969)"/><path d="M0 3.12L2.707 1.56L0 0L0 3.121L0 3.12Z" fill="url(#g153)" fill-rule="nonzero" transform="matrix(1 0 0 1 18.9018 28.4269)"/><path d="M0 3.12L2.707 1.56L0 0L0 3.121L0 3.12Z" fill="url(#g154)" fill-rule="nonzero" transform="matrix(1 0 0 1 18.9018 32.2576)"/><path d="M0 3.12L2.707 1.56L0 0L0 3.121L0 3.12Z" fill="url(#g155)" fill-rule="nonzero" transform="matrix(1 0 0 1 18.9018 36.088)"/><path d="M0 3.12L2.707 1.56L0 0L0 3.121L0 3.12Z" fill="url(#g156)" fill-rule="nonzero" transform="matrix(1 0 0 1 18.9018 39.9179)"/><path d="M0 3.12L2.707 1.56L0 0L0 3.121L0 3.12Z" fill="url(#g157)" fill-rule="nonzero" transform="matrix(1 0 0 1 18.9018 43.7478)"/><path d="M0 2.737L2.373 1.368L0 0L0 2.737Z" fill="url(#g158)" fill-rule="nonzero" transform="matrix(1 0 0 1 15.9172 11.383)"/><path d="M0 2.737L2.373 1.368L0 0L0 2.737Z" fill="url(#g159)" fill-rule="nonzero" transform="matrix(1 0 0 1 15.9172 15.213)"/><path d="M0 2.737L2.373 1.368L0 0L0 2.737Z" fill="url(#g160)" fill-rule="nonzero" transform="matrix(1 0 0 1 15.9172 19.0429)"/><path d="M0 2.737L2.373 1.368L0 0L0 2.737Z" fill="url(#g161)" fill-rule="nonzero" transform="matrix(1 0 0 1 15.9172 22.8728)"/><path d="M0 2.738L2.373 1.369L0 0L0 2.737L0 2.738Z" fill="url(#g162)" fill-rule="nonzero" transform="matrix(1 0 0 1 15.9172 26.7028)"/><path d="M0 2.738L2.373 1.369L0 0L0 2.737L0 2.738Z" fill="url(#g163)" fill-rule="nonzero" transform="matrix(1 0 0 1 15.9172 30.5331)"/><path d="M0 2.737L2.373 1.368L0 0L0 2.737Z" fill="url(#g164)" fill-rule="nonzero" transform="matrix(1 0 0 1 15.9172 34.3639)"/><path d="M0 2.738L2.373 1.369L0 0L0 2.737L0 2.738Z" fill="url(#g165)" fill-rule="nonzero" transform="matrix(1 0 0 1 15.9172 38.193)"/><path d="M0 2.738L2.373 1.369L0 0L0 2.737L0 2.738Z" fill="url(#g166)" fill-rule="nonzero" transform="matrix(1 0 0 1 15.9172 42.0229)"/><path d="M0 2.738L2.373 1.369L0 0L0 2.737L0 2.738Z" fill="url(#g167)" fill-rule="nonzero" transform="matrix(1 0 0 1 15.9172 45.8529)"/><path d="M4.052 16.264C2.505 16.264 0.892 15.894 0 15.416L1.002 12.763C1.699 13.175 2.831 13.503 3.899 13.503C5.357 13.503 6.294 12.743 6.294 11.59C6.294 10.437 5.293 9.917 4.137 9.394C2.372 8.589 0.172 7.415 0.172 4.654C0.172 1.893 2.132 0 5.292 0C6.837 0 8.167 0.37 8.972 0.848L8.015 3.326C7.449 3.001 6.425 2.631 5.422 2.631C4.094 2.631 3.244 3.371 3.244 4.479C3.244 5.587 4.312 6.152 5.467 6.72C7.188 7.568 9.431 8.655 9.431 11.437C9.431 14.22 7.449 16.264 4.052 16.264Z" fill="rgb(241,92,42)" fill-opacity="1.000" fill-rule="nonzero" transform="matrix(1 0 0 1 54.2979 20.7921)"/><path d="M4.836 15.351C2.571 15.351 1.503 14.111 1.503 11.655L1.503 5.675L0 5.675L0 3.457L1.503 3.457L1.503 0.848L4.422 0L4.422 3.457L6.622 3.457L6.622 5.675L4.422 5.675L4.422 11.46C4.422 12.415 5.011 12.743 5.773 12.743C6.079 12.743 6.427 12.656 6.622 12.568L6.622 15.024C6.274 15.199 5.555 15.351 4.836 15.351Z" fill="rgb(241,92,42)" fill-opacity="1.000" fill-rule="nonzero" transform="matrix(1 0 0 1 65.0581 21.6171)"/><path d="M5.771 2.565C5.4 2.457 4.921 2.39 4.443 2.39C3.899 2.39 3.333 2.477 2.962 2.63L2.962 11.979L0 11.979L0 0.848C1.221 0.37 2.897 0 4.793 0C5.403 0 5.926 0.042 6.319 0.108L5.772 2.564L5.771 2.565Z" fill="rgb(241,92,42)" fill-opacity="1.000" fill-rule="nonzero" transform="matrix(1 0 0 1 74.6664 24.815)"/><path d="M5.295 12.24C1.767 12.24 0 10.849 0 8.457C0 5.261 3.333 4.63 6.883 4.435L6.883 3.827C6.883 2.61 6.033 2.154 4.683 2.154C3.573 2.154 2.222 2.501 1.393 2.849L0.651 0.848C1.631 0.436 3.309 0 5.008 0C8.014 0 9.691 1.174 9.691 4.175L9.691 11.393C8.821 11.85 7.056 12.241 5.293 12.241L5.295 12.24ZM6.884 6.325C4.706 6.434 2.788 6.63 2.788 8.391C2.788 9.499 3.66 10.13 5.205 10.13C5.836 10.13 6.578 10.022 6.882 9.89L6.882 6.325L6.884 6.325Z" fill="rgb(241,92,42)" fill-opacity="1.000" fill-rule="nonzero" transform="matrix(1 0 0 1 81.4388 24.8162)"/><path d="M5.86 17.331C2.069 17.331 0 15.09 0 11.286C0 7.677 1.894 5.24 5.489 5.24C6.121 5.24 6.797 5.349 7.165 5.48L7.165 0L10.149 0L10.149 16.482C9.302 16.939 7.646 17.33 5.86 17.33L5.86 17.331ZM7.165 7.699C6.925 7.591 6.316 7.482 5.793 7.482C3.941 7.482 2.962 9.025 2.962 11.243C2.962 13.614 3.964 15.004 5.793 15.004C6.317 15.004 6.925 14.896 7.165 14.765L7.165 7.699Z" fill="rgb(241,92,42)" fill-opacity="1.000" fill-rule="nonzero" transform="matrix(1 0 0 1 92.9179 19.7253)"/><path d="M5.294 12.24C1.766 12.24 0 10.849 0 8.457C0 5.261 3.333 4.63 6.883 4.435L6.883 3.827C6.883 2.61 6.033 2.154 4.683 2.154C3.573 2.154 2.222 2.501 1.393 2.849L0.651 0.848C1.631 0.436 3.309 0 5.008 0C8.014 0 9.691 1.174 9.691 4.175L9.691 11.393C8.823 11.85 7.058 12.241 5.293 12.241L5.294 12.24ZM6.884 6.325C4.706 6.434 2.79 6.63 2.79 8.391C2.79 9.499 3.662 10.13 5.207 10.13C5.838 10.13 6.58 10.022 6.884 9.89L6.884 6.325Z" fill="rgb(241,92,42)" fill-opacity="1.000" fill-rule="nonzero" transform="matrix(1 0 0 1 104.3094 24.8162)"/></svg>