<svg xmlns="http://www.w3.org/2000/svg" viewBox="0 0 60 60" width="60" height="60"><defs><linearGradient id="g128" gradientUnits="userSpaceOnUse" x1="13.82" y1="30.00" x2="70.59" y2="30.00"><stop offset="0.0%" stop-color="rgb(117,17,20)" stop-opacity="1.000"/><stop offset="100.0%" stop-color="rgb(229,84,37)" stop-opacity="1.000"/></linearGradient><linearGradient id="g129" gradientUnits="userSpaceOnUse" x1="7.13" y1="30.00" x2="12.98" y2="30.00"><stop offset="0.0%" stop-color="rgb(117,17,20)" stop-opacity="1.000"/><stop offset="100.0%" stop-color="rgb(229,84,37)" stop-opacity="1.000"/></linearGradient><linearGradient id="g130" gradientUnits="userSpaceOnUse" x1="7.37" y1="30.00" x2="13.22" y2="30.00"><stop offset="0.0%" stop-color="rgb(117,17,20)" stop-opacity="1.000"/><stop offset="100.0%" stop-color="rgb(229,84,37)" stop-opacity="1.000"/></linearGradient><linearGradient id="g131" gradientUnits="userSpaceOnUse" x1="7.37" y1="30.00" x2="13.22" y2="30.00"><stop offset="0.0%" stop-color="rgb(117,17,20)" stop-opacity="1.000"/><stop offset="100.0%" stop-color="rgb(229,84,37)" stop-opacity="1.000"/></linearGradient><linearGradient id="g132" gradientUnits="userSpaceOnUse" x1="7.37" y1="30.00" x2="13.22" y2="30.00"><stop offset="0.0%" stop-color="rgb(117,17,20)" stop-opacity="1.000"/><stop offset="100.0%" stop-color="rgb(229,84,37)" stop-opacity="1.000"/></linearGradient><linearGradient id="g133" gradientUnits="userSpaceOnUse" x1="7.37" y1="30.00" x2="13.22" y2="30.00"><stop offset="0.0%" stop-color="rgb(117,17,20)" stop-opacity="1.000"/><stop offset="100.0%" stop-color="rgb(229,84,37)" stop-opacity="1.000"/></linearGradient><linearGradient id="g134" gradientUnits="userSpaceOnUse" x1="7.37" y1="30.00" x2="13.22" y2="30.00"><stop offset="0.0%" stop-color="rgb(117,17,20)" stop-opacity="1.000"/><stop offset="100.0%" stop-color="rgb(229,84,37)" stop-opacity="1.000"/></linearGradient><linearGradient id="g135" gradientUnits="userSpaceOnUse" x1="7.37" y1="30.00" x2="13.22" y2="30.00"><stop offset="0.0%" stop-color="rgb(117,17,20)" stop-opacity="1.000"/><stop offset="100.0%" stop-color="rgb(229,84,37)" stop-opacity="1.000"/></linearGradient><linearGradient id="g136" gradientUnits="userSpaceOnUse" x1="7.37" y1="30.00" x2="13.22" y2="30.00"><stop offset="0.0%" stop-color="rgb(117,17,20)" stop-opacity="1.000"/><stop offset="100.0%" stop-color="rgb(229,84,37)" stop-opacity="1.000"/></linearGradient><linearGradient id="g137" gradientUnits="userSpaceOnUse" x1="7.37" y1="30.00" x2="13.22" y2="30.00"><stop offset="0.0%" stop-color="rgb(117,17,20)" stop-opacity="1.000"/><stop offset="100.0%" stop-color="rgb(229,84,37)" stop-opacity="1.000"/></linearGradient><linearGradient id="g138" gradientUnits="userSpaceOnUse" x1="0.92" y1="30.00" x2="6.05" y2="30.00"><stop offset="1.0%" stop-color="rgb(117,17,20)" stop-opacity="1.000"/><stop offset="100.0%" stop-color="rgb(229,84,37)" stop-opacity="1.000"/></linearGradient><linearGradient id="g139" gradientUnits="userSpaceOnUse" x1="0.92" y1="30.00" x2="6.05" y2="30.00"><stop offset="0.0%" stop-color="rgb(117,17,20)" stop-opacity="1.000"/><stop offset="100.0%" stop-color="rgb(229,84,37)" stop-opacity="1.000"/></linearGradient><linearGradient id="g140" gradientUnits="userSpaceOnUse" x1="0.92" y1="30.00" x2="6.05" y2="30.00"><stop offset="0.0%" stop-color="rgb(117,17,20)" stop-opacity="1.000"/><stop offset="100.0%" stop-color="rgb(229,84,37)" stop-opacity="1.000"/></linearGradient><linearGradient id="g141" gradientUnits="userSpaceOnUse" x1="0.92" y1="30.00" x2="6.05" y2="30.00"><stop offset="0.0%" stop-color="rgb(117,17,20)" stop-opacity="1.000"/><stop offset="100.0%" stop-color="rgb(229,84,37)" stop-opacity="1.000"/></linearGradient><linearGradient id="g142" gradientUnits="userSpaceOnUse" x1="0.92" y1="30.00" x2="6.05" y2="30.00"><stop offset="0.0%" stop-color="rgb(117,17,20)" stop-opacity="1.000"/><stop offset="100.0%" stop-color="rgb(229,84,37)" stop-opacity="1.000"/></linearGradient><linearGradient id="g143" gradientUnits="userSpaceOnUse" x1="0.92" y1="30.00" x2="6.05" y2="30.00"><stop offset="0.0%" stop-color="rgb(117,17,20)" stop-opacity="1.000"/><stop offset="100.0%" stop-color="rgb(229,84,37)" stop-opacity="1.000"/></linearGradient><linearGradient id="g144" gradientUnits="userSpaceOnUse" x1="0.92" y1="30.00" x2="6.05" y2="30.00"><stop offset="0.0%" stop-color="rgb(117,17,20)" stop-opacity="1.000"/><stop offset="100.0%" stop-color="rgb(229,84,37)" stop-opacity="1.000"/></linearGradient><linearGradient id="g145" gradientUnits="userSpaceOnUse" x1="0.92" y1="30.00" x2="6.05" y2="30.00"><stop offset="0.0%" stop-color="rgb(117,17,20)" stop-opacity="1.000"/><stop offset="100.0%" stop-color="rgb(229,84,37)" stop-opacity="1.000"/></linearGradient><linearGradient id="g146" gradientUnits="userSpaceOnUse" x1="0.92" y1="30.00" x2="6.05" y2="30.00"><stop offset="0.0%" stop-color="rgb(117,17,20)" stop-opacity="1.000"/><stop offset="100.0%" stop-color="rgb(229,84,37)" stop-opacity="1.000"/></linearGradient><linearGradient id="g147" gradientUnits="userSpaceOnUse" x1="0.92" y1="30.00" x2="6.05" y2="30.00"><stop offset="0.0%" stop-color="rgb(117,17,20)" stop-opacity="1.000"/><stop offset="100.0%" stop-color="rgb(229,84,37)" stop-opacity="1.000"/></linearGradient></defs><path d="M0 0L60 0L60 60L0 60L0 0Z" fill="rgb(255,255,255)" fill-opacity="1.000" fill-rule="nonzero" transform="matrix(1 0 0 1 0 0)"/><path d="M31.028 17.913L0.002 0L0.002 4.14L3.529 2.108L3.529 6.559L0.002 4.526L0.002 8.667L3.529 6.634L3.529 11.085L0.002 9.053L0.002 13.192L3.529 11.16L3.529 15.611L0.002 13.578L0.002 17.717L3.529 15.685L3.529 20.136L0 18.106L0 22.245L3.527 20.212L3.527 24.664L0 22.631L0 26.771L3.527 24.739L3.527 29.19L0 27.157L0 31.297L3.527 29.264L3.527 33.715L0 31.683L0 35.822L31.028 17.909L31.028 17.913ZM24.686 18.782L23.183 17.916L23.187 17.913L23.183 17.911L24.686 17.045L24.686 18.782ZM21.161 16.746L19.267 15.655L19.271 15.652L19.267 15.65L21.161 14.559L21.161 16.746ZM15.347 17.916L15.351 17.913L15.347 17.911L17.635 16.593L17.635 19.235L15.347 17.915L15.347 17.916ZM11.426 20.179L11.43 20.177L11.426 20.174L14.108 18.629L14.108 21.723L11.426 20.178L11.426 20.179ZM7.508 22.442L7.512 22.44L7.508 22.437L10.581 20.666L10.581 24.213L7.508 22.442ZM7.508 17.912L10.581 16.141L10.581 19.688L7.508 17.917L7.512 17.915L7.508 17.912ZM7.508 13.386L10.581 11.615L10.581 15.161L7.508 13.39L7.512 13.388L7.508 13.386ZM11.426 15.652L11.43 15.65L11.426 15.648L14.108 14.103L14.108 17.196L11.426 15.651L11.426 15.652ZM17.635 14.707L15.347 13.389L15.351 13.387L15.347 13.384L17.635 12.066L17.635 14.706L17.635 14.707ZM14.108 12.671L11.426 11.126L11.43 11.124L11.426 11.121L14.108 9.576L14.108 12.67L14.108 12.671ZM10.581 10.635L7.508 8.864L7.512 8.862L7.508 8.859L10.581 7.088L10.581 10.635ZM3.589 6.596L7.055 4.598L7.055 8.596L3.589 6.598L3.593 6.596L3.589 6.596ZM3.589 11.122L7.055 9.125L7.055 13.123L3.589 11.125L3.593 11.122L3.589 11.122ZM3.589 15.649L7.055 13.651L7.055 17.649L3.589 15.651L3.593 15.649L3.589 15.649ZM3.589 20.175L7.055 18.177L7.055 22.176L3.589 20.178L3.593 20.175L3.589 20.175ZM3.589 24.702L7.055 22.704L7.055 26.702L3.589 24.704L3.593 24.702L3.589 24.702ZM3.589 29.232L3.593 29.229L3.589 29.227L7.055 27.229L7.055 31.227L3.589 29.232ZM7.509 26.969L7.513 26.966L7.509 26.964L10.582 25.193L10.582 28.739L7.509 26.969ZM11.428 24.705L11.431 24.703L11.428 24.701L14.109 23.156L14.109 26.249L11.428 24.704L11.428 24.705ZM15.348 22.442L15.352 22.44L15.348 22.437L17.636 21.119L17.636 23.761L15.348 22.442ZM19.266 20.179L19.27 20.177L19.266 20.174L21.16 19.083L21.16 21.271L19.266 20.178L19.266 20.179Z" fill="url(#g128)" fill-rule="nonzero" transform="matrix(1 0 0 1 18.0508 12.0737)"/><path d="M0 3.688L3.199 1.844L0 0L0 3.689L0 3.688Z" fill="url(#g129)" fill-rule="nonzero" transform="matrix(1 0 0 1 14.5273 10.0371)"/><path d="M0 3.688L3.199 1.844L0 0L0 3.689L0 3.688Z" fill="url(#g130)" fill-rule="nonzero" transform="matrix(1 0 0 1 14.5273 14.564)"/><path d="M0 3.688L3.199 1.844L0 0L0 3.689L0 3.688Z" fill="url(#g131)" fill-rule="nonzero" transform="matrix(1 0 0 1 14.5273 19.0903)"/><path d="M0 3.688L3.199 1.844L0 0L0 3.689L0 3.688Z" fill="url(#g132)" fill-rule="nonzero" transform="matrix(1 0 0 1 14.5273 23.6167)"/><path d="M0 3.688L3.199 1.844L0 0L0 3.689L0 3.688Z" fill="url(#g133)" fill-rule="nonzero" transform="matrix(1 0 0 1 14.5273 28.1431)"/><path d="M0 3.688L3.199 1.844L0 0L0 3.689L0 3.688Z" fill="url(#g134)" fill-rule="nonzero" transform="matrix(1 0 0 1 14.5273 32.6704)"/><path d="M0 3.688L3.199 1.844L0 0L0 3.689L0 3.688Z" fill="url(#g135)" fill-rule="nonzero" transform="matrix(1 0 0 1 14.5273 37.1973)"/><path d="M0 3.688L3.199 1.844L0 0L0 3.689L0 3.688Z" fill="url(#g136)" fill-rule="nonzero" transform="matrix(1 0 0 1 14.5273 41.7236)"/><path d="M0 3.688L3.199 1.844L0 0L0 3.689L0 3.688Z" fill="url(#g137)" fill-rule="nonzero" transform="matrix(1 0 0 1 14.5273 46.25)"/><path d="M0 3.235L2.805 1.617L0 0L0 3.235Z" fill="url(#g138)" fill-rule="nonzero" transform="matrix(1 0 0 1 11 8)"/><path d="M0 3.235L2.805 1.617L0 0L0 3.235Z" fill="url(#g139)" fill-rule="nonzero" transform="matrix(1 0 0 1 11 12.5264)"/><path d="M0 3.235L2.805 1.617L0 0L0 3.235Z" fill="url(#g140)" fill-rule="nonzero" transform="matrix(1 0 0 1 11 17.0527)"/><path d="M0 3.235L2.805 1.617L0 0L0 3.235Z" fill="url(#g141)" fill-rule="nonzero" transform="matrix(1 0 0 1 11 21.5791)"/><path d="M0 3.236L2.805 1.618L0 0L0 3.235L0 3.236Z" fill="url(#g142)" fill-rule="nonzero" transform="matrix(1 0 0 1 11 26.1055)"/><path d="M0 3.236L2.805 1.618L0 0L0 3.235L0 3.236Z" fill="url(#g143)" fill-rule="nonzero" transform="matrix(1 0 0 1 11 30.6323)"/><path d="M0 3.235L2.805 1.617L0 0L0 3.235Z" fill="url(#g144)" fill-rule="nonzero" transform="matrix(1 0 0 1 11 35.1597)"/><path d="M0 3.236L2.805 1.618L0 0L0 3.235L0 3.236Z" fill="url(#g145)" fill-rule="nonzero" transform="matrix(1 0 0 1 11 39.6851)"/><path d="M0 3.236L2.805 1.618L0 0L0 3.235L0 3.236Z" fill="url(#g146)" fill-rule="nonzero" transform="matrix(1 0 0 1 11 44.2114)"/><path d="M0 3.236L2.805 1.618L0 0L0 3.235L0 3.236Z" fill="url(#g147)" fill-rule="nonzero" transform="matrix(1 0 0 1 11 48.7378)"/></svg>