<svg xmlns="http://www.w3.org/2000/svg" viewBox="0 0 60 60" width="60" height="60"><path d="M0 0L60 0L60 60L0 60L0 0Z" fill="rgb(0,72,49)" fill-opacity="1.000" fill-rule="nonzero" transform="matrix(1 0 0 1 0 0)"/><path d="M0.079 23.51L0.079 3.806C0.079 3.611 0.167 3.476 0.343 3.401L8.227 0.017C8.318 -0.023 8.364 0.008 8.364 0.108L8.364 20.411C8.364 20.539 8.306 20.628 8.192 20.677L0.224 24.088C0.205 24.096 0.185 24.101 0.165 24.101C0.145 24.101 0.124 24.097 0.106 24.089C0.087 24.081 0.07 24.069 0.056 24.054C0.042 24.039 0.031 24.022 0.023 24.003C-0.01 23.908 -0.008 23.821 0.029 23.74C0.062 23.667 0.079 23.591 0.079 23.51Z" fill="rgb(196,215,0)" fill-opacity="1.000" fill-rule="nonzero" transform="matrix(1 0 0 1 34.6727 9)"/><path d="M8.349 0.095L8.366 20.471C8.366 20.491 8.36 20.509 8.349 20.525L0.174 32.845C0.163 32.862 0.146 32.875 0.127 32.881C0.108 32.888 0.088 32.888 0.068 32.883C0.049 32.877 0.032 32.865 0.02 32.849C0.007 32.832 0.001 32.813 0 32.792L0.009 12.4C0.009 12.381 0.015 12.363 0.026 12.347L8.175 0.041C8.186 0.025 8.203 0.012 8.222 0.005C8.241 -0.001 8.261 -0.002 8.281 0.004C8.3 0.01 8.317 0.022 8.329 0.038C8.342 0.054 8.348 0.074 8.349 0.095Z" fill="rgb(196,215,0)" fill-opacity="1.000" fill-rule="nonzero" transform="matrix(1 0 0 1 25.4426 13.0011)"/><path d="M0.122 3.528L8.218 0.016C8.249 0.003 8.282 -0.002 8.316 0.001C8.349 0.004 8.381 0.015 8.409 0.034C8.437 0.053 8.46 0.078 8.475 0.108C8.491 0.138 8.5 0.171 8.5 0.205L8.506 20.39C8.506 20.43 8.494 20.47 8.471 20.503C8.449 20.537 8.418 20.563 8.381 20.579L0.282 24.058C0.251 24.071 0.217 24.076 0.184 24.073C0.15 24.07 0.118 24.058 0.09 24.039C0.062 24.02 0.039 23.994 0.024 23.964C0.008 23.934 0 23.9 0 23.866L0 3.717C0 3.676 0.012 3.637 0.033 3.604C0.055 3.57 0.086 3.544 0.122 3.528Z" fill="rgb(196,215,0)" fill-opacity="1.000" fill-rule="nonzero" transform="matrix(1 0 0 1 16 25.9372)"/></svg>