<svg xmlns="http://www.w3.org/2000/svg" viewBox="0 0 130 60" width="130" height="60"><path d="M0 0L130 0L130 60L0 60L0 0Z" fill="rgb(255,255,255)" fill-opacity="1.000" fill-rule="nonzero" transform="matrix(1 0 0 1 0 0)"/><path d="M113.739 25.771C113.739 25.798 113.728 25.824 113.709 25.843C113.691 25.862 113.665 25.873 113.638 25.873L0.1 25.873C0.074 25.873 0.048 25.862 0.029 25.843C0.011 25.824 0 25.798 0 25.771L0 0.102C0 0.075 0.011 0.049 0.029 0.03C0.048 0.011 0.074 0 0.1 0L113.638 0C113.665 0 113.691 0.011 113.709 0.03C113.728 0.049 113.739 0.075 113.739 0.102L113.739 25.771ZM33.626 13.675C33.61 13.71 33.609 13.748 33.624 13.789C33.627 13.797 33.632 13.805 33.638 13.811C33.644 13.818 33.651 13.823 33.659 13.826C33.667 13.83 33.676 13.831 33.685 13.831C33.694 13.831 33.702 13.829 33.71 13.826L37.152 12.353C37.201 12.331 37.226 12.293 37.226 12.238L37.226 3.469C37.226 3.426 37.206 3.413 37.167 3.43L33.762 4.892C33.686 4.924 33.648 4.982 33.648 5.066L33.648 13.576C33.648 13.611 33.64 13.644 33.626 13.675ZM33.233 5.191C33.233 5.182 33.23 5.174 33.225 5.167C33.219 5.16 33.212 5.155 33.204 5.152C33.195 5.149 33.186 5.15 33.178 5.153C33.17 5.155 33.163 5.161 33.158 5.168L29.639 10.483C29.634 10.49 29.631 10.498 29.631 10.506L29.627 19.313C29.628 19.321 29.631 19.33 29.636 19.337C29.641 19.344 29.649 19.349 29.657 19.352C29.665 19.354 29.674 19.354 29.682 19.351C29.691 19.348 29.698 19.343 29.703 19.336L33.233 14.015C33.238 14.008 33.241 14 33.241 13.992L33.233 5.191ZM44.5 8.022C43.245 9.586 43.955 11.622 45.341 12.824C46.197 13.566 46.858 14.153 47.326 14.585C48.991 16.125 48.337 18.724 45.844 18.466C44.641 18.343 44.076 17.449 44.057 16.267C44.055 16.207 44.025 16.178 43.967 16.179L43.69 16.182C43.628 16.182 43.594 16.214 43.589 16.278C43.545 16.767 43.267 18.655 43.762 18.884C45.456 19.672 48.012 19.487 49.095 17.742C49.935 16.39 49.743 14.722 48.714 13.51C47.94 12.602 46.755 11.768 46.054 11.112C44.452 9.615 44.955 7.527 47.307 7.769C48.213 7.862 48.718 8.332 48.823 9.179C48.837 9.291 48.856 9.37 48.878 9.416C48.948 9.555 49.056 9.571 49.2 9.463C49.236 9.436 49.265 9.401 49.286 9.36C49.307 9.32 49.318 9.275 49.319 9.229L49.365 7.297C49.366 7.25 49.344 7.221 49.299 7.211C47.619 6.816 45.71 6.513 44.5 8.022ZM78.807 8.755C77.376 10.34 76.98 13.055 77.614 15.104C78.846 19.087 82.943 19.922 86.472 18.861C86.769 18.772 86.928 18.649 86.992 18.32C87.127 17.615 87.211 16.904 87.244 16.185C87.251 16.03 87.182 15.937 87.038 15.905C86.992 15.894 86.944 15.903 86.905 15.927C86.865 15.952 86.836 15.991 86.825 16.037C86.665 16.676 86.541 17.372 85.961 17.769C85.436 18.13 84.853 18.31 84.211 18.31C81.513 18.305 79.705 16.727 79.039 14.195C78.822 13.366 78.763 12.539 78.865 11.714C79.214 8.879 80.836 7.558 83.731 7.753C85.103 7.845 86.425 8.506 86.468 10.097C86.471 10.223 86.493 10.306 86.532 10.345C86.598 10.411 86.704 10.414 86.851 10.357C86.875 10.347 86.896 10.33 86.911 10.308C86.925 10.286 86.933 10.261 86.934 10.234L86.978 7.355C86.978 7.303 86.953 7.274 86.902 7.266C84.027 6.839 81.049 6.268 78.807 8.755ZM62.076 10.759C62.254 13.107 62.459 15.5 62.69 17.937C62.719 18.252 62.677 18.525 62.564 18.756C62.551 18.783 62.545 18.812 62.545 18.842C62.546 18.872 62.554 18.902 62.568 18.928C62.583 18.954 62.604 18.976 62.628 18.992C62.653 19.009 62.682 19.018 62.711 19.021C63.714 19.111 64.719 19.117 65.726 19.04C65.748 19.038 65.769 19.028 65.785 19.012C65.8 18.996 65.81 18.975 65.811 18.952L65.824 18.744C65.827 18.682 65.798 18.649 65.737 18.644C65.46 18.618 65.185 18.581 64.912 18.531C64.12 18.387 64.08 17.307 64.017 16.668C63.709 13.5 63.392 10.334 63.065 7.169C63.05 7.03 62.945 6.947 62.75 6.919C62.732 6.917 62.713 6.919 62.696 6.925C62.678 6.932 62.663 6.943 62.651 6.958C62.557 7.07 62.476 7.207 62.406 7.368C61.121 10.356 59.817 13.403 58.494 16.507C58.449 16.612 58.403 16.612 58.357 16.509C56.985 13.411 55.595 10.282 54.189 7.123C54.021 6.743 53.647 6.958 53.613 7.297C53.248 10.876 52.884 14.456 52.523 18.036C52.444 18.817 51.748 18.386 51.498 18.809C51.483 18.836 51.475 18.866 51.475 18.896C51.474 18.927 51.482 18.957 51.497 18.983C51.512 19.01 51.534 19.032 51.56 19.047C51.587 19.062 51.616 19.07 51.647 19.069C52.582 19.055 53.531 19.052 54.494 19.06C54.572 19.061 54.628 19.048 54.661 19.02C54.725 18.969 54.734 18.891 54.69 18.786C54.677 18.754 54.656 18.726 54.63 18.703C54.604 18.68 54.574 18.664 54.54 18.655L53.816 18.464C53.797 18.459 53.781 18.448 53.769 18.433C53.756 18.418 53.749 18.399 53.748 18.38C53.721 17.885 53.721 17.486 53.746 17.182C53.918 15.064 54.081 12.935 54.233 10.795C54.233 10.788 54.236 10.78 54.241 10.775C54.246 10.769 54.252 10.765 54.26 10.764C54.267 10.762 54.275 10.764 54.281 10.767C54.288 10.771 54.293 10.777 54.296 10.784L57.864 18.818C57.963 19.039 58.122 19.102 58.341 19.008C58.379 18.992 58.431 18.908 58.495 18.757C59.658 16.064 60.813 13.392 61.959 10.74C62.025 10.59 62.063 10.596 62.076 10.759ZM72.71 12.257C73.815 11.282 74.366 9.555 73.477 8.277C72.48 6.843 70.583 7.192 69.103 7.165C68.456 7.153 67.815 7.151 67.181 7.159C67.154 7.159 67.127 7.165 67.103 7.177C67.079 7.188 67.057 7.205 67.039 7.226C67.022 7.247 67.009 7.271 67.002 7.297C66.994 7.324 66.992 7.351 66.996 7.378C67.062 7.837 68.055 7.418 68.224 8.101C68.274 8.301 68.297 8.607 68.293 9.017C68.274 11.541 68.277 14.064 68.301 16.588C68.306 17.109 68.258 17.726 68.171 18.16C68.077 18.632 67.723 18.506 67.414 18.635C67.255 18.701 67.197 18.812 67.241 18.967C67.247 18.988 67.259 19.006 67.275 19.021C67.291 19.035 67.31 19.044 67.332 19.048C67.563 19.088 67.854 19.091 68.205 19.056C69.426 18.937 71.237 19.367 72.661 18.897C75.972 17.802 75.834 13.593 72.724 12.341C72.674 12.321 72.669 12.293 72.71 12.257ZM25.602 12.261C25.587 12.268 25.573 12.279 25.564 12.294C25.555 12.308 25.55 12.325 25.55 12.342L25.55 21.045C25.549 21.059 25.553 21.074 25.56 21.087C25.567 21.1 25.576 21.111 25.589 21.119C25.601 21.128 25.614 21.133 25.629 21.134C25.643 21.135 25.658 21.133 25.671 21.128L29.169 19.625C29.185 19.618 29.199 19.607 29.208 19.592C29.218 19.578 29.223 19.561 29.223 19.543L29.221 10.826C29.221 10.811 29.217 10.797 29.21 10.784C29.203 10.771 29.193 10.76 29.181 10.752C29.169 10.744 29.155 10.739 29.141 10.738C29.127 10.736 29.112 10.738 29.099 10.744L25.602 12.261Z" fill="rgb(0,72,49)" fill-opacity="1.000" fill-rule="nonzero" transform="matrix(1 0 0 1 8.0942 17.1275)"/><path d="M0.034 10.154L0.034 1.644C0.034 1.56 0.072 1.501 0.148 1.469L3.553 0.007C3.592 -0.01 3.612 0.003 3.612 0.047L3.612 8.815C3.612 8.871 3.587 8.909 3.538 8.93L0.097 10.403C0.089 10.407 0.08 10.409 0.071 10.409C0.062 10.409 0.054 10.407 0.046 10.404C0.038 10.4 0.03 10.395 0.024 10.389C0.018 10.382 0.013 10.375 0.01 10.366C-0.004 10.326 -0.003 10.288 0.013 10.253C0.027 10.222 0.034 10.188 0.034 10.154Z" fill="rgb(196,215,0)" fill-opacity="1.000" fill-rule="nonzero" transform="matrix(1 0 0 1 41.7078 20.55)"/><path d="M3.606 0.041L3.613 8.841C3.613 8.85 3.61 8.858 3.606 8.864L0.075 14.185C0.07 14.193 0.063 14.198 0.055 14.201C0.047 14.204 0.038 14.204 0.03 14.201C0.021 14.199 0.014 14.194 0.009 14.187C0.003 14.18 0 14.171 0 14.162L0.004 5.356C0.004 5.347 0.007 5.339 0.011 5.333L3.53 0.018C3.535 0.011 3.543 0.005 3.551 0.002C3.559 -0.001 3.568 -0.001 3.576 0.002C3.585 0.004 3.592 0.009 3.597 0.016C3.603 0.023 3.606 0.032 3.606 0.041Z" fill="rgb(196,215,0)" fill-opacity="1.000" fill-rule="nonzero" transform="matrix(1 0 0 1 37.7216 22.2778)"/><path d="M1.029 1.133C2.239 -0.376 4.147 -0.073 5.827 0.322C5.872 0.332 5.895 0.361 5.894 0.407L5.847 2.34C5.846 2.385 5.835 2.431 5.815 2.471C5.794 2.512 5.764 2.547 5.728 2.574C5.584 2.682 5.477 2.666 5.407 2.527C5.384 2.481 5.366 2.402 5.351 2.29C5.247 1.443 4.742 0.973 3.836 0.88C1.483 0.638 0.981 2.726 2.583 4.223C3.284 4.878 4.469 5.713 5.242 6.621C6.272 7.833 6.464 9.501 5.624 10.853C4.54 12.598 1.984 12.783 0.29 11.995C-0.204 11.766 0.073 9.878 0.117 9.389C0.122 9.325 0.156 9.293 0.219 9.293L0.495 9.289C0.554 9.289 0.584 9.318 0.585 9.377C0.604 10.56 1.169 11.454 2.372 11.577C4.865 11.835 5.52 9.236 3.855 7.696C3.387 7.264 2.725 6.677 1.87 5.935C0.484 4.733 -0.227 2.696 1.029 1.133Z" fill="rgb(255,255,255)" fill-opacity="1.000" fill-rule="nonzero" transform="matrix(1 0 0 1 51.5657 24.0165)"/><path d="M1.485 1.866C3.728 -0.621 6.706 -0.05 9.581 0.377C9.631 0.385 9.656 0.415 9.656 0.466L9.612 3.345C9.612 3.372 9.604 3.398 9.589 3.419C9.574 3.441 9.554 3.458 9.529 3.468C9.383 3.526 9.277 3.522 9.211 3.456C9.171 3.417 9.15 3.334 9.147 3.208C9.104 1.617 7.782 0.956 6.409 0.864C3.514 0.669 1.892 1.99 1.543 4.825C1.442 5.65 1.5 6.477 1.718 7.307C2.383 9.838 4.191 11.416 6.889 11.421C7.531 11.422 8.114 11.242 8.639 10.88C9.219 10.483 9.344 9.787 9.503 9.148C9.515 9.103 9.543 9.063 9.583 9.039C9.623 9.014 9.671 9.006 9.717 9.016C9.86 9.048 9.929 9.142 9.922 9.296C9.89 10.015 9.806 10.727 9.67 11.431C9.606 11.76 9.448 11.883 9.15 11.973C5.621 13.033 1.524 12.198 0.293 8.215C-0.341 6.166 0.054 3.451 1.485 1.866Z" fill="rgb(255,255,255)" fill-opacity="1.000" fill-rule="nonzero" transform="matrix(1 0 0 1 85.4157 24.0163)"/><path d="M10.601 3.841C10.589 3.678 10.55 3.672 10.485 3.822C9.338 6.474 8.183 9.146 7.021 11.839C6.956 11.99 6.905 12.074 6.866 12.09C6.647 12.184 6.488 12.121 6.389 11.9L2.821 3.865C2.818 3.858 2.813 3.853 2.807 3.849C2.8 3.845 2.792 3.844 2.785 3.846C2.778 3.847 2.771 3.851 2.766 3.856C2.761 3.862 2.759 3.869 2.758 3.877C2.606 6.017 2.444 8.146 2.271 10.264C2.246 10.568 2.247 10.967 2.274 11.462C2.275 11.481 2.282 11.5 2.294 11.515C2.306 11.53 2.323 11.541 2.341 11.546L3.066 11.737C3.099 11.746 3.13 11.762 3.156 11.785C3.182 11.807 3.202 11.836 3.215 11.868C3.26 11.973 3.25 12.05 3.186 12.101C3.153 12.129 3.097 12.143 3.019 12.142C2.057 12.134 1.108 12.137 0.172 12.151C0.142 12.152 0.112 12.144 0.086 12.129C0.06 12.114 0.038 12.092 0.023 12.065C0.008 12.039 0 12.009 0 11.978C0 11.947 0.008 11.917 0.024 11.891C0.274 11.468 0.969 11.899 1.048 11.117C1.41 7.538 1.773 3.958 2.138 0.378C2.172 0.039 2.546 -0.175 2.714 0.205C4.121 3.364 5.51 6.493 6.883 9.591C6.929 9.694 6.974 9.694 7.02 9.589C8.343 6.485 9.647 3.438 10.932 0.45C11.001 0.288 11.083 0.152 11.176 0.039C11.188 0.025 11.204 0.014 11.221 0.007C11.238 0.001 11.257 -0.002 11.276 0.001C11.471 0.028 11.576 0.112 11.591 0.251C11.917 3.416 12.234 6.582 12.542 9.75C12.605 10.388 12.645 11.469 13.438 11.613C13.711 11.663 13.985 11.7 14.263 11.725C14.324 11.73 14.353 11.764 14.349 11.826L14.337 12.034C14.335 12.056 14.326 12.078 14.31 12.094C14.294 12.11 14.273 12.12 14.251 12.122C13.244 12.199 12.239 12.193 11.237 12.103C11.207 12.1 11.179 12.09 11.154 12.074C11.129 12.058 11.108 12.036 11.094 12.01C11.079 11.984 11.071 11.954 11.071 11.924C11.07 11.894 11.077 11.864 11.09 11.838C11.203 11.606 11.245 11.334 11.215 11.019C10.984 8.582 10.78 6.189 10.601 3.841Z" fill="rgb(255,255,255)" fill-opacity="1.000" fill-rule="nonzero" transform="matrix(1 0 0 1 59.5687 24.0457)"/><path d="M5.73 5.195C8.84 6.447 8.978 10.656 5.667 11.751C4.243 12.221 2.431 11.791 1.211 11.91C0.86 11.945 0.568 11.942 0.337 11.901C0.316 11.898 0.296 11.889 0.28 11.874C0.264 11.86 0.253 11.842 0.247 11.821C0.203 11.666 0.26 11.555 0.42 11.489C0.729 11.36 1.083 11.486 1.177 11.014C1.264 10.58 1.312 9.963 1.307 9.442C1.282 6.918 1.28 4.395 1.299 1.871C1.302 1.461 1.279 1.155 1.23 0.955C1.06 0.272 0.067 0.691 0.002 0.232C-0.002 0.205 0 0.177 0.007 0.151C0.015 0.125 0.028 0.101 0.045 0.08C0.063 0.059 0.084 0.042 0.109 0.031C0.133 0.019 0.16 0.013 0.187 0.013C0.821 0.005 1.462 0.007 2.109 0.019C3.589 0.046 5.486 -0.303 6.483 1.131C7.372 2.409 6.821 4.136 5.716 5.111C5.675 5.147 5.679 5.175 5.73 5.195ZM4.495 4.983C5.545 4.678 5.613 2.923 5.342 2.112C4.973 1.01 4.181 0.551 2.964 0.735C2.921 0.742 2.883 0.763 2.855 0.796C2.827 0.829 2.812 0.871 2.812 0.914L2.812 4.895C2.812 4.935 2.831 4.959 2.87 4.967C3.554 5.094 4.096 5.1 4.495 4.983ZM6.182 10.389C7.172 9.012 6.104 6.68 4.778 5.993C4.162 5.673 3.502 5.788 2.871 5.735C2.864 5.735 2.856 5.735 2.85 5.738C2.843 5.74 2.837 5.744 2.831 5.749C2.826 5.754 2.822 5.76 2.819 5.766C2.816 5.773 2.814 5.78 2.814 5.788C2.809 7.276 2.809 8.753 2.812 10.219C2.813 10.638 2.993 10.91 3.352 11.036C4.33 11.376 5.511 11.319 6.182 10.389Z" fill="rgb(255,255,255)" fill-opacity="1.000" fill-rule="nonzero" transform="matrix(1 0 0 1 75.0884 24.2737)"/><path d="M2.53 1.416C2.801 2.227 2.733 3.982 1.684 4.288C1.284 4.404 0.742 4.398 0.058 4.271C0.019 4.263 0 4.24 0 4.2L0 0.218C0 0.175 0.015 0.133 0.043 0.1C0.071 0.068 0.11 0.046 0.152 0.04C1.369 -0.145 2.162 0.314 2.53 1.416Z" fill="rgb(0,72,49)" fill-opacity="1.000" fill-rule="nonzero" transform="matrix(1 0 0 1 77.9003 24.9694)"/><path d="M0.053 1.524L3.549 0.007C3.563 0.001 3.577 -0.001 3.591 0C3.606 0.002 3.62 0.007 3.632 0.015C3.644 0.023 3.654 0.034 3.66 0.047C3.667 0.059 3.671 0.074 3.671 0.088L3.674 8.806C3.673 8.824 3.668 8.841 3.659 8.855C3.649 8.87 3.636 8.881 3.62 8.888L0.122 10.39C0.108 10.396 0.094 10.398 0.079 10.397C0.065 10.395 0.051 10.39 0.039 10.382C0.027 10.374 0.017 10.363 0.01 10.35C0.003 10.337 0 10.322 0 10.307L0 1.605C0 1.588 0.005 1.571 0.014 1.556C0.024 1.542 0.037 1.531 0.053 1.524Z" fill="rgb(196,215,0)" fill-opacity="1.000" fill-rule="nonzero" transform="matrix(1 0 0 1 33.6437 27.8647)"/><path d="M3.372 4.653C2.701 5.584 1.52 5.641 0.542 5.301C0.183 5.175 0.003 4.903 0.002 4.484C-0.001 3.018 -0.001 1.541 0.005 0.053C0.004 0.045 0.006 0.038 0.009 0.031C0.012 0.025 0.016 0.019 0.021 0.014C0.027 0.009 0.033 0.005 0.04 0.003C0.047 0 0.054 0 0.061 0C0.693 0.053 1.352 -0.062 1.968 0.258C3.294 0.945 4.362 3.277 3.372 4.653Z" fill="rgb(0,72,49)" fill-opacity="1.000" fill-rule="nonzero" transform="matrix(1 0 0 1 77.8983 30.0087)"/></svg>