<svg xmlns="http://www.w3.org/2000/svg" viewBox="0 0 130 60" width="130" height="60"><path d="M0 0L130 0L130 60L0 60L0 0Z" fill="rgb(255,255,255)" fill-opacity="1.000" fill-rule="nonzero" transform="matrix(1 0 0 1 0 0)"/><path d="M29.597 0L2.265 0C1.029 0 0 1.035 0 2.278L0 29.612C0 30.854 1.029 31.89 2.265 31.89L29.597 31.89C30.832 31.89 31.862 30.854 31.862 29.612L31.862 2.278C31.862 0.984 30.832 0 29.597 0ZM19.972 23.969C17.192 26.764 12.765 26.868 9.831 24.331L9.78 24.28C9.625 24.124 9.574 23.814 9.78 23.607L19.663 13.719C19.869 13.563 20.126 13.563 20.332 13.719C22.906 16.721 22.803 21.173 19.972 23.969ZM22.031 8.179L12.148 18.067C11.942 18.223 11.684 18.223 11.479 18.067C8.905 15.116 9.008 10.664 11.787 7.869C14.567 5.073 18.994 4.97 21.928 7.506C21.928 7.506 21.979 7.506 21.979 7.558C22.236 7.714 22.236 8.024 22.031 8.179Z" fill="rgb(0,0,0)" fill-opacity="1.000" fill-rule="nonzero" transform="matrix(1 0 0 1 10.6194 14.0552)"/><path d="M22.185 0.052L22.133 0.052C20.898 0.052 19.817 0.569 19.045 1.346C18.273 0.569 17.141 0.052 15.957 0.052L15.905 0.052C13.537 0.052 11.581 1.967 11.581 4.4L11.581 12.839C11.633 13.512 12.148 14.029 12.817 14.029C13.486 14.029 14.001 13.512 14.052 12.839L14.052 4.4C14.052 3.365 14.876 2.537 15.905 2.537L15.957 2.537C16.986 2.537 17.758 3.313 17.81 4.349L17.81 12.839C17.872 13.451 18.3 14.029 18.994 14.029C19.663 14.029 20.178 13.512 20.229 12.839L20.229 4.297C20.28 3.313 21.104 2.485 22.082 2.485L22.133 2.485C23.163 2.485 23.987 3.313 23.987 4.349L23.987 12.839C24.038 13.512 24.553 14.029 25.222 14.029C25.891 14.029 26.406 13.512 26.457 12.839L26.457 4.4C26.509 2.019 24.553 0.052 22.185 0.052ZM7.567 0.052C6.897 0.052 6.383 0.569 6.331 1.242L6.331 9.681C6.331 10.716 5.508 11.544 4.427 11.544L4.375 11.544C3.346 11.544 2.471 10.716 2.471 9.681L2.471 1.191C2.419 0.518 1.905 0 1.235 0C0.566 0 0.051 0.518 0 1.191L0 9.629C0 12.01 1.956 13.978 4.375 13.978L4.427 13.978C6.846 13.978 8.802 12.01 8.802 9.629L8.802 1.242C8.802 0.569 8.236 0.052 7.567 0.052ZM36.803 0.052C36.134 0.052 35.619 0.569 35.568 1.242L35.568 9.681C35.568 10.716 34.744 11.544 33.663 11.544L33.612 11.544C32.583 11.544 31.708 10.716 31.708 9.681L31.708 1.191C31.656 0.518 31.141 0 30.472 0C29.803 0 29.288 0.518 29.237 1.191L29.237 9.629C29.237 12.01 31.193 13.978 33.612 13.978L33.663 13.978C36.083 13.978 38.039 12.01 38.039 9.629L38.039 1.242C37.987 0.569 37.473 0.052 36.803 0.052Z" fill="rgb(0,0,0)" fill-opacity="1.000" fill-rule="evenodd" transform="matrix(1 0 0 1 62.4532 22.8559)"/><path d="M4.478 0L4.427 0C1.956 0 0 1.967 0 4.4L0 19.724C0 20.397 0.566 20.966 1.235 20.966C1.905 20.966 2.471 20.397 2.471 19.724L2.471 13.356C2.934 13.77 3.706 13.978 4.427 13.978L4.478 13.978C6.949 13.978 8.802 11.855 8.802 9.422L8.802 4.297C8.802 1.864 6.949 0 4.478 0ZM6.434 9.525C6.434 10.871 5.559 11.441 4.53 11.441L4.478 11.441C3.397 11.441 2.574 10.871 2.574 9.525L2.574 4.4C2.574 3.365 3.449 2.485 4.478 2.485L4.53 2.485C5.611 2.485 6.434 3.313 6.434 4.4L6.434 9.525Z" fill="rgb(0,0,0)" fill-opacity="1.000" fill-rule="nonzero" transform="matrix(1 0 0 1 102.9623 22.9076)"/><path d="M4.787 5.487C3.397 4.918 2.522 4.556 2.522 3.727C2.522 3.054 3.037 2.433 4.221 2.433C4.941 2.433 5.559 2.744 6.022 3.365C6.331 3.727 6.64 3.934 7 3.934C7.721 3.934 8.287 3.365 8.287 2.692C8.287 2.433 8.236 2.174 8.081 2.019C7.309 0.828 5.714 0 4.221 0C2.162 0 0.051 1.294 0.051 3.779C0.051 6.316 2.11 7.144 3.809 7.765C5.147 8.283 6.331 8.749 6.331 9.836C6.331 10.664 5.559 11.493 4.118 11.493C3.655 11.493 2.831 11.389 2.265 10.716C1.956 10.354 1.596 10.198 1.287 10.198C0.618 10.198 0 10.768 0 11.441C0 11.7 0.103 11.959 0.257 12.166C1.029 13.356 2.78 13.926 4.118 13.926C6.383 13.926 8.853 12.476 8.853 9.836C8.802 7.041 6.589 6.16 4.787 5.487Z" fill="rgb(0,0,0)" fill-opacity="1.000" fill-rule="evenodd" transform="matrix(1 0 0 1 51.5924 22.9594)"/><path d="M2.471 0C1.132 0 0 1.087 0 2.485C0 3.831 1.081 4.97 2.471 4.97C3.809 4.97 4.941 3.883 4.941 2.485C4.941 1.139 3.86 0 2.471 0ZM2.471 4.349C1.441 4.349 0.618 3.52 0.618 2.485C0.618 1.45 1.441 0.621 2.471 0.621C3.5 0.621 4.324 1.45 4.324 2.485C4.324 3.52 3.5 4.349 2.471 4.349Z" fill="rgb(0,0,0)" fill-opacity="1.000" fill-rule="nonzero" transform="matrix(1 0 0 1 115.0587 22.9076)"/><path d="M1.132 1.294C1.441 1.242 1.647 0.984 1.647 0.673C1.647 0.259 1.338 0 0.875 0L0.257 0C0.103 0 0 0.104 0 0.259L0 1.967C0 2.123 0.103 2.226 0.257 2.226C0.412 2.226 0.515 2.123 0.515 1.967L0.515 1.346L1.132 2.123C1.184 2.226 1.235 2.226 1.39 2.226C1.596 2.226 1.647 2.071 1.647 1.967C1.647 1.864 1.596 1.812 1.544 1.76L1.132 1.294ZM0.927 0.932L0.618 0.932L0.618 0.414L0.927 0.414C1.081 0.414 1.184 0.518 1.184 0.673C1.184 0.777 1.081 0.932 0.927 0.932Z" fill="rgb(0,0,0)" fill-opacity="1.000" fill-rule="nonzero" transform="matrix(1 0 0 1 116.6544 24.2017)"/></svg>