<svg xmlns="http://www.w3.org/2000/svg" viewBox="0 0 60 60" width="60" height="60"><path d="M0 0L60 0L60 60L0 60L0 0Z" fill="rgb(255,255,255)" fill-opacity="1.000" fill-rule="nonzero" transform="matrix(1 0 0 1 0 0)"/><path d="M39.015 0L2.985 0C1.357 0 0 1.364 0 3L0 39C0 40.636 1.357 42 2.985 42L39.015 42C40.643 42 42 40.636 42 39L42 3C42 1.295 40.643 0 39.015 0ZM26.326 31.568C22.662 35.25 16.827 35.386 12.96 32.045L12.892 31.977C12.688 31.773 12.62 31.364 12.892 31.091L25.919 18.068C26.191 17.864 26.53 17.864 26.801 18.068C30.194 22.023 30.058 27.886 26.326 31.568ZM29.04 10.773L16.013 23.795C15.742 24 15.402 24 15.131 23.795C11.738 19.909 11.874 14.045 15.538 10.364C19.202 6.682 25.037 6.545 28.905 9.886C28.905 9.886 28.973 9.886 28.973 9.955C29.312 10.159 29.312 10.568 29.04 10.773Z" fill="rgb(0,0,0)" fill-opacity="1.000" fill-rule="nonzero" transform="matrix(1 0 0 1 9 9)"/></svg>