<svg xmlns="http://www.w3.org/2000/svg" viewBox="0 0 60 60" width="60" height="60"><path d="M0 0L60 0L60 60L0 60L0 0Z" fill="rgb(255,255,255)" fill-opacity="1.000" fill-rule="nonzero" transform="matrix(1 0 0 1 0 0)"/><path d="M14.363 7.159L7.159 0L0 7.204L7.203 14.363L14.363 7.159Z" fill="rgb(1,129,54)" fill-opacity="1.000" fill-rule="nonzero" transform="matrix(1 0 0 1 11.2378 22.9997)"/><path d="M14.363 7.159L7.159 0L0 7.203L7.204 14.362L14.363 7.159Z" fill="rgb(1,129,54)" fill-opacity="1.000" fill-rule="nonzero" transform="matrix(1 0 0 1 18.9675 15.2218)"/><path d="M14.363 7.159L7.16 0L0 7.204L7.204 14.363L14.363 7.159Z" fill="rgb(1,129,54)" fill-opacity="1.000" fill-rule="nonzero" transform="matrix(1 0 0 1 26.6722 7.4679)"/><path d="M0 7.203L7.204 14.363L14.363 7.159L7.16 0L0 7.203Z" fill="rgb(253,205,1)" fill-opacity="1.000" fill-rule="nonzero" transform="matrix(1 0 0 1 34.6719 22.9213)"/><path d="M0 7.203L7.203 14.362L14.362 7.159L7.159 0L0 7.203Z" fill="rgb(253,205,1)" fill-opacity="1.000" fill-rule="nonzero" transform="matrix(1 0 0 1 26.8557 15.1535)"/><path d="M0 7.203L7.203 14.362L14.362 7.158L7.159 0L0 7.203Z" fill="rgb(253,205,1)" fill-opacity="1.000" fill-rule="nonzero" transform="matrix(1 0 0 1 26.8746 30.7689)"/><path d="M0 7.204L7.204 14.363L14.363 7.159L7.159 0L0 7.204Z" fill="rgb(253,205,1)" fill-opacity="1.000" fill-rule="nonzero" transform="matrix(1 0 0 1 19.0546 38.6368)"/><path d="M14.363 7.16L7.159 0L0 7.204L7.203 14.363L14.363 7.16Z" fill="rgb(1,129,54)" fill-opacity="1.000" fill-rule="nonzero" transform="matrix(1 0 0 1 19.0546 30.7676)"/></svg>