<svg xmlns="http://www.w3.org/2000/svg" viewBox="0 0 130 60" width="130" height="60"><path d="M0 0L130 0L130 60L0 60L0 0Z" fill="rgb(255,255,255)" fill-opacity="1.000" fill-rule="nonzero" transform="matrix(1 0 0 1 0 0)"/><path d="M9.624 9.249C7.001 7.587 5.779 6.423 5.779 5.587L5.779 4.303C5.779 3.866 5.818 3.38 6.103 3.1C6.299 2.908 6.601 2.819 7.028 2.825L7.066 2.825C7.413 2.817 7.695 2.911 7.897 3.109C8.253 3.456 8.328 4.075 8.328 4.533L8.328 7.107L13.848 7.107L13.848 4.303C13.848 1.326 11.75 0 7.045 0C2.304 0 0 1.408 0 4.303L0 6.167C0 7.595 1.552 9.244 4.488 10.939C7.892 12.902 8.328 13.985 8.328 14.709L8.328 16.035C8.329 16.549 8.33 17.08 8.028 17.384C7.831 17.581 7.514 17.677 7.062 17.677C5.773 17.677 5.52 17.135 5.52 16.2L5.52 12.641L0 12.641L0 16.46C0 19.355 2.31 20.767 7.062 20.773C11.803 20.773 14.108 19.362 14.108 16.46L14.108 13.947C14.108 12.392 12.464 11.047 9.624 9.249Z" fill="rgb(1,129,54)" fill-opacity="1.000" fill-rule="nonzero" transform="matrix(1 0 0 1 44.1812 14.8085)"/><path d="M9.624 9.249C7.001 7.587 5.779 6.423 5.779 5.587L5.779 4.303C5.779 3.866 5.818 3.38 6.103 3.1C6.299 2.908 6.596 2.821 7.028 2.825L7.065 2.825C7.413 2.816 7.695 2.911 7.897 3.109C8.253 3.456 8.328 4.075 8.328 4.533L8.328 7.107L13.848 7.107L13.848 4.303C13.848 1.326 11.75 0 7.045 0C2.304 0 0 1.408 0 4.303L0 6.167C0 8.024 1.447 9.185 4.488 10.939C7.892 12.902 8.328 13.985 8.328 14.709L8.328 16.035C8.329 16.549 8.33 17.08 8.028 17.384C7.831 17.581 7.514 17.677 7.063 17.677C5.772 17.677 5.52 17.135 5.52 16.2L5.52 12.641L0 12.641L0 16.46C0 19.355 2.31 20.767 7.063 20.773C11.803 20.773 14.108 19.362 14.108 16.46L14.108 13.947C14.108 12.088 12.515 11.079 9.624 9.249Z" fill="rgb(1,129,54)" fill-opacity="1.000" fill-rule="nonzero" transform="matrix(1 0 0 1 75.5938 14.8085)"/><path d="M8.62 15.627C8.62 16.529 8.44 17.363 7.138 17.363C5.851 17.363 5.674 16.529 5.674 15.627L5.674 0L0 0L0 16.146C0 19.008 2.401 20.459 7.138 20.459C11.886 20.452 14.294 19.001 14.294 16.146L14.294 0L8.62 0" fill="rgb(1,129,54)" fill-opacity="1.000" fill-rule="nonzero" transform="matrix(1 0 0 1 59.9938 15.1218)"/><path d="M0 20.136L12.357 20.136L12.357 17.309L5.962 17.309L5.962 10.577L11.319 10.577L11.319 8.519L5.962 8.519L5.962 2.826L12.357 2.826L12.357 0L0 0" fill="rgb(1,129,54)" fill-opacity="1.000" fill-rule="nonzero" transform="matrix(1 0 0 1 91.5079 15.1218)"/><path d="M0 0L14.281 0L14.281 20.249L0 20.249L0 0Z" fill="rgb(0,0,0)" fill-opacity="1.000" fill-rule="nonzero" transform="matrix(1 0 0 1 104.7185 15.1188)"/><path d="M5.829 2.826L6.964 2.826C7.335 2.826 7.615 2.926 7.818 3.129C8.253 3.565 8.251 4.4 8.25 5.01L8.251 7.527C8.255 8.829 8.222 9.574 7.499 9.739C7.232 9.794 7.011 9.817 6.339 9.817L5.829 9.817L5.829 2.826ZM7.481 0L0 0L0 20.136L5.829 20.136L5.829 12.394L6.106 12.395L6.151 12.395C11.327 12.395 13.995 11.294 14.079 9.12L14.079 4.314C14.079 1.377 11.983 0.007 7.481 0Z" fill="rgb(1,129,54)" fill-opacity="1.000" fill-rule="nonzero" transform="matrix(1 0 0 1 104.9211 15.1219)"/><path d="M0 3.359L0.6 3.306C0.63 3.549 0.696 3.749 0.799 3.902C0.904 4.056 1.067 4.183 1.286 4.279C1.507 4.375 1.754 4.421 2.028 4.421C2.271 4.421 2.487 4.385 2.673 4.312C2.862 4.24 3.002 4.141 3.091 4.016C3.182 3.889 3.229 3.751 3.229 3.602C3.229 3.451 3.183 3.318 3.095 3.205C3.008 3.092 2.863 2.996 2.661 2.917C2.531 2.869 2.244 2.791 1.801 2.685C1.357 2.578 1.046 2.476 0.868 2.381C0.638 2.26 0.465 2.109 0.353 1.931C0.239 1.753 0.183 1.553 0.183 1.33C0.183 1.088 0.251 0.86 0.389 0.649C0.529 0.436 0.732 0.275 0.998 0.166C1.263 0.056 1.559 0 1.886 0C2.242 0 2.558 0.059 2.831 0.174C3.104 0.288 3.314 0.457 3.46 0.681C3.608 0.907 3.688 1.159 3.699 1.44L3.087 1.489C3.054 1.183 2.942 0.952 2.75 0.795C2.561 0.639 2.281 0.56 1.911 0.56C1.523 0.56 1.24 0.632 1.063 0.775C0.886 0.916 0.799 1.086 0.799 1.286C0.799 1.459 0.862 1.603 0.99 1.716C1.11 1.827 1.432 1.942 1.951 2.061C2.469 2.177 2.827 2.281 3.022 2.369C3.303 2.499 3.51 2.664 3.643 2.864C3.778 3.062 3.845 3.291 3.845 3.549C3.845 3.807 3.77 4.049 3.622 4.275C3.476 4.503 3.264 4.68 2.99 4.807C2.714 4.931 2.403 4.993 2.061 4.993C1.623 4.993 1.254 4.93 0.957 4.803C0.662 4.676 0.431 4.485 0.264 4.231C0.095 3.974 0.007 3.683 0 3.359Z" fill="rgb(0,0,0)" fill-opacity="1.000" fill-rule="nonzero" transform="matrix(1 0 0 1 43.9657 38.8399)"/><path d="M2.308 3.501L2.308 2.985C2.034 3.383 1.664 3.582 1.197 3.582C0.991 3.582 0.798 3.542 0.621 3.464C0.442 3.384 0.307 3.284 0.219 3.164C0.132 3.043 0.071 2.895 0.037 2.722C0.012 2.606 0 2.422 0 2.17L0 0L0.596 0L0.596 1.943C0.596 2.251 0.608 2.46 0.633 2.568C0.667 2.725 0.746 2.849 0.868 2.937C0.989 3.026 1.14 3.071 1.318 3.071C1.494 3.071 1.66 3.025 1.817 2.933C1.973 2.841 2.085 2.717 2.15 2.56C2.214 2.403 2.247 2.174 2.247 1.874L2.247 0L2.839 0L2.839 3.501L2.308 3.501Z" fill="rgb(0,0,0)" fill-opacity="1.000" fill-rule="nonzero" transform="matrix(1 0 0 1 48.8246 40.2515)"/><path d="M0 4.92L0 0.077L0.539 0.077L0.539 0.531C0.666 0.354 0.809 0.221 0.969 0.134C1.131 0.046 1.326 0 1.554 0C1.853 0 2.117 0.078 2.345 0.231C2.574 0.383 2.747 0.599 2.864 0.88C2.979 1.162 3.038 1.469 3.038 1.801C3.038 2.158 2.972 2.481 2.844 2.771C2.716 3.057 2.529 3.279 2.284 3.432C2.04 3.583 1.783 3.659 1.513 3.659C1.315 3.659 1.137 3.616 0.978 3.533C0.82 3.45 0.692 3.344 0.592 3.217L0.592 4.92L0 4.92ZM0.535 1.846C0.535 2.298 0.626 2.632 0.807 2.848C0.991 3.062 1.213 3.168 1.472 3.168C1.734 3.168 1.959 3.057 2.146 2.835C2.334 2.611 2.43 2.265 2.43 1.797C2.43 1.352 2.337 1.017 2.154 0.795C1.972 0.574 1.753 0.462 1.497 0.462C1.245 0.462 1.021 0.582 0.828 0.819C0.633 1.055 0.535 1.397 0.535 1.846Z" fill="rgb(0,0,0)" fill-opacity="1.000" fill-rule="nonzero" transform="matrix(1 0 0 1 52.8149 40.1744)"/><path d="M2.592 2.45L3.209 2.527C3.111 2.884 2.931 3.163 2.669 3.363C2.406 3.56 2.072 3.659 1.667 3.659C1.156 3.659 0.749 3.501 0.45 3.184C0.15 2.869 0 2.426 0 1.858C0 1.269 0.151 0.811 0.454 0.487C0.757 0.163 1.15 0 1.635 0C2.102 0 2.484 0.16 2.779 0.479C3.076 0.795 3.225 1.243 3.225 1.821C3.225 1.857 3.225 1.91 3.225 1.98L0.613 1.98C0.634 2.364 0.742 2.659 0.937 2.864C1.134 3.067 1.379 3.168 1.671 3.168C1.887 3.168 2.073 3.111 2.227 2.998C2.38 2.885 2.503 2.702 2.592 2.45ZM0.645 1.493L2.6 1.493C2.573 1.199 2.498 0.977 2.377 0.828C2.187 0.601 1.942 0.487 1.643 0.487C1.369 0.487 1.139 0.579 0.953 0.763C0.769 0.944 0.666 1.188 0.645 1.493Z" fill="rgb(0,0,0)" fill-opacity="1.000" fill-rule="nonzero" transform="matrix(1 0 0 1 56.5902 40.1744)"/><path d="M0 3.578L0 0.077L0.535 0.077L0.535 0.608C0.67 0.36 0.795 0.197 0.909 0.118C1.024 0.04 1.153 0 1.294 0C1.494 0 1.697 0.064 1.902 0.191L1.7 0.738C1.554 0.655 1.407 0.613 1.262 0.613C1.132 0.613 1.015 0.652 0.913 0.73C0.809 0.806 0.736 0.915 0.694 1.055C0.626 1.266 0.592 1.496 0.592 1.744L0.592 3.578L0 3.578Z" fill="rgb(0,0,0)" fill-opacity="1.000" fill-rule="nonzero" transform="matrix(1 0 0 1 60.7551 40.1744)"/><path d="M0 0.681L0 0L0.592 0L0.592 0.681L0 0.681ZM0 4.831L0 1.33L0.592 1.33L0.592 4.831L0 4.831Z" fill="rgb(0,0,0)" fill-opacity="1.000" fill-rule="nonzero" transform="matrix(1 0 0 1 63.2159 38.921)"/><path d="M0 3.578L0 0.077L0.531 0.077L0.531 0.576C0.788 0.193 1.16 0 1.647 0C1.857 0 2.051 0.039 2.227 0.114C2.404 0.19 2.537 0.29 2.624 0.414C2.713 0.535 2.776 0.68 2.811 0.848C2.832 0.959 2.844 1.151 2.844 1.424L2.844 3.578L2.251 3.578L2.251 1.448C2.251 1.208 2.228 1.028 2.182 0.909C2.136 0.788 2.054 0.692 1.935 0.621C1.818 0.549 1.68 0.511 1.521 0.511C1.27 0.511 1.052 0.593 0.868 0.754C0.684 0.915 0.592 1.219 0.592 1.667L0.592 3.578L0 3.578Z" fill="rgb(0,0,0)" fill-opacity="1.000" fill-rule="nonzero" transform="matrix(1 0 0 1 64.9013 40.1744)"/><path d="M1.623 4.19L1.708 4.714C1.539 4.748 1.39 4.766 1.262 4.766C1.045 4.766 0.877 4.732 0.759 4.665C0.639 4.598 0.555 4.509 0.507 4.397C0.46 4.287 0.438 4.052 0.438 3.695L0.438 1.683L0 1.683L0 1.221L0.438 1.221L0.438 0.353L1.026 0L1.026 1.221L1.623 1.221L1.623 1.683L1.026 1.683L1.026 3.728C1.026 3.898 1.035 4.009 1.055 4.056C1.076 4.105 1.109 4.145 1.156 4.174C1.204 4.201 1.274 4.215 1.363 4.215C1.427 4.215 1.514 4.206 1.623 4.19Z" fill="rgb(0,0,0)" fill-opacity="1.000" fill-rule="nonzero" transform="matrix(1 0 0 1 68.547 39.0305)"/><path d="M2.592 2.45L3.209 2.527C3.111 2.884 2.931 3.163 2.669 3.363C2.406 3.56 2.072 3.659 1.667 3.659C1.156 3.659 0.749 3.501 0.45 3.184C0.15 2.869 0 2.426 0 1.858C0 1.269 0.151 0.811 0.454 0.487C0.757 0.163 1.15 0 1.635 0C2.102 0 2.484 0.16 2.779 0.479C3.076 0.795 3.225 1.243 3.225 1.821C3.225 1.857 3.225 1.91 3.225 1.98L0.613 1.98C0.634 2.364 0.742 2.659 0.937 2.864C1.134 3.067 1.379 3.168 1.671 3.168C1.887 3.168 2.073 3.111 2.227 2.998C2.38 2.885 2.503 2.702 2.592 2.45ZM0.645 1.493L2.6 1.493C2.573 1.199 2.498 0.977 2.377 0.828C2.187 0.601 1.942 0.487 1.643 0.487C1.369 0.487 1.139 0.579 0.953 0.763C0.769 0.944 0.666 1.188 0.645 1.493Z" fill="rgb(0,0,0)" fill-opacity="1.000" fill-rule="nonzero" transform="matrix(1 0 0 1 70.7492 40.1744)"/><path d="M0 3.578L0 0.077L0.531 0.077L0.531 0.576C0.788 0.193 1.16 0 1.647 0C1.857 0 2.051 0.039 2.227 0.114C2.404 0.19 2.537 0.29 2.624 0.414C2.713 0.535 2.776 0.68 2.811 0.848C2.832 0.959 2.844 1.151 2.844 1.424L2.844 3.578L2.251 3.578L2.251 1.448C2.251 1.208 2.228 1.028 2.182 0.909C2.136 0.788 2.054 0.692 1.935 0.621C1.818 0.549 1.68 0.511 1.521 0.511C1.27 0.511 1.052 0.593 0.868 0.754C0.684 0.915 0.592 1.219 0.592 1.667L0.592 3.578L0 3.578Z" fill="rgb(0,0,0)" fill-opacity="1.000" fill-rule="nonzero" transform="matrix(1 0 0 1 74.9219 40.1744)"/><path d="M2.487 4.831L2.487 4.389C2.261 4.738 1.934 4.912 1.505 4.912C1.226 4.912 0.968 4.834 0.734 4.681C0.501 4.528 0.319 4.312 0.191 4.036C0.063 3.761 0 3.443 0 3.083C0 2.735 0.058 2.418 0.174 2.134C0.29 1.851 0.464 1.633 0.698 1.481C0.93 1.329 1.191 1.253 1.481 1.253C1.69 1.253 1.879 1.299 2.044 1.387C2.209 1.474 2.343 1.589 2.446 1.732L2.446 0L3.034 0L3.034 4.831L2.487 4.831ZM0.608 3.083C0.608 3.532 0.703 3.868 0.892 4.089C1.081 4.311 1.304 4.421 1.562 4.421C1.82 4.421 2.041 4.316 2.223 4.105C2.403 3.892 2.495 3.569 2.495 3.136C2.495 2.655 2.4 2.303 2.215 2.081C2.03 1.857 1.804 1.744 1.537 1.744C1.272 1.744 1.05 1.853 0.872 2.069C0.696 2.283 0.608 2.621 0.608 3.083Z" fill="rgb(0,0,0)" fill-opacity="1.000" fill-rule="nonzero" transform="matrix(1 0 0 1 78.6812 38.921)"/><path d="M2.592 3.732L3.209 3.809C3.111 4.166 2.931 4.445 2.669 4.645C2.406 4.842 2.072 4.941 1.667 4.941C1.156 4.941 0.749 4.782 0.45 4.466C0.15 4.151 0 3.708 0 3.14C0 2.55 0.151 2.093 0.454 1.769C0.757 1.445 1.15 1.282 1.635 1.282C2.102 1.282 2.484 1.442 2.779 1.76C3.076 2.077 3.225 2.525 3.225 3.103C3.225 3.139 3.225 3.191 3.225 3.261L0.613 3.261C0.634 3.646 0.742 3.941 0.937 4.146C1.134 4.348 1.379 4.45 1.671 4.45C1.887 4.45 2.073 4.393 2.227 4.279C2.38 4.167 2.503 3.983 2.592 3.732ZM0.645 2.775L2.6 2.775C2.573 2.48 2.498 2.258 2.377 2.109C2.187 1.883 1.942 1.769 1.643 1.769C1.369 1.769 1.139 1.861 0.953 2.044C0.769 2.226 0.666 2.469 0.645 2.775ZM1.667 0.365L1.294 0.925L0.613 0.925L1.326 0L1.959 0L2.702 0.925L2.028 0.925L1.667 0.365Z" fill="rgb(0,0,0)" fill-opacity="1.000" fill-rule="nonzero" transform="matrix(1 0 0 1 82.6715 38.8926)"/><path d="M0 3.578L0 0.077L0.531 0.077L0.531 0.576C0.788 0.193 1.16 0 1.647 0C1.857 0 2.051 0.039 2.227 0.114C2.404 0.19 2.537 0.29 2.624 0.414C2.713 0.535 2.776 0.68 2.811 0.848C2.832 0.959 2.844 1.151 2.844 1.424L2.844 3.578L2.251 3.578L2.251 1.448C2.251 1.208 2.228 1.028 2.182 0.909C2.136 0.788 2.054 0.692 1.935 0.621C1.818 0.549 1.68 0.511 1.521 0.511C1.27 0.511 1.052 0.593 0.868 0.754C0.684 0.915 0.592 1.219 0.592 1.667L0.592 3.578L0 3.578Z" fill="rgb(0,0,0)" fill-opacity="1.000" fill-rule="nonzero" transform="matrix(1 0 0 1 86.8443 40.1744)"/><path d="M2.466 2.296L3.05 2.373C2.985 2.774 2.821 3.089 2.56 3.318C2.297 3.545 1.973 3.659 1.59 3.659C1.111 3.659 0.725 3.503 0.434 3.188C0.144 2.875 0 2.426 0 1.842C0 1.463 0.062 1.132 0.187 0.848C0.313 0.565 0.504 0.352 0.759 0.211C1.015 0.071 1.294 0 1.594 0C1.974 0 2.286 0.096 2.527 0.288C2.769 0.481 2.926 0.753 2.994 1.107L2.418 1.197C2.361 0.962 2.261 0.785 2.121 0.665C1.984 0.547 1.815 0.487 1.618 0.487C1.318 0.487 1.074 0.594 0.888 0.807C0.702 1.021 0.608 1.361 0.608 1.825C0.608 2.296 0.699 2.639 0.88 2.852C1.061 3.063 1.296 3.168 1.586 3.168C1.818 3.168 2.012 3.098 2.166 2.957C2.322 2.814 2.423 2.594 2.466 2.296Z" fill="rgb(0,0,0)" fill-opacity="1.000" fill-rule="nonzero" transform="matrix(1 0 0 1 90.636 40.1744)"/><path d="M0 0.681L0 0L0.592 0L0.592 0.681L0 0.681ZM0 4.831L0 1.33L0.592 1.33L0.592 4.831L0 4.831Z" fill="rgb(0,0,0)" fill-opacity="1.000" fill-rule="nonzero" transform="matrix(1 0 0 1 94.4136 38.921)"/><path d="M2.487 3.148C2.268 3.334 2.055 3.467 1.85 3.545C1.647 3.62 1.429 3.659 1.197 3.659C0.812 3.659 0.516 3.566 0.308 3.379C0.102 3.19 0 2.948 0 2.653C0 2.484 0.039 2.327 0.118 2.186C0.196 2.043 0.297 1.93 0.422 1.846C0.549 1.759 0.692 1.695 0.852 1.651C0.967 1.62 1.144 1.589 1.379 1.562C1.857 1.506 2.211 1.436 2.438 1.355C2.438 1.275 2.438 1.223 2.438 1.201C2.438 0.96 2.382 0.79 2.272 0.69C2.119 0.558 1.893 0.491 1.594 0.491C1.315 0.491 1.109 0.541 0.978 0.637C0.845 0.734 0.745 0.908 0.681 1.156L0.101 1.075C0.155 0.826 0.241 0.627 0.361 0.475C0.482 0.323 0.657 0.207 0.884 0.126C1.113 0.043 1.38 0 1.683 0C1.981 0 2.223 0.035 2.409 0.105C2.595 0.176 2.732 0.265 2.819 0.369C2.907 0.475 2.97 0.61 3.006 0.775C3.024 0.875 3.034 1.057 3.034 1.318L3.034 2.109C3.034 2.661 3.046 3.011 3.071 3.156C3.097 3.302 3.149 3.443 3.225 3.578L2.604 3.578C2.541 3.454 2.502 3.31 2.487 3.148ZM2.438 1.821C2.221 1.909 1.897 1.983 1.468 2.044C1.225 2.08 1.052 2.12 0.949 2.166C0.849 2.21 0.77 2.274 0.714 2.357C0.659 2.441 0.633 2.534 0.633 2.637C0.633 2.797 0.692 2.93 0.811 3.034C0.932 3.14 1.108 3.192 1.339 3.192C1.568 3.192 1.771 3.143 1.947 3.042C2.125 2.943 2.256 2.806 2.341 2.633C2.404 2.498 2.438 2.3 2.438 2.04L2.438 1.821Z" fill="rgb(0,0,0)" fill-opacity="1.000" fill-rule="nonzero" transform="matrix(1 0 0 1 95.8963 40.1744)"/><path d="M2.487 4.831L2.487 4.389C2.261 4.738 1.934 4.912 1.505 4.912C1.226 4.912 0.968 4.834 0.734 4.681C0.501 4.528 0.319 4.312 0.191 4.036C0.063 3.761 0 3.443 0 3.083C0 2.735 0.058 2.418 0.174 2.134C0.29 1.851 0.464 1.633 0.698 1.481C0.93 1.329 1.191 1.253 1.481 1.253C1.69 1.253 1.879 1.299 2.044 1.387C2.209 1.474 2.343 1.589 2.446 1.732L2.446 0L3.034 0L3.034 4.831L2.487 4.831ZM0.608 3.083C0.608 3.532 0.703 3.868 0.892 4.089C1.081 4.311 1.304 4.421 1.562 4.421C1.82 4.421 2.041 4.316 2.223 4.105C2.403 3.892 2.495 3.569 2.495 3.136C2.495 2.655 2.4 2.303 2.215 2.081C2.03 1.857 1.804 1.744 1.537 1.744C1.272 1.744 1.05 1.853 0.872 2.069C0.696 2.283 0.608 2.621 0.608 3.083Z" fill="rgb(0,0,0)" fill-opacity="1.000" fill-rule="nonzero" transform="matrix(1 0 0 1 43.8926 45.9321)"/><path d="M2.592 2.45L3.209 2.527C3.111 2.884 2.931 3.163 2.669 3.363C2.406 3.56 2.072 3.659 1.667 3.659C1.156 3.659 0.749 3.501 0.45 3.184C0.15 2.869 0 2.426 0 1.858C0 1.269 0.151 0.811 0.454 0.487C0.757 0.163 1.15 0 1.635 0C2.102 0 2.484 0.16 2.779 0.479C3.076 0.795 3.225 1.243 3.225 1.821C3.225 1.857 3.225 1.91 3.225 1.98L0.613 1.98C0.634 2.364 0.742 2.659 0.937 2.864C1.134 3.067 1.379 3.168 1.671 3.168C1.887 3.168 2.073 3.111 2.227 2.998C2.38 2.885 2.503 2.702 2.592 2.45ZM0.645 1.493L2.6 1.493C2.573 1.199 2.498 0.977 2.377 0.828C2.187 0.601 1.942 0.487 1.643 0.487C1.369 0.487 1.139 0.579 0.953 0.763C0.769 0.944 0.666 1.188 0.645 1.493Z" fill="rgb(0,0,0)" fill-opacity="1.000" fill-rule="nonzero" transform="matrix(1 0 0 1 47.8829 47.1856)"/><path d="M0 3.359L0.6 3.306C0.63 3.549 0.696 3.749 0.799 3.902C0.904 4.056 1.067 4.183 1.286 4.279C1.507 4.375 1.754 4.421 2.028 4.421C2.271 4.421 2.487 4.385 2.673 4.312C2.862 4.24 3.002 4.141 3.091 4.016C3.182 3.889 3.229 3.751 3.229 3.602C3.229 3.451 3.183 3.318 3.095 3.205C3.008 3.092 2.863 2.996 2.661 2.917C2.531 2.869 2.244 2.791 1.801 2.685C1.357 2.578 1.046 2.476 0.868 2.381C0.638 2.26 0.465 2.109 0.353 1.931C0.239 1.753 0.183 1.553 0.183 1.33C0.183 1.088 0.251 0.86 0.389 0.649C0.529 0.436 0.732 0.275 0.998 0.166C1.263 0.056 1.559 0 1.886 0C2.242 0 2.558 0.059 2.831 0.174C3.104 0.288 3.314 0.457 3.46 0.681C3.608 0.907 3.688 1.159 3.699 1.44L3.087 1.489C3.054 1.183 2.942 0.952 2.75 0.795C2.561 0.639 2.281 0.56 1.911 0.56C1.523 0.56 1.24 0.632 1.063 0.775C0.886 0.916 0.799 1.086 0.799 1.286C0.799 1.459 0.862 1.603 0.99 1.716C1.11 1.827 1.432 1.942 1.951 2.061C2.469 2.177 2.827 2.281 3.022 2.369C3.303 2.499 3.51 2.664 3.643 2.864C3.778 3.062 3.845 3.291 3.845 3.549C3.845 3.807 3.77 4.049 3.622 4.275C3.476 4.503 3.264 4.68 2.99 4.807C2.714 4.931 2.403 4.993 2.061 4.993C1.623 4.993 1.254 4.93 0.957 4.803C0.662 4.676 0.431 4.485 0.264 4.231C0.095 3.974 0.007 3.683 0 3.359Z" fill="rgb(0,0,0)" fill-opacity="1.000" fill-rule="nonzero" transform="matrix(1 0 0 1 53.9865 45.851)"/><path d="M2.592 2.45L3.209 2.527C3.111 2.884 2.931 3.163 2.669 3.363C2.406 3.56 2.072 3.659 1.667 3.659C1.156 3.659 0.749 3.501 0.45 3.184C0.15 2.869 0 2.426 0 1.858C0 1.269 0.151 0.811 0.454 0.487C0.757 0.163 1.15 0 1.635 0C2.102 0 2.484 0.16 2.779 0.479C3.076 0.795 3.225 1.243 3.225 1.821C3.225 1.857 3.225 1.91 3.225 1.98L0.613 1.98C0.634 2.364 0.742 2.659 0.937 2.864C1.134 3.067 1.379 3.168 1.671 3.168C1.887 3.168 2.073 3.111 2.227 2.998C2.38 2.885 2.503 2.702 2.592 2.45ZM0.645 1.493L2.6 1.493C2.573 1.199 2.498 0.977 2.377 0.828C2.187 0.601 1.942 0.487 1.643 0.487C1.369 0.487 1.139 0.579 0.953 0.763C0.769 0.944 0.666 1.188 0.645 1.493Z" fill="rgb(0,0,0)" fill-opacity="1.000" fill-rule="nonzero" transform="matrix(1 0 0 1 58.6629 47.1856)"/><path d="M0.118 3.87L0.694 3.955C0.717 4.13 0.785 4.26 0.896 4.344C1.041 4.452 1.242 4.507 1.497 4.507C1.772 4.507 1.985 4.451 2.134 4.34C2.282 4.232 2.383 4.079 2.438 3.882C2.467 3.76 2.48 3.507 2.478 3.119C2.221 3.426 1.899 3.578 1.513 3.578C1.031 3.578 0.658 3.405 0.393 3.059C0.131 2.711 0 2.294 0 1.809C0 1.474 0.059 1.166 0.178 0.884C0.299 0.601 0.476 0.383 0.706 0.231C0.935 0.078 1.205 0 1.513 0C1.926 0 2.268 0.167 2.535 0.499L2.535 0.077L3.083 0.077L3.083 3.103C3.083 3.649 3.027 4.036 2.917 4.263C2.805 4.489 2.63 4.669 2.389 4.799C2.148 4.931 1.852 4.997 1.501 4.997C1.084 4.997 0.747 4.902 0.491 4.714C0.233 4.527 0.11 4.245 0.118 3.87ZM0.608 1.765C0.608 2.225 0.699 2.561 0.88 2.771C1.064 2.981 1.292 3.087 1.566 3.087C1.839 3.087 2.067 2.983 2.251 2.775C2.437 2.565 2.531 2.234 2.531 1.785C2.531 1.358 2.435 1.036 2.243 0.819C2.054 0.601 1.824 0.491 1.558 0.491C1.292 0.491 1.068 0.598 0.884 0.811C0.7 1.025 0.608 1.344 0.608 1.765Z" fill="rgb(0,0,0)" fill-opacity="1.000" fill-rule="nonzero" transform="matrix(1 0 0 1 62.6087 47.1856)"/><path d="M2.308 3.501L2.308 2.985C2.034 3.383 1.664 3.582 1.197 3.582C0.991 3.582 0.798 3.542 0.621 3.464C0.442 3.384 0.307 3.284 0.219 3.164C0.132 3.043 0.071 2.895 0.037 2.722C0.012 2.606 0 2.422 0 2.17L0 0L0.596 0L0.596 1.943C0.596 2.251 0.608 2.46 0.633 2.568C0.667 2.725 0.746 2.849 0.868 2.937C0.989 3.026 1.14 3.071 1.318 3.071C1.494 3.071 1.66 3.025 1.817 2.933C1.973 2.841 2.085 2.717 2.15 2.56C2.214 2.403 2.247 2.174 2.247 1.874L2.247 0L2.839 0L2.839 3.501L2.308 3.501Z" fill="rgb(0,0,0)" fill-opacity="1.000" fill-rule="nonzero" transform="matrix(1 0 0 1 66.7938 47.2627)"/><path d="M0 3.578L0 0.077L0.535 0.077L0.535 0.608C0.67 0.36 0.795 0.197 0.909 0.118C1.024 0.04 1.153 0 1.294 0C1.494 0 1.697 0.064 1.902 0.191L1.7 0.738C1.554 0.655 1.407 0.613 1.262 0.613C1.132 0.613 1.015 0.652 0.913 0.73C0.809 0.806 0.736 0.915 0.694 1.055C0.626 1.266 0.592 1.496 0.592 1.744L0.592 3.578L0 3.578Z" fill="rgb(0,0,0)" fill-opacity="1.000" fill-rule="nonzero" transform="matrix(1 0 0 1 70.7757 47.1856)"/><path d="M0 1.829C0 1.181 0.181 0.7 0.544 0.385C0.843 0.129 1.21 0 1.643 0C2.124 0 2.517 0.159 2.823 0.475C3.128 0.789 3.282 1.223 3.282 1.777C3.282 2.229 3.214 2.585 3.079 2.844C2.943 3.101 2.745 3.301 2.487 3.444C2.229 3.587 1.948 3.659 1.643 3.659C1.153 3.659 0.757 3.503 0.454 3.188C0.151 2.873 0 2.42 0 1.829ZM0.613 1.829C0.613 2.276 0.71 2.611 0.905 2.835C1.098 3.057 1.345 3.168 1.643 3.168C1.937 3.168 2.182 3.056 2.377 2.831C2.571 2.607 2.669 2.267 2.669 1.809C2.669 1.377 2.57 1.05 2.373 0.828C2.178 0.603 1.934 0.491 1.643 0.491C1.345 0.491 1.098 0.602 0.905 0.823C0.71 1.046 0.613 1.381 0.613 1.829Z" fill="rgb(0,0,0)" fill-opacity="1.000" fill-rule="nonzero" transform="matrix(1 0 0 1 73.0096 47.1856)"/><path d="M0 2.531L0.588 2.442C0.62 2.677 0.711 2.858 0.86 2.981C1.011 3.106 1.222 3.168 1.493 3.168C1.766 3.168 1.968 3.113 2.101 3.002C2.233 2.891 2.3 2.761 2.3 2.612C2.3 2.477 2.24 2.372 2.121 2.296C2.04 2.242 1.839 2.174 1.517 2.093C1.081 1.986 0.78 1.89 0.613 1.809C0.444 1.729 0.317 1.617 0.231 1.477C0.144 1.337 0.101 1.179 0.101 1.006C0.101 0.853 0.136 0.709 0.207 0.576C0.277 0.441 0.374 0.331 0.499 0.243C0.59 0.176 0.716 0.12 0.876 0.073C1.035 0.025 1.206 0 1.387 0C1.662 0 1.903 0.04 2.109 0.118C2.317 0.197 2.471 0.303 2.572 0.438C2.671 0.574 2.739 0.756 2.775 0.982L2.195 1.059C2.17 0.881 2.094 0.741 1.967 0.641C1.84 0.538 1.661 0.487 1.432 0.487C1.158 0.487 0.963 0.532 0.848 0.621C0.731 0.71 0.673 0.816 0.673 0.937C0.673 1.016 0.698 1.085 0.746 1.144C0.794 1.209 0.87 1.263 0.974 1.302C1.032 1.324 1.207 1.376 1.497 1.456C1.916 1.568 2.208 1.66 2.373 1.732C2.54 1.803 2.671 1.908 2.766 2.044C2.861 2.18 2.908 2.348 2.908 2.547C2.908 2.748 2.85 2.936 2.734 3.111C2.62 3.285 2.453 3.421 2.235 3.517C2.018 3.611 1.772 3.659 1.497 3.659C1.042 3.659 0.696 3.565 0.458 3.375C0.22 3.186 0.067 2.904 0 2.531Z" fill="rgb(0,0,0)" fill-opacity="1.000" fill-rule="nonzero" transform="matrix(1 0 0 1 76.9674 47.1856)"/><path d="M0 4.831L0 0L1.825 0C2.144 0 2.389 0.015 2.56 0.045C2.797 0.085 2.996 0.161 3.156 0.272C3.315 0.383 3.444 0.538 3.541 0.738C3.641 0.939 3.691 1.158 3.691 1.395C3.691 1.807 3.559 2.156 3.298 2.442C3.035 2.726 2.563 2.868 1.882 2.868L0.641 2.868L0.641 4.831L0 4.831ZM0.641 2.296L1.89 2.296C2.303 2.296 2.597 2.219 2.771 2.065C2.943 1.912 3.03 1.695 3.03 1.416C3.03 1.214 2.978 1.04 2.876 0.896C2.776 0.753 2.642 0.659 2.474 0.613C2.366 0.583 2.167 0.568 1.878 0.568L0.641 0.568L0.641 2.296Z" fill="rgb(0,0,0)" fill-opacity="1.000" fill-rule="nonzero" transform="matrix(1 0 0 1 82.9433 45.9321)"/><path d="M0 3.578L0 0.077L0.535 0.077L0.535 0.608C0.67 0.36 0.795 0.197 0.909 0.118C1.024 0.04 1.153 0 1.294 0C1.494 0 1.697 0.064 1.902 0.191L1.7 0.738C1.554 0.655 1.407 0.613 1.262 0.613C1.132 0.613 1.015 0.652 0.913 0.73C0.809 0.806 0.736 0.915 0.694 1.055C0.626 1.266 0.592 1.496 0.592 1.744L0.592 3.578L0 3.578Z" fill="rgb(0,0,0)" fill-opacity="1.000" fill-rule="nonzero" transform="matrix(1 0 0 1 87.5955 47.1856)"/><path d="M0 0.681L0 0L0.592 0L0.592 0.681L0 0.681ZM0 4.831L0 1.33L0.592 1.33L0.592 4.831L0 4.831Z" fill="rgb(0,0,0)" fill-opacity="1.000" fill-rule="nonzero" transform="matrix(1 0 0 1 90.0566 45.9321)"/><path d="M1.33 3.501L0 0L0.629 0L1.379 2.097C1.459 2.324 1.534 2.561 1.602 2.803C1.656 2.617 1.729 2.395 1.821 2.138L2.6 0L3.213 0L1.886 3.501L1.33 3.501Z" fill="rgb(0,0,0)" fill-opacity="1.000" fill-rule="nonzero" transform="matrix(1 0 0 1 91.3811 47.2627)"/><path d="M2.487 3.148C2.268 3.334 2.055 3.467 1.85 3.545C1.647 3.62 1.429 3.659 1.197 3.659C0.812 3.659 0.516 3.566 0.308 3.379C0.102 3.19 0 2.948 0 2.653C0 2.484 0.039 2.327 0.118 2.186C0.196 2.043 0.297 1.93 0.422 1.846C0.549 1.759 0.692 1.695 0.852 1.651C0.967 1.62 1.144 1.589 1.379 1.562C1.857 1.506 2.211 1.436 2.438 1.355C2.438 1.275 2.438 1.223 2.438 1.201C2.438 0.96 2.382 0.79 2.272 0.69C2.119 0.558 1.893 0.491 1.594 0.491C1.315 0.491 1.109 0.541 0.978 0.637C0.845 0.734 0.745 0.908 0.681 1.156L0.101 1.075C0.155 0.826 0.241 0.627 0.361 0.475C0.482 0.323 0.657 0.207 0.884 0.126C1.113 0.043 1.38 0 1.683 0C1.981 0 2.223 0.035 2.409 0.105C2.595 0.176 2.732 0.265 2.819 0.369C2.907 0.475 2.97 0.61 3.006 0.775C3.024 0.875 3.034 1.057 3.034 1.318L3.034 2.109C3.034 2.661 3.046 3.011 3.071 3.156C3.097 3.302 3.149 3.443 3.225 3.578L2.604 3.578C2.541 3.454 2.502 3.31 2.487 3.148ZM2.438 1.821C2.221 1.909 1.897 1.983 1.468 2.044C1.225 2.08 1.052 2.12 0.949 2.166C0.849 2.21 0.77 2.274 0.714 2.357C0.659 2.441 0.633 2.534 0.633 2.637C0.633 2.797 0.692 2.93 0.811 3.034C0.932 3.14 1.108 3.192 1.339 3.192C1.568 3.192 1.771 3.143 1.947 3.042C2.125 2.943 2.256 2.806 2.341 2.633C2.404 2.498 2.438 2.3 2.438 2.04L2.438 1.821Z" fill="rgb(0,0,0)" fill-opacity="1.000" fill-rule="nonzero" transform="matrix(1 0 0 1 95.1303 47.1856)"/><path d="M2.487 4.831L2.487 4.389C2.261 4.738 1.934 4.912 1.505 4.912C1.226 4.912 0.968 4.834 0.734 4.681C0.501 4.528 0.319 4.312 0.191 4.036C0.063 3.761 0 3.443 0 3.083C0 2.735 0.058 2.418 0.174 2.134C0.29 1.851 0.464 1.633 0.698 1.481C0.93 1.329 1.191 1.253 1.481 1.253C1.69 1.253 1.879 1.299 2.044 1.387C2.209 1.474 2.343 1.589 2.446 1.732L2.446 0L3.034 0L3.034 4.831L2.487 4.831ZM0.608 3.083C0.608 3.532 0.703 3.868 0.892 4.089C1.081 4.311 1.304 4.421 1.562 4.421C1.82 4.421 2.041 4.316 2.223 4.105C2.403 3.892 2.495 3.569 2.495 3.136C2.495 2.655 2.4 2.303 2.215 2.081C2.03 1.857 1.804 1.744 1.537 1.744C1.272 1.744 1.05 1.853 0.872 2.069C0.696 2.283 0.608 2.621 0.608 3.083Z" fill="rgb(0,0,0)" fill-opacity="1.000" fill-rule="nonzero" transform="matrix(1 0 0 1 99.0921 45.9321)"/><path d="M0 1.829C0 1.181 0.181 0.7 0.544 0.385C0.843 0.129 1.21 0 1.643 0C2.124 0 2.517 0.159 2.823 0.475C3.128 0.789 3.282 1.223 3.282 1.777C3.282 2.229 3.214 2.585 3.079 2.844C2.943 3.101 2.745 3.301 2.487 3.444C2.229 3.587 1.948 3.659 1.643 3.659C1.153 3.659 0.757 3.503 0.454 3.188C0.151 2.873 0 2.42 0 1.829ZM0.613 1.829C0.613 2.276 0.71 2.611 0.905 2.835C1.098 3.057 1.345 3.168 1.643 3.168C1.937 3.168 2.182 3.056 2.377 2.831C2.571 2.607 2.669 2.267 2.669 1.809C2.669 1.377 2.57 1.05 2.373 0.828C2.178 0.603 1.934 0.491 1.643 0.491C1.345 0.491 1.098 0.602 0.905 0.823C0.71 1.046 0.613 1.381 0.613 1.829Z" fill="rgb(0,0,0)" fill-opacity="1.000" fill-rule="nonzero" transform="matrix(1 0 0 1 103.0582 47.1856)"/><path d="M0 2.531L0.588 2.442C0.62 2.677 0.711 2.858 0.86 2.981C1.011 3.106 1.222 3.168 1.493 3.168C1.766 3.168 1.968 3.113 2.101 3.002C2.233 2.891 2.3 2.761 2.3 2.612C2.3 2.477 2.24 2.372 2.121 2.296C2.04 2.242 1.839 2.174 1.517 2.093C1.081 1.986 0.78 1.89 0.613 1.809C0.444 1.729 0.317 1.617 0.231 1.477C0.144 1.337 0.101 1.179 0.101 1.006C0.101 0.853 0.136 0.709 0.207 0.576C0.277 0.441 0.374 0.331 0.499 0.243C0.59 0.176 0.716 0.12 0.876 0.073C1.035 0.025 1.206 0 1.387 0C1.662 0 1.903 0.04 2.109 0.118C2.317 0.197 2.471 0.303 2.572 0.438C2.671 0.574 2.739 0.756 2.775 0.982L2.195 1.059C2.17 0.881 2.094 0.741 1.967 0.641C1.84 0.538 1.661 0.487 1.432 0.487C1.158 0.487 0.963 0.532 0.848 0.621C0.731 0.71 0.673 0.816 0.673 0.937C0.673 1.016 0.698 1.085 0.746 1.144C0.794 1.209 0.87 1.263 0.974 1.302C1.032 1.324 1.207 1.376 1.497 1.456C1.916 1.568 2.208 1.66 2.373 1.732C2.54 1.803 2.671 1.908 2.766 2.044C2.861 2.18 2.908 2.348 2.908 2.547C2.908 2.748 2.85 2.936 2.734 3.111C2.62 3.285 2.453 3.421 2.235 3.517C2.018 3.611 1.772 3.659 1.497 3.659C1.042 3.659 0.696 3.565 0.458 3.375C0.22 3.186 0.067 2.904 0 2.531Z" fill="rgb(0,0,0)" fill-opacity="1.000" fill-rule="nonzero" transform="matrix(1 0 0 1 107.0161 47.1856)"/><path d="M11.504 5.734L5.734 0L0 5.77L5.769 11.504L11.504 5.734Z" fill="rgb(1,129,54)" fill-opacity="1.000" fill-rule="nonzero" transform="matrix(1 0 0 1 11 19.5118)"/><path d="M11.504 5.734L5.734 0L0 5.769L5.77 11.503L11.504 5.734Z" fill="rgb(1,129,54)" fill-opacity="1.000" fill-rule="nonzero" transform="matrix(1 0 0 1 17.191 13.2823)"/><path d="M11.504 5.734L5.735 0L0 5.77L5.77 11.504L11.504 5.734Z" fill="rgb(1,129,54)" fill-opacity="1.000" fill-rule="nonzero" transform="matrix(1 0 0 1 23.3617 7.0719)"/><path d="M0 5.769L5.77 11.504L11.504 5.734L5.735 0L0 5.769Z" fill="rgb(253,205,1)" fill-opacity="1.000" fill-rule="nonzero" transform="matrix(1 0 0 1 29.7688 19.449)"/><path d="M0 5.769L5.769 11.503L11.503 5.734L5.734 0L0 5.769Z" fill="rgb(253,205,1)" fill-opacity="1.000" fill-rule="nonzero" transform="matrix(1 0 0 1 23.509 13.2275)"/><path d="M0 5.769L5.769 11.503L11.503 5.733L5.734 0L0 5.769Z" fill="rgb(253,205,1)" fill-opacity="1.000" fill-rule="nonzero" transform="matrix(1 0 0 1 23.5242 25.7343)"/><path d="M0 5.77L5.77 11.504L11.504 5.734L5.734 0L0 5.77Z" fill="rgb(253,205,1)" fill-opacity="1.000" fill-rule="nonzero" transform="matrix(1 0 0 1 17.261 32.0359)"/><path d="M11.504 5.735L5.734 0L0 5.77L5.769 11.504L11.504 5.735Z" fill="rgb(1,129,54)" fill-opacity="1.000" fill-rule="nonzero" transform="matrix(1 0 0 1 17.261 25.7333)"/></svg>