<svg xmlns="http://www.w3.org/2000/svg" viewBox="0 0 130 60" width="130" height="60"><path d="M0 0L130 0L130 60L0 60L0 0Z" fill="rgb(255,255,255)" fill-opacity="1.000" fill-rule="nonzero" transform="matrix(1 0 0 1 0 0)"/><path d="M1.224 0L5.557 16.108L0 16.108L0.992 19.813L16.124 19.813L15.133 16.108L9.575 16.108L5.302 0L1.224 0Z" fill="rgb(25,40,71)" fill-opacity="1.000" fill-rule="evenodd" transform="matrix(1 0 0 -1 21 42.0398)"/><path d="M5.766 2.713C7.41 2.713 8.845 4.018 9.288 5.531L9.392 5.896C8.714 6.157 7.749 6.392 6.784 6.392C5.818 6.392 5.009 6.105 4.514 5.609C4.148 5.245 3.94 4.774 3.94 4.2C3.94 3.34 4.644 2.713 5.766 2.713ZM4.07 0C1.644 0 0 1.565 0 3.757C0 5.165 0.495 6.288 1.33 7.122C2.426 8.218 4.096 8.791 6.027 8.791C7.54 8.791 8.792 8.531 9.967 8.166L10.019 8.348C10.097 8.662 10.175 8.975 10.175 9.392C10.175 10.358 9.497 11.036 7.54 11.036C6.451 11.036 5.36 10.817 4.447 10.515L3.183 13.41C4.618 14.01 6.392 14.401 8.375 14.401C12.132 14.401 14.037 12.835 14.037 10.096C14.037 9.366 13.906 8.688 13.723 7.983C12.868 4.79 12.227 2.395 11.799 0.798C11.752 0.626 11.683 0.367 11.591 0.022L7.756 0.022L8.245 1.879C7.122 0.678 5.714 0 4.07 0Z" fill="rgb(25,40,71)" fill-opacity="1.000" fill-rule="evenodd" transform="matrix(1 0 0 -1 29.5017 42.0544)"/><path d="M6.916 8.531C8.011 8.531 9.055 9.001 9.812 9.758C10.594 10.54 11.038 11.506 11.038 12.601C11.038 14.193 9.942 15.158 8.272 15.158C7.203 15.158 6.264 14.715 5.533 13.985C4.724 13.175 4.255 12.132 4.255 11.01C4.255 9.366 5.351 8.531 6.916 8.531ZM5.559 0C3.565 0 1.622 0.353 0 1.003L2.077 3.785C2.826 3.56 4.383 3.131 5.298 3.131C6.629 3.131 7.568 3.496 8.325 4.253C8.924 4.853 9.29 5.662 9.603 6.757L9.733 7.227C8.272 5.923 7.072 5.374 5.351 5.374C2.663 5.374 0.158 7.07 0.158 10.253C0.158 12.654 1.15 14.74 2.637 16.228C4.046 17.637 5.924 18.472 7.803 18.472C10.203 18.472 11.325 17.323 12.055 16.045L12.629 18.211L16.595 18.211L13.595 6.966C12.838 4.148 12.264 3.052 11.143 1.93C9.864 0.652 8.116 0 5.559 0Z" fill="rgb(25,40,71)" fill-opacity="1.000" fill-rule="evenodd" transform="matrix(1 0 0 -1 43.9181 46.0205)"/><path d="M6.973 8.531C8.069 8.531 9.113 9.001 9.869 9.758C10.651 10.54 11.095 11.506 11.095 12.601C11.095 14.193 9.999 15.158 8.33 15.158C7.26 15.158 6.321 14.715 5.591 13.985C4.782 13.175 4.312 12.132 4.312 11.01C4.312 9.366 5.408 8.531 6.973 8.531ZM5.617 0C3.598 0 1.633 0.362 0 1.028L2.051 3.775C3.109 3.361 4.248 3.131 5.356 3.131C6.686 3.131 7.625 3.496 8.383 4.253C8.982 4.853 9.347 5.662 9.661 6.757L9.791 7.227C8.33 5.923 7.13 5.374 5.408 5.374C2.721 5.374 0.216 7.07 0.216 10.253C0.216 12.654 1.207 14.74 2.694 16.228C4.104 17.637 5.981 18.472 7.86 18.472C10.261 18.472 11.383 17.323 12.113 16.045L12.687 18.211L16.653 18.211L13.652 6.966C12.896 4.148 12.322 3.052 11.2 1.93C9.921 0.652 8.174 0 5.617 0Z" fill="rgb(25,40,71)" fill-opacity="1.000" fill-rule="evenodd" transform="matrix(1 0 0 -1 59.6528 46.0205)"/><path d="M5.192 4.148L3.47 18.237L7.514 18.237L8.166 8.741L13.411 18.237L17.69 18.237L9.027 3.914C7.201 1.07 5.635 0 3.261 0C1.827 0 0.861 0.366 0 0.966L2.114 3.835C2.531 3.522 3.131 3.287 3.653 3.287C4.253 3.287 4.645 3.444 5.192 4.148Z" fill="rgb(25,40,71)" fill-opacity="1.000" fill-rule="evenodd" transform="matrix(1 0 0 -1 74.073 45.6076)"/><path d="M0 0C0.986 1.245 1.94 2.604 2.72 3.743C3.408 4.755 4.153 5.973 4.597 6.899C7.459 12.87 -0.311 13.212 0.817 11.97C1.946 10.729 2.044 8.746 1.95 7.602C1.728 4.907 1.444 3.336 0 0Z" fill="rgb(19,119,61)" fill-opacity="1.000" fill-rule="evenodd" transform="matrix(1 0 0 -1 92.8827 36.9023)"/><path d="M14.54 9.875C15.671 7.699 14.731 4.361 11.646 0C12.507 2.928 11.65 5.923 10.137 7.765C8.316 9.983 4.916 11.834 0 13.371C8.563 13.216 13.41 12.05 14.54 9.875Z" fill="rgb(86,172,53)" fill-opacity="1.000" fill-rule="evenodd" transform="matrix(1 0 0 -1 83.9649 33.1517)"/><path d="M0 0C1.374 1.675 2.652 3.387 3.744 4.921C4.851 6.619 5.724 8.158 6.433 9.297C10.806 16.333 -0.158 18.022 1.351 16.302C2.859 14.583 2.995 11.876 2.84 10.319C2.473 6.649 2.049 4.513 0 0Z" fill="rgb(19,119,61)" fill-opacity="1.000" fill-rule="evenodd" transform="matrix(1 0 0 -1 99.9411 36.5258)"/><path d="M19.748 13.417C21.238 10.419 19.878 5.882 15.565 0C16.809 3.979 15.711 8.089 13.693 10.64C11.262 13.712 6.669 16.322 0 18.537C11.675 18.122 18.258 16.415 19.748 13.417Z" fill="rgb(86,172,53)" fill-opacity="1.000" fill-rule="evenodd" transform="matrix(1 0 0 -1 88.1675 31.537)"/></svg>