<svg xmlns="http://www.w3.org/2000/svg" viewBox="0 0 60 60" width="60" height="60"><path d="M0 0L60 0L60 60L0 60L0 0Z" fill="rgb(255,255,255)" fill-opacity="1.000" fill-rule="nonzero" transform="matrix(1 0 0 1 0 0)"/><path d="M0 0C1.563 1.975 3.076 4.13 4.313 5.935C5.404 7.54 6.585 9.471 7.289 10.94C11.827 20.408 -0.493 20.95 1.295 18.982C3.085 17.013 3.241 13.868 3.092 12.054C2.74 7.781 2.289 5.289 0 0Z" fill="rgb(19,119,61)" fill-opacity="1.000" fill-rule="evenodd" transform="matrix(1 0 0 -1 24.956 48.9022)"/><path d="M23.057 15.659C24.849 12.209 23.36 6.915 18.468 0C19.833 4.643 18.473 9.392 16.075 12.313C13.188 15.83 7.796 18.765 0 21.202C13.578 20.957 21.265 19.108 23.057 15.659Z" fill="rgb(86,172,53)" fill-opacity="1.000" fill-rule="evenodd" transform="matrix(1 0 0 -1 10.8147 42.9551)"/><path d="M0 0C2.179 2.656 4.206 5.371 5.936 7.803C7.693 10.496 9.076 12.937 10.201 14.743C17.135 25.9 -0.251 28.578 2.142 25.851C4.533 23.124 4.75 18.833 4.504 16.363C3.921 10.544 3.248 7.157 0 0Z" fill="rgb(19,119,61)" fill-opacity="1.000" fill-rule="evenodd" transform="matrix(1 0 0 -1 36.1495 48.3055)"/><path d="M31.315 21.275C33.677 16.521 31.521 9.327 24.682 0C26.655 6.31 24.913 12.827 21.714 16.872C17.858 21.743 10.575 25.882 0 29.394C18.513 28.736 28.952 26.03 31.315 21.275Z" fill="rgb(86,172,53)" fill-opacity="1.000" fill-rule="evenodd" transform="matrix(1 0 0 -1 17.478 40.3944)"/></svg>