<svg xmlns="http://www.w3.org/2000/svg" viewBox="0 0 130 60" width="130" height="60"><path d="M0 0L130 0L130 60L0 60L0 0Z" fill="rgb(255,255,255)" fill-opacity="1.000" fill-rule="nonzero" transform="matrix(1 0 0 1 0 0)"/><path d="M5.687 9.105C5.18 9.468 4.567 9.653 3.945 9.631C2.246 9.631 1.276 8.726 1.276 7L1.276 3.245L0 3.245L0 1.782L1.276 1.782L1.276 0L3.089 0L3.089 1.782L5.165 1.782L5.165 3.245L3.089 3.245L3.089 6.956C3.089 7.714 3.466 8.125 4.163 8.125C4.527 8.134 4.885 8.021 5.18 7.802L5.687 9.102L5.687 9.105Z" fill="rgb(0,0,0)" fill-opacity="1.000" fill-rule="nonzero" transform="matrix(1 0 0 1 42.8439 26.559)"/><path d="M7.896 4.573L1.817 4.573C2.035 5.713 2.977 6.443 4.328 6.443C5.118 6.474 5.883 6.167 6.431 5.594L7.402 6.718C6.705 7.551 5.616 7.99 4.281 7.99C1.683 7.99 0 6.308 0 3.987C0 1.666 1.699 0 4.004 0C6.31 0 7.921 1.591 7.921 4.031C7.921 4.178 7.906 4.397 7.893 4.573L7.896 4.573ZM1.801 3.361L6.198 3.361C6.079 2.246 5.121 1.413 4.007 1.463C2.893 1.422 1.935 2.246 1.801 3.361Z" fill="rgb(0,0,0)" fill-opacity="1.000" fill-rule="nonzero" transform="matrix(1 0 0 1 49.0944 28.2002)"/><path d="M7.632 3.423L7.632 7.893L5.818 7.893L5.818 3.655C5.818 2.268 5.137 1.594 3.976 1.594C2.685 1.594 1.814 2.383 1.814 3.946L1.814 7.89L0 7.89L0 0.088L1.727 0.088L1.727 1.096C2.321 0.379 3.264 0 4.396 0C6.254 0 7.632 1.068 7.632 3.417L7.632 3.423Z" fill="rgb(0,0,0)" fill-opacity="1.000" fill-rule="nonzero" transform="matrix(1 0 0 1 58.4718 28.1939)"/><path d="M5.687 9.105C5.18 9.468 4.567 9.653 3.945 9.631C2.246 9.631 1.276 8.726 1.276 7L1.276 3.245L0 3.245L0 1.782L1.276 1.782L1.276 0L3.089 0L3.089 1.782L5.165 1.782L5.165 3.245L3.089 3.245L3.089 6.956C3.089 7.714 3.466 8.125 4.163 8.125C4.527 8.134 4.885 8.021 5.18 7.802L5.687 9.102L5.687 9.105Z" fill="rgb(0,0,0)" fill-opacity="1.000" fill-rule="nonzero" transform="matrix(1 0 0 1 67.0931 26.559)"/><path d="M0 3.987C0 1.651 1.742 0 4.122 0C6.503 0 8.257 1.651 8.257 3.987C8.257 6.324 6.531 7.99 4.122 7.99C1.742 7.99 0 6.324 0 3.987ZM6.428 3.987C6.428 2.496 5.442 1.547 4.119 1.547C2.797 1.547 1.826 2.496 1.826 3.987C1.826 5.478 2.813 6.427 4.119 6.427C5.426 6.427 6.428 5.478 6.428 3.987Z" fill="rgb(0,0,0)" fill-opacity="1.000" fill-rule="nonzero" transform="matrix(1 0 0 1 73.3468 28.2002)"/><path d="M0.003 7.114L0.7 5.726C1.512 6.228 2.445 6.497 3.401 6.5C4.549 6.5 5.025 6.181 5.025 5.639C5.025 4.148 0.236 5.551 0.236 2.441C0.236 0.966 1.559 0.001 3.646 0.001C4.654 -0.018 5.65 0.214 6.549 0.674L5.852 2.062C5.18 1.664 4.412 1.464 3.631 1.476C2.529 1.476 2.004 1.843 2.004 2.353C2.004 3.932 6.792 2.529 6.792 5.582C6.792 7.045 5.457 7.994 3.279 7.994C1.988 7.994 0.697 7.612 0 7.117L0.003 7.114Z" fill="rgb(0,0,0)" fill-opacity="1.000" fill-rule="nonzero" transform="matrix(1 0 0 1 82.1673 28.1991)"/><path d="M0.002 3.871C0.002 1.594 1.614 0 3.832 0C5.036 0 6.082 0.467 6.707 1.403L6.169 1.798C5.628 1.049 4.75 0.623 3.832 0.658C2.046 0.658 0.743 1.942 0.743 3.871C0.743 5.801 2.05 7.085 3.832 7.085C4.75 7.119 5.628 6.693 6.169 5.945L6.707 6.339C6.044 7.266 4.965 7.793 3.832 7.742C1.791 7.818 0.074 6.211 0.002 4.153C-0.001 4.059 -0.001 3.965 0.002 3.868L0.002 3.871Z" fill="rgb(0,0,0)" fill-opacity="1.000" fill-rule="nonzero" transform="matrix(1 0 0 1 90.6276 28.4038)"/><path d="M6.154 2.851L6.154 7.687L5.457 7.687L5.457 6.327C4.978 7.204 4.051 7.743 2.729 7.743C1.03 7.743 0 6.866 0 5.566C0 4.411 0.725 3.433 2.831 3.433L5.429 3.433L5.429 2.819C5.429 1.404 4.661 0.643 3.18 0.643C2.221 0.633 1.291 0.975 0.566 1.607L0.202 1.081C1.052 0.367 2.128 -0.018 3.236 0.001C5.109 0.001 6.154 0.965 6.154 2.851ZM5.429 5.438L5.429 4.007L2.847 4.007C1.279 4.007 0.728 4.664 0.728 5.541C0.728 6.534 1.497 7.148 2.831 7.148C4.107 7.148 4.994 6.534 5.429 5.438Z" fill="rgb(0,0,0)" fill-opacity="1.000" fill-rule="nonzero" transform="matrix(1 0 0 1 98.2494 28.4031)"/><path d="M7.548 3.869C7.548 6.162 5.936 7.741 3.802 7.741C2.523 7.775 1.332 7.08 0.725 5.943L0.725 10.516L0 10.516L0 0.058L0.697 0.058L0.697 1.856C1.291 0.687 2.498 -0.036 3.802 0.001C5.936 0.001 7.548 1.596 7.548 3.873L7.548 3.869ZM6.823 3.869C6.823 1.956 5.504 0.656 3.762 0.656C2.019 0.656 0.716 1.956 0.716 3.869C0.716 5.783 2.022 7.083 3.762 7.083C5.501 7.083 6.823 5.783 6.823 3.869Z" fill="rgb(0,0,0)" fill-opacity="1.000" fill-rule="nonzero" transform="matrix(1 0 0 1 106.2298 28.4055)"/><path d="M3.758 15.341L7.666 15.341L8.6 14.401L3.758 14.401C2.2 14.401 0.936 13.13 0.933 11.557L0.933 3.104L3.173 3.104L4.107 2.164L0.933 2.164L0.933 0.038C0.933 0.038 0.933 0.013 0.933 0L0 0C0 0 0 0.025 0 0.038L0 11.56C0.003 13.649 1.683 15.338 3.758 15.341Z" fill="rgb(255,183,27)" fill-opacity="1.000" fill-rule="nonzero" transform="matrix(1 0 0 1 16.8679 20.7459)"/><path d="M21.073 0L9.626 0C7.924 0 6.437 1.153 5.995 2.803L6.972 2.803C7.383 1.682 8.441 0.94 9.626 0.936L21.073 0.936C22.631 0.936 23.895 2.208 23.898 3.78L23.898 15.306C23.898 16.875 22.631 18.147 21.073 18.15L18.96 18.15L18.96 13.621L18.96 9.691C18.96 9.456 18.938 9.221 18.895 8.989C18.833 8.644 18.721 8.309 18.562 7.996C18.198 7.266 17.61 6.678 16.888 6.311C16.577 6.151 16.244 6.039 15.902 5.973C15.671 5.929 15.438 5.907 15.205 5.907L11.303 5.907L10.37 6.847L7.794 9.44L7.794 10.768L11.689 6.847L15.037 6.847L7.791 14.141L7.791 15.306C7.791 15.36 7.794 15.41 7.8 15.463L16.185 7.022C16.96 7.313 17.569 7.927 17.859 8.707L9.477 17.148C9.527 17.148 9.58 17.157 9.632 17.157L10.79 17.157L18.036 9.863L18.036 13.233L14.141 17.157L15.457 17.157L18.036 14.561L18.036 18.15L15.796 18.15L14.863 19.09L18.036 19.09L18.036 21.216C18.036 22.786 16.77 24.057 15.211 24.06L3.758 24.06C2.2 24.06 0.936 22.786 0.933 21.216L0.933 9.691C0.933 8.121 2.2 6.85 3.758 6.847L4.938 6.847L4.938 5.907L3.758 5.907C1.683 5.907 0.003 7.601 0 9.691L0 21.216C0 23.306 1.683 24.997 3.758 25L15.205 25C17.28 25 18.96 23.306 18.963 21.216L18.963 19.09L21.076 19.09C23.151 19.09 24.831 17.395 24.834 15.309L24.834 3.784C24.834 1.694 23.148 0 21.073 0Z" fill="rgb(255,183,27)" fill-opacity="1.000" fill-rule="nonzero" transform="matrix(1 0 0 1 11 17)"/></svg>