<svg xmlns="http://www.w3.org/2000/svg" viewBox="0 0 60 60" width="60" height="60"><path d="M0 0L60 0L60 60L0 60L0 0Z" fill="rgb(0,0,0)" fill-opacity="1.000" fill-rule="nonzero" transform="matrix(1 0 0 1 0 0)"/><path d="M5.019 20.487L10.238 20.487L11.485 19.233L5.019 19.233C2.938 19.233 1.251 17.534 1.247 15.435L1.247 4.145L4.238 4.145L5.485 2.89L1.247 2.89L1.247 0.05C1.247 0.05 1.247 0.017 1.247 0L0 0C0 0 0 0.033 0 0.05L0 15.439C0.004 18.229 2.248 20.483 5.019 20.487Z" fill="rgb(255,183,27)" fill-opacity="1.000" fill-rule="nonzero" transform="matrix(1 0 0 1 21.6715 17.8089)"/><path d="M28.142 0L12.856 0C10.583 0 8.597 1.539 8.007 3.744L9.312 3.744C9.86 2.246 11.273 1.255 12.856 1.251L28.142 1.251C30.224 1.251 31.911 2.949 31.915 5.049L31.915 20.441C31.915 22.537 30.224 24.235 28.142 24.239L25.321 24.239L25.321 18.191L25.321 12.942C25.321 12.628 25.292 12.314 25.234 12.005C25.151 11.545 25.001 11.097 24.789 10.679C24.303 9.704 23.518 8.918 22.554 8.428C22.138 8.215 21.694 8.064 21.237 7.977C20.929 7.918 20.617 7.889 20.306 7.889L15.095 7.889L13.849 9.144L10.408 12.607L10.408 14.381L15.611 9.144L20.081 9.144L10.404 18.885L10.404 20.441C10.404 20.513 10.408 20.579 10.417 20.651L21.615 9.378C22.649 9.767 23.464 10.587 23.85 11.628L12.656 22.901C12.723 22.901 12.793 22.913 12.864 22.913L14.41 22.913L24.087 13.172L24.087 17.672L18.885 22.913L20.642 22.913L24.087 19.446L24.087 24.239L21.095 24.239L19.849 25.494L24.087 25.494L24.087 28.334C24.087 30.43 22.396 32.128 20.314 32.132L5.019 32.132C2.938 32.132 1.251 30.43 1.247 28.334L1.247 12.942C1.247 10.846 2.938 9.148 5.019 9.144L6.594 9.144L6.594 7.889L5.019 7.889C2.248 7.889 0.004 10.152 0 12.942L0 28.334C0 31.124 2.248 33.383 5.019 33.387L20.306 33.387C23.077 33.387 25.321 31.124 25.325 28.334L25.325 25.494L28.146 25.494C30.918 25.494 33.162 23.231 33.166 20.446L33.166 5.053C33.166 2.263 30.914 0 28.142 0Z" fill="rgb(255,183,27)" fill-opacity="1.000" fill-rule="nonzero" transform="matrix(1 0 0 1 13.8359 12.8064)"/></svg>