<svg xmlns="http://www.w3.org/2000/svg" viewBox="0 0 60 60" width="60" height="60"><path d="M0 0L60 0L60 60L0 60L0 0Z" fill="rgb(255,255,255)" fill-opacity="1.000" fill-rule="nonzero" transform="matrix(1 0 0 1 0 0)"/><path d="M22.594 45.194C35.072 45.194 45.187 35.077 45.187 22.597C45.187 10.117 35.072 0 22.594 0C10.116 0 0 10.117 0 22.597C0 35.077 10.116 45.194 22.594 45.194Z" fill="rgb(255,255,255)" fill-opacity="1.000" fill-rule="nonzero" transform="matrix(1 0 0 1 7.0034 6.8596)"/><path d="M39.768 24.195L32.919 24.195C33.178 25.682 34.596 26.253 35.824 26.253C36.603 26.253 37.295 26.08 37.969 25.769L37.779 27.809C37.018 28.121 36.101 28.242 35.185 28.242C32.141 28.242 29.996 26.46 29.996 23.434C29.996 20.805 31.916 18.833 34.856 18.833C38.177 18.833 39.837 20.943 39.768 24.195ZM27.384 28.069C27.246 27.74 27.038 27.204 26.865 26.668L26.467 25.336C26.26 24.627 25.983 24.333 25.308 24.333L24.167 24.333L24.167 28.069L21.521 28.069L21.521 15.858L24.167 15.858L24.167 22.586L24.461 22.586L26.969 19.006L29.909 19.006L26.951 22.742L27.107 22.742C28.283 22.742 28.629 23.399 28.923 24.368L29.425 26.045C29.598 26.668 29.961 27.55 30.238 28.069L27.384 28.069ZM18.909 26.045C19.601 26.045 20.171 25.855 20.604 25.648L20.362 27.844C19.808 28.121 19.03 28.259 18.355 28.259C15.501 28.259 13.53 26.409 13.53 23.52C13.53 20.666 15.467 18.833 18.338 18.833C19.393 18.833 20.206 19.04 21.036 19.421L20.275 21.462C19.877 21.22 19.324 21.03 18.736 21.03C17.283 21.03 16.332 21.981 16.332 23.52C16.332 25.042 17.335 26.062 18.909 26.045ZM10.019 17.847L12.717 17.847L12.717 15.858L10.019 15.858L10.019 17.847ZM10.019 28.069L12.717 28.069L12.717 19.006L10.019 19.006L10.019 28.069ZM40.339 23.174L40.339 17.017L43.037 15.927L43.037 19.179L44.853 19.179L44.49 21.202L43.003 21.202L43.003 23.278C43.003 25.294 43.767 26.714 44.577 27.854C44.979 26.167 45.193 24.407 45.193 22.596C45.193 10.117 35.076 0 22.596 0C12.464 0 3.889 6.67 1.022 15.858L9.43 15.858L9.102 18.28L5.591 18.28L5.591 28.069L2.719 28.069L2.719 18.28L0.414 18.28C0.143 19.677 0 21.12 0 22.596C0 35.076 10.117 45.193 22.597 45.193C33.189 45.193 42.078 37.904 44.525 28.069L41.861 28.069C41.394 27.256 40.322 25.786 40.339 23.174ZM34.942 20.701C33.801 20.701 33.075 21.445 32.85 22.43L36.914 22.43C36.776 21.341 36.015 20.701 34.942 20.701Z" fill="rgb(213,43,30)" fill-opacity="1.000" fill-rule="evenodd" transform="matrix(1 0 0 1 7 6.8596)"/></svg>