<svg xmlns="http://www.w3.org/2000/svg" viewBox="0 0 60 60" width="60" height="60"><path d="M0 0L60 0L60 60L0 60L0 0Z" fill="rgb(255,255,255)" fill-opacity="1.000" fill-rule="nonzero" transform="matrix(1 0 0 1 0 0)"/><path d="M13.976 17.116C15.23 17.116 16.248 16.099 16.248 14.845L16.248 8.664C16.248 3.724 12.756 0 8.124 0C3.492 0 0 3.724 0 8.664L0 14.845C0 16.099 1.017 17.116 2.272 17.116C3.527 17.116 4.544 16.099 4.544 14.845L4.544 8.664C4.544 6.009 5.916 4.36 8.124 4.36C10.332 4.36 11.704 6.009 11.704 8.664L11.704 14.845C11.704 16.099 12.721 17.116 13.976 17.116Z" fill="rgb(0,204,44)" fill-opacity="1.000" fill-rule="nonzero" transform="matrix(1 0 0 1 35.7759 18.6122)"/><path d="M8.668 0C3.889 0 0 3.886 0 8.664C0 13.44 3.888 17.327 8.668 17.327C13.447 17.327 17.336 13.441 17.336 8.664C17.336 3.887 13.448 0 8.668 0ZM8.668 12.967C6.294 12.967 4.362 11.036 4.362 8.664C4.362 6.291 6.294 4.36 8.668 4.36C11.042 4.36 12.974 6.291 12.974 8.664C12.974 11.036 11.042 12.967 8.668 12.967Z" fill="rgb(0,204,44)" fill-opacity="1.000" fill-rule="nonzero" transform="matrix(1 0 0 1 16.6433 18.6122)"/><path d="M0.603 0.672C1.381 -0.149 2.731 -0.233 3.591 0.504C5.719 2.326 7.808 3.312 10.927 3.312C14.044 3.312 16.133 2.327 18.262 0.504C19.121 -0.231 20.472 -0.149 21.25 0.672C22.117 1.589 22.045 3.013 21.082 3.826C18.142 6.31 15.048 7.654 10.928 7.654C6.807 7.654 3.714 6.309 0.773 3.826C-0.19 3.012 -0.262 1.589 0.605 0.672L0.603 0.672Z" fill="rgb(0,204,44)" fill-opacity="1.000" fill-rule="nonzero" transform="matrix(1 0 0 1 23.6858 38.2362)"/><path d="M0 13.634C0 17.654 2.852 20.45 6.67 20.711C6.67 20.711 7.185 20.726 7.285 20.724C8.438 20.696 9.372 19.792 9.372 18.642C9.372 17.492 8.438 16.561 7.285 16.561C5.686 16.561 4.54 15.282 4.49 13.734L4.49 7.971L7.088 7.971C8.215 7.971 9.128 7.06 9.128 5.936C9.128 4.812 8.215 3.901 7.088 3.901L4.49 3.901L4.49 2.239C4.49 1.003 3.485 0 2.245 0C1.005 -0.001 0 1.001 0 2.238L0 6.847L0 13.634Z" fill="rgb(0,204,44)" fill-opacity="1.000" fill-rule="nonzero" transform="matrix(1 0 0 1 7 15)"/></svg>