<svg xmlns="http://www.w3.org/2000/svg" viewBox="0 0 130 60" width="130" height="60"><path d="M0 0L130 0L130 60L0 60L0 0Z" fill="rgb(255,255,255)" fill-opacity="1.000" fill-rule="nonzero" transform="matrix(1 0 0 1 0 0)"/><path d="M0 3.025L5.097 3.025L5.097 10.311L5.134 10.311C7.147 10.311 8.779 8.726 8.779 6.772L8.779 3.025L14.018 3.025L14.018 0L0 0L0 3.025Z" fill="rgb(34,34,34)" fill-opacity="1.000" fill-rule="evenodd" transform="matrix(1 0 0 1 43.2311 24.9126)"/><path d="M9.822 7.425L6.318 7.425C5.096 7.425 4.04 6.515 3.983 5.33C3.923 4.069 4.961 3.025 6.247 3.025L9.75 3.025C10.972 3.025 12.028 3.935 12.085 5.12C12.146 6.381 11.107 7.425 9.822 7.425ZM10.688 0L5.381 0C2.421 0 0 2.351 0 5.225C0 8.099 2.421 10.45 5.381 10.45L10.688 10.45C13.647 10.45 16.069 8.099 16.069 5.225C16.069 2.351 13.647 0 10.688 0Z" fill="rgb(34,34,34)" fill-opacity="1.000" fill-rule="evenodd" transform="matrix(1 0 0 1 57.8143 24.775)"/><path d="M9.822 7.425L6.319 7.425C5.096 7.425 4.04 6.515 3.983 5.33C3.923 4.069 4.962 3.025 6.247 3.025L9.75 3.025C10.972 3.025 12.029 3.935 12.086 5.12C12.146 6.381 11.107 7.425 9.822 7.425ZM10.688 0L5.381 0C2.421 0 0 2.351 0 5.225C0 8.099 2.421 10.45 5.381 10.45L10.688 10.45C13.648 10.45 16.069 8.099 16.069 5.225C16.069 2.351 13.648 0 10.688 0Z" fill="rgb(34,34,34)" fill-opacity="1.000" fill-rule="evenodd" transform="matrix(1 0 0 1 92.5289 24.775)"/><path d="M10.054 3.585C10.054 4.109 9.612 4.538 9.072 4.538L4.106 4.538L4.106 2.613L9.072 2.613C9.612 2.613 10.054 3.042 10.054 3.566L10.054 3.585ZM13.783 3.742C13.783 2.713 13.35 1.778 12.65 1.098C11.952 0.421 10.989 0 9.929 0L0 0L0 5.811L0 7.563L0 10.037L3.964 10.037L3.964 7.563L8.156 7.563L9.626 10.037L13.783 10.037L12 6.893C13.069 6.226 13.783 5.061 13.783 3.742Z" fill="rgb(34,34,34)" fill-opacity="1.000" fill-rule="evenodd" transform="matrix(1 0 0 1 76.5591 25.0495)"/><path d="M7.228 4.159L7.228 0.054C7.228 0.01 7.176 -0.016 7.139 0.011C5.043 1.521 2.656 2.899 0.032 4.11C-0.022 4.135 -0.004 4.212 0.055 4.212L7.172 4.212C7.203 4.212 7.228 4.188 7.228 4.159Z" fill="rgb(236,0,0)" fill-opacity="1.000" fill-rule="evenodd" transform="matrix(1 0 0 1 21.8438 34.0378)"/><path d="M16.566 0.085C16.592 0.049 16.566 0 16.521 0L5.712 0C2.557 0 0 2.463 0 5.5L0 10.65C0 10.687 0.037 10.713 0.073 10.701C7.447 8.289 13.318 4.527 16.566 0.085Z" fill="rgb(236,0,0)" fill-opacity="1.000" fill-rule="evenodd" transform="matrix(1 0 0 1 21 21.75)"/><path d="M0 8.483L0 14.985C0 15.014 0.025 15.039 0.055 15.039L0.236 15.039C3.39 15.039 5.947 12.576 5.947 9.538L5.947 0.054C5.947 -0.007 5.86 -0.021 5.84 0.036C4.772 3.033 2.771 5.88 0.017 8.445C0.006 8.455 0 8.468 0 8.483Z" fill="rgb(236,0,0)" fill-opacity="1.000" fill-rule="evenodd" transform="matrix(1 0 0 1 32.045 23.2113)"/></svg>