<svg xmlns="http://www.w3.org/2000/svg" viewBox="0 0 60 60" width="60" height="60"><path d="M0 0L60 0L60 60L0 60L0 0Z" fill="rgb(236,0,0)" fill-opacity="1.000" fill-rule="nonzero" transform="matrix(1 0 0 1 0 0)"/><path d="M14.04 8.078L14.04 0.104C14.04 0.019 13.94 -0.03 13.869 0.021C9.795 2.955 5.159 5.631 0.061 7.984C-0.042 8.032 -0.007 8.182 0.107 8.182L13.932 8.182C13.992 8.182 14.04 8.135 14.04 8.078Z" fill="rgb(255,255,255)" fill-opacity="1.000" fill-rule="evenodd" transform="matrix(1 0 0 1 14.639 38.0935)"/><path d="M32.181 0.165C32.231 0.096 32.18 0 32.093 0L11.095 0C4.968 0 0 4.784 0 10.685L0 20.688C0 20.759 0.072 20.81 0.142 20.787C14.466 16.102 25.871 8.794 32.181 0.165Z" fill="rgb(255,255,255)" fill-opacity="1.000" fill-rule="evenodd" transform="matrix(1 0 0 1 13 14.2242)"/><path d="M0 16.479L0 29.109C0 29.166 0.048 29.213 0.108 29.213L0.458 29.213C6.585 29.213 11.553 24.429 11.553 18.528L11.553 0.104C11.553 -0.013 11.384 -0.041 11.344 0.07C9.269 5.892 5.383 11.422 0.033 16.404C0.012 16.423 0 16.45 0 16.479Z" fill="rgb(255,255,255)" fill-opacity="1.000" fill-rule="evenodd" transform="matrix(1 0 0 1 34.455 17.0628)"/></svg>