<svg xmlns="http://www.w3.org/2000/svg" viewBox="0 0 60 60" width="60" height="60"><path d="M0 0L60 0L60 60L0 60L0 0Z" fill="rgb(0,166,202)" fill-opacity="1.000" fill-rule="nonzero" transform="matrix(1 0 0 1 0 0)"/><path d="M20.731 0C12.987 0 6.196 4.169 2.621 10.483C1.311 12.985 1.072 15.129 2.145 16.916C3.336 19.06 6.076 19.299 7.506 19.299L10.127 19.299L9.174 22.277C8.579 24.064 8.817 26.089 9.77 27.399C10.723 28.709 12.153 29.424 13.94 29.424C15.132 29.424 16.442 29.186 17.634 28.709C17.276 28.233 17.038 27.756 16.8 27.161C16.68 26.684 16.442 26.208 16.442 25.612C15.727 25.97 14.893 26.089 14.059 26.089C13.583 26.089 12.868 25.97 12.51 25.374C12.153 24.897 12.034 24.183 12.272 23.349L13.583 19.299L17.753 19.299L18.825 15.844L14.774 15.844L16.561 10.245L12.987 10.245L11.2 15.844L7.387 15.844C6.196 15.844 5.481 15.486 5.123 14.891C4.766 14.176 5.123 12.747 6.076 11.079L6.076 10.96C9.293 6.314 14.536 3.216 20.612 3.216C30.263 3.216 38.127 11.079 38.127 20.728C38.127 30.377 30.263 38.24 20.612 38.24C12.034 38.24 4.885 32.045 3.336 23.944L0 24.659C1.906 34.308 10.366 41.694 20.612 41.694C32.169 41.694 41.582 32.283 41.582 20.728C41.701 9.411 32.288 0 20.731 0Z" fill="rgb(255,255,255)" fill-opacity="1.000" fill-rule="nonzero" transform="matrix(1 0 0 1 9.416 9.3888)"/><path d="M15.575 10.721C14.741 10.721 13.669 10.602 12.954 10.126C12.716 9.887 12.359 9.649 12.239 9.054C12.239 8.815 12.239 8.458 12.359 8.101L14.98 0.119L11.405 0.119L9.142 7.028C8.546 8.815 6.64 10.245 4.971 10.245C4.495 10.245 3.899 10.126 3.661 9.649C3.423 9.292 3.184 8.815 3.542 7.981L6.163 0L2.589 0L0.325 6.909C-0.271 8.577 -0.033 10.364 0.921 11.674C1.874 12.866 3.184 13.58 4.971 13.58C6.64 13.58 8.427 12.866 9.856 11.674C10.333 12.389 10.929 12.866 11.763 13.223C12.954 13.58 13.669 13.58 14.503 13.58C14.861 13.58 15.337 13.461 15.456 13.461C15.575 13.342 15.575 13.223 15.695 13.104C15.814 12.866 15.933 12.627 16.052 12.389C16.171 12.151 16.29 11.913 16.409 11.674C16.529 11.436 16.648 11.198 16.767 10.96C16.886 10.841 16.886 10.602 17.005 10.483C16.648 10.721 16.171 10.721 15.575 10.721Z" fill="rgb(255,255,255)" fill-opacity="1.000" fill-rule="nonzero" transform="matrix(1 0 0 1 27.9181 25.3518)"/></svg>