<svg xmlns="http://www.w3.org/2000/svg" viewBox="0 0 130 60" width="130" height="60"><path d="M0 0L130 0L130 60L0 60L0 0Z" fill="rgb(255,255,255)" fill-opacity="1.000" fill-rule="nonzero" transform="matrix(1 0 0 1 0 0)"/><path d="M8.307 0.702C8.014 0.468 7.664 0.292 7.254 0.175C6.845 0.058 6.435 0 6.084 0C5.792 0 5.499 0.058 5.207 0.117C4.914 0.175 4.622 0.292 4.387 0.409C4.154 0.526 3.92 0.702 3.686 0.936C3.452 1.17 3.334 1.404 3.217 1.638C3.217 1.228 3.101 0.936 2.867 0.702C2.691 0.468 2.399 0.292 2.106 0.175C1.814 0.058 1.463 0 1.112 0C0.761 0 0.409 0.058 0 0.117L0 1.638C0.234 1.638 0.468 1.638 0.585 1.696C0.76 1.755 0.819 1.813 0.877 1.93C0.936 2.047 0.994 2.164 0.994 2.34C0.994 2.515 0.994 2.691 0.994 2.925L0.994 10.002L3.217 10.002L3.217 4.328C3.217 3.919 3.276 3.568 3.452 3.275C3.569 2.983 3.744 2.749 3.978 2.574C4.212 2.398 4.504 2.223 4.797 2.164C5.089 2.106 5.441 1.989 5.733 1.989C6.318 1.989 6.844 2.106 7.312 2.34L8.307 0.702Z" fill="rgb(0,166,202)" fill-opacity="1.000" fill-rule="nonzero" transform="matrix(1 0 0 1 15.477 34.4717)"/><path d="M10.062 8.423C9.887 8.364 9.828 8.247 9.77 8.13C9.711 8.013 9.652 7.838 9.652 7.662C9.652 7.487 9.652 7.311 9.652 7.077L9.652 0.877C9.009 0.585 8.366 0.351 7.664 0.234C7.02 0.058 6.318 0 5.616 0C4.797 0 4.095 0.117 3.393 0.351C2.75 0.585 2.165 0.936 1.638 1.404C1.112 1.872 0.761 2.398 0.468 3.1C0.176 3.743 0 4.504 0 5.323C0 6.025 0.058 6.668 0.292 7.253C0.468 7.838 0.761 8.364 1.112 8.832C1.463 9.3 1.931 9.651 2.516 9.885C3.101 10.119 3.744 10.236 4.446 10.236C5.148 10.236 5.85 10.06 6.494 9.651C7.137 9.3 7.605 8.774 7.839 8.072C7.839 8.598 7.898 9.008 8.073 9.3C8.249 9.592 8.424 9.826 8.717 9.943C9.009 10.119 9.301 10.177 9.652 10.177C10.003 10.177 10.355 10.177 10.706 10.06L10.706 8.423C10.413 8.481 10.179 8.481 10.062 8.423ZM7.488 5.03C7.488 5.966 7.254 6.668 6.786 7.253C6.377 7.838 5.733 8.13 4.914 8.13C3.978 8.13 3.335 7.838 2.867 7.311C2.399 6.785 2.223 6.083 2.223 5.147C2.223 4.621 2.34 4.153 2.516 3.685C2.691 3.275 2.867 2.866 3.159 2.574C3.452 2.281 3.744 2.047 4.154 1.872C4.505 1.696 4.973 1.638 5.441 1.638C5.733 1.638 6.084 1.638 6.435 1.696C6.786 1.755 7.137 1.872 7.488 1.989L7.488 5.03Z" fill="rgb(0,166,202)" fill-opacity="1.000" fill-rule="nonzero" transform="matrix(1 0 0 1 23.4915 34.5302)"/><path d="M9.419 1.228C9.126 0.877 8.716 0.585 8.19 0.351C7.722 0.117 7.137 0 6.435 0C6.084 0 5.791 0 5.44 0.058C5.089 0.117 4.797 0.234 4.504 0.351C4.212 0.468 3.919 0.643 3.685 0.877C3.451 1.111 3.217 1.345 3.1 1.696C3.1 1.228 2.983 0.877 2.808 0.643C2.632 0.409 2.399 0.234 2.106 0.117C1.814 0.058 1.462 0 1.111 0C0.76 0 0.351 0.058 0 0.117L0 1.638C0.234 1.638 0.468 1.638 0.585 1.696C0.76 1.755 0.819 1.813 0.877 1.93C0.936 2.047 0.994 2.164 0.994 2.34C0.994 2.515 0.994 2.749 0.994 3.042L0.994 10.002L3.217 10.002L3.217 4.445C3.217 4.036 3.276 3.685 3.393 3.392C3.51 3.042 3.685 2.808 3.919 2.574C4.153 2.34 4.387 2.164 4.68 2.047C4.972 1.93 5.323 1.872 5.674 1.872C6.318 1.872 6.903 2.106 7.312 2.515C7.78 2.925 7.956 3.568 7.956 4.328L7.956 10.06L10.179 10.06L10.179 4.328C10.179 3.743 10.12 3.158 9.945 2.632C10.003 2.047 9.77 1.638 9.419 1.228Z" fill="rgb(0,166,202)" fill-opacity="1.000" fill-rule="nonzero" transform="matrix(1 0 0 1 34.7235 34.4717)"/><path d="M7.605 4.972C7.254 4.738 6.786 4.621 6.318 4.504C5.85 4.387 5.323 4.328 4.797 4.27C4.036 4.153 3.451 4.036 3.042 3.919C2.632 3.743 2.457 3.509 2.457 3.1C2.457 2.866 2.515 2.691 2.632 2.515C2.749 2.34 2.866 2.223 3.1 2.106C3.276 1.989 3.51 1.872 3.744 1.813C3.978 1.755 4.27 1.696 4.504 1.696C4.738 1.696 5.031 1.696 5.265 1.755C5.557 1.813 5.791 1.872 5.967 1.989C6.201 2.106 6.318 2.223 6.493 2.398C6.61 2.574 6.727 2.749 6.727 2.983L8.658 2.983C8.658 2.515 8.599 2.047 8.365 1.696C8.131 1.345 7.839 1.053 7.488 0.76C7.078 0.526 6.669 0.292 6.142 0.175C5.616 0.059 5.089 0 4.504 0C3.978 0 3.451 0.059 2.925 0.175C2.398 0.292 1.989 0.468 1.579 0.76C1.17 0.994 0.877 1.345 0.643 1.696C0.409 2.047 0.292 2.515 0.292 3.042C0.292 3.626 0.468 4.036 0.702 4.387C0.994 4.738 1.287 4.972 1.696 5.147C2.106 5.323 2.574 5.44 3.1 5.557C3.627 5.615 4.095 5.732 4.621 5.791C5.265 5.849 5.791 6.025 6.201 6.2C6.61 6.375 6.786 6.668 6.786 7.136C6.786 7.428 6.727 7.662 6.552 7.896C6.376 8.072 6.201 8.247 6.025 8.364C5.791 8.481 5.557 8.54 5.265 8.598C4.972 8.657 4.738 8.657 4.446 8.657C4.153 8.657 3.919 8.598 3.627 8.598C3.393 8.54 3.159 8.423 2.925 8.306C2.691 8.189 2.574 8.013 2.398 7.838C2.281 7.662 2.164 7.428 2.164 7.194L0 7.194C0.058 7.779 0.175 8.306 0.468 8.715C0.76 9.125 1.053 9.417 1.521 9.651C1.93 9.885 2.398 10.06 2.925 10.177C3.451 10.294 3.978 10.353 4.504 10.353C5.031 10.353 5.557 10.294 6.084 10.177C6.61 10.06 7.078 9.885 7.429 9.592C7.78 9.3 8.131 9.008 8.365 8.657C8.599 8.247 8.716 7.779 8.716 7.253C8.716 6.668 8.599 6.2 8.365 5.849C8.248 5.44 7.956 5.206 7.605 4.972Z" fill="rgb(0,166,202)" fill-opacity="1.000" fill-rule="nonzero" transform="matrix(1 0 0 1 46.482 34.4132)"/><path d="M9.36 1.228C9.068 0.877 8.658 0.585 8.131 0.351C7.663 0.117 7.078 0 6.376 0C6.025 0 5.733 0 5.382 0.058C5.031 0.117 4.739 0.234 4.446 0.351C4.154 0.468 3.861 0.643 3.627 0.877C3.393 1.111 3.159 1.345 3.042 1.696C3.042 1.228 2.925 0.877 2.749 0.643C2.574 0.409 2.34 0.234 2.047 0.117C1.755 0.058 1.404 0 1.053 0C0.702 0 0.292 0.058 0 0.117L0 1.638C0.234 1.638 0.468 1.638 0.585 1.696C0.76 1.755 0.819 1.813 0.877 1.93C0.936 2.047 0.994 2.164 0.994 2.34C0.994 2.515 0.994 2.749 0.994 3.042L0.994 10.002L3.217 10.002L3.217 4.445C3.217 4.036 3.276 3.685 3.393 3.392C3.51 3.042 3.685 2.808 3.919 2.574C4.153 2.34 4.387 2.164 4.68 2.047C4.972 1.93 5.323 1.872 5.674 1.872C6.318 1.872 6.903 2.106 7.312 2.515C7.78 2.925 7.956 3.568 7.956 4.328L7.956 10.06L10.179 10.06L10.179 4.328C10.179 3.743 10.12 3.158 9.945 2.632C9.945 2.047 9.711 1.638 9.36 1.228Z" fill="rgb(0,166,202)" fill-opacity="1.000" fill-rule="nonzero" transform="matrix(1 0 0 1 69.531 34.4717)"/><path d="M1.345 0C0.994 0 0.702 0.117 0.41 0.351C0.117 0.585 0 0.877 0 1.345C0 1.813 0.176 2.106 0.41 2.34C0.702 2.574 0.994 2.691 1.345 2.632C1.696 2.632 1.989 2.515 2.223 2.281C2.515 2.047 2.632 1.755 2.632 1.287C2.632 0.819 2.515 0.526 2.223 0.292C1.989 0.058 1.696 0 1.345 0Z" fill="rgb(0,166,202)" fill-opacity="1.000" fill-rule="nonzero" transform="matrix(1 0 0 1 81.465 30.3774)"/><path d="M2.223 0L0 0L0 9.826L2.223 9.826L2.223 0Z" fill="rgb(0,166,202)" fill-opacity="1.000" fill-rule="nonzero" transform="matrix(1 0 0 1 81.699 34.7057)"/><path d="M8.834 1.228C8.366 0.819 7.781 0.526 7.137 0.292C6.494 0.058 5.85 0 5.148 0C4.505 0 3.861 0.117 3.276 0.292C2.691 0.526 2.106 0.819 1.638 1.228C1.17 1.638 0.761 2.164 0.468 2.808C0.176 3.451 0 4.153 0 5.03C0 5.908 0.176 6.668 0.468 7.253C0.761 7.896 1.17 8.423 1.638 8.891C2.106 9.3 2.691 9.651 3.276 9.826C3.92 10.06 4.505 10.119 5.207 10.119C5.85 10.119 6.494 10.002 7.137 9.826C7.781 9.651 8.307 9.3 8.775 8.891C9.243 8.481 9.652 7.955 9.945 7.253C10.237 6.609 10.413 5.849 10.413 5.03C10.413 4.153 10.237 3.451 9.945 2.808C9.711 2.164 9.302 1.638 8.834 1.228ZM7.956 6.434C7.781 6.843 7.546 7.136 7.312 7.428C7.078 7.721 6.728 7.896 6.377 8.013C6.026 8.13 5.675 8.247 5.324 8.247C4.973 8.247 4.563 8.189 4.212 8.072C3.861 7.955 3.51 7.721 3.276 7.487C2.984 7.194 2.75 6.902 2.574 6.492C2.399 6.083 2.34 5.615 2.34 5.089C2.34 4.562 2.399 4.153 2.574 3.743C2.75 3.334 2.925 3.042 3.217 2.808C3.51 2.574 3.803 2.34 4.154 2.223C4.505 2.106 4.856 2.047 5.207 1.989C5.558 1.989 5.967 2.047 6.318 2.164C6.669 2.281 7.02 2.457 7.312 2.749C7.605 2.983 7.839 3.334 8.015 3.743C8.19 4.153 8.307 4.621 8.307 5.147C8.249 5.557 8.132 6.025 7.956 6.434Z" fill="rgb(0,166,202)" fill-opacity="1.000" fill-rule="nonzero" transform="matrix(1 0 0 1 85.443 34.5302)"/><path d="M0 2.106L0 0L10.589 0L10.589 2.106L6.435 2.106L6.435 14.272L4.095 14.272L4.095 2.106L0 2.106Z" fill="rgb(0,166,202)" fill-opacity="1.000" fill-rule="nonzero" transform="matrix(1 0 0 1 6 30.2604)"/><path d="M0 9.475L0 0L2.34 0L2.34 9.417C2.34 11.289 3.744 12.342 5.558 12.342C7.371 12.342 8.716 11.289 8.716 9.417L8.716 0L11.056 0L11.056 9.475C11.056 12.634 8.541 14.447 5.558 14.447C2.516 14.447 0 12.634 0 9.475Z" fill="rgb(0,166,202)" fill-opacity="1.000" fill-rule="nonzero" transform="matrix(1 0 0 1 57.012 30.2604)"/><path d="M10.296 7.779L10.296 6.2L10.296 4.27C10.296 3.685 10.238 3.1 10.062 2.574C9.887 2.047 9.652 1.638 9.36 1.228C9.068 0.877 8.658 0.585 8.131 0.351C7.663 0.117 7.078 0 6.376 0C6.025 0 5.733 0 5.382 0.058C5.031 0.117 4.739 0.234 4.446 0.351C4.154 0.468 3.861 0.643 3.627 0.877C3.393 1.111 3.159 1.345 3.042 1.696C3.042 1.228 2.925 0.877 2.75 0.643C2.574 0.409 2.34 0.234 2.047 0.117C1.755 0.058 1.404 0 1.053 0C0.702 0 0.292 0.058 0 0.117L0 1.638C0.234 1.638 0.468 1.638 0.585 1.696C0.76 1.755 0.819 1.813 0.877 1.93C0.936 2.047 0.995 2.164 0.995 2.34C0.995 2.515 0.995 2.749 0.995 3.042L0.995 10.002L3.217 10.002L3.217 4.445C3.217 4.036 3.276 3.685 3.393 3.392C3.51 3.042 3.686 2.808 3.92 2.574C4.154 2.34 4.387 2.164 4.68 2.047C4.972 1.93 5.324 1.872 5.675 1.872C6.318 1.872 6.903 2.106 7.312 2.515C7.78 2.925 7.956 3.568 7.956 4.328L7.956 7.662L7.956 7.896C7.956 10.294 9.418 10.528 11.349 10.177L11.349 8.774C10.471 8.832 10.296 8.54 10.296 7.779Z" fill="rgb(0,166,202)" fill-opacity="1.000" fill-rule="nonzero" transform="matrix(1 0 0 1 96.6165 34.4132)"/><path d="M10.179 0C6.376 0 3.042 2.047 1.287 5.147C0.644 6.375 0.526 7.428 1.053 8.306C1.638 9.358 2.983 9.475 3.685 9.475L4.972 9.475L4.505 10.938C4.212 11.815 4.329 12.809 4.797 13.453C5.265 14.096 5.967 14.447 6.845 14.447C7.43 14.447 8.073 14.33 8.658 14.096C8.482 13.862 8.366 13.628 8.249 13.336C8.19 13.102 8.073 12.868 8.073 12.575C7.722 12.751 7.312 12.809 6.903 12.809C6.669 12.809 6.318 12.751 6.142 12.459C5.967 12.225 5.908 11.874 6.025 11.464L6.669 9.475L8.716 9.475L9.243 7.779L7.254 7.779L8.131 5.03L6.376 5.03L5.499 7.779L3.627 7.779C3.042 7.779 2.691 7.604 2.515 7.311C2.34 6.96 2.516 6.259 2.984 5.44L2.984 5.381C4.563 3.1 7.137 1.579 10.12 1.579C14.859 1.579 18.72 5.44 18.72 10.177C18.72 14.915 14.859 18.775 10.12 18.775C5.908 18.775 2.398 15.734 1.638 11.757L0 12.108C0.936 16.845 5.089 20.472 10.12 20.472C15.795 20.472 20.416 15.851 20.416 10.177C20.475 4.621 15.853 0 10.179 0Z" fill="rgb(0,166,202)" fill-opacity="1.000" fill-rule="nonzero" transform="matrix(1 0 0 1 102.525 14.234)"/><path d="M7.647 5.264C7.238 5.264 6.711 5.206 6.36 4.972C6.243 4.855 6.068 4.738 6.009 4.445C6.009 4.328 6.009 4.153 6.068 3.977L7.355 0.058L5.6 0.058L4.488 3.451C4.196 4.328 3.26 5.03 2.441 5.03C2.207 5.03 1.914 4.972 1.797 4.738C1.68 4.562 1.563 4.328 1.739 3.919L3.026 0L1.271 0L0.159 3.392C-0.133 4.211 -0.016 5.089 0.452 5.732C0.92 6.317 1.563 6.668 2.441 6.668C3.26 6.668 4.137 6.317 4.839 5.732C5.073 6.083 5.366 6.317 5.775 6.492C6.36 6.668 6.711 6.668 7.121 6.668C7.296 6.668 7.53 6.609 7.589 6.609C7.647 6.551 7.647 6.492 7.706 6.434C7.764 6.317 7.823 6.2 7.881 6.083C7.94 5.966 7.998 5.849 8.057 5.732C8.115 5.615 8.174 5.498 8.232 5.381C8.291 5.323 8.291 5.206 8.349 5.147C8.174 5.264 7.94 5.264 7.647 5.264Z" fill="rgb(0,166,202)" fill-opacity="1.000" fill-rule="nonzero" transform="matrix(1 0 0 1 111.6085 22.0717)"/><path d="M0 1.316C0 -0.439 2.632 -0.439 2.632 1.316C2.632 3.071 0 3.071 0 1.316ZM2.399 1.316C2.399 -0.205 0.234 -0.205 0.234 1.316C0.234 2.837 2.399 2.837 2.399 1.316ZM1.872 1.901L1.638 1.959L1.287 1.492L0.995 1.492L0.995 1.959L0.819 1.959L0.819 0.673L1.346 0.673C1.58 0.673 1.814 0.848 1.814 1.082C1.814 1.258 1.697 1.433 1.521 1.433L1.872 1.901ZM1.053 1.316L1.346 1.316C1.521 1.316 1.638 1.199 1.638 1.082C1.638 0.907 1.521 0.848 1.346 0.848L1.053 0.848L1.053 1.316Z" fill="rgb(0,166,202)" fill-opacity="1.000" fill-rule="nonzero" transform="matrix(1 0 0 1 109.194 42.0462)"/></svg>