<svg xmlns="http://www.w3.org/2000/svg" viewBox="0 0 60 60" width="60" height="60"><path d="M0 0L60 0L60 60L0 60L0 0Z" fill="rgb(255,255,255)" fill-opacity="1.000" fill-rule="nonzero" transform="matrix(1 0 0 1 0 0)"/><path d="M4.278 1.412L4.278 9.107L2.712 9.107L2.712 1.412L0 1.412L0 0.037L6.99 0.037L6.99 1.412L4.278 1.412ZM19.264 9.107L17.749 9.107L15.19 2.723L16.807 2.723L18.525 7.408L20.244 2.723L21.81 2.723L19.264 9.107ZM28.8 0L30.303 0L30.303 9.119L28.8 9.119L28.8 0ZM42.424 9.107L40.807 6.808L39.164 9.107L37.458 9.107L39.941 5.871L37.547 2.723L39.317 2.723L40.858 4.897L42.411 2.723L44.13 2.723L41.724 5.859L44.206 9.107L42.424 9.107Z" fill="rgb(34,39,69)" fill-opacity="1.000" fill-rule="nonzero" transform="matrix(1 0 0 1 8 25)"/><path d="M2.865 0.081C2.254 0.131 1.706 0.281 1.311 0.693L1.311 0.118L0 0.118L0 6.502L1.502 6.502L1.502 3.728C1.502 3.229 1.477 2.529 1.655 2.067C1.808 1.655 2.037 1.33 3.234 1.23L3.387 0.043C3.374 0.043 3.221 0.043 2.865 0.081ZM5.717 5.377C4.685 5.377 4.456 5.077 4.456 4.528C4.456 3.853 4.749 3.691 5.666 3.691L7.41 3.691C7.41 4.803 7.257 5.377 5.717 5.377ZM6.086 0.006C5.36 -0.019 4.647 0.043 4.316 0.093L4.176 1.217C5.067 1.167 5.946 1.205 6.01 1.205C7.308 1.255 7.334 1.705 7.385 2.492L5.717 2.492C4.329 2.492 2.941 2.704 2.941 4.553C2.941 6.114 3.922 6.589 5.475 6.589C6.404 6.589 7.092 6.314 7.499 5.964L7.499 6.489L8.849 6.489L8.849 2.329C8.849 0.68 7.818 0.068 6.086 0.006ZM18.844 1.217C20.244 1.217 20.321 1.742 20.321 2.654L17.392 2.654C17.392 1.817 17.532 1.217 18.844 1.217ZM18.831 5.402C17.812 5.365 17.481 5.015 17.392 4.378C17.392 4.353 17.38 4.315 17.38 4.29L17.38 4.24C17.367 4.128 17.367 4.003 17.367 3.866L21.823 3.866C21.823 1.642 21.696 0.006 18.857 0.006C16.246 0.006 15.864 1.467 15.864 3.379C15.864 4.166 15.941 4.865 16.221 5.402C16.616 6.227 17.494 6.589 18.755 6.589L18.895 6.589C19.811 6.589 20.83 6.527 21.352 6.464L21.518 5.277C20.626 5.34 19.85 5.44 18.831 5.402ZM28.151 1.217C29.552 1.217 29.628 1.742 29.628 2.654L26.7 2.654C26.7 1.817 26.84 1.217 28.151 1.217ZM28.151 5.402C27.132 5.365 26.801 5.015 26.712 4.378C26.712 4.353 26.7 4.315 26.7 4.29L26.7 4.24C26.687 4.128 26.687 4.003 26.687 3.866L31.143 3.866C31.143 1.642 31.016 0.006 28.177 0.006C25.566 0.006 25.184 1.467 25.184 3.379C25.184 4.166 25.261 4.865 25.541 5.402C25.936 6.227 26.814 6.589 28.075 6.589L28.215 6.589C29.131 6.589 30.15 6.527 30.672 6.464L30.838 5.277C29.934 5.34 29.157 5.44 28.151 5.402Z" fill="rgb(34,39,69)" fill-opacity="1.000" fill-rule="nonzero" transform="matrix(1 0 0 1 14.0473 27.6176)"/></svg>