<svg xmlns="http://www.w3.org/2000/svg" viewBox="0 0 130 60" width="130" height="60"><path d="M0 0L130 0L130 60L0 60L0 0Z" fill="rgb(255,255,255)" fill-opacity="1.000" fill-rule="nonzero" transform="matrix(1 0 0 1 0 0)"/><path d="M106.673 31L2.447 31C1.099 31 0 29.922 0 28.599L0 2.388C0 1.078 1.099 0 2.447 0L106.673 0C108.021 0 109.12 1.078 109.12 2.401L109.12 28.612C109.108 29.922 108.021 31 106.673 31Z" fill="rgb(255,255,255)" fill-opacity="1.000" fill-rule="nonzero" transform="matrix(1 0 0 1 10 14)"/><path d="M75.015 28.097L0.986 28.097C0.437 28.097 0 27.656 0 27.13L0 0.968C0 0.429 0.449 0 0.986 0L75.015 0C75.564 0 76.001 0.441 76.001 0.968L76.001 27.117C76.001 27.656 75.551 28.097 75.015 28.097Z" fill="rgb(34,39,69)" fill-opacity="1.000" fill-rule="nonzero" transform="matrix(1 0 0 1 11.4856 15.4575)"/><path d="M27.639 28.097L0.986 28.097C0.437 28.097 0 27.656 0 27.13L0 0.968C0 0.429 0.449 0 0.986 0L27.639 0C28.188 0 28.625 0.441 28.625 0.968L28.625 27.117C28.625 27.656 28.188 28.097 27.639 28.097Z" fill="rgb(218,41,47)" fill-opacity="1.000" fill-rule="nonzero" transform="matrix(1 0 0 1 89.0093 15.4575)"/><path d="M4.195 1.384L4.195 8.929L2.659 8.929L2.659 1.384L0 1.384L0 0.037L6.854 0.037L6.854 1.384L4.195 1.384ZM18.888 8.929L17.402 8.929L14.893 2.67L16.478 2.67L18.164 7.263L19.849 2.67L21.385 2.67L18.888 8.929ZM28.238 0L29.711 0L29.711 8.941L28.238 8.941L28.238 0ZM41.596 8.929L40.01 6.675L38.4 8.929L36.727 8.929L39.161 5.757L36.814 2.67L38.55 2.67L40.06 4.801L41.583 2.67L43.268 2.67L40.909 5.744L43.343 8.929L41.596 8.929Z" fill="rgb(255,255,255)" fill-opacity="1.000" fill-rule="nonzero" transform="matrix(1 0 0 1 40.1729 30.6819)"/><path d="M2.809 0.919C2.21 0.968 1.673 1.115 1.286 1.519L1.286 0.955L0 0.955L0 7.214L1.473 7.214L1.473 4.495C1.473 4.005 1.448 3.319 1.623 2.866C1.773 2.462 1.997 2.143 3.171 2.045L3.321 0.882C3.308 0.882 3.158 0.882 2.809 0.919ZM5.605 6.112C4.594 6.112 4.369 5.818 4.369 5.279C4.369 4.618 4.656 4.458 5.555 4.458L7.266 4.458C7.266 5.548 7.116 6.112 5.605 6.112ZM5.967 0.845C5.256 0.821 4.557 0.882 4.232 0.931L4.095 2.033C4.969 1.984 5.83 2.021 5.892 2.021C7.166 2.07 7.191 2.511 7.241 3.283L5.605 3.283C4.244 3.283 2.884 3.491 2.884 5.303C2.884 6.834 3.845 7.3 5.368 7.3C6.279 7.3 6.953 7.03 7.353 6.687L7.353 7.202L8.676 7.202L8.676 3.123C8.676 1.507 7.665 0.906 5.967 0.845ZM18.476 2.033C19.849 2.033 19.924 2.548 19.924 3.442L17.053 3.442C17.053 2.621 17.19 2.033 18.476 2.033ZM18.463 6.136C17.465 6.1 17.14 5.757 17.053 5.132C17.053 5.107 17.04 5.071 17.04 5.046L17.04 4.997C17.028 4.887 17.028 4.765 17.028 4.63L21.397 4.63C21.397 2.45 21.272 0.845 18.488 0.845C15.929 0.845 15.555 2.278 15.555 4.152C15.555 4.924 15.63 5.61 15.904 6.136C16.291 6.945 17.153 7.3 18.389 7.3L18.526 7.3C19.425 7.3 20.423 7.239 20.935 7.177L21.098 6.014C20.224 6.075 19.462 6.173 18.463 6.136ZM27.602 2.033C28.975 2.033 29.05 2.548 29.05 3.442L26.178 3.442C26.178 2.621 26.316 2.033 27.602 2.033ZM27.601 6.136C26.603 6.1 26.278 5.757 26.191 5.132C26.191 5.107 26.178 5.071 26.178 5.046L26.178 4.997C26.166 4.887 26.166 4.765 26.166 4.63L30.535 4.63C30.535 2.45 30.41 0.845 27.626 0.845C25.067 0.845 24.693 2.278 24.693 4.152C24.693 4.924 24.768 5.61 25.042 6.136C25.429 6.945 26.291 7.3 27.527 7.3L27.664 7.3C28.563 7.3 29.561 7.239 30.073 7.177L30.236 6.014C29.349 6.075 28.588 6.173 27.601 6.136ZM53.73 0.968C53.505 0.992 53.318 1.041 53.181 1.188L53.181 0.98L52.719 0.98L52.719 3.258L53.255 3.258L53.255 2.266C53.255 2.094 53.243 1.837 53.305 1.678C53.355 1.531 53.443 1.409 53.867 1.384L53.917 0.955C53.905 0.955 53.855 0.955 53.73 0.968ZM66.463 1.384C66.963 1.384 66.988 1.568 66.988 1.898L65.951 1.898C65.951 1.592 65.989 1.384 66.463 1.384ZM66.463 2.866C66.101 2.854 65.976 2.731 65.951 2.499L65.951 2.315L67.537 2.315C67.537 1.519 67.487 0.943 66.476 0.943C65.552 0.943 65.415 1.458 65.415 2.143C65.415 2.425 65.44 2.67 65.539 2.866C65.677 3.16 65.989 3.282 66.438 3.295L66.476 3.295C66.8 3.295 67.162 3.27 67.35 3.246L67.412 2.829C67.1 2.842 66.813 2.878 66.463 2.866ZM56.838 5.328C57.338 5.328 57.363 5.512 57.363 5.842L56.326 5.842C56.326 5.536 56.364 5.328 56.838 5.328ZM56.838 6.81C56.476 6.798 56.351 6.675 56.326 6.443L56.326 6.259L57.912 6.259C57.912 5.463 57.862 4.887 56.851 4.887C55.927 4.887 55.79 5.401 55.79 6.087C55.79 6.369 55.815 6.614 55.914 6.81C56.052 7.104 56.364 7.226 56.813 7.239L56.851 7.239C57.175 7.239 57.537 7.214 57.725 7.19L57.787 6.773C57.475 6.798 57.188 6.822 56.838 6.81ZM49.173 3.258L48.636 3.258L48.162 1.482L47.675 3.258L47.113 3.258L46.489 0.98L47.014 0.98L47.426 2.682L47.887 0.98L48.412 0.98L48.886 2.682L49.286 0.98L49.81 0.98L49.173 3.258ZM51.158 1.409C50.634 1.409 50.596 1.605 50.596 2.119C50.596 2.633 50.646 2.829 51.158 2.829C51.683 2.829 51.72 2.633 51.72 2.119C51.72 1.605 51.67 1.409 51.158 1.409ZM52.007 3.038C51.807 3.234 51.52 3.295 51.146 3.295C50.771 3.295 50.484 3.234 50.284 3.038C50.085 2.842 50.035 2.548 50.035 2.119C50.035 1.69 50.072 1.396 50.284 1.2C50.484 1.004 50.759 0.943 51.146 0.943C51.52 0.943 51.807 1.004 52.007 1.2C52.207 1.396 52.257 1.69 52.257 2.119C52.257 2.548 52.219 2.842 52.007 3.038ZM54.367 0L54.903 0L54.903 3.246L54.367 3.246L54.367 0ZM56.401 1.433C56.002 1.433 55.914 1.592 55.914 2.131C55.914 2.658 56.002 2.829 56.401 2.829C56.863 2.829 57.001 2.707 57.001 2.131C56.988 1.556 56.851 1.433 56.401 1.433ZM57.038 3.258L57.038 3.074C56.901 3.197 56.639 3.295 56.339 3.295C55.415 3.295 55.378 2.682 55.378 2.119C55.378 1.433 55.515 0.943 56.277 0.943C56.526 0.943 56.801 0.968 56.976 1.151L56.976 0.012L57.512 0.012L57.512 3.258L57.038 3.258ZM60.633 3.258L60.097 3.258L59.622 1.482L59.135 3.258L58.574 3.258L57.949 0.98L58.474 0.98L58.873 2.682L59.347 0.98L59.872 0.98L60.334 2.682L60.746 0.98L61.258 0.98L60.633 3.258ZM61.732 0.98L62.269 0.98L62.269 3.258L61.732 3.258L61.732 0.98ZM63.829 1.433C63.43 1.433 63.342 1.592 63.342 2.131C63.342 2.658 63.43 2.829 63.829 2.829C64.291 2.829 64.428 2.707 64.428 2.131C64.416 1.556 64.279 1.433 63.829 1.433ZM64.466 3.258L64.466 3.074C64.328 3.197 64.066 3.295 63.767 3.295C62.843 3.295 62.805 2.682 62.805 2.119C62.805 1.433 62.943 0.943 63.704 0.943C63.954 0.943 64.229 0.968 64.403 1.151L64.403 0.012L64.94 0.012L64.94 3.258L64.466 3.258ZM49.598 7.202L49.598 5.83C49.598 5.548 49.623 5.352 49.236 5.352C48.711 5.352 48.774 5.818 48.774 6.149L48.774 7.202L48.237 7.202L48.237 5.83C48.237 5.548 48.249 5.352 47.875 5.352C47.351 5.352 47.413 5.818 47.413 6.161L47.413 7.202L46.876 7.202L46.876 4.924L47.338 4.924L47.338 5.12C47.476 4.985 47.675 4.887 47.975 4.887C48.237 4.887 48.449 4.973 48.587 5.12C48.761 4.96 48.961 4.887 49.286 4.887C49.648 4.887 49.947 5.009 50.06 5.279C50.135 5.45 50.122 5.646 50.122 5.83L50.122 7.19L49.598 7.19L49.598 7.202ZM51.695 5.352C51.171 5.352 51.133 5.548 51.133 6.063C51.133 6.577 51.183 6.773 51.695 6.773C52.219 6.773 52.257 6.577 52.257 6.063C52.257 5.548 52.207 5.352 51.695 5.352ZM52.544 6.981C52.344 7.177 52.057 7.239 51.683 7.239C51.308 7.239 51.021 7.177 50.821 6.981C50.621 6.785 50.571 6.492 50.571 6.063C50.571 5.634 50.609 5.34 50.821 5.144C51.021 4.948 51.296 4.887 51.683 4.887C52.057 4.887 52.344 4.948 52.544 5.144C52.744 5.34 52.794 5.634 52.794 6.063C52.794 6.504 52.744 6.798 52.544 6.981ZM54.778 7.202L54.778 6.002C54.778 5.561 54.816 5.352 54.354 5.352C53.78 5.352 53.817 5.744 53.817 6.136L53.817 7.19L53.28 7.19L53.28 4.911L53.742 4.911L53.742 5.095C53.88 4.985 54.079 4.875 54.416 4.875C55.353 4.875 55.315 5.45 55.315 5.953L55.315 7.19L54.778 7.19L54.778 7.202ZM59.16 8.096L58.598 8.096L58.998 7.153L58.112 4.924L58.686 4.924L59.273 6.565L59.847 4.924L60.421 4.924L59.16 8.096ZM61.732 0.135L62.269 0.135L62.269 0.661L61.732 0.661L61.732 0.135Z" fill="rgb(255,255,255)" fill-opacity="1.000" fill-rule="nonzero" transform="matrix(1 0 0 1 46.1025 32.4089)"/></svg>