<svg xmlns="http://www.w3.org/2000/svg" viewBox="0 0 130 60" width="130" height="60"><defs><linearGradient id="g99" gradientUnits="userSpaceOnUse" x1="-1.12" y1="70.76" x2="177.92" y2="-11.87"><stop offset="0.0%" stop-color="rgb(140,209,51)" stop-opacity="1.000"/><stop offset="100.0%" stop-color="rgb(5,189,251)" stop-opacity="1.000"/></linearGradient></defs><path d="M0 0L130 0L130 60L0 60L0 0Z" fill="rgb(255,255,255)" fill-opacity="1.000" fill-rule="nonzero" transform="matrix(1 0 0 1 0 0)"/><path d="M4.047 0L4.047 6.8C4.047 7.866 4.624 8.43 5.717 8.43C6.284 8.43 7.006 8.318 7.762 8.112L8.219 11.144C7.269 11.517 5.601 11.766 4.591 11.766C1.501 11.766 0 10.325 0 7.361L0 0L4.047 0Z" fill="rgb(5,67,117)" fill-opacity="1.000" fill-rule="nonzero" transform="matrix(1 0 0 1 11 25.9894)"/><path d="M8.179 0C6.677 0.456 4.705 1.62 3.851 2.189L3.69 2.295L3.396 0.315L0 0.315L0 17.159L4.047 17.159L4.047 6.196L4.104 6.16C5.572 5.228 6.898 4.45 8.575 3.697L8.179 0Z" fill="rgb(5,67,117)" fill-opacity="1.000" fill-rule="nonzero" transform="matrix(1 0 0 1 22.5305 20.2458)"/><path d="M0 0.565L0 5.149L4.046 5.149L4.046 0L0 0.565Z" fill="rgb(5,67,117)" fill-opacity="1.000" fill-rule="nonzero" transform="matrix(1 0 0 1 33.7814 14.0199)"/><path d="M4.046 0L0 0L0 16.844L4.046 16.844L4.046 0Z" fill="rgb(5,67,117)" fill-opacity="1.000" fill-rule="nonzero" transform="matrix(1 0 0 1 33.7814 20.5611)"/><path d="M14.281 12.948C14.281 9.087 12.63 7.21 9.233 7.21C7.322 7.21 5.388 7.73 4.215 8.218L4.046 8.289L4.046 0L0 0.562L0 24.18C2.077 24.577 4.762 24.755 6.525 24.755C12.984 24.755 14.281 22.157 14.281 17.964L14.281 12.948ZM10.234 18.106C10.234 20.109 9.649 21.351 6.736 21.351C5.697 21.351 4.852 21.305 4.151 21.209L4.046 21.194L4.046 11.642L4.117 11.609C5.149 11.129 6.694 10.615 7.932 10.615C9.503 10.615 10.235 11.322 10.235 12.842L10.234 18.106Z" fill="rgb(5,67,117)" fill-opacity="1.000" fill-rule="nonzero" transform="matrix(1 0 0 1 40.8617 13)"/><path d="M10.13 5.386L10.13 17.195L14.176 17.195L14.176 4.931C14.176 1.613 12.951 0 10.43 0C8.496 0 5.825 0.697 3.625 1.777L3.494 1.841L3.057 0.351L0 0.351L0 17.195L4.047 17.195L4.047 5.383L4.113 5.349C5.752 4.494 7.613 3.897 8.636 3.897C9.655 3.897 10.13 4.37 10.13 5.386Z" fill="rgb(5,67,117)" fill-opacity="1.000" fill-rule="nonzero" transform="matrix(1 0 0 1 74.6602 20.2098)"/><path d="M7.371 14.105C4.886 14.105 4.048 13.356 4.048 11.141L4.048 6.404C4.048 4.187 4.886 3.441 7.371 3.441C8.105 3.441 9.603 3.555 10.822 3.866L11.315 0.593C10.028 0.184 8.366 0 7.265 0C2.037 0 0 1.805 0 6.439L0 11.106C0 15.74 2.037 17.545 7.265 17.545C8.636 17.545 10.211 17.315 11.315 16.953L10.822 13.677C9.687 13.957 8.497 14.105 7.371 14.105Z" fill="rgb(5,67,117)" fill-opacity="1.000" fill-rule="nonzero" transform="matrix(1 0 0 1 91.8946 20.2107)"/><path d="M7.334 17.546C12.201 17.546 14.668 15.321 14.668 10.931L14.668 6.616C14.668 2.226 12.201 0 7.334 0C2.467 0 0 2.226 0 6.616L0 10.931C-0.001 15.32 2.467 17.546 7.334 17.546ZM4.046 6.475C4.046 4.381 5.091 3.406 7.334 3.406C9.577 3.406 10.622 4.381 10.622 6.475L10.622 11.071C10.622 13.165 9.577 14.14 7.334 14.14C5.092 14.14 4.046 13.164 4.046 11.071L4.046 6.475Z" fill="rgb(5,67,117)" fill-opacity="1.000" fill-rule="nonzero" transform="matrix(1 0 0 1 105.332 20.2098)"/><path d="M6.593 0C4.721 0 2.434 0.308 0.857 0.771L1.347 3.803C2.943 3.479 4.588 3.3 5.995 3.3C8.659 3.3 9.388 3.738 9.388 5.844L9.388 6.701C7.46 6.731 4.705 7.054 2.605 8.057C0.936 8.854 0 10.146 0 12.581C0 14.435 0.564 17.546 4.345 17.546C6.131 17.546 8.197 17.018 9.657 16.057L9.798 15.965L10.134 17.196L13.436 17.196L13.436 6.054C13.435 1.585 11.645 0 6.593 0ZM9.388 13.458L9.326 13.494C8.735 13.827 7.24 14.386 5.752 14.386C4.424 14.386 3.906 13.87 3.906 12.545C3.906 11.596 4.156 10.92 4.723 10.611C5.88 9.984 7.203 9.482 7.894 9.482C8.914 9.482 9.387 10.512 9.387 11.528L9.388 13.458Z" fill="rgb(5,67,117)" fill-opacity="1.000" fill-rule="nonzero" transform="matrix(1 0 0 1 57.8474 20.2098)"/><path d="M0 0.563L0 8.861L8.883 8.861L8.319 4.824L4.047 4.824L4.047 0L0 0.563Z" fill="rgb(0,0,0)" fill-opacity="1.000" fill-rule="nonzero" transform="matrix(1 0 0 1 11 15.7365)"/><path d="M0 8.861L8.882 0L17.764 8.861L8.882 17.723L0 8.861Z" fill="url(#g99)" fill-rule="nonzero" transform="matrix(1 0 0 1 6.5593 11.3067)"/><path d="M77.529 5.765C77.611 5.683 77.651 5.586 77.651 5.472C77.651 5.358 77.611 5.26 77.529 5.178C77.447 5.097 77.349 5.056 77.235 5.056C77.121 5.056 77.022 5.097 76.941 5.178C76.86 5.26 76.819 5.358 76.819 5.472C76.819 5.586 76.859 5.683 76.941 5.765C77.023 5.847 77.121 5.888 77.235 5.888C77.349 5.888 77.447 5.847 77.529 5.765ZM73.003 4.092C73.195 3.948 73.456 3.876 73.782 3.876C74.021 3.876 74.236 3.901 74.426 3.953C74.617 4.006 74.797 4.088 74.965 4.202L74.965 4.967C74.802 5.129 74.619 5.249 74.418 5.325C74.216 5.401 73.993 5.44 73.749 5.44C73.444 5.44 73.195 5.367 73.002 5.224C72.808 5.08 72.712 4.894 72.712 4.666C72.712 4.427 72.81 4.236 73.003 4.092ZM74.358 5.794C74.578 5.715 74.781 5.597 74.966 5.44L74.966 5.838L75.553 5.838L75.553 3.094C75.553 2.639 75.412 2.289 75.132 2.044C74.852 1.801 74.453 1.677 73.936 1.677C73.686 1.677 73.436 1.711 73.185 1.775C72.934 1.84 72.663 1.944 72.369 2.084L72.598 2.548C72.843 2.424 73.067 2.333 73.271 2.276C73.475 2.22 73.679 2.19 73.879 2.19C74.233 2.19 74.502 2.273 74.687 2.439C74.873 2.604 74.965 2.85 74.965 3.175L74.965 3.713C74.605 3.528 74.205 3.436 73.765 3.436C73.264 3.436 72.867 3.547 72.573 3.77C72.279 3.993 72.132 4.296 72.132 4.682C72.132 4.926 72.196 5.141 72.324 5.325C72.452 5.51 72.629 5.654 72.855 5.757C73.081 5.86 73.343 5.912 73.643 5.912C73.9 5.912 74.137 5.872 74.358 5.794ZM71.191 5.895C71.319 5.878 71.434 5.852 71.537 5.814L71.537 5.285C71.434 5.322 71.337 5.35 71.248 5.367C71.158 5.383 71.056 5.39 70.942 5.39C70.719 5.39 70.558 5.343 70.461 5.248C70.363 5.153 70.314 4.996 70.314 4.779L70.314 2.272L71.547 2.272L71.547 1.758L70.314 1.758L70.314 0.57L69.718 0.725L69.718 1.758L68.837 1.758L68.837 2.272L69.718 2.272L69.718 4.934C69.718 5.255 69.813 5.499 70.003 5.667C70.194 5.835 70.466 5.919 70.82 5.919C70.939 5.92 71.063 5.912 71.191 5.895ZM67.641 5.757C67.889 5.648 68.086 5.499 68.232 5.31C68.379 5.12 68.453 4.908 68.453 4.674C68.453 4.354 68.351 4.101 68.147 3.917C67.943 3.733 67.637 3.613 67.229 3.559L66.519 3.461C66.252 3.423 66.059 3.356 65.939 3.262C65.82 3.167 65.76 3.028 65.76 2.843C65.76 2.642 65.847 2.479 66.021 2.354C66.195 2.23 66.424 2.167 66.706 2.167C66.929 2.167 67.149 2.204 67.364 2.277C67.578 2.35 67.8 2.466 68.028 2.622L68.347 2.215C68.097 2.031 67.841 1.895 67.58 1.808C67.318 1.721 67.038 1.677 66.739 1.677C66.44 1.677 66.175 1.73 65.943 1.833C65.712 1.936 65.531 2.077 65.401 2.256C65.27 2.435 65.205 2.639 65.205 2.867C65.205 3.182 65.304 3.431 65.503 3.616C65.701 3.801 66.005 3.923 66.413 3.983L67.123 4.08C67.384 4.118 67.576 4.187 67.698 4.288C67.821 4.388 67.882 4.528 67.882 4.707C67.882 4.925 67.778 5.101 67.572 5.236C67.365 5.372 67.098 5.44 66.772 5.44C66.532 5.44 66.298 5.392 66.071 5.297C65.842 5.202 65.633 5.068 65.442 4.894L65.075 5.285C65.292 5.485 65.549 5.642 65.846 5.753C66.143 5.864 66.46 5.919 66.797 5.919C67.111 5.92 67.393 5.866 67.641 5.757ZM64.286 0.856C64.364 0.774 64.405 0.679 64.405 0.57C64.405 0.456 64.364 0.36 64.286 0.281C64.207 0.203 64.11 0.163 63.997 0.163C63.888 0.163 63.793 0.203 63.712 0.281C63.63 0.36 63.589 0.453 63.589 0.562C63.589 0.676 63.63 0.774 63.712 0.856C63.793 0.937 63.888 0.977 63.997 0.977C64.11 0.977 64.207 0.937 64.286 0.856ZM64.299 1.759L63.694 1.759L63.694 5.838L64.299 5.838L64.299 1.759ZM62.229 7.316C62.411 7.139 62.502 6.886 62.502 6.554L62.502 1.758L61.898 1.758L61.898 6.505C61.898 6.7 61.859 6.842 61.779 6.929C61.701 7.016 61.566 7.058 61.376 7.058C61.261 7.058 61.161 7.047 61.073 7.026L61.073 7.531C61.117 7.542 61.172 7.552 61.236 7.563C61.301 7.574 61.372 7.58 61.449 7.58C61.787 7.581 62.047 7.493 62.229 7.316ZM62.49 0.856C62.569 0.774 62.609 0.679 62.609 0.57C62.609 0.456 62.57 0.36 62.49 0.281C62.411 0.203 62.314 0.163 62.201 0.163C62.092 0.163 61.997 0.203 61.915 0.281C61.833 0.36 61.792 0.456 61.792 0.57C61.792 0.679 61.833 0.774 61.915 0.856C61.997 0.937 62.092 0.977 62.201 0.977C62.315 0.977 62.412 0.937 62.49 0.856ZM57.81 2.838C57.94 2.645 58.103 2.495 58.3 2.387C58.495 2.278 58.71 2.224 58.945 2.224C59.174 2.224 59.383 2.279 59.573 2.39C59.763 2.502 59.923 2.654 60.051 2.846C60.179 3.039 60.259 3.257 60.292 3.502L57.557 3.502C57.595 3.252 57.679 3.031 57.81 2.838ZM59.862 5.785C60.11 5.701 60.348 5.575 60.576 5.407L60.201 5.008C60.065 5.127 59.897 5.219 59.695 5.285C59.494 5.35 59.287 5.382 59.075 5.382C58.807 5.382 58.563 5.321 58.34 5.199C58.117 5.076 57.936 4.909 57.797 4.698C57.658 4.486 57.572 4.248 57.54 3.981L60.894 3.981L60.894 3.795C60.894 3.404 60.809 3.051 60.637 2.733C60.466 2.416 60.234 2.163 59.943 1.975C59.652 1.788 59.324 1.694 58.96 1.694C58.585 1.694 58.245 1.788 57.94 1.975C57.636 2.163 57.393 2.416 57.214 2.733C57.034 3.051 56.944 3.404 56.944 3.795C56.944 4.192 57.038 4.55 57.226 4.87C57.414 5.19 57.666 5.444 57.985 5.632C58.303 5.82 58.658 5.912 59.05 5.912C59.344 5.912 59.615 5.87 59.862 5.785ZM55.035 5.838L55.035 3.046C55.144 2.775 55.292 2.567 55.48 2.424C55.667 2.28 55.886 2.208 56.137 2.208C56.208 2.208 56.279 2.214 56.349 2.225C56.42 2.236 56.491 2.255 56.562 2.281L56.562 1.728C56.448 1.69 56.32 1.671 56.178 1.671C55.928 1.671 55.706 1.729 55.513 1.846C55.319 1.963 55.161 2.127 55.035 2.339L55.035 1.76L54.431 1.76L54.431 5.839L55.035 5.839L55.035 5.838ZM50.705 4.092C50.898 3.948 51.159 3.876 51.485 3.876C51.724 3.876 51.939 3.901 52.129 3.953C52.319 4.006 52.499 4.088 52.668 4.202L52.668 4.967C52.504 5.129 52.322 5.249 52.12 5.325C51.919 5.401 51.695 5.44 51.451 5.44C51.147 5.44 50.897 5.367 50.704 5.224C50.511 5.08 50.415 4.894 50.415 4.666C50.415 4.427 50.512 4.236 50.705 4.092ZM52.06 5.794C52.28 5.715 52.483 5.597 52.668 5.44L52.668 5.838L53.255 5.838L53.255 3.094C53.255 2.639 53.115 2.289 52.835 2.044C52.554 1.801 52.156 1.677 51.639 1.677C51.389 1.677 51.139 1.711 50.888 1.775C50.638 1.84 50.366 1.944 50.072 2.084L50.301 2.548C50.546 2.424 50.77 2.333 50.974 2.276C51.178 2.22 51.381 2.19 51.582 2.19C51.936 2.19 52.205 2.273 52.39 2.439C52.575 2.604 52.668 2.85 52.668 3.175L52.668 3.713C52.308 3.528 51.909 3.436 51.468 3.436C50.967 3.436 50.57 3.547 50.276 3.77C49.982 3.993 49.835 4.296 49.835 4.682C49.835 4.926 49.899 5.141 50.027 5.325C50.155 5.51 50.332 5.654 50.558 5.757C50.784 5.86 51.046 5.912 51.345 5.912C51.602 5.912 51.84 5.872 52.06 5.794ZM47.78 5.838L49.542 1.759L48.898 1.759L47.502 5.057L46.107 1.759L45.438 1.759L47.209 5.838L47.78 5.838ZM40.144 5.171C39.918 5.03 39.739 4.84 39.606 4.601C39.473 4.363 39.406 4.096 39.406 3.803C39.406 3.504 39.473 3.237 39.606 3.001C39.739 2.765 39.919 2.576 40.144 2.435C40.37 2.294 40.621 2.224 40.899 2.224C41.176 2.224 41.428 2.294 41.654 2.435C41.88 2.576 42.06 2.765 42.193 3.001C42.326 3.237 42.392 3.505 42.392 3.803C42.392 4.096 42.326 4.362 42.193 4.601C42.06 4.84 41.88 5.03 41.654 5.171C41.428 5.312 41.176 5.383 40.899 5.383C40.621 5.383 40.37 5.312 40.144 5.171ZM41.96 5.639C42.276 5.452 42.526 5.198 42.711 4.878C42.896 4.558 42.988 4.199 42.988 3.803C42.988 3.407 42.896 3.048 42.711 2.728C42.526 2.408 42.276 2.153 41.96 1.966C41.644 1.779 41.291 1.685 40.899 1.685C40.512 1.685 40.161 1.779 39.842 1.966C39.524 2.153 39.272 2.408 39.087 2.728C38.903 3.048 38.81 3.407 38.81 3.803C38.81 4.199 38.902 4.558 39.087 4.878C39.272 5.198 39.524 5.452 39.842 5.639C40.161 5.827 40.513 5.92 40.899 5.92C41.291 5.92 41.645 5.826 41.96 5.639ZM35.174 5.163C34.942 5.022 34.76 4.831 34.627 4.593C34.493 4.354 34.427 4.085 34.427 3.787C34.427 3.489 34.493 3.221 34.627 2.985C34.76 2.749 34.942 2.564 35.174 2.427C35.405 2.292 35.662 2.225 35.944 2.225C36.2 2.225 36.439 2.275 36.659 2.376C36.879 2.476 37.06 2.612 37.202 2.786L37.202 4.805C37.06 4.984 36.88 5.124 36.659 5.224C36.438 5.325 36.2 5.375 35.944 5.375C35.662 5.374 35.405 5.304 35.174 5.163ZM37.21 5.407L37.21 5.838L37.806 5.838L37.806 0.001L37.202 0.14L37.202 2.158C37.016 2.007 36.812 1.892 36.59 1.813C36.366 1.734 36.135 1.694 35.896 1.694C35.509 1.694 35.16 1.788 34.847 1.975C34.534 2.163 34.286 2.414 34.103 2.729C33.922 3.043 33.83 3.399 33.83 3.795C33.83 4.192 33.922 4.548 34.103 4.866C34.285 5.184 34.533 5.436 34.847 5.624C35.159 5.811 35.506 5.905 35.887 5.905C36.41 5.904 36.851 5.739 37.21 5.407ZM28.253 5.171C28.027 5.03 27.847 4.84 27.714 4.601C27.581 4.363 27.515 4.096 27.515 3.803C27.515 3.504 27.581 3.237 27.714 3.001C27.847 2.765 28.027 2.576 28.253 2.435C28.479 2.294 28.731 2.224 29.008 2.224C29.286 2.224 29.537 2.294 29.763 2.435C29.988 2.576 30.168 2.765 30.301 3.001C30.434 3.237 30.501 3.505 30.501 3.803C30.501 4.096 30.434 4.362 30.301 4.601C30.168 4.84 29.988 5.03 29.763 5.171C29.536 5.312 29.286 5.383 29.008 5.383C28.731 5.383 28.478 5.312 28.253 5.171ZM30.069 5.639C30.385 5.452 30.635 5.198 30.82 4.878C31.004 4.558 31.097 4.199 31.097 3.803C31.097 3.407 31.005 3.048 30.82 2.728C30.635 2.408 30.385 2.153 30.069 1.966C29.753 1.779 29.4 1.685 29.008 1.685C28.622 1.685 28.269 1.779 27.951 1.966C27.632 2.153 27.381 2.408 27.196 2.728C27.011 3.048 26.919 3.407 26.919 3.803C26.919 4.199 27.011 4.558 27.196 4.878C27.381 5.198 27.633 5.452 27.951 5.639C28.269 5.827 28.622 5.92 29.008 5.92C29.399 5.92 29.753 5.826 30.069 5.639ZM25.621 5.741C25.892 5.627 26.137 5.467 26.355 5.261L25.979 4.853C25.805 5.022 25.619 5.149 25.42 5.236C25.221 5.323 25.01 5.367 24.788 5.367C24.51 5.367 24.257 5.297 24.029 5.159C23.8 5.02 23.619 4.831 23.486 4.593C23.353 4.354 23.286 4.088 23.286 3.794C23.286 3.501 23.353 3.237 23.486 3C23.619 2.764 23.799 2.577 24.025 2.439C24.251 2.301 24.503 2.231 24.78 2.231C25.004 2.231 25.22 2.276 25.429 2.365C25.638 2.455 25.825 2.587 25.988 2.76L26.371 2.32C26.158 2.114 25.913 1.955 25.636 1.843C25.359 1.733 25.07 1.676 24.771 1.676C24.385 1.676 24.034 1.772 23.718 1.962C23.402 2.152 23.152 2.405 22.967 2.724C22.782 3.042 22.69 3.398 22.69 3.794C22.69 4.191 22.782 4.549 22.967 4.869C23.152 5.189 23.402 5.443 23.718 5.631C24.034 5.819 24.385 5.912 24.771 5.912C25.066 5.912 25.348 5.854 25.621 5.741ZM18.838 5.838L18.838 2.834C18.963 2.634 19.121 2.479 19.312 2.37C19.502 2.261 19.72 2.208 19.965 2.208C20.319 2.208 20.597 2.312 20.801 2.521C21.005 2.73 21.107 3.017 21.107 3.38L21.107 5.839L21.702 5.839L21.702 3.258C21.702 2.944 21.636 2.668 21.503 2.432C21.369 2.195 21.184 2.011 20.948 1.878C20.711 1.746 20.437 1.679 20.128 1.679C19.589 1.679 19.159 1.867 18.838 2.241L18.838 1.761L18.234 1.761L18.234 5.84L18.838 5.84L18.838 5.838ZM14.508 4.092C14.701 3.948 14.962 3.876 15.288 3.876C15.527 3.876 15.742 3.901 15.933 3.953C16.123 4.006 16.303 4.088 16.471 4.202L16.471 4.967C16.308 5.129 16.126 5.249 15.924 5.325C15.723 5.401 15.5 5.44 15.255 5.44C14.95 5.44 14.701 5.367 14.508 5.224C14.315 5.08 14.219 4.894 14.219 4.666C14.219 4.427 14.315 4.236 14.508 4.092ZM15.864 5.794C16.084 5.715 16.287 5.597 16.471 5.44L16.471 5.838L17.059 5.838L17.059 3.094C17.059 2.639 16.919 2.289 16.639 2.044C16.358 1.801 15.96 1.677 15.443 1.677C15.193 1.677 14.942 1.711 14.692 1.775C14.442 1.84 14.17 1.944 13.876 2.084L14.105 2.548C14.35 2.424 14.574 2.333 14.778 2.276C14.982 2.22 15.185 2.19 15.387 2.19C15.74 2.19 16.009 2.273 16.195 2.439C16.379 2.604 16.472 2.85 16.472 3.175L16.472 3.713C16.114 3.528 15.713 3.436 15.272 3.436C14.772 3.436 14.374 3.547 14.081 3.77C13.787 3.993 13.639 4.296 13.639 4.682C13.639 4.926 13.704 5.141 13.832 5.325C13.959 5.51 14.136 5.654 14.362 5.757C14.588 5.86 14.851 5.912 15.149 5.912C15.404 5.912 15.643 5.872 15.864 5.794ZM9.992 5.224C9.768 5.123 9.586 4.987 9.445 4.813L9.445 2.794C9.586 2.615 9.767 2.475 9.987 2.375C10.208 2.274 10.447 2.224 10.702 2.224C10.99 2.224 11.249 2.293 11.478 2.431C11.706 2.57 11.886 2.759 12.02 2.997C12.154 3.235 12.22 3.505 12.22 3.803C12.22 4.101 12.154 4.369 12.02 4.605C11.887 4.84 11.706 5.028 11.478 5.167C11.249 5.304 10.99 5.373 10.702 5.373C10.451 5.374 10.214 5.324 9.992 5.224ZM9.436 5.838L9.436 5.431C9.62 5.584 9.826 5.699 10.052 5.781C10.278 5.863 10.511 5.904 10.75 5.904C11.142 5.904 11.493 5.81 11.803 5.623C12.113 5.436 12.359 5.183 12.542 4.865C12.724 4.548 12.815 4.191 12.815 3.794C12.815 3.398 12.724 3.042 12.542 2.728C12.359 2.413 12.113 2.162 11.803 1.974C11.492 1.787 11.145 1.694 10.758 1.694C10.231 1.694 9.792 1.859 9.444 2.19L9.444 0L8.84 0.139L8.84 5.837L9.436 5.838ZM2.037 5.171C1.757 5.052 1.512 4.885 1.303 4.67C1.093 4.456 0.93 4.205 0.813 3.917C0.696 3.629 0.638 3.317 0.638 2.98C0.638 2.649 0.696 2.341 0.813 2.056C0.931 1.771 1.093 1.522 1.303 1.307C1.512 1.092 1.757 0.926 2.037 0.806C2.318 0.686 2.621 0.627 2.947 0.627C3.274 0.627 3.575 0.686 3.853 0.806C4.131 0.926 4.374 1.092 4.584 1.307C4.793 1.522 4.957 1.771 5.074 2.056C5.191 2.341 5.25 2.651 5.25 2.989C5.25 3.32 5.191 3.629 5.074 3.917C4.957 4.205 4.793 4.456 4.584 4.67C4.374 4.885 4.131 5.052 3.853 5.171C3.576 5.291 3.274 5.35 2.947 5.35C2.621 5.35 2.318 5.29 2.037 5.171ZM4.094 5.705C4.45 5.555 4.763 5.346 5.033 5.078C5.303 4.81 5.512 4.496 5.661 4.141C5.811 3.785 5.886 3.401 5.886 2.989C5.886 2.576 5.811 2.192 5.661 1.836C5.512 1.481 5.302 1.169 5.033 0.899C4.764 0.631 4.451 0.421 4.094 0.272C3.737 0.123 3.356 0.049 2.947 0.049C2.534 0.049 2.148 0.123 1.792 0.272C1.436 0.422 1.123 0.631 0.853 0.899C0.584 1.168 0.375 1.481 0.224 1.836C0.075 2.192 0 2.576 0 2.989C0 3.401 0.074 3.785 0.224 4.141C0.375 4.496 0.584 4.809 0.853 5.078C1.122 5.346 1.436 5.556 1.792 5.705C2.148 5.854 2.534 5.929 2.947 5.929C3.356 5.928 3.738 5.854 4.094 5.705Z" fill="rgb(5,67,117)" fill-opacity="1.000" fill-rule="nonzero" transform="matrix(1 0 0 1 41.7877 39.8166)"/></svg>