<svg xmlns="http://www.w3.org/2000/svg" viewBox="0 0 60 60" width="60" height="60"><defs><linearGradient id="g97" gradientUnits="userSpaceOnUse" x1="-0.52" y1="70.76" x2="82.11" y2="-11.87"><stop offset="0.0%" stop-color="rgb(140,209,51)" stop-opacity="1.000"/><stop offset="100.0%" stop-color="rgb(5,189,251)" stop-opacity="1.000"/></linearGradient></defs><path d="M0 0L60 0L60 60L0 60L0 0Z" fill="rgb(5,67,117)" fill-opacity="1.000" fill-rule="nonzero" transform="matrix(1 0 0 1 0 0)"/><path d="M5.976 0L5.976 10.042C5.976 11.616 6.828 12.448 8.441 12.448C9.279 12.448 10.346 12.282 11.461 11.978L12.136 16.456C10.734 17.007 8.271 17.374 6.779 17.374C2.217 17.374 0 15.247 0 10.87L0 0L5.976 0Z" fill="rgb(255,255,255)" fill-opacity="1.000" fill-rule="nonzero" transform="matrix(1 0 0 1 23.8828 28.8922)"/><path d="M0 0.831L0 13.084L13.117 13.084L12.284 7.124L5.976 7.124L5.976 0L0 0.831Z" fill="rgb(0,0,0)" fill-opacity="1.000" fill-rule="nonzero" transform="matrix(1 0 0 1 23.8828 13.7524)"/><path d="M0 13.084L13.116 0L26.231 13.084L13.116 26.17L0 13.084Z" fill="url(#g97)" fill-rule="nonzero" transform="matrix(1 0 0 1 17.3254 7.2116)"/></svg>