<svg xmlns="http://www.w3.org/2000/svg" viewBox="0 0 60 60" width="60" height="60"><path d="M0 0L60 0L60 60L0 60L0 0Z" fill="rgb(8,30,63)" fill-opacity="1.000" fill-rule="nonzero" transform="matrix(1 0 0 1 0 0)"/><path d="M2.279 0L0 5.013L4.337 3.612L2.279 0Z" fill="rgb(9,30,63)" fill-opacity="1.000" fill-rule="nonzero" transform="matrix(1 0 0 1 14.5263 32.0155)"/><path d="M47.344 0L7.02 0L0 2.732L7.424 9.145L47.344 0Z" fill="rgb(102,202,223)" fill-opacity="1.000" fill-rule="nonzero" transform="matrix(1 0 0 1 6 19)"/><path d="M0 13.015L36.539 0L13.819 19.724L5.219 22.488L0 13.015Z" fill="rgb(102,202,223)" fill-opacity="1.000" fill-rule="nonzero" transform="matrix(1 0 0 1 16.8048 19)"/><path d="M1.103 18.028L0 9.145L39.921 0L3.381 13.015L1.103 18.028Z" fill="rgb(23,129,196)" fill-opacity="1.000" fill-rule="nonzero" transform="matrix(1 0 0 1 13.4238 19)"/></svg>