<svg xmlns="http://www.w3.org/2000/svg" viewBox="0 0 130 60" width="130" height="60"><path d="M0 0L130 0L130 60L0 60L0 0Z" fill="rgb(255,255,255)" fill-opacity="1.000" fill-rule="nonzero" transform="matrix(1 0 0 1 0 0)"/><path d="M7.018 10.681L6.991 1.143L3.495 1.114L0 1.085L0 0.543L0 0L7.668 0.028L15.336 0.056L15.369 0.572L15.402 1.088L11.874 1.088L8.345 1.088L8.345 10.654L8.345 20.219L7.696 20.219L7.046 20.219L7.018 10.681Z" fill="rgb(8,30,63)" fill-opacity="1.000" fill-rule="nonzero" transform="matrix(1 0 0 1 8.4949 27.3727)"/><path d="M3.456 14.614C1.863 14.227 0.803 13.227 0.266 11.605C0.098 11.097 0.072 10.413 0.038 5.516L0 0L0.548 0L1.096 0L1.096 5.14C1.096 9.346 1.126 10.394 1.258 10.903C1.603 12.229 2.223 13.041 3.259 13.521C3.68 13.717 3.957 13.75 5.161 13.75C6.521 13.75 6.595 13.738 7.302 13.402C8.258 12.948 9.104 12.137 9.592 11.206C10.305 9.845 10.335 9.589 10.388 4.538L10.436 0L10.969 0L11.501 0L11.501 7.228L11.501 14.457L10.962 14.457L10.424 14.457L10.393 12.962L10.363 11.468L10.052 12.06C9.438 13.231 8.097 14.24 6.663 14.611C5.852 14.82 4.311 14.822 3.456 14.614Z" fill="rgb(8,30,63)" fill-opacity="1.000" fill-rule="nonzero" transform="matrix(1 0 0 1 21.4885 33.1351)"/><path d="M4.584 20.394C3.354 20.081 2.347 19.401 1.507 18.317C0.383 16.864 -0.183 14.377 0.053 11.926C0.258 9.793 0.808 8.42 1.936 7.221C3.137 5.944 4.447 5.411 6.397 5.406C7.649 5.403 8.436 5.597 9.445 6.159C10.218 6.59 11.19 7.595 11.559 8.345L11.817 8.871L11.845 4.435L11.873 0L12.387 0.033L12.9 0.066L12.928 10.148L12.956 20.23L12.413 20.23L11.871 20.23L11.871 18.762C11.871 17.955 11.834 17.295 11.789 17.296C11.745 17.296 11.601 17.485 11.469 17.716C11.119 18.332 10.21 19.29 9.612 19.675C8.697 20.263 7.95 20.464 6.506 20.51C5.603 20.539 5.015 20.503 4.584 20.394ZM8.041 19.379C9.604 18.89 10.745 17.652 11.38 15.757C11.777 14.571 11.881 12.52 11.615 11.099C11.262 9.212 10.099 7.511 8.696 6.828C6.973 5.989 4.6 6.257 3.144 7.454C1.779 8.575 0.868 11.345 1.088 13.703C1.361 16.634 2.718 18.698 4.815 19.371C5.647 19.638 7.202 19.642 8.041 19.379Z" fill="rgb(8,30,63)" fill-opacity="1.000" fill-rule="nonzero" transform="matrix(1 0 0 1 34.4502 27.3623)"/><path d="M0.115 19.918C0.38 19.222 5.309 5.993 6.371 3.124L7.529 0L10.234 0.026L12.938 0.052L13.849 2.498C14.35 3.843 16.023 8.329 17.566 12.467C19.109 16.605 20.372 20.042 20.372 20.105C20.372 20.183 19.5 20.21 17.648 20.19L14.925 20.161L14.323 18.393L13.72 16.625L10.206 16.654L6.692 16.683L6.49 17.226C6.379 17.525 6.101 18.308 5.873 18.965L5.457 20.161L2.729 20.19L0 20.219L0.115 19.918ZM12.373 12.658C12.423 12.607 11.672 10.124 10.566 6.683L10.217 5.596L9.117 8.972C8.511 10.829 8.016 12.431 8.016 12.532C8.016 12.698 8.222 12.715 10.166 12.715C11.348 12.715 12.341 12.689 12.373 12.658Z" fill="rgb(8,30,63)" fill-opacity="1.000" fill-rule="nonzero" transform="matrix(1 0 0 1 63.1242 27.3764)"/><path d="M0 12.8L0 10.925L3.603 7.31L7.206 3.696L3.874 3.696L0.542 3.696L0.542 1.848L0.542 0L6.991 0L13.439 0L13.439 1.821L13.439 3.643L9.808 7.283L6.176 10.924L10.052 10.978L13.927 11.033L13.957 12.853L13.987 14.674L6.993 14.674L0 14.674L0 12.8Z" fill="rgb(8,30,63)" fill-opacity="1.000" fill-rule="nonzero" transform="matrix(1 0 0 1 83.9298 32.9177)"/><path d="M3.702 14.942C2.252 14.626 1.308 13.914 0.708 12.683C0.064 11.359 0 10.668 0 4.986L0 0L2.384 0L4.769 0L4.769 4.312C4.769 9.288 4.823 9.818 5.389 10.448C5.815 10.921 6.276 11.087 7.153 11.084C7.908 11.082 8.502 10.813 9.017 10.241C9.724 9.455 9.754 9.207 9.754 4.328L9.754 0L12.193 0L14.632 0L14.632 7.337L14.632 14.674L12.301 14.674L9.971 14.674L9.971 13.7L9.971 12.725L9.24 13.455C7.797 14.895 5.866 15.413 3.702 14.942Z" fill="rgb(8,30,63)" fill-opacity="1.000" fill-rule="nonzero" transform="matrix(1 0 0 1 98.3448 32.8889)"/><path d="M0 10.109L0 0L2.384 0L4.769 0L4.769 10.109L4.769 20.218L2.384 20.218L0 20.218L0 10.109Z" fill="rgb(8,30,63)" fill-opacity="1.000" fill-rule="nonzero" transform="matrix(1 0 0 1 114.0604 27.3742)"/><path d="M1.68 0L0 3.696L3.197 2.663L1.68 0Z" fill="rgb(9,30,63)" fill-opacity="1.000" fill-rule="nonzero" transform="matrix(1 0 0 1 91.9233 20.7876)"/><path d="M34.906 0L5.175 0L0 2.014L5.473 6.743L34.906 0Z" fill="rgb(102,202,223)" fill-opacity="1.000" fill-rule="nonzero" transform="matrix(1 0 0 1 85.6371 11.1916)"/><path d="M0 9.596L26.94 0L10.188 14.542L3.848 16.58L0 9.596Z" fill="rgb(102,202,223)" fill-opacity="1.000" fill-rule="nonzero" transform="matrix(1 0 0 1 93.6035 11.1916)"/><path d="M0.813 13.292L0 6.743L29.432 0L2.493 9.596L0.813 13.292Z" fill="rgb(23,129,196)" fill-opacity="1.000" fill-rule="nonzero" transform="matrix(1 0 0 1 91.1105 11.1916)"/><path d="M5.967 15.116C5.216 15.029 5.296 15.043 4.76 14.903C4.623 14.868 4.477 14.825 4.434 14.809C4.392 14.793 4.28 14.749 4.185 14.713C3.765 14.55 2.963 14.116 2.927 14.032C2.92 14.015 2.891 14.001 2.863 14.001C2.835 14.001 2.806 13.988 2.799 13.972C2.792 13.956 2.709 13.884 2.614 13.812C2.369 13.626 1.818 13.062 1.617 12.791C1.523 12.664 1.433 12.555 1.417 12.547C1.401 12.54 1.388 12.521 1.388 12.505C1.388 12.489 1.31 12.356 1.214 12.211C1.005 11.892 0.763 11.399 0.565 10.889C0.528 10.793 0.484 10.681 0.468 10.639C0.422 10.523 0.294 10.047 0.203 9.659C-0.042 8.619 -0.069 6.831 0.143 5.797C0.178 5.627 0.22 5.42 0.237 5.335C0.255 5.251 0.297 5.087 0.332 4.97C0.367 4.854 0.405 4.716 0.416 4.663C0.438 4.562 0.523 4.345 0.585 4.231C0.605 4.194 0.622 4.142 0.622 4.116C0.622 4.089 0.708 3.894 0.813 3.683C0.918 3.472 1.004 3.277 1.004 3.251C1.005 3.224 1.02 3.203 1.039 3.203C1.057 3.203 1.083 3.172 1.095 3.135C1.117 3.07 1.196 2.934 1.235 2.895C1.245 2.885 1.336 2.753 1.437 2.602C1.756 2.124 2.177 1.68 2.691 1.281C2.786 1.207 2.869 1.134 2.876 1.118C2.883 1.102 2.913 1.089 2.943 1.089C2.973 1.089 2.997 1.072 2.997 1.05C2.997 1.029 3.018 1.012 3.042 1.012C3.067 1.012 3.114 0.988 3.148 0.958C3.26 0.858 3.915 0.512 3.992 0.512C4.015 0.512 4.063 0.497 4.1 0.478C4.136 0.459 4.244 0.414 4.339 0.378C4.433 0.342 4.541 0.297 4.578 0.278C4.614 0.259 4.686 0.243 4.738 0.243C4.79 0.243 4.88 0.225 4.94 0.202C5.298 0.063 6.441 -0.038 7.059 0.014C7.811 0.077 8.392 0.18 8.601 0.286C8.638 0.305 8.693 0.32 8.724 0.32C8.755 0.32 8.846 0.349 8.926 0.383C9.006 0.418 9.105 0.46 9.148 0.476C9.56 0.636 10.243 1.036 10.599 1.327C10.853 1.534 11.369 2.054 11.563 2.299C11.647 2.405 11.728 2.497 11.744 2.504C11.76 2.511 11.772 2.54 11.772 2.568C11.772 2.597 11.786 2.625 11.803 2.632C11.897 2.673 12.451 3.7 12.597 4.106C12.635 4.211 12.681 4.314 12.698 4.334C12.716 4.354 12.73 4.402 12.73 4.44C12.73 4.479 12.746 4.54 12.764 4.577C12.798 4.644 12.884 4.937 12.953 5.22C12.974 5.305 13.013 5.46 13.039 5.566C13.179 6.123 13.251 7.322 13.197 8.185C13.141 9.075 13.051 9.712 12.956 9.898C12.937 9.935 12.922 10 12.922 10.042C12.922 10.115 12.751 10.664 12.652 10.909C12.627 10.972 12.593 11.058 12.577 11.1C12.56 11.142 12.504 11.272 12.451 11.388C12.397 11.504 12.343 11.625 12.33 11.657C12.301 11.727 12.279 11.764 11.976 12.254C11.846 12.465 11.708 12.672 11.669 12.714C11.631 12.756 11.552 12.855 11.493 12.934C11.23 13.288 10.193 14.194 10.052 14.194C10.029 14.194 10.01 14.207 10.01 14.222C10.009 14.238 9.971 14.27 9.923 14.294C9.876 14.317 9.699 14.405 9.531 14.49C9.129 14.691 8.531 14.908 8.209 14.971C7.34 15.139 6.588 15.188 5.967 15.116ZM7.601 14.171C7.72 14.141 7.861 14.117 7.915 14.117C7.969 14.117 8.023 14.099 8.036 14.078C8.049 14.057 8.11 14.04 8.17 14.04C8.231 14.04 8.291 14.024 8.303 14.004C8.315 13.985 8.38 13.957 8.447 13.942C8.515 13.927 8.597 13.901 8.629 13.885C8.661 13.868 8.825 13.788 8.993 13.707C9.161 13.626 9.454 13.45 9.645 13.315C9.972 13.084 10.595 12.487 10.732 12.274C10.767 12.22 10.83 12.136 10.872 12.087C10.949 11.999 11.097 11.766 11.147 11.657C11.161 11.625 11.183 11.591 11.195 11.58C11.232 11.548 11.39 11.245 11.515 10.965C11.647 10.671 11.695 10.55 11.757 10.351C11.787 10.255 11.831 10.117 11.856 10.043C11.946 9.766 12.011 9.484 12.11 8.929C12.204 8.399 12.202 6.759 12.106 6.219C11.973 5.465 11.895 5.121 11.845 5.068C11.826 5.048 11.811 4.993 11.811 4.946C11.811 4.898 11.794 4.849 11.772 4.836C11.751 4.823 11.734 4.785 11.734 4.753C11.734 4.72 11.707 4.631 11.673 4.553C11.639 4.476 11.597 4.378 11.58 4.336C11.431 3.967 11.189 3.522 10.956 3.188C10.751 2.893 10.245 2.28 10.207 2.28C10.193 2.28 10.122 2.222 10.048 2.152C9.71 1.832 8.746 1.246 8.552 1.243C8.519 1.243 8.476 1.227 8.456 1.209C8.419 1.175 8.14 1.089 7.826 1.015C7.165 0.86 6.043 0.858 5.412 1.012C5.061 1.097 4.776 1.182 4.743 1.211C4.723 1.228 4.684 1.243 4.658 1.243C4.548 1.243 3.621 1.747 3.534 1.854C3.523 1.867 3.446 1.928 3.361 1.99C3.077 2.2 2.503 2.826 2.254 3.198C2.021 3.547 1.618 4.304 1.618 4.393C1.618 4.415 1.603 4.463 1.584 4.5C1.497 4.673 1.426 4.864 1.426 4.927C1.426 4.965 1.414 5.008 1.399 5.023C1.351 5.071 1.22 5.595 1.158 5.989C1.138 6.116 1.102 6.306 1.078 6.411C1.006 6.725 1.019 8.461 1.095 8.813C1.13 8.972 1.158 9.157 1.158 9.224C1.158 9.292 1.175 9.358 1.196 9.371C1.217 9.384 1.235 9.438 1.235 9.492C1.235 9.587 1.324 9.947 1.385 10.101C1.402 10.143 1.446 10.273 1.482 10.389C1.591 10.739 1.865 11.331 2.065 11.648C2.135 11.76 2.193 11.866 2.193 11.885C2.193 11.904 2.206 11.926 2.221 11.933C2.237 11.94 2.326 12.049 2.418 12.176C2.658 12.506 3.325 13.161 3.598 13.335C3.658 13.373 3.715 13.413 3.725 13.424C3.798 13.5 4.593 13.893 4.837 13.973C5.281 14.119 5.694 14.206 6.082 14.235C6.551 14.27 7.338 14.236 7.601 14.171Z" fill="rgb(9,30,63)" fill-opacity="1.000" fill-rule="nonzero" transform="matrix(1 0 0 1 49.1559 32.7672)"/></svg>