<svg xmlns="http://www.w3.org/2000/svg" viewBox="0 0 130 60" width="130" height="60"><path d="M0 0L130 0L130 60L0 60L0 0Z" fill="rgb(255,255,255)" fill-opacity="1.000" fill-rule="nonzero" transform="matrix(1 0 0 1 0 0)"/><path d="M9.71 0L9.71 9.34L2.02 0L0 0L0 12.748L2.091 12.748L2.091 3.408L9.782 12.748L11.914 12.748L11.914 0L9.71 0ZM14.311 0L17.014 0L17.014 12.748L14.311 12.748L14.311 0Z" fill="rgb(0,74,53)" fill-opacity="1.000" fill-rule="nonzero" transform="matrix(1 0 0 1 27.3518 24.1012)"/><path d="M69.207 9.34L63.913 0.372L63.883 0.302C63.73 0.111 63.536 0 63.311 0L56.386 0C56.233 0.04 56.12 0.151 55.967 0.302L47.481 9.269C47.481 9.269 47.44 9.269 47.44 9.31L47.399 9.35C47.359 9.39 47.359 9.46 47.359 9.541C47.359 9.732 47.512 9.842 47.665 9.883L51.694 9.883C51.765 9.883 51.806 9.923 51.806 9.993C51.806 10.034 51.806 10.034 51.765 10.064L47.695 14.336L47.654 14.377C47.614 14.417 47.614 14.447 47.583 14.487L47.583 14.558C47.583 14.628 47.624 14.708 47.695 14.779C47.736 14.819 47.807 14.819 47.889 14.849L50.663 14.849C50.816 14.849 51.01 14.779 51.122 14.658L55.427 10.124C55.468 10.084 55.468 10.084 55.468 10.054C55.468 9.983 55.427 9.943 55.355 9.943L53.03 9.943C52.958 9.943 52.918 9.873 52.918 9.832C52.918 9.792 52.918 9.792 52.958 9.762L57.487 4.997L57.528 4.956C57.599 4.886 57.681 4.846 57.752 4.846C57.865 4.846 57.946 4.886 58.018 4.997L60.568 9.35L60.833 9.802L60.833 9.873C60.833 9.943 60.792 9.983 60.721 9.983L58.364 9.983C58.293 9.983 58.211 10.054 58.211 10.134C58.211 10.174 58.211 10.204 58.252 10.245L60.802 14.598L60.802 14.638C60.914 14.829 61.108 14.94 61.292 14.94L66.657 14.94C66.728 14.94 66.769 14.94 66.851 14.899C67.004 14.829 67.075 14.708 67.075 14.558C67.075 14.517 67.075 14.447 67.034 14.407L66.994 14.336L64.525 10.134L64.525 10.094C64.525 10.023 64.566 9.983 64.637 9.983L69.054 9.983C69.054 9.983 69.095 9.983 69.095 9.943L69.136 9.903C69.136 9.903 69.136 9.863 69.176 9.863C69.176 9.863 69.176 9.822 69.217 9.822C69.217 9.822 69.217 9.782 69.258 9.782L69.258 9.752C69.278 9.601 69.278 9.491 69.207 9.34ZM61.027 4.574L54.601 4.574C54.529 4.574 54.488 4.504 54.488 4.464C54.488 4.424 54.488 4.393 54.529 4.393L58.334 0.382C58.375 0.342 58.405 0.342 58.446 0.312C58.487 0.271 58.558 0.241 58.64 0.241L58.681 0.241C58.752 0.241 58.874 0.312 58.905 0.392L61.21 4.353C61.21 4.393 61.251 4.393 61.251 4.424C61.18 4.504 61.098 4.574 61.027 4.574ZM32.487 2.101L25.367 2.101L22.97 14.849L30.773 14.849L31.151 12.678L26.887 12.678L27.53 9.269L30.988 9.269L31.406 7.098L27.958 7.098L28.489 4.283L32.069 4.283L32.487 2.101ZM39.219 2.101L34.69 2.101L32.252 14.849L36.669 14.849C40.933 14.849 44.584 12.034 44.584 7.46C44.584 4.273 42.718 2.101 39.219 2.101ZM37.128 12.678L36.21 12.678L37.811 4.273L38.76 4.273C40.168 4.273 41.004 5.851 41.004 7.5C40.973 10.878 38.76 12.678 37.128 12.678ZM5.855 12.678C4.447 12.678 3.611 11.099 3.611 9.45C3.611 6.072 5.855 4.273 7.456 4.273L11.832 4.273L12.25 2.101L7.915 2.101C3.652 2.101 0 4.916 0 9.491C0 12.637 1.867 14.849 5.365 14.849L9.894 14.849L10.312 12.678L5.855 12.678ZM19.89 9.189C21.104 8.586 22.634 7.58 22.634 5.359C22.634 4.011 21.716 2.131 18.982 2.131L13.77 2.131L11.332 14.889L14.831 14.889L15.749 10.054L16.738 10.054L18.074 14.889L21.92 14.889L19.89 9.189ZM17.228 7.842L16.167 7.842L16.891 4.243L17.809 4.243C18.574 4.243 19.176 4.997 19.176 5.741C19.166 6.937 18.176 7.842 17.228 7.842Z" fill="rgb(185,165,87)" fill-opacity="1.000" fill-rule="nonzero" transform="matrix(1 0 0 1 46.7318 22)"/><path d="M8.293 0L8.293 6.977C8.221 9.832 7.681 11.481 5.518 11.481L5.477 11.481C3.305 11.481 2.734 9.832 2.703 6.977L2.703 0L0 0L0 7.802C0 10.576 1.03 12.225 3.427 12.748C3.427 12.748 4.111 12.899 5.294 12.899L5.671 12.899C6.854 12.899 7.426 12.748 7.426 12.748C9.935 12.265 10.965 10.536 10.965 7.802L10.965 0L8.293 0Z" fill="rgb(0,74,53)" fill-opacity="1.000" fill-rule="nonzero" transform="matrix(1 0 0 1 14 24.1012)"/></svg>