<svg xmlns="http://www.w3.org/2000/svg" viewBox="0 0 60 60" width="60" height="60"><path d="M0 0L60 0L60 60L0 60L0 0Z" fill="rgb(255,255,255)" fill-opacity="1.000" fill-rule="nonzero" transform="matrix(1 0 0 1 0 0)"/><path d="M6.549 0L6.549 6.304L1.362 0L0 0L0 8.605L1.41 8.605L1.41 2.301L6.597 8.605L8.034 8.605L8.034 0L6.549 0ZM9.651 0L11.474 0L11.474 8.605L9.651 8.605L9.651 0Z" fill="rgb(0,74,53)" fill-opacity="1.000" fill-rule="nonzero" transform="matrix(1 0 0 1 13.0042 35.2933)"/><path d="M21.909 0L17.107 0L15.491 8.605L20.753 8.605L21.008 7.139L18.132 7.139L18.566 4.839L20.898 4.839L21.18 3.373L18.855 3.373L19.212 1.473L21.627 1.473L21.909 0ZM26.449 0L23.395 0L21.751 8.605L24.729 8.605C27.604 8.605 30.067 6.705 30.067 3.617C30.067 1.466 28.808 0 26.449 0ZM25.039 7.139L24.419 7.139L25.499 1.466L26.139 1.466C27.088 1.466 27.652 2.531 27.652 3.644C27.632 5.924 26.139 7.139 25.039 7.139ZM3.948 7.139C2.999 7.139 2.435 6.074 2.435 4.961C2.435 2.681 3.948 1.466 5.028 1.466L7.979 1.466L8.261 0L5.338 0C2.463 0 0 1.9 0 4.988C0 7.112 1.259 8.605 3.618 8.605L6.672 8.605L6.954 7.139L3.948 7.139ZM13.414 4.784C14.232 4.377 15.264 3.698 15.264 2.199C15.264 1.289 14.645 0.02 12.801 0.02L9.286 0.02L7.642 8.632L10.002 8.632L10.621 5.368L11.288 5.368L12.189 8.632L14.782 8.632L13.414 4.784ZM11.618 3.875L10.903 3.875L11.391 1.445L12.01 1.445C12.526 1.445 12.932 1.954 12.932 2.457C12.925 3.264 12.258 3.875 11.618 3.875Z" fill="rgb(185,165,87)" fill-opacity="1.000" fill-rule="nonzero" transform="matrix(1 0 0 1 26.0739 35.2933)"/><path d="M5.592 0L5.592 4.71C5.544 6.637 5.18 7.75 3.721 7.75L3.694 7.75C2.229 7.75 1.843 6.637 1.823 4.71L1.823 0L0 0L0 5.266C0 7.139 0.695 8.252 2.311 8.605C2.311 8.605 2.772 8.707 3.57 8.707L3.825 8.707C4.623 8.707 5.008 8.605 5.008 8.605C6.7 8.279 7.395 7.112 7.395 5.266L7.395 0L5.592 0Z" fill="rgb(0,74,53)" fill-opacity="1.000" fill-rule="nonzero" transform="matrix(1 0 0 1 4 35.2933)"/><path d="M21.848 9.34L16.555 0.372L16.524 0.302C16.371 0.111 16.177 0 15.953 0L9.027 0C8.874 0.04 8.762 0.151 8.609 0.302L0.122 9.269C0.122 9.269 0.082 9.269 0.082 9.31L0.041 9.35C0 9.39 0 9.46 0 9.541C0 9.732 0.153 9.842 0.306 9.883L4.335 9.883C4.406 9.883 4.447 9.923 4.447 9.993C4.447 10.034 4.447 10.034 4.406 10.064L0.337 14.336L0.296 14.377C0.255 14.417 0.255 14.447 0.224 14.487L0.224 14.558C0.224 14.628 0.265 14.708 0.337 14.779C0.377 14.819 0.449 14.819 0.53 14.849L3.305 14.849C3.458 14.849 3.652 14.779 3.764 14.658L8.068 10.124C8.109 10.084 8.109 10.084 8.109 10.054C8.109 9.983 8.068 9.943 7.997 9.943L5.671 9.943C5.6 9.943 5.559 9.873 5.559 9.832C5.559 9.792 5.559 9.792 5.6 9.762L10.129 4.997L10.169 4.956C10.241 4.886 10.322 4.846 10.394 4.846C10.506 4.846 10.588 4.886 10.659 4.997L13.209 9.35L13.474 9.802L13.474 9.873C13.474 9.943 13.433 9.983 13.362 9.983L11.006 9.983C10.934 9.983 10.853 10.054 10.853 10.134C10.853 10.174 10.853 10.204 10.894 10.245L13.444 14.598L13.444 14.638C13.556 14.829 13.75 14.94 13.933 14.94L19.298 14.94C19.37 14.94 19.411 14.94 19.492 14.899C19.645 14.829 19.717 14.708 19.717 14.558C19.717 14.517 19.717 14.447 19.676 14.407L19.635 14.336L17.167 10.134L17.167 10.094C17.167 10.023 17.207 9.983 17.279 9.983L21.695 9.983C21.695 9.983 21.736 9.983 21.736 9.943L21.777 9.903C21.777 9.903 21.777 9.863 21.818 9.863C21.818 9.863 21.818 9.822 21.859 9.822C21.859 9.822 21.859 9.782 21.899 9.782L21.899 9.752C21.92 9.601 21.92 9.491 21.848 9.34ZM13.668 4.574L7.242 4.574C7.171 4.574 7.13 4.504 7.13 4.464C7.13 4.424 7.13 4.393 7.171 4.393L10.975 0.382C11.016 0.342 11.047 0.342 11.087 0.312C11.128 0.271 11.2 0.241 11.281 0.241L11.322 0.241C11.393 0.241 11.516 0.312 11.546 0.392L13.852 4.353C13.852 4.393 13.892 4.393 13.892 4.424C13.821 4.504 13.739 4.574 13.668 4.574Z" fill="rgb(185,165,87)" fill-opacity="1.000" fill-rule="nonzero" transform="matrix(1 0 0 1 19 16)"/></svg>