<svg xmlns="http://www.w3.org/2000/svg" viewBox="0 0 60 60" width="60" height="60"><path d="M0 0L60 0L60 60L0 60L0 0Z" fill="rgb(255,255,255)" fill-opacity="1.000" fill-rule="nonzero" transform="matrix(1 0 0 1 0 0)"/><path d="M22.183 1.718C22.069 1.481 21.862 1.299 21.61 1.213L18.098 0.056C17.992 0.019 17.881 0 17.768 0C17.343 0 16.942 0.268 16.819 0.672L13.104 13.305C13.014 13.616 12.905 13.92 12.775 14.216C12.484 14.88 11.827 15.326 11.141 15.326C10.455 15.326 9.798 14.88 9.507 14.216C9.385 13.941 9.274 13.637 9.178 13.305L5.463 0.672C5.34 0.268 4.939 0 4.515 0C4.402 0 4.29 0.019 4.184 0.056L0.672 1.214C0.421 1.299 0.215 1.479 0.099 1.715C-0.016 1.95 -0.032 2.222 0.056 2.469L4.214 16.17C4.845 18.143 6.072 19.652 7.846 20.571C8.806 21.056 9.866 21.316 10.944 21.33L11.339 21.33C11.819 21.33 13.084 21.256 14.436 20.571C16.21 19.653 17.437 18.145 18.068 16.17L22.226 2.469C22.314 2.223 22.299 1.953 22.183 1.718Z" fill="rgb(42,34,100)" fill-opacity="1.000" fill-rule="evenodd" transform="matrix(1 0 0 1 19 14)"/><path d="M9.997 7.297C6.233 7.297 2.827 5.986 0.409 3.606C0.108 3.322 -0.029 3.022 0.005 2.718C0.052 2.31 0.392 2.069 0.465 2.022L2.896 0.306C3.151 0.112 3.463 0.005 3.785 0C4.144 0 4.475 0.139 4.769 0.411C6.101 1.581 7.96 2.228 9.997 2.228C12.035 2.228 13.895 1.581 15.233 0.407C15.521 0.139 15.852 0 16.21 0C16.686 0 17.029 0.249 17.101 0.306L19.531 2.022C19.604 2.069 19.944 2.31 19.991 2.718C20.025 3.022 19.888 3.322 19.583 3.611C17.168 5.987 13.762 7.297 9.997 7.297Z" fill="rgb(42,34,100)" fill-opacity="1.000" fill-rule="evenodd" transform="matrix(1 0 0 1 20.2685 39.1354)"/></svg>