<svg xmlns="http://www.w3.org/2000/svg" viewBox="0 0 130 60" width="130" height="60"><path d="M0 0L130 0L130 60L0 60L0 0Z" fill="rgb(255,255,255)" fill-opacity="1.000" fill-rule="nonzero" transform="matrix(1 0 0 1 0 0)"/><path d="M78.738 24.569C74.63 24.569 71.533 21.849 71.533 18.244L71.533 14.268C71.533 10.373 74.429 7.754 78.738 7.754C83.05 7.754 85.946 10.372 85.946 14.268L85.946 15.525C85.946 17.535 84.697 18.394 83.627 18.394L75.87 18.394C75.968 20.071 77.702 20.524 78.739 20.524C79.316 20.524 79.845 20.436 80.359 20.254C80.525 20.193 80.86 20.1 81.031 20.1C81.659 20.1 81.903 20.654 81.944 20.735L82.93 22.675C82.936 22.683 83.256 23.444 82.529 23.783C81.336 24.307 80.044 24.575 78.739 24.569L78.738 24.569ZM81.612 14.469C81.587 12.873 80.62 11.798 78.739 11.798C76.858 11.798 75.892 12.873 75.867 14.469L81.612 14.469ZM29.014 24.569C24.907 24.569 21.809 21.849 21.809 18.244L21.809 14.268C21.809 10.373 24.705 7.754 29.014 7.754C33.326 7.754 36.222 10.372 36.222 14.268L36.222 15.525C36.222 17.535 34.973 18.394 33.903 18.394L26.146 18.394C26.244 20.071 27.978 20.524 29.015 20.524C29.592 20.524 30.122 20.436 30.635 20.254C30.801 20.193 31.136 20.1 31.307 20.1C31.935 20.1 32.179 20.654 32.221 20.735L33.207 22.675C33.212 22.683 33.532 23.444 32.806 23.783C31.613 24.307 30.321 24.575 29.015 24.569L29.014 24.569ZM31.888 14.469C31.863 12.873 30.896 11.798 29.015 11.798C27.134 11.798 26.168 12.873 26.143 14.469L31.888 14.469ZM60.42 24.569C56.311 24.569 53.213 21.818 53.213 18.171L53.213 14.341C53.213 10.401 56.11 7.754 60.42 7.754C64.73 7.754 67.625 10.401 67.625 14.341L67.625 18.171C67.625 21.818 64.529 24.569 60.42 24.569ZM60.42 11.724C58.605 11.724 57.687 12.521 57.687 14.093L57.687 18.418C57.687 20.139 59.405 20.597 60.42 20.597C61.435 20.597 63.154 20.139 63.154 18.418L63.154 14.093C63.154 12.521 62.234 11.724 60.42 11.724ZM45.393 34.183C42.425 34.183 39.74 33.149 37.834 31.274C37.597 31.05 37.488 30.813 37.515 30.573C37.552 30.252 37.821 30.061 37.878 30.024L39.794 28.672C39.995 28.519 40.241 28.434 40.495 28.431C40.778 28.431 41.039 28.54 41.271 28.754C42.321 29.677 43.787 30.187 45.393 30.187C46.999 30.187 48.465 29.677 49.52 28.751C49.748 28.54 50.008 28.431 50.29 28.431C50.665 28.431 50.936 28.627 50.992 28.672L52.908 30.024C52.966 30.061 53.234 30.252 53.271 30.573C53.298 30.813 53.19 31.05 52.949 31.277C51.046 33.15 48.361 34.183 45.393 34.183ZM47.098 25.665C43.452 25.665 41 23.236 41 19.621L41 0.778C41 0.349 41.361 0 41.804 0L44.796 0C45.24 0 45.6 0.349 45.6 0.778L45.6 19.345C45.6 20.491 46.143 21.075 47.213 21.075L48.304 21.075C48.747 21.075 49.108 21.423 49.108 21.853L49.108 24.887C49.103 25.321 48.743 25.669 48.304 25.665L47.099 25.665L47.098 25.665ZM17.488 9.97C17.398 9.783 17.235 9.639 17.036 9.572L14.267 8.659C14.184 8.63 14.096 8.615 14.007 8.615C13.672 8.615 13.356 8.826 13.259 9.145L10.33 19.104C10.26 19.349 10.173 19.589 10.071 19.822C9.842 20.346 9.324 20.697 8.783 20.697C8.242 20.697 7.724 20.346 7.494 19.822C7.398 19.606 7.311 19.365 7.235 19.104L4.307 9.145C4.21 8.826 3.893 8.615 3.559 8.615C3.47 8.615 3.382 8.63 3.298 8.659L0.53 9.572C0.332 9.639 0.169 9.781 0.078 9.967C-0.013 10.153 -0.025 10.367 0.045 10.562L3.322 21.363C3.819 22.918 4.787 24.107 6.185 24.832C6.942 25.214 7.778 25.419 8.628 25.431L8.939 25.431C9.318 25.431 10.315 25.372 11.381 24.832C12.779 24.108 13.747 22.919 14.244 21.363L17.521 10.562C17.591 10.368 17.579 10.155 17.488 9.97Z" fill="rgb(42,34,100)" fill-opacity="1.000" fill-rule="evenodd" transform="matrix(1 0 0 1 22 13)"/></svg>