<svg xmlns="http://www.w3.org/2000/svg" viewBox="0 0 60 60" width="60" height="60"><defs><linearGradient id="g355" gradientUnits="userSpaceOnUse" x1="51.19" y1="16.32" x2="8.79" y2="43.64"><stop offset="0.0%" stop-color="rgb(247,197,0)" stop-opacity="1.000"/><stop offset="50.2%" stop-color="rgb(255,232,0)" stop-opacity="1.000"/><stop offset="100.0%" stop-color="rgb(250,207,0)" stop-opacity="1.000"/></linearGradient></defs><path d="M0 0L60 0L60 60L0 60L0 0Z" fill="rgb(0,37,224)" fill-opacity="1.000" fill-rule="nonzero" transform="matrix(1 0 0 1 0 0)"/><path d="M79.5 0C87.627 0 93.633 2.145 98.227 6.435C102.82 10.725 105.293 16.803 106 24.668L106 69L26.5 69C18.373 69 12.367 66.855 7.773 62.565C3.18 57.917 0.707 51.839 0 44.332L0 0L79.5 0Z" fill="url(#g355)" fill-rule="evenodd" transform="matrix(1 0 0 1 -23 -5)"/><path d="M13.867 8.65L17.16 8.65C17.16 7.612 16.64 6.747 15.427 6.747C14.387 6.747 13.867 7.612 13.867 8.65ZM19.933 10.207L14.04 10.207C14.213 11.591 15.08 12.11 16.64 12.11C17.507 12.11 18.373 11.764 19.24 11.245L19.24 13.494C18.2 14.013 17.16 14.186 16.12 14.186C13.173 14.186 10.92 12.456 10.92 9.342C10.92 6.228 13 4.498 15.6 4.498C18.893 4.498 19.933 6.92 19.933 9.688L19.933 10.207ZM4.507 14.013L0 0L3.64 0L6.587 11.072L9.88 0L13.347 0L8.667 14.013L4.507 14.013ZM18.373 25.95C18.373 26.642 19.067 27.161 19.933 27.161C21.32 27.161 22.187 25.777 22.187 24.566C21.667 24.566 21.147 24.566 20.627 24.566C19.413 24.566 18.373 24.912 18.373 25.95ZM25.653 29.064L22.36 29.064C22.36 28.545 22.187 28.026 22.187 27.507C21.32 28.718 20.453 29.237 18.893 29.237C17.507 29.237 16.293 28.891 15.6 28.026L15.6 28.718C14.56 29.064 13.347 29.237 11.44 29.237C7.627 29.237 3.293 27.507 3.293 22.144C3.293 17.3 6.76 14.878 11.44 14.878C12.827 14.878 14.213 15.224 15.6 15.57L15.253 18.511C14.04 17.992 12.827 17.646 11.613 17.646C9.013 17.646 7.28 19.549 7.28 22.144C7.28 24.912 9.187 26.469 11.96 26.469C13 26.469 14.04 26.296 14.907 25.95C14.907 22.836 18.373 22.49 20.453 22.49C20.973 22.49 21.493 22.49 22.013 22.663C22.013 21.106 20.973 20.76 19.76 20.76C18.547 20.76 17.333 20.933 16.293 21.625L16.293 19.203C17.507 18.684 18.893 18.338 20.453 18.338C23.227 18.338 25.48 19.549 25.48 22.663L25.48 26.642C25.48 27.507 25.48 28.199 25.653 29.064ZM28.773 9.169C28.773 10.726 29.64 11.591 30.68 11.591C31.893 11.591 32.76 10.726 32.76 9.342C32.76 7.958 31.893 6.92 30.68 6.92C29.467 6.92 28.773 7.958 28.773 9.169ZM35.88 0L35.88 8.304C36.4 5.882 38.307 4.671 40.733 4.671C44.2 4.671 45.413 7.093 45.413 9.688L45.413 10.38L39 10.38C39.173 11.591 40.213 12.11 41.773 12.11C42.64 12.11 43.68 11.764 44.547 11.418L44.547 13.667L44.547 29.064L41.253 29.064L41.253 27.161C40.733 28.372 39.173 29.237 37.44 29.237C34.32 29.237 32.76 26.815 32.76 23.701C32.76 22.836 32.76 22.144 33.107 21.452C32.933 21.279 32.76 21.279 32.587 21.279C30.853 21.279 29.987 22.663 29.987 24.566L29.987 29.064L26.347 29.064L26.347 18.511L29.64 18.511L29.64 20.587C30.333 19.203 31.2 18.338 32.76 18.338C33.107 18.338 33.627 18.338 33.973 18.511L33.973 19.895C34.667 19.03 35.707 18.338 37.267 18.338C38.653 18.338 39.867 18.684 40.907 19.895L40.907 14.186C38.48 14.013 36.4 12.629 35.88 10.553L35.88 14.013L32.933 14.013L32.933 12.283C32.587 13.321 31.2 14.186 29.813 14.186C27.04 14.186 25.653 11.937 25.653 9.169C25.653 8.65 25.653 7.958 26 7.266C25.827 7.266 25.653 7.266 25.48 7.266C24.093 7.266 23.227 8.304 23.227 10.207L23.227 14.013L19.933 14.013L19.933 4.844L22.88 4.844L22.88 6.574C23.4 5.363 24.267 4.671 25.653 4.671C26 4.671 26.347 4.671 26.693 4.671L26.693 6.055C27.387 5.19 28.253 4.671 29.467 4.671C30.853 4.671 31.893 5.017 32.76 6.055L32.76 0L35.88 0ZM36.573 23.701C36.573 25.431 37.267 26.469 38.653 26.469C39.867 26.469 40.907 25.431 40.907 23.874C40.907 22.317 40.04 21.106 38.653 21.106C37.267 21.106 36.573 22.317 36.573 23.701ZM39 8.65L42.64 8.65C42.64 7.612 42.12 6.747 40.907 6.747C39.693 6.747 39.173 7.612 39 8.65Z" fill="rgb(0,129,69)" fill-opacity="1.000" fill-rule="evenodd" transform="matrix(1 0 0 1 6.4268 14.211)"/></svg>