<svg xmlns="http://www.w3.org/2000/svg" viewBox="0 0 60 60" width="60" height="60"><defs><linearGradient id="g14" gradientUnits="userSpaceOnUse" x1="-0.02" y1="29.99" x2="59.94" y2="29.99"><stop offset="0.0%" stop-color="rgb(0,169,206)" stop-opacity="1.000"/><stop offset="41.0%" stop-color="rgb(0,167,203)" stop-opacity="1.000"/><stop offset="66.0%" stop-color="rgb(0,159,195)" stop-opacity="1.000"/><stop offset="86.0%" stop-color="rgb(0,145,181)" stop-opacity="1.000"/><stop offset="100.0%" stop-color="rgb(0,131,166)" stop-opacity="1.000"/></linearGradient><linearGradient id="g15" gradientUnits="userSpaceOnUse" x1="0.06" y1="30.03" x2="59.98" y2="30.03"><stop offset="0.0%" stop-color="rgb(255,163,0)" stop-opacity="1.000"/><stop offset="35.0%" stop-color="rgb(252,162,0)" stop-opacity="1.000"/><stop offset="56.0%" stop-color="rgb(244,157,0)" stop-opacity="1.000"/><stop offset="73.0%" stop-color="rgb(230,150,0)" stop-opacity="1.000"/><stop offset="89.0%" stop-color="rgb(210,139,0)" stop-opacity="1.000"/><stop offset="100.0%" stop-color="rgb(189,128,0)" stop-opacity="1.000"/></linearGradient><linearGradient id="g16" gradientUnits="userSpaceOnUse" x1="0.11" y1="30.00" x2="60.10" y2="30.00"><stop offset="0.0%" stop-color="rgb(0,177,64)" stop-opacity="1.000"/><stop offset="39.0%" stop-color="rgb(0,174,64)" stop-opacity="1.000"/><stop offset="62.0%" stop-color="rgb(1,166,62)" stop-opacity="1.000"/><stop offset="82.0%" stop-color="rgb(2,152,59)" stop-opacity="1.000"/><stop offset="99.0%" stop-color="rgb(3,132,55)" stop-opacity="1.000"/><stop offset="100.0%" stop-color="rgb(3,130,55)" stop-opacity="1.000"/></linearGradient></defs><path d="M0 0L60 0L60 60L0 60L0 0Z" fill="rgb(22,92,125)" fill-opacity="1.000" fill-rule="nonzero" transform="matrix(1 0 0 1 0 0)"/><path d="M20.134 12.633L15.692 1.749C15.254 0.74 14.928 0 14.263 0C13.599 0 13.266 0.77 12.864 1.749L10.159 8.022L7.489 1.749C7.087 0.787 6.766 0 6.09 0C5.414 0 5.099 0.723 4.656 1.749L0.214 12.639C0.051 12.972 -0.021 13.342 0.005 13.712C0.032 14.082 0.156 14.439 0.365 14.745C0.575 15.051 0.861 15.296 1.196 15.456C1.531 15.616 1.902 15.684 2.271 15.653L4.23 15.653L4.23 18.131C4.23 18.559 4.4 18.97 4.703 19.273C5.006 19.575 5.417 19.745 5.845 19.745L6.428 19.745C6.856 19.745 7.267 19.575 7.57 19.273C7.873 18.97 8.043 18.559 8.043 18.131L8.043 16.918C8.046 16.875 8.046 16.832 8.043 16.79L8.043 15.624L10.008 15.624L10.2 15.624L10.387 15.624L12.357 15.624L12.357 16.79C12.354 16.832 12.354 16.875 12.357 16.918L12.357 18.131C12.357 18.559 12.527 18.97 12.83 19.273C13.133 19.575 13.544 19.745 13.972 19.745L14.555 19.745C14.983 19.744 15.393 19.573 15.695 19.271C15.998 18.968 16.168 18.558 16.17 18.131L16.17 15.653L18.123 15.653C18.493 15.684 18.865 15.616 19.201 15.457C19.536 15.297 19.823 15.051 20.033 14.743C20.242 14.436 20.366 14.079 20.392 13.708C20.418 13.338 20.345 12.966 20.181 12.633L20.134 12.633ZM8.294 14.446L6.813 14.446L6.813 18.131C6.813 18.239 6.77 18.343 6.693 18.419C6.617 18.496 6.513 18.539 6.405 18.539L5.822 18.539C5.714 18.539 5.61 18.496 5.533 18.419C5.457 18.343 5.414 18.239 5.414 18.131L5.414 16.662L5.414 14.446L2.271 14.446C2.1 14.479 1.922 14.46 1.761 14.394C1.599 14.327 1.46 14.216 1.361 14.072C1.262 13.928 1.206 13.759 1.201 13.584C1.196 13.409 1.242 13.237 1.333 13.088L5.764 2.227C5.828 2.093 5.956 1.796 6.078 1.539C6.166 1.714 6.265 1.941 6.381 2.215L9.506 9.567L8.311 12.639C8.188 12.924 8.123 13.231 8.12 13.541C8.117 13.851 8.176 14.159 8.294 14.446ZM10.911 14.044C10.83 14.164 10.721 14.263 10.593 14.331C10.465 14.399 10.322 14.434 10.177 14.434C10.032 14.434 9.889 14.399 9.761 14.331C9.633 14.263 9.523 14.164 9.442 14.044C9.366 13.894 9.327 13.728 9.327 13.56C9.327 13.392 9.366 13.226 9.442 13.076L10.177 11.193L10.935 13.082C11.005 13.233 11.04 13.399 11.036 13.566C11.032 13.733 10.989 13.896 10.911 14.044ZM18.991 14.044C18.881 14.177 18.74 14.281 18.581 14.347C18.421 14.413 18.248 14.439 18.076 14.423L14.922 14.423L14.922 18.107C14.922 18.216 14.879 18.319 14.803 18.396C14.726 18.472 14.622 18.515 14.514 18.515L13.931 18.515C13.823 18.515 13.719 18.472 13.642 18.396C13.566 18.319 13.523 18.216 13.523 18.107L13.523 14.446L12.06 14.446C12.18 14.16 12.242 13.853 12.242 13.543C12.242 13.232 12.18 12.925 12.06 12.639L10.824 9.567L13.989 2.215C14.106 1.935 14.205 1.714 14.287 1.539C14.415 1.79 14.543 2.087 14.596 2.215L19.003 13.076C19.084 13.229 19.126 13.399 19.126 13.572C19.126 13.744 19.084 13.915 19.003 14.067L18.991 14.044Z" fill="rgb(255,255,255)" fill-opacity="1.000" fill-rule="nonzero" transform="matrix(1 0 0 1 21.2428 19.1076)"/><path d="M24.759 8.634C23.182 10.332 21.272 11.686 19.147 12.611C17.022 13.536 14.729 14.012 12.412 14.009C11.899 14.009 11.386 14.009 10.884 13.939C7.293 14.892 3.497 14.729 0 13.473C2.321 16.478 5.523 18.683 9.159 19.78C12.795 20.877 16.682 20.811 20.278 19.591C23.874 18.371 27 16.058 29.217 12.975C31.435 9.892 32.634 6.194 32.647 2.396C32.648 1.595 32.595 0.794 32.489 0C30.917 3.64 28.204 6.67 24.759 8.634Z" fill="url(#g14)" fill-rule="nonzero" transform="matrix(1 0 0 1 18.9847 31.3968)"/><path d="M10.325 5.931C12.956 6.382 15.442 7.45 17.581 9.047C19.72 10.644 21.451 12.725 22.631 15.119C25.341 17.919 27.078 21.516 27.587 25.379C29.157 21.701 29.474 17.608 28.488 13.731C27.501 9.855 25.267 6.41 22.13 3.929C18.993 1.448 15.126 0.068 11.127 0.002C7.127 -0.064 3.218 1.188 0 3.564C0.431 3.564 0.857 3.523 1.294 3.523C4.463 3.522 7.577 4.352 10.325 5.931Z" fill="url(#g15)" fill-rule="nonzero" transform="matrix(1 0 0 1 23.9225 6)"/><path d="M4.53 7.433C4.532 11.696 2.912 15.799 0 18.912C3.461 16.949 6.187 13.912 7.765 10.26C7.257 6.397 5.519 2.8 2.81 0C3.945 2.313 4.534 4.856 4.53 7.433Z" fill="rgb(136,107,37)" fill-opacity="1.000" fill-rule="nonzero" transform="matrix(1 0 0 1 43.7437 21.1189)"/><path d="M8.23 23.756C7.556 21.46 7.378 19.046 7.706 16.675C8.035 14.305 8.863 12.031 10.136 10.004C11.197 5.995 13.59 2.467 16.922 0C12.758 0.297 8.821 2.015 5.772 4.868C2.723 7.72 0.746 11.533 0.173 15.669C-0.401 19.805 0.463 24.012 2.621 27.586C4.779 31.161 8.099 33.886 12.025 35.305C9.58 32.131 8.253 28.236 8.253 24.229C8.224 24.06 8.23 23.908 8.23 23.756Z" fill="url(#g16)" fill-rule="nonzero" transform="matrix(1 0 0 1 7 9.5643)"/><path d="M14.65 12.015C11.286 11.709 8.091 10.401 5.479 8.258C2.867 6.116 0.958 3.239 0 0C0 0.152 0 0.303 0 0.455C0 4.462 1.326 8.357 3.772 11.531C7.269 12.788 11.065 12.95 14.656 11.998L14.65 12.015Z" fill="rgb(0,125,138)" fill-opacity="1.000" fill-rule="nonzero" transform="matrix(1 0 0 1 15.2302 33.3206)"/><path d="M0 10.051C1.781 7.232 4.356 5.004 7.4 3.645C10.445 2.286 13.823 1.858 17.11 2.414C14.355 0.828 11.23 -0.005 8.051 0C7.614 0 7.188 0 6.757 0.041C3.434 2.514 1.051 6.044 0 10.051Z" fill="rgb(0,112,65)" fill-opacity="1.000" fill-rule="nonzero" transform="matrix(1 0 0 1 17.1365 9.5176)"/></svg>