<svg xmlns="http://www.w3.org/2000/svg" viewBox="0 0 130 60" width="130" height="60"><defs><linearGradient id="g20" gradientUnits="userSpaceOnUse" x1="-0.05" y1="29.99" x2="129.86" y2="29.99"><stop offset="0.0%" stop-color="rgb(0,169,206)" stop-opacity="1.000"/><stop offset="41.0%" stop-color="rgb(0,167,203)" stop-opacity="1.000"/><stop offset="66.0%" stop-color="rgb(0,159,195)" stop-opacity="1.000"/><stop offset="86.0%" stop-color="rgb(0,145,181)" stop-opacity="1.000"/><stop offset="100.0%" stop-color="rgb(0,131,166)" stop-opacity="1.000"/></linearGradient><linearGradient id="g21" gradientUnits="userSpaceOnUse" x1="0.13" y1="30.03" x2="129.95" y2="30.03"><stop offset="0.0%" stop-color="rgb(255,163,0)" stop-opacity="1.000"/><stop offset="35.0%" stop-color="rgb(252,162,0)" stop-opacity="1.000"/><stop offset="56.0%" stop-color="rgb(244,157,0)" stop-opacity="1.000"/><stop offset="73.0%" stop-color="rgb(230,150,0)" stop-opacity="1.000"/><stop offset="89.0%" stop-color="rgb(210,139,0)" stop-opacity="1.000"/><stop offset="100.0%" stop-color="rgb(189,128,0)" stop-opacity="1.000"/></linearGradient><linearGradient id="g22" gradientUnits="userSpaceOnUse" x1="0.24" y1="30.00" x2="130.22" y2="30.00"><stop offset="0.0%" stop-color="rgb(0,177,64)" stop-opacity="1.000"/><stop offset="39.0%" stop-color="rgb(0,174,64)" stop-opacity="1.000"/><stop offset="62.0%" stop-color="rgb(1,166,62)" stop-opacity="1.000"/><stop offset="82.0%" stop-color="rgb(2,152,59)" stop-opacity="1.000"/><stop offset="99.0%" stop-color="rgb(3,132,55)" stop-opacity="1.000"/><stop offset="100.0%" stop-color="rgb(3,130,55)" stop-opacity="1.000"/></linearGradient></defs><path d="M0 0L130 0L130 60L0 60L0 0Z" fill="rgb(255,255,255)" fill-opacity="1.000" fill-rule="nonzero" transform="matrix(1 0 0 1 0 0)"/><path d="M8.108 11.913C7.68 13.229 7.003 13.754 6.008 13.754C5.014 13.754 4.347 13.27 3.905 11.913L0 0L2.946 0L6.033 10.504L9.14 0L11.982 0L8.108 11.913Z" fill="rgb(22,92,125)" fill-opacity="1.000" fill-rule="nonzero" transform="matrix(1 0 0 1 38.9273 21.8178)"/><path d="M0 0L2.762 0L2.762 13.616L0 13.616L0 0Z" fill="rgb(22,92,125)" fill-opacity="1.000" fill-rule="nonzero" transform="matrix(1 0 0 1 52.4635 21.8178)"/><path d="M0 13.757L4.051 1.899C4.506 0.566 5.242 0 6.288 0C7.334 0 8.07 0.604 8.508 1.899L12.486 13.757L9.555 13.757L8.519 10.384L3.867 10.384L2.852 13.757L0 13.757ZM7.866 8.263L6.171 2.759L4.506 8.263L7.866 8.263Z" fill="rgb(22,92,125)" fill-opacity="1.000" fill-rule="nonzero" transform="matrix(1 0 0 1 56.7972 21.6762)"/><path d="M9.199 13.489C8.034 13.773 6.838 13.91 5.639 13.896C1.115 13.896 0 11.783 0 6.948C0 2.114 1.122 0.001 5.639 0.001C6.838 -0.012 8.035 0.127 9.199 0.415L8.954 2.549C8.026 2.396 7.087 2.317 6.147 2.314C2.876 2.314 2.818 4.272 2.818 6.948C2.818 9.625 2.863 11.583 6.147 11.583C7.085 11.581 8.021 11.504 8.947 11.351L9.199 13.489Z" fill="rgb(22,92,125)" fill-opacity="1.000" fill-rule="nonzero" transform="matrix(1 0 0 1 70.4612 21.6754)"/><path d="M2.762 13.757L0 13.757L0 0.376C1.464 0.123 2.948 -0.003 4.434 0C7.445 0 9.904 0.597 9.904 4.278C9.904 6.696 8.892 7.818 7.293 8.305L10.401 13.757L7.22 13.757L4.427 8.619C3.874 8.619 3.242 8.591 2.762 8.56L2.762 13.757ZM2.762 6.364C3.321 6.42 3.883 6.443 4.444 6.433C6.171 6.433 7.169 5.995 7.169 4.268C7.169 2.759 6.478 2.158 4.503 2.158C3.925 2.161 3.349 2.2 2.776 2.276L2.762 6.364Z" fill="rgb(22,92,125)" fill-opacity="1.000" fill-rule="nonzero" transform="matrix(1 0 0 1 81.6148 21.6762)"/><path d="M8.426 2.245L4.669 2.245C3.039 2.245 2.759 2.59 2.759 4.085L2.759 5.625L8.17 5.625L8.17 7.825L2.759 7.825L2.759 9.589C2.759 11.095 3.039 11.44 4.669 11.44L8.426 11.44L8.426 13.578C7.469 13.626 5.639 13.685 4.727 13.685C2.269 13.685 0 13.55 0 10.359L0 3.318C0 0.128 2.269 0 4.727 0C5.715 0 7.49 0.052 8.426 0.097L8.426 2.245Z" fill="rgb(22,92,125)" fill-opacity="1.000" fill-rule="nonzero" transform="matrix(1 0 0 1 93.8871 21.7832)"/><path d="M0 0.387C1.464 0.128 2.947 -0.002 4.434 0C9.538 0 10.442 2.321 10.442 6.948C10.442 11.575 9.538 13.895 4.434 13.895C2.948 13.899 1.464 13.775 0 13.522L0 0.387ZM2.762 2.355L2.762 11.54C3.19 11.607 3.622 11.641 4.054 11.64C7.642 11.64 7.673 9.607 7.673 6.948C7.673 4.289 7.642 2.262 4.054 2.262C3.622 2.265 3.191 2.296 2.762 2.355Z" fill="rgb(22,92,125)" fill-opacity="1.000" fill-rule="nonzero" transform="matrix(1 0 0 1 104.8405 21.6762)"/><path d="M0 0L2.762 0L2.762 13.616L0 13.616L0 0Z" fill="rgb(22,92,125)" fill-opacity="1.000" fill-rule="nonzero" transform="matrix(1 0 0 1 117.6584 21.8178)"/><path d="M3.37 5.29C2.96 5.381 2.541 5.426 2.12 5.425C0.418 5.425 0 4.6 0 2.718C0 0.836 0.421 0 2.12 0C2.54 -0.002 2.96 0.042 3.37 0.131L3.301 0.705C2.982 0.652 2.658 0.624 2.334 0.622C0.825 0.622 0.749 1.423 0.749 2.693C0.749 3.964 0.839 4.765 2.334 4.765C2.66 4.763 2.984 4.734 3.305 4.679L3.37 5.29Z" fill="rgb(22,92,125)" fill-opacity="1.000" fill-rule="nonzero" transform="matrix(1 0 0 1 38.948 39.5288)"/><path d="M0 2.707C0 0.784 0.456 0 2.048 0C3.64 0 4.092 0.784 4.092 2.707C4.092 4.631 3.643 5.414 2.048 5.414C0.452 5.414 0 4.627 0 2.707ZM3.35 2.707C3.35 1.474 3.305 0.611 2.048 0.611C0.791 0.611 0.746 1.474 0.746 2.707C0.746 3.94 0.787 4.8 2.048 4.8C3.308 4.8 3.35 3.937 3.35 2.707Z" fill="rgb(22,92,125)" fill-opacity="1.000" fill-rule="nonzero" transform="matrix(1 0 0 1 43.1091 39.5392)"/><path d="M0 2.707C0 0.784 0.452 0 2.048 0C3.643 0 4.092 0.784 4.092 2.707C4.092 4.631 3.643 5.414 2.048 5.414C0.452 5.414 0 4.627 0 2.707ZM3.35 2.707C3.35 1.474 3.305 0.611 2.048 0.611C0.791 0.611 0.746 1.474 0.746 2.707C0.746 3.94 0.787 4.8 2.048 4.8C3.308 4.8 3.35 3.937 3.35 2.707Z" fill="rgb(22,92,125)" fill-opacity="1.000" fill-rule="nonzero" transform="matrix(1 0 0 1 48.2473 39.5392)"/><path d="M0.729 5.359L0 5.359L0 0.131C0.539 0.044 1.084 0 1.63 0C2.762 0 3.684 0.231 3.684 1.623C3.684 3.015 2.859 3.28 1.689 3.28C1.412 3.28 0.977 3.28 0.729 3.249L0.729 5.359ZM0.729 2.649C1.028 2.681 1.329 2.696 1.63 2.693C2.479 2.693 2.956 2.479 2.956 1.623C2.956 0.884 2.611 0.587 1.654 0.587C1.345 0.587 1.035 0.608 0.729 0.649L0.729 2.649Z" fill="rgb(22,92,125)" fill-opacity="1.000" fill-rule="nonzero" transform="matrix(1 0 0 1 53.5167 39.5392)"/><path d="M3.08 0.604L1.727 0.604C0.874 0.604 0.729 0.77 0.729 1.53L0.729 2.32L2.977 2.32L2.977 2.911L0.729 2.911L0.729 3.802C0.729 4.565 0.874 4.724 1.727 4.724L3.08 4.724L3.08 5.297C2.68 5.318 2.134 5.332 1.751 5.332C0.843 5.332 0 5.283 0 4.123L0 1.212C0 0.048 0.843 0 1.751 0C2.096 0 2.673 0 3.08 0.035L3.08 0.604Z" fill="rgb(22,92,125)" fill-opacity="1.000" fill-rule="nonzero" transform="matrix(1 0 0 1 58.1336 39.5806)"/><path d="M0 5.359L0 0.131C0.539 0.045 1.084 0.001 1.63 0C2.756 0 3.702 0.218 3.702 1.602C3.702 2.607 3.232 3.021 2.51 3.17L3.76 5.359L2.894 5.359L1.73 3.236L1.692 3.236C1.416 3.236 0.981 3.215 0.732 3.201L0.732 5.359L0 5.359ZM0.732 2.597C1.03 2.628 1.33 2.642 1.63 2.638C2.472 2.638 2.959 2.428 2.959 1.602C2.959 0.87 2.614 0.587 1.657 0.587C1.348 0.589 1.039 0.609 0.732 0.649L0.732 2.597Z" fill="rgb(22,92,125)" fill-opacity="1.000" fill-rule="nonzero" transform="matrix(1 0 0 1 62.3326 39.5392)"/><path d="M0 5.35L1.706 0.515C1.73 0.371 1.805 0.24 1.916 0.146C2.028 0.052 2.169 0 2.315 0C2.461 0 2.603 0.052 2.714 0.146C2.826 0.24 2.9 0.371 2.925 0.515L4.603 5.35L3.83 5.35L3.336 3.879L1.24 3.879L0.749 5.35L0 5.35ZM3.142 3.305L2.283 0.747L1.43 3.305L3.142 3.305Z" fill="rgb(22,92,125)" fill-opacity="1.000" fill-rule="nonzero" transform="matrix(1 0 0 1 66.7111 39.5489)"/><path d="M3.498 0.597L2.117 0.597L2.117 5.304L1.381 5.304L1.381 0.597L0 0.597L0 0L3.501 0L3.498 0.597Z" fill="rgb(22,92,125)" fill-opacity="1.000" fill-rule="nonzero" transform="matrix(1 0 0 1 71.7285 39.5944)"/><path d="M0 0L0.732 0L0.732 5.304L0 5.304L0 0Z" fill="rgb(22,92,125)" fill-opacity="1.000" fill-rule="nonzero" transform="matrix(1 0 0 1 76.0725 39.5944)"/><path d="M2.762 4.834C2.642 5.18 2.462 5.345 2.189 5.345C1.916 5.345 1.737 5.197 1.616 4.834L0 0L0.777 0L2.2 4.489L3.636 0L4.382 0L2.762 4.834Z" fill="rgb(22,92,125)" fill-opacity="1.000" fill-rule="nonzero" transform="matrix(1 0 0 1 77.6644 39.6083)"/><path d="M0 5.35L1.706 0.515C1.73 0.371 1.805 0.24 1.916 0.146C2.028 0.052 2.169 0 2.315 0C2.461 0 2.603 0.052 2.714 0.146C2.826 0.24 2.9 0.371 2.925 0.515L4.603 5.35L3.83 5.35L3.336 3.879L1.24 3.879L0.749 5.35L0 5.35ZM3.142 3.305L2.283 0.747L1.43 3.305L3.142 3.305Z" fill="rgb(22,92,125)" fill-opacity="1.000" fill-rule="nonzero" transform="matrix(1 0 0 1 82.4746 39.5489)"/><path d="M0 5.35L1.706 0.515C1.73 0.371 1.805 0.24 1.916 0.146C2.028 0.052 2.169 0 2.315 0C2.461 0 2.603 0.052 2.714 0.146C2.826 0.24 2.9 0.371 2.925 0.515L4.603 5.35L3.83 5.35L3.336 3.879L1.236 3.879L0.746 5.35L0 5.35ZM3.142 3.305L2.272 0.747L1.419 3.305L3.142 3.305Z" fill="rgb(22,92,125)" fill-opacity="1.000" fill-rule="nonzero" transform="matrix(1 0 0 1 89.6122 39.5489)"/><path d="M0 0L0.732 0L0.732 5.304L0 5.304L0 0Z" fill="rgb(22,92,125)" fill-opacity="1.000" fill-rule="nonzero" transform="matrix(1 0 0 1 95.0854 39.5944)"/><path d="M2.99 5.29C2.586 5.29 2.103 5.318 1.751 5.318C0.846 5.318 0 5.269 0 4.109L0 0L0.736 0L0.736 3.798C0.736 4.558 0.877 4.72 1.73 4.72L2.99 4.72L2.99 5.29Z" fill="rgb(22,92,125)" fill-opacity="1.000" fill-rule="nonzero" transform="matrix(1 0 0 1 97.1054 39.5944)"/><path d="M0 2.707C0 0.784 0.456 0 2.048 0C3.64 0 4.092 0.784 4.092 2.707C4.092 4.631 3.643 5.414 2.048 5.414C0.452 5.414 0 4.627 0 2.707ZM3.35 2.707C3.35 1.474 3.305 0.611 2.048 0.611C0.791 0.611 0.746 1.474 0.746 2.707C0.746 3.94 0.787 4.8 2.048 4.8C3.308 4.8 3.35 3.937 3.35 2.707Z" fill="rgb(22,92,125)" fill-opacity="1.000" fill-rule="nonzero" transform="matrix(1 0 0 1 100.7278 39.5392)"/><path d="M0.718 1.347C0.718 2.013 1.064 2.11 1.847 2.331C2.745 2.583 3.291 2.939 3.291 3.892C3.291 5.007 2.6 5.414 1.405 5.414C0.941 5.418 0.478 5.372 0.024 5.276L0.097 4.679C0.527 4.743 0.96 4.779 1.395 4.786C2.086 4.786 2.545 4.634 2.545 3.916C2.545 3.287 2.086 3.142 1.478 2.956C0.546 2.673 0 2.414 0 1.447C0 0.356 0.646 0 1.809 0C2.273 0.003 2.735 0.048 3.191 0.135L3.122 0.715C2.766 0.657 2.408 0.624 2.048 0.618C1.426 0.618 0.718 0.68 0.718 1.347Z" fill="rgb(22,92,125)" fill-opacity="1.000" fill-rule="nonzero" transform="matrix(1 0 0 1 105.7521 39.5392)"/><path d="M11.926 7.483L9.295 1.036C9.036 0.439 8.842 0 8.449 0C8.055 0 7.858 0.456 7.62 1.036L6.018 4.751L4.436 1.036C4.198 0.466 4.008 0 3.607 0C3.207 0 3.02 0.428 2.758 1.036L0.127 7.486C0.03 7.684 -0.013 7.903 0.003 8.122C0.019 8.341 0.093 8.552 0.216 8.734C0.34 8.915 0.51 9.06 0.708 9.155C0.907 9.249 1.127 9.29 1.345 9.272L2.506 9.272L2.506 10.739C2.506 10.993 2.606 11.236 2.786 11.416C2.965 11.595 3.209 11.696 3.462 11.696L3.808 11.696C4.061 11.696 4.305 11.595 4.484 11.416C4.663 11.236 4.764 10.993 4.764 10.739L4.764 10.021C4.766 9.996 4.766 9.97 4.764 9.945L4.764 9.254L5.928 9.254L6.042 9.254L6.152 9.254L7.319 9.254L7.319 9.945C7.318 9.97 7.318 9.996 7.319 10.021L7.319 10.739C7.319 10.993 7.42 11.236 7.6 11.416C7.779 11.595 8.022 11.696 8.276 11.696L8.621 11.696C8.875 11.695 9.117 11.594 9.297 11.415C9.476 11.235 9.577 10.993 9.578 10.739L9.578 9.272L10.734 9.272C10.954 9.29 11.174 9.25 11.373 9.155C11.572 9.061 11.742 8.915 11.866 8.733C11.99 8.551 12.063 8.339 12.079 8.12C12.094 7.9 12.051 7.68 11.953 7.483L11.926 7.483ZM4.913 8.557L4.035 8.557L4.035 10.739C4.035 10.803 4.01 10.865 3.965 10.91C3.919 10.955 3.858 10.981 3.794 10.981L3.448 10.981C3.384 10.981 3.323 10.955 3.277 10.91C3.232 10.865 3.207 10.803 3.207 10.739L3.207 9.869L3.207 8.557L1.345 8.557C1.244 8.576 1.139 8.565 1.043 8.526C0.947 8.486 0.865 8.42 0.806 8.335C0.747 8.25 0.714 8.15 0.712 8.046C0.709 7.943 0.736 7.841 0.789 7.752L3.414 1.319C3.452 1.24 3.528 1.064 3.6 0.912C3.652 1.015 3.711 1.15 3.78 1.312L5.631 5.667L4.923 7.486C4.85 7.655 4.812 7.837 4.81 8.021C4.808 8.204 4.843 8.387 4.913 8.557ZM6.463 8.319C6.415 8.39 6.35 8.448 6.274 8.488C6.198 8.529 6.114 8.55 6.028 8.55C5.942 8.55 5.857 8.529 5.782 8.488C5.706 8.448 5.641 8.39 5.593 8.319C5.548 8.23 5.524 8.132 5.524 8.032C5.524 7.932 5.548 7.834 5.593 7.745L6.028 6.63L6.477 7.749C6.519 7.838 6.539 7.936 6.537 8.035C6.535 8.134 6.509 8.231 6.463 8.319ZM11.249 8.319C11.184 8.397 11.1 8.459 11.006 8.498C10.911 8.537 10.809 8.553 10.707 8.543L8.839 8.543L8.839 10.725C8.839 10.789 8.813 10.851 8.768 10.896C8.723 10.942 8.661 10.967 8.597 10.967L8.252 10.967C8.188 10.967 8.126 10.942 8.081 10.896C8.035 10.851 8.01 10.789 8.01 10.725L8.01 8.557L7.143 8.557C7.214 8.387 7.251 8.205 7.251 8.022C7.251 7.838 7.214 7.656 7.143 7.486L6.411 5.667L8.286 1.312C8.355 1.146 8.414 1.015 8.462 0.912C8.538 1.06 8.614 1.236 8.645 1.312L11.256 7.745C11.304 7.836 11.329 7.937 11.329 8.039C11.329 8.141 11.304 8.242 11.256 8.332L11.249 8.319Z" fill="rgb(22,92,125)" fill-opacity="1.000" fill-rule="nonzero" transform="matrix(1 0 0 1 17.4364 22.764)"/><path d="M14.665 5.114C13.731 6.12 12.6 6.922 11.341 7.47C10.083 8.018 8.724 8.3 7.352 8.298C7.048 8.298 6.744 8.298 6.447 8.256C4.32 8.821 2.071 8.724 0 7.98C1.375 9.76 3.272 11.067 5.425 11.716C7.579 12.366 9.881 12.327 12.011 11.604C14.141 10.881 15.992 9.511 17.306 7.685C18.619 5.859 19.33 3.669 19.337 1.419C19.338 0.945 19.307 0.47 19.244 0C18.313 2.156 16.706 3.951 14.665 5.114Z" fill="url(#g20)" fill-rule="nonzero" transform="matrix(1 0 0 1 16.0988 30.0431)"/><path d="M6.115 3.513C7.674 3.78 9.147 4.413 10.414 5.359C11.681 6.305 12.706 7.537 13.405 8.955C15.01 10.614 16.039 12.745 16.34 15.033C17.27 12.854 17.458 10.429 16.874 8.133C16.29 5.837 14.967 3.797 13.108 2.327C11.25 0.858 8.96 0.041 6.591 0.001C4.222 -0.038 1.906 0.704 0 2.111C0.256 2.111 0.508 2.087 0.767 2.087C2.644 2.086 4.488 2.578 6.115 3.513Z" fill="url(#g21)" fill-rule="nonzero" transform="matrix(1 0 0 1 19.0236 15)"/><path d="M2.683 4.403C2.684 6.928 1.725 9.358 0 11.202C2.05 10.04 3.665 8.24 4.6 6.077C4.298 3.789 3.269 1.659 1.664 0C2.337 1.37 2.685 2.876 2.683 4.403Z" fill="rgb(136,107,37)" fill-opacity="1.000" fill-rule="nonzero" transform="matrix(1 0 0 1 30.7642 23.9553)"/><path d="M4.875 14.071C4.476 12.711 4.37 11.282 4.565 9.877C4.759 8.473 5.25 7.126 6.004 5.926C6.632 3.551 8.05 1.461 10.024 0C7.557 0.176 5.225 1.194 3.419 2.883C1.613 4.573 0.442 6.831 0.102 9.281C-0.237 11.731 0.275 14.223 1.553 16.34C2.831 18.457 4.797 20.071 7.123 20.912C5.674 19.032 4.889 16.725 4.889 14.351C4.871 14.251 4.875 14.161 4.875 14.071Z" fill="url(#g22)" fill-rule="nonzero" transform="matrix(1 0 0 1 9 17.1112)"/><path d="M8.678 7.117C6.685 6.936 4.793 6.16 3.245 4.892C1.698 3.623 0.568 1.919 0 0C0 0.09 0 0.18 0 0.269C0 2.643 0.785 4.95 2.234 6.83C4.305 7.575 6.554 7.671 8.681 7.107L8.678 7.117Z" fill="rgb(0,125,138)" fill-opacity="1.000" fill-rule="nonzero" transform="matrix(1 0 0 1 13.8749 31.1827)"/><path d="M0 5.953C1.055 4.284 2.58 2.964 4.383 2.159C6.187 1.354 8.188 1.1 10.135 1.43C8.503 0.49 6.652 -0.003 4.769 0C4.51 0 4.258 0 4.002 0.024C2.034 1.489 0.623 3.58 0 5.953Z" fill="rgb(0,112,65)" fill-opacity="1.000" fill-rule="nonzero" transform="matrix(1 0 0 1 15.0041 17.0835)"/></svg>