<svg xmlns="http://www.w3.org/2000/svg" viewBox="0 0 60 60" width="60" height="60"><path d="M0 0L60 0L60 60L0 60L0 0Z" fill="rgb(255,255,255)" fill-opacity="1.000" fill-rule="nonzero" transform="matrix(1 0 0 1 0 0)"/><path d="M6.079 0L0 0L0.386 0.896L10.32 23.404L12.826 23.404L20.573 5.671L21.514 3.509L22.664 0.896L22.664 0L16.97 0L11.669 13.09L11.506 13.09L6.079 0Z" fill="rgb(45,81,115)" fill-opacity="1.000" fill-rule="nonzero" transform="matrix(1 0 0 1 15.3213 18.5962)"/><path d="M6.198 4.546L5.249 0L0 0L0.949 4.546L6.198 4.546ZM1.164 5.583L4.826 23.13L10.068 23.13L6.413 5.583L1.164 5.583Z" fill="rgb(247,147,58)" fill-opacity="1.000" fill-rule="nonzero" transform="matrix(1 0 0 1 35.4329 18.6032)"/></svg>