<svg xmlns="http://www.w3.org/2000/svg" viewBox="0 0 130 60" width="130" height="60"><path d="M0 0L130 0L130 60L0 60L0 0Z" fill="rgb(255,255,255)" fill-opacity="1.000" fill-rule="nonzero" transform="matrix(1 0 0 1 0 0)"/><path d="M3.791 0.185L0 0.185L0.24 0.743L6.436 14.781L7.999 14.781L12.831 3.722L13.418 2.373L14.135 0.743L14.135 0.185L10.584 0.185L7.278 8.349L7.176 8.349L3.791 0.185ZM28.315 14.615L32.199 14.615L31.926 14.079L25.407 0L23.817 0L17.316 14.079L17.316 14.615L20.927 14.615L21.773 12.8L27.469 12.8L28.315 14.615ZM26.272 9.646L22.97 9.646L24.603 5.855L26.272 9.646Z" fill="rgb(45,81,115)" fill-opacity="1.000" fill-rule="nonzero" transform="matrix(1 0 0 1 16.0024 19.2309)"/><path d="M0 7.397C0.023 12.306 3.736 14.776 7.412 14.758C10.486 14.758 13.728 13.151 14.264 9.069L10.63 9.069C10.237 10.616 8.979 11.396 7.412 11.396C5.225 11.378 3.819 9.521 3.819 7.397C3.819 5.01 5.243 3.38 7.412 3.38C8.961 3.38 10.052 4.04 10.57 5.504L14.204 5.504C13.644 1.648 10.403 0.018 7.412 0.018C3.736 0.018 0.023 2.493 0 7.397ZM24.82 0.185L15.799 0.185L15.799 14.615L25.005 14.615L25.005 11.336L19.475 11.336L19.475 8.801L24.385 8.801L24.385 5.523L19.475 5.523L19.475 3.482L24.82 3.482L24.82 0.185ZM36.083 9.503C39.736 7.028 38.705 0.208 33.027 0.185L26.692 0.185L26.692 14.615L30.387 14.615L30.387 10.366L32.306 10.366L34.784 14.615L39.26 14.615L38.913 14.079L36.083 9.503ZM33.027 7.088L30.387 7.088L30.387 3.482C31.251 3.482 32.162 3.463 33.027 3.482C35.135 3.505 35.029 7.088 33.027 7.088ZM43.213 3.482L43.213 14.615L46.865 14.615L46.865 3.482L50.393 3.482L50.393 0.185L39.662 0.185L39.662 3.482L43.213 3.482ZM60.02 14.615L63.631 14.615L63.631 14.079L57.112 0L55.521 0L49.02 14.079L48.747 14.615L52.636 14.615L53.482 12.8L59.174 12.8L60.02 14.615ZM57.976 9.646L54.679 9.646L56.307 5.855L57.976 9.646Z" fill="rgb(45,81,115)" fill-opacity="1.000" fill-rule="nonzero" transform="matrix(1 0 0 1 47.2306 19)"/><path d="M0 0L0.855 1.824L4.735 1.824L3.879 0L0 0Z" fill="rgb(247,147,58)" fill-opacity="1.000" fill-rule="nonzero" transform="matrix(1 0 0 1 106.3997 31.8)"/><path d="M3.865 2.835L3.274 0L0 0L0.592 2.835L3.865 2.835ZM0.726 3.482L3.01 14.425L6.279 14.425L3.999 3.482L0.726 3.482Z" fill="rgb(247,147,58)" fill-opacity="1.000" fill-rule="nonzero" transform="matrix(1 0 0 1 28.5464 19.4202)"/><path d="M1.276 3.888C1.498 3.888 1.678 3.837 1.817 3.74C1.951 3.643 2.021 3.463 2.021 3.195C2.021 3.066 2.002 2.955 1.965 2.868C1.928 2.78 1.882 2.711 1.817 2.655C1.757 2.604 1.683 2.567 1.6 2.544C1.512 2.526 1.419 2.512 1.318 2.512L0.92 2.512L0.92 3.888L1.276 3.888ZM1.184 1.875C1.438 1.875 1.623 1.829 1.743 1.736C1.859 1.644 1.919 1.491 1.919 1.274C1.919 1.057 1.863 0.9 1.757 0.813C1.651 0.725 1.484 0.679 1.253 0.679L0.92 0.679L0.92 1.875L1.184 1.875ZM1.54 0C1.729 0 1.9 0.018 2.062 0.06C2.224 0.097 2.358 0.162 2.474 0.249C2.589 0.342 2.682 0.462 2.742 0.61C2.807 0.757 2.839 0.942 2.839 1.159C2.839 1.404 2.783 1.616 2.668 1.796C2.552 1.972 2.377 2.092 2.15 2.156L2.15 2.17C2.404 2.203 2.608 2.309 2.756 2.493C2.904 2.678 2.982 2.923 2.982 3.228C2.982 3.408 2.955 3.579 2.908 3.74C2.862 3.902 2.783 4.045 2.668 4.165C2.557 4.285 2.409 4.382 2.229 4.456C2.048 4.53 1.822 4.567 1.554 4.567L0 4.567L0 0L1.54 0Z" fill="rgb(247,147,58)" fill-opacity="1.000" fill-rule="nonzero" transform="matrix(1 0 0 1 89.7175 36.4452)"/><path d="M2.224 2.844L1.785 0.794L1.771 0.794L1.332 2.844L2.224 2.844ZM2.349 0L3.556 4.567L2.599 4.567L2.386 3.602L1.17 3.602L0.957 4.567L0 4.567L1.207 0L2.349 0Z" fill="rgb(247,147,58)" fill-opacity="1.000" fill-rule="nonzero" transform="matrix(1 0 0 1 93.0835 36.4452)"/><path d="M2.178 3.126L2.187 3.126L2.187 0L3.033 0L3.033 4.567L1.984 4.567L0.86 1.367L0.846 1.367L0.846 4.567L0 4.567L0 0L1.063 0L2.178 3.126Z" fill="rgb(247,147,58)" fill-opacity="1.000" fill-rule="nonzero" transform="matrix(1 0 0 1 97.0876 36.4452)"/><path d="M0.925 1.829L0.934 1.829L2.099 0L3.098 0L1.859 1.958L3.241 4.567L2.201 4.567L1.262 2.692L0.925 3.209L0.925 4.567L0 4.567L0 0L0.925 0L0.925 1.829Z" fill="rgb(247,147,58)" fill-opacity="1.000" fill-rule="nonzero" transform="matrix(1 0 0 1 100.8883 36.4452)"/><path d="M0 0L0.92 0L0.92 4.567L0 4.567L0 0Z" fill="rgb(247,147,58)" fill-opacity="1.000" fill-rule="nonzero" transform="matrix(1 0 0 1 104.4993 36.4452)"/><path d="M2.178 3.126L2.187 3.126L2.187 0L3.033 0L3.033 4.567L1.984 4.567L0.855 1.367L0.846 1.367L0.846 4.567L0 4.567L0 0L1.063 0L2.178 3.126Z" fill="rgb(247,147,58)" fill-opacity="1.000" fill-rule="nonzero" transform="matrix(1 0 0 1 106.2332 36.4452)"/><path d="M2.048 1.182C2.03 1.094 1.997 1.011 1.956 0.937C1.91 0.863 1.859 0.799 1.789 0.753C1.725 0.702 1.646 0.679 1.549 0.679C1.327 0.679 1.17 0.799 1.073 1.048C0.971 1.293 0.925 1.704 0.925 2.276C0.925 2.549 0.934 2.794 0.948 3.015C0.966 3.237 0.999 3.426 1.04 3.583C1.087 3.736 1.151 3.856 1.235 3.939C1.318 4.022 1.424 4.063 1.558 4.063C1.614 4.063 1.674 4.05 1.738 4.022C1.808 3.99 1.868 3.943 1.923 3.883C1.984 3.828 2.03 3.749 2.071 3.657C2.108 3.565 2.127 3.459 2.127 3.334L2.127 2.868L1.517 2.868L1.517 2.193L3.01 2.193L3.01 4.655L2.33 4.655L2.33 4.23L2.321 4.23C2.21 4.41 2.076 4.534 1.919 4.613C1.762 4.687 1.577 4.724 1.359 4.724C1.077 4.724 0.846 4.673 0.67 4.576C0.495 4.479 0.356 4.327 0.254 4.124C0.153 3.916 0.088 3.666 0.055 3.366C0.018 3.066 0 2.715 0 2.318C0 1.935 0.028 1.598 0.074 1.311C0.125 1.02 0.208 0.78 0.328 0.586C0.448 0.392 0.606 0.245 0.8 0.148C0.999 0.051 1.244 0 1.54 0C2.044 0 2.404 0.125 2.626 0.374C2.848 0.623 2.959 0.979 2.959 1.445L2.076 1.445C2.076 1.358 2.067 1.27 2.048 1.182Z" fill="rgb(247,147,58)" fill-opacity="1.000" fill-rule="nonzero" transform="matrix(1 0 0 1 109.9876 36.3575)"/></svg>