<svg xmlns="http://www.w3.org/2000/svg" viewBox="0 0 130 60" width="130" height="60"><path d="M0 0L130 0L130 60L0 60L0 0Z" fill="rgb(255,255,255)" fill-opacity="1.000" fill-rule="nonzero" transform="matrix(1 0 0 1 0 0)"/><path d="M10.455 12.625C10.792 12.367 11.035 12.006 11.146 11.597L12.406 7.063L14.367 0L18.997 0L16.833 7.063L14.796 13.676C14.48 14.724 13.831 15.643 12.947 16.293C12.062 16.944 10.989 17.291 9.889 17.283L5.309 17.283L2.164 7.063L0 0L4.629 0L6.59 7.063L8.252 13.026L9.258 13.026C9.691 13.033 10.114 12.892 10.455 12.625Z" fill="rgb(111,111,132)" fill-opacity="1.000" fill-rule="nonzero" transform="matrix(1 0 0 1 48.0648 26.8094)"/><path d="M0 3.381L0 0L4.125 0L4.125 3.381L0 3.381ZM0.1 17.283L0.1 4.759L4.125 4.759L4.125 17.283L0.1 17.283Z" fill="rgb(111,111,132)" fill-opacity="1.000" fill-rule="nonzero" transform="matrix(1 0 0 1 68.8505 26.8094)"/><path d="M4.027 0.583L4.027 1.206C4.272 1.017 4.533 0.85 4.807 0.706C5.108 0.549 5.424 0.423 5.75 0.33C6.109 0.224 6.474 0.143 6.844 0.088C7.261 0.027 7.682 -0.002 8.103 0.001L9.11 0.001C9.934 -0.01 10.753 0.147 11.514 0.461C12.186 0.743 12.794 1.155 13.303 1.674C13.787 2.175 14.167 2.767 14.421 3.416C14.681 4.074 14.813 4.775 14.811 5.482L14.811 12.796L10.796 12.796L10.796 5.441C10.797 5.135 10.75 4.83 10.657 4.539C10.569 4.262 10.418 4.009 10.216 3.799C9.996 3.577 9.73 3.407 9.436 3.299C9.074 3.166 8.69 3.102 8.303 3.11L7.475 3.11C6.802 3.078 6.129 3.185 5.499 3.423C5.112 3.58 4.765 3.819 4.481 4.124C4.29 4.329 4.156 4.58 4.091 4.852C4.061 4.993 4.039 5.135 4.027 5.279L4.027 12.767L0 12.767L0 0.255L3.696 0.255C3.739 0.255 3.782 0.263 3.823 0.279C3.863 0.296 3.899 0.32 3.93 0.35C3.961 0.381 3.985 0.417 4.002 0.457C4.019 0.497 4.027 0.539 4.027 0.583Z" fill="rgb(111,111,132)" fill-opacity="1.000" fill-rule="nonzero" transform="matrix(1 0 0 1 76.4215 31.3132)"/><path d="M12.314 0L16.351 0L16.351 17.283L13.069 17.283L12.826 15.856C12.251 16.37 11.592 16.78 10.876 17.069C10.008 17.409 9.081 17.574 8.148 17.554L6.486 17.554C5.615 17.557 4.749 17.414 3.925 17.132C3.176 16.887 2.48 16.501 1.876 15.995C1.301 15.507 0.833 14.906 0.505 14.229C0.163 13.517 -0.01 12.737 0 11.949L0 10.195C-0.007 9.396 0.174 8.607 0.529 7.891C0.876 7.196 1.365 6.582 1.964 6.086C2.594 5.571 3.314 5.176 4.089 4.922C4.937 4.64 5.826 4.501 6.72 4.509L8.103 4.509C8.904 4.497 9.701 4.629 10.455 4.897C11.12 5.138 11.744 5.48 12.304 5.911L12.314 0ZM12.314 12.198L12.314 9.693C12.266 9.489 12.176 9.298 12.051 9.13C11.852 8.85 11.599 8.612 11.308 8.429C10.908 8.175 10.473 7.98 10.017 7.852C9.399 7.68 8.759 7.599 8.119 7.609L7.514 7.609C7.052 7.606 6.591 7.66 6.143 7.772C5.744 7.867 5.368 8.038 5.034 8.274C4.721 8.501 4.47 8.802 4.303 9.149C4.118 9.554 4.028 9.995 4.04 10.44L4.04 11.568C4.03 11.983 4.107 12.396 4.264 12.781C4.412 13.125 4.642 13.43 4.932 13.668C5.251 13.924 5.619 14.111 6.013 14.219C6.489 14.351 6.981 14.415 7.475 14.408L8.106 14.408C8.758 14.423 9.408 14.334 10.031 14.144C10.489 14.004 10.921 13.793 11.313 13.518C11.597 13.324 11.841 13.077 12.031 12.79C12.152 12.607 12.247 12.408 12.314 12.198Z" fill="rgb(111,111,132)" fill-opacity="1.000" fill-rule="nonzero" transform="matrix(1 0 0 1 94.0005 26.8094)"/><path d="M0 3.381L0 0L4.115 0L4.115 3.381L0 3.381ZM0.1 17.283L0.1 4.759L4.115 4.759L4.115 17.283L0.1 17.283Z" fill="rgb(111,111,132)" fill-opacity="1.000" fill-rule="nonzero" transform="matrix(1 0 0 1 113.79 26.8094)"/><path d="M8.781 0L2.059 0C1.727 -0.005 1.398 0.071 1.102 0.221C0.806 0.372 0.552 0.594 0.362 0.865C0.172 1.137 0.053 1.452 0.014 1.78C-0.025 2.109 0.018 2.443 0.14 2.751L10.307 27.778L14.317 10.474C14.431 9.976 14.39 9.454 14.198 8.98L11.201 1.599C11.003 1.123 10.667 0.717 10.236 0.432C9.805 0.148 9.299 -0.003 8.781 0Z" fill="rgb(0,26,158)" fill-opacity="1.000" fill-rule="nonzero" transform="matrix(1 0 0 1 13 20.005)"/><path d="M22.622 0L15.164 0C14.638 -0.002 14.124 0.154 13.689 0.448C13.254 0.742 12.919 1.16 12.728 1.647L0 34.784L10.135 34.784C10.661 34.787 11.176 34.631 11.611 34.337C12.046 34.043 12.381 33.624 12.572 33.137L24.364 2.445C24.466 2.168 24.499 1.871 24.459 1.578C24.42 1.286 24.31 1.007 24.139 0.767C23.967 0.526 23.74 0.331 23.475 0.197C23.211 0.063 22.918 -0.004 22.622 0Z" fill="rgb(0,163,255)" fill-opacity="1.000" fill-rule="nonzero" transform="matrix(1 0 0 1 23.3145 13)"/></svg>