<svg xmlns="http://www.w3.org/2000/svg" viewBox="0 0 60 60" width="60" height="60"><path d="M0 0L60 0L60 60L0 60L0 0Z" fill="rgb(0,163,255)" fill-opacity="1.000" fill-rule="nonzero" transform="matrix(1 0 0 1 0 0)"/><path d="M10.296 0L2.415 0C2.025 -0.006 1.639 0.083 1.292 0.26C0.945 0.437 0.647 0.696 0.424 1.015C0.202 1.334 0.062 1.702 0.016 2.088C-0.029 2.473 0.021 2.864 0.164 3.226L12.084 32.57L16.787 12.281C16.921 11.696 16.872 11.085 16.646 10.529L13.133 1.875C12.901 1.317 12.507 0.841 12.002 0.507C11.496 0.173 10.903 -0.003 10.296 0Z" fill="rgb(0,26,158)" fill-opacity="1.000" fill-rule="nonzero" transform="matrix(1 0 0 1 10 17.2134)"/><path d="M26.524 0L17.78 0C17.163 -0.003 16.561 0.18 16.051 0.525C15.541 0.869 15.148 1.36 14.923 1.931L0 40.784L11.884 40.784C12.5 40.787 13.103 40.605 13.614 40.26C14.124 39.915 14.516 39.424 14.74 38.853L28.567 2.867C28.686 2.542 28.725 2.193 28.679 1.851C28.633 1.508 28.503 1.181 28.302 0.899C28.101 0.617 27.834 0.388 27.525 0.231C27.215 0.074 26.872 -0.005 26.524 0Z" fill="rgb(255,255,255)" fill-opacity="1.000" fill-rule="nonzero" transform="matrix(1 0 0 1 22.0938 9)"/></svg>