<svg xmlns="http://www.w3.org/2000/svg" viewBox="0 0 60 60" width="60" height="60"><path d="M0 0L60 0L60 60L0 60L0 0Z" fill="rgb(23,43,133)" fill-opacity="1.000" fill-rule="nonzero" transform="matrix(1 0 0 1 0 0)"/><path d="M12.251 15.516L8.01 15.516L4.83 3.385C4.679 2.827 4.358 2.333 3.887 2.101C2.711 1.516 1.414 1.051 0 0.817L0 0.35L6.831 0.35C7.774 0.35 8.481 1.051 8.599 1.866L10.249 10.617L14.488 0.35L18.61 0.35L12.251 15.516ZM20.968 15.516L16.963 15.516L20.26 0.35L24.265 0.35L20.968 15.516ZM29.447 4.551C29.565 3.735 30.272 3.267 31.097 3.267C32.393 3.15 33.805 3.385 34.984 3.967L35.691 0.702C34.512 0.235 33.216 0 32.039 0C28.152 0 25.324 2.101 25.324 5.016C25.324 7.235 27.327 8.399 28.742 9.101C30.272 9.8 30.861 10.268 30.743 10.967C30.743 12.016 29.565 12.484 28.388 12.484C26.974 12.484 25.56 12.134 24.265 11.549L23.558 14.817C24.972 15.399 26.502 15.634 27.917 15.634C32.275 15.749 34.984 13.65 34.984 10.5C34.984 6.533 29.447 6.3 29.447 4.551ZM49 15.516L45.82 0.35L42.404 0.35C41.697 0.35 40.99 0.817 40.754 1.516L34.866 15.516L38.989 15.516L39.812 13.3L44.877 13.3L45.349 15.516L49 15.516ZM42.994 4.434L44.17 10.15L40.872 10.15L42.994 4.434Z" fill="rgb(255,255,255)" fill-opacity="1.000" fill-rule="evenodd" transform="matrix(1 0 0 1 5 22)"/></svg>