<svg xmlns="http://www.w3.org/2000/svg" viewBox="0 0 60 60" width="60" height="60"><path d="M0 0L60 0L60 60L0 60L0 0Z" fill="rgb(54,38,77)" fill-opacity="1.000" fill-rule="nonzero" transform="matrix(1 0 0 1 0 0)"/><path d="M5.068 0C3.805 0 2.941 0.589 2.412 1.766L2.304 1.766C2.304 1.281 2.304 0.727 2.304 0L0 0L0 8.657L2.304 8.657L2.304 2.026L5.836 2.026L5.836 0L5.068 0Z" fill="rgb(255,255,255)" fill-opacity="1.000" fill-rule="nonzero" transform="matrix(1 0 0 1 46.1638 26.9088)"/><path d="M4.846 8.397L4.744 8.397L2.389 0L0 0L2.491 8.657L7.099 8.657L9.625 0L7.235 0L4.846 8.397Z" fill="rgb(255,255,255)" fill-opacity="1.000" fill-rule="nonzero" transform="matrix(1 0 0 1 7 26.9434)"/><path d="M4.403 0C1.689 0 0 1.714 0 4.467C0 7.22 1.689 8.934 4.403 8.934C7.116 8.934 8.805 7.22 8.805 4.467C8.805 1.714 7.116 0 4.403 0ZM4.403 7.03C3.123 7.03 2.389 6.095 2.389 4.467C2.389 2.84 3.123 1.905 4.403 1.905C5.683 1.905 6.416 2.84 6.416 4.467C6.416 6.095 5.683 7.03 4.403 7.03Z" fill="rgb(255,255,255)" fill-opacity="1.000" fill-rule="nonzero" transform="matrix(1 0 0 1 16.8805 26.8049)"/><path d="M0.256 2.834C1.519 2.643 2.304 1.801 2.304 0.519L2.304 0L0 0L0 9.211C0 10.735 0.836 11.601 2.304 11.601L4.522 11.601L4.522 9.696L2.304 9.696L2.304 4.796L4.522 4.796L4.522 2.943C3.259 2.943 2.014 2.943 0.256 2.943L0.256 2.834Z" fill="rgb(255,255,255)" fill-opacity="1.000" fill-rule="nonzero" transform="matrix(1 0 0 1 31.2321 24)"/><path d="M2.304 0L0 0L0 8.657L2.304 8.657L2.304 0Z" fill="rgb(255,255,255)" fill-opacity="1.000" fill-rule="nonzero" transform="matrix(1 0 0 1 27.0512 26.9434)"/><path d="M4.232 0C1.621 0 0 1.714 0 4.467C0 7.22 1.621 8.934 4.232 8.934C6.433 8.934 7.969 7.705 8.225 5.714L5.887 5.714C5.734 6.545 5.119 7.03 4.232 7.03C3.171 7.03 2.526 6.256 2.409 4.9L8.225 4.9C8.259 4.779 8.276 4.45 8.276 4.121C8.276 1.576 6.724 0 4.232 0ZM2.404 4.034C2.507 2.672 3.155 1.905 4.232 1.905C5.29 1.905 5.887 2.684 5.887 4.034L2.404 4.034Z" fill="rgb(255,255,255)" fill-opacity="1.000" fill-rule="nonzero" transform="matrix(1 0 0 1 36.5222 26.8049)"/><path d="M2.304 0L0 0L0 2.13L2.304 2.13L2.304 0Z" fill="rgb(255,255,255)" fill-opacity="1.000" fill-rule="nonzero" transform="matrix(1 0 0 1 27.0512 24)"/></svg>