<svg xmlns="http://www.w3.org/2000/svg" viewBox="0 0 60 60" width="60" height="60"><path d="M0 0L60 0L60 60L0 60L0 0Z" fill="rgb(255,255,255)" fill-opacity="1.000" fill-rule="nonzero" transform="matrix(1 0 0 1 0 0)"/><path d="M37.767 37.518L5.808 37.518C2.601 37.518 0 34.934 0 31.748L0 0L31.958 0C35.165 0 37.766 2.584 37.766 5.77L37.766 37.518L37.767 37.518Z" fill="rgb(0,190,40)" fill-opacity="1.000" fill-rule="nonzero" transform="matrix(1 0 0 1 11.1162 10.741)"/><path d="M14.054 17.669L6.959 17.669C5.669 17.669 4.927 17.126 4.457 15.941L0 4.562L4.769 4.562C6.059 4.562 6.841 5.125 7.252 6.329L9.226 12.117L10.008 12.117L14.445 0L23.007 0C27.229 0 29.575 1.981 29.575 5.534C29.575 7.457 28.617 9.049 26.857 10.02C27.111 10.525 27.424 11.262 27.893 12.506C29.163 15.845 29.925 16.875 30.727 17.67L26.212 17.67C24.179 17.67 22.947 16.777 22.205 14.855L19.449 7.651C19.781 7.729 20.191 7.748 20.583 7.748C22.283 7.748 23.222 7.165 23.222 6.098C23.222 5.07 22.46 4.565 20.896 4.565L19.097 4.565L14.054 17.669Z" fill="rgb(255,255,255)" fill-opacity="1.000" fill-rule="nonzero" transform="matrix(1 0 0 1 14.617 21.7325)"/></svg>