<svg xmlns="http://www.w3.org/2000/svg" viewBox="0 0 60 60" width="60" height="60"><path d="M0 0L60 0L60 60L0 60L0 0Z" fill="rgb(255,255,255)" fill-opacity="1.000" fill-rule="nonzero" transform="matrix(1 0 0 1 0 0)"/><path d="M11.763 20.379C13.88 24.037 17.343 24.037 19.45 20.379L20.629 18.336L10.045 0L0 0L11.763 20.379Z" fill="rgb(255,221,0)" fill-opacity="1.000" fill-rule="nonzero" transform="matrix(1 0 0 1 9.9607 18.878)"/><path d="M20.666 12.552C19.896 13.88 18.076 13.88 17.306 12.552L10.055 0.009L0 0.009L11.782 20.388C13.898 24.046 17.352 24.046 19.469 20.388L27.351 6.731L23.47 0L13.425 0L20.666 12.552Z" fill="rgb(255,221,0)" fill-opacity="1.000" fill-rule="nonzero" transform="matrix(1 0 0 1 23.3576 18.8687)"/></svg>