<svg xmlns="http://www.w3.org/2000/svg" viewBox="0 0 130 60" width="130" height="60"><path d="M0 0L130 0L130 60L0 60L0 0Z" fill="rgb(255,255,255)" fill-opacity="1.000" fill-rule="nonzero" transform="matrix(1 0 0 1 0 0)"/><path d="M6.544 11.337C7.722 13.372 9.648 13.372 10.821 11.337L11.477 10.201L5.589 0L0 0L6.544 11.337Z" fill="rgb(255,221,0)" fill-opacity="1.000" fill-rule="nonzero" transform="matrix(1 0 0 1 9.2742 23.1365)"/><path d="M11.497 6.983C11.069 7.722 10.056 7.722 9.628 6.983L5.594 0.005L0 0.005L6.554 11.342C7.732 13.377 9.653 13.377 10.831 11.342L15.216 3.745L13.057 0L7.469 0L11.497 6.983Z" fill="rgb(255,221,0)" fill-opacity="1.000" fill-rule="nonzero" transform="matrix(1 0 0 1 16.7271 23.1313)"/><path d="M2.701 9.979L4.607 9.979L4.623 9.917C5.8 5.552 6.281 3.688 6.477 2.531C6.668 3.683 7.128 5.573 8.254 9.917L8.269 9.979L10.216 9.979L12.928 0L11.151 0L11.136 0.062C9.958 4.592 9.509 6.425 9.302 7.598C9.065 6.343 8.553 4.271 7.453 0.062L7.438 0L5.583 0L5.568 0.062C4.421 4.55 3.941 6.472 3.734 7.717C3.507 6.503 3.006 4.488 1.859 0.062L1.844 0L0 0L2.681 9.922L2.701 9.979Z" fill="rgb(0,0,0)" fill-opacity="1.000" fill-rule="nonzero" transform="matrix(1 0 0 1 35.2232 24.5413)"/><path d="M3.812 7.634C5.253 7.634 6.616 6.849 7.164 5.676L5.847 5.005L5.821 5.005L5.795 5.051C5.635 5.382 5.051 6.152 3.827 6.152C2.717 6.152 1.87 5.444 1.741 4.416L7.407 4.416L7.407 4.339C7.443 2.939 7.061 1.792 6.307 1.023C5.656 0.351 4.752 0 3.703 0C2.655 0 1.72 0.393 1.043 1.1C0.372 1.803 0 2.774 0 3.827C0 6.069 1.57 7.634 3.812 7.634ZM3.703 1.451C4.752 1.451 5.552 2.123 5.635 3.058L1.741 3.058C1.859 2.123 2.67 1.451 3.703 1.451Z" fill="rgb(0,0,0)" fill-opacity="1.000" fill-rule="nonzero" transform="matrix(1 0 0 1 47.3558 27.0257)"/><path d="M3.125 7.624C4.979 7.624 6.131 6.761 6.131 5.372C6.131 3.724 4.633 3.337 3.43 3.022C2.598 2.805 1.88 2.619 1.88 2.092C1.88 1.668 2.329 1.369 2.97 1.369C3.672 1.369 4.158 1.741 4.24 2.335L4.292 2.634L4.323 2.634L5.8 2.355C5.8 0.971 4.576 0 2.985 0C1.395 0 0.207 0.904 0.207 2.195C0.207 3.76 1.658 4.148 2.825 4.457C3.672 4.685 4.401 4.881 4.401 5.428C4.401 5.909 3.931 6.203 3.176 6.203C2.267 6.203 1.658 5.78 1.58 5.098L1.565 4.984L0 5.279C0.01 6.813 1.704 7.624 3.125 7.624Z" fill="rgb(0,0,0)" fill-opacity="1.000" fill-rule="nonzero" transform="matrix(1 0 0 1 55.222 27.036)"/><path d="M0.847 8.068C0.847 8.894 1.369 9.566 2.236 9.566C3.311 9.566 3.626 9.426 3.626 9.426L3.626 8.037C3.626 8.037 3.306 8.088 2.913 8.088C2.66 8.088 2.479 7.933 2.479 7.706L2.479 3.492L3.616 3.492L3.6 2.087L2.484 2.087L2.484 0L0.852 0.408L0.852 2.087L0 2.087L0 3.492L0.852 3.492L0.852 8.068L0.847 8.068Z" fill="rgb(0,0,0)" fill-opacity="1.000" fill-rule="nonzero" transform="matrix(1 0 0 1 61.8283 25.094)"/><path d="M1.436 0.974L1.436 0.044L0 0.044L0 7.384L1.725 7.384L1.71 2.896C1.73 2.446 1.885 2.1 2.159 1.868C2.521 1.563 3.089 1.46 3.838 1.563L3.925 1.573L3.941 0.044L3.869 0.034C2.841 -0.11 1.906 0.205 1.436 0.974Z" fill="rgb(0,0,0)" fill-opacity="1.000" fill-rule="nonzero" transform="matrix(1 0 0 1 74.0383 27.1362)"/><path d="M3.987 0C2.949 0 1.978 0.413 1.493 1.198L1.493 0.15L0 0.15L0 7.489L1.741 7.489L1.741 3.548C1.741 2.283 2.402 1.529 3.512 1.529C4.271 1.529 5.175 1.859 5.175 3.44L5.175 7.489L6.916 7.489L6.916 3.202C6.916 0.842 5.397 0 3.987 0Z" fill="rgb(0,0,0)" fill-opacity="1.000" fill-rule="nonzero" transform="matrix(1 0 0 1 78.6869 27.0309)"/><path d="M6.265 5.847C6.265 7.541 5.459 8.476 4.003 8.476C2.546 8.476 1.756 7.541 1.756 5.847L1.756 0L0 0L0 5.806C0 8.507 1.498 10.118 4.003 10.118C6.508 10.118 8.006 8.507 8.006 5.806L8.006 0L6.265 0L6.265 5.847Z" fill="rgb(0,0,0)" fill-opacity="1.000" fill-rule="nonzero" transform="matrix(1 0 0 1 88.6914 24.5413)"/><path d="M3.993 0C2.954 0 1.978 0.413 1.498 1.198L1.498 0.15L0 0.15L0 7.489L1.741 7.489L1.741 3.548C1.741 2.283 2.402 1.529 3.512 1.529C4.271 1.529 5.175 1.859 5.175 3.44L5.175 7.489L6.916 7.489L6.916 3.202C6.921 0.842 5.408 0 3.993 0Z" fill="rgb(0,0,0)" fill-opacity="1.000" fill-rule="nonzero" transform="matrix(1 0 0 1 97.7306 27.0309)"/><path d="M1.725 0L0 0L0 7.34L1.725 7.34L1.725 0Z" fill="rgb(0,0,0)" fill-opacity="1.000" fill-rule="nonzero" transform="matrix(1 0 0 1 105.7311 27.1807)"/><path d="M1.007 0C0.444 0 0 0.434 0 0.992C0 1.55 0.449 1.968 1.007 1.968C1.565 1.968 1.999 1.529 1.999 0.992C1.999 0.444 1.555 0 1.007 0Z" fill="rgb(0,0,0)" fill-opacity="1.000" fill-rule="nonzero" transform="matrix(1 0 0 1 105.5917 24.4742)"/><path d="M3.869 0C2.794 0 1.813 0.387 1.1 1.085C0.393 1.787 0 2.753 0 3.812C0 6.022 1.627 7.629 3.869 7.629C6.11 7.629 7.748 6.022 7.748 3.812C7.748 2.753 7.355 1.782 6.647 1.085C5.935 0.382 4.948 0 3.869 0ZM3.869 6.043C2.624 6.043 1.689 5.082 1.689 3.812C1.689 2.541 2.624 1.581 3.869 1.581C5.113 1.581 6.074 2.541 6.074 3.812C6.074 5.082 5.124 6.043 3.869 6.043Z" fill="rgb(0,0,0)" fill-opacity="1.000" fill-rule="nonzero" transform="matrix(1 0 0 1 108.2617 27.0309)"/><path d="M3.993 0C2.954 0 1.983 0.413 1.498 1.198L1.498 0.15L0 0.15L0 7.489L1.741 7.489L1.741 3.548C1.741 2.283 2.402 1.529 3.512 1.529C4.271 1.529 5.175 1.859 5.175 3.44L5.175 7.489L6.916 7.489L6.916 3.202C6.921 0.842 5.408 0 3.993 0Z" fill="rgb(0,0,0)" fill-opacity="1.000" fill-rule="nonzero" transform="matrix(1 0 0 1 116.8098 27.0309)"/><path d="M3.703 0C2.665 0 1.72 0.393 1.043 1.1C0.372 1.803 0 2.774 0 3.827C0 6.064 1.565 7.629 3.812 7.629C5.253 7.629 6.616 6.844 7.164 5.671L5.847 5L5.821 5L5.795 5.046C5.635 5.377 5.051 6.146 3.827 6.146C2.717 6.146 1.87 5.439 1.741 4.411L7.407 4.411L7.407 4.333C7.443 2.934 7.061 1.787 6.307 1.018C5.656 0.351 4.752 0 3.703 0ZM1.735 3.053C1.854 2.118 2.665 1.446 3.703 1.446C4.742 1.446 5.552 2.118 5.635 3.053L1.735 3.053Z" fill="rgb(0,0,0)" fill-opacity="1.000" fill-rule="nonzero" transform="matrix(1 0 0 1 65.8881 27.0309)"/></svg>