<svg xmlns="http://www.w3.org/2000/svg" viewBox="0 0 60 60" width="60" height="60"><path d="M0 0L60 0L60 60L0 60L0 0Z" fill="rgb(255,255,255)" fill-opacity="1.000" fill-rule="nonzero" transform="matrix(1 0 0 1 0 0)"/><path d="M7.666 15.502C11.9 15.502 15.333 12.032 15.333 7.751C15.333 3.47 11.9 0 7.666 0C3.432 0 0 3.47 0 7.751C0 12.032 3.432 15.502 7.666 15.502Z" fill="rgb(255,217,0)" fill-opacity="1.000" fill-rule="nonzero" transform="matrix(0 -1 1 0 38.4977 34.3327)"/><path d="M14.35 2.918C14.35 6.971 12.216 9.342 9.629 9.342C9.083 9.372 8.541 9.236 8.075 8.952C7.609 8.669 7.242 8.251 7.023 7.755C6.689 8.261 6.228 8.673 5.686 8.951C5.144 9.229 4.538 9.364 3.927 9.342C2.436 9.342 0.736 8.539 0.736 5.551L0.736 2.301C0.736 1.48 0 1.293 0 0.882L0 0.824C0.005 0.725 0.046 0.631 0.115 0.559C0.185 0.487 0.278 0.442 0.377 0.432L2.794 0.077C3.266 0.02 3.549 0.096 3.549 0.544L3.512 6.651C3.493 7.641 3.851 8.275 4.531 8.275C5.91 8.275 6.608 6.24 6.608 4.54L6.608 2.301C6.608 1.48 5.871 1.293 5.871 0.882L5.871 0.824C5.878 0.722 5.922 0.626 5.995 0.554C6.068 0.482 6.165 0.438 6.269 0.432L8.477 0.039C8.95 -0.035 9.252 0.097 9.252 0.544L9.193 6.595C9.175 7.641 9.477 8.275 10.232 8.275C11.554 8.275 12.895 6.24 12.895 4.298C12.895 2.692 11.177 2.598 11.177 1.16C11.17 1.002 11.197 0.843 11.258 0.696C11.318 0.549 11.409 0.417 11.525 0.307C11.641 0.198 11.78 0.114 11.931 0.062C12.083 0.01 12.244 -0.01 12.403 0.005C13.613 0.005 14.35 1.069 14.35 2.918Z" fill="rgb(0,0,0)" fill-opacity="1.000" fill-rule="nonzero" transform="matrix(1 0 0 1 5.0006 24.3969)"/><path d="M0 13.25L0 13.175C0 12.708 0.717 12.559 0.717 11.756L0.717 7.535C0.717 6.713 0 6.508 0 6.097L0 6.039C0 5.871 0.151 5.777 0.397 5.646L2.757 4.491C3.229 4.267 3.531 4.528 3.531 4.864L3.531 11.755C3.531 12.558 4.324 12.707 4.324 13.175L4.324 13.25C4.324 13.436 4.154 13.567 3.89 13.567L0.415 13.567C0.169 13.567 0 13.436 0 13.25ZM0.265 1.633C0.271 1.402 0.325 1.175 0.424 0.965C0.523 0.756 0.665 0.569 0.84 0.417C1.016 0.264 1.221 0.149 1.444 0.079C1.667 0.009 1.901 -0.015 2.134 0.009C2.365 -0.014 2.598 0.011 2.819 0.082C3.04 0.154 3.243 0.271 3.415 0.425C3.587 0.579 3.725 0.767 3.819 0.977C3.913 1.186 3.962 1.414 3.962 1.643C3.962 1.873 3.913 2.1 3.819 2.31C3.725 2.52 3.587 2.708 3.415 2.862C3.243 3.016 3.04 3.132 2.819 3.204C2.598 3.276 2.365 3.301 2.134 3.277C1.9 3.301 1.664 3.276 1.44 3.204C1.216 3.133 1.01 3.016 0.834 2.861C0.658 2.707 0.517 2.518 0.419 2.306C0.321 2.095 0.268 1.866 0.265 1.633Z" fill="rgb(0,0,0)" fill-opacity="1.000" fill-rule="nonzero" transform="matrix(1 0 0 1 20.9345 19.9853)"/><path d="M0 13.781L0 13.706C0 13.238 0.737 13.089 0.737 12.305L0.737 3.118C0.737 2.278 0 2.09 0 1.699L0 1.625C0 1.438 0.151 1.344 0.377 1.251L2.756 0.095C3.247 -0.148 3.531 0.114 3.531 0.432L3.531 12.309C3.531 13.093 4.343 13.242 4.343 13.71L4.343 13.785C4.343 13.972 4.154 14.102 3.908 14.102L0.433 14.102C0.172 14.098 0 13.968 0 13.781Z" fill="rgb(0,0,0)" fill-opacity="1.000" fill-rule="nonzero" transform="matrix(1 0 0 1 26.6172 19.4546)"/><path d="M0 13.781L0 13.706C0 13.238 0.736 13.089 0.736 12.305L0.736 3.118C0.736 2.278 0 2.09 0 1.699L0 1.625C0 1.438 0.151 1.344 0.377 1.251L2.756 0.095C3.247 -0.148 3.531 0.114 3.531 0.432L3.531 12.309C3.531 13.093 4.342 13.242 4.342 13.71L4.342 13.785C4.342 13.972 4.153 14.102 3.908 14.102L0.433 14.102C0.169 14.098 0 13.968 0 13.781Z" fill="rgb(0,0,0)" fill-opacity="1.000" fill-rule="nonzero" transform="matrix(1 0 0 1 32.2812 19.4546)"/><path d="M0 0L1.124 0C1.276 -0.003 1.427 0.02 1.571 0.067C1.687 0.105 1.794 0.166 1.885 0.246C1.967 0.32 2.031 0.411 2.072 0.512C2.113 0.615 2.134 0.725 2.134 0.836C2.135 0.934 2.115 1.032 2.076 1.122C2.041 1.201 1.994 1.274 1.936 1.338C1.884 1.395 1.824 1.443 1.757 1.481C1.703 1.513 1.643 1.535 1.581 1.545C1.661 1.557 1.74 1.578 1.815 1.606C2 1.675 2.151 1.813 2.236 1.99C2.289 2.107 2.314 2.234 2.31 2.362C2.315 2.514 2.282 2.665 2.212 2.801C2.15 2.916 2.059 3.013 1.949 3.084C1.828 3.16 1.694 3.212 1.554 3.237C1.393 3.267 1.23 3.282 1.066 3.281L0.002 3.281L0 0ZM1.051 1.368C1.125 1.367 1.199 1.358 1.271 1.341C1.341 1.323 1.408 1.294 1.469 1.255C1.529 1.215 1.578 1.163 1.614 1.102C1.652 1.033 1.671 0.955 1.668 0.876C1.672 0.793 1.653 0.71 1.614 0.637C1.579 0.578 1.529 0.529 1.469 0.494C1.408 0.459 1.34 0.436 1.271 0.426C1.198 0.414 1.125 0.408 1.051 0.408L0.46 0.408L0.46 1.368L1.051 1.368ZM1.036 2.87C1.126 2.87 1.216 2.865 1.305 2.856C1.394 2.847 1.48 2.823 1.561 2.787C1.638 2.751 1.704 2.696 1.752 2.627C1.801 2.538 1.826 2.439 1.826 2.338C1.826 2.237 1.801 2.138 1.752 2.049C1.706 1.978 1.643 1.918 1.569 1.876C1.493 1.833 1.409 1.804 1.323 1.79C1.237 1.776 1.15 1.768 1.064 1.768L0.457 1.768L0.457 2.869L1.036 2.87Z" fill="rgb(0,0,0)" fill-opacity="1.000" fill-rule="nonzero" transform="matrix(1 0 0 1 21.5532 36.7192)"/><path d="M1.298 0L1.785 0L3.083 3.281L2.551 3.281L2.208 2.366L0.845 2.366L0.502 3.281L0 3.281L1.298 0ZM2.064 1.964L1.526 0.523L0.984 1.964L2.064 1.964Z" fill="rgb(0,0,0)" fill-opacity="1.000" fill-rule="nonzero" transform="matrix(1 0 0 1 25.1533 36.7195)"/><path d="M0 0L0.483 0L2.294 2.563L2.294 0L2.761 0L2.761 3.281L2.283 3.281L0.468 0.714L0.468 3.281L0.001 3.281L0 0Z" fill="rgb(0,0,0)" fill-opacity="1.000" fill-rule="nonzero" transform="matrix(1 0 0 1 29.663 36.7195)"/><path d="M0 0L0.473 0L0.473 1.49L1.859 0L2.407 0L1.174 1.338L2.556 3.28L1.984 3.28L0.85 1.672L0.473 2.076L0.473 3.281L0 3.281L0 0Z" fill="rgb(0,0,0)" fill-opacity="1.000" fill-rule="nonzero" transform="matrix(1 0 0 1 34.1732 36.7195)"/></svg>