<svg xmlns="http://www.w3.org/2000/svg" viewBox="0 0 130 60" width="130" height="60"><path d="M0 0L130 0L130 60L0 60L0 0Z" fill="rgb(255,255,255)" fill-opacity="1.000" fill-rule="nonzero" transform="matrix(1 0 0 1 0 0)"/><path d="M52.088 0.318L57.851 0.318L54.951 21L49.189 21L52.088 0.318ZM44.823 0.318L40.934 12.232L39.238 0.318L35.207 0.318L30.115 12.197L29.48 0.319L23.894 0.319L25.838 21.001L30.47 21.001L36.197 7.921L38.212 21.001L42.773 21.001L50.303 0.318L44.823 0.318ZM93.205 12.339L79.522 12.339C79.593 15.026 81.202 16.793 83.57 16.793C85.356 16.793 86.77 15.838 87.866 14.018L92.484 16.117C90.897 19.245 87.552 21.283 83.429 21.283C77.808 21.283 74.078 17.5 74.078 11.419C74.078 4.737 78.462 0 84.649 0C90.094 0 93.523 3.677 93.523 9.404C93.523 10.359 93.416 11.313 93.205 12.339ZM88.079 8.378C88.079 5.975 86.735 4.454 84.579 4.454C82.351 4.454 80.513 6.045 80.017 8.378L88.079 8.378ZM5.881 6.551L0 13.425L10.503 13.425L11.683 10.184L7.183 10.184L9.932 7.004L9.941 6.92L8.153 3.842L16.198 3.842L9.962 21.001L14.229 21.001L21.76 0.317L2.306 0.317L5.882 6.55L5.881 6.551ZM67.219 4.454C69.251 4.454 71.032 5.548 72.588 7.422L73.405 1.591C71.957 0.61 69.995 0 67.396 0C62.235 0 59.335 3.023 59.335 6.858C59.335 9.519 60.821 11.145 63.26 12.197L64.426 12.727C66.601 13.656 67.184 14.115 67.184 15.096C67.184 16.112 66.203 16.758 64.71 16.758C62.243 16.767 60.246 15.503 58.744 13.346L57.91 19.287C59.623 20.591 61.817 21.283 64.709 21.283C69.615 21.283 72.628 18.454 72.628 14.53C72.628 11.861 71.444 10.147 68.457 8.803L67.184 8.202C65.416 7.415 64.816 6.983 64.816 6.116C64.816 5.18 65.638 4.454 67.219 4.454Z" fill="rgb(22,51,0)" fill-opacity="1.000" fill-rule="nonzero" transform="matrix(1 0 0 1 18 19.3585)"/></svg>