<svg xmlns="http://www.w3.org/2000/svg" viewBox="0 0 60 60" width="60" height="60"><path d="M0 0L60 0L60 60L0 60L0 0Z" fill="rgb(0,0,0)" fill-opacity="1.000" fill-rule="nonzero" transform="matrix(1 0 0 1 0 0)"/><path d="M47 0L0 0L0 42.572L47 42.572L47 0Z" fill="rgb(255,255,255)" fill-opacity="1.000" fill-rule="nonzero" transform="matrix(1 0 0 1 7 9)"/><path d="M34.233 32.885L39.556 32.885C41.547 32.885 42.932 31.972 42.932 30.104C42.932 28.237 41.547 27.324 39.556 27.324L34.233 27.324L34.233 32.885ZM34.233 42.572L41.331 42.572C45.096 42.572 47.043 40.617 47.043 36.838L47.043 32.885L46.914 32.885C45.831 36.186 43.018 37.185 39.686 37.185L34.406 37.185C34.276 37.185 34.233 37.229 34.233 37.359L34.233 42.572ZM24.236 30.104L29.689 35.404L29.689 24.805L24.236 30.104ZM5.713 42.572L29.689 42.572L29.689 41.356C29.689 39.227 30.425 38.011 32.112 37.359L32.112 37.229L25.404 37.229C25.058 37.229 24.928 37.185 24.669 36.925L21.163 33.276L17.528 36.968C17.354 37.142 17.225 37.229 16.878 37.229L11.469 37.229C11.166 37.229 11.166 37.055 11.339 36.881L18.263 30.148L11.209 23.284C11.036 23.11 11.079 22.937 11.382 22.937L16.835 22.937C17.138 22.937 17.268 22.98 17.441 23.197L21.249 27.02L24.842 23.197C25.015 23.024 25.145 22.937 25.404 22.937L39.643 22.937C42.932 22.937 45.831 24.023 46.914 27.324L47.043 27.324L47.043 5.734C47.043 1.955 45.096 0 41.331 0L5.713 0C1.948 0 0 1.955 0 5.734L0 36.881C0 40.617 1.948 42.572 5.713 42.572Z" fill="rgb(255,255,255)" fill-opacity="1.000" fill-rule="nonzero" transform="matrix(1 0 0 1 7 9)"/></svg>