<svg xmlns="http://www.w3.org/2000/svg" viewBox="0 0 130 60" width="130" height="60"><path d="M0 0L130 0L130 60L0 60L0 0Z" fill="rgb(255,255,255)" fill-opacity="1.000" fill-rule="nonzero" transform="matrix(1 0 0 1 0 0)"/><path d="M0 0L26 0L26 24L0 24L0 0Z" fill="rgb(40,40,40)" fill-opacity="1.000" fill-rule="nonzero" transform="matrix(1 0 0 1 18 18)"/><path d="M9.783 1.643C10.043 1.034 10.415 0.618 10.896 0.399C11.377 0.179 11.848 0.051 12.31 0.013C12.852 -0.025 13.423 0.023 14.024 0.156C12.741 3.092 11.587 5.721 10.564 8.046C10.123 9.038 9.687 10.018 9.255 10.99C8.824 11.962 8.437 12.838 8.096 13.62C7.754 14.401 7.469 15.049 7.238 15.564C7.007 16.079 6.871 16.374 6.832 16.45C6.55 17.059 6.18 17.48 5.718 17.708C5.256 17.937 4.796 18.069 4.334 18.109C3.792 18.166 3.22 18.109 2.619 17.937C2.861 17.404 3.121 16.821 3.401 16.193C3.642 15.64 3.917 15.006 4.228 14.292C4.539 13.577 4.874 12.82 5.235 12.019C5.174 11.886 5.049 11.61 4.858 11.191C4.667 10.772 4.447 10.267 4.197 9.676C3.945 9.085 3.665 8.442 3.354 7.747C3.043 7.052 2.737 6.351 2.437 5.646C1.714 3.988 0.903 2.159 0 0.158C0.601 0.024 1.174 -0.024 1.714 0.014C2.176 0.052 2.642 0.181 3.114 0.4C3.585 0.62 3.962 1.034 4.243 1.645C4.283 1.74 4.389 1.983 4.56 2.374C4.73 2.765 4.94 3.255 5.192 3.846C5.442 4.437 5.728 5.09 6.05 5.805C6.371 6.519 6.691 7.239 7.012 7.963C7.373 7.163 7.714 6.401 8.035 5.676C8.357 4.952 8.641 4.303 8.893 3.732C9.143 3.161 9.345 2.689 9.494 2.316C9.645 1.945 9.739 1.721 9.781 1.645L9.783 1.643Z" fill="rgb(40,40,40)" fill-opacity="1.000" fill-rule="nonzero" transform="matrix(1 0 0 1 58.528 23.7445)"/><path d="M11.344 10.632C11.586 10.766 11.815 10.995 12.035 11.319L12.126 11.404L12.035 11.49C11.374 12.177 10.585 12.715 9.673 13.106C8.759 13.497 7.773 13.692 6.71 13.692C5.788 13.692 4.919 13.515 4.108 13.164C3.295 12.81 2.578 12.32 1.956 11.692C1.355 11.083 0.877 10.362 0.526 9.533C0.175 8.705 0 7.814 0 6.86C0 5.906 0.155 5.017 0.467 4.187C0.778 3.358 1.225 2.629 1.806 2C2.388 1.391 3.095 0.904 3.927 0.543C4.759 0.182 5.687 0 6.71 0C7.271 0 7.888 0.081 8.56 0.243C9.232 0.404 9.859 0.662 10.441 1.015C11.023 1.368 11.504 1.83 11.886 2.401C12.266 2.972 12.458 3.658 12.458 4.459C12.458 5.259 12.247 5.875 11.825 6.36C11.403 6.847 10.903 7.228 10.321 7.503C9.739 7.781 9.123 7.97 8.471 8.074C7.82 8.18 7.252 8.231 6.771 8.231C6.029 8.231 5.381 8.188 4.83 8.102C4.278 8.017 3.903 7.956 3.701 7.916C3.781 8.602 3.943 9.16 4.183 9.588C4.424 10.017 4.693 10.355 4.996 10.602C5.296 10.85 5.596 11.017 5.899 11.103C6.199 11.188 6.47 11.231 6.712 11.231C7.134 11.231 7.533 11.193 7.915 11.117C8.296 11.041 8.638 10.956 8.938 10.86C9.239 10.764 9.526 10.67 9.797 10.574C10.067 10.479 10.333 10.431 10.594 10.431C10.875 10.431 11.125 10.499 11.346 10.631L11.344 10.632ZM6.71 2.427C6.489 2.447 6.229 2.498 5.928 2.584C5.628 2.67 5.331 2.827 5.041 3.056C4.749 3.286 4.485 3.609 4.243 4.028C4.002 4.447 3.832 4.982 3.733 5.629C4.054 5.724 4.509 5.815 5.101 5.901C5.694 5.987 6.284 6.002 6.877 5.944C7.469 5.886 7.99 5.724 8.442 5.457C8.893 5.19 9.138 4.743 9.178 4.114C9.218 3.637 9.022 3.228 8.591 2.885C8.16 2.541 7.533 2.39 6.71 2.427Z" fill="rgb(40,40,40)" fill-opacity="1.000" fill-rule="nonzero" transform="matrix(1 0 0 1 72.9746 23.589)"/><path d="M5.986 17.296C6.026 17.791 5.986 18.24 5.866 18.639C5.765 18.982 5.565 19.311 5.265 19.626C4.964 19.941 4.492 20.116 3.851 20.154C3.229 20.212 2.687 20.149 2.227 19.967C1.765 19.786 1.379 19.533 1.068 19.21C0.757 18.887 0.526 18.505 0.377 18.066C0.226 17.627 0.151 17.17 0.151 16.693L0.151 2.772C0.13 2.201 0.116 1.739 0.106 1.386C0.096 1.033 0.08 0.752 0.061 0.543C0.04 0.314 0.021 0.134 0 0C1.244 0 2.197 0.248 2.859 0.743C3.521 1.238 3.853 2.048 3.853 3.173L3.853 16.352C3.853 16.809 3.943 17.137 4.124 17.339C4.304 17.538 4.514 17.659 4.756 17.697C4.997 17.735 5.237 17.712 5.478 17.626C5.72 17.54 5.89 17.431 5.991 17.297L5.986 17.296Z" fill="rgb(40,40,40)" fill-opacity="1.000" fill-rule="nonzero" transform="matrix(1 0 0 1 88.1727 17.125)"/><path d="M5.986 17.296C6.026 17.791 5.986 18.24 5.866 18.639C5.765 18.982 5.565 19.311 5.265 19.626C4.964 19.941 4.492 20.116 3.851 20.154C3.229 20.212 2.687 20.149 2.227 19.967C1.765 19.786 1.379 19.533 1.068 19.21C0.757 18.887 0.526 18.505 0.377 18.066C0.226 17.627 0.151 17.17 0.151 16.693L0.151 2.772C0.13 2.201 0.116 1.739 0.106 1.386C0.096 1.033 0.08 0.752 0.061 0.543C0.04 0.314 0.021 0.134 0 0C1.244 0 2.197 0.248 2.859 0.743C3.521 1.238 3.853 2.048 3.853 3.173L3.853 16.352C3.853 16.809 3.943 17.137 4.124 17.339C4.304 17.538 4.514 17.659 4.756 17.697C4.997 17.735 5.237 17.712 5.478 17.626C5.72 17.54 5.89 17.431 5.991 17.297L5.986 17.296Z" fill="rgb(40,40,40)" fill-opacity="1.000" fill-rule="nonzero" transform="matrix(1 0 0 1 95.8443 17.125)"/><path d="M9.783 1.643C10.043 1.034 10.415 0.618 10.896 0.399C11.377 0.179 11.848 0.051 12.31 0.013C12.852 -0.025 13.423 0.023 14.024 0.156C12.741 3.092 11.587 5.721 10.564 8.046C10.123 9.038 9.687 10.018 9.255 10.99C8.824 11.962 8.436 12.838 8.096 13.62C7.754 14.401 7.469 15.049 7.238 15.564C7.007 16.079 6.871 16.374 6.832 16.45C6.55 17.059 6.18 17.48 5.718 17.708C5.256 17.937 4.796 18.069 4.334 18.109C3.792 18.166 3.22 18.109 2.619 17.937C2.861 17.404 3.121 16.821 3.401 16.193C3.642 15.64 3.917 15.006 4.228 14.292C4.539 13.577 4.874 12.82 5.235 12.019C5.174 11.886 5.049 11.61 4.858 11.191C4.667 10.772 4.447 10.267 4.197 9.676C3.945 9.085 3.665 8.442 3.354 7.747C3.043 7.052 2.737 6.351 2.437 5.646C1.714 3.988 0.903 2.159 0 0.158C0.601 0.024 1.174 -0.024 1.714 0.014C2.176 0.052 2.642 0.181 3.114 0.4C3.585 0.62 3.962 1.034 4.243 1.645C4.283 1.74 4.389 1.983 4.56 2.374C4.73 2.765 4.94 3.255 5.192 3.846C5.442 4.437 5.728 5.09 6.05 5.805C6.371 6.519 6.691 7.239 7.012 7.963C7.373 7.163 7.714 6.401 8.035 5.676C8.357 4.952 8.641 4.303 8.893 3.732C9.143 3.161 9.345 2.689 9.494 2.316C9.645 1.945 9.739 1.721 9.781 1.645L9.783 1.643Z" fill="rgb(40,40,40)" fill-opacity="1.000" fill-rule="nonzero" transform="matrix(1 0 0 1 102.9418 23.7445)"/><path d="M1.426 2.709C2.214 2.709 2.852 2.103 2.852 1.355C2.852 0.606 2.214 0 1.426 0C0.638 0 0 0.606 0 1.355C0 2.103 0.638 2.709 1.426 2.709Z" fill="rgb(255,199,0)" fill-opacity="1.000" fill-rule="nonzero" transform="matrix(1 0 0 1 33.7887 35.2112)"/><path d="M32.257 0L2.48 0C1.11 0 0 1.056 0 2.358L0 30.642C0 31.944 1.11 33 2.48 33L32.257 33C33.628 33 34.74 31.944 34.74 30.642L34.74 2.358C34.74 1.056 33.628 0 32.257 0ZM15.164 25.047C14.521 26.042 13.364 26.706 12.048 26.706C11.334 26.706 10.665 26.511 10.101 26.173L13.786 20.17L15.181 17.902L12.065 12.83L8.379 6.827C8.942 6.492 9.609 6.296 10.325 6.296C11.65 6.296 12.812 6.966 13.453 7.969L17.37 14.343L21.196 8.116C21.229 8.063 21.261 8.009 21.294 7.956C21.938 6.961 23.093 6.298 24.415 6.298C25.129 6.298 25.798 6.492 26.362 6.831L22.676 12.831L15.268 24.887C15.235 24.942 15.202 24.996 15.167 25.049L15.164 25.047ZM23.103 26.706C21.273 26.706 19.798 25.303 19.798 23.566C19.798 21.828 21.271 20.426 23.103 20.426C24.936 20.426 26.409 21.827 26.409 23.566C26.409 25.305 24.934 26.706 23.103 26.706Z" fill="rgb(255,199,0)" fill-opacity="1.000" fill-rule="nonzero" transform="matrix(1 0 0 1 12.1116 13)"/></svg>