<svg xmlns="http://www.w3.org/2000/svg" viewBox="0 0 60 60" width="60" height="60"><path d="M0 0L60 0L60 60L0 60L0 0Z" fill="rgb(255,255,255)" fill-opacity="1.000" fill-rule="nonzero" transform="matrix(1 0 0 1 0 0)"/><path d="M0 0L26 0L26 24L0 24L0 0Z" fill="rgb(40,40,40)" fill-opacity="1.000" fill-rule="nonzero" transform="matrix(1 0 0 1 18 18)"/><path d="M32.257 0L2.48 0C1.11 0 0 1.056 0 2.358L0 30.642C0 31.944 1.11 33 2.48 33L32.257 33C33.628 33 34.74 31.944 34.74 30.642L34.74 2.358C34.74 1.056 33.628 0 32.257 0ZM15.164 25.047C14.521 26.042 13.364 26.706 12.048 26.706C11.334 26.706 10.665 26.511 10.101 26.173L13.786 20.17L15.181 17.902L12.065 12.83L8.379 6.827C8.942 6.492 9.609 6.296 10.325 6.296C11.65 6.296 12.812 6.966 13.453 7.969L17.37 14.343L21.196 8.116C21.229 8.063 21.261 8.009 21.294 7.956C21.938 6.961 23.093 6.298 24.415 6.298C25.129 6.298 25.798 6.492 26.362 6.831L22.676 12.831L15.268 24.887C15.235 24.942 15.202 24.996 15.167 25.049L15.164 25.047ZM23.103 26.706C21.273 26.706 19.798 25.303 19.798 23.566C19.798 21.828 21.271 20.426 23.103 20.426C24.936 20.426 26.409 21.827 26.409 23.566C26.409 25.305 24.934 26.706 23.103 26.706Z" fill="rgb(255,199,0)" fill-opacity="1.000" fill-rule="nonzero" transform="matrix(1 0 0 1 12.1118 13)"/></svg>