<svg xmlns="http://www.w3.org/2000/svg" viewBox="0 0 60 60" width="60" height="60"><defs><linearGradient id="g358" gradientUnits="userSpaceOnUse" x1="0.00" y1="29.99" x2="60.01" y2="29.99"><stop offset="0.0%" stop-color="rgb(229,168,18)" stop-opacity="1.000"/><stop offset="33.0%" stop-color="rgb(255,203,5)" stop-opacity="1.000"/><stop offset="73.9%" stop-color="rgb(255,242,0)" stop-opacity="1.000"/><stop offset="100.0%" stop-color="rgb(255,242,0)" stop-opacity="1.000"/></linearGradient></defs><path d="M0 0L60 0L60 60L0 60L0 0Z" fill="rgb(255,255,255)" fill-opacity="1.000" fill-rule="nonzero" transform="matrix(1 0 0 1 0 0)"/><path d="M25.698 28.646L17.206 3.02C16.764 1.69 15.713 0.665 14.357 0.222C14.357 0.222 14.33 0.222 14.302 0.194L14.274 0.194C14.081 0.139 13.832 0.083 13.583 0.055C13.555 0.055 13.555 0.055 13.528 0.055C13.5 0.055 13.445 0.028 13.389 0.028C13.251 0.028 13.14 0.028 13.03 0.028L12.947 0.028L12.864 0C12.753 0 12.615 0 12.504 0C12.449 0 12.394 0.028 12.366 0.028C12.338 0.028 12.338 0.028 12.311 0.028C12.062 0.055 11.813 0.111 11.619 0.166L11.591 0.166C11.591 0.166 11.564 0.166 11.564 0.194C10.208 0.637 9.157 1.69 8.715 2.992L0.223 28.618C0.085 29.034 0.002 29.477 0.002 29.892C-0.026 30.862 0.251 31.832 0.887 32.635C1.33 33.245 1.91 33.688 2.519 33.993C2.547 33.993 2.547 34.02 2.574 34.02C2.657 34.076 2.768 34.103 2.851 34.131C2.906 34.159 2.934 34.159 2.989 34.187C3.044 34.214 3.1 34.214 3.155 34.242C3.321 34.297 3.515 34.325 3.681 34.38C3.708 34.38 3.764 34.408 3.791 34.408C3.985 34.436 4.179 34.436 4.344 34.464C4.4 34.464 4.483 34.464 4.538 34.464C4.732 34.464 4.898 34.436 5.091 34.408C5.147 34.408 5.23 34.38 5.285 34.38C5.396 34.353 5.534 34.325 5.644 34.297C6.142 34.159 6.64 33.937 7.083 33.605L7.359 33.411C7.968 32.912 8.438 32.247 8.715 31.444L13.002 18.534L17.289 31.444C18.064 33.771 20.581 35.045 22.932 34.27C25.2 33.466 26.472 30.973 25.698 28.646Z" fill="rgb(251,175,26)" fill-opacity="1.000" fill-rule="nonzero" transform="matrix(1 0 0 1 17.5734 12.3953)"/><path d="M0 4.46C0 4.959 0.083 5.43 0.221 5.845C0.802 7.646 2.489 8.948 4.453 8.948L18.034 8.948L7.136 17.093C5.172 18.562 4.785 21.36 6.223 23.327C7.689 25.294 10.455 25.737 12.419 24.268L34.049 8.117C35.156 7.286 35.82 5.956 35.82 4.543C35.82 4.516 35.82 4.516 35.82 4.488L35.82 4.46C35.82 4.239 35.792 4.017 35.737 3.768C35.737 3.74 35.737 3.74 35.737 3.712C35.737 3.685 35.737 3.629 35.709 3.574C35.681 3.463 35.654 3.324 35.598 3.214L35.571 3.131L35.543 3.047C35.515 2.937 35.46 2.826 35.432 2.715C35.405 2.66 35.377 2.632 35.377 2.604C35.377 2.576 35.349 2.576 35.349 2.549C35.239 2.327 35.1 2.105 34.99 1.939L34.962 1.912L34.934 1.884C34.077 0.748 32.749 0.055 31.366 0.055L4.426 0C1.964 0 0 2.022 0 4.46Z" fill="url(#g358)" fill-rule="nonzero" transform="matrix(1 0 0 1 12.1804 21.7315)"/></svg>