<svg xmlns="http://www.w3.org/2000/svg" viewBox="0 0 130 60" width="130" height="60"><defs><linearGradient id="g359" gradientUnits="userSpaceOnUse" x1="0.00" y1="29.99" x2="130.02" y2="29.99"><stop offset="0.0%" stop-color="rgb(229,168,18)" stop-opacity="1.000"/><stop offset="33.0%" stop-color="rgb(255,203,5)" stop-opacity="1.000"/><stop offset="73.9%" stop-color="rgb(255,242,0)" stop-opacity="1.000"/><stop offset="100.0%" stop-color="rgb(255,242,0)" stop-opacity="1.000"/></linearGradient></defs><path d="M0 0L130 0L130 60L0 60L0 0Z" fill="rgb(255,255,255)" fill-opacity="1.000" fill-rule="nonzero" transform="matrix(1 0 0 1 0 0)"/><path d="M9.355 0C4.015 0 0 4.077 0 9.463C0 14.176 3.38 18.964 9.84 18.964C10.998 18.964 12.1 18.795 13.108 18.44L12.585 13.895C11.726 14.4 10.792 14.643 9.803 14.643C7.45 14.643 5.62 13.39 4.911 11.389L18.84 11.389L18.84 10.566C18.84 4.358 14.938 0 9.355 0ZM4.873 7.406C5.396 5.816 6.759 4.301 9.317 4.301C11.465 4.301 13.201 5.536 13.78 7.406L4.873 7.406Z" fill="rgb(0,75,143)" fill-opacity="1.000" fill-rule="nonzero" transform="matrix(1 0 0 1 54.5409 20.8632)"/><path d="M18.99 0C16.581 0 14.677 0.785 13.463 2.244C11.857 0.262 9.896 0 8.496 0C7.226 0 5.751 0.318 4.593 1.103L4.593 0L0 0L0 18.964L4.593 18.964L4.593 7.911C4.593 5.704 5.863 4.395 7.992 4.395C9.803 4.395 10.849 5.629 10.849 7.78L10.849 18.964L15.442 18.964L15.442 7.911C15.442 5.704 16.711 4.395 18.84 4.395C20.651 4.395 21.697 5.629 21.697 7.78L21.697 18.964L26.29 18.964L26.29 7.462C26.29 2.917 23.433 0 18.99 0Z" fill="rgb(0,75,143)" fill-opacity="1.000" fill-rule="nonzero" transform="matrix(1 0 0 1 74.2216 20.8632)"/><path d="M6.423 14.643L13.089 3.722C14.023 1.777 13.052 0.075 10.643 0L0 0L1.064 4.32L7.394 4.32L0.168 16.083L0.71 18.945L15.348 18.945L14.284 14.625L6.423 14.625L6.423 14.643Z" fill="rgb(0,75,143)" fill-opacity="1.000" fill-rule="nonzero" transform="matrix(1 0 0 1 40.649 20.8632)"/><path d="M8.122 0C6.573 0 5.004 0.131 3.417 0.636L4.145 4.582C5.434 4.152 6.797 4.058 7.973 4.058C10.662 4.058 12.006 5.293 12.006 6.92L12.006 7.032C10.774 6.321 9.355 5.966 7.805 5.966C2.428 5.966 0 9.257 0 12.324C0 15.953 2.801 18.552 6.909 18.907L6.89 18.926L7.226 18.926C7.432 18.945 7.637 18.945 7.842 18.945C7.917 18.945 7.992 18.945 8.048 18.945L13.892 18.945C13.967 18.945 14.042 18.945 14.116 18.926L15.591 18.926C16.021 18.926 16.375 18.571 16.375 18.141L16.375 16.065L16.375 10.211L16.375 6.714C16.413 2.88 13.164 0 8.122 0ZM12.137 14.55C12.137 14.98 11.801 15.317 11.372 15.317L8.253 15.317L8.104 15.317C8.085 15.317 8.048 15.317 8.029 15.317C7.898 15.317 7.768 15.298 7.656 15.279C7.525 15.261 7.413 15.242 7.282 15.223C7.226 15.223 7.189 15.204 7.133 15.186C7.114 15.186 7.114 15.186 7.095 15.186C7.058 15.167 7.002 15.167 6.965 15.148C6.946 15.148 6.927 15.148 6.909 15.13C6.871 15.111 6.834 15.111 6.797 15.092C6.778 15.092 6.759 15.074 6.741 15.074C6.703 15.055 6.666 15.055 6.629 15.036C6.61 15.036 6.591 15.017 6.573 15.017C6.535 14.999 6.498 14.999 6.461 14.98C6.442 14.98 6.423 14.961 6.405 14.961C6.367 14.943 6.33 14.943 6.311 14.924C6.293 14.924 6.274 14.905 6.256 14.905C6.218 14.887 6.2 14.887 6.162 14.868C6.144 14.849 6.125 14.849 6.106 14.83C6.069 14.812 6.05 14.793 6.013 14.793C5.994 14.774 5.975 14.774 5.957 14.756C5.919 14.737 5.9 14.718 5.882 14.718C5.863 14.7 5.844 14.7 5.826 14.681C5.807 14.662 5.769 14.643 5.751 14.625C5.732 14.606 5.713 14.606 5.695 14.587C5.676 14.569 5.639 14.55 5.62 14.531C5.601 14.512 5.583 14.512 5.564 14.494C5.546 14.475 5.527 14.456 5.49 14.438C5.471 14.419 5.452 14.4 5.434 14.4C5.415 14.382 5.396 14.363 5.359 14.344C5.34 14.326 5.322 14.307 5.303 14.288C5.284 14.269 5.266 14.251 5.247 14.232C5.228 14.213 5.21 14.195 5.191 14.176C5.172 14.157 5.154 14.139 5.135 14.12C5.116 14.101 5.098 14.082 5.079 14.064C5.06 14.045 5.042 14.026 5.023 14.008C5.004 13.989 4.986 13.97 4.967 13.951C4.948 13.933 4.93 13.914 4.911 13.895C4.892 13.877 4.874 13.858 4.874 13.839C4.855 13.821 4.837 13.802 4.837 13.783C4.818 13.764 4.799 13.746 4.799 13.727C4.78 13.708 4.78 13.69 4.762 13.671C4.743 13.652 4.743 13.634 4.724 13.615C4.706 13.596 4.706 13.577 4.687 13.559C4.668 13.54 4.668 13.521 4.65 13.484C4.631 13.465 4.631 13.447 4.612 13.428C4.593 13.409 4.593 13.39 4.575 13.353C4.556 13.334 4.556 13.316 4.556 13.297C4.537 13.278 4.537 13.241 4.537 13.222C4.537 13.203 4.519 13.185 4.519 13.166C4.519 13.147 4.5 13.11 4.5 13.091C4.5 13.073 4.481 13.054 4.481 13.035C4.481 13.016 4.462 12.979 4.462 12.96C4.462 12.942 4.444 12.923 4.444 12.904C4.444 12.885 4.425 12.848 4.425 12.829C4.425 12.811 4.425 12.792 4.406 12.773C4.406 12.736 4.406 12.717 4.388 12.68C4.388 12.661 4.388 12.642 4.388 12.624C4.388 12.568 4.388 12.53 4.388 12.474C4.388 10.903 6.125 9.613 8.272 9.613C8.346 9.613 8.402 9.613 8.477 9.613C8.496 9.613 8.515 9.613 8.552 9.613C8.589 9.613 8.645 9.613 8.683 9.613C8.702 9.613 8.739 9.613 8.758 9.613C8.795 9.613 8.832 9.613 8.87 9.631C8.907 9.631 8.926 9.631 8.963 9.65C9 9.65 9.038 9.65 9.056 9.669C9.094 9.669 9.112 9.687 9.149 9.687C9.187 9.687 9.205 9.706 9.243 9.706C9.28 9.706 9.317 9.725 9.336 9.725C9.355 9.725 9.392 9.744 9.411 9.744C9.448 9.744 9.485 9.762 9.523 9.762C9.541 9.762 9.579 9.781 9.597 9.781C9.635 9.8 9.672 9.8 9.709 9.818C9.728 9.818 9.747 9.837 9.784 9.837C9.822 9.856 9.859 9.856 9.896 9.874C9.915 9.874 9.934 9.893 9.953 9.893C9.99 9.912 10.027 9.931 10.065 9.931C10.083 9.931 10.102 9.949 10.121 9.949C10.158 9.968 10.195 9.987 10.233 10.005C10.251 10.005 10.27 10.024 10.27 10.024C10.307 10.043 10.345 10.062 10.382 10.08C10.401 10.08 10.401 10.099 10.419 10.099C10.457 10.118 10.494 10.136 10.531 10.155C10.55 10.155 10.55 10.174 10.568 10.174C10.606 10.192 10.643 10.211 10.699 10.249C10.699 10.249 10.718 10.249 10.718 10.267C10.755 10.286 10.792 10.323 10.848 10.342C10.848 10.342 10.867 10.342 10.867 10.361C10.904 10.379 10.942 10.417 10.979 10.436C10.979 10.436 10.979 10.436 10.998 10.436C11.035 10.473 11.072 10.492 11.11 10.529C11.147 10.566 11.185 10.585 11.222 10.623C11.26 10.66 11.297 10.697 11.334 10.735C11.82 11.202 12.118 11.782 12.118 12.418C12.118 12.437 12.118 12.437 12.118 12.455L12.118 14.55L12.137 14.55Z" fill="rgb(0,75,143)" fill-opacity="1.000" fill-rule="nonzero" transform="matrix(1 0 0 1 101.3518 20.8818)"/><path d="M17.348 19.338L11.615 2.038C11.317 1.141 10.607 0.449 9.692 0.15C9.692 0.15 9.673 0.15 9.655 0.131L9.636 0.131C9.505 0.094 9.337 0.056 9.169 0.037C9.151 0.037 9.151 0.037 9.132 0.037C9.113 0.037 9.076 0.019 9.039 0.019C8.945 0.019 8.871 0.019 8.796 0.019L8.74 0.019L8.684 0C8.609 0 8.516 0 8.441 0C8.404 0 8.366 0.019 8.348 0.019C8.329 0.019 8.329 0.019 8.31 0.019C8.142 0.037 7.974 0.075 7.844 0.112L7.825 0.112C7.825 0.112 7.806 0.112 7.806 0.131C6.891 0.43 6.182 1.141 5.883 2.02L0.151 19.319C0.057 19.599 0.001 19.899 0.001 20.179C-0.017 20.834 0.169 21.488 0.599 22.031C0.898 22.442 1.29 22.741 1.7 22.947C1.719 22.947 1.719 22.966 1.738 22.966C1.794 23.003 1.868 23.022 1.924 23.041C1.962 23.059 1.981 23.059 2.018 23.078C2.055 23.097 2.093 23.097 2.13 23.115C2.242 23.153 2.373 23.171 2.485 23.209C2.503 23.209 2.541 23.228 2.559 23.228C2.69 23.246 2.821 23.246 2.933 23.265C2.97 23.265 3.026 23.265 3.063 23.265C3.194 23.265 3.306 23.246 3.437 23.228C3.474 23.228 3.53 23.209 3.568 23.209C3.642 23.19 3.736 23.171 3.81 23.153C4.146 23.059 4.483 22.91 4.781 22.685L4.968 22.554C5.379 22.218 5.696 21.769 5.883 21.226L8.777 12.511L11.671 21.226C12.194 22.797 13.893 23.658 15.48 23.134C17.012 22.592 17.87 20.908 17.348 19.338Z" fill="rgb(251,175,26)" fill-opacity="1.000" fill-rule="nonzero" transform="matrix(1 0 0 1 15.5152 18.7125)"/><path d="M0 3.011C0 3.348 0.056 3.666 0.149 3.946C0.541 5.162 1.68 6.041 3.006 6.041L12.174 6.041L4.817 11.539C3.492 12.53 3.23 14.419 4.201 15.747C5.191 17.075 7.058 17.374 8.384 16.383L22.985 5.48C23.732 4.919 24.18 4.021 24.18 3.067C24.18 3.048 24.18 3.048 24.18 3.03L24.18 3.011C24.18 2.861 24.162 2.712 24.124 2.543C24.124 2.525 24.124 2.525 24.124 2.506C24.124 2.487 24.124 2.45 24.106 2.413C24.087 2.338 24.068 2.244 24.031 2.169L24.012 2.113L23.994 2.057C23.975 1.982 23.938 1.908 23.919 1.833C23.9 1.795 23.882 1.777 23.882 1.758C23.882 1.739 23.863 1.739 23.863 1.721C23.788 1.571 23.695 1.421 23.62 1.309L23.602 1.29L23.583 1.272C23.004 0.505 22.108 0.037 21.174 0.037L2.988 0C1.326 0 0 1.365 0 3.011Z" fill="url(#g359)" fill-rule="nonzero" transform="matrix(1 0 0 1 11.8753 25.015)"/></svg>