<svg xmlns="http://www.w3.org/2000/svg" viewBox="0 0 130 60" width="130" height="60"><defs><linearGradient id="g56" gradientUnits="userSpaceOnUse" x1="102.03" y1="47.39" x2="27.95" y2="12.93"><stop offset="0.0%" stop-color="rgb(112,212,75)" stop-opacity="1.000"/><stop offset="100.0%" stop-color="rgb(9,182,243)" stop-opacity="1.000"/></linearGradient></defs><path d="M0 0L130 0L130 60L0 60L0 0Z" fill="rgb(255,255,255)" fill-opacity="1.000" fill-rule="nonzero" transform="matrix(1 0 0 1 0 0)"/><path d="M6.93 5.013C4.532 3.639 5.531 0 8.249 0L25.456 0C28.627 0 30.358 3.734 28.295 6.169L17.507 19.106C16.811 19.926 17.06 21.188 18.023 21.679L23.132 24.287C25.644 25.569 24.717 29.36 21.923 29.36L3.727 29.358C0.539 29.358 -1.151 25.608 0.889 23.189L11.661 10.017C12.335 9.221 12.135 7.991 11.226 7.471L6.93 5.013ZM2.315 24.39C1.279 25.604 2.133 27.488 3.727 27.488L21.923 27.49C22.773 27.49 23.047 26.341 22.29 25.955L17.181 23.347C15.145 22.308 14.614 19.633 16.093 17.891L26.875 4.96C27.911 3.746 27.051 1.87 25.456 1.87L8.249 1.87C7.421 1.87 7.126 2.973 7.85 3.387L12.145 5.845C14.068 6.945 14.519 9.528 13.086 11.218L2.315 24.39Z" fill="url(#g56)" fill-rule="evenodd" transform="matrix(1 0 0 1 18 15)"/><path d="M0.309 3.911C0.139 3.912 0 3.774 0 3.604L0 0.998C0 0.447 0.451 0 1.005 0L12.71 0C12.879 0 13.017 0.137 13.017 0.307L13.017 3.048C13.017 3.122 12.99 3.193 12.942 3.249L6.207 10.884C6.035 11.083 6.176 11.392 6.439 11.392L12.776 11.392C12.945 11.392 13.083 11.53 13.083 11.699L13.083 14.303C13.083 14.854 12.632 15.301 12.078 15.301L0.307 15.301C0.137 15.301 0 15.163 0 14.994L0 12.165C0 12.089 0.028 12.017 0.078 11.96L7.025 4.422C7.202 4.224 7.06 3.909 6.794 3.911L0.309 3.911Z" fill="rgb(0,0,0)" fill-opacity="1.000" fill-rule="nonzero" transform="matrix(1 0 0 1 56.9929 22.0288)"/><path d="M3.883 0.307C3.883 0.137 3.745 0 3.576 0L0.307 0C0.137 0 0 0.137 0 0.307L0 8.562C0 12.282 2.928 15.298 6.634 15.298L7.504 15.298C11.21 15.298 14.194 12.301 14.194 8.582L14.194 0.307C14.194 0.137 14.057 0 13.888 0L10.613 0C10.444 0 10.306 0.137 10.306 0.307L10.306 8.393C10.306 10.046 9.027 11.388 7.38 11.388L6.757 11.388C5.111 11.388 3.883 10.046 3.883 8.393L3.883 0.307Z" fill="rgb(0,0,0)" fill-opacity="1.000" fill-rule="nonzero" transform="matrix(1 0 0 1 73.0552 22.0336)"/><path d="M0.002 0.307C0.002 0.137 0.14 0 0.31 0L2.93 0C3.482 0 3.89 0.45 3.89 1.005L3.89 9.626C3.89 10.597 4.713 11.388 5.679 11.388L10.853 11.388C11.022 11.388 11.159 11.525 11.159 11.695L11.159 14.293C11.159 14.849 10.712 15.298 10.159 15.298L4.051 15.298C1.845 15.298 0.001 13.496 0 11.275L0.002 0.307Z" fill="rgb(0,0,0)" fill-opacity="1.000" fill-rule="nonzero" transform="matrix(1 0 0 1 90.2928 22.0336)"/><path d="M7.269 0C7.456 0 7.607 0.152 7.607 0.34L7.607 3.401C7.607 3.589 7.759 3.741 7.945 3.741L10.988 3.741C11.175 3.741 11.327 3.893 11.327 4.081L11.327 7.312C11.327 7.499 11.175 7.652 10.988 7.652L7.945 7.652C7.759 7.652 7.607 7.804 7.607 7.992L7.607 11.052C7.607 11.24 7.456 11.392 7.269 11.392L4.058 11.392C3.87 11.392 3.719 11.24 3.719 11.052L3.719 7.992C3.719 7.804 3.568 7.652 3.381 7.652L0.338 7.652C0.152 7.652 0 7.499 0 7.312L0 4.081C0 3.893 0.152 3.741 0.338 3.741L3.381 3.741C3.568 3.741 3.719 3.589 3.719 3.401L3.719 0.34C3.719 0.152 3.87 0 4.058 0L7.269 0Z" fill="rgb(0,0,0)" fill-opacity="1.000" fill-rule="nonzero" transform="matrix(1 0 0 1 101.4512 22.0288)"/></svg>