<svg xmlns="http://www.w3.org/2000/svg" viewBox="0 0 60 60" width="60" height="60"><defs><linearGradient id="g55" gradientUnits="userSpaceOnUse" x1="47.09" y1="47.39" x2="12.90" y2="12.93"><stop offset="0.0%" stop-color="rgb(112,212,75)" stop-opacity="1.000"/><stop offset="100.0%" stop-color="rgb(9,182,243)" stop-opacity="1.000"/></linearGradient></defs><path d="M0 0L60 0L60 60L0 60L0 0Z" fill="rgb(255,255,255)" fill-opacity="1.000" fill-rule="nonzero" transform="matrix(1 0 0 1 0 0)"/><path d="M6.93 5.013C4.532 3.639 5.531 0 8.249 0L25.456 0C28.627 0 30.358 3.734 28.295 6.169L17.507 19.106C16.811 19.926 17.06 21.188 18.023 21.679L23.132 24.287C25.644 25.569 24.717 29.36 21.923 29.36L3.727 29.358C0.539 29.358 -1.151 25.608 0.889 23.189L11.661 10.017C12.335 9.221 12.135 7.991 11.226 7.471L6.93 5.013ZM2.315 24.39C1.279 25.604 2.133 27.488 3.727 27.488L21.923 27.49C22.773 27.49 23.047 26.341 22.29 25.955L17.181 23.347C15.145 22.308 14.614 19.633 16.093 17.891L26.875 4.96C27.911 3.746 27.051 1.87 25.456 1.87L8.249 1.87C7.421 1.87 7.126 2.973 7.85 3.387L12.145 5.845C14.068 6.945 14.519 9.528 13.086 11.218L2.315 24.39Z" fill="url(#g55)" fill-rule="evenodd" transform="matrix(1 0 0 1 15 15)"/></svg>